<?xml version="1.0" encoding="UTF-8"?>
<svg width="160px" height="72px" viewBox="0 0 160 72" version="1.1" xmlns="http://www.w3.org/2000/svg" xmlns:xlink="http://www.w3.org/1999/xlink">
    <!-- Generator: Sketch 49.2 (51160) - http://www.bohemiancoding.com/sketch -->
    <title>customer/deloitte</title>
    <desc>Created with Sketch.</desc>
    <defs></defs>
    <g id="customer/deloitte" stroke="none" stroke-width="1" fill="none" fill-rule="evenodd">
        <g id="deloitte" transform="translate(0.000000, 21.000000)" fill="#4F4270" fill-rule="nonzero">
            <path d="M150.539722,25.6240932 C150.539722,23.3387888 152.416808,21.4846739 154.727612,21.4846739 C157.039676,21.4846739 158.914339,23.3387888 158.914339,25.6240932 C158.914339,27.9093976 157.039676,29.7623147 154.727612,29.7623147 C152.416808,29.7623147 150.539722,27.9093976 150.539722,25.6240932" id="path3356"></path>
            <path d="M16.9802443,14.6616941 C16.9802443,12.0398223 16.4677124,10.0946786 15.4425518,8.8274605 C14.4161309,7.5614402 12.8613767,6.92902893 10.7711154,6.92902893 L8.54755894,6.92902893 L8.54755894,22.9620921 L10.2488893,22.9620921 C12.5706479,22.9620921 14.2719783,22.2817708 15.3553041,20.9163374 C16.4373696,19.5532995 16.9802443,17.4680191 16.9802443,14.6616941 M24.9100919,14.3886074 C24.9100919,19.1652289 23.6110704,22.8459105 21.0130274,25.4294542 C18.4149844,28.0141958 14.7626982,29.3065666 10.0549086,29.3065666 L0.907276734,29.3065666 L0.907276734,0.683967579 L10.6935618,0.683967579 C15.2328665,0.683967579 18.7373163,1.85895898 21.2069112,4.20774404 C23.6753429,6.55772685 24.9100919,9.94975097 24.9100919,14.3886074" id="path3360"></path>
            <polygon id="path3362" points="50.2492513 29.306212 57.5283279 29.306212 57.5283279 0.563838183 50.2492513 0.563838183"></polygon>
            <path d="M67.7541476,18.585164 C67.7541476,20.4177194 67.9965024,21.8154921 68.4800486,22.7760865 C68.9647581,23.7378786 69.7765496,24.2181758 70.9180405,24.2181758 C72.0474137,24.2181758 72.8460211,23.7378786 73.3113422,22.7760865 C73.7766634,21.8154921 74.0080637,20.4177194 74.0080637,18.585164 C74.0080637,16.7621906 73.7729796,15.3871752 73.301648,14.45892 C72.8290563,13.5282693 72.0231782,13.0623451 70.880524,13.0623451 C69.7632686,13.0623451 68.9647581,13.5258738 68.4800486,14.4481403 C67.9965024,15.3716045 67.7541476,16.7502131 67.7541476,18.585164 M81.4168486,18.585164 C81.4168486,22.0766013 80.4910534,24.8002817 78.634616,26.7526119 C76.7794388,28.70614 74.1825591,29.6835028 70.8441708,29.6835028 C67.6426644,29.6835028 65.0942557,28.6845805 63.2027253,26.6867358 C61.3087713,24.6888911 60.3623275,21.9891657 60.3623275,18.585164 C60.3623275,15.1045065 61.2893829,12.3999901 63.1458204,10.4716148 C65.0021609,8.54323955 67.605051,7.5790519 70.9568173,7.5790519 C73.0277872,7.5790519 74.8599891,8.02581214 76.4474128,8.91813487 C78.0359998,9.8104576 79.2624118,11.0884554 80.1239345,12.753326 C80.9867174,14.4158011 81.4168486,16.3609448 81.4168486,18.585164" id="path3366"></path>
            <polygon id="path3370" points="84.3076562 29.306327 91.5879931 29.306327 91.5879931 18.3062036 91.5879931 7.9564577 84.3076562 7.9564577"></polygon>
            <polygon id="path3372" points="84.3073653 5.37399668 91.5877023 5.37399668 91.5877023 0.562640434 84.3073653 0.562640434"></polygon>
            <path d="M106.33751,23.8607677 C107.320307,23.8607677 108.49088,23.6140314 109.856501,23.1241523 L109.856501,28.4960548 C108.874964,28.9224534 107.941898,29.2278793 107.05488,29.4087393 C106.167861,29.5919948 105.126899,29.6830237 103.935774,29.6830237 C101.491578,29.6830237 99.7297558,29.0757652 98.6475933,27.8636436 C97.5703749,26.651522 97.0299238,24.7902206 97.0299238,22.2785417 L97.0299238,13.4774848 L94.4803517,13.4774848 L94.4803517,7.95825912 L97.0299238,7.95825912 L97.0299238,2.50610736 L104.366002,1.24487805 L104.366002,7.95825912 L109.010683,7.95825912 L109.010683,13.4774848 L104.366002,13.4774848 L104.366002,21.7874648 C104.366002,23.1696667 105.023947,23.8607677 106.33751,23.8607677" id="path3376"></path>
            <path d="M123.186885,23.8607677 C124.169682,23.8607677 125.340255,23.6140314 126.705876,23.1241523 L126.705876,28.4960548 C125.7256,28.9224534 124.791273,29.2278793 123.904255,29.4087393 C123.016073,29.5919948 121.978795,29.6830237 120.785149,29.6830237 C118.34105,29.6830237 116.579131,29.0757652 115.499392,27.8636436 C114.41975,26.651522 113.879299,24.7902206 113.879299,22.2785417 L113.879299,13.4774848 L111.328467,13.4774848 L111.328467,7.95825912 L113.879299,7.95825912 L113.879299,2.4234627 L121.214117,1.24487805 L121.214117,7.95825912 L125.861318,7.95825912 L125.861318,13.4774848 L121.214117,13.4774848 L121.214117,21.7874648 C121.214117,23.1696667 121.872159,23.8607677 123.186885,23.8607677" id="path3380"></path>
            <path d="M135.891897,15.9842481 C135.991262,14.8152454 136.329396,13.9588552 136.906103,13.4114841 C137.485428,12.8653107 138.200374,12.592224 139.055887,12.592224 C139.988953,12.592224 140.730558,12.8988476 141.280703,13.5168859 C141.834436,14.131331 142.122838,14.9541843 142.14591,15.9842481 L135.891897,15.9842481 Z M146.158044,10.0961159 C144.427631,8.41926777 141.972578,7.57964598 138.796567,7.57964598 C135.458082,7.57964598 132.889121,8.54383363 131.088426,10.4722089 C129.288893,12.4005842 128.388594,15.1673835 128.388594,18.7726069 C128.388594,22.2640442 129.361696,24.9565831 131.302958,26.8466304 C133.245383,28.7366778 135.973037,29.6828992 139.486018,29.6828992 C141.172807,29.6828992 142.624512,29.5691131 143.841133,29.3427386 C145.050483,29.1187596 146.221057,28.7139205 147.356537,28.1294192 L146.238022,23.318063 C145.412852,23.6510371 144.627623,23.9073553 143.886017,24.0762378 C142.814809,24.3217763 141.639388,24.4451444 140.359658,24.4451444 C138.956521,24.4451444 137.84896,24.1061816 137.037072,23.4282558 C136.225183,22.7491324 135.792531,21.8124929 135.742897,20.6195353 L148.754924,20.6195353 L148.754924,17.3412973 C148.754924,14.1876252 147.889621,11.7717662 146.158044,10.0961159 Z" id="path3384"></path>
            <path d="M34.5714189,15.9842481 C34.6707844,14.8152454 35.0089177,13.9588552 35.5856251,13.4114841 C36.1636897,12.8653107 36.8797995,12.592224 37.7365721,12.592224 C38.6672143,12.592224 39.4088199,12.8988476 39.9602254,13.5168859 C40.5139576,14.131331 40.8010995,14.9541843 40.8265952,15.9842481 L34.5714189,15.9842481 Z M44.8387298,10.0961159 C43.1071535,8.41926777 40.6532631,7.57964598 37.4760892,7.57964598 C34.1363437,7.57964598 31.5686435,8.54383363 29.7691109,10.4722089 C27.9696753,12.4005842 27.0681156,15.1673835 27.0681156,18.7726069 C27.0681156,22.2640442 28.0399582,24.9565831 29.9836434,26.8466304 C31.924905,28.7366778 34.6525593,29.6828992 38.16554,29.6828992 C39.8523291,29.6828992 41.3040341,29.5691131 42.520655,29.3427386 C43.7300052,29.1187596 44.9005787,28.7139205 46.0372225,28.1294192 L44.9175435,23.318063 C44.0922771,23.6510371 43.3070477,23.9073553 42.5667024,24.0762378 C41.4930708,24.3217763 40.3189105,24.4451444 39.0391804,24.4451444 C37.6372066,24.4451444 36.5284821,24.1061816 35.7165936,23.4282558 C34.9034449,22.7491324 34.4720535,21.8124929 34.4224192,20.6195353 L47.4344462,20.6195353 L47.4344462,17.3412973 C47.4344462,14.1876252 46.5691427,11.7717662 44.8387298,10.0961159 Z" id="path3388"></path>
        </g>
    </g>
</svg>