<?xml version="1.0" encoding="UTF-8"?>
<svg width="160px" height="72px" viewBox="0 0 160 72" version="1.1" xmlns="http://www.w3.org/2000/svg" xmlns:xlink="http://www.w3.org/1999/xlink">
    <!-- Generator: Sketch 49.2 (51160) - http://www.bohemiancoding.com/sketch -->
    <title>customer/freshworks</title>
    <desc>Created with Sketch.</desc>
    <defs></defs>
    <g id="customer/freshworks" stroke="none" stroke-width="1" fill="none" fill-rule="evenodd">
        <g id="freshworks" transform="translate(0.000000, 20.000000)" fill-rule="nonzero">
            <path d="M38.88,0.8 C34.88,0.8 33.44,3.6 33.44,6.24 L33.44,7.84 L32.64,7.84 C32,7.84 31.52,8.32 31.52,8.96 C31.52,9.6 32,10.08 32.64,10.08 L33.44,10.08 L33.44,21.12 C33.44,21.76 33.92,22.32 34.64,22.32 C35.36,22.32 35.84,21.84 35.84,21.12 L35.84,10 L38.4,10 C39.04,10 39.52,9.52 39.52,8.88 C39.52,8.24 39.04,7.76 38.4,7.76 L35.84,7.76 L35.84,6.16 C35.84,4.72 36.4,2.96 38.96,2.96 C39.6,2.96 40.08,2.48 40.08,1.92 C40,1.28 39.52,0.8 38.88,0.8 Z M48,7.44 C46.4,7.36 44.96,8.08 44,9.36 L44,8.72 C44,8.08 43.52,7.52 42.8,7.52 C42.08,7.52 41.6,8.08 41.6,8.72 L41.6,21.04 C41.6,21.68 42.08,22.24 42.8,22.24 C43.52,22.24 44,21.76 44,21.04 L44,14.24 C44,11.36 45.52,9.68 48,9.68 C48.64,9.68 49.12,9.2 49.12,8.56 C49.12,7.92 48.56,7.44 48,7.44 Z M62.16,13.52 C62.16,12.16 61.76,10.8 61.04,9.68 C59.92,8.16 58.08,7.28 56.16,7.44 C52.08,7.44 49.76,10.16 49.76,14.88 C49.76,19.76 52.08,22.4 56.48,22.4 C58.24,22.48 60,21.84 61.36,20.64 C61.6,20.48 61.76,20.16 61.76,19.84 C61.76,19.28 61.28,18.8 60.72,18.8 C60.48,18.8 60.24,18.88 60.08,19.04 C59.12,19.84 57.84,20.32 56.56,20.32 C53.92,20.32 52.24,18.56 52.16,15.76 L60.8,15.76 C62.16,15.6 62.16,14.32 62.16,13.52 Z M56.24,9.52 C58.64,9.52 59.84,10.88 59.92,13.52 L52.16,13.52 C52.4,10.96 53.84,9.52 56.24,9.52 Z M70,13.68 C68.24,13.04 66.8,12.56 66.8,11.28 C66.8,9.84 68.4,9.68 69.28,9.68 C70.48,9.6 71.68,10.08 72.48,10.88 C72.88,11.28 73.6,11.28 74,10.88 C74.24,10.64 74.32,10.4 74.32,10.08 C74.32,9.84 74.24,9.6 74.08,9.36 C72.88,8 71.12,7.2 69.36,7.36 C66.4,7.36 64.56,8.88 64.56,11.2 C64.56,14.08 67.12,14.96 69.36,15.76 C71.04,16.32 72.56,16.8 72.56,18.08 C72.56,19.76 70.64,20.08 69.52,20.08 C68.16,20.16 66.8,19.6 65.84,18.64 C65.6,18.4 65.36,18.32 65.04,18.24 C64.48,18.24 64,18.72 64,19.28 C64,19.52 64.08,19.76 64.24,20 C65.6,21.6 67.52,22.4 69.52,22.4 C72.88,22.4 74.88,20.8 74.88,18.24 C74.72,15.28 72.24,14.48 70,13.68 Z M83.84,7.36 C82.4,7.28 80.96,7.92 80,9.04 L80,1.2 C80,0.56 79.52,0 78.8,0 C78.16,0 77.68,0.48 77.68,1.2 L77.68,21.04 C77.68,21.68 78.16,22.24 78.8,22.24 C79.44,22.24 80,21.76 80,21.04 L80,13.6 C80,10.88 81.28,9.52 83.84,9.52 C86.4,9.52 87.28,10.64 87.28,13.36 L87.28,21.04 C87.28,21.68 87.76,22.24 88.48,22.24 C89.12,22.24 89.6,21.76 89.6,21.04 L89.6,12.96 C89.6,9.28 87.68,7.36 83.84,7.36 Z M108.96,7.6 C108.48,7.6 108,7.92 107.84,8.4 L104.48,17.84 L101.76,8.4 C101.52,7.76 100.88,7.52 100.24,7.68 C99.92,7.76 99.68,8.08 99.52,8.4 L96.8,17.84 L93.6,8.32 C93.44,7.84 93.04,7.52 92.48,7.6 C91.84,7.6 91.36,8.08 91.36,8.72 C91.36,8.88 91.36,9.04 91.44,9.2 L95.92,21.44 C96.08,21.92 96.48,22.24 97.04,22.24 C97.52,22.24 98,21.92 98.16,21.44 L100.8,12.48 L103.44,21.44 C103.6,21.92 104.08,22.24 104.56,22.24 C105.04,22.24 105.52,21.92 105.68,21.44 L110.16,9.2 C110.24,9.04 110.24,8.88 110.24,8.72 C110.08,8.08 109.6,7.6 108.96,7.6 Z M117.44,7.36 C113.2,7.36 110.88,10 110.88,14.8 C110.88,19.6 113.2,22.32 117.44,22.32 C121.68,22.32 124,19.68 124,14.8 C124,9.92 121.68,7.36 117.44,7.36 Z M117.44,20.16 C114.64,20.16 113.2,18.4 113.2,14.8 C113.2,11.2 114.64,9.44 117.44,9.44 C120.24,9.44 121.6,11.28 121.6,14.8 C121.6,18.32 120.24,20.24 117.44,20.16 Z M132.96,7.44 C131.36,7.36 129.92,8.08 128.96,9.36 L128.96,8.72 C128.96,8.08 128.48,7.52 127.84,7.52 C127.2,7.52 126.64,8 126.64,8.64 L126.64,20.96 C126.64,21.6 127.12,22.16 127.76,22.16 C128.4,22.16 128.96,21.68 128.96,21.04 L128.96,14.24 C128.96,11.36 130.48,9.68 132.96,9.68 C133.6,9.68 134.08,9.2 134.08,8.56 C134.08,7.92 133.6,7.44 132.96,7.44 Z M141.84,13.52 L146.64,9.68 C146.96,9.44 147.12,9.12 147.12,8.72 C147.12,8.08 146.64,7.6 146,7.6 C145.68,7.6 145.44,7.68 145.2,7.92 L138.32,13.52 L138.32,1.2 C138.32,0.56 137.84,0 137.2,0 C136.56,0 136,0.48 136,1.12 L136,20.96 C136,21.6 136.48,22.16 137.12,22.16 C137.76,22.16 138.32,21.68 138.32,21.04 L138.32,16.24 L139.92,14.96 L145.2,21.68 C145.44,22 145.84,22.24 146.16,22.24 C146.8,22.24 147.28,21.76 147.28,21.12 C147.28,20.88 147.2,20.56 147.04,20.4 L141.84,13.52 Z M154.96,13.68 C153.2,13.04 151.76,12.56 151.76,11.28 C151.76,9.84 153.36,9.68 154.24,9.68 C155.44,9.6 156.64,10.08 157.44,10.88 C157.68,11.12 157.92,11.2 158.24,11.2 C158.8,11.12 159.2,10.64 159.2,10.08 C159.2,9.84 159.12,9.6 158.96,9.36 C157.76,8 156,7.2 154.24,7.36 C151.28,7.36 149.44,8.88 149.44,11.2 C149.44,14.08 152,14.96 154.24,15.76 C155.92,16.32 157.44,16.8 157.44,18.08 C157.44,19.76 155.52,20.08 154.4,20.08 C153.04,20.16 151.68,19.6 150.72,18.64 C150.48,18.4 150.24,18.32 149.92,18.24 C149.36,18.24 148.88,18.72 148.88,19.28 C148.88,19.52 148.96,19.76 149.12,20 C150.48,21.52 152.4,22.32 154.48,22.24 C157.84,22.24 159.84,20.64 159.84,18.08 C159.68,15.28 157.2,14.48 154.96,13.68 Z" id="Shape" fill="#4F4270"></path>
            <path d="M0.16,20.4 C0.56,23.28 1.92,25.92 4,28 L8.64,23.36 C8.64,18.48 11.2,14 15.44,11.52 L0.16,20.4 Z M8.64,23.36 C6.24,23.36 3.92,22.72 1.84,21.52 C1.28,21.2 0.72,20.8 0.16,20.4 C0.56,23.28 1.92,25.92 4,28 L8.64,23.36 Z M8.64,23.36 L4,28 C6.08,30.08 8.72,31.44 11.6,31.84 L20.4,16.56 C18,20.72 13.52,23.36 8.64,23.36 Z M10.48,30.16 C9.28,28.08 8.64,25.76 8.64,23.36 L4,28 C6.08,30.08 8.72,31.44 11.6,31.84 C11.2,31.28 10.8,30.72 10.48,30.16 Z M26,5.44 L15.44,11.52 C11.2,13.92 6.08,13.92 1.84,11.52 C0.64,13.6 6.9388939e-16,16 6.9388939e-16,18.4 C6.9388939e-16,19.04 0.08,19.76 0.16,20.4 C0.72,20.8 1.28,21.2 1.84,21.52 C3.92,22.72 6.24,23.36 8.64,23.36 L26.24,5.76 C26.16,5.68 26.08,5.6 26,5.44 Z M1.84,21.52 C3.92,22.72 6.24,23.36 8.64,23.36 C8.64,18.48 11.2,14 15.44,11.52 L0.16,20.32 C0.72,20.8 1.28,21.2 1.84,21.52 Z M1.84,11.52 C0.64,13.6 6.9388939e-16,16 6.9388939e-16,18.4 C6.9388939e-16,19.04 0.08,19.76 0.16,20.4 L15.44,11.52 C11.28,14 6.08,14 1.84,11.52 Z M26.24,5.76 C26,5.52 25.84,5.36 25.6,5.2 C25.12,4.88 24.48,4.72 23.92,4.72 L13.6,4.72 C8.72,4.72 4.24,7.36 1.84,11.52 C6.08,13.92 11.2,13.92 15.44,11.52 C11.2,13.92 8.64,18.48 8.64,23.36 C13.52,23.36 18,20.8 20.48,16.56 L26.56,6 C26.4,5.92 26.32,5.84 26.24,5.76 Z M15.44,11.52 L26,5.44 C25.84,5.36 25.76,5.2 25.6,5.12 L1.84,11.52 C6.08,14 11.28,14 15.44,11.52 Z M23.84,4.72 L13.6,4.72 C8.72,4.72 4.24,7.36 1.84,11.52 L25.6,5.12 C25.04,4.88 24.48,4.72 23.84,4.72 Z M20.48,16.56 L26.56,6 C26.48,5.92 26.4,5.84 26.32,5.68 L8.72,23.28 C8.72,25.68 9.36,28 10.56,30.08 C10.88,30.64 11.28,31.2 11.68,31.76 C12.32,31.84 12.96,31.92 13.6,31.92 C16,31.92 18.32,31.28 20.4,30.08 C18,25.92 18,20.72 20.48,16.56 Z M8.64,23.36 C8.64,25.76 9.28,28.08 10.48,30.16 C10.8,30.72 11.2,31.28 11.6,31.84 L20.4,16.56 C18,20.72 13.52,23.36 8.64,23.36 Z M20.48,16.56 L11.68,31.84 C12.32,31.92 12.96,32 13.68,32 C16.08,32 18.4,31.36 20.48,30.16 C18,25.92 18,20.72 20.48,16.56 Z M26.8,6.4 C26.56,6 26.32,5.68 26,5.44 L15.44,11.52 C11.2,13.92 8.64,18.48 8.64,23.36 C13.52,23.36 18,20.8 20.48,16.56 C18.08,20.8 18.08,25.92 20.48,30.16 C24.64,27.76 27.28,23.28 27.28,18.48 L27.28,8.16 C27.28,7.52 27.12,6.96 26.8,6.4 Z M26,5.44 L15.44,11.52 C11.2,13.92 8.64,18.48 8.64,23.36 L26.24,5.76 C26.16,5.68 26.08,5.52 26,5.44 Z M8.64,23.36 C13.52,23.36 18,20.8 20.48,16.56 L26.56,6 C26.48,5.92 26.4,5.84 26.32,5.68 L8.64,23.36 Z M25.4171429,6 L19.3371429,16.56 C16.9371429,20.8 16.9371429,25.92 19.3371429,30.16 L25.7371429,6.4 C25.5771429,6.24 25.4971429,6.16 25.4171429,6 Z M20.48,30.16 C24.72,27.76 27.28,23.28 27.28,18.4 L27.28,8.16 C27.28,7.52 27.12,6.96 26.8,6.4 L20.48,30.16 Z" id="Combined-Shape" fill="#4F4270"></path>
            <g id="Group" transform="translate(0.000000, 4.571429)" fill="#FFFFFF">
                <path d="M0.16,15.8285714 C0.56,18.7085714 1.92,21.3485714 4,23.4285714 L8.64,18.7885714 C8.64,13.9085714 11.2,9.42857143 15.44,6.94857143 L0.16,15.8285714 Z" id="Shape" opacity="0.200000003"></path>
                <path d="M8.64,18.7885714 L4,23.4285714 C6.08,25.5085714 8.72,26.8685714 11.6,27.2685714 L20.4,11.9885714 C18,16.1485714 13.52,18.7885714 8.64,18.7885714 Z" id="Shape" opacity="0.200000003"></path>
                <path d="M10.48,25.5885714 C9.28,23.5085714 8.64,21.1885714 8.64,18.7885714 L4,23.4285714 C6.08,25.5085714 8.72,26.8685714 11.6,27.2685714 C11.2,26.7085714 10.8,26.1485714 10.48,25.5885714 Z" id="Shape" opacity="0.100000001"></path>
                <path d="M26,0.868571429 L15.44,6.94857143 C11.2,9.34857143 6.08,9.34857143 1.84,6.94857143 C0.64,9.02857143 0,11.4285714 0,13.8285714 C0,14.4685714 0.08,15.1885714 0.16,15.8285714 C0.72,16.2285714 1.28,16.6285714 1.84,16.9485714 C3.92,18.1485714 6.24,18.7885714 8.64,18.7885714 L26.24,1.18857143 C26.16,1.10857143 26.08,1.02857143 26,0.868571429 Z" id="Shape" opacity="0.200000003"></path>
                <path d="M1.84,16.9485714 C3.92,18.1485714 6.24,18.7885714 8.64,18.7885714 C8.64,13.9085714 11.2,9.42857143 15.44,6.94857143 L0.16,15.7485714 C0.72,16.2285714 1.28,16.6285714 1.84,16.9485714 Z" id="Shape" opacity="0.100000001"></path>
                <path d="M1.84,6.94857143 C0.64,9.02857143 0,11.4285714 0,13.8285714 C0,14.4685714 0.08,15.1885714 0.16,15.8285714 L15.44,6.94857143 C11.28,9.42857143 6.08,9.42857143 1.84,6.94857143 Z" id="Shape" opacity="0.5"></path>
                <path d="M26.24,1.18857143 C26,0.948571429 25.84,0.788571429 25.6,0.628571429 C25.12,0.308571429 24.48,0.148571429 23.92,0.148571429 L13.6,0.148571429 C8.72,0.148571429 4.24,2.78857143 1.84,6.94857143 C6.08,9.34857143 11.2,9.34857143 15.44,6.94857143 C11.2,9.34857143 8.64,13.9085714 8.64,18.7885714 C13.52,18.7885714 18,16.2285714 20.48,11.9885714 L26.56,1.42857143 C26.4,1.34857143 26.32,1.26857143 26.24,1.18857143 Z" id="Shape" opacity="0.200000003"></path>
                <path d="M15.44,6.94857143 L26,0.868571429 C25.84,0.788571429 25.76,0.628571429 25.6,0.548571429 L1.84,6.94857143 C6.08,9.42857143 11.28,9.42857143 15.44,6.94857143 Z" id="Shape" opacity="0.300000012"></path>
                <path d="M23.84,0.148571429 L13.6,0.148571429 C8.72,0.148571429 4.24,2.78857143 1.84,6.94857143 L25.6,0.548571429 C25.04,0.308571429 24.48,0.148571429 23.84,0.148571429 Z" id="Shape" opacity="0.779999971"></path>
                <path d="M20.48,11.9885714 L26.56,1.42857143 C26.48,1.34857143 26.4,1.26857143 26.32,1.10857143 L8.72,18.7085714 C8.72,21.1085714 9.36,23.4285714 10.56,25.5085714 C10.88,26.0685714 11.28,26.6285714 11.68,27.1885714 C12.32,27.2685714 12.96,27.3485714 13.6,27.3485714 C16,27.3485714 18.32,26.7085714 20.4,25.5085714 C18,21.3485714 18,16.1485714 20.48,11.9885714 Z" id="Shape" opacity="0.200000003"></path>
                <path d="M8.64,18.7885714 C8.64,21.1885714 9.28,23.5085714 10.48,25.5885714 C10.8,26.1485714 11.2,26.7085714 11.6,27.2685714 L20.4,11.9885714 C18,16.1485714 13.52,18.7885714 8.64,18.7885714 Z" id="Shape" opacity="0.100000001"></path>
                <path d="M20.48,11.9885714 L11.68,27.2685714 C12.32,27.3485714 12.96,27.4285714 13.68,27.4285714 C16.08,27.4285714 18.4,26.7885714 20.48,25.5885714 C18,21.3485714 18,16.1485714 20.48,11.9885714 Z" id="Shape" opacity="0.200000003"></path>
                <path d="M26.8,1.82857143 C26.56,1.42857143 26.32,1.10857143 26,0.868571429 L15.44,6.94857143 C11.2,9.34857143 8.64,13.9085714 8.64,18.7885714 C13.52,18.7885714 18,16.2285714 20.48,11.9885714 C18.08,16.2285714 18.08,21.3485714 20.48,25.5885714 C24.64,23.1885714 27.28,18.7085714 27.28,13.9085714 L27.28,3.58857143 C27.28,2.94857143 27.12,2.38857143 26.8,1.82857143 Z" id="Shape" opacity="0.200000003"></path>
                <path d="M26,0.868571429 L15.44,6.94857143 C11.2,9.34857143 8.64,13.9085714 8.64,18.7885714 L26.24,1.18857143 C26.16,1.10857143 26.08,0.948571429 26,0.868571429 Z" id="Shape" opacity="0.200000003"></path>
                <path d="M8.64,18.7885714 C13.52,18.7885714 18,16.2285714 20.48,11.9885714 L26.56,1.42857143 C26.48,1.34857143 26.4,1.26857143 26.32,1.10857143 L8.64,18.7885714 Z" id="Shape" opacity="0.400000006"></path>
                <path d="M26.56,1.42857143 L20.48,11.9885714 C18.08,16.2285714 18.08,21.3485714 20.48,25.5885714 L26.88,1.82857143 C26.72,1.66857143 26.64,1.58857143 26.56,1.42857143 Z" id="Shape" opacity="0.5"></path>
                <path d="M20.48,25.5885714 C24.72,23.1885714 27.28,18.7085714 27.28,13.8285714 L27.28,3.58857143 C27.28,2.94857143 27.12,2.38857143 26.8,1.82857143 L20.48,25.5885714 Z" id="Shape" opacity="0.340000004"></path>
            </g>
        </g>
    </g>
</svg>