<?xml version="1.0" encoding="UTF-8"?>
<svg width="160px" height="72px" viewBox="0 0 160 72" version="1.1" xmlns="http://www.w3.org/2000/svg" xmlns:xlink="http://www.w3.org/1999/xlink">
    <!-- Generator: Sketch 49.2 (51160) - http://www.bohemiancoding.com/sketch -->
    <title>customer/nike</title>
    <desc>Created with Sketch.</desc>
    <defs></defs>
    <g id="customer/nike" stroke="none" stroke-width="1" fill="none" fill-rule="evenodd">
        <g id="nike" transform="translate(0.000000, 7.000000)" fill="#4F4270" fill-rule="nonzero">
            <path d="M18.0548223,57.4859355 C13.3116751,57.2953181 9.43106599,55.9823586 6.39675127,53.5437705 C5.81766497,53.0779082 4.4377665,51.6811427 3.97482234,51.0920364 C2.74436548,49.5268374 1.90781726,48.0035415 1.34984772,46.3134553 C-0.367106599,41.1109149 0.516548223,34.2840184 3.87736041,26.7916043 C6.75492386,20.3771644 11.1951269,14.0153087 18.9417259,5.20418369 C20.0828426,3.90765671 23.4810152,0.115849368 23.5029442,0.115849368 C23.511066,0.115849368 23.3258883,0.440391925 23.0927919,0.835594381 C21.0785787,4.2486318 19.3551269,8.26885138 18.4162437,11.7492622 C16.9080203,17.333859 17.0899492,22.1264077 18.9490355,25.8426254 C20.2314721,28.4028143 22.4300508,30.6203848 24.902335,31.8462519 C29.2304569,33.9915193 35.5671066,34.1689907 43.3055838,32.36552 C43.8383756,32.2406327 70.2391878,25.1508157 101.974416,16.6100059 C133.709645,8.06837445 159.679188,1.08536891 159.683249,1.09112029 C159.692183,1.09851493 85.9532995,33.0187133 47.6743147,49.5785999 C41.6121827,52.2004108 39.991066,52.862642 37.1411168,53.8748861 C29.8558376,56.4630103 23.3299492,57.6979152 18.0548223,57.4859355 Z" id="Shape"></path>
        </g>
    </g>
</svg>