<?xml version="1.0" encoding="UTF-8"?>
<svg width="48px" height="48px" viewBox="0 0 48 48" version="1.1" xmlns="http://www.w3.org/2000/svg" xmlns:xlink="http://www.w3.org/1999/xlink">
    <!-- Generator: Sketch 49.2 (51160) - http://www.bohemiancoding.com/sketch -->
    <title>integrations/asana</title>
    <desc>Created with Sketch.</desc>
    <defs>
        <radialGradient cx="50.0135415%" cy="54.714503%" fx="50.0135415%" fy="54.714503%" r="0.0759122349%" gradientTransform="translate(0.500135,0.547145),scale(0.924313,1.000000),translate(-0.500135,-0.547145)" id="radialGradient-1">
            <stop stop-color="#FFB900" offset="0%"></stop>
            <stop stop-color="#F95D8F" offset="60%"></stop>
            <stop stop-color="#F95353" offset="99.9%"></stop>
        </radialGradient>
    </defs>
    <g id="integrations/asana" stroke="none" stroke-width="1" fill="none" fill-rule="evenodd">
        <g id="asana" transform="translate(0.000000, 2.000000)" fill="url(#radialGradient-1)" fill-rule="nonzero">
            <path d="M37.5356956,23.460685 C31.7763044,23.460685 27.1082283,28.1287611 27.1082283,33.8871374 C27.1082283,39.6460719 31.7763044,44.3151121 37.5356956,44.3151121 C43.2941226,44.3151121 47.962148,39.6460719 47.962148,33.8871374 C47.962148,28.1287611 43.2941226,23.460685 37.5356956,23.460685 Z M10.445277,23.4611924 C4.68684989,23.4616998 0.0183171247,28.1287611 0.0183171247,33.8876448 C0.0183171247,39.6460719 4.68684989,44.3146047 10.445277,44.3146047 C16.2041607,44.3146047 20.8727442,39.6460719 20.8727442,33.8876448 C20.8727442,28.1287104 16.2041607,23.4611924 10.4447696,23.4611924 L10.445277,23.4611924 Z M34.4172178,10.4269598 C34.4172178,16.1853869 29.7491924,20.8549345 23.9907653,20.8549345 C18.2313742,20.8549345 13.5632981,16.1853869 13.5632981,10.4269598 C13.5632981,4.66853277 18.2313742,0 23.9907146,0 C29.7491416,0 34.4167104,4.66853277 34.4167104,10.4269598 L34.4172178,10.4269598 Z" id="Shape"></path>
        </g>
    </g>
</svg>