<?xml version="1.0" encoding="UTF-8"?>
<svg width="48px" height="48px" viewBox="0 0 48 48" version="1.1" xmlns="http://www.w3.org/2000/svg" xmlns:xlink="http://www.w3.org/1999/xlink">
    <!-- Generator: Sketch 49.2 (51160) - http://www.bohemiancoding.com/sketch -->
    <title>integrations/basecamp</title>
    <desc>Created with Sketch.</desc>
    <defs></defs>
    <g id="integrations/basecamp" stroke="none" stroke-width="1" fill="none" fill-rule="evenodd">
        <g id="basecamp" transform="translate(0.000000, 4.000000)" fill-rule="nonzero">
            <path d="M24.05625,0 C11.18625,0 1.10325,16.374375 0.14925,30.204375 C4.188,37.2136875 13.9273125,39.8484375 24.056625,39.8484375 C34.1851875,39.8484375 43.9250625,37.2136875 47.96175,30.2041875 C47.0075625,16.374375 36.925875,0 24.0564375,0" id="Shape" fill="#B6DEFF"></path>
            <path d="M44.59875,26.91 C44.59875,26.91 41.75625,20.7645 38.8670625,17.179125 C35.9758125,13.59225 32.445,9.686625 30.357375,9.686625 C28.270875,9.686625 22.438125,20.01375 19.7623125,20.01375 C17.0859375,20.01375 15.6950625,15.33225 12.404625,15.33225 C9.112875,15.33225 3.883125,26.6214375 3.883125,26.6214375 L3.52875,28.53525 C3.52875,28.53525 5.345625,36.5904375 24.35325,36.5904375 C43.361625,36.5904375 44.88075,28.6674375 44.88075,28.6674375 L44.5989375,26.9098125" id="Shape" fill="#66CC66"></path>
            <path d="M20.0600625,24.4209375 C17.1080625,24.4209375 15.59475,21.5083125 14.77425,19.710375 C14.0364375,18.09075 13.90875,15.533625 11.8153125,15.462 C12.021,15.3804375 12.219,15.33225 12.404625,15.33225 C15.6950625,15.33225 17.0859375,20.01375 19.7623125,20.01375 C22.438125,20.01375 28.270875,9.6864375 30.357375,9.6864375 C30.7505625,9.6864375 31.1934375,9.8251875 31.674,10.0719375 C31.3185,10.0250625 30.8626875,10.0576875 30.5115,10.41 C29.8370625,11.084625 23.714625,24.4209375 20.0600625,24.4209375" id="Shape" fill="#17AD49"></path>
        </g>
    </g>
</svg>