<?xml version="1.0" encoding="UTF-8"?>
<svg width="48px" height="48px" viewBox="0 0 48 48" version="1.1" xmlns="http://www.w3.org/2000/svg" xmlns:xlink="http://www.w3.org/1999/xlink">
    <!-- Generator: Sketch 49.2 (51160) - http://www.bohemiancoding.com/sketch -->
    <title>integrations/bitbucket</title>
    <desc>Created with Sketch.</desc>
    <defs>
        <linearGradient x1="108.63338%" y1="13.818022%" x2="46.9265964%" y2="78.7761408%" id="linearGradient-1">
            <stop stop-color="#0052CC" offset="18%"></stop>
            <stop stop-color="#2684FF" offset="100%"></stop>
        </linearGradient>
    </defs>
    <g id="integrations/bitbucket" stroke="none" stroke-width="1" fill="none" fill-rule="evenodd">
        <g id="Group" transform="translate(0.000000, 2.000000)">
            <polygon id="Shape" points="18.8387112 28.3810794 28.7815683 28.3810794 31.1815683 14.3696508 16.1949016 14.3696508"></polygon>
            <path d="M1.54347306,0.000126979354 C1.09331271,-0.00567898248 0.663624761,0.187869873 0.369672786,0.528854164 C0.0757208113,0.869838455 -0.0524055485,1.3233542 0.0196635377,1.76774603 L6.48823497,41.0363175 C6.65459695,42.0282377 7.50916178,42.7575092 8.51490163,42.7658413 L39.5472826,42.7658413 C40.3021668,42.7755571 40.9503631,42.2310722 41.0710921,41.4858413 L47.5396635,1.77536507 C47.6117326,1.33097325 47.4836063,0.877457503 47.1896543,0.536473212 C46.8957023,0.195488921 46.4660144,0.00194006514 46.015854,0.00774602697 L1.54347306,0.000126979354 Z M28.7815683,28.3810794 L18.8768064,28.3810794 L16.1949016,14.3696508 L31.1815683,14.3696508 L28.7815683,28.3810794 Z" id="Shape" fill="#2684FF" fill-rule="nonzero"></path>
            <path d="M45.4825207,14.3696508 L31.1815683,14.3696508 L28.7815683,28.3810794 L18.8768064,28.3810794 L7.1815683,42.2629841 C7.55225567,42.5835194 8.02486554,42.7617609 8.51490163,42.7658413 L39.5549016,42.7658413 C40.3097859,42.7755571 40.9579822,42.2310722 41.0787112,41.4858413 L45.4825207,14.3696508 Z" id="Shape" fill="url(#linearGradient-1)" fill-rule="nonzero"></path>
        </g>
    </g>
</svg>