<?xml version="1.0" encoding="UTF-8"?>
<svg width="48px" height="48px" viewBox="0 0 48 48" version="1.1" xmlns="http://www.w3.org/2000/svg" xmlns:xlink="http://www.w3.org/1999/xlink">
    <!-- Generator: Sketch 49.2 (51160) - http://www.bohemiancoding.com/sketch -->
    <title>integrations/box</title>
    <desc>Created with Sketch.</desc>
    <defs></defs>
    <g id="integrations/box" stroke="none" stroke-width="1" fill="none" fill-rule="evenodd">
        <g id="box" fill-rule="nonzero">
            <path d="M40.04325,48 L7.95675,48 C3.5623125,48 0,44.4376875 0,40.04325 L0,7.95675 C0,3.5623125 3.5623125,0 7.95675,0 L40.04325,0 C44.4376875,0 48,3.5623125 48,7.95675 L48,40.04325 C48,44.4376875 44.4376875,48 40.04325,48" id="Shape" fill="#00AEEF"></path>
            <path d="M19.2982172,23.9273615 C20.3933141,21.867749 22.5677483,20.4648381 25.0665653,20.4648381 C28.671736,20.4648381 31.5962468,23.381889 31.5962468,26.9811083 C31.5962468,30.5822 28.671736,33.5 25.0665653,33.5 C22.5677483,33.5 20.3933141,32.0957783 19.2982172,30.0382256 C18.2027451,32.0957783 16.0294366,33.5 13.5289311,33.5 C9.95753072,33.5 7.05891047,30.6400617 7,27.0899031 L7,16.2774524 C7.01632233,15.567945 7.59041799,15.000002 8.30372247,15.000002 C9.01537992,14.9987574 9.59659058,15.567274 9.60969629,16.2774524 L9.60969629,21.7683168 C10.7397763,20.9208513 12.1154147,20.4633346 13.5289311,20.4648381 C16.0294366,20.4648381 18.2027451,21.867749 19.2982172,23.9273615 Z M13.5289311,30.8906082 C15.6921085,30.8906082 17.4442259,29.1409019 17.4442259,26.9811083 C17.4442259,24.8233744 15.6921085,23.0740426 13.5289311,23.0740426 C11.365566,23.0740426 9.60969629,24.8233744 9.60969629,26.9820445 C9.60969629,29.1414637 11.365566,30.8906082 13.5289311,30.8906082 Z M25.0665653,30.8906082 C27.2295552,30.8906082 28.9831735,29.1409019 28.9831735,26.9811083 C28.9831735,24.8233744 27.2295552,23.0740426 25.0665653,23.0740426 C22.9026374,23.0740426 21.148081,24.8233744 21.148081,26.9811083 C21.148081,29.1409019 22.9026374,30.8906082 25.0665653,30.8906082 Z M41.7284724,31.317923 C42.1787435,31.8941052 42.0492906,32.6934948 41.4288545,33.1213714 C40.8078556,33.5492479 39.9369563,33.4402658 39.4559166,32.8822473 L36.4028909,29.1476431 L33.3483643,32.8822473 C32.8727654,33.4402658 31.9960501,33.5492479 31.3769273,33.1213714 C30.7578045,32.6934948 30.6283516,31.8941052 31.079936,31.317923 L31.0786227,31.317923 L34.6260086,26.9726818 L31.0786227,22.6190141 L31.079936,22.6190141 C30.6283516,22.0447045 30.7578045,21.2430679 31.3769273,20.8166893 C31.9960501,20.3869402 32.8727654,20.4970458 33.3483643,21.0543153 L33.3483643,21.0535663 L36.4028909,24.7934136 L39.4602317,21.0535663 L39.4602317,21.0543153 C39.9407085,20.4970458 40.8119831,20.3869402 41.432982,20.8166893 C42.0532305,21.2426934 42.1821206,22.0447045 41.7327875,22.6190141 L38.1792104,26.9726818 L41.7284724,31.317923 Z" id="Shape" fill="#FFFFFF"></path>
        </g>
    </g>
</svg>