<?xml version="1.0" encoding="UTF-8"?>
<svg width="48px" height="48px" viewBox="0 0 48 48" version="1.1" xmlns="http://www.w3.org/2000/svg" xmlns:xlink="http://www.w3.org/1999/xlink">
    <!-- Generator: Sketch 49.2 (51160) - http://www.bohemiancoding.com/sketch -->
    <title>integrations/buffer</title>
    <desc>Created with Sketch.</desc>
    <defs></defs>
    <g id="integrations/buffer" stroke="none" stroke-width="1" fill="none" fill-rule="evenodd">
        <g id="buffer" fill="#000000" fill-rule="nonzero">
            <path d="M25.582875,0.277557252 C32.715375,3.51022901 39.9646875,6.84861069 47.08725,10.1014351 C47.4673125,10.2751145 47.9656875,10.3932824 47.96625,10.919084 C47.967,11.4458015 47.469375,11.5630534 47.088375,11.736916 C39.9380019,15.0060001 32.7848744,18.2693294 25.629,21.5269008 C24.538875,22.0228397 23.4195,22.0164275 22.3280625,21.5193893 C15.1585406,18.2532094 7.9910393,14.9827965 0.8255625,11.7081527 C0.45675,11.5396031 -0.0073125,11.4120916 0.007125,10.8996641 C0.020625,10.4202137 0.464625,10.2956336 0.819375,10.1334962 C8.0150625,6.84824427 15.2836875,3.51132824 22.48875,0.246229008 C23.250375,-0.0983816794 24.789375,-0.0749312977 25.582875,0.277374046 L25.582875,0.277557252 Z M23.9775,47.9197557 C23.4586875,47.9197557 23.07,47.7273893 22.328625,47.4562443 C15.1689375,44.2112977 8.0180625,40.9476641 0.86775,37.6829313 C0.4876875,37.5094351 -0.0045,37.3868702 2.66452171e-15,36.857771 C0.0046875,36.3314198 0.49725,36.2152672 0.8775,36.0386565 C2.0634375,35.4875725 3.2555625,34.9489466 4.447125,34.4094046 C5.63775,33.870229 6.8203125,33.8777405 8.0143125,34.4246107 C12.7543125,36.5956031 17.4991875,38.7556031 22.2410625,40.9220153 C23.4185625,41.4599084 24.5859375,41.4487328 25.7619375,40.9104733 C30.5173561,38.7352941 35.2741069,36.5628967 40.0321875,34.3932824 C41.1556875,33.880855 42.294,33.8665649 43.42275,34.3663511 C44.692125,34.9282443 45.952125,35.5102901 47.212875,36.0894046 C47.3998125,36.1753282 47.589375,36.2722443 47.7459375,36.400855 C48.082875,36.6784122 48.087375,37.0541679 47.7435,37.3232977 C47.5344375,37.4869008 47.2843125,37.6072672 47.0390625,37.7190229 C39.9465,40.9570076 32.854875,44.1968244 25.75275,47.4146565 C25.20075,47.6645496 24.4965,47.9197557 23.9775,47.9197557 Z M23.952375,34.9445496 C23.7151875,34.9445496 22.793625,34.698687 22.269,34.4607023 C15.13875,31.2252824 8.0180625,27.9697099 0.8968125,24.7157863 C0.5143125,24.5410076 0.0155625,24.4281527 0.005625,23.9074809 C-0.004875,23.3551145 0.517125,23.2446412 0.910875,23.0616183 C2.110125,22.5037557 3.31275,21.9521221 4.5196875,21.4101985 C5.6641875,20.8964885 6.8105625,20.9085802 7.954125,21.4303511 C12.7419375,23.6156336 17.52975,25.8012824 22.3209375,27.9792366 C23.43,28.4834198 24.5563125,28.4793893 25.6663125,27.9746565 C30.471375,25.788458 35.2730625,23.5954809 40.0775625,21.4078168 C41.1883125,20.9019847 42.3106875,20.9021679 43.4221875,21.3979237 C44.6889375,21.9625649 45.9478125,22.5442443 47.208,23.122626 C47.3810625,23.2021374 47.558625,23.2860458 47.70675,23.4010992 C48.08925,23.6978931 48.0860625,24.089771 47.69925,24.3867481 C47.550375,24.5012519 47.3735625,24.5857099 47.2005,24.664855 C40.006125,27.9510229 32.81325,31.2401221 25.61025,34.5076031 C25.11525,34.7323969 24.189375,34.9445496 23.952375,34.9445496 Z" id="Shape"></path>
        </g>
    </g>
</svg>