<?xml version="1.0" encoding="UTF-8"?>
<svg width="48px" height="48px" viewBox="0 0 48 48" version="1.1" xmlns="http://www.w3.org/2000/svg" xmlns:xlink="http://www.w3.org/1999/xlink">
    <!-- Generator: Sketch 49.2 (51160) - http://www.bohemiancoding.com/sketch -->
    <title>integrations/campaign-monitor</title>
    <desc>Created with Sketch.</desc>
    <defs></defs>
    <g id="integrations/campaign-monitor" stroke="none" stroke-width="1" fill="none" fill-rule="evenodd">
        <g id="campaign-monitor" transform="translate(0.000000, 8.000000)" fill="#2A2E32" fill-rule="nonzero">
            <path d="M47.668125,0.9598125 C47.0889375,0.1348125 45.952125,-0.0673125 45.124875,0.5128125 L0.3286875,31.8785625 C0.6585,32.3480625 1.20375,32.6574375 1.8223125,32.6563125 L1.8245625,32.6574375 L1.8245625,32.6563125 L46.1735625,32.6563125 C47.1815625,32.6563125 47.998875,31.839 47.998875,30.8296875 L47.998875,1.978125 C47.9931358,1.61321672 47.877906,1.25844759 47.668125,0.9598125 M2.874,0.5115 C2.047875,-0.067875 0.9099375,0.133125 0.33075,0.958125 C0.120917634,1.25722769 0.00569609867,1.61242877 0,1.97775 L0.001125,30.8848125 L21.32775,13.4143125 L2.874,0.5115" id="Shape"></path>
        </g>
    </g>
</svg>