<?xml version="1.0" encoding="UTF-8"?>
<svg width="48px" height="48px" viewBox="0 0 48 48" version="1.1" xmlns="http://www.w3.org/2000/svg" xmlns:xlink="http://www.w3.org/1999/xlink">
    <!-- Generator: Sketch 49.2 (51160) - http://www.bohemiancoding.com/sketch -->
    <title>integrations/delighted</title>
    <desc>Created with Sketch.</desc>
    <defs></defs>
    <g id="integrations/delighted" stroke="none" stroke-width="1" fill="none" fill-rule="evenodd">
        <g id="delighted" fill="#4C4C4B" fill-rule="nonzero">
            <path d="M24,0 C10.74525,0 0,10.74525 0,24 C0,37.25475 10.74525,48 24,48 C37.25475,48 48,37.25475 48,24 C48,10.74525 37.25475,0 24,0 Z M15.4245,35.5108125 C20.8858125,39.9373125 29.43525,38.6994375 34.35975,32.80575 C29.5828125,32.1725625 23.9424375,30.6763125 19.366875,28.8920625 C18.1295625,31.280625 17.179875,33.1798125 15.4245,35.5108125 Z M29.4676875,11.3765625 C26.4748125,12.1438125 22.561125,18.820125 20.259,26.1294375 C25.841625,28.6618125 30.2158125,29.69775 36.2589375,30.42675 C36.2589375,30.42675 41.84175,17.9375625 29.4676875,11.3765625 Z M27.4531875,42.072 C20.9319375,43.326 12.4891875,39.9136875 9.3525,34.9065 C9.3525,34.9065 13.8403125,29.9304375 15.079125,27.0215625 C13.743375,25.98525 12.9399375,25.389 12.08775,24.6290625 C7.17,20.2441875 7.257375,14.2093125 12.2750625,9.924 C17.8695,5.146125 26.385,4.3734375 32.9551875,8.047875 C39.5895,11.758125 43.3738125,19.392 42.172125,26.6409375 C40.8545625,34.5879375 34.8916875,40.6415625 27.4531875,42.072 Z M25.1510625,10.4173125 C21.390375,10.3629375 18.547875,11.117625 15.9061875,12.9849375 C11.563875,16.0543125 11.775,20.9510625 16.4274375,23.8725 C18.6474375,18.7625625 20.44425,14.114625 25.1510625,10.4173125 Z" id="Shape"></path>
        </g>
    </g>
</svg>