<?xml version="1.0" encoding="UTF-8"?>
<svg width="48px" height="48px" viewBox="0 0 48 48" version="1.1" xmlns="http://www.w3.org/2000/svg" xmlns:xlink="http://www.w3.org/1999/xlink">
    <!-- Generator: Sketch 49.2 (51160) - http://www.bohemiancoding.com/sketch -->
    <title>integrations/disqus</title>
    <desc>Created with Sketch.</desc>
    <defs></defs>
    <g id="integrations/disqus" stroke="none" stroke-width="1" fill="none" fill-rule="evenodd">
        <g id="disqus" fill="#2E9FFF" fill-rule="nonzero">
            <path d="M24.8754375,47.929253 C19.1713125,47.929253 13.956,45.7862169 9.923625,42.2413494 L0,43.6350843 L3.8338125,33.9068916 C2.4980625,30.8767229 1.7488125,27.5126747 1.7488125,23.9647229 C1.7488125,10.7302169 12.1029375,0 24.8754375,0 C37.6468125,0 48,10.7302169 48,23.9647229 C48,37.2015422 37.6471875,47.929253 24.8754375,47.929253 Z M24.580875,11.9830361 L16,11.9830361 L16,35.947759 L24.45,35.947759 C32.692125,35.9479518 37.5028125,30.810988 37.5028125,23.8960964 C37.5028125,16.9141205 32.7594375,11.9830361 24.580875,11.9830361 Z M25,30.059759 L22.0944375,30.059759 L22.0944375,18 L25,18 C28.7948125,18 30.9916875,20.0969639 30.9916875,23.9331084 L30.9916875,23.9998072 C30.9916875,27.8681446 28.7948125,30.059759 25,30.059759 Z" id="Shape"></path>
        </g>
    </g>
</svg>