<?xml version="1.0" encoding="UTF-8"?>
<svg width="48px" height="48px" viewBox="0 0 48 48" version="1.1" xmlns="http://www.w3.org/2000/svg" xmlns:xlink="http://www.w3.org/1999/xlink">
    <!-- Generator: Sketch 49.2 (51160) - http://www.bohemiancoding.com/sketch -->
    <title>integrations/evernote</title>
    <desc>Created with Sketch.</desc>
    <defs></defs>
    <g id="integrations/evernote" stroke="none" stroke-width="1" fill="none" fill-rule="evenodd">
        <g id="evernote" transform="translate(4.000000, 0.000000)">
            <path d="M30.5745882,19.8571765 C28.6485882,19.7897647 28.1054118,21.4065882 27.942,22.7230588 C28.5523393,22.6261029 29.170663,22.5887506 29.7882353,22.6115294 C31.0012941,22.6538824 32.1134118,22.9101176 33.012,23.31 C33.0045882,21.9458824 32.7067059,19.9309412 30.5745882,19.8571765 Z" id="Shape"></path>
            <path d="M3.99458824,9.25870588 L8.48435294,9.25870588 C8.74029916,9.25812448 8.94769448,9.05088688 8.94847059,8.79494118 C8.94847059,8.79317647 8.89411765,4.94717647 8.89411765,3.87882353 L8.89411765,3.86576471 C8.89411765,2.988 9.078,2.22247059 9.39988235,1.58011765 L9.55270588,1.29247059 C9.53312945,1.29612377 9.51521357,1.30588483 9.50152941,1.32035294 L0.783882353,9.96494118 C0.767910864,9.9781296 0.756540775,9.99604985 0.751411765,10.0161176 C0.931764706,9.92682353 1.17847059,9.80435294 1.21305882,9.78917647 C1.97152941,9.44611765 2.89235294,9.25870588 3.99458824,9.25870588 Z" id="Shape" fill="#74BB44" fill-rule="nonzero"></path>
            <path d="M38.9047059,8.31741176 C38.5482353,6.41011765 37.4135294,5.46988235 36.3878824,5.1 C35.2821176,4.70011765 33.0381176,4.28576471 30.2202353,3.954 C27.9522353,3.68647059 25.2864706,3.70835294 23.6763529,3.75741176 C23.4832941,2.43388235 22.5550588,1.22470588 21.516,0.806117647 C18.7496471,-0.307058824 14.4723529,-0.0381176471 13.3754118,0.269294118 C12.5025882,0.513529412 11.5369412,1.01294118 11.0001176,1.78270588 C10.6397647,2.29764706 10.4061176,2.95623529 10.4043529,3.87705882 C10.4043529,4.398 10.4188235,5.62517647 10.4322353,6.71611765 C10.4449412,7.80952941 10.4601176,8.78823529 10.4601176,8.79529412 C10.458756,9.77118461 9.66777332,10.5618515 8.69188235,10.5628235 L4.20458824,10.5628235 C3.24776471,10.5628235 2.51611765,10.7234118 1.95741176,10.9771765 C1.398,11.2312941 1.00164706,11.5736471 0.700588235,11.9788235 C0.101647059,12.7828235 -0.00247058824,13.7756471 -5.48579194e-16,14.7892941 C-5.48579194e-16,14.7892941 0.00847058824,15.6169412 0.207882353,17.2196471 C0.374117647,18.4591765 1.71882353,27.1210588 2.99611765,29.7554118 C3.49129412,30.7796471 3.82164706,31.2077647 4.794,31.6595294 C6.96176471,32.5877647 11.9128235,33.6204706 14.2341176,33.9162353 C16.5501176,34.2127059 18.0042353,34.8352941 18.8703529,33.0187059 C18.8731765,33.0130588 19.0443529,32.5676471 19.2787059,31.9090588 C20.0311765,29.6304706 20.136,27.6077647 20.136,26.1448235 C20.136,25.9955294 20.3544706,25.9891765 20.3544706,26.1448235 C20.3544706,27.1782353 20.1564706,30.8347059 22.9189412,31.8148235 C24.0098824,32.2009412 26.2711765,32.5461176 28.5705882,32.8157647 C30.6483529,33.0554118 32.1561176,33.8721176 32.1561176,39.2047059 C32.1561176,42.4482353 31.4749412,42.8925882 27.9134118,42.8925882 C25.026,42.8925882 23.9251765,42.9670588 23.9251765,40.6747059 C23.9251765,38.82 25.7590588,39.0148235 27.1178824,39.0148235 C27.7252941,39.0148235 27.2841176,38.5637647 27.2841176,37.4191765 C27.2841176,36.2802353 27.9970588,35.6227059 27.3229412,35.6064706 C22.6242353,35.4765882 19.8589412,35.6008235 19.8589412,41.4783529 C19.8589412,46.8130588 21.9003529,47.8037647 28.5705882,47.8037647 C33.7994118,47.8037647 35.6414118,47.6329412 37.8010588,40.9334118 C38.2284706,39.6109412 39.2625882,35.5754118 39.8869412,28.7982353 C40.2818824,24.5142353 39.5135294,11.5810588 38.9047059,8.31741176 Z M29.7889412,22.6115294 C29.1430588,22.5892941 28.5218824,22.6298824 27.9427059,22.7230588 C28.1061176,21.4065882 28.6492941,19.7894118 30.5752941,19.8571765 C32.7074118,19.9309412 33.0052941,21.9458824 33.0127059,23.31 C32.1141176,22.9097647 31.0012941,22.6542353 29.7889412,22.6115294 Z" id="Shape" fill="#74BB44" fill-rule="nonzero"></path>
        </g>
    </g>
</svg>