<?xml version="1.0" encoding="UTF-8"?>
<svg width="48px" height="48px" viewBox="0 0 48 48" version="1.1" xmlns="http://www.w3.org/2000/svg" xmlns:xlink="http://www.w3.org/1999/xlink">
    <!-- Generator: Sketch 49.2 (51160) - http://www.bohemiancoding.com/sketch -->
    <title>integrations/excel</title>
    <desc>Created with Sketch.</desc>
    <defs></defs>
    <g id="integrations/excel" stroke="none" stroke-width="1" fill="none" fill-rule="evenodd">
        <g id="excel" transform="translate(0.000000, 1.000000)" fill-rule="nonzero">
            <path d="M24.8864865,0 L28.0972973,0 L28.0972973,4.32432432 C33.5083243,4.32432432 38.9189189,4.33513514 44.3295135,4.30789189 C45.2432432,4.34551351 46.2486486,4.28108108 47.043027,4.82681081 C47.5995676,5.62681081 47.5351351,6.64302703 47.5727568,7.56194595 C47.5459459,16.9457297 47.5567568,26.3243243 47.5623784,35.7024865 C47.5355676,37.2756757 47.7081081,38.8808649 47.3785946,40.4324324 C47.1623784,41.5567568 45.811027,41.5835676 44.9081081,41.6216216 C39.3081081,41.6376216 33.7029189,41.6108108 28.0972973,41.6216216 L28.0972973,46.4864865 L24.7403243,46.4864865 C16.5024865,44.988973 8.24821622,43.6056216 7.10542736e-15,42.1621622 L7.10542736e-15,4.32994595 C8.29751351,2.88648649 16.5945946,1.46508108 24.8864865,0 Z" id="Shape" fill="#207245"></path>
            <polygon id="Shape" fill="#FFFFFF" points="28.0972973 5.94594595 45.9351351 5.94594595 45.9351351 40 28.0972973 40 28.0972973 36.7567568 32.4216216 36.7567568 32.4216216 32.972973 28.0972973 32.972973 28.0972973 30.8108108 32.4216216 30.8108108 32.4216216 27.027027 28.0972973 27.027027 28.0972973 24.8648649 32.4216216 24.8648649 32.4216216 21.0810811 28.0972973 21.0810811 28.0972973 18.9189189 32.4216216 18.9189189 32.4216216 15.1351351 28.0972973 15.1351351 28.0972973 12.972973 32.4216216 12.972973 32.4216216 9.18918919 28.0972973 9.18918919"></polygon>
            <polygon id="Shape" fill="#207245" points="34.5837838 9.18918919 42.1513514 9.18918919 42.1513514 12.972973 34.5837838 12.972973"></polygon>
            <path d="M16.0108108,14.2538378 C17.2324324,14.1673514 18.4596757,14.0916757 19.6864865,14.0324324 C18.2454434,16.9918665 16.7914474,19.9449759 15.3245405,22.8916757 C16.8112432,25.9187027 18.3295135,28.9241081 19.8214054,31.9511351 C18.5201384,31.8764635 17.2193558,31.793579 15.9191351,31.7024865 C15.0002162,29.4482162 13.8810811,27.2700541 13.2216216,24.9132973 C12.4869189,27.1078919 11.4378378,29.1779459 10.595027,31.3297297 C9.41102703,31.3132973 8.22702703,31.2648649 7.04345946,31.216 C8.43243243,28.4972973 9.77297297,25.7565405 11.2051892,23.0538378 C9.98918919,20.2698378 8.65383784,17.5403243 7.39978378,14.7727568 C8.58897297,14.7022703 9.77816216,14.6322162 10.9673514,14.5673514 C11.7725405,16.6810811 12.6534054,18.7671351 13.3189189,20.9349189 C14.032,18.6378378 15.0970811,16.4756757 16.0108108,14.2538378 Z" id="Shape" fill="#FFFFFF"></path>
            <path d="M34.5837838,15.1351351 L42.1513514,15.1351351 L42.1513514,18.9189189 L34.5837838,18.9189189 L34.5837838,15.1351351 Z M34.5837838,21.0810811 L42.1513514,21.0810811 L42.1513514,24.8648649 L34.5837838,24.8648649 L34.5837838,21.0810811 Z M34.5837838,27.027027 L42.1513514,27.027027 L42.1513514,30.8108108 L34.5837838,30.8108108 L34.5837838,27.027027 Z M34.5837838,32.972973 L42.1513514,32.972973 L42.1513514,36.7567568 L34.5837838,36.7567568 L34.5837838,32.972973 Z" id="Shape" fill="#207245"></path>
        </g>
    </g>
</svg>