<?xml version="1.0" encoding="UTF-8"?>
<svg width="48px" height="48px" viewBox="0 0 48 48" version="1.1" xmlns="http://www.w3.org/2000/svg" xmlns:xlink="http://www.w3.org/1999/xlink">
    <!-- Generator: Sketch 49.2 (51160) - http://www.bohemiancoding.com/sketch -->
    <title>integrations/github</title>
    <desc>Created with Sketch.</desc>
    <defs></defs>
    <g id="integrations/github" stroke="none" stroke-width="1" fill="none" fill-rule="evenodd">
        <g id="github" fill="#000000" fill-rule="nonzero">
            <path d="M0,23.998464 C0,17.373888 2.3436,11.718 7.030848,7.0308 C11.718,2.3436 17.373888,0 23.998512,0 C30.62304,0 36.278928,2.3436 40.966176,7.0308 C45.653328,11.718 47.996976,17.373888 47.996976,23.998464 C47.996976,30.62304 45.653376,36.278928 40.966176,40.966128 C36.278976,45.653328 30.623088,47.996976 23.998512,47.996976 C17.373888,47.996976 11.718,45.653376 7.030848,40.966128 C2.3436,36.278976 0,30.622992 0,23.998464 Z M2.624832,23.998464 C2.624832,29.873136 4.718448,34.904016 8.90568,39.091296 C13.092912,43.27848 18.12384,45.372144 23.998512,45.372144 C29.873136,45.372144 34.904064,43.278528 39.091296,39.091296 C43.278528,34.904064 45.372144,29.873136 45.372144,23.998464 C45.372144,18.12384 43.278576,13.092912 39.091296,8.90568 C34.904064,4.718448 29.873088,2.624832 23.998512,2.624832 C18.12384,2.624832 13.09296,4.718448 8.90568,8.90568 C4.718448,13.092912 2.624832,18.12384 2.624832,23.998464 Z M9.374448,29.154384 C9.249456,29.029392 9.249456,28.9044 9.374448,28.779408 C9.624384,28.529424 9.936912,28.43568 10.31184,28.498176 C10.686816,28.560672 10.905552,28.623168 10.968048,28.685664 C11.40552,28.873152 11.889888,29.294976 12.421056,29.951232 C12.952224,30.60744 13.374096,31.060512 13.686624,31.310496 C15.186528,32.560416 16.717632,32.65416 18.280032,31.591728 C18.405024,31.154256 18.60816,30.77928 18.889344,30.466752 C19.170528,30.154272 19.436208,29.935584 19.686192,29.810544 C19.936224,29.685552 20.373696,29.498064 20.998656,29.24808 C18.93624,29.060592 17.264496,28.701216 15.983328,28.17 C14.70216,27.638784 13.686576,26.966976 12.936624,26.154528 C11.936688,25.0296 11.327328,23.560944 11.108592,21.74856 C10.889808,19.936176 11.030448,18.280032 11.530464,16.780128 C11.90544,15.842688 12.436656,14.99904 13.124064,14.24904 C12.624096,12.68664 12.71784,10.905504 13.405296,8.905632 C15.405168,9.030624 17.217552,9.71808 18.842448,10.968 C21.967248,10.155552 25.21704,10.124304 28.591776,10.874256 C29.029248,10.561776 29.701104,10.1712 30.607248,9.702432 C31.51344,9.233712 32.654016,8.96808 34.028928,8.905584 C34.278912,9.59304 34.4508,10.405488 34.544544,11.342928 C34.638288,12.280368 34.59144,13.155312 34.403952,13.96776 C35.841312,15.467664 36.591264,17.467536 36.65376,19.967376 C36.65376,21.967248 36.31008,23.623392 35.622624,24.935808 C34.935168,26.248224 33.716496,27.341904 31.966608,28.2168 C30.779184,28.779312 29.216784,29.122992 27.279408,29.247984 C28.1544,29.685456 28.79496,30.138576 29.201184,30.607296 C29.607456,31.076016 29.87304,31.81032 29.99808,32.810256 L29.99808,35.763264 L30.091776,38.622432 C30.279264,38.93496 30.498048,39.200544 30.748032,39.419328 C30.998016,39.638064 31.216752,39.794304 31.40424,39.888048 C31.59168,39.981792 31.654224,40.122432 31.59168,40.30992 C31.529184,40.497408 31.2792,40.591152 30.841776,40.591152 C29.779296,40.591152 28.935648,40.216176 28.310688,39.466176 C28.1232,39.153696 28.029456,38.778768 28.029456,38.341248 L28.029456,33.841536 C28.029456,33.341568 27.904464,32.982192 27.65448,32.763456 C27.404496,32.544672 27.154512,32.40408 26.904528,32.341584 L26.904528,38.247456 C26.904528,39.309888 27.02952,39.997344 27.279504,40.309824 C27.529488,40.622304 27.685728,40.934832 27.748272,41.247264 C27.810768,41.30976 27.763872,41.356608 27.607632,41.387856 C27.45144,41.419056 27.185808,41.372256 26.810784,41.247264 C25.998336,41.059776 25.435872,40.637904 25.123392,39.981696 C24.810912,39.325488 24.654672,38.622384 24.654672,37.872432 L24.654672,32.060448 L23.436,32.060448 L23.436,37.872576 C23.436,38.622528 23.279712,39.34128 22.967232,40.028688 C22.529808,40.90368 21.717312,41.372352 20.529936,41.434848 C20.342448,41.372352 20.248704,41.309856 20.248704,41.247408 C20.3112,41.184864 20.498688,40.872432 20.811168,40.309968 C20.873664,40.184976 20.951808,39.934992 21.045552,39.560016 C21.139344,39.18504 21.186192,38.747568 21.186192,38.2476 L21.186192,32.34168 C20.936208,32.404176 20.701824,32.544768 20.483088,32.763552 C20.264352,32.982336 20.15496,33.341664 20.15496,33.841632 L20.15496,38.341344 C20.15496,38.778768 20.061216,39.153792 19.873728,39.466272 C19.311264,40.216224 18.467568,40.591248 17.342688,40.591248 C16.905216,40.591248 16.655232,40.497504 16.592736,40.310016 C16.530192,40.185024 16.54584,40.075632 16.639632,39.981888 C16.733424,39.888144 16.874016,39.778752 17.061504,39.65376 C17.248992,39.528768 17.373984,39.434976 17.43648,39.372528 C17.686464,39.18504 17.873904,38.935056 17.998944,38.622576 C18.186432,38.372592 18.23328,37.716384 18.139536,36.653952 C18.045792,35.59152 18.030144,34.904064 18.09264,34.591584 C16.467696,35.154048 14.8116,34.872768 13.12416,33.747888 C12.624192,33.24792 12.124224,32.529168 11.624256,31.591776 C11.24928,30.904272 10.499328,30.091824 9.374448,29.154384 Z" id="Shape"></path>
        </g>
    </g>
</svg>