<?xml version="1.0" encoding="UTF-8"?>
<svg width="48px" height="48px" viewBox="0 0 48 48" version="1.1" xmlns="http://www.w3.org/2000/svg" xmlns:xlink="http://www.w3.org/1999/xlink">
    <!-- Generator: Sketch 49.2 (51160) - http://www.bohemiancoding.com/sketch -->
    <title>integrations/intercom</title>
    <desc>Created with Sketch.</desc>
    <defs></defs>
    <g id="integrations/intercom" stroke="none" stroke-width="1" fill="none" fill-rule="evenodd">
        <g id="intercom" fill="#1F8DED" fill-rule="nonzero">
            <path d="M41.6000625,26.39025 C41.5905696,27.2671664 40.8769991,27.9730541 40.0000312,27.9730541 C39.1230634,27.9730541 38.4094929,27.2671664 38.4,26.39025 L38.4,12 C38.4094929,11.1230836 39.1230634,10.4171959 40.0000312,10.4171959 C40.8769991,10.4171959 41.5905696,11.1230836 41.6000625,12 L41.6000625,26.39025 Z M41.0416875,36.4051875 C40.794375,36.616875 34.8673125,41.5905 24,41.5905 C13.132875,41.5905 7.206,36.6166875 6.9586875,36.405 C6.28789312,35.8297995 6.21025092,34.8197795 6.78525,34.1488125 C7.35894919,33.4789876 8.36659374,33.3999731 9.0376875,33.9721875 C9.131625,34.0509375 14.424375,38.39025 24.0001875,38.39025 C33.6961875,38.39025 38.907,34.019625 38.9585625,33.9755625 C39.628125,33.4005 40.6400625,33.47775 41.21475,34.149 C41.7899476,34.8198324 41.7124674,35.8299287 41.0416875,36.4051875 Z M6.3999375,12 C6.40943045,11.1230836 7.12300093,10.4171959 7.99996875,10.4171959 C8.87693657,10.4171959 9.59050705,11.1230836 9.6,12 L9.6,26.39025 C9.59050705,27.2671664 8.87693657,27.9730541 7.99996875,27.9730541 C7.12300093,27.9730541 6.40943045,27.2671664 6.3999375,26.39025 L6.3999375,12 Z M14.4001875,8.7999375 C14.4135696,7.92586652 15.1259516,7.22430764 16.000125,7.22430764 C16.8742984,7.22430764 17.5866804,7.92586652 17.6000625,8.7999375 L17.6000625,30.175125 C17.5866804,31.049196 16.8742984,31.7507549 16.000125,31.7507549 C15.1259516,31.7507549 14.4135696,31.049196 14.4001875,30.175125 L14.4001875,8.800125 L14.4001875,8.7999375 Z M22.4000625,7.9903125 C22.4000128,7.56596745 22.5685611,7.15898818 22.8686184,6.85893092 C23.1686757,6.55887365 23.5756549,6.39032526 24,6.390375 C24.4243775,6.39027552 24.831405,6.55880195 25.1315028,6.85886461 C25.4316006,7.15892727 25.6001748,7.56593495 25.600125,7.9903125 L25.600125,31.19025 C25.5906321,32.0671664 24.8770616,32.7730541 24.0000938,32.7730541 C23.1231259,32.7730541 22.4095554,32.0671664 22.4000625,31.19025 L22.4000625,7.9903125 Z M30.400125,8.7999375 C30.4135071,7.92586652 31.1258891,7.22430764 32.0000625,7.22430764 C32.8742359,7.22430764 33.5866179,7.92586652 33.6,8.7999375 L33.6,30.175125 C33.5866179,31.049196 32.8742359,31.7507549 32.0000625,31.7507549 C31.1258891,31.7507549 30.4135071,31.049196 30.400125,30.175125 L30.400125,8.800125 L30.400125,8.7999375 Z M42,0 L6,0 C2.6863125,0 0,2.6863125 0,6 L0,42 C0,45.3135 2.6863125,48 6,48 L42,48 C45.3136875,48 48,45.3135 48,42 L48,6 C48,2.6863125 45.3136875,0 42,0 Z" id="Shape"></path>
        </g>
    </g>
</svg>