<?xml version="1.0" encoding="UTF-8"?>
<svg width="48px" height="48px" viewBox="0 0 48 48" version="1.1" xmlns="http://www.w3.org/2000/svg" xmlns:xlink="http://www.w3.org/1999/xlink">
    <!-- Generator: Sketch 49.2 (51160) - http://www.bohemiancoding.com/sketch -->
    <title>integrations/pivotal-tracker</title>
    <desc>Created with Sketch.</desc>
    <defs></defs>
    <g id="integrations/pivotal-tracker" stroke="none" stroke-width="1" fill="none" fill-rule="evenodd">
        <g id="pivotal-tracker" fill-rule="nonzero">
            <path d="M17.6270625,11.033625 L22.9809375,20.305875 C23.8550027,20.0724875 24.7834111,20.1552945 25.602375,20.5396875 L28.4169375,15.6650625 L23.7125625,7.5189375 L17.5719375,11.065125 L17.5723125,11.065125 L17.6270625,11.033625 Z M9.5563125,23.028375 L20.2663125,23.028375 C20.3518117,22.7026548 20.4799174,22.3896406 20.6473125,22.0974375 C20.9287008,21.6101995 21.3142649,21.1911499 21.7764375,20.87025 L18.9624375,15.997125 L9.5535,15.997125 L9.5535,23.0889375 L9.5563125,23.0889375 L9.5563125,23.028375 Z M27.3061875,25.942125 C27.0251447,26.4283909 26.6403964,26.8467488 26.1793125,27.1674375 L28.9955625,32.0446875 L38.401875,32.0446875 L38.401875,25.014375 L27.68775,25.014375 C27.6009589,25.3387964 27.4727149,25.6506782 27.3061875,25.9423125 L27.3061875,25.942125 Z M26.691375,21.3028125 C27.3326443,21.9420896 27.7271559,22.7875665 27.805125,23.6896875 L33.4321875,23.6896875 L38.1365625,15.5431875 L32.0484375,12.0271875 L26.6915625,21.3028125 L26.691375,21.3028125 Z M15.906,36.0155625 L21.262875,26.736 C20.6245719,26.0965147 20.2308345,25.25337 20.15025,24.3534375 L14.5201875,24.3534375 L9.8158125,32.496 L15.9549375,36.044625 L15.906,36.0155625 Z M30.3286875,37.0065 L24.9759375,27.733875 C24.1016807,27.9699663 23.1719691,27.887628 22.3528125,27.5015625 L19.5375,32.3776875 L24.2390625,40.52175 L30.3800625,36.9770625 L30.3286875,37.0065 Z" id="Shape" fill="#ED7D1A"></path>
            <path d="M23.9791875,0.0436875 C10.75725,0.0436875 0,10.798125 0,24.018 C0,37.241625 10.75725,48 23.9791875,48 C37.2,48 47.9548125,37.241625 47.9548125,24.018 C47.955,10.798125 37.2,0.0436875 23.979375,0.0436875 L23.9791875,0.0436875 Z M23.9791875,4.8980625 C34.5391875,4.8980625 43.0996875,13.4574375 43.0996875,24.018 C43.0996875,34.581375 34.5391875,43.14525 23.9791875,43.14525 C13.4176875,43.14525 4.8556875,34.581375 4.8556875,24.018 C4.8556875,13.4574375 13.4176875,4.897875 23.9791875,4.897875 L23.9791875,4.8980625 Z" id="Shape" fill="#5282B0"></path>
        </g>
    </g>
</svg>