<?xml version="1.0" encoding="UTF-8"?>
<svg width="48px" height="48px" viewBox="0 0 48 48" version="1.1" xmlns="http://www.w3.org/2000/svg" xmlns:xlink="http://www.w3.org/1999/xlink">
    <!-- Generator: Sketch 49.2 (51160) - http://www.bohemiancoding.com/sketch -->
    <title>integrations/pocket</title>
    <desc>Created with Sketch.</desc>
    <defs></defs>
    <g id="integrations/pocket" stroke="none" stroke-width="1" fill="none" fill-rule="evenodd">
        <g id="pocket" transform="translate(0.000000, 2.000000)" fill="#EF4056" fill-rule="nonzero">
            <path d="M4.22087892,0.0761973094 C1.60832287,0.246457399 0.0265829596,1.73790135 0.0265829596,4.3906009 L0.0265829596,20.2769865 C0.0265829596,33.1802691 12.8598027,43.3206457 23.9612556,43.240574 C36.4440538,43.1504933 47.976,32.6096502 47.976,20.2769865 L47.976,4.3906009 C47.976,1.72789238 46.294278,0.226331839 43.6615964,0.0761973094 L4.22087892,0.0761973094 Z M14.3313363,12.9994978 L23.9612556,22.1488789 L33.6011839,12.9994978 C37.9155874,11.1876592 39.7974888,16.1127175 38.0256861,17.5542242 L25.4728251,29.5364664 C25.0624574,29.9269238 22.8701704,29.9269238 22.4598027,29.5364664 L9.90683408,17.5541166 C8.21499552,15.9624753 10.4172915,10.9573453 14.3313363,12.9994978 Z" id="Shape"></path>
        </g>
    </g>
</svg>