<?xml version="1.0" encoding="UTF-8"?>
<svg width="48px" height="48px" viewBox="0 0 48 48" version="1.1" xmlns="http://www.w3.org/2000/svg" xmlns:xlink="http://www.w3.org/1999/xlink">
    <!-- Generator: Sketch 49.2 (51160) - http://www.bohemiancoding.com/sketch -->
    <title>integrations/rev</title>
    <desc>Created with Sketch.</desc>
    <defs></defs>
    <g id="integrations/rev" stroke="none" stroke-width="1" fill="none" fill-rule="evenodd">
        <g id="rev" transform="translate(0.000000, 14.000000)" fill-rule="nonzero">
            <path d="M6.26885385,4.61802471 C6.35862459,4.04026353 6.42493647,3.88464544 7.33646356,3.88464544 C7.98146568,3.88464544 8.18086586,4.32920218 8.18086586,5.01856704 C8.18086586,6.88586793 7.40300771,7.64177697 6.3806898,7.64177697 C5.98014747,7.64177697 5.86924055,7.50845637 5.86924055,7.21940162 C5.86924055,7.13055995 5.89153807,7.01918849 5.91383555,6.88586793 L6.26885385,4.61802471 Z M5.31296394,11.1321512 C5.38032104,10.7767845 5.46904656,10.6432317 5.82452939,10.6432317 C6.22483945,10.6432317 6.31402954,10.7767845 6.53595951,11.6209546 L7.46943574,15.2005189 C7.55897421,15.6001322 7.98146568,15.8675863 9.13663961,15.8675863 C10.0262176,15.8675863 12.2048708,15.6670247 12.2048708,14.2891079 C12.2048708,14.0886625 12.1383266,13.8665003 12.09408,13.6884686 L10.7155825,9.97604823 C10.6046756,9.68710954 10.5373185,9.39805478 10.5373185,9.15336276 C10.5373185,8.7754663 10.7598291,8.53100654 11.2265673,8.19758901 C12.6051809,7.19722021 13.0943326,5.99675447 13.0943326,4.55171279 C13.0943326,1.52830894 11.0714137,0.661144588 8.33694847,0.661144588 L5.66925969,0.661144588 C2.97927337,0.661144588 2.15647178,1.28361692 2.0005053,2.35052986 L0.0443627671,14.7779113 C0.0220652506,14.911348 0,15.0449008 0,15.1338586 C0,15.7557503 0.956006015,15.8675863 2.17865317,15.8675863 C3.46854127,15.8675863 4.57946857,15.7340334 4.69107229,15.0227194 L5.31296394,11.1321512 Z M19.6643191,6.64129206 C20.3088567,6.64129206 20.6200929,6.90816545 20.6200929,7.50845637 C20.6200929,8.30849593 20.3532194,8.79776382 19.5974265,8.79776382 L18.7083131,8.79776382 C18.3970769,8.79776382 18.218929,8.70915442 18.218929,8.4644624 C18.218929,8.01990567 18.3522496,7.53063778 18.552695,7.21940162 C18.7970386,6.84150515 19.1305723,6.64129206 19.6643191,6.64129206 Z M20.9533943,11.0208959 C23.8658912,10.7982691 24.6883444,9.86479288 24.6883444,7.1526252 C24.6883444,4.79605643 23.0878008,3.66259934 19.8420024,3.66259934 C17.8411487,3.66259934 16.3070331,4.15151884 15.2179388,5.32968709 C13.7507158,6.90816545 13.3060429,9.86479288 13.3060429,11.7765727 C13.3060429,14.6672366 15.1512785,16.0004423 18.7749734,16.0004423 C20.7311159,16.0004423 21.9761767,15.7783962 22.5098074,15.400732 C22.954248,15.089612 23.3543258,14.444726 23.3543258,13.1551863 C23.3543258,12.3545661 22.7543833,12.2211294 22.3540731,12.3103195 C21.8206748,12.4212264 20.8869663,12.5770767 19.7086819,12.5770767 C18.3301843,12.5770767 17.8633301,12.3545661 17.8633301,11.8435813 C17.8633301,11.6209546 17.8855115,11.487634 17.9522879,11.3984439 C18.0415941,11.287537 18.1966315,11.221109 18.4859186,11.1991599 L20.9533943,11.0208959 Z M40.9764481,3.46401208 C39.7853889,5.30425398 38.2528992,7.92943813 36.5631655,10.3335053 C36.09875,10.9943015 35.6219084,11.6384906 35.1382149,12.2450528 C32.3771552,15.7026775 32.3977107,15.9485309 28.6541667,15.9775641 C24.1550621,16.0118233 25.5549281,13.2115107 25.7206497,10.8713167 C25.8310921,9.30665818 26.3438188,7.73851565 26.5009467,6.63606607 C26.6682942,5.46556259 27.0903211,3.98788759 29.1246211,4.14280888 C29.6957627,4.18612644 31.4290462,4.83031565 31.2034,5.8758601 C30.7580303,7.94453541 30.3459908,11.7629851 30.3012796,11.8326649 C30.3012796,11.8326649 34.8858581,4.67191036 36.9101706,2.64759781 C37.8759318,1.68160437 43.139423,0.120662081 40.9764481,3.46401208 Z" id="Fill-1" fill="#DA372C"></path>
            <path d="M36.2749236,2.06449453 C31.4614473,0.78459386 25.5023199,0.0271750982 19.0493954,0.0271750982 C17.2510775,0.0271750982 15.4915479,0.0865190091 13.7838137,0.198935654 C22.2613991,0.427252932 29.7196861,1.96508477 34.5926225,4.24941888 C35.1818808,3.44984387 35.7534869,2.70287707 36.2749236,2.06449453 Z M19.0493954,20.7877888 C18.3098611,20.7877888 17.5770625,20.7776852 16.8513481,20.7581749 C30.3249707,19.8703389 40.5345624,15.6379915 40.5345624,10.5497447 C40.5345624,9.52800749 40.1226387,8.54087784 39.3556971,7.60844682 C40.1745504,6.32668804 40.9481117,5.07291726 41.6612835,3.92645328 C45.6258286,5.70258984 47.9981914,7.95545193 47.9981914,10.4074819 C47.9981914,16.1406147 35.0372953,20.7877888 19.0493954,20.7877888 Z" id="Fill-3" fill="#C1CDC6"></path>
        </g>
    </g>
</svg>