<?xml version="1.0" encoding="UTF-8"?>
<svg width="48px" height="48px" viewBox="0 0 48 48" version="1.1" xmlns="http://www.w3.org/2000/svg" xmlns:xlink="http://www.w3.org/1999/xlink">
    <!-- Generator: Sketch 49.2 (51160) - http://www.bohemiancoding.com/sketch -->
    <title>integrations/salesforce</title>
    <desc>Created with Sketch.</desc>
    <defs></defs>
    <g id="integrations/salesforce" stroke="none" stroke-width="1" fill="none" fill-rule="evenodd">
        <g id="salesforce" transform="translate(0.000000, 7.000000)" fill-rule="nonzero">
            <path d="M19.978752,3.684624 C21.525264,2.073264 23.678304,1.073856 26.059488,1.073856 C29.224896,1.073856 31.986528,2.838912 33.457248,5.459184 C34.735296,4.888176 36.149952,4.570512 37.638336,4.570512 C43.347456,4.570512 47.976,9.239376 47.976,14.998368 C47.976,20.758032 43.347456,25.426896 37.638336,25.426896 C36.9545183,25.4272949 36.2723739,25.3593249 35.60208,25.224 C34.306992,27.534144 31.839024,29.095008 29.006304,29.095008 C27.820464,29.095008 26.698848,28.82112 25.700208,28.334064 C24.387312,31.42224 21.328512,33.587568 17.763504,33.587568 C14.050992,33.587568 10.886976,31.238496 9.67248,27.944016 C9.141744,28.05672 8.591856,28.115472 8.027616,28.115472 C3.60744,28.11552 0.024,24.495216 0.024,20.028576 C0.024,17.035344 1.634016,14.42184 4.026144,13.0236 C3.533664,11.890416 3.259728,10.63968 3.259728,9.32472 C3.259728,4.188 7.42992,0.024 12.573504,0.024 C15.593376,0.024 18.2772,1.459824 19.978752,3.684624" id="Shape" fill="#00A1E0"></path>
            <path d="M6.969408,17.42928 C6.93936,17.507856 6.980352,17.524272 6.989904,17.537904 C7.080048,17.603472 7.171632,17.650656 7.26384,17.703216 C7.752912,17.962752 8.21472,18.038544 8.697648,18.038544 C9.681264,18.038544 10.29192,17.515344 10.29192,16.673088 L10.29192,16.65672 C10.29192,15.877968 9.602736,15.5952 8.95584,15.39096 L8.87184,15.363648 C8.384112,15.205152 7.963344,15.068592 7.963344,14.74752 L7.963344,14.73048 C7.963344,14.455872 8.209248,14.253648 8.590416,14.253648 C9.01392,14.253648 9.516672,14.394384 9.840432,14.573328 C9.840432,14.573328 9.935376,14.634816 9.970224,14.542608 C9.989328,14.493408 10.153296,14.052144 10.170384,14.004336 C10.188816,13.9524 10.156032,13.914144 10.122576,13.893648 C9.753024,13.668912 9.242064,13.515216 8.713392,13.515216 L8.61504,13.515888 C7.714752,13.515888 7.086336,14.059632 7.086336,14.839008 L7.086336,14.855424 C7.086336,15.677136 7.779648,15.943536 8.42928,16.129344 L8.533776,16.161456 C9.007152,16.306944 9.41496,16.431936 9.41496,16.765296 L9.41496,16.781712 C9.41496,17.086368 9.149952,17.31312 8.72232,17.31312 C8.556336,17.31312 8.026944,17.309712 7.455216,16.94832 C7.386192,16.908 7.34592,16.878672 7.29264,16.84656 C7.264656,16.8288 7.194288,16.798032 7.163568,16.89096 L6.969408,17.42928 Z M21.369312,17.42928 C21.339264,17.507856 21.380256,17.524272 21.389808,17.537904 C21.479952,17.603472 21.571536,17.650656 21.663696,17.703216 C22.152768,17.962752 22.614624,18.038544 23.097504,18.038544 C24.08112,18.038544 24.691824,17.515344 24.691824,16.673088 L24.691824,16.65672 C24.691824,15.877968 24.002592,15.5952 23.355696,15.39096 L23.271696,15.363648 C22.783968,15.205152 22.363152,15.068592 22.363152,14.74752 L22.363152,14.73048 C22.363152,14.455872 22.609056,14.253648 22.990224,14.253648 C23.413728,14.253648 23.91648,14.394384 24.240288,14.573328 C24.240288,14.573328 24.335232,14.634816 24.370032,14.542608 C24.389136,14.493408 24.553104,14.052144 24.570192,14.004336 C24.588672,13.9524 24.55584,13.914144 24.522384,13.893648 C24.152832,13.668912 23.641872,13.515216 23.1132,13.515216 L23.0148,13.515888 C22.114512,13.515888 21.486096,14.059632 21.486096,14.839008 L21.486096,14.855424 C21.486096,15.677136 22.179408,15.943536 22.82904,16.129344 L22.933536,16.161456 C23.406912,16.306944 23.81544,16.431936 23.81544,16.765296 L23.81544,16.781712 C23.81544,17.086368 23.549712,17.31312 23.12208,17.31312 C22.956144,17.31312 22.426752,17.309712 21.855024,16.94832 C21.786,16.908 21.745056,16.880016 21.693168,16.84656 C21.67536,16.834944 21.592032,16.802832 21.563328,16.89096 L21.369312,17.42928 Z M31.19976,15.77952 C31.19976,16.255632 31.11096,16.630608 30.936096,16.895664 C30.763248,17.157984 30.501648,17.285712 30.136944,17.285712 C29.77152,17.285712 29.511264,17.158656 29.341152,16.895664 C29.168976,16.631328 29.081616,16.255632 29.081616,15.77952 C29.081616,15.304128 29.168976,14.929776 29.341152,14.667456 C29.511264,14.40792 29.77152,14.281536 30.136944,14.281536 C30.501696,14.281536 30.763296,14.40792 30.936816,14.667456 C31.111008,14.929728 31.19976,15.30408 31.19976,15.77952 Z M32.020848,14.896992 C31.940208,14.6244 31.814544,14.383968 31.647216,14.183856 C31.47984,13.983024 31.268112,13.82184 31.016688,13.704336 C30.765984,13.587552 30.469584,13.528128 30.136944,13.528128 C29.803584,13.528128 29.507136,13.587552 29.256432,13.704336 C29.005056,13.82184 28.793328,13.983072 28.62528,14.183856 C28.458624,14.384688 28.332912,14.62512 28.251648,14.896992 C28.171728,15.168144 28.131408,15.464592 28.131408,15.77952 C28.131408,16.094448 28.171728,16.391568 28.251648,16.662048 C28.332912,16.93392 28.457952,17.1744 28.626,17.375184 C28.793328,17.576016 29.005776,17.736528 29.25648,17.850576 C29.507808,17.964672 29.803584,18.022704 30.136992,18.022704 C30.469632,18.022704 30.765408,17.964672 31.016736,17.850576 C31.26744,17.736528 31.47984,17.575968 31.647264,17.375184 C31.814592,17.175024 31.940256,16.934592 32.020896,16.662048 C32.101536,16.390896 32.141808,16.093728 32.141808,15.77952 C32.141808,15.465312 32.10144,15.168144 32.020848,14.896992 Z M38.763264,17.15856 C38.735952,17.07864 38.658768,17.108688 38.658768,17.108688 C38.539248,17.15448 38.412144,17.196816 38.276928,17.217984 C38.1396,17.239104 37.98864,17.250096 37.826736,17.250096 C37.429248,17.250096 37.113648,17.13192 36.887568,16.898304 C36.660768,16.664688 36.533712,16.286976 36.535056,15.776016 C36.536448,15.310848 36.648432,14.961072 36.849984,14.69472 C37.050144,14.429712 37.3548,14.293728 37.761216,14.293728 C38.100048,14.293728 38.35824,14.332656 38.628672,14.418048 C38.628672,14.418048 38.693568,14.446032 38.724288,14.36136 C38.796,14.161872 38.84928,14.01912 38.925792,13.799856 C38.94768,13.737696 38.8944,13.711056 38.875248,13.70352 C38.768688,13.661856 38.517312,13.594272 38.327424,13.565568 C38.149824,13.538256 37.942176,13.523904 37.711296,13.523904 C37.366272,13.523904 37.058928,13.582656 36.795984,13.70016 C36.533664,13.816944 36.310992,13.978128 36.134784,14.179008 C35.958528,14.37984 35.824656,14.620224 35.735184,14.892096 C35.646384,15.163248 35.601312,15.461088 35.601312,15.776016 C35.601312,16.45704 35.785056,17.007552 36.147792,17.410608 C36.511152,17.815008 37.05696,18.020592 37.768752,18.020592 C38.18952,18.020592 38.621232,17.935248 38.93136,17.812944 C38.93136,17.812944 38.990784,17.78424 38.964816,17.715312 L38.763264,17.15856 Z M40.199856,15.323424 C40.238784,15.059088 40.311888,14.839104 40.424592,14.667696 C40.594704,14.40744 40.85424,14.264688 41.21904,14.264688 C41.58384,14.264688 41.824944,14.408112 41.997744,14.667696 C42.112512,14.839104 42.162384,15.068688 42.182208,15.323424 L40.199856,15.323424 Z M42.964272,14.742096 C42.894624,14.479104 42.721776,14.213376 42.6084,14.091792 C42.429408,13.899168 42.254592,13.764624 42.081072,13.689456 C41.854272,13.592448 41.5824,13.528272 41.284608,13.528272 C40.937616,13.528272 40.622688,13.586352 40.367232,13.706544 C40.111104,13.826784 39.895968,13.990752 39.7272,14.194992 C39.558432,14.398512 39.431424,14.641008 39.350784,14.916288 C39.26952,15.190224 39.228528,15.488736 39.228528,15.803568 C39.228528,16.123968 39.270912,16.42248 39.354912,16.690896 C39.439632,16.961424 39.574848,17.199792 39.75792,17.397168 C39.940272,17.595984 40.17528,17.751744 40.456704,17.860272 C40.736112,17.968224 41.075616,18.02424 41.465616,18.02352 C42.268272,18.020784 42.691056,17.84184 42.865248,17.745504 C42.896016,17.728464 42.925392,17.698416 42.888432,17.612352 L42.706752,17.103408 C42.679488,17.027616 42.602256,17.0556 42.602256,17.0556 C42.40344,17.129376 42.12072,17.261904 41.461488,17.26056 C41.030496,17.259888 40.710768,17.132832 40.510608,16.934016 C40.305024,16.730496 40.204608,16.431264 40.186848,16.009152 L42.966288,16.011888 C42.966288,16.011888 43.039344,16.010544 43.046928,15.939456 C43.049664,15.909504 43.142592,15.368496 42.964272,14.742096 Z M17.940576,15.323424 C17.980176,15.059088 18.052608,14.839104 18.165312,14.667696 C18.335376,14.40744 18.59496,14.264688 18.959712,14.264688 C19.324464,14.264688 19.565616,14.408112 19.739088,14.667696 C19.853136,14.839104 19.903008,15.068688 19.922832,15.323424 L17.940576,15.323424 Z M20.704272,14.742096 C20.634624,14.479104 20.462496,14.213376 20.34912,14.091792 C20.170128,13.899168 19.995264,13.764624 19.821792,13.689456 C19.594992,13.592448 19.323168,13.528272 19.025328,13.528272 C18.679008,13.528272 18.363408,13.586352 18.107952,13.706544 C17.851824,13.826784 17.63664,13.990752 17.46792,14.194992 C17.2992,14.398512 17.172144,14.641008 17.091552,14.916288 C17.01096,15.190224 16.969296,15.488736 16.969296,15.803568 C16.969296,16.123968 17.011632,16.42248 17.09568,16.690896 C17.1804,16.961424 17.315664,17.199792 17.498688,17.397168 C17.681088,17.595984 17.916048,17.751744 18.197472,17.860272 C18.47688,17.968224 18.816336,18.02424 19.206384,18.02352 C20.008992,18.020784 20.431824,17.84184 20.606016,17.745504 C20.636784,17.728464 20.666112,17.698416 20.629248,17.612352 L20.44824,17.103408 C20.420208,17.027616 20.343072,17.0556 20.343072,17.0556 C20.144304,17.129376 19.86216,17.261904 19.201632,17.26056 C18.771312,17.259888 18.451632,17.132832 18.251472,16.934016 C18.04584,16.730496 17.945472,16.431264 17.927664,16.009152 L20.707104,16.011888 C20.707104,16.011888 20.78016,16.010544 20.787696,15.939456 C20.790336,15.909504 20.883216,15.368496 20.704272,14.742096 Z M11.932848,17.143344 C11.824224,17.05656 11.8092,17.03472 11.772336,16.978704 C11.717664,16.893312 11.68968,16.771728 11.68968,16.61736 C11.68968,16.3728 11.770272,16.197264 11.937648,16.079088 C11.935632,16.079808 12.176736,15.870768 12.743664,15.878256 C13.141872,15.883728 13.497744,15.94248 13.497744,15.94248 L13.497744,17.206176 L13.498416,17.206176 C13.498416,17.206176 13.14528,17.281968 12.747744,17.305872 C12.18216,17.340048 11.930784,17.142672 11.932848,17.143344 Z M13.03872,15.190416 C12.926016,15.182208 12.779808,15.177408 12.604944,15.177408 C12.366576,15.177408 12.136368,15.207456 11.920512,15.265536 C11.703312,15.323568 11.507952,15.41448 11.339904,15.534624 C11.172111,15.654387 11.0342008,15.811236 10.936896,15.992976 C10.838544,16.176048 10.788672,16.391904 10.788672,16.633728 C10.788672,16.879632 10.831008,17.093424 10.915728,17.268336 C11.000448,17.443872 11.122704,17.590032 11.278416,17.702784 C11.432784,17.815488 11.623392,17.898096 11.844672,17.947968 C12.062592,17.99784 12.30984,18.023088 12.580368,18.023088 C12.8652,18.023088 13.14936,17.999904 13.42464,17.95272 C13.697184,17.906256 14.031888,17.838624 14.124768,17.817504 C14.1898987,17.8018098 14.2548013,17.7851841 14.319456,17.767632 C14.38848,17.750592 14.383008,17.676768 14.383008,17.676768 L14.381616,15.135072 C14.381616,14.577648 14.23272,14.164368 13.93968,13.90824 C13.647984,13.652784 13.218336,13.523616 12.663024,13.523616 C12.454656,13.523616 12.11928,13.552368 11.918448,13.59264 C11.918448,13.59264 11.3112,13.710144 11.061168,13.905504 C11.061168,13.905504 11.006544,13.93968 11.036592,14.016192 L11.233344,14.544912 C11.25792,14.613216 11.324208,14.589984 11.324208,14.589984 C11.324208,14.589984 11.345376,14.581776 11.37,14.567424 C11.904864,14.276448 12.581088,14.285328 12.581088,14.285328 C12.881664,14.285328 13.112544,14.345424 13.268256,14.464944 C13.419888,14.581056 13.497072,14.756592 13.497072,15.126816 L13.497072,15.24432 C13.257984,15.210192 13.03872,15.190416 13.03872,15.190416 Z M35.456112,13.758288 C35.477232,13.695408 35.43288,13.66536 35.4144,13.658544 C35.367312,13.640112 35.13096,13.59024 34.94856,13.578624 C34.599552,13.557456 34.405584,13.616208 34.232016,13.694064 C34.059888,13.77192 33.868656,13.897584 33.762048,14.040384 L33.762048,13.702272 C33.762048,13.655136 33.728592,13.617552 33.682128,13.617552 L32.969664,13.617552 C32.923248,13.617552 32.889792,13.655088 32.889792,13.702272 L32.889792,17.84784 C32.889792,17.894304 32.928048,17.93256 32.974464,17.93256 L33.704688,17.93256 C33.7512512,17.9322956 33.788821,17.8944038 33.788688,17.84784 L33.788688,15.776784 C33.788688,15.498768 33.819456,15.221472 33.880944,15.04728 C33.94104,14.875104 34.023024,14.737152 34.124112,14.63808 C34.225872,14.539728 34.341312,14.470752 34.467696,14.431824 C34.596768,14.392176 34.73952,14.379216 34.840656,14.379216 C34.986144,14.379216 35.145984,14.416752 35.145984,14.416752 C35.199216,14.422896 35.229312,14.390112 35.247024,14.341632 C35.29488,14.214576 35.430144,13.83408 35.456112,13.758288 Z" id="Shape" fill="#FFFFFF"></path>
            <path d="M28.601952,11.836944 C28.513152,11.809632 28.43256,11.791152 28.327344,11.771376 C28.220736,11.752272 28.093728,11.742672 27.949632,11.742672 C27.446832,11.742672 27.05064,11.884752 26.772672,12.164784 C26.496,12.44352 26.308128,12.867696 26.213856,13.425792 L26.17968,13.613616 L25.548576,13.613616 C25.548576,13.613616 25.472064,13.61088 25.455648,13.694256 L25.352544,14.2728 C25.345008,14.327472 25.36896,14.362272 25.442688,14.362272 L26.0568,14.362272 L25.433808,17.840496 C25.38528,18.120576 25.329264,18.350784 25.267104,18.5256 C25.206288,18.697776 25.146912,18.826848 25.073136,18.92112 C25.002096,19.011312 24.935136,19.078224 24.818976,19.117152 C24.72336,19.149264 24.61272,19.164288 24.491808,19.164288 C24.424848,19.164288 24.335424,19.153296 24.269136,19.139664 C24.203568,19.126656 24.16872,19.112352 24.118848,19.091136 C24.118848,19.091136 24.047136,19.063872 24.018432,19.135584 C23.995872,19.195008 23.831952,19.645104 23.812128,19.700496 C23.793024,19.755792 23.820336,19.798848 23.855136,19.811808 C23.93712,19.840512 23.997888,19.859616 24.109248,19.886256 C24.263664,19.922496 24.39408,19.924512 24.516336,19.924512 C24.771792,19.924512 25.005408,19.88832 25.198752,19.818672 C25.392768,19.748304 25.562112,19.626 25.7124,19.460736 C25.874304,19.281744 25.976064,19.094592 26.07312,18.838464 C26.169408,18.585696 26.252112,18.271488 26.317632,17.905392 L26.944032,14.362272 L27.859344,14.362272 C27.859344,14.362272 27.93648,14.365008 27.952272,14.281008 L28.056048,13.703136 C28.062912,13.64784 28.03968,13.613664 27.965184,13.613664 L27.076512,13.613664 C27.081312,13.593888 27.121584,13.280976 27.223392,12.98664 C27.26712,12.861648 27.349056,12.75984 27.41808,12.690144 C27.486432,12.62184 27.56496,12.57336 27.651072,12.545328 C27.739152,12.516624 27.839616,12.502992 27.949584,12.502992 C28.032912,12.502992 28.11552,12.512544 28.17768,12.525504 C28.263744,12.543984 28.2972,12.553536 28.319808,12.5604 C28.410672,12.587712 28.422912,12.561072 28.44072,12.517392 L28.653168,11.934048 C28.675008,11.871072 28.621056,11.844432 28.601952,11.836944 Z M16.185312,17.848032 C16.185312,17.894496 16.151856,17.93208 16.105392,17.93208 L15.368352,17.93208 C15.321888,17.93208 15.289104,17.894496 15.289104,17.848032 L15.289104,11.916192 C15.289104,11.869776 15.321888,11.832192 15.368352,11.832192 L16.105392,11.832192 C16.151856,11.832192 16.185312,11.869776 16.185312,11.916192 L16.185312,17.848032 Z" id="Shape" fill="#FFFFFF"></path>
        </g>
    </g>
</svg>