<?xml version="1.0" encoding="UTF-8"?>
<svg width="48px" height="48px" viewBox="0 0 48 48" version="1.1" xmlns="http://www.w3.org/2000/svg" xmlns:xlink="http://www.w3.org/1999/xlink">
    <!-- Generator: Sketch 49.2 (51160) - http://www.bohemiancoding.com/sketch -->
    <title>integrations/slack</title>
    <desc>Created with Sketch.</desc>
    <defs></defs>
    <g id="integrations/slack" stroke="none" stroke-width="1" fill="none" fill-rule="evenodd">
        <g id="slack" fill-rule="nonzero">
            <path d="M31.11825,2.969625 C30.388875,0.7243125 27.97725,-0.504375 25.7323125,0.225375 C23.487,0.95475 22.2583125,3.366375 22.9880625,5.6113125 L34.040625,39.61725 C34.799625,41.7148125 37.065375,42.8934375 39.240375,42.2675625 C41.509125,41.6145 42.8919375,39.2049375 42.168,36.976875 L31.11825,2.969625" id="Shape" fill="#DFA22F"></path>
            <path d="M13.992375,8.53425 C13.262625,6.289125 10.8511875,5.0604375 8.60625,5.7898125 C6.36075,6.519375 5.131875,8.9308125 5.8618125,11.176125 L16.9145625,45.18225 C17.673375,47.279625 19.9393125,48.4584375 22.1143125,47.832 C24.382875,47.1793125 25.7656875,44.76975 25.04175,42.5413125 L13.992375,8.53425" id="Shape" fill="#3CB187"></path>
            <path d="M45.030375,31.1334375 C47.2756875,30.4040625 48.504,27.9928125 47.774625,25.7473125 C47.04525,23.502375 44.633625,22.2735 42.3886875,23.0030625 L8.38275,34.056 C6.2851875,34.814625 5.1065625,37.080375 5.7324375,39.255375 C6.3855,41.5239375 8.7950625,42.9069375 11.023125,42.183 L45.030375,31.133625" id="Shape" fill="#CE1E5B"></path>
            <polyline id="Shape" fill="#392538" points="15.47025 40.738125 23.5978125 38.097375 20.9566875 29.968875 12.8285625 32.61075 15.47025 40.7383125"></polyline>
            <path d="M32.5963125,35.1733125 C35.6690625,34.17525 38.5250625,33.247125 40.7240625,32.5325625 L38.0825625,24.4025625 L29.9544375,27.0444375 L32.5963125,35.1733125" id="Shape" fill="#BB242A"></path>
            <path d="M39.46575,14.007375 C41.710875,13.278 42.9395625,10.8665625 42.2101875,8.6210625 C41.4808125,6.376125 39.0691875,5.1474375 36.823875,5.8768125 L2.81775,16.9299375 C0.720375,17.6881875 -0.4584375,19.954125 0.168,22.129125 C0.8206875,24.3975 3.23025,25.7805 5.4586875,25.0565625 L39.46575,14.0071875" id="Shape" fill="#72C5CD"></path>
            <path d="M9.904125,23.6124375 C12.1175625,22.8931875 14.9713125,21.9658125 18.033,20.9713125 C17.0349375,17.8981875 16.1068125,15.0421875 15.39225,12.8428125 L7.26225,15.4850625 L9.904125,23.6124375" id="Shape" fill="#248C73"></path>
            <path d="M27.03,18.048 L35.15925,15.4065 C34.2788006,12.6964632 33.3982381,9.98646325 32.5175625,7.2765 L24.388125,9.91875 L27.03,18.048" id="Shape" fill="#62803A"></path>
        </g>
    </g>
</svg>