<?xml version="1.0" encoding="UTF-8"?>
<svg width="48px" height="48px" viewBox="0 0 48 48" version="1.1" xmlns="http://www.w3.org/2000/svg" xmlns:xlink="http://www.w3.org/1999/xlink">
    <!-- Generator: Sketch 49.2 (51160) - http://www.bohemiancoding.com/sketch -->
    <title>integrations/surveymonkey</title>
    <desc>Created with Sketch.</desc>
    <defs></defs>
    <g id="integrations/surveymonkey" stroke="none" stroke-width="1" fill="none" fill-rule="evenodd">
        <g id="surveymonkey">
            <circle id="Oval" fill="#BDCF31" cx="24" cy="24" r="24"></circle>
            <path d="M39.1658667,21.3968 C38.7904,21.3968 38.4192,21.4485333 38.0693333,21.5333333 C36.688,16.0645333 32.1162667,11.8725333 26.4533333,11.0346667 C26.368,10.08 26.7333333,8.58293333 29.1210667,7.14026667 L29.0496,7 C29.0496,7 25.0506667,8.26506667 24.1466667,10.7621333 C24.1861333,9.9824 23.9024,8.8112 22.1658667,7.97813333 C22.1658667,7.97813333 22.0288,8.02506667 22.0981333,8.088 C22.4426667,8.4064 23.5397333,9.46773333 23.0741333,10.9456 C17.0528,11.4933333 12.1248,15.8202667 10.6805333,21.5344 C10.321804,21.4451666 9.95365822,21.3993274 9.584,21.3978667 C7.05706667,21.3978667 5,23.4501333 5,25.9845333 C5,28.5141333 7.0576,30.5696 9.584,30.5696 C10.176,30.5696 10.7402667,30.4522667 11.2586667,30.2485333 C11.6494744,31.2253135 12.1491636,32.154918 12.7482667,33.0197333 L16.5701333,30.4426667 L16.5210667,30.4117333 C15.5146667,29.1184 14.8997333,27.2138667 14.7962667,25.3184 C14.6821333,23.2277333 15.192,21.1514667 16.5269333,19.9306667 C19.2789333,17.5877333 22.2752,18.656 24.1536,20.9013333 L24.6549333,20.9013333 C26.5333333,18.7002667 29.496,17.6773333 32.2261333,19.9946667 C33.5434667,21.2074667 34.0586667,23.248 33.9584,25.3109333 C33.8677333,27.2245333 33.2490667,29.1594667 32.2384,30.4618667 L36.0058667,33.0192 C36.6022267,32.1531378 37.1005695,31.2235301 37.4917333,30.2474667 C38.0101333,30.4501333 38.5733333,30.5685333 39.1648,30.5685333 C41.6981333,30.5685333 43.7498667,28.5125333 43.7498667,25.9818667 C43.7504328,24.7657013 43.2676367,23.5991688 42.4077778,22.7391099 C41.547919,21.879051 40.3814988,21.3959835 39.1653333,21.3962667 M9.74026667,26.9002667 C9.23573333,26.9002667 8.82293333,26.4912 8.82293333,25.9808 C8.82197808,25.6393151 9.01035446,25.325429 9.31214771,25.1656364 C9.61394096,25.0058438 9.97943339,25.0264689 10.2613333,25.2192 C10.2666667,25.7061333 10.304,26.1856 10.36,26.6592 C10.190898,26.8143257 9.96974318,26.9003515 9.74026667,26.9002667 M39.0069333,26.9024 C38.7806285,26.9020418 38.5623475,26.8185256 38.3936,26.6677333 C38.4485333,26.1909333 38.4858667,25.7093333 38.4917333,25.2202667 C38.6394667,25.1210667 38.8170667,25.0613333 39.008,25.0613333 C39.5146667,25.0613333 39.9285333,25.4746667 39.9285333,25.984 C39.9285333,26.4949333 39.5125333,26.9029333 39.0074667,26.9029333" id="Shape" fill="#FFFFFF" fill-rule="nonzero"></path>
        </g>
    </g>
</svg>