<?xml version="1.0" encoding="UTF-8"?>
<svg width="48px" height="48px" viewBox="0 0 48 48" version="1.1" xmlns="http://www.w3.org/2000/svg" xmlns:xlink="http://www.w3.org/1999/xlink">
    <!-- Generator: Sketch 49.2 (51160) - http://www.bohemiancoding.com/sketch -->
    <title>integrations/twilio</title>
    <desc>Created with Sketch.</desc>
    <defs></defs>
    <g id="integrations/twilio" stroke="none" stroke-width="1" fill="none" fill-rule="evenodd">
        <g id="twilio" fill="#CF272D" fill-rule="nonzero">
            <path d="M23.97375,41.682 C14.2228125,41.682 6.318,33.7771875 6.318,24.0264375 C6.318,14.2755 14.2228125,6.370875 23.97375,6.370875 C33.7245,6.370875 41.629125,14.2755 41.629125,24.0264375 C41.629125,33.7771875 33.7245,41.682 23.97375,41.682 Z M23.97375,0.0526875 C10.7334375,0.0526875 0,10.7863125 0,24.0264375 C0,37.26675 10.7334375,48 23.97375,48 C37.213875,48 47.9473125,37.26675 47.9473125,24.0264375 C47.9473125,10.7863125 37.213875,0.0526875 23.9735625,0.0526875 L23.97375,0.0526875 Z" id="Shape"></path>
            <path d="M24.95925,18.0556875 C24.95925,15.3028125 27.1910625,13.071 29.944125,13.071 C32.6971875,13.071 34.9288125,15.3028125 34.9288125,18.0556875 C34.9288125,20.8089375 32.6971875,23.0405625 29.944125,23.0405625 C27.1910625,23.0405625 24.95925,20.8089375 24.95925,18.0556875 M24.95925,29.9968125 C24.95925,27.2439375 27.1910625,25.0119375 29.944125,25.0119375 C32.6971875,25.0119375 34.9288125,27.2439375 34.9288125,29.9968125 C34.9288125,32.749875 32.6971875,34.9816875 29.944125,34.9816875 C27.1910625,34.9816875 24.95925,32.749875 24.95925,29.9968125 M13.0183125,29.9968125 C13.0183125,27.2439375 15.2503125,25.0119375 18.0031875,25.0119375 C20.75625,25.0119375 22.9880625,27.2439375 22.9880625,29.9968125 C22.9880625,32.749875 20.75625,34.9816875 18.0031875,34.9816875 C15.2503125,34.9816875 13.0183125,32.749875 13.0183125,29.9968125 M13.0183125,18.055875 C13.0183125,15.3028125 15.2503125,13.0711875 18.0031875,13.0711875 C20.75625,13.0711875 22.9880625,15.3028125 22.9880625,18.055875 C22.9880625,20.809125 20.75625,23.04075 18.0031875,23.04075 C15.2503125,23.04075 13.0183125,20.809125 13.0183125,18.055875" id="Shape"></path>
        </g>
    </g>
</svg>