<?xml version="1.0" encoding="UTF-8"?>
<svg width="48px" height="48px" viewBox="0 0 48 48" version="1.1" xmlns="http://www.w3.org/2000/svg" xmlns:xlink="http://www.w3.org/1999/xlink">
    <!-- Generator: Sketch 49.2 (51160) - http://www.bohemiancoding.com/sketch -->
    <title>integrations/twitter</title>
    <desc>Created with Sketch.</desc>
    <defs></defs>
    <g id="integrations/twitter" stroke="none" stroke-width="1" fill="none" fill-rule="evenodd">
        <g id="twitter" transform="translate(0.000000, 5.000000)" fill="#5DA8DC" fill-rule="nonzero">
            <path d="M32.0721371,0.00865644725 L32.0721371,0 L34.3228133,0 L35.1451758,0.164472498 C35.6934319,0.271249775 36.1911776,0.411181244 36.638413,0.584310189 C37.0856916,0.757439134 37.518514,0.959437331 37.9368801,1.1902615 C38.3552894,1.42108566 38.7347448,1.65628133 39.0752462,1.89576195 C39.4128476,2.13238593 39.7158233,2.3834229 39.9841731,2.64887286 C40.2495798,2.91722272 40.663661,2.9864743 41.22633,2.85662759 C41.7889991,2.72678088 42.3949504,2.54642381 43.0441839,2.31559964 C43.6934175,2.08477547 44.3354662,1.82508206 44.9702435,1.53651939 C45.605064,1.24795672 45.9917475,1.06474301 46.1302507,0.986834986 C46.2658539,0.906070334 46.3380054,0.862788097 46.3466619,0.856988278 L46.355275,0.844003607 L46.3985573,0.822362489 L46.4418395,0.800721371 L46.4851217,0.779080252 L46.528404,0.757439134 L46.5370604,0.744454463 L46.5500451,0.735798016 L46.563073,0.727141569 L46.5716862,0.714156898 L46.6149684,0.701172227 L46.6582507,0.69251578 L46.6496375,0.757439134 L46.6366096,0.822362489 L46.6149684,0.887285843 L46.5933273,0.952209197 L46.5716862,0.995491434 L46.5500451,1.03877367 L46.528404,1.10369702 C46.513991,1.14697926 46.499578,1.20467448 46.4851217,1.27682597 C46.4707087,1.34897746 46.3336339,1.63749684 46.0739405,2.14247069 C45.8142471,2.64744454 45.4896303,3.15960325 45.1000902,3.67899008 C44.71055,4.19837692 44.3614355,4.59077367 44.0527033,4.85626691 C43.7410712,5.12461677 43.5347448,5.3121587 43.4337241,5.41893598 C43.3327466,5.52856988 43.210128,5.62954734 43.0658251,5.72191163 L42.8494139,5.86474301 L42.8061317,5.88638413 L42.7628494,5.90802525 L42.7542362,5.92100992 L42.7412083,5.92966637 L42.7282236,5.93832281 L42.7195672,5.95130748 L42.6762849,5.9729486 L42.6330027,5.99458972 L42.6243895,6.00757439 L42.6113616,6.01623084 L42.5983769,6.02488729 L42.5897205,6.03787196 L42.5811073,6.05085663 L42.5680794,6.05951307 L42.5550947,6.06816952 L42.5464382,6.08115419 L42.7628494,6.08115419 L43.974752,5.82146078 C44.7827015,5.64833183 45.5545537,5.43914878 46.2903517,5.19386835 L47.458972,4.80432822 L47.5888188,4.76104599 L47.6537421,4.73940487 L47.6970243,4.71776375 L47.7403066,4.69612263 L47.7835888,4.67448151 L47.8268711,4.6528404 L47.9134355,4.63985573 L48,4.63119928 L48,4.71776375 L47.9783589,4.7264202 L47.9567178,4.73940487 L47.9481046,4.75238954 L47.9350766,4.76104599 L47.922092,4.76970243 L47.9134355,4.78268711 L47.9048224,4.79567178 L47.8917944,4.80432822 L47.8788097,4.81298467 L47.8701533,4.82596934 L47.8615401,4.83895401 L47.8485122,4.84761046 L47.8268711,4.8908927 L47.8052299,4.93417493 L47.7922453,4.94283138 C47.7864887,4.95148783 47.603275,5.19672498 47.2425609,5.6786294 C46.88189,6.16339044 46.6871199,6.40862759 46.6582507,6.41442741 C46.6294247,6.42308386 46.5889991,6.4663661 46.5370604,6.54427412 C46.4880216,6.62503877 46.1821461,6.94679892 45.619477,7.50946799 C45.0568079,8.07213706 44.5057385,8.5727394 43.9661389,9.01136159 C43.4236826,9.4528404 43.1495329,9.99529666 43.1437764,10.6387737 C43.1351199,11.2793508 43.1019225,12.0036357 43.0441839,12.8115419 C42.9864887,13.6194914 42.8782831,14.492321 42.7195672,15.4301172 C42.5608945,16.3679134 42.3156141,17.4283282 41.9837692,18.6113616 C41.6519675,19.794395 41.2479711,20.9486023 40.7718665,22.0739405 C40.2957619,23.1992786 39.7980162,24.209183 39.2786294,25.103697 C38.7592426,25.998211 38.283138,26.7556501 37.8503156,27.3760144 C37.4174932,27.9963787 36.977486,28.5806889 36.5302074,29.128945 C36.082972,29.6772011 35.5174463,30.2947087 34.833587,30.9814247 C34.1468278,31.665284 33.7717439,32.0404112 33.7082489,32.1067628 C33.6418972,32.1702579 33.3591344,32.4068819 32.8598738,32.8165915 C32.3635996,33.2292011 31.8297565,33.6418106 31.258431,34.0544635 C30.6900054,34.4642164 30.1677187,34.8061461 29.6916141,35.0802525 C29.2155095,35.3543589 28.6413273,35.6674193 27.9689811,36.019477 C27.299578,36.3743913 26.5752931,36.7033363 25.7962128,37.006312 C25.0171326,37.3092876 24.1947701,37.5906222 23.3291253,37.8503156 C22.4634806,38.110009 21.6267051,38.3120072 20.8187556,38.4562669 C20.0108494,38.6005266 19.0946943,38.7231885 18.0703336,38.8241659 L16.5338142,38.9756537 L16.5338142,38.9972949 L13.7204689,38.9972949 L13.7204689,38.9756537 L13.3525699,38.9540126 C13.1073327,38.9395996 12.9053345,38.9251434 12.7466186,38.9107304 C12.5879459,38.8963174 11.9891794,38.8169378 10.9504058,38.6726781 C9.9116321,38.5284184 9.09649775,38.3841154 8.50495942,38.2398557 C7.91346438,38.095596 7.03336339,37.8214463 5.86474301,37.4174932 C4.69612263,37.0135401 3.69630298,36.6052155 2.86528404,36.192606 C2.03716501,35.782853 1.51777818,35.5231596 1.30712353,35.4135257 C1.0993688,35.3067484 0.865644725,35.1740451 0.605951307,35.0153291 L0.216411181,34.7772768 L0.207798016,34.7642922 L0.194770063,34.7556357 L0.181785392,34.7469793 L0.173128945,34.7339946 L0.129846709,34.7123535 L0.0865644725,34.6907124 L0.0779513075,34.6777277 L0.0649233544,34.6690712 L0.0519386835,34.6604148 L0.0432822362,34.6474301 L0.0346690712,34.6344454 L0.0216411181,34.625789 L0,34.625789 L0,34.5392245 L0.0432822362,34.547881 L0.0865644725,34.5608656 L0.281334536,34.5825068 C0.411181244,34.5969197 0.764667268,34.6185609 1.34174932,34.6474301 C1.91887466,34.6762994 2.53201082,34.6762994 3.18124436,34.6474301 C3.83047791,34.6185609 4.49416772,34.5536375 5.17222723,34.4526601 C5.85033003,34.3516826 6.6510514,34.1785537 7.57439134,33.9332732 C8.49777457,33.6879928 9.3461064,33.3965735 10.1194301,33.058972 C10.8898539,32.718514 11.4380667,32.4645771 11.7641551,32.2972047 C12.0873003,32.1327322 12.5807178,31.8268566 13.2443643,31.3796213 L14.2398557,30.7087466 L14.2485122,30.6957619 L14.2614968,30.6871055 L14.2745248,30.6784491 L14.283138,30.6654644 L14.2917944,30.6524797 L14.3047791,30.6438233 L14.317807,30.6351668 L14.3264202,30.6221821 L14.3697024,30.6091975 L14.4129847,30.600541 L14.4216411,30.5572588 L14.4346258,30.5139766 L14.4476537,30.5053201 L14.4562669,30.4923354 L14.110009,30.4706943 C13.8791849,30.4562813 13.6555455,30.4418251 13.4391344,30.4274121 C13.2227232,30.4129991 12.8836934,30.3480757 12.4220018,30.232642 C11.9603535,30.1172083 11.4626078,29.9440794 10.9287647,29.7132552 C10.3949648,29.482431 9.875578,29.2082813 9.37060415,28.8908927 C8.86567358,28.5735041 8.5006312,28.3094391 8.27556357,28.0988278 C8.05339585,27.8910298 7.76483318,27.5967538 7.40991885,27.2158702 C7.05790442,26.8321298 6.75202885,26.4382182 6.49233544,26.0342651 C6.23264202,25.630312 5.98450496,25.1642489 5.74792426,24.6362489 L5.38863841,23.8485122 L5.36699729,23.7835888 L5.34535618,23.7186655 L5.33237151,23.6753832 L5.32371506,23.632101 L5.38863841,23.6407574 L5.45356177,23.6537421 L5.92966637,23.7186655 C6.24709829,23.7619477 6.744844,23.7763607 7.42290352,23.7619477 C8.10100631,23.7475347 8.56988278,23.7186655 8.82957619,23.6753832 C9.08926961,23.632101 9.24798557,23.6032317 9.30568079,23.5888188 L9.39224527,23.5671776 L9.50045086,23.5455365 L9.60865645,23.5238954 L9.61731289,23.5109107 L9.63029757,23.5022543 L9.64332552,23.4935978 L9.65193868,23.4806132 L9.56537421,23.458972 L9.47880974,23.4373309 L9.39224527,23.4156898 L9.30568079,23.3940487 L9.21911632,23.3724076 C9.1614211,23.3579946 9.06044364,23.3291253 8.91614067,23.2858431 C8.77188097,23.2425609 8.38234085,23.0838449 7.74752029,22.8097385 C7.11274301,22.5356321 6.60776916,22.2687106 6.23264202,22.0090171 C5.85658498,21.748571 5.49801552,21.4637396 5.15924256,21.1563571 C4.82164112,20.844725 4.45088548,20.4436285 4.04688909,19.9531109 C3.64293598,19.4625933 3.2822651,18.8926961 2.96483318,18.2434626 C2.64744454,17.594229 2.40939225,16.9738647 2.25067628,16.3823264 C2.09259855,15.7942677 1.98830645,15.1930561 1.93908747,14.5861136 L1.86113616,13.6771867 L1.90441839,13.6858431 L1.94770063,13.6988278 L1.99098287,13.7204689 L2.0342651,13.74211 L2.07754734,13.7637511 L2.12082958,13.7853922 L2.79170424,14.0883679 C3.23898287,14.2903661 3.79442381,14.463495 4.45807033,14.6077547 C5.12176014,14.7520144 5.51848512,14.831394 5.64833183,14.845807 L5.84310189,14.8674482 L6.23264202,14.8674482 L6.22402885,14.8544635 L6.2110009,14.845807 L6.19801623,14.8371506 L6.18935978,14.8241659 L6.18074662,14.8111812 L6.16771867,14.8025248 L6.15473399,14.7938683 L6.14607755,14.7808837 L6.10279531,14.7592426 L6.05951307,14.7376014 L6.05089991,14.7246168 L6.03787196,14.7159603 L6.02488729,14.7073039 L6.01623084,14.6943192 L5.9729486,14.6726781 L5.92966637,14.651037 L5.9210532,14.6380523 C5.91239675,14.6322525 5.78830658,14.5399315 5.54878269,14.361046 C5.3121587,14.1792606 5.06402164,13.9441082 4.80432822,13.6555455 C4.54463481,13.3669829 4.28494139,13.0640072 4.02524797,12.7466186 C3.76507642,12.4285027 3.53334747,12.0881508 3.33273219,11.729486 C3.13077728,11.3688151 2.91722272,10.9099802 2.69215509,10.3531109 C2.46998738,9.79909829 2.30118665,9.24075744 2.18575293,8.67808837 C2.07036249,8.1154193 2.00543913,7.55997836 1.99098287,7.01172227 C1.97656988,6.46346619 1.99098287,5.99458972 2.0342651,5.60504959 C2.07754734,5.21550947 2.16411181,4.77545897 2.29395852,4.28494139 C2.42380523,3.79442381 2.61139044,3.27503697 2.85662759,2.72678088 L3.2245266,1.90441839 L3.24616772,1.83949504 L3.26780884,1.77457169 L3.28083679,1.76591524 L3.28944995,1.75293057 L3.2981064,1.7399459 L3.31109107,1.73128945 L3.32411903,1.7399459 L3.33273219,1.75293057 L3.34138864,1.76591524 L3.35437331,1.77457169 L3.36740126,1.78322813 L3.37601443,1.7962128 L3.38467087,1.80919748 L3.39765555,1.81785392 L3.41929666,1.86113616 L3.44093778,1.90441839 L3.45396573,1.91307484 L3.4625789,1.92605951 L4.04688909,2.57529306 C4.43642922,3.00811542 4.89812083,3.49144815 5.43192065,4.02524797 C5.96576375,4.55904779 6.26151127,4.8360541 6.31920649,4.85626691 C6.376945,4.87933634 6.4490532,4.94568801 6.53561767,5.05536519 C6.62218215,5.16214247 6.91074482,5.41750766 7.4012624,5.82146078 C7.89182326,6.22541389 8.53382867,6.69433363 9.32732191,7.22813345 C10.1208584,7.76193327 11.0009161,8.28854824 11.9675383,8.80793508 C12.9342038,9.32732191 13.9729775,9.79619838 15.0838593,10.2146078 C16.1947845,10.6330171 16.9738647,10.9071235 17.4211001,11.0369702 C17.8683787,11.166817 18.6330027,11.3327178 19.7150586,11.534716 C20.7971145,11.7367142 21.6122922,11.8665609 22.160505,11.9242561 C22.708761,11.9819513 23.0838882,12.0151488 23.2858431,12.0238052 L23.5888188,12.0324617 L23.5802056,11.9675383 L23.5671776,11.902615 L23.4806132,11.361587 C23.4229179,11.0009161 23.3940487,10.4959423 23.3940487,9.84670875 C23.3940487,9.1974752 23.4445591,8.59875203 23.5455365,8.05049594 C23.6465573,7.50223986 23.7980451,6.94679892 24,6.38412985 C24.2019982,5.82146078 24.3996682,5.36985392 24.5929666,5.02939585 C24.7892083,4.69179441 25.0460018,4.30658251 25.3633904,3.87376014 C25.6808224,3.44093778 26.0920036,2.99370243 26.5969342,2.53201082 C27.101908,2.07031921 27.6789901,1.65913796 28.3282236,1.29846709 C28.9774572,0.937796213 29.5762236,0.663646528 30.1244364,0.476104599 C30.6726925,0.288562669 31.1343841,0.165900812 31.509468,0.108205591 C31.8845951,0.0505103697 32.0721371,0.0173128945 32.0721371,0.00865644725 Z" id="Shape"></path>
        </g>
    </g>
</svg>