<?xml version="1.0" encoding="UTF-8"?>
<svg width="48px" height="48px" viewBox="0 0 48 48" version="1.1" xmlns="http://www.w3.org/2000/svg" xmlns:xlink="http://www.w3.org/1999/xlink">
    <!-- Generator: Sketch 49.2 (51160) - http://www.bohemiancoding.com/sketch -->
    <title>integrations/typeform</title>
    <desc>Created with Sketch.</desc>
    <defs></defs>
    <g id="integrations/typeform" stroke="none" stroke-width="1" fill="none" fill-rule="evenodd">
        <g id="typeform" transform="translate(9.000000, 0.000000)" fill-rule="nonzero">
            <polygon id="Shape" fill="#89C6BE" points="25.4679509 0.153670762 30.1536708 0.153670762 30.1536708 47.9208649 25.4679509 47.9208649"></polygon>
            <path d="M0.0481179361,11.0329238 L5.92015725,11.0329238 L5.92015725,0.101189189 L13.7022899,0.101189189 L13.7022899,11.0329238 L20.734113,11.0329238 L20.734113,17.0278526 L13.7022899,17.0278526 L13.7022899,36.4942703 C13.7022899,37.3398722 13.7364914,38.0697789 13.8048943,38.6803342 C13.8724717,39.2924226 14.0319214,39.8089828 14.2821818,40.2324914 C14.5325602,40.6552924 14.9072432,40.9726585 15.4094152,41.1843538 C15.9094644,41.3961671 16.5919607,41.501602 17.457258,41.501602 C18.0030663,41.501602 18.5495823,41.4907518 19.0953907,41.4659853 C19.6417887,41.4434595 20.1875971,41.3604324 20.734113,41.2200885 L20.734113,47.4267125 C19.8689337,47.5198821 19.0268698,47.6137592 18.2082752,47.7090516 C17.369585,47.8031416 16.5262708,47.8500362 15.6823194,47.8495135 C13.633769,47.8495135 11.9840786,47.6486683 10.7325405,47.2506339 C9.48005897,46.8510663 8.50272236,46.2623292 7.79758231,45.4866634 C7.09090909,44.7108796 6.61350369,43.7349582 6.36324324,42.5590172 C6.11215725,41.385199 5.96450123,40.0447371 5.92003931,38.5397543 L5.92003931,17.0279705 L0.0481179361,17.0279705 L0.0481179361,11.0329238" id="Shape" fill="#33393F"></path>
        </g>
    </g>
</svg>