<?xml version="1.0" encoding="UTF-8"?>
<svg width="48px" height="48px" viewBox="0 0 48 48" version="1.1" xmlns="http://www.w3.org/2000/svg" xmlns:xlink="http://www.w3.org/1999/xlink">
    <!-- Generator: Sketch 49.2 (51160) - http://www.bohemiancoding.com/sketch -->
    <title>integrations/uservoice</title>
    <desc>Created with Sketch.</desc>
    <defs></defs>
    <g id="integrations/uservoice" stroke="none" stroke-width="1" fill="none" fill-rule="evenodd">
        <g id="uservoice" fill-rule="nonzero">
            <path d="M5.854875,23.9686875 L5.7999375,24.03675 C5.8018125,24.0339375 5.817375,24.03 5.8449375,24.0170625 C5.84900431,24.0011017 5.85232045,23.984959 5.854875,23.9686875 M5.534625,25.88775 C5.534625,25.88775 5.5318125,25.8879375 5.5321875,25.8886875 C5.5303125,25.9486875 5.5321875,26.0113125 5.530875,26.0750625 C5.551125,26.066625 5.5695,26.0625 5.587875,26.0566875 L5.534625,25.8879375 M22.4176875,38.656875 C22.4158125,38.6630625 22.4145,38.6709375 22.4145,38.6709375 L22.4295,38.6398125 C22.426875,38.6435625 22.4206875,38.64975 22.4176875,38.656875 M22.584375,38.7195 L22.571625,38.74575 L22.5811875,38.73 L22.584375,38.7195 M22.96425,37.9925625 L22.953,38.0113125 C22.9573373,38.0054342 22.9611044,37.9991558 22.96425,37.9925625 M23.1050625,38.1028125 L23.102625,38.105625 L23.103375,38.1054375 C23.103375,38.1054375 23.1043125,38.1045 23.10525,38.1028125" id="Shape" fill="#0097E8"></path>
            <path d="M23.1050625,38.1028125 L23.1043125,38.1045 L23.10675,38.1035625 L23.1050625,38.1028125 M35.139375,33.1845 C35.139375,33.1845 35.139,33.1873125 35.140125,33.1869375 C35.146875,33.1888125 35.1485625,33.189375 35.15475,33.1914375 L35.139375,33.1845" id="Shape" fill="#0097E8"></path>
            <path d="M32.312625,1.4795625 L32.2974375,1.4806875 L32.2678125,1.4863125 L32.1144375,1.513125 L31.9880625,1.5778125 C31.586625,1.7806875 28.0089375,3.742875 26.26425,9.9915 C24.972375,14.6165625 10.06425,21.3781875 4.9501875,23.3795625 L4.4353125,23.575875 L4.338,24.142125 C4.308,24.314625 4.2316875,24.8525625 4.1964375,25.6085625 C3.0688125,26.1031875 2.2730625,26.9004375 1.887375,27.9466875 C1.837125,28.083375 1.792875,28.2260625 1.7565,28.3719375 C1.3711875,29.9143125 1.80525,31.875375 2.9595,33.7194375 C4.28775,35.844 6.4700625,35.77125 7.809,35.3326875 C8.169,35.6385 8.5485,35.9289375 8.9563125,36.1775625 L8.967,36.1846875 L9.336375,36.39675 L9.6969375,36.2925 C9.6969375,36.2925 12.9219375,35.3405625 13.029375,35.31 C13.201875,35.2785 14.1255,35.1538125 14.829375,35.6506875 C15.351375,36.020625 15.674625,36.6928125 15.7895625,37.6479375 C16.218375,41.209875 15.9856875,42.433875 15.9811875,42.462 L15.9703125,42.505875 L15.965625,42.5476875 C15.9380625,42.7505625 15.7275,44.5783125 16.808625,45.7933125 C17.218125,46.2545625 17.9776875,46.8001875 19.2714375,46.7765625 L19.302375,46.7754375 L23.60925,46.38525 L23.6435625,46.3815 C23.6435625,46.3815 24.2379375,46.0876875 24.2394375,46.086375 C24.3369375,45.984 24.798,45.4764375 25.0910625,44.727 L25.0404375,44.869125 C25.1236875,44.7286875 25.556625,43.9760625 25.8088125,42.9654375 C26.0205,42.11175 26.1045,41.0716875 25.74,40.0644375 C25.405875,39.1438125 24.7591875,38.421 23.81925,37.9033125 C23.8591875,37.7859375 23.9038125,37.6704375 23.9334375,37.548375 C24.1921875,36.511125 24.1029375,35.3971875 23.26875,34.61475 L22.9888125,34.354125 C21.887625,33.336 21.5251875,32.8614375 21.6200625,32.4765 C21.6234375,32.4583125 21.6380625,32.443125 21.643125,32.42625 C21.78375,32.3540625 21.936,32.28375 22.1053125,32.2215 L22.247625,32.1676875 C22.247625,32.1676875 22.2691875,32.151375 22.287,32.137125 C22.706625,31.959375 26.112,30.745875 34.2058125,34.2819375 C34.962375,34.8886875 38.745,37.72425 42.192375,36.8540625 C44.00775,36.3965625 45.3763125,35.0368125 46.256625,32.81325 C46.3920313,32.4652453 46.5048898,32.1088831 46.5945,31.746375 C47.3098125,28.875375 47.0480625,24.5480625 45.83625,19.61175 C44.4980625,14.1585 42.19875,8.9535 39.68925,5.6870625 C37.349625,2.6439375 34.8005625,1.188375 32.312625,1.4795625" id="Shape"></path>
            <path d="M30.7755,27.73875 C30.6883125,27.5724375 30.60825,27.40125 30.5251875,27.2315625 C30.1071853,26.339565 29.7225438,25.4323114 29.3720625,24.5116875 C28.2560625,21.4861875 27.639,18.5701875 27.4404375,17.5363125 C27.15225,15.8900625 26.9630625,14.141625 26.923875,12.3088125 C26.923875,12.3088125 25.38825,22.8585 33.02475,31.684875 C33.02475,31.684875 31.973625,30.2229375 30.7441875,27.6894375 C30.7640625,27.7213125 30.7755,27.73875 30.7755,27.73875 M34.2375,3.4430625 C34.2375,3.4430625 28.1745,2.15025 31.553625,18.7741875 C31.553625,18.7741875 35.92725,37.665 43.827,32.844 C43.827,32.844 38.2164375,37.317 33.3073125,25.3591875 C28.3981875,13.3989375 29.4999375,2.4106875 34.2375,3.4430625" id="Shape" fill="#F8941E"></path>
            <path d="M39.3849375,16.01775 L38.973375,16.006125 L31.1368125,16.894875 L31.158,17.077125 L38.8734375,16.204125 C38.9475,16.112625 39.0339375,16.053375 39.1340625,16.0231875 C39.2143125,15.9995625 39.301125,16.1645625 39.390375,16.18425 L39.38475,16.01775" id="Shape" fill="#F8941E"></path>
            <path d="M34.1769375,26.4796875 L40.541625,21.8803125 C39.9849375,21.6763125 39.32325,20.6484375 38.9210625,19.27875 C38.5599375,18.048 38.515125,16.859625 38.8074375,16.3215 C38.8340625,16.27425 38.8629375,16.2315 38.8933125,16.196625 L31.4638125,17.02725 L31.2238125,17.02725 C31.7371875,19.9659375 32.6450625,23.21025 34.1510625,26.4898125 L34.1769375,26.4796875" id="Shape" fill="#F8941E"></path>
            <path d="M38.964,16.408125 C38.6915625,16.905 38.7410625,18.040125 39.0924375,19.2305625 C39.53625,20.739375 40.2376875,21.6819375 40.6929375,21.7396875 C40.7348768,21.7428524 40.7770517,21.7391795 40.8178125,21.7288125 C40.9078125,21.7025625 40.9861875,21.63 41.0503125,21.5150625 C41.32125,21.0165 41.2700625,19.882125 40.9190625,18.6928125 C40.5714375,17.503125 40.00125,16.5215625 39.5045625,16.248375 C39.4055625,16.1945625 39.3151875,16.1713125 39.23325,16.183125 C39.220875,16.1866875 39.2071875,16.18875 39.19425,16.1925 C39.1055625,16.2195 39.0271875,16.29075 38.964,16.408125" id="Shape" fill="#F8941E"></path>
            <path d="M39.4974375,16.1923125 C39.4974375,16.1923125 39.1640625,16.1461875 38.5783125,16.2219375 L38.7129375,16.033125 C38.7129375,16.033125 39.2218125,15.89475 39.587625,16.0944375 L39.4974375,16.1923125 M39.69975,21.2375625 L40.6280625,22.0325625 L40.9486875,21.869625 C40.9486875,21.869625 40.0036875,21.3939375 39.69975,21.23775" id="Shape" fill="#F8941E"></path>
            <path d="M38.8074375,16.3215 C38.515125,16.859625 38.5599375,18.048 38.9210625,19.27875 C39.32325,20.648625 39.9849375,21.6763125 40.541625,21.8803125 L40.6925625,21.770625 L40.6929375,21.7396875 C40.2376875,21.6819375 39.53625,20.739375 39.0924375,19.2305625 C38.7410625,18.0399375 38.6915625,16.905 38.964,16.4079375 C39.0271875,16.29075 39.1055625,16.2195 39.19425,16.1923125 C39.207375,16.1885625 39.220875,16.1866875 39.23325,16.1829375 L39.2300625,16.157625 L38.8933125,16.196625 C38.8606414,16.2353177 38.8318765,16.2771462 38.8074375,16.3215" id="Shape" fill="#F8941E"></path>
            <path d="M34.19325,26.6694375 L40.797,21.9151875 L40.79475,21.9133125 C40.713375,21.9241875 40.62675,21.9118125 40.5391875,21.8791875 L34.08975,26.521125 L34.19325,26.6694375 M38.5696875,16.44225 L31.2834375,17.201625 L31.6535625,19.2405 L38.155125,18.6015 C38.155125,18.6015 39.015375,20.6986875 39.696,21.49575 C39.696,21.49575 38.2455,18.999 38.5696875,16.44225" id="Shape" fill="#F8941E"></path>
            <path d="M42.9375,14.6338125 C42.9654375,14.71125 42.994875,14.7890625 43.02375,14.8663125 C43.1019375,15.0838125 43.179,15.3020625 43.2549375,15.5205 C43.2838125,15.6045 43.3138125,15.689625 43.342875,15.773625 C43.4161875,15.988875 43.48725,16.2054375 43.558875,16.42275 C43.587,16.5105 43.615875,16.598625 43.6434375,16.6865625 C43.71225,16.8999375 43.7775,17.113125 43.8435,17.326875 L43.928625,17.609625 C43.9905,17.81925 44.0510625,18.0286875 44.110125,18.23925 C44.1369375,18.337125 44.1650625,18.435 44.1924375,18.53175 C44.2486875,18.7393125 44.303625,18.9459375 44.3585625,19.153125 C44.3848125,19.254375 44.4105,19.35525 44.4354375,19.4570625 C44.4875625,19.6599375 44.5378125,19.863375 44.5865625,20.0664375 C44.6116875,20.1710625 44.635875,20.275125 44.6604375,20.37975 C44.706375,20.5785 44.7504375,20.77725 44.79375,20.9769375 C44.8175625,21.08325 44.8396875,21.189375 44.862375,21.29475 C44.90325,21.4905 44.943,21.6853125 44.9814375,21.87975 C45.0024375,21.9885 45.0226875,22.09725 45.0425625,22.206 C45.0785862,22.3949357 45.1129001,22.5841935 45.1455,22.77375 C45.1644375,22.884375 45.1820625,22.9948125 45.2011875,23.1039375 C45.231,23.2891875 45.26025,23.4733125 45.288,23.6566875 C45.3045,23.7680625 45.3193125,23.878125 45.334875,23.9885625 C45.361125,24.1696875 45.3853125,24.3485625 45.4078125,24.526875 C45.4215,24.636 45.4329375,24.744375 45.4453125,24.853125 C45.4665,25.0299375 45.485625,25.206 45.5025,25.38 C45.513,25.4874375 45.5221875,25.5931875 45.5319375,25.7008125 C45.546375,25.8710625 45.5611875,26.043 45.5731875,26.2119375 C45.580875,26.3176875 45.5851875,26.421 45.59175,26.5250625 C45.6015,26.6919375 45.61125,26.859 45.618375,27.0219375 C45.622125,27.12375 45.623625,27.2233125 45.6264375,27.3245625 C45.6313125,27.487125 45.6361875,27.647625 45.63675,27.8055 C45.638625,27.9035625 45.636,27.997125 45.635625,28.0933125 C45.6339375,28.250625 45.6335625,28.4094375 45.62925,28.5635625 C45.625875,28.652625 45.6204375,28.7375625 45.6170625,28.8245625 C45.610125,28.9809375 45.6039375,29.1384375 45.5930625,29.2891875 C45.5870625,29.367 45.578625,29.4414375 45.5724375,29.5185 C45.5593125,29.6735625 45.5461875,29.8299375 45.52875,29.9810625 C45.52125,30.0421875 45.5113125,30.1003125 45.50325,30.160125 C45.483,30.3211875 45.462,30.4816875 45.43575,30.636375 C45.430125,30.66825 45.4231875,30.6973125 45.418125,30.72825 C45.34875,31.1120625 45.2645625,31.4754375 45.1629375,31.8129375 C45.127875,31.9366875 45.0825,32.0505 45.0410625,32.1676875 C45.0195,32.2254375 45.001125,32.289 44.9788125,32.3450625 C44.529375,33.4775625 43.9449375,34.3363125 43.23675,34.9269375 C43.20525,34.9539375 43.17525,34.9854375 43.143,35.01225 C43.091625,35.051625 43.036125,35.082375 42.9845625,35.120625 C42.882,35.192625 42.7815,35.26875 42.6748125,35.330625 C42.6579375,35.34075 42.6388125,35.3473125 42.6208125,35.3581875 C42.475125,35.43975 42.327375,35.515125 42.17325,35.5775625 C42.00225,35.6488125 41.8245,35.70675 41.6416875,35.75325 C38.4076875,36.5685 34.5215625,33.337125 34.484625,33.3050625 L34.4758125,33.2971875 L34.4660625,33.292875 L34.461,33.289875 C34.250625,33.1974375 34.047375,33.113625 33.84375,33.027 C29.2569375,31.082625 26.1770625,30.649875 24.381375,30.640125 C23.383125,30.6376875 22.6695,30.756 22.193625,30.8810625 C21.7475625,30.996375 21.5056875,31.1191875 21.443625,31.15425 L21.438,31.156125 L21.438,31.157625 L21.43725,31.157625 C21.426,31.1623125 21.4149375,31.168125 21.4035,31.172625 C21.08475,31.2935625 20.7976875,31.429125 20.55,31.5845625 C20.4035593,31.6778331 20.264353,31.7820029 20.1335625,31.8961875 C19.6539375,32.3079375 19.3610625,32.804625 19.27425,33.3898125 C19.0501875,34.901625 20.231625,36.492375 20.9120625,37.0104375 C21.87075,37.7409375 21.68625,38.7759375 21.6564375,38.9191875 C21.6594375,38.911875 21.6654375,38.9056875 21.66825,38.902125 L21.652875,38.9345625 C21.652875,38.9345625 21.654375,38.9251875 21.6564375,38.919 C21.65175,38.925375 21.6433125,38.942625 21.6373125,38.95275 L21.6365625,38.9525625 C21.6350625,38.95575 21.633375,38.9589375 21.6309375,38.961375 L21.631875,38.9623125 C21.571875,39.0673125 21.458625,39.3204375 21.5128125,39.7070625 C21.5311875,39.839625 21.5769375,39.972375 21.628125,40.1053125 L21.627375,40.107 C21.6286875,40.11075 21.6309375,40.11525 21.63225,40.119 C21.6568125,40.1806875 21.68775,40.24275 21.720375,40.305375 C21.777,40.4206875 21.8420625,40.5365625 21.926625,40.6531875 L21.928125,40.654125 C22.1803125,41.006625 22.539375,41.36475 23.014125,41.726625 C23.606625,42.1730625 23.9285625,42.6965625 23.9754375,43.279875 C23.9814375,43.3445625 23.9679375,43.404375 23.966625,43.4675625 C23.9656875,43.46925 23.96475,43.47225 23.964,43.4739375 C23.9566875,43.7476875 23.90625,44.0109375 23.81775,44.244375 L23.8153125,44.24925 L23.8858125,44.28975 L23.809125,44.260875 C23.604,44.7811875 23.2809375,45.1665 23.1984375,45.2574375 L22.390875,45.331875 L18.952125,45.6436875 C18.243375,45.6549375 17.692125,45.442125 17.3113125,45.01725 C16.531875,44.142375 16.725,42.629625 16.726875,42.6133125 C16.75575,42.4779375 17.0034375,41.21475 16.5519375,37.446 C16.3974375,36.18225 15.927,35.2610625 15.1464375,34.709625 C14.4166875,34.191 13.587,34.1176875 13.0515,34.13775 C12.7303125,34.1505 12.5145,34.1968125 12.4895625,34.2013125 L9.612,35.0525625 L9.187875,35.1781875 C8.87670343,34.9865291 8.57889449,34.7739785 8.2965,34.542 C8.269875,34.520625 8.2464375,34.4979375 8.22,34.476375 C8.11670675,34.3896626 8.01542975,34.3005763 7.91625,34.2091875 C7.854,34.1514375 7.7956875,34.0910625 7.736625,34.032375 C5.4586875,31.7735625 4.98225,28.5830625 4.953375,26.4631875 C4.95215113,26.3403783 4.95208863,26.2175603 4.9531875,26.09475 C4.95375,26.0469375 4.9546875,26.0023125 4.955625,25.955625 C4.95675,25.883625 4.9584375,25.811625 4.960875,25.743375 L4.9663125,25.5909375 C4.9693125,25.532625 4.9719375,25.477125 4.9741875,25.4218125 C4.9768125,25.374 4.9801875,25.3243125 4.982625,25.278 C4.9850625,25.228125 4.9895625,25.181625 4.9925625,25.1349375 C5.0000625,25.0295625 5.0083125,24.9313125 5.0165625,24.8424375 C5.017875,24.8285625 5.0191875,24.8124375 5.0206875,24.7989375 C5.02712469,24.7337462 5.03418752,24.6686182 5.041875,24.6035625 C5.0465625,24.56175 5.050875,24.5229375 5.0555625,24.487125 L5.0596875,24.449625 C5.0694375,24.374625 5.0784375,24.31575 5.0835,24.2791875 C5.6000625,24.0755625 10.413,22.153875 15.3556875,19.5759375 C17.9835,18.2071875 20.1755625,16.908 21.92775,15.6834375 C24.849,13.6426875 26.546625,11.8085625 26.9941875,10.2020625 C28.62225,4.3725 31.9243125,2.5794375 32.1605625,2.4585 C32.16,2.4586875 32.15925,2.458875 32.1586875,2.4585 L32.1590625,2.4585 L32.161125,2.4583125 L32.1605625,2.4585 C32.4149625,2.4305896 32.6713217,2.4250684 32.9266875,2.442 C33.013875,2.447625 33.100875,2.468625 33.1876875,2.4795 C33.35775,2.5006875 33.528,2.520375 33.699375,2.560875 C33.8109375,2.587875 33.924375,2.630625 34.036875,2.6660625 C34.183125,2.7110625 34.32825,2.7530625 34.4746875,2.8123125 C34.601625,2.8640625 34.7289375,2.9311875 34.855875,2.99325 C34.9876875,3.057375 35.1193125,3.1190625 35.25075,3.1944375 C35.38725,3.2720625 35.523,3.3635625 35.6595,3.4535625 C35.782125,3.5345625 35.9053125,3.6135 36.0286875,3.704625 C36.1700625,3.8085 36.30975,3.9253125 36.4513125,4.041375 C36.5712884,4.13975965 36.6891283,4.24072063 36.80475,4.3441875 C36.9492559,4.47689712 37.0907909,4.61280575 37.22925,4.7518125 C37.347,4.8699375 37.4649375,4.9888125 37.5826875,5.1151875 C37.720125,5.2633125 37.8568125,5.41875 37.99275,5.5783125 C38.1665625,5.782125 38.3413125,5.985 38.512875,6.2079375 C38.5273125,6.226125 38.541375,6.2416875 38.55525,6.2600625 C39.1745625,7.065375 39.76875,7.9738125 40.3305,8.958375 C40.338,8.9701875 40.3455,8.982 40.351125,8.9941875 C40.4812562,9.22256515 40.608144,9.45277578 40.73175,9.68475 C40.745625,9.710625 40.760625,9.736875 40.77525,9.763125 C40.8936199,9.98822028 41.0102484,10.214227 41.125125,10.441125 C41.1451875,10.48125 41.166375,10.521 41.1864375,10.5616875 C41.2970664,10.7842132 41.4054469,11.0078496 41.5115625,11.2325625 C41.5351875,11.28375 41.5591875,11.3334375 41.583375,11.3844375 C41.6865,11.604375 41.7871875,11.827875 41.887125,12.0523125 C41.913375,12.111375 41.9401875,12.1689375 41.9668125,12.2285625 C42.0635625,12.45 42.158625,12.6729375 42.2525625,12.8979375 C42.2799375,12.9620625 42.3069375,13.026375 42.33375,13.0906875 C42.425625,13.3111875 42.5143125,13.5354375 42.6028125,13.759125 C42.6305625,13.8298125 42.658875,13.89975 42.686625,13.9708125 C42.7719375,14.19075 42.8548125,14.4114375 42.9373125,14.6338125 L42.9375,14.6338125 Z M22.3095,38.43375 C23.269875,38.7856875 23.93475,39.317625 24.3016875,40.0190625 C24.3354375,40.1109375 24.633375,41.0555625 23.8755,42.4100625 C23.703,42.1125 23.4545625,41.836875 23.1234375,41.5850625 C21.9665625,40.706625 21.6883125,40.0115625 21.6706875,39.5625 L22.3095,38.43375 Z M21.976875,35.058 L22.254375,35.3180625 C22.3269375,35.38575 22.385625,35.459625 22.438125,35.5348125 C22.510125,35.7579375 22.563375,36.391125 21.595125,37.52625 C21.4681875,37.29825 21.28575,37.071375 21.0195,36.8694375 C20.3863125,36.3885 19.239,34.8350625 19.450125,33.4183125 C19.53675,32.8250625 19.842375,32.3293125 20.365875,31.926375 C19.859625,33.100125 20.9776875,34.1349375 21.976875,35.058 Z M3.567375,33.08325 C2.480625,31.3400625 2.1114375,29.52975 2.5895625,28.240875 C2.924625,27.3365625 3.6583125,26.6956875 4.7694375,26.337 C4.7698125,26.9731875 4.8088125,27.708375 4.92675,28.4895 C5.1729375,30.140625 5.821125,32.2501875 7.4049375,33.940125 C7.456125,33.9931875 7.49925,34.0513125 7.5523125,34.1045625 C7.186125,34.2735 4.89675,35.2048125 3.567375,33.08325 Z M40.4188125,4.828125 C37.095375,0.504375 33.9361875,-0.1149375 31.875,0.126 L31.408125,0.2049375 L31.1143125,0.3545625 C30.3744375,0.7284375 26.584875,2.9334375 24.7318125,9.5715 C23.8115625,12.86475 12.2101875,18.9665625 4.1990625,22.1025 L2.9990625,22.56075 L2.7755625,23.8509375 C2.7624375,23.9278125 2.7118125,24.238125 2.6683125,24.7246875 C1.5868125,25.3708125 0.8049375,26.2933125 0.386625,27.4273125 C0.318926924,27.6102001 0.261770629,27.7968189 0.2154375,27.98625 C-0.258,29.880375 0.23775,32.19225 1.5748125,34.3288125 C3.011625,36.6275625 5.3135625,37.0605 7.214625,36.6695625 C7.4739375,36.867 7.719,37.036125 7.945875,37.1731875 L8.87925,37.7131875 L9.769875,37.454625 C9.769875,37.454625 12.50325,36.647625 13.0155,36.49725 C13.21125,36.4741875 13.5834375,36.480375 13.7934375,36.62925 C13.996875,36.7730625 14.1511875,37.17375 14.218875,37.7281875 C14.5850625,40.7645625 14.4448125,41.9895 14.425125,42.1400625 L14.397375,42.2986875 C14.3385,42.73125 14.118,44.9619375 15.5535,46.5748125 C16.3869375,47.5149375 17.6116875,48.0170625 19.0269375,47.99025 L23.4500625,47.5933125 L23.714625,47.5663125 L24.4651875,47.193375 L24.6795,47.1114375 L24.8784375,46.9018125 C25.0275,46.747125 25.494375,46.225125 25.8598125,45.4468125 L25.8601875,45.4479375 C26.0420625,45.1366875 26.4943125,44.297625 26.7673125,43.2028125 C27.0946875,41.88225 27.05925,40.65375 26.6593125,39.551625 C26.327625,38.6398125 25.7705625,37.872375 24.9969375,37.261875 C25.22475,35.797125 24.8281875,34.5110625 23.8543125,33.5975625 L23.5708125,33.334125 C23.4654375,33.2375625 23.372625,33.1483125 23.2875,33.0673125 C24.619125,32.88675 27.7081875,32.9266875 33.246375,35.32275 C34.544625,36.3350625 38.4148125,38.989875 42.214125,38.029875 C42.4648665,37.9674438 42.7115732,37.8898001 42.952875,37.797375 L42.953625,37.797 C44.8261875,37.0779375 46.243125,35.5348125 47.1635625,33.2115 C47.3192187,32.8114479 47.4491706,32.4018646 47.552625,31.98525 C48.323625,28.89 48.054375,24.36075 46.796625,19.2320625 C45.41775,13.6168125 43.0335,8.232 40.418625,4.828125 L40.4188125,4.828125 Z" id="Shape" fill="#F8941E"></path>
        </g>
    </g>
</svg>