<?xml version="1.0" encoding="UTF-8"?>
<svg width="48px" height="48px" viewBox="0 0 48 48" version="1.1" xmlns="http://www.w3.org/2000/svg" xmlns:xlink="http://www.w3.org/1999/xlink">
    <!-- Generator: Sketch 49.2 (51160) - http://www.bohemiancoding.com/sketch -->
    <title>integrations/wordpress</title>
    <desc>Created with Sketch.</desc>
    <defs></defs>
    <g id="integrations/wordpress" stroke="none" stroke-width="1" fill="none" fill-rule="evenodd">
        <g id="wordpress" fill="#00749A" fill-rule="nonzero">
            <path d="M3.3982439,23.9063415 C3.3982439,32.0245854 8.11590244,39.0396098 14.956878,42.3644878 L5.17385366,15.5598049 C4.00109044,18.1859892 3.39602494,21.030196 3.3982439,23.9063415 Z M37.7521951,22.8714146 C37.7521951,20.3367805 36.8417561,18.5814634 36.060878,17.2152195 C35.0212683,15.5258537 34.0472195,14.0952195 34.0472195,12.4058537 C34.0472195,10.5205854 35.4766829,8.76565854 37.4907317,8.76565854 C37.5816585,8.76565854 37.6679024,8.77697561 37.756878,8.78204878 C34.1077073,5.43921951 29.246439,3.3982439 23.907122,3.3982439 C16.7422439,3.3982439 10.4386341,7.07434146 6.7715122,12.6423415 C7.25268293,12.6567805 7.70653659,12.6665366 8.09131707,12.6665366 C10.2364878,12.6665366 13.5570732,12.4062439 13.5570732,12.4062439 C14.6626341,12.3410732 14.7929756,13.964878 13.6889756,14.0956098 C13.6889756,14.0956098 12.577561,14.2263415 11.3412683,14.291122 L18.8097561,36.5057561 L23.2983415,23.0450732 L20.1026341,14.2907317 C18.9982439,14.2259512 17.952,14.0952195 17.952,14.0952195 C16.8468293,14.030439 16.9763902,12.3406829 18.081561,12.4058537 C18.081561,12.4058537 21.4684878,12.6661463 23.4837073,12.6661463 C25.6284878,12.6661463 28.9494634,12.4058537 28.9494634,12.4058537 C30.0558049,12.3406829 30.1857561,13.9644878 29.0809756,14.0952195 C29.0809756,14.0952195 27.9676098,14.2259512 26.7336585,14.2907317 L34.1451707,36.3371707 L36.190439,29.5012683 C37.0774634,26.6645854 37.7521951,24.627122 37.7521951,22.8714146 Z" id="Shape"></path>
            <path d="M24.2669268,25.7002927 L18.113561,43.5804878 C19.9948026,44.1349022 21.9458863,44.416407 23.907122,44.4163902 C26.2954146,44.4163902 28.5857561,44.003122 30.7176585,43.2538537 C30.6604712,43.1643358 30.6116161,43.0697607 30.5717073,42.9713171 L24.2669268,25.7002927 Z M41.9028293,14.0667317 C41.9910244,14.72 42.0409756,15.4216585 42.0409756,16.1756098 C42.0409756,18.2567805 41.6522927,20.5962927 40.481561,23.521561 L34.2169756,41.6339512 C40.3141463,38.078439 44.4152195,31.4727805 44.4152195,23.9063415 C44.420689,20.467113 43.5564402,17.08234 41.9028293,14.0667317 Z" id="Shape"></path>
            <path d="M23.907122,0 C10.7250732,0 0,10.7242927 0,23.9063415 C0,37.0899512 10.7246829,47.8142439 23.907122,47.8142439 C37.0887805,47.8142439 47.8154146,37.0903415 47.8154146,23.9063415 C47.8150244,10.7242927 37.0887805,0 23.907122,0 Z M23.907122,46.7180488 C11.329561,46.7180488 1.09619512,36.4846829 1.09619512,23.9063415 C1.09619512,11.3291707 11.3291707,1.09658537 23.907122,1.09658537 C36.4842927,1.09658537 46.716878,11.3291707 46.716878,23.9063415 C46.716878,36.4846829 36.4839024,46.7180488 23.907122,46.7180488 Z" id="Shape"></path>
        </g>
    </g>
</svg>