<?xml version="1.0" encoding="UTF-8"?>
<svg width="48px" height="48px" viewBox="0 0 48 48" version="1.1" xmlns="http://www.w3.org/2000/svg" xmlns:xlink="http://www.w3.org/1999/xlink">
    <!-- Generator: Sketch 49.2 (51160) - http://www.bohemiancoding.com/sketch -->
    <title>integrations/wufoo</title>
    <desc>Created with Sketch.</desc>
    <defs></defs>
    <g id="integrations/wufoo" stroke="none" stroke-width="1" fill="none" fill-rule="evenodd">
        <g id="wufoo" fill-rule="nonzero">
            <path d="M0.01125,24.7419375 C0.4033125,37.653375 10.9935,48 24,48 C37.25475,48 48,37.25475 48,24 C48,10.74525 37.25475,0 24,0 C10.9935,0 0.4033125,10.346625 0.01125,23.2580625 L0.01125,24.7419375 Z" id="Shape" fill="#D46A59"></path>
            <path d="M42.5975625,24 C42.5975625,34.2710625 34.2710625,42.5975625 24,42.5975625 C13.72875,42.5975625 5.4024375,34.2710625 5.4024375,24 C5.4024375,13.7289375 13.72875,5.4024375 24,5.4024375 C34.2710625,5.4024375 42.5975625,13.7289375 42.5975625,24 Z" id="Shape" fill="#D04F41"></path>
            <polygon id="Shape" fill="#FFFFFF" points="16.075875 38.8021875 4.565625 15.976125 12.4063125 13.4900625 18.5019375 27.1395 19.3385625 12.4861875 26.151375 11.17125 32.43825 24.581625 33.0031875 9.84975 40.015875 8.470125 38.0079375 34.549875 30.6691875 36.0080625 24.3346875 22.8845625 23.45025 37.44225"></polygon>
        </g>
    </g>
</svg>