<?xml version="1.0" encoding="UTF-8"?>
<svg width="48px" height="48px" viewBox="0 0 48 48" version="1.1" xmlns="http://www.w3.org/2000/svg" xmlns:xlink="http://www.w3.org/1999/xlink">
    <!-- Generator: Sketch 49.2 (51160) - http://www.bohemiancoding.com/sketch -->
    <title>integrations/youtube</title>
    <desc>Created with Sketch.</desc>
    <defs></defs>
    <g id="integrations/youtube" stroke="none" stroke-width="1" fill="none" fill-rule="evenodd">
        <g id="youtube" transform="translate(0.000000, 7.000000)" fill-rule="nonzero">
            <path d="M31.6555636,16.416 C27.3425455,14.1111273 23.2128,11.9921455 18.9914182,9.77978182 L18.9914182,23.0146909 C23.4336,20.5998545 28.1157818,18.3883636 31.6738909,16.416 L31.6555636,16.416 Z" id="Shape" fill="#FFFFFF"></path>
            <polygon id="Shape" fill="#E8E0E0" points="32 16.5 19 10 30 17.5"></polygon>
            <path d="M5.69668507,32.9544275 C4.39827796,32.6917182 3.26996396,32.1084146 2.44265243,31.2624018 C1.80324481,30.6221036 1.29474655,29.6451814 0.90023739,28.2897797 C0.561832243,27.1605752 0.430032344,26.2210556 0.242128434,23.9261344 C-0.0455159405,18.7467546 -0.11408751,14.5122375 0.242128434,9.78079927 C0.536006587,7.16795533 0.678492965,4.066205 2.63055634,2.256628 C3.55226509,1.4097246 4.62447508,0.864714203 5.82848497,0.639407619 C7.70930515,0.282301135 15.7223828,0 24.0177616,0 C32.294439,0 40.3253275,0.282301135 42.2079288,0.639407619 C43.7120506,0.921708754 45.1226657,1.76772162 45.9508678,2.85863295 C47.7319475,5.66027134 47.7631164,9.14406327 47.943896,11.8691152 C48.0187013,13.1675224 48.0187013,20.5403019 47.943896,21.838709 C47.6624854,26.1453597 47.4362883,27.6690734 46.7968807,29.2488911 C46.401481,30.2462958 46.0639663,30.7726048 45.4797722,31.3559084 C44.5635521,32.2535353 43.3955165,32.8506003 42.1313423,33.067526 C34.2206768,33.6624067 27.5033346,33.791535 19.8794229,33.669531 C10.7380312,33.501219 7.61579847,33.3498272 5.69668507,32.9544275 Z M32.0121379,16.5 L19,10 L19,23 L32.0121379,16.5 Z" id="Shape" fill="#FF0000"></path>
        </g>
    </g>
</svg>