<?xml version="1.0" encoding="UTF-8"?>
<svg width="48px" height="48px" viewBox="0 0 48 48" version="1.1" xmlns="http://www.w3.org/2000/svg" xmlns:xlink="http://www.w3.org/1999/xlink">
    <!-- Generator: Sketch 49.2 (51160) - http://www.bohemiancoding.com/sketch -->
    <title>integrations/zendesk</title>
    <desc>Created with Sketch.</desc>
    <defs></defs>
    <g id="integrations/zendesk" stroke="none" stroke-width="1" fill="none" fill-rule="evenodd">
        <g id="zendesk" fill="#719C40" fill-rule="nonzero">
            <path d="M42.3470625,28.5292648 C40.2465,29.7226245 37.9603125,30.290087 35.7114375,30.290087 C34.2455625,30.290087 32.7946875,30.0440158 31.569375,29.550166 C29.329125,31.5946245 26.9184375,33.0266561 25.7049375,33.6918261 C27.4629375,36.5137708 30.2578125,38.6828775 33.7115625,39.5535178 C34.7557256,39.8172498 35.8279232,39.9503548 36.904125,39.9498498 C39.265875,39.9498498 41.5385625,39.2953043 43.4701875,38.2430988 C43.7560733,37.1242339 43.9001049,35.9731091 43.8988125,34.8174545 C43.8988125,32.6830672 43.3944375,30.525913 42.3470625,28.5292648 M39.6099375,11.7002372 C39.2124375,14.3844427 38.0641875,16.7711621 36.4561875,18.5469723 C36.5405625,19.0182451 36.5985,19.5346719 36.5985,20.075004 C36.591,23.2139763 34.9903125,25.9444743 32.9904375,28.1420395 C33.56325,28.2141344 34.1401875,28.2545455 34.7128125,28.2545455 C37.5643125,28.2545455 40.43775,27.3300237 42.86925,25.4130593 C45.677625,23.1838103 47.367375,20.0389565 47.8554375,16.8326324 C45.9639375,14.3153834 43.1851875,12.5094071 40.0891875,11.7214862 C39.928875,11.6867668 39.7820625,11.6222609 39.6189375,11.5938024 L39.6099375,11.7004269 M37.498875,9.40515415 C37.498875,5.79054545 36.092625,2.51497233 33.891,0.143241107 L33.69975,0.143241107 C30.5398125,0.143241107 27.7715625,1.27968379 25.2613125,3.57780237 C27.6601875,6.15822925 28.522125,9.4307668 28.522125,12.7015968 C28.522125,12.9658814 28.5133125,13.2271304 28.5058125,13.4806008 C29.0369299,13.3450774 29.5825677,13.27651 30.1303125,13.2764585 L30.2728125,13.2764585 C32.33625,13.3185771 34.4161875,14.3559842 35.6090625,16.3101344 C36.80475,14.2897708 37.4990625,11.9332174 37.4990625,9.40515415 M13.6588125,0.381913043 C13.461375,0.381913043 13.273125,0.381913043 13.2031875,0.343019763 C11.0450625,2.74150198 9.748125,5.91064032 9.748125,9.3632253 C9.748125,9.41255336 9.748125,9.45467194 9.7305,9.48180237 C9.8803125,9.48180237 10.031625,9.47724901 10.1859375,9.47724901 C13.8219375,9.47724901 17.1495,10.9422925 19.50675,13.3005534 C21.4858125,13.4417075 23.5108125,14.5045375 24.5775,16.613502 C25.150125,15.4800949 26.00025,14.6515731 26.897625,14.2283004 C26.897625,14.0780395 26.903625,13.9205692 26.903625,13.7659447 C26.903625,10.0701344 25.392,6.38343083 22.451625,3.74893281 C19.92375,1.4823083 16.784625,0.381913043 13.6588125,0.381913043 M17.36625,13.4897075 C15.3796875,12.3172174 13.098,11.6598261 10.702125,11.6598261 C9.9335625,11.6598261 9.150375,11.7273676 8.376,11.8700395 C4.8555,12.5094071 1.9123125,14.4908775 0,17.096917 C0.519375,20.3212648 2.203125,23.3564585 4.92225,25.5016601 C6.9088125,22.8056917 9.691875,21.0642213 12.5685,20.5058656 C12.5685,20.3692648 12.5625,20.2161581 12.5625,20.0721581 C12.5565,16.4199842 14.7995625,14.1577233 17.36625,13.4897075 M5.7174375,28.5609486 C4.6655625,30.5632885 4.1641875,32.7054545 4.1641875,34.8235257 C4.1641875,36.090498 4.3408125,37.3407747 4.6138125,38.45483 C6.56291462,39.5350501 8.74981038,40.1003452 10.972125,40.0984032 C12.0358125,40.0984032 13.1143125,39.9693913 14.2018125,39.7005534 C13.8680625,38.4832885 13.70625,37.2688696 13.70625,36.0635573 C13.70625,33.1962688 14.6053125,30.4447115 16.1985,28.1661344 C14.6630625,26.4893597 13.3605,24.5048538 12.825,22.2606166 C9.8728125,23.367083 7.3018125,25.5301186 5.7174375,28.5607589 M24.0909375,47.9311304 C27.0624375,46.6311462 29.5725,44.2444269 30.9654375,41.0470198 C27.5773125,39.6271304 25.074375,36.9611383 23.807625,33.8838261 C22.724625,33.3178814 19.9295625,31.7342609 17.382375,29.3638577 C16.4138676,31.2647285 15.9083271,33.3722739 15.907875,35.5108933 C15.907875,37.3318577 16.26525,39.1841265 17.0604375,40.9555731 C18.5203125,44.2654862 21.14025,46.6719368 24.0909375,47.9311304" id="Shape"></path>
        </g>
    </g>
</svg>