<?xml version="1.0" encoding="UTF-8"?>
<svg width="48px" height="48px" viewBox="0 0 48 48" version="1.1" xmlns="http://www.w3.org/2000/svg" xmlns:xlink="http://www.w3.org/1999/xlink">
    <!-- Generator: Sketch 49.2 (51160) - http://www.bohemiancoding.com/sketch -->
    <title>solution/qda</title>
    <desc>Created with Sketch.</desc>
    <defs>
        <linearGradient x1="50%" y1="100%" x2="50%" y2="-2.48949813e-15%" id="linearGradient-1">
            <stop stop-color="#009688" offset="0%"></stop>
            <stop stop-color="#33ABA0" offset="100%"></stop>
        </linearGradient>
    </defs>
    <g id="solution/qda" stroke="none" stroke-width="1" fill="none" fill-rule="evenodd">
        <circle id="Oval" fill="url(#linearGradient-1)" cx="24" cy="24" r="24"></circle>
        <g id="Group" transform="translate(24.500000, 23.000000) scale(1, -1) rotate(-345.000000) translate(-24.500000, -23.000000) translate(10.000000, 8.000000)">
            <path d="M7.51175,10.661626 L10.60425,13.6786992 C9.44091667,15.2738211 8.74925,17.2185366 8.74925,19.3250407 C8.74925,24.7136585 13.22675,29.0811382 18.74925,29.0811382 C24.2725833,29.0811382 28.74925,24.7136585 28.74925,19.3250407 C28.74925,13.9372358 24.2725833,9.56894309 18.74925,9.56894309 C16.5909167,9.56894309 14.5959167,10.2437398 12.96175,11.3795122 L9.86841667,8.36243902 L7.51175,10.661626 Z" id="path22" fill="#FFFFFF" fill-rule="nonzero"></path>
            <path d="M12.0828333,19.3252033 C12.0828333,15.7333333 15.067,12.8211382 18.7495,12.8211382 C22.432,12.8211382 25.4161667,15.7333333 25.4161667,19.3252033 C25.4161667,22.9170732 22.432,25.8292683 18.7495,25.8292683 C15.067,25.8292683 12.0828333,22.9170732 12.0828333,19.3252033" id="path26" fill="#99D5CF" fill-rule="nonzero"></path>
            <path d="M7.28841652,12.2305757 C7.87861447,12.8208108 8.83334646,12.8208108 9.42278969,12.2305757 L11.5579176,10.0960683 C12.1473608,9.50658799 12.1473608,8.55104117 11.5579176,7.96156086 L9.42278969,5.82705343 L5.5,1.55803857 C4.32111355,0.378323186 2.17964118,0.378323186 1,1.55803857 C-0.178886452,2.73548963 -0.178886452,4.82028461 1,6 L7.28841652,12.2305757 Z" id="path30" fill="#FFFFFF" fill-rule="nonzero"></path>
            <path d="M7.28841652,12.2305757 C7.87861447,12.8208108 8.83334646,12.8208108 9.42278969,12.2305757 L11.5579176,10.0960683 C12.1473608,9.50658799 12.1473608,8.55104117 11.5579176,7.96156086 L9.42278969,5.82705343 L5.5,1.55803857 C4.32111355,0.378323186 2.17964118,0.378323186 1,1.55803857 C-0.178886452,2.73548963 -0.178886452,4.82028461 1,6 L7.28841652,12.2305757 Z" id="path30" fill="#CCEAE7" fill-rule="nonzero"></path>
            <path d="M0,5 C1,4.16666667 2,3.66666667 3,3.5 C4,3.33333333 4.5,2.33333333 4.5,0.5 C5.83333333,2.16666667 5.83333333,3.66666667 4.5,5 C2.83333333,6.33333333 1.33333333,6.33333333 0,5 Z" id="Path-8" fill="#99D5CF" transform="translate(2.750000, 3.250000) scale(-1, -1) translate(-2.750000, -3.250000) "></path>
        </g>
    </g>
</svg>