<?xml version="1.0" encoding="UTF-8"?>
<svg width="48px" height="48px" viewBox="0 0 48 48" version="1.1" xmlns="http://www.w3.org/2000/svg" xmlns:xlink="http://www.w3.org/1999/xlink">
    <!-- Generator: Sketch 49.2 (51160) - http://www.bohemiancoding.com/sketch -->
    <title>solution/repository</title>
    <desc>Created with Sketch.</desc>
    <defs>
        <linearGradient x1="50%" y1="100%" x2="50%" y2="3.061617e-15%" id="linearGradient-1">
            <stop stop-color="#512DA8" offset="0%"></stop>
            <stop stop-color="#7457B9" offset="100%"></stop>
        </linearGradient>
    </defs>
    <g id="solution/repository" stroke="none" stroke-width="1" fill="none" fill-rule="evenodd">
        <circle id="Oval" fill="url(#linearGradient-1)" cx="24" cy="24" r="24"></circle>
        <g id="Group" transform="translate(24.000000, 24.000000) rotate(-345.000000) translate(-24.000000, -24.000000) translate(12.000000, 8.000000)">
            <path d="M18,7 C18,5.03940199 18,1.11538043e-14 15,3.19489297e-15 C12.969669,-3.04317265e-15 11,1.77635684e-15 9.5,1.77635678e-15 C7.26036364,1.42208317e-15 6,4.48903736 6,7 C6,12.8339523 3.1380491e-16,13.7608737 0,20.3804368 C0,27 6.18109091,31 12.0905455,31 C18,31 24,26.7608737 24,20.3804368 C24,14 18,12.8358973 18,7 Z" id="path22" fill="#FFFFFF" fill-rule="nonzero" transform="translate(12.000000, 15.500000) scale(1, -1) translate(-12.000000, -15.500000) "></path>
            <path d="M15,24.8357864 L12,20.8357864 L8,24.8357864 C7,25.8357864 6,23.8357864 7,22.8357864 L11,18.8357864 L11,11.8357864 C10.9055526,11.5024531 11.2152741,11.1691198 11.9291645,10.8357864 C12.6430548,10.5024531 13,10.5024531 13,10.8357864 L13,18.8357864 L17,23.8357864 C18,24.8357864 16,25.8357864 15,24.8357864 Z" id="path30" fill="#B9ABDC" fill-rule="nonzero" transform="translate(11.929164, 17.917893) scale(1, -1) translate(-11.929164, -17.917893) "></path>
            <path d="M6,23 C7,21 10,24 12,25 C13.3333333,25.6666667 15.3229769,25.5844639 17.9689308,24.7533916 C18.0151644,27.5017398 17.4806037,29.3704353 16.3652486,30.3594779 C14.692216,31.8430418 11,31 9,31 C6.64655172,30.1034483 6,26 6,23 Z" id="Path-7" fill="#B9ABDC"></path>
            <path d="M11.4062099,31.1706102 C13.4003698,30.4562728 14.9316331,29.6539512 16,28.7636455 C17.0683669,27.8733397 17.7246772,26.5365884 17.9689308,24.7533916 C18.2991036,26.5166469 17.9255305,28.3422058 16.8482115,30.2300683 C16.0548317,31.1328379 14.2408312,31.4463519 11.4062099,31.1706102 Z" id="Path-8" fill="#9781CB"></path>
        </g>
    </g>
</svg>