<?xml version="1.0" encoding="UTF-8"?>
<svg width="48px" height="48px" viewBox="0 0 48 48" version="1.1" xmlns="http://www.w3.org/2000/svg" xmlns:xlink="http://www.w3.org/1999/xlink">
    <!-- Generator: Sketch 49.2 (51160) - http://www.bohemiancoding.com/sketch -->
    <title>solution/research</title>
    <desc>Created with Sketch.</desc>
    <defs>
        <linearGradient x1="50%" y1="100%" x2="50%" y2="-2.48949813e-15%" id="linearGradient-1">
            <stop stop-color="#FFB300" offset="0%"></stop>
            <stop stop-color="#FFC233" offset="100%"></stop>
        </linearGradient>
    </defs>
    <g id="solution/research" stroke="none" stroke-width="1" fill="none" fill-rule="evenodd">
        <circle id="Oval" fill="url(#linearGradient-1)" cx="24" cy="24" r="24"></circle>
        <g id="Group" transform="translate(24.250000, 24.066987) rotate(-30.000000) translate(-24.250000, -24.066987) translate(2.750000, 9.066987)">
            <g transform="translate(0.366025, 3.366025)">
                <path d="M20.6544563,13.4826616 C20.5247023,18.7807271 18.4436062,23.7060122 12.0796201,22.3338348 C8.10295151,21.4760232 6.90152338,16.9796743 4.8089807,13.3552614 C4.13639005,12.1902032 5.93948276,11.194125 6.55907282,12.3446255 L8.51961128,15.7422651 C8.78482931,16.1999605 9.4834669,16.0056244 9.48420039,15.4830515 L9.4853239,4.4922345 C9.4853239,3.06601924 11.5018432,2.97651905 11.5018432,4.55491059 L11.5018432,10.0259137 C11.5015838,10.6916363 12.5126941,10.7135363 12.5363222,10.0441417 C12.5363222,7.97889863 12.5384382,5.91352582 12.5384382,3.84828232 C12.5384382,2.3912257 14.5548282,2.39161447 14.5548282,3.84828232 L14.5548282,11.4729489 C14.5548282,12.1190589 15.5316256,12.1840068 15.5888113,11.5031482 C15.589367,9.68174221 15.5904299,7.21363856 15.5904299,5.66426611 C15.5904299,4.2072101 17.6068266,4.20759974 17.6068266,5.66426611 L17.6068266,11.4129153 C17.6075676,11.4326417 17.6079433,11.4526528 17.6079433,11.4729489 L17.6079433,12.9422299 C17.6079433,13.5925066 18.5972516,13.654137 18.6429079,12.959341 C18.6434273,11.3847149 18.6446189,10.0803531 18.6446189,8.43989023 C18.6446189,6.98283422 20.6610156,6.98322385 20.6610156,8.43989023 L20.6610156,13.4826616 L20.6544563,13.4826616 Z" id="Combined-Shape" fill="#FFFFFF" fill-rule="nonzero" transform="translate(12.661016, 12.661016) scale(-1, 1) rotate(-45.000000) translate(-12.661016, -12.661016) "></path>
                <path d="M3.19263165,16.2092921 C5.13600732,16.1766001 6.74604966,16.7212583 8.02275866,17.8432667 C9.29946767,18.9652752 11.6535269,19.5545916 15.0849365,19.6112159 C14.0075862,20.143908 12.0418814,20.5486085 9.18782217,20.8253175 C6.3337629,21.1020266 4.33536606,19.5633514 3.19263165,16.2092921 Z" id="Path-8" fill="#FFF0CC"></path>
            </g>
            <g transform="translate(15.633975, 0.633975)" fill="#FFFFFF" fill-rule="nonzero" id="Combined-Shape">
                <path d="M21.3344566,14.1626619 C21.2047026,19.4607274 19.1236065,24.3860125 12.7596204,23.0138351 C8.78295181,22.1560235 7.58152369,17.6596746 5.48898101,14.0352617 C4.81639036,12.8702035 6.61948307,11.8741253 7.23907313,13.0246258 L9.19961159,16.4222654 C9.46482962,16.8799608 10.1634672,16.6856247 10.1642007,16.1630518 L10.1653242,5.17223481 C10.1653242,3.74601955 12.1818435,3.65651935 12.1818435,5.2349109 L12.1818435,10.705914 C12.1815841,11.3716366 13.1926944,11.3935366 13.2163225,10.724142 C13.2163225,8.65889894 13.2184385,6.59352612 13.2184385,4.52828263 C13.2184385,3.071226 15.2348285,3.07161478 15.2348285,4.52828263 L15.2348285,12.1529492 C15.2348285,12.7990592 16.2116259,12.8640071 16.2688117,12.1831485 C16.2693673,10.3617425 16.2704302,7.89363887 16.2704302,6.34426642 C16.2704302,4.88721041 18.2868269,4.88760004 18.2868269,6.34426642 L18.2868269,12.0929156 C18.2875679,12.112642 18.2879436,12.1326531 18.2879436,12.1529492 L18.2879436,13.6222302 C18.2879436,14.2725069 19.2772519,14.3341373 19.3229082,13.6393413 C19.3234277,12.0647152 19.3246192,10.7603534 19.3246192,9.11989054 C19.3246192,7.66283452 21.3410159,7.66322416 21.3410159,9.11989054 L21.3410159,14.1626619 L21.3344566,14.1626619 Z" transform="translate(13.341016, 13.341016) scale(1, -1) rotate(-45.000000) translate(-13.341016, -13.341016) "></path>
            </g>
        </g>
    </g>
</svg>