<svg width="160" height="72" viewBox="0 0 160 72" xmlns="http://www.w3.org/2000/svg"><title>customer/airbnb</title><path d="M84.323 23.472a3.223 3.223 0 0 1-3.23 3.23 3.223 3.223 0 0 1-3.23-3.23c0-1.789 1.392-3.23 3.23-3.23 1.839.05 3.23 1.49 3.23 3.23zm-13.317 6.51v.794s-1.54-1.987-4.82-1.987c-5.416 0-9.64 4.124-9.64 9.838 0 5.665 4.174 9.839 9.64 9.839 3.33 0 4.82-2.037 4.82-2.037v.844a.68.68 0 0 0 .696.696h4.025V29.286h-4.025a.71.71 0 0 0-.696.695zm0 11.975c-.745 1.093-2.236 2.037-4.025 2.037-3.18 0-5.615-1.988-5.615-5.367s2.435-5.366 5.615-5.366c1.74 0 3.33.994 4.025 2.037v6.659zm7.702-12.671h4.77v18.683h-4.77V29.286zm71.255-.497c-3.28 0-4.82 1.987-4.82 1.987V20.292h-4.77v27.677h4.025a.71.71 0 0 0 .695-.696v-.844s1.54 2.037 4.82 2.037c5.416 0 9.64-4.174 9.64-9.839 0-5.664-4.224-9.838-9.59-9.838zm-.795 15.155c-1.839 0-3.28-.944-4.025-2.037v-6.659c.745-.993 2.335-2.037 4.025-2.037 3.18 0 5.615 1.988 5.615 5.367s-2.435 5.366-5.615 5.366zm-11.28-7.056v11.13h-4.77V37.436c0-3.081-.994-4.323-3.677-4.323-1.441 0-2.932.745-3.876 1.838V47.97h-4.77V29.286h3.776a.71.71 0 0 1 .696.695v.795c1.391-1.44 3.23-1.987 5.068-1.987 2.087 0 3.826.596 5.218 1.789 1.69 1.39 2.335 3.18 2.335 6.31zm-28.67-8.1c-3.28 0-4.82 1.988-4.82 1.988V20.292h-4.77v27.677h4.024a.71.71 0 0 0 .696-.696v-.844s1.54 2.037 4.82 2.037c5.416 0 9.64-4.174 9.64-9.839.05-5.664-4.174-9.838-9.59-9.838zm-.796 15.156c-1.838 0-3.28-.944-4.024-2.037v-6.659c.745-.993 2.335-2.037 4.024-2.037 3.18 0 5.615 1.988 5.615 5.367s-2.435 5.366-5.615 5.366zM95.503 28.79c1.441 0 2.186.248 2.186.248v4.423s-3.975-1.342-6.46 1.49V48.02h-4.77V29.286h4.025a.71.71 0 0 1 .696.695v.795c.895-1.043 2.832-1.987 4.323-1.987zm-49.54 17.49c-.249-.596-.497-1.242-.746-1.788-.397-.895-.795-1.74-1.142-2.534l-.05-.05a518.637 518.637 0 0 0-10.982-22.46l-.149-.298c-.397-.745-.795-1.54-1.192-2.335-.497-.895-.994-1.839-1.789-2.733-1.59-1.988-3.876-3.081-6.31-3.081-2.485 0-4.721 1.093-6.36 2.981-.746.895-1.293 1.839-1.79 2.733-.397.795-.795 1.59-1.192 2.336l-.15.298C10.287 26.8 6.56 34.354 3.132 41.808l-.05.099c-.348.795-.746 1.64-1.143 2.534a32.716 32.716 0 0 0-.745 1.789c-.646 1.838-.845 3.577-.597 5.366a10.56 10.56 0 0 0 6.46 8.249c1.292.546 2.633.795 4.025.795.397 0 .894-.05 1.292-.1 1.64-.198 3.329-.745 4.969-1.69 2.037-1.142 3.975-2.782 6.161-5.167 2.186 2.385 4.174 4.025 6.162 5.168 1.64.944 3.329 1.49 4.969 1.69.397.05.894.099 1.291.099 1.392 0 2.783-.249 4.025-.795 3.479-1.392 5.913-4.572 6.46-8.249.397-1.739.199-3.478-.447-5.316zm-22.41 2.584c-2.683-3.379-4.423-6.559-5.019-9.242-.248-1.143-.298-2.137-.149-3.03.1-.796.398-1.492.795-2.088.944-1.342 2.534-2.186 4.373-2.186 1.838 0 3.478.795 4.372 2.186a4.82 4.82 0 0 1 .795 2.087c.15.894.1 1.938-.149 3.031-.596 2.634-2.335 5.814-5.018 9.242zM43.379 51.2c-.348 2.584-2.087 4.82-4.522 5.813-1.192.497-2.484.646-3.776.497-1.242-.149-2.485-.546-3.777-1.292-1.788-.993-3.577-2.534-5.664-4.82 3.28-4.024 5.267-7.701 6.012-10.98.348-1.541.398-2.933.249-4.224-.2-1.243-.646-2.386-1.342-3.38-1.54-2.235-4.124-3.527-7.006-3.527-2.882 0-5.466 1.341-7.006 3.528-.696.993-1.143 2.136-1.342 3.379a10.317 10.317 0 0 0 .248 4.223c.746 3.28 2.783 7.006 6.013 11.031-2.037 2.286-3.876 3.826-5.665 4.82-1.292.745-2.534 1.143-3.776 1.292a7.948 7.948 0 0 1-3.777-.497c-2.434-.994-4.173-3.23-4.521-5.814-.15-1.242-.05-2.484.447-3.875.149-.497.397-.994.646-1.59.348-.795.745-1.64 1.143-2.485l.05-.1c3.428-7.403 7.105-14.956 10.931-22.31l.15-.298c.397-.745.794-1.54 1.192-2.286.397-.795.844-1.54 1.391-2.186 1.043-1.193 2.435-1.838 3.975-1.838s2.932.645 3.975 1.838c.547.646.994 1.391 1.392 2.186.397.746.795 1.54 1.192 2.286l.15.298a659.131 659.131 0 0 1 10.881 22.36v.05c.398.795.746 1.69 1.143 2.485.249.596.497 1.093.646 1.59.398 1.292.547 2.534.348 3.826z" fill="#7B7194"/></svg>