<?xml version="1.0" encoding="UTF-8"?>
<svg width="160px" height="72px" viewBox="0 0 160 72" version="1.1" xmlns="http://www.w3.org/2000/svg" xmlns:xlink="http://www.w3.org/1999/xlink">
    <!-- Generator: Sketch 52.1 (67048) - http://www.bohemiancoding.com/sketch -->
    <title>customer/airbnb</title>
    <desc>Created with Sketch.</desc>
    <g id="customer/airbnb" stroke="none" stroke-width="1" fill="none" fill-rule="evenodd">
        <g id="airbnb" transform="translate(0.000000, 11.000000)" fill="#7B7194" fill-rule="nonzero">
            <path d="M84.3229814,12.4720497 C84.3229814,14.2608696 82.8819876,15.7018634 81.0931677,15.7018634 C79.3043478,15.7018634 77.863354,14.2608696 77.863354,12.4720497 C77.863354,10.6832298 79.2546584,9.24223602 81.0931677,9.24223602 C82.931677,9.29192547 84.3229814,10.7329193 84.3229814,12.4720497 Z M71.0062112,18.9813665 C71.0062112,19.2795031 71.0062112,19.7763975 71.0062112,19.7763975 C71.0062112,19.7763975 69.4658385,17.7888199 66.1863354,17.7888199 C60.7701863,17.7888199 56.5465839,21.9130435 56.5465839,27.6273292 C56.5465839,33.2919255 60.7204969,37.4658385 66.1863354,37.4658385 C69.515528,37.4658385 71.0062112,35.4285714 71.0062112,35.4285714 L71.0062112,36.2732919 C71.0062112,36.6708075 71.3043478,36.9689441 71.7018634,36.9689441 L75.7267081,36.9689441 L75.7267081,18.2857143 C75.7267081,18.2857143 72.0496894,18.2857143 71.7018634,18.2857143 C71.3043478,18.2857143 71.0062112,18.6335404 71.0062112,18.9813665 Z M71.0062112,30.9565217 C70.2608696,32.0496894 68.7701863,32.9937888 66.9813665,32.9937888 C63.8012422,32.9937888 61.3664596,31.0062112 61.3664596,27.6273292 C61.3664596,24.2484472 63.8012422,22.2608696 66.9813665,22.2608696 C68.7204969,22.2608696 70.310559,23.2546584 71.0062112,24.2981366 L71.0062112,30.9565217 Z M78.7080745,18.2857143 L83.4782609,18.2857143 L83.4782609,36.9689441 L78.7080745,36.9689441 L78.7080745,18.2857143 Z M149.962733,17.7888199 C146.68323,17.7888199 145.142857,19.7763975 145.142857,19.7763975 L145.142857,9.29192547 L140.372671,9.29192547 L140.372671,36.9689441 C140.372671,36.9689441 144.049689,36.9689441 144.397516,36.9689441 C144.795031,36.9689441 145.093168,36.621118 145.093168,36.2732919 L145.093168,35.4285714 C145.093168,35.4285714 146.63354,37.4658385 149.913043,37.4658385 C155.329193,37.4658385 159.552795,33.2919255 159.552795,27.6273292 C159.552795,21.9627329 155.329193,17.7888199 149.962733,17.7888199 Z M149.167702,32.9440994 C147.329193,32.9440994 145.888199,32 145.142857,30.9068323 L145.142857,24.2484472 C145.888199,23.2546584 147.478261,22.2111801 149.167702,22.2111801 C152.347826,22.2111801 154.782609,24.1987578 154.782609,27.5776398 C154.782609,30.9565217 152.347826,32.9440994 149.167702,32.9440994 Z M137.888199,25.8881988 L137.888199,37.0186335 L133.118012,37.0186335 L133.118012,26.4347826 C133.118012,23.3540373 132.124224,22.1118012 129.440994,22.1118012 C128,22.1118012 126.509317,22.8571429 125.565217,23.9503106 L125.565217,36.9689441 L120.795031,36.9689441 L120.795031,18.2857143 L124.571429,18.2857143 C124.968944,18.2857143 125.267081,18.6335404 125.267081,18.9813665 L125.267081,19.7763975 C126.658385,18.3354037 128.496894,17.7888199 130.335404,17.7888199 C132.42236,17.7888199 134.161491,18.3850932 135.552795,19.5776398 C137.242236,20.9689441 137.888199,22.757764 137.888199,25.8881988 Z M109.217391,17.7888199 C105.937888,17.7888199 104.397516,19.7763975 104.397516,19.7763975 L104.397516,9.29192547 L99.6273292,9.29192547 L99.6273292,36.9689441 C99.6273292,36.9689441 103.304348,36.9689441 103.652174,36.9689441 C104.049689,36.9689441 104.347826,36.621118 104.347826,36.2732919 L104.347826,35.4285714 C104.347826,35.4285714 105.888199,37.4658385 109.167702,37.4658385 C114.583851,37.4658385 118.807453,33.2919255 118.807453,27.6273292 C118.857143,21.9627329 114.63354,17.7888199 109.217391,17.7888199 Z M108.42236,32.9440994 C106.583851,32.9440994 105.142857,32 104.397516,30.9068323 L104.397516,24.2484472 C105.142857,23.2546584 106.732919,22.2111801 108.42236,22.2111801 C111.602484,22.2111801 114.037267,24.1987578 114.037267,27.5776398 C114.037267,30.9565217 111.602484,32.9440994 108.42236,32.9440994 Z M95.5031056,17.7888199 C96.9440994,17.7888199 97.689441,18.0372671 97.689441,18.0372671 L97.689441,22.4596273 C97.689441,22.4596273 93.7142857,21.1180124 91.2298137,23.9503106 L91.2298137,37.0186335 L86.4596273,37.0186335 L86.4596273,18.2857143 C86.4596273,18.2857143 90.136646,18.2857143 90.484472,18.2857143 C90.8819876,18.2857143 91.1801242,18.6335404 91.1801242,18.9813665 L91.1801242,19.7763975 C92.0745342,18.7329193 94.0124224,17.7888199 95.5031056,17.7888199 Z M45.9627329,35.2795031 C45.7142857,34.6832298 45.4658385,34.0372671 45.2173913,33.4906832 C44.8198758,32.5962733 44.4223602,31.7515528 44.0745342,30.9565217 L44.0248447,30.9068323 C40.5962733,23.4534161 36.9192547,15.9006211 33.0434783,8.44720497 L32.8944099,8.14906832 C32.4968944,7.40372671 32.0993789,6.60869565 31.7018634,5.8136646 C31.2049689,4.91925466 30.7080745,3.97515528 29.9130435,3.08074534 C28.3229814,1.0931677 26.0372671,0 23.6024845,0 C21.1180124,0 18.8819876,1.0931677 17.242236,2.98136646 C16.4968944,3.8757764 15.9503106,4.81987578 15.4534161,5.71428571 C15.0559006,6.50931677 14.6583851,7.30434783 14.2608696,8.04968944 L14.1118012,8.34782609 C10.2857143,15.8012422 6.55900621,23.3540373 3.13043478,30.8074534 L3.08074534,30.9068323 C2.73291925,31.7018634 2.33540373,32.5465839 1.9378882,33.4409938 C1.68944099,33.9875776 1.44099379,34.5838509 1.19254658,35.2298137 C0.546583851,37.068323 0.347826087,38.8074534 0.596273292,40.5962733 C1.14285714,44.3229814 3.62732919,47.4534161 7.05590062,48.8447205 C8.34782609,49.3913043 9.68944099,49.6397516 11.0807453,49.6397516 C11.4782609,49.6397516 11.9751553,49.5900621 12.3726708,49.5403727 C14.0124224,49.3416149 15.7018634,48.7950311 17.3416149,47.8509317 C19.378882,46.7080745 21.3167702,45.068323 23.5031056,42.6832298 C25.689441,45.068323 27.6770186,46.7080745 29.6645963,47.8509317 C31.3043478,48.7950311 32.9937888,49.3416149 34.6335404,49.5403727 C35.0310559,49.5900621 35.5279503,49.6397516 35.9254658,49.6397516 C37.3167702,49.6397516 38.7080745,49.3913043 39.9503106,48.8447205 C43.4285714,47.4534161 45.863354,44.2732919 46.4099379,40.5962733 C46.8074534,38.8571429 46.6086957,37.1180124 45.9627329,35.2795031 Z M23.552795,37.863354 C20.8695652,34.484472 19.1304348,31.3043478 18.5341615,28.621118 C18.2857143,27.4782609 18.2360248,26.484472 18.3850932,25.5900621 C18.484472,24.7950311 18.7826087,24.0993789 19.1801242,23.5031056 C20.1242236,22.1614907 21.7142857,21.3167702 23.552795,21.3167702 C25.3913043,21.3167702 27.0310559,22.1118012 27.9254658,23.5031056 C28.3229814,24.0993789 28.621118,24.7950311 28.7204969,25.5900621 C28.8695652,26.484472 28.8198758,27.5279503 28.5714286,28.621118 C27.9751553,31.2546584 26.2360248,34.4347826 23.552795,37.863354 Z M43.378882,40.1987578 C43.0310559,42.7826087 41.2919255,45.0186335 38.8571429,46.0124224 C37.6645963,46.5093168 36.3726708,46.6583851 35.0807453,46.5093168 C33.8385093,46.3602484 32.5962733,45.9627329 31.3043478,45.2173913 C29.515528,44.2236025 27.7267081,42.6832298 25.6397516,40.3975155 C28.9192547,36.3726708 30.9068323,32.6956522 31.6521739,29.4161491 C32,27.8757764 32.0496894,26.484472 31.9006211,25.1925466 C31.7018634,23.9503106 31.2546584,22.8074534 30.5590062,21.8136646 C29.0186335,19.5776398 26.4347826,18.2857143 23.552795,18.2857143 C20.6708075,18.2857143 18.0869565,19.6273292 16.5465839,21.8136646 C15.8509317,22.8074534 15.4037267,23.9503106 15.2049689,25.1925466 C15.0062112,26.484472 15.0559006,27.9254658 15.4534161,29.4161491 C16.1987578,32.6956522 18.2360248,36.4223602 21.4658385,40.447205 C19.4285714,42.7329193 17.5900621,44.2732919 15.8012422,45.2670807 C14.5093168,46.0124224 13.2670807,46.4099379 12.0248447,46.5590062 C10.6832298,46.7080745 9.39130435,46.5093168 8.2484472,46.0621118 C5.8136646,45.068323 4.07453416,42.8322981 3.72670807,40.2484472 C3.57763975,39.0062112 3.67701863,37.7639752 4.17391304,36.3726708 C4.32298137,35.8757764 4.57142857,35.378882 4.81987578,34.7826087 C5.16770186,33.9875776 5.56521739,33.1428571 5.96273292,32.2981366 L6.01242236,32.1987578 C9.44099379,24.7950311 13.1180124,17.242236 16.9440994,9.88819876 L17.0931677,9.59006211 C17.4906832,8.8447205 17.8881988,8.04968944 18.2857143,7.30434783 C18.6832298,6.50931677 19.1304348,5.76397516 19.6770186,5.11801242 C20.7204969,3.92546584 22.1118012,3.27950311 23.6521739,3.27950311 C25.1925466,3.27950311 26.5838509,3.92546584 27.6273292,5.11801242 C28.173913,5.76397516 28.621118,6.50931677 29.0186335,7.30434783 C29.4161491,8.04968944 29.8136646,8.8447205 30.2111801,9.59006211 L30.3602484,9.88819876 C34.136646,17.2919255 37.8136646,24.8447205 41.242236,32.2484472 L41.242236,32.2981366 C41.6397516,33.0931677 41.9875776,33.9875776 42.3850932,34.7826087 C42.6335404,35.378882 42.8819876,35.8757764 43.0310559,36.3726708 C43.4285714,37.6645963 43.5776398,38.9068323 43.378882,40.1987578 Z" id="Shape"></path>
        </g>
    </g>
</svg>