<svg height="72" viewBox="0 0 160 72" width="160" xmlns="http://www.w3.org/2000/svg"><path d="m59.436 28.767c.881 3.041 1.729 6.091 2.543 9.15h-5.483c.815-3.059 1.662-6.109 2.543-9.15zm-3.898 12.777h7.4l1.09 4.248c.197.76.561.897 1.42.897h1.752c.925 0 1.42 0 1.188-.897-1.849-7.01-4.227-14.815-6.11-20.203-.363-1.07-.893-1.242-2.247-1.242h-1.618c-1.355 0-1.817.172-2.18 1.242-1.85 5.388-4.328 13.192-6.178 20.203-.231.897.297.897 1.223.897h1.75c.86 0 1.222-.137 1.421-.897l1.09-4.248zm19.007-16.16c0-1.659-.959-2.384-2.313-2.384h-.165c-1.288 0-2.312.725-2.312 2.383v.206c0 1.555.627 2.418 2.312 2.418h.165c1.355 0 2.313-.863 2.313-2.418v-.206zm-.43 5.248c0-.69-.198-.864-.925-.864h-2.08c-.728 0-.926.173-.926.864v15.194c0 .69.198.863.926.863h2.08c.727 0 .925-.172.925-.863zm6.355-.243c-.066-.517-.297-.62-.859-.62h-1.157c-.56 0-.792.207-.792.793v15.263c0 .692.198.863.926.863h2.08c.728 0 .926-.171.926-.863v-8.804c0-1.796.33-2.417.76-2.935.429-.518 1.222-.863 2.675-.863h.594c.727 0 .925-.207.925-.795v-1.83c0-.69-.23-.829-.924-.829h-.463c-2.246 0-3.37.691-4.394 2.245h-.066l-.23-1.623v-.002zm13.82-4.073c0-.692-.198-.863-.924-.863h-2.082c-.726 0-.924.171-.924.863v3.625l-2.115.379c-.396.07-.528.174-.528.726v1.52c0 .517.166.656.66.656h1.983v8.218c0 1.968.396 3.316 1.255 4.144.826.794 1.949 1.105 3.866 1.105h2.378c.726 0 .792-.207.792-.863v-1.692c0-.69-.099-.898-.792-.898h-1.619c-.892 0-1.256-.103-1.553-.449-.33-.38-.396-.794-.396-2.038v-7.527h3.27c.563 0 .694-.277.694-.863v-1.693c0-.69-.132-.898-.694-.898h-3.27v-3.452zm18.975 10.531c0-3.315-.595-4.8-1.685-5.835-1.057-1.001-2.411-1.554-4.659-1.554-5.086 0-6.803 2.866-6.803 8.287v.933c0 3.177.429 5.179 1.717 6.56 1.123 1.21 2.874 1.762 5.55 1.762 1.684 0 3.402-.345 4.79-.898.628-.242.727-.448.593-.967l-.428-1.657c-.198-.726-.528-.726-.925-.553-.925.415-2.478.726-3.568.726-1.585 0-2.478-.277-2.907-.691-.562-.518-.792-1.382-.825-2.763h8.258c.694 0 .892-.276.892-1.001v-2.348zm-6.475-4.11c.99 0 1.52.208 1.916.658.463.551.628 1.553.628 3.073 0 .345-.099.484-.43.484h-4.856c0-1.658.265-2.867.859-3.524.43-.483 1.024-.69 1.883-.69zm17.686 8.668c0 1.59-.627 2.314-2.147 2.314h-1.19c-.727 0-1.188-.173-1.453-.414-.33-.31-.495-.794-.495-1.553v-.415c0-.795.131-1.381.495-1.693.33-.31.959-.413 1.718-.413h1.156c.66 0 1.354.034 1.916.068zm.727 3.834.198.828c.099.45.297.621.792.621h1.52c.463 0 .693-.206.693-.655v-10.913c0-2.453-.528-3.695-1.717-4.558-1.123-.795-2.41-1.105-4.757-1.105-1.751 0-3.766.414-4.988.828-.562.173-.628.449-.495 1.036l.297 1.623c.099.484.297.726.825.553 1.322-.415 2.875-.656 4.064-.656 1.19 0 1.817.103 2.28.483.395.346.561.863.561 1.761v.933a31.962 31.962 0 0 0 -1.85-.07h-1.19c-2.245 0-3.798.38-4.823 1.278-.958.829-1.386 2.141-1.386 4.006v.794c0 1.658.462 3.005 1.42 3.868.892.794 1.915 1.105 3.633 1.105h1.223c1.982 0 3.005-.621 3.634-1.761h.066zm28.797-9.221c0-2.313-.495-4.04-1.553-5.11-.958-1.002-2.345-1.45-4.228-1.45-1.817 0-3.502.656-4.955 1.934-.925-1.209-2.511-1.934-4.591-1.934-1.85 0-3.304.656-4.361 1.76h-.1l-.165-.829c-.099-.517-.297-.62-.859-.62h-1.221c-.563 0-.793.207-.793.793v15.263c0 .692.198.863.924.863h2.081c.727 0 .926-.171.926-.863v-10.048c0-1.416.264-1.969.693-2.382.43-.415 1.157-.622 2.115-.622 1.057 0 1.585.207 2.08.725.529.553.694 1.313.694 2.694v9.634c0 .69.198.863.925.863h2.081c.727 0 .926-.172.926-.863v-9.426c0-.967-.034-1.726-.1-2.314a3.591 3.591 0 0 1 2.775-1.312c1.09 0 1.718.242 2.147.76.463.552.628 1.311.628 2.659v9.634c0 .69.198.863.925.863h2.082c.726 0 .924-.172.924-.863v-9.808zm-132-20.018a.97.97 0 0 0 -.866.577l-15.03 32.21c-.21.45-.096.997.271 1.306l6.79 5.688c.166.141.376.219.592.219a.931.931 0 0 0 .634-.255l6.587-5.822 1.022-23.391 1.018 23.363 6.617 5.766a.92.92 0 0 0 1.22.035l6.766-5.598c.369-.307.486-.858.274-1.312l-15.03-32.21a.97.97 0 0 0 -.864-.576z" fill="#7b7194" fill-rule="evenodd"/></svg>