<svg width="160" height="72" viewBox="0 0 160 72" xmlns="http://www.w3.org/2000/svg"><title>customer/atlassian</title><g transform="translate(0 26)" fill="#7B7194"><path d="M5.82 9.351a.557.557 0 0 0-.949.104L.062 19.07a.575.575 0 0 0 .516.832h6.696a.554.554 0 0 0 .516-.317c1.44-2.992.566-7.526-1.97-10.234zM9.347.593a12.684 12.684 0 0 0-.755 12.533l3.244 6.46a.575.575 0 0 0 .516.316h6.696a.575.575 0 0 0 .507-.832L10.326.593a.542.542 0 0 0-.978 0zm78.545 7.721c0 2.37 1.106 4.273 5.426 5.105 2.577.54 3.117.957 3.117 1.817 0 .859-.54 1.374-2.37 1.374a13.3 13.3 0 0 1-6.262-1.694v3.881c1.301.637 3.02 1.351 6.223 1.351 4.518 0 6.31-2.012 6.31-5.007m0 0c0-2.824-1.496-4.148-5.72-5.058-2.333-.516-2.898-1.031-2.898-1.778 0-.933.835-1.324 2.37-1.324 1.867 0 3.707.566 5.452 1.35v-3.7a12.32 12.32 0 0 0-5.334-1.105c-4.174 0-6.334 1.816-6.334 4.788"/><path d="M145.931852 3.77185185L145.931852 19.9022222 149.368889 19.9022222 149.368889 7.60296296 150.817778 10.8681481 155.68 19.9022222 160 19.9022222 160 3.77185185 156.562963 3.77185185 156.562963 14.1837037 155.262222 11.1614815 151.357037 3.77185185z"/><path d="M120.314 3.772H124.071V19.901999999999997H120.314z"/><path d="M115.98 15.14c0-2.823-1.497-4.147-5.722-5.057-2.332-.516-2.898-1.031-2.898-1.778 0-.933.836-1.324 2.37-1.324 1.867 0 3.707.566 5.452 1.35v-3.7a12.32 12.32 0 0 0-5.333-1.105c-4.175 0-6.335 1.816-6.335 4.788 0 2.37 1.105 4.273 5.425 5.105 2.578.54 3.117.957 3.117 1.817 0 .859-.539 1.374-2.37 1.374a13.3 13.3 0 0 1-6.26-1.694v3.881c1.3.637 3.018 1.351 6.221 1.351 4.519 0 6.312-2.012 6.312-5.007"/><path d="M58.7140741 3.77185185L58.7140741 19.9022222 66.4355556 19.9022222 67.6503704 16.4177778 62.4948148 16.4177778 62.4948148 3.77185185z"/><path d="M43.4577778 3.77185185L43.4577778 7.25925926 47.6325926 7.25925926 47.6325926 19.9022222 51.4133333 19.9022222 51.4133333 7.25925926 55.8814815 7.25925926 55.8814815 3.77185185z"/><path d="M37.976 3.772h-4.954l-5.63 16.13h4.312l.788-2.717c1.967.58 4.06.58 6.027 0l.797 2.717h4.296l-5.636-16.13zM35.5 14.279a7.336 7.336 0 0 1-2.074-.297L35.5 6.94l2.074 7.043a7.336 7.336 0 0 1-2.074.297zM79.745 3.772h-4.954l-5.63 16.13h4.297l.803-2.717c1.963.577 4.051.577 6.015 0l.797 2.717h4.296l-5.624-16.13zm-2.477 10.507a7.336 7.336 0 0 1-2.074-.297l2.074-7.043 2.074 7.043a7.336 7.336 0 0 1-2.074.297zm60.338-10.507h-4.954l-5.63 16.13h4.297l.802-2.717c1.964.577 4.052.577 6.015 0l.797 2.717h4.297l-5.624-16.13zm-2.477 10.507a7.336 7.336 0 0 1-2.074-.297l2.074-7.043 2.074 7.043a7.336 7.336 0 0 1-2.074.297z"/></g></svg>