<svg width="160" height="72" viewBox="0 0 160 72" xmlns="http://www.w3.org/2000/svg"><title>customer/atlassian</title><g fill="#7B7194"><path d="M5.82 35.351a.557.557 0 0 0-.949.104L.062 45.07a.575.575 0 0 0 .516.832h6.696a.554.554 0 0 0 .516-.317c1.44-2.992.566-7.526-1.97-10.234zm3.527-8.758a12.684 12.684 0 0 0-.755 12.533l3.244 6.46a.575.575 0 0 0 .516.316h6.696a.575.575 0 0 0 .507-.832l-9.229-18.477a.542.542 0 0 0-.978 0zm78.545 7.721c0 2.37 1.106 4.273 5.426 5.105 2.577.54 3.117.957 3.117 1.817 0 .859-.54 1.374-2.37 1.374a13.3 13.3 0 0 1-6.262-1.694v3.881c1.301.637 3.02 1.351 6.223 1.351 4.518 0 6.31-2.012 6.31-5.007m0 0c0-2.824-1.496-4.148-5.72-5.058-2.333-.516-2.898-1.031-2.898-1.778 0-.933.835-1.324 2.37-1.324 1.867 0 3.707.566 5.452 1.35v-3.7a12.32 12.32 0 0 0-5.334-1.105c-4.174 0-6.334 1.816-6.334 4.788m58.06-4.542v16.13h3.437V33.603l1.449 3.265 4.862 9.034H160v-16.13h-3.437v10.412l-1.3-3.023-3.906-7.39zm-25.618 0h3.757v16.13h-3.757zM115.98 41.14c0-2.823-1.497-4.147-5.722-5.057-2.332-.516-2.898-1.031-2.898-1.778 0-.933.836-1.324 2.37-1.324 1.867 0 3.707.566 5.452 1.35v-3.7a12.32 12.32 0 0 0-5.333-1.105c-4.175 0-6.335 1.816-6.335 4.788 0 2.37 1.105 4.273 5.425 5.105 2.578.54 3.117.957 3.117 1.817 0 .859-.539 1.374-2.37 1.374a13.3 13.3 0 0 1-6.26-1.694v3.881c1.3.637 3.018 1.351 6.221 1.351 4.519 0 6.312-2.012 6.312-5.007m-57.245-11.37v16.131h7.722l1.214-3.484h-5.155V29.772zm-15.256 0v3.488h4.175v12.643h3.78V33.26h4.468v-3.487zm-5.482.001h-4.954l-5.63 16.13h4.312l.788-2.717c1.967.58 4.06.58 6.027 0l.797 2.717h4.296l-5.636-16.13zM35.5 40.279a7.336 7.336 0 0 1-2.074-.297L35.5 32.94l2.074 7.043a7.336 7.336 0 0 1-2.074.297zm44.245-10.507h-4.954l-5.63 16.13h4.297l.803-2.717c1.963.577 4.051.577 6.015 0l.797 2.717h4.296l-5.624-16.13zm-2.477 10.507a7.336 7.336 0 0 1-2.074-.297l2.074-7.043 2.074 7.043a7.336 7.336 0 0 1-2.074.297zm60.338-10.507h-4.954l-5.63 16.13h4.297l.802-2.717c1.964.577 4.052.577 6.015 0l.797 2.717h4.297l-5.624-16.13zm-2.477 10.507a7.336 7.336 0 0 1-2.074-.297l2.074-7.043 2.074 7.043a7.336 7.336 0 0 1-2.074.297z"/></g></svg>