<svg height="72" viewBox="0 0 160 72" width="160" xmlns="http://www.w3.org/2000/svg"><g fill="#7b7194" fill-rule="evenodd" transform="matrix(1 0 0 -1 0 54)"><path d="m148.81 8.056c-.035.4-.023 2.461-.086 4.596.087.002.317-.012.317-.012s1.74-5.398 5.156-4.412c.578.168 1.073.586 1.259 1.17 1.114 3.536-5.718 2.9-6.57 6.167-1.004 3.84 3.988 5.736 7.246 3.735.185-.363.628-3.333.64-3.339.01-.004-.428-.057-.473 0-.062 0-.748 2.212-2.45 3.031-.354.17-2.53.64-3.003-1.175-.904-3.451 8.427-2.226 6.496-7.864-.407-1.193-1.148-1.855-2.16-2.323-1.285-.595-3.162-.416-4.526-.173-.587.106-1.277.407-1.845.6" fill-rule="nonzero"/><g fill-rule="nonzero" transform="translate(35.56 6.421)"><path d="m102.473 13.455c8.154.78 10.29-10.966 1.653-12.358-9.115-1.47-11.341 11.431-1.653 12.358m.554-.802c-5.737 0-4.955-11.772.394-10.84 4.934.862 4.442 10.84-.394 10.84"/><path d="m36.226 13.532c-.043-.304.005-1.87 0-2.374 4.079 5.277 6.587-.487 4.175-1.147-1.59-.438-1.35 1.177-2.7 1.044-.473-.046-.947-.438-1.286-1.435a3.113 3.113 0 0 1 -.184-1.042c-.005-2.168-.078-4.732.108-5.479.297-1.169 1.61-1.689 2.337-1.627v-.355c-1.809.024-5.085.012-7.26 0v.33c.539-.016 2.077.761 2.069 1.956-.02 3.337.09 5.615-.15 6.49-.174.648-.7 1.15-1.326 1.404-.15.06-.94.264-.32.458 1.79.548 3.067 1.036 4.537 1.777"/><path d="m12.088 11.43c2.101-.573 3.87-2.033 4.192-3.954 1.046-6.218-6.492-6.682-11.67-6.266-1.632.129-3.187-.098-4.195-.087v.632c1.114.094 2.098.367 2.098 1.705v14.948c0 1.128-1.004 1.54-2.05 1.542-.043.201-.029.422-.013.624 6.177-.271 13.327 1.164 14.493-3.843.858-3.675-2.446-4.802-2.855-5.3m-6.217-9.136c1.418-.58 2.519-.626 3.886-.358 4.432.88 5.076 7.485.302 8.561-1.113.251-4.188.277-4.188.104 0 0-.006-7.41 0-8.307m.019 17.345c-.038.003-.019-8.106-.019-8.106 0-.292 3.069-.067 3.793.239 3.905 1.652 3.355 7.314-1.072 7.774-1.227.129-2.702.193-2.702.093"/><path d="m29.844 1.948c.072-.18.134-.413.134-.413s-.5-.247-.828-.34c-2.852-.825-2.95 1.751-2.95 1.751-.028.015-.113.373-.451-.018-1.707-1.984-7.419-3.335-7.037.713.137 1.453 1.096 2.375 2.564 3.202 1.688.955 4.287 1.525 4.498 2.044.176.435.096 2.148.096 2.625 0 1.008-1.222.842-1.639.751-1.351-.288-2.151-1.445-2.144-1.813.038-2.026-1.695-2.857-2.629-2.23-1.413.948-.054 3.155 2.235 4.159 1.275.559 2.323.959 3.985 1.051 2.35.13 3.017-.913 3.017-3.005 0 0-.033-7.937-.005-7.95 0 0-.05-.76 1.154-.527m-4.012 5.822c-.401-.171-3.65-1.494-4.286-2.72-.27-.52-.386-.966-.057-1.639.793-1.634 4.33-.278 4.348.818.015 1.127 0 3.532-.005 3.54"/><path d="m69.375 1.947c.073-.183.134-.414.134-.414s-.5-.247-.827-.342c-2.852-.823-2.95 1.754-2.95 1.754-.026.015-.112.373-.45-.02-1.708-1.984-7.42-3.333-7.037.715.136 1.451 1.097 2.373 2.563 3.203 1.687.952 4.287 1.523 4.498 2.041.175.437.098 2.148.098 2.624 0 1.01-1.225.843-1.643.754-1.35-.29-2.15-1.448-2.143-1.814.038-2.023-1.693-2.857-2.628-2.229-1.411.945-.054 3.153 2.237 4.157 1.273.56 2.324.96 3.983 1.05 2.351.13 3.018-.91 3.018-3.002 0 0-.036-7.936-.005-7.951 0 0-.052-.757 1.152-.526m-4.01 5.82c-.401-.17-3.65-1.493-4.287-2.718-.27-.522-.385-.967-.057-1.639.794-1.635 4.328-.279 4.346.817.018 1.13.004 3.532-.002 3.54"/><path d="m93.452 21.497c.037-1.294 0-16.355 0-16.355.135-1.517-.126-2.035 1.632-3.006l.023-.22a28.202 28.202 0 0 1 -4.173-.97c-.008.834 0 1.77 0 1.77 0 1.336-.886-1.62-4.324-1.776-7.344-.334-7.653 13.94 3.274 12.374.88-.126 1.073-.708.976.317v3.848s.097.907-2.053 1.896c-.1.346.332.4.523.44 1.303.275 2.92 1.106 4.122 1.682m-5.5-8.863c-5.934-.82-4.534-11.078.375-10.278.976.16 2.59 1.801 2.563 2.773-.027 1.025.028 4.91-.05 5.805-.098 1.146-1.701 1.865-2.888 1.7"/><path d="m47.155 13.491.044.013v-2.101c.134.065 1.105.866 2.621 1.439.606.228 4.688 1.303 4.781-2.349.03-1.254 0-5.775 0-6.465 0-2.37 2.181-2.602 2.181-2.602s0-.167-.004-.345h-6.573c.022.12-.011.345-.011.345s1.673.114 1.673 2.423v6.114c-.002 2.242-2.439 2.485-4.649-.246v-5.689c0-.741.115-2.322 1.88-2.602v-.35c-1.216-.023-5.682 0-6.603 0-.012.157 0 .35 0 .35s1.878.311 1.878 2.597c0 2.253.004 5.715.004 5.715-.218 1.36-1.81 1.72-1.8 1.724.01.006-.007.268-.01.374 1.525.488 2.997.963 4.588 1.655"/><path d="m75.682 13.489c-.044-.302.003-1.87-.004-2.372 4.08 5.277 6.588-.487 4.18-1.149-1.596-.438-1.35 1.178-2.702 1.046-.474-.048-.95-.438-1.29-1.434-.061-.183-.18-.536-.181-1.043-.003-2.167-.08-4.734.11-5.479.294-1.17 1.608-1.689 2.335-1.627v-.356c-1.809.024-5.086.012-7.26 0v.329c.537-.015 2.076.763 2.069 1.957-.022 3.338.09 5.617-.15 6.492-.176.646-.702 1.15-1.328 1.403-.15.062-.937.262-.32.455 1.792.55 3.07 1.037 4.54 1.778"/></g><g transform="translate(.925 1.096)"><path d="m144.095 18.995c.174.157 1.002.869.95 1.627-.021.294-.123.76-.434 1.057-.353.338-.69.666-.69 1.372-.019.744.51 1.293 1.236 1.371 1.235 0 1.766-.822 1.766-1.841 0-1.725-1.06-3.096-2.433-4.035l-.395.45z" fill-rule="nonzero"/><path d="m15.677 23.632c.642 0 1.164.736 1.164 1.646s-.522 1.647-1.164 1.647c-.644 0-1.166-.737-1.166-1.647s.522-1.646 1.166-1.646zm11.97-1.688c-2.04 1.284-3.344.775-5.34 2.173-1.531 1.074-2.032 2.083-2.478 3.185-.304.756-.437.99-.662.99-.142 0-.32-.027-.32-.768l.002-.016c-.002-.025-.006-.044-.006-.071 0-.921-.612-4.013-3.17-4.013-2.351.006-3.14 2.963-3.14 4.067v.033c0 .741-.175.767-.318.767-.225 0-.359-.233-.66-.99-.447-1.101-.95-2.11-2.48-3.184-1.994-1.398-3.3-.89-5.338-2.173-2.031-1.276-3.138-3.64-2.613-3.947.374-.22.818.42 1.258.987.872 1.126 2.547 2.037 3.253 1.396.842-.766-.046-1.983-.758-3.717-.616-1.49-.549-3.244-.416-4.705.243-2.645-.949-3.494-.25-3.951.715-.46 1.904 1.662 2.166 4.25.133 1.324.087 2.639.593 2.639.587 0 .587-2.555.405-3.82-.354-2.448-1.633-3.67-1.407-6.17.162-1.761 1.253-1.833 1.276-.05.036 2.909 2.777 4.399 2.573 9.494-.121 3.044-.559 5.34 1.031 8.622.286.594.739 1.59 1.102 2.525.127-.338.4-1.008.578-1.307 1.838-3.037 1.849-3.046 1.141-5.793-.955-3.706.879-5.228.546-7.662-.19-1.415.663-1.458 1.025-.017.434 1.738-.283 2.782-.248 4.543.018.916.311 2.669.882 2.554.353-.071.07-.88 0-1.867-.107-1.498.37-3.505 1.022-3.311.636.189-.092.911.334 2.766.252 1.088.724 2.445.434 3.707-.578 2.516.813 4.359 1.14 4.966.24.444.474.975.611 1.46a38.47 38.47 0 0 1 1.12-2.564c1.587-3.282 1.152-5.578 1.03-8.622-.205-5.095 2.536-6.585 2.574-9.495.021-1.782 1.116-1.71 1.275.05.227 2.5-1.053 3.723-1.406 6.172-.182 1.264-.182 3.819.404 3.819.508 0 .459-1.315.594-2.64.262-2.587 1.451-4.71 2.165-4.25.7.458-.493 1.307-.25 3.952.134 1.46.199 3.214-.415 4.705-.713 1.734-1.6 2.951-.76 3.717.706.64 2.381-.27 3.256-1.396.44-.567.883-1.207 1.258-.987.525.308-.584 2.671-2.613 3.947zm-4.23 1.851c.64-.408 1.622.019 2.192.95.569.933.512 2.018-.131 2.426-.641.406-1.624-.018-2.191-.95-.573-.934-.513-2.02.13-2.426zm-15.45 0c.64.407.7 1.492.13 2.425s-1.552 1.357-2.193.95c-.64-.407-.701-1.492-.13-2.425.568-.931 1.551-1.358 2.193-.95zm22.823-22.565h-30.15v30.119h30.15v-30.121z"/></g></g></svg>