<svg height="72" viewBox="0 0 160 72" width="160" xmlns="http://www.w3.org/2000/svg"><path d="m145.073 25.48v2.592c-1.3-2.2-3.586-3.181-6.463-3.181-5.834 0-9.972 4.084-9.972 10.407 0 6.322 4.06 10.406 10.05 10.406 2.996 0 5.163-.942 6.385-3.142v2.553h4.927v-19.635zm-5.36 16.297c-3.587 0-5.952-2.67-5.952-6.48 0-3.809 2.365-6.48 5.952-6.48 3.666 0 5.558 2.789 5.558 6.48 0 3.692-1.892 6.48-5.558 6.48zm-16.397-16.297v19.635h-4.927v-15.001h-6.897v15.001h-4.927v-15.001h-6.898v15.001h-4.927v-19.635zm-37.759 14.766 3.666 3.534v.785c0 4.909-3.31 8.404-9.972 8.404-6.583 0-9.972-3.18-9.972-8.09l5.36.04c0 2.042 1.774 3.612 4.612 3.612 3.153 0 4.415-1.452 4.572-3.455l-3.43-3.22c-.354.04-.748.04-1.142.04-5.834 0-9.736-2.985-9.736-8.484 0-5.498 3.902-8.521 9.736-8.521.473 0 .946.039 1.419.078v-5.969h4.69v7.383c2.287 1.414 3.626 3.77 3.626 6.99 0 3.142-1.26 5.458-3.429 6.873zm-11.115-6.834c0 3.024 2.01 4.713 4.809 4.713s4.809-1.689 4.809-4.752c0-3.024-2.01-4.712-4.81-4.712-2.798 0-4.808 1.728-4.808 4.751zm-15.765-7.932 4.927-.04v19.675h-4.927zm-23.57 0h17.263v19.635h-4.927v-15.001h-7.41v15.001h-4.927v-19.635zm-5.203 8.953v1.925h-14.74c.354 3.337 2.364 4.987 5.084 4.987 2.838 0 4.177-1.217 4.336-3.338h4.926c-.355 4.477-3.271 7.658-9.46 7.658-5.99 0-10.05-4.045-10.05-10.367 0-6.323 4.493-10.447 10.326-10.447 5.676 0 9.578 3.692 9.578 9.582zm-9.696-5.261c-2.64 0-4.414 1.648-4.927 4.437h9.539c-.197-2.867-1.853-4.437-4.612-4.437z" fill="#7b7194"/></svg>