<svg height="72" viewBox="0 0 160 72" width="160" xmlns="http://www.w3.org/2000/svg"><path d="m123.096 8c-3.013 0-5.206 2.374-5.206 5.02 0 2.648 2.193 5.02 5.206 5.02 3.01 0 5.339-2.161 5.339-5.02 0-2.855-2.328-5.02-5.34-5.02zm-74.834 15.017c-9.574 0-17.262 6.593-17.262 16.47 0 9.869 7.688 16.513 17.262 16.513 4.37 0 8.491-1.356 11.924-4.668l-5.028-4.932c-1.866 1.945-4.26 3.303-7.696 3.303-4.43 0-8.012-2.805-8.543-7.442h24.203v-2.158c0-10.923-6-17.086-14.86-17.086zm30.743 0c-6.408 0-12.768 3.13-12.768 10.128 0 11.967 17.129 6.87 17.129 13.343 0 2.484-2.983 3.611-5.295 3.611-3.36 0-5.476-1.615-7.519-3.831l-5.116 5.064c3.214 3.45 7.389 4.668 12.19 4.668 6.471 0 13.659-2.63 13.659-10.084 0-12.23-17.129-7.635-17.129-13.255 0-2.356 2.51-3.347 4.627-3.347 2.689 0 4.668 1.095 6.184 3.17l5.072-4.976c-2.61-3.225-6.939-4.491-11.034-4.491zm33.368 0c-4.166 0-7.67 2.177-9.387 5.768h-.133v-4.975h-7.92v31.398h7.92v-16.823c0-1.698 1.074-7.882 8.542-7.882 1.15 0 2.265.2 3.47.484l.311-7.486c-.916-.257-1.822-.484-2.802-.484zm6.852.792v31.398h7.92v-31.397h-7.92zm-72.075 5.108c4.955 0 7.984 2.868 8.053 7.443h-16.284c.597-4.513 3.544-7.443 8.231-7.443z" fill="#7b7194"/></svg>