<svg height="72" viewBox="0 0 160 72" width="160" xmlns="http://www.w3.org/2000/svg"><g fill="#7b7194" transform="translate(0 21)"><path d="m38.88.8c-4 0-5.44 2.8-5.44 5.44v1.6h-.8c-.64 0-1.12.48-1.12 1.12s.48 1.12 1.12 1.12h.8v11.04c0 .64.48 1.2 1.2 1.2s1.2-.48 1.2-1.2v-11.12h2.56c.64 0 1.12-.48 1.12-1.12s-.48-1.12-1.12-1.12h-2.56v-1.6c0-1.44.56-3.2 3.12-3.2.64 0 1.12-.48 1.12-1.04-.08-.64-.56-1.12-1.2-1.12zm9.12 6.64c-1.6-.08-3.04.64-4 1.92v-.64c0-.64-.48-1.2-1.2-1.2s-1.2.56-1.2 1.2v12.32c0 .64.48 1.2 1.2 1.2s1.2-.48 1.2-1.2v-6.8c0-2.88 1.52-4.56 4-4.56.64 0 1.12-.48 1.12-1.12s-.56-1.12-1.12-1.12zm14.16 6.08c0-1.36-.4-2.72-1.12-3.84-1.12-1.52-2.96-2.4-4.88-2.24-4.08 0-6.4 2.72-6.4 7.44 0 4.88 2.32 7.52 6.72 7.52 1.76.08 3.52-.56 4.88-1.76.24-.16.4-.48.4-.8 0-.56-.48-1.04-1.04-1.04-.24 0-.48.08-.64.24-.96.8-2.24 1.28-3.52 1.28-2.64 0-4.32-1.76-4.4-4.56h8.64c1.36-.16 1.36-1.44 1.36-2.24zm-5.92-4c2.4 0 3.6 1.36 3.68 4h-7.76c.24-2.56 1.68-4 4.08-4zm13.76 4.16c-1.76-.64-3.2-1.12-3.2-2.4 0-1.44 1.6-1.6 2.48-1.6 1.2-.08 2.4.4 3.2 1.2.4.4 1.12.4 1.52 0 .24-.24.32-.48.32-.8 0-.24-.08-.48-.24-.72-1.2-1.36-2.96-2.16-4.72-2-2.96 0-4.8 1.52-4.8 3.84 0 2.88 2.56 3.76 4.8 4.56 1.68.56 3.2 1.04 3.2 2.32 0 1.68-1.92 2-3.04 2-1.36.08-2.72-.48-3.68-1.44-.24-.24-.48-.32-.8-.4-.56 0-1.04.48-1.04 1.04 0 .24.08.48.24.72 1.36 1.6 3.28 2.4 5.28 2.4 3.36 0 5.36-1.6 5.36-4.16-.16-2.96-2.64-3.76-4.88-4.56zm13.84-6.32c-1.44-.08-2.88.56-3.84 1.68v-7.84c0-.64-.48-1.2-1.2-1.2-.64 0-1.12.48-1.12 1.2v19.84c0 .64.48 1.2 1.12 1.2s1.2-.48 1.2-1.2v-7.44c0-2.72 1.28-4.08 3.84-4.08s3.44 1.12 3.44 3.84v7.68c0 .64.48 1.2 1.2 1.2.64 0 1.12-.48 1.12-1.2v-8.08c0-3.68-1.92-5.6-5.76-5.6zm25.12.24c-.48 0-.96.32-1.12.8l-3.36 9.44-2.72-9.44c-.24-.64-.88-.88-1.52-.72-.32.08-.56.4-.72.72l-2.72 9.44-3.2-9.52c-.16-.48-.56-.8-1.12-.72-.64 0-1.12.48-1.12 1.12 0 .16 0 .32.08.48l4.48 12.24c.16.48.56.8 1.12.8.48 0 .96-.32 1.12-.8l2.64-8.96 2.64 8.96c.16.48.64.8 1.12.8s.96-.32 1.12-.8l4.48-12.24c.08-.16.08-.32.08-.48-.16-.64-.64-1.12-1.28-1.12zm8.48-.24c-4.24 0-6.56 2.64-6.56 7.44s2.32 7.52 6.56 7.52 6.56-2.64 6.56-7.52-2.32-7.44-6.56-7.44zm0 12.8c-2.8 0-4.24-1.76-4.24-5.36s1.44-5.36 4.24-5.36 4.16 1.84 4.16 5.36-1.36 5.44-4.16 5.36zm15.52-12.72c-1.6-.08-3.04.64-4 1.92v-.64c0-.64-.48-1.2-1.12-1.2s-1.2.48-1.2 1.12v12.32c0 .64.48 1.2 1.12 1.2s1.2-.48 1.2-1.12v-6.8c0-2.88 1.52-4.56 4-4.56.64 0 1.12-.48 1.12-1.12s-.48-1.12-1.12-1.12zm8.88 6.08 4.8-3.84c.32-.24.48-.56.48-.96 0-.64-.48-1.12-1.12-1.12-.32 0-.56.08-.8.32l-6.88 5.6v-12.32c0-.64-.48-1.2-1.12-1.2s-1.2.48-1.2 1.12v19.84c0 .64.48 1.2 1.12 1.2s1.2-.48 1.2-1.12v-4.8l1.6-1.28 5.28 6.72c.24.32.64.56.96.56.64 0 1.12-.48 1.12-1.12 0-.24-.08-.56-.24-.72zm13.12.16c-1.76-.64-3.2-1.12-3.2-2.4 0-1.44 1.6-1.6 2.48-1.6 1.2-.08 2.4.4 3.2 1.2.24.24.48.32.8.32.56-.08.96-.56.96-1.12 0-.24-.08-.48-.24-.72-1.2-1.36-2.96-2.16-4.72-2-2.96 0-4.8 1.52-4.8 3.84 0 2.88 2.56 3.76 4.8 4.56 1.68.56 3.2 1.04 3.2 2.32 0 1.68-1.92 2-3.04 2-1.36.08-2.72-.48-3.68-1.44-.24-.24-.48-.32-.8-.4-.56 0-1.04.48-1.04 1.04 0 .24.08.48.24.72 1.36 1.52 3.28 2.32 5.36 2.24 3.36 0 5.36-1.6 5.36-4.16-.16-2.8-2.64-3.6-4.88-4.4z"/><g transform="translate(0 4.571)"><path d="m.16 15.829c.4 2.88 1.76 5.52 3.84 7.6l4.64-4.64c0-4.88 2.56-9.36 6.8-11.84z" opacity=".2"/><path d="m8.64 18.789-4.64 4.64c2.08 2.08 4.72 3.44 7.6 3.84l8.8-15.28a13.61 13.61 0 0 1 -11.76 6.8z" opacity=".2"/><path d="m10.48 25.589c-1.2-2.08-1.84-4.4-1.84-6.8l-4.64 4.64c2.08 2.08 4.72 3.44 7.6 3.84-.4-.56-.8-1.12-1.12-1.68z" opacity=".1"/><path d="m26 .869-10.56 6.08c-4.24 2.4-9.36 2.4-13.6 0-1.2 2.08-1.84 4.48-1.84 6.88 0 .64.08 1.36.16 2 .56.4 1.12.8 1.68 1.12 2.08 1.2 4.4 1.84 6.8 1.84l17.6-17.6c-.08-.08-.16-.16-.24-.32z" opacity=".2"/><path d="m1.84 16.949c2.08 1.2 4.4 1.84 6.8 1.84 0-4.88 2.56-9.36 6.8-11.84l-15.28 8.8c.56.48 1.12.88 1.68 1.2z" opacity=".1"/><path d="m1.84 6.949c-1.2 2.08-1.84 4.48-1.84 6.88 0 .64.08 1.36.16 2l15.28-8.88c-4.16 2.48-9.36 2.48-13.6 0z" opacity=".5"/><path d="m26.24 1.189c-.24-.24-.4-.4-.64-.56-.48-.32-1.12-.48-1.68-.48h-10.32c-4.88 0-9.36 2.64-11.76 6.8 4.24 2.4 9.36 2.4 13.6 0-4.24 2.4-6.8 6.96-6.8 11.84 4.88 0 9.36-2.56 11.84-6.8l6.08-10.56c-.16-.08-.24-.16-.32-.24z" opacity=".2"/><path d="m15.44 6.949 10.56-6.08c-.16-.08-.24-.24-.4-.32l-23.76 6.4c4.24 2.48 9.44 2.48 13.6 0z" opacity=".3"/><path d="m23.84.149h-10.24c-4.88 0-9.36 2.64-11.76 6.8l23.76-6.4c-.56-.24-1.12-.4-1.76-.4z" opacity=".78"/><path d="m20.48 11.989 6.08-10.56c-.08-.08-.16-.16-.24-.32l-17.6 17.6c0 2.4.64 4.72 1.84 6.8.32.56.72 1.12 1.12 1.68.64.08 1.28.16 1.92.16 2.4 0 4.72-.64 6.8-1.84-2.4-4.16-2.4-9.36.08-13.52z" opacity=".2"/><path d="m8.64 18.789c0 2.4.64 4.72 1.84 6.8.32.56.72 1.12 1.12 1.68l8.8-15.28a13.61 13.61 0 0 1 -11.76 6.8z" opacity=".1"/><path d="m20.48 11.989-8.8 15.28c.64.08 1.28.16 2 .16 2.4 0 4.72-.64 6.8-1.84-2.48-4.24-2.48-9.44 0-13.6z" opacity=".2"/><path d="m26.8 1.829c-.24-.4-.48-.72-.8-.96l-10.56 6.08c-4.24 2.4-6.8 6.96-6.8 11.84 4.88 0 9.36-2.56 11.84-6.8-2.4 4.24-2.4 9.36 0 13.6 4.16-2.4 6.8-6.88 6.8-11.68v-10.32c0-.64-.16-1.2-.48-1.76z" opacity=".2"/><path d="m26 .869-10.56 6.08c-4.24 2.4-6.8 6.96-6.8 11.84l17.6-17.6c-.08-.08-.16-.24-.24-.32z" opacity=".2"/><path d="m8.64 18.789c4.88 0 9.36-2.56 11.84-6.8l6.08-10.56c-.08-.08-.16-.16-.24-.32z" opacity=".4"/><path d="m26.56 1.429-6.08 10.56c-2.4 4.24-2.4 9.36 0 13.6l6.4-23.76c-.16-.16-.24-.24-.32-.4z" opacity=".5"/><path d="m20.48 25.589c4.24-2.4 6.8-6.88 6.8-11.76v-10.24c0-.64-.16-1.2-.48-1.76z" opacity=".34"/></g></g></svg>