<svg height="72" viewBox="0 0 160 72" width="160" xmlns="http://www.w3.org/2000/svg"><path d="M76.711 41.943c.66-.37 1.633-.657 2.82-.914-.348-.844-.45-1.55-.94-1.829.304-1.405-.241-4.586 0-5.486.093-.086.38-.32.94-.914 1.358.275 1.771 1.712 1.878 1.829-.107-.117.25 3.114 0 3.657.466.622.563 1.128.94 1.828.551-.352 1.311-.63 1.88-.914-.037-1.281.079-2.557.939-4.571.34-2.063 2.19-3.639 3.758-3.658 1.46-.017 2.81.375 3.759 1.829.465 1.553.04 4.513-1.88 5.486-1.042 1.548-1.688 1.884-1.879 1.828-.38.307-.377.313 0 0-.673.438-1.012.574-.94.915-.034.776.747 1.478 1.88 1.828 4.103-.553 3.749-4.722 5.637-3.657 2.287.587-.622 3.89-.94 4.571-1.252.772-2.044 1.499-4.697 1.829-2.067-.33-4.253-1.433-4.698-3.657-1.006.196-1.787.484-2.819.914.43 1.077.591 2.169.94 2.743-.453.483-.565 1.315-1.88 1.829-.471-.081-1.43-1.305-1.879-1.829.384-.515.296-1.144 0-1.829-.789.221-1.763.511-2.819.915.266 1.026.38 2.081 0 2.743.275.395.164.666-.94.914-.682.185-1.563-.755-1.878-1.829.215-.49-.287-4.28 0-5.485-.569-1.35-1.073-4.89-.94-5.486.2-.39.246-.64.94-.914 1.224-.046 1.767 1.116 1.879.914-.112.202.292 4.13 0 5.486.505-.208.577.234.94.914zm10.336-3.657c2.613-1.379 3.424-4.006 2.819-4.572-1.51-.376-2.373.998-2.819 1.829.146.872.02 1.752 0 2.743.05-.024.075-.036 0 0zM68.255 32.8c.387 1.106.492 3.342.94 7.314.088 5.868 1.008 9.143-.94 9.143-2.114 0-2.083-6.184-1.88-8.228-.363-.642-.475-4.634-.939-7.315-1.822.923-4.17 1.75-4.698 0-.47-1.705 1.462-2.07 6.577-3.657 4.345-1.646 7.025-2.726 7.517-.914.386 1.854-3.592 2.812-6.577 3.657zm-26.309-.914c1.597-2.023 3.15-3.657 5.638-3.657 2.598 0 4.278 2.373 4.698 3.657-.42 1.823-.585 5.968-5.638 7.314.834 2.044 3.15 3.621 4.698 3.657 1.243-.036 2.072-2.614 3.759-1.828.9.688-1.185 4.19-3.759 4.571-2.88-.382-4.732-2.107-7.516-5.486.149.09-.002-.098 0 0 .186 3.429.958 6.238-.94 6.4-2 .169-1.908-3.727-2.819-8.228-.11-3.698-.193-5.225-.94-5.486-.468-.309-1.486.376-2.818.914.793 1.272 1.155 2.775.94 4.572.215 5.515-2.111 7.06-3.76 7.314-2.48-.254-5.54-2.398-5.637-7.314-.068-3.531 1.179-5.428 2.82-6.4.426-.031.895-.226 1.878 0 .502-.226 1.398-.077 2.82 0 .531-.751 3.23-2.536 4.697-2.743.727.207 1.487 1.278 1.88 2.743zm-11.275 2.743c.106.733 0 1.525 0 2.742 0 2.45.564 4.572 1.88 4.572 1.753 0 1.879-2.45 1.879-4.572 0-.624-.163-1.873-.94-2.742.24.074.098.138 0 0-1.273.654-2.018.568-2.819 0zm-12.215-6.4c.528 2.55.8 5.027.94 7.314.403.101.675.014.94 0 2.853-1.026 6.05-2.22 6.577-.914.39 1.023-.516 1.753-5.638 3.657-.5.052-.988.222-1.879 0 1.005 5.567 1.483 10.146 1.88 10.971-.397 1.304-.98 1.665-1.88 1.829-.497.09-1.584 0-1.88-1.829.009-1.322-.414-5.153-.939-9.143-1.058-.207-1.475-.389-1.879-.914-.495-1.038.33-1.743 1.88-2.743-.488-1.957-.731-4.355-.94-6.4-2.727 1.08-4.076 1.433-4.698 0-.488-1.227 1.51-2.26 4.698-3.657-.405-1.162-.475-2.254-.94-2.743.465-3.389 2.093-2.678 1.88-2.743.213.065 1.381-.429 1.878 1.829-.277.56-.177 1.51 0 2.743.341-.144.732-.295.94 0 5.044-2.372 10.542-4.724 11.275-2.743.392 1.102-.031 1.172-7.517 4.571-1.866.248-3.215.815-4.698.915zm25.37 6.4c0 .392 3.098 1.646 4.697 0 1.764-1.846 1.063-4.13-.94-3.658-2.325.644-3.757 4.05-3.757 3.658zm61.073-8.229c.753-.164 1.603-.15 1.88.914.324.342 1.201 9.494 1.879 10.972-.16 1.047 1.312-5.806 3.758-5.486 2.373-.32 3.54 7.282 3.758 6.4.753-3.203 3.52-17.446 3.759-18.286.9-.002 1.085-.055 1.88 0 .474.14 1.116.654.939.915-.267 1.097-1.234 8.079-1.88 9.142.129 1.789-1.336 15.394-3.758 15.543-3.146.146-4.545-8.796-4.698-9.143-.435.347-2.462 7.5-4.698 8.229-1.493-.004-2.077-1.678-2.819-8.229-.71-6.621-1.885-10.955 0-10.971zm20.671.914c-1.248 0-1.879-.614-1.879-.914 0-1.215.631-1.829 1.88-1.829.308 0 .94.614.94 1.829 0 .3-.632.914-.94.914zm-.94 3.657c2.092.171 1.742 2.594 1.88 3.658-.043.572.057 3.078.94 2.742-.028.548.45-.308.94-.914.45-1.087 2.707-6.038 5.637-5.486 2.694.655 2.407 3.632 2.819 3.658-.412-.026 2.641-3.18 4.698-2.743 1.567.058 2.188 1.133 1.879 3.657-.027 1.677-.416 3.174.94 3.657.681-.004 1.665-2.276 1.879-3.657.832-.887 1.648-2.408 2.818-1.829 1.962.72-.3 4.44-.94 5.486-.363.344-1.588 2.767-3.758 2.743-2.17-.025-3.425-1.26-3.758-2.743-.47-1.515.103-3.82 0-4.571-.24-.14-1.448 1.348-2.819 3.657-1.13 1.683-1.599 3.655-2.819 3.657-1.49-.5-1.566-.888-1.879-1.829.327-1.677.733-5.828 0-6.4-.3.086-2.244 3.466-2.819 4.572-.358.68-1.849 2.71-2.818 2.743-1.383.041-2.731-.628-2.82-1.829-.796-1.227-.951-4.017-.939-4.571.021-1.047-.223-3.487.94-3.658z" fill="#7b7194"/></svg>