<svg height="72" viewBox="0 0 160 72" width="160" xmlns="http://www.w3.org/2000/svg"><g fill="#7b7194" fill-rule="evenodd"><path d="M21.836 33.588V13.144h4.277v8.26h6.779v-8.26h4.277v20.444h-4.277V25.21h-6.779v8.378zm18.1-6.994c0-4.151 2.27-7.84 6.691-7.84 4.424 0 6.694 3.689 6.694 7.84 0 3.863-2.036 7.147-6.694 7.147-4.652 0-6.69-3.284-6.69-7.147m3.928-.084c0 2.594.844 3.63 2.762 3.63 1.923 0 2.768-1.008 2.768-3.602 0-2.508-.729-4.152-2.768-4.152-2.033 0-2.762 1.644-2.762 4.124m12.367-4.124H54.34v-3.344h1.892v-3.46h3.664v3.46h3.956v3.344h-3.956v5.218c0 2.332.118 2.737.814 2.737.467 0 .642-.258.642-.748 0-.26-.085-.522-.085-.522H64s.2.522.2 1.27c0 2.365-1.658 3.403-3.722 3.403-2.853 0-4.247-1.47-4.247-4.757v-6.6m18.155 6.773c0-.231-.059-.432-.059-.432h3.027s.23.488.23 1.21c0 2.737-2.79 3.803-5.088 3.803-4.598 0-6.84-3.054-6.84-7.203 0-4.124 2.067-7.784 6.604-7.784 3.407 0 5.587 2.364 5.587 5.507 0 1.583-.437 2.91-.437 2.91h-8.118c.03 2.162 1.078 3.342 3.204 3.342 1.51 0 1.89-.778 1.89-1.353m-4.945-4.728h4.945c.144-.893-.175-2.45-2.326-2.45-2.098 0-2.62 1.7-2.62 2.45m11.173 9.024h3.75V13h-3.75zm6.516-3.777c0-.893.38-1.556.38-1.556h3.402s-.203.374-.203.923c0 1.007.845 1.47 2.154 1.47 1.222 0 2.005-.491 2.005-1.242 0-.979-.93-1.325-2.557-1.729-2.272-.547-4.889-1.094-4.889-4.294 0-2.912 2.211-4.469 5.353-4.469 2.736 0 5.239 1.27 5.239 3.864 0 .748-.265 1.356-.265 1.356h-3.405s.15-.377.15-.75c0-.81-.701-1.27-1.69-1.27-1.337 0-1.892.547-1.892 1.183 0 .75.876 1.124 2.503 1.501 2.3.516 5.007 1.15 5.007 4.408 0 3.113-2.213 4.667-5.618 4.667-3.576 0-5.674-1.643-5.674-4.062M20.339 48.51c0-5.967 3.405-10.81 9.194-10.81 4.537 0 6.809 2.567 6.809 5.593 0 1.24-.293 1.99-.293 1.99h-3.606s.115-.319.115-1.066c0-1.47-.958-2.625-3.083-2.625-3.377 0-4.92 2.825-4.92 6.89 0 3.315 1.165 6.082 4.832 6.082 1.627 0 3.142-.779 3.142-3 0-.431-.086-.805-.086-.805h3.665s.234.635.234 1.556c0 4.352-3.638 6.14-7.101 6.14-6.75 0-8.902-4.525-8.902-9.945m18.124 2.795c0-4.15 2.267-7.839 6.69-7.839 4.422 0 6.694 3.689 6.694 7.84 0 3.863-2.039 7.147-6.693 7.147-4.655 0-6.691-3.284-6.691-7.148m3.926-.083c0 2.591.844 3.629 2.765 3.629 1.92 0 2.763-1.007 2.763-3.602 0-2.508-.727-4.15-2.763-4.15s-2.765 1.642-2.765 4.123m22.205-5.795c.758-1.096 2.005-1.96 3.664-1.96 3.174 0 4.979 2.248 4.979 5.651v9.028h-3.785V49.78c0-1.844-.667-2.681-1.918-2.681-1.253 0-1.923 1.065-1.923 2.622v8.444h-3.75V49.78c0-1.844-.67-2.681-1.98-2.681-1.281 0-1.95 1.093-1.95 2.507v8.56h-3.753V43.753h3.638v1.355h.06c.374-.577 1.48-1.643 3.255-1.643 1.717 0 2.883.893 3.463 1.961m11.696-8.07h3.784v7.348h.056c.727-.72 1.862-1.239 3.202-1.239 4.1 0 5.964 3.487 5.964 7.583 0 4.006-1.892 7.404-5.996 7.404-1.424 0-2.675-.69-3.344-1.554h-.06v1.266H76.29V37.357zm3.812 13.862c0 1.844.667 3.66 2.762 3.66 1.862 0 2.766-1.757 2.766-3.602 0-2.276-.64-4.237-2.766-4.237-2.035 0-2.762 2.134-2.762 4.179zM93.529 37.01a2.596 2.596 0 0 1 2.62 2.594 2.598 2.598 0 0 1-2.62 2.595 2.598 2.598 0 0 1-2.618-2.595 2.596 2.596 0 0 1 2.618-2.594zM91.64 58.165h3.75V43.754h-3.75zm10.488 0h-3.782V43.754h3.782v1.411h.06c.64-.806 1.63-1.699 3.578-1.699 2.763 0 4.627 2.277 4.627 5.158v9.541h-3.841v-8.589c0-1.554-.758-2.477-2.039-2.477-1.076 0-2.385.49-2.385 2.968zm19.32-4.293c0-.232-.059-.433-.059-.433h3.027s.231.49.231 1.211c0 2.737-2.79 3.803-5.089 3.803-4.598 0-6.839-3.055-6.839-7.204 0-4.122 2.067-7.783 6.606-7.783 3.404 0 5.586 2.366 5.586 5.507 0 1.582-.436 2.91-.436 2.91h-8.118c.028 2.16 1.076 3.342 3.201 3.342 1.513 0 1.89-.778 1.89-1.353m-4.944-4.729h4.944c.144-.893-.177-2.449-2.326-2.449-2.095 0-2.618 1.7-2.618 2.45m23.36 9.021h-3.491v-1.21h-.057c-.582.691-1.892 1.5-3.492 1.5-2.762 0-5.732-2.22-5.732-7.524 0-4.438 2.415-7.465 5.53-7.465 1.597 0 2.734.519 3.402 1.239h.056v-7.35h3.784zm-9.194-6.946c0 2.594 1.397 3.632 2.881 3.632 1.512 0 2.706-1.297 2.706-3.574 0-2.767-1.106-4.178-2.706-4.178-1.746 0-2.88 1.383-2.88 4.12z"/></g></svg>