<svg height="72" viewBox="0 0 160 72" width="160" xmlns="http://www.w3.org/2000/svg"><path d="M20 12v3.284h23.358V12zm26.667 0v3.284h33.286S76.553 12 72.05 12zm39.816 0v3.284h20.137L105.425 12zm34.575 0l-1.196 3.284h19.955V12h-18.76zM20 18.387v3.284h23.358v-3.284zm26.667.004v3.28h37.149s-.434-2.528-1.191-3.28zm39.816 0v3.28h22.345l-1.106-3.28h-21.24zm32.184 0l-1.106 3.28h22.256v-3.28zm-91.955 6.382v3.289h10.116v-3.289zm26.668 0v3.289h10.115v-3.289zm19.954 0v3.289H83.45s.642-1.737.642-3.289zm19.861 0v3.289h17.935l-1.196-3.289zm23.27 0l-1.2 3.289h18.022v-3.289h-16.823zm-89.753 6.392v3.284h10.116v-3.284zm26.668 0v3.284h25.837s2.162-1.685 2.85-3.284zm39.815 0v3.284h10.116V32.62l.642 1.828h18.53l.689-1.828v1.828h10.115v-3.284h-18.989l-1.007 2.781-1.013-2.781H93.195zM26.712 37.55v3.284h10.116V37.55zm26.668 0v3.284h28.687c-.689-1.593-2.85-3.284-2.85-3.284zm39.815 0v3.284h10.116V37.55zm11.953 0l1.224 3.284h13.894l1.162-3.284zm18.024 0v3.284h10.115V37.55zm-96.46 6.387v3.284h10.116v-3.284zm26.668 0v3.284h10.115v-3.284zm19.954 0v3.284h10.758c0-1.55-.642-3.284-.642-3.284zm19.861 0v3.284h10.116v-3.284zm14.25 0l1.186 3.284h9.314l1.196-3.284zm15.727 0v3.284h10.115v-3.284zm-102.99 6.387v3.288h23.359v-3.288H20.183zm26.485 0v3.288h35.958c.757-.753 1.19-3.288 1.19-3.288H46.668zm39.999 0v3.288h16.645v-3.288zm23.08 0l1.22 3.288h4.739l1.143-3.288h-7.101zm13.426 0v3.288H140v-3.288zm-102.99 6.391V60h23.359v-3.284H20.183zm26.485 0v3.28H72.05c4.503 0 7.903-3.28 7.903-3.28zm39.999 0V60h16.645v-3.284H86.666zm25.392 0l1.172 3.275.201.004 1.19-3.279zm11.114 0V60H140v-3.284h-16.828z" fill="#7b7194"/></svg>