<svg height="72" viewBox="0 0 160 72" width="160" xmlns="http://www.w3.org/2000/svg"><path d="m20 12v3.284h23.358v-3.284zm26.667 0v3.284h33.286s-3.4-3.284-7.903-3.284zm39.816 0v3.284h20.137l-1.195-3.284zm34.575 0-1.196 3.284h19.955v-3.284h-18.76zm-101.058 6.387v3.284h23.358v-3.284zm26.667.004v3.28h37.149s-.434-2.528-1.191-3.28zm39.816 0v3.28h22.345l-1.106-3.28h-21.24zm32.184 0-1.106 3.28h22.256v-3.28zm-91.955 6.382v3.289h10.116v-3.289zm26.668 0v3.289h10.115v-3.289zm19.954 0v3.289h10.116s.642-1.737.642-3.289zm19.861 0v3.289h17.935l-1.196-3.289zm23.27 0-1.2 3.289h18.022v-3.289h-16.823zm-89.753 6.392v3.284h10.116v-3.284zm26.668 0v3.284h25.837s2.162-1.685 2.85-3.284zm39.815 0v3.284h10.116v-1.829l.642 1.828h18.53l.689-1.828v1.828h10.115v-3.284h-18.989l-1.007 2.781-1.013-2.781h-19.083zm-66.483 6.385v3.284h10.116v-3.284zm26.668 0v3.284h28.687c-.689-1.593-2.85-3.284-2.85-3.284zm39.815 0v3.284h10.116v-3.284zm11.953 0 1.224 3.284h13.894l1.162-3.284zm18.024 0v3.284h10.115v-3.284zm-96.46 6.387v3.284h10.116v-3.284zm26.668 0v3.284h10.115v-3.284zm19.954 0v3.284h10.758c0-1.55-.642-3.284-.642-3.284zm19.861 0v3.284h10.116v-3.284zm14.25 0 1.186 3.284h9.314l1.196-3.284zm15.727 0v3.284h10.115v-3.284zm-102.99 6.387v3.288h23.359v-3.288h-23.358zm26.485 0v3.288h35.958c.757-.753 1.19-3.288 1.19-3.288h-37.147zm39.999 0v3.288h16.645v-3.288zm23.08 0 1.22 3.288h4.739l1.143-3.288h-7.101zm13.426 0v3.288h16.828v-3.288zm-102.99 6.391v3.285h23.359v-3.284h-23.358zm26.485 0v3.28h25.383c4.503 0 7.903-3.28 7.903-3.28zm39.999 0v3.285h16.645v-3.284h-16.645zm25.392 0 1.172 3.275.201.004 1.19-3.279zm11.114 0v3.285h16.828v-3.284h-16.828z" fill="#7b7194"/></svg>