<svg height="72" viewBox="0 0 160 72" width="160" xmlns="http://www.w3.org/2000/svg"><g fill="#7b7194" transform="translate(0 22)"><path d="m52.7625154 16.3472256 6.1750925 8.6589396h-2.6298397l-5.0012331-7.1733662-2.687053 2.6574599v4.5159063h-2.1425401v-20.00493215h2.1425401v12.80394575l6.8872997-7.0885327h3.0007398z"/><path d="m60.5376079 10.7166461h2.1425401v14.2895191h-2.1425401z"/><path d="m76.208 20.518h2.312c-.828 2.762-3.373 4.715-6.745 4.715-4.287 0-7.031-3.287-7.031-7.373 0-4.085 2.744-7.374 7.031-7.374 3.372 0 5.919 1.943 6.745 4.715h-2.312a4.309 4.309 0 0 0 -4.143-2.772c-3.172 0-5.173 2.486-5.173 5.431 0 2.946 2 5.43 5.173 5.43a4.305 4.305 0 0 0 4.143-2.772z"/><path d="m86.7077682 16.3472256 6.1731196 8.6589396h-2.6298397l-5.0012331-7.1733662-2.687053 2.6574599v4.5159063h-2.1425401v-20.00493215h2.1425401v12.80394575l6.8872997-7.0885327h3.0007398z"/><path d="m104.655 14.546h-2.17c-.17-1.23-1.085-2.23-3.486-2.23-2.23 0-3.401.658-3.401 2.058 0 3.431 9.517 1.202 9.517 6.574 0 2.762-2.287 4.287-5.83 4.287-3.974 0-6.059-2.2-6.203-4.715h2.23c.143 1.458 1.229 2.886 4.002 2.886 1.17 0 3.658-.315 3.658-2.259 0-3.57-9.517-1.341-9.517-6.571 0-2.565 1.914-4.088 5.601-4.088 3.77 0 5.343 1.973 5.599 4.058z"/><path d="m108.638224 25.0061652v-12.4034525h-2.915906v-1.8860666h2.915906v-5.11565966h2.144513v5.11565966h3.284834v1.8860666h-3.284834v12.4034525z"/><path d="m126.51 13.03v-2.313h2.143v14.29h-2.143v-2.287c-1.057 1.542-2.744 2.515-5.115 2.515-4.173 0-6.917-3.287-6.917-7.373 0-4.085 2.744-7.374 6.917-7.374 2.371 0 4.058 1 5.115 2.543zm.115 4.832c0-2.945-1.776-5.43-4.944-5.43-3.169 0-5.059 2.485-5.059 5.43 0 2.946 1.887 5.43 5.059 5.43s4.944-2.486 4.944-5.43zm6.648-7.145v2.229c1.03-1.381 2.431-2.458 4.745-2.458 2.944 0 5.722 2.144 5.722 6.203v8.315h-2.149v-8.258c0-2.603-1.657-4.317-4-4.317-2.345 0-4.318 1.776-4.318 4.34v8.231h-2.142v-14.285zm24.419 2.314v-8.031h2.142v20.005h-2.142v-2.285c-1.058 1.542-2.745 2.515-5.116 2.515-4.173 0-6.917-3.287-6.917-7.373 0-4.085 2.744-7.374 6.917-7.374 2.371 0 4.058 1 5.116 2.543zm.114 4.831c0-2.945-1.775-5.43-4.946-5.43-3.17 0-5.058 2.485-5.058 5.43 0 2.946 1.888 5.43 5.058 5.43s4.946-2.486 4.946-5.43z"/><circle cx="61.609" cy="1.428" r="1.428"/><path d="m.197 2.878 23.233 23.249a3.378 3.378 0 0 0 4.877-4.676l-12.43-11.817h9.993a3.378 3.378 0 1 0 0-6.756zm.987 18.536a3.378 3.378 0 1 0 4.776 4.776l7.694-7.694-4.776-4.77z"/></g></svg>