<svg width="160" height="72" viewBox="0 0 160 72" xmlns="http://www.w3.org/2000/svg"><title>customer/maersk</title><g fill="#7B7194" fill-rule="evenodd"><path d="M43.61 43.969V27.924h4.36l5.52 11.902 5.441-11.902h4.173V43.97h-3.593v-9.184l-4.148 9.184h-3.83l-4.197-9.137v9.137H43.61"/><path d="M68.966 43.969H64.74l7.263-16.045h5.206l7.314 16.045H80.35l-1.44-3.21-8.548.026-1.395 3.184zm8.597-6.21l-2.971-6.628-2.904 6.627h5.875z" fill-rule="nonzero"/><path d="M86.239 43.969V27.924h15.644v3.207H90.017v3.212h10.173v3.183H90.017v3.236h11.866v3.207H86.239"/><path d="M104.918 43.969V27.924h13.392s.863-.095 1.774.773c.817.777.681 1.917.681 1.917v5.392s.161.99-.803 1.837c-.931.816-2.285.64-2.285.64l3.116 5.486H116.7l-3.093-5.487h-4.858v5.487h-3.831zm3.832-8.695h8.214v-4.142h-8.214v4.142z" fill-rule="nonzero"/><path d="M127.654 43.969h-1.297s-1.139-.022-1.785-.69c-.748-.776-.722-1.665-.722-1.665v-2.096h3.804v1.244h8.083v-3.237h-9.276s-1.144.114-1.848-.595c-.783-.786-.698-1.733-.698-1.733v-4.813s-.017-.809.54-1.528c.799-1.034 2.033-.93 2.033-.93l10.597.007s.865-.06 1.71.744c.928.876.714 1.81.714 1.81v1.915h-3.776v-1.269h-8.083v3.21h9.244s1.085-.078 1.848.776c.767.855.767 1.811.767 1.811v4.53s.124.888-.602 1.695c-.824.92-1.933.815-1.933.815h-9.323m15.48-.006v-16.05h3.88v6.42l7.394-6.42h5.26l-8.82 7.455 9.136 8.595h-5.44l-7.53-7.302v7.302h-3.88M31.47 18.016c2.618-.01 4.304 2.008 4.312 4.087l.007 27.585c-.012 2.234-1.875 4.095-4.338 4.101H4.311C1.786 53.785 0 51.813 0 49.672v-27.57C0 19.8 2.047 17.989 4.324 18l27.149.016h-.001zM20.503 30.958h-.004l-2.618-10.283h-.071l-2.635 10.246-10.064-4.503c-.032.039-.073.06-.052.108l6.975 8.237-.07.068-10.12 4.625c0 .03 0 .058.04.088l11.133.028L10.5 50.128c.041.03.062.03.103 0l7.22-8.473h.093l7.295 8.46.071-.059-2.55-10.519 11.153-.01c.07-.048.019-.087-.032-.116l-10.158-4.659 6.953-8.25c-.03-.009-.053-.067-.093-.047l-10.054 4.503z"/></g></svg>