<svg height="72" viewBox="0 0 160 72" width="160" xmlns="http://www.w3.org/2000/svg"><path d="M132.435 41.473c-3.776 0-5.101.67-5.101 3.099 0 1.58 1.033 2.652 2.419 2.652 1.015 0 2.042-.517 2.85-1.387l.09-4.364zm-7.078-10.67c2.03-.835 3.776-1.189 5.7-1.189 3.513 0 5.914 1.265 6.737 3.529.27.832.395 1.466.37 3.65l-.131 6.819v.36c0 2.18.37 3.016 1.967 4.164l-2.9 3.258c-1.277-.52-2.413-1.435-2.944-2.463-.402.4-.855.789-1.268 1.07-1.012.713-2.49 1.112-4.2 1.112-4.65 0-7.175-2.305-7.175-6.344 0-4.767 3.391-6.992 10.032-6.992.4 0 .776 0 1.229.046v-.829c0-2.265-.453-3.02-2.461-3.02-1.732 0-3.788.83-6.026 2.3l-2.326-3.808c1.108-.677 1.924-1.07 3.396-1.663zm-8.572-4.52v15.824c0 3.496.046 3.966.381 4.52.192.36.633.555 1.09.555.207 0 .331 0 .62-.073l.93 3.17c-.93.355-2.073.554-3.26.554-2.327 0-4.204-1.069-4.856-2.77-.417-1.033-.485-1.671-.485-4.566V28.338c0-2.655-.081-4.277-.292-6.11l5.58-1.228c.224 1.11.292 2.42.292 5.283zm-11.33 0v15.824c0 3.496.043 3.966.371 4.52.207.36.648.555 1.104.555.196 0 .313 0 .61-.073l.933 3.17c-.934.355-2.077.554-3.26.554-2.33 0-4.204-1.069-4.852-2.77-.41-1.033-.499-1.671-.499-4.566V28.338c0-2.655-.071-4.277-.275-6.11L105.173 21c.196 1.11.282 2.42.282 5.283zM95.51 29.57v20.788h-5.462V30.405l5.461-.835zm.64-5.113a3.223 3.223 0 0 1-.984 2.33 3.406 3.406 0 0 1-2.396.956c-1.828 0-3.332-1.46-3.332-3.286 0-1.823 1.554-3.295 3.424-3.295a3.28 3.28 0 0 1 3.288 3.295zm-9.238 5.591v3.65l-9.22 12.97h9.58l-1.307 3.69H70.601v-3.291l9.815-13.288H71.42v-3.73h15.49zM57.106 35.64c-.375 1.075-.573 2.5-.573 4.525 0 2.335.245 4.089.69 5.117.492 1.111 1.721 1.666 2.772 1.666 2.366 0 3.378-2.061 3.378-6.86 0-2.74-.367-4.528-1.098-5.443-.524-.67-1.375-1.067-2.358-1.067-1.308 0-2.37.79-2.811 2.062zm9.822-2.932c1.667 1.902 2.412 4.123 2.412 7.414 0 3.49-.823 5.875-2.622 7.855-1.582 1.744-3.667 2.818-6.88 2.818-5.675 0-9.377-4.127-9.377-10.51 0-6.39 3.74-10.636 9.377-10.636 2.975 0 5.298.995 7.09 3.058zm-41.987-3.013c.364.546.524 1.033.727 2.06 1.422-1.35 3.175-2.06 5.088-2.06 1.727 0 3.145.546 4.243 1.66.296.28.581.64.826.993 1.91-1.903 3.62-2.653 5.911-2.653 1.631 0 3.178.475 4.122 1.265 1.18.992 1.553 2.184 1.553 4.96v14.438H42.11V36.953c0-2.43-.295-2.9-1.717-2.9-1.019 0-2.451.676-3.627 1.707v14.598h-5.173V37.143c0-2.534-.378-3.129-1.895-3.129-1.009 0-2.405.508-3.58 1.545v14.799H20.78V36.193c0-2.932-.207-4.2-.78-5.195l4.941-1.304z" fill="#7b7194" fill-rule="evenodd"/></svg>