<svg height="72" viewBox="0 0 160 72" width="160" xmlns="http://www.w3.org/2000/svg"><path d="m10.917 49.333c-1.417-1.041-2.167-2.833-2.167-5.208 0-1.208-.167-2.042-.375-1.875-.708.417-3.792-.292-5.167-1.208-.708-.5-1.75-1.542-2.25-2.292-.958-1.417-.958-1.542-.958-15.708 0-12.417.083-14.375.667-14.917 1-1.042 7.666-.958 8.958.125l1 .792v31.333h2.917c3.75-.042 6.041-1 7-3.042.625-1.25.708-3.208.708-15 0-16.083-.417-14.875 5.417-14.875 5.625 0 5.166-1.166 5.333 14.459.083 7.291-.083 14.416-.292 15.833-.791 5.042-3.583 8.667-8.291 10.875-2 .917-3.084 1.125-6.959 1.25-3.75.125-4.75 0-5.541-.542zm10.916-2.291c3-1.125 5.917-3.709 7.084-6.25.833-1.792.875-2.667 1-16.542l.125-14.708h-6.709v12.833c0 7.5-.166 13.417-.416 14.333-.542 1.875-2.167 3.875-3.875 4.792-.792.375-2.834.75-5 .875l-3.667.208.292 1.917c.291 2.125.75 2.875 2.041 3.417 1.375.625 6.459.125 9.125-.875zm-13.083-22.084v-15.416h-7.083v13.166c0 15 .041 15.334 3.041 16.792.959.5 2.25.875 2.917.875h1.125zm27.125 16.792c-.917-.75-.917-.792-.792-16.167l.125-15.416 1.042-2.084c1.375-2.791 4.125-5.458 7-6.75 1.917-.875 3.208-1.125 6.667-1.291 6.333-.25 7.75.625 8.291 5.291l.25 2.042 1.959.25c2.625.333 4.583 1.708 5.75 4 .875 1.792.916 2.167.916 15.708 0 16.375.459 15.125-5.5 15.125-5.75 0-5.333 1.375-5.333-17.291v-15.625h-2.917c-3.375 0-5.333.666-6.583 2.291-.917 1.125-.917 1.417-.917 14.625 0 9.042-.166 13.792-.458 14.5-.583 1.25-1.417 1.5-5.417 1.5-2.416 0-3.416-.166-4.083-.708zm7.875-14.917c0-12.708.042-13.666.833-15.166 1.584-3.125 4.334-4.375 9.042-4.125l2.625.125v-1.542c0-3.625-1.583-4.75-6.167-4.375-5.375.458-9.416 2.708-11.666 6.458l-1.125 1.959-.125 15.125-.125 15.083h6.708zm21.25.125c0-9.875-.167-13.708-.542-14.458-.75-1.5-2.416-2.583-4.375-2.833l-1.75-.25v30.958h6.667zm8.75-7.166c0-9.625 0-9.792.917-10.417 1.208-.833 4.583-.875 6.166-.042 1.834.959 2.959 3.5 3 6.625.042 4.917-2.541 7.792-6.416 7.167l-1.584-.25v3.333c0 3.292 0 3.334-1.041 3.334h-1.042zm5.875 1.416c1.458-.791 2.125-2.791 1.958-5.875-.208-3.666-1.25-4.958-3.958-4.958h-1.792v5.375c0 3.917.125 5.458.542 5.583.875.375 2.417.292 3.25-.125zm31.292-1.958.125-10.333.958-.125c.875-.125.917-.042.917 3.25v3.416l2.75-3.375c1.666-2.041 3.083-3.375 3.541-3.375 1.334 0 .917 1-1.958 4.334l-2.75 3.208 1.625 1.917c.875 1.041 2 2.375 2.5 3 1.167 1.333 1.208 2.125.125 2.125-.5 0-1.708-1.125-3.208-3l-2.417-2.959-.125 6.084-.125 6.125h-2.042zm-23.084 3.542c-1.5-.542-1.708-2.25-.208-1.834 2.625.792 3.958.75 4.833-.125 1.584-1.583 1.167-2.416-1.5-2.958-3.25-.708-5.125-2.5-5.125-5 0-1.375.25-2 1.209-2.958 1.041-1.042 1.541-1.209 3.5-1.209 1.25 0 2.875.209 3.583.459l1.375.5-.167 5.583-.125 5.625-1.375 1.208c-1.458 1.292-3.708 1.584-6 .709zm5.5-9.292c0-3.125 0-3.125-1.125-3.208-3.375-.167-4.291.375-4.291 2.583 0 1.708.708 2.542 2.708 3.25 2.625.917 2.708.792 2.708-2.625zm6.375 9.333-1.375-.416v-13.709h2.084v6.209c0 5.291.083 6.25.666 6.458 1.167.458 2.875.25 3.834-.417.875-.583.916-.916.916-6.458v-5.792h2.125l-.125 6.25c-.125 5.792-.208 6.292-1.041 7.167-1.084 1.042-4.792 1.417-7.084.708z" fill="#7b7194" transform="matrix(1 0 0 -1 20 60.815)"/></svg>