<svg height="72" viewBox="0 0 160 72" width="160" xmlns="http://www.w3.org/2000/svg"><g fill="#7b7194" transform="translate(0 19)"><path d="m30.281.178c2.075 0 3.734 1.6 3.675 3.674v30.281h-30.282a3.693 3.693 0 0 1 -3.674-3.673v-26.608a3.655 3.655 0 0 1 3.674-3.674zm-13.333 28.622c6.46 0 11.674-5.156 11.674-11.615 0-1.54-.474-3.555-.474-3.022 0 4.326-4.03 7.881-8.296 7.289-3.26-.474-6.874-3.437-6.222-8.119.651-4.681 4.74-6.518 7.644-6.103 4.682.651 5.689 4.266 4.267 5.926-1.422 1.955-4.326.77-4.326-1.423 0-1.244.83-1.777.948-1.896-2.43-.711-4.86 1.185-5.215 3.674-.355 2.726 1.66 4.86 3.911 5.156 4.148.592 6.578-2.786 6.578-5.748 0-3.497-3.733-7.467-10.43-7.467-6.4.06-11.674 5.215-11.674 11.674 0 6.4 5.215 11.674 11.615 11.674z"/><path d="m109.63 9.956c-6.341 0-11.26 4.859-11.26 11.259 0 6.34 4.978 11.26 11.26 11.26 6.34 0 11.259-4.86 11.259-11.26s-4.978-11.26-11.26-11.26m0 3.912c4.03 0 7.23 3.318 7.23 7.348 0 3.97-3.2 7.348-7.23 7.348-4.029 0-7.229-3.378-7.229-7.348 0-4.03 3.2-7.348 7.23-7.348m-52.208 14.696c-4.03 0-7.23-3.378-7.23-7.348 0-4.03 3.2-7.348 7.23-7.348s7.23 3.318 7.23 7.348c0 3.97-3.2 7.348-7.23 7.348zm7.111-17.956v2.43h-.177c-1.66-1.837-4.326-3.022-7.112-3.022-6.34 0-11.259 4.86-11.259 11.26 0 6.34 4.978 11.258 11.26 11.258 2.785 0 5.451-1.244 7.11-3.022h.178v2.37h4.03v-21.274zm18.963 17.956c-4.03 0-7.23-3.378-7.23-7.348 0-4.03 3.2-7.348 7.23-7.348s7.23 3.318 7.23 7.348c0 3.97-3.2 7.348-7.23 7.348zm7.17-28.089v12.563h-.177c-1.66-1.837-4.326-3.022-7.111-3.022-6.341 0-11.26 4.86-11.26 11.26 0 6.34 4.978 11.258 11.26 11.258 2.785 0 5.452-1.244 7.11-3.022h.179v2.37h4.089v-31.407zm-48.354 25.778c-1.304 1.422-3.14 2.37-5.274 2.37-4.03 0-7.23-3.378-7.23-7.348 0-4.03 3.2-7.348 7.23-7.348 2.074 0 3.911.889 5.274 2.311l1.956-3.674c-1.956-1.6-4.445-2.548-7.23-2.548-6.34 0-11.26 4.86-11.26 11.26 0 6.34 4.979 11.258 11.26 11.258 2.785 0 5.274-.948 7.23-2.548zm-30.934-16.296c-6.341 0-11.26 4.859-11.26 11.259 0 6.34 4.978 11.26 11.26 11.26 6.34 0 11.259-4.86 11.259-11.26.06-6.4-4.918-11.26-11.26-11.26m0 3.912c4.03 0 7.23 3.318 7.23 7.348 0 3.97-3.2 7.348-7.23 7.348-4.029 0-7.229-3.378-7.229-7.348.06-4.03 3.26-7.348 7.23-7.348" transform="translate(39.111 .593)"/></g></svg>