<svg height="72" viewBox="0 0 160 72" width="160" xmlns="http://www.w3.org/2000/svg"><path d="m95.61 32.657a.32.32 0 0 0 -.368-.197l-.048.014c-.455.097-.806.07-1.052-.094-.35-.232-.519-.758-.519-1.604v-7.653c0-2.989-1.806-4.505-5.371-4.505-3.192 0-5.694 1.49-5.694 3.393 0 .979.605 1.686 1.497 1.792.583.07 1.14-.191 1.543-.611.785-.817.685-1.79-.268-2.832.563-.58 1.56-.924 2.697-.924 1.852 0 2.643 1.084 2.643 3.624v1.934c-.434.132-.84.257-1.585.43-1.5.347-3.558.81-5.11 1.655-1.281.694-1.932 1.788-1.932 3.252 0 1.595 1.062 3.457 4.052 3.457 1.675 0 3.175-.783 4.715-2.464.134 1.746.804 2.402 2.432 2.402.783 0 1.409-.181 2.153-.536a.418.418 0 0 0 .214-.533zm-4.94-2.338c-.363.5-1.55 1.985-3.03 1.985-1.999 0-2.419-1.384-2.419-2.545 0-1.909 1.483-2.792 5.449-3.759zm38.322 3.534c-4.237 0-7.432-3.275-7.432-7.617 0-4.252 3.334-7.712 7.432-7.712 4.148 0 7.4 3.33 7.4 7.586 0 4.783-3.84 7.743-7.4 7.743zm-.16-14.512c-1.83 0-3.934.776-3.934 6.83 0 4.62 1.382 6.864 4.223 6.864 2.718 0 3.932-2.115 3.932-6.863 0-4.596-1.382-6.831-4.221-6.831zm-65.336-.544c0 3.524-.88 5.463-5.381 5.463h-2.386v-10.643h2.483c4.656 0 5.284 2.619 5.284 5.18zm-7.767 11.979v-5.537h2.161c3.225 0 5.677-.672 7.29-2 1.688-1.389 2.042-3.147 2.042-4.378 0-5.062-4.952-6.124-9.107-6.124l.017-.002h-8.425a.345.345 0 0 0 -.346.342v.022-.006c0 .173.106.328.272.387.75.273 2.789-.109 2.789 2.047v15.246c0 1.109-.499 1.892-2.777 2.104a.342.342 0 0 0 -.317.339v.053c0 .188.154.34.345.34h9.002c.19 0 .346-.152.346-.34v-.047a.348.348 0 0 0 -.323-.34c-2.475-.196-2.972-.951-2.972-2.11v-5.522l.003 5.527zm18.306-12.26c-3.918 0-7.107 3.5-7.107 7.802 0 4.355 2.989 7.515 7.107 7.515 3.46 0 5.144-2.04 6.108-3.572a.34.34 0 0 0 -.094-.456l-.046-.032a.35.35 0 0 0 -.472.068c-1.272 1.574-2.386 2.484-4.309 2.484-2.432 0-5.03-1.652-5.03-6.293v-.032c-.005-.205 0-.486.008-.748h9.951a.05.05 0 0 0 .05-.049l.007-.079c.142-1.9-.405-3.611-1.537-4.811-1.106-1.175-2.709-1.795-4.636-1.795zm-3.78 5.758c.328-3.175 1.583-4.915 3.555-4.915.986 0 1.718.27 2.235.825.711.76 1.012 2.137.894 4.09zm45.026.17h-.003c-2.721-.755-3.781-1.516-3.781-2.72 0-1.37 1.103-2.365 2.622-2.365 1.788 0 2.554.843 4.441 3.956l.025.04c.01.017.026.026.026.026h.277c.19 0 .346-.153.346-.341v-4.473c0-.028-.023-.05-.023-.05h-.37a.344.344 0 0 0 -.267.124l-.603.722c-.76-.412-1.998-.846-3.24-.846-3.127 0-5.31 1.904-5.31 4.632 0 2.562 1.722 3.52 4.694 4.313 2.887.78 3.912 1.591 3.912 3.098 0 1.677-1.646 2.43-2.815 2.43-2.175 0-3.094-.797-5.178-4.49l-.025-.044c-.01-.017-.026-.028-.026-.028h-.28a.345.345 0 0 0 -.346.342v5.012c0 .029.023.051.052.051h.354a.35.35 0 0 0 .245-.1l.952-.94c1.115.684 2.783 1.04 3.865 1.04 1.626 0 2.963-.508 3.866-1.469.806-.857 1.25-2.07 1.25-3.418 0-2.334-1.264-3.554-4.66-4.502zm-16.467 7.366c0 .772-.199 1.025-1.446 1.103a.343.343 0 0 0 -.324.34c0 .188.156.34.347.34h6.157c.188 0 .34-.15.34-.334a.34.34 0 0 0 -.327-.34c-1.425-.068-1.794-.296-1.794-1.11v-8.907c1.014-1.663 1.741-2.534 2.972-2.796-.06.21-.098.461-.098.666 0 1.082.766 1.838 1.862 1.838 1.077 0 1.831-.756 1.831-1.838 0-1.023-.648-2.218-2.475-2.218-1.497 0-2.927.846-4.157 2.872v-2.291a.419.419 0 0 0 -.432-.416l-3.88.103a.34.34 0 0 0 -.335.34v.049c0 .168.123.312.288.335 1.294.18 1.472.787 1.47 1.417v10.847zm42.59-13.1a.34.34 0 0 1 .239.097.33.33 0 0 1 .107.243l.013 2.54s1.264-2.98 5.365-2.98h.037c2.557 0 4.023 1.608 4.023 4.412v8.774c0 .772.2 1.026 1.446 1.103.181.01.323.16.323.34 0 .187-.156.34-.345.34h-5.533a.344.344 0 0 1 -.03-.687c1.005-.085 1.165-.336 1.165-1.096v-7.918c0-2.616-.754-3.633-2.687-3.633-1.308 0-2.377 1.125-3.045 2.069 0 0-.341.421-.71 1.217l.04 8.263c0 .76.157 1.011 1.133 1.096a.346.346 0 0 1 -.03.689h-5.5a.344.344 0 0 1 -.344-.341c0-.18.143-.328.323-.34 1.246-.078 1.444-.33 1.444-1.102v-10.83c0-.632-.178-1.242-1.478-1.424a.34.34 0 0 1 -.29-.337v-.05c0-.186.148-.335.338-.341l3.996-.103zm-108.09-15.424c9.752 5.481 12.022 17.77 5.237 30.203-5.961 10.928-18.981 15.596-28.684 10.033-9.704-5.566-11.598-21.09-7.427-30.024 6.054-12.973 20.1-16.27 30.875-10.212zm-.225 9.428-.028-.027c-3.667-4.087-8.761-4.343-11.983-4.264-3.565.09-6.124 1.25-8.218 2.327-1.827.94-3.475 2.556-4.144 3.358-.426.512-1.15 1.568-.761 2.515.32.786 1.52.734 1.973.399.45-.335.93-.845 1.55-1.352 2.751-2.246 5.19-3.66 10.875-3.66 5.684 0 8.764 3.496 8.764 6.617 0 3.122-1.496 5.241-4.322 6.625-1.398.685-2.893 1.214-4.776 1.286.137-3.026.208-5.89.208-5.89.04-2.177.414-3.95-1.065-4.242-1.475-.293-4.193-.005-4.244 1.657-.066-.247.28 13.616.343 13.889l.025.318c.029.352.155.662.378.91.223.244.585.395.91.432.05.004.1.009.152.009.309 0 .744-.055 1.183-.176.553-.156 1.11-.422 1.432-.836.163-.21.297-.413.366-.788.048-.255.141-1.865.166-2.332 2.989-.027 6.027-.58 8.339-1.97 2.915-1.75 4.669-4.39 5.049-7.242.33-2.502-.263-5.552-2.172-7.563zm-12.329 22.952a2.335 2.335 0 0 0 -.966-.449 1.789 1.789 0 0 0 -.348-.035c-.634 0-1.257.345-1.663.923a2.19 2.19 0 0 0 -.389 1.61c.058.356.192.665.392.894.223.258.565.456.99.576.244.067.495.103.745.103h.002c.548 0 1.04-.163 1.423-.467.445-.36.686-.868.681-1.437a2.214 2.214 0 0 0 -.867-1.718z" fill="#7b7194" transform="translate(3 13)"/></svg>