<svg height="72" viewBox="0 0 160 72" width="160" xmlns="http://www.w3.org/2000/svg"><g fill="#7b7194"><path d="M117.65 16.105h3.453v-1.279H109.07v1.279h3.471v24.332h-3.471v1.267h12.032v-1.267h-3.453z"/><path d="M139.547 41.704v-1.262h-3.688V15.834c5.636-.282 6.6.93 7.322 6.073h1.238l-.44-7.08h-21.406l-.436 7.08h1.27c.729-5.143 1.68-6.355 7.326-6.073v24.608h-3.69v1.262zm-32.765-25.609v-1.269h-9.861l-5.796 18.383-5.596-18.383h-9.826v1.269h3.455v24.348l-3.732-.004c-3.467.085-3.52-2.886-3.505-3.5.048-6.553-1.407-8.938-7.653-9.908v-.087c3.725-.397 8.487-1.462 8.487-6.003 0-5.59-5.19-6.115-9.567-6.115h-12.89v1.269h3.451v24.344h-3.45v1.265h12.025v-1.265h-3.451V27.605c2.217-.09 4.716.48 5.843 1.456 1.042.888 1.603 3.647 1.603 6.977 0 4.11 2.11 5.666 6.16 5.666h11.588v-1.26h-3.374V16.512h.083l7.959 25.192h1.352l8.009-25.192h.12v23.93h-3.443v1.261h12.009v-1.26h-3.446V16.094h3.446zM58.873 26.349V16.095h3.482c3.565 0 4.882.9 4.882 5.42 0 3.605-1.479 4.834-5.083 4.834zM29.021 13.232H25.03v3.26h-6.647v6.8h-5v9.984h5v6.8h6.647v3.25h3.518c8.223 0 15.477-6.672 15.477-15.009 0-8.28-6.768-15.084-15.004-15.084M53.75 49.836c0-.224-.12-.328-.326-.328h-.638v-1.284h1.498c.669 0 .951.285.951.957v5.835c0 1.58.994 2.523 2.508 2.523s2.51-.943 2.51-2.538v-5.82c0-.672.296-.957.963-.957h1.485v1.284h-.639c-.207 0-.324.104-.324.328v5.239c0 2.297-1.59 3.865-3.98 3.865-2.404 0-4.008-1.568-4.008-3.865zm9.956 7.642h.637c.21 0 .328-.12.328-.328v-8.925h1.35l4.662 6.671c.386.567.876 1.433.876 1.433h.029s-.104-.836-.104-1.433v-5.715c0-.672.282-.956.965-.956h1.485v1.284h-.639c-.208 0-.326.103-.326.327v8.926h-1.336l-4.675-6.67c-.385-.57-.861-1.435-.861-1.435h-.03s.09.851.09 1.435v5.713c0 .673-.284.957-.951.957h-1.499v-1.284z"/><path d="M75.545 57.478h1.024v-7.969h-1.024v-1.284h3.46v1.284H77.98v7.969h1.024v1.284h-3.459z"/><path d="M80.621 49.836c-.089-.269-.238-.328-.488-.328h-.208v-1.284h.83c.742 0 .996.166 1.232.866l2.3 6.493c.195.567.403 1.446.403 1.446h.03s.191-.88.4-1.446l2.3-6.493c.252-.7.49-.866 1.232-.866h.831v1.284h-.206c-.27 0-.401.06-.49.328l-3.298 8.926h-1.573l-3.296-8.926zm10.689-.328h-.963v-1.283h6.161c.667 0 .949.283.949.955v1.328h-1.352v-.672c0-.224-.118-.328-.326-.328h-2.983v3.299h3.665v1.283h-3.665v3.06c0 .207.119.327.327.327h3.056c.21 0 .33-.12.33-.328v-.672h1.363v1.328c0 .673-.28.956-.95.956h-4.66c-.67 0-.952-.283-.952-.956zm12.06 3.777c1.128 0 1.795-.732 1.795-1.911 0-1.18-.667-1.866-1.767-1.866h-1.959v3.777h1.93zm-3.416-3.777h-.964v-1.283h4.571c1.841 0 3.133 1.164 3.133 3.09 0 1.76-1.142 2.627-1.885 2.79v.03s.269.133.444.477l1.263 2.522c.15.314.386.344.742.344h.195v1.284h-.73c-.815 0-1.113-.104-1.452-.791l-1.426-2.834c-.267-.494-.462-.569-1.04-.569h-1.366v4.194h-1.485v-9.253zm9.397 6.806s1.07 1.269 2.627 1.269c.98 0 1.798-.599 1.798-1.568 0-2.21-5.063-1.866-5.063-5.149 0-1.582 1.38-2.82 3.356-2.82 1.114 0 2.982.508 2.982 1.94v.866h-1.364v-.494c0-.553-.787-.956-1.618-.956-1.13 0-1.841.627-1.841 1.418 0 2.135 5.047 1.657 5.047 5.118 0 1.614-1.249 3.001-3.325 3.001-2.228 0-3.474-1.568-3.474-1.568l.875-1.058z"/><path d="M116.831 57.478h1.024v-7.969h-1.024v-1.284h3.46v1.284h-1.025v7.969h1.025v1.284h-3.46z"/><path d="M125.013 49.508h-2.11c-.207 0-.325.104-.325.328v.672h-1.32V49.12c0-.67.22-.895.89-.895h7.215c.666 0 .89.224.89.895v1.388h-1.32v-.672c0-.224-.12-.328-.328-.328h-2.109v9.253h-1.484v-9.253zm9.472 4.657l-2.657-4.284c-.193-.314-.328-.373-.64-.373h-.296v-1.284h.682c.713 0 .994.105 1.411.807l1.589 2.657c.342.58.638 1.18.638 1.18h.03s.281-.6.637-1.18l1.576-2.657c.413-.702.71-.807 1.408-.807h.683v1.284h-.284c-.31 0-.458.059-.65.373l-2.644 4.284v4.596h-1.483z"/></g></svg>