<svg height="72" viewBox="0 0 160 72" width="160" xmlns="http://www.w3.org/2000/svg"><g fill="#7b7194" transform="translate(12 11)"><path d="m9.51041735 25.9534413h3.45228155v1.2785485h-12.03203663v-1.2785485h3.47130233v-24.3320342h-3.47130233v-1.26762072h12.03203663v1.26762072h-3.45228155z" transform="matrix(1 0 0 -1 96.14 31.058)"/><g transform="matrix(1 0 0 -1 .223 49.232)"><path d="m127.324 18.528v1.262h-3.688v24.608c5.636.282 6.6-.93 7.322-6.073h1.238l-.44 7.08h-21.406l-.436-7.08h1.27c.729 5.143 1.68 6.355 7.326 6.073v-24.608h-3.69v-1.262z"/><path d="m94.559 44.137v1.269h-9.861l-5.796-18.383-5.596 18.383h-9.826v-1.269h3.455v-24.348l-3.732.004c-3.467-.085-3.52 2.886-3.505 3.5.048 6.553-1.407 8.938-7.653 9.908v.087c3.725.397 8.487 1.462 8.487 6.003 0 5.59-5.19 6.115-9.567 6.115h-12.89v-1.269h3.451v-24.344h-3.45v-1.265h12.025v1.265h-3.451v12.834c2.217.09 4.716-.48 5.843-1.456 1.042-.888 1.603-3.647 1.603-6.977 0-4.11 2.11-5.666 6.16-5.666h11.588v1.26h-3.374v23.932h.083l7.959-25.192h1.352l8.009 25.192h.12v-23.93h-3.443v-1.261h12.009v1.26h-3.446v24.349h3.446zm-47.909-10.254v10.254h3.482c3.565 0 4.882-.9 4.882-5.42 0-3.605-1.479-4.834-5.083-4.834z"/><path d="m16.798 47h-3.991v-3.26h-6.647v-6.8h-5v-9.984h5v-6.8h6.647v-3.25h3.518c8.223 0 15.477 6.672 15.477 15.009 0 8.28-6.768 15.084-15.004 15.084"/><path d="m41.527 10.396c0 .224-.12.328-.326.328h-.638v1.284h1.498c.669 0 .951-.285.951-.957v-5.835c0-1.58.994-2.523 2.508-2.523s2.51.943 2.51 2.538v5.82c0 .672.296.957.963.957h1.485v-1.284h-.639c-.207 0-.324-.104-.324-.328v-5.239c0-2.297-1.59-3.865-3.98-3.865-2.404 0-4.008 1.568-4.008 3.865z"/><path d="m51.483 2.754h.637c.21 0 .328.12.328.328v8.925h1.35l4.662-6.671c.386-.567.876-1.433.876-1.433h.029s-.104.836-.104 1.433v5.715c0 .672.282.956.965.956h1.485v-1.284h-.639c-.208 0-.326-.103-.326-.327v-8.926h-1.336l-4.675 6.67c-.385.57-.861 1.435-.861 1.435h-.03s.09-.851.09-1.435v-5.713c0-.673-.284-.957-.951-.957h-1.499v1.284z"/><path d="m0 1.36597059h1.02440781v7.96907245h-1.02440781v1.28401236h3.45907465v-1.28401236h-1.02440781v-7.96907245h1.02440781v-1.28401235h-3.45907465z" transform="translate(63.322 1.388)"/><path d="m68.398 10.396c-.089.269-.238.328-.488.328h-.208v1.284h.83c.742 0 .996-.166 1.232-.866l2.3-6.493c.195-.567.403-1.446.403-1.446h.03s.191.88.4 1.446l2.3 6.493c.252.7.49.866 1.232.866h.831v-1.284h-.206c-.27 0-.401-.06-.49-.328l-3.298-8.926h-1.573l-3.296 8.926z"/><path d="m79.087 10.724h-.963v1.283h6.161c.667 0 .949-.283.949-.955v-1.328h-1.352v.672c0 .224-.118.328-.326.328h-2.983v-3.299h3.665v-1.283h-3.665v-3.06c0-.207.119-.327.327-.327h3.056c.21 0 .33.12.33.328v.672h1.363v-1.328c0-.673-.28-.956-.95-.956h-4.66c-.67 0-.952.283-.952.956z"/><path d="m91.147 6.947c1.128 0 1.795.732 1.795 1.911 0 1.18-.667 1.866-1.767 1.866h-1.959v-3.777h1.93zm-3.416 3.777h-.964v1.283h4.571c1.841 0 3.133-1.164 3.133-3.09 0-1.76-1.142-2.627-1.885-2.79v-.03s.269-.133.444-.477l1.263-2.522c.15-.314.386-.344.742-.344h.195v-1.284h-.73c-.815 0-1.113.104-1.452.791l-1.426 2.834c-.267.494-.462.569-1.04.569h-1.366v-4.194h-1.485v9.253z"/><path d="m97.128 3.918s1.07-1.269 2.627-1.269c.98 0 1.798.599 1.798 1.568 0 2.21-5.063 1.866-5.063 5.149 0 1.582 1.38 2.82 3.356 2.82 1.114 0 2.982-.508 2.982-1.94v-.866h-1.364v.494c0 .553-.787.956-1.618.956-1.13 0-1.841-.627-1.841-1.418 0-2.135 5.047-1.657 5.047-5.118 0-1.614-1.249-3.001-3.325-3.001-2.228 0-3.474 1.568-3.474 1.568l.875 1.058z"/><path d="m0 1.36597059h1.02440781v7.96907245h-1.02440781v1.28401236h3.46043329v-1.28401236h-1.02576645v-7.96907245h1.02576645v-1.28401235h-3.46043329z" transform="translate(104.608 1.388)"/><path d="m112.79 10.724h-2.11c-.207 0-.325-.104-.325-.328v-.672h-1.32v1.388c0 .67.22.895.89.895h7.215c.666 0 .89-.224.89-.895v-1.388h-1.32v.672c0 .224-.12.328-.328.328h-2.109v-9.253h-1.484v9.253z"/><path d="m122.262 6.067-2.657 4.284c-.193.314-.328.373-.64.373h-.296v1.284h.682c.713 0 .994-.105 1.411-.807l1.589-2.657c.342-.58.638-1.18.638-1.18h.03s.281.6.637 1.18l1.576 2.657c.413.702.71.807 1.408.807h.683v-1.284h-.284c-.31 0-.458-.059-.65-.373l-2.644-4.284v-4.596h-1.483z"/></g></g></svg>