<svg width="160" height="72" viewBox="0 0 160 72" xmlns="http://www.w3.org/2000/svg"><title>customer/salesforce</title><g transform="translate(30)" fill="none" fill-rule="evenodd"><path d="M42.081 8.75c3.25-3.386 7.773-5.486 12.775-5.486 6.65 0 12.452 3.709 15.541 9.213a21.476 21.476 0 0 1 8.784-1.867c11.994 0 21.718 9.809 21.718 21.908 0 12.1-9.724 21.908-21.718 21.908A21.56 21.56 0 0 1 74.903 54c-2.72 4.853-7.905 8.133-13.856 8.133a15.8 15.8 0 0 1-6.946-1.6c-2.758 6.489-9.184 11.038-16.673 11.038-7.8 0-14.447-4.935-16.998-11.857-1.115.237-2.27.36-3.456.36C7.688 60.075.16 52.47.16 43.086A17.016 17.016 0 0 1 8.568 28.37a19.448 19.448 0 0 1-1.61-7.77c0-10.792 8.76-19.54 19.566-19.54 6.344 0 11.983 3.016 15.557 7.69" fill="#7B7194"/><path d="M14.75 37.625c-.062.165.024.199.044.228.19.137.382.236.575.347 1.028.545 1.998.705 3.012.705 2.067 0 3.35-1.1 3.35-2.87v-.033c0-1.636-1.448-2.23-2.807-2.66l-.177-.057c-1.024-.333-1.908-.62-1.908-1.294v-.036c0-.577.516-1.002 1.317-1.002.89 0 1.946.296 2.626.672 0 0 .2.129.273-.065.04-.103.385-1.03.42-1.13.04-.11-.03-.19-.1-.233-.776-.472-1.85-.795-2.96-.795l-.207.001c-1.892 0-3.212 1.143-3.212 2.78v.034c0 1.727 1.457 2.286 2.821 2.677l.22.067c.995.306 1.851.568 1.851 1.269v.034c0 .64-.557 1.117-1.455 1.117-.349 0-1.46-.008-2.662-.767-.145-.084-.23-.146-.341-.214-.06-.037-.207-.101-.272.094l-.407 1.13z" fill="#FFF"/><path d="M45.003 37.625c-.063.165.023.199.043.228.19.137.382.236.575.347 1.028.545 1.998.705 3.012.705 2.067 0 3.35-1.1 3.35-2.87v-.033c0-1.636-1.448-2.23-2.807-2.66l-.177-.057c-1.024-.333-1.908-.62-1.908-1.294v-.036c0-.577.516-1.002 1.317-1.002.89 0 1.946.296 2.626.672 0 0 .2.129.273-.065.04-.103.385-1.03.42-1.13.04-.11-.03-.19-.1-.233-.776-.472-1.85-.795-2.96-.795l-.207.001c-1.892 0-3.212 1.143-3.212 2.78v.034c0 1.727 1.457 2.286 2.821 2.677l.22.067c.995.306 1.853.568 1.853 1.269v.034c0 .64-.559 1.117-1.457 1.117-.349 0-1.46-.008-2.662-.767-.145-.084-.23-.143-.34-.214-.037-.024-.212-.091-.273.094l-.407 1.13z" fill="#FFF"/><path d="M65.655 34.159c0 1-.187 1.788-.554 2.344-.363.552-.913.82-1.679.82-.768 0-1.314-.267-1.672-.82-.361-.555-.545-1.344-.545-2.344 0-1 .184-1.786.545-2.337.358-.545.904-.81 1.672-.81.766 0 1.316.265 1.68.81.366.551.553 1.338.553 2.337m1.725-1.854a4.151 4.151 0 0 0-.785-1.499A3.795 3.795 0 0 0 65.27 29.8c-.526-.245-1.15-.37-1.848-.37-.7 0-1.323.125-1.85.37a3.813 3.813 0 0 0-1.326 1.007 4.22 4.22 0 0 0-.785 1.499 6.558 6.558 0 0 0-.252 1.854c0 .661.084 1.285.252 1.854.171.57.434 1.076.787 1.498.351.422.798.759 1.324.999.528.24 1.15.361 1.85.361.699 0 1.32-.122 1.848-.361.527-.24.973-.577 1.325-1 .352-.42.616-.925.785-1.497.17-.57.254-1.194.254-1.854 0-.66-.085-1.285-.254-1.854" fill="#FFF" fill-rule="nonzero"/><path d="M81.545 37.056c-.058-.168-.22-.105-.22-.105a3.96 3.96 0 0 1-.802.23 6.236 6.236 0 0 1-.946.067c-.835 0-1.498-.248-1.973-.739-.476-.49-.743-1.284-.74-2.358.002-.977.238-1.712.661-2.271.42-.557 1.06-.843 1.915-.843.711 0 1.254.082 1.822.261 0 0 .136.06.2-.119.152-.419.264-.719.424-1.18.046-.13-.066-.186-.106-.202a6.726 6.726 0 0 0-1.15-.29 8.634 8.634 0 0 0-1.295-.087c-.725 0-1.37.123-1.923.37a3.983 3.983 0 0 0-1.39 1.006 4.28 4.28 0 0 0-.839 1.498 5.966 5.966 0 0 0-.281 1.857c0 1.431.386 2.588 1.148 3.434.763.85 1.91 1.282 3.405 1.282.884 0 1.791-.18 2.443-.436 0 0 .125-.06.07-.206l-.423-1.17z" fill="#FFF"/><path d="M84.563 33.2c.082-.555.235-1.017.472-1.377.357-.547.902-.847 1.669-.847.766 0 1.273.302 1.636.847.24.36.346.842.387 1.377h-4.164zm5.807-1.22a3.626 3.626 0 0 0-.747-1.367c-.376-.405-.744-.687-1.108-.845a4.27 4.27 0 0 0-1.673-.339c-.73 0-1.391.122-1.928.375-.538.252-.99.597-1.344 1.026a4.207 4.207 0 0 0-.791 1.515 6.554 6.554 0 0 0-.257 1.864c0 .673.09 1.3.266 1.864.178.569.462 1.07.846 1.484.383.418.877.745 1.468.973.587.227 1.3.345 2.12.343 1.686-.006 2.574-.382 2.94-.584.065-.036.127-.099.049-.28l-.382-1.069c-.057-.16-.22-.1-.22-.1-.417.155-1.011.433-2.396.43-.905-.001-1.577-.268-1.997-.686-.432-.427-.643-1.056-.68-1.943l5.839.006s.153-.003.169-.152c.006-.063.2-1.2-.174-2.516z" fill="#FFF"/><path d="M37.8 33.2c.083-.555.235-1.017.472-1.377.357-.547.902-.847 1.669-.847.766 0 1.272.302 1.637.847.24.36.344.842.386 1.377h-4.165zm5.806-1.22a3.625 3.625 0 0 0-.747-1.367c-.376-.405-.743-.687-1.107-.845a4.27 4.27 0 0 0-1.674-.339c-.727 0-1.39.122-1.927.375-.538.252-.99.597-1.345 1.026a4.207 4.207 0 0 0-.79 1.515 6.605 6.605 0 0 0-.257 1.864c0 .673.089 1.3.265 1.864.178.569.462 1.07.847 1.484.383.418.877.745 1.468.973.587.227 1.3.345 2.12.343 1.686-.006 2.574-.382 2.94-.584.065-.036.126-.099.049-.28l-.38-1.069c-.06-.16-.221-.1-.221-.1-.418.155-1.01.433-2.398.43-.904-.001-1.576-.268-1.997-.686-.432-.427-.642-1.056-.68-1.943l5.84.006s.153-.003.169-.152c.005-.063.2-1.2-.175-2.516z" fill="#FFF"/><path d="M25.178 37.024c-.228-.182-.26-.228-.337-.346-.115-.18-.174-.435-.174-.76 0-.513.17-.882.521-1.13-.004.001.503-.438 1.694-.422.836.012 1.584.135 1.584.135v2.655h.001s-.742.16-1.577.21c-1.188.071-1.716-.344-1.712-.342m2.324-4.103a12.972 12.972 0 0 0-.912-.027c-.5 0-.984.063-1.438.185a3.75 3.75 0 0 0-1.22.565c-.354.254-.64.579-.846.963-.207.385-.311.838-.311 1.346 0 .517.089.966.266 1.333.178.37.435.676.762.913.325.237.725.41 1.19.515.458.105.977.158 1.546.158.598 0 1.195-.049 1.773-.148.573-.097 1.276-.24 1.471-.284.194-.046.41-.105.41-.105.144-.035.133-.19.133-.19l-.003-5.34c0-1.171-.313-2.04-.929-2.578-.612-.536-1.515-.807-2.682-.807-.437 0-1.142.06-1.564.145 0 0-1.276.246-1.8.657 0 0-.116.072-.053.232l.414 1.111c.051.143.19.095.19.095s.045-.018.097-.048c1.123-.611 2.544-.592 2.544-.592.631 0 1.117.126 1.444.377.318.244.48.613.48 1.39v.247c-.502-.071-.962-.113-.962-.113" fill="#FFF" fill-rule="nonzero"/><path d="M74.597 29.912a.157.157 0 0 0-.088-.21c-.099-.038-.595-.143-.978-.167-.734-.045-1.141.079-1.506.242-.361.164-.763.428-.987.728v-.71c0-.1-.07-.178-.168-.178h-1.497c-.097 0-.168.079-.168.178v8.709c0 .098.08.178.178.178h1.534c.098 0 .177-.08.177-.178v-4.351c0-.584.064-1.167.194-1.533.126-.361.298-.651.51-.86.214-.206.457-.35.722-.433.272-.083.571-.11.784-.11.306 0 .641.079.641.079.112.013.175-.056.213-.158.1-.267.384-1.066.439-1.226" fill="#FFF"/><path d="M60.197 25.876a5.018 5.018 0 0 0-.576-.138 4.57 4.57 0 0 0-.794-.06c-1.056 0-1.889.298-2.473.887-.58.585-.975 1.476-1.173 2.649l-.072.394h-1.326s-.16-.005-.195.17l-.217 1.215c-.016.115.034.188.19.188h1.29l-1.31 7.307a9.043 9.043 0 0 1-.35 1.44c-.127.361-.252.633-.407.83-.15.19-.29.33-.534.413-.2.067-.433.099-.687.099a2.58 2.58 0 0 1-.468-.052 1.383 1.383 0 0 1-.316-.102s-.15-.057-.21.093c-.048.125-.392 1.07-.434 1.187-.04.116.017.207.09.234.173.06.3.1.534.156.324.076.599.08.855.08.537 0 1.028-.075 1.434-.222.408-.148.763-.404 1.08-.752.34-.376.553-.769.757-1.307.202-.53.376-1.191.514-1.96l1.316-7.444h1.923s.162.006.195-.17l.218-1.215c.014-.116-.035-.188-.191-.188h-1.867c.01-.041.095-.698.308-1.317.092-.263.265-.476.41-.623.143-.143.308-.245.489-.304a2.03 2.03 0 0 1 .627-.089c.175 0 .349.02.48.047.18.04.25.06.298.074.19.057.216.001.254-.09l.446-1.226c.046-.132-.067-.188-.108-.204" fill="#FFF"/><path d="M34.112 38.504c0 .098-.07.177-.168.177h-1.548c-.098 0-.167-.08-.167-.177V26.043c0-.098.07-.177.167-.177h1.548c.098 0 .168.079.168.177v12.461z" fill="#FFF"/></g></svg>