<?xml version="1.0" encoding="UTF-8"?>
<svg width="160px" height="72px" viewBox="0 0 160 72" version="1.1" xmlns="http://www.w3.org/2000/svg" xmlns:xlink="http://www.w3.org/1999/xlink">
    <!-- Generator: Sketch 52.1 (67048) - http://www.bohemiancoding.com/sketch -->
    <title>customer/salesforce</title>
    <desc>Created with Sketch.</desc>
    <g id="customer/salesforce" stroke="none" stroke-width="1" fill="none" fill-rule="evenodd">
        <g id="salesforce" transform="translate(30.000000, 0.000000)">
            <g id="g3003" transform="translate(50.530290, 36.390742) scale(-1, 1) rotate(-180.000000) translate(-50.530290, -36.390742) translate(0.030290, 0.890742)" fill="#7B7194">
                <path d="M42.0510659,63.1415633 C45.2999863,66.5268121 49.8232183,68.6262691 54.8257522,68.6262691 C61.4757068,68.6262691 67.2775555,64.9181373 70.3671869,59.413341 C73.0521384,60.6130307 76.024097,61.2803222 79.1510394,61.2803222 C91.1450664,61.2803222 100.868867,51.4718544 100.868867,39.3730698 C100.868867,27.2728502 91.1450664,17.4643824 79.1510394,17.4643824 C77.6873032,17.4643824 76.2565728,17.610756 74.8731985,17.8905879 C72.1523711,13.0372978 66.9675878,9.7582416 61.0164954,9.7582416 C58.5252738,9.7582416 56.1689454,10.3336908 54.0709235,11.3568712 C51.3127852,4.86907555 44.8866961,0.320012923 37.3972457,0.320012923 C29.5978276,0.320012923 22.950743,5.25510011 20.3992498,12.1762765 C19.2842272,11.9394956 18.1290236,11.8160825 16.9436843,11.8160825 C7.65756935,11.8160825 0.129372962,19.4217709 0.129372962,28.8054682 C0.129372962,35.0937939 3.5117517,40.5842398 8.53724613,43.5217575 C7.50258551,45.9024815 6.92713626,48.5300315 6.92713626,51.2924749 C6.92713626,62.0839421 15.6880282,70.8319187 26.4938457,70.8319187 C32.8381378,70.8319187 38.4763924,67.815474 42.0510659,63.1415633" id="path3005"></path>
            </g>
            <g id="g3007" transform="translate(17.620888, 34.036944) scale(-1, 1) rotate(-180.000000) translate(-17.620888, -34.036944) translate(13.315782, 29.014320)" fill="#FFFFFF">
                <path d="M1.43503553,1.43503553 C1.37189397,1.27000644 1.4579961,1.23556559 1.4780866,1.20686488 C1.66751129,1.06910147 1.85980605,0.970084018 2.05353584,0.859586282 C3.08102128,0.314272781 4.0511053,0.154983837 5.06567542,0.154983837 C7.13212658,0.154983837 8.41504834,1.25422105 8.41504834,3.02361986 L8.41504834,3.05806071 C8.41504834,4.69400122 6.9670975,5.28810593 5.60811885,5.71718155 L5.43160948,5.77458297 C4.40699411,6.10751121 3.52301222,6.39451832 3.52301222,7.06898502 L3.52301222,7.10486091 C3.52301222,7.68174519 4.03962502,8.10651571 4.84037484,8.10651571 C5.73009687,8.10651571 6.78628302,7.81089839 7.46648986,7.43491908 C7.46648986,7.43491908 7.6659598,7.30576588 7.73914661,7.49949568 C7.7793276,7.60281823 8.12373613,8.52985119 8.15961202,8.63030367 C8.19835798,8.73936637 8.12947627,8.81972836 8.05915953,8.86277943 C7.28280531,9.33490612 6.20939874,9.65778911 5.09868124,9.65778911 L4.89203612,9.65635408 C3.00065929,9.65635408 1.6804266,8.5140658 1.6804266,6.87669026 L1.6804266,6.8422494 C1.6804266,5.11590166 3.13698767,4.55623781 4.50170646,4.16590814 L4.72126689,4.09846147 C5.71574651,3.7927989 6.57246272,3.5301874 6.57246272,2.82989006 L6.57246272,2.79544921 C6.57246272,2.15542337 6.01566894,1.67899157 5.1173367,1.67899157 C4.76862306,1.67899157 3.65647053,1.68616675 2.45534579,2.44530054 C2.3104072,2.52996764 2.22574011,2.59167417 2.11380733,2.65912084 C2.05497088,2.69643176 1.90716222,2.76100836 1.84258562,2.56584353 L1.43503553,1.43503553 Z" id="path3009"></path>
            </g>
            <g id="g3011" transform="translate(47.872873, 34.036944) scale(-1, 1) rotate(-180.000000) translate(-47.872873, -34.036944) translate(43.567766, 29.014320)" fill="#FFFFFF">
                <path d="M1.43503553,1.43503553 C1.37189397,1.27000644 1.4579961,1.23556559 1.4780866,1.20686488 C1.66751129,1.06910147 1.85980605,0.970084018 2.05353584,0.859586282 C3.08102128,0.314272781 4.0511053,0.154983837 5.06567542,0.154983837 C7.13212658,0.154983837 8.41504834,1.25422105 8.41504834,3.02361986 L8.41504834,3.05806071 C8.41504834,4.69400122 6.9670975,5.28810593 5.60811885,5.71718155 L5.43160948,5.77458297 C4.40699411,6.10751121 3.52301222,6.39451832 3.52301222,7.06898502 L3.52301222,7.10486091 C3.52301222,7.68174519 4.03962502,8.10651571 4.84037484,8.10651571 C5.73009687,8.10651571 6.78628302,7.81089839 7.46648986,7.43491908 C7.46648986,7.43491908 7.6659598,7.30576588 7.73914661,7.49949568 C7.7793276,7.60281823 8.12373613,8.52985119 8.15961202,8.63030367 C8.19835798,8.73936637 8.12947627,8.81972836 8.05915953,8.86277943 C7.28280531,9.33490612 6.20939874,9.65778911 5.09868124,9.65778911 L4.89203612,9.65635408 C3.00065929,9.65635408 1.6804266,8.5140658 1.6804266,6.87669026 L1.6804266,6.8422494 C1.6804266,5.11590166 3.13698767,4.55623781 4.50170646,4.16590814 L4.72126689,4.09846147 C5.71574651,3.7927989 6.57389776,3.5301874 6.57389776,2.82989006 L6.57389776,2.79544921 C6.57389776,2.15542337 6.01566894,1.67899157 5.1173367,1.67899157 C4.76862306,1.67899157 3.65647053,1.68616675 2.45534579,2.44530054 C2.3104072,2.52996764 2.22430507,2.5888041 2.11524237,2.65912084 C2.07793145,2.68351644 1.90285711,2.75096311 1.84258562,2.56584353 L1.43503553,1.43503553 Z" id="path3013"></path>
            </g>
            <g id="g3015" transform="translate(63.502424, 34.158636) scale(-1, 1) rotate(-180.000000) translate(-63.502424, -34.158636) translate(58.479799, 28.418494)" fill="#FFFFFF" fill-rule="nonzero">
                <path d="M7.17517765,5.74014212 C7.17517765,4.73992235 6.98862303,3.95208785 6.62125393,3.39529406 C6.25818994,2.84424042 5.70857134,2.57588878 4.94226236,2.57588878 C4.17451836,2.57588878 3.62776982,2.84280538 3.27044597,3.39529406 C2.90881702,3.95065281 2.72513247,4.73992235 2.72513247,5.74014212 C2.72513247,6.73892685 2.90881702,7.52532632 3.27044597,8.07637996 C3.62776982,8.62169346 4.17451836,8.88717503 4.94226236,8.88717503 C5.70857134,8.88717503 6.25818994,8.62169346 6.62268897,8.07637996 C6.98862303,7.52532632 7.17517765,6.73892685 7.17517765,5.74014212 M8.90009035,7.59420802 C8.73075616,8.1667872 8.46670962,8.6719197 8.11512592,9.09238511 C7.76354221,9.51428556 7.3186812,9.85295394 6.79058813,10.0997801 C6.26393009,10.3451711 5.64112467,10.4700192 4.94226236,10.4700192 C4.24196502,10.4700192 3.61915961,10.3451711 3.09250157,10.0997801 C2.56440849,9.85295394 2.11954748,9.51428556 1.76652874,9.09238511 C1.41638007,8.67048467 1.15233353,8.16535216 0.981564302,7.59420802 C0.813665145,7.02449892 0.728998049,6.4016935 0.728998049,5.74014212 C0.728998049,5.07859074 0.813665145,4.45435028 0.981564302,3.88607621 C1.15233353,3.31493207 1.41494503,2.80979957 1.76796377,2.38789912 C2.11954748,1.96599868 2.56584353,1.62876533 3.09250157,1.38911439 C3.62059464,1.14946346 4.24196502,1.02748544 4.94226236,1.02748544 C5.64112467,1.02748544 6.26249505,1.14946346 6.79058813,1.38911439 C7.31724616,1.62876533 7.76354221,1.96599868 8.11512592,2.38789912 C8.46670962,2.80836453 8.73075616,3.31349704 8.90009035,3.88607621 C9.06942455,4.45578532 9.15409164,5.08002577 9.15409164,5.74014212 C9.15409164,6.40025846 9.06942455,7.02449892 8.90009035,7.59420802" id="path3017"></path>
            </g>
            <g id="g3019" transform="translate(78.674630, 34.185755) scale(-1, 1) rotate(-180.000000) translate(-78.674630, -34.185755) translate(74.369524, 28.445613)" fill="#FFFFFF">
                <path d="M7.17517765,2.87007106 C7.11777623,3.03797022 6.95561721,2.97482865 6.95561721,2.97482865 C6.70448599,2.87868127 6.43756938,2.78970907 6.15343235,2.74522297 C5.86499021,2.70073687 5.54784736,2.6777763 5.20774394,2.6777763 C4.37255326,2.6777763 3.70956684,2.92603744 3.23457008,3.4168196 C2.75813829,3.90760175 2.49122168,4.70117639 2.49409175,5.77458297 C2.49696182,6.75184217 2.73230765,7.48658036 3.15564313,8.04624421 C3.57610854,8.603038 4.21613439,8.88861007 5.06998053,8.88861007 C5.78175815,8.88861007 6.32420158,8.80681304 6.89247565,8.6274336 C6.89247565,8.6274336 7.02880402,8.56859715 7.09338062,8.74654155 C7.24405935,9.16557193 7.35599212,9.46549435 7.5167161,9.92614076 C7.56263724,10.056729 7.45070447,10.1126954 7.41052347,10.1284808 C7.18665793,10.2160179 6.65856486,10.3580865 6.25962498,10.4183579 C5.88651574,10.4757594 5.45026494,10.5058951 4.96522293,10.5058951 C4.24052999,10.5058951 3.594764,10.3824821 3.04227532,10.1356559 C2.49122168,9.89026487 2.0234001,9.55159648 1.65316093,9.12969604 C1.28292176,8.70779559 1.0016548,8.20266309 0.813665145,7.63151895 C0.627110526,7.06180984 0.532398181,6.43613435 0.532398181,5.77458297 C0.532398181,4.34385255 0.918422739,3.18721391 1.6804266,2.34054295 C2.44386551,1.49100192 3.59045889,1.05905622 5.08576592,1.05905622 C5.9697478,1.05905622 6.87669026,1.23843566 7.52819639,1.49530702 C7.52819639,1.49530702 7.65304448,1.55557851 7.59851313,1.7005171 L7.17517765,2.87007106 Z" id="path3021"></path>
            </g>
            <g id="g3023" transform="translate(86.715265, 33.917981) scale(-1, 1) rotate(-180.000000) translate(-86.715265, -33.917981) translate(81.692641, 28.895357)" fill="#FFFFFF">
                <path d="M2.87007106,5.74014212 C2.95186808,6.29550087 3.10541689,6.75758231 3.34219775,7.11777623 C3.69952159,7.66452476 4.2448351,7.96444719 5.01114407,7.96444719 C5.77745304,7.96444719 6.28402058,7.66308973 6.64708457,7.11777623 C6.88817054,6.75758231 6.99292813,6.27541037 7.03454417,5.74014212 L2.87007106,5.74014212 Z M8.67765985,6.96135735 C8.53128622,7.51384603 8.16822223,8.07207485 7.93000634,8.32751118 C7.55402703,8.7321912 7.18665793,9.0148932 6.82215891,9.1727471 C6.34572711,9.37652215 5.77458297,9.51141549 5.14890748,9.51141549 C4.41990943,9.51141549 3.75835805,9.38943747 3.22165476,9.13687122 C2.68351644,8.88430496 2.23148025,8.53989644 1.87702647,8.11082081 C1.5225727,7.68318022 1.25565609,7.17374261 1.0863219,6.59542329 C0.915552668,6.01997405 0.829450536,5.39286352 0.829450536,4.73131214 C0.829450536,4.05828048 0.918422739,3.43116995 1.09493211,2.86720099 C1.27287651,2.29892692 1.55701355,1.79809952 1.94160307,1.38337425 C2.32475756,0.965778911 2.81840978,0.638590811 3.40964442,0.410420161 C3.99657395,0.183684548 4.70978661,0.0660116344 5.52919189,0.0674466699 C7.21535864,0.073186812 8.10364563,0.449166121 8.46957969,0.65150613 C8.53415629,0.687382019 8.59586282,0.750523582 8.5183709,0.931338059 L8.13665145,2.00043953 C8.07925003,2.15972847 7.91709102,2.10089202 7.91709102,2.10089202 C7.49949568,1.94590818 6.90539097,1.66751129 5.52058168,1.67038136 C4.61507426,1.67181639 3.94347763,1.938733 3.52301222,2.35632834 C3.09106653,2.78396893 2.88011631,3.41251449 2.84280538,4.29936645 L8.68196495,4.2936263 C8.68196495,4.2936263 8.83551375,4.29649638 8.85129915,4.44574007 C8.85703929,4.50888163 9.05220412,5.64542977 8.67765985,6.96135735 Z" id="path3025"></path>
            </g>
            <g id="g3027" transform="translate(39.952050, 33.917981) scale(-1, 1) rotate(-180.000000) translate(-39.952050, -33.917981) translate(34.929426, 28.895357)" fill="#FFFFFF">
                <path d="M2.87007106,5.74014212 C2.95330312,6.29550087 3.10541689,6.75758231 3.34219775,7.11777623 C3.69952159,7.66452476 4.2448351,7.96444719 5.01114407,7.96444719 C5.77745304,7.96444719 6.28402058,7.66308973 6.64851961,7.11777623 C6.88817054,6.75758231 6.99292813,6.27541037 7.03454417,5.74014212 L2.87007106,5.74014212 Z M8.67622481,6.96135735 C8.52985119,7.51384603 8.16822223,8.07207485 7.93000634,8.32751118 C7.55402703,8.7321912 7.18665793,9.0148932 6.82215891,9.1727471 C6.34572711,9.37652215 5.77458297,9.51141549 5.14890748,9.51141549 C4.42134447,9.51141549 3.75835805,9.38943747 3.22165476,9.13687122 C2.68351644,8.88430496 2.23148025,8.53989644 1.87702647,8.11082081 C1.5225727,7.68318022 1.25565609,7.17374261 1.0863219,6.59542329 C0.916987703,6.01997405 0.829450536,5.39286352 0.829450536,4.73131214 C0.829450536,4.05828048 0.918422739,3.43116995 1.09493211,2.86720099 C1.27287651,2.29892692 1.55701355,1.79809952 1.94160307,1.38337425 C2.32475756,0.965778911 2.81840978,0.638590811 3.40964442,0.410420161 C3.99657395,0.183684548 4.70978661,0.0660116344 5.52919189,0.0674466699 C7.21535864,0.073186812 8.10364563,0.449166121 8.46957969,0.65150613 C8.53415629,0.687382019 8.59586282,0.750523582 8.5183709,0.931338059 L8.13808649,2.00043953 C8.07925003,2.15972847 7.91709102,2.10089202 7.91709102,2.10089202 C7.49949568,1.94590818 6.906826,1.66751129 5.51914665,1.67038136 C4.61507426,1.67181639 3.94347763,1.938733 3.52301222,2.35632834 C3.09106653,2.78396893 2.88011631,3.41251449 2.84280538,4.29936645 L8.68196495,4.2936263 C8.68196495,4.2936263 8.83551375,4.29649638 8.85129915,4.44574007 C8.85703929,4.50888163 9.05220412,5.64542977 8.67622481,6.96135735 Z" id="path3029"></path>
            </g>
            <g id="g3031" transform="translate(26.613251, 34.153756) scale(-1, 1) rotate(-180.000000) translate(-26.613251, -34.153756) translate(22.308145, 28.413614)" fill="#FFFFFF" fill-rule="nonzero">
                <path d="M2.87007106,2.87007106 C2.64190041,3.05232057 2.61032963,3.09824171 2.53283771,3.21591462 C2.41803487,3.39529406 2.35919841,3.65073039 2.35919841,3.97504842 C2.35919841,4.48879114 2.5285326,4.85759527 2.88011631,5.10585641 C2.8758112,5.10442138 3.38237874,5.54354225 4.57345823,5.52775686 C5.41008395,5.51627658 6.15773746,5.39286352 6.15773746,5.39286352 L6.15773746,2.73804779 L6.15917249,2.73804779 C6.15917249,2.73804779 5.41725912,2.57875885 4.58206845,2.5285326 C3.39385903,2.45678083 2.86576595,2.87150609 2.87007106,2.87007106 M5.19339358,6.97283764 C4.95661272,6.99005806 4.64951512,7.00010331 4.28214602,7.00010331 C3.78131862,7.00010331 3.29771165,6.93696175 2.84424042,6.81498373 C2.38789912,6.69300571 1.97747896,6.50214598 1.62446022,6.24957973 C1.27000644,5.99557844 0.984434373,5.67126041 0.777789257,5.28667089 C0.571144141,4.90208137 0.466386547,4.44861014 0.466386547,3.94060756 C0.466386547,3.42399477 0.55535875,2.97482865 0.733303156,2.60745956 C0.911247561,2.23865543 1.16811892,1.93155782 1.49530702,1.69477696 C1.81962505,1.4579961 2.21999996,1.2843568 2.68495148,1.17959921 C3.14272781,1.07484161 3.66221067,1.0217453 4.23048474,1.0217453 C4.82889456,1.0217453 5.42586934,1.0705365 6.00418866,1.16955396 C6.57676783,1.26713637 7.27993524,1.40920489 7.47510007,1.45369099 C7.66882987,1.49961213 7.8840852,1.55844858 7.8840852,1.55844858 C8.02902379,1.59432447 8.0175435,1.74930831 8.0175435,1.74930831 L8.01467343,7.08907552 C8.01467343,8.26006451 7.70183569,9.128261 7.08620544,9.66639933 C6.47344527,10.2031026 5.57080793,10.4743243 4.40412404,10.4743243 C3.9664382,10.4743243 3.26183576,10.4140528 2.83993531,10.3293857 C2.83993531,10.3293857 1.56418873,10.0825596 1.03896572,9.67213947 C1.03896572,9.67213947 0.924162881,9.60038769 0.987304444,9.43966371 L1.40059468,8.32894621 C1.45225596,8.18544266 1.5914544,8.23423387 1.5914544,8.23423387 C1.5914544,8.23423387 1.6359405,8.25145429 1.68760178,8.28159004 C2.8112346,8.89291518 4.23191978,8.87425971 4.23191978,8.87425971 C4.86333541,8.87425971 5.34837742,8.74797659 5.67556552,8.49684537 C5.99414341,8.25288933 6.15630242,7.8840852 6.15630242,7.10629594 L6.15630242,6.85946983 C5.65403999,6.93122161 5.19339358,6.97283764 5.19339358,6.97283764" id="path3033"></path>
            </g>
            <g id="g3035" transform="translate(72.444269, 34.217470) scale(-1, 1) rotate(-180.000000) translate(-72.444269, -34.217470) translate(68.856680, 28.477328)" fill="#FFFFFF">
                <path d="M5.74014212,10.0452487 C5.78462822,10.177272 5.69135091,10.2404135 5.65260495,10.2547639 C5.5535875,10.2935099 5.05706521,10.3982674 4.67391072,10.4226631 C3.94060756,10.4671492 3.53305747,10.3437361 3.16855845,10.180142 C2.8069295,10.016548 2.40511955,9.75250146 2.181254,9.45257903 L2.181254,10.1629216 C2.181254,10.2619391 2.11093726,10.340866 2.01335485,10.340866 L0.516612791,10.340866 C0.419030375,10.340866 0.348713634,10.2619391 0.348713634,10.1629216 L0.348713634,1.45369099 C0.348713634,1.35610858 0.429075623,1.27574659 0.526658039,1.27574659 L2.06071102,1.27574659 C2.15829344,1.27574659 2.23722039,1.35610858 2.23722039,1.45369099 L2.23722039,5.80471872 C2.23722039,6.38877818 2.30179699,6.9714026 2.43095019,7.33733666 C2.55723331,7.69896562 2.72943758,7.98884279 2.94182284,8.19692294 C3.15564313,8.40356806 3.39816413,8.54850665 3.66364571,8.63030367 C3.93486742,8.71353573 4.23478985,8.74080141 4.44717511,8.74080141 C4.75283767,8.74080141 5.08863599,8.66187446 5.08863599,8.66187446 C5.20056876,8.64895914 5.26371032,8.71784084 5.30102125,8.81972836 C5.40147373,9.08664497 5.68561077,9.88595976 5.74014212,10.0452487" id="path3037"></path>
            </g>
            <g id="g3039" transform="translate(55.174763, 33.768597) scale(-1, 1) rotate(-180.000000) translate(-55.174763, -33.768597) translate(48.717103, 24.440866)" fill="#FFFFFF">
                <path d="M11.4802842,17.2204264 C11.2937296,17.2778278 11.1243954,17.3165737 10.9034,17.3581898 C10.6795344,17.3983708 10.4126178,17.4184613 10.1098253,17.4184613 C9.05363916,17.4184613 8.22131855,17.1199739 7.63725909,16.5316093 C7.0560697,15.9461148 6.66143493,15.0549577 6.46340002,13.8825337 L6.39164825,13.4878989 L5.06567542,13.4878989 C5.06567542,13.4878989 4.90495144,13.4936391 4.87051059,13.3185647 L4.65382022,12.1030897 C4.63803483,11.9882868 4.68826107,11.9151 4.84324491,11.9151 L6.13334185,11.9151 L4.82458945,4.60789908 C4.72270193,4.01953452 4.60502901,3.53592754 4.47444078,3.16855845 C4.34672262,2.8069295 4.22187453,2.53570778 4.06689069,2.33767288 C3.917647,2.14824819 3.77701351,2.00761471 3.53305747,1.92581768 C3.3321525,1.85837101 3.09967674,1.82680023 2.84567545,1.82680023 C2.70504197,1.82680023 2.51705232,1.8497608 2.37785387,1.87846151 C2.24009046,1.90572718 2.16690365,1.93586293 2.06214606,1.98034903 C2.06214606,1.98034903 1.91146733,2.03775045 1.85119583,1.88707172 C1.80383966,1.76222363 1.45943113,0.816535216 1.4178151,0.700297338 C1.37763411,0.58405946 1.43503553,0.493652222 1.50822234,0.466386547 C1.6804266,0.406115055 1.80814477,0.36593406 2.04205556,0.309967674 C2.36637359,0.233910791 2.64046537,0.229605685 2.89733673,0.229605685 C3.43404002,0.229605685 3.92482217,0.305662568 4.33093723,0.452036192 C4.73848732,0.599844851 5.09437613,0.856716211 5.41008395,1.20399481 C5.75018737,1.57997412 5.96400766,1.97317385 6.16778271,2.51131218 C6.37012272,3.04227532 6.54376201,3.70239167 6.68152542,4.47157071 L7.99745301,11.9151 L9.92040061,11.9151 C9.92040061,11.9151 10.0825596,11.9093599 10.1155654,12.0858692 L10.3336908,13.2999093 C10.3480412,13.4161472 10.29925,13.4878989 10.1428311,13.4878989 L8.2758499,13.4878989 C8.28589515,13.529515 8.37056224,14.1867612 8.58438254,14.8052616 C8.67622481,15.0678731 8.84842907,15.2816934 8.99336766,15.428067 C9.13687122,15.5715705 9.3019003,15.6734581 9.48271478,15.7322945 C9.66783436,15.792566 9.87878458,15.8212667 10.1098253,15.8212667 C10.2848996,15.8212667 10.4585389,15.8011762 10.5891272,15.7739105 C10.7699416,15.7351646 10.8402584,15.7150741 10.8876146,15.7007237 C11.0784743,15.6433223 11.1043049,15.6992887 11.1416159,15.791131 L11.5879119,17.0166513 C11.633833,17.1486746 11.5204652,17.204641 11.4802842,17.2204264" id="path3041"></path>
            </g>
            <g id="g3043" transform="translate(32.676995, 32.764210) scale(-1, 1) rotate(-180.000000) translate(-32.676995, -32.764210) translate(31.241959, 25.589033)" fill="#FFFFFF">
                <path d="M2.87007106,1.43503553 C2.87007106,1.33745311 2.79975432,1.25852616 2.7021719,1.25852616 L1.15376857,1.25852616 C1.05618615,1.25852616 0.987304444,1.33745311 0.987304444,1.43503553 L0.987304444,13.8968841 C0.987304444,13.9944665 1.05618615,14.0733934 1.15376857,14.0733934 L2.7021719,14.0733934 C2.79975432,14.0733934 2.87007106,13.9944665 2.87007106,13.8968841 L2.87007106,1.43503553 Z" id="path3045"></path>
            </g>
        </g>
    </g>
</svg>