<svg height="72" viewBox="0 0 160 72" width="160" xmlns="http://www.w3.org/2000/svg"><path d="M46.792 43.417l1.652-3.972h-.728c-1.337 2.212-3.5 3.52-5.81 3.52-3.767 0-6.563-3.068-6.563-7.254 0-4.067 2.406-6.708 6.15-6.708 2.625 0 4.619 1.356 5.47 3.782h.753l-.123-3.925h-.63c-.122.12-.244.167-.439.167-.145 0-.389-.047-.63-.096l-1.41-.332a13.16 13.16 0 0 0-3.21-.38c-5.324 0-8.897 3.258-8.897 8.134 0 4.495 3.428 7.444 8.606 7.444 1.02 0 1.676-.046 2.673-.213l1.143-.215c.51-.07.85-.119 1.166-.119.365 0 .535.048.827.167zm8.512-3.495v-3.52h8.75v3.353c0 2.64-.218 2.95-2.187 3.021v.643h7.123v-.643c-2.019-.071-2.213-.357-2.213-3.068v-7.422c0-2.662.22-2.973 2.213-3.02V28.6h-7.123v.668c1.945.046 2.187.38 2.187 2.9v3.164h-8.75v-3.544c0-2.068.341-2.474 2.164-2.52V28.6h-7.025v.668c1.896.046 2.162.403 2.162 2.734v7.944c0 2.427-.266 2.76-2.162 2.831v.643h7.025v-.643c-1.896-.071-2.164-.404-2.164-2.854zm16.564-11.323v.666h.292c1.313 0 1.678.429 1.702 2.045v9.42c-.024 1.594-.39 2.046-1.702 2.046h-.292v.641h6.783v-.64h-.39c-1.288 0-1.677-.453-1.677-2.048l-.024-.737v-7.944l.024-.738c0-1.616.389-2.045 1.678-2.045h.389v-.666zm9.48.12v.643h.462c1.945 0 2.187.285 2.187 2.734v9.039c0 1.26-.533 1.641-2.235 1.641h-.876v.643h8.218c2.064 0 2.988-.167 4.204-.738 1.483-.714 2.382-2.117 2.382-3.805 0-1.784-1.385-3.235-3.768-3.877v-.049c1.824-.357 2.917-1.498 2.917-3.02 0-1.355-.778-2.378-2.187-2.902-1.167-.427-2.456-.594-4.692-.594-.754 0-1.653.024-2.722.047-1.556.072-2.212.095-3.89.238zm16.755 10.8l.607 4.115h.585c.169-.192.363-.264.655-.264.17 0 .365.025.585.072l.704.167c.438.095 1.362.188 1.896.188 3.16 0 5.275-1.641 5.275-4.04 0-.62-.098-1.19-.316-1.665-.511-1.145-1.41-1.977-3.72-3.425-.777-.479-1.482-.954-2.09-1.357-1.093-.787-1.531-1.474-1.531-2.403 0-1.117.972-1.926 2.334-1.926 1.773 0 3.282 1.141 4.01 3.043h.73l-.536-3.687h-.607c-.218.216-.365.287-.68.287-.268 0-.389-.023-1.047-.166a9.732 9.732 0 0 0-2.138-.239c-2.601 0-4.424 1.45-4.424 3.497 0 .83.291 1.618.827 2.26.704.856 1.41 1.402 3.913 3.045.559.357 1.02.689 1.434.999.997.76 1.459 1.546 1.459 2.496 0 1.428-1.24 2.427-3.038 2.427-2.043 0-3.574-1.238-4.157-3.425h-.73zm12.614-11.3l-.439 4.09h.73c.316-2.282.633-2.615 2.431-2.615h3.07v11.035l-.024.406c-.025 1.284-.51 1.641-2.236 1.641h-.536v.641h8.29v-.64h-.536c-1.725 0-2.235-.358-2.26-1.642V29.694h3.07c1.774 0 2.066.308 2.43 2.616h.707l-.438-4.091h-.68c-.147.357-.292.38-1.557.38h-9.762c-1.263 0-1.41-.023-1.58-.38zm16.05 15.198h13.857l.363-3.734h-.68c-.242.833-.316 1.023-.56 1.498-.51.928-1.069 1.165-3.014 1.165h-2.697c-1.24 0-1.41-.237-1.41-1.712v-4.329h3.744c1.313 0 1.604.239 1.799 1.523 0 .072.024.214.047.38h.633v-4.78h-.633l-.023.238c-.195 1.355-.413 1.545-1.849 1.545h-3.718v-5.517h4.254c1.75 0 1.945.142 2.358 1.973.024.119.047.286.12.524h.73l-.218-3.592h-12.422v.666h.609c1.481 0 1.822.38 1.846 2.045v9.823c-.024 1.285-.51 1.642-2.26 1.642h-.875v.642zm16.023-14.698v.643h.341c1.726 0 1.968.285 1.968 2.377v8.992c-.024 1.593-.389 2.045-1.702 2.045h-.607v.643h6.928c1.798 0 2.966-.119 4.253-.453 3.55-.88 6.029-3.877 6.029-7.327 0-2.282-.972-4.327-2.673-5.565a7.126 7.126 0 0 0-2.358-1.093c-1.507-.405-2.844-.547-5.325-.547-1.846 0-3.889.07-6.247.237zm16.283 17.35H29.797a13.86 13.86 0 0 0 .693-4.367c0-4.446-4.27-9.503-4.27-9.503-.995-1.34-5.297-6.842-5.64-7.347-.824-1.207-2.35-2.836-1.836-5.22.459-2.134 2.81-2.957 4.271-2.957 1.751 0 4.004.951 4.808 3.414h.68l-.11-3.037c-2.136-.9-4.471-1.052-5.292-1.052-.82 0-5.781.064-8.742 4.309-3.732 5.356.152 10.45.152 10.45.747 1.153 3.663 4.73 4.62 5.906 0 0 2.192 2.826 2.912 3.975.756 1.204 1.461 2.545 1.455 4.183-.002.435-.032.851-.083 1.252h-3.463l.008-.63c.036-2.967-2.11-8.546-9.763-8.546-6.325 0-10.173 4.694-10.197 9.03-.043 7.703 8.267 9.72 11.514 9.983 8.941.723 15.471-3.06 17.919-8.858h129.64zm-11.275-5.03V29.148c.267 0 .291 0 .704-.024h.997c2.7 0 4.254.452 5.567 1.642 1.24 1.14 1.97 2.996 1.97 5.066 0 2.783-1.022 4.9-2.967 6.041-1.119.642-2.333.88-4.74.88-1.287 0-1.531-.261-1.531-1.712zm-61.102-1.593v-4.043h1.337c3.064 0 4.692 1.26 4.692 3.615 0 2.188-1.386 3.545-3.598 3.545-1.945 0-2.43-.62-2.43-3.117zm1.386-4.686h-1.386v-5.565c.536-.072.948-.095 1.483-.095 2.48 0 3.792 1.046 3.792 3.021 0 1.879-1.118 2.64-3.889 2.64zM23.893 50.17c1.553-1.383 2.48-3.904 2.48-6.85 0-2.485-1.55-4.84-3.45-7.368L18.78 30.6c-1.152-1.502-2.878-4.089-2.878-6.854 0-3.007.743-3.905 1.778-5.227-.92 1.563-1.145 2.22-1.145 4.023 0 3.067 1.71 5.416 3.092 7.159l4.087 5.353c1.668 2.225 3.484 4.657 3.56 7.592.086 3.283-1.483 6.32-3.382 7.524zm-11.718 4.32c-8.518.029-11.013-5.362-11.01-8.266.001-3.367 2.492-7.45 7.31-7.458 4.655-.006 6.135 4 5.544 5.882-.402 1.281-1.328 1.47-1.328 1.47v.943h10.536c-1.343 5.477-7.46 7.416-11.052 7.428zm5.465-8.414h-1.65c1.234-4.967-2.954-7.262-2.954-7.262s5.048 1.567 4.604 7.262z" fill="#7b7194"/></svg>