<svg height="72" viewBox="0 0 160 72" width="160" xmlns="http://www.w3.org/2000/svg"><path d="m20 64.82v-57.82h119.75v43.825c0 7.55-6.244 13.995-14.077 13.995zm13.523-7.577c3.21 0 5.693-2.15 5.693-5.33 0-5.748-8.121-6.726-8.121-8.928v-.42c0-1.06.95-1.73 2.177-1.73h.25c1.342 0 2.233.613 2.233 1.338 0 2.038 3.21 1.984 3.21-.082 0-2.682-2.57-4.464-5.442-4.464h-.25c-2.43 0-5.413 1.782-5.413 4.77v.588c0 5.104 8.121 5.44 8.121 8.928 0 1.395-1.063 2.12-2.458 2.12h-.25c-1.396 0-2.372-.864-2.372-2.374 0-2.144-3.237-2.144-3.237 0 0 3.489 2.597 5.584 5.608 5.584h.25zm13.836 0c2.815 0 5.132-1.956 5.552-4.633v-.305c0-1.005-.81-1.564-1.65-1.564-.694 0-1.42.447-1.558 1.395-.166 1.145-1.145 1.897-2.344 1.897h-.253c-1.284 0-2.371-.948-2.371-2.262v-8.705c0-1.28 1.06-2.232 2.37-2.232h.254c1.2 0 2.178.753 2.344 1.897.139.951.837 1.398 1.559 1.398.812 0 1.649-.561 1.649-1.564 0-.114 0-.196-.028-.28-.365-2.731-2.709-4.658-5.524-4.658h-.253c-3.069 0-5.579 2.344-5.579 5.44v8.704c0 3.099 2.51 5.472 5.579 5.472zm13.7 0c3.096 0 5.582-2.4 5.582-5.5v-8.647c0-3.1-2.486-5.47-5.582-5.47h-.25c-3.07 0-5.582 2.37-5.582 5.47v8.675c0 3.071 2.513 5.472 5.582 5.472zm14.733 0c3.102 0 5.612-2.512 5.612-5.584v-12.416c0-1.087-.81-1.616-1.617-1.616-.812 0-1.618.529-1.618 1.616v12.416a2.374 2.374 0 0 1 -2.377 2.374h-.248c-1.283 0-2.344-1.09-2.344-2.374v-12.416c0-1.087-.809-1.616-1.621-1.616-.807 0-1.619.529-1.619 1.616v12.416c0 3.072 2.513 5.584 5.584 5.584zm16.94-16.242c1.085 0 1.617-.807 1.617-1.614 0-.785-.532-1.591-1.616-1.591h-7.705c-1.063 0-1.616.806-1.616 1.591 0 .807.553 1.614 1.616 1.614h2.232v14.624c0 1.087.812 1.618 1.619 1.618.81 0 1.619-.531 1.619-1.618v-14.625h2.235zm15.772 16.073c1.087 0 1.619-.809 1.619-1.618 0-.78-.532-1.59-1.62-1.59h-4.858l5.107-8.344c.586-.976.978-1.84.978-2.902l.027-.308c0-2.734-2.289-4.685-4.908-4.685h-.087c-2.649 0-4.854 1.981-4.854 4.685v.42c0 1.06.81 1.59 1.62 1.59.806 0 1.618-.53 1.618-1.59v-.309c0-.864.698-1.589 1.616-1.589h.087c.946 0 1.674.753 1.674 1.59v.226c0 .416 0 .722-.336 1.28l-6.336 10.212c-.193.308-.248.646-.248 1.006 0 .95.613 1.926 1.643 1.926zm12.607-3.823c1.087 0 1.619-.807 1.619-1.619 0-.807-.532-1.589-1.619-1.589h-.613v-1.619c0-1.087-.81-1.618-1.622-1.618-.806 0-1.616.558-1.616 1.618v1.62h-2.453l4.6-10.158c.115-.25.142-.477.142-.698 0-.923-.839-1.561-1.673-1.561-.559 0-1.117.278-1.425.975l-5.22 12.057c-.11.248-.165.613-.165.891 0 1.088.697 1.7 1.812 1.7h4.382v2.375c0 1.087.81 1.618 1.616 1.618.812 0 1.622-.531 1.622-1.618v-2.375h.613zm-57.708-10.155c0-1.31-1.03-2.262-2.344-2.262h-.25c-1.314 0-2.344.979-2.344 2.262v8.648c0 1.313 1.063 2.29 2.344 2.29h.25c1.314 0 2.344-.977 2.344-2.263z" fill="#7b7194"/></svg>