<svg width="160" height="72" viewBox="0 0 160 72" xmlns="http://www.w3.org/2000/svg"><title>customer/shopify</title><g transform="translate(0 13)" fill="#7B7194" fill-rule="evenodd"><g transform="translate(45.1 8.59)"><path d="M10.13 16.787c-1.36-.751-2.076-1.36-2.076-2.219 0-1.11.966-1.79 2.505-1.79 1.79 0 3.365.752 3.365.752l1.253-3.83s-1.146-.895-4.546-.895c-4.725 0-8.018 2.72-8.018 6.515 0 2.148 1.54 3.794 3.58 4.975 1.646.931 2.219 1.611 2.219 2.577 0 1.039-.824 1.862-2.363 1.862-2.29 0-4.438-1.181-4.438-1.181l-1.325 3.83s2.005 1.324 5.334 1.324c4.868 0 8.34-2.398 8.34-6.694.071-2.362-1.718-4.009-3.83-5.226zm19.4-8.053c-2.398 0-4.26 1.145-5.727 2.863l-.071-.035L25.808.68h-5.405L15.14 28.35h5.405l1.79-9.45c.715-3.58 2.541-5.763 4.26-5.763 1.216 0 1.681.824 1.681 2.005 0 .752-.071 1.646-.25 2.398l-2.04 10.846h5.404l2.112-11.168c.25-1.181.394-2.577.394-3.544.036-3.114-1.575-4.94-4.367-4.94z"/><path d="M46.174 8.734c-6.514 0-10.845 5.87-10.845 12.42 0 4.188 2.577 7.589 7.445 7.589 6.407 0 10.703-5.727 10.703-12.42.035-3.902-2.22-7.59-7.303-7.59zm-2.648 15.82c-1.862 0-2.613-1.574-2.613-3.543 0-3.114 1.61-8.16 4.546-8.16 1.932 0 2.541 1.646 2.541 3.256 0 3.365-1.61 8.448-4.474 8.448zm23.839-15.82c-3.651 0-5.727 3.221-5.727 3.221h-.072l.322-2.9h-4.796c-.25 1.97-.68 4.94-1.11 7.196l-3.758 19.83h5.405l1.503-8.018h.107s1.11.716 3.186.716c6.371 0 10.524-6.515 10.524-13.101 0-3.687-1.611-6.944-5.584-6.944zM62.21 24.662c-1.396 0-2.219-.787-2.219-.787l.895-5.047c.644-3.365 2.398-5.62 4.26-5.62 1.646 0 2.147 1.54 2.147 2.971 0 3.472-2.076 8.483-5.083 8.483z" fill-rule="nonzero"/><path d="M80.68.93c-1.718 0-3.114 1.36-3.114 3.15 0 1.611 1.002 2.72 2.541 2.72h.072c1.682 0 3.15-1.145 3.186-3.149.035-1.575-1.038-2.72-2.685-2.72z"/><path d="M73.0917226 28.3489933L78.5324385 28.3489933 82.2192394 9.16331096 76.7427293 9.16331096z"/><path d="M95.964 9.092h-3.758l.179-.895c.322-1.861 1.396-3.508 3.221-3.508.967 0 1.718.286 1.718.286L98.398.752s-.93-.466-2.935-.466c-1.933 0-3.83.537-5.297 1.79-1.862 1.575-2.72 3.83-3.15 6.12l-.144.896h-2.505l-.788 4.08h2.506l-2.864 15.141h5.405l2.864-15.14h3.723l.751-4.081zm13.03.071s-3.401 8.52-4.905 13.173h-.071c-.107-1.504-1.324-13.173-1.324-13.173h-5.692l3.258 17.611c.071.394.035.644-.108.895-.644 1.217-1.682 2.398-2.935 3.257-1.002.752-2.148 1.217-3.043 1.54l1.504 4.581c1.11-.25 3.365-1.145 5.297-2.935 2.47-2.327 4.761-5.87 7.088-10.738l6.622-14.21h-5.692z"/></g><path d="M25.772 44.492l13.387-2.9S34.327 8.913 34.29 8.699a.417.417 0 0 0-.394-.358c-.179 0-3.58-.25-3.58-.25s-2.362-2.363-2.648-2.613a.749.749 0 0 0-.215-.144l-1.682 39.16z"/><path d="M26.881 5.262c-.035 0-.107.036-.143.036-.036 0-.537.143-1.324.393-.788-2.29-2.184-4.402-4.653-4.402h-.215C19.83.394 18.97 0 18.219 0 12.456 0 9.7 7.195 8.841 10.846c-2.22.68-3.83 1.18-4.009 1.252-1.253.394-1.288.43-1.432 1.611-.143.86-3.4 26.094-3.4 26.094l25.163 4.725 1.718-39.266zm-6.55 1.754v.25c-1.396.43-2.935.895-4.438 1.36.859-3.293 2.47-4.903 3.865-5.512.358.93.573 2.184.573 3.902zm-2.29-5.477c.25 0 .5.072.75.25-1.825.86-3.829 3.043-4.652 7.41-1.217.394-2.399.752-3.508 1.074.966-3.329 3.293-8.734 7.41-8.734zm1.002 19.436s-1.504-.787-3.294-.787c-2.684 0-2.792 1.682-2.792 2.112 0 2.29 6.014 3.185 6.014 8.59 0 4.26-2.685 6.98-6.336 6.98-4.367 0-6.586-2.72-6.586-2.72l1.181-3.866s2.291 1.969 4.224 1.969c1.253 0 1.79-1.002 1.79-1.718 0-3.007-4.94-3.15-4.94-8.09 0-4.152 2.971-8.197 9.02-8.197 2.327 0 3.472.68 3.472.68l-1.753 5.047zm2.29-18.111c1.289.143 2.112 1.61 2.65 3.257-.645.215-1.361.43-2.149.68v-.465c0-1.396-.179-2.542-.5-3.472z" fill-rule="nonzero"/></g></svg>