<svg width="160" height="72" viewBox="0 0 160 72" xmlns="http://www.w3.org/2000/svg"><title>customer/skillsoft</title><g transform="translate(4 8)" fill="#7B7194" fill-rule="evenodd"><path d="M9.463 56c-2.117 0-3.975-.425-5.53-1.276-1.556-.851-2.81-2.128-3.803-3.83l-.13-.17 5.056-5.105.172.426c.519 1.276 1.21 2.212 2.074 2.808.865.595 1.945.893 3.284.893 1.383 0 2.593-.383 3.5-1.106.908-.723 1.513-1.787 1.729-3.063.13-.809.043-1.574-.26-2.213-.345-.638-.907-1.233-1.771-1.744-.216-.128-.519-.34-.95-.596-2.507-1.489-4.106-2.722-4.883-3.786a6.645 6.645 0 0 1-1.124-2.723 9.074 9.074 0 0 1 .043-3.233c.476-2.808 1.945-5.233 4.365-7.148 2.42-1.914 5.271-2.893 8.425-2.893 1.902 0 3.587.34 4.97 1.064a7.708 7.708 0 0 1 3.284 3.233l.086.17-4.796 5.02-.173-.425c-.389-1.02-.908-1.787-1.642-2.297-.691-.51-1.599-.766-2.68-.766-1.209 0-2.29.34-3.197 1.021-.907.68-1.469 1.532-1.642 2.595-.259 1.32.821 2.766 3.155 4.212.475.298.82.51 1.08.681 2.247 1.446 3.716 2.936 4.407 4.34.648 1.403.778 3.275.39 5.488-.562 3.105-2.075 5.616-4.538 7.53C15.944 55.064 12.92 56 9.463 56z" style="mix-blend-mode:screen"/><path style="mix-blend-mode:screen" d="M33.1504652 39.7303139L33.2346944 39.7303139 41.4891649 31.1703551 50.2068966 31.1703551 38.8359423 42.1945445 46.1638906 55.0344828 37.3198151 55.0344828 32.4766308 45.8260422 32.3924015 45.8260422 30.792045 55.0344828 24.137931 55.0344828 29.8234082 20.2758621 36.5196368 20.2758621z"/><path style="mix-blend-mode:screen" d="M48.2758621 55.0344828L55.1279199 55.0344828 58.8965517 31.862069 52.0873192 31.862069z"/><path style="mix-blend-mode:screen" d="M64.7423797 55.0344828L57.9310345 55.0344828 63.6714134 21.2413793 70.4827586 21.2413793z"/><path style="mix-blend-mode:screen" d="M74.3975521 55.0344828L67.5862069 55.0344828 73.3265859 21.2413793 80.137931 21.2413793z"/><path d="M93.102 37.236c-.8-.93-1.935-1.648-3.282-1.648-1.093 0-2.313.845-2.524 2.028-.252 1.733 2.104 2.198 4.291 3.254 2.272 1.057 4.418 2.663 3.745 6.762C94.49 52.872 89.82 56 84.898 56c-3.155 0-5.974-1.437-7.657-3.93l3.703-3.973c1.051 1.437 2.566 2.747 4.543 2.747 1.473 0 2.819-1.014 3.071-2.536.337-2.07-1.935-2.535-4.123-3.55-2.187-1.014-4.29-2.409-3.702-6.212.715-4.395 4.25-7.65 8.667-7.65 2.482 0 5.511.761 7.152 2.452l-3.45 3.888zm34.23 17.798h-6.642l2.799-16.98h-2.214l.877-5.365h2.214l.167-1.183c.92-5.45 4.053-10.265 10.486-10.265 1.086 0 2.13.212 3.05.718l-.96 5.703c-.795-.422-1.588-.76-2.591-.76-2.924 0-3.217 3.675-3.51 5.533v.254h5.306l-.877 5.364h-5.306l-2.799 16.981z" style="mix-blend-mode:screen"/><path style="mix-blend-mode:screen" d="M144.724337 55.0344828L138.068966 55.0344828 140.87343 38.1335819 138.613115 38.1335819 139.492127 32.7942425 141.794299 32.7942425 142.798884 27.0344828 149.454256 27.0344828 148.449671 32.7942425 152.551724 32.7942425 151.672713 38.1335819 147.57066 38.1335819z"/><path d="M112.966 34.706c4.071 1.606 6.758 5.577 6.758 10.267 0 6.084-4.911 11.027-10.956 11.027s-10.999-4.943-10.999-11.027c0-4.352 2.519-8.112 6.13-9.929 0 0-.127 5.577 0-1.859.125-7.393-3.863-31.306-19.941-32.278-16.036-.93-22.669 16.688-24.054 21.758.63.719 1.008 1.606 1.008 2.62 0 2.154-1.764 3.929-3.905 3.929-2.14 0-3.904-1.775-3.904-3.93a3.89 3.89 0 0 1 2.561-3.675C64.186-3.487 86.687.19 86.687.19c19.772 1.563 24.81 22.18 26.069 32.616l.21 1.901z" style="mix-blend-mode:screen"/></g></svg>