<svg height="72" viewBox="0 0 160 72" width="160" xmlns="http://www.w3.org/2000/svg"><path d="m24.042 12.08c-13.238 0-23.97 10.73-23.97 23.967 0 13.239 10.732 23.97 23.97 23.97 13.239 0 23.97-10.731 23.97-23.97 0-13.236-10.731-23.968-23.97-23.968zm10.992 34.57a1.493 1.493 0 0 1 -2.055.495c-5.628-3.438-12.713-4.216-21.056-2.31a1.495 1.495 0 0 1 -.665-2.914c9.13-2.086 16.963-1.188 23.28 2.673.705.433.928 1.351.496 2.056zm2.934-6.527a1.869 1.869 0 0 1 -2.57.616c-6.443-3.96-16.265-5.107-23.885-2.794a1.871 1.871 0 0 1 -2.333-1.245 1.871 1.871 0 0 1 1.247-2.33c8.705-2.642 19.526-1.362 26.925 3.184a1.868 1.868 0 0 1 .616 2.57zm.252-6.796c-7.726-4.589-20.471-5.01-27.847-2.772a2.242 2.242 0 1 1 -1.301-4.29c8.466-2.57 22.542-2.074 31.436 3.206a2.24 2.24 0 0 1 .784 3.072 2.24 2.24 0 0 1 -3.071.784zm27.065.88c-4.139-.988-4.874-1.68-4.874-3.136 0-1.375 1.293-2.3 3.22-2.3 1.866 0 3.715.702 5.656 2.15a.266.266 0 0 0 .203.049.267.267 0 0 0 .18-.11l2.02-2.85a.272.272 0 0 0 -.05-.368c-2.31-1.853-4.91-2.753-7.95-2.753-4.467 0-7.59 2.681-7.59 6.518 0 4.115 2.694 5.572 7.348 6.696 3.958.912 4.628 1.677 4.628 3.042 0 1.515-1.351 2.456-3.526 2.456-2.416 0-4.388-.815-6.592-2.722a.268.268 0 0 0 -.384.029l-2.267 2.696a.273.273 0 0 0 .026.378c2.565 2.29 5.719 3.498 9.125 3.498 4.814 0 7.926-2.63 7.926-6.704.008-3.436-2.05-5.34-7.09-6.566l-.009-.004zm17.992-4.082c-2.086 0-3.798.822-5.212 2.506v-1.896a.27.27 0 0 0 -.269-.271h-3.706a.27.27 0 0 0 -.269.271v21.067c0 .148.12.272.27.272h3.706c.149 0 .27-.124.27-.272v-6.65c1.413 1.583 3.125 2.36 5.211 2.36 3.879 0 7.806-2.986 7.806-8.693.005-5.708-3.922-8.695-7.803-8.695h-.003zm3.495 8.694c0 2.905-1.789 4.934-4.353 4.934-2.533 0-4.445-2.12-4.445-4.934s1.912-4.934 4.445-4.934c2.521 0 4.353 2.074 4.353 4.933zm14.371-8.694c-4.994 0-8.907 3.845-8.907 8.756 0 4.858 3.887 8.662 8.847 8.662 5.012 0 8.936-3.833 8.936-8.724 0-4.875-3.898-8.694-8.876-8.694zm0 13.657c-2.656 0-4.66-2.136-4.66-4.965 0-2.842 1.936-4.904 4.6-4.904 2.674 0 4.689 2.135 4.689 4.966 0 2.842-1.947 4.903-4.629 4.903zm19.541-13.318h-4.079v-4.17a.27.27 0 0 0 -.269-.271h-3.706a.273.273 0 0 0 -.272.271v4.17h-1.78a.27.27 0 0 0 -.27.271v3.185c0 .15.12.272.27.272h1.78v8.241c0 3.33 1.657 5.018 4.929 5.018 1.328 0 2.43-.275 3.469-.864a.265.265 0 0 0 .137-.235v-3.034a.27.27 0 0 0 -.129-.23.263.263 0 0 0 -.263-.01 4.679 4.679 0 0 1 -2.175.523c-1.188 0-1.72-.54-1.72-1.749v-7.659h4.078a.27.27 0 0 0 .27-.272v-3.184a.263.263 0 0 0 -.267-.272zm14.208.016v-.512c0-1.507.578-2.178 1.872-2.178.773 0 1.394.153 2.09.385a.27.27 0 0 0 .355-.258v-3.123a.268.268 0 0 0 -.192-.26c-.733-.219-1.672-.443-3.08-.443-3.42 0-5.232 1.928-5.232 5.572v.785h-1.78a.273.273 0 0 0 -.272.27v3.202c0 .15.123.272.272.272h1.78v12.71c0 .151.123.271.272.271h3.704a.27.27 0 0 0 .271-.272v-12.709h3.46l5.302 12.71c-.601 1.333-1.194 1.6-2 1.6-.654 0-1.343-.195-2.045-.582a.295.295 0 0 0 -.214-.02.27.27 0 0 0 -.16.146l-1.257 2.757a.27.27 0 0 0 .117.352c1.311.71 2.493 1.013 3.956 1.013 2.736 0 4.25-1.277 5.581-4.706l6.429-16.611a.265.265 0 0 0 -.029-.252.264.264 0 0 0 -.22-.118h-3.858a.271.271 0 0 0 -.258.182l-3.953 11.287-4.328-11.295a.27.27 0 0 0 -.251-.174h-6.332zm-8.237-.016h-3.707a.273.273 0 0 0 -.272.271v16.166c0 .152.123.272.272.272h3.707c.149 0 .272-.12.272-.272v-16.165c0-.15-.12-.271-.272-.271zm-1.832-7.362a2.657 2.657 0 1 0 -.004 5.315 2.657 2.657 0 0 0 .004-5.315zm32.464 12.56a2.598 2.598 0 0 1 -2.608-2.608 2.622 2.622 0 0 1 2.622-2.622 2.598 2.598 0 0 1 2.607 2.607 2.623 2.623 0 0 1 -2.621 2.623zm.014-4.97c-1.337 0-2.347 1.061-2.347 2.362 0 1.3 1.004 2.347 2.333 2.347 1.336 0 2.347-1.061 2.347-2.362 0-1.3-1.005-2.348-2.333-2.348zm.578 2.615.739 1.033h-.624l-.664-.948h-.57v.948h-.521v-2.738h1.22c.638 0 1.055.326 1.055.873.003.45-.257.723-.632.832zm-.44-1.235h-.68v.866h.68c.337 0 .54-.166.54-.434 0-.281-.203-.432-.54-.432z" fill="#7b7194"/></svg>