<svg width="160" height="72" viewBox="0 0 160 72" xmlns="http://www.w3.org/2000/svg"><title>customer/uniqa</title><g fill="#7B7194" fill-rule="evenodd"><path d="M17.528 49.575H0l1.829-3.29h10.314c.234.203.473.4.72.59 1.386 1.077 2.961 2.047 4.665 2.7m3.611-3.817a19.408 19.408 0 0 1-4.838-5.132c-1.26-1.935-4.018-6.643-2.021-11.569.825-1.118 1.923-2.048 2.731-2.647 1.346-.997 2.307-1.457 3.932-1.904-1.445.787-3.56 3.134-3.34 7.649.103 2.119 1.1 4.604 2.101 6.14 2.546 3.913 5.744 5.585 9.039 6.441 1.542.403 3.919.599 6.985.765 2.484.134 7.57.166 8.458.162l.946.005 2.18 4.19s-7.392.028-10.827-.156c-5.565-.297-10.745-.561-15.346-3.944"/><path d="M25.346 49.142c-1.205.3-2.39.438-3.478.435-3.124-.006-6.066-1.485-8.495-3.373-2.915-2.263-5.045-5.415-5.585-8.845-.078-.398-.114-.803-.171-1.37-.217-2.35.116-5.302 1.749-8.128 1.411-2.441 3.516-4.558 6.982-6.022 1.446-.612 4.552-1.299 8.147-.334 3.778 1.05 7.08 3.42 9.204 6.525 0 0-3.258-4.274-8.832-4.766a10.178 10.178 0 0 0-.757-.038c-2.755-.055-5.39.902-7.586 2.495a14.132 14.132 0 0 0-3.584 3.727c-.21.32-2.259 3.348-2.315 7.726-.048 3.808 1.642 6.55 2.276 7.475.016.024 1.589 1.097 3.968 1.555 1.376.265 2.906.206 3.602.107a17.958 17.958 0 0 0 5.24 2.726l-.365.105"/><path d="M35.972 35.425c.256 3.5-1.867 7.344-3.11 9.04-1.655-.132-2.964-.3-3.911-.547a18.698 18.698 0 0 1-1.421-.43c1.448-1.244 3.404-3.592 4.353-6.82 1.375-4.67-.215-8.974-2.142-10.991 4.7 3.047 6.067 6.908 6.23 9.748m16.237-9.118h4.4v13.095c0 4.325 2.56 6.918 5.92 6.918 3.398 0 5.92-2.593 5.92-6.918V26.307h4.401v14.037c0 5.45-4.048 10.107-10.32 10.107-6.273 0-10.321-4.658-10.321-10.107V26.307m45.07 23.635V26.307h-4.354v14.748L80.15 26.307h-2.377v23.595h4.351V35.218l12.749 14.724h2.404m5.208-.04h4.518V26.307h-4.518zm20.938-3.182c-4.504 0-8.156-3.857-8.156-8.615 0-4.76 3.652-8.615 8.156-8.615 4.506 0 8.157 3.856 8.157 8.615a8.946 8.946 0 0 1-1.168 4.444l-2.701-2.726-2.865 2.89 2.76 2.79a7.806 7.806 0 0 1-4.183 1.217zm12.56-8.615c0-6.935-5.622-12.556-12.56-12.556-6.936 0-12.558 5.62-12.558 12.556 0 6.934 5.622 12.557 12.558 12.557 2.64 0 5.086-.817 7.108-2.205l2.049 2.068 2.864-2.892-1.972-1.994a12.493 12.493 0 0 0 2.51-7.534zm8.28 3.474l3.511-8.487 3.402 8.487h-6.913zm10.25 8.323h4.821l-9.957-23.595h-3.03L136.13 49.902h4.69l1.838-4.443h10.074l1.78 4.443z"/></g></svg>