<svg height="72" viewBox="0 0 160 72" width="160" xmlns="http://www.w3.org/2000/svg"><g fill="none" transform="translate(0 10)"><path d="m127.294 12.948h2.93l-.894-2.933h-2.036v-3.535h-3.876v11.752c0 .843.125 1.55.353 2.153a3.28 3.28 0 0 0 .987 1.414c.426.354.915.593 1.455.75.53.155 1.132.228 1.818.228 1.08 0 2.057-.218 2.91-.645l-.78-2.475c-.356.117-.727.18-1.101.187-.582 0-1.029-.156-1.33-.468-.301-.301-.447-.821-.447-1.518l.01-4.909zm-9.57 9.61h3.99v-7.873c0-1.55-.374-2.787-1.122-3.671-.758-.874-1.89-1.321-3.408-1.321-.955 0-1.807.229-2.576.665a4.626 4.626 0 0 0 -1.818 1.966v-7.446h-3.99v17.659h3.99v-6.137c.01-1.05.249-1.862.758-2.423.51-.552 1.153-.822 1.984-.822.749 0 1.31.218 1.673.655.364.437.55 1.175.55 2.226v6.51h-.03v.01zm-11.116 1.05c.332-.78.52-1.674.52-2.694v-10.899h-3.242l-.333 1.82c-.8-1.425-2.14-2.142-4.01-2.142-1.662 0-3.003.54-3.959 1.622-.976 1.092-1.465 2.663-1.465 4.743 0 2.038.468 3.577 1.403 4.638.914 1.071 2.192 1.602 3.813 1.602 1.777 0 3.044-.687 3.813-2.039v.676c0 1.04-.27 1.83-.81 2.33-.551.52-1.299.78-2.317.78-1.507 0-2.598-.583-3.263-1.747l-2.254 1.934c.935 1.83 2.815 2.746 5.693 2.746a10.24 10.24 0 0 0 2.806-.364 6.219 6.219 0 0 0 2.192-1.103 5.337 5.337 0 0 0 1.413-1.903zm-3.45-7.644c0 1.113-.239 1.966-.706 2.548-.478.582-1.133.863-1.953.863-1.704 0-2.577-1.123-2.577-3.38 0-1.113.218-1.965.655-2.527.446-.562 1.08-.853 1.911-.853.81 0 1.465.291 1.933.853.488.562.737 1.404.737 2.496zm-15.75.062c0-.915-.104-1.736-.333-2.496-.228-.748-.56-1.414-1.039-1.996-.457-.583-1.08-1.03-1.839-1.352-.758-.312-1.662-.479-2.68-.479-2.036 0-3.605.572-4.738 1.747-1.101 1.165-1.662 2.808-1.662 4.91 0 2.162.582 3.806 1.725 4.898 1.142 1.092 2.742 1.643 4.779 1.643 2.722 0 4.592-1.009 5.59-2.995l-2.38-1.384c-.301.52-.686.895-1.153 1.113-.468.229-1.06.333-1.756.333-.925 0-1.641-.198-2.15-.614-.51-.416-.79-1.04-.884-1.924h8.416c.062-.447.104-.915.104-1.404zm-3.647-1.123h-4.873c.073-.738.333-1.3.78-1.695.446-.395 1.038-.593 1.766-.593.717 0 1.267.198 1.662.593.385.416.613.978.665 1.695zm-12.478 7.655 3.896-12.532h-3.76l-1.964 7.768-2.234-7.716h-3.418l-2.224 7.675-2.005-7.738h-3.896l3.958 12.522h3.512l2.275-7.509 2.286 7.509h3.574v.02zm17.434-11.846v11.825h3.99v-11.763c-.52.23-1.154.354-1.933.354-.842-.01-1.517-.156-2.057-.416zm-29.07 31.72h3.511l2.276-7.52 2.285 7.52h3.564l3.897-12.532h-3.76l-1.964 7.758-2.234-7.716h-3.418l-2.224 7.675-2.005-7.717h-3.896l3.969 12.532zm17.111-1.32c.925 1.112 2.224 1.684 3.834 1.684.925 0 1.746-.208 2.452-.614.696-.395 1.268-.998 1.694-1.747l.239 1.987h3.345v-12.532h-3.19l-.3 1.84c-.76-1.445-2.1-2.163-4-2.163-1.705 0-3.035.562-4 1.695-.967 1.134-1.466 2.798-1.466 5.024-.01 2.09.468 3.692 1.392 4.825zm3.076-7.728c.426-.603 1.08-.884 1.932-.884.821 0 1.476.302 1.964.894.488.604.727 1.519.727 2.788 0 1.196-.239 2.11-.727 2.724s-1.143.916-1.964.916c-1.724 0-2.576-1.196-2.576-3.62 0-1.3.218-2.215.644-2.818zm10.711 6.874c.229.593.561 1.061.987 1.415.426.343.915.593 1.455.738.54.146 1.143.219 1.829.219 1.163 0 2.202-.24 3.096-.718l-.53-2.527a3.648 3.648 0 0 1 -1.538.333c-.571 0-1.018-.156-1.32-.479-.3-.301-.446-.811-.446-1.518v-4.921h3.345v-2.92h-3.345v-3.536h-3.896v11.731c0 .853.124 1.581.363 2.184zm9.216.916c1.101 1.081 2.66 1.601 4.696 1.601 2.753 0 4.655-1.04 5.714-3.13l-2.742-1.57c-.489 1.143-1.403 1.715-2.764 1.715-.956 0-1.662-.28-2.088-.873-.426-.603-.634-1.519-.634-2.746 0-1.32.218-2.236.665-2.745.436-.53 1.132-.79 2.078-.79 1.226 0 2.098.53 2.608 1.59l2.732-1.944c-.54-.926-1.226-1.623-2.12-2.06-.872-.436-1.963-.665-3.272-.665-4.353 0-6.525 2.184-6.525 6.573-.01 2.277.54 3.952 1.652 5.044zm15.512 1.258v-6.136c0-1.06.25-1.872.748-2.423.509-.551 1.153-.822 1.984-.822.748 0 1.32.219 1.683.655.364.448.551 1.176.551 2.236v6.51h3.98v-7.872c0-1.55-.375-2.787-1.113-3.671-.768-.884-1.89-1.321-3.407-1.321a5.19 5.19 0 0 0 -2.598.666 4.669 4.669 0 0 0 -1.807 1.965v-7.457h-3.98v17.67zm11.667-1.3c1.143 1.092 2.743 1.643 4.79 1.643 2.722 0 4.582-1.009 5.6-2.995l-2.39-1.394c-.301.53-.685.905-1.153 1.113-.457.219-1.06.333-1.745.333-.936 0-1.642-.198-2.151-.614-.51-.416-.79-1.05-.883-1.944h8.415c.063-.448.104-.916.104-1.404a9 9 0 0 0 -.343-2.496 5.509 5.509 0 0 0 -1.039-1.987c-.446-.572-1.08-1.03-1.839-1.352-.758-.322-1.651-.489-2.68-.489-2.036 0-3.605.583-4.738 1.748-1.09 1.164-1.662 2.818-1.662 4.93.01 2.183.571 3.816 1.714 4.908zm2.837-8.04c.436-.384 1.039-.592 1.776-.592.717 0 1.268.208 1.652.593.405.405.613.967.665 1.695h-4.873c.073-.738.333-1.29.78-1.695zm13.028 9.34v-5.117c.021-1.435.385-2.527 1.08-3.265.614-.656 1.466-.999 2.577-.999.177 0 .343.021.51.031l-.032-3.494h-.156c-.945 0-1.797.218-2.535.655a4.538 4.538 0 0 0 -1.818 1.955l-.331-2.298h-3.304v12.532h4.01zm10.442.343c1.039 0 1.943-.125 2.711-.343.77-.229 1.372-.551 1.808-.967.447-.406.759-.843.956-1.331.218-.49.301-1.02.301-1.57 0-1.956-1.402-3.183-4.218-3.724l-1.434-.291c-1.08-.219-1.63-.603-1.63-1.123 0-.281.165-.52.477-.666.312-.166.759-.24 1.34-.24 1.34 0 2.421.469 3.242 1.436l2.192-2.122c-.634-.77-1.36-1.33-2.265-1.684-.904-.364-1.953-.53-3.23-.53-1.798 0-3.17.363-4.115 1.112-.935.728-1.403 1.706-1.403 2.87 0 1.02.405 1.872 1.247 2.559.82.686 1.943 1.175 3.293 1.456l1.06.218c.665.146 1.112.281 1.361.447a.662.662 0 0 1 .343.614c0 .322-.166.572-.52.749-.353.177-.851.28-1.516.28-.8 0-1.528-.166-2.192-.467a4.117 4.117 0 0 1 -1.61-1.3l-1.985 2.007c1.039 1.716 2.971 2.61 5.787 2.61zm-62.473-32.833c1.517 0 2.275-.686 2.275-2.038 0-1.383-.748-2.07-2.275-2.07s-2.296.687-2.296 2.07c0 1.362.78 2.038 2.296 2.038zm-64.426-9.588c14.088 0 25.496 11.44 25.496 25.521 0 14.082-11.428 25.522-25.496 25.522-14.067 0-25.496-11.44-25.496-25.522 0-14.081 11.408-25.521 25.496-25.521zm6.982 25.521 4.384-14.185h-4.904l-1.974 7.841-2.348-7.82h-4.104l-2.275 7.758-2.067-7.78h-5.04l4.427 14.186h-4.426l4.446 14.207h4.696l2.234-8.07 2.234 8.07h4.727l4.385-14.207z" fill="#7b7194"/><path d="m37.714 11.69-4.384 14.185h4.384l-4.374 14.207h-4.737l-2.234-8.07-2.234 8.07h-4.705l-4.447-14.207h4.426l-4.406-14.185h5.039l2.067 7.79 2.275-7.76h4.116l2.348 7.811 1.974-7.841h4.893zm-6.878 22.027 1.974-7.821h-4.207l-2.245-8.07-2.233 8.07h-4.083l2.057 7.769 2.036-7.748h4.478z" fill="#fff"/><path d="m32.81 25.896-1.974 7.82-2.233-7.81v-.01zm-4.207 0v.01h-4.478v-.01l2.233-8.05zm-4.478 0v.01l-2.016 7.748-2.067-7.758z" fill="#7b7194"/></g></svg>