<svg width="160" height="72" viewBox="0 0 160 72" xmlns="http://www.w3.org/2000/svg"><title>customer/wework</title><g transform="translate(0 19)" fill="#7B7194" fill-rule="evenodd"><path d="M13.518 16.4c.983 0 1.841.034 2.601.172 1.083.189 2 1.688 2 2.42 0 .375 0 .79-.165 1.396-.267.93-2.103 4.272-2.867 5.53-.92-1.482-3.085-5.67-3.834-7.3-.325-.684-.49-1.253-.49-1.532 0-.514 1.028-.686 2.755-.686zm-12.27 0c.919.226 1.457.415 2.21 1.757 2.653 4.839 5.31 10.173 7.895 15.42.325.273.705.334 1.255.334.531 0 .908-.06 1.247-.331 1.232-2.31 4.48-8.51 5.882-10.916 1.63 2.975 4.438 8.405 5.577 10.916.315.272.706.331 1.238.331.54 0 .929-.06 1.242-.331a330.446 330.446 0 0 1 7.25-14.782c.867-1.712 1.242-2.172 3.029-2.502l.757-.133c.432-.43.32-1.44-.16-1.634a54.23 54.23 0 0 1-4.172.142c-1.35 0-2.638-.048-4.43-.142-.54.194-.54 1.302-.21 1.634l.911.176c.93.189 1.355.422 1.355.658 0 .326-.164.976-.5 1.801-.855 2.15-1.703 4.43-3.016 7.12-1.186-2.236-2.696-5.25-3.676-7.482-.319-.785-.428-1.073-.428-1.439 0-.236.748-.47 2-.7l.805-.134c.39-.189.432-1.577-.16-1.634-3.19.094-6.38.141-9.572.142H6.654c-2.27 0-3.997-.048-6.214-.142-.553.234-.553 1.255-.178 1.634l.987.237z" fill-rule="nonzero"/><path d="M46.42 16.102c1.83 0 2.865 1.013 2.865 2.55 0 .466-.108.936-.377 1.069-.604.327-1.468.413-2.223.413h-1.997c-1.74 0-2.487-.034-2.487-.692 0-1.491 1.947-3.342 4.22-3.342l-.002.002zm-.057 17.747c3.242 0 7.256-1.35 9.467-5.298 0-.791-.82-1.165-1.408-1.079-1.461 2.147-3.523 2.417-5.032 2.417-5.026 0-7.63-3.385-7.63-6.87 0-.742.114-.833 1.36-.833h10.372c1.689 0 1.952-.65 1.952-1.532 0-3.583-3.031-6.695-8.656-6.695-6.749 0-11.672 4.557-11.672 10.414 0 5.064 3.949 9.476 11.247 9.476zM69.258 16.4c.989 0 1.847.034 2.607.172 1.083.189 2 1.688 2 2.42 0 .375 0 .79-.16 1.396-.278.93-2.112 4.272-2.866 5.53-.93-1.482-3.083-5.67-3.84-7.3-.318-.684-.488-1.253-.488-1.532 0-.514 1.02-.686 2.747-.686zm-12.267 0c.927.226 1.46.415 2.216 1.757 2.645 4.839 5.309 10.173 7.897 15.42.329.273.705.334 1.247.334.536 0 .907-.06 1.24-.331 1.25-2.31 4.487-8.51 5.897-10.916 1.627 2.975 4.426 8.405 5.565 10.916.325.272.702.331 1.24.331.546 0 .927-.06 1.247-.331a334.733 334.733 0 0 1 7.254-14.782c.865-1.712 1.238-2.172 3.021-2.502l.764-.133c.427-.43.314-1.44-.166-1.634a54.263 54.263 0 0 1-4.169.142 81.663 81.663 0 0 1-4.43-.142c-.547.194-.547 1.302-.215 1.634l.918.176c.921.189 1.35.422 1.35.658 0 .326-.163.976-.482 1.801-.868 2.15-1.735 4.43-3.037 7.12-1.185-2.236-2.696-5.25-3.668-7.482-.33-.785-.437-1.073-.437-1.439 0-.236.752-.47 2.004-.7l.805-.134c.38-.189.437-1.577-.161-1.634-3.457.094-6.17.142-9.571.142H62.395c-2.072 0-4.144-.047-6.214-.142-.536.234-.536 1.255-.16 1.634l.97.237z" fill-rule="nonzero"/><path d="M103.287 16.102c3.071 0 4.587 3.895 4.647 8.409.046 4.183-.986 7.201-4.071 7.201-3.123 0-4.916-3.584-4.916-8.456 0-5.059 1.958-7.156 4.34-7.156v.002zm0 17.747c6.643 0 12.434-3.204 12.434-9.997 0-6.55-5.742-9.893-12.117-9.893-6.384 0-12.495 3.668-12.444 10.318.064 6.407 5.68 9.572 12.127 9.572z" fill-rule="nonzero"/><path d="M124.934 17.896c.334 0 .814.051 2.052.93.694.561 1.345.84 2.107.84 1.726 0 3.465-.881 3.465-3.02 0-1.756-1.514-2.741-2.986-2.741-2.262 0-3.824 1.532-5.294 2.318-.428-.085-.541-.226-.541-.555 0-.415.111-1.06.21-1.998-.21-.276-.543-.424-.959-.424-1.683.943-5.412 2.19-7.908 2.802-.377.272-.377 1.11 0 1.39l.77.419c1.023.558 1.023 1.113 1.023 2.975v7.013c0 3.251-.217 3.668-2.004 3.815l-1.029.085c-.435.279-.435 1.355.057 1.634a122.89 122.89 0 0 1 6.383-.143c2.535 0 4.704.04 7.302.141.487-.277.487-1.353.05-1.632l-1.73-.13c-1.785-.148-2.004-.52-2.004-3.77v-7.154c0-1.763.274-2.795 1.038-2.795"/><path d="M146.153 31.591l-.7.145c-.44.417-.333 1.387.21 1.617 1.514-.092 3.455-.136 6.66-.136 3.134 0 5.13.044 6.803.136.543-.179.654-1.295.214-1.617l-.804-.146c-1.402-.23-2.428-.47-3.185-1.064-1.36-1.067-6.12-7.39-7.08-8.877-.279-.37-.394-.646-.394-.791 0-.136.057-.32.322-.606.76-.642 1.587-1.352 3.633-2.698 1.455-.967 2.6-1.43 3.626-1.62l1.724-.327c.387-.363.334-1.401-.22-1.626-3.182.422-7.673.65-10.218.65h-1.292c-.54.195-.6 1.209-.113 1.626l1.357.194c.48.038 1.02.221 1.02.46 0 .279-.26.786-1.294 1.848l-2.265 2.291c-1.086 1.064-2.221 1.297-3.141 1.297-.588 0-.762-.14-.762-.652V7.11c0-2.931.068-4.885.174-6.787-.212-.238-.603-.323-.925-.323-2.764 1.013-6.054 2.14-8.27 2.592-.383.286-.383 1.125 0 1.39l.919.476c1.077.56 1.077 1.069 1.077 2.938v20.432c0 3.251-.217 3.624-2.172 3.816l-1.027.092c-.427.273-.427 1.345.055 1.617 2.199-.097 4.4-.143 6.6-.136 2.491 0 4.759.044 6.498.136.48-.272.48-1.344.05-1.617l-.859-.092c-1.901-.192-2.12-.567-2.12-3.816v-2.69c0-.89.274-1.116.647-1.116.543 0 .978.187 1.363.684l3.834 5.03c.433.552.916 1.294.916 1.495 0 .172-.318.258-.861.359"/></g></svg>