<?xml version="1.0" encoding="UTF-8"?>
<svg width="400px" height="320px" viewBox="0 0 400 320" version="1.1" xmlns="http://www.w3.org/2000/svg" xmlns:xlink="http://www.w3.org/1999/xlink">
    <!-- Generator: Sketch 49.3 (51167) - http://www.bohemiancoding.com/sketch -->
    <title>snippet/form-color</title>
    <desc>Created with Sketch.</desc>
    <defs>
        <rect id="path-1" x="110.860043" y="81.974457" width="256" height="208" rx="3"></rect>
        <filter x="-10.5%" y="-10.1%" width="121.1%" height="126.0%" filterUnits="objectBoundingBox" id="filter-2">
            <feOffset dx="0" dy="6" in="SourceAlpha" result="shadowOffsetOuter1"></feOffset>
            <feGaussianBlur stdDeviation="8" in="shadowOffsetOuter1" result="shadowBlurOuter1"></feGaussianBlur>
            <feColorMatrix values="0 0 0 0 0   0 0 0 0 0   0 0 0 0 0  0 0 0 0.6 0" type="matrix" in="shadowBlurOuter1"></feColorMatrix>
        </filter>
    </defs>
    <g id="snippet/form-color" stroke="none" stroke-width="1" fill="none" fill-rule="evenodd">
        <g id="form" transform="translate(9.139957, 6.025543)">
            <g id="Group" transform="translate(183.000000, 146.000000) rotate(-3.000000) translate(-183.000000, -146.000000) translate(7.000000, 10.000000)" fill-rule="nonzero">
                <rect id="Rectangle-4" fill="#000000" x="0" y="0" width="352" height="272" rx="3"></rect>
                <rect id="Rectangle-5" fill="#FFFFFF" opacity="0.200000003" x="16" y="16" width="320" height="64" rx="3"></rect>
                <rect id="Rectangle-5" fill="#FFFFFF" opacity="0.200000003" x="16" y="96" width="96" height="160" rx="3"></rect>
            </g>
            <g id="Shadow">
                <use fill="black" fill-opacity="1" filter="url(#filter-2)" xlink:href="#path-1"></use>
                <use fill="#FFFFFF" fill-rule="evenodd" xlink:href="#path-1"></use>
            </g>
            <g id="Dialog" transform="translate(103.000000, 74.000000)">
                <rect id="Rectangle-2" fill="#FFFFFF" fill-rule="nonzero" x="0" y="0" width="272" height="224" rx="3"></rect>
                <g id="component/icon-button" transform="translate(23.000000, 159.000000)">
                    <g id="Group">
                        <g id="Rectangle-5">
                            <g id="path-3-link" transform="translate(1.000000, 1.000000)" fill="#000000" fill-rule="nonzero">
                                <rect id="path-3" x="0" y="0" width="48" height="40" rx="3"></rect>
                            </g>
                            <g id="path-3-link" transform="translate(1.000000, 1.000000)" fill="#FFFFFF">
                                <rect id="path-3" x="0" y="0" width="48" height="40" rx="3"></rect>
                            </g>
                            <rect id="Rectangle-path" stroke-opacity="0.098194067" stroke="#140B2F" x="0.5" y="0.5" width="49" height="41" rx="3"></rect>
                        </g>
                        <g id="icons/cross" stroke-linecap="round" stroke-linejoin="round" transform="translate(19.000000, 15.000000)" stroke="#726D82" stroke-width="2">
                            <g id="x">
                                <path d="M12,0 L0,12" id="Shape"></path>
                                <path d="M0,0 L12,12" id="Shape"></path>
                            </g>
                        </g>
                    </g>
                </g>
                <g id="component/input" transform="translate(23.000000, 55.000000)">
                    <g id="Rectangle-5">
                        <g id="path-5-link" transform="translate(1.000000, 1.000000)" fill="#000000" fill-rule="nonzero">
                            <rect id="path-5" x="0" y="0" width="224" height="80" rx="3"></rect>
                        </g>
                        <g id="path-5-link" transform="translate(1.000000, 1.000000)" fill="#FFFFFF">
                            <rect id="path-5" x="0" y="0" width="224" height="80" rx="3"></rect>
                        </g>
                        <rect id="Rectangle-path" stroke-opacity="0.098194067" stroke="#140B2F" x="0.5" y="0.5" width="225" height="81" rx="3"></rect>
                    </g>
                    <path d="M18.2705078,25 L16.7392578,25 L16.7392578,16.5302734 L13.6357422,16.5302734 L13.6357422,15.1357422 L21.3671875,15.1357422 L21.3671875,16.5302734 L18.2705078,16.5302734 L18.2705078,25 Z M23.8076172,27.7070312 C23.6845703,27.7070312 23.3359375,27.7001953 23.1992188,27.6728516 L23.1992188,26.4082031 C23.3154297,26.4287109 23.5410156,26.4355469 23.6777344,26.4355469 C24.375,26.4355469 24.7714844,26.1416016 25.0244141,25.3896484 L25.1337891,25.0273438 L22.4404297,17.5556641 L24.0400391,17.5556641 L25.90625,23.46875 L26.0224609,23.46875 L27.8818359,17.5556641 L29.4404297,17.5556641 L26.6650391,25.3076172 C26.0292969,27.1191406 25.3251953,27.7070312 23.8076172,27.7070312 Z M34.8066406,17.4326172 C36.7001953,17.4326172 37.8964844,18.9091797 37.8964844,21.2744141 C37.8964844,23.6396484 36.7001953,25.1230469 34.8203125,25.1230469 C33.7607422,25.1230469 32.9199219,24.6582031 32.5302734,23.8720703 L32.4140625,23.8720703 L32.4140625,27.4130859 L30.9443359,27.4130859 L30.9443359,17.5556641 L32.359375,17.5556641 L32.359375,18.7861328 L32.46875,18.7861328 C32.9199219,17.9384766 33.7949219,17.4326172 34.8066406,17.4326172 Z M34.3896484,23.8037109 C35.640625,23.8037109 36.3857422,22.8535156 36.3857422,21.2744141 C36.3857422,19.7021484 35.640625,18.7519531 34.3964844,18.7519531 C33.1591797,18.7519531 32.3867188,19.7226562 32.3867188,21.28125 C32.3867188,22.8330078 33.1591797,23.8037109 34.3896484,23.8037109 Z M42.7158203,18.6630859 C41.6289062,18.6630859 40.8701172,19.4287109 40.7880859,20.5908203 L44.5478516,20.5908203 C44.5136719,19.421875 43.8027344,18.6630859 42.7158203,18.6630859 Z M44.5410156,22.9902344 L45.9560547,22.9902344 C45.6210938,24.3232422 44.4316406,25.1435547 42.7294922,25.1435547 C40.5966797,25.1435547 39.2910156,23.6806641 39.2910156,21.3017578 C39.2910156,18.9228516 40.6240234,17.4121094 42.7226562,17.4121094 C44.7939453,17.4121094 46.0449219,18.8271484 46.0449219,21.1650391 L46.0449219,21.6777344 L40.7880859,21.6777344 L40.7880859,21.7597656 C40.8359375,23.0654297 41.5947266,23.8925781 42.7705078,23.8925781 C43.6591797,23.8925781 44.2675781,23.5712891 44.5410156,22.9902344 Z M52.375,27.7070312 C52.2519531,27.7070312 51.9033203,27.7001953 51.7666016,27.6728516 L51.7666016,26.4082031 C51.8828125,26.4287109 52.1083984,26.4355469 52.2451172,26.4355469 C52.9423828,26.4355469 53.3388672,26.1416016 53.5917969,25.3896484 L53.7011719,25.0273438 L51.0078125,17.5556641 L52.6074219,17.5556641 L54.4736328,23.46875 L54.5898438,23.46875 L56.4492188,17.5556641 L58.0078125,17.5556641 L55.2324219,25.3076172 C54.5966797,27.1191406 53.8925781,27.7070312 52.375,27.7070312 Z M62.65625,23.8378906 C63.9277344,23.8378906 64.6523438,22.8945312 64.6523438,21.2744141 C64.6523438,19.6611328 63.9277344,18.7177734 62.65625,18.7177734 C61.3779297,18.7177734 60.6601563,19.6611328 60.6601563,21.2744141 C60.6601563,22.9013672 61.3779297,23.8378906 62.65625,23.8378906 Z M62.65625,25.1435547 C60.4755859,25.1435547 59.1425781,23.6875 59.1425781,21.2744141 C59.1425781,18.875 60.4824219,17.4121094 62.65625,17.4121094 C64.8232422,17.4121094 66.1630859,18.875 66.1630859,21.2744141 C66.1630859,23.6875 64.8300781,25.1435547 62.65625,25.1435547 Z M74.3457031,17.5556641 L74.3457031,25 L72.9375,25 L72.9375,23.8173828 L72.8212891,23.8173828 C72.4589844,24.6650391 71.6113281,25.1435547 70.4902344,25.1435547 C68.8359375,25.1435547 67.8583984,24.1386719 67.8583984,22.375 L67.8583984,17.5556641 L69.328125,17.5556641 L69.328125,22.0058594 C69.328125,23.2089844 69.8818359,23.7832031 70.96875,23.7832031 C72.1513672,23.7832031 72.8828125,23.0791016 72.8828125,21.9101562 L72.8828125,17.5556641 L74.3457031,17.5556641 Z M76.4853516,25 L76.4853516,17.5556641 L77.9003906,17.5556641 L77.9003906,18.6972656 L78.0097656,18.6972656 C78.2216797,17.9658203 79.0419922,17.4326172 80.0126953,17.4326172 C80.2246094,17.4326172 80.5048828,17.453125 80.6621094,17.4941406 L80.6621094,18.9433594 C80.5458984,18.9023438 80.0947266,18.8544922 79.8486328,18.8544922 C78.7412109,18.8544922 77.9550781,19.5585938 77.9550781,20.6044922 L77.9550781,25 L76.4853516,25 Z M86.3564453,25 L86.3564453,18.8271484 L85.1328125,18.8271484 L85.1328125,17.5898438 L86.3564453,17.5898438 L86.3564453,16.8515625 C86.3564453,15.3339844 87.1425781,14.71875 88.6875,14.71875 C88.9609375,14.71875 89.2207031,14.7392578 89.5146484,14.7871094 L89.5146484,15.9628906 C89.3574219,15.9355469 89.0976562,15.9082031 88.8583984,15.9082031 C88.1816406,15.9082031 87.8125,16.2226562 87.8125,16.9335938 L87.8125,17.5898438 L89.4599609,17.5898438 L89.4599609,18.8271484 L87.8261719,18.8271484 L87.8261719,25 L86.3564453,25 Z M94.1904297,18.6630859 C93.1035156,18.6630859 92.3447266,19.4287109 92.2626953,20.5908203 L96.0224609,20.5908203 C95.9882812,19.421875 95.2773438,18.6630859 94.1904297,18.6630859 Z M96.015625,22.9902344 L97.4306641,22.9902344 C97.0957031,24.3232422 95.90625,25.1435547 94.2041016,25.1435547 C92.0712891,25.1435547 90.765625,23.6806641 90.765625,21.3017578 C90.765625,18.9228516 92.0986328,17.4121094 94.1972656,17.4121094 C96.2685547,17.4121094 97.5195312,18.8271484 97.5195312,21.1650391 L97.5195312,21.6777344 L92.2626953,21.6777344 L92.2626953,21.7597656 C92.3105469,23.0654297 93.0693359,23.8925781 94.2451172,23.8925781 C95.1337891,23.8925781 95.7421875,23.5712891 96.015625,22.9902344 Z M102.338867,18.6630859 C101.251953,18.6630859 100.493164,19.4287109 100.411133,20.5908203 L104.170898,20.5908203 C104.136719,19.421875 103.425781,18.6630859 102.338867,18.6630859 Z M104.164062,22.9902344 L105.579102,22.9902344 C105.244141,24.3232422 104.054688,25.1435547 102.352539,25.1435547 C100.219727,25.1435547 98.9140625,23.6806641 98.9140625,21.3017578 C98.9140625,18.9228516 100.24707,17.4121094 102.345703,17.4121094 C104.416992,17.4121094 105.667969,18.8271484 105.667969,21.1650391 L105.667969,21.6777344 L100.411133,21.6777344 L100.411133,21.7597656 C100.458984,23.0654297 101.217773,23.8925781 102.393555,23.8925781 C103.282227,23.8925781 103.890625,23.5712891 104.164062,22.9902344 Z M110.152344,25.1230469 C108.258789,25.1230469 107.0625,23.6328125 107.0625,21.2744141 C107.0625,18.9228516 108.272461,17.4326172 110.152344,17.4326172 C111.170898,17.4326172 112.032227,17.9179688 112.435547,18.7382812 L112.544922,18.7382812 L112.544922,14.6503906 L114.014648,14.6503906 L114.014648,25 L112.606445,25 L112.606445,23.8242188 L112.490234,23.8242188 C112.045898,24.6376953 111.177734,25.1230469 110.152344,25.1230469 Z M110.569336,18.7519531 C109.332031,18.7519531 108.580078,19.7089844 108.580078,21.2744141 C108.580078,22.8535156 109.325195,23.8037109 110.569336,23.8037109 C111.806641,23.8037109 112.572266,22.8398438 112.572266,21.28125 C112.572266,19.7294922 111.799805,18.7519531 110.569336,18.7519531 Z M120.160156,25.1230469 C119.121094,25.1230469 118.25293,24.6445312 117.808594,23.8242188 L117.699219,23.8242188 L117.699219,25 L116.28418,25 L116.28418,14.6503906 L117.753906,14.6503906 L117.753906,18.7382812 L117.870117,18.7382812 C118.266602,17.9248047 119.141602,17.4326172 120.160156,17.4326172 C122.046875,17.4326172 123.236328,18.9091797 123.236328,21.2744141 C123.236328,23.6328125 122.040039,25.1230469 120.160156,25.1230469 Z M119.736328,18.7519531 C118.505859,18.7519531 117.733398,19.7226562 117.726562,21.28125 C117.733398,22.8398438 118.499023,23.8037109 119.736328,23.8037109 C120.980469,23.8037109 121.725586,22.8535156 121.725586,21.2744141 C121.725586,19.7089844 120.980469,18.7519531 119.736328,18.7519531 Z M127.433594,23.8857422 C128.541016,23.8857422 129.361328,23.1816406 129.361328,22.2587891 L129.361328,21.6367188 L127.542969,21.7529297 C126.517578,21.8212891 126.052734,22.1699219 126.052734,22.8261719 C126.052734,23.4960938 126.633789,23.8857422 127.433594,23.8857422 Z M127.057617,25.1230469 C125.62207,25.1230469 124.576172,24.2548828 124.576172,22.8945312 C124.576172,21.5546875 125.574219,20.7822266 127.344727,20.6728516 L129.361328,20.5566406 L129.361328,19.9140625 C129.361328,19.1279297 128.841797,18.6835938 127.836914,18.6835938 C127.016602,18.6835938 126.449219,18.984375 126.285156,19.5107422 L124.863281,19.5107422 C125.013672,18.2324219 126.216797,17.4121094 127.905273,17.4121094 C129.771484,17.4121094 130.824219,18.3417969 130.824219,19.9140625 L130.824219,25 L129.40918,25 L129.40918,23.9541016 L129.292969,23.9541016 C128.848633,24.6992188 128.035156,25.1230469 127.057617,25.1230469 Z M139.21875,19.9892578 L137.790039,19.9892578 C137.619141,19.2646484 137.017578,18.7246094 136.033203,18.7246094 C134.802734,18.7246094 134.050781,19.6679688 134.050781,21.2539062 C134.050781,22.8671875 134.80957,23.8310547 136.033203,23.8310547 C136.962891,23.8310547 137.598633,23.4072266 137.790039,22.6074219 L139.21875,22.6074219 C139.027344,24.1044922 137.878906,25.1435547 136.040039,25.1435547 C133.873047,25.1435547 132.546875,23.6806641 132.546875,21.2539062 C132.546875,18.8681641 133.866211,17.4121094 136.033203,17.4121094 C137.899414,17.4121094 139.027344,18.4990234 139.21875,19.9892578 Z M142.547852,20.6591797 L145.500977,17.5556641 L147.237305,17.5556641 L144.174805,20.7480469 L147.442383,25 L145.637695,25 L143.081055,21.71875 L142.431641,22.3339844 L142.431641,25 L140.961914,25 L140.961914,14.6503906 L142.431641,14.6503906 L142.431641,20.6591797 L142.547852,20.6591797 Z M152.685547,25 L152.685547,14.6503906 L154.141602,14.6503906 L154.141602,18.7519531 L154.257812,18.7519531 C154.620117,17.9179688 155.481445,17.4189453 156.602539,17.4189453 C158.277344,17.4189453 159.234375,18.4238281 159.234375,20.1943359 L159.234375,25 L157.764648,25 L157.764648,20.5566406 C157.764648,19.3671875 157.210938,18.765625 156.103516,18.765625 C154.900391,18.765625 154.155273,19.5244141 154.155273,20.6523438 L154.155273,25 L152.685547,25 Z M164.361328,18.6630859 C163.274414,18.6630859 162.515625,19.4287109 162.433594,20.5908203 L166.193359,20.5908203 C166.15918,19.421875 165.448242,18.6630859 164.361328,18.6630859 Z M166.186523,22.9902344 L167.601562,22.9902344 C167.266602,24.3232422 166.077148,25.1435547 164.375,25.1435547 C162.242188,25.1435547 160.936523,23.6806641 160.936523,21.3017578 C160.936523,18.9228516 162.269531,17.4121094 164.368164,17.4121094 C166.439453,17.4121094 167.69043,18.8271484 167.69043,21.1650391 L167.69043,21.6777344 L162.433594,21.6777344 L162.433594,21.7597656 C162.481445,23.0654297 163.240234,23.8925781 164.416016,23.8925781 C165.304688,23.8925781 165.913086,23.5712891 166.186523,22.9902344 Z M169.454102,25 L169.454102,17.5556641 L170.869141,17.5556641 L170.869141,18.6972656 L170.978516,18.6972656 C171.19043,17.9658203 172.010742,17.4326172 172.981445,17.4326172 C173.193359,17.4326172 173.473633,17.453125 173.630859,17.4941406 L173.630859,18.9433594 C173.514648,18.9023438 173.063477,18.8544922 172.817383,18.8544922 C171.709961,18.8544922 170.923828,19.5585938 170.923828,20.6044922 L170.923828,25 L169.454102,25 Z M178.033203,18.6630859 C176.946289,18.6630859 176.1875,19.4287109 176.105469,20.5908203 L179.865234,20.5908203 C179.831055,19.421875 179.120117,18.6630859 178.033203,18.6630859 Z M179.858398,22.9902344 L181.273438,22.9902344 C180.938477,24.3232422 179.749023,25.1435547 178.046875,25.1435547 C175.914062,25.1435547 174.608398,23.6806641 174.608398,21.3017578 C174.608398,18.9228516 175.941406,17.4121094 178.040039,17.4121094 C180.111328,17.4121094 181.362305,18.8271484 181.362305,21.1650391 L181.362305,21.6777344 L176.105469,21.6777344 L176.105469,21.7597656 C176.15332,23.0654297 176.912109,23.8925781 178.087891,23.8925781 C178.976562,23.8925781 179.584961,23.5712891 179.858398,22.9902344 Z" id="Placeholder" fill="#726D82" fill-rule="nonzero"></path>
                </g>
                <g id="Button" transform="translate(184.000000, 160.000000)">
                    <g id="Rectangle" fill="#000000">
                        <g id="path-7-link" fill-rule="nonzero">
                            <rect id="path-7" x="0" y="0" width="64" height="40" rx="3"></rect>
                        </g>
                        <g id="path-7-link">
                            <rect id="path-7" x="0" y="0" width="64" height="40" rx="3"></rect>
                        </g>
                    </g>
                    <path d="M15.1870117,22.3203125 L16.909668,22.3203125 C17.019043,23.2021484 17.894043,23.7695312 19.1450195,23.7695312 C20.3071289,23.7695312 21.1479492,23.1748047 21.1479492,22.3476562 C21.1479492,21.6367188 20.6079102,21.2197266 19.3432617,20.9257812 L18.0649414,20.6318359 C16.2739258,20.2285156 15.4331055,19.3398438 15.4331055,17.8701172 C15.4331055,16.0791016 16.8959961,14.8896484 19.1040039,14.8896484 C21.175293,14.8896484 22.6723633,16.0791016 22.7543945,17.7744141 L21.065918,17.7744141 C20.9428711,16.90625 20.1772461,16.359375 19.097168,16.359375 C17.9624023,16.359375 17.2104492,16.90625 17.2104492,17.7470703 C17.2104492,18.4101562 17.7094727,18.7998047 18.9331055,19.0800781 L20.0678711,19.3398438 C22.0708008,19.7910156 22.9116211,20.625 22.9116211,22.1289062 C22.9116211,24.0498047 21.4282227,25.2460938 19.0356445,25.2460938 C16.7729492,25.2460938 15.2758789,24.1113281 15.1870117,22.3203125 Z M27.8540039,18.7177734 C26.8422852,18.7177734 26.1313477,19.4423828 26.0561523,20.5361328 L29.5766602,20.5361328 C29.5424805,19.4287109 28.8725586,18.7177734 27.8540039,18.7177734 Z M29.590332,22.9423828 L31.1967773,22.9423828 C30.8754883,24.3027344 29.6381836,25.1503906 27.8745117,25.1503906 C25.6733398,25.1503906 24.347168,23.6943359 24.347168,21.2880859 C24.347168,18.8818359 25.6938477,17.3710938 27.8608398,17.3710938 C29.9936523,17.3710938 31.2719727,18.7861328 31.2719727,21.1445312 L31.2719727,21.6914062 L26.0493164,21.6914062 L26.0493164,21.7802734 C26.090332,23.0244141 26.8081055,23.8037109 27.9223633,23.8037109 C28.7631836,23.8037109 29.3442383,23.4960938 29.590332,22.9423828 Z M32.9741211,25 L32.9741211,17.5214844 L34.6079102,17.5214844 L34.6079102,18.7177734 L34.7241211,18.7177734 C35.0795898,17.8837891 35.9545898,17.3710938 37.0756836,17.3710938 C38.7436523,17.3710938 39.6801758,18.3759766 39.6801758,20.1601562 L39.6801758,25 L37.9916992,25 L37.9916992,20.5634766 C37.9916992,19.421875 37.472168,18.8476562 36.4467773,18.8476562 C35.3530273,18.8476562 34.6694336,19.5449219 34.6694336,20.6455078 L34.6694336,25 L32.9741211,25 Z M44.3969727,25.1230469 C42.503418,25.1230469 41.3208008,23.6328125 41.3208008,21.2539062 C41.3208008,18.8886719 42.5102539,17.3984375 44.3969727,17.3984375 C45.4223633,17.3984375 46.2700195,17.890625 46.6665039,18.7109375 L46.7827148,18.7109375 L46.7827148,14.6298828 L48.4780273,14.6298828 L48.4780273,25 L46.8374023,25 L46.8374023,23.8173828 L46.7211914,23.8173828 C46.2973633,24.6376953 45.4360352,25.1230469 44.3969727,25.1230469 Z M44.9233398,18.8408203 C43.7680664,18.8408203 43.0571289,19.7568359 43.0571289,21.2607422 C43.0571289,22.7714844 43.7612305,23.6806641 44.9233398,23.6806641 C46.0922852,23.6806641 46.8032227,22.7646484 46.8032227,21.2607422 C46.8032227,19.7705078 46.0854492,18.8408203 44.9233398,18.8408203 Z" id="Send" fill="#FFFFFF" fill-rule="nonzero"></path>
                </g>
                <g id="Dialog-header" transform="translate(24.000000, 20.000000)" fill="#140B2F" fill-rule="nonzero">
                    <path d="M0.875,8.9375 L2.84375,8.9375 C2.96875,9.9453125 3.96875,10.59375 5.3984375,10.59375 C6.7265625,10.59375 7.6875,9.9140625 7.6875,8.96875 C7.6875,8.15625 7.0703125,7.6796875 5.625,7.34375 L4.1640625,7.0078125 C2.1171875,6.546875 1.15625,5.53125 1.15625,3.8515625 C1.15625,1.8046875 2.828125,0.4453125 5.3515625,0.4453125 C7.71875,0.4453125 9.4296875,1.8046875 9.5234375,3.7421875 L7.59375,3.7421875 C7.453125,2.75 6.578125,2.125 5.34375,2.125 C4.046875,2.125 3.1875,2.75 3.1875,3.7109375 C3.1875,4.46875 3.7578125,4.9140625 5.15625,5.234375 L6.453125,5.53125 C8.7421875,6.046875 9.703125,7 9.703125,8.71875 C9.703125,10.9140625 8.0078125,12.28125 5.2734375,12.28125 C2.6875,12.28125 0.9765625,10.984375 0.875,8.9375 Z M15.3515625,4.8203125 C14.1953125,4.8203125 13.3828125,5.6484375 13.296875,6.8984375 L17.3203125,6.8984375 C17.28125,5.6328125 16.515625,4.8203125 15.3515625,4.8203125 Z M17.3359375,9.6484375 L19.171875,9.6484375 C18.8046875,11.203125 17.390625,12.171875 15.375,12.171875 C12.859375,12.171875 11.34375,10.5078125 11.34375,7.7578125 C11.34375,5.0078125 12.8828125,3.28125 15.359375,3.28125 C17.796875,3.28125 19.2578125,4.8984375 19.2578125,7.59375 L19.2578125,8.21875 L13.2890625,8.21875 L13.2890625,8.3203125 C13.3359375,9.7421875 14.15625,10.6328125 15.4296875,10.6328125 C16.390625,10.6328125 17.0546875,10.28125 17.3359375,9.6484375 Z M21.203125,12 L21.203125,3.453125 L23.0703125,3.453125 L23.0703125,4.8203125 L23.203125,4.8203125 C23.609375,3.8671875 24.609375,3.28125 25.890625,3.28125 C27.796875,3.28125 28.8671875,4.4296875 28.8671875,6.46875 L28.8671875,12 L26.9375,12 L26.9375,6.9296875 C26.9375,5.625 26.34375,4.96875 25.171875,4.96875 C23.921875,4.96875 23.140625,5.765625 23.140625,7.0234375 L23.140625,12 L21.203125,12 Z M34.2578125,12.140625 C32.09375,12.140625 30.7421875,10.4375 30.7421875,7.71875 C30.7421875,5.015625 32.1015625,3.3125 34.2578125,3.3125 C35.4296875,3.3125 36.3984375,3.875 36.8515625,4.8125 L36.984375,4.8125 L36.984375,0.1484375 L38.921875,0.1484375 L38.921875,12 L37.046875,12 L37.046875,10.6484375 L36.9140625,10.6484375 C36.4296875,11.5859375 35.4453125,12.140625 34.2578125,12.140625 Z M34.859375,4.9609375 C33.5390625,4.9609375 32.7265625,6.0078125 32.7265625,7.7265625 C32.7265625,9.453125 33.53125,10.4921875 34.859375,10.4921875 C36.1953125,10.4921875 37.0078125,9.4453125 37.0078125,7.7265625 C37.0078125,6.0234375 36.1875,4.9609375 34.859375,4.9609375 Z M53.25,3.453125 L53.25,12 L51.3828125,12 L51.3828125,10.640625 L51.25,10.640625 C50.8359375,11.6171875 49.8671875,12.171875 48.6015625,12.171875 C46.71875,12.171875 45.5546875,11.0078125 45.5546875,8.984375 L45.5546875,3.453125 L47.4921875,3.453125 L47.4921875,8.5234375 C47.4921875,9.8359375 48.109375,10.46875 49.2734375,10.46875 C50.5234375,10.46875 51.3125,9.6953125 51.3125,8.4296875 L51.3125,3.453125 L53.25,3.453125 Z M55.4296875,5.8984375 C55.4296875,4.3515625 56.8359375,3.28125 58.8515625,3.28125 C60.8828125,3.28125 62.15625,4.1796875 62.296875,5.734375 L60.4765625,5.734375 C60.3359375,5.1328125 59.765625,4.75 58.859375,4.75 C57.9765625,4.75 57.3125,5.171875 57.3125,5.7890625 C57.3125,6.2734375 57.71875,6.5703125 58.578125,6.765625 L60.0859375,7.109375 C61.71875,7.4765625 62.4765625,8.1796875 62.4765625,9.4375 C62.4765625,11.078125 60.96875,12.171875 58.8359375,12.171875 C56.703125,12.171875 55.359375,11.25 55.2109375,9.6953125 L57.125,9.6953125 C57.3125,10.328125 57.9140625,10.703125 58.8828125,10.703125 C59.859375,10.703125 60.5390625,10.2734375 60.5390625,9.640625 C60.5390625,9.15625 60.171875,8.8515625 59.359375,8.671875 L57.84375,8.3203125 C56.203125,7.9453125 55.4296875,7.1875 55.4296875,5.8984375 Z M69.640625,15.109375 C69.5234375,15.109375 69,15.1015625 68.875,15.078125 L68.875,13.5 C68.984375,13.515625 69.2734375,13.5234375 69.40625,13.5234375 C70.2265625,13.5234375 70.6875,13.203125 70.9375,12.4140625 L71.0390625,12.0390625 L67.984375,3.453125 L70.109375,3.453125 L72.109375,10.125 L72.2421875,10.125 L74.234375,3.453125 L76.28125,3.453125 L73.1953125,12.2734375 C72.46875,14.3984375 71.5546875,15.109375 69.640625,15.109375 Z M81.6328125,10.546875 C82.984375,10.546875 83.75,9.515625 83.75,7.7265625 C83.75,5.9453125 82.9765625,4.90625 81.6328125,4.90625 C80.28125,4.90625 79.5078125,5.9453125 79.5078125,7.7265625 C79.5078125,9.515625 80.28125,10.546875 81.6328125,10.546875 Z M81.6328125,12.171875 C79.0703125,12.171875 77.5234375,10.5 77.5234375,7.7265625 C77.5234375,4.96875 79.09375,3.28125 81.6328125,3.28125 C84.1796875,3.28125 85.7421875,4.9609375 85.7421875,7.7265625 C85.7421875,10.5 84.1875,12.171875 81.6328125,12.171875 Z M95.3125,3.453125 L95.3125,12 L93.4453125,12 L93.4453125,10.640625 L93.3125,10.640625 C92.8984375,11.6171875 91.9296875,12.171875 90.6640625,12.171875 C88.78125,12.171875 87.6171875,11.0078125 87.6171875,8.984375 L87.6171875,3.453125 L89.5546875,3.453125 L89.5546875,8.5234375 C89.5546875,9.8359375 90.171875,10.46875 91.3359375,10.46875 C92.5859375,10.46875 93.375,9.6953125 93.375,8.4296875 L93.375,3.453125 L95.3125,3.453125 Z M97.6875,12 L97.6875,3.453125 L99.5546875,3.453125 L99.5546875,4.78125 L99.6875,4.78125 C99.921875,3.9375 100.835938,3.3125 101.929688,3.3125 C102.203125,3.3125 102.539062,3.34375 102.726562,3.3984375 L102.726562,5.1953125 C102.578125,5.140625 102.046875,5.0859375 101.742188,5.0859375 C100.5,5.0859375 99.625,5.8671875 99.625,7.0625 L99.625,12 L97.6875,12 Z M109.132812,12 L109.132812,5.0546875 L107.742188,5.0546875 L107.742188,3.5078125 L109.132812,3.5078125 L109.132812,2.65625 C109.132812,0.921875 110.03125,0.21875 111.90625,0.21875 C112.25,0.21875 112.585938,0.25 112.929688,0.3046875 L112.929688,1.75 C112.757812,1.7109375 112.46875,1.6875 112.1875,1.6875 C111.429688,1.6875 111.03125,2.015625 111.03125,2.78125 L111.03125,3.5078125 L112.882812,3.5078125 L112.882812,5.0546875 L111.0625,5.0546875 L111.0625,12 L109.132812,12 Z M118.359375,4.8203125 C117.203125,4.8203125 116.390625,5.6484375 116.304688,6.8984375 L120.328125,6.8984375 C120.289063,5.6328125 119.523438,4.8203125 118.359375,4.8203125 Z M120.34375,9.6484375 L122.179688,9.6484375 C121.8125,11.203125 120.398438,12.171875 118.382812,12.171875 C115.867188,12.171875 114.351562,10.5078125 114.351562,7.7578125 C114.351562,5.0078125 115.890625,3.28125 118.367188,3.28125 C120.804688,3.28125 122.265625,4.8984375 122.265625,7.59375 L122.265625,8.21875 L116.296875,8.21875 L116.296875,8.3203125 C116.34375,9.7421875 117.164062,10.6328125 118.4375,10.6328125 C119.398438,10.6328125 120.0625,10.28125 120.34375,9.6484375 Z M127.796875,4.8203125 C126.640625,4.8203125 125.828125,5.6484375 125.742188,6.8984375 L129.765625,6.8984375 C129.726562,5.6328125 128.960938,4.8203125 127.796875,4.8203125 Z M129.78125,9.6484375 L131.617188,9.6484375 C131.25,11.203125 129.835938,12.171875 127.820312,12.171875 C125.304688,12.171875 123.789062,10.5078125 123.789062,7.7578125 C123.789062,5.0078125 125.328125,3.28125 127.804688,3.28125 C130.242188,3.28125 131.703125,4.8984375 131.703125,7.59375 L131.703125,8.21875 L125.734375,8.21875 L125.734375,8.3203125 C125.78125,9.7421875 126.601562,10.6328125 127.875,10.6328125 C128.835938,10.6328125 129.5,10.28125 129.78125,9.6484375 Z M136.742188,12.140625 C134.578125,12.140625 133.226562,10.4375 133.226562,7.71875 C133.226562,5.015625 134.585938,3.3125 136.742188,3.3125 C137.914062,3.3125 138.882812,3.875 139.335938,4.8125 L139.46875,4.8125 L139.46875,0.1484375 L141.40625,0.1484375 L141.40625,12 L139.53125,12 L139.53125,10.6484375 L139.398438,10.6484375 C138.914062,11.5859375 137.929688,12.140625 136.742188,12.140625 Z M137.34375,4.9609375 C136.023438,4.9609375 135.210938,6.0078125 135.210938,7.7265625 C135.210938,9.453125 136.015625,10.4921875 137.34375,10.4921875 C138.679688,10.4921875 139.492188,9.4453125 139.492188,7.7265625 C139.492188,6.0234375 138.671875,4.9609375 137.34375,4.9609375 Z M148.601562,12.140625 C147.40625,12.140625 146.414062,11.5859375 145.929688,10.6484375 L145.796875,10.6484375 L145.796875,12 L143.929688,12 L143.929688,0.1484375 L145.867188,0.1484375 L145.867188,4.8125 L146,4.8125 C146.445312,3.8828125 147.429688,3.3125 148.601562,3.3125 C150.765625,3.3125 152.109375,4.9921875 152.109375,7.7265625 C152.109375,10.4453125 150.757812,12.140625 148.601562,12.140625 Z M147.992188,4.9609375 C146.671875,4.9609375 145.835938,6.0234375 145.835938,7.7265625 C145.835938,9.4296875 146.664062,10.4921875 147.992188,10.4921875 C149.320312,10.4921875 150.117188,9.4453125 150.117188,7.7265625 C150.117188,6.0078125 149.3125,4.9609375 147.992188,4.9609375 Z M156.976562,10.6171875 C158.148438,10.6171875 159.023438,9.859375 159.023438,8.8671875 L159.023438,8.1875 L157.09375,8.3125 C156.007812,8.3828125 155.5,8.7734375 155.5,9.46875 C155.5,10.1875 156.117188,10.6171875 156.976562,10.6171875 Z M156.40625,12.140625 C154.757812,12.140625 153.578125,11.140625 153.578125,9.578125 C153.578125,8.03125 154.742188,7.140625 156.820312,7.015625 L159.023438,6.8828125 L159.023438,6.1640625 C159.023438,5.328125 158.460938,4.859375 157.414062,4.859375 C156.523438,4.859375 155.914062,5.171875 155.734375,5.75 L153.90625,5.75 C154.0625,4.2421875 155.476562,3.28125 157.507812,3.28125 C159.703125,3.28125 160.9375,4.3515625 160.9375,6.1640625 L160.9375,12 L159.070312,12 L159.070312,10.828125 L158.9375,10.828125 C158.460938,11.65625 157.523438,12.140625 156.40625,12.140625 Z M170.648438,6.328125 L168.804688,6.328125 C168.625,5.5 167.984375,4.90625 166.921875,4.90625 C165.59375,4.90625 164.804688,5.9296875 164.804688,7.703125 C164.804688,9.5 165.601562,10.546875 166.921875,10.546875 C167.929688,10.546875 168.601562,10.0703125 168.804688,9.1796875 L170.648438,9.1796875 C170.4375,10.96875 169.09375,12.171875 166.929688,12.171875 C164.359375,12.171875 162.84375,10.515625 162.84375,7.703125 C162.84375,4.9296875 164.351562,3.28125 166.921875,3.28125 C169.117188,3.28125 170.445312,4.53125 170.648438,6.328125 Z M174.648437,6.9375 L177.804687,3.453125 L180.054687,3.453125 L176.648437,7.1171875 L180.289062,12 L177.945312,12 L175.203125,8.3359375 L174.515625,9.0234375 L174.515625,12 L172.578125,12 L172.578125,0.1484375 L174.515625,0.1484375 L174.515625,6.9375 L174.648437,6.9375 Z" id="Send-us-your-feedbac"></path>
                </g>
            </g>
        </g>
    </g>
</svg>