<?xml version="1.0" encoding="UTF-8"?>
<svg width="400px" height="320px" viewBox="0 0 400 320" version="1.1" xmlns="http://www.w3.org/2000/svg" xmlns:xlink="http://www.w3.org/1999/xlink">
    <!-- Generator: Sketch 49.3 (51167) - http://www.bohemiancoding.com/sketch -->
    <title>snippet/form-color</title>
    <desc>Created with Sketch.</desc>
    <defs>
        <rect id="path-1" x="8" y="8" width="256" height="208" rx="3"></rect>
        <filter x="-10.5%" y="-10.1%" width="121.1%" height="126.0%" filterUnits="objectBoundingBox" id="filter-2">
            <feOffset dx="0" dy="6" in="SourceAlpha" result="shadowOffsetOuter1"></feOffset>
            <feGaussianBlur stdDeviation="8" in="shadowOffsetOuter1" result="shadowBlurOuter1"></feGaussianBlur>
            <feColorMatrix values="0 0 0 0 0   0 0 0 0 0   0 0 0 0 0  0 0 0 0.6 0" type="matrix" in="shadowBlurOuter1"></feColorMatrix>
        </filter>
        <rect id="path-3" x="0" y="0" width="48" height="40" rx="3"></rect>
        <filter x="-9.4%" y="-8.8%" width="118.8%" height="122.5%" filterUnits="objectBoundingBox" id="filter-4">
            <feMorphology radius="1" operator="dilate" in="SourceAlpha" result="shadowSpreadOuter1"></feMorphology>
            <feOffset dx="0" dy="1" in="shadowSpreadOuter1" result="shadowOffsetOuter1"></feOffset>
            <feGaussianBlur stdDeviation="1" in="shadowOffsetOuter1" result="shadowBlurOuter1"></feGaussianBlur>
            <feComposite in="shadowBlurOuter1" in2="SourceAlpha" operator="out" result="shadowBlurOuter1"></feComposite>
            <feColorMatrix values="0 0 0 0 0   0 0 0 0 0   0 0 0 0 0  0 0 0 0.04 0" type="matrix" in="shadowBlurOuter1"></feColorMatrix>
        </filter>
        <rect id="path-5" x="0" y="0" width="224" height="80" rx="3"></rect>
        <filter x="-2.0%" y="-4.4%" width="104.0%" height="111.2%" filterUnits="objectBoundingBox" id="filter-6">
            <feMorphology radius="1" operator="dilate" in="SourceAlpha" result="shadowSpreadOuter1"></feMorphology>
            <feOffset dx="0" dy="1" in="shadowSpreadOuter1" result="shadowOffsetOuter1"></feOffset>
            <feGaussianBlur stdDeviation="1" in="shadowOffsetOuter1" result="shadowBlurOuter1"></feGaussianBlur>
            <feComposite in="shadowBlurOuter1" in2="SourceAlpha" operator="out" result="shadowBlurOuter1"></feComposite>
            <feColorMatrix values="0 0 0 0 0   0 0 0 0 0   0 0 0 0 0  0 0 0 0.04 0" type="matrix" in="shadowBlurOuter1"></feColorMatrix>
        </filter>
        <rect id="path-7" x="0" y="0" width="64" height="40" rx="3"></rect>
        <filter x="-10.9%" y="-12.5%" width="121.9%" height="135.0%" filterUnits="objectBoundingBox" id="filter-8">
            <feOffset dx="0" dy="2" in="SourceAlpha" result="shadowOffsetOuter1"></feOffset>
            <feGaussianBlur stdDeviation="2" in="shadowOffsetOuter1" result="shadowBlurOuter1"></feGaussianBlur>
            <feColorMatrix values="0 0 0 0 0   0 0 0 0 0   0 0 0 0 0  0 0 0 0.04 0" type="matrix" in="shadowBlurOuter1"></feColorMatrix>
        </filter>
    </defs>
    <g id="snippet/form-color" stroke="none" stroke-width="1" fill="none" fill-rule="evenodd">
        <g id="Group" transform="translate(9.000000, 6.000000)">
            <g transform="translate(183.000000, 146.000000) rotate(-3.000000) translate(-183.000000, -146.000000) translate(7.000000, 10.000000)" fill="#000000" id="Rectangle-4">
                <rect x="0" y="0" width="352" height="272" rx="3"></rect>
            </g>
            <g id="Dialog" transform="translate(103.000000, 74.000000)">
                <g id="Shadow">
                    <use fill="black" fill-opacity="1" filter="url(#filter-2)" xlink:href="#path-1"></use>
                    <use fill="#FFFFFF" fill-rule="evenodd" xlink:href="#path-1"></use>
                </g>
                <rect id="Rectangle-2" fill="#FFFFFF" x="0" y="0" width="272" height="224" rx="3"></rect>
                <g id="component/icon-button" transform="translate(24.000000, 160.000000)">
                    <g id="Group">
                        <g id="Rectangle-5" stroke-linecap="square">
                            <use fill="black" fill-opacity="1" filter="url(#filter-4)" xlink:href="#path-3"></use>
                            <use fill="#FFFFFF" fill-rule="evenodd" xlink:href="#path-3"></use>
                            <rect stroke-opacity="0.098194067" stroke="#140B2F" stroke-width="1" x="-0.5" y="-0.5" width="49" height="41" rx="3"></rect>
                        </g>
                        <g id="icons/cross" transform="translate(12.000000, 8.000000)" stroke="#726D82" stroke-linecap="round" stroke-linejoin="round">
                            <g id="x" transform="translate(6.000000, 6.000000)">
                                <path d="M12,0 L0,12" id="Shape" stroke-width="2"></path>
                                <path d="M0,0 L12,12" id="Shape" stroke-width="2"></path>
                            </g>
                        </g>
                    </g>
                </g>
                <g id="component/input" transform="translate(24.000000, 56.000000)">
                    <g id="Rectangle-5" stroke-linecap="square">
                        <use fill="black" fill-opacity="1" filter="url(#filter-6)" xlink:href="#path-5"></use>
                        <use fill="#FFFFFF" fill-rule="evenodd" xlink:href="#path-5"></use>
                        <rect stroke-opacity="0.098194067" stroke="#140B2F" stroke-width="1" x="-0.5" y="-0.5" width="225" height="81" rx="3"></rect>
                    </g>
                    <path d="M17.2705078,24 L15.7392578,24 L15.7392578,15.5302734 L12.6357422,15.5302734 L12.6357422,14.1357422 L20.3671875,14.1357422 L20.3671875,15.5302734 L17.2705078,15.5302734 L17.2705078,24 Z M22.8076172,26.7070312 C22.6845703,26.7070312 22.3359375,26.7001953 22.1992188,26.6728516 L22.1992188,25.4082031 C22.3154297,25.4287109 22.5410156,25.4355469 22.6777344,25.4355469 C23.375,25.4355469 23.7714844,25.1416016 24.0244141,24.3896484 L24.1337891,24.0273438 L21.4404297,16.5556641 L23.0400391,16.5556641 L24.90625,22.46875 L25.0224609,22.46875 L26.8818359,16.5556641 L28.4404297,16.5556641 L25.6650391,24.3076172 C25.0292969,26.1191406 24.3251953,26.7070312 22.8076172,26.7070312 Z M33.8066406,16.4326172 C35.7001953,16.4326172 36.8964844,17.9091797 36.8964844,20.2744141 C36.8964844,22.6396484 35.7001953,24.1230469 33.8203125,24.1230469 C32.7607422,24.1230469 31.9199219,23.6582031 31.5302734,22.8720703 L31.4140625,22.8720703 L31.4140625,26.4130859 L29.9443359,26.4130859 L29.9443359,16.5556641 L31.359375,16.5556641 L31.359375,17.7861328 L31.46875,17.7861328 C31.9199219,16.9384766 32.7949219,16.4326172 33.8066406,16.4326172 Z M33.3896484,22.8037109 C34.640625,22.8037109 35.3857422,21.8535156 35.3857422,20.2744141 C35.3857422,18.7021484 34.640625,17.7519531 33.3964844,17.7519531 C32.1591797,17.7519531 31.3867188,18.7226562 31.3867188,20.28125 C31.3867188,21.8330078 32.1591797,22.8037109 33.3896484,22.8037109 Z M41.7158203,17.6630859 C40.6289062,17.6630859 39.8701172,18.4287109 39.7880859,19.5908203 L43.5478516,19.5908203 C43.5136719,18.421875 42.8027344,17.6630859 41.7158203,17.6630859 Z M43.5410156,21.9902344 L44.9560547,21.9902344 C44.6210938,23.3232422 43.4316406,24.1435547 41.7294922,24.1435547 C39.5966797,24.1435547 38.2910156,22.6806641 38.2910156,20.3017578 C38.2910156,17.9228516 39.6240234,16.4121094 41.7226562,16.4121094 C43.7939453,16.4121094 45.0449219,17.8271484 45.0449219,20.1650391 L45.0449219,20.6777344 L39.7880859,20.6777344 L39.7880859,20.7597656 C39.8359375,22.0654297 40.5947266,22.8925781 41.7705078,22.8925781 C42.6591797,22.8925781 43.2675781,22.5712891 43.5410156,21.9902344 Z M51.375,26.7070312 C51.2519531,26.7070312 50.9033203,26.7001953 50.7666016,26.6728516 L50.7666016,25.4082031 C50.8828125,25.4287109 51.1083984,25.4355469 51.2451172,25.4355469 C51.9423828,25.4355469 52.3388672,25.1416016 52.5917969,24.3896484 L52.7011719,24.0273438 L50.0078125,16.5556641 L51.6074219,16.5556641 L53.4736328,22.46875 L53.5898438,22.46875 L55.4492188,16.5556641 L57.0078125,16.5556641 L54.2324219,24.3076172 C53.5966797,26.1191406 52.8925781,26.7070312 51.375,26.7070312 Z M61.65625,22.8378906 C62.9277344,22.8378906 63.6523438,21.8945312 63.6523438,20.2744141 C63.6523438,18.6611328 62.9277344,17.7177734 61.65625,17.7177734 C60.3779297,17.7177734 59.6601563,18.6611328 59.6601563,20.2744141 C59.6601563,21.9013672 60.3779297,22.8378906 61.65625,22.8378906 Z M61.65625,24.1435547 C59.4755859,24.1435547 58.1425781,22.6875 58.1425781,20.2744141 C58.1425781,17.875 59.4824219,16.4121094 61.65625,16.4121094 C63.8232422,16.4121094 65.1630859,17.875 65.1630859,20.2744141 C65.1630859,22.6875 63.8300781,24.1435547 61.65625,24.1435547 Z M73.3457031,16.5556641 L73.3457031,24 L71.9375,24 L71.9375,22.8173828 L71.8212891,22.8173828 C71.4589844,23.6650391 70.6113281,24.1435547 69.4902344,24.1435547 C67.8359375,24.1435547 66.8583984,23.1386719 66.8583984,21.375 L66.8583984,16.5556641 L68.328125,16.5556641 L68.328125,21.0058594 C68.328125,22.2089844 68.8818359,22.7832031 69.96875,22.7832031 C71.1513672,22.7832031 71.8828125,22.0791016 71.8828125,20.9101562 L71.8828125,16.5556641 L73.3457031,16.5556641 Z M75.4853516,24 L75.4853516,16.5556641 L76.9003906,16.5556641 L76.9003906,17.6972656 L77.0097656,17.6972656 C77.2216797,16.9658203 78.0419922,16.4326172 79.0126953,16.4326172 C79.2246094,16.4326172 79.5048828,16.453125 79.6621094,16.4941406 L79.6621094,17.9433594 C79.5458984,17.9023438 79.0947266,17.8544922 78.8486328,17.8544922 C77.7412109,17.8544922 76.9550781,18.5585938 76.9550781,19.6044922 L76.9550781,24 L75.4853516,24 Z M85.3564453,24 L85.3564453,17.8271484 L84.1328125,17.8271484 L84.1328125,16.5898438 L85.3564453,16.5898438 L85.3564453,15.8515625 C85.3564453,14.3339844 86.1425781,13.71875 87.6875,13.71875 C87.9609375,13.71875 88.2207031,13.7392578 88.5146484,13.7871094 L88.5146484,14.9628906 C88.3574219,14.9355469 88.0976562,14.9082031 87.8583984,14.9082031 C87.1816406,14.9082031 86.8125,15.2226562 86.8125,15.9335938 L86.8125,16.5898438 L88.4599609,16.5898438 L88.4599609,17.8271484 L86.8261719,17.8271484 L86.8261719,24 L85.3564453,24 Z M93.1904297,17.6630859 C92.1035156,17.6630859 91.3447266,18.4287109 91.2626953,19.5908203 L95.0224609,19.5908203 C94.9882812,18.421875 94.2773438,17.6630859 93.1904297,17.6630859 Z M95.015625,21.9902344 L96.4306641,21.9902344 C96.0957031,23.3232422 94.90625,24.1435547 93.2041016,24.1435547 C91.0712891,24.1435547 89.765625,22.6806641 89.765625,20.3017578 C89.765625,17.9228516 91.0986328,16.4121094 93.1972656,16.4121094 C95.2685547,16.4121094 96.5195312,17.8271484 96.5195312,20.1650391 L96.5195312,20.6777344 L91.2626953,20.6777344 L91.2626953,20.7597656 C91.3105469,22.0654297 92.0693359,22.8925781 93.2451172,22.8925781 C94.1337891,22.8925781 94.7421875,22.5712891 95.015625,21.9902344 Z M101.338867,17.6630859 C100.251953,17.6630859 99.4931641,18.4287109 99.4111328,19.5908203 L103.170898,19.5908203 C103.136719,18.421875 102.425781,17.6630859 101.338867,17.6630859 Z M103.164062,21.9902344 L104.579102,21.9902344 C104.244141,23.3232422 103.054688,24.1435547 101.352539,24.1435547 C99.2197266,24.1435547 97.9140625,22.6806641 97.9140625,20.3017578 C97.9140625,17.9228516 99.2470703,16.4121094 101.345703,16.4121094 C103.416992,16.4121094 104.667969,17.8271484 104.667969,20.1650391 L104.667969,20.6777344 L99.4111328,20.6777344 L99.4111328,20.7597656 C99.4589844,22.0654297 100.217773,22.8925781 101.393555,22.8925781 C102.282227,22.8925781 102.890625,22.5712891 103.164062,21.9902344 Z M109.152344,24.1230469 C107.258789,24.1230469 106.0625,22.6328125 106.0625,20.2744141 C106.0625,17.9228516 107.272461,16.4326172 109.152344,16.4326172 C110.170898,16.4326172 111.032227,16.9179688 111.435547,17.7382812 L111.544922,17.7382812 L111.544922,13.6503906 L113.014648,13.6503906 L113.014648,24 L111.606445,24 L111.606445,22.8242188 L111.490234,22.8242188 C111.045898,23.6376953 110.177734,24.1230469 109.152344,24.1230469 Z M109.569336,17.7519531 C108.332031,17.7519531 107.580078,18.7089844 107.580078,20.2744141 C107.580078,21.8535156 108.325195,22.8037109 109.569336,22.8037109 C110.806641,22.8037109 111.572266,21.8398438 111.572266,20.28125 C111.572266,18.7294922 110.799805,17.7519531 109.569336,17.7519531 Z M119.160156,24.1230469 C118.121094,24.1230469 117.25293,23.6445312 116.808594,22.8242188 L116.699219,22.8242188 L116.699219,24 L115.28418,24 L115.28418,13.6503906 L116.753906,13.6503906 L116.753906,17.7382812 L116.870117,17.7382812 C117.266602,16.9248047 118.141602,16.4326172 119.160156,16.4326172 C121.046875,16.4326172 122.236328,17.9091797 122.236328,20.2744141 C122.236328,22.6328125 121.040039,24.1230469 119.160156,24.1230469 Z M118.736328,17.7519531 C117.505859,17.7519531 116.733398,18.7226562 116.726562,20.28125 C116.733398,21.8398438 117.499023,22.8037109 118.736328,22.8037109 C119.980469,22.8037109 120.725586,21.8535156 120.725586,20.2744141 C120.725586,18.7089844 119.980469,17.7519531 118.736328,17.7519531 Z M126.433594,22.8857422 C127.541016,22.8857422 128.361328,22.1816406 128.361328,21.2587891 L128.361328,20.6367188 L126.542969,20.7529297 C125.517578,20.8212891 125.052734,21.1699219 125.052734,21.8261719 C125.052734,22.4960938 125.633789,22.8857422 126.433594,22.8857422 Z M126.057617,24.1230469 C124.62207,24.1230469 123.576172,23.2548828 123.576172,21.8945312 C123.576172,20.5546875 124.574219,19.7822266 126.344727,19.6728516 L128.361328,19.5566406 L128.361328,18.9140625 C128.361328,18.1279297 127.841797,17.6835938 126.836914,17.6835938 C126.016602,17.6835938 125.449219,17.984375 125.285156,18.5107422 L123.863281,18.5107422 C124.013672,17.2324219 125.216797,16.4121094 126.905273,16.4121094 C128.771484,16.4121094 129.824219,17.3417969 129.824219,18.9140625 L129.824219,24 L128.40918,24 L128.40918,22.9541016 L128.292969,22.9541016 C127.848633,23.6992188 127.035156,24.1230469 126.057617,24.1230469 Z M138.21875,18.9892578 L136.790039,18.9892578 C136.619141,18.2646484 136.017578,17.7246094 135.033203,17.7246094 C133.802734,17.7246094 133.050781,18.6679688 133.050781,20.2539062 C133.050781,21.8671875 133.80957,22.8310547 135.033203,22.8310547 C135.962891,22.8310547 136.598633,22.4072266 136.790039,21.6074219 L138.21875,21.6074219 C138.027344,23.1044922 136.878906,24.1435547 135.040039,24.1435547 C132.873047,24.1435547 131.546875,22.6806641 131.546875,20.2539062 C131.546875,17.8681641 132.866211,16.4121094 135.033203,16.4121094 C136.899414,16.4121094 138.027344,17.4990234 138.21875,18.9892578 Z M141.547852,19.6591797 L144.500977,16.5556641 L146.237305,16.5556641 L143.174805,19.7480469 L146.442383,24 L144.637695,24 L142.081055,20.71875 L141.431641,21.3339844 L141.431641,24 L139.961914,24 L139.961914,13.6503906 L141.431641,13.6503906 L141.431641,19.6591797 L141.547852,19.6591797 Z M151.685547,24 L151.685547,13.6503906 L153.141602,13.6503906 L153.141602,17.7519531 L153.257812,17.7519531 C153.620117,16.9179688 154.481445,16.4189453 155.602539,16.4189453 C157.277344,16.4189453 158.234375,17.4238281 158.234375,19.1943359 L158.234375,24 L156.764648,24 L156.764648,19.5566406 C156.764648,18.3671875 156.210938,17.765625 155.103516,17.765625 C153.900391,17.765625 153.155273,18.5244141 153.155273,19.6523438 L153.155273,24 L151.685547,24 Z M163.361328,17.6630859 C162.274414,17.6630859 161.515625,18.4287109 161.433594,19.5908203 L165.193359,19.5908203 C165.15918,18.421875 164.448242,17.6630859 163.361328,17.6630859 Z M165.186523,21.9902344 L166.601562,21.9902344 C166.266602,23.3232422 165.077148,24.1435547 163.375,24.1435547 C161.242188,24.1435547 159.936523,22.6806641 159.936523,20.3017578 C159.936523,17.9228516 161.269531,16.4121094 163.368164,16.4121094 C165.439453,16.4121094 166.69043,17.8271484 166.69043,20.1650391 L166.69043,20.6777344 L161.433594,20.6777344 L161.433594,20.7597656 C161.481445,22.0654297 162.240234,22.8925781 163.416016,22.8925781 C164.304688,22.8925781 164.913086,22.5712891 165.186523,21.9902344 Z M168.454102,24 L168.454102,16.5556641 L169.869141,16.5556641 L169.869141,17.6972656 L169.978516,17.6972656 C170.19043,16.9658203 171.010742,16.4326172 171.981445,16.4326172 C172.193359,16.4326172 172.473633,16.453125 172.630859,16.4941406 L172.630859,17.9433594 C172.514648,17.9023438 172.063477,17.8544922 171.817383,17.8544922 C170.709961,17.8544922 169.923828,18.5585938 169.923828,19.6044922 L169.923828,24 L168.454102,24 Z M177.033203,17.6630859 C175.946289,17.6630859 175.1875,18.4287109 175.105469,19.5908203 L178.865234,19.5908203 C178.831055,18.421875 178.120117,17.6630859 177.033203,17.6630859 Z M178.858398,21.9902344 L180.273438,21.9902344 C179.938477,23.3232422 178.749023,24.1435547 177.046875,24.1435547 C174.914062,24.1435547 173.608398,22.6806641 173.608398,20.3017578 C173.608398,17.9228516 174.941406,16.4121094 177.040039,16.4121094 C179.111328,16.4121094 180.362305,17.8271484 180.362305,20.1650391 L180.362305,20.6777344 L175.105469,20.6777344 L175.105469,20.7597656 C175.15332,22.0654297 175.912109,22.8925781 177.087891,22.8925781 C177.976562,22.8925781 178.584961,22.5712891 178.858398,21.9902344 Z" id="Placeholder" fill="#726D82"></path>
                </g>
                <g id="Button" transform="translate(184.000000, 160.000000)">
                    <g id="Rectangle">
                        <use fill="black" fill-opacity="1" filter="url(#filter-8)" xlink:href="#path-7"></use>
                        <use fill="#000000" fill-rule="evenodd" xlink:href="#path-7"></use>
                    </g>
                    <path d="M15.1870117,22.3203125 L16.909668,22.3203125 C17.019043,23.2021484 17.894043,23.7695312 19.1450195,23.7695312 C20.3071289,23.7695312 21.1479492,23.1748047 21.1479492,22.3476562 C21.1479492,21.6367188 20.6079102,21.2197266 19.3432617,20.9257812 L18.0649414,20.6318359 C16.2739258,20.2285156 15.4331055,19.3398438 15.4331055,17.8701172 C15.4331055,16.0791016 16.8959961,14.8896484 19.1040039,14.8896484 C21.175293,14.8896484 22.6723633,16.0791016 22.7543945,17.7744141 L21.065918,17.7744141 C20.9428711,16.90625 20.1772461,16.359375 19.097168,16.359375 C17.9624023,16.359375 17.2104492,16.90625 17.2104492,17.7470703 C17.2104492,18.4101562 17.7094727,18.7998047 18.9331055,19.0800781 L20.0678711,19.3398438 C22.0708008,19.7910156 22.9116211,20.625 22.9116211,22.1289062 C22.9116211,24.0498047 21.4282227,25.2460938 19.0356445,25.2460938 C16.7729492,25.2460938 15.2758789,24.1113281 15.1870117,22.3203125 Z M27.8540039,18.7177734 C26.8422852,18.7177734 26.1313477,19.4423828 26.0561523,20.5361328 L29.5766602,20.5361328 C29.5424805,19.4287109 28.8725586,18.7177734 27.8540039,18.7177734 Z M29.590332,22.9423828 L31.1967773,22.9423828 C30.8754883,24.3027344 29.6381836,25.1503906 27.8745117,25.1503906 C25.6733398,25.1503906 24.347168,23.6943359 24.347168,21.2880859 C24.347168,18.8818359 25.6938477,17.3710938 27.8608398,17.3710938 C29.9936523,17.3710938 31.2719727,18.7861328 31.2719727,21.1445312 L31.2719727,21.6914062 L26.0493164,21.6914062 L26.0493164,21.7802734 C26.090332,23.0244141 26.8081055,23.8037109 27.9223633,23.8037109 C28.7631836,23.8037109 29.3442383,23.4960938 29.590332,22.9423828 Z M32.9741211,25 L32.9741211,17.5214844 L34.6079102,17.5214844 L34.6079102,18.7177734 L34.7241211,18.7177734 C35.0795898,17.8837891 35.9545898,17.3710938 37.0756836,17.3710938 C38.7436523,17.3710938 39.6801758,18.3759766 39.6801758,20.1601562 L39.6801758,25 L37.9916992,25 L37.9916992,20.5634766 C37.9916992,19.421875 37.472168,18.8476562 36.4467773,18.8476562 C35.3530273,18.8476562 34.6694336,19.5449219 34.6694336,20.6455078 L34.6694336,25 L32.9741211,25 Z M44.3969727,25.1230469 C42.503418,25.1230469 41.3208008,23.6328125 41.3208008,21.2539062 C41.3208008,18.8886719 42.5102539,17.3984375 44.3969727,17.3984375 C45.4223633,17.3984375 46.2700195,17.890625 46.6665039,18.7109375 L46.7827148,18.7109375 L46.7827148,14.6298828 L48.4780273,14.6298828 L48.4780273,25 L46.8374023,25 L46.8374023,23.8173828 L46.7211914,23.8173828 C46.2973633,24.6376953 45.4360352,25.1230469 44.3969727,25.1230469 Z M44.9233398,18.8408203 C43.7680664,18.8408203 43.0571289,19.7568359 43.0571289,21.2607422 C43.0571289,22.7714844 43.7612305,23.6806641 44.9233398,23.6806641 C46.0922852,23.6806641 46.8032227,22.7646484 46.8032227,21.2607422 C46.8032227,19.7705078 46.0854492,18.8408203 44.9233398,18.8408203 Z" id="Send" fill="#FFFFFF"></path>
                </g>
                <g id="Dialog-header" transform="translate(24.000000, 17.000000)" fill="#140B2F">
                    <path d="M0.875,11.9375 L2.84375,11.9375 C2.96875,12.9453125 3.96875,13.59375 5.3984375,13.59375 C6.7265625,13.59375 7.6875,12.9140625 7.6875,11.96875 C7.6875,11.15625 7.0703125,10.6796875 5.625,10.34375 L4.1640625,10.0078125 C2.1171875,9.546875 1.15625,8.53125 1.15625,6.8515625 C1.15625,4.8046875 2.828125,3.4453125 5.3515625,3.4453125 C7.71875,3.4453125 9.4296875,4.8046875 9.5234375,6.7421875 L7.59375,6.7421875 C7.453125,5.75 6.578125,5.125 5.34375,5.125 C4.046875,5.125 3.1875,5.75 3.1875,6.7109375 C3.1875,7.46875 3.7578125,7.9140625 5.15625,8.234375 L6.453125,8.53125 C8.7421875,9.046875 9.703125,10 9.703125,11.71875 C9.703125,13.9140625 8.0078125,15.28125 5.2734375,15.28125 C2.6875,15.28125 0.9765625,13.984375 0.875,11.9375 Z M15.3515625,7.8203125 C14.1953125,7.8203125 13.3828125,8.6484375 13.296875,9.8984375 L17.3203125,9.8984375 C17.28125,8.6328125 16.515625,7.8203125 15.3515625,7.8203125 Z M17.3359375,12.6484375 L19.171875,12.6484375 C18.8046875,14.203125 17.390625,15.171875 15.375,15.171875 C12.859375,15.171875 11.34375,13.5078125 11.34375,10.7578125 C11.34375,8.0078125 12.8828125,6.28125 15.359375,6.28125 C17.796875,6.28125 19.2578125,7.8984375 19.2578125,10.59375 L19.2578125,11.21875 L13.2890625,11.21875 L13.2890625,11.3203125 C13.3359375,12.7421875 14.15625,13.6328125 15.4296875,13.6328125 C16.390625,13.6328125 17.0546875,13.28125 17.3359375,12.6484375 Z M21.203125,15 L21.203125,6.453125 L23.0703125,6.453125 L23.0703125,7.8203125 L23.203125,7.8203125 C23.609375,6.8671875 24.609375,6.28125 25.890625,6.28125 C27.796875,6.28125 28.8671875,7.4296875 28.8671875,9.46875 L28.8671875,15 L26.9375,15 L26.9375,9.9296875 C26.9375,8.625 26.34375,7.96875 25.171875,7.96875 C23.921875,7.96875 23.140625,8.765625 23.140625,10.0234375 L23.140625,15 L21.203125,15 Z M34.2578125,15.140625 C32.09375,15.140625 30.7421875,13.4375 30.7421875,10.71875 C30.7421875,8.015625 32.1015625,6.3125 34.2578125,6.3125 C35.4296875,6.3125 36.3984375,6.875 36.8515625,7.8125 L36.984375,7.8125 L36.984375,3.1484375 L38.921875,3.1484375 L38.921875,15 L37.046875,15 L37.046875,13.6484375 L36.9140625,13.6484375 C36.4296875,14.5859375 35.4453125,15.140625 34.2578125,15.140625 Z M34.859375,7.9609375 C33.5390625,7.9609375 32.7265625,9.0078125 32.7265625,10.7265625 C32.7265625,12.453125 33.53125,13.4921875 34.859375,13.4921875 C36.1953125,13.4921875 37.0078125,12.4453125 37.0078125,10.7265625 C37.0078125,9.0234375 36.1875,7.9609375 34.859375,7.9609375 Z M53.25,6.453125 L53.25,15 L51.3828125,15 L51.3828125,13.640625 L51.25,13.640625 C50.8359375,14.6171875 49.8671875,15.171875 48.6015625,15.171875 C46.71875,15.171875 45.5546875,14.0078125 45.5546875,11.984375 L45.5546875,6.453125 L47.4921875,6.453125 L47.4921875,11.5234375 C47.4921875,12.8359375 48.109375,13.46875 49.2734375,13.46875 C50.5234375,13.46875 51.3125,12.6953125 51.3125,11.4296875 L51.3125,6.453125 L53.25,6.453125 Z M55.4296875,8.8984375 C55.4296875,7.3515625 56.8359375,6.28125 58.8515625,6.28125 C60.8828125,6.28125 62.15625,7.1796875 62.296875,8.734375 L60.4765625,8.734375 C60.3359375,8.1328125 59.765625,7.75 58.859375,7.75 C57.9765625,7.75 57.3125,8.171875 57.3125,8.7890625 C57.3125,9.2734375 57.71875,9.5703125 58.578125,9.765625 L60.0859375,10.109375 C61.71875,10.4765625 62.4765625,11.1796875 62.4765625,12.4375 C62.4765625,14.078125 60.96875,15.171875 58.8359375,15.171875 C56.703125,15.171875 55.359375,14.25 55.2109375,12.6953125 L57.125,12.6953125 C57.3125,13.328125 57.9140625,13.703125 58.8828125,13.703125 C59.859375,13.703125 60.5390625,13.2734375 60.5390625,12.640625 C60.5390625,12.15625 60.171875,11.8515625 59.359375,11.671875 L57.84375,11.3203125 C56.203125,10.9453125 55.4296875,10.1875 55.4296875,8.8984375 Z M69.640625,18.109375 C69.5234375,18.109375 69,18.1015625 68.875,18.078125 L68.875,16.5 C68.984375,16.515625 69.2734375,16.5234375 69.40625,16.5234375 C70.2265625,16.5234375 70.6875,16.203125 70.9375,15.4140625 L71.0390625,15.0390625 L67.984375,6.453125 L70.109375,6.453125 L72.109375,13.125 L72.2421875,13.125 L74.234375,6.453125 L76.28125,6.453125 L73.1953125,15.2734375 C72.46875,17.3984375 71.5546875,18.109375 69.640625,18.109375 Z M81.6328125,13.546875 C82.984375,13.546875 83.75,12.515625 83.75,10.7265625 C83.75,8.9453125 82.9765625,7.90625 81.6328125,7.90625 C80.28125,7.90625 79.5078125,8.9453125 79.5078125,10.7265625 C79.5078125,12.515625 80.28125,13.546875 81.6328125,13.546875 Z M81.6328125,15.171875 C79.0703125,15.171875 77.5234375,13.5 77.5234375,10.7265625 C77.5234375,7.96875 79.09375,6.28125 81.6328125,6.28125 C84.1796875,6.28125 85.7421875,7.9609375 85.7421875,10.7265625 C85.7421875,13.5 84.1875,15.171875 81.6328125,15.171875 Z M95.3125,6.453125 L95.3125,15 L93.4453125,15 L93.4453125,13.640625 L93.3125,13.640625 C92.8984375,14.6171875 91.9296875,15.171875 90.6640625,15.171875 C88.78125,15.171875 87.6171875,14.0078125 87.6171875,11.984375 L87.6171875,6.453125 L89.5546875,6.453125 L89.5546875,11.5234375 C89.5546875,12.8359375 90.171875,13.46875 91.3359375,13.46875 C92.5859375,13.46875 93.375,12.6953125 93.375,11.4296875 L93.375,6.453125 L95.3125,6.453125 Z M97.6875,15 L97.6875,6.453125 L99.5546875,6.453125 L99.5546875,7.78125 L99.6875,7.78125 C99.921875,6.9375 100.835938,6.3125 101.929688,6.3125 C102.203125,6.3125 102.539063,6.34375 102.726563,6.3984375 L102.726563,8.1953125 C102.578125,8.140625 102.046875,8.0859375 101.742188,8.0859375 C100.5,8.0859375 99.625,8.8671875 99.625,10.0625 L99.625,15 L97.6875,15 Z M109.132812,15 L109.132812,8.0546875 L107.742188,8.0546875 L107.742188,6.5078125 L109.132812,6.5078125 L109.132812,5.65625 C109.132812,3.921875 110.03125,3.21875 111.90625,3.21875 C112.25,3.21875 112.585938,3.25 112.929688,3.3046875 L112.929688,4.75 C112.757812,4.7109375 112.46875,4.6875 112.1875,4.6875 C111.429688,4.6875 111.03125,5.015625 111.03125,5.78125 L111.03125,6.5078125 L112.882812,6.5078125 L112.882812,8.0546875 L111.0625,8.0546875 L111.0625,15 L109.132812,15 Z M118.359375,7.8203125 C117.203125,7.8203125 116.390625,8.6484375 116.304688,9.8984375 L120.328125,9.8984375 C120.289063,8.6328125 119.523438,7.8203125 118.359375,7.8203125 Z M120.34375,12.6484375 L122.179688,12.6484375 C121.8125,14.203125 120.398438,15.171875 118.382812,15.171875 C115.867188,15.171875 114.351562,13.5078125 114.351562,10.7578125 C114.351562,8.0078125 115.890625,6.28125 118.367188,6.28125 C120.804688,6.28125 122.265625,7.8984375 122.265625,10.59375 L122.265625,11.21875 L116.296875,11.21875 L116.296875,11.3203125 C116.34375,12.7421875 117.164062,13.6328125 118.4375,13.6328125 C119.398438,13.6328125 120.0625,13.28125 120.34375,12.6484375 Z M127.796875,7.8203125 C126.640625,7.8203125 125.828125,8.6484375 125.742188,9.8984375 L129.765625,9.8984375 C129.726562,8.6328125 128.960938,7.8203125 127.796875,7.8203125 Z M129.78125,12.6484375 L131.617188,12.6484375 C131.25,14.203125 129.835938,15.171875 127.820312,15.171875 C125.304688,15.171875 123.789062,13.5078125 123.789062,10.7578125 C123.789062,8.0078125 125.328125,6.28125 127.804688,6.28125 C130.242188,6.28125 131.703125,7.8984375 131.703125,10.59375 L131.703125,11.21875 L125.734375,11.21875 L125.734375,11.3203125 C125.78125,12.7421875 126.601562,13.6328125 127.875,13.6328125 C128.835938,13.6328125 129.5,13.28125 129.78125,12.6484375 Z M136.742188,15.140625 C134.578125,15.140625 133.226562,13.4375 133.226562,10.71875 C133.226562,8.015625 134.585938,6.3125 136.742188,6.3125 C137.914062,6.3125 138.882812,6.875 139.335938,7.8125 L139.46875,7.8125 L139.46875,3.1484375 L141.40625,3.1484375 L141.40625,15 L139.53125,15 L139.53125,13.6484375 L139.398438,13.6484375 C138.914062,14.5859375 137.929688,15.140625 136.742188,15.140625 Z M137.34375,7.9609375 C136.023438,7.9609375 135.210938,9.0078125 135.210938,10.7265625 C135.210938,12.453125 136.015625,13.4921875 137.34375,13.4921875 C138.679688,13.4921875 139.492188,12.4453125 139.492188,10.7265625 C139.492188,9.0234375 138.671875,7.9609375 137.34375,7.9609375 Z M148.601562,15.140625 C147.40625,15.140625 146.414062,14.5859375 145.929688,13.6484375 L145.796875,13.6484375 L145.796875,15 L143.929688,15 L143.929688,3.1484375 L145.867188,3.1484375 L145.867188,7.8125 L146,7.8125 C146.445312,6.8828125 147.429688,6.3125 148.601562,6.3125 C150.765625,6.3125 152.109375,7.9921875 152.109375,10.7265625 C152.109375,13.4453125 150.757812,15.140625 148.601562,15.140625 Z M147.992188,7.9609375 C146.671875,7.9609375 145.835938,9.0234375 145.835938,10.7265625 C145.835938,12.4296875 146.664062,13.4921875 147.992188,13.4921875 C149.320312,13.4921875 150.117188,12.4453125 150.117188,10.7265625 C150.117188,9.0078125 149.3125,7.9609375 147.992188,7.9609375 Z M156.976562,13.6171875 C158.148438,13.6171875 159.023438,12.859375 159.023438,11.8671875 L159.023438,11.1875 L157.09375,11.3125 C156.007812,11.3828125 155.5,11.7734375 155.5,12.46875 C155.5,13.1875 156.117188,13.6171875 156.976562,13.6171875 Z M156.40625,15.140625 C154.757812,15.140625 153.578125,14.140625 153.578125,12.578125 C153.578125,11.03125 154.742188,10.140625 156.820312,10.015625 L159.023438,9.8828125 L159.023438,9.1640625 C159.023438,8.328125 158.460938,7.859375 157.414062,7.859375 C156.523438,7.859375 155.914062,8.171875 155.734375,8.75 L153.90625,8.75 C154.0625,7.2421875 155.476562,6.28125 157.507812,6.28125 C159.703125,6.28125 160.9375,7.3515625 160.9375,9.1640625 L160.9375,15 L159.070312,15 L159.070312,13.828125 L158.9375,13.828125 C158.460938,14.65625 157.523438,15.140625 156.40625,15.140625 Z M170.648438,9.328125 L168.804688,9.328125 C168.625,8.5 167.984375,7.90625 166.921875,7.90625 C165.59375,7.90625 164.804688,8.9296875 164.804688,10.703125 C164.804688,12.5 165.601562,13.546875 166.921875,13.546875 C167.929688,13.546875 168.601562,13.0703125 168.804688,12.1796875 L170.648438,12.1796875 C170.4375,13.96875 169.09375,15.171875 166.929688,15.171875 C164.359375,15.171875 162.84375,13.515625 162.84375,10.703125 C162.84375,7.9296875 164.351562,6.28125 166.921875,6.28125 C169.117188,6.28125 170.445312,7.53125 170.648438,9.328125 Z M174.648438,9.9375 L177.804688,6.453125 L180.054688,6.453125 L176.648438,10.1171875 L180.289062,15 L177.945312,15 L175.203125,11.3359375 L174.515625,12.0234375 L174.515625,15 L172.578125,15 L172.578125,3.1484375 L174.515625,3.1484375 L174.515625,9.9375 L174.648438,9.9375 Z" id="Send-us-your-feedbac"></path>
                </g>
            </g>
        </g>
    </g>
</svg>