<?xml version="1.0" encoding="UTF-8"?>
<svg width="128px" height="32px" viewBox="0 0 128 32" version="1.1" xmlns="http://www.w3.org/2000/svg" xmlns:xlink="http://www.w3.org/1999/xlink">
    <!-- Generator: Sketch 49 (51002) - http://www.bohemiancoding.com/sketch -->
    <title>32/logo-purple</title>
    <desc>Created with Sketch.</desc>
    <defs></defs>
    <g id="32/logo-purple" stroke="none" stroke-width="1" fill="none" fill-rule="evenodd">
        <g id="Logomark-purple" fill="#512DA8">
            <g id="Logomark">
                <g id="Logo-purple">
                    <path d="M15,30 C18.8457756,30 22.4642857,27.6590909 24.5,24 C26.5357143,20.3409091 25,15.5 27,12.5 C29,9.5 32,9 32,8.5 C32,8 29.75,8.5 29,7.75 C28.25,7 27.5,6 26,6 C24.5,6 23.3482143,7.54545455 22.8766306,9.3787676 C20.2794698,18.4929075 12.7695678,25.3975954 3.5,27 C8.60281626,29 12.4361496,30 15,30 Z" id="Combined-Shape"></path>
                    <path d="M5.54361252e-06,7.0405422 C4.5,12.5 11,14.5202711 18.076913,13.1825404 C16.1122407,16.3210907 13,20.5 9.03845925,22 C1,19.75 5.54361251e-06,9.25675908 5.54361252e-06,7.0405422 Z M19,10.5 C9.5,12 4,8.5 1.5,5 C1.5,5 1.44973874,2.95238407 1.5,3 C6.25,7.5 10.7384384,10 20,8.5 C20,8.5 19,10.5 19,10.5 Z" id="Combined-Shape" opacity="0.5"></path>
                </g>
                <path d="M48.5702811,23.776 L48.5702811,8.878 C48.5702811,8.124 47.9437751,7.5 47.2128514,7.5 C46.37751,7.5 45.7771084,8.124 45.7771084,8.878 L45.7771084,14.156 C44.7590361,12.856 43.2971888,12.128 41.7309237,12.128 C38.4939759,12.128 36.1445783,14.676 36.1445783,18.732 C36.1445783,22.866 38.5200803,25.31 41.7309237,25.31 C43.3493976,25.31 44.7851406,24.556 45.7771084,23.282 L45.7771084,23.776 C45.7771084,24.53 46.37751,25.154 47.1606426,25.154 C47.9437751,25.154 48.5702811,24.53 48.5702811,23.776 L48.5702811,23.776 Z M45.7771084,21.202 C45.1506024,22.112 43.8453815,22.84 42.5401606,22.84 C40.3995984,22.84 39.0160643,21.124 39.0160643,18.732 C39.0160643,16.314 40.3995984,14.598 42.5401606,14.598 C43.8453815,14.598 45.1506024,15.326 45.7771084,16.262 L45.7771084,21.202 Z M63.3333333,18.706 C63.3333333,15.118 60.8795181,12.128 56.8333333,12.128 C52.7871486,12.128 50.3333333,15.118 50.3333333,18.706 C50.3333333,22.32 52.7871486,25.31 56.8333333,25.31 C60.8795181,25.31 63.3333333,22.32 63.3333333,18.706 L63.3333333,18.706 Z M60.4096386,18.706 C60.4096386,20.916 59.1305221,22.84 56.8333333,22.84 C54.5100402,22.84 53.2309237,20.916 53.2309237,18.706 C53.2309237,16.522 54.5100402,14.598 56.8333333,14.598 C59.1305221,14.598 60.4096386,16.522 60.4096386,18.706 L60.4096386,18.706 Z M76.4317269,13.688 C76.4317269,12.96 75.8574297,12.31 74.9959839,12.31 C74.4477912,12.31 73.9257028,12.622 73.7168675,13.168 L70.375502,21.774 L67.0080321,13.142 C66.7991968,12.622 66.3032129,12.31 65.7289157,12.31 C64.8935743,12.31 64.3192771,12.986 64.3192771,13.662 C64.3192771,13.818 64.3453815,14 64.4236948,14.156 L68.3915663,23.854 C68.7048193,24.634 69.4879518,25.154 70.3493976,25.154 L70.4016064,25.154 C71.2630522,25.154 72.0200803,24.634 72.3594378,23.854 L76.3273092,14.156 C76.4056225,14 76.4317269,13.818 76.4317269,13.688 L76.4317269,13.688 Z M90.0261044,18.264 C90.0261044,17.718 89.8694779,17.12 89.7128514,16.6 C88.9297189,13.896 86.7891566,12.128 83.8393574,12.128 C80.1064257,12.128 77.4437751,15.066 77.4437751,18.706 C77.4437751,22.684 80.2630522,25.31 84.0481928,25.31 C85.6666667,25.31 88.9036145,24.66 88.9036145,23.23 C88.9036145,22.554 88.3032129,22.086 87.7289157,22.086 C87.5461847,22.086 87.3373494,22.138 87.1546185,22.242 C86.2931727,22.788 85.248996,23.074 84.3353414,23.074 C81.9859438,23.074 80.5502008,21.488 80.3674699,19.616 L88.6686747,19.616 C89.4257028,19.616 90.0261044,18.992 90.0261044,18.264 L90.0261044,18.264 Z M87.3373494,17.692 L80.3413655,17.692 C80.4718876,16.184 81.5421687,14.364 83.8393574,14.364 C86.2931727,14.364 87.2851406,16.236 87.3373494,17.692 L87.3373494,17.692 Z M98.6084337,23.958 C98.6084337,23.282 98.1385542,22.762 97.3815261,22.762 C97.2248996,22.762 96.9899598,22.84 96.8072289,22.84 C96.1546185,22.84 95.6064257,22.32 95.6064257,21.358 L95.6064257,14.884 L97.1465863,14.884 C97.7991968,14.884 98.3212851,14.338 98.3212851,13.688 C98.3212851,12.986 97.7991968,12.44 97.1465863,12.44 L95.6064257,12.44 L95.6064257,10.23 C95.6064257,9.476 95.0060241,8.852 94.248996,8.852 C93.439759,8.852 92.813253,9.476 92.813253,10.23 L92.813253,12.44 L91.7690763,12.44 C91.1164659,12.44 90.5682731,12.986 90.5682731,13.636 C90.5682731,14.338 91.1164659,14.884 91.7690763,14.884 L92.813253,14.884 L92.813253,22.06 C92.813253,24.166 93.935743,25.31 96.0763052,25.31 C97.8514056,25.31 98.6084337,24.79 98.6084337,23.958 L98.6084337,23.958 Z M111.614458,23.776 L111.614458,16.678 C111.614458,13.298 109.134538,12.128 106.341365,12.128 C104.748996,12.128 102.425703,12.648 101.433735,13.896 C101.303213,14.052 101.2249,14.286 101.2249,14.494 C101.2249,15.17 101.799197,15.586 102.321285,15.586 C102.53012,15.586 102.738956,15.508 102.895582,15.404 C103.809237,14.728 104.801205,14.442 105.89759,14.442 C107.620482,14.442 108.821285,15.326 108.821285,16.756 L108.821285,18.68 C107.933735,17.614 106.445783,17.068 104.7751,17.068 C102.712851,17.068 100.363454,18.264 100.363454,21.15 C100.363454,23.932 102.712851,25.31 104.7751,25.31 C106.419679,25.31 107.907631,24.712 108.821285,23.646 L108.821285,23.88 C108.821285,24.842 109.708835,25.154 110.074297,25.154 L110.230924,25.154 C110.987952,25.154 111.614458,24.53 111.614458,23.776 L111.614458,23.776 Z M108.821285,22.112 C108.194779,22.97 107.046185,23.386 105.845382,23.386 C104.35743,23.386 103.208835,22.528 103.208835,21.202 C103.208835,19.824 104.35743,18.992 105.845382,18.992 C107.046185,18.992 108.194779,19.408 108.821285,20.24 L108.821285,22.112 Z M115.544177,7.5 C114.604418,7.5 113.821285,8.254 113.821285,9.19 C113.821285,10.152 114.604418,10.906 115.544177,10.906 C116.483936,10.906 117.267068,10.152 117.267068,9.19 C117.267068,8.254 116.483936,7.5 115.544177,7.5 L115.544177,7.5 Z M116.953815,23.776 L116.953815,13.636 C116.953815,12.908 116.327309,12.284 115.596386,12.284 C114.761044,12.284 114.160643,12.908 114.160643,13.636 L114.160643,23.776 C114.160643,24.53 114.761044,25.154 115.544177,25.154 C116.327309,25.154 116.953815,24.53 116.953815,23.776 L116.953815,23.776 Z M122.769076,23.776 L122.769076,8.852 C122.769076,8.124 122.14257,7.5 121.411647,7.5 C120.576305,7.5 119.975904,8.124 119.975904,8.852 L119.975904,23.776 C119.975904,24.53 120.576305,25.154 121.359438,25.154 C122.14257,25.154 122.769076,24.53 122.769076,23.776 L122.769076,23.776 Z" id="dovetail"></path>
            </g>
        </g>
    </g>
</svg>