<svg width="400" height="320" viewBox="0 0 400 320" xmlns="http://www.w3.org/2000/svg" xmlns:xlink="http://www.w3.org/1999/xlink"><title>illustration/adding-highlight</title><defs><rect id="b" x="2" y="2" width="140" height="36" rx="4"/><filter x="-5%" y="-13.9%" width="110%" height="138.9%" filterUnits="objectBoundingBox" id="a"><feOffset dy="2" in="SourceAlpha" result="shadowOffsetOuter1"/><feGaussianBlur stdDeviation="2" in="shadowOffsetOuter1" result="shadowBlurOuter1"/><feColorMatrix values="0 0 0 0 0 0 0 0 0 0 0 0 0 0 0 0 0 0 0.2 0" in="shadowBlurOuter1"/></filter><rect id="d" width="144" height="40" rx="4"/><filter x="-3.1%" y="-8.8%" width="106.2%" height="122.5%" filterUnits="objectBoundingBox" id="c"><feMorphology radius="1" operator="dilate" in="SourceAlpha" result="shadowSpreadOuter1"/><feOffset dy="1" in="shadowSpreadOuter1" result="shadowOffsetOuter1"/><feGaussianBlur stdDeviation="1" in="shadowOffsetOuter1" result="shadowBlurOuter1"/><feComposite in="shadowBlurOuter1" in2="SourceAlpha" operator="out" result="shadowBlurOuter1"/><feColorMatrix values="0 0 0 0 0 0 0 0 0 0 0 0 0 0 0 0 0 0 0.04 0" in="shadowBlurOuter1"/></filter><path d="M10.03 19s-2.219-1.699-3-3c-.78-1.301-2.26-2.959-2-4 .26-1.041 1.22-1.37 2-.588.781.78 1.307 2.472 1.828 2.212.52-.26.13-2.733-.39-4.164C7.946 8.028 7.403 5 8.467 5 9.53 5 9.53 6 10.03 7.5s.11 3.5.5 3.5.54-.35.54-1c0-.177.034-.326.105-.45.188-.332.633-.48 1.355-.48.992 0 .5 1.93 1 1.93s.5.041.5-1 .464-.93 1.464-.93S16.01 11 16.53 11s0-1 .5-1 1 .158 1 2.5.281 2.459-.5 3.5l-1.5 2s0 1-.536 1H10.03zm5-3c0 .27.232 1 .5 1 .276 0 .5-.725.5-1v-2c0-.27-.232-1-.5-1-.276 0-.5.725-.5 1v2zm-2 0c0 .27.232 1 .5 1 .276 0 .5-.725.5-1v-2c0-.27-.232-1-.5-1-.276 0-.5.725-.5 1v2zm-2 0c0 .27.232 1 .5 1 .276 0 .5-.725.5-1v-2c0-.27-.232-1-.5-1-.276 0-.5.725-.5 1v2z" id="f"/><filter x="-34.4%" y="-25%" width="168.8%" height="164.3%" filterUnits="objectBoundingBox" id="e"><feMorphology radius="1" operator="dilate" in="SourceAlpha" result="shadowSpreadOuter1"/><feOffset dy="1" in="shadowSpreadOuter1" result="shadowOffsetOuter1"/><feGaussianBlur stdDeviation="1" in="shadowOffsetOuter1" result="shadowBlurOuter1"/><feComposite in="shadowBlurOuter1" in2="SourceAlpha" operator="out" result="shadowBlurOuter1"/><feColorMatrix values="0 0 0 0 0 0 0 0 0 0 0 0 0 0 0 0 0 0 1 0" in="shadowBlurOuter1"/></filter></defs><g fill="none" fill-rule="evenodd"><g transform="translate(16 26)"><path d="M2.572 1.545v5.402c0 1.143.715 1.91 1.969 1.91s1.963-.767 1.963-1.91V1.545h1.512v5.543c0 1.846-1.336 3.123-3.475 3.123-2.139 0-3.475-1.277-3.475-3.123V1.545h1.506zM9.82 5.424c0-1.16 1.055-1.963 2.567-1.963 1.523 0 2.478.674 2.584 1.84h-1.366c-.105-.451-.533-.739-1.212-.739-.663 0-1.16.317-1.16.78 0 .363.304.586.949.732l1.13.258c1.225.275 1.793.803 1.793 1.746 0 1.23-1.13 2.05-2.73 2.05s-2.607-.69-2.719-1.857h1.436c.14.475.592.756 1.318.756.733 0 1.242-.322 1.242-.797 0-.363-.275-.591-.884-.726L11.63 7.24c-1.23-.281-1.81-.85-1.81-1.816zm9.446-.809c-.868 0-1.477.621-1.541 1.559h3.017c-.03-.95-.603-1.559-1.476-1.559zm1.488 3.621h1.377c-.276 1.166-1.336 1.893-2.848 1.893-1.887 0-3.023-1.248-3.023-3.31 0-2.063 1.154-3.358 3.011-3.358 1.829 0 2.924 1.213 2.924 3.234v.47H17.72v.075c.035 1.067.65 1.735 1.605 1.735.72 0 1.219-.264 1.43-.739zm2.9 1.764V3.59h1.4v.996h.1c.176-.633.862-1.102 1.682-1.102.205 0 .457.024.598.065v1.347c-.112-.04-.51-.082-.739-.082-.931 0-1.588.586-1.588 1.483V10h-1.453zm8.584-7.94h1.448v1.57h1.406v1.161h-1.406v3.146c0 .633.27.915.878.915.206 0 .311-.012.48-.03V9.96c-.204.041-.468.07-.75.07-1.47 0-2.056-.498-2.056-1.74V4.791h-1.043v-1.16h1.043V2.06zM39.2 4.616c-.867 0-1.476.621-1.54 1.559h3.017c-.03-.95-.604-1.559-1.477-1.559zm1.489 3.621h1.376c-.275 1.166-1.335 1.893-2.847 1.893-1.887 0-3.024-1.248-3.024-3.31 0-2.063 1.155-3.358 3.012-3.358 1.828 0 2.924 1.213 2.924 3.234v.47h-4.477v.075c.035 1.067.65 1.735 1.606 1.735.72 0 1.219-.264 1.43-.739zm2.753-2.812c0-1.16 1.055-1.963 2.567-1.963 1.523 0 2.478.674 2.584 1.84h-1.365c-.106-.451-.534-.739-1.213-.739-.662 0-1.16.317-1.16.78 0 .363.304.586.949.732l1.13.258c1.225.275 1.794.803 1.794 1.746 0 1.23-1.131 2.05-2.73 2.05-1.6 0-2.608-.69-2.72-1.857h1.436c.14.475.592.756 1.318.756.733 0 1.242-.322 1.242-.797 0-.363-.275-.591-.884-.726l-1.137-.264c-1.23-.281-1.81-.85-1.81-1.816zm7.22-3.363h1.446v1.57h1.407v1.16h-1.407v3.146c0 .633.27.915.88.915.204 0 .31-.012.48-.03V9.96c-.205.041-.469.07-.75.07-1.47 0-2.057-.498-2.057-1.74V4.791h-1.043v-1.16h1.043V2.06zM54.948 10V3.59h1.447V10H54.95zm.72-7.453c-.526 0-.896-.34-.896-.803s.37-.803.897-.803c.533 0 .896.34.896.803s-.363.803-.896.803zM58.196 10V3.59h1.4v1.025h.1C60 3.9 60.75 3.461 61.711 3.461c1.43 0 2.232.861 2.232 2.39V10h-1.447V6.197c0-.978-.445-1.47-1.324-1.47-.938 0-1.524.597-1.524 1.54V10h-1.453zm11.848-3.275c0-1.225-.615-2.004-1.623-2.004-1.014 0-1.588.779-1.588 2.004 0 1.224.574 1.998 1.588 1.998 1.014 0 1.623-.774 1.623-1.998zm-1.623 5.713c-1.647 0-2.725-.727-2.842-1.829h1.46c.093.44.608.721 1.405.721.996 0 1.577-.469 1.577-1.271V8.846h-.1c-.37.685-1.066 1.06-1.957 1.06-1.617 0-2.625-1.254-2.625-3.181 0-1.963 1.014-3.24 2.648-3.24.873 0 1.635.433 1.987 1.13h.1V3.59h1.4v6.433c0 1.483-1.184 2.415-3.053 2.415zm7.887-7.014c0-1.16 1.054-1.963 2.566-1.963 1.523 0 2.479.674 2.584 1.84h-1.365c-.106-.451-.533-.739-1.213-.739-.662 0-1.16.317-1.16.78 0 .363.304.586.949.732l1.13.258c1.225.275 1.794.803 1.794 1.746 0 1.23-1.131 2.05-2.73 2.05-1.6 0-2.608-.69-2.72-1.857h1.436c.14.475.592.756 1.318.756.733 0 1.243-.322 1.243-.797 0-.363-.276-.591-.885-.726l-1.137-.264c-1.23-.281-1.81-.85-1.81-1.816zm9.445-.809c-.867 0-1.477.621-1.541 1.559h3.018c-.03-.95-.604-1.559-1.477-1.559zm1.488 3.621h1.377c-.275 1.166-1.336 1.893-2.847 1.893-1.887 0-3.024-1.248-3.024-3.31 0-2.063 1.154-3.358 3.012-3.358 1.828 0 2.924 1.213 2.924 3.234v.47h-4.477v.075c.035 1.067.65 1.735 1.606 1.735.72 0 1.218-.264 1.43-.739zm2.754-2.812c0-1.16 1.055-1.963 2.567-1.963 1.523 0 2.478.674 2.584 1.84h-1.366c-.105-.451-.533-.739-1.213-.739-.662 0-1.16.317-1.16.78 0 .363.305.586.95.732l1.13.258c1.225.275 1.793.803 1.793 1.746 0 1.23-1.13 2.05-2.73 2.05s-2.608-.69-2.719-1.857h1.436c.14.475.591.756 1.318.756.732 0 1.242-.322 1.242-.797 0-.363-.275-.591-.885-.726l-1.136-.264c-1.23-.281-1.81-.85-1.81-1.816zm6.61 0c0-1.16 1.054-1.963 2.566-1.963 1.523 0 2.478.674 2.584 1.84h-1.365c-.106-.451-.534-.739-1.213-.739-.662 0-1.16.317-1.16.78 0 .363.304.586.949.732l1.13.258c1.225.275 1.794.803 1.794 1.746 0 1.23-1.131 2.05-2.73 2.05-1.6 0-2.608-.69-2.72-1.857h1.436c.14.475.592.756 1.318.756.733 0 1.243-.322 1.243-.797 0-.363-.276-.591-.885-.726l-1.137-.264c-1.23-.281-1.81-.85-1.81-1.816zM103.377 10V3.59h1.447V10h-1.447zm.72-7.453c-.527 0-.896-.34-.896-.803s.37-.803.897-.803c.533 0 .896.34.896.803s-.363.803-.896.803zm5.292 6.363c1.013 0 1.588-.773 1.588-2.115 0-1.336-.58-2.115-1.588-2.115-1.014 0-1.594.779-1.594 2.115 0 1.342.58 2.115 1.594 2.115zm0 1.219c-1.922 0-3.082-1.254-3.082-3.334 0-2.068 1.177-3.334 3.082-3.334 1.91 0 3.082 1.26 3.082 3.334 0 2.08-1.166 3.334-3.082 3.334zm4.547-.129V3.59h1.4v1.025h.1c.304-.715 1.054-1.154 2.015-1.154 1.43 0 2.233.861 2.233 2.39V10h-1.448V6.197c0-.978-.445-1.47-1.324-1.47-.937 0-1.523.597-1.523 1.54V10h-1.453zm7.324-4.576c0-1.16 1.054-1.963 2.566-1.963 1.524 0 2.479.674 2.584 1.84h-1.365c-.106-.451-.533-.739-1.213-.739-.662 0-1.16.317-1.16.78 0 .363.305.586.95.732l1.13.258c1.225.275 1.793.803 1.793 1.746 0 1.23-1.13 2.05-2.73 2.05s-2.608-.69-2.72-1.857h1.436c.14.475.592.756 1.319.756.732 0 1.242-.322 1.242-.797 0-.363-.276-.591-.885-.726l-1.137-.264c-1.23-.281-1.81-.85-1.81-1.816z" fill="#24124D" opacity=".6"/><rect fill="#DCD5EE" y="78" width="208" height="12" rx="4"/><rect fill="#F84F77" y="110" width="136" height="12" rx="4"/><rect fill="#DCD5EE" x="152" y="110" width="56" height="12" rx="4"/><rect fill="#DCD5EE" y="142" width="64" height="12" rx="4"/><rect fill="#DCD5EE" x="80" y="142" width="128" height="12" rx="4"/><rect fill="#DCD5EE" y="174" width="168" height="12" rx="4"/><rect fill="#DCD5EE" y="222" width="96" height="12" rx="4"/><rect fill="#DCD5EE" x="112" y="222" width="96" height="12" rx="4"/><rect fill="#DCD5EE" y="254" width="136" height="12" rx="4"/><path d="M1.094 42.172h2.46c.157 1.26 1.407 2.07 3.194 2.07 1.66 0 2.861-.85 2.861-2.031 0-1.016-.771-1.611-2.578-2.031l-1.826-.42c-2.559-.576-3.76-1.846-3.76-3.946 0-2.558 2.09-4.257 5.244-4.257 2.96 0 5.098 1.699 5.215 4.12H9.492c-.176-1.24-1.27-2.02-2.812-2.02-1.621 0-2.696.78-2.696 1.982 0 .947.713 1.504 2.461 1.904l1.621.371c2.862.645 4.063 1.836 4.063 3.984 0 2.745-2.12 4.454-5.537 4.454-3.233 0-5.371-1.622-5.498-4.18zm18.095-5.147c-1.445 0-2.46 1.036-2.568 2.598h5.03c-.05-1.582-1.006-2.598-2.462-2.598zm2.48 6.036h2.296c-.46 1.943-2.227 3.154-4.746 3.154-3.145 0-5.04-2.08-5.04-5.518 0-3.437 1.925-5.595 5.02-5.595 3.047 0 4.873 2.021 4.873 5.39v.781h-7.46v.127c.058 1.778 1.083 2.891 2.675 2.891 1.201 0 2.031-.44 2.383-1.23zm4.59-4.688c0-1.934 1.759-3.271 4.278-3.271 2.54 0 4.131 1.123 4.307 3.066h-2.276c-.175-.752-.888-1.23-2.021-1.23-1.104 0-1.934.527-1.934 1.298 0 .606.508.977 1.582 1.221l1.885.43c2.041.459 2.988 1.338 2.988 2.91 0 2.05-1.884 3.418-4.55 3.418s-4.346-1.153-4.532-3.096h2.393c.234.791.986 1.26 2.197 1.26 1.22 0 2.07-.537 2.07-1.328 0-.606-.459-.987-1.474-1.211l-1.895-.44c-2.05-.468-3.017-1.416-3.017-3.027zm11.016 0c0-1.934 1.758-3.271 4.278-3.271 2.539 0 4.13 1.123 4.306 3.066h-2.275c-.176-.752-.889-1.23-2.022-1.23-1.103 0-1.933.527-1.933 1.298 0 .606.508.977 1.582 1.221l1.885.43c2.04.459 2.988 1.338 2.988 2.91 0 2.05-1.885 3.418-4.55 3.418-2.667 0-4.346-1.153-4.532-3.096h2.393c.234.791.986 1.26 2.197 1.26 1.22 0 2.07-.537 2.07-1.328 0-.606-.459-.987-1.474-1.211l-1.895-.44c-2.05-.468-3.018-1.416-3.018-3.027zM48.565 46V35.316h2.412V46h-2.413zm1.2-12.422c-.878 0-1.494-.566-1.494-1.338 0-.771.616-1.338 1.495-1.338.888 0 1.494.567 1.494 1.338 0 .772-.606 1.338-1.494 1.338zm8.819 10.606c1.69 0 2.646-1.29 2.646-3.526 0-2.226-.966-3.525-2.646-3.525-1.69 0-2.656 1.299-2.656 3.525 0 2.237.967 3.526 2.656 3.526zm0 2.03c-3.203 0-5.137-2.089-5.137-5.556 0-3.447 1.963-5.556 5.137-5.556 3.184 0 5.137 2.1 5.137 5.556 0 3.467-1.944 5.557-5.137 5.557zM66.162 46V35.316h2.334v1.71h.166c.508-1.192 1.758-1.924 3.36-1.924 2.382 0 3.72 1.435 3.72 3.984V46H73.33v-6.338c0-1.63-.742-2.451-2.207-2.451-1.562 0-2.539.996-2.539 2.568V46h-2.422zm24.307 0v-2.627h-6.885v-2.246c1.27-2.334 3.252-5.469 5.742-9.219h3.555v9.336h1.904v2.129h-1.904V46h-2.412zm-4.551-4.844v.147h4.59v-7.344h-.137a106.129 106.129 0 0 0-4.453 7.197zm25.322.303h-10v-2.275h10v2.275zm6.104.703h2.46c.02 1.162.821 1.924 2.022 1.924 1.319 0 2.051-.8 2.051-2.315v-9.863h2.52v9.883c0 2.9-1.71 4.56-4.542 4.56-2.695 0-4.511-1.64-4.511-4.189zm15.927 2.11c1.465 0 2.56-.948 2.56-2.188v-.85l-2.413.157c-1.357.088-1.992.576-1.992 1.445 0 .898.771 1.435 1.845 1.435zm-.712 1.904c-2.061 0-3.536-1.25-3.536-3.203 0-1.934 1.456-3.047 4.053-3.203l2.754-.166v-.899c0-1.045-.703-1.63-2.012-1.63-1.113 0-1.875.39-2.1 1.112h-2.284c.195-1.884 1.962-3.085 4.502-3.085 2.744 0 4.287 1.337 4.287 3.603V46h-2.334v-1.465h-.166c-.596 1.035-1.768 1.64-3.164 1.64zm8.574-.176V35.316h2.334v1.71h.166c.508-1.192 1.758-1.924 3.36-1.924 2.382 0 3.72 1.435 3.72 3.984V46H148.3v-6.338c0-1.63-.742-2.451-2.207-2.451-1.563 0-2.54.996-2.54 2.568V46h-2.421zm16.933-8.975c-1.445 0-2.46 1.036-2.568 2.598h5.03c-.05-1.582-1.007-2.598-2.462-2.598zm2.48 6.036h2.296c-.46 1.943-2.227 3.154-4.746 3.154-3.145 0-5.04-2.08-5.04-5.518 0-3.437 1.924-5.595 5.02-5.595 3.047 0 4.873 2.021 4.873 5.39v.781h-7.46v.127c.058 1.778 1.083 2.891 2.675 2.891 1.201 0 2.031-.44 2.383-1.23zm10.42-11.153h5.284c4.19 0 6.63 2.559 6.63 6.983 0 4.521-2.411 7.109-6.63 7.109h-5.283V31.908zm2.52 2.178v9.736h2.432c2.803 0 4.394-1.748 4.394-4.892 0-3.076-1.63-4.844-4.394-4.844h-2.432zm16.621 10.098c1.69 0 2.647-1.29 2.647-3.526 0-2.226-.967-3.525-2.647-3.525-1.689 0-2.656 1.299-2.656 3.525 0 2.237.967 3.526 2.656 3.526zm0 2.03c-3.203 0-5.136-2.089-5.136-5.556 0-3.447 1.963-5.556 5.136-5.556 3.184 0 5.137 2.1 5.137 5.556 0 3.467-1.943 5.557-5.137 5.557zm12.061-9.189c-1.445 0-2.461 1.036-2.568 2.598h5.029c-.049-1.582-1.006-2.598-2.461-2.598zm2.48 6.036h2.295c-.459 1.943-2.226 3.154-4.746 3.154-3.144 0-5.039-2.08-5.039-5.518 0-3.437 1.924-5.595 5.02-5.595 3.047 0 4.873 2.021 4.873 5.39v.781h-7.461v.127c.058 1.778 1.084 2.891 2.676 2.891 1.2 0 2.03-.44 2.382-1.23z" fill="#24124D"/></g><g transform="translate(240 184)"><use fill="#000" filter="url(#a)" xlink:href="#b"/><use fill="#FFF" xlink:href="#b"/><g stroke-linecap="square"><use fill="#000" filter="url(#c)" xlink:href="#d"/><rect stroke-opacity=".098" stroke="#140B2F" fill="#FFF" x="-.5" y="-.5" width="145" height="41" rx="4"/></g></g><path d="M257.27 208h-1.53v-8.47h-3.104v-1.394h7.731v1.394h-3.096V208zm5.538 2.707c-.123 0-.472-.007-.609-.034v-1.265c.116.02.342.028.479.028.697 0 1.093-.294 1.346-1.046l.11-.363-2.694-7.471h1.6l1.866 5.913h.116l1.86-5.913h1.558l-2.775 7.752c-.636 1.811-1.34 2.399-2.857 2.399zm10.999-10.274c1.893 0 3.09 1.476 3.09 3.841 0 2.366-1.197 3.849-3.077 3.849-1.06 0-1.9-.465-2.29-1.25h-.116v3.54h-1.47v-9.857h1.415v1.23h.11c.45-.848 1.326-1.353 2.338-1.353zm-.417 6.37c1.25 0 1.996-.95 1.996-2.529 0-1.572-.745-2.522-1.99-2.522-1.237 0-2.01.97-2.01 2.53 0 1.551.773 2.522 2.004 2.522zm8.326-5.14c-1.087 0-1.846.766-1.928 1.928h3.76c-.034-1.17-.745-1.928-1.832-1.928zm1.825 4.327h1.415c-.335 1.333-1.524 2.154-3.227 2.154-2.132 0-3.438-1.463-3.438-3.842 0-2.38 1.333-3.89 3.432-3.89 2.07 0 3.322 1.415 3.322 3.753v.513h-5.257v.082c.048 1.305.807 2.133 1.983 2.133.888 0 1.497-.322 1.77-.903zm7.615-7.239h1.47v1.839h1.668v1.237h-1.668v3.828c0 .78.321 1.121 1.053 1.121.225 0 .342-.013.547-.034v1.224a4.514 4.514 0 0 1-.787.075c-1.633 0-2.283-.574-2.283-2.01v-4.204h-1.223v-1.237h1.223v-1.839zm7.957 8.087c1.272 0 1.996-.943 1.996-2.564 0-1.613-.724-2.556-1.996-2.556-1.278 0-1.996.943-1.996 2.556 0 1.627.718 2.564 1.996 2.564zm0 1.306c-2.18 0-3.513-1.457-3.513-3.87 0-2.399 1.34-3.862 3.513-3.862 2.167 0 3.507 1.463 3.507 3.862 0 2.413-1.333 3.87-3.507 3.87zm8.928-5.483c0-1.32 1.21-2.249 2.892-2.249 1.674 0 2.768.78 2.912 2.092h-1.408c-.137-.547-.67-.896-1.504-.896-.82 0-1.443.39-1.443.971 0 .444.376.725 1.183.91l1.237.286c1.415.329 2.078.937 2.078 2.03 0 1.402-1.305 2.339-3.083 2.339-1.77 0-2.926-.8-3.055-2.12h1.47c.184.575.73.93 1.62.93.915 0 1.565-.41 1.565-1.005 0-.444-.349-.731-1.094-.909l-1.299-.3c-1.415-.336-2.071-.971-2.071-2.079zm10.773-.998c-1.086 0-1.845.766-1.927 1.928h3.76c-.035-1.17-.746-1.928-1.833-1.928zm1.826 4.327h1.415c-.335 1.333-1.525 2.154-3.227 2.154-2.133 0-3.438-1.463-3.438-3.842 0-2.38 1.333-3.89 3.431-3.89 2.072 0 3.323 1.415 3.323 3.753v.513h-5.257v.082c.048 1.305.806 2.133 1.982 2.133.889 0 1.497-.322 1.77-.903zm5.7.896c1.108 0 1.929-.704 1.929-1.627v-.622l-1.819.116c-1.025.068-1.49.417-1.49 1.073 0 .67.581 1.06 1.38 1.06zm-.375 1.237c-1.436 0-2.482-.868-2.482-2.228 0-1.34.998-2.113 2.769-2.222l2.017-.116v-.643c0-.786-.52-1.23-1.525-1.23-.82 0-1.388.3-1.552.827h-1.421c.15-1.279 1.353-2.099 3.041-2.099 1.867 0 2.92.93 2.92 2.502V208h-1.416v-1.046h-.116c-.444.745-1.258 1.169-2.235 1.169zm5.858-.123v-7.444h1.415v1.141h.11c.212-.731 1.032-1.264 2.003-1.264.212 0 .492.02.649.061v1.45c-.116-.042-.567-.09-.813-.09-1.108 0-1.894.705-1.894 1.75V208h-1.47zm11.826-5.01h-1.428c-.171-.725-.773-1.265-1.757-1.265-1.23 0-1.983.943-1.983 2.529 0 1.613.76 2.577 1.983 2.577.93 0 1.565-.424 1.757-1.224h1.428c-.191 1.497-1.34 2.537-3.178 2.537-2.167 0-3.493-1.463-3.493-3.89 0-2.386 1.319-3.842 3.486-3.842 1.866 0 2.994 1.087 3.185 2.577zm1.744 5.01v-10.35h1.456v4.102h.116c.362-.834 1.223-1.333 2.345-1.333 1.674 0 2.631 1.005 2.631 2.775V208h-1.47v-4.443c0-1.19-.553-1.791-1.66-1.791-1.204 0-1.949.758-1.949 1.886V208h-1.47zm9.761.116c-.574 0-1.005-.444-1.005-1.018 0-.575.431-1.019 1.005-1.019.581 0 1.005.444 1.005 1.019 0 .574-.424 1.018-1.005 1.018zm3.658 0c-.575 0-1.005-.444-1.005-1.018 0-.575.43-1.019 1.005-1.019.58 0 1.004.444 1.004 1.019 0 .574-.423 1.018-1.004 1.018zm3.595 0c-.574 0-1.005-.444-1.005-1.018 0-.575.431-1.019 1.005-1.019.581 0 1.005.444 1.005 1.019 0 .574-.424 1.018-1.005 1.018z" fill="#A7A0B8"/><path fill="#5182F8" fill-rule="nonzero" opacity=".4" d="M16 192H136V220H16z"/><path fill="#24124D" fill-rule="nonzero" d="M134 192H136V220H134z"/><g transform="translate(125 206)"><use fill="#000" filter="url(#e)" xlink:href="#f"/><path stroke="#000" d="M9.346 6.975a33.064 33.064 0 0 1 .002.004zm-.74 5.894a8.185 8.185 0 0 0-.05-.83 11.658 11.658 0 0 0-.559-2.408c-.3-.825-.556-1.982-.622-2.902C7.278 5.391 7.54 4.5 8.467 4.5c.927 0 1.333.486 1.665 1.586-.03-.099.266.937.373 1.256.104.314.178.657.228 1.033.036.279.057.515.07.828.316-.451.893-.634 1.727-.634.59 0 .899.304 1.064.838.078-.301.23-.52.483-.666.283-.163.489-.18 1.172-.173l.245.001c.664 0 .975.383 1.13 1.048a.73.73 0 0 1 .406-.117c1.059 0 1.5.782 1.5 3 0 .413.008.76.025 1.188.044 1.162.04 1.31-.106 1.722-.098.275-.254.537-.519.89l-1.407 1.876c-.01.135-.033.292-.077.454-.135.505-.429.87-.952.87H9.86l-.134-.103a21.751 21.751 0 0 1-1.676-1.444 13.02 13.02 0 0 1-.823-.856 6.097 6.097 0 0 1-.625-.84c-.173-.288-.259-.415-.77-1.157a43.54 43.54 0 0 1-.236-.346c-.887-1.317-1.242-2.11-1.05-2.875.356-1.427 1.788-1.87 2.838-.82.253.252.474.565.75 1.025.064.105.275.466.316.534.06.099.11.18.156.25zm7.105.578c-.028.025-.085.053-.18.053-.109 0-.167-.034-.192-.06a.857.857 0 0 1 .081.153c.064.151.11.34.11.407v2c0 .072-.044.26-.107.41a.73.73 0 0 1-.08.15c.035-.032.091-.06.187-.06.109 0 .167.034.192.06a.857.857 0 0 1-.082-.153 1.451 1.451 0 0 1-.11-.407v-2c0-.072.045-.26.108-.41a.73.73 0 0 1 .08-.15zm-.368 3.112a.103.103 0 0 1 .007-.006zm.379.002a.236.236 0 0 1-.008-.01zm-2.011-3.114c-.028.025-.085.053-.18.053-.109 0-.167-.034-.192-.06a.857.857 0 0 1 .081.153c.064.151.11.34.11.407v2c0 .072-.044.26-.107.41a.73.73 0 0 1-.08.15c.035-.032.091-.06.187-.06.109 0 .167.034.192.06a.857.857 0 0 1-.082-.153 1.451 1.451 0 0 1-.11-.407v-2c0-.072.045-.26.108-.41a.73.73 0 0 1 .08-.15zm-.368 3.112a.103.103 0 0 1 .007-.006zm.379.002a.236.236 0 0 1-.008-.01zm-2.011-3.114c-.028.025-.085.053-.18.053-.109 0-.167-.034-.192-.06a.857.857 0 0 1 .081.153c.064.151.11.34.11.407v2c0 .072-.044.26-.107.41a.73.73 0 0 1-.08.15c.035-.032.091-.06.187-.06.109 0 .167.034.192.06a.857.857 0 0 1-.082-.153 1.451 1.451 0 0 1-.11-.407v-2c0-.072.045-.26.108-.41a.73.73 0 0 1 .08-.15zm-.368 3.112a.103.103 0 0 1 .007-.006zm.379.002a.236.236 0 0 1-.008-.01z" fill="#FFF"/></g><g transform="translate(240 128)"><rect fill="#FEDCE4" width="80" height="24" rx="4"/><path d="M11.281 7.136v6.248c0 1.244.745 2.037 2.065 2.037 1.326 0 2.071-.793 2.071-2.037V7.136h2.064v6.46c0 2.187-1.606 3.657-4.135 3.657-2.523 0-4.13-1.47-4.13-3.657v-6.46h2.065zm8.238 4.539c0-1.429 1.257-2.38 3.137-2.38 1.914 0 3.042.8 3.152 2.243h-1.84c-.102-.485-.56-.786-1.298-.786-.711 0-1.237.321-1.237.8 0 .369.32.594 1.018.752l1.415.307c1.463.322 2.12.937 2.12 2.065 0 1.504-1.347 2.488-3.323 2.488-1.99 0-3.192-.813-3.329-2.263h1.941c.15.513.636.807 1.43.807.772 0 1.305-.321 1.305-.807 0-.369-.287-.594-.95-.738l-1.368-.308c-1.463-.32-2.173-1.018-2.173-2.18zm10.82 3.944c.924 0 1.621-.588 1.621-1.353v-.554l-1.524.096c-.855.061-1.272.369-1.272.909 0 .56.485.902 1.176.902zm-.655 1.497c-1.45 0-2.468-.888-2.468-2.27 0-1.367 1.046-2.16 2.919-2.269l1.825-.11v-.614c0-.63-.451-.985-1.272-.985-.717 0-1.196.246-1.36.697h-1.832c.13-1.394 1.408-2.27 3.302-2.27 1.996 0 3.124.944 3.124 2.558V17h-1.928v-.984h-.123c-.39.69-1.21 1.1-2.187 1.1zm10.636 0c-1.066 0-1.92-.478-2.324-1.299h-.123V17h-1.928V6.582h1.99v4.081h.123c.382-.827 1.23-1.326 2.262-1.326 1.908 0 3.056 1.456 3.056 3.89 0 2.42-1.162 3.89-3.056 3.89zm-.69-6.111c-1.046 0-1.71.854-1.716 2.228.007 1.368.663 2.222 1.716 2.222 1.06 0 1.702-.848 1.702-2.228 0-1.374-.65-2.222-1.702-2.222zM45.01 17V9.46h1.989V17h-1.99zm.998-8.593c-.718 0-1.176-.417-1.176-1.005 0-.594.458-1.005 1.176-1.005.71 0 1.176.41 1.176 1.005 0 .588-.465 1.005-1.176 1.005zM49.078 17V6.582h1.988V17h-1.989zm4.067 0V9.46h1.989V17h-1.99zm.998-8.593c-.718 0-1.176-.417-1.176-1.005 0-.594.458-1.005 1.176-1.005.71 0 1.175.41 1.175 1.005 0 .588-.464 1.005-1.175 1.005zm3.568-.704h1.99v1.832H61.3v1.566h-1.6v3.39c0 .656.301.957.978.957.26 0 .39-.007.58-.027v1.517a5.471 5.471 0 0 1-.99.09c-1.832 0-2.557-.595-2.557-2.065V11.1h-1.196V9.535h1.196V7.703zm6.145 12.052c-.075 0-.676-.007-.758-.02v-1.607c.068.014.369.02.45.02.746 0 1.17-.252 1.334-.827l.068-.273-2.645-7.588h2.194l1.586 5.715h.123l1.586-5.715h2.105l-2.597 7.656c-.643 1.942-1.566 2.639-3.446 2.639z" fill="#F84F77"/></g></g></svg>