<svg width="832" height="536" viewBox="0 0 832 536" xmlns="http://www.w3.org/2000/svg" xmlns:xlink="http://www.w3.org/1999/xlink"><title>illustration/board-large</title><defs><rect id="b" x="2" y="2" width="168" height="60" rx="4"/><filter x="-4.2%" y="-8.3%" width="108.3%" height="123.3%" filterUnits="objectBoundingBox" id="a"><feOffset dy="2" in="SourceAlpha" result="shadowOffsetOuter1"/><feGaussianBlur stdDeviation="2" in="shadowOffsetOuter1" result="shadowBlurOuter1"/><feColorMatrix values="0 0 0 0 0 0 0 0 0 0 0 0 0 0 0 0 0 0 0.2 0" in="shadowBlurOuter1"/></filter><rect id="d" width="172" height="64" rx="4"/><filter x="-2.6%" y="-5.5%" width="105.2%" height="114.1%" filterUnits="objectBoundingBox" id="c"><feMorphology radius="1" operator="dilate" in="SourceAlpha" result="shadowSpreadOuter1"/><feOffset dy="1" in="shadowSpreadOuter1" result="shadowOffsetOuter1"/><feGaussianBlur stdDeviation="1" in="shadowOffsetOuter1" result="shadowBlurOuter1"/><feComposite in="shadowBlurOuter1" in2="SourceAlpha" operator="out" result="shadowBlurOuter1"/><feColorMatrix values="0 0 0 0 0 0 0 0 0 0 0 0 0 0 0 0 0 0 0.04 0" in="shadowBlurOuter1"/></filter><rect id="f" x="2" y="2" width="168" height="60" rx="4"/><filter x="-4.2%" y="-8.3%" width="108.3%" height="123.3%" filterUnits="objectBoundingBox" id="e"><feOffset dy="2" in="SourceAlpha" result="shadowOffsetOuter1"/><feGaussianBlur stdDeviation="2" in="shadowOffsetOuter1" result="shadowBlurOuter1"/><feColorMatrix values="0 0 0 0 0 0 0 0 0 0 0 0 0 0 0 0 0 0 0.2 0" in="shadowBlurOuter1"/></filter><rect id="h" width="172" height="64" rx="4"/><filter x="-2.6%" y="-5.5%" width="105.2%" height="114.1%" filterUnits="objectBoundingBox" id="g"><feMorphology radius="1" operator="dilate" in="SourceAlpha" result="shadowSpreadOuter1"/><feOffset dy="1" in="shadowSpreadOuter1" result="shadowOffsetOuter1"/><feGaussianBlur stdDeviation="1" in="shadowOffsetOuter1" result="shadowBlurOuter1"/><feComposite in="shadowBlurOuter1" in2="SourceAlpha" operator="out" result="shadowBlurOuter1"/><feColorMatrix values="0 0 0 0 0 0 0 0 0 0 0 0 0 0 0 0 0 0 0.04 0" in="shadowBlurOuter1"/></filter><rect id="j" x="2" y="2" width="168" height="172" rx="4"/><filter x="-4.2%" y="-2.9%" width="108.3%" height="108.1%" filterUnits="objectBoundingBox" id="i"><feOffset dy="2" in="SourceAlpha" result="shadowOffsetOuter1"/><feGaussianBlur stdDeviation="2" in="shadowOffsetOuter1" result="shadowBlurOuter1"/><feColorMatrix values="0 0 0 0 0 0 0 0 0 0 0 0 0 0 0 0 0 0 0.2 0" in="shadowBlurOuter1"/></filter><rect id="l" width="172" height="176" rx="4"/><filter x="-2.6%" y="-2%" width="105.2%" height="105.1%" filterUnits="objectBoundingBox" id="k"><feMorphology radius="1" operator="dilate" in="SourceAlpha" result="shadowSpreadOuter1"/><feOffset dy="1" in="shadowSpreadOuter1" result="shadowOffsetOuter1"/><feGaussianBlur stdDeviation="1" in="shadowOffsetOuter1" result="shadowBlurOuter1"/><feComposite in="shadowBlurOuter1" in2="SourceAlpha" operator="out" result="shadowBlurOuter1"/><feColorMatrix values="0 0 0 0 0 0 0 0 0 0 0 0 0 0 0 0 0 0 0.04 0" in="shadowBlurOuter1"/></filter><rect id="m" width="156" height="128" rx="4"/><rect id="p" x="2" y="2" width="168" height="76" rx="4"/><filter x="-4.2%" y="-6.6%" width="108.3%" height="118.4%" filterUnits="objectBoundingBox" id="o"><feOffset dy="2" in="SourceAlpha" result="shadowOffsetOuter1"/><feGaussianBlur stdDeviation="2" in="shadowOffsetOuter1" result="shadowBlurOuter1"/><feColorMatrix values="0 0 0 0 0 0 0 0 0 0 0 0 0 0 0 0 0 0 0.2 0" in="shadowBlurOuter1"/></filter><rect id="r" width="172" height="80" rx="4"/><filter x="-2.6%" y="-4.4%" width="105.2%" height="111.2%" filterUnits="objectBoundingBox" id="q"><feMorphology radius="1" operator="dilate" in="SourceAlpha" result="shadowSpreadOuter1"/><feOffset dy="1" in="shadowSpreadOuter1" result="shadowOffsetOuter1"/><feGaussianBlur stdDeviation="1" in="shadowOffsetOuter1" result="shadowBlurOuter1"/><feComposite in="shadowBlurOuter1" in2="SourceAlpha" operator="out" result="shadowBlurOuter1"/><feColorMatrix values="0 0 0 0 0 0 0 0 0 0 0 0 0 0 0 0 0 0 0.04 0" in="shadowBlurOuter1"/></filter><rect id="t" x="2" y="2" width="168" height="60" rx="4"/><filter x="-4.2%" y="-8.3%" width="108.3%" height="123.3%" filterUnits="objectBoundingBox" id="s"><feOffset dy="2" in="SourceAlpha" result="shadowOffsetOuter1"/><feGaussianBlur stdDeviation="2" in="shadowOffsetOuter1" result="shadowBlurOuter1"/><feColorMatrix values="0 0 0 0 0 0 0 0 0 0 0 0 0 0 0 0 0 0 0.2 0" in="shadowBlurOuter1"/></filter><rect id="v" width="172" height="64" rx="4"/><filter x="-2.6%" y="-5.5%" width="105.2%" height="114.1%" filterUnits="objectBoundingBox" id="u"><feMorphology radius="1" operator="dilate" in="SourceAlpha" result="shadowSpreadOuter1"/><feOffset dy="1" in="shadowSpreadOuter1" result="shadowOffsetOuter1"/><feGaussianBlur stdDeviation="1" in="shadowOffsetOuter1" result="shadowBlurOuter1"/><feComposite in="shadowBlurOuter1" in2="SourceAlpha" operator="out" result="shadowBlurOuter1"/><feColorMatrix values="0 0 0 0 0 0 0 0 0 0 0 0 0 0 0 0 0 0 0.04 0" in="shadowBlurOuter1"/></filter><rect id="x" x="2" y="2" width="168" height="60" rx="4"/><filter x="-4.2%" y="-8.3%" width="108.3%" height="123.3%" filterUnits="objectBoundingBox" id="w"><feOffset dy="2" in="SourceAlpha" result="shadowOffsetOuter1"/><feGaussianBlur stdDeviation="2" in="shadowOffsetOuter1" result="shadowBlurOuter1"/><feColorMatrix values="0 0 0 0 0 0 0 0 0 0 0 0 0 0 0 0 0 0 0.2 0" in="shadowBlurOuter1"/></filter><rect id="z" width="172" height="64" rx="4"/><filter x="-2.6%" y="-5.5%" width="105.2%" height="114.1%" filterUnits="objectBoundingBox" id="y"><feMorphology radius="1" operator="dilate" in="SourceAlpha" result="shadowSpreadOuter1"/><feOffset dy="1" in="shadowSpreadOuter1" result="shadowOffsetOuter1"/><feGaussianBlur stdDeviation="1" in="shadowOffsetOuter1" result="shadowBlurOuter1"/><feComposite in="shadowBlurOuter1" in2="SourceAlpha" operator="out" result="shadowBlurOuter1"/><feColorMatrix values="0 0 0 0 0 0 0 0 0 0 0 0 0 0 0 0 0 0 0.04 0" in="shadowBlurOuter1"/></filter><rect id="B" x="2" y="2" width="168" height="60" rx="4"/><filter x="-4.2%" y="-8.3%" width="108.3%" height="123.3%" filterUnits="objectBoundingBox" id="A"><feOffset dy="2" in="SourceAlpha" result="shadowOffsetOuter1"/><feGaussianBlur stdDeviation="2" in="shadowOffsetOuter1" result="shadowBlurOuter1"/><feColorMatrix values="0 0 0 0 0 0 0 0 0 0 0 0 0 0 0 0 0 0 0.2 0" in="shadowBlurOuter1"/></filter><rect id="D" width="172" height="64" rx="4"/><filter x="-2.6%" y="-5.5%" width="105.2%" height="114.1%" filterUnits="objectBoundingBox" id="C"><feMorphology radius="1" operator="dilate" in="SourceAlpha" result="shadowSpreadOuter1"/><feOffset dy="1" in="shadowSpreadOuter1" result="shadowOffsetOuter1"/><feGaussianBlur stdDeviation="1" in="shadowOffsetOuter1" result="shadowBlurOuter1"/><feComposite in="shadowBlurOuter1" in2="SourceAlpha" operator="out" result="shadowBlurOuter1"/><feColorMatrix values="0 0 0 0 0 0 0 0 0 0 0 0 0 0 0 0 0 0 0.04 0" in="shadowBlurOuter1"/></filter><rect id="F" x="2" y="2" width="168" height="60" rx="4"/><filter x="-4.2%" y="-8.3%" width="108.3%" height="123.3%" filterUnits="objectBoundingBox" id="E"><feOffset dy="2" in="SourceAlpha" result="shadowOffsetOuter1"/><feGaussianBlur stdDeviation="2" in="shadowOffsetOuter1" result="shadowBlurOuter1"/><feColorMatrix values="0 0 0 0 0 0 0 0 0 0 0 0 0 0 0 0 0 0 0.2 0" in="shadowBlurOuter1"/></filter><rect id="H" width="172" height="64" rx="4"/><filter x="-2.6%" y="-5.5%" width="105.2%" height="114.1%" filterUnits="objectBoundingBox" id="G"><feMorphology radius="1" operator="dilate" in="SourceAlpha" result="shadowSpreadOuter1"/><feOffset dy="1" in="shadowSpreadOuter1" result="shadowOffsetOuter1"/><feGaussianBlur stdDeviation="1" in="shadowOffsetOuter1" result="shadowBlurOuter1"/><feComposite in="shadowBlurOuter1" in2="SourceAlpha" operator="out" result="shadowBlurOuter1"/><feColorMatrix values="0 0 0 0 0 0 0 0 0 0 0 0 0 0 0 0 0 0 0.04 0" in="shadowBlurOuter1"/></filter><rect id="J" x="2" y="2" width="168" height="76" rx="4"/><filter x="-4.2%" y="-6.6%" width="108.3%" height="118.4%" filterUnits="objectBoundingBox" id="I"><feOffset dy="2" in="SourceAlpha" result="shadowOffsetOuter1"/><feGaussianBlur stdDeviation="2" in="shadowOffsetOuter1" result="shadowBlurOuter1"/><feColorMatrix values="0 0 0 0 0 0 0 0 0 0 0 0 0 0 0 0 0 0 0.2 0" in="shadowBlurOuter1"/></filter><rect id="L" width="172" height="80" rx="4"/><filter x="-2.6%" y="-4.4%" width="105.2%" height="111.2%" filterUnits="objectBoundingBox" id="K"><feMorphology radius="1" operator="dilate" in="SourceAlpha" result="shadowSpreadOuter1"/><feOffset dy="1" in="shadowSpreadOuter1" result="shadowOffsetOuter1"/><feGaussianBlur stdDeviation="1" in="shadowOffsetOuter1" result="shadowBlurOuter1"/><feComposite in="shadowBlurOuter1" in2="SourceAlpha" operator="out" result="shadowBlurOuter1"/><feColorMatrix values="0 0 0 0 0 0 0 0 0 0 0 0 0 0 0 0 0 0 0.04 0" in="shadowBlurOuter1"/></filter><rect id="N" x="2.688" y="2" width="166.625" height="62" rx="3"/><filter x="-33.6%" y="-64.5%" width="167.2%" height="280.6%" filterUnits="objectBoundingBox" id="M"><feOffset dy="16" in="SourceAlpha" result="shadowOffsetOuter1"/><feGaussianBlur stdDeviation="16" in="shadowOffsetOuter1" result="shadowBlurOuter1"/><feColorMatrix values="0 0 0 0 0.139296534 0 0 0 0 0.0722663527 0 0 0 0 0.301286139 0 0 0 1 0" in="shadowBlurOuter1"/></filter><rect id="P" width="172" height="64" rx="4"/><filter x="-.9%" y="-2.3%" width="101.7%" height="104.7%" filterUnits="objectBoundingBox" id="O"><feMorphology radius=".5" operator="dilate" in="SourceAlpha" result="shadowSpreadOuter1"/><feOffset in="shadowSpreadOuter1" result="shadowOffsetOuter1"/><feColorMatrix values="0 0 0 0 0.141176471 0 0 0 0 0.0705882353 0 0 0 0 0.301960784 0 0 0 0.1 0" in="shadowOffsetOuter1"/></filter><rect id="R" x="2" y="2" width="168" height="60" rx="4"/><filter x="-4.2%" y="-8.3%" width="108.3%" height="123.3%" filterUnits="objectBoundingBox" id="Q"><feOffset dy="2" in="SourceAlpha" result="shadowOffsetOuter1"/><feGaussianBlur stdDeviation="2" in="shadowOffsetOuter1" result="shadowBlurOuter1"/><feColorMatrix values="0 0 0 0 0 0 0 0 0 0 0 0 0 0 0 0 0 0 0.2 0" in="shadowBlurOuter1"/></filter><rect id="T" width="172" height="64" rx="4"/><filter x="-2.6%" y="-5.5%" width="105.2%" height="114.1%" filterUnits="objectBoundingBox" id="S"><feMorphology radius="1" operator="dilate" in="SourceAlpha" result="shadowSpreadOuter1"/><feOffset dy="1" in="shadowSpreadOuter1" result="shadowOffsetOuter1"/><feGaussianBlur stdDeviation="1" in="shadowOffsetOuter1" result="shadowBlurOuter1"/><feComposite in="shadowBlurOuter1" in2="SourceAlpha" operator="out" result="shadowBlurOuter1"/><feColorMatrix values="0 0 0 0 0 0 0 0 0 0 0 0 0 0 0 0 0 0 0.04 0" in="shadowBlurOuter1"/></filter><path d="M10.03 19s-2.219-1.699-3-3c-.78-1.301-2.26-2.959-2-4 .26-1.041 1.22-1.37 2-.588.781.78.98 2.348 1.5 2.088.52-.26.52-1.569 0-3S6.467 6 7.53 6c1.063 0 1.5 0 2 1.5s.61 3.5 1 3.5 0 .412.54-1c.063-.165-.07-3.376 0-3.5.188-.332.262-1.5.984-1.5.346 0 .976.5.976 2.5s.117 3.5.5 3.5c.5 0 .5.041.5-1V7.5c0-.5.884-1.5 1.464-1.5 1 0 .516 5 1.036 5 .225 0 1-2 1-2s.716-1 1-1c1 0 .5 3 0 4s-.219 2.959-1 4l-1.5 2s0 1-.536 1H10.03zm3-3c0 .27.232 1 .5 1 .276 0 .5-.725.5-1v-2c0-.27-.232-1-.5-1-.276 0-.5.725-.5 1v2zm2 0c0 .27.232 1 .5 1 .276 0 .5-.725.5-1v-2c0-.27-.232-1-.5-1-.276 0-.5.725-.5 1v2zm-4 0c0 .27.232 1 .5 1 .276 0 .5-.725.5-1v-2c0-.27-.232-1-.5-1-.276 0-.5.725-.5 1v2z" id="V"/><filter x="-31.9%" y="-25%" width="163.8%" height="164.3%" filterUnits="objectBoundingBox" id="U"><feMorphology radius="1" operator="dilate" in="SourceAlpha" result="shadowSpreadOuter1"/><feOffset dy="1" in="shadowSpreadOuter1" result="shadowOffsetOuter1"/><feGaussianBlur stdDeviation="1" in="shadowOffsetOuter1" result="shadowBlurOuter1"/><feComposite in="shadowBlurOuter1" in2="SourceAlpha" operator="out" result="shadowBlurOuter1"/><feColorMatrix values="0 0 0 0 0 0 0 0 0 0 0 0 0 0 0 0 0 0 1 0" in="shadowBlurOuter1"/></filter></defs><g fill="none" fill-rule="evenodd"><g transform="translate(16 16)"><rect fill="#F1EFF8" width="188" height="504" rx="4"/><g transform="translate(23 479)"><path d="M27.502 9h-1.459V.545h1.312l4.149 5.748h.1V.545h1.453V9H31.75l-4.148-5.754h-.1V9zm10.184-5.385c-.868 0-1.477.621-1.541 1.559h3.017c-.03-.95-.603-1.559-1.476-1.559zm1.488 3.621h1.377c-.276 1.166-1.336 1.893-2.848 1.893-1.887 0-3.023-1.248-3.023-3.31 0-2.063 1.154-3.358 3.011-3.358 1.829 0 2.924 1.213 2.924 3.234v.47H36.14v.075c.035 1.067.65 1.735 1.605 1.735.72 0 1.219-.264 1.43-.739zM50.658 2.59L48.924 9h-1.53l-1.248-4.617h-.1L44.806 9h-1.512l-1.734-6.41h1.464l1.067 4.787h.1l1.23-4.787h1.389l1.242 4.787h.1l1.06-4.787h1.447zM55.123 9V2.59h1.4v1.025h.1c.305-.715 1.055-1.154 2.016-1.154 1.43 0 2.232.861 2.232 2.39V9h-1.447V5.197c0-.978-.445-1.47-1.324-1.47-.938 0-1.524.597-1.524 1.54V9h-1.453zm10.236-1.09c1.014 0 1.588-.773 1.588-2.115 0-1.336-.58-2.115-1.588-2.115-1.013 0-1.593.779-1.593 2.115 0 1.342.58 2.115 1.593 2.115zm0 1.219c-1.921 0-3.082-1.254-3.082-3.334 0-2.068 1.178-3.334 3.082-3.334 1.91 0 3.082 1.26 3.082 3.334 0 2.08-1.166 3.334-3.082 3.334zm5.01-8.068h1.447v1.57h1.407v1.16h-1.407v3.147c0 .632.27.914.88.914.204 0 .31-.012.48-.03V8.96c-.205.041-.469.07-.75.07-1.47 0-2.057-.498-2.057-1.74V3.791h-1.043v-1.16h1.043V1.06zm6.961 2.554c-.867 0-1.476.621-1.54 1.559h3.017c-.03-.95-.604-1.559-1.477-1.559zm1.488 3.621h1.377C79.92 8.402 78.86 9.13 77.348 9.13c-1.887 0-3.024-1.248-3.024-3.31 0-2.063 1.155-3.358 3.012-3.358 1.828 0 2.924 1.213 2.924 3.234v.47h-4.477v.075c.035 1.067.65 1.735 1.606 1.735.72 0 1.218-.264 1.43-.739z" fill="#24124D" opacity=".6"/><g transform="translate(.333 .333)" stroke="#7B7194" stroke-linecap="round" stroke-linejoin="round" stroke-width="2"><path d="M4.667 0v9.333M0 4.667h9.333"/></g></g><g transform="translate(8 320)"><use fill="#000" filter="url(#a)" xlink:href="#b"/><use fill="#FFF" xlink:href="#b"/><g stroke-linecap="square"><use fill="#000" filter="url(#c)" xlink:href="#d"/><rect stroke-opacity=".098" stroke="#140B2F" fill="#FFF" x="-.5" y="-.5" width="173" height="65" rx="4"/></g><rect fill="#512DA8" opacity=".2" x="16" y="16" width="96" height="8" rx="4"/><rect fill="#5182F8" x="16" y="40" width="16" height="8" rx="4"/><rect fill="#1EB8C1" x="36" y="40" width="16" height="8" rx="4"/></g><g transform="translate(8 392)"><use fill="#000" filter="url(#e)" xlink:href="#f"/><use fill="#FFF" xlink:href="#f"/><g stroke-linecap="square"><use fill="#000" filter="url(#g)" xlink:href="#h"/><rect stroke-opacity=".098" stroke="#140B2F" fill="#FFF" x="-.5" y="-.5" width="173" height="65" rx="4"/></g><rect fill="#512DA8" opacity=".2" x="16" y="16" width="64" height="8" rx="4"/><rect fill="#5182F8" x="16" y="40" width="16" height="8" rx="4"/></g><g transform="translate(8 136)"><use fill="#000" filter="url(#i)" xlink:href="#j"/><use fill="#FFF" xlink:href="#j"/><g stroke-linecap="square"><use fill="#000" filter="url(#k)" xlink:href="#l"/><rect stroke-opacity=".098" stroke="#140B2F" fill="#FFF" x="-.5" y="-.5" width="173" height="177" rx="4"/></g><g transform="translate(8 8)"><mask id="n" fill="#fff"><use xlink:href="#m"/></mask><use fill="#512DA8" opacity=".2" xlink:href="#m"/><ellipse fill="#512DA8" opacity=".2" mask="url(#n)" cx="121.333" cy="36" rx="11.917" ry="12"/><path d="M0 104c14.3-21.333 29.9-32 46.8-32 25.35 0 31.2 38 62.4 32 20.8-4 36.4 1.333 46.8 16v8H0v-24z" fill="#512DA8" opacity=".2" mask="url(#n)"/></g><rect fill="#5182F8" x="16" y="152" width="16" height="8" rx="4"/><rect fill="#009688" x="36" y="152" width="16" height="8" rx="4"/><rect fill="#1EB8C1" x="56" y="152" width="16" height="8" rx="4"/></g><g transform="translate(8 48)"><use fill="#000" filter="url(#o)" xlink:href="#p"/><use fill="#FFF" xlink:href="#p"/><g stroke-linecap="square"><use fill="#000" filter="url(#q)" xlink:href="#r"/><rect stroke-opacity=".098" stroke="#140B2F" fill="#FFF" x="-.5" y="-.5" width="173" height="81" rx="4"/></g><rect fill="#512DA8" opacity=".2" x="16" y="16" width="140" height="8" rx="4"/><rect fill="#512DA8" opacity=".2" x="16" y="32" width="64" height="8" rx="4"/><rect fill="#5182F8" x="16" y="56" width="16" height="8" rx="4"/><rect fill="#F84F77" x="36" y="56" width="16" height="8" rx="4"/></g><rect width="96" height="8" rx="4" transform="translate(12 16)" fill="#512DA8" opacity=".2"/></g><g transform="translate(220 16)"><rect fill="#F1EFF8" width="188" height="304" rx="4"/><g transform="translate(23 279)"><path d="M27.502 9h-1.459V.545h1.312l4.149 5.748h.1V.545h1.453V9H31.75l-4.148-5.754h-.1V9zm10.184-5.385c-.868 0-1.477.621-1.541 1.559h3.017c-.03-.95-.603-1.559-1.476-1.559zm1.488 3.621h1.377c-.276 1.166-1.336 1.893-2.848 1.893-1.887 0-3.023-1.248-3.023-3.31 0-2.063 1.154-3.358 3.011-3.358 1.829 0 2.924 1.213 2.924 3.234v.47H36.14v.075c.035 1.067.65 1.735 1.605 1.735.72 0 1.219-.264 1.43-.739zM50.658 2.59L48.924 9h-1.53l-1.248-4.617h-.1L44.806 9h-1.512l-1.734-6.41h1.464l1.067 4.787h.1l1.23-4.787h1.389l1.242 4.787h.1l1.06-4.787h1.447zM55.123 9V2.59h1.4v1.025h.1c.305-.715 1.055-1.154 2.016-1.154 1.43 0 2.232.861 2.232 2.39V9h-1.447V5.197c0-.978-.445-1.47-1.324-1.47-.938 0-1.524.597-1.524 1.54V9h-1.453zm10.236-1.09c1.014 0 1.588-.773 1.588-2.115 0-1.336-.58-2.115-1.588-2.115-1.013 0-1.593.779-1.593 2.115 0 1.342.58 2.115 1.593 2.115zm0 1.219c-1.921 0-3.082-1.254-3.082-3.334 0-2.068 1.178-3.334 3.082-3.334 1.91 0 3.082 1.26 3.082 3.334 0 2.08-1.166 3.334-3.082 3.334zm5.01-8.068h1.447v1.57h1.407v1.16h-1.407v3.147c0 .632.27.914.88.914.204 0 .31-.012.48-.03V8.96c-.205.041-.469.07-.75.07-1.47 0-2.057-.498-2.057-1.74V3.791h-1.043v-1.16h1.043V1.06zm6.961 2.554c-.867 0-1.476.621-1.54 1.559h3.017c-.03-.95-.604-1.559-1.477-1.559zm1.488 3.621h1.377C79.92 8.402 78.86 9.13 77.348 9.13c-1.887 0-3.024-1.248-3.024-3.31 0-2.063 1.155-3.358 3.012-3.358 1.828 0 2.924 1.213 2.924 3.234v.47h-4.477v.075c.035 1.067.65 1.735 1.606 1.735.72 0 1.218-.264 1.43-.739z" fill="#24124D" opacity=".6"/><g transform="translate(.333 .333)" stroke="#7B7194" stroke-linecap="round" stroke-linejoin="round" stroke-width="2"><path d="M4.667 0v9.333M0 4.667h9.333"/></g></g><g transform="translate(8 48)"><use fill="#000" filter="url(#s)" xlink:href="#t"/><use fill="#FFF" xlink:href="#t"/><g stroke-linecap="square"><use fill="#000" filter="url(#u)" xlink:href="#v"/><rect stroke-opacity=".098" stroke="#140B2F" fill="#FFF" x="-.5" y="-.5" width="173" height="65" rx="4"/></g><rect fill="#512DA8" opacity=".2" x="16" y="16" width="96" height="8" rx="4"/><rect fill="#5182F8" x="16" y="40" width="16" height="8" rx="4"/><rect fill="#1EB8C1" x="36" y="40" width="16" height="8" rx="4"/></g><g transform="translate(8 192)"><use fill="#000" filter="url(#w)" xlink:href="#x"/><use fill="#FFF" xlink:href="#x"/><g stroke-linecap="square"><use fill="#000" filter="url(#y)" xlink:href="#z"/><rect stroke-opacity=".098" stroke="#140B2F" fill="#FFF" x="-.5" y="-.5" width="173" height="65" rx="4"/></g><rect fill="#512DA8" opacity=".2" x="16" y="16" width="64" height="8" rx="4"/><rect fill="#009688" x="16" y="40" width="16" height="8" rx="4"/></g><rect width="128" height="8" rx="4" transform="translate(12 16)" fill="#512DA8" opacity=".2"/></g><g transform="translate(424 16)"><rect fill="#F1EFF8" width="188" height="392" rx="4"/><g transform="translate(23 367)"><path d="M27.502 9h-1.459V.545h1.312l4.149 5.748h.1V.545h1.453V9H31.75l-4.148-5.754h-.1V9zm10.184-5.385c-.868 0-1.477.621-1.541 1.559h3.017c-.03-.95-.603-1.559-1.476-1.559zm1.488 3.621h1.377c-.276 1.166-1.336 1.893-2.848 1.893-1.887 0-3.023-1.248-3.023-3.31 0-2.063 1.154-3.358 3.011-3.358 1.829 0 2.924 1.213 2.924 3.234v.47H36.14v.075c.035 1.067.65 1.735 1.605 1.735.72 0 1.219-.264 1.43-.739zM50.658 2.59L48.924 9h-1.53l-1.248-4.617h-.1L44.806 9h-1.512l-1.734-6.41h1.464l1.067 4.787h.1l1.23-4.787h1.389l1.242 4.787h.1l1.06-4.787h1.447zM55.123 9V2.59h1.4v1.025h.1c.305-.715 1.055-1.154 2.016-1.154 1.43 0 2.232.861 2.232 2.39V9h-1.447V5.197c0-.978-.445-1.47-1.324-1.47-.938 0-1.524.597-1.524 1.54V9h-1.453zm10.236-1.09c1.014 0 1.588-.773 1.588-2.115 0-1.336-.58-2.115-1.588-2.115-1.013 0-1.593.779-1.593 2.115 0 1.342.58 2.115 1.593 2.115zm0 1.219c-1.921 0-3.082-1.254-3.082-3.334 0-2.068 1.178-3.334 3.082-3.334 1.91 0 3.082 1.26 3.082 3.334 0 2.08-1.166 3.334-3.082 3.334zm5.01-8.068h1.447v1.57h1.407v1.16h-1.407v3.147c0 .632.27.914.88.914.204 0 .31-.012.48-.03V8.96c-.205.041-.469.07-.75.07-1.47 0-2.057-.498-2.057-1.74V3.791h-1.043v-1.16h1.043V1.06zm6.961 2.554c-.867 0-1.476.621-1.54 1.559h3.017c-.03-.95-.604-1.559-1.477-1.559zm1.488 3.621h1.377C79.92 8.402 78.86 9.13 77.348 9.13c-1.887 0-3.024-1.248-3.024-3.31 0-2.063 1.155-3.358 3.012-3.358 1.828 0 2.924 1.213 2.924 3.234v.47h-4.477v.075c.035 1.067.65 1.735 1.606 1.735.72 0 1.218-.264 1.43-.739z" fill="#24124D" opacity=".6"/><g transform="translate(.333 .333)" stroke="#7B7194" stroke-linecap="round" stroke-linejoin="round" stroke-width="2"><path d="M4.667 0v9.333M0 4.667h9.333"/></g></g><g transform="translate(8 136)"><use fill="#000" filter="url(#A)" xlink:href="#B"/><use fill="#FFF" xlink:href="#B"/><g stroke-linecap="square"><use fill="#000" filter="url(#C)" xlink:href="#D"/><rect stroke-opacity=".098" stroke="#140B2F" fill="#FFF" x="-.5" y="-.5" width="173" height="65" rx="4"/></g><rect fill="#512DA8" opacity=".08" y="72" width="172" height="64" rx="4"/><rect fill="#512DA8" opacity=".2" x="16" y="16" width="96" height="8" rx="4"/><rect fill="#5182F8" x="16" y="40" width="16" height="8" rx="3"/><rect fill="#1EB8C1" x="36" y="40" width="16" height="8" rx="3"/></g><g transform="translate(8 280)"><use fill="#000" filter="url(#E)" xlink:href="#F"/><use fill="#FFF" xlink:href="#F"/><g stroke-linecap="square"><use fill="#000" filter="url(#G)" xlink:href="#H"/><rect stroke-opacity=".098" stroke="#140B2F" fill="#FFF" x="-.5" y="-.5" width="173" height="65" rx="4"/></g><rect fill="#512DA8" opacity=".2" x="16" y="16" width="64" height="8" rx="4"/><rect fill="#009688" x="16" y="40" width="16" height="8" rx="4"/></g><g transform="translate(8 48)"><use fill="#000" filter="url(#I)" xlink:href="#J"/><use fill="#FFF" xlink:href="#J"/><g stroke-linecap="square"><use fill="#000" filter="url(#K)" xlink:href="#L"/><rect stroke-opacity=".098" stroke="#140B2F" fill="#FFF" x="-.5" y="-.5" width="173" height="81" rx="4"/></g><rect fill="#512DA8" opacity=".2" x="16" y="16" width="140" height="8" rx="4"/><rect fill="#512DA8" opacity=".2" x="16" y="32" width="64" height="8" rx="4"/><rect fill="#5182F8" x="16" y="56" width="16" height="8" rx="4"/><rect fill="#F84F77" x="36" y="56" width="16" height="8" rx="4"/><rect fill="#5182F8" x="56" y="56" width="16" height="8" rx="4"/><rect fill="#1EB8C1" x="76" y="56" width="16" height="8" rx="4"/></g><rect width="64" height="8" rx="3" transform="translate(12 16)" fill="#512DA8" opacity=".2"/></g><g transform="translate(628 16)"><rect fill="#F1EFF8" width="188" height="40" rx="4"/><g transform="translate(89.333 15.333)" stroke="#7B7194" stroke-linecap="round" stroke-linejoin="round" stroke-width="2"><path d="M4.667 0v9.333M0 4.667h9.333"/></g></g><g transform="translate(330 184)"><g opacity=".2"><use fill="#000" filter="url(#M)" xlink:href="#N"/><use fill="#FFF" xlink:href="#N"/></g><use fill="#000" filter="url(#O)" xlink:href="#P"/><use fill="#FFF" xlink:href="#P"/><use fill="#000" filter="url(#Q)" xlink:href="#R"/><use fill="#FFF" xlink:href="#R"/><g stroke-linecap="square"><use fill="#000" filter="url(#S)" xlink:href="#T"/><rect stroke-opacity=".098" stroke="#140B2F" fill="#FFF" x="-.5" y="-.5" width="173" height="65" rx="4"/></g><rect stroke="#5182F8" stroke-width="2" fill="#FFF" x="-1" y="-1" width="174" height="66" rx="4"/><rect fill="#512DA8" opacity=".2" x="16" y="16" width="64" height="8" rx="4"/><rect fill="#F84F77" x="16" y="40" width="16" height="8" rx="4"/><g transform="translate(82 24)"><use fill="#000" filter="url(#U)" xlink:href="#V"/><path stroke="#000" d="M11.552 6.7zm-3.14 6.1c.06-.403-.025-1.23-.352-2.13a18.551 18.551 0 0 0-.263-.67c-.04-.1-.266-.645-.332-.806-.059-.144-.112-.275-.161-.4-.325-.819-.522-1.417-.602-1.896-.132-.795.081-1.398.828-1.398 1.484 0 1.958.292 2.475 1.842.098.294.186.618.27.985.073.313.24 1.151.316 1.524l.012-.03c-.014.036-.02-.745-.035-1.531V8.26c-.013-.613-.018-.9-.02-1.176-.002-.628 0-.677.087-.832a.833.833 0 0 0 .038-.105c.01-.033.113-.389.153-.512.234-.706.579-1.136 1.228-1.136.887 0 1.476 1.1 1.476 3 0-.799 1.128-2 1.964-2 .896 0 1.079.826 1.197 2.972.01.192.009.148.036.718l.02.402a25.33 25.33 0 0 0 .317-.773l.06-.11a8.12 8.12 0 0 1 .601-.735c.297-.312.512-.474.805-.474.898 0 1.153.88 1.062 2.16-.065.91-.324 1.982-.614 2.564-.142.283-.21.64-.306 1.478a43.57 43.57 0 0 1-.046.392c-.129 1.046-.299 1.677-.696 2.206l-1.407 1.876c-.01.135-.033.292-.077.454-.135.505-.429.87-.952.87H9.86l-.134-.103a21.751 21.751 0 0 1-1.676-1.444 13.02 13.02 0 0 1-.823-.856 6.097 6.097 0 0 1-.625-.84c-.173-.288-.259-.415-.77-1.157a43.54 43.54 0 0 1-.236-.346c-.887-1.317-1.242-2.11-1.05-2.875.356-1.427 1.788-1.87 2.838-.82.254.253.458.566.664.975.048.096.246.523.365.767zm5.299.647c-.028.025-.085.053-.18.053-.109 0-.167-.034-.192-.06a.857.857 0 0 1 .081.153c.064.151.11.34.11.407v2c0 .072-.044.26-.107.41a.73.73 0 0 1-.08.15c.035-.032.091-.06.187-.06.109 0 .167.034.192.06a.857.857 0 0 1-.082-.153 1.451 1.451 0 0 1-.11-.407v-2c0-.072.045-.26.108-.41a.73.73 0 0 1 .08-.15zm-.368 3.112a.103.103 0 0 1 .007-.006zm.379.002a.236.236 0 0 1-.008-.01zm1.989-3.114c-.028.025-.085.053-.18.053-.109 0-.167-.034-.192-.06a.857.857 0 0 1 .081.153c.064.151.11.34.11.407v2c0 .072-.044.26-.107.41a.73.73 0 0 1-.08.15c.035-.032.091-.06.187-.06.109 0 .167.034.192.06a.857.857 0 0 1-.082-.153 1.451 1.451 0 0 1-.11-.407v-2c0-.072.045-.26.108-.41a.73.73 0 0 1 .08-.15zm-.368 3.112a.103.103 0 0 1 .007-.006zm.379.002a.236.236 0 0 1-.008-.01zm-4.011-3.114c-.028.025-.085.053-.18.053-.109 0-.167-.034-.192-.06a.857.857 0 0 1 .081.153c.064.151.11.34.11.407v2c0 .072-.044.26-.107.41a.73.73 0 0 1-.08.15c.035-.032.091-.06.187-.06.109 0 .167.034.192.06a.857.857 0 0 1-.082-.153 1.451 1.451 0 0 1-.11-.407v-2c0-.072.045-.26.108-.41a.73.73 0 0 1 .08-.15zm-.368 3.112a.103.103 0 0 1 .007-.006zm.379.002a.236.236 0 0 1-.008-.01z" fill="#FFF"/></g></g></g></svg>