<svg width="400" height="320" viewBox="0 0 400 320" xmlns="http://www.w3.org/2000/svg" xmlns:xlink="http://www.w3.org/1999/xlink"><title>illustration/board</title><defs><rect id="b" x="2" y="2" width="92" height="44" rx="4"/><filter x="-7.6%" y="-11.4%" width="115.2%" height="131.8%" filterUnits="objectBoundingBox" id="a"><feOffset dy="2" in="SourceAlpha" result="shadowOffsetOuter1"/><feGaussianBlur stdDeviation="2" in="shadowOffsetOuter1" result="shadowBlurOuter1"/><feColorMatrix values="0 0 0 0 0 0 0 0 0 0 0 0 0 0 0 0 0 0 0.2 0" in="shadowBlurOuter1"/></filter><rect id="d" width="96" height="48" rx="4"/><filter x="-4.7%" y="-7.3%" width="109.4%" height="118.8%" filterUnits="objectBoundingBox" id="c"><feMorphology radius="1" operator="dilate" in="SourceAlpha" result="shadowSpreadOuter1"/><feOffset dy="1" in="shadowSpreadOuter1" result="shadowOffsetOuter1"/><feGaussianBlur stdDeviation="1" in="shadowOffsetOuter1" result="shadowBlurOuter1"/><feComposite in="shadowBlurOuter1" in2="SourceAlpha" operator="out" result="shadowBlurOuter1"/><feColorMatrix values="0 0 0 0 0 0 0 0 0 0 0 0 0 0 0 0 0 0 0.04 0" in="shadowBlurOuter1"/></filter><rect id="f" x="2" y="2" width="92" height="44" rx="4"/><filter x="-7.6%" y="-11.4%" width="115.2%" height="131.8%" filterUnits="objectBoundingBox" id="e"><feOffset dy="2" in="SourceAlpha" result="shadowOffsetOuter1"/><feGaussianBlur stdDeviation="2" in="shadowOffsetOuter1" result="shadowBlurOuter1"/><feColorMatrix values="0 0 0 0 0 0 0 0 0 0 0 0 0 0 0 0 0 0 0.2 0" in="shadowBlurOuter1"/></filter><rect id="h" width="96" height="48" rx="4"/><filter x="-4.7%" y="-7.3%" width="109.4%" height="118.8%" filterUnits="objectBoundingBox" id="g"><feMorphology radius="1" operator="dilate" in="SourceAlpha" result="shadowSpreadOuter1"/><feOffset dy="1" in="shadowSpreadOuter1" result="shadowOffsetOuter1"/><feGaussianBlur stdDeviation="1" in="shadowOffsetOuter1" result="shadowBlurOuter1"/><feComposite in="shadowBlurOuter1" in2="SourceAlpha" operator="out" result="shadowBlurOuter1"/><feColorMatrix values="0 0 0 0 0 0 0 0 0 0 0 0 0 0 0 0 0 0 0.04 0" in="shadowBlurOuter1"/></filter><rect id="j" x="2" y="2" width="92" height="99" rx="4"/><filter x="-7.6%" y="-5.1%" width="115.2%" height="114.1%" filterUnits="objectBoundingBox" id="i"><feOffset dy="2" in="SourceAlpha" result="shadowOffsetOuter1"/><feGaussianBlur stdDeviation="2" in="shadowOffsetOuter1" result="shadowBlurOuter1"/><feColorMatrix values="0 0 0 0 0 0 0 0 0 0 0 0 0 0 0 0 0 0 0.2 0" in="shadowBlurOuter1"/></filter><rect id="l" width="96" height="103" rx="4"/><filter x="-4.7%" y="-3.4%" width="109.4%" height="108.7%" filterUnits="objectBoundingBox" id="k"><feMorphology radius="1" operator="dilate" in="SourceAlpha" result="shadowSpreadOuter1"/><feOffset dy="1" in="shadowSpreadOuter1" result="shadowOffsetOuter1"/><feGaussianBlur stdDeviation="1" in="shadowOffsetOuter1" result="shadowBlurOuter1"/><feComposite in="shadowBlurOuter1" in2="SourceAlpha" operator="out" result="shadowBlurOuter1"/><feColorMatrix values="0 0 0 0 0 0 0 0 0 0 0 0 0 0 0 0 0 0 0.04 0" in="shadowBlurOuter1"/></filter><rect id="m" width="80" height="64" rx="3"/><rect id="p" x="2" y="2" width="92" height="44" rx="4"/><filter x="-7.6%" y="-11.4%" width="115.2%" height="131.8%" filterUnits="objectBoundingBox" id="o"><feOffset dy="2" in="SourceAlpha" result="shadowOffsetOuter1"/><feGaussianBlur stdDeviation="2" in="shadowOffsetOuter1" result="shadowBlurOuter1"/><feColorMatrix values="0 0 0 0 0 0 0 0 0 0 0 0 0 0 0 0 0 0 0.2 0" in="shadowBlurOuter1"/></filter><rect id="r" width="96" height="48" rx="4"/><filter x="-4.7%" y="-7.3%" width="109.4%" height="118.8%" filterUnits="objectBoundingBox" id="q"><feMorphology radius="1" operator="dilate" in="SourceAlpha" result="shadowSpreadOuter1"/><feOffset dy="1" in="shadowSpreadOuter1" result="shadowOffsetOuter1"/><feGaussianBlur stdDeviation="1" in="shadowOffsetOuter1" result="shadowBlurOuter1"/><feComposite in="shadowBlurOuter1" in2="SourceAlpha" operator="out" result="shadowBlurOuter1"/><feColorMatrix values="0 0 0 0 0 0 0 0 0 0 0 0 0 0 0 0 0 0 0.04 0" in="shadowBlurOuter1"/></filter><rect id="t" x="2" y="2" width="92" height="44" rx="4"/><filter x="-7.6%" y="-11.4%" width="115.2%" height="131.8%" filterUnits="objectBoundingBox" id="s"><feOffset dy="2" in="SourceAlpha" result="shadowOffsetOuter1"/><feGaussianBlur stdDeviation="2" in="shadowOffsetOuter1" result="shadowBlurOuter1"/><feColorMatrix values="0 0 0 0 0 0 0 0 0 0 0 0 0 0 0 0 0 0 0.2 0" in="shadowBlurOuter1"/></filter><rect id="v" width="96" height="48" rx="4"/><filter x="-4.7%" y="-7.3%" width="109.4%" height="118.8%" filterUnits="objectBoundingBox" id="u"><feMorphology radius="1" operator="dilate" in="SourceAlpha" result="shadowSpreadOuter1"/><feOffset dy="1" in="shadowSpreadOuter1" result="shadowOffsetOuter1"/><feGaussianBlur stdDeviation="1" in="shadowOffsetOuter1" result="shadowBlurOuter1"/><feComposite in="shadowBlurOuter1" in2="SourceAlpha" operator="out" result="shadowBlurOuter1"/><feColorMatrix values="0 0 0 0 0 0 0 0 0 0 0 0 0 0 0 0 0 0 0.04 0" in="shadowBlurOuter1"/></filter><rect id="x" x="2" y="2" width="92" height="44" rx="4"/><filter x="-7.6%" y="-11.4%" width="115.2%" height="131.8%" filterUnits="objectBoundingBox" id="w"><feOffset dy="2" in="SourceAlpha" result="shadowOffsetOuter1"/><feGaussianBlur stdDeviation="2" in="shadowOffsetOuter1" result="shadowBlurOuter1"/><feColorMatrix values="0 0 0 0 0 0 0 0 0 0 0 0 0 0 0 0 0 0 0.2 0" in="shadowBlurOuter1"/></filter><rect id="z" width="96" height="48" rx="4"/><filter x="-4.7%" y="-7.3%" width="109.4%" height="118.8%" filterUnits="objectBoundingBox" id="y"><feMorphology radius="1" operator="dilate" in="SourceAlpha" result="shadowSpreadOuter1"/><feOffset dy="1" in="shadowSpreadOuter1" result="shadowOffsetOuter1"/><feGaussianBlur stdDeviation="1" in="shadowOffsetOuter1" result="shadowBlurOuter1"/><feComposite in="shadowBlurOuter1" in2="SourceAlpha" operator="out" result="shadowBlurOuter1"/><feColorMatrix values="0 0 0 0 0 0 0 0 0 0 0 0 0 0 0 0 0 0 0.04 0" in="shadowBlurOuter1"/></filter><rect id="B" x="2" y="2" width="92" height="44" rx="4"/><filter x="-7.6%" y="-11.4%" width="115.2%" height="131.8%" filterUnits="objectBoundingBox" id="A"><feOffset dy="2" in="SourceAlpha" result="shadowOffsetOuter1"/><feGaussianBlur stdDeviation="2" in="shadowOffsetOuter1" result="shadowBlurOuter1"/><feColorMatrix values="0 0 0 0 0 0 0 0 0 0 0 0 0 0 0 0 0 0 0.2 0" in="shadowBlurOuter1"/></filter><rect id="D" width="96" height="48" rx="4"/><filter x="-4.7%" y="-7.3%" width="109.4%" height="118.8%" filterUnits="objectBoundingBox" id="C"><feMorphology radius="1" operator="dilate" in="SourceAlpha" result="shadowSpreadOuter1"/><feOffset dy="1" in="shadowSpreadOuter1" result="shadowOffsetOuter1"/><feGaussianBlur stdDeviation="1" in="shadowOffsetOuter1" result="shadowBlurOuter1"/><feComposite in="shadowBlurOuter1" in2="SourceAlpha" operator="out" result="shadowBlurOuter1"/><feColorMatrix values="0 0 0 0 0 0 0 0 0 0 0 0 0 0 0 0 0 0 0.04 0" in="shadowBlurOuter1"/></filter><rect id="F" x="2" y="2" width="92" height="44" rx="4"/><filter x="-7.6%" y="-11.4%" width="115.2%" height="131.8%" filterUnits="objectBoundingBox" id="E"><feOffset dy="2" in="SourceAlpha" result="shadowOffsetOuter1"/><feGaussianBlur stdDeviation="2" in="shadowOffsetOuter1" result="shadowBlurOuter1"/><feColorMatrix values="0 0 0 0 0 0 0 0 0 0 0 0 0 0 0 0 0 0 0.2 0" in="shadowBlurOuter1"/></filter><rect id="H" width="96" height="48" rx="4"/><filter x="-4.7%" y="-7.3%" width="109.4%" height="118.8%" filterUnits="objectBoundingBox" id="G"><feMorphology radius="1" operator="dilate" in="SourceAlpha" result="shadowSpreadOuter1"/><feOffset dy="1" in="shadowSpreadOuter1" result="shadowOffsetOuter1"/><feGaussianBlur stdDeviation="1" in="shadowOffsetOuter1" result="shadowBlurOuter1"/><feComposite in="shadowBlurOuter1" in2="SourceAlpha" operator="out" result="shadowBlurOuter1"/><feColorMatrix values="0 0 0 0 0 0 0 0 0 0 0 0 0 0 0 0 0 0 0.04 0" in="shadowBlurOuter1"/></filter><rect id="J" x="2" y="2" width="92" height="44" rx="4"/><filter x="-7.6%" y="-11.4%" width="115.2%" height="131.8%" filterUnits="objectBoundingBox" id="I"><feOffset dy="2" in="SourceAlpha" result="shadowOffsetOuter1"/><feGaussianBlur stdDeviation="2" in="shadowOffsetOuter1" result="shadowBlurOuter1"/><feColorMatrix values="0 0 0 0 0 0 0 0 0 0 0 0 0 0 0 0 0 0 0.2 0" in="shadowBlurOuter1"/></filter><rect id="L" width="96" height="48" rx="4"/><filter x="-4.7%" y="-7.3%" width="109.4%" height="118.8%" filterUnits="objectBoundingBox" id="K"><feMorphology radius="1" operator="dilate" in="SourceAlpha" result="shadowSpreadOuter1"/><feOffset dy="1" in="shadowSpreadOuter1" result="shadowOffsetOuter1"/><feGaussianBlur stdDeviation="1" in="shadowOffsetOuter1" result="shadowBlurOuter1"/><feComposite in="shadowBlurOuter1" in2="SourceAlpha" operator="out" result="shadowBlurOuter1"/><feColorMatrix values="0 0 0 0 0 0 0 0 0 0 0 0 0 0 0 0 0 0 0.04 0" in="shadowBlurOuter1"/></filter><rect id="N" x="1.5" y="1.5" width="93" height="46.5" rx="3"/><filter x="-60.2%" y="-86%" width="220.4%" height="340.9%" filterUnits="objectBoundingBox" id="M"><feOffset dy="16" in="SourceAlpha" result="shadowOffsetOuter1"/><feGaussianBlur stdDeviation="16" in="shadowOffsetOuter1" result="shadowBlurOuter1"/><feColorMatrix values="0 0 0 0 0.139296534 0 0 0 0 0.0722663527 0 0 0 0 0.301286139 0 0 0 1 0" in="shadowBlurOuter1"/></filter><rect id="P" width="96" height="48" rx="4"/><filter x="-1.6%" y="-3.1%" width="103.1%" height="106.2%" filterUnits="objectBoundingBox" id="O"><feMorphology radius=".5" operator="dilate" in="SourceAlpha" result="shadowSpreadOuter1"/><feOffset in="shadowSpreadOuter1" result="shadowOffsetOuter1"/><feColorMatrix values="0 0 0 0 0.141176471 0 0 0 0 0.0705882353 0 0 0 0 0.301960784 0 0 0 0.1 0" in="shadowOffsetOuter1"/></filter><path d="M10.03 19s-2.219-1.699-3-3c-.78-1.301-2.26-2.959-2-4 .26-1.041 1.22-1.37 2-.588.781.78.98 2.348 1.5 2.088.52-.26.52-1.569 0-3S6.467 6 7.53 6c1.063 0 1.5 0 2 1.5s.61 3.5 1 3.5 0 .412.54-1c.063-.165-.07-3.376 0-3.5.188-.332.262-1.5.984-1.5.346 0 .976.5.976 2.5s.117 3.5.5 3.5c.5 0 .5.041.5-1V7.5c0-.5.884-1.5 1.464-1.5 1 0 .516 5 1.036 5 .225 0 1-2 1-2s.716-1 1-1c1 0 .5 3 0 4s-.219 2.959-1 4l-1.5 2s0 1-.536 1H10.03zm3-3c0 .27.232 1 .5 1 .276 0 .5-.725.5-1v-2c0-.27-.232-1-.5-1-.276 0-.5.725-.5 1v2zm2 0c0 .27.232 1 .5 1 .276 0 .5-.725.5-1v-2c0-.27-.232-1-.5-1-.276 0-.5.725-.5 1v2zm-4 0c0 .27.232 1 .5 1 .276 0 .5-.725.5-1v-2c0-.27-.232-1-.5-1-.276 0-.5.725-.5 1v2z" id="R"/><filter x="-31.9%" y="-25%" width="163.8%" height="164.3%" filterUnits="objectBoundingBox" id="Q"><feMorphology radius="1" operator="dilate" in="SourceAlpha" result="shadowSpreadOuter1"/><feOffset dy="1" in="shadowSpreadOuter1" result="shadowOffsetOuter1"/><feGaussianBlur stdDeviation="1" in="shadowOffsetOuter1" result="shadowBlurOuter1"/><feComposite in="shadowBlurOuter1" in2="SourceAlpha" operator="out" result="shadowBlurOuter1"/><feColorMatrix values="0 0 0 0 0 0 0 0 0 0 0 0 0 0 0 0 0 0 1 0" in="shadowBlurOuter1"/></filter></defs><g fill="none" fill-rule="evenodd"><g transform="translate(16 16)"><rect fill="#F1EFF8" width="112" height="288" rx="4"/><g transform="translate(8 8)"><use fill="#000" filter="url(#a)" xlink:href="#b"/><use fill="#FFF" xlink:href="#b"/><g stroke-linecap="square"><use fill="#000" filter="url(#c)" xlink:href="#d"/><rect stroke-opacity=".098" stroke="#140B2F" fill="#FFF" x="-.5" y="-.5" width="97" height="49" rx="4"/></g><rect fill="#DCD5EE" x="8" y="12" width="80" height="8" rx="3"/><rect fill="#5182F8" x="8" y="28" width="16" height="8" rx="3"/><rect fill="#F84F77" x="28" y="28" width="16" height="8" rx="3"/></g><g transform="translate(8 64)"><use fill="#000" filter="url(#e)" xlink:href="#f"/><use fill="#FFF" xlink:href="#f"/><g stroke-linecap="square"><use fill="#000" filter="url(#g)" xlink:href="#h"/><rect stroke-opacity=".098" stroke="#140B2F" fill="#FFF" x="-.5" y="-.5" width="97" height="49" rx="4"/></g><rect fill="#DCD5EE" x="8" y="12" width="80" height="8" rx="3"/><rect fill="#009688" x="8" y="28" width="16" height="8" rx="3"/></g><g transform="translate(8 121)"><use fill="#000" filter="url(#i)" xlink:href="#j"/><use fill="#FFF" xlink:href="#j"/><g stroke-linecap="square"><use fill="#000" filter="url(#k)" xlink:href="#l"/><rect stroke-opacity=".098" stroke="#140B2F" fill="#FFF" x="-.5" y="-.5" width="97" height="104" rx="4"/></g><g transform="translate(8 11)"><mask id="n" fill="#fff"><use xlink:href="#m"/></mask><use fill="#DCD5EE" xlink:href="#m"/><circle fill="#B9ABDC" mask="url(#n)" cx="62" cy="18" r="6"/><path d="M0 52c7.333-10.667 15.333-16 24-16 13 0 16 19 32 16 10.667-2 18.667.667 24 8v4H0V52z" fill="#B9ABDC" mask="url(#n)"/></g><rect fill="#5182F8" x="8" y="83" width="16" height="8" rx="3"/><rect fill="#5182F8" x="28" y="83" width="16" height="8" rx="3"/><rect fill="#F84F77" x="48" y="83" width="16" height="8" rx="3"/></g><g transform="translate(8 232)"><use fill="#000" filter="url(#o)" xlink:href="#p"/><use fill="#FFF" xlink:href="#p"/><g stroke-linecap="square"><use fill="#000" filter="url(#q)" xlink:href="#r"/><rect stroke-opacity=".098" stroke="#140B2F" fill="#FFF" x="-.5" y="-.5" width="97" height="49" rx="4"/></g><rect fill="#DCD5EE" x="8" y="12" width="80" height="8" rx="3"/><rect fill="#5182F8" x="8" y="28" width="16" height="8" rx="3"/></g></g><g transform="translate(144 16)"><rect fill="#F1EFF8" width="112" height="232" rx="4"/><g transform="translate(8 8)"><use fill="#000" filter="url(#s)" xlink:href="#t"/><use fill="#FFF" xlink:href="#t"/><g stroke-linecap="square"><use fill="#000" filter="url(#u)" xlink:href="#v"/><rect stroke-opacity=".098" stroke="#140B2F" fill="#FFF" x="-.5" y="-.5" width="97" height="49" rx="4"/></g><rect fill="#DCD5EE" x="8" y="12" width="80" height="8" rx="3"/><rect fill="#5182F8" x="8" y="28" width="16" height="8" rx="3"/><rect fill="#F84F77" x="28" y="28" width="16" height="8" rx="3"/></g><g transform="translate(8 120)"><use fill="#000" filter="url(#w)" xlink:href="#x"/><use fill="#FFF" xlink:href="#x"/><g stroke-linecap="square"><use fill="#000" filter="url(#y)" xlink:href="#z"/><rect stroke-opacity=".098" stroke="#140B2F" fill="#FFF" x="-.5" y="-.5" width="97" height="49" rx="4"/></g><rect fill="#DCD5EE" x="8" y="12" width="80" height="8" rx="3"/><rect fill="#5182F8" x="8" y="28" width="16" height="8" rx="3"/><rect fill="#009688" x="28" y="28" width="16" height="8" rx="3"/></g><g transform="translate(8 176)"><use fill="#000" filter="url(#A)" xlink:href="#B"/><use fill="#FFF" xlink:href="#B"/><g stroke-linecap="square"><use fill="#000" filter="url(#C)" xlink:href="#D"/><rect stroke-opacity=".098" stroke="#140B2F" fill="#FFF" x="-.5" y="-.5" width="97" height="49" rx="4"/></g><rect fill="#DCD5EE" x="8" y="12" width="80" height="8" rx="3"/><rect fill="#F84F77" x="8" y="28" width="16" height="8" rx="3"/><rect fill="#009688" x="28" y="28" width="16" height="8" rx="3"/></g></g><g transform="translate(272 16)"><rect fill="#F1EFF8" width="112" height="176" rx="4"/><rect fill="#24124D" opacity=".08" x="8" y="64" width="96" height="48" rx="3"/><g transform="translate(8 8)"><use fill="#000" filter="url(#E)" xlink:href="#F"/><use fill="#FFF" xlink:href="#F"/><g stroke-linecap="square"><use fill="#000" filter="url(#G)" xlink:href="#H"/><rect stroke-opacity=".098" stroke="#140B2F" fill="#FFF" x="-.5" y="-.5" width="97" height="49" rx="4"/></g><rect fill="#DCD5EE" x="8" y="12" width="80" height="8" rx="3"/><rect fill="#5182F8" x="8" y="28" width="16" height="8" rx="3"/><rect fill="#5182F8" x="28" y="28" width="16" height="8" rx="3"/></g><g transform="translate(8 120)"><use fill="#000" filter="url(#I)" xlink:href="#J"/><use fill="#FFF" xlink:href="#J"/><g stroke-linecap="square"><use fill="#000" filter="url(#K)" xlink:href="#L"/><rect stroke-opacity=".098" stroke="#140B2F" fill="#FFF" x="-.5" y="-.5" width="97" height="49" rx="4"/></g><rect fill="#DCD5EE" x="8" y="12" width="80" height="8" rx="3"/><rect fill="#5182F8" x="8" y="28" width="16" height="8" rx="3"/></g></g><g transform="translate(232 96)"><g opacity=".2"><use fill="#000" filter="url(#M)" xlink:href="#N"/><use fill="#FFF" xlink:href="#N"/></g><use fill="#000" filter="url(#O)" xlink:href="#P"/><use fill="#FFF" xlink:href="#P"/><rect stroke="#5182F8" stroke-width="2" fill="#FFF" x="-1" y="-1" width="98" height="50" rx="4"/><rect fill="#512DA8" opacity=".2" x="8" y="12" width="80" height="8" rx="3"/><rect fill="#009688" x="8" y="28" width="16" height="8" rx="3"/><g transform="translate(40 24)"><use fill="#000" filter="url(#Q)" xlink:href="#R"/><path stroke="#000" d="M11.552 6.7zm-3.14 6.1c.06-.403-.025-1.23-.352-2.13a18.551 18.551 0 0 0-.263-.67c-.04-.1-.266-.645-.332-.806-.059-.144-.112-.275-.161-.4-.325-.819-.522-1.417-.602-1.896-.132-.795.081-1.398.828-1.398 1.484 0 1.958.292 2.475 1.842.098.294.186.618.27.985.073.313.24 1.151.316 1.524l.012-.03c-.014.036-.02-.745-.035-1.531V8.26c-.013-.613-.018-.9-.02-1.176-.002-.628 0-.677.087-.832a.833.833 0 0 0 .038-.105c.01-.033.113-.389.153-.512.234-.706.579-1.136 1.228-1.136.887 0 1.476 1.1 1.476 3 0-.799 1.128-2 1.964-2 .896 0 1.079.826 1.197 2.972.01.192.009.148.036.718l.02.402a25.33 25.33 0 0 0 .317-.773l.06-.11a8.12 8.12 0 0 1 .601-.735c.297-.312.512-.474.805-.474.898 0 1.153.88 1.062 2.16-.065.91-.324 1.982-.614 2.564-.142.283-.21.64-.306 1.478a43.57 43.57 0 0 1-.046.392c-.129 1.046-.299 1.677-.696 2.206l-1.407 1.876c-.01.135-.033.292-.077.454-.135.505-.429.87-.952.87H9.86l-.134-.103a21.751 21.751 0 0 1-1.676-1.444 13.02 13.02 0 0 1-.823-.856 6.097 6.097 0 0 1-.625-.84c-.173-.288-.259-.415-.77-1.157a43.54 43.54 0 0 1-.236-.346c-.887-1.317-1.242-2.11-1.05-2.875.356-1.427 1.788-1.87 2.838-.82.254.253.458.566.664.975.048.096.246.523.365.767zm5.299.647c-.028.025-.085.053-.18.053-.109 0-.167-.034-.192-.06a.857.857 0 0 1 .081.153c.064.151.11.34.11.407v2c0 .072-.044.26-.107.41a.73.73 0 0 1-.08.15c.035-.032.091-.06.187-.06.109 0 .167.034.192.06a.857.857 0 0 1-.082-.153 1.451 1.451 0 0 1-.11-.407v-2c0-.072.045-.26.108-.41a.73.73 0 0 1 .08-.15zm-.368 3.112a.103.103 0 0 1 .007-.006zm.379.002a.236.236 0 0 1-.008-.01zm1.989-3.114c-.028.025-.085.053-.18.053-.109 0-.167-.034-.192-.06a.857.857 0 0 1 .081.153c.064.151.11.34.11.407v2c0 .072-.044.26-.107.41a.73.73 0 0 1-.08.15c.035-.032.091-.06.187-.06.109 0 .167.034.192.06a.857.857 0 0 1-.082-.153 1.451 1.451 0 0 1-.11-.407v-2c0-.072.045-.26.108-.41a.73.73 0 0 1 .08-.15zm-.368 3.112a.103.103 0 0 1 .007-.006zm.379.002a.236.236 0 0 1-.008-.01zm-4.011-3.114c-.028.025-.085.053-.18.053-.109 0-.167-.034-.192-.06a.857.857 0 0 1 .081.153c.064.151.11.34.11.407v2c0 .072-.044.26-.107.41a.73.73 0 0 1-.08.15c.035-.032.091-.06.187-.06.109 0 .167.034.192.06a.857.857 0 0 1-.082-.153 1.451 1.451 0 0 1-.11-.407v-2c0-.072.045-.26.108-.41a.73.73 0 0 1 .08-.15zm-.368 3.112a.103.103 0 0 1 .007-.006zm.379.002a.236.236 0 0 1-.008-.01z" fill="#FFF"/></g></g></g></svg>