<svg width="832" height="536" viewBox="0 0 832 536" xmlns="http://www.w3.org/2000/svg" xmlns:xlink="http://www.w3.org/1999/xlink"><title>illustration/charts-large</title><defs><rect id="b" x="2" y="2" width="644" height="404" rx="4"/><filter x="-1.1%" y="-1.2%" width="102.2%" height="103.5%" filterUnits="objectBoundingBox" id="a"><feOffset dy="2" in="SourceAlpha" result="shadowOffsetOuter1"/><feGaussianBlur stdDeviation="2" in="shadowOffsetOuter1" result="shadowBlurOuter1"/><feColorMatrix values="0 0 0 0 0 0 0 0 0 0 0 0 0 0 0 0 0 0 0.2 0" in="shadowBlurOuter1"/></filter><rect id="d" width="648" height="408" rx="4"/><filter x="-.7%" y="-.9%" width="101.4%" height="102.2%" filterUnits="objectBoundingBox" id="c"><feMorphology radius="1" operator="dilate" in="SourceAlpha" result="shadowSpreadOuter1"/><feOffset dy="1" in="shadowSpreadOuter1" result="shadowOffsetOuter1"/><feGaussianBlur stdDeviation="1" in="shadowOffsetOuter1" result="shadowBlurOuter1"/><feComposite in="shadowBlurOuter1" in2="SourceAlpha" operator="out" result="shadowBlurOuter1"/><feColorMatrix values="0 0 0 0 0 0 0 0 0 0 0 0 0 0 0 0 0 0 0.04 0" in="shadowBlurOuter1"/></filter><path d="M28 32h164v408H28a4 4 0 0 1-4-4V36a4 4 0 0 1 4-4z" id="f"/><filter x="-.3%" y="-.1%" width="101.2%" height="100.2%" filterUnits="objectBoundingBox" id="e"><feOffset dx="1" in="SourceAlpha" result="shadowOffsetOuter1"/><feColorMatrix values="0 0 0 0 0.933333333 0 0 0 0 0.925490196 0 0 0 0 0.945098039 0 0 0 1 0" in="shadowOffsetOuter1"/></filter><rect id="h" x="3.125" y="10.75" width="193.75" height="333.25" rx="3"/><filter x="-28.9%" y="-12%" width="157.8%" height="133.6%" filterUnits="objectBoundingBox" id="g"><feOffset dy="16" in="SourceAlpha" result="shadowOffsetOuter1"/><feGaussianBlur stdDeviation="16" in="shadowOffsetOuter1" result="shadowBlurOuter1"/><feColorMatrix values="0 0 0 0 0.139296534 0 0 0 0 0.0722663527 0 0 0 0 0.301286139 0 0 0 1 0" in="shadowBlurOuter1"/></filter><rect id="j" width="200" height="344" rx="4"/><filter x="-.8%" y="-.4%" width="101.5%" height="100.9%" filterUnits="objectBoundingBox" id="i"><feMorphology radius=".5" operator="dilate" in="SourceAlpha" result="shadowSpreadOuter1"/><feOffset in="shadowSpreadOuter1" result="shadowOffsetOuter1"/><feColorMatrix values="0 0 0 0 0.141176471 0 0 0 0 0.0705882353 0 0 0 0 0.301960784 0 0 0 0.1 0" in="shadowOffsetOuter1"/></filter><rect id="l" width="16" height="16" rx="4"/><filter x="-34.4%" y="-21.9%" width="168.8%" height="168.8%" filterUnits="objectBoundingBox" id="k"><feOffset dy="2" in="SourceAlpha" result="shadowOffsetOuter1"/><feGaussianBlur stdDeviation="1.5" in="shadowOffsetOuter1" result="shadowBlurOuter1"/><feColorMatrix values="0 0 0 0 0 0 0 0 0 0 0 0 0 0 0 0 0 0 0.0508378623 0" in="shadowBlurOuter1"/></filter><rect id="n" width="16" height="16" rx="4"/><filter x="-34.4%" y="-21.9%" width="168.8%" height="168.8%" filterUnits="objectBoundingBox" id="m"><feOffset dy="2" in="SourceAlpha" result="shadowOffsetOuter1"/><feGaussianBlur stdDeviation="1.5" in="shadowOffsetOuter1" result="shadowBlurOuter1"/><feColorMatrix values="0 0 0 0 0 0 0 0 0 0 0 0 0 0 0 0 0 0 0.0508378623 0" in="shadowBlurOuter1"/></filter><rect id="p" width="16" height="16" rx="4"/><filter x="-34.4%" y="-21.9%" width="168.8%" height="168.8%" filterUnits="objectBoundingBox" id="o"><feOffset dy="2" in="SourceAlpha" result="shadowOffsetOuter1"/><feGaussianBlur stdDeviation="1.5" in="shadowOffsetOuter1" result="shadowBlurOuter1"/><feColorMatrix values="0 0 0 0 0 0 0 0 0 0 0 0 0 0 0 0 0 0 0.0508378623 0" in="shadowBlurOuter1"/></filter><rect id="r" width="16" height="16" rx="4"/><filter x="-34.4%" y="-21.9%" width="168.8%" height="168.8%" filterUnits="objectBoundingBox" id="q"><feOffset dy="2" in="SourceAlpha" result="shadowOffsetOuter1"/><feGaussianBlur stdDeviation="1.5" in="shadowOffsetOuter1" result="shadowBlurOuter1"/><feColorMatrix values="0 0 0 0 0 0 0 0 0 0 0 0 0 0 0 0 0 0 0.0508378623 0" in="shadowBlurOuter1"/></filter><rect id="t" width="16" height="16" rx="4"/><filter x="-34.4%" y="-21.9%" width="168.8%" height="168.8%" filterUnits="objectBoundingBox" id="s"><feOffset dy="2" in="SourceAlpha" result="shadowOffsetOuter1"/><feGaussianBlur stdDeviation="1.5" in="shadowOffsetOuter1" result="shadowBlurOuter1"/><feColorMatrix values="0 0 0 0 0 0 0 0 0 0 0 0 0 0 0 0 0 0 0.0508378623 0" in="shadowBlurOuter1"/></filter><rect id="v" width="16" height="16" rx="4"/><filter x="-34.4%" y="-21.9%" width="168.8%" height="168.8%" filterUnits="objectBoundingBox" id="u"><feOffset dy="2" in="SourceAlpha" result="shadowOffsetOuter1"/><feGaussianBlur stdDeviation="1.5" in="shadowOffsetOuter1" result="shadowBlurOuter1"/><feColorMatrix values="0 0 0 0 0 0 0 0 0 0 0 0 0 0 0 0 0 0 0.0508378623 0" in="shadowBlurOuter1"/></filter><rect id="x" width="16" height="16" rx="4"/><filter x="-34.4%" y="-21.9%" width="168.8%" height="168.8%" filterUnits="objectBoundingBox" id="w"><feOffset dy="2" in="SourceAlpha" result="shadowOffsetOuter1"/><feGaussianBlur stdDeviation="1.5" in="shadowOffsetOuter1" result="shadowBlurOuter1"/><feColorMatrix values="0 0 0 0 0 0 0 0 0 0 0 0 0 0 0 0 0 0 0.0508378623 0" in="shadowBlurOuter1"/></filter><rect id="z" width="16" height="16" rx="4"/><filter x="-34.4%" y="-21.9%" width="168.8%" height="168.8%" filterUnits="objectBoundingBox" id="y"><feOffset dy="2" in="SourceAlpha" result="shadowOffsetOuter1"/><feGaussianBlur stdDeviation="1.5" in="shadowOffsetOuter1" result="shadowBlurOuter1"/><feColorMatrix values="0 0 0 0 0 0 0 0 0 0 0 0 0 0 0 0 0 0 0.0508378623 0" in="shadowBlurOuter1"/></filter><rect id="B" x="5.125" y="1.25" width="317.75" height="38.75" rx="3"/><filter x="-17.6%" y="-103.2%" width="135.2%" height="389%" filterUnits="objectBoundingBox" id="A"><feOffset dy="16" in="SourceAlpha" result="shadowOffsetOuter1"/><feGaussianBlur stdDeviation="16" in="shadowOffsetOuter1" result="shadowBlurOuter1"/><feColorMatrix values="0 0 0 0 0.139296534 0 0 0 0 0.0722663527 0 0 0 0 0.301286139 0 0 0 1 0" in="shadowBlurOuter1"/></filter><rect id="D" width="328" height="40" rx="4"/><filter x="-.5%" y="-3.8%" width="100.9%" height="107.5%" filterUnits="objectBoundingBox" id="C"><feMorphology radius=".5" operator="dilate" in="SourceAlpha" result="shadowSpreadOuter1"/><feOffset in="shadowSpreadOuter1" result="shadowOffsetOuter1"/><feColorMatrix values="0 0 0 0 0.141176471 0 0 0 0 0.0705882353 0 0 0 0 0.301960784 0 0 0 0.1 0" in="shadowOffsetOuter1"/></filter></defs><g transform="translate(24 16)" fill="none" fill-rule="evenodd"><g transform="translate(24 32)"><use fill="#000" filter="url(#a)" xlink:href="#b"/><use fill="#FFF" xlink:href="#b"/><g stroke-linecap="square"><use fill="#000" filter="url(#c)" xlink:href="#d"/><rect stroke-opacity=".098" stroke="#140B2F" fill="#FFF" x="-.5" y="-.5" width="649" height="409" rx="4"/></g></g><g fill-rule="nonzero"><use fill="#000" filter="url(#e)" xlink:href="#f"/><use fill="#FBFAFC" xlink:href="#f"/></g><g transform="translate(60 64)"><g transform="translate(164)"><rect fill="#1EB8C1" y="200" width="104" height="24" rx="4"/><rect fill="#512DA8" width="392" height="24" rx="4"/><rect fill="#F84F77" y="120" width="200" height="24" rx="4"/><rect fill="#FFB300" y="80" width="256" height="24" rx="4"/><rect fill="#FFB300" y="320" width="24" height="24" rx="4"/><rect fill="#5182F8" y="160" width="136" height="24" rx="4"/><rect fill="#009688" y="40" width="316" height="24" rx="4"/><rect fill="#F84F77" y="240" width="72" height="24" rx="4"/><rect fill="#BF6E33" y="280" width="48" height="24" rx="4"/></g><g transform="translate(0 7)" fill="#7B7194"><path d="M39.133 209h-1.46v-8.455h1.313l4.149 5.748h.1v-5.748h1.453V209H43.38l-4.149-5.754h-.1V209zm9.685-1.037c.88 0 1.536-.568 1.536-1.313v-.51l-1.448.094c-.814.053-1.195.346-1.195.868 0 .539.463.86 1.107.86zm-.427 1.142c-1.237 0-2.121-.75-2.121-1.921 0-1.16.873-1.829 2.431-1.922l1.653-.1v-.539c0-.627-.422-.978-1.208-.978-.667 0-1.125.234-1.26.667h-1.37c.117-1.13 1.177-1.851 2.7-1.851 1.647 0 2.573.803 2.573 2.162V209h-1.4v-.879h-.1c-.357.621-1.06.984-1.898.984zm4.588-6.515h1.558l1.483 4.957h.1l1.47-4.957h1.535L56.857 209h-1.6l-2.278-6.41zm7.388 6.41v-6.41h1.447V209h-1.447zm.72-7.453c-.526 0-.896-.34-.896-.803s.37-.803.897-.803c.533 0 .896.34.896.803s-.363.803-.896.803zm6.903 4.178c0-1.225-.615-2.004-1.623-2.004-1.013 0-1.588.779-1.588 2.004 0 1.224.575 1.998 1.588 1.998 1.014 0 1.623-.774 1.623-1.998zm-1.623 5.713c-1.646 0-2.724-.727-2.842-1.829h1.46c.093.44.609.721 1.406.721.996 0 1.576-.469 1.576-1.271v-1.213h-.1c-.369.685-1.066 1.06-1.957 1.06-1.617 0-2.625-1.254-2.625-3.181 0-1.963 1.014-3.24 2.649-3.24.873 0 1.634.433 1.986 1.13h.1v-1.025h1.4v6.433c0 1.483-1.184 2.415-3.053 2.415zm7.026-3.475c.878 0 1.535-.568 1.535-1.313v-.51l-1.448.094c-.814.053-1.195.346-1.195.868 0 .539.463.86 1.108.86zm-.428 1.142c-1.236 0-2.121-.75-2.121-1.921 0-1.16.873-1.829 2.431-1.922l1.653-.1v-.539c0-.627-.422-.978-1.207-.978-.668 0-1.125.234-1.26.667H71.09c.117-1.13 1.178-1.851 2.701-1.851 1.647 0 2.572.803 2.572 2.162V209h-1.4v-.879h-.1c-.357.621-1.06.984-1.898.984zm5.607-8.044h1.448v1.57h1.406v1.16H80.02v3.147c0 .632.27.914.878.914.206 0 .311-.012.48-.03v1.137c-.204.041-.468.07-.75.07-1.47 0-2.056-.498-2.056-1.74v-3.498H77.53v-1.16h1.043v-1.57zm4.29 7.939v-6.41h1.447V209H82.86zm.72-7.453c-.527 0-.896-.34-.896-.803s.369-.803.896-.803c.533 0 .897.34.897.803s-.364.803-.897.803zm5.291 6.363c1.014 0 1.588-.773 1.588-2.115 0-1.336-.58-2.115-1.588-2.115-1.014 0-1.594.779-1.594 2.115 0 1.342.58 2.115 1.594 2.115zm0 1.219c-1.922 0-3.082-1.254-3.082-3.334 0-2.068 1.178-3.334 3.082-3.334 1.91 0 3.082 1.26 3.082 3.334 0 2.08-1.166 3.334-3.082 3.334zM93.42 209v-6.41h1.4v1.025h.1c.305-.715 1.055-1.154 2.016-1.154 1.43 0 2.232.861 2.232 2.39V209h-1.447v-3.803c0-.978-.446-1.47-1.325-1.47-.937 0-1.523.597-1.523 1.54V209H93.42zM59.29 6.703h1.476c.093.756.843 1.242 1.916 1.242.996 0 1.716-.51 1.716-1.218 0-.61-.462-.967-1.546-1.22l-1.096-.251C60.22 4.91 59.5 4.148 59.5 2.889c0-1.535 1.254-2.555 3.146-2.555 1.776 0 3.06 1.02 3.13 2.473h-1.448c-.105-.744-.762-1.213-1.687-1.213-.973 0-1.618.468-1.618 1.19 0 .568.428.902 1.477 1.142l.973.222c1.716.387 2.437 1.102 2.437 2.391 0 1.647-1.271 2.672-3.322 2.672-1.94 0-3.223-.973-3.299-2.508zm10.856-3.088c-.867 0-1.476.621-1.54 1.559h3.017c-.03-.95-.603-1.559-1.477-1.559zm1.489 3.621h1.377c-.276 1.166-1.336 1.893-2.848 1.893-1.887 0-3.023-1.248-3.023-3.31 0-2.063 1.154-3.358 3.011-3.358 1.828 0 2.924 1.213 2.924 3.234v.47H68.6v.075c.035 1.067.65 1.735 1.605 1.735.72 0 1.219-.264 1.43-.739zm5.092.727c.878 0 1.535-.568 1.535-1.313v-.51l-1.448.094c-.814.053-1.195.346-1.195.868 0 .539.463.86 1.108.86zm-.428 1.142c-1.237 0-2.121-.75-2.121-1.921 0-1.16.873-1.829 2.431-1.922l1.653-.1v-.539c0-.627-.422-.978-1.207-.978-.668 0-1.125.234-1.26.667h-1.371c.117-1.13 1.178-1.851 2.701-1.851 1.646 0 2.572.803 2.572 2.162V9h-1.4v-.879h-.1c-.357.621-1.06.984-1.898.984zM81.443 9V2.59h1.4v.996h.1c.176-.633.862-1.102 1.682-1.102.205 0 .457.024.598.065v1.347c-.112-.04-.51-.082-.739-.082-.931 0-1.588.586-1.588 1.483V9h-1.453zm10.46-4.254H90.52c-.135-.621-.616-1.066-1.413-1.066-.996 0-1.587.767-1.587 2.097 0 1.348.597 2.133 1.587 2.133.756 0 1.26-.357 1.413-1.025h1.382c-.158 1.342-1.166 2.244-2.789 2.244-1.927 0-3.064-1.242-3.064-3.352 0-2.08 1.13-3.316 3.058-3.316 1.647 0 2.643.937 2.795 2.285zM93.35 9V.111h1.43v3.516h.105c.304-.72 1.06-1.154 2.015-1.154 1.436 0 2.268.867 2.268 2.39V9h-1.447V5.209c0-.973-.469-1.47-1.36-1.47-.955 0-1.558.62-1.558 1.54V9H93.35zM9.086 125.613c0 2.198-1.441 3.598-3.697 3.598-2.45 0-3.973-1.7-3.973-4.441 0-2.707 1.541-4.436 3.95-4.436 1.95 0 3.38 1.113 3.65 2.842H7.51c-.305-.961-1.06-1.494-2.145-1.494-1.476 0-2.402 1.177-2.402 3.076 0 1.922.943 3.105 2.45 3.105 1.288 0 2.167-.785 2.19-1.95l.006-.177H5.576v-1.183h3.51v1.06zm4.289-1.998c-.867 0-1.477.621-1.541 1.559h3.018c-.03-.95-.604-1.559-1.477-1.559zm1.488 3.621h1.377c-.275 1.166-1.336 1.893-2.847 1.893-1.887 0-3.024-1.248-3.024-3.31 0-2.063 1.154-3.358 3.012-3.358 1.828 0 2.924 1.213 2.924 3.234v.47h-4.477v.075c.035 1.067.65 1.735 1.606 1.735.72 0 1.218-.264 1.43-.739zm2.9 1.764v-6.41h1.401v1.025h.1c.304-.715 1.054-1.154 2.015-1.154 1.43 0 2.233.861 2.233 2.39V129h-1.448v-3.803c0-.978-.445-1.47-1.324-1.47-.937 0-1.523.597-1.523 1.54V129h-1.453zm10.16-5.385c-.866 0-1.476.621-1.54 1.559H29.4c-.029-.95-.603-1.559-1.476-1.559zm1.49 3.621h1.376c-.275 1.166-1.336 1.893-2.848 1.893-1.886 0-3.023-1.248-3.023-3.31 0-2.063 1.154-3.358 3.012-3.358 1.828 0 2.924 1.213 2.924 3.234v.47h-4.477v.075c.035 1.067.65 1.735 1.605 1.735.721 0 1.22-.264 1.43-.739zm2.9 1.764v-6.41h1.4v.996h.1c.175-.633.86-1.102 1.681-1.102.205 0 .457.024.598.065v1.347c-.112-.04-.51-.082-.738-.082-.932 0-1.588.586-1.588 1.483V129h-1.453zm7.113-1.037c.879 0 1.535-.568 1.535-1.313v-.51l-1.447.094c-.815.053-1.196.346-1.196.868 0 .539.463.86 1.108.86zm-.428 1.142c-1.236 0-2.121-.75-2.121-1.921 0-1.16.873-1.829 2.432-1.922l1.652-.1v-.539c0-.627-.422-.978-1.207-.978-.668 0-1.125.234-1.26.668h-1.371c.117-1.131 1.178-1.852 2.701-1.852 1.647 0 2.572.803 2.572 2.162V129h-1.4v-.879h-.1c-.357.621-1.06.984-1.898.984zm5.203-.105v-8.889h1.453V129h-1.453zm12.2-6.41V129H55v-1.02h-.1c-.31.733-1.037 1.149-1.986 1.149-1.412 0-2.285-.873-2.285-2.39v-4.15h1.453v3.804c0 .984.463 1.459 1.336 1.459.937 0 1.53-.58 1.53-1.53v-3.732H56.4zm1.634 1.834c0-1.16 1.055-1.963 2.567-1.963 1.523 0 2.478.674 2.584 1.84H61.82c-.105-.451-.533-.739-1.213-.739-.662 0-1.16.317-1.16.78 0 .363.305.586.95.732l1.13.258c1.225.275 1.793.803 1.793 1.746 0 1.23-1.13 2.05-2.73 2.05s-2.608-.69-2.719-1.857h1.436c.14.475.591.756 1.318.756.732 0 1.242-.322 1.242-.797 0-.363-.275-.591-.885-.726l-1.136-.264c-1.23-.281-1.81-.85-1.81-1.816zm8.947 3.539c.88 0 1.536-.568 1.536-1.313v-.51l-1.448.094c-.814.053-1.195.346-1.195.868 0 .539.463.86 1.107.86zm-.427 1.142c-1.237 0-2.121-.75-2.121-1.921 0-1.16.873-1.829 2.431-1.922l1.653-.1v-.539c0-.627-.422-.978-1.207-.978-.668 0-1.125.234-1.26.668H64.68c.117-1.131 1.177-1.852 2.7-1.852 1.647 0 2.573.803 2.573 2.162V129h-1.4v-.879h-.1c-.357.621-1.06.984-1.898.984zm8.707 0c-.897 0-1.64-.416-2.004-1.119h-.1V129h-1.4v-8.889h1.453v3.498h.1c.334-.697 1.072-1.125 1.95-1.125 1.624 0 2.632 1.26 2.632 3.31 0 2.04-1.014 3.311-2.631 3.311zm-.457-5.384c-.99 0-1.618.797-1.618 2.074 0 1.277.622 2.074 1.618 2.074.996 0 1.593-.785 1.593-2.074 0-1.29-.603-2.074-1.593-2.074zM79.369 129v-6.41h1.447V129H79.37zm.72-7.453c-.526 0-.896-.34-.896-.803s.37-.803.897-.803c.533 0 .896.34.896.803s-.363.803-.896.803zM82.675 129v-8.889h1.453V129h-1.453zm3.305 0v-6.41h1.447V129h-1.447zm.72-7.453c-.527 0-.896-.34-.896-.803s.369-.803.896-.803c.533 0 .897.34.897.803s-.364.803-.897.803zm2.989-.486h1.447v1.57h1.406v1.16h-1.406v3.147c0 .632.27.914.879.914.205 0 .31-.012.48-.03v1.137c-.205.041-.469.07-.75.07-1.47 0-2.056-.498-2.056-1.74v-3.498h-1.043v-1.16h1.043v-1.57zm4.974 10.271c-.088 0-.48-.006-.574-.023v-1.184c.082.012.299.018.398.018.616 0 .961-.24 1.149-.832l.076-.282-2.291-6.44h1.594l1.5 5.005h.1l1.493-5.004h1.536l-2.315 6.615c-.545 1.594-1.23 2.127-2.666 2.127zm-55.916-48.32L37.036 89H35.61l-2.267-8.455h1.576l1.447 6.293h.088l1.664-6.293h1.342l1.687 6.293h.082l1.448-6.293h1.564L41.975 89h-1.418l-1.723-5.988h-.088zm9.094 4.95c.879 0 1.535-.567 1.535-1.312v-.51l-1.447.094c-.815.053-1.196.346-1.196.868 0 .539.463.86 1.108.86zm-.428 1.143c-1.236 0-2.121-.75-2.121-1.921 0-1.16.873-1.829 2.432-1.922l1.652-.1v-.539c0-.627-.422-.978-1.207-.978-.668 0-1.125.234-1.26.668h-1.37c.116-1.131 1.177-1.852 2.7-1.852 1.647 0 2.573.803 2.573 2.162V89h-1.4v-.879h-.1c-.358.621-1.061.984-1.899.984zm5.848 2.227c-.088 0-.48-.006-.574-.023v-1.184c.082.012.298.018.398.018.615 0 .96-.24 1.148-.832l.077-.282-2.291-6.44h1.593l1.5 5.005h.1l1.494-5.004h1.535l-2.314 6.615c-.545 1.594-1.23 2.127-2.666 2.127zM59.95 89v-5.209h-1.043v-1.16h1.043v-.639c0-1.3.674-1.828 2.08-1.828.258 0 .51.023.768.065v1.084a2.857 2.857 0 0 0-.557-.047c-.568 0-.867.246-.867.82v.545h1.389v1.16h-1.366V89h-1.447zm4.248 0v-6.41h1.447V89H64.2zm.72-7.453c-.526 0-.896-.34-.896-.803s.37-.803.897-.803c.533 0 .896.34.896.803s-.363.803-.896.803zM67.446 89v-6.41h1.4v1.025h.1c.305-.715 1.055-1.154 2.016-1.154 1.43 0 2.232.861 2.232 2.39V89h-1.447v-3.803c0-.978-.445-1.47-1.324-1.47-.938 0-1.524.597-1.524 1.54V89h-1.453zm9.791.105c-1.623 0-2.636-1.277-2.636-3.316 0-2.027 1.02-3.305 2.636-3.305.88 0 1.606.422 1.946 1.125h.1v-3.498h1.452V89h-1.406v-1.014h-.1c-.363.703-1.101 1.12-1.992 1.12zm.451-5.384c-.99 0-1.6.785-1.6 2.074 0 1.295.604 2.074 1.6 2.074 1.002 0 1.612-.785 1.612-2.074 0-1.277-.615-2.074-1.612-2.074zM82.587 89v-6.41h1.447V89h-1.447zm.72-7.453c-.527 0-.896-.34-.896-.803s.37-.803.897-.803c.533 0 .896.34.896.803s-.363.803-.896.803zM85.833 89v-6.41h1.4v1.025h.1c.305-.715 1.055-1.154 2.016-1.154 1.43 0 2.232.861 2.232 2.39V89h-1.447v-3.803c0-.978-.445-1.47-1.324-1.47-.938 0-1.524.597-1.524 1.54V89h-1.453zm11.848-3.275c0-1.225-.616-2.004-1.623-2.004-1.014 0-1.588.779-1.588 2.004 0 1.224.574 1.998 1.588 1.998 1.013 0 1.623-.774 1.623-1.998zm-1.623 5.713c-1.647 0-2.725-.727-2.842-1.829h1.459c.094.44.61.721 1.406.721.996 0 1.576-.469 1.576-1.271v-1.213h-.1c-.368.685-1.066 1.06-1.956 1.06-1.618 0-2.625-1.254-2.625-3.181 0-1.963 1.013-3.24 2.648-3.24.873 0 1.635.433 1.986 1.13h.1V82.59h1.4v6.433c0 1.483-1.183 2.415-3.052 2.415zm-81.51 228.896c2.455 0 3.99 1.705 3.99 4.436 0 2.724-1.523 4.44-3.99 4.44-2.485 0-4.008-1.71-4.008-4.44 0-2.73 1.553-4.436 4.008-4.436zm0 1.342c-1.506 0-2.461 1.201-2.461 3.094 0 1.886.932 3.1 2.46 3.1 1.507 0 2.444-1.214 2.444-3.1 0-1.893-.943-3.094-2.443-3.094zm6.03-.615h1.446v1.57h1.407v1.16h-1.407v3.147c0 .632.27.914.88.914.204 0 .31-.012.48-.03v1.137c-.205.041-.469.07-.75.07-1.47 0-2.057-.498-2.057-1.74v-3.498h-1.043v-1.16h1.043v-1.57zm4.33 7.939v-8.889h1.429v3.516h.105c.305-.72 1.061-1.154 2.016-1.154 1.436 0 2.268.867 2.268 2.39V329h-1.448v-3.791c0-.973-.468-1.47-1.359-1.47-.955 0-1.559.62-1.559 1.54V329h-1.453zm10.23-5.385c-.867 0-1.477.621-1.541 1.559h3.017c-.029-.95-.603-1.559-1.476-1.559zm1.488 3.621h1.377c-.275 1.166-1.336 1.893-2.848 1.893-1.886 0-3.023-1.248-3.023-3.31 0-2.063 1.154-3.358 3.012-3.358 1.828 0 2.923 1.213 2.923 3.234v.47H33.59v.075c.035 1.067.65 1.735 1.605 1.735.721 0 1.22-.264 1.43-.739zm2.9 1.764v-6.41h1.4v.996h.1c.176-.633.862-1.102 1.682-1.102.205 0 .457.024.598.065v1.347c-.112-.04-.51-.082-.739-.082-.931 0-1.587.586-1.587 1.483V329h-1.454zm11.614-6.516c1.623 0 2.642 1.254 2.642 3.31 0 2.046-1.008 3.311-2.625 3.311-.92 0-1.629-.398-1.957-1.078h-.1v3.024h-1.453v-8.461h1.4v1.06h.1c.37-.726 1.114-1.166 1.993-1.166zm-.457 5.385c1.007 0 1.605-.78 1.605-2.074 0-1.295-.603-2.074-1.6-2.074-.99 0-1.61.797-1.617 2.074.006 1.283.621 2.074 1.612 2.074zM55.24 329v-6.41h1.4v.996h.1c.176-.633.862-1.102 1.682-1.102.205 0 .457.024.598.065v1.347c-.112-.04-.51-.082-.739-.082-.931 0-1.588.586-1.588 1.483V329H55.24zm7.688-1.09c1.013 0 1.588-.773 1.588-2.115 0-1.336-.58-2.115-1.588-2.115-1.014 0-1.594.779-1.594 2.115 0 1.342.58 2.115 1.594 2.115zm0 1.219c-1.922 0-3.082-1.254-3.082-3.334 0-2.068 1.177-3.334 3.082-3.334 1.91 0 3.082 1.26 3.082 3.334 0 2.08-1.166 3.334-3.082 3.334zm6.867-.024c-1.623 0-2.637-1.277-2.637-3.316 0-2.027 1.02-3.305 2.637-3.305.879 0 1.605.422 1.945 1.125h.1v-3.498h1.453V329h-1.406v-1.014h-.1c-.363.703-1.101 1.12-1.992 1.12zm.451-5.384c-.99 0-1.6.785-1.6 2.074 0 1.295.604 2.074 1.6 2.074 1.002 0 1.611-.785 1.611-2.074 0-1.277-.615-2.074-1.61-2.074zm10.594-1.131V329h-1.4v-1.02h-.1c-.31.733-1.037 1.149-1.986 1.149-1.413 0-2.286-.873-2.286-2.39v-4.15h1.453v3.804c0 .984.463 1.459 1.336 1.459.938 0 1.53-.58 1.53-1.53v-3.732h1.453zm7.318 2.156h-1.383c-.134-.621-.615-1.066-1.412-1.066-.996 0-1.588.767-1.588 2.097 0 1.348.598 2.133 1.588 2.133.756 0 1.26-.357 1.412-1.025h1.383c-.158 1.342-1.166 2.244-2.789 2.244-1.928 0-3.064-1.242-3.064-3.352 0-2.08 1.13-3.316 3.058-3.316 1.647 0 2.643.937 2.795 2.285zm1.852-3.685h1.447v1.57h1.406v1.16h-1.406v3.147c0 .632.27.914.879.914.205 0 .31-.012.48-.03v1.137c-.205.041-.468.07-.75.07-1.47 0-2.056-.498-2.056-1.74v-3.498h-1.043v-1.16h1.043v-1.57zm4.125 3.363c0-1.16 1.054-1.963 2.566-1.963 1.524 0 2.479.674 2.584 1.84H97.92c-.106-.451-.533-.738-1.213-.738-.662 0-1.16.316-1.16.779 0 .363.305.586.95.732l1.13.258c1.225.275 1.793.803 1.793 1.746 0 1.23-1.13 2.05-2.73 2.05s-2.608-.69-2.72-1.857h1.436c.14.475.592.756 1.319.756.732 0 1.242-.322 1.242-.797 0-.363-.276-.591-.885-.726l-1.137-.264c-1.23-.281-1.81-.85-1.81-1.816zM1.96 169H.449v-8.455h5.39v1.307H1.962v2.46h3.545v1.26H1.96V169zm8.086-5.385c-.867 0-1.477.621-1.541 1.559h3.017c-.029-.95-.603-1.559-1.476-1.559zm1.488 3.621h1.377c-.275 1.166-1.336 1.893-2.848 1.893-1.886 0-3.023-1.248-3.023-3.31 0-2.063 1.154-3.358 3.012-3.358 1.828 0 2.924 1.213 2.924 3.234v.47H8.5v.075c.035 1.067.65 1.735 1.605 1.735.721 0 1.22-.264 1.43-.739zm5.092.727c.879 0 1.535-.568 1.535-1.313v-.51l-1.447.094c-.815.053-1.195.346-1.195.868 0 .539.462.86 1.107.86zm-.428 1.142c-1.236 0-2.12-.75-2.12-1.921 0-1.16.872-1.829 2.43-1.922l1.653-.1v-.539c0-.627-.422-.978-1.207-.978-.668 0-1.125.234-1.26.667h-1.37c.116-1.13 1.177-1.851 2.7-1.851 1.647 0 2.573.803 2.573 2.162V169h-1.4v-.879h-.1c-.358.621-1.06.984-1.899.984zm5.608-8.044h1.447v1.57h1.406v1.16h-1.406v3.147c0 .632.27.914.879.914.205 0 .31-.012.48-.03v1.137c-.205.041-.468.07-.75.07-1.47 0-2.056-.498-2.056-1.74v-3.498h-1.043v-1.16h1.043v-1.57zm9.984 1.529V169h-1.4v-1.02h-.1c-.31.733-1.037 1.149-1.986 1.149-1.412 0-2.285-.873-2.285-2.39v-4.15h1.453v3.804c0 .984.463 1.459 1.336 1.459.937 0 1.529-.58 1.529-1.53v-3.732h1.453zm1.781 6.41v-6.41h1.4v.996h.1c.176-.633.862-1.102 1.682-1.102.205 0 .457.024.598.065v1.347c-.112-.04-.51-.082-.739-.082-.931 0-1.588.586-1.588 1.483V169h-1.453zm7.612-5.385c-.868 0-1.477.621-1.541 1.559h3.017c-.03-.95-.603-1.559-1.476-1.559zm1.488 3.621h1.377c-.276 1.166-1.336 1.893-2.848 1.893-1.887 0-3.023-1.248-3.023-3.31 0-2.063 1.154-3.358 3.011-3.358 1.829 0 2.924 1.213 2.924 3.234v.47h-4.476v.075c.035 1.067.65 1.735 1.605 1.735.72 0 1.219-.264 1.43-.739zm6.1 1.764v-6.41h1.4v.996h.1c.175-.633.86-1.102 1.681-1.102.205 0 .457.024.598.065v1.347c-.112-.04-.51-.082-.739-.082-.931 0-1.587.586-1.587 1.483V169H48.77zm7.61-5.385c-.866 0-1.476.621-1.54 1.559h3.017c-.029-.95-.603-1.559-1.476-1.559zm1.49 3.621h1.376c-.275 1.166-1.336 1.893-2.848 1.893-1.886 0-3.023-1.248-3.023-3.31 0-2.063 1.154-3.358 3.012-3.358 1.828 0 2.923 1.213 2.923 3.234v.47h-4.476v.075c.035 1.067.65 1.735 1.605 1.735.721 0 1.22-.264 1.43-.739zm5.226-4.752c.867 0 1.629.452 1.98 1.166h.1v-1.06h1.412v8.46h-1.465v-3.023h-.1c-.369.686-1.043 1.078-1.95 1.078-1.618 0-2.62-1.277-2.62-3.316 0-2.021 1.025-3.305 2.643-3.305zm.433 5.385c1.002 0 1.623-.79 1.623-2.074 0-1.277-.627-2.074-1.617-2.074-.996 0-1.594.779-1.594 2.074 0 1.3.592 2.074 1.588 2.074zm10.547-5.28V169h-1.4v-1.02h-.1c-.31.733-1.037 1.149-1.986 1.149-1.412 0-2.285-.873-2.285-2.39v-4.15h1.453v3.804c0 .984.463 1.459 1.336 1.459.937 0 1.529-.58 1.529-1.53v-3.732h1.453zm4.47 1.026c-.866 0-1.476.621-1.54 1.559h3.017c-.029-.95-.603-1.559-1.476-1.559zm1.49 3.621h1.376c-.275 1.166-1.336 1.893-2.848 1.893-1.886 0-3.023-1.248-3.023-3.31 0-2.063 1.154-3.358 3.012-3.358 1.828 0 2.924 1.213 2.924 3.234v.47h-4.477v.075c.035 1.067.65 1.735 1.605 1.735.721 0 1.22-.264 1.43-.739zm2.753-2.812c0-1.16 1.055-1.963 2.566-1.963 1.524 0 2.479.674 2.584 1.84h-1.365c-.105-.451-.533-.738-1.213-.738-.662 0-1.16.316-1.16.779 0 .363.305.586.95.732l1.13.258c1.225.275 1.793.803 1.793 1.746 0 1.23-1.13 2.05-2.73 2.05s-2.608-.69-2.719-1.857h1.436c.14.475.591.756 1.318.756.732 0 1.242-.322 1.242-.797 0-.363-.275-.591-.885-.726l-1.136-.264c-1.23-.281-1.811-.85-1.811-1.816zm7.219-3.363h1.447v1.57h1.406v1.16h-1.406v3.147c0 .632.27.914.879.914.205 0 .31-.012.48-.03v1.137c-.205.041-.468.07-.75.07-1.47 0-2.056-.498-2.056-1.74v-3.498h-1.043v-1.16h1.043v-1.57zm4.125 3.363c0-1.16 1.054-1.963 2.566-1.963 1.524 0 2.479.674 2.584 1.84H97.92c-.106-.451-.533-.738-1.213-.738-.662 0-1.16.316-1.16.779 0 .363.305.586.95.732l1.13.258c1.225.275 1.793.803 1.793 1.746 0 1.23-1.13 2.05-2.73 2.05s-2.608-.69-2.72-1.857h1.436c.14.475.592.756 1.319.756.732 0 1.242-.322 1.242-.797 0-.363-.276-.591-.885-.726l-1.137-.264c-1.23-.281-1.81-.85-1.81-1.816zM49.932 249h-1.46v-8.455h1.313l4.149 5.748h.1v-5.748h1.452V249H54.18l-4.149-5.754h-.1V249zm10.183-5.385c-.867 0-1.476.621-1.54 1.559h3.017c-.03-.95-.604-1.559-1.477-1.559zm1.489 3.621h1.376c-.275 1.166-1.335 1.893-2.847 1.893-1.887 0-3.024-1.248-3.024-3.31 0-2.063 1.155-3.358 3.012-3.358 1.828 0 2.924 1.213 2.924 3.234v.47h-4.477v.075c.036 1.067.65 1.735 1.606 1.735.72 0 1.219-.264 1.43-.739zm7.277-1.511c0-1.225-.615-2.004-1.623-2.004-1.014 0-1.588.779-1.588 2.004 0 1.224.574 1.998 1.588 1.998 1.013 0 1.623-.774 1.623-1.998zm-1.623 5.713c-1.647 0-2.725-.727-2.842-1.829h1.459c.094.44.61.721 1.406.721.996 0 1.576-.469 1.576-1.271v-1.213h-.1c-.368.685-1.066 1.06-1.956 1.06-1.617 0-2.625-1.254-2.625-3.181 0-1.963 1.013-3.24 2.648-3.24.873 0 1.635.433 1.987 1.13h.1v-1.025h1.4v6.433c0 1.483-1.184 2.415-3.053 2.415zm7.025-3.475c.88 0 1.535-.568 1.535-1.313v-.51l-1.447.094c-.814.053-1.195.346-1.195.868 0 .539.463.86 1.107.86zm-.428 1.142c-1.236 0-2.12-.75-2.12-1.921 0-1.16.872-1.829 2.431-1.922l1.652-.1v-.539c0-.627-.422-.978-1.207-.978-.668 0-1.125.234-1.26.667h-1.37c.117-1.13 1.177-1.851 2.7-1.851 1.647 0 2.573.803 2.573 2.162V249h-1.4v-.879h-.1c-.358.621-1.06.984-1.899.984zm5.608-8.044h1.447v1.57h1.406v1.16H80.91v3.147c0 .632.27.914.88.914.204 0 .31-.012.48-.03v1.137c-.206.041-.47.07-.75.07-1.471 0-2.057-.498-2.057-1.74v-3.498H78.42v-1.16h1.043v-1.57zM83.752 249v-6.41h1.447V249h-1.447zm.72-7.453c-.527 0-.896-.34-.896-.803s.37-.803.897-.803c.533 0 .896.34.896.803s-.363.803-.896.803zm1.97 1.043H88l1.482 4.957h.1l1.47-4.957h1.536L90.32 249h-1.6l-2.279-6.41zm10.06 1.025c-.867 0-1.477.621-1.541 1.559h3.018c-.03-.95-.604-1.559-1.477-1.559zm1.488 3.621h1.377c-.275 1.166-1.336 1.893-2.847 1.893-1.887 0-3.024-1.248-3.024-3.31 0-2.063 1.154-3.358 3.012-3.358 1.828 0 2.924 1.213 2.924 3.234v.47h-4.477v.075c.035 1.067.65 1.735 1.606 1.735.72 0 1.218-.264 1.43-.739zM18.191 289h-1.406v-8.455h1.77l2.543 6.158h.105l2.543-6.158h1.77V289h-1.407v-5.947h-.082l-2.338 5.619h-1.078l-2.338-5.62h-.082V289zm9.276 0v-6.41h1.447V289h-1.447zm.72-7.453c-.527 0-.896-.34-.896-.803s.37-.803.896-.803c.534 0 .897.34.897.803s-.363.803-.896.803zm2.38 2.877c0-1.16 1.054-1.963 2.566-1.963 1.523 0 2.478.674 2.584 1.84h-1.365c-.106-.451-.534-.738-1.213-.738-.662 0-1.16.316-1.16.779 0 .363.304.586.949.732l1.13.258c1.225.275 1.794.803 1.794 1.746 0 1.23-1.131 2.05-2.73 2.05-1.6 0-2.608-.69-2.72-1.857h1.436c.14.475.592.756 1.318.756.733 0 1.242-.322 1.242-.797 0-.363-.275-.591-.884-.726l-1.137-.264c-1.23-.281-1.81-.85-1.81-1.816zm12.292.322h-1.382c-.135-.621-.616-1.066-1.413-1.066-.996 0-1.587.767-1.587 2.097 0 1.348.597 2.133 1.587 2.133.756 0 1.26-.357 1.413-1.025h1.382c-.158 1.342-1.166 2.244-2.789 2.244-1.927 0-3.064-1.242-3.064-3.352 0-2.08 1.13-3.316 3.058-3.316 1.647 0 2.643.937 2.795 2.285zm4.078-1.13c-.867 0-1.476.62-1.54 1.558h3.017c-.03-.95-.603-1.559-1.477-1.559zm1.489 3.62h1.377c-.276 1.166-1.336 1.893-2.848 1.893-1.887 0-3.023-1.248-3.023-3.31 0-2.063 1.154-3.358 3.011-3.358 1.828 0 2.924 1.213 2.924 3.234v.47h-4.476v.075c.035 1.067.65 1.735 1.605 1.735.72 0 1.219-.264 1.43-.739zM51.385 289v-8.889h1.453V289h-1.453zm3.345 0v-8.889h1.454V289H54.73zm5.479-1.037c.879 0 1.535-.568 1.535-1.313v-.51l-1.447.094c-.815.053-1.195.346-1.195.868 0 .539.462.86 1.107.86zm-.428 1.142c-1.236 0-2.12-.75-2.12-1.921 0-1.16.872-1.829 2.43-1.922l1.653-.1v-.539c0-.627-.422-.978-1.207-.978-.668 0-1.125.234-1.26.668h-1.37c.116-1.131 1.177-1.852 2.7-1.852 1.647 0 2.573.803 2.573 2.162V289h-1.4v-.879h-.1c-.358.621-1.06.984-1.899.984zm7.834-5.49c-.867 0-1.476.621-1.54 1.559h3.017c-.03-.95-.604-1.559-1.477-1.559zm1.489 3.621h1.376c-.275 1.166-1.335 1.893-2.847 1.893-1.887 0-3.024-1.248-3.024-3.31 0-2.063 1.155-3.358 3.012-3.358 1.828 0 2.924 1.213 2.924 3.234v.47h-4.477v.075c.036 1.067.65 1.735 1.606 1.735.72 0 1.219-.264 1.43-.739zm2.9 1.764v-6.41h1.4v1.025h.1c.305-.715 1.055-1.154 2.016-1.154 1.43 0 2.232.861 2.232 2.39V289h-1.447v-3.803c0-.978-.446-1.47-1.325-1.47-.937 0-1.523.597-1.523 1.54V289h-1.453zm10.236-1.09c1.014 0 1.588-.773 1.588-2.115 0-1.336-.58-2.115-1.588-2.115-1.013 0-1.594.779-1.594 2.115 0 1.342.58 2.115 1.594 2.115zm0 1.219c-1.922 0-3.082-1.254-3.082-3.334 0-2.068 1.178-3.334 3.082-3.334 1.91 0 3.082 1.26 3.082 3.334 0 2.08-1.166 3.334-3.082 3.334zm10.26-6.54V289h-1.4v-1.02H91c-.31.733-1.037 1.149-1.986 1.149-1.412 0-2.285-.873-2.285-2.39v-4.15h1.453v3.804c0 .984.463 1.459 1.336 1.459.937 0 1.529-.58 1.529-1.53v-3.732H92.5zm1.635 1.835c0-1.16 1.054-1.963 2.566-1.963 1.524 0 2.479.674 2.584 1.84H97.92c-.106-.451-.533-.738-1.213-.738-.662 0-1.16.316-1.16.779 0 .363.305.586.95.732l1.13.258c1.225.275 1.793.803 1.793 1.746 0 1.23-1.13 2.05-2.73 2.05s-2.608-.69-2.72-1.857h1.436c.14.475.592.756 1.319.756.732 0 1.242-.322 1.242-.797 0-.363-.276-.591-.885-.726l-1.137-.264c-1.23-.281-1.81-.85-1.81-1.816zM54.05 40.544h3.41c1.687 0 2.842 1.155 2.842 2.86 0 1.676-1.196 2.825-2.907 2.825h-1.834V49h-1.511v-8.455zm1.511 1.267v3.164h1.495c1.078 0 1.71-.563 1.71-1.57 0-1.038-.615-1.594-1.705-1.594h-1.5zm9.018 6.1c1.014 0 1.588-.774 1.588-2.116 0-1.336-.58-2.115-1.588-2.115-1.014 0-1.594.779-1.594 2.115 0 1.342.58 2.115 1.594 2.115zm0 1.218c-1.922 0-3.082-1.254-3.082-3.334 0-2.068 1.178-3.334 3.082-3.334 1.91 0 3.082 1.26 3.082 3.334 0 2.08-1.166 3.334-3.082 3.334zm4.4-4.705c0-1.16 1.055-1.963 2.567-1.963 1.523 0 2.478.674 2.584 1.84h-1.365c-.106-.451-.534-.739-1.213-.739-.662 0-1.16.317-1.16.78 0 .363.304.586.949.732l1.13.258c1.225.275 1.794.803 1.794 1.746 0 1.23-1.131 2.05-2.73 2.05-1.6 0-2.608-.69-2.72-1.857h1.436c.14.475.592.756 1.318.756.733 0 1.243-.322 1.243-.797 0-.363-.276-.591-.885-.726l-1.137-.264c-1.23-.281-1.81-.85-1.81-1.816zM75.754 49v-6.41H77.2V49h-1.447zm.72-7.453c-.527 0-.896-.34-.896-.803s.37-.803.897-.803c.533 0 .896.34.896.803s-.363.803-.896.803zm2.989-.486h1.447v1.57h1.406v1.16H80.91v3.147c0 .632.27.914.88.914.204 0 .31-.012.48-.03v1.137c-.206.041-.47.07-.75.07-1.471 0-2.057-.498-2.057-1.74v-3.498H78.42v-1.16h1.043v-1.57zM83.752 49v-6.41h1.447V49h-1.447zm.72-7.453c-.527 0-.896-.34-.896-.803s.37-.803.897-.803c.533 0 .896.34.896.803s-.363.803-.896.803zm1.97 1.043H88l1.482 4.957h.1l1.47-4.957h1.536L90.32 49h-1.6l-2.279-6.41zm10.06 1.025c-.867 0-1.477.621-1.541 1.559h3.018c-.03-.95-.604-1.559-1.477-1.559zm1.488 3.621h1.377c-.275 1.166-1.336 1.893-2.847 1.893-1.887 0-3.024-1.248-3.024-3.31 0-2.063 1.154-3.358 3.012-3.358 1.828 0 2.924 1.213 2.924 3.234v.47h-4.477v.075c.035 1.067.65 1.735 1.606 1.735.72 0 1.218-.264 1.43-.739z"/></g></g><g transform="translate(584 144)"><g opacity=".2"><use fill="#000" filter="url(#g)" xlink:href="#h"/><use fill="#FFF" xlink:href="#h"/></g><use fill="#000" filter="url(#i)" xlink:href="#j"/><use fill="#FFF" xlink:href="#j"/><g transform="translate(24 23)"><g transform="translate(0 1)"><use fill="#000" filter="url(#k)" xlink:href="#l"/><use fill="#5182F8" xlink:href="#l"/><g transform="translate(1.333 1.333)"><path d="M0 0H13.333V13.333H0z"/><path stroke="#FFF" stroke-width="2" stroke-linecap="round" d="M3.33333333 7.33333333L5.33333333 9.33333333 10 4.66666667"/></g></g><path d="M34.769 13h-1.532V3.136h6.16V4.53h-4.628V7.56h4.238v1.353h-4.238V13zm9.495-6.337c-1.087 0-1.846.766-1.928 1.928h3.76c-.034-1.17-.745-1.928-1.832-1.928zm1.825 4.327h1.415c-.335 1.333-1.525 2.154-3.227 2.154-2.132 0-3.438-1.463-3.438-3.842 0-2.38 1.333-3.89 3.432-3.89 2.07 0 3.322 1.415 3.322 3.753v.513h-5.257v.082c.048 1.305.807 2.133 1.982 2.133.889 0 1.497-.322 1.77-.903zm5.701.896c1.107 0 1.928-.704 1.928-1.627v-.622l-1.819.116c-1.025.068-1.49.417-1.49 1.073 0 .67.581 1.06 1.381 1.06zm-.376 1.237c-1.435 0-2.481-.868-2.481-2.228 0-1.34.998-2.113 2.768-2.222l2.017-.116v-.643c0-.786-.52-1.23-1.525-1.23-.82 0-1.387.3-1.551.827H49.22c.15-1.279 1.353-2.099 3.042-2.099 1.866 0 2.919.93 2.919 2.502V13h-1.415v-1.046h-.117c-.444.745-1.257 1.169-2.235 1.169zm6.378-9.372h1.47V5.59h1.668v1.237h-1.668v3.828c0 .78.321 1.121 1.052 1.121.226 0 .342-.013.547-.034v1.224a4.514 4.514 0 0 1-.786.075c-1.634 0-2.283-.574-2.283-2.01V6.827h-1.224V5.59h1.224V3.75zm11.231 1.805V13h-1.408v-1.183H67.5c-.362.848-1.21 1.327-2.331 1.327-1.654 0-2.632-1.005-2.632-2.769v-4.82h1.47v4.45c0 1.204.554 1.778 1.64 1.778 1.183 0 1.915-.704 1.915-1.873V5.556h1.462zM71.163 13V5.556h1.415v1.141h.11c.211-.731 1.032-1.264 2.002-1.264.212 0 .493.02.65.061v1.45c-.116-.042-.568-.09-.814-.09-1.107 0-1.893.705-1.893 1.75V13h-1.47zm8.58-6.337c-1.088 0-1.847.766-1.929 1.928h3.76c-.034-1.17-.745-1.928-1.832-1.928zm1.824 4.327h1.415c-.335 1.333-1.524 2.154-3.226 2.154-2.133 0-3.439-1.463-3.439-3.842 0-2.38 1.333-3.89 3.432-3.89 2.071 0 3.322 1.415 3.322 3.753v.513h-5.257v.082c.048 1.305.807 2.133 1.983 2.133.889 0 1.497-.322 1.77-.903zM88.663 13V5.556h1.415v1.141h.11c.211-.731 1.032-1.264 2.002-1.264.212 0 .493.02.65.061v1.45c-.116-.042-.568-.09-.814-.09-1.107 0-1.893.705-1.893 1.75V13h-1.47zm8.58-6.337c-1.088 0-1.847.766-1.929 1.928h3.76c-.034-1.17-.745-1.928-1.832-1.928zm1.824 4.327h1.415c-.335 1.333-1.524 2.154-3.226 2.154-2.133 0-3.439-1.463-3.439-3.842 0-2.38 1.333-3.89 3.432-3.89 2.071 0 3.322 1.415 3.322 3.753v.513h-5.257v.082c.048 1.305.807 2.133 1.983 2.133.889 0 1.497-.322 1.77-.903zm5.982-5.557c1.012 0 1.907.526 2.33 1.353h.117v-1.23h1.422v9.857h-1.477v-3.54h-.116c-.451.806-1.237 1.25-2.29 1.25-1.887 0-3.07-1.483-3.07-3.849 0-2.344 1.204-3.841 3.084-3.841zm.403 6.37c1.251 0 2.017-.963 2.017-2.522 0-1.552-.773-2.529-2.01-2.529-1.237 0-1.976.95-1.976 2.522 0 1.586.732 2.53 1.97 2.53zm12.018-6.247V13h-1.408v-1.183h-.117c-.362.848-1.21 1.327-2.33 1.327-1.655 0-2.633-1.005-2.633-2.769v-4.82h1.47v4.45c0 1.204.554 1.778 1.64 1.778 1.183 0 1.915-.704 1.915-1.873V5.556h1.463zm5.195 1.107c-1.087 0-1.846.766-1.928 1.928h3.76c-.034-1.17-.745-1.928-1.832-1.928zm1.825 4.327h1.415c-.335 1.333-1.524 2.154-3.226 2.154-2.133 0-3.439-1.463-3.439-3.842 0-2.38 1.333-3.89 3.432-3.89 2.071 0 3.322 1.415 3.322 3.753v.513h-5.257v.082c.048 1.305.807 2.133 1.983 2.133.888 0 1.497-.322 1.77-.903zm3.097-3.329c0-1.32 1.21-2.249 2.892-2.249 1.674 0 2.768.78 2.912 2.092h-1.409c-.136-.547-.67-.896-1.503-.896-.82 0-1.443.39-1.443.971 0 .444.376.725 1.183.91l1.237.286c1.415.329 2.078.937 2.078 2.03 0 1.402-1.305 2.339-3.083 2.339-1.77 0-2.926-.8-3.055-2.12h1.47c.184.575.73.93 1.62.93.915 0 1.565-.41 1.565-1.005 0-.444-.349-.731-1.094-.909l-1.299-.3c-1.415-.336-2.071-.971-2.071-2.079zm8.237-3.91h1.47V5.59h1.668v1.237h-1.668v3.828c0 .78.321 1.121 1.053 1.121.225 0 .341-.013.547-.034v1.224a4.514 4.514 0 0 1-.787.075c-1.633 0-2.283-.574-2.283-2.01V6.827h-1.223V5.59h1.223V3.75zm4.642 3.91c0-1.32 1.21-2.249 2.891-2.249 1.675 0 2.769.78 2.913 2.092h-1.409c-.136-.547-.67-.896-1.504-.896-.82 0-1.442.39-1.442.971 0 .444.376.725 1.183.91l1.237.286c1.415.329 2.078.937 2.078 2.03 0 1.402-1.306 2.339-3.083 2.339-1.77 0-2.926-.8-3.056-2.12h1.47c.185.575.732.93 1.62.93.916 0 1.566-.41 1.566-1.005 0-.444-.349-.731-1.094-.909l-1.299-.3c-1.415-.336-2.071-.971-2.071-2.079z" fill="#24124D"/></g><g transform="translate(24 63)"><g transform="translate(0 1)"><use fill="#000" filter="url(#m)" xlink:href="#n"/><use fill="#F84F77" xlink:href="#n"/><g transform="translate(1.333 1.333)"><path d="M0 0H13.333V13.333H0z"/><path stroke="#FFF" stroke-width="2" stroke-linecap="round" d="M3.33333333 7.33333333L5.33333333 9.33333333 10 4.66666667"/></g></g><path d="M41.652 9.097c0 2.522-1.674 4.142-4.258 4.142-2.796 0-4.56-1.989-4.56-5.175 0-3.144 1.784-5.168 4.546-5.168 2.242 0 3.869 1.272 4.204 3.268h-1.538c-.383-1.19-1.32-1.839-2.666-1.839-1.825 0-2.98 1.443-2.98 3.726 0 2.324 1.162 3.76 3.014 3.76 1.613 0 2.72-.985 2.734-2.448v-.212h-2.543V7.866h4.047v1.23zm4.99-2.434c-1.086 0-1.845.766-1.927 1.928h3.76c-.035-1.17-.746-1.928-1.832-1.928zm1.826 4.327h1.415c-.335 1.333-1.525 2.154-3.227 2.154-2.133 0-3.438-1.463-3.438-3.842 0-2.38 1.333-3.89 3.431-3.89 2.072 0 3.323 1.415 3.323 3.753v.513h-5.257v.082c.048 1.305.806 2.133 1.982 2.133.889 0 1.497-.322 1.77-.903zM51.735 13V5.556h1.415v1.182h.11c.362-.827 1.23-1.326 2.351-1.326 1.661 0 2.598.998 2.598 2.769V13h-1.47V8.55c0-1.196-.533-1.791-1.627-1.791-1.182 0-1.907.724-1.907 1.887V13h-1.47zM63.33 6.663c-1.087 0-1.846.766-1.928 1.928h3.76c-.034-1.17-.745-1.928-1.832-1.928zm1.825 4.327h1.415c-.335 1.333-1.524 2.154-3.226 2.154-2.133 0-3.439-1.463-3.439-3.842 0-2.38 1.333-3.89 3.432-3.89 2.071 0 3.322 1.415 3.322 3.753v.513h-5.257v.082c.048 1.305.807 2.133 1.983 2.133.888 0 1.497-.322 1.77-.903zM68.422 13V5.556h1.415v1.141h.11c.211-.731 1.032-1.264 2.002-1.264.212 0 .492.02.65.061v1.45c-.117-.042-.568-.09-.814-.09-1.107 0-1.893.705-1.893 1.75V13h-1.47zm7.957-1.114c1.107 0 1.928-.704 1.928-1.627v-.622l-1.819.116c-1.025.068-1.49.417-1.49 1.073 0 .67.581 1.06 1.38 1.06zm-.376 1.237c-1.436 0-2.482-.868-2.482-2.228 0-1.34.999-2.113 2.769-2.222l2.017-.116v-.643c0-.786-.52-1.23-1.525-1.23-.82 0-1.387.3-1.552.827H73.81c.15-1.279 1.353-2.099 3.042-2.099 1.866 0 2.919.93 2.919 2.502V13h-1.416v-1.046h-.116c-.444.745-1.258 1.169-2.235 1.169zM81.93 13V2.65h1.47V13h-1.47zm13.918-7.444V13h-1.409v-1.183h-.116c-.362.848-1.21 1.327-2.33 1.327-1.655 0-2.633-1.005-2.633-2.769v-4.82h1.47v4.45c0 1.204.554 1.778 1.64 1.778 1.183 0 1.915-.704 1.915-1.873V5.556h1.463zm1.968 2.105c0-1.32 1.21-2.249 2.892-2.249 1.675 0 2.769.78 2.912 2.092h-1.408c-.137-.547-.67-.896-1.504-.896-.82 0-1.442.39-1.442.971 0 .444.376.725 1.182.91l1.238.286c1.415.329 2.078.937 2.078 2.03 0 1.402-1.306 2.339-3.083 2.339-1.77 0-2.926-.8-3.056-2.12h1.47c.184.575.731.93 1.62.93.916 0 1.565-.41 1.565-1.005 0-.444-.348-.731-1.093-.909l-1.3-.3c-1.414-.336-2.07-.971-2.07-2.079zm10.152 4.225c1.107 0 1.928-.704 1.928-1.627v-.622l-1.819.116c-1.025.068-1.49.417-1.49 1.073 0 .67.581 1.06 1.38 1.06zm-.376 1.237c-1.436 0-2.482-.868-2.482-2.228 0-1.34.998-2.113 2.769-2.222l2.017-.116v-.643c0-.786-.52-1.23-1.525-1.23-.82 0-1.388.3-1.552.827h-1.422c.15-1.279 1.354-2.099 3.042-2.099 1.867 0 2.92.93 2.92 2.502V13h-1.416v-1.046h-.116c-.444.745-1.258 1.169-2.235 1.169zm9.803 0c-1.04 0-1.908-.478-2.352-1.299h-.11V13h-1.414V2.65h1.47v4.088h.115c.397-.813 1.272-1.305 2.29-1.305 1.887 0 3.077 1.476 3.077 3.841 0 2.359-1.197 3.849-3.076 3.849zm-.424-6.371c-1.23 0-2.003.97-2.01 2.53.007 1.558.772 2.522 2.01 2.522 1.244 0 1.989-.95 1.989-2.53 0-1.565-.745-2.522-1.99-2.522zM122.26 13V5.556h1.464V13h-1.463zm.732-8.75c-.547 0-.95-.39-.95-.896 0-.512.403-.902.95-.902.547 0 .95.39.95.902 0 .506-.403.896-.95.896zm2.96 8.75V2.65h1.47V13h-1.47zm3.698 0V5.556h1.463V13h-1.463zm.732-8.75c-.547 0-.95-.39-.95-.896 0-.512.403-.902.95-.902.547 0 .95.39.95.902 0 .506-.403.896-.95.896zm3.41-.499h1.47V5.59h1.669v1.237h-1.668v3.828c0 .78.321 1.121 1.052 1.121.226 0 .342-.013.547-.034v1.224a4.514 4.514 0 0 1-.786.075c-1.634 0-2.283-.574-2.283-2.01V6.827h-1.224V5.59h1.224V3.75zm5.552 11.956c-.123 0-.472-.007-.609-.034v-1.265c.117.02.342.028.479.028.697 0 1.094-.294 1.347-1.046l.109-.363-2.693-7.471h1.6l1.865 5.913h.117l1.859-5.913h1.559l-2.776 7.752c-.636 1.811-1.34 2.399-2.857 2.399z" fill="#24124D"/></g><g transform="translate(24 103)"><g transform="translate(0 1)"><use fill="#000" filter="url(#o)" xlink:href="#p"/><use fill="#BF6E33" xlink:href="#p"/><g transform="translate(1.333 1.333)"><path d="M0 0H13.333V13.333H0z"/><path stroke="#FFF" stroke-width="2" stroke-linecap="round" d="M3.33333333 7.33333333L5.33333333 9.33333333 10 4.66666667"/></g></g><path d="M34.66 13h-1.423V3.136h1.791l3.138 7.492h.116l3.145-7.492h1.79V13h-1.421V5.877H41.7l-2.891 6.836h-1.163l-2.891-6.836h-.096V13zm10.889 0V5.556h1.463V13h-1.463zm.731-8.75c-.547 0-.95-.39-.95-.896 0-.512.403-.902.95-.902.547 0 .95.39.95.902 0 .506-.403.896-.95.896zm2.721 3.411c0-1.32 1.21-2.249 2.892-2.249 1.674 0 2.768.78 2.912 2.092h-1.409c-.136-.547-.67-.896-1.503-.896-.82 0-1.443.39-1.443.971 0 .444.376.725 1.183.91l1.237.286c1.415.329 2.078.937 2.078 2.03 0 1.402-1.305 2.339-3.083 2.339-1.77 0-2.926-.8-3.055-2.12h1.47c.184.575.73.93 1.62.93.915 0 1.565-.41 1.565-1.005 0-.444-.349-.731-1.094-.909l-1.299-.3c-1.415-.336-2.071-.971-2.071-2.079zm14.02.328h-1.428c-.171-.724-.773-1.264-1.757-1.264-1.23 0-1.982.943-1.982 2.529 0 1.613.758 2.577 1.982 2.577.93 0 1.565-.424 1.757-1.224h1.428c-.19 1.497-1.34 2.537-3.178 2.537-2.167 0-3.493-1.463-3.493-3.89 0-2.386 1.319-3.842 3.486-3.842 1.866 0 2.994 1.087 3.185 2.577zm4.731-1.326c-1.087 0-1.846.766-1.928 1.928h3.76c-.034-1.17-.745-1.928-1.832-1.928zm1.825 4.327h1.415c-.335 1.333-1.524 2.154-3.226 2.154-2.133 0-3.439-1.463-3.439-3.842 0-2.38 1.333-3.89 3.432-3.89 2.071 0 3.322 1.415 3.322 3.753v.513h-5.257v.082c.048 1.305.807 2.133 1.983 2.133.888 0 1.497-.322 1.77-.903zM72.913 13V2.65h1.47V13h-1.47zm3.74 0V2.65h1.47V13h-1.47zm6.104-1.114c1.107 0 1.928-.704 1.928-1.627v-.622l-1.819.116c-1.025.068-1.49.417-1.49 1.073 0 .67.581 1.06 1.38 1.06zm-.376 1.237c-1.436 0-2.482-.868-2.482-2.228 0-1.34.998-2.113 2.769-2.222l2.017-.116v-.643c0-.786-.52-1.23-1.525-1.23-.82 0-1.388.3-1.552.827h-1.421c.15-1.279 1.353-2.099 3.042-2.099 1.866 0 2.918.93 2.918 2.502V13h-1.415v-1.046h-.116c-.444.745-1.258 1.169-2.235 1.169zm8.914-6.46c-1.087 0-1.846.766-1.928 1.928h3.76c-.034-1.17-.745-1.928-1.832-1.928zm1.825 4.327h1.415c-.335 1.333-1.524 2.154-3.226 2.154-2.133 0-3.439-1.463-3.439-3.842 0-2.38 1.333-3.89 3.432-3.89 2.071 0 3.322 1.415 3.322 3.753v.513h-5.257v.082c.048 1.305.807 2.133 1.983 2.133.888 0 1.497-.322 1.77-.903zM96.388 13V5.556h1.415v1.182h.11c.361-.827 1.23-1.326 2.35-1.326 1.662 0 2.598.998 2.598 2.769V13h-1.47V8.55c0-1.196-.533-1.791-1.626-1.791-1.183 0-1.908.724-1.908 1.887V13h-1.47zm11.682-1.162c1.272 0 1.996-.943 1.996-2.564 0-1.613-.724-2.556-1.996-2.556-1.278 0-1.996.943-1.996 2.556 0 1.627.718 2.564 1.996 2.564zm0 1.306c-2.18 0-3.513-1.457-3.513-3.87 0-2.399 1.34-3.862 3.513-3.862 2.167 0 3.507 1.463 3.507 3.862 0 2.414-1.333 3.87-3.507 3.87zm11.69-7.588V13h-1.408v-1.183h-.117c-.362.848-1.21 1.327-2.33 1.327-1.655 0-2.633-1.005-2.633-2.769v-4.82h1.47v4.45c0 1.204.554 1.778 1.64 1.778 1.183 0 1.915-.704 1.915-1.873V5.556h1.463zm1.969 2.105c0-1.32 1.21-2.249 2.891-2.249 1.675 0 2.769.78 2.912 2.092h-1.408c-.137-.547-.67-.896-1.504-.896-.82 0-1.442.39-1.442.971 0 .444.376.725 1.182.91l1.238.286c1.415.329 2.078.937 2.078 2.03 0 1.402-1.306 2.339-3.083 2.339-1.77 0-2.926-.8-3.056-2.12h1.47c.184.575.731.93 1.62.93.916 0 1.565-.41 1.565-1.005 0-.444-.348-.731-1.093-.909l-1.3-.3c-1.414-.336-2.07-.971-2.07-2.079z" fill="#24124D"/></g><g transform="translate(24 143)"><g transform="translate(0 1)"><use fill="#000" filter="url(#q)" xlink:href="#r"/><use fill="#1EB8C1" xlink:href="#r"/><g transform="translate(1.333 1.333)"><path d="M0 0H13.333V13.333H0z"/><path stroke="#FFF" stroke-width="2" stroke-linecap="round" d="M3.33333333 7.33333333L5.33333333 9.33333333 10 4.66666667"/></g></g><path d="M34.728 13h-1.49V3.136h1.38l5.066 7.007h.109V3.136h1.49V13h-1.38l-5.066-7.007h-.11V13zm11.293-1.114c1.107 0 1.927-.704 1.927-1.627v-.622l-1.818.116c-1.026.068-1.49.417-1.49 1.073 0 .67.58 1.06 1.38 1.06zm-.376 1.237c-1.436 0-2.482-.868-2.482-2.228 0-1.34.998-2.113 2.769-2.222l2.016-.116v-.643c0-.786-.52-1.23-1.524-1.23-.82 0-1.388.3-1.552.827H43.45c.15-1.279 1.354-2.099 3.042-2.099 1.866 0 2.92.93 2.92 2.502V13h-1.416v-1.046h-.116c-.444.745-1.258 1.169-2.235 1.169zm5.215-7.567h1.573l1.852 5.872h.116l1.846-5.872h1.559L55.126 13h-1.58L50.86 5.556zM59.323 13V5.556h1.463V13h-1.463zm.732-8.75c-.547 0-.95-.39-.95-.896 0-.512.403-.902.95-.902.547 0 .95.39.95.902 0 .506-.403.896-.95.896zm8.025 4.936c0-1.484-.766-2.434-2.017-2.434-1.264 0-1.975.95-1.975 2.434 0 1.483.71 2.433 1.975 2.433 1.258 0 2.017-.943 2.017-2.433zm-1.996 6.658c-1.86 0-3.063-.834-3.22-2.099h1.504c.123.54.745.889 1.736.889 1.224 0 1.949-.581 1.949-1.566V11.64h-.11c-.45.806-1.271 1.25-2.297 1.25-1.9 0-3.076-1.47-3.076-3.698 0-2.27 1.19-3.76 3.09-3.76 1.026 0 1.921.506 2.338 1.313h.116v-1.19h1.408v7.507c0 1.702-1.333 2.782-3.438 2.782zm8.005-3.958c1.107 0 1.928-.704 1.928-1.627v-.622l-1.819.116c-1.025.068-1.49.417-1.49 1.073 0 .67.581 1.06 1.38 1.06zm-.376 1.237c-1.436 0-2.482-.868-2.482-2.228 0-1.34.998-2.113 2.769-2.222l2.017-.116v-.643c0-.786-.52-1.23-1.525-1.23-.82 0-1.388.3-1.552.827H71.52c.15-1.279 1.353-2.099 3.042-2.099 1.866 0 2.918.93 2.918 2.502V13h-1.415v-1.046h-.116c-.444.745-1.258 1.169-2.235 1.169zm6.378-9.372h1.47V5.59h1.668v1.237H81.56v3.828c0 .78.32 1.121 1.052 1.121.226 0 .342-.013.547-.034v1.224a4.514 4.514 0 0 1-.786.075c-1.634 0-2.283-.574-2.283-2.01V6.827h-1.224V5.59h1.224V3.75zM84.93 13V5.556h1.463V13H84.93zm.731-8.75c-.547 0-.95-.39-.95-.896 0-.512.403-.902.95-.902.547 0 .95.39.95.902 0 .506-.403.896-.95.896zm6.036 7.588c1.272 0 1.996-.943 1.996-2.564 0-1.613-.724-2.556-1.996-2.556-1.278 0-1.996.943-1.996 2.556 0 1.627.718 2.564 1.996 2.564zm0 1.306c-2.18 0-3.513-1.457-3.513-3.87 0-2.399 1.34-3.862 3.513-3.862 2.167 0 3.507 1.463 3.507 3.862 0 2.414-1.333 3.87-3.507 3.87zm5.27-.144V5.556h1.416v1.182h.11c.361-.827 1.23-1.326 2.35-1.326 1.662 0 2.598.998 2.598 2.769V13h-1.47V8.55c0-1.196-.533-1.791-1.626-1.791-1.183 0-1.908.724-1.908 1.887V13h-1.47z" fill="#24124D"/></g><g transform="translate(24 183)"><g transform="translate(0 1)"><use fill="#000" filter="url(#s)" xlink:href="#t"/><use fill="#F84F77" xlink:href="#t"/><g transform="translate(1.333 1.333)"><path d="M0 0H13.333V13.333H0z"/><path stroke="#FFF" stroke-width="2" stroke-linecap="round" d="M3.33333333 7.33333333L5.33333333 9.33333333 10 4.66666667"/></g></g><path d="M34.728 13h-1.49V3.136h1.38l5.066 7.007h.109V3.136h1.49V13h-1.38l-5.066-7.007h-.11V13zm11.915-6.337c-1.087 0-1.846.766-1.928 1.928h3.76c-.035-1.17-.746-1.928-1.832-1.928zm1.825 4.327h1.415c-.335 1.333-1.525 2.154-3.227 2.154-2.133 0-3.438-1.463-3.438-3.842 0-2.38 1.333-3.89 3.431-3.89 2.072 0 3.323 1.415 3.323 3.753v.513h-5.257v.082c.048 1.305.806 2.133 1.982 2.133.889 0 1.497-.322 1.77-.903zm8.401-1.804c0-1.484-.765-2.434-2.016-2.434-1.265 0-1.976.95-1.976 2.434 0 1.483.71 2.433 1.976 2.433 1.257 0 2.016-.943 2.016-2.433zm-1.996 6.658c-1.86 0-3.062-.834-3.22-2.099h1.504c.123.54.745.889 1.737.889 1.223 0 1.948-.581 1.948-1.566V11.64h-.11c-.45.806-1.271 1.25-2.296 1.25-1.9 0-3.077-1.47-3.077-3.698 0-2.27 1.19-3.76 3.09-3.76 1.026 0 1.921.506 2.338 1.313h.116v-1.19h1.409v7.507c0 1.702-1.333 2.782-3.439 2.782zm8.005-3.958c1.107 0 1.928-.704 1.928-1.627v-.622l-1.819.116c-1.025.068-1.49.417-1.49 1.073 0 .67.581 1.06 1.38 1.06zm-.376 1.237c-1.436 0-2.481-.868-2.481-2.228 0-1.34.998-2.113 2.768-2.222l2.017-.116v-.643c0-.786-.52-1.23-1.525-1.23-.82 0-1.387.3-1.552.827h-1.421c.15-1.279 1.353-2.099 3.042-2.099 1.866 0 2.919.93 2.919 2.502V13h-1.415v-1.046h-.117c-.444.745-1.258 1.169-2.235 1.169zm6.378-9.372h1.47V5.59h1.668v1.237H70.35v3.828c0 .78.32 1.121 1.052 1.121.226 0 .342-.013.547-.034v1.224a4.514 4.514 0 0 1-.786.075c-1.634 0-2.283-.574-2.283-2.01V6.827h-1.224V5.59h1.224V3.75zM73.72 13V5.556h1.463V13H73.72zm.731-8.75c-.547 0-.95-.39-.95-.896 0-.512.403-.902.95-.902.547 0 .95.39.95.902 0 .506-.403.896-.95.896zm2.25 1.306h1.571l1.853 5.872h.116l1.846-5.872h1.559L80.966 13h-1.58L76.7 5.556zm11.49 1.107c-1.087 0-1.845.766-1.927 1.928h3.76c-.035-1.17-.746-1.928-1.833-1.928zm1.826 4.327h1.415c-.335 1.333-1.525 2.154-3.227 2.154-2.133 0-3.438-1.463-3.438-3.842 0-2.38 1.333-3.89 3.431-3.89 2.072 0 3.323 1.415 3.323 3.753v.513h-5.257v.082c.048 1.305.806 2.133 1.982 2.133.889 0 1.497-.322 1.77-.903z" fill="#24124D"/></g><g transform="translate(24 223)"><g transform="translate(0 1)"><use fill="#000" filter="url(#u)" xlink:href="#v"/><use fill="#FFB300" xlink:href="#v"/><g transform="translate(1.333 1.333)"><path d="M0 0H13.333V13.333H0z"/><path stroke="#FFF" stroke-width="2" stroke-linecap="round" d="M3.33333333 7.33333333L5.33333333 9.33333333 10 4.66666667"/></g></g><path d="M37.441 2.896c2.844 0 4.594 1.99 4.594 5.168 0 3.172-1.736 5.175-4.594 5.175-2.864 0-4.607-1.996-4.607-5.175 0-3.185 1.777-5.168 4.607-5.168zm0 1.43c-1.859 0-3.042 1.448-3.042 3.738 0 2.277 1.149 3.747 3.042 3.747 1.873 0 3.029-1.47 3.029-3.747 0-2.29-1.156-3.739-3.029-3.739zm7.014-.575h1.47V5.59h1.668v1.237h-1.668v3.828c0 .78.321 1.121 1.053 1.121.225 0 .341-.013.546-.034v1.224a4.514 4.514 0 0 1-.786.075c-1.634 0-2.283-.574-2.283-2.01V6.827h-1.224V5.59h1.224V3.75zM49.335 13V2.65h1.457v4.102h.116c.363-.834 1.224-1.333 2.345-1.333 1.675 0 2.632 1.005 2.632 2.775V13h-1.47V8.557c0-1.19-.554-1.791-1.661-1.791-1.203 0-1.948.758-1.948 1.886V13h-1.47zm11.677-6.337c-1.087 0-1.846.766-1.928 1.928h3.76c-.034-1.17-.745-1.928-1.832-1.928zm1.825 4.327h1.415c-.335 1.333-1.524 2.154-3.227 2.154-2.132 0-3.438-1.463-3.438-3.842 0-2.38 1.333-3.89 3.432-3.89 2.07 0 3.322 1.415 3.322 3.753v.513h-5.257v.082c.048 1.305.807 2.133 1.982 2.133.89 0 1.497-.322 1.77-.903zM66.104 13V5.556h1.416v1.141h.109c.212-.731 1.032-1.264 2.003-1.264.212 0 .492.02.65.061v1.45c-.117-.042-.568-.09-.814-.09-1.108 0-1.894.705-1.894 1.75V13h-1.47zm13.214-7.567c1.894 0 3.09 1.476 3.09 3.841 0 2.366-1.196 3.849-3.076 3.849-1.06 0-1.9-.465-2.29-1.25h-.116v3.54h-1.47V5.556h1.415v1.23h.11c.45-.848 1.326-1.353 2.337-1.353zm-.417 6.37c1.251 0 1.996-.95 1.996-2.529 0-1.572-.745-2.522-1.989-2.522-1.237 0-2.01.97-2.01 2.53 0 1.551.773 2.522 2.003 2.522zM84.171 13V5.556h1.416v1.141h.11c.211-.731 1.032-1.264 2.002-1.264.212 0 .492.02.65.061v1.45c-.117-.042-.568-.09-.814-.09-1.107 0-1.893.705-1.893 1.75V13h-1.47zm8.669-1.162c1.271 0 1.996-.943 1.996-2.564 0-1.613-.725-2.556-1.996-2.556-1.278 0-1.996.943-1.996 2.556 0 1.627.718 2.564 1.996 2.564zm0 1.306c-2.18 0-3.514-1.457-3.514-3.87 0-2.399 1.34-3.862 3.514-3.862 2.167 0 3.507 1.463 3.507 3.862 0 2.414-1.333 3.87-3.507 3.87zm7.991-.021c-1.894 0-3.09-1.49-3.09-3.849 0-2.351 1.21-3.841 3.09-3.841 1.019 0 1.88.485 2.283 1.305h.11V2.65h1.47V13h-1.409v-1.176h-.116c-.444.814-1.313 1.299-2.338 1.299zm.417-6.371c-1.237 0-1.99.957-1.99 2.522 0 1.58.746 2.53 1.99 2.53 1.237 0 2.003-.964 2.003-2.523 0-1.552-.772-2.529-2.003-2.529zm12.065-1.196V13h-1.408v-1.183h-.116c-.362.848-1.21 1.327-2.331 1.327-1.654 0-2.632-1.005-2.632-2.769v-4.82h1.47v4.45c0 1.204.554 1.778 1.64 1.778 1.183 0 1.915-.704 1.915-1.873V5.556h1.462zm8.443 2.433h-1.429c-.17-.724-.772-1.264-1.757-1.264-1.23 0-1.982.943-1.982 2.529 0 1.613.759 2.577 1.982 2.577.93 0 1.566-.424 1.757-1.224h1.429c-.192 1.497-1.34 2.537-3.179 2.537-2.167 0-3.493-1.463-3.493-3.89 0-2.386 1.32-3.842 3.486-3.842 1.867 0 2.994 1.087 3.186 2.577zm2.194-4.238h1.47V5.59h1.668v1.237h-1.668v3.828c0 .78.321 1.121 1.053 1.121.225 0 .341-.013.547-.034v1.224a4.514 4.514 0 0 1-.787.075c-1.633 0-2.283-.574-2.283-2.01V6.827h-1.223V5.59h1.223V3.75zm4.642 3.91c0-1.32 1.21-2.249 2.891-2.249 1.675 0 2.769.78 2.913 2.092h-1.409c-.136-.547-.67-.896-1.504-.896-.82 0-1.442.39-1.442.971 0 .444.376.725 1.183.91l1.237.286c1.415.329 2.078.937 2.078 2.03 0 1.402-1.306 2.339-3.083 2.339-1.77 0-2.926-.8-3.056-2.12h1.47c.185.575.732.93 1.62.93.916 0 1.566-.41 1.566-1.005 0-.444-.349-.731-1.094-.909l-1.299-.3c-1.415-.336-2.071-.971-2.071-2.079z" fill="#24124D"/></g><g transform="translate(24 263)"><g transform="translate(0 1)"><use fill="#000" filter="url(#w)" xlink:href="#x"/><use fill="#512DA8" xlink:href="#x"/><g transform="translate(1.333 1.333)"><path d="M0 0H13.333V13.333H0z"/><path stroke="#FFF" stroke-width="2" stroke-linecap="round" d="M3.33333333 7.33333333L5.33333333 9.33333333 10 4.66666667"/></g></g><path d="M32.772 10.348h1.518c.13.936 1.046 1.53 2.365 1.53 1.23 0 2.133-.635 2.133-1.51 0-.752-.574-1.203-1.88-1.51l-1.271-.308c-1.784-.417-2.598-1.279-2.598-2.728 0-1.757 1.436-2.926 3.589-2.926 2.003 0 3.466 1.17 3.555 2.83h-1.49c-.144-.909-.937-1.476-2.086-1.476-1.21 0-2.016.581-2.016 1.47 0 .704.52 1.107 1.805 1.408l1.086.267c2.024.471 2.858 1.292 2.858 2.775 0 1.887-1.463 3.07-3.8 3.07-2.188 0-3.658-1.129-3.768-2.892zm12.462-3.685c-1.087 0-1.845.766-1.927 1.928h3.76c-.035-1.17-.746-1.928-1.833-1.928zm1.826 4.327h1.415c-.335 1.333-1.525 2.154-3.227 2.154-2.133 0-3.438-1.463-3.438-3.842 0-2.38 1.333-3.89 3.431-3.89 2.072 0 3.322 1.415 3.322 3.753v.513h-5.256v.082c.047 1.305.806 2.133 1.982 2.133.889 0 1.497-.322 1.77-.903zm5.7.896c1.108 0 1.928-.704 1.928-1.627v-.622l-1.818.116c-1.025.068-1.49.417-1.49 1.073 0 .67.58 1.06 1.38 1.06zm-.375 1.237c-1.436 0-2.482-.868-2.482-2.228 0-1.34.998-2.113 2.769-2.222l2.016-.116v-.643c0-.786-.52-1.23-1.524-1.23-.82 0-1.388.3-1.552.827H50.19c.15-1.279 1.354-2.099 3.042-2.099 1.867 0 2.92.93 2.92 2.502V13h-1.416v-1.046h-.116c-.444.745-1.258 1.169-2.235 1.169zM58.243 13V5.556h1.415v1.141h.11c.211-.731 1.032-1.264 2.003-1.264.211 0 .492.02.649.061v1.45c-.116-.042-.567-.09-.814-.09-1.107 0-1.893.705-1.893 1.75V13h-1.47zM70.07 7.99h-1.428c-.171-.725-.773-1.265-1.757-1.265-1.23 0-1.983.943-1.983 2.529 0 1.613.76 2.577 1.983 2.577.93 0 1.565-.424 1.757-1.224h1.428c-.191 1.497-1.34 2.537-3.178 2.537-2.167 0-3.494-1.463-3.494-3.89 0-2.386 1.32-3.842 3.487-3.842 1.866 0 2.994 1.087 3.185 2.577zM71.812 13V2.65h1.457v4.102h.116c.362-.834 1.223-1.333 2.344-1.333 1.675 0 2.632 1.005 2.632 2.775V13h-1.47V8.557c0-1.19-.553-1.791-1.66-1.791-1.204 0-1.949.758-1.949 1.886V13h-1.47z" fill="#24124D"/></g><g transform="translate(24 303)"><g transform="translate(0 1)"><use fill="#000" filter="url(#y)" xlink:href="#z"/><use fill="#FFB300" xlink:href="#z"/><g transform="translate(1.333 1.333)"><path d="M0 0H13.333V13.333H0z"/><path stroke="#FFF" stroke-width="2" stroke-linecap="round" d="M3.33333333 7.33333333L5.33333333 9.33333333 10 4.66666667"/></g></g><path d="M38.83 5.76L36.716 13h-1.45l-2.659-9.864h1.593l1.812 7.553h.095l2.058-7.553h1.422l2.071 7.553h.096l1.805-7.553h1.592L42.486 13h-1.442l-2.12-7.24h-.095zm10.43 6.126c1.108 0 1.928-.704 1.928-1.627v-.622l-1.818.116c-1.025.068-1.49.417-1.49 1.073 0 .67.58 1.06 1.38 1.06zm-.375 1.237c-1.436 0-2.482-.868-2.482-2.228 0-1.34.998-2.113 2.769-2.222l2.016-.116v-.643c0-.786-.52-1.23-1.524-1.23-.82 0-1.388.3-1.552.827H46.69c.15-1.279 1.354-2.099 3.042-2.099 1.867 0 2.92.93 2.92 2.502V13h-1.416v-1.046h-.116c-.444.745-1.258 1.169-2.235 1.169zm6.596 2.584c-.123 0-.471-.007-.608-.034v-1.265c.116.02.342.028.479.028.697 0 1.093-.294 1.346-1.046l.11-.363-2.694-7.471h1.6l1.866 5.913h.116l1.86-5.913h1.558l-2.775 7.752c-.636 1.811-1.34 2.399-2.858 2.399zM63.138 13V6.827h-1.224V5.59h1.224v-.738c0-1.518.786-2.133 2.33-2.133.274 0 .534.02.828.068v1.176a4.216 4.216 0 0 0-.656-.055c-.677 0-1.046.315-1.046 1.026v.656h1.647v1.237h-1.634V13h-1.47zm4.805 0V5.556h1.463V13h-1.463zm.732-8.75c-.547 0-.95-.39-.95-.896 0-.512.403-.902.95-.902.547 0 .95.39.95.902 0 .506-.403.896-.95.896zM71.566 13V5.556h1.415v1.182h.11c.362-.827 1.23-1.326 2.351-1.326 1.662 0 2.598.998 2.598 2.769V13h-1.47V8.55c0-1.196-.533-1.791-1.627-1.791-1.182 0-1.907.724-1.907 1.887V13h-1.47zm11.26.123c-1.894 0-3.09-1.49-3.09-3.849 0-2.351 1.21-3.841 3.09-3.841 1.018 0 1.88.485 2.282 1.305h.11V2.65h1.47V13h-1.409v-1.176h-.116c-.444.814-1.312 1.299-2.338 1.299zm.416-6.371c-1.237 0-1.99.957-1.99 2.522 0 1.58.746 2.53 1.99 2.53 1.237 0 2.003-.964 2.003-2.523 0-1.552-.772-2.529-2.003-2.529zM88.916 13V5.556h1.463V13h-1.463zm.731-8.75c-.546 0-.95-.39-.95-.896 0-.512.404-.902.95-.902.547 0 .95.39.95.902 0 .506-.403.896-.95.896zM92.54 13V5.556h1.415v1.182h.11c.362-.827 1.23-1.326 2.351-1.326 1.661 0 2.598.998 2.598 2.769V13h-1.47V8.55c0-1.196-.533-1.791-1.627-1.791-1.183 0-1.907.724-1.907 1.887V13h-1.47zm13.672-3.814c0-1.484-.766-2.434-2.017-2.434-1.264 0-1.975.95-1.975 2.434 0 1.483.71 2.433 1.975 2.433 1.258 0 2.017-.943 2.017-2.433zm-1.996 6.658c-1.86 0-3.063-.834-3.22-2.099h1.504c.123.54.745.889 1.736.889 1.224 0 1.949-.581 1.949-1.566V11.64h-.11c-.451.806-1.271 1.25-2.297 1.25-1.9 0-3.076-1.47-3.076-3.698 0-2.27 1.19-3.76 3.09-3.76 1.025 0 1.92.506 2.338 1.313h.116v-1.19h1.408v7.507c0 1.702-1.333 2.782-3.438 2.782z" fill="#24124D"/></g></g><g opacity=".2"><use fill="#000" filter="url(#A)" xlink:href="#B"/><use fill="#FFF" xlink:href="#B"/></g><use fill="#000" filter="url(#C)" xlink:href="#D"/><use fill="#FFF" xlink:href="#D"/><path d="M17.766 22.32h1.722c.11.882.985 1.45 2.236 1.45 1.162 0 2.003-.595 2.003-1.422 0-.711-.54-1.128-1.805-1.422l-1.278-.294c-1.791-.403-2.632-1.292-2.632-2.762 0-1.79 1.463-2.98 3.67-2.98 2.072 0 3.569 1.19 3.651 2.884h-1.688c-.124-.868-.89-1.415-1.97-1.415-1.134 0-1.886.547-1.886 1.388 0 .663.5 1.053 1.723 1.333l1.134.26c2.003.451 2.844 1.285 2.844 2.789 0 1.92-1.483 3.117-3.876 3.117-2.262 0-3.76-1.135-3.848-2.926zM27.363 25V14.63h1.668v4.101h.123c.356-.84 1.238-1.346 2.352-1.346 1.675 0 2.645 1.011 2.645 2.789V25h-1.688v-4.423c0-1.135-.547-1.716-1.586-1.716-1.114 0-1.818.725-1.818 1.798V25h-1.696zm12.025-1.271c1.182 0 1.852-.903 1.852-2.468 0-1.559-.677-2.468-1.852-2.468-1.183 0-1.86.91-1.86 2.468 0 1.565.677 2.468 1.86 2.468zm0 1.421c-2.242 0-3.596-1.462-3.596-3.89 0-2.412 1.374-3.889 3.596-3.889 2.228 0 3.595 1.47 3.595 3.89 0 2.427-1.36 3.89-3.595 3.89zm15.319-7.629L52.684 25h-1.785l-1.456-5.387h-.116L47.877 25h-1.763l-2.023-7.479H45.8l1.244 5.585h.116l1.436-5.585h1.62l1.449 5.585h.116l1.238-5.585h1.688zm157.889 6.269c1.025 0 1.79-.663 1.79-1.531v-.595l-1.688.11c-.95.061-1.394.403-1.394 1.011 0 .63.54 1.005 1.292 1.005zm-.5 1.333c-1.442 0-2.474-.875-2.474-2.242 0-1.354 1.019-2.133 2.837-2.242l1.928-.117v-.628c0-.732-.492-1.142-1.408-1.142-.78 0-1.313.273-1.47.78h-1.6c.137-1.32 1.374-2.16 3.152-2.16 1.92 0 3 .936 3 2.522V25h-1.633v-1.025h-.116c-.417.724-1.238 1.148-2.215 1.148zm5.832-5.462c0-1.353 1.23-2.29 2.994-2.29 1.777 0 2.891.786 3.015 2.147h-1.593c-.123-.527-.622-.862-1.415-.862-.773 0-1.354.37-1.354.91 0 .423.356.683 1.108.854l1.319.3c1.429.322 2.092.937 2.092 2.038 0 1.435-1.32 2.392-3.186 2.392-1.866 0-3.042-.806-3.172-2.167h1.675c.164.554.69.882 1.538.882.855 0 1.45-.376 1.45-.93 0-.423-.322-.69-1.033-.847l-1.326-.308c-1.436-.328-2.112-.99-2.112-2.119zm14.17 4.129c1.026 0 1.792-.663 1.792-1.531v-.595l-1.689.11c-.95.061-1.394.403-1.394 1.011 0 .63.54 1.005 1.292 1.005zm-.498 1.333c-1.443 0-2.475-.875-2.475-2.242 0-1.354 1.019-2.133 2.837-2.242l1.928-.117v-.628c0-.732-.493-1.142-1.409-1.142-.779 0-1.312.273-1.47.78h-1.599c.137-1.32 1.374-2.16 3.151-2.16 1.921 0 3.001.936 3.001 2.522V25h-1.633v-1.025h-.117c-.417.724-1.237 1.148-2.214 1.148z" fill="#7B7194"/><path d="M69.435 25H67.67v-8.34h-3.035v-1.524h7.84v1.524h-3.041V25zm7.266-1.21c1.026 0 1.791-.663 1.791-1.531v-.595l-1.688.11c-.95.061-1.395.403-1.395 1.011 0 .63.54 1.005 1.292 1.005zm-.499 1.333c-1.442 0-2.474-.875-2.474-2.242 0-1.354 1.018-2.133 2.836-2.242l1.928-.117v-.628c0-.732-.492-1.142-1.408-1.142-.78 0-1.313.273-1.47.78h-1.6c.137-1.32 1.375-2.16 3.152-2.16 1.92 0 3.001.936 3.001 2.522V25h-1.634v-1.025h-.116c-.417.724-1.237 1.148-2.215 1.148zm11.109-3.944c0-1.429-.718-2.338-1.894-2.338-1.183 0-1.853.909-1.853 2.338 0 1.428.67 2.33 1.853 2.33 1.183 0 1.894-.902 1.894-2.33zm-1.894 6.665c-1.92 0-3.179-.848-3.315-2.133h1.702c.11.513.71.84 1.64.84 1.162 0 1.84-.546 1.84-1.483v-1.415h-.117c-.43.8-1.244 1.238-2.283 1.238-1.887 0-3.063-1.463-3.063-3.712 0-2.29 1.183-3.78 3.09-3.78 1.019 0 1.907.505 2.318 1.319h.116V17.52h1.634v7.506c0 1.73-1.381 2.817-3.562 2.817zm10.746-6.665c0-1.429-.718-2.338-1.893-2.338-1.183 0-1.853.909-1.853 2.338 0 1.428.67 2.33 1.853 2.33 1.182 0 1.893-.902 1.893-2.33zm-1.893 6.665c-1.921 0-3.18-.848-3.316-2.133h1.702c.11.513.711.84 1.64.84 1.163 0 1.84-.546 1.84-1.483v-1.415h-.116c-.431.8-1.245 1.238-2.284 1.238-1.886 0-3.062-1.463-3.062-3.712 0-2.29 1.182-3.78 3.09-3.78 1.018 0 1.907.505 2.317 1.319h.116V17.52h1.634v7.506c0 1.73-1.38 2.817-3.561 2.817zm8.777-9.126c-1.012 0-1.723.724-1.798 1.818h3.52c-.034-1.107-.704-1.818-1.722-1.818zm1.736 4.224h1.607c-.322 1.36-1.559 2.208-3.323 2.208-2.2 0-3.527-1.456-3.527-3.862s1.347-3.917 3.514-3.917c2.133 0 3.41 1.415 3.41 3.774v.546h-5.222v.09c.041 1.243.759 2.023 1.873 2.023.841 0 1.422-.308 1.668-.862zm6.091 2.181c-1.894 0-3.076-1.49-3.076-3.87 0-2.364 1.19-3.855 3.076-3.855 1.025 0 1.873.493 2.27 1.313h.116V14.63h1.695V25h-1.64v-1.183h-.117c-.424.82-1.285 1.306-2.324 1.306zm.526-6.282c-1.155 0-1.866.916-1.866 2.42 0 1.51.704 2.42 1.866 2.42 1.17 0 1.88-.916 1.88-2.42 0-1.49-.718-2.42-1.88-2.42zm9.967-3.104h1.689v1.832h1.64v1.354h-1.64v3.67c0 .739.314 1.067 1.025 1.067.24 0 .362-.014.56-.034v1.326a4.59 4.59 0 0 1-.874.082c-1.716 0-2.4-.58-2.4-2.03v-4.081h-1.217v-1.354h1.217v-1.832zm8.121 2.98c-1.011 0-1.722.725-1.798 1.82h3.52c-.033-1.108-.703-1.82-1.722-1.82zm1.737 4.225h1.606c-.321 1.36-1.559 2.208-3.322 2.208-2.201 0-3.528-1.456-3.528-3.862s1.347-3.917 3.514-3.917c2.133 0 3.411 1.415 3.411 3.774v.546h-5.222v.09c.04 1.243.758 2.023 1.873 2.023.84 0 1.422-.308 1.668-.862zm6.296-.52h-.117L135.873 25h-1.825l2.42-3.712-2.44-3.767h1.961l1.49 2.57h.117l1.476-2.57h1.866l-2.413 3.699 2.44 3.78h-1.913l-1.531-2.577zm5.482-6.685h1.688v1.832h1.641v1.354h-1.64v3.67c0 .739.314 1.067 1.025 1.067.24 0 .362-.014.56-.034v1.326a4.59 4.59 0 0 1-.875.082c-1.715 0-2.4-.58-2.4-2.03v-4.081h-1.216v-1.354h1.217v-1.832zm8.066 1.784h1.819l1.73 5.784h.115l1.716-5.784h1.791L155.595 25h-1.866l-2.66-7.479zm11.827 6.208c1.182 0 1.852-.903 1.852-2.468 0-1.559-.677-2.468-1.852-2.468-1.183 0-1.86.91-1.86 2.468 0 1.565.677 2.468 1.86 2.468zm0 1.421c-2.243 0-3.596-1.462-3.596-3.89 0-2.412 1.374-3.889 3.596-3.889 2.228 0 3.595 1.47 3.595 3.89 0 2.427-1.36 3.89-3.595 3.89zm5.373-.15V14.63h1.695V25h-1.695zm10.5-7.479V25h-1.634v-1.19h-.116c-.363.855-1.21 1.34-2.318 1.34-1.647 0-2.666-1.018-2.666-2.789v-4.84h1.695v4.437c0 1.148.54 1.702 1.56 1.702 1.093 0 1.783-.677 1.783-1.784v-4.355h1.696zM180.847 25v-7.479h1.633v1.21h.117c.321-.854 1.087-1.36 2.078-1.36 1.032 0 1.75.52 2.064 1.36h.116c.37-.82 1.23-1.36 2.27-1.36 1.497 0 2.4.937 2.4 2.488V25h-1.69v-4.71c0-.964-.457-1.442-1.366-1.442-.882 0-1.463.642-1.463 1.497V25h-1.648v-4.833c0-.82-.52-1.32-1.353-1.32-.84 0-1.463.691-1.463 1.607V25h-1.695zm15.825-6.282c-1.012 0-1.723.724-1.798 1.818h3.52c-.034-1.107-.704-1.818-1.722-1.818zm1.736 4.224h1.607c-.322 1.36-1.559 2.208-3.323 2.208-2.2 0-3.527-1.456-3.527-3.862s1.347-3.917 3.514-3.917c2.133 0 3.41 1.415 3.41 3.774v.546h-5.222v.09c.041 1.243.759 2.023 1.873 2.023.841 0 1.422-.308 1.668-.862zM250.435 25h-4.218v-9.864h4.122c1.873 0 3 .943 3 2.46 0 1.04-.765 1.956-1.756 2.113v.123c1.326.123 2.242 1.08 2.242 2.365 0 1.73-1.285 2.803-3.39 2.803zm-2.455-8.463v2.748h1.703c1.25 0 1.914-.485 1.914-1.374 0-.868-.622-1.374-1.689-1.374h-1.928zm0 7.062h2.051c1.3 0 1.99-.534 1.99-1.538 0-.985-.711-1.504-2.058-1.504h-1.983v3.042zm10.138.191c1.026 0 1.791-.663 1.791-1.531v-.595l-1.688.11c-.95.061-1.395.403-1.395 1.011 0 .63.54 1.005 1.292 1.005zm-.499 1.333c-1.442 0-2.474-.875-2.474-2.242 0-1.354 1.018-2.133 2.836-2.242l1.928-.117v-.628c0-.732-.492-1.142-1.408-1.142-.78 0-1.313.273-1.47.78h-1.6c.137-1.32 1.375-2.16 3.152-2.16 1.92 0 3.001.936 3.001 2.522V25h-1.634v-1.025h-.116c-.417.724-1.237 1.148-2.215 1.148zm6.002-.123v-7.479h1.634v1.163h.116c.205-.739 1.005-1.286 1.962-1.286.24 0 .533.028.697.076v1.572c-.13-.048-.594-.096-.861-.096-1.087 0-1.853.684-1.853 1.73V25h-1.695zm15.935-4.963h-1.614c-.157-.724-.717-1.244-1.647-1.244-1.162 0-1.853.895-1.853 2.447 0 1.573.698 2.489 1.853 2.489.882 0 1.47-.417 1.647-1.197h1.614c-.185 1.566-1.36 2.618-3.254 2.618-2.25 0-3.575-1.449-3.575-3.91 0-2.427 1.319-3.869 3.568-3.869 1.92 0 3.083 1.094 3.26 2.666zM281.244 25V14.63h1.668v4.101h.123c.356-.84 1.237-1.346 2.352-1.346 1.675 0 2.645 1.011 2.645 2.789V25h-1.688v-4.423c0-1.135-.547-1.716-1.586-1.716-1.114 0-1.819.725-1.819 1.798V25h-1.695zm11.355-1.21c1.025 0 1.79-.663 1.79-1.531v-.595l-1.688.11c-.95.061-1.394.403-1.394 1.011 0 .63.54 1.005 1.292 1.005zm-.5 1.333c-1.442 0-2.474-.875-2.474-2.242 0-1.354 1.019-2.133 2.837-2.242l1.928-.117v-.628c0-.732-.493-1.142-1.409-1.142-.779 0-1.312.273-1.47.78h-1.599c.137-1.32 1.374-2.16 3.151-2.16 1.921 0 3.001.936 3.001 2.522V25h-1.633v-1.025h-.117c-.417.724-1.237 1.148-2.214 1.148zm6.003-.123v-7.479h1.633v1.163h.117c.205-.739 1.004-1.286 1.961-1.286.24 0 .534.028.698.076v1.572c-.13-.048-.595-.096-.862-.096-1.087 0-1.852.684-1.852 1.73V25h-1.695zm6.282-9.263h1.688v1.832h1.64v1.354h-1.64v3.67c0 .739.315 1.067 1.026 1.067.239 0 .362-.014.56-.034v1.326a4.59 4.59 0 0 1-.875.082c-1.716 0-2.4-.58-2.4-2.03v-4.081h-1.216v-1.354h1.217v-1.832z" fill="#512DA8"/></g></svg>