<svg height="320" viewBox="0 0 400 320" width="400" xmlns="http://www.w3.org/2000/svg" xmlns:xlink="http://www.w3.org/1999/xlink"><mask id="a" fill="#fff"><path d="m367.996345 75.3090462c-.37132-37.9004248-36.904849-68.91457013-81.668578-69.32878242-8.56673-.08701751-17.097203.95608328-25.284715 3.0917989-31.806842 8.31013412-66.068766 7.88112852-97.124231-2.26337431-13.839791-4.51534145-28.546996-6.82373642-43.378924-6.80861455-66.523087 0-120.75766313 46.07372088-120.53923955 102.39179918.16163345 41.180838 29.13333775 76.607084 70.76924155 92.617129 26.1190923 10.044648 48.546826 25.888268 64.124796 46.284525 22.237074 29.19399 60.500023 46.795477 101.532019 46.706135 66.719669-.118347 120.980456-46.67285 120.272763-103.153655-.071211-5.786886-.720054-11.558323-1.939601-17.252681-4.805319-22.415542-1.83039-45.419118 7.797722-66.695576 3.691059-8.1656494 5.536014-16.8459574 5.438747-25.5887038z" fill="none"/></mask><g fill="none" fill-rule="evenodd" mask="url(#a)" transform="translate(16 16)"><rect fill="#512da8" height="288" opacity=".04" rx="3" width="368"/><path d="m3 0h362c1.656854 0 3 1.34314575 3 3v29h-368v-29c0-1.65685425 1.34314575-3 3-3z" fill="#512da8" opacity=".1"/><path d="m0 64h368v32h-368z" fill="#512da8" opacity=".04"/><path d="m0 128h368v32h-368z" fill="#512da8" opacity=".04"/><path d="m0 192h368v32h-368z" fill="#512da8" opacity=".04"/><path d="m0 256h368v29c0 1.656854-1.343146 3-3 3h-362c-1.65685425 0-3-1.343146-3-3z" fill="#512da8" opacity=".04"/><path d="m92 0v288" opacity=".1" stroke="#512da8" stroke-width="2"/><path d="m184 0v288" opacity=".1" stroke="#512da8" stroke-width="2"/><path d="m276 0v288" opacity=".1" stroke="#512da8" stroke-width="2"/><rect fill="#512da8" height="12" rx="3" width="48" x="284" y="42"/><rect fill="#5182f8" height="12" rx="3" width="32" x="284" y="74"/><rect fill="#009688" height="12" rx="3" width="64" x="284" y="106"/><rect fill="#f84f77" height="12" rx="3" width="72" x="284" y="138"/><rect fill="#512da8" height="12" rx="3" width="64" x="284" y="170"/><rect fill="#512da8" height="12" rx="3" width="48" x="284" y="202"/><rect fill="#5182f8" height="12" rx="3" width="64" x="284" y="234"/><rect fill="#f84f77" height="12" rx="3" width="32" x="284" y="266"/><g fill="#512da8"><rect height="12" opacity=".2" rx="3" width="64" x="192" y="42"/><rect height="12" opacity=".2" rx="3" width="32" x="192" y="74"/><rect height="12" opacity=".2" rx="3" width="32" x="192" y="106"/><rect height="12" opacity=".2" rx="3" width="48" x="192" y="138"/><rect height="12" opacity=".2" rx="3" width="64" x="192" y="170"/><rect height="12" opacity=".2" rx="3" width="48" x="192" y="202"/><rect height="12" opacity=".2" rx="3" width="64" x="192" y="234"/><rect height="12" opacity=".2" rx="3" width="32" x="192" y="266"/><rect height="12" opacity=".2" rx="3" width="48" x="100" y="42"/><rect height="12" opacity=".2" rx="3" width="32" x="100" y="74"/><rect height="12" opacity=".2" rx="3" width="48" x="100" y="106"/><rect height="12" opacity=".2" rx="3" width="32" x="100" y="138"/><rect height="12" opacity=".2" rx="3" width="32" x="100" y="170"/><rect height="12" opacity=".2" rx="3" width="48" x="100" y="202"/><rect height="12" opacity=".2" rx="3" width="48" x="100" y="234"/><rect height="12" opacity=".2" rx="3" width="32" x="100" y="266"/><rect height="12" opacity=".2" rx="3" width="48" x="8" y="42"/><rect height="12" opacity=".2" rx="3" width="32" x="8" y="74"/><rect height="12" opacity=".2" rx="3" width="64" x="8" y="106"/><rect height="12" opacity=".2" rx="3" width="32" x="8" y="138"/><rect height="12" opacity=".2" rx="3" width="64" x="8" y="170"/><rect height="12" opacity=".2" rx="3" width="48" x="8" y="202"/><rect height="12" opacity=".2" rx="3" width="64" x="8" y="234"/><rect height="12" opacity=".2" rx="3" width="64" x="8" y="266"/><rect height="12" opacity=".2" rx="3" width="64" x="192" y="10"/><rect height="12" opacity=".2" rx="3" width="32" x="100" y="10"/><rect height="12" opacity=".2" rx="3" width="64" x="7" y="10"/><rect height="12" opacity=".2" rx="3" width="48" x="284" y="10"/></g></g></svg>