<svg width="400" height="320" viewBox="0 0 400 320" xmlns="http://www.w3.org/2000/svg" xmlns:xlink="http://www.w3.org/1999/xlink"><title>illustration/files</title><defs><rect id="b" x="3.625" y="6" width="224.75" height="186" rx="3"/><filter x="-24.9%" y="-21.5%" width="149.8%" height="160.2%" filterUnits="objectBoundingBox" id="a"><feOffset dy="16" in="SourceAlpha" result="shadowOffsetOuter1"/><feGaussianBlur stdDeviation="16" in="shadowOffsetOuter1" result="shadowBlurOuter1"/><feColorMatrix values="0 0 0 0 0.139296534 0 0 0 0 0.0722663527 0 0 0 0 0.301286139 0 0 0 1 0" in="shadowBlurOuter1"/></filter><rect id="d" width="232" height="192" rx="4"/><filter x="-.6%" y="-.8%" width="101.3%" height="101.6%" filterUnits="objectBoundingBox" id="c"><feMorphology radius=".5" operator="dilate" in="SourceAlpha" result="shadowSpreadOuter1"/><feOffset in="shadowSpreadOuter1" result="shadowOffsetOuter1"/><feColorMatrix values="0 0 0 0 0.141176471 0 0 0 0 0.0705882353 0 0 0 0 0.301960784 0 0 0 0.1 0" in="shadowOffsetOuter1"/></filter><rect id="f" width="56" height="56" rx="4"/><filter x="-94.6%" y="-80.4%" width="289.3%" height="289.3%" filterUnits="objectBoundingBox" id="e"><feMorphology radius="1" operator="dilate" in="SourceAlpha" result="shadowSpreadOuter1"/><feOffset dy="8" in="shadowSpreadOuter1" result="shadowOffsetOuter1"/><feGaussianBlur stdDeviation="16" in="shadowOffsetOuter1" result="shadowBlurOuter1"/><feComposite in="shadowBlurOuter1" in2="SourceAlpha" operator="out" result="shadowBlurOuter1"/><feColorMatrix values="0 0 0 0 0 0 0 0 0 0 0 0 0 0 0 0 0 0 0.4 0" in="shadowBlurOuter1"/></filter><rect id="h" x="72" y="16" width="128" height="24" rx="12"/><filter x="-40.6%" y="-183.3%" width="181.2%" height="533.3%" filterUnits="objectBoundingBox" id="g"><feOffset dy="8" in="SourceAlpha" result="shadowOffsetOuter1"/><feGaussianBlur stdDeviation="16" in="shadowOffsetOuter1" result="shadowBlurOuter1"/><feColorMatrix values="0 0 0 0 0 0 0 0 0 0 0 0 0 0 0 0 0 0 0.4 0" in="shadowBlurOuter1"/></filter><path d="M10.03 19s-2.219-1.699-3-3c-.78-1.301-2.26-2.959-2-4 .26-1.041 1.22-1.37 2-.588.781.78.98 2.348 1.5 2.088.52-.26.52-1.569 0-3S6.467 6 7.53 6c1.063 0 1.5 0 2 1.5s.61 3.5 1 3.5 0 .412.54-1c.063-.165-.07-3.376 0-3.5.188-.332.262-1.5.984-1.5.346 0 .976.5.976 2.5s.117 3.5.5 3.5c.5 0 .5.041.5-1V7.5c0-.5.884-1.5 1.464-1.5 1 0 .516 5 1.036 5 .225 0 1-2 1-2s.716-1 1-1c1 0 .5 3 0 4s-.219 2.959-1 4l-1.5 2s0 1-.536 1H10.03zm3-3c0 .27.232 1 .5 1 .276 0 .5-.725.5-1v-2c0-.27-.232-1-.5-1-.276 0-.5.725-.5 1v2zm2 0c0 .27.232 1 .5 1 .276 0 .5-.725.5-1v-2c0-.27-.232-1-.5-1-.276 0-.5.725-.5 1v2zm-4 0c0 .27.232 1 .5 1 .276 0 .5-.725.5-1v-2c0-.27-.232-1-.5-1-.276 0-.5.725-.5 1v2z" id="j"/><filter x="-31.9%" y="-25%" width="163.8%" height="164.3%" filterUnits="objectBoundingBox" id="i"><feMorphology radius="1" operator="dilate" in="SourceAlpha" result="shadowSpreadOuter1"/><feOffset dy="1" in="shadowSpreadOuter1" result="shadowOffsetOuter1"/><feGaussianBlur stdDeviation="1" in="shadowOffsetOuter1" result="shadowBlurOuter1"/><feComposite in="shadowBlurOuter1" in2="SourceAlpha" operator="out" result="shadowBlurOuter1"/><feColorMatrix values="0 0 0 0 0 0 0 0 0 0 0 0 0 0 0 0 0 0 1 0" in="shadowBlurOuter1"/></filter></defs><g transform="translate(16 16)" fill="none" fill-rule="evenodd"><g transform="translate(0 10)"><g transform="translate(0 78)"><rect fill="#DCD5EE" width="272" height="12" rx="4"/><rect fill="#DCD5EE" y="32" width="136" height="12" rx="4"/><rect fill="#512DA8" x="152" y="32" width="120" height="12" rx="4"/><rect fill="#DCD5EE" y="64" width="168" height="12" rx="4"/><rect fill="#DCD5EE" y="96" width="92" height="12" rx="4"/><rect fill="#DCD5EE" y="176" width="136" height="12" rx="4"/><rect fill="#5182F8" fill-rule="nonzero" y="142" width="272" height="4" rx="2"/></g><path d="M2.572 1.545v5.402c0 1.143.715 1.91 1.969 1.91s1.963-.767 1.963-1.91V1.545h1.512v5.543c0 1.846-1.336 3.123-3.475 3.123-2.139 0-3.475-1.277-3.475-3.123V1.545h1.506zM9.82 5.424c0-1.16 1.055-1.963 2.567-1.963 1.523 0 2.478.674 2.584 1.84h-1.366c-.105-.451-.533-.739-1.212-.739-.663 0-1.16.317-1.16.78 0 .363.304.586.949.732l1.13.258c1.225.275 1.793.803 1.793 1.746 0 1.23-1.13 2.05-2.73 2.05s-2.607-.69-2.719-1.857h1.436c.14.475.592.756 1.318.756.733 0 1.242-.322 1.242-.797 0-.363-.275-.591-.884-.726L11.63 7.24c-1.23-.281-1.81-.85-1.81-1.816zm9.446-.809c-.868 0-1.477.621-1.541 1.559h3.017c-.03-.95-.603-1.559-1.476-1.559zm1.488 3.621h1.377c-.276 1.166-1.336 1.893-2.848 1.893-1.887 0-3.023-1.248-3.023-3.31 0-2.063 1.154-3.358 3.011-3.358 1.829 0 2.924 1.213 2.924 3.234v.47H17.72v.075c.035 1.067.65 1.735 1.605 1.735.72 0 1.219-.264 1.43-.739zm2.9 1.764V3.59h1.4v.996h.1c.176-.633.862-1.102 1.682-1.102.205 0 .457.024.598.065v1.347c-.112-.04-.51-.082-.739-.082-.931 0-1.588.586-1.588 1.483V10h-1.453zm8.584-7.94h1.448v1.57h1.406v1.161h-1.406v3.146c0 .633.27.915.878.915.206 0 .311-.012.48-.03V9.96c-.204.041-.468.07-.75.07-1.47 0-2.056-.498-2.056-1.74V4.791h-1.043v-1.16h1.043V2.06zM39.2 4.616c-.867 0-1.476.621-1.54 1.559h3.017c-.03-.95-.604-1.559-1.477-1.559zm1.489 3.621h1.376c-.275 1.166-1.335 1.893-2.847 1.893-1.887 0-3.024-1.248-3.024-3.31 0-2.063 1.155-3.358 3.012-3.358 1.828 0 2.924 1.213 2.924 3.234v.47h-4.477v.075c.035 1.067.65 1.735 1.606 1.735.72 0 1.219-.264 1.43-.739zm2.753-2.812c0-1.16 1.055-1.963 2.567-1.963 1.523 0 2.478.674 2.584 1.84h-1.365c-.106-.451-.534-.739-1.213-.739-.662 0-1.16.317-1.16.78 0 .363.304.586.949.732l1.13.258c1.225.275 1.794.803 1.794 1.746 0 1.23-1.131 2.05-2.73 2.05-1.6 0-2.608-.69-2.72-1.857h1.436c.14.475.592.756 1.318.756.733 0 1.242-.322 1.242-.797 0-.363-.275-.591-.884-.726l-1.137-.264c-1.23-.281-1.81-.85-1.81-1.816zm7.22-3.363h1.446v1.57h1.407v1.16h-1.407v3.146c0 .633.27.915.88.915.204 0 .31-.012.48-.03V9.96c-.205.041-.469.07-.75.07-1.47 0-2.057-.498-2.057-1.74V4.791h-1.043v-1.16h1.043V2.06zM54.948 10V3.59h1.447V10H54.95zm.72-7.453c-.526 0-.896-.34-.896-.803s.37-.803.897-.803c.533 0 .896.34.896.803s-.363.803-.896.803zM58.196 10V3.59h1.4v1.025h.1C60 3.9 60.75 3.461 61.711 3.461c1.43 0 2.232.861 2.232 2.39V10h-1.447V6.197c0-.978-.445-1.47-1.324-1.47-.938 0-1.524.597-1.524 1.54V10h-1.453zm11.848-3.275c0-1.225-.615-2.004-1.623-2.004-1.014 0-1.588.779-1.588 2.004 0 1.224.574 1.998 1.588 1.998 1.014 0 1.623-.774 1.623-1.998zm-1.623 5.713c-1.647 0-2.725-.727-2.842-1.829h1.46c.093.44.608.721 1.405.721.996 0 1.577-.469 1.577-1.271V8.846h-.1c-.37.685-1.066 1.06-1.957 1.06-1.617 0-2.625-1.254-2.625-3.181 0-1.963 1.014-3.24 2.648-3.24.873 0 1.635.433 1.987 1.13h.1V3.59h1.4v6.433c0 1.483-1.184 2.415-3.053 2.415zm7.887-7.014c0-1.16 1.054-1.963 2.566-1.963 1.523 0 2.479.674 2.584 1.84h-1.365c-.106-.451-.533-.739-1.213-.739-.662 0-1.16.317-1.16.78 0 .363.304.586.949.732l1.13.258c1.225.275 1.794.803 1.794 1.746 0 1.23-1.131 2.05-2.73 2.05-1.6 0-2.608-.69-2.72-1.857h1.436c.14.475.592.756 1.318.756.733 0 1.243-.322 1.243-.797 0-.363-.276-.591-.885-.726l-1.137-.264c-1.23-.281-1.81-.85-1.81-1.816zm9.445-.809c-.867 0-1.477.621-1.541 1.559h3.018c-.03-.95-.604-1.559-1.477-1.559zm1.488 3.621h1.377c-.275 1.166-1.336 1.893-2.847 1.893-1.887 0-3.024-1.248-3.024-3.31 0-2.063 1.154-3.358 3.012-3.358 1.828 0 2.924 1.213 2.924 3.234v.47h-4.477v.075c.035 1.067.65 1.735 1.606 1.735.72 0 1.218-.264 1.43-.739zm2.754-2.812c0-1.16 1.055-1.963 2.567-1.963 1.523 0 2.478.674 2.584 1.84h-1.366c-.105-.451-.533-.739-1.213-.739-.662 0-1.16.317-1.16.78 0 .363.305.586.95.732l1.13.258c1.225.275 1.793.803 1.793 1.746 0 1.23-1.13 2.05-2.73 2.05s-2.608-.69-2.719-1.857h1.436c.14.475.591.756 1.318.756.732 0 1.242-.322 1.242-.797 0-.363-.275-.591-.885-.726l-1.136-.264c-1.23-.281-1.81-.85-1.81-1.816zm6.61 0c0-1.16 1.054-1.963 2.566-1.963 1.523 0 2.478.674 2.584 1.84h-1.365c-.106-.451-.534-.739-1.213-.739-.662 0-1.16.317-1.16.78 0 .363.304.586.949.732l1.13.258c1.225.275 1.794.803 1.794 1.746 0 1.23-1.131 2.05-2.73 2.05-1.6 0-2.608-.69-2.72-1.857h1.436c.14.475.592.756 1.318.756.733 0 1.243-.322 1.243-.797 0-.363-.276-.591-.885-.726l-1.137-.264c-1.23-.281-1.81-.85-1.81-1.816zM103.377 10V3.59h1.447V10h-1.447zm.72-7.453c-.527 0-.896-.34-.896-.803s.37-.803.897-.803c.533 0 .896.34.896.803s-.363.803-.896.803zm5.292 6.363c1.013 0 1.588-.773 1.588-2.115 0-1.336-.58-2.115-1.588-2.115-1.014 0-1.594.779-1.594 2.115 0 1.342.58 2.115 1.594 2.115zm0 1.219c-1.922 0-3.082-1.254-3.082-3.334 0-2.068 1.177-3.334 3.082-3.334 1.91 0 3.082 1.26 3.082 3.334 0 2.08-1.166 3.334-3.082 3.334zm4.547-.129V3.59h1.4v1.025h.1c.304-.715 1.054-1.154 2.015-1.154 1.43 0 2.233.861 2.233 2.39V10h-1.448V6.197c0-.978-.445-1.47-1.324-1.47-.937 0-1.523.597-1.523 1.54V10h-1.453zm7.324-4.576c0-1.16 1.054-1.963 2.566-1.963 1.524 0 2.479.674 2.584 1.84h-1.365c-.106-.451-.533-.739-1.213-.739-.662 0-1.16.317-1.16.78 0 .363.305.586.95.732l1.13.258c1.225.275 1.793.803 1.793 1.746 0 1.23-1.13 2.05-2.73 2.05s-2.608-.69-2.72-1.857h1.436c.14.475.592.756 1.319.756.732 0 1.242-.322 1.242-.797 0-.363-.276-.591-.885-.726l-1.137-.264c-1.23-.281-1.81-.85-1.81-1.816z" fill="#24124D" opacity=".6"/><path d="M1.094 42.172h2.46c.157 1.26 1.407 2.07 3.194 2.07 1.66 0 2.861-.85 2.861-2.031 0-1.016-.771-1.611-2.578-2.031l-1.826-.42c-2.559-.576-3.76-1.846-3.76-3.946 0-2.558 2.09-4.257 5.244-4.257 2.96 0 5.098 1.699 5.215 4.12H9.492c-.176-1.24-1.27-2.02-2.812-2.02-1.621 0-2.696.78-2.696 1.982 0 .947.713 1.504 2.461 1.904l1.621.371c2.862.645 4.063 1.836 4.063 3.984 0 2.745-2.12 4.454-5.537 4.454-3.233 0-5.371-1.622-5.498-4.18zm18.095-5.147c-1.445 0-2.46 1.036-2.568 2.598h5.03c-.05-1.582-1.006-2.598-2.462-2.598zm2.48 6.036h2.296c-.46 1.943-2.227 3.154-4.746 3.154-3.145 0-5.04-2.08-5.04-5.518 0-3.437 1.925-5.595 5.02-5.595 3.047 0 4.873 2.021 4.873 5.39v.781h-7.46v.127c.058 1.778 1.083 2.891 2.675 2.891 1.201 0 2.031-.44 2.383-1.23zm4.59-4.688c0-1.934 1.759-3.271 4.278-3.271 2.54 0 4.131 1.123 4.307 3.066h-2.276c-.175-.752-.888-1.23-2.021-1.23-1.104 0-1.934.527-1.934 1.298 0 .606.508.977 1.582 1.221l1.885.43c2.041.459 2.988 1.338 2.988 2.91 0 2.05-1.884 3.418-4.55 3.418s-4.346-1.153-4.532-3.096h2.393c.234.791.986 1.26 2.197 1.26 1.22 0 2.07-.537 2.07-1.328 0-.606-.459-.987-1.474-1.211l-1.895-.44c-2.05-.468-3.017-1.416-3.017-3.027zm11.016 0c0-1.934 1.758-3.271 4.278-3.271 2.539 0 4.13 1.123 4.306 3.066h-2.275c-.176-.752-.889-1.23-2.022-1.23-1.103 0-1.933.527-1.933 1.298 0 .606.508.977 1.582 1.221l1.885.43c2.04.459 2.988 1.338 2.988 2.91 0 2.05-1.885 3.418-4.55 3.418-2.667 0-4.346-1.153-4.532-3.096h2.393c.234.791.986 1.26 2.197 1.26 1.22 0 2.07-.537 2.07-1.328 0-.606-.459-.987-1.474-1.211l-1.895-.44c-2.05-.468-3.018-1.416-3.018-3.027zM48.565 46V35.316h2.412V46h-2.413zm1.2-12.422c-.878 0-1.494-.566-1.494-1.338 0-.771.616-1.338 1.495-1.338.888 0 1.494.567 1.494 1.338 0 .772-.606 1.338-1.494 1.338zm8.819 10.606c1.69 0 2.646-1.29 2.646-3.526 0-2.226-.966-3.525-2.646-3.525-1.69 0-2.656 1.299-2.656 3.525 0 2.237.967 3.526 2.656 3.526zm0 2.03c-3.203 0-5.137-2.089-5.137-5.556 0-3.447 1.963-5.556 5.137-5.556 3.184 0 5.137 2.1 5.137 5.556 0 3.467-1.944 5.557-5.137 5.557zM66.162 46V35.316h2.334v1.71h.166c.508-1.192 1.758-1.924 3.36-1.924 2.382 0 3.72 1.435 3.72 3.984V46H73.33v-6.338c0-1.63-.742-2.451-2.207-2.451-1.562 0-2.539.996-2.539 2.568V46h-2.422zm24.307 0v-2.627h-6.885v-2.246c1.27-2.334 3.252-5.469 5.742-9.219h3.555v9.336h1.904v2.129h-1.904V46h-2.412zm-4.551-4.844v.147h4.59v-7.344h-.137a106.129 106.129 0 0 0-4.453 7.197zm25.322.303h-10v-2.275h10v2.275zm6.104.703h2.46c.02 1.162.821 1.924 2.022 1.924 1.319 0 2.051-.8 2.051-2.315v-9.863h2.52v9.883c0 2.9-1.71 4.56-4.542 4.56-2.695 0-4.511-1.64-4.511-4.189zm15.927 2.11c1.465 0 2.56-.948 2.56-2.188v-.85l-2.413.157c-1.357.088-1.992.576-1.992 1.445 0 .898.771 1.435 1.845 1.435zm-.712 1.904c-2.061 0-3.536-1.25-3.536-3.203 0-1.934 1.456-3.047 4.053-3.203l2.754-.166v-.899c0-1.045-.703-1.63-2.012-1.63-1.113 0-1.875.39-2.1 1.112h-2.284c.195-1.884 1.962-3.085 4.502-3.085 2.744 0 4.287 1.337 4.287 3.603V46h-2.334v-1.465h-.166c-.596 1.035-1.768 1.64-3.164 1.64zm8.574-.176V35.316h2.334v1.71h.166c.508-1.192 1.758-1.924 3.36-1.924 2.382 0 3.72 1.435 3.72 3.984V46H148.3v-6.338c0-1.63-.742-2.451-2.207-2.451-1.563 0-2.54.996-2.54 2.568V46h-2.421zm16.933-8.975c-1.445 0-2.46 1.036-2.568 2.598h5.03c-.05-1.582-1.007-2.598-2.462-2.598zm2.48 6.036h2.296c-.46 1.943-2.227 3.154-4.746 3.154-3.145 0-5.04-2.08-5.04-5.518 0-3.437 1.924-5.595 5.02-5.595 3.047 0 4.873 2.021 4.873 5.39v.781h-7.46v.127c.058 1.778 1.083 2.891 2.675 2.891 1.201 0 2.031-.44 2.383-1.23zm10.42-11.153h5.284c4.19 0 6.63 2.559 6.63 6.983 0 4.521-2.411 7.109-6.63 7.109h-5.283V31.908zm2.52 2.178v9.736h2.432c2.803 0 4.394-1.748 4.394-4.892 0-3.076-1.63-4.844-4.394-4.844h-2.432zm16.621 10.098c1.69 0 2.647-1.29 2.647-3.526 0-2.226-.967-3.525-2.647-3.525-1.689 0-2.656 1.299-2.656 3.525 0 2.237.967 3.526 2.656 3.526zm0 2.03c-3.203 0-5.136-2.089-5.136-5.556 0-3.447 1.963-5.556 5.136-5.556 3.184 0 5.137 2.1 5.137 5.556 0 3.467-1.943 5.557-5.137 5.557zm12.061-9.189c-1.445 0-2.461 1.036-2.568 2.598h5.029c-.049-1.582-1.006-2.598-2.461-2.598zm2.48 6.036h2.295c-.459 1.943-2.226 3.154-4.746 3.154-3.144 0-5.039-2.08-5.039-5.518 0-3.437 1.924-5.595 5.02-5.595 3.047 0 4.873 2.021 4.873 5.39v.781h-7.461v.127c.058 1.778 1.084 2.891 2.676 2.891 1.2 0 2.03-.44 2.382-1.23z" fill="#24124D"/></g><g transform="translate(112)"><g opacity=".2"><use fill="#000" filter="url(#a)" xlink:href="#b"/><use fill="#FFF" xlink:href="#b"/></g><use fill="#000" filter="url(#c)" xlink:href="#d"/><use fill="#FFF" xlink:href="#d"/><g transform="translate(88 48)"><rect stroke="#FEDCE4" fill="#FEE9EE" fill-rule="nonzero" x=".5" y=".5" width="55" height="55" rx="4"/><g transform="translate(18 18)" stroke="#F84F77" stroke-linecap="round" stroke-linejoin="round" stroke-width="2"><rect width="20" height="20" rx="2.18"/><path d="M5 0v20M15 0v20M0 10h20M0 5h5M0 15h5m10 0h5M15 5h5"/></g></g><g transform="translate(16 120)"><rect stroke="#CCEAE7" fill="#E0F2F0" fill-rule="nonzero" x=".5" y=".5" width="55" height="55" rx="4"/><g transform="translate(18 18)" stroke="#009688" stroke-linecap="round" stroke-linejoin="round" stroke-width="2"><rect width="20" height="20" rx="3"/><path d="M8 0v20V0zM0 7h20H0z"/></g></g><g transform="translate(88 120)"><rect stroke="#F4F3F6" fill="#FBFAFC" fill-rule="nonzero" x=".5" y=".5" width="55" height="55" rx="4"/><g transform="translate(19 19)" stroke="#E4E2E9" stroke-linecap="round" stroke-linejoin="round" stroke-width="2"><path d="M6 14H2a2 2 0 1 0 0 4h2a2 2 0 0 0 2-2v-2zm12-2h-4a2 2 0 1 0 0 4h2a2 2 0 0 0 2-2v-2z"/><path d="M6 14L6 2 18 0 18 12"/></g></g><g transform="translate(160 120)"><rect stroke="#FADDD7" fill="#FBEAE6" fill-rule="nonzero" x=".5" y=".5" width="55" height="55" rx="4"/><g transform="translate(18 18)" stroke="#E45735" stroke-linecap="round" stroke-linejoin="round" stroke-width="2"><rect width="20" height="20" rx="2.18"/><circle cx="6.5" cy="6.5" r="1.5"/><path d="M20 14L14 8 2 20"/></g></g><g transform="translate(160 48)"><rect stroke="#FFF0CC" fill="#FFF5E0" fill-rule="nonzero" x=".5" y=".5" width="55" height="55" rx="4"/><g transform="translate(19 19)" stroke="#BF6E33" stroke-linecap="round" stroke-linejoin="round" stroke-width="2"><path d="M6 14H2a2 2 0 1 0 0 4h2a2 2 0 0 0 2-2v-2zm12-2h-4a2 2 0 1 0 0 4h2a2 2 0 0 0 2-2v-2z"/><path d="M6 14L6 2 18 0 18 12"/></g></g><g transform="translate(16 48)"><rect stroke="#DCE6FE" fill="#EAF0FE" fill-rule="nonzero" x=".5" y=".5" width="55" height="55" rx="4"/><g transform="translate(20 18)" stroke="#5182F8" stroke-linecap="round" stroke-linejoin="round" stroke-width="2"><path d="M10 0H2a2 2 0 0 0-2 2v16a2 2 0 0 0 2 2h12a2 2 0 0 0 2-2V6l-6-6z"/><path d="M10 0L10 6 16 6"/><path d="M12 11H4m8 4H4"/><path d="M6 7L5 7 4 7"/></g></g><path d="M4 0h224a4 4 0 0 1 4 4v28H0V4a4 4 0 0 1 4-4z" fill="#F4F3F6" fill-rule="nonzero"/><circle fill="#FF6058" fill-rule="nonzero" cx="21" cy="16" r="5"/><circle fill="#FFC12F" fill-rule="nonzero" cx="37" cy="16" r="5"/><circle fill="#2ACE42" fill-rule="nonzero" cx="53" cy="16" r="5"/></g><g transform="translate(48 208)"><g fill-rule="nonzero"><use fill="#000" filter="url(#e)" xlink:href="#f"/><rect stroke-opacity=".1" stroke="#24124D" fill="#FFF5E0" fill-rule="evenodd" x="-.5" y="-.5" width="57" height="57" rx="4"/></g><g transform="translate(19 19)" stroke="#BF6E33" stroke-linecap="round" stroke-linejoin="round" stroke-width="2"><path d="M6 14H2a2 2 0 1 0 0 4h2a2 2 0 0 0 2-2v-2zm12-2h-4a2 2 0 1 0 0 4h2a2 2 0 0 0 2-2v-2z"/><path d="M6 14L6 2 18 0 18 12"/></g><g fill-rule="nonzero"><use fill="#000" filter="url(#g)" xlink:href="#h"/><use fill="#5182F8" xlink:href="#h"/></g><path d="M83.998 32v-7.54h1.928v1.203h.123c.198-.752.97-1.326 1.914-1.326.266 0 .595.034.766.096v1.811c-.158-.061-.643-.123-.93-.123-1.067 0-1.812.643-1.812 1.702V32h-1.989zm9.304-6.18c-.923 0-1.573.643-1.64 1.62h3.212c-.041-.998-.643-1.62-1.572-1.62zm1.613 4.034h1.853c-.301 1.421-1.6 2.31-3.446 2.31-2.297 0-3.65-1.45-3.65-3.896 0-2.455 1.38-3.972 3.623-3.972 2.222 0 3.534 1.415 3.534 3.808v.608h-5.175v.102c.028 1.122.684 1.819 1.723 1.819.786 0 1.326-.28 1.538-.78zm10.213-2.735h-1.86c-.136-.718-.649-1.19-1.497-1.19-1.073 0-1.674.8-1.674 2.284 0 1.504.608 2.317 1.674 2.317.814 0 1.347-.396 1.498-1.141h1.859c-.164 1.688-1.395 2.775-3.357 2.775-2.351 0-3.684-1.422-3.684-3.951 0-2.502 1.326-3.917 3.684-3.917 1.997 0 3.193 1.107 3.357 2.823zm4.894 3.418c1.06 0 1.668-.848 1.668-2.31 0-1.45-.615-2.304-1.668-2.304-1.06 0-1.668.854-1.668 2.304 0 1.47.602 2.31 1.668 2.31zm0 1.627c-2.317 0-3.711-1.47-3.711-3.937 0-2.44 1.415-3.931 3.711-3.931 2.297 0 3.712 1.483 3.712 3.93 0 2.468-1.394 3.938-3.712 3.938zm5.332-.164v-7.54h1.928v1.203h.123c.199-.752.971-1.326 1.914-1.326.267 0 .595.034.766.096v1.811c-.157-.061-.643-.123-.93-.123-1.066 0-1.811.643-1.811 1.702V32h-1.99zm8.744.116c-1.9 0-3.07-1.49-3.07-3.896 0-2.4 1.176-3.883 3.07-3.883 1.018 0 1.859.492 2.249 1.326h.116v-4.081h1.99V32h-1.929v-1.183h-.123c-.403.814-1.257 1.3-2.303 1.3zm.676-6.111c-1.06 0-1.702.84-1.702 2.222 0 1.394.636 2.228 1.702 2.228 1.067 0 1.71-.84 1.71-2.222 0-1.374-.65-2.228-1.71-2.228zM130.53 32v-7.54h1.99V32h-1.99zm.998-8.593c-.717 0-1.175-.417-1.175-1.005 0-.594.458-1.005 1.175-1.005.711 0 1.176.41 1.176 1.005 0 .588-.465 1.005-1.176 1.005zM134.53 32v-7.54h1.928v1.21h.123c.349-.848 1.237-1.374 2.345-1.374 1.681 0 2.632 1.025 2.632 2.83V32h-1.99v-4.402c0-1.04-.492-1.586-1.435-1.586-.985 0-1.613.65-1.613 1.64V32h-1.99zm14.028-3.835c0-1.326-.65-2.16-1.723-2.16s-1.695.834-1.695 2.153c0 1.333.615 2.16 1.695 2.16s1.723-.827 1.723-2.153zm-1.75 6.692c-2.003 0-3.33-.881-3.453-2.208h1.97c.102.465.662.76 1.524.76 1.066 0 1.688-.493 1.688-1.34v-1.395h-.123c-.417.793-1.21 1.217-2.27 1.217-1.88 0-3.048-1.456-3.048-3.726 0-2.338 1.176-3.828 3.09-3.828 1.018 0 1.886.506 2.29 1.333h.123v-1.21h1.927v7.513c0 1.77-1.442 2.884-3.718 2.884zm7.15-2.672c-.731 0-1.21-.5-1.21-1.19s.479-1.183 1.21-1.183c.738 0 1.21.493 1.21 1.183 0 .69-.472 1.19-1.21 1.19zm3.432-.185v-7.54h1.927v1.23h.123c.308-.86 1.094-1.394 2.085-1.394 1.06 0 1.785.52 2.085 1.394h.123c.35-.84 1.217-1.394 2.27-1.394 1.504 0 2.44.977 2.44 2.53V32h-1.989v-4.648c0-.896-.417-1.34-1.258-1.34-.806 0-1.326.574-1.326 1.374V32h-1.914v-4.73c0-.8-.465-1.258-1.244-1.258-.78 0-1.333.608-1.333 1.449V32h-1.99zm17.336-7.663c1.907 0 3.076 1.45 3.076 3.89 0 2.433-1.155 3.89-3.042 3.89-1.08 0-1.907-.472-2.277-1.272h-.123v3.513h-1.989V24.46h1.928v1.237h.123c.41-.847 1.265-1.36 2.304-1.36zm-.677 6.118c1.073 0 1.709-.834 1.709-2.228 0-1.381-.643-2.222-1.702-2.222-1.06 0-1.716.848-1.716 2.228 0 1.381.656 2.222 1.709 2.222zm7.78-2.734v-1.538h1.202c.937 0 1.573-.547 1.573-1.354 0-.793-.616-1.299-1.58-1.299-.957 0-1.592.54-1.647 1.395h-1.907c.068-1.866 1.456-3.042 3.61-3.042 2.023 0 3.479 1.107 3.479 2.659 0 1.142-.718 2.03-1.819 2.256v.123c1.354.15 2.201 1.053 2.201 2.351 0 1.73-1.627 2.98-3.876 2.98-2.2 0-3.691-1.216-3.78-3.075h1.976c.061.834.765 1.36 1.825 1.36 1.032 0 1.75-.58 1.75-1.422 0-.861-.677-1.394-1.784-1.394h-1.224z" fill="#FFF"/><g transform="translate(35 34)"><use fill="#000" filter="url(#i)" xlink:href="#j"/><path stroke="#000" d="M11.552 6.7zm-3.14 6.1c.06-.403-.025-1.23-.352-2.13a18.551 18.551 0 0 0-.263-.67c-.04-.1-.266-.645-.332-.806-.059-.144-.112-.275-.161-.4-.325-.819-.522-1.417-.602-1.896-.132-.795.081-1.398.828-1.398 1.484 0 1.958.292 2.475 1.842.098.294.186.618.27.985.073.313.24 1.151.316 1.524l.012-.03c-.014.036-.02-.745-.035-1.531V8.26c-.013-.613-.018-.9-.02-1.176-.002-.628 0-.677.087-.832a.833.833 0 0 0 .038-.105c.01-.033.113-.389.153-.512.234-.706.579-1.136 1.228-1.136.887 0 1.476 1.1 1.476 3 0-.799 1.128-2 1.964-2 .896 0 1.079.826 1.197 2.972.01.192.009.148.036.718l.02.402a25.33 25.33 0 0 0 .317-.773l.06-.11a8.12 8.12 0 0 1 .601-.735c.297-.312.512-.474.805-.474.898 0 1.153.88 1.062 2.16-.065.91-.324 1.982-.614 2.564-.142.283-.21.64-.306 1.478a43.57 43.57 0 0 1-.046.392c-.129 1.046-.299 1.677-.696 2.206l-1.407 1.876c-.01.135-.033.292-.077.454-.135.505-.429.87-.952.87H9.86l-.134-.103a21.751 21.751 0 0 1-1.676-1.444 13.02 13.02 0 0 1-.823-.856 6.097 6.097 0 0 1-.625-.84c-.173-.288-.259-.415-.77-1.157a43.54 43.54 0 0 1-.236-.346c-.887-1.317-1.242-2.11-1.05-2.875.356-1.427 1.788-1.87 2.838-.82.254.253.458.566.664.975.048.096.246.523.365.767zm5.299.647c-.028.025-.085.053-.18.053-.109 0-.167-.034-.192-.06a.857.857 0 0 1 .081.153c.064.151.11.34.11.407v2c0 .072-.044.26-.107.41a.73.73 0 0 1-.08.15c.035-.032.091-.06.187-.06.109 0 .167.034.192.06a.857.857 0 0 1-.082-.153 1.451 1.451 0 0 1-.11-.407v-2c0-.072.045-.26.108-.41a.73.73 0 0 1 .08-.15zm-.368 3.112a.103.103 0 0 1 .007-.006zm.379.002a.236.236 0 0 1-.008-.01zm1.989-3.114c-.028.025-.085.053-.18.053-.109 0-.167-.034-.192-.06a.857.857 0 0 1 .081.153c.064.151.11.34.11.407v2c0 .072-.044.26-.107.41a.73.73 0 0 1-.08.15c.035-.032.091-.06.187-.06.109 0 .167.034.192.06a.857.857 0 0 1-.082-.153 1.451 1.451 0 0 1-.11-.407v-2c0-.072.045-.26.108-.41a.73.73 0 0 1 .08-.15zm-.368 3.112a.103.103 0 0 1 .007-.006zm.379.002a.236.236 0 0 1-.008-.01zm-4.011-3.114c-.028.025-.085.053-.18.053-.109 0-.167-.034-.192-.06a.857.857 0 0 1 .081.153c.064.151.11.34.11.407v2c0 .072-.044.26-.107.41a.73.73 0 0 1-.08.15c.035-.032.091-.06.187-.06.109 0 .167.034.192.06a.857.857 0 0 1-.082-.153 1.451 1.451 0 0 1-.11-.407v-2c0-.072.045-.26.108-.41a.73.73 0 0 1 .08-.15zm-.368 3.112a.103.103 0 0 1 .007-.006zm.379.002a.236.236 0 0 1-.008-.01z" fill="#FFF"/></g></g></g></svg>