<svg width="400" height="320" viewBox="0 0 400 320" xmlns="http://www.w3.org/2000/svg" xmlns:xlink="http://www.w3.org/1999/xlink"><title>illustration/groups</title><defs><rect id="b" x="8" width="352" height="48" rx="3"/><filter x="-8%" y="-41.7%" width="115.9%" height="216.7%" filterUnits="objectBoundingBox" id="a"><feOffset dy="8" in="SourceAlpha" result="shadowOffsetOuter1"/><feGaussianBlur stdDeviation="8" in="shadowOffsetOuter1" result="shadowBlurOuter1"/><feColorMatrix values="0 0 0 0 0 0 0 0 0 0 0 0 0 0 0 0 0 0 0.25 0" in="shadowBlurOuter1"/></filter><path d="M238.03 31s-2.219-1.699-3-3c-.78-1.301-2.26-2.959-2-4 .26-1.041 1.22-1.37 2-.588.781.78.98 2.348 1.5 2.088.52-.26.52-1.569 0-3s-2.063-4.5-1-4.5c1.063 0 1.5 0 2 1.5s.61 3.5 1 3.5 0 .412.54-1c.063-.165-.07-3.376 0-3.5.188-.332.262-1.5.984-1.5.346 0 .976.5.976 2.5s.117 3.5.5 3.5c.5 0 .5.041.5-1v-2.5c0-.5.884-1.5 1.464-1.5 1 0 .516 5 1.036 5 .225 0 1-2 1-2s.716-1 1-1c1 0 .5 3 0 4s-.219 2.959-1 4l-1.5 2s0 1-.536 1-.813-1-1.464-1c-.65 0-1 1-1 1h-3zm6-2v-4h-1v4h1zm-3-1c0 .27.232 1 .5 1 .276 0 .5-.725.5-1v-2c0-.27-.232-1-.5-1-.276 0-.5.725-.5 1v2zm-2 0c0 .27.232 1 .5 1 .276 0 .5-.725.5-1v-2c0-.27-.232-1-.5-1-.276 0-.5.725-.5 1v2z" id="d"/><filter x="-31.9%" y="-25%" width="163.8%" height="164.3%" filterUnits="objectBoundingBox" id="c"><feMorphology radius="1" operator="dilate" in="SourceAlpha" result="shadowSpreadOuter1"/><feOffset dy="1" in="shadowSpreadOuter1" result="shadowOffsetOuter1"/><feGaussianBlur stdDeviation="1" in="shadowOffsetOuter1" result="shadowBlurOuter1"/><feComposite in="shadowBlurOuter1" in2="SourceAlpha" operator="out" result="shadowBlurOuter1"/><feColorMatrix values="0 0 0 0 0 0 0 0 0 0 0 0 0 0 0 0 0 0 1 0" in="shadowBlurOuter1"/></filter></defs><g transform="translate(8 32)" fill="none" fill-rule="evenodd"><g transform="translate(8)"><path fill="#FFF" style="mix-blend-mode:screen" d="M0 0H57V32H0z"/><path d="M11.096 20H9.394v-9.864h1.53l4.84 6.706h.117v-6.706h1.695V20h-1.524l-4.84-6.713h-.116V20zm11.97-1.271c1.182 0 1.852-.903 1.852-2.468 0-1.559-.677-2.468-1.853-2.468-1.182 0-1.859.91-1.859 2.468 0 1.565.677 2.468 1.86 2.468zm0 1.421c-2.243 0-3.596-1.462-3.596-3.89 0-2.412 1.374-3.889 3.595-3.889 2.229 0 3.596 1.47 3.596 3.89 0 2.427-1.36 3.89-3.596 3.89zm5.844-9.413H30.6v1.832h1.64v1.354H30.6v3.67c0 .739.314 1.067 1.025 1.067.24 0 .362-.014.56-.034v1.326a4.59 4.59 0 0 1-.874.082c-1.716 0-2.4-.58-2.4-2.03v-4.081h-1.217v-1.354h1.217v-1.832zm8.121 2.98c-1.011 0-1.722.725-1.798 1.82h3.52c-.033-1.108-.703-1.82-1.722-1.82zm1.737 4.225h1.606c-.321 1.36-1.559 2.208-3.322 2.208-2.201 0-3.528-1.456-3.528-3.862s1.347-3.917 3.514-3.917c2.133 0 3.411 1.415 3.411 3.774v.546h-5.222v.09c.04 1.243.758 2.023 1.873 2.023.84 0 1.421-.308 1.668-.862zm3.212-3.28c0-1.354 1.23-2.29 2.995-2.29 1.777 0 2.891.785 3.014 2.146h-1.593c-.123-.527-.622-.862-1.415-.862-.772 0-1.353.37-1.353.91 0 .423.355.683 1.107.854l1.32.3c1.428.322 2.091.937 2.091 2.038 0 1.435-1.319 2.392-3.185 2.392s-3.042-.806-3.172-2.167h1.675c.164.554.69.882 1.538.882.854 0 1.45-.376 1.45-.93 0-.423-.322-.69-1.033-.847l-1.326-.308c-1.436-.328-2.113-.99-2.113-2.119z" fill="#512DA8"/></g><g transform="translate(66)"><path fill="#FFF" style="mix-blend-mode:screen" d="M0 0H50V32H0z"/><path d="M13.57 20h-1.763v-8.34H8.77v-1.524h7.841v1.524H13.57V20zm7.267-1.21c1.025 0 1.79-.663 1.79-1.531v-.595l-1.688.11c-.95.061-1.394.403-1.394 1.011 0 .63.54 1.005 1.292 1.005zm-.5 1.333c-1.441 0-2.474-.875-2.474-2.242 0-1.354 1.019-2.133 2.837-2.242l1.928-.117v-.628c0-.732-.492-1.142-1.408-1.142-.78 0-1.313.273-1.47.78h-1.6c.137-1.32 1.374-2.16 3.152-2.16 1.92 0 3 .936 3 2.522V20H22.67v-1.025h-.116c-.417.724-1.238 1.148-2.215 1.148zm11.11-3.944c0-1.429-.718-2.338-1.894-2.338-1.183 0-1.853.909-1.853 2.338 0 1.428.67 2.33 1.853 2.33 1.182 0 1.893-.902 1.893-2.33zm-1.894 6.665c-1.921 0-3.179-.848-3.316-2.133h1.702c.11.513.711.84 1.641.84 1.162 0 1.839-.546 1.839-1.483v-1.415h-.116c-.43.8-1.244 1.238-2.283 1.238-1.887 0-3.063-1.463-3.063-3.712 0-2.29 1.183-3.78 3.09-3.78 1.018 0 1.907.505 2.317 1.319h.116V12.52h1.634v7.506c0 1.73-1.38 2.817-3.561 2.817zm5.468-8.183c0-1.353 1.231-2.29 2.995-2.29 1.777 0 2.891.786 3.014 2.147h-1.593c-.123-.527-.622-.862-1.415-.862-.772 0-1.353.37-1.353.91 0 .423.355.683 1.107.854l1.32.3c1.428.322 2.092.937 2.092 2.038 0 1.435-1.32 2.392-3.186 2.392-1.866 0-3.042-.806-3.172-2.167h1.675c.164.554.69.882 1.538.882.854 0 1.45-.376 1.45-.93 0-.423-.322-.69-1.033-.847l-1.326-.308c-1.436-.328-2.113-.99-2.113-2.119z" fill="#7B7194"/></g><g transform="translate(116)"><path fill="#FFF" style="mix-blend-mode:screen" d="M0 0H72V32H0z"/><path d="M11.288 20H9.524v-9.864h1.764V20zm2.256 0v-7.479h1.634v1.197h.116c.355-.834 1.23-1.347 2.352-1.347 1.667 0 2.604 1.005 2.604 2.79V20h-1.688v-4.437c0-1.141-.52-1.715-1.545-1.715-1.094 0-1.778.697-1.778 1.798V20h-1.695zm8.545-5.339c0-1.353 1.23-2.29 2.994-2.29 1.777 0 2.892.786 3.015 2.147h-1.593c-.123-.527-.622-.862-1.415-.862-.773 0-1.354.37-1.354.91 0 .423.356.683 1.108.854l1.32.3c1.428.322 2.09.937 2.09 2.038 0 1.435-1.318 2.392-3.185 2.392-1.866 0-3.042-.806-3.172-2.167h1.675c.164.554.69.882 1.538.882.855 0 1.45-.376 1.45-.93 0-.423-.322-.69-1.033-.847l-1.326-.308c-1.435-.328-2.112-.99-2.112-2.119zM29.99 20v-7.479h1.689V20H29.99zm.841-8.695c-.615 0-1.046-.397-1.046-.937s.43-.936 1.046-.936c.622 0 1.046.396 1.046.936s-.424.937-1.046.937zm8.053 4.874c0-1.429-.718-2.338-1.894-2.338-1.182 0-1.852.909-1.852 2.338 0 1.428.67 2.33 1.852 2.33 1.183 0 1.894-.902 1.894-2.33zm-1.894 6.665c-1.92 0-3.178-.848-3.315-2.133h1.702c.11.513.71.84 1.64.84 1.163 0 1.84-.546 1.84-1.483v-1.415h-.117c-.43.8-1.244 1.238-2.283 1.238-1.887 0-3.062-1.463-3.062-3.712 0-2.29 1.182-3.78 3.09-3.78 1.018 0 1.907.505 2.317 1.319h.116V12.52h1.634v7.506c0 1.73-1.381 2.817-3.562 2.817zM42.7 20V9.63h1.668v4.101h.123c.356-.84 1.238-1.346 2.352-1.346 1.675 0 2.645 1.011 2.645 2.789V20H47.8v-4.423c0-1.135-.547-1.716-1.586-1.716-1.114 0-1.818.725-1.818 1.798V20h-1.696zm9.338-9.263h1.689v1.832h1.64v1.354h-1.64v3.67c0 .739.314 1.067 1.025 1.067.24 0 .362-.014.56-.034v1.326a4.59 4.59 0 0 1-.874.082c-1.716 0-2.4-.58-2.4-2.03v-4.081H50.82v-1.354h1.217v-1.832zm4.813 3.924c0-1.353 1.23-2.29 2.994-2.29 1.777 0 2.891.786 3.014 2.147h-1.592c-.123-.527-.622-.862-1.415-.862-.773 0-1.354.37-1.354.91 0 .423.356.683 1.107.854l1.32.3c1.429.322 2.092.937 2.092 2.038 0 1.435-1.32 2.392-3.186 2.392-1.866 0-3.042-.806-3.172-2.167h1.675c.164.554.69.882 1.538.882.855 0 1.45-.376 1.45-.93 0-.423-.322-.69-1.033-.847l-1.326-.308c-1.436-.328-2.112-.99-2.112-2.119z" fill="#7B7194"/></g><g transform="translate(188)"><path fill="#FFF" style="mix-blend-mode:screen" d="M0 0H63V32H0z"/><path d="M13.757 20.246c-2.796 0-4.532-1.982-4.532-5.175 0-3.206 1.73-5.181 4.525-5.181 2.243 0 3.972 1.463 4.177 3.52h-1.736c-.246-1.182-1.196-1.948-2.44-1.948-1.675 0-2.721 1.38-2.721 3.602 0 2.229 1.046 3.61 2.727 3.61 1.251 0 2.201-.697 2.44-1.805h1.737c-.232 2.017-1.9 3.377-4.177 3.377zM19.78 20V9.63h1.668v4.101h.123c.355-.84 1.237-1.346 2.351-1.346 1.675 0 2.646 1.011 2.646 2.789V20h-1.689v-4.423c0-1.135-.546-1.716-1.586-1.716-1.114 0-1.818.725-1.818 1.798V20H19.78zm11.354-1.21c1.026 0 1.791-.663 1.791-1.531v-.595l-1.688.11c-.95.061-1.395.403-1.395 1.011 0 .63.54 1.005 1.292 1.005zm-.499 1.333c-1.442 0-2.474-.875-2.474-2.242 0-1.354 1.018-2.133 2.837-2.242l1.927-.117v-.628c0-.732-.492-1.142-1.408-1.142-.78 0-1.312.273-1.47.78h-1.6c.137-1.32 1.375-2.16 3.152-2.16 1.921 0 3.001.936 3.001 2.522V20h-1.634v-1.025h-.116c-.417.724-1.237 1.148-2.215 1.148zM36.637 20v-7.479h1.634v1.163h.116c.205-.739 1.005-1.286 1.962-1.286.24 0 .533.028.697.076v1.572c-.13-.048-.594-.096-.86-.096-1.088 0-1.853.684-1.853 1.73V20h-1.696zm6.282-9.263h1.689v1.832h1.64v1.354h-1.64v3.67c0 .739.314 1.067 1.025 1.067.24 0 .363-.014.56-.034v1.326a4.59 4.59 0 0 1-.874.082c-1.716 0-2.4-.58-2.4-2.03v-4.081h-1.216v-1.354h1.216v-1.832zm4.813 3.924c0-1.353 1.23-2.29 2.994-2.29 1.777 0 2.892.786 3.015 2.147h-1.593c-.123-.527-.622-.862-1.415-.862-.773 0-1.354.37-1.354.91 0 .423.356.683 1.108.854l1.32.3c1.428.322 2.09.937 2.09 2.038 0 1.435-1.318 2.392-3.185 2.392-1.866 0-3.042-.806-3.171-2.167h1.674c.164.554.69.882 1.538.882.855 0 1.45-.376 1.45-.93 0-.423-.322-.69-1.033-.847l-1.326-.308c-1.435-.328-2.112-.99-2.112-2.119z" fill="#7B7194"/></g><g transform="translate(8 64)"><rect fill="#512DA8" opacity=".08" width="368" height="48" rx="4"/><g transform="translate(16 15)"><path d="M3.75 3.727v7.14c0 1.422.852 2.328 2.36 2.328 1.515 0 2.367-.906 2.367-2.328v-7.14h2.359v7.382c0 2.5-1.836 4.18-4.727 4.18-2.882 0-4.718-1.68-4.718-4.18V3.727H3.75zm9.414 5.187c0-1.633 1.438-2.719 3.586-2.719 2.188 0 3.477.914 3.602 2.563H18.25c-.117-.555-.64-.899-1.484-.899-.813 0-1.414.368-1.414.914 0 .422.367.68 1.164.86l1.617.351c1.672.368 2.422 1.07 2.422 2.36 0 1.719-1.54 2.844-3.797 2.844-2.274 0-3.649-.93-3.805-2.586h2.219c.172.585.726.921 1.633.921.883 0 1.492-.367 1.492-.921 0-.422-.328-.68-1.086-.844l-1.563-.352c-1.671-.367-2.484-1.164-2.484-2.492zm12.984-.976c-1.054 0-1.796.734-1.875 1.851h3.672c-.047-1.14-.734-1.851-1.797-1.851zm1.844 4.609h2.117c-.343 1.625-1.828 2.64-3.937 2.64-2.625 0-4.172-1.656-4.172-4.453 0-2.804 1.578-4.539 4.14-4.539 2.54 0 4.04 1.617 4.04 4.352v.695h-5.914v.117c.03 1.282.78 2.079 1.968 2.079.899 0 1.516-.32 1.758-.891zM32.04 15V6.383h2.203v1.375h.14c.227-.86 1.11-1.516 2.188-1.516.305 0 .68.04.875.11v2.07c-.18-.07-.734-.14-1.062-.14-1.219 0-2.07.734-2.07 1.945V15h-2.274zM43.72 4.375h2.273v2.094h1.828v1.789h-1.828v3.875c0 .75.344 1.094 1.117 1.094.297 0 .446-.008.664-.032v1.735a6.253 6.253 0 0 1-1.132.101c-2.094 0-2.922-.68-2.922-2.36V8.259h-1.367v-1.79h1.367V4.376zm9.68 3.563c-1.055 0-1.797.734-1.876 1.851h3.672c-.047-1.14-.734-1.851-1.797-1.851zm1.843 4.609h2.117c-.343 1.625-1.828 2.64-3.937 2.64-2.625 0-4.172-1.656-4.172-4.453 0-2.804 1.578-4.539 4.14-4.539 2.54 0 4.04 1.617 4.04 4.352v.695h-5.914v.117c.03 1.282.78 2.079 1.968 2.079.899 0 1.516-.32 1.758-.891zm3.852-3.633c0-1.633 1.437-2.719 3.586-2.719 2.187 0 3.476.914 3.601 2.563H64.18c-.118-.555-.64-.899-1.485-.899-.812 0-1.414.368-1.414.914 0 .422.367.68 1.164.86l1.617.351c1.672.368 2.422 1.07 2.422 2.36 0 1.719-1.539 2.844-3.796 2.844-2.274 0-3.649-.93-3.805-2.586h2.219c.171.585.726.921 1.632.921.883 0 1.493-.367 1.493-.921 0-.422-.329-.68-1.086-.844l-1.563-.352c-1.672-.367-2.484-1.164-2.484-2.492zM69 4.375h2.273v2.094h1.829v1.789h-1.829v3.875c0 .75.344 1.094 1.118 1.094.296 0 .445-.008.664-.032v1.735a6.253 6.253 0 0 1-1.133.101c-2.094 0-2.922-.68-2.922-2.36V8.259h-1.367v-1.79H69V4.376zM74.969 15V6.383h2.273V15H74.97zm1.14-9.82c-.82 0-1.343-.477-1.343-1.149 0-.68.523-1.148 1.343-1.148.813 0 1.344.469 1.344 1.148 0 .672-.531 1.149-1.344 1.149zM79.54 15V6.383h2.203v1.383h.14c.4-.97 1.415-1.57 2.68-1.57 1.922 0 3.008 1.171 3.008 3.234V15h-2.273V9.969c0-1.188-.563-1.813-1.64-1.813-1.126 0-1.844.742-1.844 1.875V15h-2.274zm16.031-4.383c0-1.515-.742-2.469-1.968-2.469-1.227 0-1.938.954-1.938 2.461 0 1.524.703 2.47 1.938 2.47 1.234 0 1.968-.946 1.968-2.462zm-2 7.649c-2.289 0-3.804-1.008-3.945-2.524h2.25c.117.531.758.867 1.742.867 1.219 0 1.93-.562 1.93-1.53v-1.595h-.14c-.477.907-1.384 1.391-2.594 1.391-2.149 0-3.485-1.664-3.485-4.258 0-2.672 1.344-4.375 3.531-4.375 1.164 0 2.157.578 2.618 1.524h.14V6.383h2.203v8.586c0 2.023-1.648 3.297-4.25 3.297z" fill="#24124D" opacity=".8"/><g transform="translate(277 2)" stroke="#7B7194" stroke-linecap="round" stroke-linejoin="round" stroke-width="2"><path d="M7 0v14M0 7h14"/></g><g transform="translate(314 7)" stroke="#7B7194" stroke-linecap="round" stroke-linejoin="round" stroke-width="2"><circle cx="10" cy="2" r="2"/><circle cx="18" cy="2" r="2"/><circle cx="2" cy="2" r="2"/></g></g></g><g transform="translate(8 192)"><rect fill="#1EB8C1" width="368" height="48" rx="4"/><g transform="translate(16 15)"><path d="M6.156 15.29C2.891 15.29.867 13.03.867 9.36c0-3.665 2.016-5.922 5.29-5.922 2.671 0 4.718 1.773 4.89 4.226H8.75C8.523 6.367 7.5 5.516 6.156 5.516c-1.773 0-2.875 1.468-2.875 3.843s1.102 3.852 2.883 3.852c1.352 0 2.367-.797 2.594-2.04h2.297c-.196 2.438-2.18 4.118-4.899 4.118zm10.664-1.962c1.211 0 1.907-.969 1.907-2.64 0-1.657-.704-2.633-1.907-2.633-1.21 0-1.906.976-1.906 2.633 0 1.68.688 2.64 1.906 2.64zm0 1.86c-2.648 0-4.242-1.68-4.242-4.5 0-2.79 1.617-4.493 4.242-4.493s4.242 1.696 4.242 4.492c0 2.82-1.593 4.5-4.242 4.5zM22.914 15V6.383h2.203v1.383h.14c.4-.97 1.415-1.57 2.68-1.57 1.922 0 3.008 1.171 3.008 3.234V15h-2.273V9.969c0-1.188-.563-1.813-1.64-1.813-1.126 0-1.845.742-1.845 1.875V15h-2.273zM33.797 4.375h2.273v2.094h1.828v1.789H36.07v3.875c0 .75.344 1.094 1.117 1.094.297 0 .446-.008.665-.032v1.735a6.253 6.253 0 0 1-1.133.101c-2.094 0-2.922-.68-2.922-2.36V8.259H32.43v-1.79h1.367V4.376zm9.68 3.563c-1.055 0-1.797.734-1.875 1.851h3.671c-.046-1.14-.734-1.851-1.796-1.851zm1.843 4.609h2.117c-.343 1.625-1.828 2.64-3.937 2.64-2.625 0-4.172-1.656-4.172-4.453 0-2.804 1.578-4.539 4.14-4.539 2.54 0 4.04 1.617 4.04 4.352v.695h-5.914v.117c.031 1.282.781 2.079 1.968 2.079.899 0 1.516-.32 1.758-.891zm7.578-.36h-.14L51.156 15h-2.414l2.703-4.258-2.718-4.36h2.609l1.523 2.829H53l1.523-2.828h2.485l-2.703 4.258L57.03 15H54.5l-1.602-2.813zm6.414-7.812h2.274v2.094h1.828v1.789h-1.828v3.875c0 .75.344 1.094 1.117 1.094.297 0 .445-.008.664-.032v1.735a6.253 6.253 0 0 1-1.133.101c-2.093 0-2.922-.68-2.922-2.36V8.259h-1.367v-1.79h1.367V4.376zm13.946 2.008V15h-2.203v-1.383h-.14c-.407 1-1.368 1.57-2.618 1.57-1.89 0-3.11-1.187-3.11-3.226V6.383h2.274v5.031c0 1.203.617 1.797 1.68 1.797 1.117 0 1.843-.711 1.843-1.86V6.384h2.274zm5.39 7.039c1.055 0 1.852-.672 1.852-1.547v-.633l-1.742.11c-.977.07-1.453.421-1.453 1.039 0 .64.554 1.03 1.343 1.03zm-.75 1.71c-1.656 0-2.82-1.015-2.82-2.593 0-1.562 1.195-2.469 3.336-2.594L80.5 9.82v-.703c0-.719-.516-1.125-1.453-1.125-.82 0-1.367.281-1.555.797h-2.094c.149-1.594 1.61-2.594 3.774-2.594 2.281 0 3.57 1.078 3.57 2.922V15H80.54v-1.125h-.14c-.446.79-1.383 1.258-2.5 1.258zM85.055 15V3.094h2.273V15h-2.273zm8.773 0V6.383h2.274V15h-2.274zm1.14-9.82c-.82 0-1.343-.477-1.343-1.149 0-.68.523-1.148 1.344-1.148.812 0 1.344.469 1.344 1.148 0 .672-.532 1.149-1.344 1.149zm3.43 9.82V6.383h2.204v1.383h.14c.399-.97 1.414-1.57 2.68-1.57 1.922 0 3.008 1.171 3.008 3.234V15h-2.274V9.969c0-1.188-.562-1.813-1.64-1.813-1.125 0-1.844.742-1.844 1.875V15h-2.274zm13.336-8.758c1.164 0 2.157.602 2.61 1.555h.14V6.383h2.211v11.312h-2.28V13.68h-.142c-.46.922-1.367 1.453-2.585 1.453-2.165 0-3.477-1.695-3.477-4.453 0-2.735 1.352-4.438 3.523-4.438zm.743 6.992c1.218 0 1.968-.96 1.968-2.539 0-1.57-.757-2.547-1.96-2.547-1.212 0-1.938.961-1.938 2.54 0 1.593.719 2.546 1.93 2.546zm14.492-6.851V15h-2.203v-1.383h-.141c-.406 1-1.367 1.57-2.617 1.57-1.89 0-3.11-1.187-3.11-3.226V6.383h2.274v5.031c0 1.203.617 1.797 1.68 1.797 1.117 0 1.843-.711 1.843-1.86V6.384h2.274zM129.266 15V6.383h2.273V15h-2.273zm1.14-9.82c-.82 0-1.344-.477-1.344-1.149 0-.68.524-1.148 1.344-1.148.813 0 1.344.469 1.344 1.148 0 .672-.531 1.149-1.344 1.149zm3.43 9.82V6.383h2.203v1.375h.14c.227-.86 1.11-1.516 2.188-1.516.305 0 .68.04.875.11v2.07c-.18-.07-.734-.14-1.062-.14-1.22 0-2.07.734-2.07 1.945V15h-2.274zm6.922 0V6.383h2.273V15h-2.273zm1.14-9.82c-.82 0-1.343-.477-1.343-1.149 0-.68.523-1.148 1.343-1.148.813 0 1.344.469 1.344 1.148 0 .672-.531 1.149-1.344 1.149zm7.157 2.758c-1.055 0-1.797.734-1.875 1.851h3.672c-.047-1.14-.735-1.851-1.797-1.851zm1.843 4.609h2.118c-.344 1.625-1.828 2.64-3.938 2.64-2.625 0-4.172-1.656-4.172-4.453 0-2.804 1.578-4.539 4.14-4.539 2.54 0 4.04 1.617 4.04 4.352v.695h-5.914v.117c.031 1.282.781 2.079 1.969 2.079.898 0 1.515-.32 1.757-.891zm3.852-3.633c0-1.633 1.438-2.719 3.586-2.719 2.187 0 3.476.914 3.601 2.563h-2.101c-.117-.555-.64-.899-1.484-.899-.813 0-1.415.368-1.415.914 0 .422.368.68 1.165.86l1.617.351c1.672.368 2.422 1.07 2.422 2.36 0 1.719-1.54 2.844-3.797 2.844-2.274 0-3.649-.93-3.805-2.586h2.219c.172.585.726.921 1.633.921.882 0 1.492-.367 1.492-.921 0-.422-.328-.68-1.086-.844l-1.563-.352c-1.672-.367-2.484-1.164-2.484-2.492z" fill="#FFF"/><g transform="translate(274 2)" stroke="#FFF" stroke-linecap="round" stroke-linejoin="round" stroke-width="2"><path d="M7 0v14M0 7h14"/></g><g transform="translate(311 7)" stroke="#FFF" stroke-linecap="round" stroke-linejoin="round" stroke-width="2"><circle cx="10" cy="2" r="2"/><circle cx="18" cy="2" r="2"/><circle cx="2" cy="2" r="2"/></g></g></g><g transform="translate(0 128)"><use fill="#000" filter="url(#a)" xlink:href="#b"/><use fill="#FFF" xlink:href="#b"/><rect fill="#5182F8" width="368" height="48" rx="4"/><use fill="#000" filter="url(#c)" xlink:href="#d"/><path stroke="#000" d="M239.552 18.7v-.003.003zm-3.14 6.1c.06-.403-.025-1.23-.352-2.13a18.55 18.55 0 0 0-.263-.67c-.04-.1-.266-.645-.332-.806-.059-.144-.112-.275-.161-.4-.325-.819-.522-1.417-.602-1.896-.132-.795.081-1.398.828-1.398 1.484 0 1.958.292 2.475 1.842.098.294.186.618.27.985.073.313.24 1.151.316 1.524l.012-.03c-.014.036-.02-.745-.035-1.531v-.029c-.013-.613-.018-.9-.02-1.176-.002-.628 0-.677.087-.832a.833.833 0 0 0 .038-.105c.01-.033.113-.389.153-.512.234-.706.579-1.136 1.228-1.136.887 0 1.476 1.1 1.476 3 0-.799 1.128-2 1.964-2 .896 0 1.079.826 1.197 2.972.01.192.009.148.036.718l.02.402a25.326 25.326 0 0 0 .317-.773l.06-.11a8.12 8.12 0 0 1 .601-.735c.297-.312.512-.474.805-.474.898 0 1.153.88 1.062 2.16-.065.91-.324 1.982-.614 2.564-.142.283-.21.64-.306 1.478l-.046.392c-.129 1.046-.299 1.677-.696 2.206l-1.407 1.876c-.01.135-.033.292-.077.454-.135.505-.429.87-.952.87-.38 0-.629-.177-.946-.534a14.75 14.75 0 0 1-.12-.138c-.221-.254-.32-.328-.398-.328-.081 0-.202.09-.33.28a1.83 1.83 0 0 0-.198.385l-.117.335h-3.524l-.135-.103a21.751 21.751 0 0 1-1.676-1.444 13.02 13.02 0 0 1-.823-.856 6.097 6.097 0 0 1-.625-.84c-.173-.288-.259-.415-.77-1.157a43.54 43.54 0 0 1-.236-.346c-.887-1.317-1.242-2.11-1.05-2.875.356-1.427 1.788-1.87 2.838-.82.254.253.458.566.664.975.048.096.246.523.365.767zm7.118 2.2v-2l-.5.5h1l-.5-.5v2zm0 0v2l.5-.5h-1l.5.5v-2zm-1.82-1.553c-.027.025-.084.053-.18.053-.108 0-.166-.034-.191-.06a.857.857 0 0 1 .081.153c.064.151.11.34.11.407v2c0 .072-.044.26-.107.41a.73.73 0 0 1-.08.15c.035-.032.091-.06.187-.06.109 0 .167.034.192.06a.857.857 0 0 1-.082-.153 1.451 1.451 0 0 1-.11-.407v-2c0-.072.045-.26.108-.41a.73.73 0 0 1 .08-.15zm-.367 3.112a.103.103 0 0 1 .007-.006zm.379.002a.236.236 0 0 1-.008-.01zm-2.011-3.114c-.028.025-.085.053-.18.053-.109 0-.167-.034-.192-.06a.857.857 0 0 1 .081.153c.064.151.11.34.11.407v2c0 .072-.044.26-.107.41a.73.73 0 0 1-.08.15c.035-.032.091-.06.187-.06.109 0 .167.034.192.06a.857.857 0 0 1-.082-.153 1.451 1.451 0 0 1-.11-.407v-2c0-.072.045-.26.108-.41a.73.73 0 0 1 .08-.15zm-.368 3.112a.103.103 0 0 1 .007-.006zm.379.002a.236.236 0 0 1-.008-.01z" fill="#FFF"/><g transform="translate(16 15)"><path d="M6.156 15.29C2.891 15.29.867 13.03.867 9.36c0-3.665 2.016-5.922 5.29-5.922 2.671 0 4.718 1.773 4.89 4.226H8.75C8.523 6.367 7.5 5.516 6.156 5.516c-1.773 0-2.875 1.468-2.875 3.843s1.102 3.852 2.883 3.852c1.352 0 2.367-.797 2.594-2.04h2.297c-.196 2.438-2.18 4.118-4.899 4.118zm14.836-8.907V15H18.79v-1.383h-.14c-.407 1-1.368 1.57-2.618 1.57-1.89 0-3.11-1.187-3.11-3.226V6.383h2.274v5.031c0 1.203.617 1.797 1.68 1.797 1.117 0 1.844-.711 1.844-1.86V6.384h2.273zm2.086 2.531c0-1.633 1.438-2.719 3.586-2.719 2.188 0 3.477.914 3.602 2.563h-2.102c-.117-.555-.64-.899-1.484-.899-.813 0-1.414.368-1.414.914 0 .422.367.68 1.164.86l1.617.351c1.672.368 2.422 1.07 2.422 2.36 0 1.719-1.54 2.844-3.797 2.844-2.274 0-3.649-.93-3.805-2.586h2.219c.172.585.727.921 1.633.921.883 0 1.492-.367 1.492-.921 0-.422-.328-.68-1.086-.844l-1.563-.352c-1.671-.367-2.484-1.164-2.484-2.492zm9.906-4.539h2.274v2.094h1.828v1.789h-1.828v3.875c0 .75.344 1.094 1.117 1.094.297 0 .445-.008.664-.032v1.735a6.253 6.253 0 0 1-1.133.101c-2.093 0-2.922-.68-2.922-2.36V8.259h-1.367v-1.79h1.367V4.376zm9.774 8.953c1.21 0 1.906-.969 1.906-2.64 0-1.657-.703-2.633-1.906-2.633-1.211 0-1.906.976-1.906 2.633 0 1.68.687 2.64 1.906 2.64zm0 1.86c-2.649 0-4.242-1.68-4.242-4.5 0-2.79 1.617-4.493 4.242-4.493S47 7.891 47 10.687c0 2.82-1.594 4.5-4.242 4.5zM48.852 15V6.383h2.203v1.406h.14c.352-.984 1.25-1.594 2.383-1.594 1.211 0 2.04.594 2.383 1.594h.14c.399-.96 1.391-1.594 2.594-1.594 1.72 0 2.79 1.117 2.79 2.89V15H59.21V9.687c0-1.023-.477-1.53-1.438-1.53-.921 0-1.515.655-1.515 1.57V15H54.07V9.594c0-.914-.53-1.438-1.422-1.438-.89 0-1.523.696-1.523 1.656V15h-2.273zm18.562-7.063c-1.055 0-1.797.735-1.875 1.852h3.672c-.047-1.14-.734-1.851-1.797-1.851zm1.844 4.61h2.117c-.344 1.625-1.828 2.64-3.938 2.64-2.624 0-4.171-1.656-4.171-4.453 0-2.804 1.578-4.539 4.14-4.539 2.54 0 4.04 1.617 4.04 4.352v.695H65.53v.117c.031 1.282.781 2.079 1.969 2.079.898 0 1.516-.32 1.758-.891zM73.305 15V6.383h2.203v1.375h.14c.227-.86 1.11-1.516 2.188-1.516.305 0 .68.04.875.11v2.07c-.18-.07-.734-.14-1.063-.14-1.218 0-2.07.734-2.07 1.945V15h-2.273zm11.047 0V6.383h2.273V15h-2.273zm1.14-9.82c-.82 0-1.344-.477-1.344-1.149 0-.68.524-1.148 1.344-1.148.813 0 1.344.469 1.344 1.148 0 .672-.531 1.149-1.344 1.149zm3.43 9.82V6.383h2.203v1.383h.14c.4-.97 1.415-1.57 2.68-1.57 1.922 0 3.008 1.171 3.008 3.234V15H94.68V9.969c0-1.188-.563-1.813-1.64-1.813-1.126 0-1.845.742-1.845 1.875V15h-2.273zM99.805 4.375h2.273v2.094h1.828v1.789h-1.828v3.875c0 .75.344 1.094 1.117 1.094.297 0 .446-.008.664-.032v1.735a6.253 6.253 0 0 1-1.132.101c-2.094 0-2.922-.68-2.922-2.36V8.259h-1.368v-1.79h1.368V4.376zm9.68 3.563c-1.055 0-1.797.734-1.876 1.851h3.672c-.047-1.14-.734-1.851-1.797-1.851zm1.843 4.609h2.117c-.343 1.625-1.828 2.64-3.937 2.64-2.625 0-4.172-1.656-4.172-4.453 0-2.804 1.578-4.539 4.14-4.539 2.54 0 4.04 1.617 4.04 4.352v.695h-5.914v.117c.03 1.282.78 2.079 1.968 2.079.899 0 1.516-.32 1.758-.891zM115.375 15V6.383h2.203v1.375h.14c.227-.86 1.11-1.516 2.188-1.516.305 0 .68.04.875.11v2.07c-.18-.07-.734-.14-1.062-.14-1.219 0-2.07.734-2.07 1.945V15h-2.274zm6.164-8.617h2.445l1.782 6.422h.14l1.766-6.422h2.398L127.094 15h-2.563l-2.992-8.617zM131.625 15V6.383h2.273V15h-2.273zm1.14-9.82c-.82 0-1.343-.477-1.343-1.149 0-.68.523-1.148 1.344-1.148.812 0 1.343.469 1.343 1.148 0 .672-.53 1.149-1.343 1.149zm7.157 2.758c-1.055 0-1.797.734-1.875 1.851h3.672c-.047-1.14-.735-1.851-1.797-1.851zm1.844 4.609h2.117c-.344 1.625-1.828 2.64-3.938 2.64-2.625 0-4.172-1.656-4.172-4.453 0-2.804 1.579-4.539 4.141-4.539 2.54 0 4.04 1.617 4.04 4.352v.695h-5.915v.117c.031 1.282.781 2.079 1.969 2.079.898 0 1.515-.32 1.758-.891zm15.984-6.164L155.46 15h-2.42l-1.54-5.945h-.14L149.835 15h-2.39l-2.298-8.617h2.305l1.281 6.18h.141l1.508-6.18h2.172l1.515 6.18h.14l1.282-6.18h2.258zm1.422 2.531c0-1.633 1.437-2.719 3.586-2.719 2.187 0 3.476.914 3.601 2.563h-2.101c-.117-.555-.64-.899-1.485-.899-.812 0-1.414.368-1.414.914 0 .422.368.68 1.164.86l1.618.351c1.672.368 2.422 1.07 2.422 2.36 0 1.719-1.54 2.844-3.797 2.844-2.274 0-3.649-.93-3.805-2.586h2.219c.172.585.726.921 1.632.921.883 0 1.493-.367 1.493-.921 0-.422-.328-.68-1.086-.844l-1.563-.352c-1.672-.367-2.484-1.164-2.484-2.492z" fill="#FFF"/><g transform="translate(277 2)" stroke="#FFF" stroke-linecap="round" stroke-linejoin="round" stroke-width="2"><path d="M7 0v14M0 7h14"/></g><g transform="translate(314 7)" stroke="#FFF" stroke-linecap="round" stroke-linejoin="round" stroke-width="2"><circle cx="10" cy="2" r="2"/><circle cx="18" cy="2" r="2"/><circle cx="2" cy="2" r="2"/></g></g></g></g></svg>