<svg width="832" height="536" viewBox="0 0 832 536" xmlns="http://www.w3.org/2000/svg" xmlns:xlink="http://www.w3.org/1999/xlink"><title>illustration/highlights-research</title><defs><rect id="b" x="2" y="2" width="252" height="172" rx="4"/><filter x="-2.8%" y="-2.9%" width="105.6%" height="108.1%" filterUnits="objectBoundingBox" id="a"><feOffset dy="2" in="SourceAlpha" result="shadowOffsetOuter1"/><feGaussianBlur stdDeviation="2" in="shadowOffsetOuter1" result="shadowBlurOuter1"/><feColorMatrix values="0 0 0 0 0 0 0 0 0 0 0 0 0 0 0 0 0 0 0.2 0" in="shadowBlurOuter1"/></filter><rect id="d" width="256" height="176" rx="4"/><filter x="-1.8%" y="-2%" width="103.5%" height="105.1%" filterUnits="objectBoundingBox" id="c"><feMorphology radius="1" operator="dilate" in="SourceAlpha" result="shadowSpreadOuter1"/><feOffset dy="1" in="shadowSpreadOuter1" result="shadowOffsetOuter1"/><feGaussianBlur stdDeviation="1" in="shadowOffsetOuter1" result="shadowBlurOuter1"/><feComposite in="shadowBlurOuter1" in2="SourceAlpha" operator="out" result="shadowBlurOuter1"/><feColorMatrix values="0 0 0 0 0 0 0 0 0 0 0 0 0 0 0 0 0 0 0.04 0" in="shadowBlurOuter1"/></filter><circle id="e" cx="12" cy="12" r="12"/><rect id="h" x="2" y="2" width="252" height="116" rx="4"/><filter x="-2.8%" y="-4.3%" width="105.6%" height="112.1%" filterUnits="objectBoundingBox" id="g"><feOffset dy="2" in="SourceAlpha" result="shadowOffsetOuter1"/><feGaussianBlur stdDeviation="2" in="shadowOffsetOuter1" result="shadowBlurOuter1"/><feColorMatrix values="0 0 0 0 0 0 0 0 0 0 0 0 0 0 0 0 0 0 0.2 0" in="shadowBlurOuter1"/></filter><rect id="j" width="256" height="120" rx="4"/><filter x="-1.8%" y="-2.9%" width="103.5%" height="107.5%" filterUnits="objectBoundingBox" id="i"><feMorphology radius="1" operator="dilate" in="SourceAlpha" result="shadowSpreadOuter1"/><feOffset dy="1" in="shadowSpreadOuter1" result="shadowOffsetOuter1"/><feGaussianBlur stdDeviation="1" in="shadowOffsetOuter1" result="shadowBlurOuter1"/><feComposite in="shadowBlurOuter1" in2="SourceAlpha" operator="out" result="shadowBlurOuter1"/><feColorMatrix values="0 0 0 0 0 0 0 0 0 0 0 0 0 0 0 0 0 0 0.04 0" in="shadowBlurOuter1"/></filter><circle id="k" cx="12" cy="12" r="12"/><rect id="n" x="2" y="2" width="252" height="144" rx="4"/><filter x="-2.8%" y="-3.5%" width="105.6%" height="109.7%" filterUnits="objectBoundingBox" id="m"><feOffset dy="2" in="SourceAlpha" result="shadowOffsetOuter1"/><feGaussianBlur stdDeviation="2" in="shadowOffsetOuter1" result="shadowBlurOuter1"/><feColorMatrix values="0 0 0 0 0 0 0 0 0 0 0 0 0 0 0 0 0 0 0.2 0" in="shadowBlurOuter1"/></filter><rect id="p" width="256" height="148" rx="4"/><filter x="-1.8%" y="-2.4%" width="103.5%" height="106.1%" filterUnits="objectBoundingBox" id="o"><feMorphology radius="1" operator="dilate" in="SourceAlpha" result="shadowSpreadOuter1"/><feOffset dy="1" in="shadowSpreadOuter1" result="shadowOffsetOuter1"/><feGaussianBlur stdDeviation="1" in="shadowOffsetOuter1" result="shadowBlurOuter1"/><feComposite in="shadowBlurOuter1" in2="SourceAlpha" operator="out" result="shadowBlurOuter1"/><feColorMatrix values="0 0 0 0 0 0 0 0 0 0 0 0 0 0 0 0 0 0 0.04 0" in="shadowBlurOuter1"/></filter><circle id="q" cx="12" cy="12" r="12"/><rect id="t" x="2" y="2" width="252" height="144" rx="4"/><filter x="-2.8%" y="-3.5%" width="105.6%" height="109.7%" filterUnits="objectBoundingBox" id="s"><feOffset dy="2" in="SourceAlpha" result="shadowOffsetOuter1"/><feGaussianBlur stdDeviation="2" in="shadowOffsetOuter1" result="shadowBlurOuter1"/><feColorMatrix values="0 0 0 0 0 0 0 0 0 0 0 0 0 0 0 0 0 0 0.2 0" in="shadowBlurOuter1"/></filter><rect id="v" width="256" height="148" rx="4"/><filter x="-1.8%" y="-2.4%" width="103.5%" height="106.1%" filterUnits="objectBoundingBox" id="u"><feMorphology radius="1" operator="dilate" in="SourceAlpha" result="shadowSpreadOuter1"/><feOffset dy="1" in="shadowSpreadOuter1" result="shadowOffsetOuter1"/><feGaussianBlur stdDeviation="1" in="shadowOffsetOuter1" result="shadowBlurOuter1"/><feComposite in="shadowBlurOuter1" in2="SourceAlpha" operator="out" result="shadowBlurOuter1"/><feColorMatrix values="0 0 0 0 0 0 0 0 0 0 0 0 0 0 0 0 0 0 0.04 0" in="shadowBlurOuter1"/></filter><circle id="w" cx="12" cy="12" r="12"/><circle id="z" cx="12" cy="12" r="12"/><filter x="-27.1%" y="-22.9%" width="154.2%" height="154.2%" filterUnits="objectBoundingBox" id="y"><feOffset dy="1" in="SourceAlpha" result="shadowOffsetOuter1"/><feGaussianBlur stdDeviation="2" in="shadowOffsetOuter1" result="shadowBlurOuter1"/><feColorMatrix values="0 0 0 0 0.141176471 0 0 0 0 0.0705882353 0 0 0 0 0.301960784 0 0 0 0.16 0" in="shadowBlurOuter1"/></filter><rect id="B" x="2" y="2" width="252" height="144" rx="4"/><filter x="-2.8%" y="-3.5%" width="105.6%" height="109.7%" filterUnits="objectBoundingBox" id="A"><feOffset dy="2" in="SourceAlpha" result="shadowOffsetOuter1"/><feGaussianBlur stdDeviation="2" in="shadowOffsetOuter1" result="shadowBlurOuter1"/><feColorMatrix values="0 0 0 0 0 0 0 0 0 0 0 0 0 0 0 0 0 0 0.2 0" in="shadowBlurOuter1"/></filter><rect id="D" width="256" height="148" rx="4"/><filter x="-1.8%" y="-2.4%" width="103.5%" height="106.1%" filterUnits="objectBoundingBox" id="C"><feMorphology radius="1" operator="dilate" in="SourceAlpha" result="shadowSpreadOuter1"/><feOffset dy="1" in="shadowSpreadOuter1" result="shadowOffsetOuter1"/><feGaussianBlur stdDeviation="1" in="shadowOffsetOuter1" result="shadowBlurOuter1"/><feComposite in="shadowBlurOuter1" in2="SourceAlpha" operator="out" result="shadowBlurOuter1"/><feColorMatrix values="0 0 0 0 0 0 0 0 0 0 0 0 0 0 0 0 0 0 0.04 0" in="shadowBlurOuter1"/></filter><circle id="E" cx="12" cy="12" r="12"/><rect id="H" x="2" y="2" width="252" height="172" rx="4"/><filter x="-2.8%" y="-2.9%" width="105.6%" height="108.1%" filterUnits="objectBoundingBox" id="G"><feOffset dy="2" in="SourceAlpha" result="shadowOffsetOuter1"/><feGaussianBlur stdDeviation="2" in="shadowOffsetOuter1" result="shadowBlurOuter1"/><feColorMatrix values="0 0 0 0 0 0 0 0 0 0 0 0 0 0 0 0 0 0 0.2 0" in="shadowBlurOuter1"/></filter><rect id="J" width="256" height="176" rx="4"/><filter x="-1.8%" y="-2%" width="103.5%" height="105.1%" filterUnits="objectBoundingBox" id="I"><feMorphology radius="1" operator="dilate" in="SourceAlpha" result="shadowSpreadOuter1"/><feOffset dy="1" in="shadowSpreadOuter1" result="shadowOffsetOuter1"/><feGaussianBlur stdDeviation="1" in="shadowOffsetOuter1" result="shadowBlurOuter1"/><feComposite in="shadowBlurOuter1" in2="SourceAlpha" operator="out" result="shadowBlurOuter1"/><feColorMatrix values="0 0 0 0 0 0 0 0 0 0 0 0 0 0 0 0 0 0 0.04 0" in="shadowBlurOuter1"/></filter><circle id="K" cx="12" cy="12" r="12"/><circle id="N" cx="12" cy="12" r="12"/><filter x="-27.1%" y="-22.9%" width="154.2%" height="154.2%" filterUnits="objectBoundingBox" id="M"><feOffset dy="1" in="SourceAlpha" result="shadowOffsetOuter1"/><feGaussianBlur stdDeviation="2" in="shadowOffsetOuter1" result="shadowBlurOuter1"/><feColorMatrix values="0 0 0 0 0.141176471 0 0 0 0 0.0705882353 0 0 0 0 0.301960784 0 0 0 0.16 0" in="shadowBlurOuter1"/></filter><rect id="P" x="2" y="2" width="252" height="144" rx="4"/><filter x="-2.8%" y="-3.5%" width="105.6%" height="109.7%" filterUnits="objectBoundingBox" id="O"><feOffset dy="2" in="SourceAlpha" result="shadowOffsetOuter1"/><feGaussianBlur stdDeviation="2" in="shadowOffsetOuter1" result="shadowBlurOuter1"/><feColorMatrix values="0 0 0 0 0 0 0 0 0 0 0 0 0 0 0 0 0 0 0.2 0" in="shadowBlurOuter1"/></filter><rect id="R" width="256" height="148" rx="4"/><filter x="-1.8%" y="-2.4%" width="103.5%" height="106.1%" filterUnits="objectBoundingBox" id="Q"><feMorphology radius="1" operator="dilate" in="SourceAlpha" result="shadowSpreadOuter1"/><feOffset dy="1" in="shadowSpreadOuter1" result="shadowOffsetOuter1"/><feGaussianBlur stdDeviation="1" in="shadowOffsetOuter1" result="shadowBlurOuter1"/><feComposite in="shadowBlurOuter1" in2="SourceAlpha" operator="out" result="shadowBlurOuter1"/><feColorMatrix values="0 0 0 0 0 0 0 0 0 0 0 0 0 0 0 0 0 0 0.04 0" in="shadowBlurOuter1"/></filter><circle id="S" cx="12" cy="12" r="12"/></defs><g transform="translate(16 16)" fill="none" fill-rule="evenodd"><g transform="translate(0 72)"><use fill="#000" filter="url(#a)" xlink:href="#b"/><use fill="#FFF" xlink:href="#b"/><g stroke-linecap="square"><use fill="#000" filter="url(#c)" xlink:href="#d"/><rect stroke-opacity=".098" stroke="#140B2F" fill="#FFF" x="-.5" y="-.5" width="257" height="177" rx="4"/></g><g transform="translate(16 16)"><mask id="f" fill="#fff"><use xlink:href="#e"/></mask><use fill="#E4E4F3" xlink:href="#e"/><g mask="url(#f)"><g transform="translate(5 4)"><path d="M10.22 1.23c.523.333.977.764 1.32 1.276a8.42 8.42 0 0 1 1.273 3.083c.144.724.238 1.462.367 2.177l.082.794a.33.33 0 0 1-.134.307L10 11 7 7.5l-3.02 4.052-1.976-1.227-.85-.512a.263.263 0 0 1-.108-.19 18.705 18.705 0 0 1 .006-2.71c.071-.96.255-1.907.548-2.822a6.388 6.388 0 0 1 1.37-2.412A4.612 4.612 0 0 1 5.673.185C6.365.073 7.095.045 7.793 0c.026 0 .051.008.074.021a.266.266 0 0 1 .088.073c.102.15.191.31.267.474.026.08.078.148.149.193A.416.416 0 0 0 8.586.8a3.22 3.22 0 0 1 1.635.43z" fill="#7878AB" fill-rule="nonzero"/><path d="M14 20H0c0-.99 0-8.25 4-8.25 0 0 1.31 3.25 2.759 3.25C8.207 15 10 11.75 10 11.75c2.667 0 4 2.75 4 8.25z" fill="#A5A5D8" fill-rule="nonzero"/><path d="M10 12c0 1.992-1 3.5-3 3.5-1.97 0-2.955-1.554-3-3.5h6z" fill="#7878AB" fill-rule="nonzero"/><path d="M9 12.01c0 1.431-.667 2.505-2 2.505-1.313 0-1.97-1.107-2-2.505V10h4v2.01z" fill="#B6B6E9" fill-rule="nonzero"/><path d="M10.5 8.5L10 11H9V9.5c.011-.012.511-.345 1.5-1z" fill="#636396" fill-rule="nonzero"/><path d="M3.5 8.5c.304.481 1.465 1.451 1.5 1.482V11l-1 .5c-.346-1.851-.513-2.851-.5-3z" fill="#636396"/><path d="M8.5 3l1.356 1.362.644.672c.029 0 .029 1.155 0 3.466-.333 1-.667 1.667-1 2-.5.5-3.394.154-4.5 0-.561-.078-1.228-.5-1.364-1.5-.09-.667-.136-1.5-.136-2.5.815-.382 1.649-.87 2.5-1.466A23.133 23.133 0 0 0 8.5 3z" fill="#C8C8F7" fill-rule="nonzero"/><path d="M6.243 6.569c.161.173.247.32.257.443a.46.46 0 0 1-.075.224.527.527 0 0 1-.42.264.492.492 0 0 1-.257-.069.518.518 0 0 1-.248-.412.506.506 0 0 1 .077-.275.481.481 0 0 1 .666-.175zm1.99-.02a.522.522 0 0 1 .267.427.513.513 0 0 1-.077.277.479.479 0 0 1-.408.245.532.532 0 0 1-.267-.049.499.499 0 0 1-.248-.414.528.528 0 0 1 .465-.535.969.969 0 0 1 .267.05z" fill="#7272A5" fill-rule="nonzero"/><path d="M5 10.5v.5c1 .5 1.833.75 2.5.75s1.167-.167 1.5-.5v-.5H7c-.333 0-1-.083-2-.25z" fill="#9898CB"/></g></g></g><path d="M58.555 32h-1.512v-8.455h1.512V32zm1.933 0v-6.41h1.4v1.025h.1c.305-.715 1.055-1.154 2.016-1.154 1.43 0 2.232.861 2.232 2.39V32H64.79v-3.803c0-.978-.445-1.47-1.324-1.47-.938 0-1.524.597-1.524 1.54V32h-1.453zm7.934-7.94h1.447v1.57h1.406v1.161H69.87v3.146c0 .633.27.915.879.915.205 0 .31-.012.48-.03v1.137c-.205.041-.468.07-.75.07-1.47 0-2.056-.498-2.056-1.74v-3.498h-1.043v-1.16h1.043v-1.57zm6.96 2.555c-.866 0-1.476.621-1.54 1.559h3.017c-.029-.95-.603-1.559-1.476-1.559zm1.49 3.621h1.376c-.275 1.166-1.336 1.893-2.848 1.893-1.886 0-3.023-1.248-3.023-3.31 0-2.063 1.154-3.358 3.012-3.358 1.828 0 2.924 1.213 2.924 3.234v.47h-4.477v.075c.035 1.067.65 1.735 1.605 1.735.721 0 1.22-.264 1.43-.739zm2.9 1.764v-6.41h1.4v.996h.1c.175-.633.86-1.102 1.681-1.102.205 0 .457.024.598.065v1.347c-.112-.04-.51-.082-.739-.082-.931 0-1.587.586-1.587 1.483V32H79.77zm4.365-6.41h1.558l1.483 4.957h.1l1.47-4.957h1.535L88.016 32h-1.6l-2.28-6.41zM91.525 32v-6.41h1.448V32h-1.448zm.721-7.453c-.527 0-.896-.34-.896-.803s.369-.803.896-.803c.533 0 .897.34.897.803s-.364.803-.897.803zm5.215 2.068c-.867 0-1.477.621-1.541 1.559h3.017c-.029-.95-.603-1.559-1.476-1.559zm1.488 3.621h1.377c-.275 1.166-1.336 1.893-2.847 1.893-1.887 0-3.024-1.248-3.024-3.31 0-2.063 1.154-3.358 3.012-3.358 1.828 0 2.924 1.213 2.924 3.234v.47h-4.477v.075c.035 1.067.65 1.735 1.606 1.735.72 0 1.218-.264 1.43-.739zm11.485-4.646L108.699 32h-1.53l-1.247-4.617h-.1L104.58 32h-1.512l-1.734-6.41h1.465l1.066 4.787h.1l1.23-4.787h1.389l1.242 4.787h.1l1.06-4.787h1.448zm13.048 0L121.748 32h-1.53l-1.247-4.617h-.1L117.63 32h-1.512l-1.734-6.41h1.465l1.066 4.787h.1l1.23-4.787h1.389l1.242 4.787h.1l1.06-4.787h1.447zm1.98 8.18h-1.317l2.478-10.225h1.342l-2.502 10.225zm6.452-4.073h1.477c.011.698.492 1.155 1.213 1.155.79 0 1.23-.48 1.23-1.39v-5.917h1.512v5.93c0 1.74-1.026 2.736-2.725 2.736-1.617 0-2.707-.984-2.707-2.514zm9.557 1.266c.879 0 1.535-.568 1.535-1.313v-.51l-1.447.094c-.815.053-1.196.346-1.196.868 0 .539.463.86 1.108.86zm-.428 1.142c-1.236 0-2.121-.75-2.121-1.921 0-1.16.873-1.829 2.432-1.922l1.652-.1v-.539c0-.627-.422-.978-1.207-.978-.668 0-1.125.234-1.26.668h-1.371c.117-1.131 1.178-1.852 2.701-1.852 1.647 0 2.572.803 2.572 2.162V32h-1.4v-.879h-.1c-.357.621-1.06.984-1.898.984zm5.144-.105v-6.41h1.4v1.025h.1c.305-.715 1.055-1.154 2.016-1.154 1.43 0 2.233.861 2.233 2.39V32h-1.448v-3.803c0-.978-.445-1.47-1.324-1.47-.937 0-1.523.597-1.523 1.54V32h-1.453zm10.16-5.385c-.867 0-1.476.621-1.54 1.559h3.017c-.03-.95-.603-1.559-1.476-1.559zm1.489 3.621h1.377c-.275 1.166-1.336 1.893-2.848 1.893-1.886 0-3.023-1.248-3.023-3.31 0-2.063 1.154-3.358 3.012-3.358 1.828 0 2.923 1.213 2.923 3.234v.47h-4.476v.075c.035 1.067.65 1.735 1.605 1.735.721 0 1.219-.264 1.43-.739zm6.252-6.691h3.17c2.513 0 3.978 1.535 3.978 4.19 0 2.712-1.447 4.265-3.978 4.265h-3.17v-8.455zm1.512 1.307v5.841h1.459c1.681 0 2.636-1.048 2.636-2.935 0-1.846-.978-2.906-2.636-2.906h-1.46zm9.972 6.058c1.014 0 1.588-.773 1.588-2.115 0-1.336-.58-2.115-1.588-2.115-1.013 0-1.593.779-1.593 2.115 0 1.342.58 2.115 1.593 2.115zm0 1.219c-1.922 0-3.082-1.254-3.082-3.334 0-2.068 1.178-3.334 3.082-3.334 1.91 0 3.082 1.26 3.082 3.334 0 2.08-1.166 3.334-3.082 3.334zm7.237-5.514c-.868 0-1.477.621-1.541 1.559h3.017c-.03-.95-.603-1.559-1.476-1.559zm1.488 3.621h1.377c-.276 1.166-1.336 1.893-2.848 1.893-1.887 0-3.023-1.248-3.023-3.31 0-2.063 1.154-3.358 3.011-3.358 1.829 0 2.924 1.213 2.924 3.234v.47h-4.476v.075c.035 1.067.65 1.735 1.605 1.735.72 0 1.219-.264 1.43-.739z" fill="#24124D" opacity=".5"/><rect fill="#DCD5EE" x="16" y="64" width="224" height="12" rx="4"/><rect fill="#DCD5EE" x="16" y="92" width="136" height="12" rx="4"/><rect fill="#DCD5EE" x="16" y="148" width="136" height="12" rx="4"/><rect fill="#512DA8" x="168" y="92" width="72" height="12" rx="4"/><rect fill="#512DA8" x="16" y="120" width="224" height="12" rx="4"/></g><g transform="translate(0 264)"><use fill="#000" filter="url(#g)" xlink:href="#h"/><use fill="#FFF" xlink:href="#h"/><g stroke-linecap="square"><use fill="#000" filter="url(#i)" xlink:href="#j"/><rect stroke-opacity=".098" stroke="#140B2F" fill="#FFF" x="-.5" y="-.5" width="257" height="121" rx="4"/></g><g transform="translate(16 16)"><mask id="l" fill="#fff"><use xlink:href="#k"/></mask><use fill="#E4E4F3" xlink:href="#k"/><g mask="url(#l)"><g transform="translate(5 4)"><path d="M10.22 1.23c.523.333.977.764 1.32 1.276a8.42 8.42 0 0 1 1.273 3.083c.144.724.238 1.462.367 2.177l.082.794a.33.33 0 0 1-.134.307L10 11 7 7.5l-3.02 4.052-1.976-1.227-.85-.512a.263.263 0 0 1-.108-.19 18.705 18.705 0 0 1 .006-2.71c.071-.96.255-1.907.548-2.822a6.388 6.388 0 0 1 1.37-2.412A4.612 4.612 0 0 1 5.673.185C6.365.073 7.095.045 7.793 0c.026 0 .051.008.074.021a.266.266 0 0 1 .088.073c.102.15.191.31.267.474.026.08.078.148.149.193A.416.416 0 0 0 8.586.8a3.22 3.22 0 0 1 1.635.43z" fill="#7878AB" fill-rule="nonzero"/><path d="M14 20H0c0-.99 0-8.25 4-8.25 0 0 1.31 3.25 2.759 3.25C8.207 15 10 11.75 10 11.75c2.667 0 4 2.75 4 8.25z" fill="#A5A5D8" fill-rule="nonzero"/><path d="M10 12c0 1.992-1 3.5-3 3.5-1.97 0-2.955-1.554-3-3.5h6z" fill="#7878AB" fill-rule="nonzero"/><path d="M9 12.01c0 1.431-.667 2.505-2 2.505-1.313 0-1.97-1.107-2-2.505V10h4v2.01z" fill="#B6B6E9" fill-rule="nonzero"/><path d="M10.5 8.5L10 11H9V9.5c.011-.012.511-.345 1.5-1z" fill="#636396" fill-rule="nonzero"/><path d="M3.5 8.5c.304.481 1.465 1.451 1.5 1.482V11l-1 .5c-.346-1.851-.513-2.851-.5-3z" fill="#636396"/><path d="M8.5 3l1.356 1.362.644.672c.029 0 .029 1.155 0 3.466-.333 1-.667 1.667-1 2-.5.5-3.394.154-4.5 0-.561-.078-1.228-.5-1.364-1.5-.09-.667-.136-1.5-.136-2.5.815-.382 1.649-.87 2.5-1.466A23.133 23.133 0 0 0 8.5 3z" fill="#C8C8F7" fill-rule="nonzero"/><path d="M6.243 6.569c.161.173.247.32.257.443a.46.46 0 0 1-.075.224.527.527 0 0 1-.42.264.492.492 0 0 1-.257-.069.518.518 0 0 1-.248-.412.506.506 0 0 1 .077-.275.481.481 0 0 1 .666-.175zm1.99-.02a.522.522 0 0 1 .267.427.513.513 0 0 1-.077.277.479.479 0 0 1-.408.245.532.532 0 0 1-.267-.049.499.499 0 0 1-.248-.414.528.528 0 0 1 .465-.535.969.969 0 0 1 .267.05z" fill="#7272A5" fill-rule="nonzero"/><path d="M5 10.5v.5c1 .5 1.833.75 2.5.75s1.167-.167 1.5-.5v-.5H7c-.333 0-1-.083-2-.25z" fill="#9898CB"/></g></g></g><path d="M58.555 32h-1.512v-8.455h1.512V32zm1.933 0v-6.41h1.4v1.025h.1c.305-.715 1.055-1.154 2.016-1.154 1.43 0 2.232.861 2.232 2.39V32H64.79v-3.803c0-.978-.445-1.47-1.324-1.47-.938 0-1.524.597-1.524 1.54V32h-1.453zm7.934-7.94h1.447v1.57h1.406v1.161H69.87v3.146c0 .633.27.915.879.915.205 0 .31-.012.48-.03v1.137c-.205.041-.468.07-.75.07-1.47 0-2.056-.498-2.056-1.74v-3.498h-1.043v-1.16h1.043v-1.57zm6.96 2.555c-.866 0-1.476.621-1.54 1.559h3.017c-.029-.95-.603-1.559-1.476-1.559zm1.49 3.621h1.376c-.275 1.166-1.336 1.893-2.848 1.893-1.886 0-3.023-1.248-3.023-3.31 0-2.063 1.154-3.358 3.012-3.358 1.828 0 2.924 1.213 2.924 3.234v.47h-4.477v.075c.035 1.067.65 1.735 1.605 1.735.721 0 1.22-.264 1.43-.739zm2.9 1.764v-6.41h1.4v.996h.1c.175-.633.86-1.102 1.681-1.102.205 0 .457.024.598.065v1.347c-.112-.04-.51-.082-.739-.082-.931 0-1.587.586-1.587 1.483V32H79.77zm4.365-6.41h1.558l1.483 4.957h.1l1.47-4.957h1.535L88.016 32h-1.6l-2.28-6.41zM91.525 32v-6.41h1.448V32h-1.448zm.721-7.453c-.527 0-.896-.34-.896-.803s.369-.803.896-.803c.533 0 .897.34.897.803s-.364.803-.897.803zm5.215 2.068c-.867 0-1.477.621-1.541 1.559h3.017c-.029-.95-.603-1.559-1.476-1.559zm1.488 3.621h1.377c-.275 1.166-1.336 1.893-2.847 1.893-1.887 0-3.024-1.248-3.024-3.31 0-2.063 1.154-3.358 3.012-3.358 1.828 0 2.924 1.213 2.924 3.234v.47h-4.477v.075c.035 1.067.65 1.735 1.606 1.735.72 0 1.218-.264 1.43-.739zm11.485-4.646L108.699 32h-1.53l-1.247-4.617h-.1L104.58 32h-1.512l-1.734-6.41h1.465l1.066 4.787h.1l1.23-4.787h1.389l1.242 4.787h.1l1.06-4.787h1.448zm13.048 0L121.748 32h-1.53l-1.247-4.617h-.1L117.63 32h-1.512l-1.734-6.41h1.465l1.066 4.787h.1l1.23-4.787h1.389l1.242 4.787h.1l1.06-4.787h1.447zm1.98 8.18h-1.317l2.478-10.225h1.342l-2.502 10.225zm6.645-4.067h1.477c.094.756.844 1.242 1.916 1.242.996 0 1.717-.51 1.717-1.218 0-.61-.463-.967-1.547-1.22l-1.096-.251c-1.535-.346-2.256-1.108-2.256-2.367 0-1.535 1.254-2.555 3.147-2.555 1.775 0 3.058 1.02 3.129 2.473h-1.448c-.105-.744-.761-1.213-1.687-1.213-.973 0-1.617.468-1.617 1.19 0 .568.428.902 1.476 1.142l.973.222c1.717.387 2.438 1.102 2.438 2.391 0 1.647-1.272 2.672-3.323 2.672-1.94 0-3.222-.973-3.299-2.508zM140.334 32v-8.889h1.43v3.516h.105c.305-.72 1.06-1.154 2.016-1.154 1.435 0 2.267.867 2.267 2.39V32h-1.447v-3.791c0-.973-.469-1.47-1.36-1.47-.954 0-1.558.62-1.558 1.54V32h-1.453zm10.23-5.385c-.867 0-1.476.621-1.54 1.559h3.017c-.03-.95-.603-1.559-1.477-1.559zm1.489 3.621h1.377c-.276 1.166-1.336 1.893-2.848 1.893-1.887 0-3.023-1.248-3.023-3.31 0-2.063 1.154-3.358 3.011-3.358 1.828 0 2.924 1.213 2.924 3.234v.47h-4.476v.075c.035 1.067.65 1.735 1.605 1.735.72 0 1.219-.264 1.43-.739zm5.666.674c1.013 0 1.588-.773 1.588-2.115 0-1.336-.58-2.115-1.588-2.115-1.014 0-1.594.779-1.594 2.115 0 1.342.58 2.115 1.594 2.115zm0 1.219c-1.922 0-3.082-1.254-3.082-3.334 0-2.068 1.177-3.334 3.082-3.334 1.91 0 3.082 1.26 3.082 3.334 0 2.08-1.166 3.334-3.082 3.334zm4.547-.129v-6.41h1.4v1.025h.1c.304-.715 1.054-1.154 2.015-1.154 1.43 0 2.233.861 2.233 2.39V32h-1.448v-3.803c0-.978-.445-1.47-1.324-1.47-.937 0-1.523.597-1.523 1.54V32h-1.453zm9.662-1.037c.879 0 1.535-.568 1.535-1.313v-.51l-1.447.094c-.815.053-1.196.346-1.196.868 0 .539.463.86 1.108.86zm-.428 1.142c-1.236 0-2.121-.75-2.121-1.921 0-1.16.873-1.829 2.432-1.922l1.652-.1v-.539c0-.627-.422-.978-1.207-.978-.668 0-1.125.234-1.26.668h-1.371c.117-1.131 1.178-1.852 2.701-1.852 1.647 0 2.572.803 2.572 2.162V32h-1.4v-.879h-.1c-.357.621-1.06.984-1.898.984zM181.508 32h-1.512v-8.455h1.512V32zm1.933 0v-6.41h1.4v.996h.1c.176-.633.862-1.102 1.682-1.102.205 0 .457.024.598.065v1.347c-.112-.04-.51-.082-.739-.082-.931 0-1.587.586-1.587 1.483V32h-1.454zm7.612-5.385c-.867 0-1.477.621-1.541 1.559h3.017c-.029-.95-.603-1.559-1.476-1.559zm1.488 3.621h1.377c-.275 1.166-1.336 1.893-2.848 1.893-1.886 0-3.023-1.248-3.023-3.31 0-2.063 1.154-3.358 3.012-3.358 1.828 0 2.923 1.213 2.923 3.234v.47h-4.476v.075c.035 1.067.65 1.735 1.605 1.735.721 0 1.22-.264 1.43-.739zm2.9 1.764v-6.41h1.4v1.025h.1c.305-.715 1.055-1.154 2.016-1.154 1.43 0 2.232.861 2.232 2.39V32h-1.447v-3.803c0-.978-.445-1.47-1.324-1.47-.938 0-1.523.597-1.523 1.54V32h-1.454zm10.16-5.385c-.867 0-1.476.621-1.54 1.559h3.017c-.03-.95-.603-1.559-1.476-1.559zm1.489 3.621h1.377c-.276 1.166-1.336 1.893-2.848 1.893-1.887 0-3.023-1.248-3.023-3.31 0-2.063 1.154-3.358 3.011-3.358 1.829 0 2.924 1.213 2.924 3.234v.47h-4.476v.075c.035 1.067.65 1.735 1.605 1.735.72 0 1.219-.264 1.43-.739z" fill="#24124D" opacity=".5"/><rect fill="#DCD5EE" x="16" y="64" width="224" height="12" rx="4"/><rect fill="#DCD5EE" x="16" y="92" width="136" height="12" rx="4"/><rect fill="#512DA8" x="168" y="92" width="72" height="12" rx="4"/></g><g transform="translate(272)"><use fill="#000" filter="url(#m)" xlink:href="#n"/><use fill="#FFF" xlink:href="#n"/><g stroke-linecap="square"><use fill="#000" filter="url(#o)" xlink:href="#p"/><rect stroke-opacity=".098" stroke="#140B2F" fill="#FFF" x="-.5" y="-.5" width="257" height="149" rx="4"/></g><g transform="translate(16 16)"><mask id="r" fill="#fff"><use xlink:href="#q"/></mask><use fill="#E4E4F3" xlink:href="#q"/><g mask="url(#r)"><g transform="translate(4 4.5)"><path d="M11.75 1c.522.332 0 3.5.25 4.5.207.83-1.126-.004-4-2.5-1.493.851-2.493 1.351-3 1.5-1.889.555-1.639-1.065-1.5-1.5.275-.895-.128-1.306.5-2C4.699.208 5.623.36 6.673.185 7.365.073 8.095.045 8.793 0c.026 0 .051.008.074.021a.266.266 0 0 1 .088.073c.102.15.191.31.267.474.026.08.078.148.149.193A.416.416 0 0 0 9.586.8c.572-.005 1.667-.087 2.164.2z" fill="#7E7EB1" fill-rule="nonzero"/><path d="M16 19.5H0c0-.99.5-8.25 4.5-8.25 0 0 2.052 3.25 3.5 3.25s3.5-3.25 3.5-3.25c2.667 0 4.167 2.75 4.5 8.25z" fill="#A5A5D8" fill-rule="nonzero"/><path d="M11.5 11.5c0 1.667-1.167 3.333-3.5 5-2.333-1.667-3.5-3.333-3.5-5h7z" fill="#7878AB" fill-rule="nonzero"/><path d="M10 11.01c0 1.431-.667 2.505-2 2.505-1.313 0-1.97-1.107-2-2.505V9h4v2.01z" fill="#B6B6E9" fill-rule="nonzero"/><path d="M7.5 2.75c1.197-.218 2.5 0 3 .25s.5 1 .5 1v4c-.5 1-.5 1.5-1 2s-3.5.5-4 0-.5-1-1-2V4c0-.5 1.303-1.032 2.5-1.25z" fill="#C8C8F7" fill-rule="nonzero"/><path d="M6 10v.75c1 .5 1.833.75 2.5.75s1.167-.167 1.5-.5v-1c-.833.167-1.5.25-2 .25-.333 0-1-.083-2-.25z" fill="#9898CB"/><path d="M7.243 5.569c.161.173.247.32.257.443a.46.46 0 0 1-.075.224.527.527 0 0 1-.42.264.492.492 0 0 1-.257-.069.518.518 0 0 1-.248-.412.506.506 0 0 1 .077-.275.481.481 0 0 1 .666-.175zm1.99-.02a.522.522 0 0 1 .267.427.513.513 0 0 1-.077.277.479.479 0 0 1-.408.245.532.532 0 0 1-.267-.049.499.499 0 0 1-.248-.414.528.528 0 0 1 .465-.535.969.969 0 0 1 .267.05z" fill="#7272A5" fill-rule="nonzero"/><path d="M5 6.5c-.167 1.5-.083 2.5.25 3 .5.75 1.75 1.25 2.75 1.25s2.25-.5 2.75-1.25c.333-.5.417-1.5.25-3-.667 1.333-1.333 2-2 2H7c-.667 0-1.333-.667-2-2z" fill="#B4B4E5"/></g></g></g><path d="M58.572 23.545v5.402c0 1.143.715 1.91 1.969 1.91s1.963-.767 1.963-1.91v-5.402h1.512v5.543c0 1.846-1.336 3.123-3.475 3.123-2.139 0-3.475-1.277-3.475-3.123v-5.543h1.506zm7.248 3.879c0-1.16 1.055-1.963 2.567-1.963 1.523 0 2.478.674 2.584 1.84h-1.366c-.105-.451-.533-.738-1.212-.738-.663 0-1.16.316-1.16.779 0 .363.304.586.949.732l1.13.258c1.225.275 1.793.803 1.793 1.746 0 1.23-1.13 2.05-2.73 2.05s-2.607-.69-2.719-1.857h1.436c.14.475.592.756 1.318.756.733 0 1.242-.322 1.242-.797 0-.363-.275-.591-.884-.726l-1.137-.264c-1.23-.281-1.81-.85-1.81-1.816zm9.446-.809c-.868 0-1.477.621-1.541 1.559h3.017c-.03-.95-.603-1.559-1.476-1.559zm1.488 3.621h1.377c-.276 1.166-1.336 1.893-2.848 1.893-1.887 0-3.023-1.248-3.023-3.31 0-2.063 1.154-3.358 3.011-3.358 1.829 0 2.924 1.213 2.924 3.234v.47H73.72v.075c.035 1.067.65 1.735 1.605 1.735.72 0 1.219-.264 1.43-.739zm2.9 1.764v-6.41h1.4v.996h.1c.176-.633.862-1.102 1.682-1.102.205 0 .457.024.598.065v1.347c-.112-.04-.51-.082-.739-.082-.931 0-1.588.586-1.588 1.483V32h-1.453zm8.584-7.94h1.448v1.57h1.406v1.161h-1.406v3.146c0 .633.27.915.878.915.206 0 .311-.012.48-.03v1.137c-.204.041-.468.07-.75.07-1.47 0-2.056-.498-2.056-1.74v-3.498h-1.043v-1.16h1.043v-1.57zm6.961 2.555c-.867 0-1.476.621-1.54 1.559h3.017c-.03-.95-.604-1.559-1.477-1.559zm1.489 3.621h1.376c-.275 1.166-1.335 1.893-2.847 1.893-1.887 0-3.024-1.248-3.024-3.31 0-2.063 1.155-3.358 3.012-3.358 1.828 0 2.924 1.213 2.924 3.234v.47h-4.477v.075c.035 1.067.65 1.735 1.606 1.735.72 0 1.219-.264 1.43-.739zm2.753-2.812c0-1.16 1.055-1.963 2.567-1.963 1.523 0 2.478.674 2.584 1.84h-1.365c-.106-.451-.534-.738-1.213-.738-.662 0-1.16.316-1.16.779 0 .363.304.586.949.732l1.13.258c1.225.275 1.794.803 1.794 1.746 0 1.23-1.131 2.05-2.73 2.05-1.6 0-2.608-.69-2.72-1.857h1.436c.14.475.592.756 1.318.756.733 0 1.242-.322 1.242-.797 0-.363-.275-.591-.884-.726l-1.137-.264c-1.23-.281-1.81-.85-1.81-1.816zm7.22-3.363h1.446v1.57h1.407v1.16h-1.407v3.146c0 .633.27.915.88.915.204 0 .31-.012.48-.03v1.137c-.205.041-.469.07-.75.07-1.47 0-2.057-.498-2.057-1.74v-3.498h-1.043v-1.16h1.043v-1.57zM110.948 32v-6.41h1.447V32h-1.447zm.72-7.453c-.526 0-.896-.34-.896-.803s.37-.803.897-.803c.533 0 .896.34.896.803s-.363.803-.896.803zM114.196 32v-6.41h1.4v1.025h.1c.305-.715 1.055-1.154 2.016-1.154 1.43 0 2.232.861 2.232 2.39V32h-1.447v-3.803c0-.978-.445-1.47-1.324-1.47-.938 0-1.524.597-1.524 1.54V32h-1.453zm11.848-3.275c0-1.225-.615-2.004-1.623-2.004-1.014 0-1.588.779-1.588 2.004 0 1.224.574 1.998 1.588 1.998 1.014 0 1.623-.774 1.623-1.998zm-1.623 5.712c-1.647 0-2.725-.726-2.842-1.828h1.46c.093.44.608.721 1.405.721.996 0 1.577-.469 1.577-1.271v-1.213h-.1c-.37.685-1.066 1.06-1.957 1.06-1.617 0-2.625-1.254-2.625-3.181 0-1.963 1.014-3.24 2.648-3.24.873 0 1.635.433 1.987 1.13h.1V25.59h1.4v6.433c0 1.483-1.184 2.414-3.053 2.414zm7.887-7.013c0-1.16 1.054-1.963 2.566-1.963 1.523 0 2.479.674 2.584 1.84h-1.365c-.106-.451-.533-.738-1.213-.738-.662 0-1.16.316-1.16.779 0 .363.304.586.949.732l1.13.258c1.225.275 1.794.803 1.794 1.746 0 1.23-1.131 2.05-2.73 2.05-1.6 0-2.608-.69-2.72-1.857h1.436c.14.475.592.756 1.318.756.733 0 1.243-.322 1.243-.797 0-.363-.276-.591-.885-.726l-1.137-.264c-1.23-.281-1.81-.85-1.81-1.816zm9.445-.809c-.867 0-1.477.621-1.541 1.559h3.018c-.03-.95-.604-1.559-1.477-1.559zm1.488 3.621h1.377c-.275 1.166-1.336 1.893-2.847 1.893-1.887 0-3.024-1.248-3.024-3.31 0-2.063 1.154-3.358 3.012-3.358 1.828 0 2.924 1.213 2.924 3.234v.47h-4.477v.075c.035 1.067.65 1.735 1.606 1.735.72 0 1.218-.264 1.43-.739zm2.754-2.812c0-1.16 1.055-1.963 2.567-1.963 1.523 0 2.478.674 2.584 1.84h-1.366c-.105-.451-.533-.738-1.213-.738-.662 0-1.16.316-1.16.779 0 .363.305.586.95.732l1.13.258c1.225.275 1.793.803 1.793 1.746 0 1.23-1.13 2.05-2.73 2.05s-2.608-.69-2.719-1.857h1.436c.14.475.591.756 1.318.756.732 0 1.242-.322 1.242-.797 0-.363-.275-.591-.885-.726l-1.136-.264c-1.23-.281-1.81-.85-1.81-1.816zm6.61 0c0-1.16 1.054-1.963 2.566-1.963 1.523 0 2.478.674 2.584 1.84h-1.365c-.106-.451-.534-.738-1.213-.738-.662 0-1.16.316-1.16.779 0 .363.304.586.949.732l1.13.258c1.225.275 1.794.803 1.794 1.746 0 1.23-1.131 2.05-2.73 2.05-1.6 0-2.608-.69-2.72-1.857h1.436c.14.475.592.756 1.318.756.733 0 1.243-.322 1.243-.797 0-.363-.276-.591-.885-.726l-1.137-.264c-1.23-.281-1.81-.85-1.81-1.816zM159.377 32v-6.41h1.447V32h-1.447zm.72-7.453c-.527 0-.896-.34-.896-.803s.37-.803.897-.803c.533 0 .896.34.896.803s-.363.803-.896.803zm5.292 6.363c1.013 0 1.588-.773 1.588-2.115 0-1.336-.58-2.115-1.588-2.115-1.014 0-1.594.779-1.594 2.115 0 1.342.58 2.115 1.594 2.115zm0 1.219c-1.922 0-3.082-1.254-3.082-3.334 0-2.068 1.177-3.334 3.082-3.334 1.91 0 3.082 1.26 3.082 3.334 0 2.08-1.166 3.334-3.082 3.334zm4.547-.129v-6.41h1.4v1.025h.1c.304-.715 1.054-1.154 2.015-1.154 1.43 0 2.233.861 2.233 2.39V32h-1.448v-3.803c0-.978-.445-1.47-1.324-1.47-.937 0-1.523.597-1.523 1.54V32h-1.453z" fill="#24124D" opacity=".5"/><rect fill="#DCD5EE" x="16" y="64" width="224" height="12" rx="4"/><rect fill="#DCD5EE" x="16" y="92" width="136" height="12" rx="4"/><rect fill="#512DA8" x="16" y="120" width="96" height="12" rx="4"/><rect fill="#512DA8" x="168" y="92" width="72" height="12" rx="4"/></g><g transform="translate(536 31)"><g transform="translate(8 9)"><use fill="#000" filter="url(#s)" xlink:href="#t"/><use fill="#FFF" xlink:href="#t"/><g stroke-linecap="square"><use fill="#000" filter="url(#u)" xlink:href="#v"/><rect stroke-opacity=".098" stroke="#140B2F" fill="#FFF" x="-.5" y="-.5" width="257" height="149" rx="4"/></g></g><g transform="translate(24 25)"><mask id="x" fill="#fff"><use xlink:href="#w"/></mask><use fill="#E4E4F3" xlink:href="#w"/><g mask="url(#x)"><g transform="translate(4 4.5)"><path d="M11.75 1c.522.332 0 3.5.25 4.5.207.83-1.126-.004-4-2.5-1.493.851-2.493 1.351-3 1.5-1.889.555-1.639-1.065-1.5-1.5.275-.895-.128-1.306.5-2C4.699.208 5.623.36 6.673.185 7.365.073 8.095.045 8.793 0c.026 0 .051.008.074.021a.266.266 0 0 1 .088.073c.102.15.191.31.267.474.026.08.078.148.149.193A.416.416 0 0 0 9.586.8c.572-.005 1.667-.087 2.164.2z" fill="#7E7EB1" fill-rule="nonzero"/><path d="M16 19.5H0c0-.99.5-8.25 4.5-8.25 0 0 2.052 3.25 3.5 3.25s3.5-3.25 3.5-3.25c2.667 0 4.167 2.75 4.5 8.25z" fill="#A5A5D8" fill-rule="nonzero"/><path d="M11.5 11.5c0 1.667-1.167 3.333-3.5 5-2.333-1.667-3.5-3.333-3.5-5h7z" fill="#7878AB" fill-rule="nonzero"/><path d="M10 11.01c0 1.431-.667 2.505-2 2.505-1.313 0-1.97-1.107-2-2.505V9h4v2.01z" fill="#B6B6E9" fill-rule="nonzero"/><path d="M7.5 2.75c1.197-.218 2.5 0 3 .25s.5 1 .5 1v4c-.5 1-.5 1.5-1 2s-3.5.5-4 0-.5-1-1-2V4c0-.5 1.303-1.032 2.5-1.25z" fill="#C8C8F7" fill-rule="nonzero"/><path d="M6 10v.75c1 .5 1.833.75 2.5.75s1.167-.167 1.5-.5v-1c-.833.167-1.5.25-2 .25-.333 0-1-.083-2-.25z" fill="#9898CB"/><path d="M7.243 5.569c.161.173.247.32.257.443a.46.46 0 0 1-.075.224.527.527 0 0 1-.42.264.492.492 0 0 1-.257-.069.518.518 0 0 1-.248-.412.506.506 0 0 1 .077-.275.481.481 0 0 1 .666-.175zm1.99-.02a.522.522 0 0 1 .267.427.513.513 0 0 1-.077.277.479.479 0 0 1-.408.245.532.532 0 0 1-.267-.049.499.499 0 0 1-.248-.414.528.528 0 0 1 .465-.535.969.969 0 0 1 .267.05z" fill="#7272A5" fill-rule="nonzero"/><path d="M5 6.5c-.167 1.5-.083 2.5.25 3 .5.75 1.75 1.25 2.75 1.25s2.25-.5 2.75-1.25c.333-.5.417-1.5.25-3-.667 1.333-1.333 2-2 2H7c-.667 0-1.333-.667-2-2z" fill="#B4B4E5"/></g></g></g><path d="M66.555 41h-1.512v-8.455h1.512V41zm1.933 0v-6.41h1.4v1.025h.1c.305-.715 1.055-1.154 2.016-1.154 1.43 0 2.232.861 2.232 2.39V41H72.79v-3.803c0-.978-.445-1.47-1.324-1.47-.938 0-1.524.597-1.524 1.54V41h-1.453zm7.934-7.94h1.447v1.57h1.406v1.161H77.87v3.147c0 .632.27.914.879.914.205 0 .31-.012.48-.03v1.137c-.205.041-.468.07-.75.07-1.47 0-2.056-.498-2.056-1.74v-3.498h-1.043v-1.16h1.043v-1.57zm6.96 2.555c-.866 0-1.476.621-1.54 1.559h3.017c-.029-.95-.603-1.559-1.476-1.559zm1.49 3.621h1.376c-.275 1.166-1.336 1.893-2.848 1.893-1.886 0-3.023-1.248-3.023-3.31 0-2.063 1.154-3.358 3.012-3.358 1.828 0 2.924 1.213 2.924 3.234v.47h-4.477v.075c.035 1.067.65 1.735 1.605 1.735.721 0 1.22-.264 1.43-.739zm2.9 1.764v-6.41h1.4v.996h.1c.175-.633.86-1.102 1.681-1.102.205 0 .457.024.598.065v1.347c-.112-.04-.51-.082-.739-.082-.931 0-1.587.586-1.587 1.483V41H87.77zm4.365-6.41h1.558l1.483 4.957h.1l1.47-4.957h1.535L96.016 41h-1.6l-2.28-6.41zM99.525 41v-6.41h1.448V41h-1.448zm.721-7.453c-.527 0-.896-.34-.896-.803s.369-.803.896-.803c.533 0 .897.34.897.803s-.364.803-.897.803zm5.215 2.068c-.867 0-1.477.621-1.541 1.559h3.017c-.029-.95-.603-1.559-1.476-1.559zm1.488 3.621h1.377c-.275 1.166-1.336 1.893-2.847 1.893-1.887 0-3.024-1.248-3.024-3.31 0-2.063 1.154-3.358 3.012-3.358 1.828 0 2.924 1.213 2.924 3.234v.47h-4.477v.075c.035 1.067.65 1.735 1.606 1.735.72 0 1.218-.264 1.43-.739zm11.485-4.646L116.699 41h-1.53l-1.247-4.617h-.1L112.58 41h-1.512l-1.734-6.41h1.465l1.066 4.787h.1l1.23-4.787h1.389l1.242 4.787h.1l1.06-4.787h1.448zm13.048 0L129.748 41h-1.53l-1.247-4.617h-.1L125.63 41h-1.512l-1.734-6.41h1.465l1.066 4.787h.1l1.23-4.787h1.389l1.242 4.787h.1l1.06-4.787h1.447zm1.98 8.18h-1.317l2.478-10.225h1.342l-2.502 10.225zm7.032-10.225h3.17c2.514 0 3.979 1.535 3.979 4.19 0 2.712-1.448 4.265-3.979 4.265h-3.17v-8.455zm1.512 1.307v5.841h1.459c1.681 0 2.637-1.048 2.637-2.935 0-1.846-.979-2.906-2.637-2.906h-1.46zm7.91 9.48c-.088 0-.48-.006-.574-.023v-1.184c.082.012.299.018.398.018.615 0 .961-.24 1.149-.832l.076-.282-2.291-6.44h1.594l1.5 5.005h.1l1.493-5.004h1.535l-2.314 6.615c-.545 1.594-1.23 2.127-2.666 2.127zm8.918-7.717c-.867 0-1.477.621-1.541 1.559h3.018c-.03-.95-.604-1.559-1.477-1.559zm1.488 3.621h1.377c-.275 1.166-1.336 1.893-2.847 1.893-1.887 0-3.024-1.248-3.024-3.31 0-2.063 1.154-3.358 3.012-3.358 1.828 0 2.924 1.213 2.924 3.234v.47h-4.477v.075c.035 1.067.65 1.735 1.606 1.735.72 0 1.218-.264 1.43-.739zM170.19 41h-1.511v-7.148h-2.602v-1.307h6.72v1.307h-2.607V41zm9.75-6.41V41h-1.4v-1.02h-.1c-.31.733-1.037 1.149-1.986 1.149-1.412 0-2.285-.873-2.285-2.39v-4.15h1.453v3.804c0 .984.463 1.459 1.336 1.459.938 0 1.53-.58 1.53-1.53V34.59h1.452zm1.782 6.41v-6.41h1.4v1.037h.1c.275-.732.931-1.166 1.781-1.166.885 0 1.5.445 1.77 1.166h.1c.315-.703 1.054-1.166 1.944-1.166 1.284 0 2.057.803 2.057 2.133V41h-1.447v-4.037c0-.826-.393-1.236-1.172-1.236-.756 0-1.254.55-1.254 1.283V41h-1.412v-4.143c0-.703-.445-1.13-1.16-1.13-.721 0-1.254.591-1.254 1.377V41h-1.453zm13.564-5.385c-.867 0-1.476.621-1.54 1.559h3.017c-.03-.95-.604-1.559-1.477-1.559zm1.488 3.621h1.377c-.275 1.166-1.336 1.893-2.847 1.893-1.887 0-3.024-1.248-3.024-3.31 0-2.063 1.155-3.358 3.012-3.358 1.828 0 2.924 1.213 2.924 3.234v.47h-4.477v.075c.035 1.067.65 1.735 1.606 1.735.72 0 1.219-.264 1.43-.739zm2.96 1.764v-8.889h1.453V41h-1.454zm6.052-1.09c1.014 0 1.588-.773 1.588-2.115 0-1.336-.58-2.115-1.588-2.115-1.014 0-1.594.779-1.594 2.115 0 1.342.58 2.115 1.594 2.115zm0 1.219c-1.922 0-3.082-1.254-3.082-3.334 0-2.068 1.178-3.334 3.082-3.334 1.91 0 3.082 1.26 3.082 3.334 0 2.08-1.166 3.334-3.082 3.334z" fill="#24124D" opacity=".5"/><rect fill="#DCD5EE" x="24" y="73" width="224" height="12" rx="4"/><rect fill="#512DA8" x="24" y="101" width="136" height="12" rx="4"/><rect fill="#DCD5EE" x="24" y="129" width="224" height="12" rx="4"/><rect fill="#DCD5EE" x="176" y="101" width="72" height="12" rx="4"/><rect fill-opacity=".1" fill="#5182F8" fill-rule="nonzero" x="7" y="8" width="258" height="150" rx="4"/><g fill-rule="nonzero"><use fill="#000" filter="url(#y)" xlink:href="#z"/><use fill="#5182F8" xlink:href="#z"/></g><path transform="translate(6.667 8.667)" stroke="#FFF" stroke-linecap="round" stroke-linejoin="round" stroke-width="2" d="M10.6666667 0L3.33333333 7.33333333 0 4"/></g><g transform="translate(272 164)"><use fill="#000" filter="url(#A)" xlink:href="#B"/><use fill="#FFF" xlink:href="#B"/><g stroke-linecap="square"><use fill="#000" filter="url(#C)" xlink:href="#D"/><rect stroke-opacity=".098" stroke="#140B2F" fill="#FFF" x="-.5" y="-.5" width="257" height="149" rx="4"/></g><g transform="translate(16 16)"><mask id="F" fill="#fff"><use xlink:href="#E"/></mask><use fill="#E4E4F3" xlink:href="#E"/><g mask="url(#F)"><g transform="translate(4 4.5)"><path d="M11.75 1c.522.332 0 3.5.25 4.5.207.83-1.126-.004-4-2.5-1.493.851-2.493 1.351-3 1.5-1.889.555-1.639-1.065-1.5-1.5.275-.895-.128-1.306.5-2C4.699.208 5.623.36 6.673.185 7.365.073 8.095.045 8.793 0c.026 0 .051.008.074.021a.266.266 0 0 1 .088.073c.102.15.191.31.267.474.026.08.078.148.149.193A.416.416 0 0 0 9.586.8c.572-.005 1.667-.087 2.164.2z" fill="#7E7EB1" fill-rule="nonzero"/><path d="M16 19.5H0c0-.99.5-8.25 4.5-8.25 0 0 2.052 3.25 3.5 3.25s3.5-3.25 3.5-3.25c2.667 0 4.167 2.75 4.5 8.25z" fill="#A5A5D8" fill-rule="nonzero"/><path d="M11.5 11.5c0 1.667-1.167 3.333-3.5 5-2.333-1.667-3.5-3.333-3.5-5h7z" fill="#7878AB" fill-rule="nonzero"/><path d="M10 11.01c0 1.431-.667 2.505-2 2.505-1.313 0-1.97-1.107-2-2.505V9h4v2.01z" fill="#B6B6E9" fill-rule="nonzero"/><path d="M7.5 2.75c1.197-.218 2.5 0 3 .25s.5 1 .5 1v4c-.5 1-.5 1.5-1 2s-3.5.5-4 0-.5-1-1-2V4c0-.5 1.303-1.032 2.5-1.25z" fill="#C8C8F7" fill-rule="nonzero"/><path d="M6 10v.75c1 .5 1.833.75 2.5.75s1.167-.167 1.5-.5v-1c-.833.167-1.5.25-2 .25-.333 0-1-.083-2-.25z" fill="#9898CB"/><path d="M7.243 5.569c.161.173.247.32.257.443a.46.46 0 0 1-.075.224.527.527 0 0 1-.42.264.492.492 0 0 1-.257-.069.518.518 0 0 1-.248-.412.506.506 0 0 1 .077-.275.481.481 0 0 1 .666-.175zm1.99-.02a.522.522 0 0 1 .267.427.513.513 0 0 1-.077.277.479.479 0 0 1-.408.245.532.532 0 0 1-.267-.049.499.499 0 0 1-.248-.414.528.528 0 0 1 .465-.535.969.969 0 0 1 .267.05z" fill="#7272A5" fill-rule="nonzero"/><path d="M5 6.5c-.167 1.5-.083 2.5.25 3 .5.75 1.75 1.25 2.75 1.25s2.25-.5 2.75-1.25c.333-.5.417-1.5.25-3-.667 1.333-1.333 2-2 2H7c-.667 0-1.333-.667-2-2z" fill="#B4B4E5"/></g></g></g><path d="M58.555 32h-1.512v-8.455h1.512V32zm1.933 0v-6.41h1.4v1.025h.1c.305-.715 1.055-1.154 2.016-1.154 1.43 0 2.232.861 2.232 2.39V32H64.79v-3.803c0-.978-.445-1.47-1.324-1.47-.938 0-1.524.597-1.524 1.54V32h-1.453zm7.934-7.94h1.447v1.57h1.406v1.161H69.87v3.146c0 .633.27.915.879.915.205 0 .31-.012.48-.03v1.137c-.205.041-.468.07-.75.07-1.47 0-2.056-.498-2.056-1.74v-3.498h-1.043v-1.16h1.043v-1.57zm6.96 2.555c-.866 0-1.476.621-1.54 1.559h3.017c-.029-.95-.603-1.559-1.476-1.559zm1.49 3.621h1.376c-.275 1.166-1.336 1.893-2.848 1.893-1.886 0-3.023-1.248-3.023-3.31 0-2.063 1.154-3.358 3.012-3.358 1.828 0 2.924 1.213 2.924 3.234v.47h-4.477v.075c.035 1.067.65 1.735 1.605 1.735.721 0 1.22-.264 1.43-.739zm2.9 1.764v-6.41h1.4v.996h.1c.175-.633.86-1.102 1.681-1.102.205 0 .457.024.598.065v1.347c-.112-.04-.51-.082-.739-.082-.931 0-1.587.586-1.587 1.483V32H79.77zm4.365-6.41h1.558l1.483 4.957h.1l1.47-4.957h1.535L88.016 32h-1.6l-2.28-6.41zM91.525 32v-6.41h1.448V32h-1.448zm.721-7.453c-.527 0-.896-.34-.896-.803s.369-.803.896-.803c.533 0 .897.34.897.803s-.364.803-.897.803zm5.215 2.068c-.867 0-1.477.621-1.541 1.559h3.017c-.029-.95-.603-1.559-1.476-1.559zm1.488 3.621h1.377c-.275 1.166-1.336 1.893-2.847 1.893-1.887 0-3.024-1.248-3.024-3.31 0-2.063 1.154-3.358 3.012-3.358 1.828 0 2.924 1.213 2.924 3.234v.47h-4.477v.075c.035 1.067.65 1.735 1.606 1.735.72 0 1.218-.264 1.43-.739zm11.485-4.646L108.699 32h-1.53l-1.247-4.617h-.1L104.58 32h-1.512l-1.734-6.41h1.465l1.066 4.787h.1l1.23-4.787h1.389l1.242 4.787h.1l1.06-4.787h1.448zm13.048 0L121.748 32h-1.53l-1.247-4.617h-.1L117.63 32h-1.512l-1.734-6.41h1.465l1.066 4.787h.1l1.23-4.787h1.389l1.242 4.787h.1l1.06-4.787h1.447zm1.98 8.18h-1.317l2.478-10.225h1.342l-2.502 10.225zm6.452-4.073h1.477c.011.698.492 1.155 1.213 1.155.79 0 1.23-.48 1.23-1.39v-5.917h1.512v5.93c0 1.74-1.026 2.736-2.725 2.736-1.617 0-2.707-.984-2.707-2.514zm9.557 1.266c.879 0 1.535-.568 1.535-1.313v-.51l-1.447.094c-.815.053-1.196.346-1.196.868 0 .539.463.86 1.108.86zm-.428 1.142c-1.236 0-2.121-.75-2.121-1.921 0-1.16.873-1.829 2.432-1.922l1.652-.1v-.539c0-.627-.422-.978-1.207-.978-.668 0-1.125.234-1.26.668h-1.371c.117-1.131 1.178-1.852 2.701-1.852 1.647 0 2.572.803 2.572 2.162V32h-1.4v-.879h-.1c-.357.621-1.06.984-1.898.984zm5.144-.105v-6.41h1.4v1.037h.1c.276-.732.932-1.166 1.782-1.166.885 0 1.5.445 1.77 1.166h.099c.316-.703 1.055-1.166 1.945-1.166 1.283 0 2.057.803 2.057 2.133V32h-1.447v-4.037c0-.826-.393-1.236-1.172-1.236-.756 0-1.254.55-1.254 1.283V32h-1.412v-4.143c0-.703-.446-1.13-1.16-1.13-.721 0-1.254.591-1.254 1.377V32h-1.453zm13.565-5.385c-.867 0-1.477.621-1.541 1.559h3.018c-.03-.95-.604-1.559-1.477-1.559zm1.488 3.621h1.377c-.275 1.166-1.336 1.893-2.847 1.893-1.887 0-3.024-1.248-3.024-3.31 0-2.063 1.154-3.358 3.012-3.358 1.828 0 2.924 1.213 2.924 3.234v.47h-4.477v.075c.035 1.067.65 1.735 1.606 1.735.72 0 1.218-.264 1.43-.739zm2.754-2.812c0-1.16 1.055-1.963 2.567-1.963 1.523 0 2.478.674 2.584 1.84h-1.366c-.105-.451-.533-.738-1.213-.738-.662 0-1.16.316-1.16.779 0 .363.305.586.95.732l1.13.258c1.225.275 1.793.803 1.793 1.746 0 1.23-1.13 2.05-2.73 2.05s-2.608-.69-2.719-1.857h1.436c.14.475.591.756 1.318.756.732 0 1.242-.322 1.242-.797 0-.363-.275-.591-.885-.726l-1.136-.264c-1.23-.281-1.81-.85-1.81-1.816zM179.557 32l-.715-2.162h-3.112L175.004 32h-1.53l3-8.455h1.7L181.18 32h-1.623zm-2.315-6.844l-1.16 3.487h2.408l-1.148-3.487h-.1zM182.498 32v-6.41h1.447V32h-1.447zm.72-7.453c-.527 0-.896-.34-.896-.803s.37-.803.897-.803c.533 0 .896.34.896.803s-.363.803-.896.803zm2.38 2.877c0-1.16 1.054-1.963 2.566-1.963 1.524 0 2.479.674 2.584 1.84h-1.365c-.106-.451-.533-.738-1.213-.738-.662 0-1.16.316-1.16.779 0 .363.304.586.949.732l1.13.258c1.225.275 1.794.803 1.794 1.746 0 1.23-1.131 2.05-2.73 2.05-1.6 0-2.608-.69-2.72-1.857h1.436c.14.475.592.756 1.319.756.732 0 1.242-.322 1.242-.797 0-.363-.276-.591-.885-.726l-1.137-.264c-1.23-.281-1.81-.85-1.81-1.816zM192.412 32v-8.889h1.43v3.516h.105c.305-.72 1.06-1.154 2.016-1.154 1.435 0 2.267.867 2.267 2.39V32h-1.447v-3.791c0-.973-.469-1.47-1.36-1.47-.954 0-1.558.62-1.558 1.54V32h-1.453zm9.733-1.037c.878 0 1.535-.568 1.535-1.313v-.51l-1.448.094c-.814.053-1.195.346-1.195.868 0 .539.463.86 1.108.86zm-.428 1.142c-1.237 0-2.121-.75-2.121-1.921 0-1.16.873-1.829 2.431-1.922l1.653-.1v-.539c0-.627-.422-.978-1.207-.978-.668 0-1.125.234-1.26.668h-1.371c.117-1.131 1.178-1.852 2.701-1.852 1.646 0 2.572.803 2.572 2.162V32h-1.4v-.879h-.1c-.357.621-1.06.984-1.898.984zm5.607-8.044h1.447v1.57h1.407v1.16h-1.407v3.146c0 .633.27.915.88.915.204 0 .31-.012.48-.03v1.137c-.205.041-.469.07-.75.07-1.47 0-2.057-.498-2.057-1.74v-3.498h-1.043v-1.16h1.043v-1.57zm9.985 1.529V32h-1.4v-1.02h-.1c-.311.733-1.038 1.149-1.987 1.149-1.412 0-2.285-.873-2.285-2.39v-4.15h1.453v3.804c0 .984.463 1.459 1.336 1.459.938 0 1.53-.58 1.53-1.53V25.59h1.453z" fill="#24124D" opacity=".5"/><rect fill="#DCD5EE" x="16" y="64" width="224" height="12" rx="4"/><rect fill="#DCD5EE" x="16" y="92" width="136" height="12" rx="4"/><rect fill="#512DA8" x="168" y="92" width="72" height="12" rx="4"/><rect fill="#512DA8" x="16" y="120" width="96" height="12" rx="4"/></g><g transform="translate(264 319)"><g transform="translate(8 9)"><use fill="#000" filter="url(#G)" xlink:href="#H"/><use fill="#FFF" xlink:href="#H"/><g stroke-linecap="square"><use fill="#000" filter="url(#I)" xlink:href="#J"/><rect stroke-opacity=".098" stroke="#140B2F" fill="#FFF" x="-.5" y="-.5" width="257" height="177" rx="4"/></g></g><g transform="translate(24 25)"><mask id="L" fill="#fff"><use xlink:href="#K"/></mask><use fill="#E4E4F3" xlink:href="#K"/><g mask="url(#L)" fill-rule="nonzero"><path d="M19 24H5c0-.99 0-8.25 4-8.25 0 0 1.31 3.25 2.759 3.25C13.207 19 15 15.75 15 15.75c2.667 0 4 2.75 4 8.25z" fill="#A5A5D8"/><path d="M15 16c0 1.992-1 3.5-3 3.5-1.97 0-2.955-1.554-3-3.5h6z" fill="#7878AB"/></g><path d="M15.5 11.5c-3.667-1-5.833-1.667-6.5-2-1-1-1-3-.25-4.5.572-1.144 4.25-2 6.75 0 1.667 1.333 1.667 3.5 0 6.5z" fill="#7E7EB1" fill-rule="nonzero" mask="url(#L)"/><path d="M14 15.51c0 1.431-.667 2.505-2 2.505-1.313 0-1.97-1.107-2-2.505V13.5h4v2.01z" fill="#B6B6E9" fill-rule="nonzero" mask="url(#L)"/><path d="M11 7c1.5 0 2.833.667 4 2 1 1.5.54 2.107.25 3.5-.29 1.393-.75 1.5-1.25 2-.252.252-1 .75-2 .75s-1.752-.502-2-.75c-.5-.5-.864-1-1-2s0-3 0-3c1.333 0 2-.833 2-2.5z" fill="#C8C8F7" fill-rule="nonzero" mask="url(#L)"/><path d="M11.243 10.069c.161.173.247.32.257.443a.46.46 0 0 1-.075.224.527.527 0 0 1-.42.264.492.492 0 0 1-.257-.069.518.518 0 0 1-.248-.412.506.506 0 0 1 .077-.275.481.481 0 0 1 .666-.175zm1.99-.02a.522.522 0 0 1 .267.427.513.513 0 0 1-.077.277.479.479 0 0 1-.408.245.532.532 0 0 1-.267-.049.499.499 0 0 1-.248-.414.528.528 0 0 1 .465-.535.969.969 0 0 1 .267.05z" fill="#7272A5" fill-rule="nonzero" mask="url(#L)"/><path d="M10 14.5v.5c1 .667 1.833 1 2.5 1s1.167-.333 1.5-1v-.5c-.5.333-1.167.5-2 .5s-1.5-.167-2-.5z" fill="#9898CB" mask="url(#L)"/></g><path d="M68.693 32.334c2.455 0 3.99 1.705 3.99 4.436 0 2.724-1.523 4.44-3.99 4.44-2.484 0-4.007-1.71-4.007-4.44 0-2.73 1.552-4.436 4.007-4.436zm0 1.342c-1.505 0-2.46 1.201-2.46 3.094 0 1.886.931 3.1 2.46 3.1 1.506 0 2.444-1.214 2.444-3.1 0-1.893-.944-3.094-2.444-3.094zM74.723 41v-5.209H73.68v-1.16h1.043v-.639c0-1.3.673-1.828 2.08-1.828.258 0 .51.023.767.065v1.084a2.857 2.857 0 0 0-.556-.047c-.569 0-.868.246-.868.82v.545h1.39v1.16H76.17V41h-1.447zm4.693 0v-5.209h-1.043v-1.16h1.043v-.639c0-1.3.674-1.828 2.08-1.828.258 0 .51.023.768.065v1.084a2.857 2.857 0 0 0-.557-.047c-.568 0-.867.246-.867.82v.545h1.389v1.16h-1.366V41h-1.447zm4.248 0v-6.41h1.447V41h-1.447zm.72-7.453c-.527 0-.896-.34-.896-.803s.37-.803.897-.803c.533 0 .896.34.896.803s-.363.803-.896.803zm8.063 3.2h-1.383c-.134-.622-.615-1.067-1.412-1.067-.996 0-1.588.767-1.588 2.097 0 1.348.598 2.133 1.588 2.133.756 0 1.26-.357 1.412-1.025h1.383c-.158 1.342-1.166 2.244-2.789 2.244-1.928 0-3.064-1.242-3.064-3.352 0-2.08 1.13-3.316 3.058-3.316 1.647 0 2.643.937 2.795 2.285zm4.078-1.132c-.867 0-1.476.621-1.54 1.559h3.017c-.03-.95-.604-1.559-1.477-1.559zm1.489 3.621h1.377c-.276 1.166-1.336 1.893-2.848 1.893-1.887 0-3.023-1.248-3.023-3.31 0-2.063 1.154-3.358 3.011-3.358 1.828 0 2.924 1.213 2.924 3.234v.47H94.98v.075c.035 1.067.65 1.735 1.605 1.735.72 0 1.219-.264 1.43-.739zm5.543-4.646h1.558l1.483 4.957h.1l1.47-4.957h1.535L107.436 41h-1.6l-2.28-6.41zm7.388 6.41v-6.41h1.448V41h-1.448zm.721-7.453c-.527 0-.896-.34-.896-.803s.369-.803.896-.803c.533 0 .897.34.897.803s-.364.803-.897.803zm2.379 2.877c0-1.16 1.055-1.963 2.566-1.963 1.524 0 2.479.674 2.584 1.84h-1.365c-.105-.451-.533-.739-1.213-.739-.662 0-1.16.317-1.16.78 0 .363.305.586.95.732l1.13.258c1.225.275 1.793.803 1.793 1.746 0 1.23-1.13 2.05-2.73 2.05s-2.608-.69-2.72-1.857h1.436c.141.475.592.756 1.319.756.732 0 1.242-.322 1.242-.797 0-.363-.275-.591-.885-.726l-1.137-.264c-1.23-.281-1.81-.85-1.81-1.816zM120.818 41v-6.41h1.448V41h-1.448zm.721-7.453c-.527 0-.896-.34-.896-.803s.369-.803.896-.803c.533 0 .897.34.897.803s-.364.803-.897.803zm2.988-.486h1.448v1.57h1.406v1.16h-1.406v3.147c0 .632.27.914.879.914.205 0 .31-.012.48-.03v1.137c-.205.041-.469.07-.75.07-1.47 0-2.057-.498-2.057-1.74v-3.498h-1.043v-1.16h1.043v-1.57z" fill="#24124D" opacity=".5"/><rect fill="#512DA8" x="24" y="73" width="224" height="12" rx="4"/><rect fill="#DCD5EE" x="24" y="101" width="136" height="12" rx="4"/><rect fill="#DCD5EE" x="24" y="129" width="72" height="12" rx="4"/><rect fill="#DCD5EE" x="112" y="129" width="136" height="12" rx="4"/><rect fill="#DCD5EE" x="24" y="157" width="120" height="12" rx="4"/><rect fill-opacity=".1" fill="#5182F8" fill-rule="nonzero" x="7" y="8" width="258" height="178" rx="4"/><g fill-rule="nonzero"><use fill="#000" filter="url(#M)" xlink:href="#N"/><use fill="#5182F8" xlink:href="#N"/></g><path transform="translate(6.667 8.667)" stroke="#FFF" stroke-linecap="round" stroke-linejoin="round" stroke-width="2" d="M10.6666667 0L3.33333333 7.33333333 0 4"/></g><g transform="translate(544 204)"><use fill="#000" filter="url(#O)" xlink:href="#P"/><use fill="#FFF" xlink:href="#P"/><g stroke-linecap="square"><use fill="#000" filter="url(#Q)" xlink:href="#R"/><rect stroke-opacity=".098" stroke="#140B2F" fill="#FFF" x="-.5" y="-.5" width="257" height="149" rx="4"/></g><g transform="translate(16 16)"><mask id="T" fill="#fff"><use xlink:href="#S"/></mask><use fill="#E4E4F3" xlink:href="#S"/><g mask="url(#T)" fill-rule="nonzero"><path d="M19 24H5c0-.99 0-8.25 4-8.25 0 0 1.31 3.25 2.759 3.25C13.207 19 15 15.75 15 15.75c2.667 0 4 2.75 4 8.25z" fill="#A5A5D8"/><path d="M15 16c0 1.992-1 3.5-3 3.5-1.97 0-2.955-1.554-3-3.5h6z" fill="#7878AB"/></g><path d="M15.5 11.5c-3.667-1-5.833-1.667-6.5-2-1-1-1-3-.25-4.5.572-1.144 4.25-2 6.75 0 1.667 1.333 1.667 3.5 0 6.5z" fill="#7E7EB1" fill-rule="nonzero" mask="url(#T)"/><path d="M14 15.51c0 1.431-.667 2.505-2 2.505-1.313 0-1.97-1.107-2-2.505V13.5h4v2.01z" fill="#B6B6E9" fill-rule="nonzero" mask="url(#T)"/><path d="M11 7c1.5 0 2.833.667 4 2 1 1.5.54 2.107.25 3.5-.29 1.393-.75 1.5-1.25 2-.252.252-1 .75-2 .75s-1.752-.502-2-.75c-.5-.5-.864-1-1-2s0-3 0-3c1.333 0 2-.833 2-2.5z" fill="#C8C8F7" fill-rule="nonzero" mask="url(#T)"/><path d="M11.243 10.069c.161.173.247.32.257.443a.46.46 0 0 1-.075.224.527.527 0 0 1-.42.264.492.492 0 0 1-.257-.069.518.518 0 0 1-.248-.412.506.506 0 0 1 .077-.275.481.481 0 0 1 .666-.175zm1.99-.02a.522.522 0 0 1 .267.427.513.513 0 0 1-.077.277.479.479 0 0 1-.408.245.532.532 0 0 1-.267-.049.499.499 0 0 1-.248-.414.528.528 0 0 1 .465-.535.969.969 0 0 1 .267.05z" fill="#7272A5" fill-rule="nonzero" mask="url(#T)"/><path d="M10 14.5v.5c1 .667 1.833 1 2.5 1s1.167-.333 1.5-1v-.5c-.5.333-1.167.5-2 .5s-1.5-.167-2-.5z" fill="#9898CB" mask="url(#T)"/></g><path d="M58.555 32h-1.512v-8.455h1.512V32zm1.933 0v-6.41h1.4v1.025h.1c.305-.715 1.055-1.154 2.016-1.154 1.43 0 2.232.861 2.232 2.39V32H64.79v-3.803c0-.978-.445-1.47-1.324-1.47-.938 0-1.524.597-1.524 1.54V32h-1.453zm7.934-7.94h1.447v1.57h1.406v1.161H69.87v3.146c0 .633.27.915.879.915.205 0 .31-.012.48-.03v1.137c-.205.041-.468.07-.75.07-1.47 0-2.056-.498-2.056-1.74v-3.498h-1.043v-1.16h1.043v-1.57zm6.96 2.555c-.866 0-1.476.621-1.54 1.559h3.017c-.029-.95-.603-1.559-1.476-1.559zm1.49 3.621h1.376c-.275 1.166-1.336 1.893-2.848 1.893-1.886 0-3.023-1.248-3.023-3.31 0-2.063 1.154-3.358 3.012-3.358 1.828 0 2.924 1.213 2.924 3.234v.47h-4.477v.075c.035 1.067.65 1.735 1.605 1.735.721 0 1.22-.264 1.43-.739zm2.9 1.764v-6.41h1.4v.996h.1c.175-.633.86-1.102 1.681-1.102.205 0 .457.024.598.065v1.347c-.112-.04-.51-.082-.739-.082-.931 0-1.587.586-1.587 1.483V32H79.77zm4.365-6.41h1.558l1.483 4.957h.1l1.47-4.957h1.535L88.016 32h-1.6l-2.28-6.41zM91.525 32v-6.41h1.448V32h-1.448zm.721-7.453c-.527 0-.896-.34-.896-.803s.369-.803.896-.803c.533 0 .897.34.897.803s-.364.803-.897.803zm5.215 2.068c-.867 0-1.477.621-1.541 1.559h3.017c-.029-.95-.603-1.559-1.476-1.559zm1.488 3.621h1.377c-.275 1.166-1.336 1.893-2.847 1.893-1.887 0-3.024-1.248-3.024-3.31 0-2.063 1.154-3.358 3.012-3.358 1.828 0 2.924 1.213 2.924 3.234v.47h-4.477v.075c.035 1.067.65 1.735 1.606 1.735.72 0 1.218-.264 1.43-.739zm11.485-4.646L108.699 32h-1.53l-1.247-4.617h-.1L104.58 32h-1.512l-1.734-6.41h1.465l1.066 4.787h.1l1.23-4.787h1.389l1.242 4.787h.1l1.06-4.787h1.448zm13.048 0L121.748 32h-1.53l-1.247-4.617h-.1L117.63 32h-1.512l-1.734-6.41h1.465l1.066 4.787h.1l1.23-4.787h1.389l1.242 4.787h.1l1.06-4.787h1.447zm1.98 8.18h-1.317l2.478-10.225h1.342l-2.502 10.225zM136.11 32h-1.511v-7.148h-2.602v-1.307h6.72v1.307h-2.607V32zm4.037 0v-6.41h1.4v.996h.1c.176-.633.862-1.102 1.682-1.102.205 0 .457.024.598.065v1.347c-.112-.04-.51-.082-.738-.082-.932 0-1.588.586-1.588 1.483V32h-1.454zm4.94 0v-6.41h1.447V32h-1.447zm.72-7.453c-.527 0-.896-.34-.896-.803s.37-.803.897-.803c.533 0 .896.34.896.803s-.363.803-.896.803zM148.333 32v-6.41h1.4v1.025h.1c.305-.715 1.055-1.154 2.016-1.154 1.43 0 2.232.861 2.232 2.39V32h-1.447v-3.803c0-.978-.446-1.47-1.324-1.47-.938 0-1.524.597-1.524 1.54V32h-1.453zm9.662-1.037c.879 0 1.535-.568 1.535-1.313v-.51l-1.447.094c-.814.053-1.195.346-1.195.868 0 .539.463.86 1.107.86zm-.428 1.142c-1.236 0-2.12-.75-2.12-1.921 0-1.16.872-1.829 2.431-1.922l1.652-.1v-.539c0-.627-.422-.978-1.207-.978-.668 0-1.125.234-1.26.668h-1.37c.117-1.131 1.177-1.852 2.7-1.852 1.647 0 2.573.803 2.573 2.162V32h-1.4v-.879h-.1c-.358.621-1.06.984-1.899.984zm12.024.106c-2.397 0-3.885-1.7-3.885-4.436 0-2.748 1.482-4.441 3.879-4.441 1.922 0 3.404 1.254 3.58 3.018h-1.488c-.211-1.014-1.026-1.67-2.092-1.67-1.436 0-2.332 1.183-2.332 3.088 0 1.91.896 3.093 2.338 3.093 1.072 0 1.887-.597 2.092-1.547h1.488c-.2 1.729-1.629 2.895-3.58 2.895zm7.295-1.248c.879 0 1.535-.568 1.535-1.313v-.51l-1.447.094c-.815.053-1.196.346-1.196.868 0 .539.463.86 1.108.86zm-.428 1.142c-1.236 0-2.121-.75-2.121-1.921 0-1.16.873-1.829 2.432-1.922l1.652-.1v-.539c0-.627-.422-.978-1.207-.978-.668 0-1.125.234-1.26.668h-1.371c.117-1.131 1.178-1.852 2.701-1.852 1.647 0 2.572.803 2.572 2.162V32h-1.4v-.879h-.1c-.357.621-1.06.984-1.898.984zm4.998-4.681c0-1.16 1.055-1.963 2.566-1.963 1.524 0 2.479.674 2.584 1.84h-1.365c-.105-.451-.533-.738-1.213-.738-.662 0-1.16.316-1.16.779 0 .363.305.586.95.732l1.13.258c1.225.275 1.793.803 1.793 1.746 0 1.23-1.13 2.05-2.73 2.05s-2.608-.69-2.719-1.857h1.436c.14.475.591.756 1.318.756.732 0 1.242-.322 1.242-.797 0-.363-.275-.591-.885-.726l-1.136-.264c-1.23-.281-1.81-.85-1.81-1.816zm6.61 0c0-1.16 1.054-1.963 2.566-1.963 1.523 0 2.478.674 2.584 1.84h-1.365c-.106-.451-.534-.738-1.213-.738-.662 0-1.16.316-1.16.779 0 .363.304.586.949.732l1.13.258c1.225.275 1.794.803 1.794 1.746 0 1.23-1.131 2.05-2.73 2.05-1.6 0-2.608-.69-2.72-1.857h1.436c.14.475.592.756 1.318.756.733 0 1.242-.322 1.242-.797 0-.363-.275-.591-.884-.726l-1.137-.264c-1.23-.281-1.81-.85-1.81-1.816zM194.837 32v-6.41h1.447V32h-1.447zm.72-7.453c-.527 0-.896-.34-.896-.803s.37-.803.897-.803c.533 0 .896.34.896.803s-.363.803-.896.803zm5.215 2.068c-.867 0-1.476.621-1.54 1.559h3.017c-.03-.95-.604-1.559-1.477-1.559zm1.489 3.621h1.377c-.276 1.166-1.336 1.893-2.848 1.893-1.887 0-3.023-1.248-3.023-3.31 0-2.063 1.154-3.358 3.011-3.358 1.828 0 2.924 1.213 2.924 3.234v.47h-4.476v.075c.035 1.067.65 1.735 1.605 1.735.72 0 1.219-.264 1.43-.739z" fill="#24124D" opacity=".5"/><rect fill="#DCD5EE" x="16" y="120" width="96" height="12" rx="4"/><rect fill="#DCD5EE" x="128" y="120" width="112" height="12" rx="4"/><rect fill="#512DA8" x="16" y="92" width="136" height="12" rx="4"/><rect fill="#512DA8" x="16" y="64" width="224" height="12" rx="4"/></g><g transform="translate(0 16)"><rect fill="#512DA8" width="24" height="24" rx="3"/><path d="M40.766 13.32h1.722c.11.882.985 1.45 2.236 1.45 1.162 0 2.003-.595 2.003-1.422 0-.711-.54-1.128-1.805-1.422l-1.278-.294c-1.791-.403-2.632-1.292-2.632-2.762 0-1.79 1.463-2.98 3.67-2.98 2.072 0 3.569 1.19 3.651 2.884h-1.688c-.124-.868-.89-1.415-1.97-1.415-1.134 0-1.886.547-1.886 1.388 0 .663.5 1.053 1.723 1.333l1.134.26c2.003.451 2.844 1.285 2.844 2.789 0 1.92-1.483 3.117-3.876 3.117-2.262 0-3.76-1.135-3.848-2.926zm12.667-3.602c-1.012 0-1.723.724-1.798 1.818h3.52c-.034-1.107-.704-1.818-1.722-1.818zm1.736 4.224h1.606c-.32 1.36-1.558 2.208-3.322 2.208-2.201 0-3.527-1.456-3.527-3.862s1.346-3.917 3.513-3.917c2.133 0 3.412 1.415 3.412 3.774v.546h-5.223v.09c.04 1.243.759 2.023 1.873 2.023.84 0 1.422-.308 1.668-.862zm5.94.848c1.026 0 1.791-.663 1.791-1.531v-.595l-1.688.11c-.95.061-1.395.403-1.395 1.011 0 .63.54 1.005 1.292 1.005zm-.499 1.333c-1.442 0-2.474-.875-2.474-2.242 0-1.354 1.018-2.133 2.837-2.242l1.927-.117v-.628c0-.732-.492-1.142-1.408-1.142-.78 0-1.312.273-1.47.78h-1.6c.138-1.32 1.375-2.16 3.152-2.16 1.921 0 3.001.936 3.001 2.522V16h-1.634v-1.025h-.116c-.417.724-1.237 1.148-2.215 1.148zM66.612 16V8.521h1.634v1.163h.116c.205-.739 1.005-1.286 1.962-1.286.24 0 .533.028.697.076v1.572c-.13-.048-.594-.096-.86-.096-1.088 0-1.853.684-1.853 1.73V16h-1.696zm12.202-4.963h-1.613c-.157-.725-.718-1.244-1.647-1.244-1.162 0-1.853.895-1.853 2.447 0 1.572.697 2.489 1.853 2.489.882 0 1.47-.417 1.647-1.197h1.613c-.184 1.566-1.36 2.618-3.253 2.618-2.25 0-3.576-1.449-3.576-3.91 0-2.427 1.32-3.869 3.569-3.869 1.92 0 3.083 1.094 3.26 2.666zM80.503 16V5.63h1.668V9.73h.123c.355-.84 1.237-1.346 2.352-1.346 1.674 0 2.645 1.011 2.645 2.789V16h-1.688v-4.423c0-1.135-.547-1.716-1.586-1.716-1.115 0-1.819.725-1.819 1.798V16h-1.695z" fill="#24124D" opacity=".6"/></g></g></svg>