<svg width="400" height="320" viewBox="0 0 400 320" xmlns="http://www.w3.org/2000/svg" xmlns:xlink="http://www.w3.org/1999/xlink"><title>illustration/highlight-edit</title><defs><path d="M3 8h362a3 3 0 0 1 3 3v53H0V11a3 3 0 0 1 3-3z" id="b"/><filter x="-3.3%" y="-21.4%" width="106.5%" height="142.9%" filterUnits="objectBoundingBox" id="a"><feOffset in="SourceAlpha" result="shadowOffsetOuter1"/><feGaussianBlur stdDeviation="4" in="shadowOffsetOuter1" result="shadowBlurOuter1"/><feColorMatrix values="0 0 0 0 0 0 0 0 0 0 0 0 0 0 0 0 0 0 0.16 0" in="shadowBlurOuter1"/></filter><rect id="d" width="48" height="32" rx="4"/><filter x="-9.4%" y="-10.9%" width="118.8%" height="128.1%" filterUnits="objectBoundingBox" id="c"><feMorphology radius="1" operator="dilate" in="SourceAlpha" result="shadowSpreadOuter1"/><feOffset dy="1" in="shadowSpreadOuter1" result="shadowOffsetOuter1"/><feGaussianBlur stdDeviation="1" in="shadowOffsetOuter1" result="shadowBlurOuter1"/><feComposite in="shadowBlurOuter1" in2="SourceAlpha" operator="out" result="shadowBlurOuter1"/><feColorMatrix values="0 0 0 0 0 0 0 0 0 0 0 0 0 0 0 0 0 0 0.04 0" in="shadowBlurOuter1"/></filter><rect id="f" width="71" height="32" rx="4"/><filter x="-6.3%" y="-10.9%" width="112.7%" height="128.1%" filterUnits="objectBoundingBox" id="e"><feMorphology radius="1" operator="dilate" in="SourceAlpha" result="shadowSpreadOuter1"/><feOffset dy="1" in="shadowSpreadOuter1" result="shadowOffsetOuter1"/><feGaussianBlur stdDeviation="1" in="shadowOffsetOuter1" result="shadowBlurOuter1"/><feComposite in="shadowBlurOuter1" in2="SourceAlpha" operator="out" result="shadowBlurOuter1"/><feColorMatrix values="0 0 0 0 0 0 0 0 0 0 0 0 0 0 0 0 0 0 0.04 0" in="shadowBlurOuter1"/></filter><rect id="h" width="48" height="32" rx="4"/><filter x="-9.4%" y="-10.9%" width="118.8%" height="128.1%" filterUnits="objectBoundingBox" id="g"><feMorphology radius="1" operator="dilate" in="SourceAlpha" result="shadowSpreadOuter1"/><feOffset dy="1" in="shadowSpreadOuter1" result="shadowOffsetOuter1"/><feGaussianBlur stdDeviation="1" in="shadowOffsetOuter1" result="shadowBlurOuter1"/><feComposite in="shadowBlurOuter1" in2="SourceAlpha" operator="out" result="shadowBlurOuter1"/><feColorMatrix values="0 0 0 0 0 0 0 0 0 0 0 0 0 0 0 0 0 0 0.04 0" in="shadowBlurOuter1"/></filter><rect id="j" x="2" y="2" width="364" height="116" rx="4"/><filter x="-1.9%" y="-4.3%" width="103.8%" height="112.1%" filterUnits="objectBoundingBox" id="i"><feOffset dy="2" in="SourceAlpha" result="shadowOffsetOuter1"/><feGaussianBlur stdDeviation="2" in="shadowOffsetOuter1" result="shadowBlurOuter1"/><feColorMatrix values="0 0 0 0 0 0 0 0 0 0 0 0 0 0 0 0 0 0 0.2 0" in="shadowBlurOuter1"/></filter><rect id="l" width="368" height="120" rx="4"/><filter x="-1.2%" y="-2.9%" width="102.4%" height="107.5%" filterUnits="objectBoundingBox" id="k"><feMorphology radius="1" operator="dilate" in="SourceAlpha" result="shadowSpreadOuter1"/><feOffset dy="1" in="shadowSpreadOuter1" result="shadowOffsetOuter1"/><feGaussianBlur stdDeviation="1" in="shadowOffsetOuter1" result="shadowBlurOuter1"/><feComposite in="shadowBlurOuter1" in2="SourceAlpha" operator="out" result="shadowBlurOuter1"/><feColorMatrix values="0 0 0 0 0 0 0 0 0 0 0 0 0 0 0 0 0 0 0.04 0" in="shadowBlurOuter1"/></filter><circle id="m" cx="12" cy="12" r="12"/><circle id="p" cx="12" cy="12" r="12"/><filter x="-27.1%" y="-22.9%" width="154.2%" height="154.2%" filterUnits="objectBoundingBox" id="o"><feOffset dy="1" in="SourceAlpha" result="shadowOffsetOuter1"/><feGaussianBlur stdDeviation="2" in="shadowOffsetOuter1" result="shadowBlurOuter1"/><feColorMatrix values="0 0 0 0 0.141176471 0 0 0 0 0.0705882353 0 0 0 0 0.301960784 0 0 0 0.16 0" in="shadowBlurOuter1"/></filter><rect id="r" x="2" y="2" width="364" height="76" rx="4"/><filter x="-1.9%" y="-6.6%" width="103.8%" height="118.4%" filterUnits="objectBoundingBox" id="q"><feOffset dy="2" in="SourceAlpha" result="shadowOffsetOuter1"/><feGaussianBlur stdDeviation="2" in="shadowOffsetOuter1" result="shadowBlurOuter1"/><feColorMatrix values="0 0 0 0 0 0 0 0 0 0 0 0 0 0 0 0 0 0 0.2 0" in="shadowBlurOuter1"/></filter><rect id="t" width="368" height="80" rx="4"/><filter x="-1.2%" y="-4.4%" width="102.4%" height="111.2%" filterUnits="objectBoundingBox" id="s"><feMorphology radius="1" operator="dilate" in="SourceAlpha" result="shadowSpreadOuter1"/><feOffset dy="1" in="shadowSpreadOuter1" result="shadowOffsetOuter1"/><feGaussianBlur stdDeviation="1" in="shadowOffsetOuter1" result="shadowBlurOuter1"/><feComposite in="shadowBlurOuter1" in2="SourceAlpha" operator="out" result="shadowBlurOuter1"/><feColorMatrix values="0 0 0 0 0 0 0 0 0 0 0 0 0 0 0 0 0 0 0.04 0" in="shadowBlurOuter1"/></filter><circle id="u" cx="12" cy="12" r="12"/><circle id="x" cx="12" cy="12" r="12"/><filter x="-27.1%" y="-22.9%" width="154.2%" height="154.2%" filterUnits="objectBoundingBox" id="w"><feOffset dy="1" in="SourceAlpha" result="shadowOffsetOuter1"/><feGaussianBlur stdDeviation="2" in="shadowOffsetOuter1" result="shadowBlurOuter1"/><feColorMatrix values="0 0 0 0 0.141176471 0 0 0 0 0.0705882353 0 0 0 0 0.301960784 0 0 0 0.16 0" in="shadowBlurOuter1"/></filter></defs><g transform="translate(8 16)" fill="none" fill-rule="evenodd"><g transform="translate(8)"><use filter="url(#a)" xlink:href="#b" fill="#000"/><rect fill="#5B93FF" width="368" height="56" rx="4"/><g transform="translate(225 12)"><g stroke-linecap="square"><use fill="#000" filter="url(#c)" xlink:href="#d"/><rect stroke-opacity=".098" stroke="#140B2F" fill="#FFF" x="-.5" y="-.5" width="49" height="33" rx="4"/></g><path d="M17.677 20.2l-.834-2.522h-3.63l-.848 2.522h-1.784l3.5-9.864h1.982L19.57 20.2h-1.893zm-2.7-7.984l-1.354 4.067h2.81l-1.34-4.067h-.116zm8.818 8.107c-1.894 0-3.076-1.49-3.076-3.87 0-2.364 1.19-3.855 3.076-3.855 1.025 0 1.873.493 2.27 1.313h.116V9.83h1.695V20.2h-1.64v-1.183h-.117c-.424.82-1.285 1.306-2.324 1.306zm.526-6.282c-1.155 0-1.866.916-1.866 2.42 0 1.51.704 2.42 1.866 2.42 1.17 0 1.88-.916 1.88-2.42 0-1.49-.718-2.42-1.88-2.42zm8.402 6.282c-1.894 0-3.077-1.49-3.077-3.87 0-2.364 1.19-3.855 3.077-3.855 1.025 0 1.873.493 2.27 1.313h.115V9.83h1.696V20.2h-1.64v-1.183h-.117c-.424.82-1.285 1.306-2.324 1.306zm.526-6.282c-1.155 0-1.866.916-1.866 2.42 0 1.51.704 2.42 1.866 2.42 1.169 0 1.88-.916 1.88-2.42 0-1.49-.718-2.42-1.88-2.42z" fill="#24124D"/></g><g transform="translate(281 12)"><g stroke-linecap="square"><use fill="#000" filter="url(#e)" xlink:href="#f"/><rect stroke-opacity=".098" stroke="#140B2F" fill="#FFF" x="-.5" y="-.5" width="72" height="33" rx="4"/></g><path d="M11.017 11.799V15.1h2.037c1.121 0 1.764-.601 1.764-1.647 0-1.025-.684-1.654-1.805-1.654h-1.996zm0 4.703V20.2H9.253v-9.864h4.006c2.072 0 3.37 1.19 3.37 3.083 0 1.299-.683 2.385-1.859 2.81l2.153 3.971h-2.016l-1.935-3.698h-1.955zm10.705-2.584c-1.012 0-1.722.724-1.798 1.818h3.52c-.033-1.107-.703-1.818-1.722-1.818zm1.736 4.224h1.607c-.321 1.36-1.559 2.208-3.322 2.208-2.201 0-3.528-1.456-3.528-3.862s1.347-3.917 3.514-3.917c2.133 0 3.411 1.415 3.411 3.774v.546h-5.223v.09c.041 1.243.76 2.023 1.874 2.023.84 0 1.421-.308 1.667-.862zm7.459-5.544c1.893 0 3.083 1.463 3.083 3.863 0 2.385-1.176 3.862-3.063 3.862-1.073 0-1.9-.465-2.283-1.258h-.116v3.528h-1.696V12.72h1.634v1.238h.116c.43-.848 1.3-1.36 2.325-1.36zm-.534 6.283c1.176 0 1.873-.91 1.873-2.42 0-1.511-.704-2.42-1.866-2.42-1.155 0-1.88.93-1.887 2.42.007 1.497.725 2.42 1.88 2.42zM35.77 20.2V9.83h1.695V20.2H35.77zm6.392-1.21c1.025 0 1.79-.663 1.79-1.531v-.595l-1.688.11c-.95.061-1.394.403-1.394 1.011 0 .63.54 1.005 1.292 1.005zm-.5 1.333c-1.442 0-2.474-.875-2.474-2.242 0-1.354 1.019-2.133 2.837-2.242l1.928-.117v-.628c0-.732-.493-1.142-1.409-1.142-.779 0-1.312.273-1.47.78h-1.599c.137-1.32 1.374-2.16 3.151-2.16 1.921 0 3.001.936 3.001 2.522V20.2h-1.633v-1.025h-.117c-.417.724-1.237 1.148-2.214 1.148zm12.463-5.086H52.51c-.157-.725-.718-1.244-1.647-1.244-1.162 0-1.853.895-1.853 2.447 0 1.572.697 2.489 1.853 2.489.882 0 1.47-.417 1.647-1.197h1.614c-.185 1.566-1.36 2.618-3.254 2.618-2.25 0-3.576-1.449-3.576-3.91 0-2.427 1.32-3.869 3.569-3.869 1.92 0 3.083 1.094 3.26 2.666zm4.757-1.32c-1.011 0-1.722.725-1.798 1.82h3.521c-.034-1.108-.704-1.82-1.723-1.82zm1.737 4.225h1.606c-.321 1.36-1.558 2.208-3.322 2.208-2.201 0-3.528-1.456-3.528-3.862s1.347-3.917 3.514-3.917c2.133 0 3.411 1.415 3.411 3.774v.546h-5.222v.09c.04 1.243.758 2.023 1.873 2.023.84 0 1.422-.308 1.668-.862z" fill="#24124D"/></g><g transform="translate(16 12)"><g stroke-linecap="square"><use fill="#000" filter="url(#g)" xlink:href="#h"/><rect stroke-opacity=".098" stroke="#140B2F" fill="#FFF" x="-.5" y="-.5" width="49" height="33" rx="4"/></g><g transform="translate(16 10)" stroke="#7B7194" stroke-linecap="round" stroke-linejoin="round" stroke-width="2"><path d="M16 6H0"/><path d="M6 12L0 6 6 0"/></g></g><path d="M80 25.86c0-1.56 1.178-2.65 2.842-2.65 1.605 0 2.789 1.02 2.789 2.415 0 .896-.434 1.629-1.852 3.064l-1.88 1.905v.1h3.867v1.177H80.07v-.95l2.86-2.976c1.13-1.177 1.406-1.623 1.406-2.244 0-.773-.662-1.353-1.535-1.353-.932 0-1.559.609-1.559 1.511v.018H80v-.018zm10.623 1.435c0-1.13 1.037-1.928 2.479-1.928 1.435 0 2.373.668 2.496 1.793H94.39c-.118-.469-.575-.767-1.29-.767-.703 0-1.236.334-1.236.832 0 .38.323.62 1.014.779l1.06.246c1.213.281 1.782.803 1.782 1.74 0 1.201-1.12 2.004-2.643 2.004-1.517 0-2.508-.685-2.619-1.816h1.26c.158.492.627.797 1.388.797.786 0 1.342-.352 1.342-.862 0-.38-.299-.627-.937-.779l-1.114-.258c-1.212-.287-1.775-.832-1.775-1.781zm9.234-.856c-.931 0-1.582.657-1.652 1.653h3.223c-.03-1.002-.639-1.653-1.57-1.653zm1.565 3.71h1.213c-.287 1.142-1.307 1.845-2.766 1.845-1.828 0-2.947-1.254-2.947-3.293s1.142-3.334 2.941-3.334c1.776 0 2.848 1.213 2.848 3.217v.44h-4.506v.07c.041 1.119.691 1.828 1.7 1.828.761 0 1.282-.276 1.517-.774zm2.86 1.722V23h1.259v8.871h-1.26zm5.765-5.432c-.932 0-1.582.657-1.652 1.653h3.222c-.03-1.002-.638-1.653-1.57-1.653zm1.564 3.71h1.213c-.287 1.142-1.306 1.845-2.765 1.845-1.829 0-2.948-1.254-2.948-3.293s1.143-3.334 2.942-3.334c1.775 0 2.847 1.213 2.847 3.217v.44h-4.505v.07c.04 1.119.69 1.828 1.699 1.828.761 0 1.283-.276 1.517-.774zm8.203-2.573h-1.224c-.147-.62-.662-1.084-1.506-1.084-1.055 0-1.7.809-1.7 2.168 0 1.383.651 2.21 1.7 2.21.797 0 1.342-.364 1.506-1.05h1.224c-.164 1.284-1.148 2.174-2.724 2.174-1.858 0-2.994-1.254-2.994-3.334 0-2.045 1.13-3.293 2.988-3.293 1.6 0 2.566.932 2.73 2.21zm1.881-3.633h1.26v1.577h1.43v1.06h-1.43v3.281c0 .668.275.961.902.961.194 0 .293-.011.47-.029v1.049a3.87 3.87 0 0 1-.675.064c-1.4 0-1.957-.492-1.957-1.722V26.58h-1.049v-1.06h1.05v-1.577zm6.744 2.496c-.931 0-1.582.657-1.652 1.653h3.223c-.03-1.002-.639-1.653-1.57-1.653zm1.565 3.71h1.213c-.287 1.142-1.307 1.845-2.766 1.845-1.828 0-2.947-1.254-2.947-3.293s1.142-3.334 2.941-3.334c1.776 0 2.848 1.213 2.848 3.217v.44h-4.506v.07c.041 1.119.692 1.828 1.7 1.828.761 0 1.283-.276 1.517-.774zm5.133 1.828c-1.623 0-2.649-1.278-2.649-3.3 0-2.015 1.037-3.292 2.649-3.292.873 0 1.611.416 1.957 1.119h.094V23h1.26v8.871h-1.208v-1.008h-.1c-.38.698-1.124 1.114-2.003 1.114zm.357-5.461c-1.06 0-1.705.82-1.705 2.162 0 1.353.639 2.168 1.705 2.168 1.06 0 1.717-.826 1.717-2.162 0-1.33-.662-2.168-1.717-2.168z" fill="#FFF" opacity=".8"/></g><g transform="translate(0 63)"><g transform="translate(8 9)"><use fill="#000" filter="url(#i)" xlink:href="#j"/><use fill="#FFF" xlink:href="#j"/><g stroke-linecap="square"><use fill="#000" filter="url(#k)" xlink:href="#l"/><rect stroke-opacity=".098" stroke="#140B2F" fill="#FFF" x="-.5" y="-.5" width="369" height="121" rx="4"/></g></g><g transform="translate(24 25)"><mask id="n" fill="#fff"><use xlink:href="#m"/></mask><use fill="#E4E4F3" xlink:href="#m"/><g mask="url(#n)"><g transform="translate(4 4.5)"><path d="M11.75 1c.522.332 0 3.5.25 4.5.207.83-1.126-.004-4-2.5-1.493.851-2.493 1.351-3 1.5-1.889.555-1.639-1.065-1.5-1.5.275-.895-.128-1.306.5-2C4.699.208 5.623.36 6.673.185 7.365.073 8.095.045 8.793 0c.026 0 .051.008.074.021a.266.266 0 0 1 .088.073c.102.15.191.31.267.474.026.08.078.148.149.193A.416.416 0 0 0 9.586.8c.572-.005 1.667-.087 2.164.2z" fill="#7E7EB1" fill-rule="nonzero"/><path d="M16 19.5H0c0-.99.5-8.25 4.5-8.25 0 0 2.052 3.25 3.5 3.25s3.5-3.25 3.5-3.25c2.667 0 4.167 2.75 4.5 8.25z" fill="#A5A5D8" fill-rule="nonzero"/><path d="M11.5 11.5c0 1.667-1.167 3.333-3.5 5-2.333-1.667-3.5-3.333-3.5-5h7z" fill="#7878AB" fill-rule="nonzero"/><path d="M10 11.01c0 1.431-.667 2.505-2 2.505-1.313 0-1.97-1.107-2-2.505V9h4v2.01z" fill="#B6B6E9" fill-rule="nonzero"/><path d="M7.5 2.75c1.197-.218 2.5 0 3 .25s.5 1 .5 1v4c-.5 1-.5 1.5-1 2s-3.5.5-4 0-.5-1-1-2V4c0-.5 1.303-1.032 2.5-1.25z" fill="#C8C8F7" fill-rule="nonzero"/><path d="M6 10v.75c1 .5 1.833.75 2.5.75s1.167-.167 1.5-.5v-1c-.833.167-1.5.25-2 .25-.333 0-1-.083-2-.25z" fill="#9898CB"/><path d="M7.243 5.569c.161.173.247.32.257.443a.46.46 0 0 1-.075.224.527.527 0 0 1-.42.264.492.492 0 0 1-.257-.069.518.518 0 0 1-.248-.412.506.506 0 0 1 .077-.275.481.481 0 0 1 .666-.175zm1.99-.02a.522.522 0 0 1 .267.427.513.513 0 0 1-.077.277.479.479 0 0 1-.408.245.532.532 0 0 1-.267-.049.499.499 0 0 1-.248-.414.528.528 0 0 1 .465-.535.969.969 0 0 1 .267.05z" fill="#7272A5" fill-rule="nonzero"/><path d="M5 6.5c-.167 1.5-.083 2.5.25 3 .5.75 1.75 1.25 2.75 1.25s2.25-.5 2.75-1.25c.333-.5.417-1.5.25-3-.667 1.333-1.333 2-2 2H7c-.667 0-1.333-.667-2-2z" fill="#B4B4E5"/></g></g></g><path d="M66.555 41h-1.512v-8.455h1.512V41zm1.933 0v-6.41h1.4v1.025h.1c.305-.715 1.055-1.154 2.016-1.154 1.43 0 2.232.861 2.232 2.39V41H72.79v-3.803c0-.978-.445-1.47-1.324-1.47-.938 0-1.524.597-1.524 1.54V41h-1.453zm7.934-7.94h1.447v1.57h1.406v1.161H77.87v3.147c0 .632.27.914.879.914.205 0 .31-.012.48-.03v1.137c-.205.041-.468.07-.75.07-1.47 0-2.056-.498-2.056-1.74v-3.498h-1.043v-1.16h1.043v-1.57zm6.96 2.555c-.866 0-1.476.621-1.54 1.559h3.017c-.029-.95-.603-1.559-1.476-1.559zm1.49 3.621h1.376c-.275 1.166-1.336 1.893-2.848 1.893-1.886 0-3.023-1.248-3.023-3.31 0-2.063 1.154-3.358 3.012-3.358 1.828 0 2.924 1.213 2.924 3.234v.47h-4.477v.075c.035 1.067.65 1.735 1.605 1.735.721 0 1.22-.264 1.43-.739zm2.9 1.764v-6.41h1.4v.996h.1c.175-.633.86-1.102 1.681-1.102.205 0 .457.024.598.065v1.347c-.112-.04-.51-.082-.739-.082-.931 0-1.587.586-1.587 1.483V41H87.77zm4.365-6.41h1.558l1.483 4.957h.1l1.47-4.957h1.535L96.016 41h-1.6l-2.28-6.41zM99.525 41v-6.41h1.448V41h-1.448zm.721-7.453c-.527 0-.896-.34-.896-.803s.369-.803.896-.803c.533 0 .897.34.897.803s-.364.803-.897.803zm5.215 2.068c-.867 0-1.477.621-1.541 1.559h3.017c-.029-.95-.603-1.559-1.476-1.559zm1.488 3.621h1.377c-.275 1.166-1.336 1.893-2.847 1.893-1.887 0-3.024-1.248-3.024-3.31 0-2.063 1.154-3.358 3.012-3.358 1.828 0 2.924 1.213 2.924 3.234v.47h-4.477v.075c.035 1.067.65 1.735 1.606 1.735.72 0 1.218-.264 1.43-.739zm11.485-4.646L116.699 41h-1.53l-1.247-4.617h-.1L112.58 41h-1.512l-1.734-6.41h1.465l1.066 4.787h.1l1.23-4.787h1.389l1.242 4.787h.1l1.06-4.787h1.448zm13.048 0L129.748 41h-1.53l-1.247-4.617h-.1L125.63 41h-1.512l-1.734-6.41h1.465l1.066 4.787h.1l1.23-4.787h1.389l1.242 4.787h.1l1.06-4.787h1.447zm1.98 8.18h-1.317l2.478-10.225h1.342l-2.502 10.225zm7.032-10.225h3.17c2.514 0 3.979 1.535 3.979 4.19 0 2.712-1.448 4.265-3.979 4.265h-3.17v-8.455zm1.512 1.307v5.841h1.459c1.681 0 2.637-1.048 2.637-2.935 0-1.846-.979-2.906-2.637-2.906h-1.46zm7.91 9.48c-.088 0-.48-.006-.574-.023v-1.184c.082.012.299.018.398.018.615 0 .961-.24 1.149-.832l.076-.282-2.291-6.44h1.594l1.5 5.005h.1l1.493-5.004h1.535l-2.314 6.615c-.545 1.594-1.23 2.127-2.666 2.127zm8.918-7.717c-.867 0-1.477.621-1.541 1.559h3.018c-.03-.95-.604-1.559-1.477-1.559zm1.488 3.621h1.377c-.275 1.166-1.336 1.893-2.847 1.893-1.887 0-3.024-1.248-3.024-3.31 0-2.063 1.154-3.358 3.012-3.358 1.828 0 2.924 1.213 2.924 3.234v.47h-4.477v.075c.035 1.067.65 1.735 1.606 1.735.72 0 1.218-.264 1.43-.739zM170.19 41h-1.511v-7.148h-2.602v-1.307h6.72v1.307h-2.607V41zm9.75-6.41V41h-1.4v-1.02h-.1c-.31.733-1.037 1.149-1.986 1.149-1.412 0-2.285-.873-2.285-2.39v-4.15h1.453v3.804c0 .984.463 1.459 1.336 1.459.938 0 1.53-.58 1.53-1.53V34.59h1.452zm1.782 6.41v-6.41h1.4v1.037h.1c.275-.732.931-1.166 1.781-1.166.885 0 1.5.445 1.77 1.166h.1c.315-.703 1.054-1.166 1.944-1.166 1.284 0 2.057.803 2.057 2.133V41h-1.447v-4.037c0-.826-.393-1.236-1.172-1.236-.756 0-1.254.55-1.254 1.283V41h-1.412v-4.143c0-.703-.445-1.13-1.16-1.13-.721 0-1.254.591-1.254 1.377V41h-1.453zm13.564-5.385c-.867 0-1.476.621-1.54 1.559h3.017c-.03-.95-.604-1.559-1.477-1.559zm1.488 3.621h1.377c-.275 1.166-1.336 1.893-2.847 1.893-1.887 0-3.024-1.248-3.024-3.31 0-2.063 1.155-3.358 3.012-3.358 1.828 0 2.924 1.213 2.924 3.234v.47h-4.477v.075c.035 1.067.65 1.735 1.606 1.735.72 0 1.219-.264 1.43-.739zm2.96 1.764v-8.889h1.453V41h-1.454zm6.052-1.09c1.014 0 1.588-.773 1.588-2.115 0-1.336-.58-2.115-1.588-2.115-1.014 0-1.594.779-1.594 2.115 0 1.342.58 2.115 1.594 2.115zm0 1.219c-1.922 0-3.082-1.254-3.082-3.334 0-2.068 1.178-3.334 3.082-3.334 1.91 0 3.082 1.26 3.082 3.334 0 2.08-1.166 3.334-3.082 3.334z" fill="#24124D" opacity=".5"/><rect fill="#DCD5EE" x="24" y="65" width="336" height="12" rx="4"/><rect fill="#512DA8" x="24" y="93" width="136" height="12" rx="4"/><rect fill="#DCD5EE" x="176" y="93" width="72" height="12" rx="4"/><rect fill-opacity=".1" fill="#5182F8" fill-rule="nonzero" x="7" y="8" width="370" height="122" rx="4"/><g fill-rule="nonzero"><use fill="#000" filter="url(#o)" xlink:href="#p"/><use fill="#5182F8" xlink:href="#p"/></g><path transform="translate(6.667 8.667)" stroke="#FFF" stroke-linecap="round" stroke-linejoin="round" stroke-width="2" d="M10.6666667 0L3.33333333 7.33333333 0 4"/></g><g transform="translate(0 200)"><g transform="translate(8 9)"><use fill="#000" filter="url(#q)" xlink:href="#r"/><use fill="#FFF" xlink:href="#r"/><g stroke-linecap="square"><use fill="#000" filter="url(#s)" xlink:href="#t"/><rect stroke-opacity=".098" stroke="#140B2F" fill="#FFF" x="-.5" y="-.5" width="369" height="81" rx="4"/></g></g><g transform="translate(24 25)"><mask id="v" fill="#fff"><use xlink:href="#u"/></mask><use fill="#E4E4F3" xlink:href="#u"/><g mask="url(#v)"><g transform="translate(5 4)"><path d="M10.22 1.23c.523.333.977.764 1.32 1.276a8.42 8.42 0 0 1 1.273 3.083c.144.724.238 1.462.367 2.177l.082.794a.33.33 0 0 1-.134.307L10 11 7 7.5l-3.02 4.052-1.976-1.227-.85-.512a.263.263 0 0 1-.108-.19 18.705 18.705 0 0 1 .006-2.71c.071-.96.255-1.907.548-2.822a6.388 6.388 0 0 1 1.37-2.412A4.612 4.612 0 0 1 5.673.185C6.365.073 7.095.045 7.793 0c.026 0 .051.008.074.021a.266.266 0 0 1 .088.073c.102.15.191.31.267.474.026.08.078.148.149.193A.416.416 0 0 0 8.586.8a3.22 3.22 0 0 1 1.635.43z" fill="#7878AB" fill-rule="nonzero"/><path d="M14 20H0c0-.99 0-8.25 4-8.25 0 0 1.31 3.25 2.759 3.25C8.207 15 10 11.75 10 11.75c2.667 0 4 2.75 4 8.25z" fill="#A5A5D8" fill-rule="nonzero"/><path d="M10 12c0 1.992-1 3.5-3 3.5-1.97 0-2.955-1.554-3-3.5h6z" fill="#7878AB" fill-rule="nonzero"/><path d="M9 12.01c0 1.431-.667 2.505-2 2.505-1.313 0-1.97-1.107-2-2.505V10h4v2.01z" fill="#B6B6E9" fill-rule="nonzero"/><path d="M10.5 8.5L10 11H9V9.5c.011-.012.511-.345 1.5-1z" fill="#636396" fill-rule="nonzero"/><path d="M3.5 8.5c.304.481 1.465 1.451 1.5 1.482V11l-1 .5c-.346-1.851-.513-2.851-.5-3z" fill="#636396"/><path d="M8.5 3l1.356 1.362.644.672c.029 0 .029 1.155 0 3.466-.333 1-.667 1.667-1 2-.5.5-3.394.154-4.5 0-.561-.078-1.228-.5-1.364-1.5-.09-.667-.136-1.5-.136-2.5.815-.382 1.649-.87 2.5-1.466A23.133 23.133 0 0 0 8.5 3z" fill="#C8C8F7" fill-rule="nonzero"/><path d="M6.243 6.569c.161.173.247.32.257.443a.46.46 0 0 1-.075.224.527.527 0 0 1-.42.264.492.492 0 0 1-.257-.069.518.518 0 0 1-.248-.412.506.506 0 0 1 .077-.275.481.481 0 0 1 .666-.175zm1.99-.02a.522.522 0 0 1 .267.427.513.513 0 0 1-.077.277.479.479 0 0 1-.408.245.532.532 0 0 1-.267-.049.499.499 0 0 1-.248-.414.528.528 0 0 1 .465-.535.969.969 0 0 1 .267.05z" fill="#7272A5" fill-rule="nonzero"/><path d="M5 10.5v.5c1 .5 1.833.75 2.5.75s1.167-.167 1.5-.5v-.5H7c-.333 0-1-.083-2-.25z" fill="#9898CB"/></g></g></g><path d="M68.693 32.334c2.455 0 3.99 1.705 3.99 4.436 0 2.724-1.523 4.44-3.99 4.44-2.484 0-4.007-1.71-4.007-4.44 0-2.73 1.552-4.436 4.007-4.436zm0 1.342c-1.505 0-2.46 1.201-2.46 3.094 0 1.886.931 3.1 2.46 3.1 1.506 0 2.444-1.214 2.444-3.1 0-1.893-.944-3.094-2.444-3.094zM74.723 41v-5.209H73.68v-1.16h1.043v-.639c0-1.3.673-1.828 2.08-1.828.258 0 .51.023.767.065v1.084a2.857 2.857 0 0 0-.556-.047c-.569 0-.868.246-.868.82v.545h1.39v1.16H76.17V41h-1.447zm4.693 0v-5.209h-1.043v-1.16h1.043v-.639c0-1.3.674-1.828 2.08-1.828.258 0 .51.023.768.065v1.084a2.857 2.857 0 0 0-.557-.047c-.568 0-.867.246-.867.82v.545h1.389v1.16h-1.366V41h-1.447zm4.248 0v-6.41h1.447V41h-1.447zm.72-7.453c-.527 0-.896-.34-.896-.803s.37-.803.897-.803c.533 0 .896.34.896.803s-.363.803-.896.803zm8.063 3.2h-1.383c-.134-.622-.615-1.067-1.412-1.067-.996 0-1.588.767-1.588 2.097 0 1.348.598 2.133 1.588 2.133.756 0 1.26-.357 1.412-1.025h1.383c-.158 1.342-1.166 2.244-2.789 2.244-1.928 0-3.064-1.242-3.064-3.352 0-2.08 1.13-3.316 3.058-3.316 1.647 0 2.643.937 2.795 2.285zm4.078-1.132c-.867 0-1.476.621-1.54 1.559h3.017c-.03-.95-.604-1.559-1.477-1.559zm1.489 3.621h1.377c-.276 1.166-1.336 1.893-2.848 1.893-1.887 0-3.023-1.248-3.023-3.31 0-2.063 1.154-3.358 3.011-3.358 1.828 0 2.924 1.213 2.924 3.234v.47H94.98v.075c.035 1.067.65 1.735 1.605 1.735.72 0 1.219-.264 1.43-.739zm5.543-4.646h1.558l1.483 4.957h.1l1.47-4.957h1.535L107.436 41h-1.6l-2.28-6.41zm7.388 6.41v-6.41h1.448V41h-1.448zm.721-7.453c-.527 0-.896-.34-.896-.803s.369-.803.896-.803c.533 0 .897.34.897.803s-.364.803-.897.803zm2.379 2.877c0-1.16 1.055-1.963 2.566-1.963 1.524 0 2.479.674 2.584 1.84h-1.365c-.105-.451-.533-.739-1.213-.739-.662 0-1.16.317-1.16.78 0 .363.305.586.95.732l1.13.258c1.225.275 1.793.803 1.793 1.746 0 1.23-1.13 2.05-2.73 2.05s-2.608-.69-2.72-1.857h1.436c.141.475.592.756 1.319.756.732 0 1.242-.322 1.242-.797 0-.363-.275-.591-.885-.726l-1.137-.264c-1.23-.281-1.81-.85-1.81-1.816zM120.818 41v-6.41h1.448V41h-1.448zm.721-7.453c-.527 0-.896-.34-.896-.803s.369-.803.896-.803c.533 0 .897.34.897.803s-.364.803-.897.803zm2.988-.486h1.448v1.57h1.406v1.16h-1.406v3.147c0 .632.27.914.879.914.205 0 .31-.012.48-.03v1.137c-.205.041-.469.07-.75.07-1.47 0-2.057-.498-2.057-1.74v-3.498h-1.043v-1.16h1.043v-1.57z" fill="#24124D" opacity=".5"/><rect fill="#512DA8" x="80" y="60" width="224" height="12" rx="4"/><rect fill="#DCD5EE" x="24" y="60" width="40" height="12" rx="4"/><rect fill="#DCD5EE" x="320" y="60" width="40" height="12" rx="4"/><rect fill-opacity=".1" fill="#5182F8" fill-rule="nonzero" x="7" y="8" width="370" height="82" rx="4"/><g fill-rule="nonzero"><use fill="#000" filter="url(#w)" xlink:href="#x"/><use fill="#5182F8" xlink:href="#x"/></g><path transform="translate(6.667 8.667)" stroke="#FFF" stroke-linecap="round" stroke-linejoin="round" stroke-width="2" d="M10.6666667 0L3.33333333 7.33333333 0 4"/></g></g></svg>