<svg width="400" height="320" viewBox="0 0 400 320" xmlns="http://www.w3.org/2000/svg" xmlns:xlink="http://www.w3.org/1999/xlink"><title>illustration/import</title><defs><rect id="b" width="72" height="40" rx="4"/><filter x="-4.9%" y="-6.2%" width="109.7%" height="117.5%" filterUnits="objectBoundingBox" id="a"><feOffset dy="1" in="SourceAlpha" result="shadowOffsetOuter1"/><feGaussianBlur stdDeviation="1" in="shadowOffsetOuter1" result="shadowBlurOuter1"/><feColorMatrix values="0 0 0 0 0 0 0 0 0 0 0 0 0 0 0 0 0 0 0.08 0" in="shadowBlurOuter1"/></filter><rect id="d" width="144" height="40" rx="4"/><filter x="-3.1%" y="-8.8%" width="106.2%" height="122.5%" filterUnits="objectBoundingBox" id="c"><feMorphology radius="1" operator="dilate" in="SourceAlpha" result="shadowSpreadOuter1"/><feOffset dy="1" in="shadowSpreadOuter1" result="shadowOffsetOuter1"/><feGaussianBlur stdDeviation="1" in="shadowOffsetOuter1" result="shadowBlurOuter1"/><feComposite in="shadowBlurOuter1" in2="SourceAlpha" operator="out" result="shadowBlurOuter1"/><feColorMatrix values="0 0 0 0 0 0 0 0 0 0 0 0 0 0 0 0 0 0 0.04 0" in="shadowBlurOuter1"/></filter><rect id="f" width="24" height="24" rx="4"/><filter x="-22.9%" y="-14.6%" width="145.8%" height="145.8%" filterUnits="objectBoundingBox" id="e"><feOffset dy="2" in="SourceAlpha" result="shadowOffsetOuter1"/><feGaussianBlur stdDeviation="1.5" in="shadowOffsetOuter1" result="shadowBlurOuter1"/><feColorMatrix values="0 0 0 0 0 0 0 0 0 0 0 0 0 0 0 0 0 0 0.0508378623 0" in="shadowBlurOuter1"/></filter></defs><g transform="translate(16 16)" fill="none" fill-rule="evenodd"><g transform="translate(0 200)"><g transform="translate(0 48)"><use fill="#000" filter="url(#a)" xlink:href="#b"/><use fill="#009688" xlink:href="#b"/><path d="M16.21 24h-1.764v-9.864h1.764V24zm2.256 0v-7.479H20.1v1.21h.116c.321-.854 1.087-1.36 2.078-1.36 1.032 0 1.75.52 2.064 1.36h.117c.369-.82 1.23-1.36 2.27-1.36 1.496 0 2.399.937 2.399 2.488V24h-1.689v-4.71c0-.964-.458-1.442-1.367-1.442-.882 0-1.463.642-1.463 1.497V24h-1.647v-4.833c0-.82-.52-1.32-1.354-1.32-.84 0-1.463.691-1.463 1.607V24h-1.695zm16.762-7.602c1.893 0 3.083 1.463 3.083 3.863 0 2.385-1.176 3.862-3.063 3.862-1.073 0-1.9-.465-2.283-1.258h-.116v3.528h-1.696V16.52h1.634v1.238h.116c.431-.848 1.3-1.36 2.325-1.36zm-.534 6.283c1.176 0 1.873-.91 1.873-2.42 0-1.511-.704-2.42-1.866-2.42-1.155 0-1.88.93-1.887 2.42.007 1.497.725 2.42 1.88 2.42zm8.545.048c1.183 0 1.853-.903 1.853-2.468 0-1.559-.677-2.468-1.853-2.468-1.182 0-1.86.91-1.86 2.468 0 1.565.678 2.468 1.86 2.468zm0 1.421c-2.242 0-3.595-1.462-3.595-3.89 0-2.412 1.374-3.889 3.595-3.889 2.229 0 3.596 1.47 3.596 3.89 0 2.427-1.36 3.89-3.596 3.89zm5.305-.15v-7.479h1.634v1.163h.116c.205-.739 1.005-1.286 1.962-1.286.24 0 .533.028.697.076v1.572c-.13-.048-.595-.096-.861-.096-1.087 0-1.853.684-1.853 1.73V24h-1.695zm6.282-9.263h1.689v1.832h1.64v1.354h-1.64v3.67c0 .739.314 1.067 1.025 1.067.24 0 .362-.014.56-.034v1.326a4.59 4.59 0 0 1-.874.082c-1.716 0-2.4-.58-2.4-2.03v-4.081H53.61v-1.354h1.217v-1.832z" fill="#FFF"/><path d="M88.938 24v-6.38h1.253V24h-1.254zm.626-7.5c-.468 0-.814-.334-.814-.768 0-.439.346-.773.814-.773.47 0 .815.334.815.773 0 .434-.346.768-.815.768zm2.479 7.5v-6.38h1.213v1.013h.094c.31-.71 1.054-1.137 2.015-1.137 1.424 0 2.227.856 2.227 2.373V24h-1.26v-3.814c0-1.026-.457-1.536-1.394-1.536-1.014 0-1.635.621-1.635 1.618V24h-1.26zm7.764-7.928h1.26v1.576h1.43v1.061h-1.43v3.281c0 .668.275.961.902.961.193 0 .293-.012.469-.03v1.05a3.87 3.87 0 0 1-.674.064c-1.4 0-1.957-.492-1.957-1.723V18.71h-1.05v-1.06h1.05v-1.577zm6.82 6.932c1.09 0 1.71-.809 1.71-2.197 0-1.383-.62-2.192-1.71-2.192-1.096 0-1.711.809-1.711 2.192 0 1.394.615 2.197 1.711 2.197zm0 1.119c-1.87 0-3.012-1.248-3.012-3.316 0-2.057 1.149-3.31 3.012-3.31 1.857 0 3.006 1.253 3.006 3.31 0 2.068-1.143 3.316-3.006 3.316z" fill="#726D82"/><g transform="translate(128)"><g stroke-linecap="square"><use fill="#000" filter="url(#c)" xlink:href="#d"/><rect stroke-opacity=".098" stroke="#140B2F" fill="#FFF" x="-.5" y="-.5" width="145" height="41" rx="4"/></g><path d="M19.622 24l-.902-2.618h-3.76L14.05 24H12.48l3.561-9.864h1.648L21.248 24h-1.627zm-2.837-8.073l-1.435 4.17h2.98l-1.429-4.17h-.116zm9.871.506c1.894 0 3.09 1.476 3.09 3.841 0 2.366-1.196 3.849-3.076 3.849-1.06 0-1.9-.465-2.29-1.25h-.116v3.54h-1.47v-9.857h1.415v1.23h.11c.45-.848 1.326-1.353 2.337-1.353zm-.417 6.37c1.251 0 1.996-.95 1.996-2.529 0-1.572-.745-2.522-1.989-2.522-1.237 0-2.01.97-2.01 2.53 0 1.551.773 2.522 2.003 2.522zm9.133-6.37c1.894 0 3.09 1.476 3.09 3.841 0 2.366-1.196 3.849-3.076 3.849-1.06 0-1.9-.465-2.29-1.25h-.117v3.54h-1.47v-9.857h1.416v1.23h.11c.45-.848 1.325-1.353 2.337-1.353zm-.417 6.37c1.251 0 1.996-.95 1.996-2.529 0-1.572-.745-2.522-1.99-2.522-1.236 0-2.009.97-2.009 2.53 0 1.551.773 2.522 2.003 2.522zM44.054 24v-7.444h1.415v1.141h.11c.211-.731 1.031-1.264 2.002-1.264.212 0 .492.02.65.061v1.45c-.117-.042-.568-.09-.814-.09-1.107 0-1.894.705-1.894 1.75V24h-1.47zm8.579-6.337c-1.087 0-1.846.766-1.928 1.928h3.76c-.034-1.17-.745-1.928-1.832-1.928zm1.825 4.327h1.415c-.335 1.333-1.524 2.154-3.227 2.154-2.132 0-3.438-1.463-3.438-3.842 0-2.38 1.333-3.89 3.432-3.89 2.07 0 3.322 1.415 3.322 3.753v.513h-5.257v.082c.048 1.305.807 2.133 1.983 2.133.888 0 1.497-.322 1.77-.903zm2.625-5.434h1.572l1.853 5.872h.116l1.846-5.872h1.558L61.348 24H59.77l-2.687-7.444zM65.546 24v-7.444h1.463V24h-1.463zm.731-8.75c-.547 0-.95-.39-.95-.896 0-.512.403-.902.95-.902.547 0 .95.39.95.902 0 .506-.403.896-.95.896zm5.948 2.413c-1.087 0-1.846.766-1.928 1.928h3.76c-.035-1.17-.745-1.928-1.832-1.928zm1.825 4.327h1.415c-.335 1.333-1.525 2.154-3.227 2.154-2.133 0-3.438-1.463-3.438-3.842 0-2.38 1.333-3.89 3.431-3.89 2.072 0 3.323 1.415 3.323 3.753v.513h-5.257v.082c.048 1.305.807 2.133 1.982 2.133.889 0 1.497-.322 1.77-.903zm12.96-5.434L84.968 24h-1.525l-1.538-5.482h-.116L80.257 24h-1.51l-2.052-7.444h1.49l1.334 5.68h.109l1.531-5.68h1.408l1.532 5.68h.116l1.326-5.68h1.47zm1.347 2.105c0-1.32 1.21-2.249 2.892-2.249 1.675 0 2.769.78 2.912 2.092h-1.408c-.137-.547-.67-.896-1.504-.896-.82 0-1.442.39-1.442.971 0 .444.376.725 1.182.91l1.238.286c1.415.329 2.078.937 2.078 2.03 0 1.402-1.306 2.339-3.083 2.339-1.77 0-2.926-.8-3.056-2.12h1.47c.184.575.731.93 1.62.93.916 0 1.565-.41 1.565-1.005 0-.444-.348-.731-1.093-.909l-1.3-.3c-1.414-.336-2.07-.971-2.07-2.079z" fill="#140B2F"/><path stroke-width="2" transform="translate(114 17)" stroke="#7B7194" stroke-linecap="round" stroke-linejoin="round" d="M0 0L6 6 12 0"/></g></g><use fill="#000" filter="url(#e)" xlink:href="#f"/><use fill="#5182F8" xlink:href="#f"/><g transform="translate(2 2)"><path d="M0 0H20V20H0z"/><path stroke="#FFF" stroke-width="2" stroke-linecap="round" d="M5 11L8 14 15 7"/></g><path d="M46.533 16l-.773-2.244h-3.223L41.757 16H40.41l3.053-8.455h1.412L47.928 16h-1.395zm-2.431-6.92l-1.23 3.574h2.554L44.2 9.08h-.1zm10.652.54V16h-1.207v-1.014h-.1c-.31.727-1.037 1.137-1.998 1.137-1.418 0-2.256-.861-2.256-2.373V9.62h1.26v3.814c0 1.03.475 1.523 1.406 1.523 1.014 0 1.641-.603 1.641-1.605V9.619h1.254zm2.28-1.548h1.259v1.576h1.43v1.061h-1.43v3.281c0 .668.275.961.902.961.194 0 .293-.012.47-.03v1.05a3.87 3.87 0 0 1-.675.064c-1.4 0-1.957-.492-1.957-1.723V10.71h-1.049v-1.06h1.05V8.071zm6.82 6.932c1.09 0 1.71-.809 1.71-2.197 0-1.383-.62-2.192-1.71-2.192-1.096 0-1.711.809-1.711 2.192 0 1.394.615 2.197 1.71 2.197zm0 1.119c-1.87 0-3.012-1.248-3.012-3.316 0-2.057 1.148-3.31 3.012-3.31 1.857 0 3.005 1.253 3.005 3.31 0 2.068-1.142 3.316-3.005 3.316zM68.37 16V9.62h1.213v1.025h.094c.281-.721.926-1.149 1.775-1.149.873 0 1.477.451 1.758 1.149h.1c.322-.698 1.054-1.149 1.939-1.149 1.29 0 2.04.78 2.04 2.11V16h-1.26v-4.066c0-.862-.41-1.284-1.237-1.284-.814 0-1.348.586-1.348 1.336V16H72.21v-4.19c0-.72-.48-1.16-1.23-1.16-.768 0-1.348.627-1.348 1.448V16h-1.26zm12.774-.955c.949 0 1.652-.604 1.652-1.395v-.533l-1.559.1c-.879.058-1.277.357-1.277.92 0 .574.498.908 1.184.908zm-.323 1.06c-1.23 0-2.127-.744-2.127-1.91 0-1.148.856-1.81 2.373-1.904l1.729-.1v-.55c0-.674-.445-1.055-1.307-1.055-.703 0-1.19.258-1.33.709h-1.219c.13-1.096 1.16-1.799 2.608-1.799 1.6 0 2.502.797 2.502 2.145V16h-1.213v-.896h-.1c-.38.638-1.078 1.001-1.916 1.001zm5.467-8.033h1.26v1.576h1.43v1.061h-1.43v3.281c0 .668.275.961.902.961.194 0 .293-.012.469-.03v1.05a3.87 3.87 0 0 1-.674.064c-1.4 0-1.957-.492-1.957-1.723V10.71H85.24v-1.06h1.05V8.071zM90.437 16V9.62h1.254V16h-1.254zm.627-7.5c-.468 0-.814-.334-.814-.768 0-.439.346-.773.814-.773.47 0 .815.334.815.773 0 .434-.346.768-.815.768zm7.881 3.205h-1.224c-.147-.621-.662-1.084-1.506-1.084-1.055 0-1.7.809-1.7 2.168 0 1.383.651 2.209 1.7 2.209.797 0 1.342-.363 1.506-1.049h1.224c-.164 1.283-1.148 2.174-2.724 2.174-1.858 0-2.994-1.254-2.994-3.334 0-2.045 1.13-3.293 2.988-3.293 1.6 0 2.566.932 2.73 2.21zm3.522 3.34c.949 0 1.652-.604 1.652-1.395v-.533l-1.558.1c-.88.058-1.278.357-1.278.92 0 .574.498.908 1.184.908zm-.322 1.06c-1.23 0-2.127-.744-2.127-1.91 0-1.148.855-1.81 2.373-1.904l1.728-.1v-.55c0-.674-.445-1.055-1.306-1.055-.704 0-1.19.258-1.33.709h-1.22c.13-1.096 1.16-1.799 2.608-1.799 1.6 0 2.502.797 2.502 2.145V16h-1.213v-.896h-.1c-.38.638-1.078 1.001-1.915 1.001zm5.08-.105V7.129h1.26V16h-1.26zm3.205 0V7.129h1.26V16h-1.26zm3.779 2.32c-.105 0-.404-.006-.522-.029v-1.084c.1.018.293.023.41.023.598 0 .938-.251 1.155-.896l.094-.31-2.309-6.405h1.371l1.6 5.069h.1l1.593-5.069h1.336l-2.379 6.645c-.545 1.552-1.148 2.056-2.449 2.056zm11.484-3.275c.95 0 1.653-.604 1.653-1.395v-.533l-1.559.1c-.879.058-1.277.357-1.277.92 0 .574.498.908 1.183.908zm-.322 1.06c-1.23 0-2.127-.744-2.127-1.91 0-1.148.856-1.81 2.373-1.904l1.729-.1v-.55c0-.674-.446-1.055-1.307-1.055-.703 0-1.19.258-1.33.709h-1.219c.13-1.096 1.16-1.799 2.608-1.799 1.6 0 2.502.797 2.502 2.145V16h-1.213v-.896h-.1c-.38.638-1.078 1.001-1.916 1.001zm5.022-.105V9.62h1.212v1.013h.094c.31-.71 1.055-1.137 2.016-1.137 1.424 0 2.226.856 2.226 2.373V16h-1.26v-3.814c0-1.026-.456-1.536-1.394-1.536-1.014 0-1.635.621-1.635 1.618V16h-1.26zm9.404-.955c.95 0 1.652-.604 1.652-1.395v-.533l-1.558.1c-.88.058-1.278.357-1.278.92 0 .574.498.908 1.184.908zm-.322 1.06c-1.23 0-2.127-.744-2.127-1.91 0-1.148.855-1.81 2.373-1.904l1.728-.1v-.55c0-.674-.445-1.055-1.306-1.055-.704 0-1.19.258-1.33.709h-1.22c.13-1.096 1.16-1.799 2.608-1.799 1.6 0 2.502.797 2.502 2.145V16h-1.213v-.896h-.1c-.38.638-1.077 1.001-1.915 1.001zm5.08-.105V7.129h1.26V16h-1.26zm3.779 2.32c-.105 0-.404-.006-.522-.029v-1.084c.1.018.293.023.41.023.598 0 .938-.251 1.155-.896l.094-.31-2.309-6.405h1.371l1.6 5.069h.1l1.593-5.069h1.336l-2.379 6.645c-.545 1.552-1.148 2.056-2.449 2.056zm5.97-2.32v-.855l3.51-4.36v-.1h-3.486V9.62h4.992v.92l-3.433 4.295v.1h3.468V16h-5.05zm9.352-5.432c-.931 0-1.582.657-1.652 1.653h3.223c-.03-1.002-.64-1.653-1.57-1.653zm1.565 3.71h1.213c-.288 1.142-1.307 1.845-2.766 1.845-1.828 0-2.947-1.254-2.947-3.293s1.142-3.334 2.941-3.334c1.775 0 2.848 1.213 2.848 3.217v.44h-4.506v.07c.04 1.119.691 1.828 1.7 1.828.76 0 1.282-.276 1.517-.774zm5.935-2.854c0-1.131 1.037-1.928 2.479-1.928 1.435 0 2.373.668 2.496 1.793h-1.207c-.117-.469-.574-.768-1.29-.768-.702 0-1.236.334-1.236.833 0 .38.323.62 1.014.779l1.06.246c1.214.281 1.782.803 1.782 1.74 0 1.201-1.12 2.004-2.643 2.004-1.517 0-2.507-.686-2.619-1.816h1.26c.158.492.627.797 1.389.797.785 0 1.341-.352 1.341-.862 0-.38-.298-.627-.937-.78l-1.113-.257c-1.213-.287-1.776-.832-1.776-1.781zm9.235-.856c-.932 0-1.582.657-1.653 1.653h3.223c-.03-1.002-.639-1.653-1.57-1.653zm1.564 3.71h1.213c-.287 1.142-1.307 1.845-2.766 1.845-1.828 0-2.947-1.254-2.947-3.293s1.143-3.334 2.941-3.334c1.776 0 2.848 1.213 2.848 3.217v.44h-4.506v.07c.041 1.119.692 1.828 1.7 1.828.761 0 1.283-.276 1.517-.774zm2.8 1.722V9.62h1.214v1.013h.094c.31-.71 1.054-1.137 2.015-1.137 1.424 0 2.227.856 2.227 2.373V16h-1.26v-3.814c0-1.026-.457-1.536-1.395-1.536-1.013 0-1.634.621-1.634 1.618V16h-1.26zm7.765-7.928h1.26v1.576h1.429v1.061h-1.43v3.281c0 .668.276.961.903.961.193 0 .293-.012.468-.03v1.05a3.87 3.87 0 0 1-.673.064c-1.4 0-1.957-.492-1.957-1.723V10.71h-1.05v-1.06h1.05V8.071zM196.668 16V9.62h1.254V16h-1.254zm.627-7.5c-.469 0-.815-.334-.815-.768 0-.439.346-.773.815-.773s.814.334.814.773c0 .434-.345.768-.814.768zm2.478 7.5V9.62h1.213v1.025h.094c.281-.721.926-1.149 1.775-1.149.874 0 1.477.451 1.758 1.149h.1c.322-.698 1.055-1.149 1.94-1.149 1.288 0 2.038.78 2.038 2.11V16h-1.26v-4.066c0-.862-.41-1.284-1.236-1.284-.814 0-1.347.586-1.347 1.336V16h-1.237v-4.19c0-.72-.48-1.16-1.23-1.16-.768 0-1.348.627-1.348 1.448V16h-1.26zm13.307-5.432c-.932 0-1.582.657-1.652 1.653h3.222c-.029-1.002-.638-1.653-1.57-1.653zm1.565 3.71h1.212c-.287 1.142-1.306 1.845-2.765 1.845-1.828 0-2.947-1.254-2.947-3.293s1.142-3.334 2.94-3.334c1.776 0 2.849 1.213 2.849 3.217v.44h-4.506v.07c.04 1.119.691 1.828 1.699 1.828.762 0 1.283-.276 1.518-.774zm2.8 1.722V9.62h1.213v1.013h.094c.31-.71 1.055-1.137 2.016-1.137 1.423 0 2.226.856 2.226 2.373V16h-1.26v-3.814c0-1.026-.457-1.536-1.394-1.536-1.014 0-1.635.621-1.635 1.618V16h-1.26zm7.764-7.928h1.26v1.576h1.43v1.061h-1.43v3.281c0 .668.275.961.902.961.193 0 .293-.012.469-.03v1.05a3.87 3.87 0 0 1-.674.064c-1.4 0-1.957-.492-1.957-1.723V10.71h-1.049v-1.06h1.049V8.071z" fill="#726D82"/></g><rect fill="#F1EFF8" width="128" height="176" rx="4"/><path d="M5.128 0h117.744c1.783 0 2.43.186 3.082.534.652.349 1.163.86 1.512 1.512.348.652.534 1.299.534 3.082V40H0V5.128c0-1.783.186-2.43.534-3.082A3.635 3.635 0 0 1 2.046.534C2.698.186 3.345 0 5.128 0z" fill="#DCD5EE"/><path d="M19.622 24l-.902-2.618h-3.76L14.05 24H12.48l3.561-9.864h1.648L21.248 24h-1.627zm-2.837-8.073l-1.435 4.17h2.98l-1.429-4.17h-.116zm12.428.629V24h-1.408v-1.183h-.117c-.362.848-1.21 1.327-2.33 1.327-1.655 0-2.632-1.005-2.632-2.769v-4.82h1.47v4.45c0 1.204.553 1.778 1.64 1.778 1.183 0 1.914-.704 1.914-1.873v-4.354h1.463zm2.66-1.805h1.469v1.839h1.668v1.237h-1.668v3.828c0 .78.321 1.121 1.053 1.121.225 0 .341-.013.546-.034v1.224a4.514 4.514 0 0 1-.786.075c-1.634 0-2.283-.574-2.283-2.01v-4.204h-1.224V16.59h1.224V14.75zM36.752 24V13.65h1.456v4.102h.116c.362-.834 1.224-1.333 2.345-1.333 1.675 0 2.632 1.005 2.632 2.775V24h-1.47v-4.443c0-1.19-.554-1.791-1.661-1.791-1.203 0-1.948.758-1.948 1.886V24h-1.47zm11.765-1.162c1.271 0 1.996-.943 1.996-2.564 0-1.613-.725-2.556-1.996-2.556-1.279 0-1.997.943-1.997 2.556 0 1.627.718 2.564 1.997 2.564zm0 1.306c-2.181 0-3.514-1.456-3.514-3.87 0-2.399 1.34-3.862 3.514-3.862 2.167 0 3.506 1.463 3.506 3.862 0 2.413-1.333 3.87-3.506 3.87zm5.27-.144v-7.444h1.415v1.141h.11c.211-.731 1.032-1.264 2.002-1.264.212 0 .493.02.65.061v1.45c-.116-.042-.568-.09-.814-.09-1.107 0-1.893.705-1.893 1.75V24h-1.47z" fill="#4F4270"/><rect fill="#33ABA0" x="136" width="232" height="176" rx="4"/><path d="M141.128 0h221.744c1.783 0 2.43.186 3.082.534.652.349 1.163.86 1.512 1.512.348.652.534 1.299.534 3.082V40H136V5.128c0-1.783.186-2.43.534-3.082a3.635 3.635 0 0 1 1.512-1.512c.652-.348 1.299-.534 3.082-.534z" fill="#009688"/><path d="M150.769 15.482v3.453h2.2c1.183 0 1.867-.63 1.867-1.73 0-1.073-.725-1.723-1.907-1.723h-2.16zm0 4.758V24h-1.532v-9.864h3.904c1.989 0 3.267 1.182 3.267 3.035 0 1.326-.71 2.406-1.914 2.816L156.71 24h-1.77l-2.01-3.76h-2.16zm10.705-2.577c-1.087 0-1.846.766-1.928 1.928h3.76c-.035-1.17-.745-1.928-1.832-1.928zm1.825 4.327h1.415c-.335 1.333-1.525 2.154-3.227 2.154-2.133 0-3.438-1.463-3.438-3.842 0-2.38 1.333-3.89 3.431-3.89 2.072 0 3.323 1.415 3.323 3.753v.513h-5.257v.082c.048 1.305.807 2.133 1.982 2.133.889 0 1.497-.322 1.77-.903zm2.625-5.434h1.572l1.853 5.872h.116l1.846-5.872h1.558L170.19 24h-1.579l-2.686-7.444zM174.387 24v-7.444h1.463V24h-1.463zm.731-8.75c-.547 0-.95-.39-.95-.896 0-.512.403-.902.95-.902.547 0 .95.39.95.902 0 .506-.403.896-.95.896zm5.947 2.413c-1.086 0-1.845.766-1.927 1.928h3.76c-.035-1.17-.746-1.928-1.833-1.928zm1.826 4.327h1.415c-.335 1.333-1.525 2.154-3.227 2.154-2.133 0-3.438-1.463-3.438-3.842 0-2.38 1.333-3.89 3.431-3.89 2.072 0 3.323 1.415 3.323 3.753v.513h-5.257v.082c.048 1.305.806 2.133 1.982 2.133.889 0 1.497-.322 1.77-.903zm12.96-5.434L193.809 24h-1.525l-1.538-5.482h-.116L189.098 24h-1.511l-2.05-7.444h1.49l1.332 5.68h.11l1.531-5.68h1.408l1.531 5.68h.117l1.326-5.68h1.47z" fill="#FFF"/><rect fill="#DCD5EE" x="12" y="52" width="68" height="12" rx="3"/><rect fill="#DCD5EE" x="12" y="84" width="92" height="12" rx="3"/><rect fill="#DCD5EE" x="12" y="116" width="44" height="12" rx="3"/><rect fill="#DCD5EE" x="12" y="148" width="44" height="12" rx="3"/><path d="M155.246 62.893V64h-5.988v-9.864h1.23v8.757h4.758zm4.84.177c1.394 0 2.18-1.011 2.18-2.755 0-1.75-.786-2.754-2.18-2.754-1.395 0-2.18 1.004-2.18 2.754 0 1.744.785 2.755 2.18 2.755zm0 1.06c-2.099 0-3.398-1.45-3.398-3.815 0-2.372 1.3-3.814 3.398-3.814 2.099 0 3.397 1.442 3.397 3.814 0 2.366-1.298 3.815-3.397 3.815zm4.6-7.5h1.258l2.017 6.071h.11l2.016-6.07h1.258L168.617 64h-1.203l-2.727-7.37zm11.17.91c-1.175 0-1.996.861-2.085 2.167h4.061c-.027-1.306-.807-2.167-1.976-2.167zm1.942 4.553h1.176c-.356 1.264-1.49 2.037-3.104 2.037-2.044 0-3.322-1.477-3.322-3.808 0-2.317 1.299-3.821 3.322-3.821 1.99 0 3.2 1.415 3.2 3.705v.451h-5.299v.055c.062 1.456.875 2.379 2.126 2.379.95 0 1.593-.349 1.9-.998zm7.56-7.301h1.176v1.839h1.71v.984h-1.71v4.17c0 .868.328 1.237 1.094 1.237.212 0 .314-.006.533-.027v.991a3.787 3.787 0 0 1-.677.069c-1.517 0-2.126-.56-2.126-1.97v-4.47h-1.237v-.984h1.237v-1.839zM190.021 64V53.705h1.175v4.088h.11c.369-.814 1.21-1.292 2.338-1.292 1.674 0 2.61.998 2.61 2.728V64h-1.175v-4.484c0-1.306-.574-1.955-1.77-1.955-1.32 0-2.113.834-2.113 2.078V64h-1.175zm11.32-6.46c-1.176 0-1.996.861-2.085 2.167h4.06c-.027-1.306-.806-2.167-1.975-2.167zm1.941 4.553h1.176c-.355 1.264-1.49 2.037-3.104 2.037-2.043 0-3.322-1.477-3.322-3.808 0-2.317 1.3-3.821 3.322-3.821 1.99 0 3.2 1.415 3.2 3.705v.451h-5.298v.055c.061 1.456.875 2.379 2.126 2.379.95 0 1.593-.349 1.9-.998zm9.338 1.005c1.21 0 2.106-.793 2.106-1.846v-.677l-1.983.13c-1.12.075-1.613.465-1.613 1.203 0 .752.636 1.19 1.49 1.19zm-.219 1.032c-1.428 0-2.488-.848-2.488-2.194 0-1.32.97-2.079 2.687-2.181l2.126-.13v-.67c0-.91-.568-1.408-1.668-1.408-.882 0-1.497.335-1.662.916h-1.189c.157-1.183 1.32-1.962 2.892-1.962 1.797 0 2.802.923 2.802 2.454V64h-1.12v-1.087h-.11c-.479.786-1.285 1.217-2.27 1.217zm9.263-7.629c1.88 0 3.097 1.497 3.097 3.814 0 2.304-1.224 3.815-3.097 3.815-1.053 0-1.9-.458-2.304-1.237h-.109v3.568h-1.176v-9.83h1.121v1.23h.11c.471-.847 1.353-1.36 2.358-1.36zm-.28 6.57c1.353 0 2.16-1.033 2.16-2.756 0-1.722-.807-2.754-2.153-2.754-1.333 0-2.174 1.06-2.174 2.754 0 1.689.84 2.755 2.167 2.755zm8.811-6.57c1.88 0 3.097 1.497 3.097 3.814 0 2.304-1.224 3.815-3.097 3.815-1.052 0-1.9-.458-2.303-1.237h-.11v3.568h-1.176v-9.83h1.122v1.23h.109c.472-.847 1.353-1.36 2.358-1.36zm-.28 6.57c1.354 0 2.16-1.033 2.16-2.756 0-1.722-.806-2.754-2.153-2.754-1.333 0-2.174 1.06-2.174 2.754 0 1.689.84 2.755 2.167 2.755zm5.893 3.438h-1.026l.656-3.89h1.381l-1.011 3.89zM243.45 64V53.705h1.176v4.088h.11c.368-.814 1.21-1.292 2.337-1.292 1.675 0 2.612.998 2.612 2.728V64h-1.176v-4.484c0-1.306-.574-1.955-1.77-1.955-1.32 0-2.113.834-2.113 2.078V64h-1.176zm11.41-.93c1.394 0 2.18-1.011 2.18-2.755 0-1.75-.786-2.754-2.18-2.754-1.395 0-2.181 1.004-2.181 2.754 0 1.744.786 2.755 2.18 2.755zm0 1.06c-2.1 0-3.398-1.45-3.398-3.815 0-2.372 1.299-3.814 3.397-3.814 2.099 0 3.398 1.442 3.398 3.814 0 2.366-1.299 3.815-3.398 3.815zm14.512-7.5L267.308 64h-1.197l-1.647-5.701h-.11L262.714 64h-1.19l-2.064-7.37h1.19l1.449 5.893h.109l1.647-5.892h1.128l1.648 5.892h.11l1.448-5.892h1.183zm4.512.91c-1.176 0-1.996.861-2.085 2.167h4.06c-.027-1.306-.806-2.167-1.975-2.167zm1.941 4.553h1.176c-.355 1.264-1.49 2.037-3.104 2.037-2.043 0-3.322-1.477-3.322-3.808 0-2.317 1.299-3.821 3.322-3.821 1.99 0 3.2 1.415 3.2 3.705v.451h-5.298v.055c.061 1.456.875 2.379 2.126 2.379.95 0 1.593-.349 1.9-.998zm2.475-5.462h1.258l2.016 6.07h.11l2.016-6.07h1.258L282.23 64h-1.203l-2.727-7.37zm11.17.909c-1.176 0-1.996.861-2.085 2.167h4.06c-.027-1.306-.806-2.167-1.975-2.167zm1.941 4.553h1.176c-.356 1.264-1.49 2.037-3.104 2.037-2.044 0-3.322-1.477-3.322-3.808 0-2.317 1.299-3.821 3.322-3.821 1.99 0 3.2 1.415 3.2 3.705v.451h-5.298v.055c.061 1.456.875 2.379 2.126 2.379.95 0 1.593-.349 1.9-.998zM294.528 64v-7.37h1.121v1.095h.11c.219-.718 1.066-1.224 2.044-1.224.191 0 .437.014.588.034v1.176a4.72 4.72 0 0 0-.752-.068c-1.121 0-1.935.752-1.935 1.79V64h-1.176zm9.208 0v-7.37h1.176V64h-1.176zm.588-8.866a.823.823 0 0 1-.82-.82c0-.452.369-.82.82-.82.451 0 .82.368.82.82 0 .45-.369.82-.82.82zm3.322-.342h1.176v1.839h1.71v.984h-1.71v4.17c0 .868.328 1.237 1.094 1.237.212 0 .314-.006.533-.027v.991a3.787 3.787 0 0 1-.677.069c-1.517 0-2.126-.56-2.126-1.97v-4.47h-1.237v-.984h1.237v-1.839zm5.565 3.028h-1.094l.937-3.684h1.23l-1.073 3.684zm2.994.827c0-1.223 1.183-2.146 2.748-2.146 1.545 0 2.618.766 2.776 1.976h-1.163c-.157-.588-.731-.978-1.62-.978-.875 0-1.558.444-1.558 1.1 0 .506.41.82 1.278 1.033l1.135.273c1.387.335 2.057.937 2.057 1.996 0 1.32-1.278 2.229-2.953 2.229-1.64 0-2.768-.786-2.898-2.01h1.21c.198.622.786 1.019 1.73 1.019.99 0 1.701-.472 1.701-1.149 0-.506-.382-.847-1.169-1.039l-1.264-.307c-1.381-.335-2.01-.93-2.01-1.997zM327.655 64v-7.37h1.121v1.163h.11c.335-.82 1.073-1.292 2.057-1.292.998 0 1.696.526 2.037 1.292h.11c.396-.78 1.237-1.292 2.256-1.292 1.504 0 2.344.861 2.344 2.406V64h-1.175v-4.82c0-1.086-.513-1.62-1.552-1.62-1.026 0-1.71.766-1.71 1.703V64h-1.175v-5.004c0-.875-.608-1.435-1.538-1.435-.964 0-1.709.834-1.709 1.873V64h-1.176zm12.21 0v-7.37h1.175V64h-1.176zm.587-8.866a.823.823 0 0 1-.82-.82c0-.452.369-.82.82-.82.451 0 .82.368.82.82 0 .45-.369.82-.82.82zm3.8 8.934a.896.896 0 0 1-.888-.888c0-.492.404-.889.889-.889.492 0 .889.397.889.889a.891.891 0 0 1-.89.888zm3.542 0a.896.896 0 0 1-.889-.888c0-.492.404-.889.889-.889.492 0 .889.397.889.889a.891.891 0 0 1-.89.888zm3.459 0a.896.896 0 0 1-.889-.888c0-.492.404-.889.889-.889.492 0 .889.397.889.889a.891.891 0 0 1-.89.888zM150.488 87.23v3.774h2.427c1.265 0 1.982-.677 1.982-1.887 0-1.182-.765-1.887-2.037-1.887h-2.372zm0 4.868V96h-1.23v-9.864h3.766c1.9 0 3.145 1.162 3.145 2.94 0 1.373-.745 2.44-1.982 2.83L156.47 96h-1.443l-2.112-3.903h-2.427zm10.705-2.557c-1.175 0-1.996.861-2.085 2.167h4.06c-.026-1.306-.806-2.167-1.975-2.167zm1.942 4.553h1.176c-.356 1.264-1.49 2.037-3.104 2.037-2.044 0-3.322-1.477-3.322-3.808 0-2.317 1.299-3.821 3.322-3.821 1.99 0 3.2 1.415 3.2 3.705v.451h-5.299v.055c.062 1.456.875 2.379 2.126 2.379.95 0 1.593-.349 1.9-.998zm5.386 1.005c1.21 0 2.106-.793 2.106-1.846v-.677l-1.982.13c-1.122.075-1.614.465-1.614 1.203 0 .752.636 1.19 1.49 1.19zm-.218 1.032c-1.429 0-2.489-.848-2.489-2.194 0-1.32.971-2.079 2.687-2.181l2.126-.13v-.67c0-.91-.567-1.408-1.668-1.408-.882 0-1.497.335-1.661.916h-1.19c.158-1.183 1.32-1.962 2.892-1.962 1.798 0 2.803.923 2.803 2.454V96h-1.121v-1.087h-.11c-.478.786-1.285 1.217-2.27 1.217zm5.742-.13V85.705h1.176V96h-1.176zm3.527 0V85.705h1.176V96h-1.176zm4.088 2.673a3.48 3.48 0 0 1-.526-.041v-1.005c.143.027.328.034.492.034.677 0 1.046-.328 1.353-1.217l.137-.437-2.727-7.376h1.271l2.024 6.063h.109l2.017-6.063h1.25l-2.877 7.82c-.63 1.71-1.217 2.222-2.523 2.222zM192.584 96v-7.37h1.121v1.163h.11c.369-.814 1.223-1.292 2.351-1.292 1.654 0 2.577.978 2.577 2.728V96h-1.176v-4.484c0-1.327-.56-1.955-1.736-1.955-1.292 0-2.071.786-2.071 2.078V96h-1.176zm11.245-6.46c-1.176 0-1.996.861-2.085 2.167h4.06c-.027-1.306-.806-2.167-1.975-2.167zm1.942 4.553h1.175c-.355 1.264-1.49 2.037-3.103 2.037-2.044 0-3.322-1.477-3.322-3.808 0-2.317 1.298-3.821 3.322-3.821 1.989 0 3.199 1.415 3.199 3.705v.451h-5.298v.055c.062 1.456.875 2.379 2.126 2.379.95 0 1.593-.349 1.9-.998zm6.056-4.553c-1.176 0-1.996.861-2.085 2.167h4.06c-.027-1.306-.806-2.167-1.975-2.167zm1.942 4.553h1.175c-.355 1.264-1.49 2.037-3.103 2.037-2.044 0-3.322-1.477-3.322-3.808 0-2.317 1.298-3.821 3.322-3.821 1.99 0 3.199 1.415 3.199 3.705v.451h-5.298v.055c.062 1.456.875 2.379 2.126 2.379.95 0 1.593-.349 1.9-.998zm5.844 2.037c-1.886 0-3.096-1.497-3.096-3.815 0-2.31 1.223-3.814 3.096-3.814 1.026 0 1.894.485 2.31 1.292h.103v-4.088h1.176V96h-1.12v-1.176h-.11c-.465.82-1.34 1.306-2.359 1.306zm.274-6.57c-1.34 0-2.154 1.04-2.154 2.755 0 1.723.807 2.755 2.154 2.755 1.34 0 2.167-1.052 2.167-2.755 0-1.688-.834-2.754-2.167-2.754zm5.427 1.087c0-1.223 1.183-2.146 2.749-2.146 1.544 0 2.618.766 2.775 1.976h-1.162c-.157-.588-.732-.978-1.62-.978-.875 0-1.559.444-1.559 1.1 0 .506.41.82 1.278 1.033l1.135.273c1.388.335 2.058.937 2.058 1.996 0 1.32-1.279 2.229-2.953 2.229-1.641 0-2.769-.786-2.899-2.01h1.21c.198.622.786 1.019 1.73 1.019.99 0 1.702-.472 1.702-1.149 0-.506-.383-.847-1.17-1.039l-1.264-.307c-1.38-.335-2.01-.93-2.01-1.997zm11.28 0c0-1.223 1.182-2.146 2.748-2.146 1.545 0 2.618.766 2.775 1.976h-1.162c-.157-.588-.731-.978-1.62-.978-.875 0-1.559.444-1.559 1.1 0 .506.41.82 1.279 1.033l1.134.273c1.388.335 2.058.937 2.058 1.996 0 1.32-1.278 2.229-2.953 2.229-1.64 0-2.769-.786-2.898-2.01h1.21c.198.622.786 1.019 1.729 1.019.991 0 1.702-.472 1.702-1.149 0-.506-.383-.847-1.169-1.039l-1.264-.307c-1.381-.335-2.01-.93-2.01-1.997zm10.438-1.107c-1.176 0-1.996.861-2.085 2.167h4.06c-.027-1.306-.806-2.167-1.975-2.167zm1.942 4.553h1.175c-.355 1.264-1.49 2.037-3.103 2.037-2.044 0-3.322-1.477-3.322-3.808 0-2.317 1.298-3.821 3.322-3.821 1.99 0 3.2 1.415 3.2 3.705v.451h-5.299v.055c.062 1.456.875 2.379 2.126 2.379.95 0 1.593-.349 1.9-.998zm5.386 1.005c1.21 0 2.106-.793 2.106-1.846v-.677l-1.983.13c-1.12.075-1.613.465-1.613 1.203 0 .752.636 1.19 1.49 1.19zm-.218 1.032c-1.43 0-2.489-.848-2.489-2.194 0-1.32.971-2.079 2.687-2.181l2.126-.13v-.67c0-.91-.568-1.408-1.668-1.408-.882 0-1.497.335-1.661.916h-1.19c.157-1.183 1.32-1.962 2.892-1.962 1.798 0 2.803.923 2.803 2.454V96h-1.121v-1.087h-.11c-.478.786-1.285 1.217-2.27 1.217zm5.673-.13v-7.37h1.122v1.095h.109c.219-.718 1.066-1.224 2.044-1.224.191 0 .437.014.588.034v1.176a4.72 4.72 0 0 0-.752-.068c-1.121 0-1.935.752-1.935 1.79V96h-1.176zm11.328-5.113h-1.19c-.191-.732-.84-1.326-1.9-1.326-1.326 0-2.16 1.06-2.16 2.727 0 1.702.847 2.782 2.16 2.782.99 0 1.681-.458 1.9-1.292h1.19c-.212 1.354-1.313 2.352-3.083 2.352-2.065 0-3.384-1.497-3.384-3.842 0-2.297 1.312-3.787 3.377-3.787 1.79 0 2.885 1.073 3.09 2.386zM272.947 96V85.705h1.176v4.088h.11c.369-.814 1.21-1.292 2.337-1.292 1.675 0 2.612.998 2.612 2.728V96h-1.176v-4.484c0-1.306-.574-1.955-1.77-1.955-1.32 0-2.113.834-2.113 2.078V96h-1.176zm8.764-9.871h1.367l-.116 6.59h-1.135l-.116-6.59zm-.26 9.044c0-.56.397-.957.95-.957.554 0 .944.396.944.957 0 .554-.39.95-.944.95-.553 0-.95-.396-.95-.95zm12.127.827h-1.23v-8.757h-3.18v-1.107h7.589v1.107h-3.179V96zm4.997 0V85.705h1.176v4.088h.11c.368-.814 1.21-1.292 2.337-1.292 1.675 0 2.612.998 2.612 2.728V96h-1.176v-4.484c0-1.306-.574-1.955-1.77-1.955-1.32 0-2.113.834-2.113 2.078V96h-1.176zm11.32-6.46c-1.175 0-1.996.861-2.084 2.167h4.06c-.027-1.306-.807-2.167-1.975-2.167zm1.942 4.553h1.176c-.356 1.264-1.49 2.037-3.104 2.037-2.044 0-3.322-1.477-3.322-3.808 0-2.317 1.299-3.821 3.322-3.821 1.99 0 3.2 1.415 3.2 3.705v.451h-5.298v.055c.061 1.456.875 2.379 2.126 2.379.95 0 1.592-.349 1.9-.998zM314.954 96v-7.37h1.121v1.163h.11c.369-.814 1.223-1.292 2.351-1.292 1.654 0 2.577.978 2.577 2.728V96h-1.175v-4.484c0-1.327-.561-1.955-1.737-1.955-1.292 0-2.071.786-2.071 2.078V96h-1.176zm15.504.232c-1.866 0-3.206-1.155-3.315-2.857h1.21c.109 1.066.957 1.777 2.119 1.777 1.319 0 2.2-.902 2.2-2.256 0-1.353-.888-2.276-2.18-2.276-.895 0-1.634.403-2.037 1.108H327.3l.54-5.592h5.503v1.1h-4.54l-.28 3.165h.11c.478-.56 1.176-.84 2.085-.84 1.873 0 3.185 1.36 3.185 3.301 0 2.003-1.401 3.37-3.445 3.37zm9.194-5.585c0-1.223 1.183-2.146 2.748-2.146 1.545 0 2.619.766 2.776 1.976h-1.162c-.158-.588-.732-.978-1.62-.978-.875 0-1.559.444-1.559 1.1 0 .506.41.82 1.278 1.033l1.135.273c1.388.335 2.058.937 2.058 1.996 0 1.32-1.279 2.229-2.953 2.229-1.641 0-2.769-.786-2.899-2.01h1.21c.198.622.786 1.019 1.73 1.019.99 0 1.702-.472 1.702-1.149 0-.506-.383-.847-1.17-1.039l-1.264-.307c-1.38-.335-2.01-.93-2.01-1.997zm8.47 5.421a.896.896 0 0 1-.889-.888c0-.493.404-.889.89-.889.491 0 .888.397.888.889a.891.891 0 0 1-.889.888zm3.541 0a.896.896 0 0 1-.889-.888c0-.493.404-.889.89-.889.491 0 .888.397.888.889a.891.891 0 0 1-.889.888zm3.46 0a.896.896 0 0 1-.89-.888c0-.493.404-.889.89-.889.491 0 .888.397.888.889a.891.891 0 0 1-.889.888zM150.474 128h-1.217v-9.864h1.196l5.353 7.677h.109v-7.677h1.217V128h-1.196l-5.353-7.65h-.11V128zm11.293-.902c1.21 0 2.105-.793 2.105-1.846v-.677l-1.982.13c-1.121.075-1.614.465-1.614 1.203 0 .752.636 1.19 1.49 1.19zm-.22 1.032c-1.428 0-2.487-.848-2.487-2.194 0-1.32.97-2.079 2.686-2.181l2.126-.13v-.67c0-.91-.567-1.408-1.668-1.408-.882 0-1.497.335-1.661.916h-1.19c.158-1.183 1.32-1.962 2.892-1.962 1.798 0 2.803.923 2.803 2.454V128h-1.121v-1.087h-.11c-.478.786-1.285 1.217-2.27 1.217zm5.032-7.5h1.258l2.016 6.071h.11l2.016-6.07h1.258L170.511 128h-1.203l-2.728-7.37zm8.258 7.37v-7.37h1.176V128h-1.176zm.588-8.866a.823.823 0 0 1-.82-.82c0-.452.369-.82.82-.82.451 0 .82.368.82.82 0 .45-.369.82-.82.82zm7.998 5.072c0-1.606-.827-2.645-2.188-2.645-1.367 0-2.132 1.039-2.132 2.645s.765 2.646 2.132 2.646c1.368 0 2.188-1.04 2.188-2.646zm-2.133 6.624c-1.777 0-2.912-.8-3.09-2.017h1.244c.13.602.786.992 1.846.992 1.32 0 2.105-.65 2.105-1.737v-1.449h-.109c-.465.814-1.299 1.272-2.31 1.272-1.908 0-3.09-1.477-3.09-3.685s1.196-3.705 3.09-3.705c1.032 0 1.941.506 2.365 1.299h.11v-1.17h1.12v7.5c0 1.647-1.271 2.7-3.281 2.7zm7.766-3.732c1.21 0 2.105-.793 2.105-1.846v-.677l-1.982.13c-1.121.075-1.614.465-1.614 1.203 0 .752.636 1.19 1.49 1.19zm-.22 1.032c-1.428 0-2.487-.848-2.487-2.194 0-1.32.97-2.079 2.686-2.181l2.126-.13v-.67c0-.91-.567-1.408-1.668-1.408-.882 0-1.497.335-1.661.916h-1.19c.158-1.183 1.32-1.962 2.892-1.962 1.798 0 2.803.923 2.803 2.454V128h-1.121v-1.087h-.11c-.478.786-1.285 1.217-2.27 1.217zm6.167-9.338h1.176v1.839h1.709v.984h-1.71v4.17c0 .868.329 1.237 1.094 1.237.212 0 .315-.006.534-.027v.991a3.787 3.787 0 0 1-.677.069c-1.518 0-2.126-.56-2.126-1.97v-4.47h-1.237v-.984h1.237v-1.839zm4.621 9.208v-7.37h1.176V128h-1.176zm.588-8.866a.823.823 0 0 1-.82-.82c0-.452.369-.82.82-.82.451 0 .82.368.82.82 0 .45-.369.82-.82.82zm5.858 7.936c1.395 0 2.181-1.011 2.181-2.755 0-1.75-.786-2.754-2.18-2.754-1.395 0-2.181 1.004-2.181 2.754 0 1.744.786 2.755 2.18 2.755zm0 1.06c-2.098 0-3.397-1.45-3.397-3.815 0-2.372 1.299-3.814 3.397-3.814 2.099 0 3.398 1.442 3.398 3.814 0 2.366-1.3 3.815-3.398 3.815zm5.243-.13v-7.37h1.122v1.163h.109c.37-.814 1.224-1.292 2.351-1.292 1.655 0 2.578.978 2.578 2.728V128h-1.176v-4.484c0-1.327-.56-1.955-1.736-1.955-1.292 0-2.072.786-2.072 2.078V128h-1.176zm12.285 0v-7.37h1.175V128H223.6zm.588-8.866a.823.823 0 0 1-.82-.82c0-.452.368-.82.82-.82.45 0 .82.368.82.82 0 .45-.37.82-.82.82zm2.659 3.513c0-1.223 1.182-2.146 2.748-2.146 1.545 0 2.618.766 2.775 1.976h-1.162c-.157-.588-.731-.978-1.62-.978-.875 0-1.559.444-1.559 1.1 0 .506.41.82 1.279 1.033l1.134.273c1.388.335 2.058.937 2.058 1.996 0 1.32-1.278 2.229-2.953 2.229-1.64 0-2.769-.786-2.899-2.01h1.21c.199.622.787 1.019 1.73 1.019.991 0 1.702-.472 1.702-1.149 0-.506-.383-.847-1.169-1.039l-1.265-.307c-1.38-.335-2.01-.93-2.01-1.997zm11.45 5.353v-7.37h1.121v1.095h.11c.218-.718 1.066-1.224 2.043-1.224.192 0 .438.014.588.034v1.176a4.72 4.72 0 0 0-.752-.068c-1.12 0-1.934.752-1.934 1.79V128h-1.176zm8.169-6.46c-1.176 0-1.996.861-2.085 2.167h4.06c-.027-1.306-.806-2.167-1.975-2.167zm1.941 4.553h1.176c-.355 1.264-1.49 2.037-3.103 2.037-2.044 0-3.323-1.477-3.323-3.808 0-2.317 1.3-3.821 3.323-3.821 1.989 0 3.199 1.415 3.199 3.705v.451h-5.298v.055c.061 1.456.875 2.379 2.126 2.379.95 0 1.593-.349 1.9-.998zm5.387 1.005c1.21 0 2.105-.793 2.105-1.846v-.677l-1.982.13c-1.121.075-1.613.465-1.613 1.203 0 .752.635 1.19 1.49 1.19zm-.219 1.032c-1.428 0-2.488-.848-2.488-2.194 0-1.32.97-2.079 2.686-2.181l2.126-.13v-.67c0-.91-.567-1.408-1.668-1.408-.881 0-1.497.335-1.66.916h-1.19c.157-1.183 1.32-1.962 2.891-1.962 1.798 0 2.803.923 2.803 2.454V128h-1.12v-1.087h-.11c-.479.786-1.285 1.217-2.27 1.217zm5.742-.13v-10.295h1.176V128h-1.176zm3.528 0v-10.295h1.176V128h-1.176zm4.088 2.673a3.48 3.48 0 0 1-.527-.041v-1.005c.144.027.328.034.492.034.677 0 1.046-.328 1.354-1.217l.137-.437-2.728-7.376h1.272l2.023 6.063h.11l2.016-6.063h1.251l-2.878 7.82c-.629 1.71-1.217 2.222-2.522 2.222zM277.924 128v-10.295h1.176v4.088h.109c.37-.814 1.21-1.292 2.338-1.292 1.675 0 2.611.998 2.611 2.728V128h-1.176v-4.484c0-1.306-.574-1.955-1.77-1.955-1.32 0-2.112.834-2.112 2.078V128h-1.176zm10.65-.902c1.21 0 2.106-.793 2.106-1.846v-.677l-1.983.13c-1.12.075-1.613.465-1.613 1.203 0 .752.636 1.19 1.49 1.19zm-.219 1.032c-1.428 0-2.488-.848-2.488-2.194 0-1.32.97-2.079 2.687-2.181l2.126-.13v-.67c0-.91-.568-1.408-1.668-1.408-.882 0-1.497.335-1.661.916h-1.19c.157-1.183 1.32-1.962 2.892-1.962 1.798 0 2.802.923 2.802 2.454V128h-1.12v-1.087h-.11c-.479.786-1.285 1.217-2.27 1.217zm5.674-.13v-7.37h1.121v1.095h.11c.219-.718 1.066-1.224 2.044-1.224.191 0 .437.014.588.034v1.176a4.72 4.72 0 0 0-.752-.068c-1.121 0-1.935.752-1.935 1.79V128h-1.176zm7.957.13c-1.886 0-3.096-1.497-3.096-3.815 0-2.31 1.223-3.814 3.096-3.814 1.026 0 1.894.485 2.31 1.292h.103v-4.088h1.176V128h-1.12v-1.176h-.11c-.465.82-1.34 1.306-2.359 1.306zm.274-6.57c-1.34 0-2.154 1.04-2.154 2.755 0 1.723.807 2.755 2.154 2.755 1.34 0 2.167-1.052 2.167-2.755 0-1.688-.834-2.754-2.167-2.754zm6.268 8.949h-1.025l.656-3.89h1.381l-1.012 3.89zm8.955-2.509h-1.23v-9.864h1.23V128zm3.336-6.18h-1.093l.936-3.684h1.23l-1.073 3.684zm3.165 6.18v-7.37h1.121v1.163h.11c.335-.82 1.073-1.292 2.057-1.292.999 0 1.696.526 2.038 1.292h.109c.396-.78 1.237-1.292 2.256-1.292 1.504 0 2.345.861 2.345 2.406V128h-1.176v-4.82c0-1.086-.513-1.62-1.552-1.62-1.025 0-1.709.766-1.709 1.703V128h-1.176v-5.004c0-.875-.608-1.435-1.538-1.435-.964 0-1.709.834-1.709 1.873V128h-1.176zm13.153.068a.896.896 0 0 1-.889-.888c0-.493.403-.889.889-.889.492 0 .888.397.888.889a.891.891 0 0 1-.888.888zm3.54 0a.896.896 0 0 1-.888-.888c0-.493.403-.889.889-.889.492 0 .888.397.888.889a.891.891 0 0 1-.888.888zm3.46 0a.896.896 0 0 1-.889-.888c0-.493.403-.889.889-.889.492 0 .888.397.888.889a.891.891 0 0 1-.888.888zM150.488 160h-1.23v-9.864h1.23V160zm3.336-6.18h-1.094l.937-3.684h1.23l-1.073 3.684zm3.165 6.18v-7.37h1.121v1.163h.11c.335-.82 1.073-1.292 2.057-1.292.998 0 1.696.526 2.037 1.292h.11c.396-.78 1.237-1.292 2.256-1.292 1.504 0 2.344.861 2.344 2.406V160h-1.175v-4.82c0-1.086-.513-1.62-1.552-1.62-1.026 0-1.71.766-1.71 1.703V160h-1.175v-5.004c0-.875-.608-1.435-1.538-1.435-.964 0-1.709.834-1.709 1.873V160h-1.176zm16.133 0v-7.37h1.121v1.163h.11c.369-.814 1.223-1.292 2.351-1.292 1.654 0 2.577.978 2.577 2.728V160h-1.176v-4.484c0-1.327-.56-1.955-1.736-1.955-1.292 0-2.071.786-2.071 2.078V160h-1.176zm11.334-.93c1.395 0 2.18-1.011 2.18-2.755 0-1.75-.785-2.754-2.18-2.754-1.394 0-2.18 1.004-2.18 2.754 0 1.744.786 2.755 2.18 2.755zm0 1.06c-2.099 0-3.397-1.45-3.397-3.815 0-2.372 1.298-3.814 3.397-3.814 2.099 0 3.398 1.442 3.398 3.814 0 2.366-1.3 3.815-3.398 3.815zm5.735-9.338h1.176v1.839h1.71v.984h-1.71v4.17c0 .868.328 1.237 1.094 1.237.212 0 .314-.006.533-.027v.991a3.787 3.787 0 0 1-.677.069c-1.517 0-2.126-.56-2.126-1.97v-4.47h-1.237v-.984h1.237v-1.839zm8.374 3.855c0-1.223 1.183-2.146 2.748-2.146 1.545 0 2.619.766 2.776 1.976h-1.162c-.157-.588-.732-.978-1.62-.978-.875 0-1.559.444-1.559 1.1 0 .506.41.82 1.278 1.033l1.135.273c1.388.335 2.058.937 2.058 1.996 0 1.32-1.279 2.229-2.953 2.229-1.641 0-2.769-.786-2.899-2.01h1.21c.198.622.786 1.019 1.73 1.019.99 0 1.702-.472 1.702-1.149 0-.506-.383-.847-1.17-1.039l-1.264-.307c-1.38-.335-2.01-.93-2.01-1.997zm13.597-2.016V160h-1.121v-1.155h-.11c-.369.82-1.223 1.285-2.35 1.285-1.655 0-2.585-.984-2.585-2.728v-4.771h1.176v4.484c0 1.326.56 1.942 1.736 1.942 1.299 0 2.078-.773 2.078-2.065v-4.361h1.176zm2.215 7.369v-7.37h1.121v1.095h.11c.218-.718 1.066-1.224 2.043-1.224.192 0 .438.014.588.034v1.176a4.72 4.72 0 0 0-.752-.068c-1.12 0-1.934.752-1.934 1.79V160h-1.176zm8.169-6.46c-1.176 0-1.996.861-2.085 2.167h4.06c-.027-1.306-.806-2.167-1.975-2.167zm1.941 4.553h1.176c-.355 1.264-1.49 2.037-3.103 2.037-2.044 0-3.323-1.477-3.323-3.808 0-2.317 1.3-3.821 3.323-3.821 1.989 0 3.199 1.415 3.199 3.705v.451h-5.298v.055c.061 1.456.875 2.379 2.126 2.379.95 0 1.593-.349 1.9-.998zm7.137 1.907v-10.295h1.176v4.088h.11c.368-.814 1.21-1.292 2.337-1.292 1.675 0 2.611.998 2.611 2.728V160h-1.175v-4.484c0-1.306-.575-1.955-1.77-1.955-1.32 0-2.113.834-2.113 2.078V160h-1.176zm11.41-.93c1.394 0 2.18-1.011 2.18-2.755 0-1.75-.786-2.754-2.18-2.754-1.395 0-2.181 1.004-2.181 2.754 0 1.744.786 2.755 2.18 2.755zm0 1.06c-2.1 0-3.398-1.45-3.398-3.815 0-2.372 1.299-3.814 3.397-3.814 2.099 0 3.398 1.442 3.398 3.814 0 2.366-1.3 3.815-3.398 3.815zm14.512-7.5L255.48 160h-1.196l-1.647-5.701h-.11l-1.64 5.701h-1.19l-2.064-7.37h1.19l1.448 5.893h.11l1.647-5.892h1.128l1.648 5.892h.11l1.448-5.892h1.183zm6.016-1.838h1.175v1.839h1.71v.984h-1.71v4.17c0 .868.328 1.237 1.094 1.237.212 0 .315-.006.533-.027v.991a3.787 3.787 0 0 1-.676.069c-1.518 0-2.126-.56-2.126-1.97v-4.47h-1.238v-.984h1.238v-1.839zm7.622 8.278c1.394 0 2.18-1.011 2.18-2.755 0-1.75-.786-2.754-2.18-2.754-1.395 0-2.181 1.004-2.181 2.754 0 1.744.786 2.755 2.18 2.755zm0 1.06c-2.099 0-3.398-1.45-3.398-3.815 0-2.372 1.299-3.814 3.398-3.814 2.098 0 3.397 1.442 3.397 3.814 0 2.366-1.299 3.815-3.397 3.815zm15.292-7.5V160h-1.122v-1.155h-.109c-.369.82-1.224 1.285-2.351 1.285-1.655 0-2.584-.984-2.584-2.728v-4.771h1.175v4.484c0 1.326.56 1.942 1.737 1.942 1.299 0 2.078-.773 2.078-2.065v-4.361h1.176zm2.044 2.017c0-1.223 1.182-2.146 2.748-2.146 1.545 0 2.618.766 2.775 1.976h-1.162c-.157-.588-.732-.978-1.62-.978-.875 0-1.559.444-1.559 1.1 0 .506.41.82 1.278 1.033l1.135.273c1.388.335 2.058.937 2.058 1.996 0 1.32-1.278 2.229-2.953 2.229-1.64 0-2.769-.786-2.899-2.01h1.21c.198.622.786 1.019 1.73 1.019.991 0 1.702-.472 1.702-1.149 0-.506-.383-.847-1.17-1.039l-1.264-.307c-1.38-.335-2.01-.93-2.01-1.997zm10.438-1.107c-1.176 0-1.996.861-2.085 2.167h4.06c-.027-1.306-.806-2.167-1.975-2.167zm1.941 4.553h1.176c-.355 1.264-1.49 2.037-3.103 2.037-2.044 0-3.323-1.477-3.323-3.808 0-2.317 1.3-3.821 3.323-3.821 1.989 0 3.199 1.415 3.199 3.705v.451h-5.298v.055c.062 1.456.875 2.379 2.126 2.379.95 0 1.593-.349 1.9-.998zm7.561-7.301h1.176v1.839h1.709v.984h-1.71v4.17c0 .868.329 1.237 1.094 1.237.212 0 .315-.006.534-.027v.991a3.787 3.787 0 0 1-.677.069c-1.518 0-2.126-.56-2.126-1.97v-4.47h-1.237v-.984h1.237v-1.839zm4.662 9.208v-10.295h1.176v4.088h.11c.368-.814 1.21-1.292 2.337-1.292 1.675 0 2.611.998 2.611 2.728V160h-1.175v-4.484c0-1.306-.575-1.955-1.77-1.955-1.32 0-2.113.834-2.113 2.078V160h-1.176zm8.408 0v-7.37h1.176V160h-1.176zm.588-8.866a.823.823 0 0 1-.82-.82c0-.452.369-.82.82-.82.451 0 .82.368.82.82 0 .45-.369.82-.82.82zm2.66 3.513c0-1.223 1.182-2.146 2.747-2.146 1.545 0 2.619.766 2.776 1.976h-1.162c-.158-.588-.732-.978-1.62-.978-.875 0-1.559.444-1.559 1.1 0 .506.41.82 1.278 1.033l1.135.273c1.388.335 2.058.937 2.058 1.996 0 1.32-1.279 2.229-2.953 2.229-1.641 0-2.769-.786-2.899-2.01h1.21c.198.622.786 1.019 1.73 1.019.99 0 1.702-.472 1.702-1.149 0-.506-.383-.847-1.17-1.039l-1.264-.307c-1.38-.335-2.01-.93-2.01-1.997z" fill="#FFF"/></g></svg>