<svg width="400" height="320" viewBox="0 0 400 320" xmlns="http://www.w3.org/2000/svg" xmlns:xlink="http://www.w3.org/1999/xlink"><title>illustration/insights</title><defs><rect id="b" x="2" y="2" width="156" height="36" rx="4"/><filter x="-4.5%" y="-13.9%" width="109%" height="138.9%" filterUnits="objectBoundingBox" id="a"><feOffset dy="2" in="SourceAlpha" result="shadowOffsetOuter1"/><feGaussianBlur stdDeviation="2" in="shadowOffsetOuter1" result="shadowBlurOuter1"/><feColorMatrix values="0 0 0 0 0 0 0 0 0 0 0 0 0 0 0 0 0 0 0.2 0" in="shadowBlurOuter1"/></filter><rect id="d" width="160" height="40" rx="4"/><filter x="-2.8%" y="-8.8%" width="105.6%" height="122.5%" filterUnits="objectBoundingBox" id="c"><feMorphology radius="1" operator="dilate" in="SourceAlpha" result="shadowSpreadOuter1"/><feOffset dy="1" in="shadowSpreadOuter1" result="shadowOffsetOuter1"/><feGaussianBlur stdDeviation="1" in="shadowOffsetOuter1" result="shadowBlurOuter1"/><feComposite in="shadowBlurOuter1" in2="SourceAlpha" operator="out" result="shadowBlurOuter1"/><feColorMatrix values="0 0 0 0 0 0 0 0 0 0 0 0 0 0 0 0 0 0 0.04 0" in="shadowBlurOuter1"/></filter><rect id="f" x="2" y="2" width="156" height="36" rx="4"/><filter x="-4.5%" y="-13.9%" width="109%" height="138.9%" filterUnits="objectBoundingBox" id="e"><feOffset dy="2" in="SourceAlpha" result="shadowOffsetOuter1"/><feGaussianBlur stdDeviation="2" in="shadowOffsetOuter1" result="shadowBlurOuter1"/><feColorMatrix values="0 0 0 0 0 0 0 0 0 0 0 0 0 0 0 0 0 0 0.2 0" in="shadowBlurOuter1"/></filter><rect id="h" width="160" height="40" rx="4"/><filter x="-2.8%" y="-8.8%" width="105.6%" height="122.5%" filterUnits="objectBoundingBox" id="g"><feMorphology radius="1" operator="dilate" in="SourceAlpha" result="shadowSpreadOuter1"/><feOffset dy="1" in="shadowSpreadOuter1" result="shadowOffsetOuter1"/><feGaussianBlur stdDeviation="1" in="shadowOffsetOuter1" result="shadowBlurOuter1"/><feComposite in="shadowBlurOuter1" in2="SourceAlpha" operator="out" result="shadowBlurOuter1"/><feColorMatrix values="0 0 0 0 0 0 0 0 0 0 0 0 0 0 0 0 0 0 0.04 0" in="shadowBlurOuter1"/></filter><rect id="j" x="2" y="2" width="156" height="36" rx="4"/><filter x="-4.5%" y="-13.9%" width="109%" height="138.9%" filterUnits="objectBoundingBox" id="i"><feOffset dy="2" in="SourceAlpha" result="shadowOffsetOuter1"/><feGaussianBlur stdDeviation="2" in="shadowOffsetOuter1" result="shadowBlurOuter1"/><feColorMatrix values="0 0 0 0 0 0 0 0 0 0 0 0 0 0 0 0 0 0 0.2 0" in="shadowBlurOuter1"/></filter><rect id="l" width="160" height="40" rx="4"/><filter x="-2.8%" y="-8.8%" width="105.6%" height="122.5%" filterUnits="objectBoundingBox" id="k"><feMorphology radius="1" operator="dilate" in="SourceAlpha" result="shadowSpreadOuter1"/><feOffset dy="1" in="shadowSpreadOuter1" result="shadowOffsetOuter1"/><feGaussianBlur stdDeviation="1" in="shadowOffsetOuter1" result="shadowBlurOuter1"/><feComposite in="shadowBlurOuter1" in2="SourceAlpha" operator="out" result="shadowBlurOuter1"/><feColorMatrix values="0 0 0 0 0 0 0 0 0 0 0 0 0 0 0 0 0 0 0.04 0" in="shadowBlurOuter1"/></filter><rect id="n" x="2" y="2" width="156" height="36" rx="4"/><filter x="-4.5%" y="-13.9%" width="109%" height="138.9%" filterUnits="objectBoundingBox" id="m"><feOffset dy="2" in="SourceAlpha" result="shadowOffsetOuter1"/><feGaussianBlur stdDeviation="2" in="shadowOffsetOuter1" result="shadowBlurOuter1"/><feColorMatrix values="0 0 0 0 0 0 0 0 0 0 0 0 0 0 0 0 0 0 0.2 0" in="shadowBlurOuter1"/></filter><rect id="p" width="160" height="40" rx="4"/><filter x="-2.8%" y="-8.8%" width="105.6%" height="122.5%" filterUnits="objectBoundingBox" id="o"><feMorphology radius="1" operator="dilate" in="SourceAlpha" result="shadowSpreadOuter1"/><feOffset dy="1" in="shadowSpreadOuter1" result="shadowOffsetOuter1"/><feGaussianBlur stdDeviation="1" in="shadowOffsetOuter1" result="shadowBlurOuter1"/><feComposite in="shadowBlurOuter1" in2="SourceAlpha" operator="out" result="shadowBlurOuter1"/><feColorMatrix values="0 0 0 0 0 0 0 0 0 0 0 0 0 0 0 0 0 0 0.04 0" in="shadowBlurOuter1"/></filter><rect id="r" x="2" y="2" width="156" height="36" rx="4"/><filter x="-4.5%" y="-13.9%" width="109%" height="138.9%" filterUnits="objectBoundingBox" id="q"><feOffset dy="2" in="SourceAlpha" result="shadowOffsetOuter1"/><feGaussianBlur stdDeviation="2" in="shadowOffsetOuter1" result="shadowBlurOuter1"/><feColorMatrix values="0 0 0 0 0 0 0 0 0 0 0 0 0 0 0 0 0 0 0.2 0" in="shadowBlurOuter1"/></filter><rect id="t" width="160" height="40" rx="4"/><filter x="-2.8%" y="-8.8%" width="105.6%" height="122.5%" filterUnits="objectBoundingBox" id="s"><feMorphology radius="1" operator="dilate" in="SourceAlpha" result="shadowSpreadOuter1"/><feOffset dy="1" in="shadowSpreadOuter1" result="shadowOffsetOuter1"/><feGaussianBlur stdDeviation="1" in="shadowOffsetOuter1" result="shadowBlurOuter1"/><feComposite in="shadowBlurOuter1" in2="SourceAlpha" operator="out" result="shadowBlurOuter1"/><feColorMatrix values="0 0 0 0 0 0 0 0 0 0 0 0 0 0 0 0 0 0 0.04 0" in="shadowBlurOuter1"/></filter><rect id="v" x="2" y="2" width="156" height="36" rx="4"/><filter x="-4.5%" y="-13.9%" width="109%" height="138.9%" filterUnits="objectBoundingBox" id="u"><feOffset dy="2" in="SourceAlpha" result="shadowOffsetOuter1"/><feGaussianBlur stdDeviation="2" in="shadowOffsetOuter1" result="shadowBlurOuter1"/><feColorMatrix values="0 0 0 0 0 0 0 0 0 0 0 0 0 0 0 0 0 0 0.2 0" in="shadowBlurOuter1"/></filter><rect id="x" width="160" height="40" rx="4"/><filter x="-2.8%" y="-8.8%" width="105.6%" height="122.5%" filterUnits="objectBoundingBox" id="w"><feMorphology radius="1" operator="dilate" in="SourceAlpha" result="shadowSpreadOuter1"/><feOffset dy="1" in="shadowSpreadOuter1" result="shadowOffsetOuter1"/><feGaussianBlur stdDeviation="1" in="shadowOffsetOuter1" result="shadowBlurOuter1"/><feComposite in="shadowBlurOuter1" in2="SourceAlpha" operator="out" result="shadowBlurOuter1"/><feColorMatrix values="0 0 0 0 0 0 0 0 0 0 0 0 0 0 0 0 0 0 0.04 0" in="shadowBlurOuter1"/></filter><rect id="z" x="2" y="2" width="156" height="36" rx="4"/><filter x="-4.5%" y="-13.9%" width="109%" height="138.9%" filterUnits="objectBoundingBox" id="y"><feOffset dy="2" in="SourceAlpha" result="shadowOffsetOuter1"/><feGaussianBlur stdDeviation="2" in="shadowOffsetOuter1" result="shadowBlurOuter1"/><feColorMatrix values="0 0 0 0 0 0 0 0 0 0 0 0 0 0 0 0 0 0 0.2 0" in="shadowBlurOuter1"/></filter><rect id="B" width="160" height="40" rx="4"/><filter x="-2.8%" y="-8.8%" width="105.6%" height="122.5%" filterUnits="objectBoundingBox" id="A"><feMorphology radius="1" operator="dilate" in="SourceAlpha" result="shadowSpreadOuter1"/><feOffset dy="1" in="shadowSpreadOuter1" result="shadowOffsetOuter1"/><feGaussianBlur stdDeviation="1" in="shadowOffsetOuter1" result="shadowBlurOuter1"/><feComposite in="shadowBlurOuter1" in2="SourceAlpha" operator="out" result="shadowBlurOuter1"/><feColorMatrix values="0 0 0 0 0 0 0 0 0 0 0 0 0 0 0 0 0 0 0.04 0" in="shadowBlurOuter1"/></filter><rect id="D" x="2" y="2" width="156" height="36" rx="4"/><filter x="-4.5%" y="-13.9%" width="109%" height="138.9%" filterUnits="objectBoundingBox" id="C"><feOffset dy="2" in="SourceAlpha" result="shadowOffsetOuter1"/><feGaussianBlur stdDeviation="2" in="shadowOffsetOuter1" result="shadowBlurOuter1"/><feColorMatrix values="0 0 0 0 0 0 0 0 0 0 0 0 0 0 0 0 0 0 0.2 0" in="shadowBlurOuter1"/></filter><rect id="F" width="160" height="40" rx="4"/><filter x="-2.8%" y="-8.8%" width="105.6%" height="122.5%" filterUnits="objectBoundingBox" id="E"><feMorphology radius="1" operator="dilate" in="SourceAlpha" result="shadowSpreadOuter1"/><feOffset dy="1" in="shadowSpreadOuter1" result="shadowOffsetOuter1"/><feGaussianBlur stdDeviation="1" in="shadowOffsetOuter1" result="shadowBlurOuter1"/><feComposite in="shadowBlurOuter1" in2="SourceAlpha" operator="out" result="shadowBlurOuter1"/><feColorMatrix values="0 0 0 0 0 0 0 0 0 0 0 0 0 0 0 0 0 0 0.04 0" in="shadowBlurOuter1"/></filter></defs><g fill="none" fill-rule="evenodd"><g transform="translate(16 16)"><rect fill="#F1EFF8" width="176" height="288" rx="4"/><g transform="translate(0 248)"><path d="M0 0h176v37a3 3 0 0 1-3 3H3a3 3 0 0 1-3-3V0z" fill="#512DA8" opacity=".04"/><path d="M50.502 24h-1.459v-8.455h1.312l4.149 5.748h.1v-5.748h1.453V24H54.75l-4.148-5.754h-.1V24zm10.184-5.385c-.868 0-1.477.621-1.541 1.559h3.017c-.03-.95-.603-1.559-1.476-1.559zm1.488 3.621h1.377c-.276 1.166-1.336 1.893-2.848 1.893-1.887 0-3.023-1.248-3.023-3.31 0-2.063 1.154-3.358 3.011-3.358 1.829 0 2.924 1.213 2.924 3.234v.47H59.14v.075c.035 1.067.65 1.735 1.605 1.735.72 0 1.219-.264 1.43-.739zm11.484-4.646L71.924 24h-1.53l-1.248-4.617h-.1L67.806 24h-1.512l-1.734-6.41h1.464l1.067 4.787h.1l1.23-4.787h1.389l1.242 4.787h.1l1.06-4.787h1.447zM78.141 24v-6.41h1.447V24H78.14zm.72-7.453c-.527 0-.896-.34-.896-.803s.369-.803.896-.803c.534 0 .897.34.897.803s-.363.803-.897.803zM81.387 24v-6.41h1.4v1.025h.1c.304-.715 1.054-1.154 2.015-1.154 1.43 0 2.233.861 2.233 2.39V24h-1.448v-3.803c0-.978-.445-1.47-1.324-1.47-.937 0-1.523.597-1.523 1.54V24h-1.453zm7.324-4.576c0-1.16 1.055-1.963 2.566-1.963 1.524 0 2.479.674 2.584 1.84h-1.365c-.105-.451-.533-.738-1.213-.738-.662 0-1.16.316-1.16.779 0 .363.305.586.95.732l1.13.258c1.225.275 1.793.803 1.793 1.746 0 1.23-1.13 2.05-2.73 2.05s-2.608-.69-2.72-1.857h1.436c.141.475.592.756 1.319.756.732 0 1.242-.322 1.242-.797 0-.363-.275-.591-.885-.726l-1.137-.264c-1.23-.281-1.81-.85-1.81-1.816zM95.484 24v-6.41h1.448V24h-1.448zm.721-7.453c-.527 0-.896-.34-.896-.803s.369-.803.896-.803c.533 0 .897.34.897.803s-.364.803-.897.803zm6.902 4.178c0-1.225-.615-2.004-1.623-2.004-1.013 0-1.588.779-1.588 2.004 0 1.224.575 1.998 1.588 1.998 1.014 0 1.623-.774 1.623-1.998zm-1.623 5.712c-1.646 0-2.724-.726-2.841-1.828h1.459c.093.44.609.721 1.406.721.996 0 1.576-.469 1.576-1.271v-1.213h-.1c-.369.685-1.066 1.06-1.957 1.06-1.617 0-2.625-1.254-2.625-3.181 0-1.963 1.014-3.24 2.649-3.24.873 0 1.635.433 1.986 1.13h.1V17.59h1.4v6.433c0 1.483-1.183 2.415-3.053 2.415zM106.377 24v-8.889h1.43v3.516h.105c.305-.72 1.06-1.154 2.016-1.154 1.435 0 2.267.867 2.267 2.39V24h-1.447v-3.791c0-.973-.469-1.47-1.36-1.47-.954 0-1.558.62-1.558 1.54V24h-1.453zm8.004-7.94h1.447v1.57h1.406v1.161h-1.406v3.146c0 .633.27.915.879.915.205 0 .31-.012.48-.03v1.137c-.205.041-.468.07-.75.07-1.47 0-2.056-.498-2.056-1.74v-3.498h-1.043v-1.16h1.043v-1.57z" fill="#24124D" opacity=".6"/><g transform="translate(23.333 15.333)" stroke="#7B7194" stroke-linecap="round" stroke-linejoin="round" stroke-width="2"><path d="M4.667 0v9.333M0 4.667h9.333"/></g></g><g transform="translate(8 8)"><use fill="#000" filter="url(#a)" xlink:href="#b"/><use fill="#FFF" xlink:href="#b"/><g stroke-linecap="square"><use fill="#000" filter="url(#c)" xlink:href="#d"/><rect stroke-opacity=".098" stroke="#140B2F" fill="#FFF" x="-.5" y="-.5" width="161" height="41" rx="4"/></g><g transform="translate(13 13)" opacity=".6" stroke="#24124D" stroke-linecap="round" stroke-linejoin="round" stroke-width="2"><path transform="translate(.333 .333)" d="M6.66666667 0L8.72666667 4.17333333 13.3333333 4.84666667 10 8.09333333 10.7866667 12.68 6.66666667 10.5133333 2.54666667 12.68 3.33333333 8.09333333 0 4.84666667 4.60666667 4.17333333z"/></g><rect fill="#512DA8" opacity=".2" x="40" y="16" width="80" height="8" rx="3"/></g><g transform="translate(8 56)"><use fill="#000" filter="url(#e)" xlink:href="#f"/><use fill="#FFF" xlink:href="#f"/><g stroke-linecap="square"><use fill="#000" filter="url(#g)" xlink:href="#h"/><rect stroke-opacity=".098" stroke="#140B2F" fill="#FFF" x="-.5" y="-.5" width="161" height="41" rx="4"/></g><g transform="translate(8 8)" opacity=".6" stroke="#24124D" stroke-linecap="round" stroke-linejoin="round" stroke-width="2"><path transform="translate(5.333 5.333)" d="M6.66666667 0L8.72666667 4.17333333 13.3333333 4.84666667 10 8.09333333 10.7866667 12.68 6.66666667 10.5133333 2.54666667 12.68 3.33333333 8.09333333 0 4.84666667 4.60666667 4.17333333z"/></g><rect fill="#512DA8" opacity=".2" x="40" y="16" width="104" height="8" rx="3"/></g><g transform="translate(8 104)"><use fill="#000" filter="url(#i)" xlink:href="#j"/><use fill="#FFF" xlink:href="#j"/><g stroke-linecap="square"><use fill="#000" filter="url(#k)" xlink:href="#l"/><rect stroke-opacity=".098" stroke="#140B2F" fill="#FFF" x="-.5" y="-.5" width="161" height="41" rx="4"/></g><g transform="translate(8 8)" opacity=".6" stroke="#24124D" stroke-linecap="round" stroke-linejoin="round" stroke-width="2"><path transform="translate(5.333 5.333)" d="M6.66666667 0L8.72666667 4.17333333 13.3333333 4.84666667 10 8.09333333 10.7866667 12.68 6.66666667 10.5133333 2.54666667 12.68 3.33333333 8.09333333 0 4.84666667 4.60666667 4.17333333z"/></g><rect fill="#512DA8" opacity=".2" x="40" y="16" width="104" height="8" rx="3"/></g><g transform="translate(8 152)"><use fill="#000" filter="url(#m)" xlink:href="#n"/><use fill="#FFF" xlink:href="#n"/><g stroke-linecap="square"><use fill="#000" filter="url(#o)" xlink:href="#p"/><rect stroke-opacity=".098" stroke="#140B2F" fill="#FFF" x="-.5" y="-.5" width="161" height="41" rx="4"/></g><g transform="translate(8 8)" opacity=".6" stroke="#24124D" stroke-linecap="round" stroke-linejoin="round" stroke-width="2"><path transform="translate(5.333 5.333)" d="M6.66666667 0L8.72666667 4.17333333 13.3333333 4.84666667 10 8.09333333 10.7866667 12.68 6.66666667 10.5133333 2.54666667 12.68 3.33333333 8.09333333 0 4.84666667 4.60666667 4.17333333z"/></g><rect fill="#512DA8" opacity=".2" x="40" y="16" width="80" height="8" rx="3"/></g><g transform="translate(8 200)"><use fill="#000" filter="url(#q)" xlink:href="#r"/><use fill="#FFF" xlink:href="#r"/><g stroke-linecap="square"><use fill="#000" filter="url(#s)" xlink:href="#t"/><rect stroke-opacity=".098" stroke="#140B2F" fill="#FFF" x="-.5" y="-.5" width="161" height="41" rx="4"/></g><g transform="translate(8 8)" opacity=".6" stroke="#24124D" stroke-linecap="round" stroke-linejoin="round" stroke-width="2"><path transform="translate(5.333 5.333)" d="M6.66666667 0L8.72666667 4.17333333 13.3333333 4.84666667 10 8.09333333 10.7866667 12.68 6.66666667 10.5133333 2.54666667 12.68 3.33333333 8.09333333 0 4.84666667 4.60666667 4.17333333z"/></g><rect fill="#512DA8" opacity=".2" x="40" y="16" width="64" height="8" rx="3"/></g></g><g transform="translate(208 16)"><rect fill="#F1EFF8" width="176" height="192" rx="4"/><g transform="translate(0 152)"><path d="M0 0h176v37a3 3 0 0 1-3 3H3a3 3 0 0 1-3-3V0z" fill="#512DA8" opacity=".04"/><path d="M50.502 24h-1.459v-8.455h1.312l4.149 5.748h.1v-5.748h1.453V24H54.75l-4.148-5.754h-.1V24zm10.184-5.385c-.868 0-1.477.621-1.541 1.559h3.017c-.03-.95-.603-1.559-1.476-1.559zm1.488 3.621h1.377c-.276 1.166-1.336 1.893-2.848 1.893-1.887 0-3.023-1.248-3.023-3.31 0-2.063 1.154-3.358 3.011-3.358 1.829 0 2.924 1.213 2.924 3.234v.47H59.14v.075c.035 1.067.65 1.735 1.605 1.735.72 0 1.219-.264 1.43-.739zm11.484-4.646L71.924 24h-1.53l-1.248-4.617h-.1L67.806 24h-1.512l-1.734-6.41h1.464l1.067 4.787h.1l1.23-4.787h1.389l1.242 4.787h.1l1.06-4.787h1.447zM78.141 24v-6.41h1.447V24H78.14zm.72-7.453c-.527 0-.896-.34-.896-.803s.369-.803.896-.803c.534 0 .897.34.897.803s-.363.803-.897.803zM81.387 24v-6.41h1.4v1.025h.1c.304-.715 1.054-1.154 2.015-1.154 1.43 0 2.233.861 2.233 2.39V24h-1.448v-3.803c0-.978-.445-1.47-1.324-1.47-.937 0-1.523.597-1.523 1.54V24h-1.453zm7.324-4.576c0-1.16 1.055-1.963 2.566-1.963 1.524 0 2.479.674 2.584 1.84h-1.365c-.105-.451-.533-.738-1.213-.738-.662 0-1.16.316-1.16.779 0 .363.305.586.95.732l1.13.258c1.225.275 1.793.803 1.793 1.746 0 1.23-1.13 2.05-2.73 2.05s-2.608-.69-2.72-1.857h1.436c.141.475.592.756 1.319.756.732 0 1.242-.322 1.242-.797 0-.363-.275-.591-.885-.726l-1.137-.264c-1.23-.281-1.81-.85-1.81-1.816zM95.484 24v-6.41h1.448V24h-1.448zm.721-7.453c-.527 0-.896-.34-.896-.803s.369-.803.896-.803c.533 0 .897.34.897.803s-.364.803-.897.803zm6.902 4.178c0-1.225-.615-2.004-1.623-2.004-1.013 0-1.588.779-1.588 2.004 0 1.224.575 1.998 1.588 1.998 1.014 0 1.623-.774 1.623-1.998zm-1.623 5.712c-1.646 0-2.724-.726-2.841-1.828h1.459c.093.44.609.721 1.406.721.996 0 1.576-.469 1.576-1.271v-1.213h-.1c-.369.685-1.066 1.06-1.957 1.06-1.617 0-2.625-1.254-2.625-3.181 0-1.963 1.014-3.24 2.649-3.24.873 0 1.635.433 1.986 1.13h.1V17.59h1.4v6.433c0 1.483-1.183 2.415-3.053 2.415zM106.377 24v-8.889h1.43v3.516h.105c.305-.72 1.06-1.154 2.016-1.154 1.435 0 2.267.867 2.267 2.39V24h-1.447v-3.791c0-.973-.469-1.47-1.36-1.47-.954 0-1.558.62-1.558 1.54V24h-1.453zm8.004-7.94h1.447v1.57h1.406v1.161h-1.406v3.146c0 .633.27.915.879.915.205 0 .31-.012.48-.03v1.137c-.205.041-.468.07-.75.07-1.47 0-2.056-.498-2.056-1.74v-3.498h-1.043v-1.16h1.043v-1.57z" fill="#24124D" opacity=".6"/><g transform="translate(23.333 15.333)" stroke="#7B7194" stroke-linecap="round" stroke-linejoin="round" stroke-width="2"><path d="M4.667 0v9.333M0 4.667h9.333"/></g></g><g transform="translate(8 104)"><use fill="#000" filter="url(#u)" xlink:href="#v"/><use fill="#FFF" xlink:href="#v"/><g stroke-linecap="square"><use fill="#000" filter="url(#w)" xlink:href="#x"/><rect stroke-opacity=".098" stroke="#140B2F" fill="#FFF" x="-.5" y="-.5" width="161" height="41" rx="4"/></g><g transform="translate(8 8)" opacity=".6" stroke="#24124D" stroke-linecap="round" stroke-linejoin="round" stroke-width="2"><path transform="translate(5.333 5.333)" d="M6.66666667 0L8.72666667 4.17333333 13.3333333 4.84666667 10 8.09333333 10.7866667 12.68 6.66666667 10.5133333 2.54666667 12.68 3.33333333 8.09333333 0 4.84666667 4.60666667 4.17333333z"/></g><rect fill="#512DA8" opacity=".2" x="40" y="16" width="64" height="8" rx="3"/></g><g transform="translate(8 56)"><use fill="#000" filter="url(#y)" xlink:href="#z"/><use fill="#FFF" xlink:href="#z"/><g stroke-linecap="square"><use fill="#000" filter="url(#A)" xlink:href="#B"/><rect stroke-opacity=".098" stroke="#140B2F" fill="#FFF" x="-.5" y="-.5" width="161" height="41" rx="4"/></g><g transform="translate(13 13)" opacity=".6" stroke="#24124D" stroke-linecap="round" stroke-linejoin="round" stroke-width="2"><path transform="translate(.333 .333)" d="M6.66666667 0L8.72666667 4.17333333 13.3333333 4.84666667 10 8.09333333 10.7866667 12.68 6.66666667 10.5133333 2.54666667 12.68 3.33333333 8.09333333 0 4.84666667 4.60666667 4.17333333z"/></g><rect fill="#512DA8" opacity=".2" x="40" y="16" width="104" height="8" rx="3"/></g><g transform="translate(8 8)"><use fill="#000" filter="url(#C)" xlink:href="#D"/><use fill="#FFF" xlink:href="#D"/><g stroke-linecap="square"><use fill="#000" filter="url(#E)" xlink:href="#F"/><rect stroke-opacity=".098" stroke="#140B2F" fill="#FFF" x="-.5" y="-.5" width="161" height="41" rx="4"/></g><g transform="translate(13 13)" opacity=".6" stroke="#24124D" stroke-linecap="round" stroke-linejoin="round" stroke-width="2"><path transform="translate(.333 .333)" d="M6.66666667 0L8.72666667 4.17333333 13.3333333 4.84666667 10 8.09333333 10.7866667 12.68 6.66666667 10.5133333 2.54666667 12.68 3.33333333 8.09333333 0 4.84666667 4.60666667 4.17333333z"/></g><rect fill="#512DA8" opacity=".2" x="40" y="16" width="64" height="8" rx="3"/></g></g></g></svg>