<svg width="400" height="320" viewBox="0 0 400 320" xmlns="http://www.w3.org/2000/svg"><title>illustration/notes</title><g fill="none" fill-rule="evenodd"><g transform="translate(16 36)"><g transform="translate(0 148)"><rect fill="#5182F8" width="368" height="48" rx="4"/><path d="M18.008 18.727v7.203c0 1.523.953 2.547 2.625 2.547 1.672 0 2.617-1.024 2.617-2.547v-7.203h2.016v7.39c0 2.461-1.782 4.164-4.633 4.164-2.852 0-4.633-1.703-4.633-4.164v-7.39h2.008zm9.664 5.171c0-1.546 1.406-2.617 3.422-2.617 2.031 0 3.304.899 3.445 2.453h-1.82c-.14-.601-.711-.984-1.617-.984-.883 0-1.547.422-1.547 1.04 0 .483.406.78 1.265.976l1.508.343c1.633.368 2.39 1.07 2.39 2.328 0 1.641-1.507 2.735-3.64 2.735s-3.476-.922-3.625-2.477h1.914c.188.633.79 1.008 1.758 1.008.977 0 1.656-.43 1.656-1.062 0-.485-.367-.79-1.18-.97l-1.515-.35c-1.64-.376-2.414-1.134-2.414-2.423zm12.594-1.078c-1.157 0-1.97.828-2.055 2.078h4.023c-.039-1.265-.804-2.078-1.968-2.078zm1.984 4.828h1.836c-.367 1.555-1.781 2.524-3.797 2.524-2.516 0-4.031-1.664-4.031-4.414s1.539-4.477 4.015-4.477c2.438 0 3.899 1.617 3.899 4.313v.625h-5.969v.101c.047 1.422.867 2.313 2.14 2.313.962 0 1.626-.352 1.907-.985zM46.117 30v-8.547h1.867v1.328h.133c.235-.843 1.149-1.468 2.242-1.468.274 0 .61.03.797.085v1.797c-.148-.054-.68-.11-.984-.11-1.242 0-2.117.782-2.117 1.977V30h-1.938zm11.446-10.586h1.93v2.094h1.874v1.547h-1.875v4.195c0 .844.36 1.219 1.172 1.219.273 0 .414-.016.64-.04v1.516a5.245 5.245 0 0 1-1 .094c-1.96 0-2.742-.664-2.742-2.32v-4.664h-1.39v-1.547h1.39v-2.094zm9.28 3.406c-1.156 0-1.968.828-2.054 2.078h4.023c-.039-1.265-.804-2.078-1.968-2.078zm1.985 4.828h1.836c-.367 1.555-1.781 2.524-3.797 2.524-2.515 0-4.031-1.664-4.031-4.414s1.539-4.477 4.016-4.477c2.437 0 3.898 1.617 3.898 4.313v.625h-5.969v.101c.047 1.422.867 2.313 2.14 2.313.962 0 1.626-.352 1.907-.985zm3.672-3.75c0-1.546 1.406-2.617 3.422-2.617 2.031 0 3.305.899 3.445 2.453h-1.82c-.14-.601-.711-.984-1.617-.984-.883 0-1.547.422-1.547 1.04 0 .483.406.78 1.265.976l1.508.343c1.633.368 2.39 1.07 2.39 2.328 0 1.641-1.507 2.735-3.64 2.735s-3.476-.922-3.625-2.477h1.914c.188.633.79 1.008 1.758 1.008.977 0 1.656-.43 1.656-1.062 0-.485-.367-.79-1.18-.97l-1.515-.35c-1.64-.376-2.414-1.134-2.414-2.423zm9.625-4.484h1.93v2.094h1.875v1.547h-1.875v4.195c0 .844.36 1.219 1.172 1.219.273 0 .414-.016.64-.04v1.516a5.245 5.245 0 0 1-1 .094c-1.96 0-2.742-.664-2.742-2.32v-4.664h-1.39v-1.547h1.39v-2.094zM87.844 30v-8.547h1.93V30h-1.93zm.96-9.938c-.702 0-1.195-.453-1.195-1.07s.493-1.07 1.196-1.07c.71 0 1.195.453 1.195 1.07s-.484 1.07-1.195 1.07zM92.173 30v-8.547h1.867v1.367h.133c.406-.953 1.406-1.539 2.687-1.539 1.907 0 2.977 1.149 2.977 3.188V30h-1.93v-5.07c0-1.305-.594-1.961-1.765-1.961-1.25 0-2.032.797-2.032 2.054V30h-1.937zm15.797-4.367c0-1.633-.82-2.672-2.164-2.672-1.352 0-2.118 1.039-2.118 2.672 0 1.633.766 2.664 2.118 2.664 1.351 0 2.164-1.031 2.164-2.664zm-2.164 7.617c-2.196 0-3.633-.969-3.79-2.438h1.946c.125.586.812.961 1.875.961 1.328 0 2.102-.625 2.102-1.695v-1.617h-.133c-.493.914-1.422 1.414-2.61 1.414-2.156 0-3.5-1.672-3.5-4.242 0-2.617 1.352-4.32 3.532-4.32 1.164 0 2.18.578 2.648 1.507h.133v-1.367h1.867v8.578c0 1.977-1.578 3.219-4.07 3.219zm10.515-9.352c0-1.546 1.407-2.617 3.422-2.617 2.031 0 3.305.899 3.445 2.453h-1.82c-.14-.601-.71-.984-1.617-.984-.883 0-1.547.422-1.547 1.04 0 .483.406.78 1.266.976l1.508.343c1.632.368 2.39 1.07 2.39 2.328 0 1.641-1.508 2.735-3.64 2.735-2.133 0-3.477-.922-3.625-2.477h1.914c.187.633.789 1.008 1.757 1.008.977 0 1.657-.43 1.657-1.062 0-.485-.368-.79-1.18-.97l-1.516-.35c-1.64-.376-2.414-1.134-2.414-2.423zm12.594-1.078c-1.156 0-1.969.828-2.055 2.078h4.024c-.04-1.265-.805-2.078-1.969-2.078zm1.984 4.828h1.836c-.367 1.555-1.78 2.524-3.797 2.524-2.515 0-4.03-1.664-4.03-4.414s1.538-4.477 4.015-4.477c2.437 0 3.898 1.617 3.898 4.313v.625h-5.968v.101c.046 1.422.867 2.313 2.14 2.313.961 0 1.625-.352 1.906-.985zm3.672-3.75c0-1.546 1.407-2.617 3.422-2.617 2.031 0 3.305.899 3.446 2.453h-1.82c-.141-.601-.712-.984-1.618-.984-.883 0-1.547.422-1.547 1.04 0 .483.406.78 1.266.976l1.508.343c1.632.368 2.39 1.07 2.39 2.328 0 1.641-1.508 2.735-3.64 2.735-2.133 0-3.477-.922-3.625-2.477h1.914c.187.633.789 1.008 1.757 1.008.977 0 1.657-.43 1.657-1.062 0-.485-.368-.79-1.18-.97l-1.516-.35c-1.64-.376-2.414-1.134-2.414-2.423zm8.813 0c0-1.546 1.406-2.617 3.422-2.617 2.03 0 3.304.899 3.445 2.453h-1.82c-.14-.601-.711-.984-1.618-.984-.882 0-1.546.422-1.546 1.04 0 .483.406.78 1.265.976l1.508.343c1.633.368 2.39 1.07 2.39 2.328 0 1.641-1.507 2.735-3.64 2.735s-3.476-.922-3.625-2.477h1.914c.188.633.79 1.008 1.758 1.008.976 0 1.656-.43 1.656-1.062 0-.485-.367-.79-1.18-.97l-1.515-.35c-1.64-.376-2.414-1.134-2.414-2.423zM152.414 30v-8.547h1.93V30h-1.93zm.961-9.938c-.703 0-1.195-.453-1.195-1.07s.492-1.07 1.195-1.07c.71 0 1.195.453 1.195 1.07s-.484 1.07-1.195 1.07zm7.055 8.485c1.351 0 2.117-1.031 2.117-2.82 0-1.782-.774-2.82-2.117-2.82-1.352 0-2.125 1.038-2.125 2.82 0 1.789.773 2.82 2.125 2.82zm0 1.625c-2.563 0-4.11-1.672-4.11-4.445 0-2.758 1.57-4.446 4.11-4.446 2.547 0 4.11 1.68 4.11 4.446 0 2.773-1.556 4.445-4.11 4.445zm6.062-.172v-8.547h1.867v1.367h.133c.406-.953 1.406-1.539 2.688-1.539 1.906 0 2.976 1.149 2.976 3.188V30h-1.93v-5.07c0-1.305-.593-1.961-1.765-1.961-1.25 0-2.031.797-2.031 2.054V30h-1.938zm9.766-6.102c0-1.546 1.406-2.617 3.422-2.617 2.03 0 3.304.899 3.445 2.453h-1.82c-.14-.601-.711-.984-1.618-.984-.882 0-1.546.422-1.546 1.04 0 .483.406.78 1.265.976l1.508.343c1.633.368 2.39 1.07 2.39 2.328 0 1.641-1.507 2.735-3.64 2.735s-3.476-.922-3.625-2.477h1.914c.188.633.79 1.008 1.758 1.008.976 0 1.656-.43 1.656-1.062 0-.485-.367-.79-1.18-.97l-1.515-.35c-1.64-.376-2.414-1.134-2.414-2.423z" fill="#FFF"/></g><g transform="translate(0 212)"><rect fill="#1EB8C1" width="368" height="48" rx="4"/><path d="M16 26.938h1.969c.125 1.007 1.125 1.656 2.554 1.656 1.329 0 2.29-.68 2.29-1.625 0-.813-.618-1.29-2.063-1.625l-1.46-.336c-2.048-.461-3.009-1.477-3.009-3.156 0-2.047 1.672-3.407 4.196-3.407 2.367 0 4.078 1.36 4.171 3.297h-1.93c-.14-.992-1.015-1.617-2.25-1.617-1.296 0-2.155.625-2.155 1.586 0 .758.57 1.203 1.968 1.523l1.297.297c2.29.516 3.25 1.469 3.25 3.188 0 2.195-1.695 3.562-4.43 3.562-2.585 0-4.296-1.297-4.398-3.343zm18.508-5.485V30H32.64v-1.36h-.133c-.414.977-1.383 1.532-2.649 1.532-1.882 0-3.047-1.164-3.047-3.188v-5.53h1.938v5.07c0 1.312.617 1.945 1.781 1.945 1.25 0 2.04-.774 2.04-2.04v-4.976h1.937zM36.883 30v-8.547h1.867v1.328h.133c.234-.843 1.148-1.468 2.242-1.468.273 0 .61.03.797.085v1.797c-.149-.054-.68-.11-.984-.11-1.243 0-2.118.782-2.118 1.977V30h-1.937zm5.82-8.547h2.078l1.977 6.61h.133l1.96-6.61h2.047L47.875 30h-2.133l-3.039-8.547zm13.414 1.367c-1.156 0-1.969.828-2.054 2.078h4.023c-.04-1.265-.805-2.078-1.969-2.078zm1.985 4.828h1.836c-.368 1.555-1.782 2.524-3.797 2.524-2.516 0-4.032-1.664-4.032-4.414s1.54-4.477 4.016-4.477c2.438 0 3.898 1.617 3.898 4.313v.625h-5.968v.101c.047 1.422.867 2.313 2.14 2.313.961 0 1.625-.352 1.907-.985zm4.804 5.461c-.117 0-.64-.007-.765-.03V31.5c.109.016.398.023.53.023.821 0 1.282-.32 1.532-1.109l.102-.375-3.055-8.586h2.125l2 6.672h.133l1.992-6.672h2.047l-3.086 8.82c-.727 2.125-1.64 2.836-3.555 2.836zM75.476 30v-8.547h1.868v1.328h.133c.234-.843 1.148-1.468 2.242-1.468.273 0 .61.03.797.085v1.797c-.149-.054-.68-.11-.985-.11-1.242 0-2.117.782-2.117 1.977V30h-1.937zm10.149-7.18c-1.156 0-1.969.828-2.055 2.078h4.024c-.04-1.265-.805-2.078-1.969-2.078zm1.984 4.828h1.836c-.367 1.555-1.78 2.524-3.797 2.524-2.515 0-4.03-1.664-4.03-4.414s1.538-4.477 4.015-4.477c2.437 0 3.898 1.617 3.898 4.313v.625h-5.969v.101c.047 1.422.868 2.313 2.141 2.313.961 0 1.625-.352 1.906-.985zm3.672-3.75c0-1.546 1.406-2.617 3.422-2.617 2.031 0 3.305.899 3.445 2.453h-1.82c-.14-.601-.71-.984-1.617-.984-.883 0-1.547.422-1.547 1.04 0 .483.406.78 1.266.976l1.507.343c1.633.368 2.391 1.07 2.391 2.328 0 1.641-1.508 2.735-3.64 2.735-2.133 0-3.477-.922-3.626-2.477h1.915c.187.633.789 1.008 1.757 1.008.977 0 1.657-.43 1.657-1.062 0-.485-.368-.79-1.18-.97l-1.516-.35c-1.64-.376-2.414-1.134-2.414-2.423zm13.664-2.585c2.164 0 3.524 1.671 3.524 4.414 0 2.726-1.344 4.414-3.5 4.414-1.227 0-2.172-.532-2.61-1.438h-.132v4.031h-1.938v-11.28h1.867v1.413h.133c.492-.969 1.484-1.555 2.656-1.555zm-.61 7.18c1.345 0 2.142-1.04 2.142-2.766 0-1.727-.805-2.766-2.133-2.766-1.32 0-2.149 1.062-2.156 2.766.007 1.71.828 2.765 2.148 2.765zm9.767.054c1.351 0 2.117-1.031 2.117-2.82 0-1.782-.774-2.82-2.117-2.82-1.352 0-2.125 1.038-2.125 2.82 0 1.789.773 2.82 2.125 2.82zm0 1.625c-2.563 0-4.11-1.672-4.11-4.445 0-2.758 1.57-4.446 4.11-4.446 2.546 0 4.109 1.68 4.109 4.446 0 2.773-1.555 4.445-4.11 4.445zm6.062-.172v-8.547h1.867v1.367h.133c.406-.953 1.406-1.539 2.688-1.539 1.906 0 2.976 1.149 2.976 3.188V30h-1.93v-5.07c0-1.305-.593-1.961-1.765-1.961-1.25 0-2.031.797-2.031 2.054V30h-1.938zm9.766-6.102c0-1.546 1.406-2.617 3.422-2.617 2.03 0 3.304.899 3.445 2.453h-1.82c-.141-.601-.711-.984-1.618-.984-.882 0-1.547.422-1.547 1.04 0 .483.407.78 1.266.976l1.508.343c1.633.368 2.39 1.07 2.39 2.328 0 1.641-1.507 2.735-3.64 2.735s-3.477-.922-3.625-2.477h1.914c.188.633.79 1.008 1.758 1.008.976 0 1.656-.43 1.656-1.062 0-.485-.367-.79-1.18-.97l-1.515-.35c-1.64-.376-2.414-1.134-2.414-2.423zm12.593-1.078c-1.156 0-1.968.828-2.054 2.078h4.023c-.039-1.265-.804-2.078-1.969-2.078zm1.985 4.828h1.836c-.367 1.555-1.781 2.524-3.797 2.524-2.516 0-4.031-1.664-4.031-4.414s1.539-4.477 4.015-4.477c2.438 0 3.899 1.617 3.899 4.313v.625h-5.97v.101c.048 1.422.868 2.313 2.142 2.313.96 0 1.625-.352 1.906-.985zm3.672-3.75c0-1.546 1.406-2.617 3.422-2.617 2.03 0 3.304.899 3.445 2.453h-1.82c-.141-.601-.711-.984-1.618-.984-.882 0-1.547.422-1.547 1.04 0 .483.407.78 1.266.976l1.508.343c1.633.368 2.39 1.07 2.39 2.328 0 1.641-1.507 2.735-3.64 2.735s-3.477-.922-3.625-2.477h1.914c.188.633.79 1.008 1.758 1.008.976 0 1.656-.43 1.656-1.062 0-.485-.367-.79-1.18-.97l-1.515-.35c-1.64-.376-2.414-1.134-2.414-2.423z" fill="#FFF"/></g><g transform="translate(0 84)"><rect fill="#512DA8" width="368" height="48" rx="4"/><path d="M21.18 30.281c-3.196 0-5.18-2.265-5.18-5.914 0-3.664 1.977-5.922 5.172-5.922 2.562 0 4.539 1.672 4.773 4.024h-1.984c-.281-1.352-1.367-2.227-2.79-2.227-1.913 0-3.108 1.578-3.108 4.117 0 2.547 1.195 4.125 3.117 4.125 1.43 0 2.515-.797 2.789-2.062h1.984c-.265 2.305-2.172 3.86-4.773 3.86zm14.422-8.828V30h-1.868v-1.36h-.132c-.414.977-1.383 1.532-2.649 1.532-1.883 0-3.047-1.164-3.047-3.188v-5.53h1.938v5.07c0 1.312.617 1.945 1.781 1.945 1.25 0 2.04-.774 2.04-2.04v-4.976h1.937zm2.18 2.445c0-1.546 1.406-2.617 3.421-2.617 2.031 0 3.305.899 3.445 2.453h-1.82c-.14-.601-.71-.984-1.617-.984-.883 0-1.547.422-1.547 1.04 0 .483.406.78 1.266.976l1.508.343c1.632.368 2.39 1.07 2.39 2.328 0 1.641-1.508 2.735-3.64 2.735-2.133 0-3.477-.922-3.626-2.477h1.915c.187.633.789 1.008 1.757 1.008.977 0 1.657-.43 1.657-1.062 0-.485-.368-.79-1.18-.97l-1.516-.35c-1.64-.376-2.414-1.134-2.414-2.423zm9.624-4.484h1.93v2.094h1.875v1.547h-1.875v4.195c0 .844.36 1.219 1.172 1.219.273 0 .414-.016.64-.04v1.516a5.245 5.245 0 0 1-1 .094c-1.96 0-2.742-.664-2.742-2.32v-4.664h-1.39v-1.547h1.39v-2.094zm9.383 9.133c1.352 0 2.117-1.031 2.117-2.82 0-1.782-.773-2.82-2.117-2.82-1.352 0-2.125 1.038-2.125 2.82 0 1.789.773 2.82 2.125 2.82zm0 1.625c-2.562 0-4.11-1.672-4.11-4.445 0-2.758 1.571-4.446 4.11-4.446 2.547 0 4.11 1.68 4.11 4.446 0 2.773-1.555 4.445-4.11 4.445zM62.852 30v-8.547h1.867v1.383h.133c.367-.977 1.242-1.555 2.375-1.555 1.18 0 2 .594 2.359 1.555h.133c.422-.938 1.406-1.555 2.594-1.555 1.71 0 2.742 1.07 2.742 2.844V30h-1.93v-5.383c0-1.101-.523-1.648-1.563-1.648-1.007 0-1.671.734-1.671 1.71V30h-1.883v-5.523c0-.938-.594-1.508-1.547-1.508-.961 0-1.672.789-1.672 1.836V30h-1.937zm18.086-7.18c-1.157 0-1.97.828-2.055 2.078h4.023c-.039-1.265-.804-2.078-1.969-2.078zm1.984 4.828h1.836c-.367 1.555-1.781 2.524-3.797 2.524-2.516 0-4.031-1.664-4.031-4.414s1.539-4.477 4.015-4.477c2.438 0 3.899 1.617 3.899 4.313v.625h-5.969v.101c.047 1.422.867 2.313 2.14 2.313.962 0 1.626-.352 1.907-.985zM86.789 30v-8.547h1.867v1.328h.133c.234-.843 1.148-1.468 2.242-1.468.274 0 .61.03.797.085v1.797c-.148-.054-.68-.11-.984-.11-1.242 0-2.117.782-2.117 1.977V30h-1.938zm10.852 0v-8.547h1.93V30h-1.93zm.96-9.938c-.703 0-1.195-.453-1.195-1.07s.492-1.07 1.196-1.07c.71 0 1.195.453 1.195 1.07s-.484 1.07-1.195 1.07zM101.97 30v-8.547h1.867v1.367h.133c.406-.953 1.406-1.539 2.687-1.539 1.906 0 2.977 1.149 2.977 3.188V30h-1.93v-5.07c0-1.305-.594-1.961-1.766-1.961-1.25 0-2.03.797-2.03 2.054V30h-1.938zm10.578-10.586h1.93v2.094h1.875v1.547h-1.875v4.195c0 .844.359 1.219 1.171 1.219.274 0 .415-.016.641-.04v1.516a5.245 5.245 0 0 1-1 .094c-1.96 0-2.742-.664-2.742-2.32v-4.664h-1.39v-1.547h1.39v-2.094zm9.281 3.406c-1.156 0-1.969.828-2.055 2.078h4.024c-.04-1.265-.805-2.078-1.969-2.078zm1.984 4.828h1.836c-.367 1.555-1.78 2.524-3.796 2.524-2.516 0-4.032-1.664-4.032-4.414s1.54-4.477 4.016-4.477c2.437 0 3.898 1.617 3.898 4.313v.625h-5.968v.101c.046 1.422.867 2.313 2.14 2.313.961 0 1.625-.352 1.906-.985zM127.68 30v-8.547h1.867v1.328h.133c.234-.843 1.148-1.468 2.242-1.468.273 0 .61.03.797.085v1.797c-.149-.054-.68-.11-.985-.11-1.242 0-2.117.782-2.117 1.977V30h-1.937zm5.82-8.547h2.078l1.977 6.61h.132l1.961-6.61h2.047L138.672 30h-2.133l-3.039-8.547zM143.352 30v-8.547h1.93V30h-1.93zm.96-9.938c-.703 0-1.195-.453-1.195-1.07s.492-1.07 1.196-1.07c.71 0 1.195.453 1.195 1.07s-.485 1.07-1.196 1.07zm6.954 2.758c-1.157 0-1.97.828-2.055 2.078h4.023c-.039-1.265-.804-2.078-1.968-2.078zm1.984 4.828h1.836c-.367 1.555-1.781 2.524-3.797 2.524-2.516 0-4.031-1.664-4.031-4.414s1.539-4.477 4.015-4.477c2.438 0 3.899 1.617 3.899 4.313v.625h-5.969v.101c.047 1.422.867 2.313 2.14 2.313.962 0 1.626-.352 1.907-.985zm15.313-6.195L166.25 30h-2.04l-1.663-6.156h-.133L160.758 30h-2.016l-2.312-8.547h1.953l1.422 6.383h.132l1.641-6.383h1.852l1.656 6.383h.133l1.414-6.383h1.93zM174.516 30v-8.547h1.867v1.367h.133c.406-.953 1.406-1.539 2.687-1.539 1.906 0 2.977 1.149 2.977 3.188V30h-1.93v-5.07c0-1.305-.594-1.961-1.766-1.961-1.25 0-2.03.797-2.03 2.054V30h-1.938zm13.648-1.453c1.352 0 2.117-1.031 2.117-2.82 0-1.782-.773-2.82-2.117-2.82-1.351 0-2.125 1.038-2.125 2.82 0 1.789.774 2.82 2.125 2.82zm0 1.625c-2.562 0-4.11-1.672-4.11-4.445 0-2.758 1.571-4.446 4.11-4.446 2.547 0 4.11 1.68 4.11 4.446 0 2.773-1.555 4.445-4.11 4.445zm6.68-10.758h1.93v2.094h1.874v1.547h-1.875v4.195c0 .844.36 1.219 1.172 1.219.274 0 .414-.016.64-.04v1.516a5.245 5.245 0 0 1-1 .094c-1.96 0-2.741-.664-2.741-2.32v-4.664h-1.39v-1.547h1.39v-2.094zm9.281 3.406c-1.156 0-1.969.828-2.055 2.078h4.024c-.04-1.265-.805-2.078-1.969-2.078zm1.984 4.828h1.836c-.367 1.555-1.78 2.524-3.797 2.524-2.515 0-4.03-1.664-4.03-4.414s1.538-4.477 4.015-4.477c2.437 0 3.898 1.617 3.898 4.313v.625h-5.969v.101c.047 1.422.868 2.313 2.141 2.313.961 0 1.625-.352 1.906-.985zm3.672-3.75c0-1.546 1.406-2.617 3.422-2.617 2.031 0 3.305.899 3.445 2.453h-1.82c-.14-.601-.71-.984-1.617-.984-.883 0-1.547.422-1.547 1.04 0 .483.406.78 1.266.976l1.507.343c1.633.368 2.391 1.07 2.391 2.328 0 1.641-1.508 2.735-3.64 2.735-2.133 0-3.477-.922-3.625-2.477h1.914c.187.633.789 1.008 1.757 1.008.977 0 1.657-.43 1.657-1.062 0-.485-.368-.79-1.18-.97l-1.516-.35c-1.64-.376-2.414-1.134-2.414-2.423z" fill="#FFF"/></g><path d="M13.344.445c3.273 0 5.32 2.274 5.32 5.914 0 3.633-2.031 5.922-5.32 5.922C10.03 12.281 8 10 8 6.36 8 2.72 10.07.445 13.344.445zm0 1.79c-2.008 0-3.281 1.6-3.281 4.124 0 2.516 1.242 4.133 3.28 4.133 2.009 0 3.259-1.617 3.259-4.133 0-2.523-1.258-4.125-3.258-4.125zm14.804 4.093h-1.843c-.18-.828-.82-1.422-1.883-1.422-1.328 0-2.117 1.024-2.117 2.797 0 1.797.797 2.844 2.117 2.844 1.008 0 1.68-.477 1.883-1.367h1.843c-.21 1.789-1.554 2.992-3.718 2.992-2.57 0-4.086-1.656-4.086-4.469 0-2.773 1.508-4.422 4.078-4.422 2.195 0 3.523 1.25 3.726 3.047zm2.47-4.914h1.929v2.094h1.875v1.547h-1.875V9.25c0 .844.36 1.219 1.172 1.219.273 0 .414-.016.64-.04v1.516a5.245 5.245 0 0 1-1 .094c-1.96 0-2.742-.664-2.742-2.32V5.055h-1.39V3.508h1.39V1.414zM40 10.547c1.352 0 2.117-1.031 2.117-2.82 0-1.782-.773-2.82-2.117-2.82-1.352 0-2.125 1.038-2.125 2.82 0 1.789.773 2.82 2.125 2.82zm0 1.625c-2.563 0-4.11-1.672-4.11-4.445 0-2.758 1.57-4.446 4.11-4.446 2.547 0 4.11 1.68 4.11 4.446 0 2.773-1.555 4.445-4.11 4.445zm10.813-.031c-1.196 0-2.188-.555-2.672-1.493h-.133V12H46.14V.148h1.937v4.665h.133c.445-.93 1.43-1.5 2.602-1.5 2.164 0 3.507 1.68 3.507 4.414 0 2.718-1.351 4.414-3.508 4.414zm-.61-7.18c-1.32 0-2.156 1.062-2.156 2.766 0 1.703.828 2.765 2.156 2.765 1.328 0 2.125-1.047 2.125-2.765 0-1.72-.805-2.766-2.125-2.766zm9.649-.14c-1.157 0-1.97.827-2.055 2.077h4.023c-.039-1.265-.804-2.078-1.968-2.078zm1.984 4.827h1.836c-.367 1.555-1.781 2.524-3.797 2.524-2.516 0-4.031-1.664-4.031-4.414s1.539-4.477 4.015-4.477c2.438 0 3.899 1.617 3.899 4.313v.625h-5.969v.101c.047 1.422.867 2.313 2.14 2.313.962 0 1.626-.352 1.907-.985zM65.703 12V3.453h1.867v1.328h.133c.234-.843 1.149-1.468 2.242-1.468.274 0 .61.03.797.085v1.797c-.148-.054-.68-.11-.984-.11-1.242 0-2.117.782-2.117 1.978V12h-1.938zm15.484-8.688c2.165 0 3.524 1.672 3.524 4.415 0 2.726-1.344 4.414-3.5 4.414-1.227 0-2.172-.532-2.61-1.438h-.132v4.031H76.53V3.454h1.867v1.413h.133c.492-.969 1.485-1.554 2.656-1.554zm-.609 7.18c1.344 0 2.14-1.039 2.14-2.765 0-1.727-.804-2.766-2.132-2.766-1.32 0-2.148 1.062-2.156 2.766.007 1.71.828 2.765 2.148 2.765zM86.656 12V3.453h1.867v1.328h.133c.235-.843 1.149-1.468 2.242-1.468.274 0 .61.03.797.085v1.797c-.148-.054-.68-.11-.984-.11-1.242 0-2.117.782-2.117 1.978V12h-1.938zm10.25-1.453c1.352 0 2.117-1.031 2.117-2.82 0-1.782-.773-2.82-2.117-2.82-1.351 0-2.125 1.038-2.125 2.82 0 1.789.774 2.82 2.125 2.82zm0 1.625c-2.562 0-4.11-1.672-4.11-4.445 0-2.758 1.571-4.446 4.11-4.446 2.547 0 4.11 1.68 4.11 4.446 0 2.773-1.555 4.445-4.11 4.445zm9.156-.031c-2.164 0-3.515-1.704-3.515-4.422 0-2.703 1.36-4.407 3.516-4.407 1.171 0 2.14.563 2.593 1.5h.133V.149h1.938V12h-1.875v-1.352h-.133c-.485.938-1.469 1.493-2.656 1.493zm.602-7.18c-1.32 0-2.133 1.047-2.133 2.766 0 1.726.805 2.765 2.133 2.765 1.336 0 2.148-1.047 2.148-2.765 0-1.704-.82-2.766-2.148-2.766zm14.125-1.508V12h-1.867v-1.36h-.133c-.414.977-1.383 1.532-2.648 1.532-1.883 0-3.047-1.164-3.047-3.188v-5.53h1.937v5.07c0 1.312.617 1.945 1.781 1.945 1.25 0 2.04-.774 2.04-2.04V3.454h1.937zm9.758 2.875h-1.844c-.18-.828-.82-1.422-1.883-1.422-1.328 0-2.117 1.024-2.117 2.797 0 1.797.797 2.844 2.117 2.844 1.008 0 1.68-.477 1.883-1.367h1.844c-.211 1.789-1.555 2.992-3.719 2.992-2.57 0-4.086-1.656-4.086-4.469 0-2.773 1.508-4.422 4.078-4.422 2.196 0 3.524 1.25 3.727 3.047zm2.469-4.914h1.93v2.094h1.874v1.547h-1.875V9.25c0 .844.36 1.219 1.172 1.219.274 0 .414-.016.64-.04v1.516a5.245 5.245 0 0 1-1 .094c-1.96 0-2.741-.664-2.741-2.32V5.055h-1.391V3.508h1.39V1.414zM142.976 12V3.453h1.868v1.328h.133c.234-.843 1.148-1.468 2.242-1.468.273 0 .61.03.797.085v1.797c-.149-.054-.68-.11-.985-.11-1.242 0-2.117.782-2.117 1.978V12h-1.937zm10.149-7.18c-1.156 0-1.969.828-2.055 2.078h4.024c-.04-1.265-.805-2.078-1.969-2.078zm1.984 4.828h1.836c-.367 1.555-1.78 2.524-3.797 2.524-2.515 0-4.03-1.664-4.03-4.414s1.538-4.477 4.015-4.477c2.437 0 3.898 1.617 3.898 4.313v.625h-5.969v.101c.047 1.422.868 2.313 2.141 2.313.961 0 1.625-.352 1.906-.985zm3.672-3.75c0-1.546 1.406-2.617 3.422-2.617 2.031 0 3.305.899 3.445 2.453h-1.82c-.14-.601-.71-.984-1.617-.984-.883 0-1.547.422-1.547 1.04 0 .483.406.78 1.266.976l1.507.343c1.633.368 2.391 1.07 2.391 2.329 0 1.64-1.508 2.734-3.64 2.734-2.133 0-3.477-.922-3.625-2.477h1.914c.187.633.789 1.008 1.757 1.008.977 0 1.657-.43 1.657-1.062 0-.485-.368-.79-1.18-.97l-1.516-.35c-1.64-.376-2.414-1.133-2.414-2.423zm12.594-1.078c-1.156 0-1.969.828-2.055 2.078h4.024c-.04-1.265-.805-2.078-1.969-2.078zm1.984 4.828h1.836c-.367 1.555-1.78 2.524-3.797 2.524-2.515 0-4.03-1.664-4.03-4.414s1.538-4.477 4.015-4.477c2.437 0 3.898 1.617 3.898 4.313v.625h-5.969v.101c.047 1.422.868 2.313 2.141 2.313.961 0 1.625-.352 1.906-.985zm6.79.97c1.171 0 2.046-.759 2.046-1.75v-.68l-1.93.124c-1.085.07-1.593.461-1.593 1.157 0 .719.617 1.148 1.476 1.148zm-.57 1.523c-1.65 0-2.829-1-2.829-2.563 0-1.547 1.164-2.437 3.242-2.562l2.203-.133v-.719c0-.836-.562-1.305-1.61-1.305-.89 0-1.5.313-1.679.891h-1.828c.156-1.508 1.57-2.469 3.602-2.469 2.195 0 3.43 1.07 3.43 2.883V12h-1.868v-1.172h-.133c-.476.828-1.414 1.313-2.53 1.313zm6.858-.141V3.453h1.868v1.328h.132c.235-.843 1.149-1.468 2.243-1.468.273 0 .61.03.797.085v1.797c-.149-.054-.68-.11-.985-.11-1.242 0-2.117.782-2.117 1.978V12h-1.938zm13.946-5.672h-1.844c-.18-.828-.82-1.422-1.883-1.422-1.328 0-2.117 1.024-2.117 2.797 0 1.797.797 2.844 2.117 2.844 1.008 0 1.68-.477 1.883-1.367h1.844c-.211 1.789-1.555 2.992-3.719 2.992-2.57 0-4.086-1.656-4.086-4.469 0-2.773 1.508-4.422 4.078-4.422 2.196 0 3.524 1.25 3.727 3.047zm1.93 5.672V.148h1.906v4.688h.14c.407-.961 1.414-1.54 2.688-1.54 1.914 0 3.023 1.157 3.023 3.188V12h-1.93V6.945c0-1.297-.624-1.96-1.812-1.96-1.273 0-2.078.827-2.078 2.054V12h-1.938z" fill="#24124D"/></g><g transform="translate(16 64)"><path fill="#FFF" style="mix-blend-mode:screen" d="M0 0H57V32H0z"/><path d="M11.096 20H9.394v-9.864h1.53l4.84 6.706h.117v-6.706h1.695V20h-1.524l-4.84-6.713h-.116V20zm11.97-1.271c1.182 0 1.852-.903 1.852-2.468 0-1.559-.677-2.468-1.853-2.468-1.182 0-1.859.91-1.859 2.468 0 1.565.677 2.468 1.86 2.468zm0 1.421c-2.243 0-3.596-1.462-3.596-3.89 0-2.412 1.374-3.889 3.595-3.889 2.229 0 3.596 1.47 3.596 3.89 0 2.427-1.36 3.89-3.596 3.89zm5.844-9.413H30.6v1.832h1.64v1.354H30.6v3.67c0 .739.314 1.067 1.025 1.067.24 0 .362-.014.56-.034v1.326a4.59 4.59 0 0 1-.874.082c-1.716 0-2.4-.58-2.4-2.03v-4.081h-1.217v-1.354h1.217v-1.832zm8.121 2.98c-1.011 0-1.722.725-1.798 1.82h3.52c-.033-1.108-.703-1.82-1.722-1.82zm1.737 4.225h1.606c-.321 1.36-1.559 2.208-3.322 2.208-2.201 0-3.528-1.456-3.528-3.862s1.347-3.917 3.514-3.917c2.133 0 3.411 1.415 3.411 3.774v.546h-5.222v.09c.04 1.243.758 2.023 1.873 2.023.84 0 1.421-.308 1.668-.862zm3.212-3.28c0-1.354 1.23-2.29 2.995-2.29 1.777 0 2.891.785 3.014 2.146h-1.593c-.123-.527-.622-.862-1.415-.862-.772 0-1.353.37-1.353.91 0 .423.355.683 1.107.854l1.32.3c1.428.322 2.091.937 2.091 2.038 0 1.435-1.319 2.392-3.185 2.392s-3.042-.806-3.172-2.167h1.675c.164.554.69.882 1.538.882.854 0 1.45-.376 1.45-.93 0-.423-.322-.69-1.033-.847l-1.326-.308c-1.436-.328-2.113-.99-2.113-2.119z" fill="#512DA8"/><g transform="translate(58)"><path fill="#FFF" style="mix-blend-mode:screen" d="M0 0H50V32H0z"/><path d="M13.57 20h-1.763v-8.34H8.77v-1.524h7.841v1.524H13.57V20zm7.267-1.21c1.025 0 1.79-.663 1.79-1.531v-.595l-1.688.11c-.95.061-1.394.403-1.394 1.011 0 .63.54 1.005 1.292 1.005zm-.5 1.333c-1.441 0-2.474-.875-2.474-2.242 0-1.354 1.019-2.133 2.837-2.242l1.928-.117v-.628c0-.732-.492-1.142-1.408-1.142-.78 0-1.313.273-1.47.78h-1.6c.137-1.32 1.374-2.16 3.152-2.16 1.92 0 3 .936 3 2.522V20H22.67v-1.025h-.116c-.417.724-1.238 1.148-2.215 1.148zm11.11-3.944c0-1.429-.718-2.338-1.894-2.338-1.183 0-1.853.909-1.853 2.338 0 1.428.67 2.33 1.853 2.33 1.182 0 1.893-.902 1.893-2.33zm-1.894 6.665c-1.921 0-3.179-.848-3.316-2.133h1.702c.11.513.711.84 1.641.84 1.162 0 1.839-.546 1.839-1.483v-1.415h-.116c-.43.8-1.244 1.238-2.283 1.238-1.887 0-3.063-1.463-3.063-3.712 0-2.29 1.183-3.78 3.09-3.78 1.018 0 1.907.505 2.317 1.319h.116V12.52h1.634v7.506c0 1.73-1.38 2.817-3.561 2.817zm5.468-8.183c0-1.353 1.231-2.29 2.995-2.29 1.777 0 2.891.786 3.014 2.147h-1.593c-.123-.527-.622-.862-1.415-.862-.772 0-1.353.37-1.353.91 0 .423.355.683 1.107.854l1.32.3c1.428.322 2.092.937 2.092 2.038 0 1.435-1.32 2.392-3.186 2.392-1.866 0-3.042-.806-3.172-2.167h1.675c.164.554.69.882 1.538.882.854 0 1.45-.376 1.45-.93 0-.423-.322-.69-1.033-.847l-1.326-.308c-1.436-.328-2.113-.99-2.113-2.119z" fill="#7B7194"/></g><g transform="translate(108)"><path fill="#FFF" style="mix-blend-mode:screen" d="M0 0H72V32H0z"/><path d="M11.288 20H9.524v-9.864h1.764V20zm2.256 0v-7.479h1.634v1.197h.116c.355-.834 1.23-1.347 2.352-1.347 1.667 0 2.604 1.005 2.604 2.79V20h-1.688v-4.437c0-1.141-.52-1.715-1.545-1.715-1.094 0-1.778.697-1.778 1.798V20h-1.695zm8.545-5.339c0-1.353 1.23-2.29 2.994-2.29 1.777 0 2.892.786 3.015 2.147h-1.593c-.123-.527-.622-.862-1.415-.862-.773 0-1.354.37-1.354.91 0 .423.356.683 1.108.854l1.32.3c1.428.322 2.09.937 2.09 2.038 0 1.435-1.318 2.392-3.185 2.392-1.866 0-3.042-.806-3.172-2.167h1.675c.164.554.69.882 1.538.882.855 0 1.45-.376 1.45-.93 0-.423-.322-.69-1.033-.847l-1.326-.308c-1.435-.328-2.112-.99-2.112-2.119zM29.99 20v-7.479h1.689V20H29.99zm.841-8.695c-.615 0-1.046-.397-1.046-.937s.43-.936 1.046-.936c.622 0 1.046.396 1.046.936s-.424.937-1.046.937zm8.053 4.874c0-1.429-.718-2.338-1.894-2.338-1.182 0-1.852.909-1.852 2.338 0 1.428.67 2.33 1.852 2.33 1.183 0 1.894-.902 1.894-2.33zm-1.894 6.665c-1.92 0-3.178-.848-3.315-2.133h1.702c.11.513.71.84 1.64.84 1.163 0 1.84-.546 1.84-1.483v-1.415h-.117c-.43.8-1.244 1.238-2.283 1.238-1.887 0-3.062-1.463-3.062-3.712 0-2.29 1.182-3.78 3.09-3.78 1.018 0 1.907.505 2.317 1.319h.116V12.52h1.634v7.506c0 1.73-1.381 2.817-3.562 2.817zM42.7 20V9.63h1.668v4.101h.123c.356-.84 1.238-1.346 2.352-1.346 1.675 0 2.645 1.011 2.645 2.789V20H47.8v-4.423c0-1.135-.547-1.716-1.586-1.716-1.114 0-1.818.725-1.818 1.798V20h-1.696zm9.338-9.263h1.689v1.832h1.64v1.354h-1.64v3.67c0 .739.314 1.067 1.025 1.067.24 0 .362-.014.56-.034v1.326a4.59 4.59 0 0 1-.874.082c-1.716 0-2.4-.58-2.4-2.03v-4.081H50.82v-1.354h1.217v-1.832zm4.813 3.924c0-1.353 1.23-2.29 2.994-2.29 1.777 0 2.891.786 3.014 2.147h-1.592c-.123-.527-.622-.862-1.415-.862-.773 0-1.354.37-1.354.91 0 .423.356.683 1.107.854l1.32.3c1.429.322 2.092.937 2.092 2.038 0 1.435-1.32 2.392-3.186 2.392-1.866 0-3.042-.806-3.172-2.167h1.675c.164.554.69.882 1.538.882.855 0 1.45-.376 1.45-.93 0-.423-.322-.69-1.033-.847l-1.326-.308c-1.436-.328-2.112-.99-2.112-2.119z" fill="#7B7194"/></g><g transform="translate(180)"><path fill="#FFF" style="mix-blend-mode:screen" d="M0 0H63V32H0z"/><path d="M13.757 20.246c-2.796 0-4.532-1.982-4.532-5.175 0-3.206 1.73-5.181 4.525-5.181 2.243 0 3.972 1.463 4.177 3.52h-1.736c-.246-1.182-1.196-1.948-2.44-1.948-1.675 0-2.721 1.38-2.721 3.602 0 2.229 1.046 3.61 2.727 3.61 1.251 0 2.201-.697 2.44-1.805h1.737c-.232 2.017-1.9 3.377-4.177 3.377zM19.78 20V9.63h1.668v4.101h.123c.355-.84 1.237-1.346 2.351-1.346 1.675 0 2.646 1.011 2.646 2.789V20h-1.689v-4.423c0-1.135-.546-1.716-1.586-1.716-1.114 0-1.818.725-1.818 1.798V20H19.78zm11.354-1.21c1.026 0 1.791-.663 1.791-1.531v-.595l-1.688.11c-.95.061-1.395.403-1.395 1.011 0 .63.54 1.005 1.292 1.005zm-.499 1.333c-1.442 0-2.474-.875-2.474-2.242 0-1.354 1.018-2.133 2.837-2.242l1.927-.117v-.628c0-.732-.492-1.142-1.408-1.142-.78 0-1.312.273-1.47.78h-1.6c.137-1.32 1.375-2.16 3.152-2.16 1.921 0 3.001.936 3.001 2.522V20h-1.634v-1.025h-.116c-.417.724-1.237 1.148-2.215 1.148zM36.637 20v-7.479h1.634v1.163h.116c.205-.739 1.005-1.286 1.962-1.286.24 0 .533.028.697.076v1.572c-.13-.048-.594-.096-.86-.096-1.088 0-1.853.684-1.853 1.73V20h-1.696zm6.282-9.263h1.689v1.832h1.64v1.354h-1.64v3.67c0 .739.314 1.067 1.025 1.067.24 0 .363-.014.56-.034v1.326a4.59 4.59 0 0 1-.874.082c-1.716 0-2.4-.58-2.4-2.03v-4.081h-1.216v-1.354h1.216v-1.832zm4.813 3.924c0-1.353 1.23-2.29 2.994-2.29 1.777 0 2.892.786 3.015 2.147h-1.593c-.123-.527-.622-.862-1.415-.862-.773 0-1.354.37-1.354.91 0 .423.356.683 1.108.854l1.32.3c1.428.322 2.09.937 2.09 2.038 0 1.435-1.318 2.392-3.185 2.392-1.866 0-3.042-.806-3.171-2.167h1.674c.164.554.69.882 1.538.882.855 0 1.45-.376 1.45-.93 0-.423-.322-.69-1.033-.847l-1.326-.308c-1.435-.328-2.112-.99-2.112-2.119z" fill="#7B7194"/></g></g></g></svg>