<svg width="400" height="320" viewBox="0 0 400 320" xmlns="http://www.w3.org/2000/svg" xmlns:xlink="http://www.w3.org/1999/xlink"><title>illustration/projects-feedback</title><defs><rect id="b" x="2" y="2" width="172" height="76" rx="4"/><filter x="-4.1%" y="-6.6%" width="108.1%" height="118.4%" filterUnits="objectBoundingBox" id="a"><feOffset dy="2" in="SourceAlpha" result="shadowOffsetOuter1"/><feGaussianBlur stdDeviation="2" in="shadowOffsetOuter1" result="shadowBlurOuter1"/><feColorMatrix values="0 0 0 0 0 0 0 0 0 0 0 0 0 0 0 0 0 0 0.2 0" in="shadowBlurOuter1"/></filter><rect id="d" width="176" height="80" rx="4"/><filter x="-2.6%" y="-4.4%" width="105.1%" height="111.2%" filterUnits="objectBoundingBox" id="c"><feMorphology radius="1" operator="dilate" in="SourceAlpha" result="shadowSpreadOuter1"/><feOffset dy="1" in="shadowSpreadOuter1" result="shadowOffsetOuter1"/><feGaussianBlur stdDeviation="1" in="shadowOffsetOuter1" result="shadowBlurOuter1"/><feComposite in="shadowBlurOuter1" in2="SourceAlpha" operator="out" result="shadowBlurOuter1"/><feColorMatrix values="0 0 0 0 0 0 0 0 0 0 0 0 0 0 0 0 0 0 0.04 0" in="shadowBlurOuter1"/></filter><circle id="e" cx="8" cy="8" r="8"/><rect id="h" x="2" y="2" width="172" height="76" rx="4"/><filter x="-4.1%" y="-6.6%" width="108.1%" height="118.4%" filterUnits="objectBoundingBox" id="g"><feOffset dy="2" in="SourceAlpha" result="shadowOffsetOuter1"/><feGaussianBlur stdDeviation="2" in="shadowOffsetOuter1" result="shadowBlurOuter1"/><feColorMatrix values="0 0 0 0 0 0 0 0 0 0 0 0 0 0 0 0 0 0 0.2 0" in="shadowBlurOuter1"/></filter><rect id="j" width="176" height="80" rx="4"/><filter x="-2.6%" y="-4.4%" width="105.1%" height="111.2%" filterUnits="objectBoundingBox" id="i"><feMorphology radius="1" operator="dilate" in="SourceAlpha" result="shadowSpreadOuter1"/><feOffset dy="1" in="shadowSpreadOuter1" result="shadowOffsetOuter1"/><feGaussianBlur stdDeviation="1" in="shadowOffsetOuter1" result="shadowBlurOuter1"/><feComposite in="shadowBlurOuter1" in2="SourceAlpha" operator="out" result="shadowBlurOuter1"/><feColorMatrix values="0 0 0 0 0 0 0 0 0 0 0 0 0 0 0 0 0 0 0.04 0" in="shadowBlurOuter1"/></filter><circle id="k" cx="8" cy="8" r="8"/><circle id="m" cx="8" cy="8" r="8"/><circle id="o" cx="8" cy="8" r="8"/><rect id="r" x="2" y="2" width="172" height="76" rx="4"/><filter x="-4.1%" y="-6.6%" width="108.1%" height="118.4%" filterUnits="objectBoundingBox" id="q"><feOffset dy="2" in="SourceAlpha" result="shadowOffsetOuter1"/><feGaussianBlur stdDeviation="2" in="shadowOffsetOuter1" result="shadowBlurOuter1"/><feColorMatrix values="0 0 0 0 0 0 0 0 0 0 0 0 0 0 0 0 0 0 0.2 0" in="shadowBlurOuter1"/></filter><rect id="t" width="176" height="80" rx="4"/><filter x="-2.6%" y="-4.4%" width="105.1%" height="111.2%" filterUnits="objectBoundingBox" id="s"><feMorphology radius="1" operator="dilate" in="SourceAlpha" result="shadowSpreadOuter1"/><feOffset dy="1" in="shadowSpreadOuter1" result="shadowOffsetOuter1"/><feGaussianBlur stdDeviation="1" in="shadowOffsetOuter1" result="shadowBlurOuter1"/><feComposite in="shadowBlurOuter1" in2="SourceAlpha" operator="out" result="shadowBlurOuter1"/><feColorMatrix values="0 0 0 0 0 0 0 0 0 0 0 0 0 0 0 0 0 0 0.04 0" in="shadowBlurOuter1"/></filter><circle id="u" cx="8" cy="8" r="8"/><circle id="w" cx="8" cy="8" r="8"/><rect id="z" x="2" y="2" width="172" height="76" rx="4"/><filter x="-4.1%" y="-6.6%" width="108.1%" height="118.4%" filterUnits="objectBoundingBox" id="y"><feOffset dy="2" in="SourceAlpha" result="shadowOffsetOuter1"/><feGaussianBlur stdDeviation="2" in="shadowOffsetOuter1" result="shadowBlurOuter1"/><feColorMatrix values="0 0 0 0 0 0 0 0 0 0 0 0 0 0 0 0 0 0 0.2 0" in="shadowBlurOuter1"/></filter><rect id="B" width="176" height="80" rx="4"/><filter x="-2.6%" y="-4.4%" width="105.1%" height="111.2%" filterUnits="objectBoundingBox" id="A"><feMorphology radius="1" operator="dilate" in="SourceAlpha" result="shadowSpreadOuter1"/><feOffset dy="1" in="shadowSpreadOuter1" result="shadowOffsetOuter1"/><feGaussianBlur stdDeviation="1" in="shadowOffsetOuter1" result="shadowBlurOuter1"/><feComposite in="shadowBlurOuter1" in2="SourceAlpha" operator="out" result="shadowBlurOuter1"/><feColorMatrix values="0 0 0 0 0 0 0 0 0 0 0 0 0 0 0 0 0 0 0.04 0" in="shadowBlurOuter1"/></filter><circle id="C" cx="8" cy="8" r="8"/><circle id="E" cx="8" cy="8" r="8"/></defs><g fill="none" fill-rule="evenodd"><g transform="translate(16 208)"><use fill="#000" filter="url(#a)" xlink:href="#b"/><use fill="#FFF" xlink:href="#b"/><g stroke-linecap="square"><use fill="#000" filter="url(#c)" xlink:href="#d"/><rect stroke-opacity=".098" stroke="#140B2F" fill="#FFF" x="-.5" y="-.5" width="177" height="81" rx="4"/></g><g transform="translate(16 48)"><mask id="f" fill="#fff"><use xlink:href="#e"/></mask><use fill="#E4E4F3" xlink:href="#e"/><g mask="url(#f)"><g transform="translate(3.333 2.667)"><path d="M6.814.82c.348.222.65.509.88.85.417.624.706 1.323.848 2.056.096.483.159.974.244 1.451l.055.53a.22.22 0 0 1-.09.205L6.668 7.333 4.667 5 2.654 7.701l-1.318-.817-.567-.342a.175.175 0 0 1-.071-.127A12.47 12.47 0 0 1 .7 4.61c.048-.64.17-1.271.365-1.882A4.259 4.259 0 0 1 1.98 1.12 3.075 3.075 0 0 1 3.782.124C4.244.049 4.73.03 5.195 0c.018 0 .035.005.05.014a.177.177 0 0 1 .058.048c.068.101.128.207.178.317a.24.24 0 0 0 .1.128c.044.022.094.03.143.026.382-.003.758.096 1.09.288z" fill="#7878AB" fill-rule="nonzero"/><path d="M9.333 13.333H0c0-.66 0-5.5 2.667-5.5 0 0 .873 2.167 1.839 2.167.965 0 2.16-2.167 2.16-2.167 1.778 0 2.667 1.834 2.667 5.5z" fill="#A5A5D8" fill-rule="nonzero"/><path d="M6.667 8c0 1.328-.667 2.333-2 2.333-1.313 0-1.97-1.035-2-2.333h4z" fill="#7878AB" fill-rule="nonzero"/><path d="M6 8.006c0 .955-.444 1.67-1.333 1.67-.876 0-1.314-.737-1.334-1.67v-1.34H6v1.34z" fill="#B6B6E9" fill-rule="nonzero"/><path d="M7 5.667l-.333 1.666H6v-1c.008-.007.34-.23 1-.666z" fill="#636396" fill-rule="nonzero"/><path d="M2.333 5.667c.203.32.977.967 1 .988v.678l-.666.334c-.231-1.234-.342-1.901-.334-2z" fill="#636396"/><path d="M5.667 2l.904.908.429.448c.02 0 .02.77 0 2.31-.222.667-.444 1.112-.667 1.334-.333.333-2.262.103-3 0-.374-.052-.819-.333-.91-1-.06-.444-.09-1-.09-1.667.544-.254 1.1-.58 1.667-.977.567-.398 1.123-.85 1.667-1.356z" fill="#C8C8F7" fill-rule="nonzero"/><path d="M4.162 4.38c.107.114.165.213.171.295a.307.307 0 0 1-.05.15.351.351 0 0 1-.28.175.328.328 0 0 1-.17-.046.346.346 0 0 1-.166-.274c-.001-.066.017-.13.051-.184a.32.32 0 0 1 .444-.117zm1.326-.014a.348.348 0 0 1 .179.284c0 .066-.017.13-.052.185A.32.32 0 0 1 5.343 5a.354.354 0 0 1-.178-.033A.333.333 0 0 1 5 4.69a.352.352 0 0 1 .31-.357c.04 0 .1.01.178.033z" fill="#7272A5" fill-rule="nonzero"/><path d="M3.333 7v.333c.667.334 1.223.5 1.667.5.444 0 .778-.11 1-.333v-.333H4.667C4.444 7.167 4 7.11 3.333 7z" fill="#9898CB"/></g></g></g><path d="M22.904 25.014L20.908 32h-1.66l-2.646-9.864h1.838l1.689 7.342h.102l1.942-7.342h1.565l1.969 7.342h.096l1.688-7.342h1.825L26.671 32h-1.654l-2.01-6.986h-.103zm11.19.704c-1.011 0-1.722.724-1.797 1.818h3.52c-.034-1.107-.704-1.818-1.722-1.818zm1.737 4.224h1.606c-.32 1.36-1.558 2.208-3.322 2.208-2.2 0-3.527-1.456-3.527-3.862s1.347-3.917 3.514-3.917c2.132 0 3.41 1.415 3.41 3.774v.546H32.29v.09c.041 1.243.759 2.023 1.873 2.023.84 0 1.422-.308 1.668-.862zm7.54 2.181c-1.046 0-1.914-.485-2.338-1.306h-.116V32h-1.634V21.63h1.696v4.08h.116c.39-.813 1.25-1.312 2.276-1.312 1.894 0 3.07 1.47 3.07 3.863 0 2.379-1.183 3.862-3.07 3.862zm-.533-6.282c-1.155 0-1.887.93-1.887 2.42 0 1.49.725 2.42 1.887 2.42s1.86-.916 1.86-2.42-.705-2.42-1.86-2.42zm5.134.82c0-1.353 1.23-2.29 2.994-2.29 1.777 0 2.891.786 3.014 2.147h-1.592c-.123-.527-.622-.862-1.415-.862-.773 0-1.354.37-1.354.91 0 .423.356.683 1.108.854l1.319.3c1.429.322 2.092.937 2.092 2.038 0 1.435-1.32 2.392-3.186 2.392-1.866 0-3.042-.806-3.172-2.167h1.675c.164.554.69.882 1.538.882.855 0 1.45-.376 1.45-.93 0-.423-.322-.69-1.033-.847l-1.326-.308c-1.436-.328-2.112-.99-2.112-2.119zM55.874 32v-7.479h1.688V32h-1.688zm.84-8.695c-.614 0-1.045-.397-1.045-.937s.43-.936 1.046-.936c.622 0 1.046.396 1.046.936s-.424.937-1.046.937zm3.487-.568h1.689v1.832h1.64v1.354h-1.64v3.67c0 .739.314 1.067 1.025 1.067.24 0 .362-.014.56-.034v1.326a4.59 4.59 0 0 1-.874.082c-1.716 0-2.4-.58-2.4-2.03v-4.081h-1.217v-1.354h1.217v-1.832zm8.121 2.98c-1.011 0-1.722.725-1.798 1.82h3.52c-.033-1.108-.703-1.82-1.722-1.82zm1.737 4.225h1.606c-.321 1.36-1.559 2.208-3.322 2.208-2.201 0-3.528-1.456-3.528-3.862s1.347-3.917 3.514-3.917c2.133 0 3.411 1.415 3.411 3.774v.546h-5.222v.09c.04 1.243.758 2.023 1.873 2.023.84 0 1.421-.308 1.668-.862zM77.715 32v-6.077h-1.217v-1.354h1.217v-.745c0-1.517.786-2.133 2.427-2.133.3 0 .594.028.895.076v1.264a3.334 3.334 0 0 0-.65-.054c-.662 0-1.011.287-1.011.957v.635h1.62v1.354h-1.593V32h-1.688zm8.073-6.282c-1.012 0-1.723.724-1.798 1.818h3.52c-.033-1.107-.703-1.818-1.722-1.818zm1.736 4.224h1.607c-.321 1.36-1.559 2.208-3.322 2.208-2.202 0-3.528-1.456-3.528-3.862s1.347-3.917 3.514-3.917c2.133 0 3.411 1.415 3.411 3.774v.546h-5.223v.09c.041 1.243.76 2.023 1.873 2.023.841 0 1.422-.308 1.668-.862zm6.522-4.224c-1.012 0-1.723.724-1.798 1.818h3.52c-.034-1.107-.704-1.818-1.722-1.818zm1.736 4.224h1.607c-.322 1.36-1.559 2.208-3.323 2.208-2.2 0-3.527-1.456-3.527-3.862s1.347-3.917 3.514-3.917c2.133 0 3.41 1.415 3.41 3.774v.546h-5.222v.09c.041 1.243.759 2.023 1.873 2.023.841 0 1.422-.308 1.668-.862zm6.091 2.181c-1.894 0-3.076-1.49-3.076-3.87 0-2.364 1.19-3.855 3.076-3.855 1.025 0 1.873.493 2.27 1.313h.116V21.63h1.695V32h-1.64v-1.183h-.117c-.424.82-1.285 1.306-2.324 1.306zm.526-6.282c-1.155 0-1.866.916-1.866 2.42 0 1.51.704 2.42 1.866 2.42 1.17 0 1.88-.916 1.88-2.42 0-1.49-.717-2.42-1.88-2.42zm9.851 6.282c-1.046 0-1.914-.485-2.338-1.306h-.116V32h-1.634V21.63h1.695v4.08h.117c.39-.813 1.25-1.312 2.276-1.312 1.894 0 3.07 1.47 3.07 3.863 0 2.379-1.183 3.862-3.07 3.862zm-.533-6.282c-1.155 0-1.887.93-1.887 2.42 0 1.49.725 2.42 1.887 2.42s1.86-.916 1.86-2.42-.705-2.42-1.86-2.42zm7.861 4.949c1.026 0 1.791-.663 1.791-1.531v-.595l-1.688.11c-.95.061-1.395.403-1.395 1.011 0 .63.54 1.005 1.292 1.005zm-.499 1.333c-1.442 0-2.475-.875-2.475-2.242 0-1.354 1.019-2.133 2.837-2.242l1.928-.117v-.628c0-.732-.492-1.142-1.408-1.142-.78 0-1.313.273-1.47.78h-1.6c.137-1.32 1.375-2.16 3.152-2.16 1.92 0 3 .936 3 2.522V32h-1.633v-1.025h-.116c-.417.724-1.237 1.148-2.215 1.148zm12.462-5.086h-1.613c-.157-.724-.718-1.244-1.648-1.244-1.162 0-1.852.895-1.852 2.447 0 1.573.697 2.489 1.852 2.489.882 0 1.47-.417 1.648-1.197h1.613c-.185 1.566-1.36 2.618-3.254 2.618-2.249 0-3.575-1.449-3.575-3.91 0-2.427 1.32-3.869 3.568-3.869 1.921 0 3.083 1.094 3.261 2.666zm3.5.533l2.762-3.049h1.968l-2.98 3.207L139.977 32h-2.051l-2.4-3.206-.601.602V32h-1.696V21.63h1.696v5.94h.116z" fill="#24124D"/></g><g transform="translate(208 112)"><use fill="#000" filter="url(#g)" xlink:href="#h"/><use fill="#FFF" xlink:href="#h"/><g stroke-linecap="square"><use fill="#000" filter="url(#i)" xlink:href="#j"/><rect stroke-opacity=".098" stroke="#140B2F" fill="#FFF" x="-.5" y="-.5" width="177" height="81" rx="4"/></g><g transform="translate(16 48)"><mask id="l" fill="#fff"><use xlink:href="#k"/></mask><use fill="#E4E4F3" xlink:href="#k"/><g mask="url(#l)"><g transform="translate(3.333 2.667)"><path d="M6.814.82c.348.222.65.509.88.85.417.624.706 1.323.848 2.056.096.483.159.974.244 1.451l.055.53a.22.22 0 0 1-.09.205L6.668 7.333 4.667 5 2.654 7.701l-1.318-.817-.567-.342a.175.175 0 0 1-.071-.127A12.47 12.47 0 0 1 .7 4.61c.048-.64.17-1.271.365-1.882A4.259 4.259 0 0 1 1.98 1.12 3.075 3.075 0 0 1 3.782.124C4.244.049 4.73.03 5.195 0c.018 0 .035.005.05.014a.177.177 0 0 1 .058.048c.068.101.128.207.178.317a.24.24 0 0 0 .1.128c.044.022.094.03.143.026.382-.003.758.096 1.09.288z" fill="#7878AB" fill-rule="nonzero"/><path d="M9.333 13.333H0c0-.66 0-5.5 2.667-5.5 0 0 .873 2.167 1.839 2.167.965 0 2.16-2.167 2.16-2.167 1.778 0 2.667 1.834 2.667 5.5z" fill="#A5A5D8" fill-rule="nonzero"/><path d="M6.667 8c0 1.328-.667 2.333-2 2.333-1.313 0-1.97-1.035-2-2.333h4z" fill="#7878AB" fill-rule="nonzero"/><path d="M6 8.006c0 .955-.444 1.67-1.333 1.67-.876 0-1.314-.737-1.334-1.67v-1.34H6v1.34z" fill="#B6B6E9" fill-rule="nonzero"/><path d="M7 5.667l-.333 1.666H6v-1c.008-.007.34-.23 1-.666z" fill="#636396" fill-rule="nonzero"/><path d="M2.333 5.667c.203.32.977.967 1 .988v.678l-.666.334c-.231-1.234-.342-1.901-.334-2z" fill="#636396"/><path d="M5.667 2l.904.908.429.448c.02 0 .02.77 0 2.31-.222.667-.444 1.112-.667 1.334-.333.333-2.262.103-3 0-.374-.052-.819-.333-.91-1-.06-.444-.09-1-.09-1.667.544-.254 1.1-.58 1.667-.977.567-.398 1.123-.85 1.667-1.356z" fill="#C8C8F7" fill-rule="nonzero"/><path d="M4.162 4.38c.107.114.165.213.171.295a.307.307 0 0 1-.05.15.351.351 0 0 1-.28.175.328.328 0 0 1-.17-.046.346.346 0 0 1-.166-.274c-.001-.066.017-.13.051-.184a.32.32 0 0 1 .444-.117zm1.326-.014a.348.348 0 0 1 .179.284c0 .066-.017.13-.052.185A.32.32 0 0 1 5.343 5a.354.354 0 0 1-.178-.033A.333.333 0 0 1 5 4.69a.352.352 0 0 1 .31-.357c.04 0 .1.01.178.033z" fill="#7272A5" fill-rule="nonzero"/><path d="M3.333 7v.333c.667.334 1.223.5 1.667.5.444 0 .778-.11 1-.333v-.333H4.667C4.444 7.167 4 7.11 3.333 7z" fill="#9898CB"/></g></g></g><g transform="translate(36 48)"><mask id="n" fill="#fff"><use xlink:href="#m"/></mask><use fill="#E4E4F3" xlink:href="#m"/><g mask="url(#n)"><g transform="translate(2.667 3)"><path d="M7.833.667c.348.221 0 2.333.167 3 .138.552-.75-.003-2.667-1.667-.995.567-1.662.9-2 1-1.259.37-1.092-.71-1-1 .184-.597-.085-.87.334-1.333C3.133.139 3.749.24 4.448.124 4.91.049 5.397.03 5.862 0c.017 0 .034.005.05.014a.177.177 0 0 1 .058.048c.068.101.127.207.178.317a.24.24 0 0 0 .1.128c.044.022.094.03.143.026C6.772.53 7.5.475 7.833.667z" fill="#7E7EB1" fill-rule="nonzero"/><path d="M10.667 13H0c0-.66.333-5.5 3-5.5 0 0 1.368 2.167 2.333 2.167.966 0 2.334-2.167 2.334-2.167 1.777 0 2.777 1.833 3 5.5z" fill="#A5A5D8" fill-rule="nonzero"/><path d="M7.667 7.667c0 1.11-.778 2.222-2.334 3.333C3.778 9.889 3 8.778 3 7.667h4.667z" fill="#7878AB" fill-rule="nonzero"/><path d="M6.667 7.34c0 .954-.445 1.67-1.334 1.67-.875 0-1.313-.738-1.333-1.67V6h2.667v1.34z" fill="#B6B6E9" fill-rule="nonzero"/><path d="M5 1.833c.798-.145 1.667 0 2 .167.333.167.333.667.333.667v2.666C7 6 7 6.333 6.667 6.667 6.333 7 4.333 7 4 6.667c-.333-.334-.333-.667-.667-1.334V2.667c0-.334.869-.689 1.667-.834z" fill="#C8C8F7" fill-rule="nonzero"/><path d="M4 6.667v.5c.667.333 1.222.5 1.667.5.444 0 .777-.111 1-.334v-.666c-.556.11-1 .166-1.334.166-.222 0-.666-.055-1.333-.166z" fill="#9898CB"/><path d="M4.829 3.713c.107.115.164.213.171.295a.307.307 0 0 1-.05.15.351.351 0 0 1-.28.175.328.328 0 0 1-.171-.046.346.346 0 0 1-.166-.274c0-.065.017-.13.052-.184a.32.32 0 0 1 .444-.116zM6.155 3.7a.348.348 0 0 1 .178.284c.001.065-.017.13-.051.185a.32.32 0 0 1-.272.163.354.354 0 0 1-.178-.033.333.333 0 0 1-.165-.276.352.352 0 0 1 .31-.356c.04-.001.099.01.178.033z" fill="#7272A5" fill-rule="nonzero"/><path d="M3.333 4.333c-.11 1-.055 1.667.167 2 .333.5 1.167.834 1.833.834.667 0 1.5-.334 1.834-.834.222-.333.277-1 .166-2-.444.89-.889 1.334-1.333 1.334H4.667c-.445 0-.89-.445-1.334-1.334z" fill="#B4B4E5"/></g></g></g><g transform="translate(56 48)"><mask id="p" fill="#fff"><use xlink:href="#o"/></mask><use fill="#E4E4F3" xlink:href="#o"/><g mask="url(#p)" fill-rule="nonzero"><path d="M12.667 16H3.333c0-.66 0-5.5 2.667-5.5 0 0 .874 2.167 1.84 2.167.965 0 2.16-2.167 2.16-2.167 1.778 0 2.667 1.833 2.667 5.5z" fill="#A5A5D8"/><path d="M10 10.667C10 11.995 9.333 13 8 13c-1.313 0-1.97-1.036-2-2.333h4z" fill="#7878AB"/></g><path d="M10.333 7.667C7.89 7 6.444 6.556 6 6.333c-.667-.666-.667-2-.167-3 .382-.763 2.834-1.333 4.5 0 1.111.89 1.111 2.334 0 4.334z" fill="#7E7EB1" fill-rule="nonzero" mask="url(#p)"/><path d="M9.333 10.34c0 .954-.444 1.67-1.333 1.67-.875 0-1.313-.738-1.333-1.67V9h2.666v1.34z" fill="#B6B6E9" fill-rule="nonzero" mask="url(#p)"/><path d="M7.333 4.667c1 0 1.89.444 2.667 1.333.667 1 .36 1.404.167 2.333-.194.93-.5 1-.834 1.334-.168.168-.666.5-1.333.5-.667 0-1.168-.335-1.333-.5C6.333 9.333 6.09 9 6 8.333c-.09-.666 0-2 0-2 .889 0 1.333-.555 1.333-1.666z" fill="#C8C8F7" fill-rule="nonzero" mask="url(#p)"/><path d="M7.495 6.713c.108.115.165.213.172.295a.307.307 0 0 1-.05.15.351.351 0 0 1-.28.175.328.328 0 0 1-.171-.046A.346.346 0 0 1 7 7.013c0-.065.017-.13.052-.184a.32.32 0 0 1 .443-.116zM8.821 6.7A.348.348 0 0 1 9 6.984c0 .065-.017.13-.051.185a.32.32 0 0 1-.272.163.354.354 0 0 1-.179-.033.333.333 0 0 1-.165-.276.352.352 0 0 1 .31-.356c.04-.001.1.01.178.033z" fill="#7272A5" fill-rule="nonzero" mask="url(#p)"/><path d="M6.667 9.667V10c.666.444 1.222.667 1.666.667.445 0 .778-.223 1-.667v-.333C9 9.889 8.556 10 8 10c-.556 0-1-.111-1.333-.333z" fill="#9898CB" mask="url(#p)"/></g><path d="M16.766 29.32h1.722c.11.882.985 1.45 2.236 1.45 1.162 0 2.003-.595 2.003-1.422 0-.711-.54-1.128-1.805-1.422l-1.278-.294c-1.791-.403-2.632-1.292-2.632-2.762 0-1.79 1.463-2.98 3.67-2.98 2.072 0 3.569 1.19 3.651 2.884h-1.688c-.124-.868-.89-1.415-1.97-1.415-1.134 0-1.886.547-1.886 1.388 0 .663.5 1.053 1.723 1.333l1.134.26c2.003.451 2.844 1.285 2.844 2.789 0 1.92-1.483 3.117-3.876 3.117-2.262 0-3.76-1.135-3.848-2.926zm16.194-4.799V32h-1.634v-1.19h-.116c-.362.855-1.21 1.34-2.317 1.34-1.648 0-2.666-1.018-2.666-2.789v-4.84h1.695v4.437c0 1.148.54 1.702 1.558 1.702 1.094 0 1.785-.677 1.785-1.784v-4.355h1.695zm6.152-.123c1.894 0 3.083 1.463 3.083 3.863 0 2.385-1.175 3.862-3.062 3.862-1.073 0-1.9-.465-2.283-1.258h-.117v3.528h-1.695V24.52h1.634v1.238h.116c.43-.848 1.299-1.36 2.324-1.36zm-.533 6.283c1.176 0 1.873-.91 1.873-2.42 0-1.511-.704-2.42-1.866-2.42-1.155 0-1.88.93-1.887 2.42.007 1.497.725 2.42 1.88 2.42zm9.393-6.283c1.893 0 3.083 1.463 3.083 3.863 0 2.385-1.176 3.862-3.063 3.862-1.073 0-1.9-.465-2.283-1.258h-.116v3.528h-1.696V24.52h1.634v1.238h.116c.431-.848 1.3-1.36 2.325-1.36zm-.534 6.283c1.176 0 1.874-.91 1.874-2.42 0-1.511-.705-2.42-1.867-2.42-1.155 0-1.88.93-1.886 2.42.006 1.497.724 2.42 1.88 2.42zm8.545.048c1.183 0 1.853-.903 1.853-2.468 0-1.559-.677-2.468-1.853-2.468-1.182 0-1.859.91-1.859 2.468 0 1.565.677 2.468 1.86 2.468zm0 1.421c-2.242 0-3.595-1.462-3.595-3.89 0-2.412 1.374-3.889 3.595-3.889 2.229 0 3.596 1.47 3.596 3.89 0 2.427-1.36 3.89-3.596 3.89zm5.305-.15v-7.479h1.634v1.163h.116c.205-.739 1.005-1.286 1.962-1.286.24 0 .533.028.697.076v1.572c-.13-.048-.594-.096-.861-.096-1.087 0-1.853.684-1.853 1.73V32h-1.695zm6.282-9.263h1.689v1.832h1.64v1.354h-1.64v3.67c0 .739.314 1.067 1.025 1.067.24 0 .362-.014.56-.034v1.326a4.59 4.59 0 0 1-.874.082c-1.716 0-2.4-.58-2.4-2.03v-4.081h-1.216v-1.354h1.216v-1.832zm9.256 0h1.689v1.832h1.64v1.354h-1.64v3.67c0 .739.314 1.067 1.025 1.067.24 0 .362-.014.56-.034v1.326a4.59 4.59 0 0 1-.874.082c-1.716 0-2.4-.58-2.4-2.03v-4.081H75.61v-1.354h1.217v-1.832zM81.83 32v-7.479h1.689V32H81.83zm.84-8.695c-.614 0-1.045-.397-1.045-.937s.43-.936 1.046-.936c.622 0 1.046.396 1.046.936s-.424.937-1.046.937zm9.407 3.732h-1.613c-.157-.724-.718-1.244-1.648-1.244-1.162 0-1.852.895-1.852 2.447 0 1.573.697 2.489 1.852 2.489.882 0 1.47-.417 1.648-1.197h1.613c-.184 1.566-1.36 2.618-3.254 2.618-2.249 0-3.575-1.449-3.575-3.91 0-2.427 1.32-3.869 3.568-3.869 1.921 0 3.083 1.094 3.261 2.666zm3.5.533l2.762-3.049h1.969l-2.98 3.207L100.512 32h-2.051l-2.4-3.206-.601.602V32h-1.695V21.63h1.695v5.94h.116zm9.38-1.852c-1.013 0-1.724.724-1.799 1.818h3.52c-.033-1.107-.703-1.818-1.722-1.818zm1.735 4.224h1.607c-.321 1.36-1.559 2.208-3.322 2.208-2.202 0-3.528-1.456-3.528-3.862s1.347-3.917 3.514-3.917c2.133 0 3.411 1.415 3.411 3.774v.546h-5.223v.09c.041 1.243.76 2.023 1.873 2.023.841 0 1.422-.308 1.668-.862zm3.924-7.205h1.689v1.832h1.64v1.354h-1.64v3.67c0 .739.314 1.067 1.025 1.067.24 0 .362-.014.56-.034v1.326a4.59 4.59 0 0 1-.874.082c-1.716 0-2.4-.58-2.4-2.03v-4.081H109.4v-1.354h1.217v-1.832zm4.813 3.924c0-1.353 1.23-2.29 2.994-2.29 1.777 0 2.891.786 3.014 2.147h-1.592c-.123-.527-.622-.862-1.415-.862-.773 0-1.354.37-1.354.91 0 .423.356.683 1.108.854l1.319.3c1.429.322 2.092.937 2.092 2.038 0 1.435-1.32 2.392-3.186 2.392-1.866 0-3.042-.806-3.172-2.167h1.675c.164.554.69.882 1.538.882.855 0 1.45-.376 1.45-.93 0-.423-.322-.69-1.033-.847l-1.326-.308c-1.436-.328-2.112-.99-2.112-2.119z" fill="#24124D"/></g><g transform="translate(16 112)"><use fill="#000" filter="url(#q)" xlink:href="#r"/><use fill="#FFF" xlink:href="#r"/><g stroke-linecap="square"><use fill="#000" filter="url(#s)" xlink:href="#t"/><rect stroke-opacity=".098" stroke="#140B2F" fill="#FFF" x="-.5" y="-.5" width="177" height="81" rx="4"/></g><g transform="translate(16 48)"><mask id="v" fill="#fff"><use xlink:href="#u"/></mask><use fill="#E4E4F3" xlink:href="#u"/><g mask="url(#v)"><g transform="translate(3.333 2.667)"><path d="M6.814.82c.348.222.65.509.88.85.417.624.706 1.323.848 2.056.096.483.159.974.244 1.451l.055.53a.22.22 0 0 1-.09.205L6.668 7.333 4.667 5 2.654 7.701l-1.318-.817-.567-.342a.175.175 0 0 1-.071-.127A12.47 12.47 0 0 1 .7 4.61c.048-.64.17-1.271.365-1.882A4.259 4.259 0 0 1 1.98 1.12 3.075 3.075 0 0 1 3.782.124C4.244.049 4.73.03 5.195 0c.018 0 .035.005.05.014a.177.177 0 0 1 .058.048c.068.101.128.207.178.317a.24.24 0 0 0 .1.128c.044.022.094.03.143.026.382-.003.758.096 1.09.288z" fill="#7878AB" fill-rule="nonzero"/><path d="M9.333 13.333H0c0-.66 0-5.5 2.667-5.5 0 0 .873 2.167 1.839 2.167.965 0 2.16-2.167 2.16-2.167 1.778 0 2.667 1.834 2.667 5.5z" fill="#A5A5D8" fill-rule="nonzero"/><path d="M6.667 8c0 1.328-.667 2.333-2 2.333-1.313 0-1.97-1.035-2-2.333h4z" fill="#7878AB" fill-rule="nonzero"/><path d="M6 8.006c0 .955-.444 1.67-1.333 1.67-.876 0-1.314-.737-1.334-1.67v-1.34H6v1.34z" fill="#B6B6E9" fill-rule="nonzero"/><path d="M7 5.667l-.333 1.666H6v-1c.008-.007.34-.23 1-.666z" fill="#636396" fill-rule="nonzero"/><path d="M2.333 5.667c.203.32.977.967 1 .988v.678l-.666.334c-.231-1.234-.342-1.901-.334-2z" fill="#636396"/><path d="M5.667 2l.904.908.429.448c.02 0 .02.77 0 2.31-.222.667-.444 1.112-.667 1.334-.333.333-2.262.103-3 0-.374-.052-.819-.333-.91-1-.06-.444-.09-1-.09-1.667.544-.254 1.1-.58 1.667-.977.567-.398 1.123-.85 1.667-1.356z" fill="#C8C8F7" fill-rule="nonzero"/><path d="M4.162 4.38c.107.114.165.213.171.295a.307.307 0 0 1-.05.15.351.351 0 0 1-.28.175.328.328 0 0 1-.17-.046.346.346 0 0 1-.166-.274c-.001-.066.017-.13.051-.184a.32.32 0 0 1 .444-.117zm1.326-.014a.348.348 0 0 1 .179.284c0 .066-.017.13-.052.185A.32.32 0 0 1 5.343 5a.354.354 0 0 1-.178-.033A.333.333 0 0 1 5 4.69a.352.352 0 0 1 .31-.357c.04 0 .1.01.178.033z" fill="#7272A5" fill-rule="nonzero"/><path d="M3.333 7v.333c.667.334 1.223.5 1.667.5.444 0 .778-.11 1-.333v-.333H4.667C4.444 7.167 4 7.11 3.333 7z" fill="#9898CB"/></g></g></g><g transform="translate(36 48)"><mask id="x" fill="#fff"><use xlink:href="#w"/></mask><use fill="#E4E4F3" xlink:href="#w"/><g mask="url(#x)"><g transform="translate(2.667 3)"><path d="M7.833.667c.348.221 0 2.333.167 3 .138.552-.75-.003-2.667-1.667-.995.567-1.662.9-2 1-1.259.37-1.092-.71-1-1 .184-.597-.085-.87.334-1.333C3.133.139 3.749.24 4.448.124 4.91.049 5.397.03 5.862 0c.017 0 .034.005.05.014a.177.177 0 0 1 .058.048c.068.101.127.207.178.317a.24.24 0 0 0 .1.128c.044.022.094.03.143.026C6.772.53 7.5.475 7.833.667z" fill="#7E7EB1" fill-rule="nonzero"/><path d="M10.667 13H0c0-.66.333-5.5 3-5.5 0 0 1.368 2.167 2.333 2.167.966 0 2.334-2.167 2.334-2.167 1.777 0 2.777 1.833 3 5.5z" fill="#A5A5D8" fill-rule="nonzero"/><path d="M7.667 7.667c0 1.11-.778 2.222-2.334 3.333C3.778 9.889 3 8.778 3 7.667h4.667z" fill="#7878AB" fill-rule="nonzero"/><path d="M6.667 7.34c0 .954-.445 1.67-1.334 1.67-.875 0-1.313-.738-1.333-1.67V6h2.667v1.34z" fill="#B6B6E9" fill-rule="nonzero"/><path d="M5 1.833c.798-.145 1.667 0 2 .167.333.167.333.667.333.667v2.666C7 6 7 6.333 6.667 6.667 6.333 7 4.333 7 4 6.667c-.333-.334-.333-.667-.667-1.334V2.667c0-.334.869-.689 1.667-.834z" fill="#C8C8F7" fill-rule="nonzero"/><path d="M4 6.667v.5c.667.333 1.222.5 1.667.5.444 0 .777-.111 1-.334v-.666c-.556.11-1 .166-1.334.166-.222 0-.666-.055-1.333-.166z" fill="#9898CB"/><path d="M4.829 3.713c.107.115.164.213.171.295a.307.307 0 0 1-.05.15.351.351 0 0 1-.28.175.328.328 0 0 1-.171-.046.346.346 0 0 1-.166-.274c0-.065.017-.13.052-.184a.32.32 0 0 1 .444-.116zM6.155 3.7a.348.348 0 0 1 .178.284c.001.065-.017.13-.051.185a.32.32 0 0 1-.272.163.354.354 0 0 1-.178-.033.333.333 0 0 1-.165-.276.352.352 0 0 1 .31-.356c.04-.001.099.01.178.033z" fill="#7272A5" fill-rule="nonzero"/><path d="M3.333 4.333c-.11 1-.055 1.667.167 2 .333.5 1.167.834 1.833.834.667 0 1.5-.334 1.834-.834.222-.333.277-1 .166-2-.444.89-.889 1.334-1.333 1.334H4.667c-.445 0-.89-.445-1.334-1.334z" fill="#B4B4E5"/></g></g></g><path d="M16.766 29.32h1.722c.11.882.985 1.45 2.236 1.45 1.162 0 2.003-.595 2.003-1.422 0-.711-.54-1.128-1.805-1.422l-1.278-.294c-1.791-.403-2.632-1.292-2.632-2.762 0-1.79 1.463-2.98 3.67-2.98 2.072 0 3.569 1.19 3.651 2.884h-1.688c-.124-.868-.89-1.415-1.97-1.415-1.134 0-1.886.547-1.886 1.388 0 .663.5 1.053 1.723 1.333l1.134.26c2.003.451 2.844 1.285 2.844 2.789 0 1.92-1.483 3.117-3.876 3.117-2.262 0-3.76-1.135-3.848-2.926zm12.086 1.47c1.025 0 1.79-.663 1.79-1.531v-.595l-1.688.11c-.95.061-1.394.403-1.394 1.011 0 .63.54 1.005 1.292 1.005zm-.5 1.333c-1.442 0-2.474-.875-2.474-2.242 0-1.354 1.018-2.133 2.837-2.242l1.928-.117v-.628c0-.732-.493-1.142-1.409-1.142-.779 0-1.312.273-1.47.78h-1.599c.137-1.32 1.374-2.16 3.151-2.16 1.921 0 3.001.936 3.001 2.522V32h-1.633v-1.025h-.117c-.417.724-1.237 1.148-2.214 1.148zm6.07-.123V21.63h1.696V32h-1.695zm6.974-6.282c-1.012 0-1.723.724-1.798 1.818h3.52c-.034-1.107-.704-1.818-1.722-1.818zm1.736 4.224h1.606c-.321 1.36-1.558 2.208-3.322 2.208-2.201 0-3.527-1.456-3.527-3.862s1.346-3.917 3.513-3.917c2.133 0 3.411 1.415 3.411 3.774v.546h-5.222v.09c.04 1.243.759 2.023 1.873 2.023.84 0 1.422-.308 1.668-.862zm3.213-3.28c0-1.354 1.23-2.29 2.994-2.29 1.777 0 2.891.785 3.015 2.146H50.76c-.123-.527-.622-.862-1.415-.862-.773 0-1.354.37-1.354.91 0 .423.356.683 1.108.854l1.319.3c1.429.322 2.092.937 2.092 2.038 0 1.435-1.32 2.392-3.186 2.392-1.866 0-3.042-.806-3.172-2.167h1.675c.164.554.69.882 1.538.882.855 0 1.45-.376 1.45-.93 0-.423-.322-.69-1.033-.847l-1.326-.308c-1.436-.328-2.112-.99-2.112-2.119zm14.321 5.461c-1.894 0-3.076-1.49-3.076-3.87 0-2.364 1.19-3.855 3.076-3.855 1.025 0 1.873.493 2.27 1.313h.116V21.63h1.695V32h-1.64v-1.183h-.117c-.424.82-1.285 1.306-2.324 1.306zm.526-6.282c-1.155 0-1.866.916-1.866 2.42 0 1.51.704 2.42 1.866 2.42 1.17 0 1.88-.916 1.88-2.42 0-1.49-.718-2.42-1.88-2.42zm8.832-.123c-1.011 0-1.722.724-1.797 1.818h3.52c-.034-1.107-.704-1.818-1.723-1.818zm1.737 4.224h1.606c-.321 1.36-1.558 2.208-3.322 2.208-2.201 0-3.527-1.456-3.527-3.862s1.346-3.917 3.513-3.917c2.133 0 3.411 1.415 3.411 3.774v.546H68.22v.09c.04 1.243.759 2.023 1.873 2.023.84 0 1.422-.308 1.668-.862zM75.145 32v-7.479h1.633v1.21h.117c.32-.854 1.086-1.36 2.078-1.36 1.032 0 1.75.52 2.064 1.36h.116c.37-.82 1.23-1.36 2.27-1.36 1.497 0 2.4.937 2.4 2.488V32h-1.69v-4.71c0-.964-.457-1.442-1.366-1.442-.882 0-1.463.642-1.463 1.497V32h-1.648v-4.833c0-.82-.52-1.32-1.353-1.32-.841 0-1.463.691-1.463 1.607V32h-1.695zm15.914-1.271c1.182 0 1.852-.903 1.852-2.468 0-1.559-.677-2.468-1.852-2.468-1.183 0-1.86.91-1.86 2.468 0 1.565.677 2.468 1.86 2.468zm0 1.421c-2.243 0-3.596-1.462-3.596-3.89 0-2.412 1.374-3.889 3.596-3.889 2.228 0 3.595 1.47 3.595 3.89 0 2.427-1.36 3.89-3.595 3.89zm5.133-5.489c0-1.353 1.23-2.29 2.995-2.29 1.777 0 2.891.786 3.014 2.147h-1.593c-.123-.527-.622-.862-1.415-.862-.772 0-1.353.37-1.353.91 0 .423.355.683 1.107.854l1.32.3c1.428.322 2.091.937 2.091 2.038 0 1.435-1.319 2.392-3.185 2.392S96.13 31.344 96 29.983h1.675c.164.554.69.882 1.538.882.854 0 1.45-.376 1.45-.93 0-.423-.322-.69-1.033-.847l-1.326-.308c-1.436-.328-2.113-.99-2.113-2.119z" fill="#24124D"/></g><g transform="translate(208 16)"><use fill="#000" filter="url(#y)" xlink:href="#z"/><use fill="#FFF" xlink:href="#z"/><g stroke-linecap="square"><use fill="#000" filter="url(#A)" xlink:href="#B"/><rect stroke-opacity=".098" stroke="#140B2F" fill="#FFF" x="-.5" y="-.5" width="177" height="81" rx="4"/></g><g transform="translate(16 48)"><mask id="D" fill="#fff"><use xlink:href="#C"/></mask><use fill="#E4E4F3" xlink:href="#C"/><g mask="url(#D)"><g transform="translate(2.667 3)"><path d="M7.833.667c.348.221 0 2.333.167 3 .138.552-.75-.003-2.667-1.667-.995.567-1.662.9-2 1-1.259.37-1.092-.71-1-1 .184-.597-.085-.87.334-1.333C3.133.139 3.749.24 4.448.124 4.91.049 5.397.03 5.862 0c.017 0 .034.005.05.014a.177.177 0 0 1 .058.048c.068.101.127.207.178.317a.24.24 0 0 0 .1.128c.044.022.094.03.143.026C6.772.53 7.5.475 7.833.667z" fill="#7E7EB1" fill-rule="nonzero"/><path d="M10.667 13H0c0-.66.333-5.5 3-5.5 0 0 1.368 2.167 2.333 2.167.966 0 2.334-2.167 2.334-2.167 1.777 0 2.777 1.833 3 5.5z" fill="#A5A5D8" fill-rule="nonzero"/><path d="M7.667 7.667c0 1.11-.778 2.222-2.334 3.333C3.778 9.889 3 8.778 3 7.667h4.667z" fill="#7878AB" fill-rule="nonzero"/><path d="M6.667 7.34c0 .954-.445 1.67-1.334 1.67-.875 0-1.313-.738-1.333-1.67V6h2.667v1.34z" fill="#B6B6E9" fill-rule="nonzero"/><path d="M5 1.833c.798-.145 1.667 0 2 .167.333.167.333.667.333.667v2.666C7 6 7 6.333 6.667 6.667 6.333 7 4.333 7 4 6.667c-.333-.334-.333-.667-.667-1.334V2.667c0-.334.869-.689 1.667-.834z" fill="#C8C8F7" fill-rule="nonzero"/><path d="M4 6.667v.5c.667.333 1.222.5 1.667.5.444 0 .777-.111 1-.334v-.666c-.556.11-1 .166-1.334.166-.222 0-.666-.055-1.333-.166z" fill="#9898CB"/><path d="M4.829 3.713c.107.115.164.213.171.295a.307.307 0 0 1-.05.15.351.351 0 0 1-.28.175.328.328 0 0 1-.171-.046.346.346 0 0 1-.166-.274c0-.065.017-.13.052-.184a.32.32 0 0 1 .444-.116zM6.155 3.7a.348.348 0 0 1 .178.284c.001.065-.017.13-.051.185a.32.32 0 0 1-.272.163.354.354 0 0 1-.178-.033.333.333 0 0 1-.165-.276.352.352 0 0 1 .31-.356c.04-.001.099.01.178.033z" fill="#7272A5" fill-rule="nonzero"/><path d="M3.333 4.333c-.11 1-.055 1.667.167 2 .333.5 1.167.834 1.833.834.667 0 1.5-.334 1.834-.834.222-.333.277-1 .166-2-.444.89-.889 1.334-1.333 1.334H4.667c-.445 0-.89-.445-1.334-1.334z" fill="#B4B4E5"/></g></g></g><g transform="translate(36 48)"><mask id="F" fill="#fff"><use xlink:href="#E"/></mask><use fill="#E4E4F3" xlink:href="#E"/><g mask="url(#F)"><g transform="translate(2.667 3)"><path d="M7.833.667c.348.221 0 2.333.167 3 .138.552-.75-.003-2.667-1.667-.995.567-1.662.9-2 1-1.259.37-1.092-.71-1-1 .184-.597-.085-.87.334-1.333C3.133.139 3.749.24 4.448.124 4.91.049 5.397.03 5.862 0c.017 0 .034.005.05.014a.177.177 0 0 1 .058.048c.068.101.127.207.178.317a.24.24 0 0 0 .1.128c.044.022.094.03.143.026C6.772.53 7.5.475 7.833.667z" fill="#7E7EB1" fill-rule="nonzero"/><path d="M10.667 13H0c0-.66.333-5.5 3-5.5 0 0 1.368 2.167 2.333 2.167.966 0 2.334-2.167 2.334-2.167 1.777 0 2.777 1.833 3 5.5z" fill="#A5A5D8" fill-rule="nonzero"/><path d="M7.667 7.667c0 1.11-.778 2.222-2.334 3.333C3.778 9.889 3 8.778 3 7.667h4.667z" fill="#7878AB" fill-rule="nonzero"/><path d="M6.667 7.34c0 .954-.445 1.67-1.334 1.67-.875 0-1.313-.738-1.333-1.67V6h2.667v1.34z" fill="#B6B6E9" fill-rule="nonzero"/><path d="M5 1.833c.798-.145 1.667 0 2 .167.333.167.333.667.333.667v2.666C7 6 7 6.333 6.667 6.667 6.333 7 4.333 7 4 6.667c-.333-.334-.333-.667-.667-1.334V2.667c0-.334.869-.689 1.667-.834z" fill="#C8C8F7" fill-rule="nonzero"/><path d="M4 6.667v.5c.667.333 1.222.5 1.667.5.444 0 .777-.111 1-.334v-.666c-.556.11-1 .166-1.334.166-.222 0-.666-.055-1.333-.166z" fill="#9898CB"/><path d="M4.829 3.713c.107.115.164.213.171.295a.307.307 0 0 1-.05.15.351.351 0 0 1-.28.175.328.328 0 0 1-.171-.046.346.346 0 0 1-.166-.274c0-.065.017-.13.052-.184a.32.32 0 0 1 .444-.116zM6.155 3.7a.348.348 0 0 1 .178.284c.001.065-.017.13-.051.185a.32.32 0 0 1-.272.163.354.354 0 0 1-.178-.033.333.333 0 0 1-.165-.276.352.352 0 0 1 .31-.356c.04-.001.099.01.178.033z" fill="#7272A5" fill-rule="nonzero"/><path d="M3.333 4.333c-.11 1-.055 1.667.167 2 .333.5 1.167.834 1.833.834.667 0 1.5-.334 1.834-.834.222-.333.277-1 .166-2-.444.89-.889 1.334-1.333 1.334H4.667c-.445 0-.89-.445-1.334-1.334z" fill="#B4B4E5"/></g></g></g><path d="M23.581 32l-.834-2.522h-3.63L18.27 32h-1.785l3.5-9.864h1.983L25.475 32H23.58zm-2.7-7.984l-1.354 4.067h2.81l-1.34-4.067h-.116zm10.185.382c1.894 0 3.083 1.463 3.083 3.863 0 2.385-1.175 3.862-3.062 3.862-1.073 0-1.9-.465-2.283-1.258h-.116v3.528h-1.696V24.52h1.634v1.238h.116c.43-.848 1.299-1.36 2.324-1.36zm-.533 6.283c1.176 0 1.873-.91 1.873-2.42 0-1.511-.704-2.42-1.866-2.42-1.155 0-1.88.93-1.887 2.42.007 1.497.725 2.42 1.88 2.42zm9.393-6.283c1.893 0 3.083 1.463 3.083 3.863 0 2.385-1.176 3.862-3.063 3.862-1.073 0-1.9-.465-2.283-1.258h-.116v3.528h-1.695V24.52h1.633v1.238h.117c.43-.848 1.298-1.36 2.324-1.36zm-.533 6.283c1.175 0 1.873-.91 1.873-2.42 0-1.511-.704-2.42-1.867-2.42-1.155 0-1.88.93-1.886 2.42.007 1.497.724 2.42 1.88 2.42zM48.983 32v-6.077h-1.216v-1.354h1.216v-.745c0-1.517.787-2.133 2.427-2.133.3 0 .595.028.896.076v1.264a3.334 3.334 0 0 0-.65-.054c-.663 0-1.011.287-1.011.957v.635h1.62v1.354h-1.593V32h-1.689zm8.074-6.282c-1.012 0-1.723.724-1.798 1.818h3.52c-.034-1.107-.704-1.818-1.722-1.818zm1.736 4.224h1.606c-.32 1.36-1.558 2.208-3.322 2.208-2.201 0-3.527-1.456-3.527-3.862s1.346-3.917 3.513-3.917c2.133 0 3.412 1.415 3.412 3.774v.546h-5.223v.09c.041 1.243.759 2.023 1.873 2.023.84 0 1.422-.308 1.668-.862zm6.521-4.224c-1.011 0-1.722.724-1.797 1.818h3.52c-.034-1.107-.704-1.818-1.723-1.818zm1.737 4.224h1.606c-.321 1.36-1.558 2.208-3.322 2.208-2.201 0-3.527-1.456-3.527-3.862s1.346-3.917 3.513-3.917c2.133 0 3.411 1.415 3.411 3.774v.546H63.51v.09c.04 1.243.759 2.023 1.873 2.023.84 0 1.422-.308 1.668-.862zm6.09 2.181c-1.893 0-3.076-1.49-3.076-3.87 0-2.364 1.19-3.855 3.077-3.855 1.025 0 1.873.493 2.27 1.313h.115V21.63h1.696V32h-1.641v-1.183h-.116c-.424.82-1.285 1.306-2.324 1.306zm.527-6.282c-1.155 0-1.866.916-1.866 2.42 0 1.51.704 2.42 1.866 2.42 1.169 0 1.88-.916 1.88-2.42 0-1.49-.718-2.42-1.88-2.42zm9.85 6.282c-1.045 0-1.914-.485-2.337-1.306h-.117V32h-1.633V21.63h1.695v4.08h.116c.39-.813 1.251-1.312 2.277-1.312 1.893 0 3.069 1.47 3.069 3.863 0 2.379-1.183 3.862-3.07 3.862zm-.533-6.282c-1.155 0-1.886.93-1.886 2.42 0 1.49.724 2.42 1.886 2.42s1.86-.916 1.86-2.42-.704-2.42-1.86-2.42zm7.862 4.949c1.025 0 1.79-.663 1.79-1.531v-.595l-1.688.11c-.95.061-1.394.403-1.394 1.011 0 .63.54 1.005 1.292 1.005zm-.5 1.333c-1.442 0-2.474-.875-2.474-2.242 0-1.354 1.019-2.133 2.837-2.242l1.928-.117v-.628c0-.732-.492-1.142-1.409-1.142-.779 0-1.312.273-1.47.78H88.16c.137-1.32 1.374-2.16 3.152-2.16 1.92 0 3 .936 3 2.522V32H92.68v-1.025h-.117c-.416.724-1.237 1.148-2.214 1.148zm12.463-5.086h-1.614c-.157-.724-.717-1.244-1.647-1.244-1.162 0-1.853.895-1.853 2.447 0 1.573.698 2.489 1.853 2.489.882 0 1.47-.417 1.647-1.197h1.614c-.185 1.566-1.36 2.618-3.254 2.618-2.25 0-3.576-1.449-3.576-3.91 0-2.427 1.32-3.869 3.569-3.869 1.92 0 3.083 1.094 3.26 2.666zm3.5.533l2.761-3.049h1.969l-2.98 3.207L111.245 32h-2.05l-2.4-3.206-.602.602V32h-1.695V21.63h1.695v5.94h.117z" fill="#24124D"/></g><g transform="translate(16 16)"><rect fill="#F1EFF8" width="176" height="80" rx="4"/><g transform="translate(81 33)" stroke="#7B7194" stroke-linecap="round" stroke-linejoin="round" stroke-width="2"><path d="M7 0v14M0 7h14"/></g></g></g></svg>