<svg width="400" height="320" viewBox="0 0 400 320" xmlns="http://www.w3.org/2000/svg" xmlns:xlink="http://www.w3.org/1999/xlink"><title>illustration/realtime</title><defs><circle id="a" cx="16" cy="16" r="16"/><circle id="c" cx="16" cy="16" r="16"/><circle id="e" cx="16" cy="16" r="16"/></defs><g transform="translate(16 16)" fill="none" fill-rule="evenodd"><g transform="translate(336)"><mask id="b" fill="#fff"><use xlink:href="#a"/></mask><use fill="#E4E4F3" xlink:href="#a"/><g mask="url(#b)" fill-rule="nonzero"><path d="M25.333 32H6.667c0-1.32 0-11 5.333-11 0 0 1.747 4.333 3.678 4.333C17.61 25.333 20 21 20 21c3.556 0 5.333 3.667 5.333 11z" fill="#A5A5D8"/><path d="M20 21.333C20 23.99 18.667 26 16 26c-2.626 0-3.94-2.071-4-4.667h8z" fill="#7878AB"/></g><path d="M20.667 15.333C15.777 14 12.889 13.111 12 12.667c-1.333-1.334-1.333-4-.333-6 .763-1.526 5.666-2.667 9 0 2.222 1.777 2.222 4.666 0 8.666z" fill="#7E7EB1" fill-rule="nonzero" mask="url(#b)"/><path d="M18.667 20.68c0 1.908-.89 3.34-2.667 3.34-1.75 0-2.627-1.475-2.667-3.34V18h5.334v2.68z" fill="#B6B6E9" fill-rule="nonzero" mask="url(#b)"/><path d="M14.667 9.333c2 0 3.777.89 5.333 2.667 1.333 2 .72 2.809.333 4.667-.387 1.858-1 2-1.666 2.666-.336.336-1.334 1-2.667 1-1.333 0-2.336-.669-2.667-1-.666-.666-1.152-1.333-1.333-2.666-.181-1.334 0-4 0-4 1.778 0 2.667-1.111 2.667-3.334z" fill="#C8C8F7" fill-rule="nonzero" mask="url(#b)"/><path d="M14.99 13.425c.216.23.33.428.343.592a.613.613 0 0 1-.1.298.702.702 0 0 1-.56.352.656.656 0 0 1-.342-.092.691.691 0 0 1-.33-.55.675.675 0 0 1 .102-.367.641.641 0 0 1 .888-.233zm2.653-.026c.208.115.343.33.357.568a.685.685 0 0 1-.103.37.639.639 0 0 1-.544.328.709.709 0 0 1-.356-.066.665.665 0 0 1-.33-.553.705.705 0 0 1 .62-.712c.08-.003.198.02.356.065z" fill="#7272A5" fill-rule="nonzero" mask="url(#b)"/><path d="M13.333 19.333V20c1.334.889 2.445 1.333 3.334 1.333.889 0 1.555-.444 2-1.333v-.667C18 19.778 17.11 20 16 20c-1.111 0-2-.222-2.667-.667z" fill="#9898CB" mask="url(#b)"/></g><g transform="translate(300)"><mask id="d" fill="#fff"><use xlink:href="#c"/></mask><use fill="#E4E4F3" xlink:href="#c"/><g mask="url(#d)"><g transform="translate(5.333 6)"><path d="M15.667 1.333c.696.443 0 4.667.333 6 .276 1.106-1.501-.005-5.333-3.333-1.99 1.135-3.324 1.801-4 2-2.518.74-2.186-1.42-2-2 .366-1.193-.171-1.741.666-2.667C6.265.278 7.497.48 8.897.247 9.82.097 10.794.061 11.724 0c.034 0 .068.01.098.029a.354.354 0 0 1 .118.096c.136.201.255.413.356.633a.478.478 0 0 0 .198.256c.09.043.19.061.288.053.763-.007 2.221-.116 2.885.266z" fill="#7E7EB1" fill-rule="nonzero"/><path d="M21.333 26H0c0-1.32.667-11 6-11 0 0 2.736 4.333 4.667 4.333 1.93 0 4.666-4.333 4.666-4.333 3.556 0 5.556 3.667 6 11z" fill="#A5A5D8" fill-rule="nonzero"/><path d="M15.333 15.333c0 2.223-1.555 4.445-4.666 6.667C7.556 19.778 6 17.556 6 15.333h9.333z" fill="#7878AB" fill-rule="nonzero"/><path d="M13.333 14.68c0 1.908-.889 3.34-2.666 3.34-1.75 0-2.627-1.475-2.667-3.34V12h5.333v2.68z" fill="#B6B6E9" fill-rule="nonzero"/><path d="M10 3.667c1.596-.29 3.333 0 4 .333.667.333.667 1.333.667 1.333v5.334C14 12 14 12.667 13.333 13.333c-.666.667-4.666.667-5.333 0-.667-.666-.667-1.333-1.333-2.666V5.333c0-.666 1.737-1.376 3.333-1.666z" fill="#C8C8F7" fill-rule="nonzero"/><path d="M8 13.333v1c1.333.667 2.444 1 3.333 1 .89 0 1.556-.222 2-.666v-1.334c-1.11.223-2 .334-2.666.334-.445 0-1.334-.111-2.667-.334z" fill="#9898CB"/><path d="M9.657 7.425c.215.23.33.428.343.592a.613.613 0 0 1-.1.298.702.702 0 0 1-.56.352.656.656 0 0 1-.342-.092.691.691 0 0 1-.331-.55.675.675 0 0 1 .103-.367.641.641 0 0 1 .887-.233zM12.31 7.4c.208.115.343.33.357.568a.685.685 0 0 1-.103.37.639.639 0 0 1-.544.328.709.709 0 0 1-.356-.066.665.665 0 0 1-.33-.553.705.705 0 0 1 .62-.712c.079-.003.198.02.356.065z" fill="#7272A5" fill-rule="nonzero"/><path d="M6.667 8.667c-.223 2-.111 3.333.333 4 .667 1 2.333 1.666 3.667 1.666 1.333 0 3-.666 3.666-1.666.445-.667.556-2 .334-4-.89 1.777-1.778 2.666-2.667 2.666H9.333c-.889 0-1.777-.889-2.666-2.666z" fill="#B4B4E5"/></g></g></g><g transform="translate(264)"><mask id="f" fill="#fff"><use xlink:href="#e"/></mask><use fill="#E4E4F3" xlink:href="#e"/><g mask="url(#f)"><g transform="translate(6.667 5.333)"><path d="M13.627 1.641a5.972 5.972 0 0 1 1.76 1.7 11.227 11.227 0 0 1 1.697 4.111c.192.966.317 1.949.489 2.902l.11 1.06a.439.439 0 0 1-.18.41l-4.17 2.843-4-4.667-4.026 5.402-2.634-1.635-1.135-.683a.35.35 0 0 1-.143-.254 24.94 24.94 0 0 1 .008-3.611c.095-1.28.34-2.544.73-3.764A8.518 8.518 0 0 1 3.96 2.239 6.15 6.15 0 0 1 7.563.247C8.487.097 9.46.061 10.39 0c.035 0 .07.01.1.029a.354.354 0 0 1 .117.096c.135.201.254.413.356.633a.478.478 0 0 0 .198.256c.09.043.189.061.287.053a4.293 4.293 0 0 1 2.18.574z" fill="#7878AB" fill-rule="nonzero"/><path d="M18.667 26.667H0c0-1.321 0-11 5.333-11 0 0 1.747 4.333 3.678 4.333 1.932 0 4.322-4.333 4.322-4.333 3.556 0 5.334 3.666 5.334 11z" fill="#A5A5D8" fill-rule="nonzero"/><path d="M13.333 16c0 2.656-1.333 4.667-4 4.667-2.625 0-3.94-2.072-4-4.667h8z" fill="#7878AB" fill-rule="nonzero"/><path d="M12 16.013c0 1.909-.889 3.34-2.667 3.34-1.75 0-2.626-1.475-2.666-3.34v-2.68H12v2.68z" fill="#B6B6E9" fill-rule="nonzero"/><path d="M14 11.333l-.667 3.334H12v-2c.015-.016.682-.46 2-1.334z" fill="#636396" fill-rule="nonzero"/><path d="M4.667 11.333c.405.642 1.953 1.935 2 1.976v1.358l-1.334.666c-.461-2.468-.684-3.801-.666-4z" fill="#636396"/><path d="M11.333 4l1.808 1.815.859.896c.038 0 .038 1.541 0 4.622-.444 1.334-.889 2.223-1.333 2.667-.667.667-4.526.205-6 0-.749-.104-1.638-.667-1.82-2-.12-.889-.18-2-.18-3.333A22.431 22.431 0 0 0 8 6.71 30.844 30.844 0 0 0 11.333 4z" fill="#C8C8F7" fill-rule="nonzero"/><path d="M8.324 8.759c.215.23.33.427.343.59a.613.613 0 0 1-.1.3.702.702 0 0 1-.56.351.656.656 0 0 1-.342-.092.691.691 0 0 1-.332-.549.675.675 0 0 1 .104-.368.641.641 0 0 1 .887-.232zm2.652-.027c.208.116.343.33.357.569a.685.685 0 0 1-.103.37.639.639 0 0 1-.543.327.709.709 0 0 1-.357-.066.665.665 0 0 1-.33-.552.705.705 0 0 1 .62-.713c.08-.002.198.02.356.065z" fill="#7272A5" fill-rule="nonzero"/><path d="M6.667 14v.667c1.333.666 2.444 1 3.333 1 .889 0 1.556-.223 2-.667v-.667H9.333c-.444 0-1.333-.11-2.666-.333z" fill="#9898CB"/></g></g></g><circle stroke="#FFF" stroke-width="2" fill="#009688" cx="290" cy="26" r="5"/><circle stroke="#FFF" stroke-width="2" fill="#FFB300" cx="326" cy="26" r="5"/><circle stroke="#FFF" stroke-width="2" fill="#F84F77" cx="362" cy="26" r="5"/><g transform="translate(0 10)"><path d="M2.572 1.545v5.402c0 1.143.715 1.91 1.969 1.91s1.963-.767 1.963-1.91V1.545h1.512v5.543c0 1.846-1.336 3.123-3.475 3.123-2.139 0-3.475-1.277-3.475-3.123V1.545h1.506zM9.82 5.424c0-1.16 1.055-1.963 2.567-1.963 1.523 0 2.478.674 2.584 1.84h-1.366c-.105-.451-.533-.739-1.212-.739-.663 0-1.16.317-1.16.78 0 .363.304.586.949.732l1.13.258c1.225.275 1.793.803 1.793 1.746 0 1.23-1.13 2.05-2.73 2.05s-2.607-.69-2.719-1.857h1.436c.14.475.592.756 1.318.756.733 0 1.242-.322 1.242-.797 0-.363-.275-.591-.884-.726L11.63 7.24c-1.23-.281-1.81-.85-1.81-1.816zm9.446-.809c-.868 0-1.477.621-1.541 1.559h3.017c-.03-.95-.603-1.559-1.476-1.559zm1.488 3.621h1.377c-.276 1.166-1.336 1.893-2.848 1.893-1.887 0-3.023-1.248-3.023-3.31 0-2.063 1.154-3.358 3.011-3.358 1.829 0 2.924 1.213 2.924 3.234v.47H17.72v.075c.035 1.067.65 1.735 1.605 1.735.72 0 1.219-.264 1.43-.739zm2.9 1.764V3.59h1.4v.996h.1c.176-.633.862-1.102 1.682-1.102.205 0 .457.024.598.065v1.347c-.112-.04-.51-.082-.739-.082-.931 0-1.588.586-1.588 1.483V10h-1.453zm8.584-7.94h1.448v1.57h1.406v1.161h-1.406v3.146c0 .633.27.915.878.915.206 0 .311-.012.48-.03V9.96c-.204.041-.468.07-.75.07-1.47 0-2.056-.498-2.056-1.74V4.791h-1.043v-1.16h1.043V2.06zM39.2 4.616c-.867 0-1.476.621-1.54 1.559h3.017c-.03-.95-.604-1.559-1.477-1.559zm1.489 3.621h1.376c-.275 1.166-1.335 1.893-2.847 1.893-1.887 0-3.024-1.248-3.024-3.31 0-2.063 1.155-3.358 3.012-3.358 1.828 0 2.924 1.213 2.924 3.234v.47h-4.477v.075c.035 1.067.65 1.735 1.606 1.735.72 0 1.219-.264 1.43-.739zm2.753-2.812c0-1.16 1.055-1.963 2.567-1.963 1.523 0 2.478.674 2.584 1.84h-1.365c-.106-.451-.534-.739-1.213-.739-.662 0-1.16.317-1.16.78 0 .363.304.586.949.732l1.13.258c1.225.275 1.794.803 1.794 1.746 0 1.23-1.131 2.05-2.73 2.05-1.6 0-2.608-.69-2.72-1.857h1.436c.14.475.592.756 1.318.756.733 0 1.242-.322 1.242-.797 0-.363-.275-.591-.884-.726l-1.137-.264c-1.23-.281-1.81-.85-1.81-1.816zm7.22-3.363h1.446v1.57h1.407v1.16h-1.407v3.146c0 .633.27.915.88.915.204 0 .31-.012.48-.03V9.96c-.205.041-.469.07-.75.07-1.47 0-2.057-.498-2.057-1.74V4.791h-1.043v-1.16h1.043V2.06zM54.948 10V3.59h1.447V10H54.95zm.72-7.453c-.526 0-.896-.34-.896-.803s.37-.803.897-.803c.533 0 .896.34.896.803s-.363.803-.896.803zM58.196 10V3.59h1.4v1.025h.1C60 3.9 60.75 3.461 61.711 3.461c1.43 0 2.232.861 2.232 2.39V10h-1.447V6.197c0-.978-.445-1.47-1.324-1.47-.938 0-1.524.597-1.524 1.54V10h-1.453zm11.848-3.275c0-1.225-.615-2.004-1.623-2.004-1.014 0-1.588.779-1.588 2.004 0 1.224.574 1.998 1.588 1.998 1.014 0 1.623-.774 1.623-1.998zm-1.623 5.713c-1.647 0-2.725-.727-2.842-1.829h1.46c.093.44.608.721 1.405.721.996 0 1.577-.469 1.577-1.271V8.846h-.1c-.37.685-1.066 1.06-1.957 1.06-1.617 0-2.625-1.254-2.625-3.181 0-1.963 1.014-3.24 2.648-3.24.873 0 1.635.433 1.987 1.13h.1V3.59h1.4v6.433c0 1.483-1.184 2.415-3.053 2.415zm7.887-7.014c0-1.16 1.054-1.963 2.566-1.963 1.523 0 2.479.674 2.584 1.84h-1.365c-.106-.451-.533-.739-1.213-.739-.662 0-1.16.317-1.16.78 0 .363.304.586.949.732l1.13.258c1.225.275 1.794.803 1.794 1.746 0 1.23-1.131 2.05-2.73 2.05-1.6 0-2.608-.69-2.72-1.857h1.436c.14.475.592.756 1.318.756.733 0 1.243-.322 1.243-.797 0-.363-.276-.591-.885-.726l-1.137-.264c-1.23-.281-1.81-.85-1.81-1.816zm9.445-.809c-.867 0-1.477.621-1.541 1.559h3.018c-.03-.95-.604-1.559-1.477-1.559zm1.488 3.621h1.377c-.275 1.166-1.336 1.893-2.847 1.893-1.887 0-3.024-1.248-3.024-3.31 0-2.063 1.154-3.358 3.012-3.358 1.828 0 2.924 1.213 2.924 3.234v.47h-4.477v.075c.035 1.067.65 1.735 1.606 1.735.72 0 1.218-.264 1.43-.739zm2.754-2.812c0-1.16 1.055-1.963 2.567-1.963 1.523 0 2.478.674 2.584 1.84h-1.366c-.105-.451-.533-.739-1.213-.739-.662 0-1.16.317-1.16.78 0 .363.305.586.95.732l1.13.258c1.225.275 1.793.803 1.793 1.746 0 1.23-1.13 2.05-2.73 2.05s-2.608-.69-2.719-1.857h1.436c.14.475.591.756 1.318.756.732 0 1.242-.322 1.242-.797 0-.363-.275-.591-.885-.726l-1.136-.264c-1.23-.281-1.81-.85-1.81-1.816zm6.61 0c0-1.16 1.054-1.963 2.566-1.963 1.523 0 2.478.674 2.584 1.84h-1.365c-.106-.451-.534-.739-1.213-.739-.662 0-1.16.317-1.16.78 0 .363.304.586.949.732l1.13.258c1.225.275 1.794.803 1.794 1.746 0 1.23-1.131 2.05-2.73 2.05-1.6 0-2.608-.69-2.72-1.857h1.436c.14.475.592.756 1.318.756.733 0 1.243-.322 1.243-.797 0-.363-.276-.591-.885-.726l-1.137-.264c-1.23-.281-1.81-.85-1.81-1.816zM103.377 10V3.59h1.447V10h-1.447zm.72-7.453c-.527 0-.896-.34-.896-.803s.37-.803.897-.803c.533 0 .896.34.896.803s-.363.803-.896.803zm5.292 6.363c1.013 0 1.588-.773 1.588-2.115 0-1.336-.58-2.115-1.588-2.115-1.014 0-1.594.779-1.594 2.115 0 1.342.58 2.115 1.594 2.115zm0 1.219c-1.922 0-3.082-1.254-3.082-3.334 0-2.068 1.177-3.334 3.082-3.334 1.91 0 3.082 1.26 3.082 3.334 0 2.08-1.166 3.334-3.082 3.334zm4.547-.129V3.59h1.4v1.025h.1c.304-.715 1.054-1.154 2.015-1.154 1.43 0 2.233.861 2.233 2.39V10h-1.448V6.197c0-.978-.445-1.47-1.324-1.47-.937 0-1.523.597-1.523 1.54V10h-1.453zm7.324-4.576c0-1.16 1.054-1.963 2.566-1.963 1.524 0 2.479.674 2.584 1.84h-1.365c-.106-.451-.533-.739-1.213-.739-.662 0-1.16.317-1.16.78 0 .363.305.586.95.732l1.13.258c1.225.275 1.793.803 1.793 1.746 0 1.23-1.13 2.05-2.73 2.05s-2.608-.69-2.72-1.857h1.436c.14.475.592.756 1.319.756.732 0 1.242-.322 1.242-.797 0-.363-.276-.591-.885-.726l-1.137-.264c-1.23-.281-1.81-.85-1.81-1.816z" fill="#24124D" opacity=".6"/><rect fill="#DCD5EE" y="78" width="248" height="12" rx="4"/><rect fill="#DCD5EE" y="110" width="136" height="12" rx="4"/><rect fill="#512DA8" x="152" y="110" width="97" height="12" rx="4"/><rect fill="#512DA8" y="142" width="64" height="12" rx="4"/><rect fill="#DCD5EE" x="84" y="142" width="136" height="12" rx="4"/><rect fill="#DCD5EE" y="174" width="168" height="12" rx="4"/><rect fill="#DCD5EE" y="222" width="92" height="12" rx="4"/><rect fill="#DCD5EE" x="112" y="222" width="136" height="12" rx="4"/><rect fill="#DCD5EE" y="254" width="136" height="12" rx="4"/><path d="M1.094 42.172h2.46c.157 1.26 1.407 2.07 3.194 2.07 1.66 0 2.861-.85 2.861-2.031 0-1.016-.771-1.611-2.578-2.031l-1.826-.42c-2.559-.576-3.76-1.846-3.76-3.946 0-2.558 2.09-4.257 5.244-4.257 2.96 0 5.098 1.699 5.215 4.12H9.492c-.176-1.24-1.27-2.02-2.812-2.02-1.621 0-2.696.78-2.696 1.982 0 .947.713 1.504 2.461 1.904l1.621.371c2.862.645 4.063 1.836 4.063 3.984 0 2.745-2.12 4.454-5.537 4.454-3.233 0-5.371-1.622-5.498-4.18zm18.095-5.147c-1.445 0-2.46 1.036-2.568 2.598h5.03c-.05-1.582-1.006-2.598-2.462-2.598zm2.48 6.036h2.296c-.46 1.943-2.227 3.154-4.746 3.154-3.145 0-5.04-2.08-5.04-5.518 0-3.437 1.925-5.595 5.02-5.595 3.047 0 4.873 2.021 4.873 5.39v.781h-7.46v.127c.058 1.778 1.083 2.891 2.675 2.891 1.201 0 2.031-.44 2.383-1.23zm4.59-4.688c0-1.934 1.759-3.271 4.278-3.271 2.54 0 4.131 1.123 4.307 3.066h-2.276c-.175-.752-.888-1.23-2.021-1.23-1.104 0-1.934.527-1.934 1.298 0 .606.508.977 1.582 1.221l1.885.43c2.041.459 2.988 1.338 2.988 2.91 0 2.05-1.884 3.418-4.55 3.418s-4.346-1.153-4.532-3.096h2.393c.234.791.986 1.26 2.197 1.26 1.22 0 2.07-.537 2.07-1.328 0-.606-.459-.987-1.474-1.211l-1.895-.44c-2.05-.468-3.017-1.416-3.017-3.027zm11.016 0c0-1.934 1.758-3.271 4.278-3.271 2.539 0 4.13 1.123 4.306 3.066h-2.275c-.176-.752-.889-1.23-2.022-1.23-1.103 0-1.933.527-1.933 1.298 0 .606.508.977 1.582 1.221l1.885.43c2.04.459 2.988 1.338 2.988 2.91 0 2.05-1.885 3.418-4.55 3.418-2.667 0-4.346-1.153-4.532-3.096h2.393c.234.791.986 1.26 2.197 1.26 1.22 0 2.07-.537 2.07-1.328 0-.606-.459-.987-1.474-1.211l-1.895-.44c-2.05-.468-3.018-1.416-3.018-3.027zM48.565 46V35.316h2.412V46h-2.413zm1.2-12.422c-.878 0-1.494-.566-1.494-1.338 0-.771.616-1.338 1.495-1.338.888 0 1.494.567 1.494 1.338 0 .772-.606 1.338-1.494 1.338zm8.819 10.606c1.69 0 2.646-1.29 2.646-3.526 0-2.226-.966-3.525-2.646-3.525-1.69 0-2.656 1.299-2.656 3.525 0 2.237.967 3.526 2.656 3.526zm0 2.03c-3.203 0-5.137-2.089-5.137-5.556 0-3.447 1.963-5.556 5.137-5.556 3.184 0 5.137 2.1 5.137 5.556 0 3.467-1.944 5.557-5.137 5.557zM66.162 46V35.316h2.334v1.71h.166c.508-1.192 1.758-1.924 3.36-1.924 2.382 0 3.72 1.435 3.72 3.984V46H73.33v-6.338c0-1.63-.742-2.451-2.207-2.451-1.562 0-2.539.996-2.539 2.568V46h-2.422zm24.307 0v-2.627h-6.885v-2.246c1.27-2.334 3.252-5.469 5.742-9.219h3.555v9.336h1.904v2.129h-1.904V46h-2.412zm-4.551-4.844v.147h4.59v-7.344h-.137a106.129 106.129 0 0 0-4.453 7.197zm25.322.303h-10v-2.275h10v2.275zm6.104.703h2.46c.02 1.162.821 1.924 2.022 1.924 1.319 0 2.051-.8 2.051-2.315v-9.863h2.52v9.883c0 2.9-1.71 4.56-4.542 4.56-2.695 0-4.511-1.64-4.511-4.189zm15.927 2.11c1.465 0 2.56-.948 2.56-2.188v-.85l-2.413.157c-1.357.088-1.992.576-1.992 1.445 0 .898.771 1.435 1.845 1.435zm-.712 1.904c-2.061 0-3.536-1.25-3.536-3.203 0-1.934 1.456-3.047 4.053-3.203l2.754-.166v-.899c0-1.045-.703-1.63-2.012-1.63-1.113 0-1.875.39-2.1 1.112h-2.284c.195-1.884 1.962-3.085 4.502-3.085 2.744 0 4.287 1.337 4.287 3.603V46h-2.334v-1.465h-.166c-.596 1.035-1.768 1.64-3.164 1.64zm8.574-.176V35.316h2.334v1.71h.166c.508-1.192 1.758-1.924 3.36-1.924 2.382 0 3.72 1.435 3.72 3.984V46H148.3v-6.338c0-1.63-.742-2.451-2.207-2.451-1.563 0-2.54.996-2.54 2.568V46h-2.421zm16.933-8.975c-1.445 0-2.46 1.036-2.568 2.598h5.03c-.05-1.582-1.007-2.598-2.462-2.598zm2.48 6.036h2.296c-.46 1.943-2.227 3.154-4.746 3.154-3.145 0-5.04-2.08-5.04-5.518 0-3.437 1.924-5.595 5.02-5.595 3.047 0 4.873 2.021 4.873 5.39v.781h-7.46v.127c.058 1.778 1.083 2.891 2.675 2.891 1.201 0 2.031-.44 2.383-1.23zm10.42-11.153h5.284c4.19 0 6.63 2.559 6.63 6.983 0 4.521-2.411 7.109-6.63 7.109h-5.283V31.908zm2.52 2.178v9.736h2.432c2.803 0 4.394-1.748 4.394-4.892 0-3.076-1.63-4.844-4.394-4.844h-2.432zm16.621 10.098c1.69 0 2.647-1.29 2.647-3.526 0-2.226-.967-3.525-2.647-3.525-1.689 0-2.656 1.299-2.656 3.525 0 2.237.967 3.526 2.656 3.526zm0 2.03c-3.203 0-5.136-2.089-5.136-5.556 0-3.447 1.963-5.556 5.136-5.556 3.184 0 5.137 2.1 5.137 5.556 0 3.467-1.943 5.557-5.137 5.557zm12.061-9.189c-1.445 0-2.461 1.036-2.568 2.598h5.029c-.049-1.582-1.006-2.598-2.461-2.598zm2.48 6.036h2.295c-.459 1.943-2.226 3.154-4.746 3.154-3.144 0-5.039-2.08-5.039-5.518 0-3.437 1.924-5.595 5.02-5.595 3.047 0 4.873 2.021 4.873 5.39v.781h-7.461v.127c.058 1.778 1.084 2.891 2.676 2.891 1.2 0 2.03-.44 2.382-1.23z" fill="#24124D"/></g><path d="M76 136h12l-12 12v18a2 2 0 1 1-4 0v-27a3 3 0 0 1 3-3h1z" fill="#009688"/><path d="M104 216h12l-12 12v18a2 2 0 0 1-4 0v-27a3 3 0 0 1 3-3h1z" fill="#FFB300"/><path d="M148 248h12l-12 12v18a2 2 0 0 1-4 0v-27a3 3 0 0 1 3-3h1z" fill="#F84F77"/><g transform="translate(280 116)"><rect fill="#DCD5EE" width="66" height="24" rx="4"/><path d="M8.752 14.259h1.996c.096.8.902 1.312 2.065 1.312 1.073 0 1.832-.52 1.832-1.264 0-.63-.493-.992-1.703-1.251l-1.285-.274c-1.798-.376-2.68-1.312-2.68-2.816 0-1.86 1.498-3.083 3.774-3.083 2.174 0 3.712 1.217 3.773 2.973h-1.941c-.096-.779-.82-1.298-1.818-1.298-1.033 0-1.716.478-1.716 1.23 0 .608.472.957 1.627 1.203l1.19.253c1.982.417 2.836 1.272 2.836 2.803 0 1.99-1.524 3.206-3.999 3.206-2.351 0-3.876-1.155-3.951-2.994zm12.96-3.439c-.922 0-1.571.643-1.64 1.62h3.213c-.04-.998-.642-1.62-1.572-1.62zm1.614 4.034h1.853c-.301 1.421-1.6 2.31-3.446 2.31-2.296 0-3.65-1.45-3.65-3.896 0-2.455 1.38-3.972 3.623-3.972 2.222 0 3.534 1.415 3.534 3.808v.608h-5.175v.102c.028 1.122.684 1.819 1.723 1.819.786 0 1.326-.28 1.538-.78zm6.262.765c.923 0 1.62-.588 1.62-1.353v-.554l-1.524.096c-.855.061-1.272.369-1.272.909 0 .56.485.902 1.176.902zm-.656 1.497c-1.45 0-2.468-.888-2.468-2.27 0-1.367 1.046-2.16 2.919-2.269l1.825-.11v-.614c0-.63-.451-.985-1.271-.985-.718 0-1.197.246-1.36.697h-1.833c.13-1.394 1.408-2.27 3.302-2.27 1.996 0 3.124.944 3.124 2.558V17h-1.928v-.984h-.123c-.39.69-1.21 1.1-2.187 1.1zM35.125 17V9.46h1.928v1.203h.123c.198-.752.97-1.326 1.914-1.326.266 0 .595.034.765.096v1.811c-.157-.061-.642-.123-.93-.123-1.066 0-1.81.643-1.81 1.702V17h-1.99zm12.715-4.88h-1.86c-.136-.719-.649-1.19-1.497-1.19-1.073 0-1.674.8-1.674 2.283 0 1.504.608 2.317 1.674 2.317.814 0 1.347-.396 1.497-1.141h1.86c-.164 1.688-1.395 2.775-3.357 2.775-2.351 0-3.684-1.422-3.684-3.951 0-2.502 1.326-3.917 3.684-3.917 1.996 0 3.193 1.107 3.357 2.823zM49.46 17V6.582h1.955v4.115h.123c.349-.861 1.258-1.38 2.365-1.38 1.675 0 2.666 1.018 2.666 2.83V17H54.58v-4.382c0-1.046-.526-1.586-1.476-1.586-.999 0-1.655.663-1.655 1.64V17H49.46z" fill="#512DA8"/></g></g></svg>