<svg width="832" height="536" viewBox="0 0 832 536" xmlns="http://www.w3.org/2000/svg" xmlns:xlink="http://www.w3.org/1999/xlink"><title>illustration/search-large</title><defs><rect id="b" x="2" y="2" width="252" height="180" rx="4"/><filter x="-2.8%" y="-2.8%" width="105.6%" height="107.8%" filterUnits="objectBoundingBox" id="a"><feOffset dy="2" in="SourceAlpha" result="shadowOffsetOuter1"/><feGaussianBlur stdDeviation="2" in="shadowOffsetOuter1" result="shadowBlurOuter1"/><feColorMatrix values="0 0 0 0 0 0 0 0 0 0 0 0 0 0 0 0 0 0 0.2 0" in="shadowBlurOuter1"/></filter><rect id="d" width="256" height="184" rx="4"/><filter x="-1.8%" y="-1.9%" width="103.5%" height="104.9%" filterUnits="objectBoundingBox" id="c"><feMorphology radius="1" operator="dilate" in="SourceAlpha" result="shadowSpreadOuter1"/><feOffset dy="1" in="shadowSpreadOuter1" result="shadowOffsetOuter1"/><feGaussianBlur stdDeviation="1" in="shadowOffsetOuter1" result="shadowBlurOuter1"/><feComposite in="shadowBlurOuter1" in2="SourceAlpha" operator="out" result="shadowBlurOuter1"/><feColorMatrix values="0 0 0 0 0 0 0 0 0 0 0 0 0 0 0 0 0 0 0.04 0" in="shadowBlurOuter1"/></filter><rect id="f" x="2" y="2" width="252" height="152" rx="4"/><filter x="-2.8%" y="-3.3%" width="105.6%" height="109.2%" filterUnits="objectBoundingBox" id="e"><feOffset dy="2" in="SourceAlpha" result="shadowOffsetOuter1"/><feGaussianBlur stdDeviation="2" in="shadowOffsetOuter1" result="shadowBlurOuter1"/><feColorMatrix values="0 0 0 0 0 0 0 0 0 0 0 0 0 0 0 0 0 0 0.2 0" in="shadowBlurOuter1"/></filter><rect id="h" width="256" height="156" rx="4"/><filter x="-1.8%" y="-2.2%" width="103.5%" height="105.8%" filterUnits="objectBoundingBox" id="g"><feMorphology radius="1" operator="dilate" in="SourceAlpha" result="shadowSpreadOuter1"/><feOffset dy="1" in="shadowSpreadOuter1" result="shadowOffsetOuter1"/><feGaussianBlur stdDeviation="1" in="shadowOffsetOuter1" result="shadowBlurOuter1"/><feComposite in="shadowBlurOuter1" in2="SourceAlpha" operator="out" result="shadowBlurOuter1"/><feColorMatrix values="0 0 0 0 0 0 0 0 0 0 0 0 0 0 0 0 0 0 0.04 0" in="shadowBlurOuter1"/></filter><rect id="j" x="2" y="2" width="252" height="124" rx="4"/><filter x="-2.8%" y="-4%" width="105.6%" height="111.3%" filterUnits="objectBoundingBox" id="i"><feOffset dy="2" in="SourceAlpha" result="shadowOffsetOuter1"/><feGaussianBlur stdDeviation="2" in="shadowOffsetOuter1" result="shadowBlurOuter1"/><feColorMatrix values="0 0 0 0 0 0 0 0 0 0 0 0 0 0 0 0 0 0 0.2 0" in="shadowBlurOuter1"/></filter><rect id="l" width="256" height="128" rx="4"/><filter x="-1.8%" y="-2.7%" width="103.5%" height="107%" filterUnits="objectBoundingBox" id="k"><feMorphology radius="1" operator="dilate" in="SourceAlpha" result="shadowSpreadOuter1"/><feOffset dy="1" in="shadowSpreadOuter1" result="shadowOffsetOuter1"/><feGaussianBlur stdDeviation="1" in="shadowOffsetOuter1" result="shadowBlurOuter1"/><feComposite in="shadowBlurOuter1" in2="SourceAlpha" operator="out" result="shadowBlurOuter1"/><feColorMatrix values="0 0 0 0 0 0 0 0 0 0 0 0 0 0 0 0 0 0 0.04 0" in="shadowBlurOuter1"/></filter><rect id="n" x="2" y="2" width="252" height="124" rx="4"/><filter x="-2.8%" y="-4%" width="105.6%" height="111.3%" filterUnits="objectBoundingBox" id="m"><feOffset dy="2" in="SourceAlpha" result="shadowOffsetOuter1"/><feGaussianBlur stdDeviation="2" in="shadowOffsetOuter1" result="shadowBlurOuter1"/><feColorMatrix values="0 0 0 0 0 0 0 0 0 0 0 0 0 0 0 0 0 0 0.2 0" in="shadowBlurOuter1"/></filter><rect id="p" width="256" height="128" rx="4"/><filter x="-1.8%" y="-2.7%" width="103.5%" height="107%" filterUnits="objectBoundingBox" id="o"><feMorphology radius="1" operator="dilate" in="SourceAlpha" result="shadowSpreadOuter1"/><feOffset dy="1" in="shadowSpreadOuter1" result="shadowOffsetOuter1"/><feGaussianBlur stdDeviation="1" in="shadowOffsetOuter1" result="shadowBlurOuter1"/><feComposite in="shadowBlurOuter1" in2="SourceAlpha" operator="out" result="shadowBlurOuter1"/><feColorMatrix values="0 0 0 0 0 0 0 0 0 0 0 0 0 0 0 0 0 0 0.04 0" in="shadowBlurOuter1"/></filter><rect id="r" x="2" y="2" width="252" height="156" rx="4"/><filter x="-2.8%" y="-3.2%" width="105.6%" height="109%" filterUnits="objectBoundingBox" id="q"><feOffset dy="2" in="SourceAlpha" result="shadowOffsetOuter1"/><feGaussianBlur stdDeviation="2" in="shadowOffsetOuter1" result="shadowBlurOuter1"/><feColorMatrix values="0 0 0 0 0 0 0 0 0 0 0 0 0 0 0 0 0 0 0.2 0" in="shadowBlurOuter1"/></filter><rect id="t" width="256" height="160" rx="4"/><filter x="-1.8%" y="-2.2%" width="103.5%" height="105.6%" filterUnits="objectBoundingBox" id="s"><feMorphology radius="1" operator="dilate" in="SourceAlpha" result="shadowSpreadOuter1"/><feOffset dy="1" in="shadowSpreadOuter1" result="shadowOffsetOuter1"/><feGaussianBlur stdDeviation="1" in="shadowOffsetOuter1" result="shadowBlurOuter1"/><feComposite in="shadowBlurOuter1" in2="SourceAlpha" operator="out" result="shadowBlurOuter1"/><feColorMatrix values="0 0 0 0 0 0 0 0 0 0 0 0 0 0 0 0 0 0 0.04 0" in="shadowBlurOuter1"/></filter><rect id="v" x="2" y="2" width="252" height="124" rx="4"/><filter x="-2.8%" y="-4%" width="105.6%" height="111.3%" filterUnits="objectBoundingBox" id="u"><feOffset dy="2" in="SourceAlpha" result="shadowOffsetOuter1"/><feGaussianBlur stdDeviation="2" in="shadowOffsetOuter1" result="shadowBlurOuter1"/><feColorMatrix values="0 0 0 0 0 0 0 0 0 0 0 0 0 0 0 0 0 0 0.2 0" in="shadowBlurOuter1"/></filter><rect id="x" width="256" height="128" rx="4"/><filter x="-1.8%" y="-2.7%" width="103.5%" height="107%" filterUnits="objectBoundingBox" id="w"><feMorphology radius="1" operator="dilate" in="SourceAlpha" result="shadowSpreadOuter1"/><feOffset dy="1" in="shadowSpreadOuter1" result="shadowOffsetOuter1"/><feGaussianBlur stdDeviation="1" in="shadowOffsetOuter1" result="shadowBlurOuter1"/><feComposite in="shadowBlurOuter1" in2="SourceAlpha" operator="out" result="shadowBlurOuter1"/><feColorMatrix values="0 0 0 0 0 0 0 0 0 0 0 0 0 0 0 0 0 0 0.04 0" in="shadowBlurOuter1"/></filter><rect id="z" x="2" y="2" width="252" height="152" rx="4"/><filter x="-2.8%" y="-3.3%" width="105.6%" height="109.2%" filterUnits="objectBoundingBox" id="y"><feOffset dy="2" in="SourceAlpha" result="shadowOffsetOuter1"/><feGaussianBlur stdDeviation="2" in="shadowOffsetOuter1" result="shadowBlurOuter1"/><feColorMatrix values="0 0 0 0 0 0 0 0 0 0 0 0 0 0 0 0 0 0 0.2 0" in="shadowBlurOuter1"/></filter><rect id="B" width="256" height="156" rx="4"/><filter x="-1.8%" y="-2.2%" width="103.5%" height="105.8%" filterUnits="objectBoundingBox" id="A"><feMorphology radius="1" operator="dilate" in="SourceAlpha" result="shadowSpreadOuter1"/><feOffset dy="1" in="shadowSpreadOuter1" result="shadowOffsetOuter1"/><feGaussianBlur stdDeviation="1" in="shadowOffsetOuter1" result="shadowBlurOuter1"/><feComposite in="shadowBlurOuter1" in2="SourceAlpha" operator="out" result="shadowBlurOuter1"/><feColorMatrix values="0 0 0 0 0 0 0 0 0 0 0 0 0 0 0 0 0 0 0.04 0" in="shadowBlurOuter1"/></filter><rect id="D" x="2" y="2" width="796" height="36" rx="4"/><filter x="-.9%" y="-13.9%" width="101.8%" height="138.9%" filterUnits="objectBoundingBox" id="C"><feOffset dy="2" in="SourceAlpha" result="shadowOffsetOuter1"/><feGaussianBlur stdDeviation="2" in="shadowOffsetOuter1" result="shadowBlurOuter1"/><feColorMatrix values="0 0 0 0 0 0 0 0 0 0 0 0 0 0 0 0 0 0 0.2 0" in="shadowBlurOuter1"/></filter><rect id="F" width="800" height="40" rx="4"/><filter x="-.6%" y="-8.8%" width="101.1%" height="122.5%" filterUnits="objectBoundingBox" id="E"><feMorphology radius="1" operator="dilate" in="SourceAlpha" result="shadowSpreadOuter1"/><feOffset dy="1" in="shadowSpreadOuter1" result="shadowOffsetOuter1"/><feGaussianBlur stdDeviation="1" in="shadowOffsetOuter1" result="shadowBlurOuter1"/><feComposite in="shadowBlurOuter1" in2="SourceAlpha" operator="out" result="shadowBlurOuter1"/><feColorMatrix values="0 0 0 0 0 0 0 0 0 0 0 0 0 0 0 0 0 0 0.04 0" in="shadowBlurOuter1"/></filter></defs><g transform="translate(16 16)" fill="none" fill-rule="evenodd"><g transform="translate(0 56)"><use fill="#000" filter="url(#a)" xlink:href="#b"/><use fill="#FFF" xlink:href="#b"/><g stroke-linecap="square"><use fill="#000" filter="url(#c)" xlink:href="#d"/><rect stroke-opacity=".098" stroke="#140B2F" fill="#FFF" x="-.5" y="-.5" width="257" height="185" rx="4"/></g><path d="M16.875 28.938h1.969c.125 1.007 1.125 1.656 2.554 1.656 1.329 0 2.29-.68 2.29-1.625 0-.813-.618-1.29-2.063-1.625l-1.46-.336c-2.048-.461-3.009-1.477-3.009-3.156 0-2.047 1.672-3.407 4.196-3.407 2.367 0 4.078 1.36 4.171 3.297h-1.93c-.14-.992-1.015-1.617-2.25-1.617-1.296 0-2.155.625-2.155 1.586 0 .758.57 1.203 1.968 1.523l1.297.297c2.29.516 3.25 1.469 3.25 3.188 0 2.195-1.695 3.562-4.43 3.562-2.585 0-4.296-1.297-4.398-3.343zM27.844 32V20.148h1.906v4.688h.14c.407-.961 1.415-1.54 2.688-1.54 1.914 0 3.024 1.157 3.024 3.188V32h-1.93v-5.055c0-1.297-.625-1.96-1.813-1.96-1.273 0-2.078.828-2.078 2.054V32h-1.937zm13.64-7.18c-1.156 0-1.968.828-2.054 2.078h4.023c-.039-1.265-.805-2.078-1.969-2.078zm1.985 4.828h1.836c-.367 1.555-1.782 2.524-3.797 2.524-2.516 0-4.031-1.664-4.031-4.414s1.539-4.477 4.015-4.477c2.438 0 3.899 1.617 3.899 4.313v.625h-5.97v.101c.048 1.422.868 2.313 2.142 2.313.96 0 1.624-.352 1.906-.985zm7.554.899c1.352 0 2.118-1.031 2.118-2.82 0-1.782-.774-2.82-2.118-2.82-1.351 0-2.125 1.038-2.125 2.82 0 1.789.774 2.82 2.125 2.82zm0 1.625c-2.562 0-4.109-1.672-4.109-4.445 0-2.758 1.57-4.446 4.11-4.446 2.546 0 4.109 1.68 4.109 4.446 0 2.773-1.555 4.445-4.11 4.445zM57.086 32v-8.547h1.867v1.367h.133c.406-.953 1.406-1.539 2.687-1.539 1.907 0 2.977 1.149 2.977 3.188V32h-1.93v-5.07c0-1.305-.593-1.961-1.765-1.961-1.25 0-2.032.797-2.032 2.054V32h-1.937zm12.883-1.383c1.172 0 2.047-.758 2.047-1.75v-.68l-1.93.125c-1.086.07-1.594.461-1.594 1.157 0 .718.617 1.148 1.477 1.148zm-.57 1.524c-1.649 0-2.829-1-2.829-2.563 0-1.547 1.164-2.437 3.243-2.562l2.203-.133v-.719c0-.836-.563-1.305-1.61-1.305-.89 0-1.5.313-1.68.891h-1.828c.157-1.508 1.57-2.469 3.602-2.469 2.195 0 3.43 1.07 3.43 2.883V32h-1.868v-1.172h-.132c-.477.828-1.414 1.313-2.532 1.313zM82.741 32h-2.015V20.727h2.015V32zm2.578 0v-8.547h1.868v1.328h.132c.235-.843 1.149-1.468 2.243-1.468.273 0 .609.03.796.085v1.797c-.148-.054-.68-.11-.984-.11-1.242 0-2.117.782-2.117 1.977V32H85.32zm10.149-7.18c-1.156 0-1.969.828-2.055 2.078h4.023c-.039-1.265-.804-2.078-1.968-2.078zm1.984 4.828h1.836c-.367 1.555-1.781 2.524-3.797 2.524-2.515 0-4.031-1.664-4.031-4.414S93 23.28 95.477 23.28c2.437 0 3.898 1.617 3.898 4.313v.625h-5.969v.101c.047 1.422.867 2.313 2.14 2.313.962 0 1.626-.352 1.907-.985zM101.32 32v-8.547h1.868v1.367h.132c.407-.953 1.407-1.539 2.688-1.539 1.906 0 2.976 1.149 2.976 3.188V32h-1.93v-5.07c0-1.305-.593-1.961-1.765-1.961-1.25 0-2.031.797-2.031 2.054V32h-1.938zm13.547-7.18c-1.156 0-1.969.828-2.055 2.078h4.024c-.04-1.265-.805-2.078-1.969-2.078zm1.985 4.828h1.835c-.367 1.555-1.78 2.524-3.796 2.524-2.516 0-4.032-1.664-4.032-4.414s1.54-4.477 4.016-4.477c2.438 0 3.898 1.617 3.898 4.313v.625h-5.968v.101c.047 1.422.867 2.313 2.14 2.313.961 0 1.625-.352 1.907-.985zM20.529 56.205c-2.35 0-3.814-1.693-3.814-4.43 0-2.742 1.459-4.435 3.808-4.435 1.864 0 3.305 1.207 3.516 2.93h-1.307c-.246-1.038-1.095-1.706-2.209-1.706-1.517 0-2.466 1.237-2.466 3.211 0 1.97.949 3.205 2.472 3.205 1.12 0 1.969-.603 2.203-1.558h1.307c-.234 1.67-1.623 2.783-3.51 2.783zm10.588-6.586V56H29.91v-1.014h-.1c-.31.727-1.037 1.137-1.997 1.137-1.418 0-2.256-.861-2.256-2.373v-4.13h1.26v3.814c0 1.03.474 1.523 1.406 1.523 1.013 0 1.64-.603 1.64-1.605v-3.733h1.254zm1.688 1.805c0-1.131 1.037-1.928 2.478-1.928 1.436 0 2.373.668 2.496 1.793h-1.207c-.117-.469-.574-.768-1.289-.768-.703 0-1.236.334-1.236.833 0 .38.322.62 1.014.779l1.06.246c1.213.281 1.781.803 1.781 1.74 0 1.201-1.119 2.004-2.642 2.004-1.518 0-2.508-.685-2.62-1.816h1.26c.159.492.627.797 1.39.797.784 0 1.34-.352 1.34-.862 0-.38-.298-.627-.937-.78l-1.113-.257c-1.213-.287-1.775-.832-1.775-1.781zm7.06-3.352h1.26v1.576h1.43v1.061h-1.43v3.281c0 .668.275.961.902.961.194 0 .293-.012.47-.03v1.05a3.87 3.87 0 0 1-.675.064c-1.4 0-1.957-.492-1.957-1.722v-3.604h-1.049v-1.06h1.05v-1.577zm6.82 6.932c1.09 0 1.711-.809 1.711-2.197 0-1.383-.62-2.192-1.71-2.192-1.096 0-1.711.809-1.711 2.192 0 1.394.615 2.197 1.71 2.197zm0 1.119c-1.869 0-3.011-1.248-3.011-3.316 0-2.057 1.148-3.31 3.012-3.31 1.857 0 3.005 1.253 3.005 3.31 0 2.068-1.142 3.316-3.005 3.316zM51.204 56v-6.38h1.213v1.025h.094c.281-.721.926-1.149 1.775-1.149.873 0 1.477.451 1.758 1.149h.1c.322-.698 1.054-1.149 1.939-1.149 1.29 0 2.04.78 2.04 2.11V56h-1.26v-4.066c0-.862-.41-1.284-1.237-1.284-.814 0-1.348.586-1.348 1.336V56h-1.236v-4.19c0-.72-.48-1.16-1.23-1.16-.768 0-1.348.627-1.348 1.448V56h-1.26zm13.307-5.432c-.932 0-1.582.657-1.653 1.653h3.223c-.03-1.002-.639-1.653-1.57-1.653zm1.564 3.71h1.213c-.287 1.142-1.307 1.845-2.766 1.845-1.828 0-2.947-1.254-2.947-3.293s1.143-3.334 2.942-3.334c1.775 0 2.847 1.213 2.847 3.217v.44h-4.506v.07c.041 1.119.692 1.828 1.7 1.828.761 0 1.283-.276 1.517-.774zM68.875 56v-6.38h1.213v.978h.094c.181-.627.884-1.084 1.716-1.084.182 0 .422.017.557.052v1.243c-.1-.036-.486-.077-.697-.077-.95 0-1.623.604-1.623 1.5V56h-1.26zm8.04 0v-6.38h1.253V56h-1.254zm.626-7.5c-.469 0-.814-.334-.814-.768 0-.439.345-.773.814-.773s.814.334.814.773c0 .434-.345.768-.814.768zM80.02 56v-6.38h1.212v1.013h.094c.31-.71 1.055-1.137 2.016-1.137 1.424 0 2.226.856 2.226 2.373V56h-1.26v-3.814c0-1.026-.456-1.536-1.394-1.536-1.014 0-1.635.621-1.635 1.618V56h-1.26zm7.763-7.928h1.26v1.576h1.43v1.061h-1.43v3.281c0 .668.275.961.902.961.194 0 .293-.012.47-.03v1.05a3.87 3.87 0 0 1-.675.064c-1.4 0-1.957-.492-1.957-1.722v-3.604h-1.049v-1.06h1.05v-1.577zm6.744 2.496c-.931 0-1.582.657-1.652 1.653h3.223c-.03-1.002-.639-1.653-1.57-1.653zm1.565 3.71h1.213c-.287 1.142-1.307 1.845-2.766 1.845-1.828 0-2.947-1.254-2.947-3.293s1.142-3.334 2.941-3.334c1.776 0 2.848 1.213 2.848 3.217v.44h-4.506v.07c.041 1.119.691 1.828 1.7 1.828.76 0 1.282-.276 1.517-.774zm2.8 1.722v-6.38h1.213v.978h.094c.182-.627.885-1.084 1.717-1.084.182 0 .422.017.557.052v1.243c-.1-.036-.487-.077-.698-.077-.949 0-1.623.604-1.623 1.5V56h-1.26zm4.184-6.38h1.348l1.588 5.032h.1l1.581-5.033h1.336L106.732 56h-1.353l-2.303-6.38zM110.33 56v-6.38h1.254V56h-1.254zm.627-7.5c-.469 0-.814-.334-.814-.768 0-.439.345-.773.814-.773s.814.334.814.773c0 .434-.345.768-.814.768zm5.098 2.068c-.932 0-1.582.657-1.653 1.653h3.223c-.03-1.002-.639-1.653-1.57-1.653zm1.564 3.71h1.213c-.287 1.142-1.307 1.845-2.766 1.845-1.828 0-2.947-1.254-2.947-3.293s1.143-3.334 2.942-3.334c1.775 0 2.847 1.213 2.847 3.217v.44h-4.506v.07c.041 1.119.692 1.828 1.7 1.828.761 0 1.283-.276 1.517-.774zm11.11-4.659L126.977 56h-1.307l-1.318-4.7h-.1l-1.313 4.7h-1.294l-1.758-6.38h1.277l1.143 4.868h.093l1.313-4.869h1.207l1.312 4.87h.1l1.137-4.87h1.26zm1.154 1.805c0-1.131 1.037-1.928 2.478-1.928 1.436 0 2.373.668 2.496 1.793h-1.207c-.117-.469-.574-.768-1.289-.768-.703 0-1.236.334-1.236.833 0 .38.322.62 1.014.779l1.06.246c1.213.281 1.781.803 1.781 1.74 0 1.201-1.119 2.004-2.642 2.004-1.518 0-2.508-.685-2.62-1.816h1.26c.159.492.627.797 1.39.797.784 0 1.341-.352 1.341-.862 0-.38-.299-.627-.938-.78l-1.113-.257c-1.213-.287-1.775-.832-1.775-1.781z" fill="#7B7194"/><rect fill="#DCD5EE" x="16" y="72" width="224" height="12" rx="4"/><rect fill="#DCD5EE" x="16" y="100" width="120" height="12" rx="4"/><rect fill="#5182F8" x="152" y="100" width="88" height="12" rx="4"/><rect fill="#5182F8" x="16" y="128" width="224" height="12" rx="4"/><rect fill="#DCD5EE" x="16" y="156" width="120" height="12" rx="4"/></g><g transform="translate(0 256)"><use fill="#000" filter="url(#e)" xlink:href="#f"/><use fill="#FFF" xlink:href="#f"/><g stroke-linecap="square"><use fill="#000" filter="url(#g)" xlink:href="#h"/><rect stroke-opacity=".098" stroke="#140B2F" fill="#FFF" x="-.5" y="-.5" width="257" height="157" rx="4"/></g><path d="M22.21 32h-2.015v-9.531h-3.468v-1.742h8.96v1.742h-3.476V32zm16.83-8.547L36.726 32h-2.04l-1.664-6.156h-.132L31.234 32H29.22l-2.313-8.547h1.953l1.422 6.383h.133l1.64-6.383h1.852l1.657 6.383h.132l1.414-6.383h1.93zm5.273 1.367c-1.157 0-1.97.828-2.055 2.078h4.023c-.039-1.265-.804-2.078-1.968-2.078zm1.984 4.828h1.836c-.367 1.555-1.781 2.524-3.797 2.524-2.516 0-4.031-1.664-4.031-4.414s1.539-4.477 4.015-4.477c2.438 0 3.899 1.617 3.899 4.313v.625H42.25v.101c.047 1.422.867 2.313 2.14 2.313.962 0 1.626-.352 1.907-.985zm7.453-4.828c-1.156 0-1.969.828-2.055 2.078h4.024c-.04-1.265-.805-2.078-1.969-2.078zm1.984 4.828h1.836c-.367 1.555-1.78 2.524-3.797 2.524-2.515 0-4.03-1.664-4.03-4.414s1.538-4.477 4.015-4.477c2.437 0 3.898 1.617 3.898 4.313v.625h-5.968v.101c.046 1.422.867 2.313 2.14 2.313.961 0 1.625-.352 1.906-.985zm4.485-8.234h1.93v2.094h1.874v1.547h-1.875v4.195c0 .844.36 1.219 1.172 1.219.274 0 .414-.016.64-.04v1.516a5.245 5.245 0 0 1-1 .094c-1.96 0-2.741-.664-2.741-2.32v-4.664h-1.39v-1.547h1.39v-2.094zM70.797 32v-6.945h-1.39v-1.547h1.39v-.852c0-1.734.898-2.437 2.773-2.437.344 0 .68.031 1.024.086v1.445a3.81 3.81 0 0 0-.742-.063c-.758 0-1.157.329-1.157 1.094v.727h1.852v1.547h-1.82V32h-1.93zm5.64 0v-8.547h1.868v1.328h.132c.235-.843 1.149-1.468 2.243-1.468.273 0 .61.03.797.085v1.797c-.149-.054-.68-.11-.985-.11-1.242 0-2.117.782-2.117 1.977V32h-1.938zm10.25-1.453c1.352 0 2.118-1.031 2.118-2.82 0-1.782-.774-2.82-2.118-2.82-1.351 0-2.124 1.038-2.124 2.82 0 1.789.773 2.82 2.124 2.82zm0 1.625c-2.562 0-4.109-1.672-4.109-4.445 0-2.758 1.57-4.446 4.11-4.446 2.546 0 4.109 1.68 4.109 4.446 0 2.773-1.555 4.445-4.11 4.445zM92.75 32v-8.547h1.867v1.383h.133c.367-.977 1.242-1.555 2.375-1.555 1.18 0 2 .594 2.36 1.555h.132c.422-.938 1.406-1.555 2.594-1.555 1.71 0 2.742 1.07 2.742 2.844V32h-1.93v-5.383c0-1.101-.523-1.648-1.562-1.648-1.008 0-1.672.734-1.672 1.71V32h-1.883v-5.523c0-.938-.594-1.508-1.547-1.508-.96 0-1.671.789-1.671 1.836V32H92.75zm24.898-6.648c-.906 0-1.445.718-1.445 1.93 0 1.202.547 1.929 1.438 1.929.921 0 1.507-.742 1.507-1.93 0-1.187-.578-1.93-1.5-1.93zm.266-4.641c3.727 0 6.29 2.36 6.29 5.789 0 2.508-1.165 4.086-3.024 4.086-.953 0-1.664-.5-1.805-1.258h-.14c-.329.797-.993 1.219-1.9 1.219-1.624 0-2.71-1.328-2.71-3.305 0-1.898 1.086-3.21 2.664-3.21.828 0 1.516.413 1.82 1.109h.141v-.946h1.43V28.5c0 .555.289.875.797.875.867 0 1.414-1.094 1.414-2.797 0-2.828-2.024-4.703-5.047-4.703-3.031 0-5.164 2.227-5.164 5.398 0 3.235 2.117 5.29 5.445 5.29.922 0 1.852-.126 2.305-.305v1.172c-.649.195-1.5.312-2.383.312-4.055 0-6.68-2.562-6.68-6.508 0-3.867 2.664-6.523 6.547-6.523zm15.766 5.617h-1.844c-.18-.828-.82-1.422-1.883-1.422-1.328 0-2.117 1.024-2.117 2.797 0 1.797.797 2.844 2.117 2.844 1.008 0 1.68-.477 1.883-1.367h1.844c-.211 1.789-1.555 2.992-3.72 2.992-2.57 0-4.085-1.656-4.085-4.469 0-2.773 1.508-4.422 4.078-4.422 2.195 0 3.524 1.25 3.727 3.047zM135.61 32V20.148h1.937V32h-1.938zm7.304-1.383c1.172 0 2.047-.758 2.047-1.75v-.68l-1.93.125c-1.086.07-1.594.461-1.594 1.157 0 .718.618 1.148 1.477 1.148zm-.57 1.524c-1.649 0-2.828-1-2.828-2.563 0-1.547 1.164-2.437 3.242-2.562l2.203-.133v-.719c0-.836-.563-1.305-1.61-1.305-.89 0-1.5.313-1.68.891h-1.827c.156-1.508 1.57-2.469 3.601-2.469 2.196 0 3.43 1.07 3.43 2.883V32h-1.867v-1.172h-.133c-.477.828-1.414 1.313-2.531 1.313zm6.86-.141v-8.547h1.866v1.328h.133c.234-.843 1.149-1.468 2.242-1.468.274 0 .61.03.797.085v1.797c-.148-.054-.68-.11-.984-.11-1.242 0-2.117.782-2.117 1.977V32h-1.938zm8.71-5.063l3.156-3.484h2.25l-3.406 3.664 3.64 4.883h-2.343l-2.742-3.664-.688.687V32h-1.937V20.148h1.937v6.79h.133zm10.719-2.117c-1.156 0-1.969.828-2.055 2.078h4.024c-.04-1.265-.805-2.078-1.97-2.078zm1.984 4.828h1.836c-.367 1.555-1.781 2.524-3.797 2.524-2.515 0-4.031-1.664-4.031-4.414s1.54-4.477 4.016-4.477c2.437 0 3.898 1.617 3.898 4.313v.625h-5.969v.101c.047 1.422.868 2.313 2.14 2.313.962 0 1.626-.352 1.907-.985zM20.517 56h-1.312v-7.26h-2.66v-1.195h6.627v1.195h-2.654V56zm12.422-6.38L31.187 56h-1.306l-1.319-4.7h-.1L27.15 56h-1.295l-1.757-6.38h1.277l1.143 4.868h.093l1.313-4.869h1.207l1.312 4.87h.1l1.137-4.87h1.26zM34.264 56v-6.38h1.254V56h-1.254zm.627-7.5c-.47 0-.815-.334-.815-.768 0-.439.346-.773.815-.773.468 0 .814.334.814.773 0 .434-.346.768-.814.768zm2.923-.428h1.26v1.576h1.43v1.061h-1.43v3.281c0 .668.276.961.903.961.193 0 .293-.012.468-.03v1.05a3.87 3.87 0 0 1-.674.064c-1.4 0-1.957-.492-1.957-1.722v-3.604h-1.048v-1.06h1.048v-1.577zm4.57 0h1.26v1.576h1.43v1.061h-1.43v3.281c0 .668.276.961.903.961.193 0 .293-.012.469-.03v1.05a3.87 3.87 0 0 1-.674.064c-1.4 0-1.957-.492-1.957-1.722v-3.604h-1.05v-1.06h1.05v-1.577zm6.745 2.496c-.932 0-1.582.657-1.652 1.653h3.222c-.03-1.002-.638-1.653-1.57-1.653zm1.564 3.71h1.213c-.287 1.142-1.306 1.845-2.765 1.845-1.828 0-2.948-1.254-2.948-3.293s1.143-3.334 2.942-3.334c1.775 0 2.847 1.213 2.847 3.217v.44h-4.505v.07c.04 1.119.691 1.828 1.699 1.828.761 0 1.283-.276 1.517-.774zM53.494 56v-6.38h1.213v.978h.094c.181-.627.885-1.084 1.717-1.084.181 0 .421.017.556.052v1.243c-.1-.036-.486-.077-.697-.077-.95 0-1.623.604-1.623 1.5V56h-1.26zm8.016 0v-6.38h1.213v1.025h.093c.282-.721.926-1.149 1.776-1.149.873 0 1.476.451 1.758 1.149h.1c.321-.698 1.054-1.149 1.939-1.149 1.289 0 2.039.78 2.039 2.11V56h-1.26v-4.066c0-.862-.41-1.284-1.236-1.284-.815 0-1.348.586-1.348 1.336V56h-1.236v-4.19c0-.72-.48-1.16-1.23-1.16-.768 0-1.348.627-1.348 1.448V56h-1.26zm13.306-5.432c-.931 0-1.582.657-1.652 1.653h3.223c-.03-1.002-.639-1.653-1.57-1.653zm1.565 3.71h1.213c-.287 1.142-1.307 1.845-2.766 1.845-1.828 0-2.947-1.254-2.947-3.293s1.142-3.334 2.941-3.334c1.776 0 2.848 1.213 2.848 3.217v.44h-4.506v.07c.041 1.119.691 1.828 1.7 1.828.761 0 1.282-.276 1.517-.774zM79.18 56v-6.38h1.214v1.013h.093c.31-.71 1.055-1.137 2.016-1.137 1.424 0 2.226.856 2.226 2.373V56h-1.26v-3.814c0-1.026-.456-1.536-1.394-1.536-1.013 0-1.635.621-1.635 1.618V56h-1.26zm7.764-7.928h1.26v1.576h1.43v1.061h-1.43v3.281c0 .668.275.961.902.961.194 0 .293-.012.47-.03v1.05a3.87 3.87 0 0 1-.675.064c-1.4 0-1.957-.492-1.957-1.722v-3.604h-1.049v-1.06h1.05v-1.577zM91.094 56v-6.38h1.254V56h-1.254zm.627-7.5c-.469 0-.815-.334-.815-.768 0-.439.346-.773.815-.773.468 0 .814.334.814.773 0 .434-.346.768-.814.768zm5.174 6.504c1.09 0 1.71-.809 1.71-2.197 0-1.383-.62-2.192-1.71-2.192-1.096 0-1.711.809-1.711 2.192 0 1.394.615 2.197 1.71 2.197zm0 1.119c-1.87 0-3.012-1.248-3.012-3.316 0-2.057 1.148-3.31 3.012-3.31 1.857 0 3.005 1.253 3.005 3.31 0 2.068-1.142 3.316-3.005 3.316zm4.517-.123v-6.38h1.213v1.013h.094c.31-.71 1.054-1.137 2.015-1.137 1.424 0 2.227.856 2.227 2.373V56h-1.26v-3.814c0-1.026-.457-1.536-1.394-1.536-1.014 0-1.635.621-1.635 1.618V56h-1.26zm7.172-4.576c0-1.131 1.037-1.928 2.478-1.928 1.436 0 2.374.668 2.497 1.793h-1.207c-.118-.469-.575-.768-1.29-.768-.703 0-1.236.334-1.236.833 0 .38.322.62 1.014.779l1.06.246c1.213.281 1.782.803 1.782 1.74 0 1.201-1.12 2.004-2.643 2.004-1.518 0-2.508-.685-2.62-1.816h1.26c.159.492.628.797 1.39.797.785 0 1.341-.352 1.341-.862 0-.38-.299-.627-.937-.78l-1.114-.257c-1.213-.287-1.775-.832-1.775-1.781z" fill="#7B7194"/><rect fill="#DCD5EE" x="16" y="72" width="224" height="12" rx="4"/><rect fill="#DCD5EE" x="16" y="100" width="136" height="12" rx="4"/><rect fill="#DCD5EE" x="16" y="128" width="80" height="12" rx="4"/><rect fill="#512DA8" x="168" y="100" width="72" height="12" rx="4"/></g><g transform="translate(272 56)"><use fill="#000" filter="url(#i)" xlink:href="#j"/><use fill="#FFF" xlink:href="#j"/><g stroke-linecap="square"><use fill="#000" filter="url(#k)" xlink:href="#l"/><rect stroke-opacity=".098" stroke="#140B2F" fill="#FFF" x="-.5" y="-.5" width="257" height="129" rx="4"/></g><rect fill="#DCD5EE" x="16" y="72" width="136" height="12" rx="4"/><rect fill="#512DA8" x="16" y="100" width="224" height="12" rx="4"/><rect fill="#512DA8" x="168" y="72" width="72" height="12" rx="4"/><path d="M22.813 32h-2.32l-3.938-11.273h2.226l2.836 8.921h.133l2.813-8.921h2.148L22.813 32zm5.664 0v-8.547h1.93V32h-1.93zm.96-9.938c-.703 0-1.195-.453-1.195-1.07s.492-1.07 1.195-1.07c.711 0 1.196.453 1.196 1.07s-.485 1.07-1.195 1.07zm3.172 3.836c0-1.546 1.407-2.617 3.422-2.617 2.032 0 3.305.899 3.446 2.453h-1.82c-.141-.601-.712-.984-1.618-.984-.883 0-1.547.422-1.547 1.04 0 .483.406.78 1.266.976l1.508.343c1.632.368 2.39 1.07 2.39 2.328 0 1.641-1.508 2.735-3.64 2.735-2.133 0-3.477-.922-3.625-2.477h1.914c.187.633.789 1.008 1.758 1.008.976 0 1.656-.43 1.656-1.062 0-.485-.367-.79-1.18-.97l-1.516-.35c-1.64-.376-2.414-1.134-2.414-2.423zM41.641 32v-8.547h1.93V32h-1.93zm.96-9.938c-.703 0-1.195-.453-1.195-1.07s.492-1.07 1.196-1.07c.71 0 1.195.453 1.195 1.07s-.484 1.07-1.195 1.07zm3.985-.648h1.93v2.094h1.875v1.547h-1.875v4.195c0 .844.359 1.219 1.172 1.219.273 0 .414-.016.64-.04v1.516a5.245 5.245 0 0 1-1 .094c-1.96 0-2.742-.664-2.742-2.32v-4.664h-1.39v-1.547h1.39v-2.094zm10.578 0h1.93v2.094h1.875v1.547h-1.875v4.195c0 .844.36 1.219 1.172 1.219.273 0 .414-.016.64-.04v1.516a5.245 5.245 0 0 1-1 .094c-1.96 0-2.742-.664-2.742-2.32v-4.664h-1.39v-1.547h1.39v-2.094zm9.383 9.133c1.351 0 2.117-1.031 2.117-2.82 0-1.782-.773-2.82-2.117-2.82-1.352 0-2.125 1.038-2.125 2.82 0 1.789.773 2.82 2.125 2.82zm0 1.625c-2.563 0-4.11-1.672-4.11-4.445 0-2.758 1.57-4.446 4.11-4.446 2.547 0 4.11 1.68 4.11 4.446 0 2.773-1.555 4.445-4.11 4.445zM84.352 32l-.954-2.883H79.25L78.281 32h-2.039l4-11.273h2.266L86.516 32h-2.164zm-3.086-9.125l-1.547 4.648h3.21l-1.53-4.648h-.133zm14.367 3.453h-1.844c-.18-.828-.82-1.422-1.883-1.422-1.328 0-2.117 1.024-2.117 2.797 0 1.797.797 2.844 2.117 2.844 1.008 0 1.68-.477 1.883-1.367h1.844c-.211 1.789-1.555 2.992-3.719 2.992-2.57 0-4.086-1.656-4.086-4.469 0-2.773 1.508-4.422 4.078-4.422 2.196 0 3.524 1.25 3.727 3.047zM97.484 32v-8.547h1.868v1.383h.132c.368-.977 1.243-1.555 2.375-1.555 1.18 0 2 .594 2.36 1.555h.133c.421-.938 1.406-1.555 2.593-1.555 1.711 0 2.743 1.07 2.743 2.844V32h-1.93v-5.383c0-1.101-.524-1.648-1.563-1.648-1.007 0-1.672.734-1.672 1.71V32h-1.882v-5.523c0-.938-.594-1.508-1.547-1.508-.961 0-1.672.789-1.672 1.836V32h-1.938zm18.086-7.18c-1.156 0-1.968.828-2.054 2.078h4.023c-.039-1.265-.805-2.078-1.969-2.078zm1.985 4.828h1.836c-.368 1.555-1.782 2.524-3.797 2.524-2.516 0-4.031-1.664-4.031-4.414s1.539-4.477 4.015-4.477c2.438 0 3.899 1.617 3.899 4.313v.625h-5.97v.101c.048 1.422.868 2.313 2.141 2.313.961 0 1.625-.352 1.907-.985zM20.529 56.205c-2.35 0-3.814-1.693-3.814-4.43 0-2.742 1.459-4.435 3.808-4.435 1.864 0 3.305 1.207 3.516 2.93h-1.307c-.246-1.038-1.095-1.706-2.209-1.706-1.517 0-2.466 1.237-2.466 3.211 0 1.97.949 3.205 2.472 3.205 1.12 0 1.969-.603 2.203-1.558h1.307c-.234 1.67-1.623 2.783-3.51 2.783zm7.782-1.201c1.09 0 1.71-.809 1.71-2.197 0-1.383-.62-2.192-1.71-2.192-1.096 0-1.711.809-1.711 2.192 0 1.394.615 2.197 1.71 2.197zm0 1.119c-1.87 0-3.012-1.248-3.012-3.316 0-2.057 1.148-3.31 3.012-3.31 1.857 0 3.005 1.253 3.005 3.31 0 2.068-1.142 3.316-3.005 3.316zM32.828 56v-6.38h1.213v1.013h.094c.31-.71 1.054-1.137 2.015-1.137 1.424 0 2.227.856 2.227 2.373V56h-1.26v-3.814c0-1.026-.457-1.536-1.394-1.536-1.014 0-1.635.621-1.635 1.618V56h-1.26zm7.764-7.928h1.26v1.576h1.43v1.061h-1.43v3.281c0 .668.275.961.902.961.193 0 .293-.012.469-.03v1.05a3.87 3.87 0 0 1-.674.064c-1.4 0-1.957-.492-1.957-1.722v-3.604h-1.049v-1.06h1.049v-1.577zm6.744 2.496c-.932 0-1.582.657-1.652 1.653h3.222c-.029-1.002-.638-1.653-1.57-1.653zm1.564 3.71h1.213c-.287 1.142-1.306 1.845-2.765 1.845-1.828 0-2.948-1.254-2.948-3.293s1.143-3.334 2.942-3.334c1.775 0 2.847 1.213 2.847 3.217v.44h-4.505v.07c.04 1.119.691 1.828 1.699 1.828.762 0 1.283-.276 1.517-.774zm5.186-.54h-.094L52.598 56h-1.383l2.115-3.176-2.133-3.205h1.471l1.371 2.25h.1l1.359-2.25h1.4l-2.103 3.152L56.922 56h-1.447l-1.39-2.262zm4.605-5.666h1.26v1.576h1.43v1.061h-1.43v3.281c0 .668.276.961.903.961.193 0 .292-.012.468-.03v1.05a3.87 3.87 0 0 1-.674.064c-1.4 0-1.957-.492-1.957-1.722v-3.604h-1.048v-1.06h1.048v-1.577zm9.627 1.547V56h-1.207v-1.014h-.1c-.31.727-1.036 1.137-1.997 1.137-1.418 0-2.256-.861-2.256-2.373v-4.13h1.26v3.814c0 1.03.474 1.523 1.406 1.523 1.013 0 1.64-.603 1.64-1.605v-3.733h1.254zm3.92 5.426c.95 0 1.653-.604 1.653-1.395v-.533l-1.559.1c-.879.058-1.277.357-1.277.92 0 .574.498.908 1.183.908zm-.322 1.06c-1.23 0-2.127-.744-2.127-1.91 0-1.148.856-1.81 2.373-1.904l1.729-.1v-.55c0-.674-.446-1.055-1.307-1.055-.703 0-1.19.258-1.33.709h-1.219c.13-1.096 1.16-1.799 2.608-1.799 1.6 0 2.502.797 2.502 2.145V56h-1.213v-.896h-.1c-.38.638-1.078 1.001-1.916 1.001zm5.08-.105v-8.871h1.26V56h-1.26zm6.451 0v-6.38h1.254V56h-1.254zm.627-7.5c-.469 0-.814-.334-.814-.768 0-.439.345-.773.814-.773s.815.334.815.773c0 .434-.346.768-.815.768zm2.479 7.5v-6.38h1.213v1.013h.093c.31-.71 1.055-1.137 2.016-1.137 1.424 0 2.227.856 2.227 2.373V56h-1.26v-3.814c0-1.026-.457-1.536-1.395-1.536-1.013 0-1.635.621-1.635 1.618V56h-1.26zm9.644-6.486c.867 0 1.635.45 1.998 1.16h.1v-1.055h1.219v8.45h-1.266v-3.036h-.1c-.386.692-1.06 1.072-1.962 1.072-1.618 0-2.631-1.271-2.631-3.298 0-2.01 1.03-3.293 2.642-3.293zm.346 5.46c1.072 0 1.728-.826 1.728-2.161 0-1.33-.662-2.168-1.722-2.168s-1.694.814-1.694 2.162c0 1.359.627 2.168 1.688 2.168zm10.3-5.355V56h-1.206v-1.014h-.1c-.31.727-1.037 1.137-1.998 1.137-1.418 0-2.256-.861-2.256-2.373v-4.13h1.26v3.814c0 1.03.475 1.523 1.406 1.523 1.014 0 1.64-.603 1.64-1.605v-3.733h1.255zM108.702 56v-6.38h1.254V56h-1.254zm.627-7.5c-.469 0-.814-.334-.814-.768 0-.439.345-.773.814-.773s.815.334.815.773c0 .434-.346.768-.815.768zm2.479 7.5v-6.38h1.213v.978h.093c.182-.627.885-1.084 1.717-1.084.182 0 .422.017.557.052v1.243c-.1-.036-.487-.077-.698-.077-.949 0-1.623.604-1.623 1.5V56h-1.26zm4.757 0v-6.38h1.254V56h-1.254zm.627-7.5c-.468 0-.814-.334-.814-.768 0-.439.346-.773.814-.773.47 0 .815.334.815.773 0 .434-.346.768-.815.768zm5.098 2.068c-.932 0-1.582.657-1.652 1.653h3.222c-.029-1.002-.638-1.653-1.57-1.653zm1.565 3.71h1.212c-.287 1.142-1.306 1.845-2.765 1.845-1.828 0-2.947-1.254-2.947-3.293s1.142-3.334 2.94-3.334c1.776 0 2.849 1.213 2.849 3.217v.44h-4.506v.07c.04 1.119.691 1.828 1.699 1.828.762 0 1.283-.276 1.518-.774zm2.654-2.854c0-1.131 1.037-1.928 2.478-1.928 1.436 0 2.373.668 2.496 1.793h-1.207c-.117-.469-.574-.768-1.289-.768-.703 0-1.236.334-1.236.833 0 .38.322.62 1.014.779l1.06.246c1.213.281 1.781.803 1.781 1.74 0 1.201-1.119 2.004-2.642 2.004-1.518 0-2.508-.685-2.62-1.816h1.26c.159.492.627.797 1.39.797.784 0 1.341-.352 1.341-.862 0-.38-.299-.627-.938-.78l-1.113-.257c-1.213-.287-1.775-.832-1.775-1.781z" fill="#7B7194"/></g><g transform="translate(272 200)"><use fill="#000" filter="url(#m)" xlink:href="#n"/><use fill="#FFF" xlink:href="#n"/><g stroke-linecap="square"><use fill="#000" filter="url(#o)" xlink:href="#p"/><rect stroke-opacity=".098" stroke="#140B2F" fill="#FFF" x="-.5" y="-.5" width="257" height="129" rx="4"/></g><path d="M22.21 32h-2.015v-9.531h-3.468v-1.742h8.96v1.742h-3.476V32zm16.83-8.547L36.726 32h-2.04l-1.664-6.156h-.132L31.234 32H29.22l-2.313-8.547h1.953l1.422 6.383h.133l1.64-6.383h1.852l1.657 6.383h.132l1.414-6.383h1.93zm5.273 1.367c-1.157 0-1.97.828-2.055 2.078h4.023c-.039-1.265-.804-2.078-1.968-2.078zm1.984 4.828h1.836c-.367 1.555-1.781 2.524-3.797 2.524-2.516 0-4.031-1.664-4.031-4.414s1.539-4.477 4.015-4.477c2.438 0 3.899 1.617 3.899 4.313v.625H42.25v.101c.047 1.422.867 2.313 2.14 2.313.962 0 1.626-.352 1.907-.985zm7.453-4.828c-1.156 0-1.969.828-2.055 2.078h4.024c-.04-1.265-.805-2.078-1.969-2.078zm1.984 4.828h1.836c-.367 1.555-1.78 2.524-3.797 2.524-2.515 0-4.03-1.664-4.03-4.414s1.538-4.477 4.015-4.477c2.437 0 3.898 1.617 3.898 4.313v.625h-5.968v.101c.046 1.422.867 2.313 2.14 2.313.961 0 1.625-.352 1.906-.985zm4.485-8.234h1.93v2.094h1.874v1.547h-1.875v4.195c0 .844.36 1.219 1.172 1.219.274 0 .414-.016.64-.04v1.516a5.245 5.245 0 0 1-1 .094c-1.96 0-2.741-.664-2.741-2.32v-4.664h-1.39v-1.547h1.39v-2.094zM70.797 32v-6.945h-1.39v-1.547h1.39v-.852c0-1.734.898-2.437 2.773-2.437.344 0 .68.031 1.024.086v1.445a3.81 3.81 0 0 0-.742-.063c-.758 0-1.157.329-1.157 1.094v.727h1.852v1.547h-1.82V32h-1.93zm5.64 0v-8.547h1.868v1.328h.132c.235-.843 1.149-1.468 2.243-1.468.273 0 .61.03.797.085v1.797c-.149-.054-.68-.11-.985-.11-1.242 0-2.117.782-2.117 1.977V32h-1.938zm10.25-1.453c1.352 0 2.118-1.031 2.118-2.82 0-1.782-.774-2.82-2.118-2.82-1.351 0-2.124 1.038-2.124 2.82 0 1.789.773 2.82 2.124 2.82zm0 1.625c-2.562 0-4.109-1.672-4.109-4.445 0-2.758 1.57-4.446 4.11-4.446 2.546 0 4.109 1.68 4.109 4.446 0 2.773-1.555 4.445-4.11 4.445zM92.75 32v-8.547h1.867v1.383h.133c.367-.977 1.242-1.555 2.375-1.555 1.18 0 2 .594 2.36 1.555h.132c.422-.938 1.406-1.555 2.594-1.555 1.71 0 2.742 1.07 2.742 2.844V32h-1.93v-5.383c0-1.101-.523-1.648-1.562-1.648-1.008 0-1.672.734-1.672 1.71V32h-1.883v-5.523c0-.938-.594-1.508-1.547-1.508-.96 0-1.671.789-1.671 1.836V32H92.75zm24.898-6.648c-.906 0-1.445.718-1.445 1.93 0 1.202.547 1.929 1.438 1.929.921 0 1.507-.742 1.507-1.93 0-1.187-.578-1.93-1.5-1.93zm.266-4.641c3.727 0 6.29 2.36 6.29 5.789 0 2.508-1.165 4.086-3.024 4.086-.953 0-1.664-.5-1.805-1.258h-.14c-.329.797-.993 1.219-1.9 1.219-1.624 0-2.71-1.328-2.71-3.305 0-1.898 1.086-3.21 2.664-3.21.828 0 1.516.413 1.82 1.109h.141v-.946h1.43V28.5c0 .555.289.875.797.875.867 0 1.414-1.094 1.414-2.797 0-2.828-2.024-4.703-5.047-4.703-3.031 0-5.164 2.227-5.164 5.398 0 3.235 2.117 5.29 5.445 5.29.922 0 1.852-.126 2.305-.305v1.172c-.649.195-1.5.312-2.383.312-4.055 0-6.68-2.562-6.68-6.508 0-3.867 2.664-6.523 6.547-6.523zm10.336 2.742v8.938c0 1.75-.96 2.601-2.875 2.601-.102 0-.414-.008-.469-.015v-1.532c.024.008.211.008.25.008.86 0 1.164-.32 1.164-1.094v-8.906h1.93zm-.969-1.39c-.703 0-1.195-.454-1.195-1.07 0-.618.492-1.071 1.195-1.071.711 0 1.196.453 1.196 1.07s-.485 1.07-1.196 1.07zm6.29 8.554c1.171 0 2.046-.758 2.046-1.75v-.68l-1.93.125c-1.085.07-1.593.461-1.593 1.157 0 .718.617 1.148 1.476 1.148zM133 32.141c-1.648 0-2.828-1-2.828-2.563 0-1.547 1.164-2.437 3.242-2.562l2.203-.133v-.719c0-.836-.562-1.305-1.61-1.305-.89 0-1.5.313-1.679.891H130.5c.156-1.508 1.57-2.469 3.602-2.469 2.195 0 3.43 1.07 3.43 2.883V32h-1.868v-1.172h-.133c-.476.828-1.414 1.313-2.531 1.313zm6.883-.141v-8.547h1.93V32h-1.93zm.96-9.938c-.702 0-1.195-.453-1.195-1.07s.493-1.07 1.196-1.07c.71 0 1.195.453 1.195 1.07s-.484 1.07-1.195 1.07zm3.173 3.836c0-1.546 1.406-2.617 3.422-2.617 2.03 0 3.304.899 3.445 2.453h-1.82c-.141-.601-.711-.984-1.618-.984-.882 0-1.547.422-1.547 1.04 0 .483.407.78 1.266.976l1.508.343c1.633.368 2.39 1.07 2.39 2.328 0 1.641-1.507 2.735-3.64 2.735s-3.477-.922-3.625-2.477h1.914c.187.633.789 1.008 1.758 1.008.976 0 1.656-.43 1.656-1.062 0-.485-.367-.79-1.18-.97l-1.515-.35c-1.64-.376-2.414-1.134-2.414-2.423zM153.102 32V20.148h1.906v4.688h.14c.407-.961 1.415-1.54 2.688-1.54 1.914 0 3.023 1.157 3.023 3.188V32h-1.93v-5.055c0-1.297-.624-1.96-1.812-1.96-1.273 0-2.078.828-2.078 2.054V32h-1.937zm12.976-1.383c1.172 0 2.047-.758 2.047-1.75v-.68l-1.93.125c-1.086.07-1.593.461-1.593 1.157 0 .718.617 1.148 1.476 1.148zm-.57 1.524c-1.649 0-2.828-1-2.828-2.563 0-1.547 1.164-2.437 3.242-2.562l2.203-.133v-.719c0-.836-.563-1.305-1.61-1.305-.89 0-1.5.313-1.68.891h-1.827c.156-1.508 1.57-2.469 3.601-2.469 2.196 0 3.43 1.07 3.43 2.883V32h-1.867v-1.172h-.133c-.476.828-1.414 1.313-2.531 1.313zm7.476-10.727h1.93v2.094h1.875v1.547h-1.875v4.195c0 .844.36 1.219 1.172 1.219.273 0 .414-.016.64-.04v1.516a5.245 5.245 0 0 1-1 .094c-1.96 0-2.742-.664-2.742-2.32v-4.664h-1.39v-1.547h1.39v-2.094zm13.313 2.04V32h-1.867v-1.36h-.133c-.414.977-1.383 1.532-2.649 1.532-1.882 0-3.046-1.164-3.046-3.188v-5.53h1.937v5.07c0 1.312.617 1.945 1.781 1.945 1.25 0 2.04-.774 2.04-2.04v-4.976h1.937zM20.517 56h-1.312v-7.26h-2.66v-1.195h6.627v1.195h-2.654V56zm12.422-6.38L31.187 56h-1.306l-1.319-4.7h-.1L27.15 56h-1.295l-1.757-6.38h1.277l1.143 4.868h.093l1.313-4.869h1.207l1.312 4.87h.1l1.137-4.87h1.26zM34.264 56v-6.38h1.254V56h-1.254zm.627-7.5c-.47 0-.815-.334-.815-.768 0-.439.346-.773.815-.773.468 0 .814.334.814.773 0 .434-.346.768-.814.768zm2.923-.428h1.26v1.576h1.43v1.061h-1.43v3.281c0 .668.276.961.903.961.193 0 .293-.012.468-.03v1.05a3.87 3.87 0 0 1-.674.064c-1.4 0-1.957-.492-1.957-1.722v-3.604h-1.048v-1.06h1.048v-1.577zm4.57 0h1.26v1.576h1.43v1.061h-1.43v3.281c0 .668.276.961.903.961.193 0 .293-.012.469-.03v1.05a3.87 3.87 0 0 1-.674.064c-1.4 0-1.957-.492-1.957-1.722v-3.604h-1.05v-1.06h1.05v-1.577zm6.745 2.496c-.932 0-1.582.657-1.652 1.653h3.222c-.03-1.002-.638-1.653-1.57-1.653zm1.564 3.71h1.213c-.287 1.142-1.306 1.845-2.765 1.845-1.828 0-2.948-1.254-2.948-3.293s1.143-3.334 2.942-3.334c1.775 0 2.847 1.213 2.847 3.217v.44h-4.505v.07c.04 1.119.691 1.828 1.699 1.828.761 0 1.283-.276 1.517-.774zM53.494 56v-6.38h1.213v.978h.094c.181-.627.885-1.084 1.717-1.084.181 0 .421.017.556.052v1.243c-.1-.036-.486-.077-.697-.077-.95 0-1.623.604-1.623 1.5V56h-1.26zm8.016 0v-6.38h1.213v1.025h.093c.282-.721.926-1.149 1.776-1.149.873 0 1.476.451 1.758 1.149h.1c.321-.698 1.054-1.149 1.939-1.149 1.289 0 2.039.78 2.039 2.11V56h-1.26v-4.066c0-.862-.41-1.284-1.236-1.284-.815 0-1.348.586-1.348 1.336V56h-1.236v-4.19c0-.72-.48-1.16-1.23-1.16-.768 0-1.348.627-1.348 1.448V56h-1.26zm13.306-5.432c-.931 0-1.582.657-1.652 1.653h3.223c-.03-1.002-.639-1.653-1.57-1.653zm1.565 3.71h1.213c-.287 1.142-1.307 1.845-2.766 1.845-1.828 0-2.947-1.254-2.947-3.293s1.142-3.334 2.941-3.334c1.776 0 2.848 1.213 2.848 3.217v.44h-4.506v.07c.041 1.119.691 1.828 1.7 1.828.761 0 1.282-.276 1.517-.774zM79.18 56v-6.38h1.214v1.013h.093c.31-.71 1.055-1.137 2.016-1.137 1.424 0 2.226.856 2.226 2.373V56h-1.26v-3.814c0-1.026-.456-1.536-1.394-1.536-1.013 0-1.635.621-1.635 1.618V56h-1.26zm7.764-7.928h1.26v1.576h1.43v1.061h-1.43v3.281c0 .668.275.961.902.961.194 0 .293-.012.47-.03v1.05a3.87 3.87 0 0 1-.675.064c-1.4 0-1.957-.492-1.957-1.722v-3.604h-1.049v-1.06h1.05v-1.577zM91.094 56v-6.38h1.254V56h-1.254zm.627-7.5c-.469 0-.815-.334-.815-.768 0-.439.346-.773.815-.773.468 0 .814.334.814.773 0 .434-.346.768-.814.768zm5.174 6.504c1.09 0 1.71-.809 1.71-2.197 0-1.383-.62-2.192-1.71-2.192-1.096 0-1.711.809-1.711 2.192 0 1.394.615 2.197 1.71 2.197zm0 1.119c-1.87 0-3.012-1.248-3.012-3.316 0-2.057 1.148-3.31 3.012-3.31 1.857 0 3.005 1.253 3.005 3.31 0 2.068-1.142 3.316-3.005 3.316zm4.517-.123v-6.38h1.213v1.013h.094c.31-.71 1.054-1.137 2.015-1.137 1.424 0 2.227.856 2.227 2.373V56h-1.26v-3.814c0-1.026-.457-1.536-1.394-1.536-1.014 0-1.635.621-1.635 1.618V56h-1.26zm7.172-4.576c0-1.131 1.037-1.928 2.478-1.928 1.436 0 2.374.668 2.497 1.793h-1.207c-.118-.469-.575-.768-1.29-.768-.703 0-1.236.334-1.236.833 0 .38.322.62 1.014.779l1.06.246c1.213.281 1.782.803 1.782 1.74 0 1.201-1.12 2.004-2.643 2.004-1.518 0-2.508-.685-2.62-1.816h1.26c.159.492.628.797 1.39.797.785 0 1.341-.352 1.341-.862 0-.38-.299-.627-.937-.78l-1.114-.257c-1.213-.287-1.775-.832-1.775-1.781z" fill="#7B7194"/><rect fill="#DCD5EE" x="16" y="72" width="224" height="12" rx="4"/><rect fill="#5182F8" x="16" y="100" width="136" height="12" rx="4"/><rect fill="#DCD5EE" x="168" y="100" width="72" height="12" rx="4"/></g><g transform="translate(544 56)"><use fill="#000" filter="url(#q)" xlink:href="#r"/><use fill="#FFF" xlink:href="#r"/><g stroke-linecap="square"><use fill="#000" filter="url(#s)" xlink:href="#t"/><rect stroke-opacity=".098" stroke="#140B2F" fill="#FFF" x="-.5" y="-.5" width="257" height="161" rx="4"/></g><path d="M22.21 32h-2.015v-9.531h-3.468v-1.742h8.96v1.742h-3.476V32zm5.384 0v-8.547h1.867v1.328h.133c.234-.843 1.148-1.468 2.242-1.468.273 0 .61.03.797.085v1.797c-.149-.054-.68-.11-.985-.11-1.242 0-2.117.782-2.117 1.977V32h-1.937zm6.586 0v-8.547h1.93V32h-1.93zm.96-9.938c-.703 0-1.195-.453-1.195-1.07s.492-1.07 1.196-1.07c.71 0 1.195.453 1.195 1.07s-.484 1.07-1.195 1.07zM38.509 32v-8.547h1.867v1.367h.133c.406-.953 1.406-1.539 2.687-1.539 1.907 0 2.977 1.149 2.977 3.188V32h-1.93v-5.07c0-1.305-.594-1.961-1.765-1.961-1.25 0-2.032.797-2.032 2.054V32h-1.937zm12.883-1.383c1.172 0 2.047-.758 2.047-1.75v-.68l-1.93.125c-1.086.07-1.594.461-1.594 1.157 0 .718.617 1.148 1.477 1.148zm-.57 1.524c-1.65 0-2.829-1-2.829-2.563 0-1.547 1.164-2.437 3.242-2.562l2.203-.133v-.719c0-.836-.562-1.305-1.609-1.305-.89 0-1.5.313-1.68.891H48.32c.157-1.508 1.57-2.469 3.602-2.469 2.195 0 3.43 1.07 3.43 2.883V32h-1.868v-1.172h-.132c-.477.828-1.414 1.313-2.532 1.313zm16.03.14c-3.195 0-5.18-2.265-5.18-5.914 0-3.664 1.977-5.922 5.173-5.922 2.562 0 4.539 1.672 4.773 4.024h-1.984c-.281-1.352-1.367-2.227-2.79-2.227-1.913 0-3.109 1.578-3.109 4.117 0 2.547 1.196 4.125 3.118 4.125 1.43 0 2.515-.797 2.789-2.062h1.984c-.266 2.305-2.172 3.86-4.773 3.86zm9.727-1.664c1.172 0 2.047-.758 2.047-1.75v-.68l-1.93.125c-1.086.07-1.593.461-1.593 1.157 0 .718.617 1.148 1.476 1.148zm-.57 1.524c-1.649 0-2.828-1-2.828-2.563 0-1.547 1.164-2.437 3.242-2.562l2.203-.133v-.719c0-.836-.563-1.305-1.61-1.305-.89 0-1.5.313-1.68.891h-1.827c.156-1.508 1.57-2.469 3.601-2.469 2.196 0 3.43 1.07 3.43 2.883V32h-1.867v-1.172h-.133c-.477.828-1.414 1.313-2.531 1.313zm6.664-6.243c0-1.546 1.406-2.617 3.422-2.617 2.031 0 3.304.899 3.445 2.453h-1.82c-.14-.601-.711-.984-1.617-.984-.883 0-1.547.422-1.547 1.04 0 .483.406.78 1.265.976l1.508.343c1.633.368 2.39 1.07 2.39 2.328 0 1.641-1.507 2.735-3.64 2.735s-3.476-.922-3.625-2.477h1.914c.188.633.79 1.008 1.758 1.008.977 0 1.656-.43 1.656-1.062 0-.485-.367-.79-1.18-.97l-1.515-.35c-1.64-.376-2.414-1.134-2.414-2.423zm8.812 0c0-1.546 1.407-2.617 3.422-2.617 2.031 0 3.305.899 3.446 2.453h-1.82c-.141-.601-.712-.984-1.618-.984-.883 0-1.547.422-1.547 1.04 0 .483.406.78 1.266.976l1.508.343c1.632.368 2.39 1.07 2.39 2.328 0 1.641-1.508 2.735-3.64 2.735-2.133 0-3.477-.922-3.625-2.477h1.914c.187.633.789 1.008 1.757 1.008.977 0 1.657-.43 1.657-1.062 0-.485-.367-.79-1.18-.97l-1.516-.35c-1.64-.376-2.414-1.134-2.414-2.423zM100.516 32v-8.547h1.93V32h-1.93zm.96-9.938c-.703 0-1.195-.453-1.195-1.07s.492-1.07 1.196-1.07c.71 0 1.195.453 1.195 1.07s-.484 1.07-1.195 1.07zm6.954 2.758c-1.157 0-1.97.828-2.055 2.078h4.023c-.039-1.265-.804-2.078-1.968-2.078zm1.984 4.828h1.836c-.367 1.555-1.781 2.524-3.797 2.524-2.516 0-4.031-1.664-4.031-4.414s1.539-4.477 4.016-4.477c2.437 0 3.898 1.617 3.898 4.313v.625h-5.969v.101c.047 1.422.867 2.313 2.14 2.313.962 0 1.626-.352 1.907-.985zM20.53 56.205c-2.35 0-3.814-1.693-3.814-4.43 0-2.742 1.459-4.435 3.808-4.435 1.864 0 3.305 1.207 3.516 2.93h-1.307c-.246-1.038-1.095-1.706-2.209-1.706-1.517 0-2.466 1.237-2.466 3.211 0 1.97.949 3.205 2.472 3.205 1.12 0 1.969-.603 2.203-1.558h1.307c-.234 1.67-1.623 2.783-3.51 2.783zm10.588-6.586V56H29.91v-1.014h-.1c-.31.727-1.037 1.137-1.997 1.137-1.418 0-2.256-.861-2.256-2.373v-4.13h1.26v3.814c0 1.03.474 1.523 1.406 1.523 1.013 0 1.64-.603 1.64-1.605v-3.733h1.254zm1.688 1.805c0-1.131 1.037-1.928 2.478-1.928 1.436 0 2.373.668 2.496 1.793h-1.207c-.117-.469-.574-.768-1.289-.768-.703 0-1.236.334-1.236.833 0 .38.322.62 1.014.779l1.06.246c1.213.281 1.781.803 1.781 1.74 0 1.201-1.119 2.004-2.642 2.004-1.518 0-2.508-.685-2.62-1.816h1.26c.159.492.627.797 1.39.797.784 0 1.34-.352 1.34-.862 0-.38-.298-.627-.937-.78l-1.113-.257c-1.213-.287-1.775-.832-1.775-1.781zm7.06-3.352h1.26v1.576h1.43v1.061h-1.43v3.281c0 .668.275.961.902.961.194 0 .293-.012.47-.03v1.05a3.87 3.87 0 0 1-.675.064c-1.4 0-1.957-.492-1.957-1.722v-3.604h-1.049v-1.06h1.05v-1.577zm6.82 6.932c1.09 0 1.711-.809 1.711-2.197 0-1.383-.62-2.192-1.71-2.192-1.096 0-1.711.809-1.711 2.192 0 1.394.615 2.197 1.71 2.197zm0 1.119c-1.869 0-3.011-1.248-3.011-3.316 0-2.057 1.148-3.31 3.012-3.31 1.857 0 3.005 1.253 3.005 3.31 0 2.068-1.142 3.316-3.005 3.316zM51.204 56v-6.38h1.213v1.025h.094c.281-.721.926-1.149 1.775-1.149.873 0 1.477.451 1.758 1.149h.1c.322-.698 1.054-1.149 1.939-1.149 1.29 0 2.04.78 2.04 2.11V56h-1.26v-4.066c0-.862-.41-1.284-1.237-1.284-.814 0-1.348.586-1.348 1.336V56h-1.236v-4.19c0-.72-.48-1.16-1.23-1.16-.768 0-1.348.627-1.348 1.448V56h-1.26zm13.307-5.432c-.932 0-1.582.657-1.653 1.653h3.223c-.03-1.002-.639-1.653-1.57-1.653zm1.564 3.71h1.213c-.287 1.142-1.307 1.845-2.766 1.845-1.828 0-2.947-1.254-2.947-3.293s1.143-3.334 2.942-3.334c1.775 0 2.847 1.213 2.847 3.217v.44h-4.506v.07c.041 1.119.692 1.828 1.7 1.828.761 0 1.283-.276 1.517-.774zM68.875 56v-6.38h1.213v.978h.094c.181-.627.884-1.084 1.716-1.084.182 0 .422.017.557.052v1.243c-.1-.036-.486-.077-.697-.077-.95 0-1.623.604-1.623 1.5V56h-1.26zm8.04 0v-6.38h1.253V56h-1.254zm.626-7.5c-.469 0-.814-.334-.814-.768 0-.439.345-.773.814-.773s.814.334.814.773c0 .434-.345.768-.814.768zM80.02 56v-6.38h1.212v1.013h.094c.31-.71 1.055-1.137 2.016-1.137 1.424 0 2.226.856 2.226 2.373V56h-1.26v-3.814c0-1.026-.456-1.536-1.394-1.536-1.014 0-1.635.621-1.635 1.618V56h-1.26zm7.763-7.928h1.26v1.576h1.43v1.061h-1.43v3.281c0 .668.275.961.902.961.194 0 .293-.012.47-.03v1.05a3.87 3.87 0 0 1-.675.064c-1.4 0-1.957-.492-1.957-1.722v-3.604h-1.049v-1.06h1.05v-1.577zm6.744 2.496c-.931 0-1.582.657-1.652 1.653h3.223c-.03-1.002-.639-1.653-1.57-1.653zm1.565 3.71h1.213c-.287 1.142-1.307 1.845-2.766 1.845-1.828 0-2.947-1.254-2.947-3.293s1.142-3.334 2.941-3.334c1.776 0 2.848 1.213 2.848 3.217v.44h-4.506v.07c.041 1.119.691 1.828 1.7 1.828.76 0 1.282-.276 1.517-.774zm2.8 1.722v-6.38h1.213v.978h.094c.182-.627.885-1.084 1.717-1.084.182 0 .422.017.557.052v1.243c-.1-.036-.487-.077-.698-.077-.949 0-1.623.604-1.623 1.5V56h-1.26zm4.184-6.38h1.348l1.588 5.032h.1l1.581-5.033h1.336L106.732 56h-1.353l-2.303-6.38zM110.33 56v-6.38h1.254V56h-1.254zm.627-7.5c-.469 0-.814-.334-.814-.768 0-.439.345-.773.814-.773s.814.334.814.773c0 .434-.345.768-.814.768zm5.098 2.068c-.932 0-1.582.657-1.653 1.653h3.223c-.03-1.002-.639-1.653-1.57-1.653zm1.564 3.71h1.213c-.287 1.142-1.307 1.845-2.766 1.845-1.828 0-2.947-1.254-2.947-3.293s1.143-3.334 2.942-3.334c1.775 0 2.847 1.213 2.847 3.217v.44h-4.506v.07c.041 1.119.692 1.828 1.7 1.828.761 0 1.283-.276 1.517-.774zm11.11-4.659L126.977 56h-1.307l-1.318-4.7h-.1l-1.313 4.7h-1.294l-1.758-6.38h1.277l1.143 4.868h.093l1.313-4.869h1.207l1.312 4.87h.1l1.137-4.87h1.26zm1.154 1.805c0-1.131 1.037-1.928 2.478-1.928 1.436 0 2.373.668 2.496 1.793h-1.207c-.117-.469-.574-.768-1.289-.768-.703 0-1.236.334-1.236.833 0 .38.322.62 1.014.779l1.06.246c1.213.281 1.781.803 1.781 1.74 0 1.201-1.119 2.004-2.642 2.004-1.518 0-2.508-.685-2.62-1.816h1.26c.159.492.627.797 1.39.797.784 0 1.341-.352 1.341-.862 0-.38-.299-.627-.938-.78l-1.113-.257c-1.213-.287-1.775-.832-1.775-1.781z" fill="#7B7194"/><rect fill="#DCD5EE" x="16" y="128" width="96" height="12" rx="4"/><rect fill="#DCD5EE" x="128" y="128" width="112" height="12" rx="4"/><rect fill="#512DA8" x="16" y="100" width="136" height="12" rx="4"/><rect fill="#512DA8" x="16" y="72" width="224" height="12" rx="4"/></g><g transform="translate(544 232)"><use fill="#000" filter="url(#u)" xlink:href="#v"/><use fill="#FFF" xlink:href="#v"/><g stroke-linecap="square"><use fill="#000" filter="url(#w)" xlink:href="#x"/><rect stroke-opacity=".098" stroke="#140B2F" fill="#FFF" x="-.5" y="-.5" width="257" height="129" rx="4"/></g><path d="M24.664 32l-.953-2.883h-4.148L18.593 32h-2.038l4-11.273h2.265L26.828 32h-2.164zm-3.086-9.125l-1.547 4.648h3.211l-1.531-4.648h-.133zm10.078 9.266c-2.164 0-3.515-1.703-3.515-4.422 0-2.703 1.359-4.407 3.515-4.407 1.172 0 2.14.563 2.594 1.5h.133v-4.664h1.937V32h-1.875v-1.352h-.133c-.484.938-1.468 1.493-2.656 1.493zm.602-7.18c-1.32 0-2.133 1.047-2.133 2.766 0 1.726.805 2.765 2.133 2.765 1.336 0 2.148-1.047 2.148-2.765 0-1.704-.82-2.766-2.148-2.766zm9.43 5.656c1.171 0 2.046-.758 2.046-1.75v-.68l-1.93.125c-1.085.07-1.593.461-1.593 1.157 0 .718.617 1.148 1.477 1.148zm-.57 1.524c-1.65 0-2.829-1-2.829-2.563 0-1.547 1.164-2.437 3.242-2.562l2.203-.133v-.719c0-.836-.562-1.305-1.609-1.305-.89 0-1.5.313-1.68.891h-1.828c.156-1.508 1.57-2.469 3.602-2.469 2.195 0 3.43 1.07 3.43 2.883V32H43.78v-1.172h-.133c-.476.828-1.414 1.313-2.53 1.313zM47.976 32v-8.547h1.867v1.383h.133c.367-.977 1.242-1.555 2.375-1.555 1.18 0 2 .594 2.359 1.555h.133c.422-.938 1.406-1.555 2.593-1.555 1.711 0 2.743 1.07 2.743 2.844V32h-1.93v-5.383c0-1.101-.523-1.648-1.563-1.648-1.007 0-1.671.734-1.671 1.71V32h-1.883v-5.523c0-.938-.594-1.508-1.547-1.508-.961 0-1.672.789-1.672 1.836V32h-1.937zm25.468-7.984L71.165 32h-1.9l-3.023-11.273h2.102l1.93 8.39h.117l2.218-8.39h1.79l2.25 8.39h.109l1.93-8.39h2.085L77.75 32h-1.89l-2.297-7.984h-.118zM18.396 47.545v5.426c0 1.183.768 2.004 2.11 2.004 1.348 0 2.115-.82 2.115-2.004v-5.426h1.313v5.543c0 1.834-1.307 3.117-3.428 3.117s-3.422-1.283-3.422-3.117v-5.543h1.312zm7.383 3.879c0-1.131 1.037-1.928 2.479-1.928 1.435 0 2.373.668 2.496 1.793h-1.207c-.117-.469-.574-.768-1.29-.768-.702 0-1.236.334-1.236.833 0 .38.323.62 1.014.779l1.06.246c1.214.281 1.782.803 1.782 1.74 0 1.201-1.12 2.004-2.643 2.004-1.517 0-2.507-.685-2.619-1.816h1.26c.158.492.627.797 1.389.797.785 0 1.341-.352 1.341-.862 0-.38-.298-.627-.937-.78l-1.113-.257c-1.213-.287-1.776-.832-1.776-1.781zm8.701 3.62c.95 0 1.653-.603 1.653-1.394v-.533l-1.559.1c-.879.058-1.277.357-1.277.92 0 .574.498.908 1.183.908zm-.322 1.061c-1.23 0-2.127-.744-2.127-1.91 0-1.148.856-1.81 2.373-1.904l1.729-.1v-.55c0-.674-.446-1.055-1.307-1.055-.703 0-1.19.258-1.33.709h-1.219c.13-1.096 1.16-1.799 2.608-1.799 1.6 0 2.502.797 2.502 2.145V56h-1.213v-.896h-.1c-.38.638-1.078 1.001-1.916 1.001zm8.403 0c-.891 0-1.635-.41-2.016-1.113h-.094V56h-1.213v-8.871h1.26v3.504h.1c.34-.697 1.09-1.12 1.963-1.12 1.617 0 2.636 1.266 2.636 3.294 0 2.021-1.025 3.298-2.636 3.298zm-.364-5.46c-1.054 0-1.717.832-1.722 2.167.005 1.336.662 2.163 1.722 2.163 1.067 0 1.705-.815 1.705-2.168 0-1.342-.638-2.162-1.705-2.162zM46.732 56v-6.38h1.254V56h-1.254zm.627-7.5c-.468 0-.814-.334-.814-.768 0-.439.346-.773.814-.773.47 0 .815.334.815.773 0 .434-.346.768-.815.768zm2.537 7.5v-8.871h1.26V56h-1.26zm3.17 0v-6.38h1.254V56h-1.254zm.627-7.5c-.468 0-.814-.334-.814-.768 0-.439.346-.773.814-.773.47 0 .815.334.815.773 0 .434-.346.768-.815.768zm2.924-.428h1.26v1.576h1.43v1.061h-1.43v3.281c0 .668.275.961.902.961.194 0 .293-.012.469-.03v1.05a3.87 3.87 0 0 1-.674.064c-1.4 0-1.957-.492-1.957-1.722v-3.604h-1.049v-1.06h1.05v-1.577zm4.758 10.248c-.105 0-.404-.006-.521-.029v-1.084c.1.018.292.023.41.023.597 0 .937-.251 1.154-.896l.094-.31-2.309-6.405h1.371l1.6 5.069h.1l1.593-5.069h1.336l-2.379 6.645c-.545 1.552-1.148 2.056-2.449 2.056zm9.844-10.248h1.26v1.576h1.43v1.061h-1.43v3.281c0 .668.275.961.902.961.193 0 .293-.012.469-.03v1.05a3.87 3.87 0 0 1-.674.064c-1.4 0-1.957-.492-1.957-1.722v-3.604h-1.05v-1.06h1.05v-1.577zm6.744 2.496c-.932 0-1.582.657-1.652 1.653h3.222c-.03-1.002-.638-1.653-1.57-1.653zm1.564 3.71h1.213c-.287 1.142-1.306 1.845-2.765 1.845-1.829 0-2.948-1.254-2.948-3.293s1.143-3.334 2.942-3.334c1.775 0 2.847 1.213 2.847 3.217v.44h-4.505v.07c.04 1.119.691 1.828 1.699 1.828.761 0 1.283-.276 1.517-.774zm2.655-2.854c0-1.131 1.037-1.928 2.478-1.928 1.436 0 2.373.668 2.496 1.793H85.95c-.117-.469-.574-.768-1.289-.768-.703 0-1.236.334-1.236.833 0 .38.322.62 1.013.779l1.061.246c1.213.281 1.781.803 1.781 1.74 0 1.201-1.119 2.004-2.642 2.004-1.518 0-2.508-.685-2.62-1.816h1.26c.159.492.627.797 1.389.797.785 0 1.342-.352 1.342-.862 0-.38-.299-.627-.938-.78l-1.113-.257c-1.213-.287-1.775-.832-1.775-1.781zm7.06-3.352h1.26v1.576h1.43v1.061h-1.43v3.281c0 .668.275.961.902.961.194 0 .293-.012.469-.03v1.05a3.87 3.87 0 0 1-.674.064c-1.4 0-1.957-.492-1.957-1.722v-3.604h-1.049v-1.06h1.05v-1.577zm3.979 3.352c0-1.131 1.037-1.928 2.478-1.928 1.436 0 2.373.668 2.496 1.793h-1.207c-.117-.469-.574-.768-1.289-.768-.703 0-1.236.334-1.236.833 0 .38.322.62 1.014.779l1.06.246c1.213.281 1.781.803 1.781 1.74 0 1.201-1.119 2.004-2.642 2.004-1.518 0-2.508-.685-2.62-1.816h1.26c.159.492.627.797 1.39.797.784 0 1.34-.352 1.34-.862 0-.38-.298-.627-.937-.78l-1.113-.257c-1.213-.287-1.775-.832-1.775-1.781z" fill="#7B7194"/><rect fill="#DCD5EE" x="16" y="72" width="224" height="12" rx="4"/><rect fill="#F84F77" x="16" y="100" width="136" height="12" rx="4"/><rect fill="#DCD5EE" x="168" y="100" width="72" height="12" rx="4"/></g><g transform="translate(272 344)"><use fill="#000" filter="url(#y)" xlink:href="#z"/><use fill="#FFF" xlink:href="#z"/><g stroke-linecap="square"><use fill="#000" filter="url(#A)" xlink:href="#B"/><rect stroke-opacity=".098" stroke="#140B2F" fill="#FFF" x="-.5" y="-.5" width="257" height="157" rx="4"/></g><path d="M23.89 24.016L21.61 32h-1.9l-3.023-11.273h2.102l1.93 8.39h.117l2.219-8.39h1.789l2.25 8.39h.11l1.929-8.39h2.086L28.195 32h-1.89l-2.297-7.984h-.117zM33.118 32v-8.547h1.93V32h-1.93zm.961-9.938c-.703 0-1.195-.453-1.195-1.07s.492-1.07 1.195-1.07c.711 0 1.195.453 1.195 1.07s-.484 1.07-1.195 1.07zM37.523 32V20.148h1.938V32h-1.938zm4.461 0V20.148h1.938V32h-1.938zm4.407 0v-8.547h1.93V32h-1.93zm.96-9.938c-.703 0-1.195-.453-1.195-1.07s.492-1.07 1.196-1.07c.71 0 1.195.453 1.195 1.07s-.484 1.07-1.195 1.07zm6.29 8.555c1.172 0 2.047-.758 2.047-1.75v-.68l-1.93.125c-1.086.07-1.594.461-1.594 1.157 0 .718.617 1.148 1.477 1.148zm-.57 1.524c-1.65 0-2.829-1-2.829-2.563 0-1.547 1.164-2.437 3.242-2.562l2.203-.133v-.719c0-.836-.562-1.305-1.609-1.305-.89 0-1.5.313-1.68.891H50.57c.157-1.508 1.57-2.469 3.602-2.469 2.195 0 3.43 1.07 3.43 2.883V32h-1.868v-1.172h-.132c-.477.828-1.414 1.313-2.532 1.313zM59.93 32v-8.547h1.867v1.383h.133c.367-.977 1.242-1.555 2.375-1.555 1.18 0 2 .594 2.36 1.555h.132c.422-.938 1.406-1.555 2.594-1.555 1.71 0 2.742 1.07 2.742 2.844V32h-1.93v-5.383c0-1.101-.523-1.648-1.562-1.648-1.008 0-1.672.734-1.672 1.71V32h-1.883v-5.523c0-.938-.594-1.508-1.547-1.508-.96 0-1.672.789-1.672 1.836V32H59.93zm18.968-11.273h4.547c2.25 0 3.79 1.539 3.79 3.812 0 2.234-1.594 3.766-3.876 3.766h-2.445V32h-2.016V20.727zm2.016 1.687v4.219h1.992c1.438 0 2.281-.75 2.281-2.094 0-1.383-.82-2.125-2.273-2.125h-2zm-62.518 25.13v5.427c0 1.183.768 2.004 2.11 2.004 1.348 0 2.115-.82 2.115-2.004v-5.426h1.313v5.543c0 1.834-1.307 3.117-3.428 3.117s-3.422-1.283-3.422-3.117v-5.543h1.312zm7.383 3.88c0-1.131 1.037-1.928 2.479-1.928 1.435 0 2.373.668 2.496 1.793h-1.207c-.117-.469-.574-.768-1.29-.768-.702 0-1.236.334-1.236.833 0 .38.323.62 1.014.779l1.06.246c1.214.281 1.782.803 1.782 1.74 0 1.201-1.12 2.004-2.643 2.004-1.517 0-2.507-.685-2.619-1.816h1.26c.158.492.627.797 1.389.797.785 0 1.341-.352 1.341-.862 0-.38-.298-.627-.937-.78l-1.113-.257c-1.213-.287-1.776-.832-1.776-1.781zm8.701 3.62c.95 0 1.653-.603 1.653-1.394v-.533l-1.559.1c-.879.058-1.277.357-1.277.92 0 .574.498.908 1.183.908zm-.322 1.061c-1.23 0-2.127-.744-2.127-1.91 0-1.148.856-1.81 2.373-1.904l1.729-.1v-.55c0-.674-.446-1.055-1.307-1.055-.703 0-1.19.258-1.33.709h-1.219c.13-1.096 1.16-1.799 2.608-1.799 1.6 0 2.502.797 2.502 2.145V56h-1.213v-.896h-.1c-.38.638-1.078 1.001-1.916 1.001zm8.403 0c-.891 0-1.635-.41-2.016-1.113h-.094V56h-1.213v-8.871h1.26v3.504h.1c.34-.697 1.09-1.12 1.963-1.12 1.617 0 2.636 1.266 2.636 3.294 0 2.021-1.025 3.298-2.636 3.298zm-.364-5.46c-1.054 0-1.717.832-1.722 2.167.005 1.336.662 2.163 1.722 2.163 1.067 0 1.705-.815 1.705-2.168 0-1.342-.638-2.162-1.705-2.162zM46.732 56v-6.38h1.254V56h-1.254zm.627-7.5c-.468 0-.814-.334-.814-.768 0-.439.346-.773.814-.773.47 0 .815.334.815.773 0 .434-.346.768-.815.768zm2.537 7.5v-8.871h1.26V56h-1.26zm3.17 0v-6.38h1.254V56h-1.254zm.627-7.5c-.468 0-.814-.334-.814-.768 0-.439.346-.773.814-.773.47 0 .815.334.815.773 0 .434-.346.768-.815.768zm2.924-.428h1.26v1.576h1.43v1.061h-1.43v3.281c0 .668.275.961.902.961.194 0 .293-.012.469-.03v1.05a3.87 3.87 0 0 1-.674.064c-1.4 0-1.957-.492-1.957-1.722v-3.604h-1.049v-1.06h1.05v-1.577zm4.758 10.248c-.105 0-.404-.006-.521-.029v-1.084c.1.018.292.023.41.023.597 0 .937-.251 1.154-.896l.094-.31-2.309-6.405h1.371l1.6 5.069h.1l1.593-5.069h1.336l-2.379 6.645c-.545 1.552-1.148 2.056-2.449 2.056zm9.844-10.248h1.26v1.576h1.43v1.061h-1.43v3.281c0 .668.275.961.902.961.193 0 .293-.012.469-.03v1.05a3.87 3.87 0 0 1-.674.064c-1.4 0-1.957-.492-1.957-1.722v-3.604h-1.05v-1.06h1.05v-1.577zm6.744 2.496c-.932 0-1.582.657-1.652 1.653h3.222c-.03-1.002-.638-1.653-1.57-1.653zm1.564 3.71h1.213c-.287 1.142-1.306 1.845-2.765 1.845-1.829 0-2.948-1.254-2.948-3.293s1.143-3.334 2.942-3.334c1.775 0 2.847 1.213 2.847 3.217v.44h-4.505v.07c.04 1.119.691 1.828 1.699 1.828.761 0 1.283-.276 1.517-.774zm2.655-2.854c0-1.131 1.037-1.928 2.478-1.928 1.436 0 2.373.668 2.496 1.793H85.95c-.117-.469-.574-.768-1.289-.768-.703 0-1.236.334-1.236.833 0 .38.322.62 1.013.779l1.061.246c1.213.281 1.781.803 1.781 1.74 0 1.201-1.119 2.004-2.642 2.004-1.518 0-2.508-.685-2.62-1.816h1.26c.159.492.627.797 1.389.797.785 0 1.342-.352 1.342-.862 0-.38-.299-.627-.938-.78l-1.113-.257c-1.213-.287-1.775-.832-1.775-1.781zm7.06-3.352h1.26v1.576h1.43v1.061h-1.43v3.281c0 .668.275.961.902.961.194 0 .293-.012.469-.03v1.05a3.87 3.87 0 0 1-.674.064c-1.4 0-1.957-.492-1.957-1.722v-3.604h-1.049v-1.06h1.05v-1.577zm3.979 3.352c0-1.131 1.037-1.928 2.478-1.928 1.436 0 2.373.668 2.496 1.793h-1.207c-.117-.469-.574-.768-1.289-.768-.703 0-1.236.334-1.236.833 0 .38.322.62 1.014.779l1.06.246c1.213.281 1.781.803 1.781 1.74 0 1.201-1.119 2.004-2.642 2.004-1.518 0-2.508-.685-2.62-1.816h1.26c.159.492.627.797 1.39.797.784 0 1.34-.352 1.34-.862 0-.38-.298-.627-.937-.78l-1.113-.257c-1.213-.287-1.775-.832-1.775-1.781z" fill="#7B7194"/><rect fill="#F84F77" x="104" y="72" width="136" height="12" rx="4"/><rect fill="#F84F77" x="16" y="100" width="136" height="12" rx="4"/><rect fill="#DCD5EE" x="16" y="128" width="224" height="12" rx="4"/><rect fill="#DCD5EE" x="16" y="72" width="72" height="12" rx="4"/></g><g><use fill="#000" filter="url(#C)" xlink:href="#D"/><use fill="#FFF" xlink:href="#D"/><g stroke-linecap="square"><use fill="#000" filter="url(#E)" xlink:href="#F"/><rect stroke-opacity=".098" stroke="#140B2F" fill="#FFF" x="-.5" y="-.5" width="801" height="41" rx="4"/></g><g transform="translate(12 8)" stroke="#7B7194" stroke-linecap="round" stroke-linejoin="round"><g transform="translate(6 6)" stroke-width="2"><circle cx="5" cy="5" r="5"/><path d="M12 12L8.533 8.533"/></g></g><path d="M49.58 15.737h1.688v1.832h1.64v1.354h-1.64v3.67c0 .739.314 1.067 1.025 1.067.24 0 .362-.014.56-.034v1.326a4.59 4.59 0 0 1-.874.082c-1.716 0-2.4-.58-2.4-2.03v-4.081h-1.217v-1.354h1.217v-1.832zm5.803 11.984c-.103 0-.56-.007-.67-.028v-1.38c.096.013.349.02.465.02.718 0 1.12-.28 1.34-.97l.088-.329-2.672-7.513h1.859l1.75 5.838h.116l1.743-5.838h1.791l-2.7 7.718c-.636 1.86-1.435 2.482-3.11 2.482zm11.34-10.323c1.894 0 3.084 1.463 3.084 3.863 0 2.385-1.176 3.862-3.063 3.862-1.073 0-1.9-.465-2.283-1.258h-.116v3.528h-1.696V17.52h1.634v1.238h.116c.431-.848 1.3-1.36 2.325-1.36zm-.533 6.283c1.176 0 1.873-.91 1.873-2.42 0-1.511-.704-2.42-1.866-2.42-1.155 0-1.88.93-1.886 2.42.006 1.497.724 2.42 1.88 2.42zm8.456-4.963c-1.011 0-1.722.724-1.797 1.818h3.52c-.034-1.107-.704-1.818-1.723-1.818zm1.737 4.224h1.606c-.321 1.36-1.558 2.208-3.322 2.208-2.201 0-3.527-1.456-3.527-3.862s1.346-3.917 3.513-3.917c2.133 0 3.411 1.415 3.411 3.774v.546h-5.222v.09c.04 1.243.759 2.023 1.873 2.023.84 0 1.422-.308 1.668-.862zm4.648 2.202c-.642 0-1.094-.465-1.094-1.08 0-.623.452-1.08 1.094-1.08.65 0 1.094.457 1.094 1.08 0 .615-.444 1.08-1.094 1.08zm0-5.127c-.642 0-1.094-.458-1.094-1.074 0-.622.452-1.08 1.094-1.08.65 0 1.094.458 1.094 1.08 0 .616-.444 1.074-1.094 1.074zM84.442 25V14.63h1.668v4.101h.123c.356-.84 1.238-1.346 2.352-1.346 1.675 0 2.645 1.011 2.645 2.789V25h-1.688v-4.423c0-1.135-.547-1.716-1.586-1.716-1.114 0-1.818.725-1.818 1.798V25h-1.696zm8.819 0v-7.479h1.688V25h-1.688zm.84-8.695c-.615 0-1.045-.397-1.045-.937s.43-.936 1.046-.936c.622 0 1.045.396 1.045.936s-.423.937-1.045.937zm8.053 4.874c0-1.429-.717-2.338-1.893-2.338-1.183 0-1.853.909-1.853 2.338 0 1.428.67 2.33 1.853 2.33 1.182 0 1.893-.902 1.893-2.33zm-1.893 6.665c-1.921 0-3.179-.848-3.316-2.133h1.702c.11.513.711.84 1.641.84 1.162 0 1.839-.546 1.839-1.483v-1.415h-.116c-.43.8-1.244 1.238-2.283 1.238-1.887 0-3.063-1.463-3.063-3.712 0-2.29 1.183-3.78 3.09-3.78 1.018 0 1.907.505 2.317 1.319h.116V17.52h1.634v7.506c0 1.73-1.38 2.817-3.561 2.817zM105.969 25V14.63h1.668v4.101h.123c.355-.84 1.237-1.346 2.351-1.346 1.675 0 2.646 1.011 2.646 2.789V25h-1.689v-4.423c0-1.135-.547-1.716-1.586-1.716-1.114 0-1.818.725-1.818 1.798V25h-1.695zm8.866 0V14.63h1.695V25h-1.695zm3.855 0v-7.479h1.689V25h-1.689zm.841-8.695c-.615 0-1.046-.397-1.046-.937s.431-.936 1.046-.936c.622 0 1.046.396 1.046.936s-.424.937-1.046.937zm8.053 4.874c0-1.429-.718-2.338-1.894-2.338-1.182 0-1.852.909-1.852 2.338 0 1.428.67 2.33 1.852 2.33 1.183 0 1.894-.902 1.894-2.33zm-1.894 6.665c-1.92 0-3.178-.848-3.315-2.133h1.702c.11.513.711.84 1.64.84 1.163 0 1.84-.546 1.84-1.483v-1.415h-.117c-.43.8-1.244 1.238-2.283 1.238-1.886 0-3.062-1.463-3.062-3.712 0-2.29 1.182-3.78 3.09-3.78 1.018 0 1.907.505 2.317 1.319h.116V17.52h1.634v7.506c0 1.73-1.38 2.817-3.562 2.817zM131.398 25V14.63h1.668v4.101h.123c.356-.84 1.238-1.346 2.352-1.346 1.675 0 2.646 1.011 2.646 2.789V25h-1.689v-4.423c0-1.135-.547-1.716-1.586-1.716-1.114 0-1.818.725-1.818 1.798V25h-1.696zm9.338-9.263h1.689v1.832h1.64v1.354h-1.64v3.67c0 .739.314 1.067 1.025 1.067.24 0 .363-.014.56-.034v1.326a4.59 4.59 0 0 1-.874.082c-1.716 0-2.4-.58-2.4-2.03v-4.081h-1.216v-1.354h1.216v-1.832zm15.176 4.3H154.3c-.157-.724-.718-1.244-1.648-1.244-1.162 0-1.852.895-1.852 2.447 0 1.573.697 2.489 1.852 2.489.882 0 1.47-.417 1.648-1.197h1.613c-.184 1.566-1.36 2.618-3.254 2.618-2.249 0-3.575-1.449-3.575-3.91 0-2.427 1.32-3.869 3.568-3.869 1.921 0 3.083 1.094 3.261 2.666zm4.847 3.692c1.182 0 1.852-.903 1.852-2.468 0-1.559-.676-2.468-1.852-2.468-1.183 0-1.86.91-1.86 2.468 0 1.565.677 2.468 1.86 2.468zm0 1.421c-2.242 0-3.596-1.462-3.596-3.89 0-2.412 1.374-3.889 3.596-3.889 2.228 0 3.595 1.47 3.595 3.89 0 2.427-1.36 3.89-3.595 3.89zm5.304-.15v-7.479h1.634v1.197h.116c.356-.834 1.23-1.347 2.352-1.347 1.668 0 2.605 1.005 2.605 2.79V25h-1.689v-4.437c0-1.141-.52-1.715-1.545-1.715-1.094 0-1.777.697-1.777 1.798V25h-1.696zm9.256 0v-6.077h-1.216v-1.354h1.216v-.745c0-1.517.786-2.133 2.427-2.133.3 0 .595.028.896.076v1.264a3.334 3.334 0 0 0-.65-.054c-.663 0-1.012.287-1.012.957v.635h1.62v1.354h-1.592V25h-1.689zm11.6-7.479V25h-1.633v-1.19h-.116c-.362.855-1.21 1.34-2.317 1.34-1.648 0-2.666-1.018-2.666-2.789v-4.84h1.695v4.437c0 1.148.54 1.702 1.558 1.702 1.094 0 1.785-.677 1.785-1.784v-4.355h1.695zm1.908 2.14c0-1.353 1.23-2.29 2.994-2.29 1.778 0 2.892.786 3.015 2.147h-1.593c-.123-.527-.622-.862-1.415-.862-.772 0-1.353.37-1.353.91 0 .423.355.683 1.107.854l1.32.3c1.428.322 2.091.937 2.091 2.038 0 1.435-1.32 2.392-3.185 2.392-1.867 0-3.042-.806-3.172-2.167h1.675c.164.554.69.882 1.538.882.854 0 1.449-.376 1.449-.93 0-.423-.321-.69-1.032-.847l-1.327-.308c-1.435-.328-2.112-.99-2.112-2.119zM196.73 25v-7.479h1.689V25h-1.689zm.841-8.695c-.615 0-1.046-.397-1.046-.937s.431-.936 1.046-.936c.622 0 1.046.396 1.046.936s-.424.937-1.046.937zM200.517 25v-7.479h1.633v1.197h.117c.355-.834 1.23-1.347 2.351-1.347 1.668 0 2.605 1.005 2.605 2.79V25h-1.689v-4.437c0-1.141-.52-1.715-1.545-1.715-1.093 0-1.777.697-1.777 1.798V25h-1.695zm13.822-3.821c0-1.429-.718-2.338-1.894-2.338-1.182 0-1.852.909-1.852 2.338 0 1.428.67 2.33 1.852 2.33 1.183 0 1.894-.902 1.894-2.33zm-1.894 6.665c-1.92 0-3.178-.848-3.315-2.133h1.702c.11.513.711.84 1.64.84 1.163 0 1.84-.546 1.84-1.483v-1.415h-.117c-.43.8-1.244 1.238-2.283 1.238-1.887 0-3.062-1.463-3.062-3.712 0-2.29 1.182-3.78 3.09-3.78 1.018 0 1.907.505 2.317 1.319h.116V17.52h1.634v7.506c0 1.73-1.381 2.817-3.562 2.817zm13.939-6.023h-4.491V20.23h4.49v1.592zm2.693-6.084h1.689v1.832h1.64v1.354h-1.64v3.67c0 .739.314 1.067 1.025 1.067.24 0 .362-.014.56-.034v1.326a4.59 4.59 0 0 1-.874.082c-1.716 0-2.4-.58-2.4-2.03v-4.081h-1.217v-1.354h1.217v-1.832zm7.54 8.053c1.026 0 1.791-.663 1.791-1.531v-.595l-1.688.11c-.95.061-1.395.403-1.395 1.011 0 .63.54 1.005 1.292 1.005zm-.499 1.333c-1.442 0-2.474-.875-2.474-2.242 0-1.354 1.018-2.133 2.836-2.242l1.928-.117v-.628c0-.732-.492-1.142-1.408-1.142-.78 0-1.313.273-1.47.78h-1.6c.137-1.32 1.375-2.16 3.152-2.16 1.92 0 3.001.936 3.001 2.522V25h-1.634v-1.025h-.116c-.417.724-1.237 1.148-2.215 1.148zm11.109-3.944c0-1.429-.718-2.338-1.894-2.338-1.183 0-1.853.909-1.853 2.338 0 1.428.67 2.33 1.853 2.33 1.183 0 1.894-.902 1.894-2.33zm-1.894 6.665c-1.92 0-3.179-.848-3.315-2.133h1.702c.11.513.71.84 1.64.84 1.162 0 1.84-.546 1.84-1.483v-1.415h-.117c-.43.8-1.244 1.238-2.283 1.238-1.887 0-3.063-1.463-3.063-3.712 0-2.29 1.183-3.78 3.09-3.78 1.019 0 1.907.505 2.318 1.319h.116V17.52h1.634v7.506c0 1.73-1.381 2.817-3.562 2.817zm6.904-2.7c-.642 0-1.093-.465-1.093-1.08 0-.623.45-1.08 1.093-1.08.65 0 1.094.457 1.094 1.08 0 .615-.444 1.08-1.094 1.08zm0-5.127c-.642 0-1.093-.458-1.093-1.074 0-.622.45-1.08 1.093-1.08.65 0 1.094.458 1.094 1.08 0 .616-.444 1.074-1.094 1.074zm10.008-2.496V25h-1.634v-1.19h-.116c-.362.855-1.21 1.34-2.317 1.34-1.648 0-2.666-1.018-2.666-2.789v-4.84h1.695v4.437c0 1.148.54 1.702 1.559 1.702 1.093 0 1.784-.677 1.784-1.784v-4.355h1.695zm1.907 2.14c0-1.353 1.23-2.29 2.994-2.29 1.778 0 2.892.786 3.015 2.147h-1.593c-.123-.527-.622-.862-1.415-.862-.772 0-1.353.37-1.353.91 0 .423.355.683 1.107.854l1.32.3c1.428.322 2.091.937 2.091 2.038 0 1.435-1.319 2.392-3.185 2.392s-3.042-.806-3.172-2.167h1.675c.164.554.69.882 1.538.882.854 0 1.449-.376 1.449-.93 0-.423-.321-.69-1.032-.847l-1.326-.308c-1.436-.328-2.113-.99-2.113-2.119zm10.439 4.129c1.025 0 1.79-.663 1.79-1.531v-.595l-1.688.11c-.95.061-1.394.403-1.394 1.011 0 .63.54 1.005 1.292 1.005zm-.5 1.333c-1.442 0-2.474-.875-2.474-2.242 0-1.354 1.019-2.133 2.837-2.242l1.928-.117v-.628c0-.732-.492-1.142-1.408-1.142-.78 0-1.313.273-1.47.78h-1.6c.137-1.32 1.374-2.16 3.152-2.16 1.92 0 3 .936 3 2.522V25h-1.633v-1.025h-.116c-.417.724-1.238 1.148-2.215 1.148zm10.159 0c-1.046 0-1.914-.485-2.338-1.306h-.116V25h-1.634V14.63h1.695v4.08h.117c.39-.813 1.25-1.312 2.276-1.312 1.894 0 3.07 1.47 3.07 3.863 0 2.379-1.183 3.862-3.07 3.862zm-.533-6.282c-1.155 0-1.887.93-1.887 2.42 0 1.49.725 2.42 1.887 2.42s1.86-.916 1.86-2.42-.705-2.42-1.86-2.42zM289.042 25v-7.479h1.688V25h-1.688zm.84-8.695c-.614 0-1.045-.397-1.045-.937s.43-.936 1.046-.936c.622 0 1.046.396 1.046.936s-.424.937-1.046.937zM292.898 25V14.63h1.696V25h-1.696zm3.856 0v-7.479h1.688V25h-1.688zm.84-8.695c-.614 0-1.045-.397-1.045-.937s.43-.936 1.046-.936c.622 0 1.046.396 1.046.936s-.424.937-1.046.937zm3.487-.568h1.689v1.832h1.64v1.354h-1.64v3.67c0 .739.314 1.067 1.025 1.067.24 0 .362-.014.56-.034v1.326a4.59 4.59 0 0 1-.875.082c-1.715 0-2.399-.58-2.399-2.03v-4.081h-1.217v-1.354h1.217v-1.832zm5.804 11.984c-.103 0-.56-.007-.67-.028v-1.38c.096.013.349.02.465.02.717 0 1.12-.28 1.34-.97l.088-.329-2.672-7.513h1.859l1.75 5.838h.116l1.743-5.838h1.791l-2.7 7.718c-.636 1.86-1.435 2.482-3.11 2.482z" fill="#24124D"/></g></g></svg>