<svg width="400" height="320" viewBox="0 0 400 320" xmlns="http://www.w3.org/2000/svg" xmlns:xlink="http://www.w3.org/1999/xlink"><title>illustration/team</title><defs><circle id="a" cx="16" cy="16" r="16"/><circle id="c" cx="16" cy="16" r="16"/><circle id="e" cx="16" cy="16" r="16"/><circle id="g" cx="16" cy="16" r="16"/><rect id="j" x="8" width="248" height="168" rx="3"/><filter x="-11.3%" y="-11.9%" width="122.6%" height="133.3%" filterUnits="objectBoundingBox" id="i"><feOffset dy="8" in="SourceAlpha" result="shadowOffsetOuter1"/><feGaussianBlur stdDeviation="8" in="shadowOffsetOuter1" result="shadowBlurOuter1"/><feColorMatrix values="0 0 0 0 0 0 0 0 0 0 0 0 0 0 0 0 0 0 0.25 0" in="shadowBlurOuter1"/></filter><rect id="l" width="104" height="40" rx="4"/><filter x="-3.4%" y="-6.2%" width="106.7%" height="117.5%" filterUnits="objectBoundingBox" id="k"><feOffset dy="1" in="SourceAlpha" result="shadowOffsetOuter1"/><feGaussianBlur stdDeviation="1" in="shadowOffsetOuter1" result="shadowBlurOuter1"/><feColorMatrix values="0 0 0 0 0 0 0 0 0 0 0 0 0 0 0 0 0 0 0.08 0" in="shadowBlurOuter1"/></filter><rect id="n" width="216" height="40" rx="4"/><filter x="-2.1%" y="-8.8%" width="104.2%" height="122.5%" filterUnits="objectBoundingBox" id="m"><feMorphology radius="1" operator="dilate" in="SourceAlpha" result="shadowSpreadOuter1"/><feOffset dy="1" in="shadowSpreadOuter1" result="shadowOffsetOuter1"/><feGaussianBlur stdDeviation="1" in="shadowOffsetOuter1" result="shadowBlurOuter1"/><feComposite in="shadowBlurOuter1" in2="SourceAlpha" operator="out" result="shadowBlurOuter1"/><feColorMatrix values="0 0 0 0 0 0 0 0 0 0 0 0 0 0 0 0 0 0 0.04 0" in="shadowBlurOuter1"/></filter></defs><g fill="none" fill-rule="evenodd"><g transform="translate(16 20)"><path d="M0 48.5h368" stroke="#E7E6EA"/><mask id="b" fill="#fff"><use xlink:href="#a"/></mask><use fill="#E4E4F3" xlink:href="#a"/><g mask="url(#b)"><g transform="translate(5.333 6)"><path d="M15.667 1.333c.696.443 0 4.667.333 6 .276 1.106-1.501-.005-5.333-3.333-1.99 1.135-3.324 1.801-4 2-2.518.74-2.186-1.42-2-2 .366-1.193-.171-1.741.666-2.667C6.265.278 7.497.48 8.897.247 9.82.097 10.794.061 11.724 0c.034 0 .068.01.098.029a.354.354 0 0 1 .118.096c.136.201.255.413.356.633a.478.478 0 0 0 .198.256c.09.043.19.061.288.053.763-.007 2.221-.116 2.885.266z" fill="#7E7EB1" fill-rule="nonzero"/><path d="M21.333 26H0c0-1.32.667-11 6-11 0 0 2.736 4.333 4.667 4.333 1.93 0 4.666-4.333 4.666-4.333 3.556 0 5.556 3.667 6 11z" fill="#A5A5D8" fill-rule="nonzero"/><path d="M15.333 15.333c0 2.223-1.555 4.445-4.666 6.667C7.556 19.778 6 17.556 6 15.333h9.333z" fill="#7878AB" fill-rule="nonzero"/><path d="M13.333 14.68c0 1.908-.889 3.34-2.666 3.34-1.75 0-2.627-1.475-2.667-3.34V12h5.333v2.68z" fill="#B6B6E9" fill-rule="nonzero"/><path d="M10 3.667c1.596-.29 3.333 0 4 .333.667.333.667 1.333.667 1.333v5.334C14 12 14 12.667 13.333 13.333c-.666.667-4.666.667-5.333 0-.667-.666-.667-1.333-1.333-2.666V5.333c0-.666 1.737-1.376 3.333-1.666z" fill="#C8C8F7" fill-rule="nonzero"/><path d="M8 13.333v1c1.333.667 2.444 1 3.333 1 .89 0 1.556-.222 2-.666v-1.334c-1.11.223-2 .334-2.666.334-.445 0-1.334-.111-2.667-.334z" fill="#9898CB"/><path d="M9.657 7.425c.215.23.33.428.343.592a.613.613 0 0 1-.1.298.702.702 0 0 1-.56.352.656.656 0 0 1-.342-.092.691.691 0 0 1-.331-.55.675.675 0 0 1 .103-.367.641.641 0 0 1 .887-.233zM12.31 7.4c.208.115.343.33.357.568a.685.685 0 0 1-.103.37.639.639 0 0 1-.544.328.709.709 0 0 1-.356-.066.665.665 0 0 1-.33-.553.705.705 0 0 1 .62-.712c.079-.003.198.02.356.065z" fill="#7272A5" fill-rule="nonzero"/><path d="M6.667 8.667c-.223 2-.111 3.333.333 4 .667 1 2.333 1.666 3.667 1.666 1.333 0 3-.666 3.666-1.666.445-.667.556-2 .334-4-.89 1.777-1.778 2.666-2.667 2.666H9.333c-.889 0-1.777-.889-2.666-2.666z" fill="#B4B4E5"/></g></g><path d="M61.836 20h-4.398V8.727h4.312c2.07 0 3.336 1.085 3.336 2.812 0 1.172-.86 2.234-1.945 2.43v.125c1.539.195 2.515 1.25 2.515 2.742 0 1.984-1.422 3.164-3.82 3.164zM58.844 9.969v3.617h2.25c1.703 0 2.57-.61 2.57-1.805 0-1.148-.812-1.812-2.21-1.812h-2.61zm0 8.789h2.781c1.695 0 2.586-.688 2.586-1.992 0-1.305-.922-1.97-2.719-1.97h-2.648v3.962zm12.297-6.14c-1.344 0-2.282.984-2.383 2.476h4.64c-.03-1.492-.921-2.477-2.257-2.477zm2.218 5.202h1.344c-.406 1.446-1.703 2.328-3.547 2.328-2.336 0-3.797-1.687-3.797-4.351 0-2.649 1.485-4.367 3.797-4.367 2.274 0 3.656 1.617 3.656 4.234v.516h-6.054v.062c.07 1.664 1 2.719 2.43 2.719 1.085 0 1.82-.398 2.171-1.14zM76.922 20v-8.422h1.281v1.328h.125c.422-.93 1.399-1.476 2.688-1.476 1.89 0 2.945 1.117 2.945 3.117V20h-1.344v-5.125c0-1.516-.64-2.234-1.984-2.234-1.477 0-2.367.898-2.367 2.375V20h-1.344zm10.867-8.422v9.055c0 1.734-.812 2.476-2.578 2.476h-.234v-1.148h.203c.953 0 1.265-.375 1.265-1.305v-9.078h1.344zm-.672-1.71a.94.94 0 0 1-.937-.938.94.94 0 0 1 .937-.938.94.94 0 0 1 .938.938.94.94 0 0 1-.938.937zm5.828 9.1c1.383 0 2.407-.905 2.407-2.109v-.773l-2.266.148c-1.281.086-1.844.532-1.844 1.375 0 .86.727 1.36 1.703 1.36zm-.25 1.18c-1.632 0-2.843-.968-2.843-2.507 0-1.508 1.109-2.375 3.07-2.493l2.43-.148v-.766c0-1.039-.649-1.609-1.907-1.609-1.007 0-1.71.383-1.898 1.047h-1.36c.18-1.352 1.508-2.242 3.305-2.242 2.055 0 3.203 1.054 3.203 2.804V20h-1.28v-1.242h-.126c-.547.898-1.469 1.39-2.594 1.39zM99.18 20v-8.422h1.28v1.328h.126c.383-.937 1.227-1.476 2.352-1.476 1.14 0 1.937.601 2.328 1.476h.125c.453-.89 1.414-1.476 2.578-1.476 1.719 0 2.68.984 2.68 2.75V20h-1.344v-5.508c0-1.242-.586-1.851-1.774-1.851-1.172 0-1.953.875-1.953 1.945V20h-1.344v-5.719c0-1-.695-1.64-1.757-1.64-1.102 0-1.954.953-1.954 2.14V20H99.18zm13.953 0v-8.422h1.344V20h-1.344zm.672-10.133a.94.94 0 0 1-.938-.937.94.94 0 0 1 .938-.938.94.94 0 0 1 .937.938.94.94 0 0 1-.937.937zM117.039 20v-8.422h1.281v1.328h.125c.422-.93 1.399-1.476 2.688-1.476 1.89 0 2.945 1.117 2.945 3.117V20h-1.344v-5.125c0-1.516-.64-2.234-1.984-2.234-1.477 0-2.367.898-2.367 2.375V20h-1.344zm23.18 0h-1.406v-5.133h-6.188V20h-1.406V8.727h1.406v4.875h6.188V8.727h1.406V20zm9.672-8.422V20h-1.282v-1.32h-.125c-.422.937-1.398 1.468-2.687 1.468-1.89 0-2.953-1.125-2.953-3.117v-5.453h1.344v5.125c0 1.516.64 2.219 1.984 2.219 1.484 0 2.375-.883 2.375-2.36v-4.984h1.344zM152.42 20v-8.422h1.282v1.328h.125c.383-.937 1.227-1.476 2.352-1.476 1.14 0 1.937.601 2.328 1.476h.125c.453-.89 1.414-1.476 2.578-1.476 1.719 0 2.68.984 2.68 2.75V20h-1.344v-5.508c0-1.242-.586-1.851-1.774-1.851-1.171 0-1.953.875-1.953 1.945V20h-1.343v-5.719c0-1-.696-1.64-1.758-1.64-1.102 0-1.953.953-1.953 2.14V20h-1.344zm18.024-8.57c2.149 0 3.54 1.71 3.54 4.36 0 2.632-1.4 4.358-3.54 4.358-1.203 0-2.172-.523-2.632-1.414h-.125v4.078h-1.344V11.579h1.281v1.406h.125c.54-.968 1.547-1.554 2.695-1.554zm-.32 7.508c1.547 0 2.469-1.18 2.469-3.149s-.922-3.148-2.461-3.148c-1.524 0-2.485 1.21-2.485 3.148 0 1.93.961 3.149 2.477 3.149zM176.172 20V8.234h1.344v4.672h.125c.422-.93 1.382-1.476 2.672-1.476 1.914 0 2.984 1.14 2.984 3.117V20h-1.344v-5.125c0-1.492-.656-2.234-2.023-2.234-1.508 0-2.414.953-2.414 2.375V20h-1.344zm9.578 0v-8.422h1.281v1.25h.125c.25-.82 1.219-1.398 2.336-1.398.219 0 .5.015.672.039v1.344c-.11-.032-.594-.079-.86-.079-1.28 0-2.21.86-2.21 2.047V20h-1.344zm9.219-7.383c-1.344 0-2.281.985-2.383 2.477h4.64c-.03-1.492-.921-2.477-2.257-2.477zm2.219 5.203h1.343c-.406 1.446-1.703 2.328-3.547 2.328-2.336 0-3.797-1.687-3.797-4.351 0-2.649 1.485-4.367 3.797-4.367 2.274 0 3.657 1.617 3.657 4.234v.516h-6.055v.062c.07 1.664 1 2.719 2.43 2.719 1.086 0 1.82-.398 2.172-1.14zm4.125 5.235c-.18 0-.415-.016-.602-.047v-1.149c.164.032.375.04.562.04.774 0 1.196-.376 1.547-1.391l.157-.5-3.118-8.43h1.453l2.313 6.93h.125l2.305-6.93h1.43l-3.29 8.938c-.718 1.953-1.39 2.539-2.882 2.539z" fill="#24124D"/></g><g transform="translate(16 88)"><path d="M0 121h368" stroke="#E7E6EA"/><mask id="d" fill="#fff"><use xlink:href="#c"/></mask><use fill="#E4E4F3" xlink:href="#c"/><g mask="url(#d)"><g transform="translate(5.333 6)"><path d="M15.667 1.333c.696.443 0 4.667.333 6 .276 1.106-1.501-.005-5.333-3.333-1.99 1.135-3.324 1.801-4 2-2.518.74-2.186-1.42-2-2 .366-1.193-.171-1.741.666-2.667C6.265.278 7.497.48 8.897.247 9.82.097 10.794.061 11.724 0c.034 0 .068.01.098.029a.354.354 0 0 1 .118.096c.136.201.255.413.356.633a.478.478 0 0 0 .198.256c.09.043.19.061.288.053.763-.007 2.221-.116 2.885.266z" fill="#7E7EB1" fill-rule="nonzero"/><path d="M21.333 26H0c0-1.32.667-11 6-11 0 0 2.736 4.333 4.667 4.333 1.93 0 4.666-4.333 4.666-4.333 3.556 0 5.556 3.667 6 11z" fill="#A5A5D8" fill-rule="nonzero"/><path d="M15.333 15.333c0 2.223-1.555 4.445-4.666 6.667C7.556 19.778 6 17.556 6 15.333h9.333z" fill="#7878AB" fill-rule="nonzero"/><path d="M13.333 14.68c0 1.908-.889 3.34-2.666 3.34-1.75 0-2.627-1.475-2.667-3.34V12h5.333v2.68z" fill="#B6B6E9" fill-rule="nonzero"/><path d="M10 3.667c1.596-.29 3.333 0 4 .333.667.333.667 1.333.667 1.333v5.334C14 12 14 12.667 13.333 13.333c-.666.667-4.666.667-5.333 0-.667-.666-.667-1.333-1.333-2.666V5.333c0-.666 1.737-1.376 3.333-1.666z" fill="#C8C8F7" fill-rule="nonzero"/><path d="M8 13.333v1c1.333.667 2.444 1 3.333 1 .89 0 1.556-.222 2-.666v-1.334c-1.11.223-2 .334-2.666.334-.445 0-1.334-.111-2.667-.334z" fill="#9898CB"/><path d="M9.657 7.425c.215.23.33.428.343.592a.613.613 0 0 1-.1.298.702.702 0 0 1-.56.352.656.656 0 0 1-.342-.092.691.691 0 0 1-.331-.55.675.675 0 0 1 .103-.367.641.641 0 0 1 .887-.233zM12.31 7.4c.208.115.343.33.357.568a.685.685 0 0 1-.103.37.639.639 0 0 1-.544.328.709.709 0 0 1-.356-.066.665.665 0 0 1-.33-.553.705.705 0 0 1 .62-.712c.079-.003.198.02.356.065z" fill="#7272A5" fill-rule="nonzero"/><path d="M6.667 8.667c-.223 2-.111 3.333.333 4 .667 1 2.333 1.666 3.667 1.666 1.333 0 3-.666 3.666-1.666.445-.667.556-2 .334-4-.89 1.777-1.778 2.666-2.667 2.666H9.333c-.889 0-1.777-.889-2.666-2.666z" fill="#B4B4E5"/></g></g><path d="M61.836 20h-4.398V8.727h4.312c2.07 0 3.336 1.085 3.336 2.812 0 1.172-.86 2.234-1.945 2.43v.125c1.539.195 2.515 1.25 2.515 2.742 0 1.984-1.422 3.164-3.82 3.164zM58.844 9.969v3.617h2.25c1.703 0 2.57-.61 2.57-1.805 0-1.148-.812-1.812-2.21-1.812h-2.61zm0 8.789h2.781c1.695 0 2.586-.688 2.586-1.992 0-1.305-.922-1.97-2.719-1.97h-2.648v3.962zM67.78 20v-8.422h1.281v1.25h.126c.25-.82 1.218-1.398 2.335-1.398.22 0 .5.015.672.039v1.344c-.11-.032-.593-.079-.86-.079-1.28 0-2.21.86-2.21 2.047V20h-1.344zm8.57-1.031c1.383 0 2.407-.907 2.407-2.11v-.773l-2.266.148c-1.281.086-1.844.532-1.844 1.375 0 .86.727 1.36 1.704 1.36zm-.25 1.18c-1.632 0-2.843-.97-2.843-2.508 0-1.508 1.11-2.375 3.07-2.493l2.43-.148v-.766c0-1.039-.649-1.609-1.906-1.609-1.008 0-1.711.383-1.899 1.047h-1.36c.18-1.352 1.509-2.242 3.305-2.242 2.055 0 3.204 1.054 3.204 2.804V20H78.82v-1.242h-.125c-.547.898-1.468 1.39-2.593 1.39zm9.602 0c-2.156 0-3.539-1.712-3.539-4.36 0-2.64 1.398-4.36 3.54-4.36 1.171 0 2.163.555 2.64 1.477h.117V8.234h1.344V20h-1.282v-1.344h-.125c-.53.938-1.53 1.492-2.695 1.492zm.313-7.508c-1.532 0-2.461 1.187-2.461 3.148 0 1.969.922 3.149 2.46 3.149 1.532 0 2.477-1.204 2.477-3.149 0-1.93-.953-3.148-2.476-3.148zM92.492 20V8.234h1.344V20h-1.344zm7.313-7.383c-1.344 0-2.282.985-2.383 2.477h4.64c-.03-1.492-.921-2.477-2.257-2.477zm2.218 5.203h1.344c-.406 1.446-1.703 2.328-3.547 2.328-2.336 0-3.797-1.687-3.797-4.351 0-2.649 1.485-4.367 3.797-4.367 2.274 0 3.657 1.617 3.657 4.234v.516h-6.055v.062c.07 1.664 1 2.719 2.43 2.719 1.085 0 1.82-.398 2.171-1.14zm4.125 5.235c-.18 0-.414-.016-.601-.047v-1.149c.164.032.375.04.562.04.774 0 1.196-.376 1.547-1.391l.156-.5-3.117-8.43h1.453l2.313 6.93h.125l2.305-6.93h1.43l-3.29 8.938c-.719 1.953-1.39 2.539-2.883 2.539zM126.133 20L125 16.773h-4.484L119.383 20h-1.477l4.156-11.273h1.391L127.61 20h-1.476zm-3.438-9.453l-1.765 5.031h3.656l-1.766-5.031h-.125zm6.344 12.508c-.18 0-.414-.016-.601-.047v-1.149c.164.032.375.04.562.04.773 0 1.195-.376 1.547-1.391l.156-.5-3.117-8.43h1.453l2.313 6.93h.125l2.304-6.93h1.43l-3.29 8.938c-.718 1.953-1.39 2.539-2.882 2.539zm11.016-10.438c-1.344 0-2.282.985-2.383 2.477h4.64c-.03-1.492-.921-2.477-2.257-2.477zm2.218 5.203h1.344c-.406 1.446-1.703 2.328-3.547 2.328-2.336 0-3.797-1.687-3.797-4.351 0-2.649 1.485-4.367 3.797-4.367 2.274 0 3.657 1.617 3.657 4.234v.516h-6.055v.062c.07 1.664 1 2.719 2.43 2.719 1.085 0 1.82-.398 2.171-1.14zm3.563 2.18v-8.422h1.281v1.25h.125c.25-.82 1.219-1.398 2.336-1.398.219 0 .5.015.672.039v1.344c-.11-.032-.594-.079-.86-.079-1.28 0-2.21.86-2.21 2.047V20h-1.344zm5.625-6.117c0-1.399 1.351-2.453 3.14-2.453 1.766 0 2.993.875 3.172 2.258h-1.328c-.18-.672-.836-1.118-1.851-1.118-1 0-1.781.508-1.781 1.258 0 .578.468.938 1.46 1.18l1.297.312c1.586.383 2.352 1.07 2.352 2.282 0 1.507-1.461 2.546-3.375 2.546-1.875 0-3.164-.898-3.313-2.296h1.383c.227.71.899 1.164 1.977 1.164 1.133 0 1.945-.54 1.945-1.313 0-.578-.437-.969-1.336-1.187l-1.445-.352c-1.578-.383-2.297-1.062-2.297-2.281z" fill="#24124D"/></g><g transform="translate(16 136)"><g transform="translate(0 20)"><mask id="f" fill="#fff"><use xlink:href="#e"/></mask><use fill="#E4E4F3" xlink:href="#e"/><g mask="url(#f)"><g transform="translate(6.667 5.333)"><path d="M13.627 1.641a5.972 5.972 0 0 1 1.76 1.7 11.227 11.227 0 0 1 1.697 4.111c.192.966.317 1.949.489 2.902l.11 1.06a.439.439 0 0 1-.18.41l-4.17 2.843-4-4.667-4.026 5.402-2.634-1.635-1.135-.683a.35.35 0 0 1-.143-.254 24.94 24.94 0 0 1 .008-3.611c.095-1.28.34-2.544.73-3.764A8.518 8.518 0 0 1 3.96 2.239 6.15 6.15 0 0 1 7.563.247C8.487.097 9.46.061 10.39 0c.035 0 .07.01.1.029a.354.354 0 0 1 .117.096c.135.201.254.413.356.633a.478.478 0 0 0 .198.256c.09.043.189.061.287.053a4.293 4.293 0 0 1 2.18.574z" fill="#7878AB" fill-rule="nonzero"/><path d="M18.667 26.667H0c0-1.321 0-11 5.333-11 0 0 1.747 4.333 3.678 4.333 1.932 0 4.322-4.333 4.322-4.333 3.556 0 5.334 3.666 5.334 11z" fill="#A5A5D8" fill-rule="nonzero"/><path d="M13.333 16c0 2.656-1.333 4.667-4 4.667-2.625 0-3.94-2.072-4-4.667h8z" fill="#7878AB" fill-rule="nonzero"/><path d="M12 16.013c0 1.909-.889 3.34-2.667 3.34-1.75 0-2.626-1.475-2.666-3.34v-2.68H12v2.68z" fill="#B6B6E9" fill-rule="nonzero"/><path d="M14 11.333l-.667 3.334H12v-2c.015-.016.682-.46 2-1.334z" fill="#636396" fill-rule="nonzero"/><path d="M4.667 11.333c.405.642 1.953 1.935 2 1.976v1.358l-1.334.666c-.461-2.468-.684-3.801-.666-4z" fill="#636396"/><path d="M11.333 4l1.808 1.815.859.896c.038 0 .038 1.541 0 4.622-.444 1.334-.889 2.223-1.333 2.667-.667.667-4.526.205-6 0-.749-.104-1.638-.667-1.82-2-.12-.889-.18-2-.18-3.333A22.431 22.431 0 0 0 8 6.71 30.844 30.844 0 0 0 11.333 4z" fill="#C8C8F7" fill-rule="nonzero"/><path d="M8.324 8.759c.215.23.33.427.343.59a.613.613 0 0 1-.1.3.702.702 0 0 1-.56.351.656.656 0 0 1-.342-.092.691.691 0 0 1-.332-.549.675.675 0 0 1 .104-.368.641.641 0 0 1 .887-.232zm2.652-.027c.208.116.343.33.357.569a.685.685 0 0 1-.103.37.639.639 0 0 1-.543.327.709.709 0 0 1-.357-.066.665.665 0 0 1-.33-.552.705.705 0 0 1 .62-.713c.08-.002.198.02.356.065z" fill="#7272A5" fill-rule="nonzero"/><path d="M6.667 14v.667c1.333.666 2.444 1 3.333 1 .889 0 1.556-.223 2-.667v-.667H9.333c-.444 0-1.333-.11-2.666-.333z" fill="#9898CB"/></g></g></g><path d="M61.836 40h-4.398V28.727h4.312c2.07 0 3.336 1.085 3.336 2.812 0 1.172-.86 2.234-1.945 2.43v.125c1.539.195 2.515 1.25 2.515 2.742 0 1.984-1.422 3.164-3.82 3.164zm-2.992-10.031v3.617h2.25c1.703 0 2.57-.61 2.57-1.805 0-1.148-.812-1.812-2.21-1.812h-2.61zm0 8.789h2.781c1.695 0 2.586-.688 2.586-1.992 0-1.305-.922-1.97-2.719-1.97h-2.648v3.962zm12.297-6.14c-1.344 0-2.282.984-2.383 2.476h4.64c-.03-1.492-.921-2.477-2.257-2.477zm2.218 5.202h1.344c-.406 1.446-1.703 2.328-3.547 2.328-2.336 0-3.797-1.687-3.797-4.351 0-2.649 1.485-4.367 3.797-4.367 2.274 0 3.656 1.617 3.656 4.234v.516h-6.054v.062c.07 1.664 1 2.719 2.43 2.719 1.085 0 1.82-.398 2.171-1.14zm10.532-3.664h-1.36c-.219-.836-.96-1.515-2.172-1.515-1.515 0-2.468 1.21-2.468 3.117 0 1.945.968 3.18 2.468 3.18 1.133 0 1.922-.524 2.172-1.477h1.36c-.243 1.547-1.5 2.687-3.524 2.687-2.36 0-3.867-1.71-3.867-4.39 0-2.625 1.5-4.328 3.86-4.328 2.046 0 3.296 1.226 3.53 2.726zm3.53 1.102l3.657-3.68h1.649l-3.625 3.61L92.969 40h-1.711l-3.156-3.945-.805.75V40h-1.344V28.234h1.344v7.024h.125zm7.86 7.797c-.18 0-.414-.016-.601-.047v-1.149c.164.032.375.04.562.04.774 0 1.195-.376 1.547-1.391l.156-.5-3.117-8.43h1.453l2.313 6.93h.125l2.304-6.93h1.43l-3.289 8.938c-.719 1.953-1.39 2.539-2.883 2.539zm18.914-11.953L111.602 40h-1.329l-3.07-11.273h1.469l2.242 9.164h.094l2.523-9.164h1.422l2.524 9.164h.093l2.243-9.164h1.468L118.211 40h-1.328l-2.594-8.898h-.094zm11.735 7.835c1.593 0 2.492-1.156 2.492-3.148 0-2-.899-3.148-2.492-3.148-1.594 0-2.493 1.148-2.493 3.148 0 1.992.899 3.148 2.493 3.148zm0 1.211c-2.399 0-3.883-1.656-3.883-4.359 0-2.71 1.484-4.36 3.883-4.36 2.398 0 3.882 1.65 3.882 4.36 0 2.703-1.484 4.36-3.882 4.36zM132 40V28.234h1.344V40H132zm4.516 0v-7.297h-1.414v-1.125h1.414v-.82c0-1.727.898-2.445 2.523-2.445.266 0 .5.023.828.078v1.125c-.18-.04-.484-.07-.75-.07-.804 0-1.258.406-1.258 1.35v.782h1.93v1.125h-1.93V40h-1.343zm8.234-7.383c-1.344 0-2.281.985-2.383 2.477h4.64c-.03-1.492-.921-2.477-2.257-2.477zm2.219 5.203h1.344c-.407 1.446-1.704 2.328-3.547 2.328-2.336 0-3.797-1.687-3.797-4.351 0-2.649 1.484-4.367 3.797-4.367 2.273 0 3.656 1.617 3.656 4.234v.516h-6.055v.062c.07 1.664 1 2.719 2.43 2.719 1.086 0 1.82-.398 2.172-1.14z" fill="#24124D"/><path d="M0 .5h368" stroke="#E7E6EA"/></g><g transform="translate(16 228)"><mask id="h" fill="#fff"><use xlink:href="#g"/></mask><use fill="#E4E4F3" xlink:href="#g"/><g mask="url(#h)" fill-rule="nonzero"><path d="M25.333 32H6.667c0-1.32 0-11 5.333-11 0 0 1.747 4.333 3.678 4.333C17.61 25.333 20 21 20 21c3.556 0 5.333 3.667 5.333 11z" fill="#A5A5D8"/><path d="M20 21.333C20 23.99 18.667 26 16 26c-2.626 0-3.94-2.071-4-4.667h8z" fill="#7878AB"/></g><path d="M20.667 15.333C15.777 14 12.889 13.111 12 12.667c-1.333-1.334-1.333-4-.333-6 .763-1.526 5.666-2.667 9 0 2.222 1.777 2.222 4.666 0 8.666z" fill="#7E7EB1" fill-rule="nonzero" mask="url(#h)"/><path d="M18.667 20.68c0 1.908-.89 3.34-2.667 3.34-1.75 0-2.627-1.475-2.667-3.34V18h5.334v2.68z" fill="#B6B6E9" fill-rule="nonzero" mask="url(#h)"/><path d="M14.667 9.333c2 0 3.777.89 5.333 2.667 1.333 2 .72 2.809.333 4.667-.387 1.858-1 2-1.666 2.666-.336.336-1.334 1-2.667 1-1.333 0-2.336-.669-2.667-1-.666-.666-1.152-1.333-1.333-2.666-.181-1.334 0-4 0-4 1.778 0 2.667-1.111 2.667-3.334z" fill="#C8C8F7" fill-rule="nonzero" mask="url(#h)"/><path d="M14.99 13.425c.216.23.33.428.343.592a.613.613 0 0 1-.1.298.702.702 0 0 1-.56.352.656.656 0 0 1-.342-.092.691.691 0 0 1-.33-.55.675.675 0 0 1 .102-.367.641.641 0 0 1 .888-.233zm2.653-.026c.208.115.343.33.357.568a.685.685 0 0 1-.103.37.639.639 0 0 1-.544.328.709.709 0 0 1-.356-.066.665.665 0 0 1-.33-.553.705.705 0 0 1 .62-.712c.08-.003.198.02.356.065z" fill="#7272A5" fill-rule="nonzero" mask="url(#h)"/><path d="M13.333 19.333V20c1.334.889 2.445 1.333 3.334 1.333.889 0 1.555-.444 2-1.333v-.667C18 19.778 17.11 20 16 20c-1.111 0-2-.222-2.667-.667z" fill="#9898CB" mask="url(#h)"/><path d="M56.898 17.055h1.422c.172 1.18 1.297 1.93 2.899 1.93 1.515 0 2.633-.82 2.633-1.938 0-.961-.704-1.57-2.258-1.961l-1.446-.375c-2.039-.516-2.921-1.438-2.921-3.04 0-1.913 1.601-3.21 3.984-3.21 2.18 0 3.805 1.297 3.922 3.117h-1.414c-.196-1.156-1.149-1.844-2.555-1.844-1.5 0-2.492.75-2.492 1.891 0 .883.617 1.39 2.172 1.79l1.18.312c2.335.585 3.273 1.492 3.273 3.148 0 2.07-1.633 3.39-4.211 3.39-2.39 0-4.04-1.265-4.188-3.21zm13.157 1.914c1.382 0 2.406-.907 2.406-2.11v-.773l-2.266.148c-1.28.086-1.843.532-1.843 1.375 0 .86.726 1.36 1.703 1.36zm-.25 1.18c-1.633 0-2.844-.97-2.844-2.508 0-1.508 1.11-2.375 3.07-2.493l2.43-.148v-.766c0-1.039-.648-1.609-1.906-1.609-1.008 0-1.711.383-1.899 1.047h-1.36c.18-1.352 1.509-2.242 3.306-2.242 2.054 0 3.203 1.054 3.203 2.804V20h-1.282v-1.242h-.125c-.546.898-1.468 1.39-2.593 1.39zM76.289 20v-8.422h1.281v1.328h.125c.383-.937 1.227-1.476 2.352-1.476 1.14 0 1.937.601 2.328 1.476h.125c.453-.89 1.414-1.476 2.578-1.476 1.719 0 2.68.984 2.68 2.75V20h-1.344v-5.508c0-1.242-.586-1.851-1.773-1.851-1.172 0-1.954.875-1.954 1.945V20h-1.343v-5.719c0-1-.696-1.64-1.758-1.64-1.102 0-1.953.953-1.953 2.14V20h-1.344zm16.516-1.031c1.382 0 2.406-.907 2.406-2.11v-.773l-2.266.148c-1.28.086-1.843.532-1.843 1.375 0 .86.726 1.36 1.703 1.36zm-.25 1.18c-1.633 0-2.844-.97-2.844-2.508 0-1.508 1.11-2.375 3.07-2.493l2.43-.148v-.766c0-1.039-.648-1.609-1.906-1.609-1.008 0-1.711.383-1.899 1.047h-1.36c.18-1.352 1.509-2.242 3.306-2.242 2.054 0 3.203 1.054 3.203 2.804V20h-1.282v-1.242h-.125c-.546.898-1.468 1.39-2.593 1.39zM99.039 20v-8.422h1.281v1.328h.125c.422-.93 1.399-1.476 2.688-1.476 1.89 0 2.945 1.117 2.945 3.117V20h-1.344v-5.125c0-1.516-.64-2.234-1.984-2.234-1.477 0-2.367.898-2.367 2.375V20h-1.344zm10.055-10.523h1.344v2.101h1.953v1.125h-1.954v4.766c0 .992.376 1.414 1.25 1.414.243 0 .36-.008.61-.031v1.132a4.328 4.328 0 0 1-.774.078c-1.734 0-2.43-.64-2.43-2.25v-5.109h-1.413v-1.125h1.414V9.477zM114.422 20V8.234h1.344v4.672h.125c.421-.93 1.382-1.476 2.671-1.476 1.915 0 2.985 1.14 2.985 3.117V20h-1.344v-5.125c0-1.492-.656-2.234-2.023-2.234-1.508 0-2.414.953-2.414 2.375V20h-1.344zm12.172-1.031c1.383 0 2.406-.907 2.406-2.11v-.773l-2.266.148c-1.28.086-1.843.532-1.843 1.375 0 .86.726 1.36 1.703 1.36zm-.25 1.18c-1.633 0-2.844-.97-2.844-2.508 0-1.508 1.11-2.375 3.07-2.493L129 15v-.766c0-1.039-.648-1.609-1.906-1.609-1.008 0-1.711.383-1.899 1.047h-1.36c.18-1.352 1.509-2.242 3.306-2.242 2.054 0 3.203 1.054 3.203 2.804V20h-1.281v-1.242h-.125c-.547.898-1.47 1.39-2.594 1.39z" fill="#24124D"/></g><g transform="translate(120 128)"><use fill="#000" filter="url(#i)" xlink:href="#j"/><use fill="#FFF" xlink:href="#j"/><rect stroke-opacity=".098" stroke="#140B2F" fill="#FFF" stroke-linecap="square" x="-.5" y="-.5" width="265" height="169" rx="4"/><g transform="translate(24 22)"><g transform="translate(0 82)"><use fill="#000" filter="url(#k)" xlink:href="#l"/><use fill="#512DA8" xlink:href="#l"/><path d="M14.29 21.32h1.722c.11.882.985 1.45 2.236 1.45 1.162 0 2.002-.595 2.002-1.422 0-.711-.54-1.128-1.804-1.422l-1.279-.294c-1.79-.403-2.631-1.292-2.631-2.762 0-1.79 1.463-2.98 3.67-2.98 2.072 0 3.569 1.19 3.65 2.884h-1.688c-.123-.868-.888-1.415-1.968-1.415-1.135 0-1.887.547-1.887 1.388 0 .663.499 1.053 1.723 1.333l1.134.26c2.003.451 2.844 1.285 2.844 2.789 0 1.92-1.483 3.117-3.876 3.117-2.263 0-3.76-1.135-3.848-2.926zm12.667-3.602c-1.012 0-1.723.724-1.798 1.818h3.52c-.034-1.107-.704-1.818-1.722-1.818zm1.736 4.224h1.606c-.321 1.36-1.558 2.208-3.322 2.208-2.201 0-3.527-1.456-3.527-3.862s1.346-3.917 3.513-3.917c2.133 0 3.412 1.415 3.412 3.774v.546h-5.223v.09c.04 1.243.759 2.023 1.873 2.023.84 0 1.422-.308 1.668-.862zM32.077 24v-7.479h1.633v1.197h.117c.355-.834 1.23-1.347 2.351-1.347 1.668 0 2.605 1.005 2.605 2.79V24h-1.689v-4.437c0-1.141-.52-1.715-1.545-1.715-1.093 0-1.777.697-1.777 1.798V24h-1.695zm11.423.123c-1.894 0-3.077-1.49-3.077-3.87 0-2.364 1.19-3.855 3.077-3.855 1.025 0 1.873.493 2.269 1.313h.116V13.63h1.696V24H45.94v-1.183h-.116c-.424.82-1.285 1.306-2.324 1.306zm.526-6.282c-1.155 0-1.866.916-1.866 2.42 0 1.51.704 2.42 1.866 2.42 1.169 0 1.88-.916 1.88-2.42 0-1.49-.718-2.42-1.88-2.42zM53.473 24v-7.479h1.689V24h-1.689zm.841-8.695c-.615 0-1.046-.397-1.046-.937s.43-.936 1.046-.936c.622 0 1.046.396 1.046.936s-.424.937-1.046.937zM57.26 24v-7.479h1.634v1.197h.116c.356-.834 1.23-1.347 2.352-1.347 1.668 0 2.604 1.005 2.604 2.79V24h-1.688v-4.437c0-1.141-.52-1.715-1.545-1.715-1.094 0-1.777.697-1.777 1.798V24H57.26zm8.067-7.479h1.818l1.73 5.784h.116l1.716-5.784h1.79L69.853 24h-1.866l-2.66-7.479zM73.947 24v-7.479h1.688V24h-1.688zm.84-8.695c-.615 0-1.045-.397-1.045-.937s.43-.936 1.046-.936c.622 0 1.045.396 1.045.936s-.423.937-1.045.937zm3.487-.568h1.688v1.832h1.641v1.354h-1.64v3.67c0 .739.314 1.067 1.025 1.067.24 0 .362-.014.56-.034v1.326a4.59 4.59 0 0 1-.875.082c-1.715 0-2.4-.58-2.4-2.03v-4.081h-1.216v-1.354h1.217v-1.832zm8.121 2.98c-1.012 0-1.723.725-1.798 1.82h3.52c-.034-1.108-.703-1.82-1.722-1.82zm1.736 4.225h1.607c-.321 1.36-1.559 2.208-3.322 2.208-2.202 0-3.528-1.456-3.528-3.862s1.347-3.917 3.514-3.917c2.133 0 3.411 1.415 3.411 3.774v.546H84.59v.09c.041 1.243.76 2.023 1.873 2.023.841 0 1.422-.308 1.668-.862z" fill="#FFF"/></g><g transform="translate(0 26)"><g stroke-linecap="square"><use fill="#000" filter="url(#m)" xlink:href="#n"/><rect stroke-opacity=".098" stroke="#140B2F" fill="#FFF" x="-.5" y="-.5" width="217" height="41" rx="4"/></g><path d="M19.499 22.605V24h-6.262v-9.864H19.5v1.394h-4.73v2.79h4.477v1.326H14.77v2.96h4.73zM21.536 24v-7.444h1.415v1.196h.11c.328-.84 1.08-1.34 2.07-1.34 1.02 0 1.723.526 2.052 1.34h.116c.376-.814 1.23-1.34 2.263-1.34 1.503 0 2.378.91 2.378 2.461V24h-1.47v-4.744c0-1.005-.478-1.497-1.442-1.497-.95 0-1.572.683-1.572 1.558V24h-1.442v-4.888c0-.84-.56-1.353-1.436-1.353-.895 0-1.572.731-1.572 1.688V24h-1.47zm14.902-1.114c1.108 0 1.928-.704 1.928-1.627v-.622l-1.818.116c-1.026.068-1.49.417-1.49 1.073 0 .67.58 1.06 1.38 1.06zm-.376 1.237c-1.435 0-2.48-.868-2.48-2.228 0-1.34.997-2.113 2.768-2.222l2.016-.116v-.643c0-.786-.52-1.23-1.524-1.23-.82 0-1.388.3-1.552.827h-1.422c.15-1.279 1.354-2.099 3.042-2.099 1.866 0 2.92.93 2.92 2.502V24h-1.416v-1.046h-.116c-.444.745-1.258 1.169-2.236 1.169zM41.949 24v-7.444h1.463V24h-1.463zm.732-8.75c-.547 0-.95-.39-.95-.896 0-.512.403-.902.95-.902.547 0 .95.39.95.902 0 .506-.403.896-.95.896zM45.64 24V13.65h1.47V24h-1.47zm9.932-1.114c1.108 0 1.928-.704 1.928-1.627v-.622l-1.818.116c-1.026.068-1.49.417-1.49 1.073 0 .67.58 1.06 1.38 1.06zm-.376 1.237c-1.435 0-2.481-.868-2.481-2.228 0-1.34.998-2.113 2.768-2.222l2.017-.116v-.643c0-.786-.52-1.23-1.524-1.23-.82 0-1.388.3-1.552.827h-1.422c.15-1.279 1.353-2.099 3.042-2.099 1.866 0 2.919.93 2.919 2.502V24h-1.415v-1.046h-.116c-.445.745-1.258 1.169-2.236 1.169zm8.58 0c-1.894 0-3.09-1.49-3.09-3.849 0-2.351 1.21-3.841 3.09-3.841 1.018 0 1.88.485 2.283 1.305h.109V13.65h1.47V24h-1.409v-1.176h-.116c-.444.814-1.312 1.299-2.338 1.299zm.416-6.371c-1.237 0-1.989.957-1.989 2.522 0 1.58.745 2.53 1.99 2.53 1.237 0 2.002-.964 2.002-2.523 0-1.552-.772-2.529-2.003-2.529zm8.368 6.371c-1.894 0-3.09-1.49-3.09-3.849 0-2.351 1.21-3.841 3.09-3.841 1.018 0 1.88.485 2.283 1.305h.11V13.65h1.469V24h-1.408v-1.176h-.117c-.444.814-1.312 1.299-2.337 1.299zm.417-6.371c-1.238 0-1.99.957-1.99 2.522 0 1.58.745 2.53 1.99 2.53 1.237 0 2.002-.964 2.002-2.523 0-1.552-.772-2.529-2.002-2.529zM78.623 24v-7.444h1.415v1.141h.11c.211-.731 1.032-1.264 2.002-1.264.212 0 .493.02.65.061v1.45c-.116-.042-.568-.09-.814-.09-1.107 0-1.893.705-1.893 1.75V24h-1.47zm8.58-6.337c-1.088 0-1.847.766-1.929 1.928h3.76c-.034-1.17-.745-1.928-1.832-1.928zm1.824 4.327h1.415c-.335 1.333-1.524 2.154-3.226 2.154-2.133 0-3.439-1.463-3.439-3.842 0-2.38 1.333-3.89 3.432-3.89 2.071 0 3.322 1.415 3.322 3.753v.513h-5.257v.082c.048 1.305.807 2.133 1.983 2.133.889 0 1.497-.322 1.77-.903zm3.097-3.329c0-1.32 1.21-2.249 2.892-2.249 1.674 0 2.768.78 2.912 2.092H96.52c-.137-.547-.67-.896-1.504-.896-.82 0-1.443.39-1.443.971 0 .444.376.725 1.183.91l1.237.286c1.415.329 2.078.937 2.078 2.03 0 1.402-1.305 2.339-3.083 2.339-1.77 0-2.925-.8-3.055-2.12h1.47c.184.575.73.93 1.62.93.915 0 1.565-.41 1.565-1.005 0-.444-.349-.731-1.094-.909l-1.299-.3c-1.415-.336-2.071-.971-2.071-2.079zm7.547 0c0-1.32 1.21-2.249 2.891-2.249 1.675 0 2.77.78 2.913 2.092h-1.409c-.136-.547-.67-.896-1.504-.896-.82 0-1.442.39-1.442.971 0 .444.376.725 1.183.91l1.237.286c1.415.329 2.078.937 2.078 2.03 0 1.402-1.305 2.339-3.083 2.339-1.77 0-2.926-.8-3.056-2.12h1.47c.185.575.732.93 1.62.93.916 0 1.566-.41 1.566-1.005 0-.444-.349-.731-1.094-.909l-1.299-.3c-1.415-.336-2.071-.971-2.071-2.079z" fill="#726D82"/></g><path d="M2.555 10H1.043V1.545h1.512V10zm1.933 0V3.59h1.4v1.025h.1c.305-.715 1.055-1.154 2.016-1.154 1.43 0 2.232.861 2.232 2.39V10H8.79V6.197c0-.978-.445-1.47-1.324-1.47-.938 0-1.524.597-1.524 1.54V10H4.488zm6.914-6.41h1.559l1.482 4.957h.1l1.47-4.957h1.536L15.28 10h-1.6l-2.279-6.41zM18.791 10V3.59h1.447V10h-1.447zm.72-7.453c-.527 0-.896-.34-.896-.803s.37-.803.897-.803c.533 0 .896.34.896.803s-.363.803-.896.803zM22.5 2.06h1.447v1.57h1.407v1.16h-1.407v3.146c0 .633.27.915.88.915.204 0 .31-.012.48-.03V9.96c-.205.041-.47.07-.75.07-1.471 0-2.057-.498-2.057-1.74V4.791h-1.043v-1.16H22.5V2.06zm6.96 2.554c-.866 0-1.476.621-1.54 1.559h3.017c-.029-.95-.603-1.559-1.476-1.559zm1.49 3.621h1.376c-.275 1.166-1.336 1.893-2.847 1.893-1.887 0-3.024-1.248-3.024-3.31 0-2.063 1.154-3.358 3.012-3.358 1.828 0 2.924 1.213 2.924 3.234v.47h-4.477v.075c.035 1.067.65 1.735 1.606 1.735.72 0 1.218-.264 1.43-.739zm6.562-6.175h1.447v1.57h1.406v1.16H38.96v3.146c0 .633.27.915.879.915.205 0 .31-.012.48-.03V9.96c-.205.041-.468.07-.75.07-1.47 0-2.056-.498-2.056-1.74V4.791h-1.043v-1.16h1.043V2.06zm6.96 2.554c-.867 0-1.476.621-1.54 1.559h3.017c-.03-.95-.603-1.559-1.476-1.559zm1.489 3.621h1.377c-.276 1.166-1.336 1.893-2.848 1.893-1.886 0-3.023-1.248-3.023-3.31 0-2.063 1.154-3.358 3.012-3.358 1.828 0 2.923 1.213 2.923 3.234v.47h-4.476v.075c.035 1.067.65 1.735 1.605 1.735.721 0 1.219-.264 1.43-.739zm5.092.727c.879 0 1.535-.568 1.535-1.313v-.51l-1.447.094c-.815.053-1.196.346-1.196.868 0 .539.463.86 1.108.86zm-.428 1.142c-1.236 0-2.121-.75-2.121-1.921 0-1.16.873-1.829 2.432-1.922l1.652-.1v-.539c0-.627-.422-.978-1.207-.978-.668 0-1.125.234-1.26.668H48.75c.117-1.131 1.178-1.852 2.701-1.852 1.647 0 2.572.803 2.572 2.162V10h-1.4v-.879h-.1c-.357.621-1.06.984-1.898.984zM55.77 10V3.59h1.4v1.037h.1c.275-.732.931-1.166 1.78-1.166.886 0 1.5.445 1.77 1.166h.1c.316-.703 1.055-1.166 1.945-1.166 1.283 0 2.057.803 2.057 2.133V10h-1.447V5.963c0-.826-.393-1.236-1.172-1.236-.756 0-1.254.55-1.254 1.283V10h-1.412V5.857c0-.703-.446-1.13-1.16-1.13-.721 0-1.254.591-1.254 1.377V10H55.77zm10.875 0V3.59h1.4v1.037h.1c.275-.732.931-1.166 1.78-1.166.886 0 1.5.445 1.77 1.166h.1c.316-.703 1.055-1.166 1.945-1.166 1.283 0 2.057.803 2.057 2.133V10H74.35V5.963c0-.826-.393-1.236-1.172-1.236-.756 0-1.254.55-1.254 1.283V10h-1.412V5.857c0-.703-.446-1.13-1.16-1.13-.721 0-1.254.591-1.254 1.377V10h-1.453zM79.71 8.963c.879 0 1.535-.568 1.535-1.313v-.51l-1.447.094c-.815.053-1.195.346-1.195.868 0 .539.462.86 1.107.86zm-.428 1.142c-1.236 0-2.12-.75-2.12-1.921 0-1.16.872-1.829 2.43-1.922l1.653-.1v-.539c0-.627-.422-.978-1.207-.978-.668 0-1.125.234-1.26.668h-1.37c.116-1.131 1.177-1.852 2.7-1.852 1.647 0 2.573.803 2.573 2.162V10h-1.4v-.879h-.1c-.358.621-1.06.984-1.899.984zm5.608-8.044h1.447v1.57h1.406v1.16h-1.406v3.146c0 .633.27.915.879.915.205 0 .31-.012.48-.03V9.96c-.205.041-.468.07-.75.07-1.47 0-2.056-.498-2.056-1.74V4.791h-1.043v-1.16h1.043V2.06zm6.96 2.554c-.867 0-1.476.621-1.54 1.559h3.017c-.03-.95-.603-1.559-1.476-1.559zm1.489 3.621h1.377c-.276 1.166-1.336 1.893-2.848 1.893-1.887 0-3.023-1.248-3.023-3.31 0-2.063 1.154-3.358 3.011-3.358 1.829 0 2.924 1.213 2.924 3.234v.47h-4.476v.075c.035 1.067.65 1.735 1.605 1.735.72 0 1.219-.264 1.43-.739zm2.754-2.812c0-1.16 1.054-1.963 2.566-1.963 1.524 0 2.479.674 2.584 1.84H99.88c-.106-.451-.533-.739-1.213-.739-.662 0-1.16.317-1.16.78 0 .363.305.586.95.732l1.13.258c1.225.275 1.793.803 1.793 1.746 0 1.23-1.131 2.05-2.73 2.05-1.6 0-2.608-.69-2.72-1.857h1.436c.14.475.592.756 1.319.756.732 0 1.242-.322 1.242-.797 0-.363-.276-.591-.885-.726l-1.137-.264c-1.23-.281-1.81-.85-1.81-1.816z" fill="#24124D" opacity=".5"/></g></g></g></svg>