<?xml version="1.0" encoding="UTF-8"?>
<svg width="400px" height="400px" viewBox="0 0 400 400" version="1.1" xmlns="http://www.w3.org/2000/svg" xmlns:xlink="http://www.w3.org/1999/xlink">
    <!-- Generator: Sketch 49.3 (51167) - http://www.bohemiancoding.com/sketch -->
    <title>illustration/email</title>
    <desc>Created with Sketch.</desc>
    <defs>
        <path d="M13.236528,1.56223893 C10.4425344,0.247771757 7.17629636,0.438796421 4.55323156,2.07007816 C1.93016675,3.7013599 0.305103078,6.55223153 0.232998398,9.64912281 L0.232998398,85.6613757 L28.7808498,86.2183236 L28.7808498,33.3862434 C29.5131304,21.9019772 26.7060545,7.90030632 13.236528,1.56223893 Z" id="path-1"></path>
        <linearGradient x1="10.2012463%" y1="57.1395213%" x2="90.341303%" y2="45.8328249%" id="linearGradient-3">
            <stop stop-color="#1E2151" offset="0%"></stop>
            <stop stop-color="#282F6B" offset="100%"></stop>
        </linearGradient>
    </defs>
    <g id="illustration/email" stroke="none" stroke-width="1" fill="none" fill-rule="evenodd">
        <g id="Group" transform="translate(24.000000, 0.000000)">
            <g transform="translate(0.000000, 92.000000)">
                <ellipse id="Oval" fill="#BFCDE8" fill-rule="nonzero" opacity="0.200000003" cx="88.5523102" cy="296.933445" rx="74.9256277" ry="10.737956"></ellipse>
                <g transform="translate(70.000000, 118.000000)" fill-rule="nonzero">
                    <path d="M0.322959357,0.211463406 L0.322959357,177.610588 C1.99757049,181.374209 5.82276421,183.812132 10.0534163,183.812132 C14.2840683,183.812132 18.109262,181.374209 19.7838732,177.610588 L19.7838732,0.211463406 L0.322959357,0.211463406 Z" id="Shape" fill="#D3DCF2"></path>
                    <path d="M8.11176295,0 L0.345149681,0 L0.345149681,177.596497 C1.86793809,180.631327 4.72173645,182.837526 8.11176295,183.600668 L8.11176295,0 Z" id="Shape" fill="#D3DCF2" opacity="0.45" style="mix-blend-mode: multiply;"></path>
                    <polygon id="Rectangle-path" fill="#AABCE0" style="mix-blend-mode: multiply;" points="0.334054519 0 19.8948248 0 19.8948248 24.2816068 0.334054519 26.2816068"></polygon>
                </g>
                <g transform="translate(89.000000, 98.000000) rotate(-6.000000) translate(-89.000000, -98.000000) translate(9.000000, 8.000000)">
                    <g transform="translate(0.000000, 39.000000)" fill="#1ED1D1" fill-rule="nonzero" id="Shape">
                        <path d="M28.3259481,0.287106656 L116.510294,0.287106656 C131.970453,0.287106656 144.503387,12.8695135 144.503387,28.390699 L144.503387,87.3269284 L0.733944954,87.3269284 L0.332854854,28.390699 C0.332854854,12.8695135 12.8657896,0.287106656 28.3259481,0.287106656 Z"></path>
                        <path d="M146.578183,140.24812 C141.219361,140.247028 136.383477,137.020622 134.306934,132.060986 L115.51173,87.1598441 L144.35915,87.1598441 L158.782861,121.690615 C160.510899,125.807307 160.076239,130.51854 157.624447,134.246549 C155.172654,137.974558 151.027879,140.226466 146.578183,140.24812 Z"></path>
                    </g>
                    <g transform="translate(115.722538, 40.476190)">
                        <mask id="mask-2" fill="white">
                            <use xlink:href="#path-1"></use>
                        </mask>
                        <use id="Shape" fill="#16B2AE" fill-rule="nonzero" xlink:href="#path-1"></use>
                        <g mask="url(#mask-2)">
                            <g transform="translate(-77.444229, 22.901977)">
                                <g transform="translate(0.889993, 0.099050)">
                                    <rect id="Rectangle-path" fill="#6E57EE" fill-rule="nonzero" x="0.566850999" y="0.244966442" width="97.7372804" height="63.893066"></rect>
                                    <polygon id="Shape" fill="#5A4BE2" fill-rule="nonzero" opacity="0.26" points="49.4067556 24.1047062 0.643519385 63.9598997 98.3697047 63.7148427"></polygon>
                                    <polygon id="Shape" fill="#6E57EE" fill-rule="nonzero" opacity="0.16" style="mix-blend-mode: multiply;" points="49.4400411 35.4218881 98.2143724 0.122528544 0.48818712 0.367585631"></polygon>
                                    <polygon id="Shape" fill="#7A6EF4" fill-rule="nonzero" points="49.4289459 32.0913395 98.2143724 0.122528544 0.48818712 0.367585631"></polygon>
                                </g>
                            </g>
                        </g>
                        <path d="M7.9330407,85.82846 L7.9330407,0.815928711 C3.62189246,1.47797535 0.391462733,5.12830942 0.24409356,9.50431635 C0.24409356,9.60456697 0.24409356,9.7048176 0.24409356,9.80506823 L0.24409356,85.6836536 L6.64600193,85.8061821 L7.9330407,85.82846 Z" id="Shape" fill="#16B2AE" fill-rule="nonzero" opacity="0.48" style="mix-blend-mode: multiply;" mask="url(#mask-2)"></path>
                    </g>
                    <g transform="translate(0.000000, 116.000000)" fill-rule="nonzero">
                        <polygon id="Rectangle-path" fill="#3BE2DE" points="0.733944954 0.00111389585 115.789109 0.00111389585 115.789109 10.375 0.733944954 10.375"></polygon>
                        <ellipse id="Oval" fill="#0F8279" opacity="0.43" cx="7.53361487" cy="5.49262044" rx="2.2966985" ry="2.30576441"></ellipse>
                        <ellipse id="Oval" fill="#0F8279" opacity="0.43" cx="109.076536" cy="5.49262044" rx="2.2966985" ry="2.30576441"></ellipse>
                    </g>
                    <g transform="translate(92.000000, 0.000000)">
                        <ellipse id="Oval" fill="#16B2AE" fill-rule="nonzero" opacity="0.44" cx="4.41695618" cy="59.0142022" rx="3.45059532" ry="3.4642161"></ellipse>
                        <path d="M4.41695618,58.8248399 L4.41695618,3.37510443" id="Shape" stroke="#F84F77" stroke-width="2.59" stroke-linecap="round" stroke-linejoin="round"></path>
                        <path d="M4.41695618,23.3027012 L4.41695618,3.37510443" id="Shape" stroke="#E8386A" stroke-width="2.59" stroke-linejoin="round"></path>
                        <rect id="Rectangle-path" fill="#F84F77" fill-rule="nonzero" x="2.98568031" y="0.634920635" width="37.9676437" height="13.8568644"></rect>
                        <path d="M15.2972673,4.56011187 C15.3902186,4.26377689 15.6771678,4.07327114 15.9851673,4.10341457 L16.1404996,4.10341457 C16.5027249,4.13006299 16.7907608,4.41923587 16.8173044,4.78289104 L17.5273948,10.6197053 C17.518706,11.0097252 17.2163683,11.3293297 16.8288465,11.3581483 C16.4413246,11.386967 16.0953813,11.1155728 16.0295479,10.7310949 L15.5968366,7.03296065 L14.1766559,9.9736457 C14.0480808,10.3360838 13.7159971,10.5861297 13.3334236,10.6085663 C12.9539127,10.5847014 12.6258031,10.3343538 12.5012865,9.9736457 L11.0700106,7.03296065 L10.6372993,10.7310949 C10.580015,11.1276195 10.2250439,11.4107646 9.82735248,11.3771545 C9.43429624,11.3476861 9.13247514,11.0153498 9.13945245,10.6197053 L9.8495428,4.78289104 C9.87608645,4.41923587 10.1641223,4.13006299 10.5263477,4.10341457 L10.6816799,4.10341457 C10.9907814,4.06875098 11.2803402,4.26098929 11.36958,4.56011187 L13.3334236,8.77063818 L15.2972673,4.56011187 Z" id="Shape" fill="#FFFFFF" fill-rule="nonzero"></path>
                        <path d="M21.2594118,9.47925369 L20.7712247,10.7936508 C20.6008482,11.1511439 20.1876521,11.3199689 19.8170408,11.1835143 C19.440527,11.0376251 19.2414854,10.623349 19.3621391,10.2367029 L21.4258392,4.66722361 C21.57005,4.22936608 21.9878219,3.94215384 22.4465941,3.96546923 L22.5131651,3.96546923 C22.9719373,3.94215384 23.3897093,4.22936608 23.53392,4.66722361 L25.5976201,10.2367029 C25.7182738,10.623349 25.5192322,11.0376251 25.1427185,11.1835143 C24.7721071,11.3199689 24.3589111,11.1511439 24.1885345,10.7936508 L23.7003474,9.47925369 L21.2594118,9.47925369 Z M23.2121603,8.15371763 L22.4909748,5.65859092 L21.7697893,8.15371763 L23.2121603,8.15371763 Z" id="Shape" fill="#FFFFFF" fill-rule="nonzero"></path>
                        <path d="M29.1743049,10.4217873 C29.1562955,10.8234883 28.8201641,11.1361335 28.4198339,11.1235417 C28.0238881,11.1246176 27.6944752,10.8182216 27.6653629,10.4217873 L27.6653629,4.56269515 C27.6995909,4.16875401 28.0259742,3.86517584 28.4198339,3.86094077 C28.8201641,3.84834899 29.1562955,4.16099419 29.1743049,4.56269515 L29.1743049,10.4217873 Z" id="Shape" fill="#FFFFFF" fill-rule="nonzero"></path>
                        <path d="M33.3723187,9.63778239 L35.4360188,9.63778239 C35.6067253,9.64359005 35.7681292,9.71729265 35.8846723,9.8426531 C36.0012153,9.96801355 36.0633357,10.1347465 36.0573479,10.3061199 C36.0527996,10.6563845 35.7837642,10.9457745 35.4360188,10.9744574 L32.4625154,10.9744574 C32.2945324,10.978397 32.1328948,10.9100039 32.0183969,10.7865391 C31.9038989,10.6630744 31.8474791,10.4963332 31.8633767,10.3283978 L31.8633767,4.45816669 C31.8976047,4.06422555 32.223988,3.76064738 32.6178477,3.7564123 C33.0181779,3.74382053 33.3543094,4.05646572 33.3723187,4.45816669 L33.3723187,9.63778239 Z" id="Shape" fill="#FFFFFF" fill-rule="nonzero"></path>
                    </g>
                </g>
            </g>
            <g id="Person" transform="translate(156.000000, 0.000000)">
                <path d="M84.1680912,76.4492102 C84.1680912,76.4492102 95.9249763,94.5535428 86.3903134,112.169077 C76.8556505,129.784612 96.2098765,138.864978 110.530864,125.329028 C124.851852,111.793079 121.926876,66.7484464 113.2849,65.1692522 C104.642925,63.5900581 84.1680912,76.4492102 84.1680912,76.4492102 Z" id="Shape" fill="#1E2151" fill-rule="nonzero"></path>
                <path d="M130.188984,120.459846 C113.588794,140.462972 84.4529915,162.47769 55.8869896,168.474867 C54.4624881,168.794466 53.0949668,169.020065 51.8034188,169.208065 C27.1120608,173.11845 26.2573599,160.560097 37.6723647,156.555712 C40.1604938,155.672115 43.3703704,154.33732 47.017094,152.626526 C60.9012346,146.140551 80.7302944,134.578594 88.4036087,125.141029 C98.0712251,113.259473 112.7151,85.1159779 112.7151,85.1159779 C115.831364,78.8909293 119.6069,73.0111608 123.978158,67.5756433 C129.99905,55.1676895 150.188984,51.5581029 150.682811,75.6220133 C150.682811,75.6784131 146.77018,100.475521 130.188984,120.459846 Z" id="Shape" fill="#4738D6" fill-rule="nonzero"></path>
                <path d="M180.521368,372.341308 C181.224122,375.104898 185.839506,387.92645 179.40076,392.739232 C171.195632,400.578803 137.615385,401.744399 141.281102,392.476033 C144.946819,383.207668 164.756885,382.023272 165.706553,369.14532 L180.521368,372.341308 Z" id="Shape" fill="#5A6370" fill-rule="nonzero"></path>
                <path d="M179.40076,387.96405 C172.430199,394.619225 147.112061,396.461618 141.926876,391.178838 C141.669419,391.592292 141.447067,392.026179 141.262108,392.476033 C137.463438,401.763198 171.176638,400.578803 179.381766,392.739232 C182.610636,390.332841 183.066477,385.914857 182.610636,381.760073 C182.444751,384.176063 181.284385,386.418792 179.40076,387.96405 Z" id="Shape" fill="#46505B" fill-rule="nonzero"></path>
                <path d="M142.705603,360.346953 C143.351377,362.941343 147.283001,375.386897 139.438746,379.316082 C131.841406,386.648055 102.57265,387.81365 106.048433,379.146883 C109.524217,370.480115 127.966762,371.382512 128.840456,359.350556 L142.705603,360.346953 Z" id="Shape" fill="#5A6370" fill-rule="nonzero"></path>
                <path d="M176.28585,216.677888 L153.493827,210.64311 L147.624881,210.455111 L115.830009,196.261164 C115.830009,196.261164 117.368471,326.431879 124.566952,359.538556 C124.782394,360.973161 125.138621,362.38356 125.630579,363.74974 C126.89887,367.466756 130.495834,369.907169 134.455768,369.73732 C138.415703,369.56747 141.785906,366.82822 142.724596,363.016543 C144.130224,360.750103 144.903574,358.155274 144.965812,355.496571 L147.795821,247.171374 L148.289649,242.452592 C148.973409,241.004997 149.182336,243.467788 149.619183,245.028182 C150.580799,248.71473 151.097227,252.501169 151.157645,256.30814 C153.189934,301.728771 157.387464,352.770581 159.951567,373.093305 C164.092118,384.974861 180.046534,385.463659 182.534663,378.451285 C182.922749,377.431387 183.159461,376.361202 183.237417,375.274097 C184.187085,343.727815 191.898386,252.341355 193.151947,209.609114 C189.581197,169.001265 194.310541,206.507126 176.28585,216.677888 Z" id="Shape" fill="#F84F77" fill-rule="nonzero"></path>
                <path d="M141.224122,374.4093 C134.899335,381.064476 111.917379,382.906869 107.207028,377.624088 C106.970576,378.040142 106.767361,378.473863 106.59924,378.921284 C103.237417,388.208449 133.759734,387.024053 141.224122,379.184483 C144.149098,376.778092 144.566952,372.360108 144.168091,368.205323 C144.037309,370.573103 142.981622,372.797805 141.224122,374.4093 Z" id="Shape" fill="#46505B" fill-rule="nonzero"></path>
                <path d="M146.846154,256.796938 C146.785137,252.988793 146.26224,249.201685 145.288699,245.51698 C144.832858,243.975386 144.623932,241.493795 143.940171,242.94139 L143.446344,247.660172 L135.621083,358.842958 L133.45584,362.264546 C132.843097,364.828672 131.119843,366.995192 128.745489,368.186524 C131.158847,369.982726 134.328395,370.443442 137.161589,369.409863 C139.994783,368.376285 142.104147,365.989767 142.762583,363.072943 C144.16821,360.806503 144.941561,358.211674 145.003799,355.552971 L145.97246,319.212706 C144.433998,299.22838 147.795821,278.003259 146.846154,256.796938 Z" id="Shape" fill="#ED4071" fill-rule="nonzero"></path>
                <path d="M167.358974,145.087755 L165.706553,151.103732 C179.34378,164.620882 181.395062,173.663648 184.566952,208.875917 C183.294397,251.608158 175.488129,342.994617 174.519468,374.5409 C174.441512,375.628005 174.2048,376.69819 173.816714,377.718088 C172.843702,379.953167 170.790676,381.546292 168.365622,381.948072 C174.253561,384.354463 181.053181,382.906869 182.610636,378.526485 C182.998723,377.506587 183.235434,376.436402 183.31339,375.349297 C184.263058,343.803014 191.974359,252.416555 193.22792,209.684314 C189.581197,169.001265 187.472934,163.173287 167.358974,145.087755 Z" id="Shape" fill="#ED4071" fill-rule="nonzero"></path>
                <path d="M100.046534,30.9909796 L116.912631,40.3909445 C116.912631,40.3909445 117.045584,50.4489071 123.351377,53.7952946 C123.351377,57.2356818 115.867996,67.4816436 105.269706,67.3688441 C94.671415,67.2560445 89.65717,47.4033184 89.4292498,45.3917259 L100.046534,30.9909796 Z" id="Shape" fill="#FFCFA9" fill-rule="nonzero"></path>
                <path d="M174.481481,107.074296 C183.408357,129.070214 187.586895,154.656919 195.981956,202.145542 C194.899335,214.534696 190.663818,222.656266 166.789174,229.104642 C134.253561,237.057012 116.39981,216.941087 115.867996,207.277923 C113.854701,170.59926 109.011396,147.870144 104.585945,135.838189 C104.585945,114.895067 102.68661,61.6724653 122.667616,57.8560795 C145.896486,51.8589018 165.554606,85.0783781 174.481481,107.074296 Z" id="Shape" fill="#5B42EA" fill-rule="nonzero"></path>
                <path d="M107.909782,80.4911952 L93.1519468,114.744668 C90.050883,124.453452 91.9989861,135.051868 98.3561254,143.057362 L113.151947,163.004088 L107.909782,80.4911952 Z" id="Shape" fill="#5B42EA" fill-rule="nonzero"></path>
                <path d="M49.8091168,35.5217627 C47.2640076,45.1285269 50.3219373,58.2696779 58.8689459,67.4816436 C59.4957265,70.3204331 59.8755935,74.0616191 57.9762583,75.434014 C55.2032289,77.4456065 63.674264,77.6524057 66.0864198,77.6524057 C70.1130104,82.7471868 75.5830959,87.3343697 82.6866097,88.2367663 C93.645774,89.6279611 102.648623,78.5736023 104.623932,71.9936268 C110.796771,68.3652403 109.31529,65.9400494 109.31529,65.9400494 C115.94397,-10.5004659 53.7217474,20.7074179 49.8091168,35.5217627 Z" id="Shape" fill="#FFCFA9" fill-rule="nonzero"></path>
                <path d="M137.349478,54.2652929 C133.322887,48.4937144 136.190883,52.610899 129.752137,48.9637126 C128.916429,48.4937144 128.137702,47.9861163 127.358974,47.4597182 C114.671415,55.9572866 103.522317,63.364459 103.522317,63.364459 L97.0645774,63.9096569 C97.2840569,64.5223507 97.4555048,65.1508761 97.5773979,65.7896499 C97.2165242,73.9112197 84.5669516,106.0967 95.4121557,125.629827 C96.733717,128.137475 99.14379,129.907025 101.951685,130.431352 C104.759581,130.955679 107.655352,130.176906 109.809117,128.318217 C113.025779,125.498431 116.004933,122.423867 118.716999,119.125051 C126.048433,107.732294 136.22887,111.30428 143.750237,115.741064 C150.834758,119.914648 150.245964,102.317914 150.169991,99.2535253 C149.99905,92.8427492 146.37132,76.1860112 157.007597,76.3928104 C159.34378,76.3740105 141.110161,59.6608728 137.349478,54.2652929 Z" id="Shape" fill="#5B42EA" fill-rule="nonzero" opacity="0.25" style="mix-blend-mode: multiply;"></path>
                <ellipse id="Oval" fill="#301C57" fill-rule="nonzero" transform="translate(63.346641, 67.300483) rotate(-21.760000) translate(-63.346641, -67.300483) " cx="63.3466411" cy="67.3004832" rx="1.13960114" ry="2.03039244"></ellipse>
                <path d="M69.9230769,81.8259902 C70.7984738,81.8551998 71.6723809,81.7343532 72.5061728,81.4687915 C73.3234089,81.2221236 74.0982412,80.8544987 74.8043685,80.3783956 C75.5303517,79.9172624 76.2051817,79.3816359 76.8176638,78.7804015 C77.4444444,78.1788038 78.0332384,77.5208062 78.7169991,76.9004085 C78.5460589,77.314007 78.3181387,77.7088055 78.1282051,78.122404 C77.9382716,78.5360025 77.6153846,78.8744012 77.3494777,79.2315999 C76.7663722,79.9512455 76.0819698,80.5843601 75.317189,81.1115929 C73.7424748,82.2011898 71.731799,82.4674841 69.9230769,81.8259902 Z" id="Shape" fill="#C17481" fill-rule="nonzero"></path>
                <path d="M55.9819563,61.5220658 C56.4625124,60.0625609 57.5463826,58.873562 58.9639126,58.250878 C59.6771385,57.9212313 60.4560049,57.7541955 61.2431149,57.7620798 C62.0306479,57.7561591 62.8005708,57.9926674 63.4463438,58.4388773 C62.6866097,58.6644765 62.0408357,58.796076 61.4330484,59.0216751 C60.8302698,59.2244146 60.2404034,59.4629808 59.6666667,59.7360725 C58.5270655,60.2248707 57.368471,60.8828682 55.9819563,61.5220658 Z" id="Shape" fill="#33156D" fill-rule="nonzero"></path>
                <path d="M80.4453941,61.6348654 C80.4453941,61.6348654 86.1433998,51.4453034 93.3418803,60.0556713 C93.3418803,60.0556713 87.5109212,67.0116454 80.4453941,61.6348654 Z" id="Shape" fill="#FFCFA9" fill-rule="nonzero"></path>
                <path d="M94.025641,50.6369064 C85.3477477,52.6455147 76.2514534,51.9023346 68.0237417,48.5125143 C60.9392213,45.6737249 51.2336182,39.6201474 48.8024691,31.9685759 C48.4970316,30.9319194 48.3812508,29.8495704 48.4605888,28.7725878 C48.4605888,28.9041873 48.365622,29.0545868 48.3276353,29.1861863 C46.8385729,35.6974892 47.354586,42.5010498 49.8091168,48.7193135 C53.1912886,51.0531491 56.8615458,52.948565 60.7302944,54.3592925 C69.0469151,57.4742282 78.1412968,57.9279331 86.7321937,55.6564877 C92.5349456,53.8447971 98.8101816,56.453397 101.566002,61.8228647 C102.070307,62.856672 102.440451,63.9494776 102.667616,65.0752526 C102.610888,65.9527193 102.496687,66.825617 102.325736,67.6884429 C102.637739,67.0109756 102.904225,66.3138629 103.123457,65.6016506 C109.296296,61.9732641 107.814815,59.5480732 107.814815,59.5480732 C107.909782,58.4200774 107.985755,57.2920816 108.061728,56.2016856 C105.167006,51.4482588 99.435152,49.1757947 94.025641,50.6369064 Z" id="Shape" fill="#FFCFA9" fill-rule="nonzero" opacity="0.31" style="mix-blend-mode: multiply;"></path>
                <path d="M111.081671,160.278098 L114.082621,182.386816 C114.082621,182.386816 130.302944,163.248487 127.169041,126.569824 C127.169041,126.569824 111.271605,140.575771 105.497626,149.712537 C103.864198,152.400927 112.069326,160.691696 111.081671,160.278098 Z" id="Shape" fill="#5B42EA" fill-rule="nonzero" opacity="0.25" style="mix-blend-mode: multiply;"></path>
                <path d="M161.888889,381.459274 C160.698007,381.033458 159.77723,380.080314 159.40076,378.883684 L157.501425,372.660907 C157.235062,371.747893 157.486626,370.763656 158.159588,370.085861 C158.832549,369.408067 159.822388,369.141987 160.749288,369.389719 L168.935423,371.589311 C169.718549,371.790988 170.366281,372.334659 170.695271,373.066432 C171.02426,373.798205 170.998702,374.63844 170.625831,375.349297 L168.365622,380.011679 C167.465411,381.869346 165.288007,382.747704 163.332384,382.042072 L161.888889,381.459274 Z" id="Shape" fill="#6D7784" fill-rule="nonzero"></path>
                <path d="M155.830009,379.97408 L164.301045,384.636462" id="Shape" stroke="#FFFFFF" stroke-width="0.85" stroke-linecap="round" stroke-linejoin="round"></path>
                <path d="M151.993352,382.286471 L160.445394,386.948854" id="Shape" stroke="#FFFFFF" stroke-width="0.85" stroke-linecap="round" stroke-linejoin="round"></path>
                <path d="M126.447293,369.08892 C125.256411,368.663104 124.335634,367.70996 123.959164,366.51333 L122.059829,360.290553 C121.793467,359.377539 122.045031,358.393302 122.717992,357.715508 C123.390954,357.037713 124.380792,356.771633 125.307692,357.019365 L133.493827,359.218957 C134.276953,359.420634 134.924686,359.964305 135.253675,360.696078 C135.582665,361.427852 135.557106,362.268086 135.184236,362.978943 L132.924027,367.641326 C132.023816,369.498992 129.846412,370.37735 127.890788,369.671718 L126.447293,369.08892 Z" id="Shape" fill="#6D7784" fill-rule="nonzero"></path>
                <path d="M120.388414,367.622526 L128.859449,372.266108" id="Shape" stroke="#FFFFFF" stroke-width="0.85" stroke-linecap="round" stroke-linejoin="round"></path>
                <path d="M116.551757,369.934917 L125.003799,374.5973" id="Shape" stroke="#FFFFFF" stroke-width="0.85" stroke-linecap="round" stroke-linejoin="round"></path>
                <path d="M147.150047,53.1184971 C141.262108,50.5805066 134.519468,47.7229172 128.517569,44.6585286 C121.796112,41.3156212 116.736427,35.4116943 114.500475,28.3025896 L114.500475,28.1521901 C112.392213,21.3278156 110.701804,14.6162406 105.307692,9.35226016 C90.1130104,-5.68768381 65.0607787,0.309493847 50.9107312,14.76664 C47.342825,18.4377148 44.5985359,22.8133321 42.8575499,27.6069922 C41.7369421,30.6713807 40.1794872,34.5441663 41.300095,37.6273548 C43.674264,44.1321306 52.7910731,48.9073128 59.4387464,51.0881047 C67.2620204,53.6545766 75.6723716,53.9028801 83.6362773,51.802502 C89.1063628,50.2797077 95.0322887,52.2537004 97.3494777,56.916083 C97.8004108,57.8015115 98.1263435,58.7440491 98.3181387,59.7172726 C97.8622982,66.7296464 85.5546059,94.760342 95.3551757,111.49228 C96.7289597,113.698212 99.0100511,115.197779 101.597041,115.595619 C104.18403,115.993459 106.817256,115.249641 108.802469,113.560272 C111.823329,111.088702 114.643046,108.385704 117.235518,105.476302 C124.244065,95.5123392 133.664767,98.4451283 140.597341,102.167514 C147.131054,105.664301 146.865147,90.4551581 146.846154,87.8231679 C146.846154,82.2959884 143.731244,67.5944432 153.569801,67.9516419 C165.459639,68.3088405 159.381766,58.4012775 147.150047,53.1184971 Z" id="Shape" fill="#1E2151" fill-rule="nonzero"></path>
                <path d="M100.02754,107.337495 C90.8347578,90.3235585 104.092118,62.6312617 104.794872,55.6188878 C104.636871,54.6373682 104.34287,53.6821059 103.921178,52.7800984 C101.736942,48.042516 95.9249763,45.899324 90.4169041,47.252919 C82.4019156,49.1221987 74.0091868,48.6254625 66.2763533,45.8241243 C59.7236467,43.4741331 50.7777778,38.3041523 48.631529,31.8181765 C47.6248813,28.6973881 49.3152896,24.8810023 50.5308642,21.8354137 C52.4427303,17.0867242 55.3417546,12.788877 59.039886,9.22066065 C60.4225459,7.87887477 61.8878392,6.62314212 63.4273504,5.46067466 C58.7613607,7.82383292 54.5147247,10.9224041 50.8537512,14.6350405 C47.285845,18.3061153 44.5415558,22.6817326 42.8005698,27.4753927 C41.679962,30.5397812 40.1225071,34.4125668 41.2431149,37.4957553 C43.617284,44.0005311 52.7340931,48.7757133 59.3817664,50.9565052 C67.2050404,53.5229771 75.6153915,53.7712806 83.5792972,51.6709025 C89.0493827,50.1481082 94.9753086,52.1221008 97.2924976,56.7844835 C97.7434307,57.669912 98.0693634,58.6124495 98.2611586,59.585673 C97.8053181,66.5980469 85.4976258,94.6287425 95.2981956,111.36068 C96.6719796,113.566613 98.953071,115.066179 101.540061,115.46402 C104.12705,115.86186 106.760276,115.118042 108.745489,113.428672 L111.708452,110.834282 C107.490478,112.876465 102.395154,111.351133 100.02754,107.337495 Z" id="Shape" fill="url(#linearGradient-3)" fill-rule="nonzero"></path>
                <path d="M51.8034188,169.208065 C27.1120608,173.11845 26.2573599,160.560097 37.6723647,156.555712 C40.1604938,155.672115 43.3703704,154.33732 47.017094,152.626526 C47.017094,152.626526 45.9154796,164.808881 51.8034188,169.208065 Z" id="Shape" fill="#FFCFA9" fill-rule="nonzero"></path>
                <g id="Group" transform="translate(0.000000, 100.000000)" fill-rule="nonzero">
                    <path d="M101.698955,43.8861218 C75.6210826,45.7661148 39.4197531,39.8817367 15.3931624,23.4693978 C14.1775878,22.6610008 13.0759734,21.8338039 12.0503324,21.0442069 C-7.74074074,6.00426288 0.825261159,-3.26410259 11.6134853,2.24427689 C13.968661,3.42867248 17.1785375,4.8198673 20.9392213,6.2674619 C35.2412156,11.7946413 57.3494777,18.0926179 69.5622032,17.1338214 C84.9278253,15.911826 115.640076,7.09465882 115.640076,7.09465882 C122.348043,5.05381055 129.256068,3.72408752 136.247863,3.1278736 C149.54321,-1.06451078 166.02944,10.9674444 148.688509,27.8685814 C148.688509,27.8121816 127.757835,42.0813285 101.698955,43.8861218 Z" id="Shape" fill="#5D4EEA"></path>
                    <path d="M12.0503324,21.0442069 C-7.74074074,6.00426288 0.825261159,-3.26410259 11.6134853,2.24427689 C13.968661,3.42867248 17.1785375,4.8198673 20.9392213,6.2674619 C20.9392213,6.21106211 11.2336182,13.7874339 12.0503324,21.0442069 Z" id="Shape" fill="#FFCFA9"></path>
                </g>
            </g>
        </g>
    </g>
</svg>