<?xml version="1.0" encoding="UTF-8"?>
<svg width="400px" height="320px" viewBox="0 0 400 320" version="1.1" xmlns="http://www.w3.org/2000/svg" xmlns:xlink="http://www.w3.org/1999/xlink">
    <!-- Generator: Sketch 49.3 (51167) - http://www.bohemiancoding.com/sketch -->
    <title>snippet/annotation-edit</title>
    <desc>Created with Sketch.</desc>
    <defs>
        <rect id="path-1" x="2" y="2" width="364" height="92" rx="3"></rect>
        <filter x="-1.9%" y="-5.4%" width="103.8%" height="115.2%" filterUnits="objectBoundingBox" id="filter-2">
            <feOffset dx="0" dy="2" in="SourceAlpha" result="shadowOffsetOuter1"></feOffset>
            <feGaussianBlur stdDeviation="2" in="shadowOffsetOuter1" result="shadowBlurOuter1"></feGaussianBlur>
            <feColorMatrix values="0 0 0 0 0   0 0 0 0 0   0 0 0 0 0  0 0 0 0.2 0" type="matrix" in="shadowBlurOuter1"></feColorMatrix>
        </filter>
        <rect id="path-3" x="0" y="0" width="368" height="96" rx="3"></rect>
        <filter x="-1.2%" y="-3.6%" width="102.4%" height="109.4%" filterUnits="objectBoundingBox" id="filter-4">
            <feMorphology radius="1" operator="dilate" in="SourceAlpha" result="shadowSpreadOuter1"></feMorphology>
            <feOffset dx="0" dy="1" in="shadowSpreadOuter1" result="shadowOffsetOuter1"></feOffset>
            <feGaussianBlur stdDeviation="1" in="shadowOffsetOuter1" result="shadowBlurOuter1"></feGaussianBlur>
            <feComposite in="shadowBlurOuter1" in2="SourceAlpha" operator="out" result="shadowBlurOuter1"></feComposite>
            <feColorMatrix values="0 0 0 0 0   0 0 0 0 0   0 0 0 0 0  0 0 0 0.04 0" type="matrix" in="shadowBlurOuter1"></feColorMatrix>
        </filter>
        <rect id="path-5" x="0" y="0" width="24" height="24" rx="3"></rect>
        <filter x="-22.9%" y="-14.6%" width="145.8%" height="145.8%" filterUnits="objectBoundingBox" id="filter-6">
            <feOffset dx="0" dy="2" in="SourceAlpha" result="shadowOffsetOuter1"></feOffset>
            <feGaussianBlur stdDeviation="1.5" in="shadowOffsetOuter1" result="shadowBlurOuter1"></feGaussianBlur>
            <feComposite in="shadowBlurOuter1" in2="SourceAlpha" operator="out" result="shadowBlurOuter1"></feComposite>
            <feColorMatrix values="0 0 0 0 0   0 0 0 0 0   0 0 0 0 0  0 0 0 0.0508378623 0" type="matrix" in="shadowBlurOuter1"></feColorMatrix>
        </filter>
        <rect id="path-7" x="2" y="2" width="364" height="92" rx="3"></rect>
        <filter x="-1.9%" y="-5.4%" width="103.8%" height="115.2%" filterUnits="objectBoundingBox" id="filter-8">
            <feOffset dx="0" dy="2" in="SourceAlpha" result="shadowOffsetOuter1"></feOffset>
            <feGaussianBlur stdDeviation="2" in="shadowOffsetOuter1" result="shadowBlurOuter1"></feGaussianBlur>
            <feColorMatrix values="0 0 0 0 0   0 0 0 0 0   0 0 0 0 0  0 0 0 0.2 0" type="matrix" in="shadowBlurOuter1"></feColorMatrix>
        </filter>
        <rect id="path-9" x="0" y="0" width="368" height="96" rx="3"></rect>
        <filter x="-1.2%" y="-3.6%" width="102.4%" height="109.4%" filterUnits="objectBoundingBox" id="filter-10">
            <feMorphology radius="1" operator="dilate" in="SourceAlpha" result="shadowSpreadOuter1"></feMorphology>
            <feOffset dx="0" dy="1" in="shadowSpreadOuter1" result="shadowOffsetOuter1"></feOffset>
            <feGaussianBlur stdDeviation="1" in="shadowOffsetOuter1" result="shadowBlurOuter1"></feGaussianBlur>
            <feComposite in="shadowBlurOuter1" in2="SourceAlpha" operator="out" result="shadowBlurOuter1"></feComposite>
            <feColorMatrix values="0 0 0 0 0   0 0 0 0 0   0 0 0 0 0  0 0 0 0.04 0" type="matrix" in="shadowBlurOuter1"></feColorMatrix>
        </filter>
        <rect id="path-11" x="0" y="0" width="24" height="24" rx="3"></rect>
        <filter x="-22.9%" y="-14.6%" width="145.8%" height="145.8%" filterUnits="objectBoundingBox" id="filter-12">
            <feOffset dx="0" dy="2" in="SourceAlpha" result="shadowOffsetOuter1"></feOffset>
            <feGaussianBlur stdDeviation="1.5" in="shadowOffsetOuter1" result="shadowBlurOuter1"></feGaussianBlur>
            <feComposite in="shadowBlurOuter1" in2="SourceAlpha" operator="out" result="shadowBlurOuter1"></feComposite>
            <feColorMatrix values="0 0 0 0 0   0 0 0 0 0   0 0 0 0 0  0 0 0 0.0508378623 0" type="matrix" in="shadowBlurOuter1"></feColorMatrix>
        </filter>
        <path d="M3,8 L365,8 C366.656854,8 368,9.34314575 368,11 L368,64 L0,64 L0,11 C-2.02906125e-16,9.34314575 1.34314575,8 3,8 Z" id="path-13"></path>
        <filter x="-3.3%" y="-21.4%" width="106.5%" height="142.9%" filterUnits="objectBoundingBox" id="filter-14">
            <feOffset dx="0" dy="0" in="SourceAlpha" result="shadowOffsetOuter1"></feOffset>
            <feGaussianBlur stdDeviation="4" in="shadowOffsetOuter1" result="shadowBlurOuter1"></feGaussianBlur>
            <feColorMatrix values="0 0 0 0 0   0 0 0 0 0   0 0 0 0 0  0 0 0 0.16 0" type="matrix" in="shadowBlurOuter1"></feColorMatrix>
        </filter>
        <rect id="path-15" x="0" y="0" width="48" height="40" rx="3"></rect>
        <filter x="-9.4%" y="-8.8%" width="118.8%" height="122.5%" filterUnits="objectBoundingBox" id="filter-16">
            <feMorphology radius="1" operator="dilate" in="SourceAlpha" result="shadowSpreadOuter1"></feMorphology>
            <feOffset dx="0" dy="1" in="shadowSpreadOuter1" result="shadowOffsetOuter1"></feOffset>
            <feGaussianBlur stdDeviation="1" in="shadowOffsetOuter1" result="shadowBlurOuter1"></feGaussianBlur>
            <feComposite in="shadowBlurOuter1" in2="SourceAlpha" operator="out" result="shadowBlurOuter1"></feComposite>
            <feColorMatrix values="0 0 0 0 0   0 0 0 0 0   0 0 0 0 0  0 0 0 0.04 0" type="matrix" in="shadowBlurOuter1"></feColorMatrix>
        </filter>
        <rect id="path-17" x="0" y="0" width="48" height="40" rx="3"></rect>
        <filter x="-9.4%" y="-8.8%" width="118.8%" height="122.5%" filterUnits="objectBoundingBox" id="filter-18">
            <feMorphology radius="1" operator="dilate" in="SourceAlpha" result="shadowSpreadOuter1"></feMorphology>
            <feOffset dx="0" dy="1" in="shadowSpreadOuter1" result="shadowOffsetOuter1"></feOffset>
            <feGaussianBlur stdDeviation="1" in="shadowOffsetOuter1" result="shadowBlurOuter1"></feGaussianBlur>
            <feComposite in="shadowBlurOuter1" in2="SourceAlpha" operator="out" result="shadowBlurOuter1"></feComposite>
            <feColorMatrix values="0 0 0 0 0   0 0 0 0 0   0 0 0 0 0  0 0 0 0.04 0" type="matrix" in="shadowBlurOuter1"></feColorMatrix>
        </filter>
        <rect id="path-19" x="0" y="0" width="48" height="40" rx="3"></rect>
        <filter x="-9.4%" y="-8.8%" width="118.8%" height="122.5%" filterUnits="objectBoundingBox" id="filter-20">
            <feMorphology radius="1" operator="dilate" in="SourceAlpha" result="shadowSpreadOuter1"></feMorphology>
            <feOffset dx="0" dy="1" in="shadowSpreadOuter1" result="shadowOffsetOuter1"></feOffset>
            <feGaussianBlur stdDeviation="1" in="shadowOffsetOuter1" result="shadowBlurOuter1"></feGaussianBlur>
            <feComposite in="shadowBlurOuter1" in2="SourceAlpha" operator="out" result="shadowBlurOuter1"></feComposite>
            <feColorMatrix values="0 0 0 0 0   0 0 0 0 0   0 0 0 0 0  0 0 0 0.04 0" type="matrix" in="shadowBlurOuter1"></feColorMatrix>
        </filter>
        <rect id="path-21" x="0" y="0" width="48" height="40" rx="3"></rect>
        <filter x="-9.4%" y="-8.8%" width="118.8%" height="122.5%" filterUnits="objectBoundingBox" id="filter-22">
            <feMorphology radius="1" operator="dilate" in="SourceAlpha" result="shadowSpreadOuter1"></feMorphology>
            <feOffset dx="0" dy="1" in="shadowSpreadOuter1" result="shadowOffsetOuter1"></feOffset>
            <feGaussianBlur stdDeviation="1" in="shadowOffsetOuter1" result="shadowBlurOuter1"></feGaussianBlur>
            <feComposite in="shadowBlurOuter1" in2="SourceAlpha" operator="out" result="shadowBlurOuter1"></feComposite>
            <feColorMatrix values="0 0 0 0 0   0 0 0 0 0   0 0 0 0 0  0 0 0 0.04 0" type="matrix" in="shadowBlurOuter1"></feColorMatrix>
        </filter>
    </defs>
    <g id="snippet/annotation-edit" stroke="none" stroke-width="1" fill="none" fill-rule="evenodd">
        <g id="Group" transform="translate(16.000000, 16.000000)">
            <g id="Card" transform="translate(0.000000, 80.000000)">
                <g id="component/card">
                    <g id="Shadow">
                        <use fill="black" fill-opacity="1" filter="url(#filter-2)" xlink:href="#path-1"></use>
                        <use fill="#FFFFFF" fill-rule="evenodd" xlink:href="#path-1"></use>
                    </g>
                    <g id="Card" stroke-linecap="square">
                        <use fill="black" fill-opacity="1" filter="url(#filter-4)" xlink:href="#path-3"></use>
                        <use fill="#FFFFFF" fill-rule="evenodd" xlink:href="#path-3"></use>
                        <rect stroke-opacity="0.098194067" stroke="#140B2F" stroke-width="1" x="-0.5" y="-0.5" width="369" height="97" rx="3"></rect>
                    </g>
                </g>
                <g id="component/checkbox-checked" transform="translate(16.000000, 16.000000)">
                    <g id="Checkbox-checked">
                        <g id="Rectangle-5">
                            <use fill="black" fill-opacity="1" filter="url(#filter-6)" xlink:href="#path-5"></use>
                            <use fill="#5182F8" fill-rule="evenodd" xlink:href="#path-5"></use>
                            <rect stroke="#5182F8" stroke-width="1" x="0.5" y="0.5" width="23" height="23" rx="3"></rect>
                        </g>
                        <g id="Tick" transform="translate(2.000000, 2.000000)">
                            <rect id="Rectangle" x="0" y="0" width="20" height="20"></rect>
                            <polyline id="Path-3" stroke="#FFFFFF" stroke-width="2" stroke-linecap="round" points="5 11 8 14 15 7"></polyline>
                        </g>
                    </g>
                </g>
                <path d="M58.5546875,32 L57.0429688,32 L57.0429688,23.5449219 L58.5546875,23.5449219 L58.5546875,32 Z M60.4882812,32 L60.4882812,25.5898438 L61.8886719,25.5898438 L61.8886719,26.6152344 L61.9882812,26.6152344 C62.2929688,25.9003906 63.0429688,25.4609375 64.0039062,25.4609375 C65.4335938,25.4609375 66.2363281,26.3222656 66.2363281,27.8515625 L66.2363281,32 L64.7890625,32 L64.7890625,28.1972656 C64.7890625,27.21875 64.34375,26.7265625 63.4648438,26.7265625 C62.5273438,26.7265625 61.9414062,27.3242188 61.9414062,28.2675781 L61.9414062,32 L60.4882812,32 Z M68.421875,24.0605469 L69.8691406,24.0605469 L69.8691406,25.6308594 L71.2753906,25.6308594 L71.2753906,26.7910156 L69.8691406,26.7910156 L69.8691406,29.9375 C69.8691406,30.5703125 70.1386719,30.8515625 70.7480469,30.8515625 C70.953125,30.8515625 71.0585938,30.8398438 71.2285156,30.8222656 L71.2285156,31.9589844 C71.0234375,32 70.7597656,32.0292969 70.4785156,32.0292969 C69.0078125,32.0292969 68.421875,31.53125 68.421875,30.2890625 L68.421875,26.7910156 L67.3789062,26.7910156 L67.3789062,25.6308594 L68.421875,25.6308594 L68.421875,24.0605469 Z M75.3828125,26.6152344 C74.515625,26.6152344 73.90625,27.2363281 73.8417969,28.1738281 L76.859375,28.1738281 C76.8300781,27.2246094 76.2558594,26.6152344 75.3828125,26.6152344 Z M76.8710938,30.2363281 L78.2480469,30.2363281 C77.9726562,31.4023438 76.9121094,32.1289062 75.4003906,32.1289062 C73.5136719,32.1289062 72.3769531,30.8808594 72.3769531,28.8183594 C72.3769531,26.7558594 73.53125,25.4609375 75.3886719,25.4609375 C77.2167969,25.4609375 78.3125,26.6738281 78.3125,28.6953125 L78.3125,29.1640625 L73.8359375,29.1640625 L73.8359375,29.2402344 C73.8710938,30.3066406 74.4863281,30.9746094 75.4414062,30.9746094 C76.1621094,30.9746094 76.6601562,30.7109375 76.8710938,30.2363281 Z M79.7714844,32 L79.7714844,25.5898438 L81.171875,25.5898438 L81.171875,26.5859375 L81.2714844,26.5859375 C81.4472656,25.953125 82.1328125,25.484375 82.953125,25.484375 C83.1582031,25.484375 83.4101562,25.5078125 83.5507812,25.5488281 L83.5507812,26.8964844 C83.4394531,26.8554688 83.0410156,26.8144531 82.8125,26.8144531 C81.8808594,26.8144531 81.2246094,27.4003906 81.2246094,28.296875 L81.2246094,32 L79.7714844,32 Z M84.1367188,25.5898438 L85.6953125,25.5898438 L87.1777344,30.546875 L87.2773438,30.546875 L88.7480469,25.5898438 L90.2832031,25.5898438 L88.015625,32 L86.4160156,32 L84.1367188,25.5898438 Z M91.5253906,32 L91.5253906,25.5898438 L92.9726562,25.5898438 L92.9726562,32 L91.5253906,32 Z M92.2460938,24.546875 C91.71875,24.546875 91.3496094,24.2070312 91.3496094,23.7441406 C91.3496094,23.28125 91.71875,22.9414062 92.2460938,22.9414062 C92.7792969,22.9414062 93.1425781,23.28125 93.1425781,23.7441406 C93.1425781,24.2070312 92.7792969,24.546875 92.2460938,24.546875 Z M97.4609375,26.6152344 C96.59375,26.6152344 95.984375,27.2363281 95.9199219,28.1738281 L98.9375,28.1738281 C98.9082031,27.2246094 98.3339844,26.6152344 97.4609375,26.6152344 Z M98.9492188,30.2363281 L100.326172,30.2363281 C100.050781,31.4023438 98.9902344,32.1289062 97.4785156,32.1289062 C95.5917969,32.1289062 94.4550781,30.8808594 94.4550781,28.8183594 C94.4550781,26.7558594 95.609375,25.4609375 97.4667969,25.4609375 C99.2949219,25.4609375 100.390625,26.6738281 100.390625,28.6953125 L100.390625,29.1640625 L95.9140625,29.1640625 L95.9140625,29.2402344 C95.9492188,30.3066406 96.5644531,30.9746094 97.5195312,30.9746094 C98.2402344,30.9746094 98.7382812,30.7109375 98.9492188,30.2363281 Z M110.433594,25.5898438 L108.699219,32 L107.169922,32 L105.921875,27.3828125 L105.822266,27.3828125 L104.580078,32 L103.068359,32 L101.333984,25.5898438 L102.798828,25.5898438 L103.865234,30.3769531 L103.964844,30.3769531 L105.195312,25.5898438 L106.583984,25.5898438 L107.826172,30.3769531 L107.925781,30.3769531 L108.986328,25.5898438 L110.433594,25.5898438 Z M123.482422,25.5898438 L121.748047,32 L120.21875,32 L118.970703,27.3828125 L118.871094,27.3828125 L117.628906,32 L116.117188,32 L114.382812,25.5898438 L115.847656,25.5898438 L116.914062,30.3769531 L117.013672,30.3769531 L118.244141,25.5898438 L119.632812,25.5898438 L120.875,30.3769531 L120.974609,30.3769531 L122.035156,25.5898438 L123.482422,25.5898438 Z M125.462891,33.7695312 L124.144531,33.7695312 L126.623047,23.5449219 L127.964844,23.5449219 L125.462891,33.7695312 Z M131.914062,29.6972656 L133.390625,29.6972656 C133.402344,30.3945312 133.882812,30.8515625 134.603516,30.8515625 C135.394531,30.8515625 135.833984,30.3710938 135.833984,29.4628906 L135.833984,23.5449219 L137.345703,23.5449219 L137.345703,29.4746094 C137.345703,31.2148438 136.320312,32.2109375 134.621094,32.2109375 C133.003906,32.2109375 131.914062,31.2265625 131.914062,29.6972656 Z M141.470703,30.9628906 C142.349609,30.9628906 143.005859,30.3945312 143.005859,29.6503906 L143.005859,29.140625 L141.558594,29.234375 C140.744141,29.2871094 140.363281,29.5800781 140.363281,30.1015625 C140.363281,30.640625 140.826172,30.9628906 141.470703,30.9628906 Z M141.042969,32.1054688 C139.806641,32.1054688 138.921875,31.3554688 138.921875,30.1835938 C138.921875,29.0234375 139.794922,28.3554688 141.353516,28.2617188 L143.005859,28.1621094 L143.005859,27.6230469 C143.005859,26.9960938 142.583984,26.6445312 141.798828,26.6445312 C141.130859,26.6445312 140.673828,26.8789062 140.539062,27.3125 L139.167969,27.3125 C139.285156,26.1816406 140.345703,25.4609375 141.869141,25.4609375 C143.515625,25.4609375 144.441406,26.2636719 144.441406,27.6230469 L144.441406,32 L143.041016,32 L143.041016,31.1210938 L142.941406,31.1210938 C142.583984,31.7421875 141.880859,32.1054688 141.042969,32.1054688 Z M146.1875,32 L146.1875,25.5898438 L147.587891,25.5898438 L147.587891,26.6152344 L147.6875,26.6152344 C147.992188,25.9003906 148.742188,25.4609375 149.703125,25.4609375 C151.132812,25.4609375 151.935547,26.3222656 151.935547,27.8515625 L151.935547,32 L150.488281,32 L150.488281,28.1972656 C150.488281,27.21875 150.042969,26.7265625 149.164062,26.7265625 C148.226562,26.7265625 147.640625,27.3242188 147.640625,28.2675781 L147.640625,32 L146.1875,32 Z M156.347656,26.6152344 C155.480469,26.6152344 154.871094,27.2363281 154.806641,28.1738281 L157.824219,28.1738281 C157.794922,27.2246094 157.220703,26.6152344 156.347656,26.6152344 Z M157.835938,30.2363281 L159.212891,30.2363281 C158.9375,31.4023438 157.876953,32.1289062 156.365234,32.1289062 C154.478516,32.1289062 153.341797,30.8808594 153.341797,28.8183594 C153.341797,26.7558594 154.496094,25.4609375 156.353516,25.4609375 C158.181641,25.4609375 159.277344,26.6738281 159.277344,28.6953125 L159.277344,29.1640625 L154.800781,29.1640625 L154.800781,29.2402344 C154.835938,30.3066406 155.451172,30.9746094 156.40625,30.9746094 C157.126953,30.9746094 157.625,30.7109375 157.835938,30.2363281 Z M164.087891,23.5449219 L167.257812,23.5449219 C169.771484,23.5449219 171.236328,25.0800781 171.236328,27.734375 C171.236328,30.4472656 169.789062,32 167.257812,32 L164.087891,32 L164.087891,23.5449219 Z M165.599609,24.8515625 L165.599609,30.6933594 L167.058594,30.6933594 C168.740234,30.6933594 169.695312,29.6445312 169.695312,27.7578125 C169.695312,25.9121094 168.716797,24.8515625 167.058594,24.8515625 L165.599609,24.8515625 Z M175.572266,30.9101562 C176.585938,30.9101562 177.160156,30.1367188 177.160156,28.7949219 C177.160156,27.4589844 176.580078,26.6796875 175.572266,26.6796875 C174.558594,26.6796875 173.978516,27.4589844 173.978516,28.7949219 C173.978516,30.1367188 174.558594,30.9101562 175.572266,30.9101562 Z M175.572266,32.1289062 C173.650391,32.1289062 172.490234,30.875 172.490234,28.7949219 C172.490234,26.7265625 173.667969,25.4609375 175.572266,25.4609375 C177.482422,25.4609375 178.654297,26.7207031 178.654297,28.7949219 C178.654297,30.875 177.488281,32.1289062 175.572266,32.1289062 Z M182.808594,26.6152344 C181.941406,26.6152344 181.332031,27.2363281 181.267578,28.1738281 L184.285156,28.1738281 C184.255859,27.2246094 183.681641,26.6152344 182.808594,26.6152344 Z M184.296875,30.2363281 L185.673828,30.2363281 C185.398438,31.4023438 184.337891,32.1289062 182.826172,32.1289062 C180.939453,32.1289062 179.802734,30.8808594 179.802734,28.8183594 C179.802734,26.7558594 180.957031,25.4609375 182.814453,25.4609375 C184.642578,25.4609375 185.738281,26.6738281 185.738281,28.6953125 L185.738281,29.1640625 L181.261719,29.1640625 L181.261719,29.2402344 C181.296875,30.3066406 181.912109,30.9746094 182.867188,30.9746094 C183.587891,30.9746094 184.085938,30.7109375 184.296875,30.2363281 Z" id="Interview-w/-Jane-Do" fill="#24124D" opacity="0.5"></path>
                <rect id="Rectangle-9" fill="#DCD5EE" x="16" y="64" width="216" height="12" rx="3"></rect>
                <rect id="Rectangle-9" fill="#512DA8" x="248" y="64" width="104" height="12" rx="3"></rect>
            </g>
            <g id="Card" transform="translate(0.000000, 192.000000)">
                <g id="component/card">
                    <g id="Shadow">
                        <use fill="black" fill-opacity="1" filter="url(#filter-8)" xlink:href="#path-7"></use>
                        <use fill="#FFFFFF" fill-rule="evenodd" xlink:href="#path-7"></use>
                    </g>
                    <g id="Card" stroke-linecap="square">
                        <use fill="black" fill-opacity="1" filter="url(#filter-10)" xlink:href="#path-9"></use>
                        <use fill="#FFFFFF" fill-rule="evenodd" xlink:href="#path-9"></use>
                        <rect stroke-opacity="0.098194067" stroke="#140B2F" stroke-width="1" x="-0.5" y="-0.5" width="369" height="97" rx="3"></rect>
                    </g>
                </g>
                <g id="component/checkbox-checked" transform="translate(16.000000, 16.000000)">
                    <g id="Checkbox-checked">
                        <g id="Rectangle-5">
                            <use fill="black" fill-opacity="1" filter="url(#filter-12)" xlink:href="#path-11"></use>
                            <use fill="#5182F8" fill-rule="evenodd" xlink:href="#path-11"></use>
                            <rect stroke="#5182F8" stroke-width="1" x="0.5" y="0.5" width="23" height="23" rx="3"></rect>
                        </g>
                        <g id="Tick" transform="translate(2.000000, 2.000000)">
                            <rect id="Rectangle" x="0" y="0" width="20" height="20"></rect>
                            <polyline id="Path-3" stroke="#FFFFFF" stroke-width="2" stroke-linecap="round" points="5 11 8 14 15 7"></polyline>
                        </g>
                    </g>
                </g>
                <path d="M58.5546875,32 L57.0429688,32 L57.0429688,23.5449219 L58.5546875,23.5449219 L58.5546875,32 Z M60.4882812,32 L60.4882812,25.5898438 L61.8886719,25.5898438 L61.8886719,26.6152344 L61.9882812,26.6152344 C62.2929688,25.9003906 63.0429688,25.4609375 64.0039062,25.4609375 C65.4335938,25.4609375 66.2363281,26.3222656 66.2363281,27.8515625 L66.2363281,32 L64.7890625,32 L64.7890625,28.1972656 C64.7890625,27.21875 64.34375,26.7265625 63.4648438,26.7265625 C62.5273438,26.7265625 61.9414062,27.3242188 61.9414062,28.2675781 L61.9414062,32 L60.4882812,32 Z M68.421875,24.0605469 L69.8691406,24.0605469 L69.8691406,25.6308594 L71.2753906,25.6308594 L71.2753906,26.7910156 L69.8691406,26.7910156 L69.8691406,29.9375 C69.8691406,30.5703125 70.1386719,30.8515625 70.7480469,30.8515625 C70.953125,30.8515625 71.0585938,30.8398438 71.2285156,30.8222656 L71.2285156,31.9589844 C71.0234375,32 70.7597656,32.0292969 70.4785156,32.0292969 C69.0078125,32.0292969 68.421875,31.53125 68.421875,30.2890625 L68.421875,26.7910156 L67.3789062,26.7910156 L67.3789062,25.6308594 L68.421875,25.6308594 L68.421875,24.0605469 Z M75.3828125,26.6152344 C74.515625,26.6152344 73.90625,27.2363281 73.8417969,28.1738281 L76.859375,28.1738281 C76.8300781,27.2246094 76.2558594,26.6152344 75.3828125,26.6152344 Z M76.8710938,30.2363281 L78.2480469,30.2363281 C77.9726562,31.4023438 76.9121094,32.1289062 75.4003906,32.1289062 C73.5136719,32.1289062 72.3769531,30.8808594 72.3769531,28.8183594 C72.3769531,26.7558594 73.53125,25.4609375 75.3886719,25.4609375 C77.2167969,25.4609375 78.3125,26.6738281 78.3125,28.6953125 L78.3125,29.1640625 L73.8359375,29.1640625 L73.8359375,29.2402344 C73.8710938,30.3066406 74.4863281,30.9746094 75.4414062,30.9746094 C76.1621094,30.9746094 76.6601562,30.7109375 76.8710938,30.2363281 Z M79.7714844,32 L79.7714844,25.5898438 L81.171875,25.5898438 L81.171875,26.5859375 L81.2714844,26.5859375 C81.4472656,25.953125 82.1328125,25.484375 82.953125,25.484375 C83.1582031,25.484375 83.4101562,25.5078125 83.5507812,25.5488281 L83.5507812,26.8964844 C83.4394531,26.8554688 83.0410156,26.8144531 82.8125,26.8144531 C81.8808594,26.8144531 81.2246094,27.4003906 81.2246094,28.296875 L81.2246094,32 L79.7714844,32 Z M84.1367188,25.5898438 L85.6953125,25.5898438 L87.1777344,30.546875 L87.2773438,30.546875 L88.7480469,25.5898438 L90.2832031,25.5898438 L88.015625,32 L86.4160156,32 L84.1367188,25.5898438 Z M91.5253906,32 L91.5253906,25.5898438 L92.9726562,25.5898438 L92.9726562,32 L91.5253906,32 Z M92.2460938,24.546875 C91.71875,24.546875 91.3496094,24.2070312 91.3496094,23.7441406 C91.3496094,23.28125 91.71875,22.9414062 92.2460938,22.9414062 C92.7792969,22.9414062 93.1425781,23.28125 93.1425781,23.7441406 C93.1425781,24.2070312 92.7792969,24.546875 92.2460938,24.546875 Z M97.4609375,26.6152344 C96.59375,26.6152344 95.984375,27.2363281 95.9199219,28.1738281 L98.9375,28.1738281 C98.9082031,27.2246094 98.3339844,26.6152344 97.4609375,26.6152344 Z M98.9492188,30.2363281 L100.326172,30.2363281 C100.050781,31.4023438 98.9902344,32.1289062 97.4785156,32.1289062 C95.5917969,32.1289062 94.4550781,30.8808594 94.4550781,28.8183594 C94.4550781,26.7558594 95.609375,25.4609375 97.4667969,25.4609375 C99.2949219,25.4609375 100.390625,26.6738281 100.390625,28.6953125 L100.390625,29.1640625 L95.9140625,29.1640625 L95.9140625,29.2402344 C95.9492188,30.3066406 96.5644531,30.9746094 97.5195312,30.9746094 C98.2402344,30.9746094 98.7382812,30.7109375 98.9492188,30.2363281 Z M110.433594,25.5898438 L108.699219,32 L107.169922,32 L105.921875,27.3828125 L105.822266,27.3828125 L104.580078,32 L103.068359,32 L101.333984,25.5898438 L102.798828,25.5898438 L103.865234,30.3769531 L103.964844,30.3769531 L105.195312,25.5898438 L106.583984,25.5898438 L107.826172,30.3769531 L107.925781,30.3769531 L108.986328,25.5898438 L110.433594,25.5898438 Z M123.482422,25.5898438 L121.748047,32 L120.21875,32 L118.970703,27.3828125 L118.871094,27.3828125 L117.628906,32 L116.117188,32 L114.382812,25.5898438 L115.847656,25.5898438 L116.914062,30.3769531 L117.013672,30.3769531 L118.244141,25.5898438 L119.632812,25.5898438 L120.875,30.3769531 L120.974609,30.3769531 L122.035156,25.5898438 L123.482422,25.5898438 Z M125.462891,33.7695312 L124.144531,33.7695312 L126.623047,23.5449219 L127.964844,23.5449219 L125.462891,33.7695312 Z M132.107422,29.703125 L133.583984,29.703125 C133.677734,30.4589844 134.427734,30.9453125 135.5,30.9453125 C136.496094,30.9453125 137.216797,30.4355469 137.216797,29.7265625 C137.216797,29.1171875 136.753906,28.7597656 135.669922,28.5078125 L134.574219,28.2558594 C133.039062,27.9101562 132.318359,27.1484375 132.318359,25.8886719 C132.318359,24.3535156 133.572266,23.3339844 135.464844,23.3339844 C137.240234,23.3339844 138.523438,24.3535156 138.59375,25.8066406 L137.146484,25.8066406 C137.041016,25.0625 136.384766,24.59375 135.458984,24.59375 C134.486328,24.59375 133.841797,25.0625 133.841797,25.7832031 C133.841797,26.3515625 134.269531,26.6855469 135.318359,26.9257812 L136.291016,27.1484375 C138.007812,27.5351562 138.728516,28.25 138.728516,29.5390625 C138.728516,31.1855469 137.457031,32.2109375 135.40625,32.2109375 C133.466797,32.2109375 132.183594,31.2382812 132.107422,29.703125 Z M140.333984,32 L140.333984,23.1113281 L141.763672,23.1113281 L141.763672,26.6269531 L141.869141,26.6269531 C142.173828,25.90625 142.929688,25.4726562 143.884766,25.4726562 C145.320312,25.4726562 146.152344,26.3398438 146.152344,27.8632812 L146.152344,32 L144.705078,32 L144.705078,28.2089844 C144.705078,27.2363281 144.236328,26.7382812 143.345703,26.7382812 C142.390625,26.7382812 141.787109,27.359375 141.787109,28.2792969 L141.787109,32 L140.333984,32 Z M150.564453,26.6152344 C149.697266,26.6152344 149.087891,27.2363281 149.023438,28.1738281 L152.041016,28.1738281 C152.011719,27.2246094 151.4375,26.6152344 150.564453,26.6152344 Z M152.052734,30.2363281 L153.429688,30.2363281 C153.154297,31.4023438 152.09375,32.1289062 150.582031,32.1289062 C148.695312,32.1289062 147.558594,30.8808594 147.558594,28.8183594 C147.558594,26.7558594 148.712891,25.4609375 150.570312,25.4609375 C152.398438,25.4609375 153.494141,26.6738281 153.494141,28.6953125 L153.494141,29.1640625 L149.017578,29.1640625 L149.017578,29.2402344 C149.052734,30.3066406 149.667969,30.9746094 150.623047,30.9746094 C151.34375,30.9746094 151.841797,30.7109375 152.052734,30.2363281 Z M157.71875,30.9101562 C158.732422,30.9101562 159.306641,30.1367188 159.306641,28.7949219 C159.306641,27.4589844 158.726562,26.6796875 157.71875,26.6796875 C156.705078,26.6796875 156.125,27.4589844 156.125,28.7949219 C156.125,30.1367188 156.705078,30.9101562 157.71875,30.9101562 Z M157.71875,32.1289062 C155.796875,32.1289062 154.636719,30.875 154.636719,28.7949219 C154.636719,26.7265625 155.814453,25.4609375 157.71875,25.4609375 C159.628906,25.4609375 160.800781,26.7207031 160.800781,28.7949219 C160.800781,30.875 159.634766,32.1289062 157.71875,32.1289062 Z M162.265625,32 L162.265625,25.5898438 L163.666016,25.5898438 L163.666016,26.6152344 L163.765625,26.6152344 C164.070312,25.9003906 164.820312,25.4609375 165.78125,25.4609375 C167.210938,25.4609375 168.013672,26.3222656 168.013672,27.8515625 L168.013672,32 L166.566406,32 L166.566406,28.1972656 C166.566406,27.21875 166.121094,26.7265625 165.242188,26.7265625 C164.304688,26.7265625 163.71875,27.3242188 163.71875,28.2675781 L163.71875,32 L162.265625,32 Z M171.927734,30.9628906 C172.806641,30.9628906 173.462891,30.3945312 173.462891,29.6503906 L173.462891,29.140625 L172.015625,29.234375 C171.201172,29.2871094 170.820312,29.5800781 170.820312,30.1015625 C170.820312,30.640625 171.283203,30.9628906 171.927734,30.9628906 Z M171.5,32.1054688 C170.263672,32.1054688 169.378906,31.3554688 169.378906,30.1835938 C169.378906,29.0234375 170.251953,28.3554688 171.810547,28.2617188 L173.462891,28.1621094 L173.462891,27.6230469 C173.462891,26.9960938 173.041016,26.6445312 172.255859,26.6445312 C171.587891,26.6445312 171.130859,26.8789062 170.996094,27.3125 L169.625,27.3125 C169.742188,26.1816406 170.802734,25.4609375 172.326172,25.4609375 C173.972656,25.4609375 174.898438,26.2636719 174.898438,27.6230469 L174.898438,32 L173.498047,32 L173.498047,31.1210938 L173.398438,31.1210938 C173.041016,31.7421875 172.337891,32.1054688 171.5,32.1054688 Z M181.507812,32 L179.996094,32 L179.996094,23.5449219 L181.507812,23.5449219 L181.507812,32 Z M183.441406,32 L183.441406,25.5898438 L184.841797,25.5898438 L184.841797,26.5859375 L184.941406,26.5859375 C185.117188,25.953125 185.802734,25.484375 186.623047,25.484375 C186.828125,25.484375 187.080078,25.5078125 187.220703,25.5488281 L187.220703,26.8964844 C187.109375,26.8554688 186.710938,26.8144531 186.482422,26.8144531 C185.550781,26.8144531 184.894531,27.4003906 184.894531,28.296875 L184.894531,32 L183.441406,32 Z M191.052734,26.6152344 C190.185547,26.6152344 189.576172,27.2363281 189.511719,28.1738281 L192.529297,28.1738281 C192.5,27.2246094 191.925781,26.6152344 191.052734,26.6152344 Z M192.541016,30.2363281 L193.917969,30.2363281 C193.642578,31.4023438 192.582031,32.1289062 191.070312,32.1289062 C189.183594,32.1289062 188.046875,30.8808594 188.046875,28.8183594 C188.046875,26.7558594 189.201172,25.4609375 191.058594,25.4609375 C192.886719,25.4609375 193.982422,26.6738281 193.982422,28.6953125 L193.982422,29.1640625 L189.505859,29.1640625 L189.505859,29.2402344 C189.541016,30.3066406 190.15625,30.9746094 191.111328,30.9746094 C191.832031,30.9746094 192.330078,30.7109375 192.541016,30.2363281 Z M195.441406,32 L195.441406,25.5898438 L196.841797,25.5898438 L196.841797,26.6152344 L196.941406,26.6152344 C197.246094,25.9003906 197.996094,25.4609375 198.957031,25.4609375 C200.386719,25.4609375 201.189453,26.3222656 201.189453,27.8515625 L201.189453,32 L199.742188,32 L199.742188,28.1972656 C199.742188,27.21875 199.296875,26.7265625 198.417969,26.7265625 C197.480469,26.7265625 196.894531,27.3242188 196.894531,28.2675781 L196.894531,32 L195.441406,32 Z M205.601562,26.6152344 C204.734375,26.6152344 204.125,27.2363281 204.060547,28.1738281 L207.078125,28.1738281 C207.048828,27.2246094 206.474609,26.6152344 205.601562,26.6152344 Z M207.089844,30.2363281 L208.466797,30.2363281 C208.191406,31.4023438 207.130859,32.1289062 205.619141,32.1289062 C203.732422,32.1289062 202.595703,30.8808594 202.595703,28.8183594 C202.595703,26.7558594 203.75,25.4609375 205.607422,25.4609375 C207.435547,25.4609375 208.53125,26.6738281 208.53125,28.6953125 L208.53125,29.1640625 L204.054688,29.1640625 L204.054688,29.2402344 C204.089844,30.3066406 204.705078,30.9746094 205.660156,30.9746094 C206.380859,30.9746094 206.878906,30.7109375 207.089844,30.2363281 Z" id="Interview-w/-Sheona" fill="#24124D" opacity="0.5"></path>
                <rect id="Rectangle-9" fill="#512DA8" x="16" y="64" width="128" height="12" rx="3"></rect>
                <rect id="Rectangle-9" fill="#DCD5EE" x="160" y="64" width="104" height="12" rx="3"></rect>
                <rect id="Rectangle-9" fill="#512DA8" x="280" y="64" width="72" height="12" rx="3"></rect>
            </g>
            <g id="Bulk-edit">
                <g>
                    <g id="Rectangle-3" fill="black" fill-opacity="1">
                        <use filter="url(#filter-14)" xlink:href="#path-13"></use>
                    </g>
                    <rect id="Rectangle-3" fill="#5B93FF" x="0" y="0" width="368" height="64" rx="3"></rect>
                    <g id="component/icon-button" transform="translate(17.000000, 13.000000)">
                        <g id="Group">
                            <g id="Rectangle-5" stroke-linecap="square">
                                <use fill="black" fill-opacity="1" filter="url(#filter-16)" xlink:href="#path-15"></use>
                                <use fill="#FFFFFF" fill-rule="evenodd" xlink:href="#path-15"></use>
                                <rect stroke-opacity="0.098194067" stroke="#140B2F" stroke-width="1" x="-0.5" y="-0.5" width="49" height="41" rx="3"></rect>
                            </g>
                            <g id="icons/back" transform="translate(12.000000, 8.000000)" stroke="#726D82" stroke-linecap="round" stroke-linejoin="round">
                                <g id="arrow-left" transform="translate(4.000000, 6.000000)">
                                    <path d="M16,6 L0,6" id="Shape" stroke-width="2"></path>
                                    <polyline id="Shape" stroke-width="2" points="6 12 0 6 6 0"></polyline>
                                </g>
                            </g>
                        </g>
                    </g>
                    <g id="component/icon-button" transform="translate(304.000000, 13.000000)">
                        <g id="Group">
                            <g id="Rectangle-5" stroke-linecap="square">
                                <use fill="black" fill-opacity="1" filter="url(#filter-18)" xlink:href="#path-17"></use>
                                <use fill="#FFFFFF" fill-rule="evenodd" xlink:href="#path-17"></use>
                                <rect stroke-opacity="0.098194067" stroke="#140B2F" stroke-width="1" x="-0.5" y="-0.5" width="49" height="41" rx="3"></rect>
                            </g>
                            <g id="icons/trash" transform="translate(12.000000, 8.000000)" stroke="#726D82" stroke-linecap="round" stroke-linejoin="round">
                                <g id="trash" transform="translate(3.000000, 2.000000)">
                                    <polyline id="Shape" stroke-width="2" points="0 4 2 4 18 4"></polyline>
                                    <path d="M16,4 L16,18 C16,19.1045695 15.1045695,20 14,20 L4,20 C2.8954305,20 2,19.1045695 2,18 L2,4 M5,4 L5,2 C5,0.8954305 5.8954305,0 7,0 L11,0 C12.1045695,0 13,0.8954305 13,2 L13,4" id="Shape" stroke-width="2"></path>
                                </g>
                            </g>
                        </g>
                    </g>
                    <g id="component/icon-button" transform="translate(248.000000, 13.000000)">
                        <g id="Group">
                            <g id="Rectangle-5" stroke-linecap="square">
                                <use fill="black" fill-opacity="1" filter="url(#filter-20)" xlink:href="#path-19"></use>
                                <use fill="#FFFFFF" fill-rule="evenodd" xlink:href="#path-19"></use>
                                <rect stroke-opacity="0.098194067" stroke="#140B2F" stroke-width="1" x="-0.5" y="-0.5" width="49" height="41" rx="3"></rect>
                            </g>
                            <g id="icons/repeat" transform="translate(12.000000, 8.000000)" stroke="#726D82" stroke-linecap="round" stroke-linejoin="round">
                                <g id="repeat" transform="translate(3.000000, 1.000000)">
                                    <polyline id="Shape" stroke-width="2" points="14 0 18 4 14 8"></polyline>
                                    <path d="M0,10 L0,8 C-4.4408921e-16,5.790861 1.790861,4 4,4 L18,4" id="Shape" stroke-width="2"></path>
                                    <polyline id="Shape" stroke-width="2" points="4 22 0 18 4 14"></polyline>
                                    <path d="M18,12 L18,14 C18,16.209139 16.209139,18 14,18 L0,18" id="Shape" stroke-width="2"></path>
                                </g>
                            </g>
                        </g>
                    </g>
                    <g id="component/icon-button" transform="translate(192.000000, 13.000000)">
                        <g id="Group">
                            <g id="Rectangle-5" stroke-linecap="square">
                                <use fill="black" fill-opacity="1" filter="url(#filter-22)" xlink:href="#path-21"></use>
                                <use fill="#FFFFFF" fill-rule="evenodd" xlink:href="#path-21"></use>
                                <rect stroke-opacity="0.098194067" stroke="#140B2F" stroke-width="1" x="-0.5" y="-0.5" width="49" height="41" rx="3"></rect>
                            </g>
                            <g id="icons/plus" transform="translate(12.000000, 8.000000)" stroke="#726D82" stroke-linecap="round" stroke-linejoin="round">
                                <g id="plus" transform="translate(5.000000, 5.000000)">
                                    <path d="M7,0 L7,14" id="Shape" stroke-width="2"></path>
                                    <path d="M0,7 L14,7" id="Shape" stroke-width="2"></path>
                                </g>
                            </g>
                        </g>
                    </g>
                    <path d="M81.84375,31.9882812 C81.84375,30.4296875 83.0214844,29.3398438 84.6855469,29.3398438 C86.2910156,29.3398438 87.4746094,30.359375 87.4746094,31.7539062 C87.4746094,32.6503906 87.0410156,33.3828125 85.6230469,34.8183594 L83.7421875,36.7226562 L83.7421875,36.8222656 L87.609375,36.8222656 L87.609375,38 L81.9140625,38 L81.9140625,37.0507812 L84.7734375,34.0742188 C85.9042969,32.8964844 86.1796875,32.4511719 86.1796875,31.8300781 C86.1796875,31.0566406 85.5175781,30.4765625 84.6445312,30.4765625 C83.7128906,30.4765625 83.0859375,31.0859375 83.0859375,31.9882812 L83.0859375,32.0058594 L81.84375,32.0058594 L81.84375,31.9882812 Z M92.4667969,33.4238281 C92.4667969,32.2929688 93.5039062,31.4960938 94.9453125,31.4960938 C96.3808594,31.4960938 97.3183594,32.1640625 97.4414062,33.2890625 L96.234375,33.2890625 C96.1171875,32.8203125 95.6601562,32.5214844 94.9453125,32.5214844 C94.2421875,32.5214844 93.7089844,32.8554688 93.7089844,33.3535156 C93.7089844,33.734375 94.03125,33.9746094 94.7226562,34.1328125 L95.7832031,34.3789062 C96.9960938,34.6601562 97.5644531,35.1816406 97.5644531,36.1191406 C97.5644531,37.3203125 96.4453125,38.1230469 94.921875,38.1230469 C93.4042969,38.1230469 92.4140625,37.4375 92.3027344,36.3066406 L93.5625,36.3066406 C93.7207031,36.7988281 94.1894531,37.1035156 94.9511719,37.1035156 C95.7363281,37.1035156 96.2929688,36.7519531 96.2929688,36.2421875 C96.2929688,35.8613281 95.9941406,35.6152344 95.3554688,35.4628906 L94.2421875,35.2050781 C93.0292969,34.9179688 92.4667969,34.3730469 92.4667969,33.4238281 Z M101.701172,32.5683594 C100.769531,32.5683594 100.119141,33.2246094 100.048828,34.2207031 L103.271484,34.2207031 C103.242188,33.21875 102.632812,32.5683594 101.701172,32.5683594 Z M103.265625,36.2773438 L104.478516,36.2773438 C104.191406,37.4199219 103.171875,38.1230469 101.712891,38.1230469 C99.8847656,38.1230469 98.765625,36.8691406 98.765625,34.8300781 C98.765625,32.7910156 99.9082031,31.4960938 101.707031,31.4960938 C103.482422,31.4960938 104.554688,32.7089844 104.554688,34.7128906 L104.554688,35.1523438 L100.048828,35.1523438 L100.048828,35.2226562 C100.089844,36.3417969 100.740234,37.0507812 101.748047,37.0507812 C102.509766,37.0507812 103.03125,36.7753906 103.265625,36.2773438 Z M106.125,38 L106.125,29.1289062 L107.384766,29.1289062 L107.384766,38 L106.125,38 Z M111.890625,32.5683594 C110.958984,32.5683594 110.308594,33.2246094 110.238281,34.2207031 L113.460938,34.2207031 C113.431641,33.21875 112.822266,32.5683594 111.890625,32.5683594 Z M113.455078,36.2773438 L114.667969,36.2773438 C114.380859,37.4199219 113.361328,38.1230469 111.902344,38.1230469 C110.074219,38.1230469 108.955078,36.8691406 108.955078,34.8300781 C108.955078,32.7910156 110.097656,31.4960938 111.896484,31.4960938 C113.671875,31.4960938 114.744141,32.7089844 114.744141,34.7128906 L114.744141,35.1523438 L110.238281,35.1523438 L110.238281,35.2226562 C110.279297,36.3417969 110.929688,37.0507812 111.9375,37.0507812 C112.699219,37.0507812 113.220703,36.7753906 113.455078,36.2773438 Z M121.658203,33.7050781 L120.433594,33.7050781 C120.287109,33.0839844 119.771484,32.6210938 118.927734,32.6210938 C117.873047,32.6210938 117.228516,33.4296875 117.228516,34.7890625 C117.228516,36.171875 117.878906,36.9980469 118.927734,36.9980469 C119.724609,36.9980469 120.269531,36.6347656 120.433594,35.9492188 L121.658203,35.9492188 C121.494141,37.2324219 120.509766,38.1230469 118.933594,38.1230469 C117.076172,38.1230469 115.939453,36.8691406 115.939453,34.7890625 C115.939453,32.7441406 117.070312,31.4960938 118.927734,31.4960938 C120.527344,31.4960938 121.494141,32.4277344 121.658203,33.7050781 Z M123.539062,30.0722656 L124.798828,30.0722656 L124.798828,31.6484375 L126.228516,31.6484375 L126.228516,32.7089844 L124.798828,32.7089844 L124.798828,35.9902344 C124.798828,36.6582031 125.074219,36.9511719 125.701172,36.9511719 C125.894531,36.9511719 125.994141,36.9394531 126.169922,36.921875 L126.169922,37.9707031 C125.970703,38.0058594 125.742188,38.0351562 125.496094,38.0351562 C124.095703,38.0351562 123.539062,37.5429688 123.539062,36.3125 L123.539062,32.7089844 L122.490234,32.7089844 L122.490234,31.6484375 L123.539062,31.6484375 L123.539062,30.0722656 Z M130.283203,32.5683594 C129.351562,32.5683594 128.701172,33.2246094 128.630859,34.2207031 L131.853516,34.2207031 C131.824219,33.21875 131.214844,32.5683594 130.283203,32.5683594 Z M131.847656,36.2773438 L133.060547,36.2773438 C132.773438,37.4199219 131.753906,38.1230469 130.294922,38.1230469 C128.466797,38.1230469 127.347656,36.8691406 127.347656,34.8300781 C127.347656,32.7910156 128.490234,31.4960938 130.289062,31.4960938 C132.064453,31.4960938 133.136719,32.7089844 133.136719,34.7128906 L133.136719,35.1523438 L128.630859,35.1523438 L128.630859,35.2226562 C128.671875,36.3417969 129.322266,37.0507812 130.330078,37.0507812 C131.091797,37.0507812 131.613281,36.7753906 131.847656,36.2773438 Z M136.980469,38.1054688 C135.357422,38.1054688 134.332031,36.828125 134.332031,34.8066406 C134.332031,32.7910156 135.369141,31.5136719 136.980469,31.5136719 C137.853516,31.5136719 138.591797,31.9296875 138.9375,32.6328125 L139.03125,32.6328125 L139.03125,29.1289062 L140.291016,29.1289062 L140.291016,38 L139.083984,38 L139.083984,36.9921875 L138.984375,36.9921875 C138.603516,37.6894531 137.859375,38.1054688 136.980469,38.1054688 Z M137.337891,32.6445312 C136.277344,32.6445312 135.632812,33.4648438 135.632812,34.8066406 C135.632812,36.1601562 136.271484,36.9746094 137.337891,36.9746094 C138.398438,36.9746094 139.054688,36.1484375 139.054688,34.8125 C139.054688,33.4824219 138.392578,32.6445312 137.337891,32.6445312 Z" id="2-selected" fill="#FFFFFF" opacity="0.800000012"></path>
                </g>
            </g>
        </g>
    </g>
</svg>