<?xml version="1.0" encoding="UTF-8"?>
<svg width="400px" height="320px" viewBox="0 0 400 320" version="1.1" xmlns="http://www.w3.org/2000/svg" xmlns:xlink="http://www.w3.org/1999/xlink">
    <!-- Generator: Sketch 51 (57462) - http://www.bohemiancoding.com/sketch -->
    <title>snippet/bar-chart</title>
    <desc>Created with Sketch.</desc>
    <defs></defs>
    <g id="snippet/bar-chart" stroke="none" stroke-width="1" fill="none" fill-rule="evenodd">
        <g id="Group" transform="translate(28.000000, 48.000000)">
            <g transform="translate(124.000000, 0.000000)" id="Rectangle">
                <rect fill="#F84F77" x="0" y="0" width="112" height="24" rx="4"></rect>
                <rect fill="#512DA8" x="0" y="40" width="232" height="24" rx="4"></rect>
                <rect fill="#009688" x="0" y="80" width="80" height="24" rx="4"></rect>
                <rect fill="#FFB300" x="0" y="120" width="128" height="24" rx="4"></rect>
                <rect fill="#1EB8C1" x="0" y="160" width="32" height="24" rx="4"></rect>
                <rect fill="#5182F8" x="0" y="200" width="112" height="24" rx="4"></rect>
            </g>
            <g transform="translate(0.000000, 6.000000)" fill="#7B7194">
                <path d="M39.1328125,10 L37.6738281,10 L37.6738281,1.54492188 L38.9863281,1.54492188 L43.1347656,7.29296875 L43.234375,7.29296875 L43.234375,1.54492188 L44.6875,1.54492188 L44.6875,10 L43.3808594,10 L39.2324219,4.24609375 L39.1328125,4.24609375 L39.1328125,10 Z M48.8183594,8.96289062 C49.6972656,8.96289062 50.3535156,8.39453125 50.3535156,7.65039062 L50.3535156,7.140625 L48.90625,7.234375 C48.0917969,7.28710938 47.7109375,7.58007812 47.7109375,8.1015625 C47.7109375,8.640625 48.1738281,8.96289062 48.8183594,8.96289062 Z M48.390625,10.1054688 C47.1542969,10.1054688 46.2695312,9.35546875 46.2695312,8.18359375 C46.2695312,7.0234375 47.1425781,6.35546875 48.7011719,6.26171875 L50.3535156,6.16210938 L50.3535156,5.62304688 C50.3535156,4.99609375 49.9316406,4.64453125 49.1464844,4.64453125 C48.4785156,4.64453125 48.0214844,4.87890625 47.8867188,5.3125 L46.515625,5.3125 C46.6328125,4.18164062 47.6933594,3.4609375 49.2167969,3.4609375 C50.8632812,3.4609375 51.7890625,4.26367188 51.7890625,5.62304688 L51.7890625,10 L50.3886719,10 L50.3886719,9.12109375 L50.2890625,9.12109375 C49.9316406,9.7421875 49.2285156,10.1054688 48.390625,10.1054688 Z M52.9785156,3.58984375 L54.5371094,3.58984375 L56.0195312,8.546875 L56.1191406,8.546875 L57.5898438,3.58984375 L59.125,3.58984375 L56.8574219,10 L55.2578125,10 L52.9785156,3.58984375 Z M60.3671875,10 L60.3671875,3.58984375 L61.8144531,3.58984375 L61.8144531,10 L60.3671875,10 Z M61.0878906,2.546875 C60.5605469,2.546875 60.1914062,2.20703125 60.1914062,1.74414062 C60.1914062,1.28125 60.5605469,0.94140625 61.0878906,0.94140625 C61.6210938,0.94140625 61.984375,1.28125 61.984375,1.74414062 C61.984375,2.20703125 61.6210938,2.546875 61.0878906,2.546875 Z M67.9902344,6.72460938 C67.9902344,5.5 67.375,4.72070312 66.3671875,4.72070312 C65.3535156,4.72070312 64.7792969,5.5 64.7792969,6.72460938 C64.7792969,7.94921875 65.3535156,8.72265625 66.3671875,8.72265625 C67.3808594,8.72265625 67.9902344,7.94921875 67.9902344,6.72460938 Z M66.3671875,12.4375 C64.7207031,12.4375 63.6425781,11.7109375 63.5253906,10.609375 L64.984375,10.609375 C65.078125,11.0488281 65.59375,11.3300781 66.390625,11.3300781 C67.3867188,11.3300781 67.9667969,10.8613281 67.9667969,10.0585938 L67.9667969,8.84570312 L67.8671875,8.84570312 C67.4980469,9.53125 66.8007812,9.90625 65.9101562,9.90625 C64.2929688,9.90625 63.2851562,8.65234375 63.2851562,6.72460938 C63.2851562,4.76171875 64.2988281,3.484375 65.9335938,3.484375 C66.8066406,3.484375 67.5683594,3.91796875 67.9199219,4.61523438 L68.0195312,4.61523438 L68.0195312,3.58984375 L69.4199219,3.58984375 L69.4199219,10.0234375 C69.4199219,11.5058594 68.2363281,12.4375 66.3671875,12.4375 Z M73.3925781,8.96289062 C74.2714844,8.96289062 74.9277344,8.39453125 74.9277344,7.65039062 L74.9277344,7.140625 L73.4804688,7.234375 C72.6660156,7.28710938 72.2851562,7.58007812 72.2851562,8.1015625 C72.2851562,8.640625 72.7480469,8.96289062 73.3925781,8.96289062 Z M72.9648438,10.1054688 C71.7285156,10.1054688 70.84375,9.35546875 70.84375,8.18359375 C70.84375,7.0234375 71.7167969,6.35546875 73.2753906,6.26171875 L74.9277344,6.16210938 L74.9277344,5.62304688 C74.9277344,4.99609375 74.5058594,4.64453125 73.7207031,4.64453125 C73.0527344,4.64453125 72.5957031,4.87890625 72.4609375,5.3125 L71.0898438,5.3125 C71.2070312,4.18164062 72.2675781,3.4609375 73.7910156,3.4609375 C75.4375,3.4609375 76.3632812,4.26367188 76.3632812,5.62304688 L76.3632812,10 L74.9628906,10 L74.9628906,9.12109375 L74.8632812,9.12109375 C74.5058594,9.7421875 73.8027344,10.1054688 72.9648438,10.1054688 Z M78.5722656,2.06054688 L80.0195312,2.06054688 L80.0195312,3.63085938 L81.4257812,3.63085938 L81.4257812,4.79101562 L80.0195312,4.79101562 L80.0195312,7.9375 C80.0195312,8.5703125 80.2890625,8.8515625 80.8984375,8.8515625 C81.1035156,8.8515625 81.2089844,8.83984375 81.3789062,8.82226562 L81.3789062,9.95898438 C81.1738281,10 80.9101562,10.0292969 80.6289062,10.0292969 C79.1582031,10.0292969 78.5722656,9.53125 78.5722656,8.2890625 L78.5722656,4.79101562 L77.5292969,4.79101562 L77.5292969,3.63085938 L78.5722656,3.63085938 L78.5722656,2.06054688 Z M82.8613281,10 L82.8613281,3.58984375 L84.3085938,3.58984375 L84.3085938,10 L82.8613281,10 Z M83.5820312,2.546875 C83.0546875,2.546875 82.6855469,2.20703125 82.6855469,1.74414062 C82.6855469,1.28125 83.0546875,0.94140625 83.5820312,0.94140625 C84.1152344,0.94140625 84.4785156,1.28125 84.4785156,1.74414062 C84.4785156,2.20703125 84.1152344,2.546875 83.5820312,2.546875 Z M88.8730469,8.91015625 C89.8867188,8.91015625 90.4609375,8.13671875 90.4609375,6.79492188 C90.4609375,5.45898438 89.8808594,4.6796875 88.8730469,4.6796875 C87.859375,4.6796875 87.2792969,5.45898438 87.2792969,6.79492188 C87.2792969,8.13671875 87.859375,8.91015625 88.8730469,8.91015625 Z M88.8730469,10.1289063 C86.9511719,10.1289063 85.7910156,8.875 85.7910156,6.79492188 C85.7910156,4.7265625 86.96875,3.4609375 88.8730469,3.4609375 C90.7832031,3.4609375 91.9550781,4.72070313 91.9550781,6.79492188 C91.9550781,8.875 90.7890625,10.1289063 88.8730469,10.1289063 Z M93.4199219,10 L93.4199219,3.58984375 L94.8203125,3.58984375 L94.8203125,4.61523438 L94.9199219,4.61523438 C95.2246094,3.90039062 95.9746094,3.4609375 96.9355469,3.4609375 C98.3652344,3.4609375 99.1679688,4.32226562 99.1679688,5.8515625 L99.1679688,10 L97.7207031,10 L97.7207031,6.19726562 C97.7207031,5.21875 97.2753906,4.7265625 96.3964844,4.7265625 C95.4589844,4.7265625 94.8730469,5.32421875 94.8730469,6.26757812 L94.8730469,10 L93.4199219,10 Z" id="Navigation"></path>
                <path d="M59.2890625,47.703125 L60.765625,47.703125 C60.859375,48.4589844 61.609375,48.9453125 62.6816406,48.9453125 C63.6777344,48.9453125 64.3984375,48.4355469 64.3984375,47.7265625 C64.3984375,47.1171875 63.9355469,46.7597656 62.8515625,46.5078125 L61.7558594,46.2558594 C60.2207031,45.9101562 59.5,45.1484375 59.5,43.8886719 C59.5,42.3535156 60.7539062,41.3339844 62.6464844,41.3339844 C64.421875,41.3339844 65.7050781,42.3535156 65.7753906,43.8066406 L64.328125,43.8066406 C64.2226562,43.0625 63.5664062,42.59375 62.640625,42.59375 C61.6679688,42.59375 61.0234375,43.0625 61.0234375,43.7832031 C61.0234375,44.3515625 61.4511719,44.6855469 62.5,44.9257812 L63.4726562,45.1484375 C65.1894531,45.5351562 65.9101562,46.25 65.9101562,47.5390625 C65.9101562,49.1855469 64.6386719,50.2109375 62.5878906,50.2109375 C60.6484375,50.2109375 59.3652344,49.2382812 59.2890625,47.703125 Z M70.1464844,44.6152344 C69.2792969,44.6152344 68.6699219,45.2363281 68.6054688,46.1738281 L71.6230469,46.1738281 C71.59375,45.2246094 71.0195312,44.6152344 70.1464844,44.6152344 Z M71.6347656,48.2363281 L73.0117188,48.2363281 C72.7363281,49.4023438 71.6757812,50.1289062 70.1640625,50.1289062 C68.2773438,50.1289062 67.140625,48.8808594 67.140625,46.8183594 C67.140625,44.7558594 68.2949219,43.4609375 70.1523438,43.4609375 C71.9804688,43.4609375 73.0761719,44.6738281 73.0761719,46.6953125 L73.0761719,47.1640625 L68.5996094,47.1640625 L68.5996094,47.2402344 C68.6347656,48.3066406 69.25,48.9746094 70.2050781,48.9746094 C70.9257812,48.9746094 71.4238281,48.7109375 71.6347656,48.2363281 Z M76.7265625,48.9628906 C77.6054688,48.9628906 78.2617188,48.3945312 78.2617188,47.6503906 L78.2617188,47.140625 L76.8144531,47.234375 C76,47.2871094 75.6191406,47.5800781 75.6191406,48.1015625 C75.6191406,48.640625 76.0820312,48.9628906 76.7265625,48.9628906 Z M76.2988281,50.1054688 C75.0625,50.1054688 74.1777344,49.3554688 74.1777344,48.1835938 C74.1777344,47.0234375 75.0507812,46.3554688 76.609375,46.2617188 L78.2617188,46.1621094 L78.2617188,45.6230469 C78.2617188,44.9960938 77.8398438,44.6445312 77.0546875,44.6445312 C76.3867188,44.6445312 75.9296875,44.8789062 75.7949219,45.3125 L74.4238281,45.3125 C74.5410156,44.1816406 75.6015625,43.4609375 77.125,43.4609375 C78.7714844,43.4609375 79.6972656,44.2636719 79.6972656,45.6230469 L79.6972656,50 L78.296875,50 L78.296875,49.1210938 L78.1972656,49.1210938 C77.8398438,49.7421875 77.1367188,50.1054688 76.2988281,50.1054688 Z M81.4433594,50 L81.4433594,43.5898438 L82.84375,43.5898438 L82.84375,44.5859375 L82.9433594,44.5859375 C83.1191406,43.953125 83.8046875,43.484375 84.625,43.484375 C84.8300781,43.484375 85.0820312,43.5078125 85.2226562,43.5488281 L85.2226562,44.8964844 C85.1113281,44.8554688 84.7128906,44.8144531 84.484375,44.8144531 C83.5527344,44.8144531 82.8964844,45.4003906 82.8964844,46.296875 L82.8964844,50 L81.4433594,50 Z M91.9023438,45.7460938 L90.5195312,45.7460938 C90.3847656,45.125 89.9042969,44.6796875 89.1074219,44.6796875 C88.1113281,44.6796875 87.5195312,45.4472656 87.5195312,46.7773438 C87.5195312,48.125 88.1171875,48.9101562 89.1074219,48.9101562 C89.8632812,48.9101562 90.3671875,48.5527344 90.5195312,47.8847656 L91.9023438,47.8847656 C91.7441406,49.2265625 90.7363281,50.1289062 89.1132812,50.1289062 C87.1855469,50.1289062 86.0488281,48.8867188 86.0488281,46.7773438 C86.0488281,44.6972656 87.1796875,43.4609375 89.1074219,43.4609375 C90.7539062,43.4609375 91.75,44.3984375 91.9023438,45.7460938 Z M93.3496094,50 L93.3496094,41.1113281 L94.7792969,41.1113281 L94.7792969,44.6269531 L94.8847656,44.6269531 C95.1894531,43.90625 95.9453125,43.4726562 96.9003906,43.4726562 C98.3359375,43.4726562 99.1679688,44.3398438 99.1679688,45.8632812 L99.1679688,50 L97.7207031,50 L97.7207031,46.2089844 C97.7207031,45.2363281 97.2519531,44.7382812 96.3613281,44.7382812 C95.40625,44.7382812 94.8027344,45.359375 94.8027344,46.2792969 L94.8027344,50 L93.3496094,50 Z" id="Search"></path>
                <path d="M9.0859375,86.6132812 C9.0859375,88.8105469 7.64453125,90.2109375 5.38867188,90.2109375 C2.93945312,90.2109375 1.41601562,88.5117188 1.41601562,85.7695312 C1.41601562,83.0625 2.95703125,81.3339844 5.36523438,81.3339844 C7.31640625,81.3339844 8.74609375,82.4472656 9.015625,84.1757812 L7.50976562,84.1757812 C7.20507812,83.2148438 6.44921875,82.6816406 5.36523438,82.6816406 C3.88867188,82.6816406 2.96289062,83.859375 2.96289062,85.7578125 C2.96289062,87.6796875 3.90625,88.8632812 5.41210938,88.8632812 C6.70117188,88.8632812 7.58007812,88.078125 7.60351562,86.9121094 L7.609375,86.7363281 L5.57617188,86.7363281 L5.57617188,85.5527344 L9.0859375,85.5527344 L9.0859375,86.6132812 Z M13.375,84.6152344 C12.5078125,84.6152344 11.8984375,85.2363281 11.8339844,86.1738281 L14.8515625,86.1738281 C14.8222656,85.2246094 14.2480469,84.6152344 13.375,84.6152344 Z M14.8632812,88.2363281 L16.2402344,88.2363281 C15.9648438,89.4023438 14.9042969,90.1289062 13.3925781,90.1289062 C11.5058594,90.1289062 10.3691406,88.8808594 10.3691406,86.8183594 C10.3691406,84.7558594 11.5234375,83.4609375 13.3808594,83.4609375 C15.2089844,83.4609375 16.3046875,84.6738281 16.3046875,86.6953125 L16.3046875,87.1640625 L11.828125,87.1640625 L11.828125,87.2402344 C11.8632812,88.3066406 12.4785156,88.9746094 13.4335938,88.9746094 C14.1542969,88.9746094 14.6523438,88.7109375 14.8632812,88.2363281 Z M17.7636719,90 L17.7636719,83.5898438 L19.1640625,83.5898438 L19.1640625,84.6152344 L19.2636719,84.6152344 C19.5683594,83.9003906 20.3183594,83.4609375 21.2792969,83.4609375 C22.7089844,83.4609375 23.5117187,84.3222656 23.5117187,85.8515625 L23.5117187,90 L22.0644531,90 L22.0644531,86.1972656 C22.0644531,85.21875 21.6191406,84.7265625 20.7402344,84.7265625 C19.8027344,84.7265625 19.2167969,85.3242188 19.2167969,86.2675781 L19.2167969,90 L17.7636719,90 Z M27.9238281,84.6152344 C27.0566406,84.6152344 26.4472656,85.2363281 26.3828125,86.1738281 L29.4003906,86.1738281 C29.3710938,85.2246094 28.796875,84.6152344 27.9238281,84.6152344 Z M29.4121094,88.2363281 L30.7890625,88.2363281 C30.5136719,89.4023438 29.453125,90.1289062 27.9414062,90.1289062 C26.0546875,90.1289062 24.9179688,88.8808594 24.9179688,86.8183594 C24.9179688,84.7558594 26.0722656,83.4609375 27.9296875,83.4609375 C29.7578125,83.4609375 30.8535156,84.6738281 30.8535156,86.6953125 L30.8535156,87.1640625 L26.3769531,87.1640625 L26.3769531,87.2402344 C26.4121094,88.3066406 27.0273438,88.9746094 27.9824219,88.9746094 C28.703125,88.9746094 29.2011719,88.7109375 29.4121094,88.2363281 Z M32.3125,90 L32.3125,83.5898438 L33.7128906,83.5898438 L33.7128906,84.5859375 L33.8125,84.5859375 C33.9882812,83.953125 34.6738281,83.484375 35.4941406,83.484375 C35.6992188,83.484375 35.9511719,83.5078125 36.0917969,83.5488281 L36.0917969,84.8964844 C35.9804688,84.8554688 35.5820312,84.8144531 35.3535156,84.8144531 C34.421875,84.8144531 33.765625,85.4003906 33.765625,86.296875 L33.765625,90 L32.3125,90 Z M39.4257812,88.9628906 C40.3046875,88.9628906 40.9609375,88.3945312 40.9609375,87.6503906 L40.9609375,87.140625 L39.5136719,87.234375 C38.6992188,87.2871094 38.3183594,87.5800781 38.3183594,88.1015625 C38.3183594,88.640625 38.78125,88.9628906 39.4257812,88.9628906 Z M38.9980469,90.1054688 C37.7617188,90.1054688 36.8769531,89.3554688 36.8769531,88.1835938 C36.8769531,87.0234375 37.75,86.3554688 39.3085938,86.2617188 L40.9609375,86.1621094 L40.9609375,85.6230469 C40.9609375,84.9960938 40.5390625,84.6445312 39.7539063,84.6445312 C39.0859375,84.6445312 38.6289063,84.8789062 38.4941406,85.3125 L37.1230469,85.3125 C37.2402344,84.1816406 38.3007813,83.4609375 39.8242188,83.4609375 C41.4707031,83.4609375 42.3964844,84.2636719 42.3964844,85.6230469 L42.3964844,90 L40.9960938,90 L40.9960938,89.1210938 L40.8964844,89.1210938 C40.5390625,89.7421875 39.8359375,90.1054688 38.9980469,90.1054688 Z M44.2011719,90 L44.2011719,81.1113281 L45.6542969,81.1113281 L45.6542969,90 L44.2011719,90 Z M56.4003906,83.5898438 L56.4003906,90 L55,90 L55,88.9804688 L54.9003906,88.9804688 C54.5898437,89.7128906 53.8632812,90.1289062 52.9140625,90.1289062 C51.5019531,90.1289062 50.6289062,89.2558594 50.6289062,87.7382812 L50.6289062,83.5898438 L52.0820312,83.5898438 L52.0820312,87.3925781 C52.0820312,88.3769531 52.5449219,88.8515625 53.4179687,88.8515625 C54.3554687,88.8515625 54.9472656,88.2714844 54.9472656,87.3222656 L54.9472656,83.5898438 L56.4003906,83.5898438 Z M58.0351562,85.4238281 C58.0351562,84.2636719 59.0898438,83.4609375 60.6015625,83.4609375 C62.125,83.4609375 63.0800781,84.1347656 63.1855469,85.3007812 L61.8203125,85.3007812 C61.7148438,84.8496094 61.2871094,84.5625 60.6074219,84.5625 C59.9453125,84.5625 59.4472656,84.8789062 59.4472656,85.3417969 C59.4472656,85.7050781 59.7519531,85.9277344 60.3964844,86.0742188 L61.5273438,86.3320312 C62.7519531,86.6074219 63.3203125,87.1347656 63.3203125,88.078125 C63.3203125,89.3085938 62.1894531,90.1289062 60.5898438,90.1289062 C58.9902344,90.1289062 57.9824219,89.4375 57.8710938,88.2714844 L59.3066406,88.2714844 C59.4472656,88.7460938 59.8984375,89.0273438 60.625,89.0273438 C61.3574219,89.0273438 61.8671875,88.7050781 61.8671875,88.2304688 C61.8671875,87.8671875 61.5917969,87.6386719 60.9824219,87.5039062 L59.8457031,87.2402344 C58.6152344,86.9589844 58.0351562,86.390625 58.0351562,85.4238281 Z M66.9824219,88.9628906 C67.8613281,88.9628906 68.5175781,88.3945312 68.5175781,87.6503906 L68.5175781,87.140625 L67.0703125,87.234375 C66.2558594,87.2871094 65.875,87.5800781 65.875,88.1015625 C65.875,88.640625 66.3378906,88.9628906 66.9824219,88.9628906 Z M66.5546875,90.1054688 C65.3183594,90.1054688 64.4335938,89.3554688 64.4335938,88.1835938 C64.4335938,87.0234375 65.3066406,86.3554688 66.8652344,86.2617188 L68.5175781,86.1621094 L68.5175781,85.6230469 C68.5175781,84.9960938 68.0957031,84.6445312 67.3105469,84.6445312 C66.6425781,84.6445312 66.1855469,84.8789062 66.0507812,85.3125 L64.6796875,85.3125 C64.796875,84.1816406 65.8574219,83.4609375 67.3808594,83.4609375 C69.0273438,83.4609375 69.953125,84.2636719 69.953125,85.6230469 L69.953125,90 L68.5527344,90 L68.5527344,89.1210938 L68.453125,89.1210938 C68.0957031,89.7421875 67.3925781,90.1054688 66.5546875,90.1054688 Z M75.2617188,90.1054688 C74.3652344,90.1054688 73.6210938,89.6894531 73.2578125,88.9863281 L73.1582031,88.9863281 L73.1582031,90 L71.7578125,90 L71.7578125,81.1113281 L73.2109375,81.1113281 L73.2109375,84.609375 L73.3105469,84.609375 C73.6445312,83.9121094 74.3828125,83.484375 75.2617188,83.484375 C76.8847656,83.484375 77.8925781,84.7441406 77.8925781,86.7949219 C77.8925781,88.8339844 76.8789062,90.1054688 75.2617188,90.1054688 Z M74.8046875,84.7207031 C73.8144531,84.7207031 73.1875,85.5175781 73.1875,86.7949219 C73.1875,88.0722656 73.8085938,88.8691406 74.8046875,88.8691406 C75.8007812,88.8691406 76.3984375,88.0839844 76.3984375,86.7949219 C76.3984375,85.5058594 75.7949219,84.7207031 74.8046875,84.7207031 Z M79.3691406,90 L79.3691406,83.5898438 L80.8164062,83.5898438 L80.8164062,90 L79.3691406,90 Z M80.0898438,82.546875 C79.5625,82.546875 79.1933594,82.2070312 79.1933594,81.7441406 C79.1933594,81.28125 79.5625,80.9414062 80.0898438,80.9414062 C80.6230469,80.9414062 80.9863281,81.28125 80.9863281,81.7441406 C80.9863281,82.2070312 80.6230469,82.546875 80.0898438,82.546875 Z M82.6738281,90 L82.6738281,81.1113281 L84.1269531,81.1113281 L84.1269531,90 L82.6738281,90 Z M85.9785156,90 L85.9785156,83.5898438 L87.4257813,83.5898438 L87.4257813,90 L85.9785156,90 Z M86.6992188,82.546875 C86.171875,82.546875 85.8027344,82.2070312 85.8027344,81.7441406 C85.8027344,81.28125 86.171875,80.9414062 86.6992188,80.9414062 C87.2324219,80.9414062 87.5957031,81.28125 87.5957031,81.7441406 C87.5957031,82.2070312 87.2324219,82.546875 86.6992188,82.546875 Z M89.6875,82.0605469 L91.1347656,82.0605469 L91.1347656,83.6308594 L92.5410156,83.6308594 L92.5410156,84.7910156 L91.1347656,84.7910156 L91.1347656,87.9375 C91.1347656,88.5703125 91.4042969,88.8515625 92.0136719,88.8515625 C92.21875,88.8515625 92.3242188,88.8398438 92.4941406,88.8222656 L92.4941406,89.9589844 C92.2890625,90 92.0253906,90.0292969 91.7441406,90.0292969 C90.2734375,90.0292969 89.6875,89.53125 89.6875,88.2890625 L89.6875,84.7910156 L88.6445312,84.7910156 L88.6445312,83.6308594 L89.6875,83.6308594 L89.6875,82.0605469 Z M94.6621094,92.3320312 C94.5742188,92.3320312 94.1816406,92.3261719 94.0878906,92.3085938 L94.0878906,91.125 C94.1699219,91.1367188 94.3867188,91.1425781 94.4863281,91.1425781 C95.1015625,91.1425781 95.4472656,90.9023438 95.6347656,90.3105469 L95.7109375,90.0292969 L93.4199219,83.5898438 L95.0136719,83.5898438 L96.5136719,88.59375 L96.6132812,88.59375 L98.1074219,83.5898438 L99.6425781,83.5898438 L97.328125,90.2050781 C96.7832031,91.7988281 96.0976562,92.3320312 94.6621094,92.3320312 Z" id="General-usability"></path>
                <path d="M38.7460938,124.011719 L37.0351562,130 L35.6113281,130 L33.34375,121.544922 L34.9199219,121.544922 L36.3671875,127.837891 L36.4550781,127.837891 L38.1191406,121.544922 L39.4609375,121.544922 L41.1484375,127.837891 L41.2304688,127.837891 L42.6777344,121.544922 L44.2421875,121.544922 L41.9746094,130 L40.5566406,130 L38.8339844,124.011719 L38.7460938,124.011719 Z M47.8398438,128.962891 C48.71875,128.962891 49.375,128.394531 49.375,127.650391 L49.375,127.140625 L47.9277344,127.234375 C47.1132812,127.287109 46.7324219,127.580078 46.7324219,128.101562 C46.7324219,128.640625 47.1953125,128.962891 47.8398438,128.962891 Z M47.4121094,130.105469 C46.1757812,130.105469 45.2910156,129.355469 45.2910156,128.183594 C45.2910156,127.023438 46.1640625,126.355469 47.7226562,126.261719 L49.375,126.162109 L49.375,125.623047 C49.375,124.996094 48.953125,124.644531 48.1679688,124.644531 C47.5,124.644531 47.0429688,124.878906 46.9082031,125.3125 L45.5371094,125.3125 C45.6542969,124.181641 46.7148438,123.460938 48.2382812,123.460938 C49.8847656,123.460938 50.8105469,124.263672 50.8105469,125.623047 L50.8105469,130 L49.4101562,130 L49.4101562,129.121094 L49.3105469,129.121094 C48.953125,129.742188 48.25,130.105469 47.4121094,130.105469 Z M53.2597656,132.332031 C53.171875,132.332031 52.7792969,132.326172 52.6855469,132.308594 L52.6855469,131.125 C52.7675781,131.136719 52.984375,131.142578 53.0839844,131.142578 C53.6992188,131.142578 54.0449219,130.902344 54.2324219,130.310547 L54.3085938,130.029297 L52.0175781,123.589844 L53.6113281,123.589844 L55.1113281,128.59375 L55.2109375,128.59375 L56.7050781,123.589844 L58.2402344,123.589844 L55.9257812,130.205078 C55.3808594,131.798828 54.6953125,132.332031 53.2597656,132.332031 Z M59.9511719,130 L59.9511719,124.791016 L58.9082031,124.791016 L58.9082031,123.630859 L59.9511719,123.630859 L59.9511719,122.992188 C59.9511719,121.691406 60.625,121.164062 62.03125,121.164062 C62.2890625,121.164062 62.5410156,121.1875 62.7988281,121.228516 L62.7988281,122.3125 C62.6699219,122.283203 62.453125,122.265625 62.2421875,122.265625 C61.6738281,122.265625 61.375,122.511719 61.375,123.085938 L61.375,123.630859 L62.7636719,123.630859 L62.7636719,124.791016 L61.3984375,124.791016 L61.3984375,130 L59.9511719,130 Z M64.1992188,130 L64.1992188,123.589844 L65.6464844,123.589844 L65.6464844,130 L64.1992188,130 Z M64.9199219,122.546875 C64.3925781,122.546875 64.0234375,122.207031 64.0234375,121.744141 C64.0234375,121.28125 64.3925781,120.941406 64.9199219,120.941406 C65.453125,120.941406 65.8164062,121.28125 65.8164062,121.744141 C65.8164062,122.207031 65.453125,122.546875 64.9199219,122.546875 Z M67.4453125,130 L67.4453125,123.589844 L68.8457031,123.589844 L68.8457031,124.615234 L68.9453125,124.615234 C69.25,123.900391 70,123.460938 70.9609375,123.460938 C72.390625,123.460938 73.1933594,124.322266 73.1933594,125.851562 L73.1933594,130 L71.7460938,130 L71.7460938,126.197266 C71.7460938,125.21875 71.3007812,124.726562 70.421875,124.726562 C69.484375,124.726562 68.8984375,125.324219 68.8984375,126.267578 L68.8984375,130 L67.4453125,130 Z M77.2363281,130.105469 C75.6132812,130.105469 74.5996094,128.828125 74.5996094,126.789062 C74.5996094,124.761719 75.6191406,123.484375 77.2363281,123.484375 C78.1152344,123.484375 78.8417969,123.90625 79.1816406,124.609375 L79.28125,124.609375 L79.28125,121.111328 L80.734375,121.111328 L80.734375,130 L79.328125,130 L79.328125,128.986328 L79.2285156,128.986328 C78.8652344,129.689453 78.1269531,130.105469 77.2363281,130.105469 Z M77.6875,124.720703 C76.6972656,124.720703 76.0878906,125.505859 76.0878906,126.794922 C76.0878906,128.089844 76.6914062,128.869141 77.6875,128.869141 C78.6894531,128.869141 79.2988281,128.083984 79.2988281,126.794922 C79.2988281,125.517578 78.6835938,124.720703 77.6875,124.720703 Z M82.5859375,130 L82.5859375,123.589844 L84.0332031,123.589844 L84.0332031,130 L82.5859375,130 Z M83.3066406,122.546875 C82.7792969,122.546875 82.4101562,122.207031 82.4101562,121.744141 C82.4101562,121.28125 82.7792969,120.941406 83.3066406,120.941406 C83.8398438,120.941406 84.203125,121.28125 84.203125,121.744141 C84.203125,122.207031 83.8398438,122.546875 83.3066406,122.546875 Z M85.8320312,130 L85.8320312,123.589844 L87.2324219,123.589844 L87.2324219,124.615234 L87.3320312,124.615234 C87.6367188,123.900391 88.3867188,123.460938 89.3476562,123.460938 C90.7773438,123.460938 91.5800781,124.322266 91.5800781,125.851562 L91.5800781,130 L90.1328125,130 L90.1328125,126.197266 C90.1328125,125.21875 89.6875,124.726562 88.8085938,124.726562 C87.8710938,124.726562 87.2851562,125.324219 87.2851562,126.267578 L87.2851562,130 L85.8320312,130 Z M97.6796875,126.724609 C97.6796875,125.5 97.0644531,124.720703 96.0566406,124.720703 C95.0429688,124.720703 94.46875,125.5 94.46875,126.724609 C94.46875,127.949219 95.0429688,128.722656 96.0566406,128.722656 C97.0703125,128.722656 97.6796875,127.949219 97.6796875,126.724609 Z M96.0566406,132.4375 C94.4101562,132.4375 93.3320312,131.710938 93.2148438,130.609375 L94.6738281,130.609375 C94.7675781,131.048828 95.2832031,131.330078 96.0800781,131.330078 C97.0761719,131.330078 97.65625,130.861328 97.65625,130.058594 L97.65625,128.845703 L97.5566406,128.845703 C97.1875,129.53125 96.4902344,129.90625 95.5996094,129.90625 C93.9824219,129.90625 92.9746094,128.652344 92.9746094,126.724609 C92.9746094,124.761719 93.9882812,123.484375 95.6230469,123.484375 C96.4960938,123.484375 97.2578125,123.917969 97.609375,124.615234 L97.7089844,124.615234 L97.7089844,123.589844 L99.109375,123.589844 L99.109375,130.023438 C99.109375,131.505859 97.9257812,132.4375 96.0566406,132.4375 Z" id="Wayfinding"></path>
                <path d="M14.546875,161.333984 C17.0019531,161.333984 18.5371094,163.039062 18.5371094,165.769531 C18.5371094,168.494141 17.0136719,170.210938 14.546875,170.210938 C12.0625,170.210938 10.5390625,168.5 10.5390625,165.769531 C10.5390625,163.039062 12.0917969,161.333984 14.546875,161.333984 Z M14.546875,162.675781 C13.0410156,162.675781 12.0859375,163.876953 12.0859375,165.769531 C12.0859375,167.65625 13.0175781,168.869141 14.546875,168.869141 C16.0527344,168.869141 16.9902344,167.65625 16.9902344,165.769531 C16.9902344,163.876953 16.046875,162.675781 14.546875,162.675781 Z M20.5761719,162.060547 L22.0234375,162.060547 L22.0234375,163.630859 L23.4296875,163.630859 L23.4296875,164.791016 L22.0234375,164.791016 L22.0234375,167.9375 C22.0234375,168.570312 22.2929688,168.851562 22.9023438,168.851562 C23.1074219,168.851562 23.2128906,168.839844 23.3828125,168.822266 L23.3828125,169.958984 C23.1777344,170 22.9140625,170.029297 22.6328125,170.029297 C21.1621094,170.029297 20.5761719,169.53125 20.5761719,168.289062 L20.5761719,164.791016 L19.5332031,164.791016 L19.5332031,163.630859 L20.5761719,163.630859 L20.5761719,162.060547 Z M24.90625,170 L24.90625,161.111328 L26.3359375,161.111328 L26.3359375,164.626953 L26.4414062,164.626953 C26.7460938,163.90625 27.5019531,163.472656 28.4570312,163.472656 C29.8925781,163.472656 30.7246094,164.339844 30.7246094,165.863281 L30.7246094,170 L29.2773438,170 L29.2773438,166.208984 C29.2773438,165.236328 28.8085938,164.738281 27.9179688,164.738281 C26.9628906,164.738281 26.359375,165.359375 26.359375,166.279297 L26.359375,170 L24.90625,170 Z M35.1367188,164.615234 C34.2695312,164.615234 33.6601562,165.236328 33.5957031,166.173828 L36.6132812,166.173828 C36.5839844,165.224609 36.0097656,164.615234 35.1367188,164.615234 Z M36.625,168.236328 L38.0019531,168.236328 C37.7265625,169.402344 36.6660156,170.128906 35.1542969,170.128906 C33.2675781,170.128906 32.1308594,168.880859 32.1308594,166.818359 C32.1308594,164.755859 33.2851562,163.460938 35.1425781,163.460938 C36.9707031,163.460938 38.0664062,164.673828 38.0664062,166.695312 L38.0664062,167.164062 L33.5898438,167.164062 L33.5898438,167.240234 C33.625,168.306641 34.2402344,168.974609 35.1953125,168.974609 C35.9160156,168.974609 36.4140625,168.710938 36.625,168.236328 Z M39.5253906,170 L39.5253906,163.589844 L40.9257812,163.589844 L40.9257812,164.585938 L41.0253906,164.585938 C41.2011719,163.953125 41.8867188,163.484375 42.7070312,163.484375 C42.9121094,163.484375 43.1640625,163.507812 43.3046875,163.548828 L43.3046875,164.896484 C43.1933594,164.855469 42.7949219,164.814453 42.5664062,164.814453 C41.6347656,164.814453 40.9785156,165.400391 40.9785156,166.296875 L40.9785156,170 L39.5253906,170 Z M51.1386719,163.484375 C52.7617188,163.484375 53.78125,164.738281 53.78125,166.794922 C53.78125,168.839844 52.7734375,170.105469 51.15625,170.105469 C50.2363281,170.105469 49.5273438,169.707031 49.1992188,169.027344 L49.0996094,169.027344 L49.0996094,172.050781 L47.6464844,172.050781 L47.6464844,163.589844 L49.046875,163.589844 L49.046875,164.650391 L49.1464844,164.650391 C49.515625,163.923828 50.2597656,163.484375 51.1386719,163.484375 Z M50.6816406,168.869141 C51.6894531,168.869141 52.2871094,168.089844 52.2871094,166.794922 C52.2871094,165.5 51.6835938,164.720703 50.6875,164.720703 C49.6972656,164.720703 49.0761719,165.517578 49.0703125,166.794922 C49.0761719,168.078125 49.6914062,168.869141 50.6816406,168.869141 Z M55.2402344,170 L55.2402344,163.589844 L56.640625,163.589844 L56.640625,164.585938 L56.7402344,164.585938 C56.9160156,163.953125 57.6015625,163.484375 58.421875,163.484375 C58.6269531,163.484375 58.8789062,163.507812 59.0195312,163.548828 L59.0195312,164.896484 C58.9082031,164.855469 58.5097656,164.814453 58.28125,164.814453 C57.3496094,164.814453 56.6933594,165.400391 56.6933594,166.296875 L56.6933594,170 L55.2402344,170 Z M62.9277344,168.910156 C63.9414062,168.910156 64.515625,168.136719 64.515625,166.794922 C64.515625,165.458984 63.9355469,164.679688 62.9277344,164.679688 C61.9140625,164.679688 61.3339844,165.458984 61.3339844,166.794922 C61.3339844,168.136719 61.9140625,168.910156 62.9277344,168.910156 Z M62.9277344,170.128906 C61.0058594,170.128906 59.8457031,168.875 59.8457031,166.794922 C59.8457031,164.726562 61.0234375,163.460938 62.9277344,163.460938 C64.8378906,163.460938 66.0097656,164.720703 66.0097656,166.794922 C66.0097656,168.875 64.84375,170.128906 62.9277344,170.128906 Z M69.7949219,170.105469 C68.171875,170.105469 67.1582031,168.828125 67.1582031,166.789062 C67.1582031,164.761719 68.1777344,163.484375 69.7949219,163.484375 C70.6738281,163.484375 71.4003906,163.90625 71.7402344,164.609375 L71.8398438,164.609375 L71.8398438,161.111328 L73.2929688,161.111328 L73.2929688,170 L71.8867188,170 L71.8867188,168.986328 L71.7871094,168.986328 C71.4238281,169.689453 70.6855469,170.105469 69.7949219,170.105469 Z M70.2460938,164.720703 C69.2558594,164.720703 68.6464844,165.505859 68.6464844,166.794922 C68.6464844,168.089844 69.25,168.869141 70.2460938,168.869141 C71.2480469,168.869141 71.8574219,168.083984 71.8574219,166.794922 C71.8574219,165.517578 71.2421875,164.720703 70.2460938,164.720703 Z M80.8398438,163.589844 L80.8398438,170 L79.4394531,170 L79.4394531,168.980469 L79.3398438,168.980469 C79.0292969,169.712891 78.3027344,170.128906 77.3535156,170.128906 C75.9414062,170.128906 75.0683594,169.255859 75.0683594,167.738281 L75.0683594,163.589844 L76.5214844,163.589844 L76.5214844,167.392578 C76.5214844,168.376953 76.984375,168.851562 77.8574219,168.851562 C78.7949219,168.851562 79.3867188,168.271484 79.3867188,167.322266 L79.3867188,163.589844 L80.8398438,163.589844 Z M88.1582031,165.746094 L86.7753906,165.746094 C86.640625,165.125 86.1601562,164.679688 85.3632812,164.679688 C84.3671875,164.679688 83.7753906,165.447266 83.7753906,166.777344 C83.7753906,168.125 84.3730469,168.910156 85.3632812,168.910156 C86.1191406,168.910156 86.6230469,168.552734 86.7753906,167.884766 L88.1582031,167.884766 C88,169.226562 86.9921875,170.128906 85.3691406,170.128906 C83.4414062,170.128906 82.3046875,168.886719 82.3046875,166.777344 C82.3046875,164.697266 83.4355469,163.460938 85.3632812,163.460938 C87.0097656,163.460938 88.0058594,164.398438 88.1582031,165.746094 Z M90.0097656,162.060547 L91.4570312,162.060547 L91.4570312,163.630859 L92.8632812,163.630859 L92.8632812,164.791016 L91.4570312,164.791016 L91.4570312,167.9375 C91.4570312,168.570312 91.7265625,168.851562 92.3359375,168.851562 C92.5410156,168.851562 92.6464844,168.839844 92.8164062,168.822266 L92.8164062,169.958984 C92.6113281,170 92.3476562,170.029297 92.0664062,170.029297 C90.5957031,170.029297 90.0097656,169.53125 90.0097656,168.289062 L90.0097656,164.791016 L88.9667969,164.791016 L88.9667969,163.630859 L90.0097656,163.630859 L90.0097656,162.060547 Z M94.1347656,165.423828 C94.1347656,164.263672 95.1894531,163.460938 96.7011719,163.460938 C98.2246094,163.460938 99.1796875,164.134766 99.2851562,165.300781 L97.9199219,165.300781 C97.8144531,164.849609 97.3867187,164.5625 96.7070312,164.5625 C96.0449219,164.5625 95.546875,164.878906 95.546875,165.341797 C95.546875,165.705078 95.8515625,165.927734 96.4960937,166.074219 L97.6269531,166.332031 C98.8515625,166.607422 99.4199219,167.134766 99.4199219,168.078125 C99.4199219,169.308594 98.2890625,170.128906 96.6894531,170.128906 C95.0898437,170.128906 94.0820312,169.4375 93.9707031,168.271484 L95.40625,168.271484 C95.546875,168.746094 95.9980469,169.027344 96.7246094,169.027344 C97.4570312,169.027344 97.9667969,168.705078 97.9667969,168.230469 C97.9667969,167.867188 97.6914062,167.638672 97.0820312,167.503906 L95.9453125,167.240234 C94.7148437,166.958984 94.1347656,166.390625 94.1347656,165.423828 Z" id="Other-products"></path>
                <path d="M1.9609375,210 L0.44921875,210 L0.44921875,201.544922 L5.83984375,201.544922 L5.83984375,202.851562 L1.9609375,202.851562 L1.9609375,205.3125 L5.50585938,205.3125 L5.50585938,206.572266 L1.9609375,206.572266 L1.9609375,210 Z M10.046875,204.615234 C9.1796875,204.615234 8.5703125,205.236328 8.50585938,206.173828 L11.5234375,206.173828 C11.4941406,205.224609 10.9199219,204.615234 10.046875,204.615234 Z M11.5351562,208.236328 L12.9121094,208.236328 C12.6367188,209.402344 11.5761719,210.128906 10.0644531,210.128906 C8.17773438,210.128906 7.04101562,208.880859 7.04101562,206.818359 C7.04101562,204.755859 8.1953125,203.460938 10.0527344,203.460938 C11.8808594,203.460938 12.9765625,204.673828 12.9765625,206.695312 L12.9765625,207.164062 L8.5,207.164062 L8.5,207.240234 C8.53515625,208.306641 9.15039062,208.974609 10.1054688,208.974609 C10.8261719,208.974609 11.3242188,208.710938 11.5351562,208.236328 Z M16.6269531,208.962891 C17.5058594,208.962891 18.1621094,208.394531 18.1621094,207.650391 L18.1621094,207.140625 L16.7148438,207.234375 C15.9003906,207.287109 15.5195312,207.580078 15.5195312,208.101562 C15.5195312,208.640625 15.9824219,208.962891 16.6269531,208.962891 Z M16.1992188,210.105469 C14.9628906,210.105469 14.078125,209.355469 14.078125,208.183594 C14.078125,207.023438 14.9511719,206.355469 16.5097656,206.261719 L18.1621094,206.162109 L18.1621094,205.623047 C18.1621094,204.996094 17.7402344,204.644531 16.9550781,204.644531 C16.2871094,204.644531 15.8300781,204.878906 15.6953125,205.3125 L14.3242188,205.3125 C14.4414062,204.181641 15.5019531,203.460938 17.0253906,203.460938 C18.671875,203.460938 19.5976562,204.263672 19.5976562,205.623047 L19.5976562,210 L18.1972656,210 L18.1972656,209.121094 L18.0976562,209.121094 C17.7402344,209.742188 17.0371094,210.105469 16.1992188,210.105469 Z M21.8066406,202.060547 L23.2539062,202.060547 L23.2539062,203.630859 L24.6601562,203.630859 L24.6601562,204.791016 L23.2539062,204.791016 L23.2539062,207.9375 C23.2539062,208.570312 23.5234375,208.851562 24.1328125,208.851562 C24.3378906,208.851562 24.4433594,208.839844 24.6132812,208.822266 L24.6132812,209.958984 C24.4082031,210 24.1445312,210.029297 23.8632812,210.029297 C22.3925781,210.029297 21.8066406,209.53125 21.8066406,208.289062 L21.8066406,204.791016 L20.7636719,204.791016 L20.7636719,203.630859 L21.8066406,203.630859 L21.8066406,202.060547 Z M31.7910156,203.589844 L31.7910156,210 L30.390625,210 L30.390625,208.980469 L30.2910156,208.980469 C29.9804688,209.712891 29.2539062,210.128906 28.3046875,210.128906 C26.8925781,210.128906 26.0195312,209.255859 26.0195312,207.738281 L26.0195312,203.589844 L27.4726562,203.589844 L27.4726562,207.392578 C27.4726562,208.376953 27.9355469,208.851562 28.8085938,208.851562 C29.7460938,208.851562 30.3378906,208.271484 30.3378906,207.322266 L30.3378906,203.589844 L31.7910156,203.589844 Z M33.5722656,210 L33.5722656,203.589844 L34.9726562,203.589844 L34.9726562,204.585938 L35.0722656,204.585938 C35.2480469,203.953125 35.9335938,203.484375 36.7539062,203.484375 C36.9589844,203.484375 37.2109375,203.507812 37.3515625,203.548828 L37.3515625,204.896484 C37.2402344,204.855469 36.8417969,204.814453 36.6132812,204.814453 C35.6816406,204.814453 35.0253906,205.400391 35.0253906,206.296875 L35.0253906,210 L33.5722656,210 Z M41.1835938,204.615234 C40.3164062,204.615234 39.7070312,205.236328 39.6425781,206.173828 L42.6601562,206.173828 C42.6308594,205.224609 42.0566406,204.615234 41.1835938,204.615234 Z M42.671875,208.236328 L44.0488281,208.236328 C43.7734375,209.402344 42.7128906,210.128906 41.2011719,210.128906 C39.3144531,210.128906 38.1777344,208.880859 38.1777344,206.818359 C38.1777344,204.755859 39.3320312,203.460938 41.1894531,203.460938 C43.0175781,203.460938 44.1132812,204.673828 44.1132812,206.695312 L44.1132812,207.164062 L39.6367188,207.164062 L39.6367188,207.240234 C39.671875,208.306641 40.2871094,208.974609 41.2421875,208.974609 C41.9628906,208.974609 42.4609375,208.710938 42.671875,208.236328 Z M48.7714844,210 L48.7714844,203.589844 L50.171875,203.589844 L50.171875,204.585938 L50.2714844,204.585938 C50.4472656,203.953125 51.1328125,203.484375 51.953125,203.484375 C52.1582031,203.484375 52.4101563,203.507812 52.5507813,203.548828 L52.5507813,204.896484 C52.4394531,204.855469 52.0410156,204.814453 51.8125,204.814453 C50.8808594,204.814453 50.2246094,205.400391 50.2246094,206.296875 L50.2246094,210 L48.7714844,210 Z M56.3828125,204.615234 C55.515625,204.615234 54.90625,205.236328 54.8417969,206.173828 L57.859375,206.173828 C57.8300781,205.224609 57.2558594,204.615234 56.3828125,204.615234 Z M57.8710938,208.236328 L59.2480469,208.236328 C58.9726562,209.402344 57.9121094,210.128906 56.4003906,210.128906 C54.5136719,210.128906 53.3769531,208.880859 53.3769531,206.818359 C53.3769531,204.755859 54.53125,203.460938 56.3886719,203.460938 C58.2167969,203.460938 59.3125,204.673828 59.3125,206.695312 L59.3125,207.164062 L54.8359375,207.164062 L54.8359375,207.240234 C54.8710938,208.306641 55.4863281,208.974609 56.4414062,208.974609 C57.1621094,208.974609 57.6601562,208.710938 57.8710938,208.236328 Z M63.0976562,203.484375 C63.9648438,203.484375 64.7265625,203.935547 65.078125,204.650391 L65.1777344,204.650391 L65.1777344,203.589844 L66.5898438,203.589844 L66.5898438,212.050781 L65.125,212.050781 L65.125,209.027344 L65.0253906,209.027344 C64.65625,209.712891 63.9824219,210.105469 63.0742188,210.105469 C61.4570312,210.105469 60.4550781,208.828125 60.4550781,206.789062 C60.4550781,204.767578 61.4804688,203.484375 63.0976562,203.484375 Z M63.53125,208.869141 C64.5332031,208.869141 65.1542969,208.078125 65.1542969,206.794922 C65.1542969,205.517578 64.5273437,204.720703 63.5371094,204.720703 C62.5410156,204.720703 61.9433594,205.5 61.9433594,206.794922 C61.9433594,208.095703 62.5351562,208.869141 63.53125,208.869141 Z M74.078125,203.589844 L74.078125,210 L72.6777344,210 L72.6777344,208.980469 L72.578125,208.980469 C72.2675781,209.712891 71.5410156,210.128906 70.5917969,210.128906 C69.1796875,210.128906 68.3066406,209.255859 68.3066406,207.738281 L68.3066406,203.589844 L69.7597656,203.589844 L69.7597656,207.392578 C69.7597656,208.376953 70.2226562,208.851562 71.0957031,208.851562 C72.0332031,208.851562 72.625,208.271484 72.625,207.322266 L72.625,203.589844 L74.078125,203.589844 Z M78.5488281,204.615234 C77.6816406,204.615234 77.0722656,205.236328 77.0078125,206.173828 L80.0253906,206.173828 C79.9960938,205.224609 79.421875,204.615234 78.5488281,204.615234 Z M80.0371094,208.236328 L81.4140625,208.236328 C81.1386719,209.402344 80.078125,210.128906 78.5664062,210.128906 C76.6796875,210.128906 75.5429688,208.880859 75.5429688,206.818359 C75.5429688,204.755859 76.6972656,203.460938 78.5546875,203.460938 C80.3828125,203.460938 81.4785156,204.673828 81.4785156,206.695312 L81.4785156,207.164062 L77.0019531,207.164062 L77.0019531,207.240234 C77.0371094,208.306641 77.6523438,208.974609 78.6074219,208.974609 C79.328125,208.974609 79.8261719,208.710938 80.0371094,208.236328 Z M82.7910156,205.423828 C82.7910156,204.263672 83.8457031,203.460938 85.3574219,203.460938 C86.8808594,203.460938 87.8359375,204.134766 87.9414062,205.300781 L86.5761719,205.300781 C86.4707031,204.849609 86.0429687,204.5625 85.3632812,204.5625 C84.7011719,204.5625 84.203125,204.878906 84.203125,205.341797 C84.203125,205.705078 84.5078125,205.927734 85.1523437,206.074219 L86.2832031,206.332031 C87.5078125,206.607422 88.0761719,207.134766 88.0761719,208.078125 C88.0761719,209.308594 86.9453125,210.128906 85.3457031,210.128906 C83.7460937,210.128906 82.7382812,209.4375 82.6269531,208.271484 L84.0625,208.271484 C84.203125,208.746094 84.6542969,209.027344 85.3808594,209.027344 C86.1132812,209.027344 86.6230469,208.705078 86.6230469,208.230469 C86.6230469,207.867188 86.3476562,207.638672 85.7382812,207.503906 L84.6015625,207.240234 C83.3710937,206.958984 82.7910156,206.390625 82.7910156,205.423828 Z M90.0097656,202.060547 L91.4570312,202.060547 L91.4570312,203.630859 L92.8632812,203.630859 L92.8632812,204.791016 L91.4570312,204.791016 L91.4570312,207.9375 C91.4570312,208.570312 91.7265625,208.851562 92.3359375,208.851562 C92.5410156,208.851562 92.6464844,208.839844 92.8164062,208.822266 L92.8164062,209.958984 C92.6113281,210 92.3476562,210.029297 92.0664062,210.029297 C90.5957031,210.029297 90.0097656,209.53125 90.0097656,208.289062 L90.0097656,204.791016 L88.9667969,204.791016 L88.9667969,203.630859 L90.0097656,203.630859 L90.0097656,202.060547 Z M94.1347656,205.423828 C94.1347656,204.263672 95.1894531,203.460938 96.7011719,203.460938 C98.2246094,203.460938 99.1796875,204.134766 99.2851562,205.300781 L97.9199219,205.300781 C97.8144531,204.849609 97.3867188,204.5625 96.7070312,204.5625 C96.0449219,204.5625 95.546875,204.878906 95.546875,205.341797 C95.546875,205.705078 95.8515625,205.927734 96.4960938,206.074219 L97.6269531,206.332031 C98.8515625,206.607422 99.4199219,207.134766 99.4199219,208.078125 C99.4199219,209.308594 98.2890625,210.128906 96.6894531,210.128906 C95.0898438,210.128906 94.0820312,209.4375 93.9707031,208.271484 L95.40625,208.271484 C95.546875,208.746094 95.9980469,209.027344 96.7246094,209.027344 C97.4570312,209.027344 97.9667969,208.705078 97.9667969,208.230469 C97.9667969,207.867188 97.6914062,207.638672 97.0820312,207.503906 L95.9453125,207.240234 C94.7148438,206.958984 94.1347656,206.390625 94.1347656,205.423828 Z" id="Feature-requests"></path>
            </g>
        </g>
    </g>
</svg>