<?xml version="1.0" encoding="UTF-8"?>
<svg width="400px" height="320px" viewBox="0 0 400 320" version="1.1" xmlns="http://www.w3.org/2000/svg" xmlns:xlink="http://www.w3.org/1999/xlink">
    <!-- Generator: Sketch 49.3 (51167) - http://www.bohemiancoding.com/sketch -->
    <title>snippet/bar-chart</title>
    <desc>Created with Sketch.</desc>
    <defs></defs>
    <g id="snippet/bar-chart" stroke="none" stroke-width="1" fill="none" fill-rule="evenodd">
        <g id="Group" transform="translate(16.000000, 48.000000)">
            <g transform="translate(136.000000, 0.000000)" id="Rectangle">
                <rect fill="#F84F77" x="0" y="0" width="112" height="24" rx="3"></rect>
                <rect fill="#512DA8" x="0" y="40" width="232" height="24" rx="3"></rect>
                <rect fill="#5182F8" x="0" y="80" width="80" height="24" rx="3"></rect>
                <rect fill="#009688" x="0" y="120" width="128" height="24" rx="3"></rect>
                <rect fill="#1EB8C1" x="0" y="160" width="32" height="24" rx="3"></rect>
                <rect fill="#512DA8" x="0" y="200" width="112" height="24" rx="3"></rect>
            </g>
            <g transform="translate(0.000000, 5.000000)" fill="#7B7194">
                <path d="M51.1328125,11 L49.6738281,11 L49.6738281,2.54492188 L50.9863281,2.54492188 L55.1347656,8.29296875 L55.234375,8.29296875 L55.234375,2.54492188 L56.6875,2.54492188 L56.6875,11 L55.3808594,11 L51.2324219,5.24609375 L51.1328125,5.24609375 L51.1328125,11 Z M60.8183594,9.96289062 C61.6972656,9.96289062 62.3535156,9.39453125 62.3535156,8.65039062 L62.3535156,8.140625 L60.90625,8.234375 C60.0917969,8.28710938 59.7109375,8.58007812 59.7109375,9.1015625 C59.7109375,9.640625 60.1738281,9.96289062 60.8183594,9.96289062 Z M60.390625,11.1054688 C59.1542969,11.1054688 58.2695312,10.3554688 58.2695312,9.18359375 C58.2695312,8.0234375 59.1425781,7.35546875 60.7011719,7.26171875 L62.3535156,7.16210938 L62.3535156,6.62304688 C62.3535156,5.99609375 61.9316406,5.64453125 61.1464844,5.64453125 C60.4785156,5.64453125 60.0214844,5.87890625 59.8867188,6.3125 L58.515625,6.3125 C58.6328125,5.18164062 59.6933594,4.4609375 61.2167969,4.4609375 C62.8632812,4.4609375 63.7890625,5.26367188 63.7890625,6.62304688 L63.7890625,11 L62.3886719,11 L62.3886719,10.1210938 L62.2890625,10.1210938 C61.9316406,10.7421875 61.2285156,11.1054688 60.390625,11.1054688 Z M64.9785156,4.58984375 L66.5371094,4.58984375 L68.0195312,9.546875 L68.1191406,9.546875 L69.5898438,4.58984375 L71.125,4.58984375 L68.8574219,11 L67.2578125,11 L64.9785156,4.58984375 Z M72.3671875,11 L72.3671875,4.58984375 L73.8144531,4.58984375 L73.8144531,11 L72.3671875,11 Z M73.0878906,3.546875 C72.5605469,3.546875 72.1914062,3.20703125 72.1914062,2.74414062 C72.1914062,2.28125 72.5605469,1.94140625 73.0878906,1.94140625 C73.6210938,1.94140625 73.984375,2.28125 73.984375,2.74414062 C73.984375,3.20703125 73.6210938,3.546875 73.0878906,3.546875 Z M79.9902344,7.72460938 C79.9902344,6.5 79.375,5.72070312 78.3671875,5.72070312 C77.3535156,5.72070312 76.7792969,6.5 76.7792969,7.72460938 C76.7792969,8.94921875 77.3535156,9.72265625 78.3671875,9.72265625 C79.3808594,9.72265625 79.9902344,8.94921875 79.9902344,7.72460938 Z M78.3671875,13.4375 C76.7207031,13.4375 75.6425781,12.7109375 75.5253906,11.609375 L76.984375,11.609375 C77.078125,12.0488281 77.59375,12.3300781 78.390625,12.3300781 C79.3867188,12.3300781 79.9667969,11.8613281 79.9667969,11.0585938 L79.9667969,9.84570312 L79.8671875,9.84570312 C79.4980469,10.53125 78.8007812,10.90625 77.9101562,10.90625 C76.2929688,10.90625 75.2851562,9.65234375 75.2851562,7.72460938 C75.2851562,5.76171875 76.2988281,4.484375 77.9335938,4.484375 C78.8066406,4.484375 79.5683594,4.91796875 79.9199219,5.61523438 L80.0195312,5.61523438 L80.0195312,4.58984375 L81.4199219,4.58984375 L81.4199219,11.0234375 C81.4199219,12.5058594 80.2363281,13.4375 78.3671875,13.4375 Z M85.3925781,9.96289062 C86.2714844,9.96289062 86.9277344,9.39453125 86.9277344,8.65039062 L86.9277344,8.140625 L85.4804688,8.234375 C84.6660156,8.28710938 84.2851562,8.58007812 84.2851562,9.1015625 C84.2851562,9.640625 84.7480469,9.96289062 85.3925781,9.96289062 Z M84.9648438,11.1054688 C83.7285156,11.1054688 82.84375,10.3554688 82.84375,9.18359375 C82.84375,8.0234375 83.7167969,7.35546875 85.2753906,7.26171875 L86.9277344,7.16210938 L86.9277344,6.62304688 C86.9277344,5.99609375 86.5058594,5.64453125 85.7207031,5.64453125 C85.0527344,5.64453125 84.5957031,5.87890625 84.4609375,6.3125 L83.0898438,6.3125 C83.2070312,5.18164062 84.2675781,4.4609375 85.7910156,4.4609375 C87.4375,4.4609375 88.3632812,5.26367188 88.3632812,6.62304688 L88.3632812,11 L86.9628906,11 L86.9628906,10.1210938 L86.8632812,10.1210938 C86.5058594,10.7421875 85.8027344,11.1054688 84.9648438,11.1054688 Z M90.5722656,3.06054687 L92.0195312,3.06054687 L92.0195312,4.63085938 L93.4257812,4.63085938 L93.4257812,5.79101562 L92.0195312,5.79101562 L92.0195312,8.9375 C92.0195312,9.5703125 92.2890625,9.8515625 92.8984375,9.8515625 C93.1035156,9.8515625 93.2089844,9.83984375 93.3789062,9.82226562 L93.3789062,10.9589844 C93.1738281,11 92.9101562,11.0292969 92.6289062,11.0292969 C91.1582031,11.0292969 90.5722656,10.53125 90.5722656,9.2890625 L90.5722656,5.79101562 L89.5292969,5.79101562 L89.5292969,4.63085938 L90.5722656,4.63085938 L90.5722656,3.06054687 Z M94.8613281,11 L94.8613281,4.58984375 L96.3085938,4.58984375 L96.3085938,11 L94.8613281,11 Z M95.5820312,3.546875 C95.0546875,3.546875 94.6855469,3.20703125 94.6855469,2.74414062 C94.6855469,2.28125 95.0546875,1.94140625 95.5820312,1.94140625 C96.1152344,1.94140625 96.4785156,2.28125 96.4785156,2.74414062 C96.4785156,3.20703125 96.1152344,3.546875 95.5820312,3.546875 Z M100.873047,9.91015625 C101.886719,9.91015625 102.460938,9.13671875 102.460938,7.79492188 C102.460938,6.45898438 101.880859,5.6796875 100.873047,5.6796875 C99.859375,5.6796875 99.2792969,6.45898438 99.2792969,7.79492188 C99.2792969,9.13671875 99.859375,9.91015625 100.873047,9.91015625 Z M100.873047,11.1289063 C98.9511719,11.1289063 97.7910156,9.875 97.7910156,7.79492188 C97.7910156,5.7265625 98.96875,4.4609375 100.873047,4.4609375 C102.783203,4.4609375 103.955078,5.72070313 103.955078,7.79492188 C103.955078,9.875 102.789062,11.1289063 100.873047,11.1289063 Z M105.419922,11 L105.419922,4.58984375 L106.820312,4.58984375 L106.820312,5.61523438 L106.919922,5.61523438 C107.224609,4.90039062 107.974609,4.4609375 108.935547,4.4609375 C110.365234,4.4609375 111.167969,5.32226562 111.167969,6.8515625 L111.167969,11 L109.720703,11 L109.720703,7.19726562 C109.720703,6.21875 109.275391,5.7265625 108.396484,5.7265625 C107.458984,5.7265625 106.873047,6.32421875 106.873047,7.26757812 L106.873047,11 L105.419922,11 Z" id="Navigation"></path>
                <path d="M71.2890625,48.703125 L72.765625,48.703125 C72.859375,49.4589844 73.609375,49.9453125 74.6816406,49.9453125 C75.6777344,49.9453125 76.3984375,49.4355469 76.3984375,48.7265625 C76.3984375,48.1171875 75.9355469,47.7597656 74.8515625,47.5078125 L73.7558594,47.2558594 C72.2207031,46.9101562 71.5,46.1484375 71.5,44.8886719 C71.5,43.3535156 72.7539062,42.3339844 74.6464844,42.3339844 C76.421875,42.3339844 77.7050781,43.3535156 77.7753906,44.8066406 L76.328125,44.8066406 C76.2226562,44.0625 75.5664062,43.59375 74.640625,43.59375 C73.6679688,43.59375 73.0234375,44.0625 73.0234375,44.7832031 C73.0234375,45.3515625 73.4511719,45.6855469 74.5,45.9257812 L75.4726562,46.1484375 C77.1894531,46.5351562 77.9101562,47.25 77.9101562,48.5390625 C77.9101562,50.1855469 76.6386719,51.2109375 74.5878906,51.2109375 C72.6484375,51.2109375 71.3652344,50.2382812 71.2890625,48.703125 Z M82.1464844,45.6152344 C81.2792969,45.6152344 80.6699219,46.2363281 80.6054688,47.1738281 L83.6230469,47.1738281 C83.59375,46.2246094 83.0195312,45.6152344 82.1464844,45.6152344 Z M83.6347656,49.2363281 L85.0117188,49.2363281 C84.7363281,50.4023438 83.6757812,51.1289062 82.1640625,51.1289062 C80.2773438,51.1289062 79.140625,49.8808594 79.140625,47.8183594 C79.140625,45.7558594 80.2949219,44.4609375 82.1523438,44.4609375 C83.9804688,44.4609375 85.0761719,45.6738281 85.0761719,47.6953125 L85.0761719,48.1640625 L80.5996094,48.1640625 L80.5996094,48.2402344 C80.6347656,49.3066406 81.25,49.9746094 82.2050781,49.9746094 C82.9257812,49.9746094 83.4238281,49.7109375 83.6347656,49.2363281 Z M88.7265625,49.9628906 C89.6054688,49.9628906 90.2617188,49.3945312 90.2617188,48.6503906 L90.2617188,48.140625 L88.8144531,48.234375 C88,48.2871094 87.6191406,48.5800781 87.6191406,49.1015625 C87.6191406,49.640625 88.0820312,49.9628906 88.7265625,49.9628906 Z M88.2988281,51.1054688 C87.0625,51.1054688 86.1777344,50.3554688 86.1777344,49.1835938 C86.1777344,48.0234375 87.0507812,47.3554688 88.609375,47.2617188 L90.2617188,47.1621094 L90.2617188,46.6230469 C90.2617188,45.9960938 89.8398438,45.6445312 89.0546875,45.6445312 C88.3867188,45.6445312 87.9296875,45.8789062 87.7949219,46.3125 L86.4238281,46.3125 C86.5410156,45.1816406 87.6015625,44.4609375 89.125,44.4609375 C90.7714844,44.4609375 91.6972656,45.2636719 91.6972656,46.6230469 L91.6972656,51 L90.296875,51 L90.296875,50.1210938 L90.1972656,50.1210938 C89.8398438,50.7421875 89.1367188,51.1054688 88.2988281,51.1054688 Z M93.4433594,51 L93.4433594,44.5898438 L94.84375,44.5898438 L94.84375,45.5859375 L94.9433594,45.5859375 C95.1191406,44.953125 95.8046875,44.484375 96.625,44.484375 C96.8300781,44.484375 97.0820312,44.5078125 97.2226562,44.5488281 L97.2226562,45.8964844 C97.1113281,45.8554688 96.7128906,45.8144531 96.484375,45.8144531 C95.5527344,45.8144531 94.8964844,46.4003906 94.8964844,47.296875 L94.8964844,51 L93.4433594,51 Z M103.902344,46.7460938 L102.519531,46.7460938 C102.384766,46.125 101.904297,45.6796875 101.107422,45.6796875 C100.111328,45.6796875 99.5195312,46.4472656 99.5195312,47.7773438 C99.5195312,49.125 100.117188,49.9101562 101.107422,49.9101562 C101.863281,49.9101562 102.367188,49.5527344 102.519531,48.8847656 L103.902344,48.8847656 C103.744141,50.2265625 102.736328,51.1289062 101.113281,51.1289062 C99.1855469,51.1289062 98.0488281,49.8867188 98.0488281,47.7773438 C98.0488281,45.6972656 99.1796875,44.4609375 101.107422,44.4609375 C102.753906,44.4609375 103.75,45.3984375 103.902344,46.7460938 Z M105.349609,51 L105.349609,42.1113281 L106.779297,42.1113281 L106.779297,45.6269531 L106.884766,45.6269531 C107.189453,44.90625 107.945312,44.4726562 108.900391,44.4726562 C110.335938,44.4726562 111.167969,45.3398438 111.167969,46.8632812 L111.167969,51 L109.720703,51 L109.720703,47.2089844 C109.720703,46.2363281 109.251953,45.7382812 108.361328,45.7382812 C107.40625,45.7382812 106.802734,46.359375 106.802734,47.2792969 L106.802734,51 L105.349609,51 Z" id="Search"></path>
                <path d="M21.0859375,87.6132812 C21.0859375,89.8105469 19.6445312,91.2109375 17.3886719,91.2109375 C14.9394531,91.2109375 13.4160156,89.5117188 13.4160156,86.7695312 C13.4160156,84.0625 14.9570312,82.3339844 17.3652344,82.3339844 C19.3164062,82.3339844 20.7460938,83.4472656 21.015625,85.1757812 L19.5097656,85.1757812 C19.2050781,84.2148438 18.4492188,83.6816406 17.3652344,83.6816406 C15.8886719,83.6816406 14.9628906,84.859375 14.9628906,86.7578125 C14.9628906,88.6796875 15.90625,89.8632812 17.4121094,89.8632812 C18.7011719,89.8632812 19.5800781,89.078125 19.6035156,87.9121094 L19.609375,87.7363281 L17.5761719,87.7363281 L17.5761719,86.5527344 L21.0859375,86.5527344 L21.0859375,87.6132812 Z M25.375,85.6152344 C24.5078125,85.6152344 23.8984375,86.2363281 23.8339844,87.1738281 L26.8515625,87.1738281 C26.8222656,86.2246094 26.2480469,85.6152344 25.375,85.6152344 Z M26.8632812,89.2363281 L28.2402344,89.2363281 C27.9648438,90.4023438 26.9042969,91.1289062 25.3925781,91.1289062 C23.5058594,91.1289062 22.3691406,89.8808594 22.3691406,87.8183594 C22.3691406,85.7558594 23.5234375,84.4609375 25.3808594,84.4609375 C27.2089844,84.4609375 28.3046875,85.6738281 28.3046875,87.6953125 L28.3046875,88.1640625 L23.828125,88.1640625 L23.828125,88.2402344 C23.8632812,89.3066406 24.4785156,89.9746094 25.4335938,89.9746094 C26.1542969,89.9746094 26.6523438,89.7109375 26.8632812,89.2363281 Z M29.7636719,91 L29.7636719,84.5898438 L31.1640625,84.5898438 L31.1640625,85.6152344 L31.2636719,85.6152344 C31.5683594,84.9003906 32.3183594,84.4609375 33.2792969,84.4609375 C34.7089844,84.4609375 35.5117188,85.3222656 35.5117188,86.8515625 L35.5117188,91 L34.0644531,91 L34.0644531,87.1972656 C34.0644531,86.21875 33.6191406,85.7265625 32.7402344,85.7265625 C31.8027344,85.7265625 31.2167969,86.3242188 31.2167969,87.2675781 L31.2167969,91 L29.7636719,91 Z M39.9238281,85.6152344 C39.0566406,85.6152344 38.4472656,86.2363281 38.3828125,87.1738281 L41.4003906,87.1738281 C41.3710938,86.2246094 40.796875,85.6152344 39.9238281,85.6152344 Z M41.4121094,89.2363281 L42.7890625,89.2363281 C42.5136719,90.4023438 41.453125,91.1289062 39.9414062,91.1289062 C38.0546875,91.1289062 36.9179688,89.8808594 36.9179688,87.8183594 C36.9179688,85.7558594 38.0722656,84.4609375 39.9296875,84.4609375 C41.7578125,84.4609375 42.8535156,85.6738281 42.8535156,87.6953125 L42.8535156,88.1640625 L38.3769531,88.1640625 L38.3769531,88.2402344 C38.4121094,89.3066406 39.0273438,89.9746094 39.9824219,89.9746094 C40.703125,89.9746094 41.2011719,89.7109375 41.4121094,89.2363281 Z M44.3125,91 L44.3125,84.5898438 L45.7128906,84.5898438 L45.7128906,85.5859375 L45.8125,85.5859375 C45.9882812,84.953125 46.6738281,84.484375 47.4941406,84.484375 C47.6992188,84.484375 47.9511719,84.5078125 48.0917969,84.5488281 L48.0917969,85.8964844 C47.9804688,85.8554688 47.5820312,85.8144531 47.3535156,85.8144531 C46.421875,85.8144531 45.765625,86.4003906 45.765625,87.296875 L45.765625,91 L44.3125,91 Z M51.4257812,89.9628906 C52.3046875,89.9628906 52.9609375,89.3945312 52.9609375,88.6503906 L52.9609375,88.140625 L51.5136719,88.234375 C50.6992188,88.2871094 50.3183594,88.5800781 50.3183594,89.1015625 C50.3183594,89.640625 50.78125,89.9628906 51.4257812,89.9628906 Z M50.9980469,91.1054688 C49.7617188,91.1054688 48.8769531,90.3554688 48.8769531,89.1835938 C48.8769531,88.0234375 49.75,87.3554688 51.3085938,87.2617188 L52.9609375,87.1621094 L52.9609375,86.6230469 C52.9609375,85.9960938 52.5390625,85.6445312 51.7539063,85.6445312 C51.0859375,85.6445312 50.6289063,85.8789062 50.4941406,86.3125 L49.1230469,86.3125 C49.2402344,85.1816406 50.3007813,84.4609375 51.8242188,84.4609375 C53.4707031,84.4609375 54.3964844,85.2636719 54.3964844,86.6230469 L54.3964844,91 L52.9960938,91 L52.9960938,90.1210938 L52.8964844,90.1210938 C52.5390625,90.7421875 51.8359375,91.1054688 50.9980469,91.1054688 Z M56.2011719,91 L56.2011719,82.1113281 L57.6542969,82.1113281 L57.6542969,91 L56.2011719,91 Z M68.4003906,84.5898438 L68.4003906,91 L67,91 L67,89.9804688 L66.9003906,89.9804688 C66.5898438,90.7128906 65.8632812,91.1289062 64.9140625,91.1289062 C63.5019531,91.1289062 62.6289062,90.2558594 62.6289062,88.7382812 L62.6289062,84.5898438 L64.0820312,84.5898438 L64.0820312,88.3925781 C64.0820312,89.3769531 64.5449219,89.8515625 65.4179688,89.8515625 C66.3554688,89.8515625 66.9472656,89.2714844 66.9472656,88.3222656 L66.9472656,84.5898438 L68.4003906,84.5898438 Z M70.0351562,86.4238281 C70.0351562,85.2636719 71.0898438,84.4609375 72.6015625,84.4609375 C74.125,84.4609375 75.0800781,85.1347656 75.1855469,86.3007812 L73.8203125,86.3007812 C73.7148438,85.8496094 73.2871094,85.5625 72.6074219,85.5625 C71.9453125,85.5625 71.4472656,85.8789062 71.4472656,86.3417969 C71.4472656,86.7050781 71.7519531,86.9277344 72.3964844,87.0742188 L73.5273438,87.3320312 C74.7519531,87.6074219 75.3203125,88.1347656 75.3203125,89.078125 C75.3203125,90.3085938 74.1894531,91.1289062 72.5898438,91.1289062 C70.9902344,91.1289062 69.9824219,90.4375 69.8710938,89.2714844 L71.3066406,89.2714844 C71.4472656,89.7460938 71.8984375,90.0273438 72.625,90.0273438 C73.3574219,90.0273438 73.8671875,89.7050781 73.8671875,89.2304688 C73.8671875,88.8671875 73.5917969,88.6386719 72.9824219,88.5039062 L71.8457031,88.2402344 C70.6152344,87.9589844 70.0351562,87.390625 70.0351562,86.4238281 Z M78.9824219,89.9628906 C79.8613281,89.9628906 80.5175781,89.3945312 80.5175781,88.6503906 L80.5175781,88.140625 L79.0703125,88.234375 C78.2558594,88.2871094 77.875,88.5800781 77.875,89.1015625 C77.875,89.640625 78.3378906,89.9628906 78.9824219,89.9628906 Z M78.5546875,91.1054688 C77.3183594,91.1054688 76.4335938,90.3554688 76.4335938,89.1835938 C76.4335938,88.0234375 77.3066406,87.3554688 78.8652344,87.2617188 L80.5175781,87.1621094 L80.5175781,86.6230469 C80.5175781,85.9960938 80.0957031,85.6445312 79.3105469,85.6445312 C78.6425781,85.6445312 78.1855469,85.8789062 78.0507812,86.3125 L76.6796875,86.3125 C76.796875,85.1816406 77.8574219,84.4609375 79.3808594,84.4609375 C81.0273438,84.4609375 81.953125,85.2636719 81.953125,86.6230469 L81.953125,91 L80.5527344,91 L80.5527344,90.1210938 L80.453125,90.1210938 C80.0957031,90.7421875 79.3925781,91.1054688 78.5546875,91.1054688 Z M87.2617188,91.1054688 C86.3652344,91.1054688 85.6210938,90.6894531 85.2578125,89.9863281 L85.1582031,89.9863281 L85.1582031,91 L83.7578125,91 L83.7578125,82.1113281 L85.2109375,82.1113281 L85.2109375,85.609375 L85.3105469,85.609375 C85.6445312,84.9121094 86.3828125,84.484375 87.2617188,84.484375 C88.8847656,84.484375 89.8925781,85.7441406 89.8925781,87.7949219 C89.8925781,89.8339844 88.8789062,91.1054688 87.2617188,91.1054688 Z M86.8046875,85.7207031 C85.8144531,85.7207031 85.1875,86.5175781 85.1875,87.7949219 C85.1875,89.0722656 85.8085938,89.8691406 86.8046875,89.8691406 C87.8007812,89.8691406 88.3984375,89.0839844 88.3984375,87.7949219 C88.3984375,86.5058594 87.7949219,85.7207031 86.8046875,85.7207031 Z M91.3691406,91 L91.3691406,84.5898438 L92.8164062,84.5898438 L92.8164062,91 L91.3691406,91 Z M92.0898438,83.546875 C91.5625,83.546875 91.1933594,83.2070312 91.1933594,82.7441406 C91.1933594,82.28125 91.5625,81.9414062 92.0898438,81.9414062 C92.6230469,81.9414062 92.9863281,82.28125 92.9863281,82.7441406 C92.9863281,83.2070312 92.6230469,83.546875 92.0898438,83.546875 Z M94.6738281,91 L94.6738281,82.1113281 L96.1269531,82.1113281 L96.1269531,91 L94.6738281,91 Z M97.9785156,91 L97.9785156,84.5898438 L99.4257813,84.5898438 L99.4257813,91 L97.9785156,91 Z M98.6992188,83.546875 C98.171875,83.546875 97.8027344,83.2070312 97.8027344,82.7441406 C97.8027344,82.28125 98.171875,81.9414062 98.6992188,81.9414062 C99.2324219,81.9414062 99.5957031,82.28125 99.5957031,82.7441406 C99.5957031,83.2070312 99.2324219,83.546875 98.6992188,83.546875 Z M101.6875,83.0605469 L103.134766,83.0605469 L103.134766,84.6308594 L104.541016,84.6308594 L104.541016,85.7910156 L103.134766,85.7910156 L103.134766,88.9375 C103.134766,89.5703125 103.404297,89.8515625 104.013672,89.8515625 C104.21875,89.8515625 104.324219,89.8398438 104.494141,89.8222656 L104.494141,90.9589844 C104.289062,91 104.025391,91.0292969 103.744141,91.0292969 C102.273438,91.0292969 101.6875,90.53125 101.6875,89.2890625 L101.6875,85.7910156 L100.644531,85.7910156 L100.644531,84.6308594 L101.6875,84.6308594 L101.6875,83.0605469 Z M106.662109,93.3320312 C106.574219,93.3320312 106.181641,93.3261719 106.087891,93.3085938 L106.087891,92.125 C106.169922,92.1367188 106.386719,92.1425781 106.486328,92.1425781 C107.101562,92.1425781 107.447266,91.9023438 107.634766,91.3105469 L107.710938,91.0292969 L105.419922,84.5898438 L107.013672,84.5898438 L108.513672,89.59375 L108.613281,89.59375 L110.107422,84.5898438 L111.642578,84.5898438 L109.328125,91.2050781 C108.783203,92.7988281 108.097656,93.3320312 106.662109,93.3320312 Z" id="General-usability"></path>
                <path d="M50.7460938,125.011719 L49.0351562,131 L47.6113281,131 L45.34375,122.544922 L46.9199219,122.544922 L48.3671875,128.837891 L48.4550781,128.837891 L50.1191406,122.544922 L51.4609375,122.544922 L53.1484375,128.837891 L53.2304688,128.837891 L54.6777344,122.544922 L56.2421875,122.544922 L53.9746094,131 L52.5566406,131 L50.8339844,125.011719 L50.7460938,125.011719 Z M59.8398438,129.962891 C60.71875,129.962891 61.375,129.394531 61.375,128.650391 L61.375,128.140625 L59.9277344,128.234375 C59.1132812,128.287109 58.7324219,128.580078 58.7324219,129.101562 C58.7324219,129.640625 59.1953125,129.962891 59.8398438,129.962891 Z M59.4121094,131.105469 C58.1757812,131.105469 57.2910156,130.355469 57.2910156,129.183594 C57.2910156,128.023438 58.1640625,127.355469 59.7226562,127.261719 L61.375,127.162109 L61.375,126.623047 C61.375,125.996094 60.953125,125.644531 60.1679688,125.644531 C59.5,125.644531 59.0429688,125.878906 58.9082031,126.3125 L57.5371094,126.3125 C57.6542969,125.181641 58.7148438,124.460938 60.2382812,124.460938 C61.8847656,124.460938 62.8105469,125.263672 62.8105469,126.623047 L62.8105469,131 L61.4101562,131 L61.4101562,130.121094 L61.3105469,130.121094 C60.953125,130.742188 60.25,131.105469 59.4121094,131.105469 Z M65.2597656,133.332031 C65.171875,133.332031 64.7792969,133.326172 64.6855469,133.308594 L64.6855469,132.125 C64.7675781,132.136719 64.984375,132.142578 65.0839844,132.142578 C65.6992188,132.142578 66.0449219,131.902344 66.2324219,131.310547 L66.3085938,131.029297 L64.0175781,124.589844 L65.6113281,124.589844 L67.1113281,129.59375 L67.2109375,129.59375 L68.7050781,124.589844 L70.2402344,124.589844 L67.9257812,131.205078 C67.3808594,132.798828 66.6953125,133.332031 65.2597656,133.332031 Z M71.9511719,131 L71.9511719,125.791016 L70.9082031,125.791016 L70.9082031,124.630859 L71.9511719,124.630859 L71.9511719,123.992188 C71.9511719,122.691406 72.625,122.164062 74.03125,122.164062 C74.2890625,122.164062 74.5410156,122.1875 74.7988281,122.228516 L74.7988281,123.3125 C74.6699219,123.283203 74.453125,123.265625 74.2421875,123.265625 C73.6738281,123.265625 73.375,123.511719 73.375,124.085938 L73.375,124.630859 L74.7636719,124.630859 L74.7636719,125.791016 L73.3984375,125.791016 L73.3984375,131 L71.9511719,131 Z M76.1992188,131 L76.1992188,124.589844 L77.6464844,124.589844 L77.6464844,131 L76.1992188,131 Z M76.9199219,123.546875 C76.3925781,123.546875 76.0234375,123.207031 76.0234375,122.744141 C76.0234375,122.28125 76.3925781,121.941406 76.9199219,121.941406 C77.453125,121.941406 77.8164062,122.28125 77.8164062,122.744141 C77.8164062,123.207031 77.453125,123.546875 76.9199219,123.546875 Z M79.4453125,131 L79.4453125,124.589844 L80.8457031,124.589844 L80.8457031,125.615234 L80.9453125,125.615234 C81.25,124.900391 82,124.460938 82.9609375,124.460938 C84.390625,124.460938 85.1933594,125.322266 85.1933594,126.851562 L85.1933594,131 L83.7460938,131 L83.7460938,127.197266 C83.7460938,126.21875 83.3007812,125.726562 82.421875,125.726562 C81.484375,125.726562 80.8984375,126.324219 80.8984375,127.267578 L80.8984375,131 L79.4453125,131 Z M89.2363281,131.105469 C87.6132812,131.105469 86.5996094,129.828125 86.5996094,127.789062 C86.5996094,125.761719 87.6191406,124.484375 89.2363281,124.484375 C90.1152344,124.484375 90.8417969,124.90625 91.1816406,125.609375 L91.28125,125.609375 L91.28125,122.111328 L92.734375,122.111328 L92.734375,131 L91.328125,131 L91.328125,129.986328 L91.2285156,129.986328 C90.8652344,130.689453 90.1269531,131.105469 89.2363281,131.105469 Z M89.6875,125.720703 C88.6972656,125.720703 88.0878906,126.505859 88.0878906,127.794922 C88.0878906,129.089844 88.6914062,129.869141 89.6875,129.869141 C90.6894531,129.869141 91.2988281,129.083984 91.2988281,127.794922 C91.2988281,126.517578 90.6835938,125.720703 89.6875,125.720703 Z M94.5859375,131 L94.5859375,124.589844 L96.0332031,124.589844 L96.0332031,131 L94.5859375,131 Z M95.3066406,123.546875 C94.7792969,123.546875 94.4101562,123.207031 94.4101562,122.744141 C94.4101562,122.28125 94.7792969,121.941406 95.3066406,121.941406 C95.8398438,121.941406 96.203125,122.28125 96.203125,122.744141 C96.203125,123.207031 95.8398438,123.546875 95.3066406,123.546875 Z M97.8320312,131 L97.8320312,124.589844 L99.2324219,124.589844 L99.2324219,125.615234 L99.3320312,125.615234 C99.6367188,124.900391 100.386719,124.460938 101.347656,124.460938 C102.777344,124.460938 103.580078,125.322266 103.580078,126.851562 L103.580078,131 L102.132812,131 L102.132812,127.197266 C102.132812,126.21875 101.6875,125.726562 100.808594,125.726562 C99.8710938,125.726562 99.2851562,126.324219 99.2851562,127.267578 L99.2851562,131 L97.8320312,131 Z M109.679688,127.724609 C109.679688,126.5 109.064453,125.720703 108.056641,125.720703 C107.042969,125.720703 106.46875,126.5 106.46875,127.724609 C106.46875,128.949219 107.042969,129.722656 108.056641,129.722656 C109.070312,129.722656 109.679688,128.949219 109.679688,127.724609 Z M108.056641,133.4375 C106.410156,133.4375 105.332031,132.710938 105.214844,131.609375 L106.673828,131.609375 C106.767578,132.048828 107.283203,132.330078 108.080078,132.330078 C109.076172,132.330078 109.65625,131.861328 109.65625,131.058594 L109.65625,129.845703 L109.556641,129.845703 C109.1875,130.53125 108.490234,130.90625 107.599609,130.90625 C105.982422,130.90625 104.974609,129.652344 104.974609,127.724609 C104.974609,125.761719 105.988281,124.484375 107.623047,124.484375 C108.496094,124.484375 109.257812,124.917969 109.609375,125.615234 L109.708984,125.615234 L109.708984,124.589844 L111.109375,124.589844 L111.109375,131.023438 C111.109375,132.505859 109.925781,133.4375 108.056641,133.4375 Z" id="Wayfinding"></path>
                <path d="M26.546875,162.333984 C29.0019531,162.333984 30.5371094,164.039062 30.5371094,166.769531 C30.5371094,169.494141 29.0136719,171.210938 26.546875,171.210938 C24.0625,171.210938 22.5390625,169.5 22.5390625,166.769531 C22.5390625,164.039062 24.0917969,162.333984 26.546875,162.333984 Z M26.546875,163.675781 C25.0410156,163.675781 24.0859375,164.876953 24.0859375,166.769531 C24.0859375,168.65625 25.0175781,169.869141 26.546875,169.869141 C28.0527344,169.869141 28.9902344,168.65625 28.9902344,166.769531 C28.9902344,164.876953 28.046875,163.675781 26.546875,163.675781 Z M32.5761719,163.060547 L34.0234375,163.060547 L34.0234375,164.630859 L35.4296875,164.630859 L35.4296875,165.791016 L34.0234375,165.791016 L34.0234375,168.9375 C34.0234375,169.570312 34.2929688,169.851562 34.9023438,169.851562 C35.1074219,169.851562 35.2128906,169.839844 35.3828125,169.822266 L35.3828125,170.958984 C35.1777344,171 34.9140625,171.029297 34.6328125,171.029297 C33.1621094,171.029297 32.5761719,170.53125 32.5761719,169.289062 L32.5761719,165.791016 L31.5332031,165.791016 L31.5332031,164.630859 L32.5761719,164.630859 L32.5761719,163.060547 Z M36.90625,171 L36.90625,162.111328 L38.3359375,162.111328 L38.3359375,165.626953 L38.4414062,165.626953 C38.7460938,164.90625 39.5019531,164.472656 40.4570312,164.472656 C41.8925781,164.472656 42.7246094,165.339844 42.7246094,166.863281 L42.7246094,171 L41.2773438,171 L41.2773438,167.208984 C41.2773438,166.236328 40.8085938,165.738281 39.9179688,165.738281 C38.9628906,165.738281 38.359375,166.359375 38.359375,167.279297 L38.359375,171 L36.90625,171 Z M47.1367188,165.615234 C46.2695312,165.615234 45.6601562,166.236328 45.5957031,167.173828 L48.6132812,167.173828 C48.5839844,166.224609 48.0097656,165.615234 47.1367188,165.615234 Z M48.625,169.236328 L50.0019531,169.236328 C49.7265625,170.402344 48.6660156,171.128906 47.1542969,171.128906 C45.2675781,171.128906 44.1308594,169.880859 44.1308594,167.818359 C44.1308594,165.755859 45.2851562,164.460938 47.1425781,164.460938 C48.9707031,164.460938 50.0664062,165.673828 50.0664062,167.695312 L50.0664062,168.164062 L45.5898438,168.164062 L45.5898438,168.240234 C45.625,169.306641 46.2402344,169.974609 47.1953125,169.974609 C47.9160156,169.974609 48.4140625,169.710938 48.625,169.236328 Z M51.5253906,171 L51.5253906,164.589844 L52.9257812,164.589844 L52.9257812,165.585938 L53.0253906,165.585938 C53.2011719,164.953125 53.8867188,164.484375 54.7070312,164.484375 C54.9121094,164.484375 55.1640625,164.507812 55.3046875,164.548828 L55.3046875,165.896484 C55.1933594,165.855469 54.7949219,165.814453 54.5664062,165.814453 C53.6347656,165.814453 52.9785156,166.400391 52.9785156,167.296875 L52.9785156,171 L51.5253906,171 Z M63.1386719,164.484375 C64.7617188,164.484375 65.78125,165.738281 65.78125,167.794922 C65.78125,169.839844 64.7734375,171.105469 63.15625,171.105469 C62.2363281,171.105469 61.5273438,170.707031 61.1992188,170.027344 L61.0996094,170.027344 L61.0996094,173.050781 L59.6464844,173.050781 L59.6464844,164.589844 L61.046875,164.589844 L61.046875,165.650391 L61.1464844,165.650391 C61.515625,164.923828 62.2597656,164.484375 63.1386719,164.484375 Z M62.6816406,169.869141 C63.6894531,169.869141 64.2871094,169.089844 64.2871094,167.794922 C64.2871094,166.5 63.6835938,165.720703 62.6875,165.720703 C61.6972656,165.720703 61.0761719,166.517578 61.0703125,167.794922 C61.0761719,169.078125 61.6914062,169.869141 62.6816406,169.869141 Z M67.2402344,171 L67.2402344,164.589844 L68.640625,164.589844 L68.640625,165.585938 L68.7402344,165.585938 C68.9160156,164.953125 69.6015625,164.484375 70.421875,164.484375 C70.6269531,164.484375 70.8789062,164.507812 71.0195312,164.548828 L71.0195312,165.896484 C70.9082031,165.855469 70.5097656,165.814453 70.28125,165.814453 C69.3496094,165.814453 68.6933594,166.400391 68.6933594,167.296875 L68.6933594,171 L67.2402344,171 Z M74.9277344,169.910156 C75.9414062,169.910156 76.515625,169.136719 76.515625,167.794922 C76.515625,166.458984 75.9355469,165.679688 74.9277344,165.679688 C73.9140625,165.679688 73.3339844,166.458984 73.3339844,167.794922 C73.3339844,169.136719 73.9140625,169.910156 74.9277344,169.910156 Z M74.9277344,171.128906 C73.0058594,171.128906 71.8457031,169.875 71.8457031,167.794922 C71.8457031,165.726562 73.0234375,164.460938 74.9277344,164.460938 C76.8378906,164.460938 78.0097656,165.720703 78.0097656,167.794922 C78.0097656,169.875 76.84375,171.128906 74.9277344,171.128906 Z M81.7949219,171.105469 C80.171875,171.105469 79.1582031,169.828125 79.1582031,167.789062 C79.1582031,165.761719 80.1777344,164.484375 81.7949219,164.484375 C82.6738281,164.484375 83.4003906,164.90625 83.7402344,165.609375 L83.8398438,165.609375 L83.8398438,162.111328 L85.2929688,162.111328 L85.2929688,171 L83.8867188,171 L83.8867188,169.986328 L83.7871094,169.986328 C83.4238281,170.689453 82.6855469,171.105469 81.7949219,171.105469 Z M82.2460938,165.720703 C81.2558594,165.720703 80.6464844,166.505859 80.6464844,167.794922 C80.6464844,169.089844 81.25,169.869141 82.2460938,169.869141 C83.2480469,169.869141 83.8574219,169.083984 83.8574219,167.794922 C83.8574219,166.517578 83.2421875,165.720703 82.2460938,165.720703 Z M92.8398438,164.589844 L92.8398438,171 L91.4394531,171 L91.4394531,169.980469 L91.3398438,169.980469 C91.0292969,170.712891 90.3027344,171.128906 89.3535156,171.128906 C87.9414062,171.128906 87.0683594,170.255859 87.0683594,168.738281 L87.0683594,164.589844 L88.5214844,164.589844 L88.5214844,168.392578 C88.5214844,169.376953 88.984375,169.851562 89.8574219,169.851562 C90.7949219,169.851562 91.3867188,169.271484 91.3867188,168.322266 L91.3867188,164.589844 L92.8398438,164.589844 Z M100.158203,166.746094 L98.7753906,166.746094 C98.640625,166.125 98.1601562,165.679688 97.3632812,165.679688 C96.3671875,165.679688 95.7753906,166.447266 95.7753906,167.777344 C95.7753906,169.125 96.3730469,169.910156 97.3632812,169.910156 C98.1191406,169.910156 98.6230469,169.552734 98.7753906,168.884766 L100.158203,168.884766 C100,170.226562 98.9921875,171.128906 97.3691406,171.128906 C95.4414062,171.128906 94.3046875,169.886719 94.3046875,167.777344 C94.3046875,165.697266 95.4355469,164.460938 97.3632812,164.460938 C99.0097656,164.460938 100.005859,165.398438 100.158203,166.746094 Z M102.009766,163.060547 L103.457031,163.060547 L103.457031,164.630859 L104.863281,164.630859 L104.863281,165.791016 L103.457031,165.791016 L103.457031,168.9375 C103.457031,169.570312 103.726562,169.851562 104.335937,169.851562 C104.541016,169.851562 104.646484,169.839844 104.816406,169.822266 L104.816406,170.958984 C104.611328,171 104.347656,171.029297 104.066406,171.029297 C102.595703,171.029297 102.009766,170.53125 102.009766,169.289062 L102.009766,165.791016 L100.966797,165.791016 L100.966797,164.630859 L102.009766,164.630859 L102.009766,163.060547 Z M106.134766,166.423828 C106.134766,165.263672 107.189453,164.460938 108.701172,164.460938 C110.224609,164.460938 111.179687,165.134766 111.285156,166.300781 L109.919922,166.300781 C109.814453,165.849609 109.386719,165.5625 108.707031,165.5625 C108.044922,165.5625 107.546875,165.878906 107.546875,166.341797 C107.546875,166.705078 107.851562,166.927734 108.496094,167.074219 L109.626953,167.332031 C110.851562,167.607422 111.419922,168.134766 111.419922,169.078125 C111.419922,170.308594 110.289062,171.128906 108.689453,171.128906 C107.089844,171.128906 106.082031,170.4375 105.970703,169.271484 L107.40625,169.271484 C107.546875,169.746094 107.998047,170.027344 108.724609,170.027344 C109.457031,170.027344 109.966797,169.705078 109.966797,169.230469 C109.966797,168.867188 109.691406,168.638672 109.082031,168.503906 L107.945312,168.240234 C106.714844,167.958984 106.134766,167.390625 106.134766,166.423828 Z" id="Other-products"></path>
                <path d="M13.9609375,211 L12.4492188,211 L12.4492188,202.544922 L17.8398438,202.544922 L17.8398438,203.851562 L13.9609375,203.851562 L13.9609375,206.3125 L17.5058594,206.3125 L17.5058594,207.572266 L13.9609375,207.572266 L13.9609375,211 Z M22.046875,205.615234 C21.1796875,205.615234 20.5703125,206.236328 20.5058594,207.173828 L23.5234375,207.173828 C23.4941406,206.224609 22.9199219,205.615234 22.046875,205.615234 Z M23.5351562,209.236328 L24.9121094,209.236328 C24.6367188,210.402344 23.5761719,211.128906 22.0644531,211.128906 C20.1777344,211.128906 19.0410156,209.880859 19.0410156,207.818359 C19.0410156,205.755859 20.1953125,204.460938 22.0527344,204.460938 C23.8808594,204.460938 24.9765625,205.673828 24.9765625,207.695312 L24.9765625,208.164062 L20.5,208.164062 L20.5,208.240234 C20.5351562,209.306641 21.1503906,209.974609 22.1054688,209.974609 C22.8261719,209.974609 23.3242188,209.710938 23.5351562,209.236328 Z M28.6269531,209.962891 C29.5058594,209.962891 30.1621094,209.394531 30.1621094,208.650391 L30.1621094,208.140625 L28.7148438,208.234375 C27.9003906,208.287109 27.5195313,208.580078 27.5195313,209.101562 C27.5195313,209.640625 27.9824219,209.962891 28.6269531,209.962891 Z M28.1992188,211.105469 C26.9628906,211.105469 26.078125,210.355469 26.078125,209.183594 C26.078125,208.023438 26.9511719,207.355469 28.5097656,207.261719 L30.1621094,207.162109 L30.1621094,206.623047 C30.1621094,205.996094 29.7402344,205.644531 28.9550781,205.644531 C28.2871094,205.644531 27.8300781,205.878906 27.6953125,206.3125 L26.3242188,206.3125 C26.4414063,205.181641 27.5019531,204.460938 29.0253906,204.460938 C30.671875,204.460938 31.5976563,205.263672 31.5976563,206.623047 L31.5976563,211 L30.1972656,211 L30.1972656,210.121094 L30.0976563,210.121094 C29.7402344,210.742188 29.0371094,211.105469 28.1992188,211.105469 Z M33.8066406,203.060547 L35.2539062,203.060547 L35.2539062,204.630859 L36.6601562,204.630859 L36.6601562,205.791016 L35.2539062,205.791016 L35.2539062,208.9375 C35.2539062,209.570312 35.5234375,209.851562 36.1328125,209.851562 C36.3378906,209.851562 36.4433594,209.839844 36.6132812,209.822266 L36.6132812,210.958984 C36.4082031,211 36.1445312,211.029297 35.8632812,211.029297 C34.3925781,211.029297 33.8066406,210.53125 33.8066406,209.289062 L33.8066406,205.791016 L32.7636719,205.791016 L32.7636719,204.630859 L33.8066406,204.630859 L33.8066406,203.060547 Z M43.7910156,204.589844 L43.7910156,211 L42.390625,211 L42.390625,209.980469 L42.2910156,209.980469 C41.9804688,210.712891 41.2539062,211.128906 40.3046875,211.128906 C38.8925781,211.128906 38.0195312,210.255859 38.0195312,208.738281 L38.0195312,204.589844 L39.4726562,204.589844 L39.4726562,208.392578 C39.4726562,209.376953 39.9355469,209.851562 40.8085938,209.851562 C41.7460938,209.851562 42.3378906,209.271484 42.3378906,208.322266 L42.3378906,204.589844 L43.7910156,204.589844 Z M45.5722656,211 L45.5722656,204.589844 L46.9726563,204.589844 L46.9726563,205.585938 L47.0722656,205.585938 C47.2480469,204.953125 47.9335938,204.484375 48.7539063,204.484375 C48.9589844,204.484375 49.2109375,204.507812 49.3515625,204.548828 L49.3515625,205.896484 C49.2402344,205.855469 48.8417969,205.814453 48.6132813,205.814453 C47.6816406,205.814453 47.0253906,206.400391 47.0253906,207.296875 L47.0253906,211 L45.5722656,211 Z M53.1835938,205.615234 C52.3164062,205.615234 51.7070312,206.236328 51.6425781,207.173828 L54.6601562,207.173828 C54.6308594,206.224609 54.0566406,205.615234 53.1835938,205.615234 Z M54.671875,209.236328 L56.0488281,209.236328 C55.7734375,210.402344 54.7128906,211.128906 53.2011719,211.128906 C51.3144531,211.128906 50.1777344,209.880859 50.1777344,207.818359 C50.1777344,205.755859 51.3320313,204.460938 53.1894531,204.460938 C55.0175781,204.460938 56.1132813,205.673828 56.1132813,207.695312 L56.1132813,208.164062 L51.6367188,208.164062 L51.6367188,208.240234 C51.671875,209.306641 52.2871094,209.974609 53.2421875,209.974609 C53.9628906,209.974609 54.4609375,209.710938 54.671875,209.236328 Z M60.7714844,211 L60.7714844,204.589844 L62.171875,204.589844 L62.171875,205.585938 L62.2714844,205.585938 C62.4472656,204.953125 63.1328125,204.484375 63.953125,204.484375 C64.1582031,204.484375 64.4101562,204.507812 64.5507812,204.548828 L64.5507812,205.896484 C64.4394531,205.855469 64.0410156,205.814453 63.8125,205.814453 C62.8808594,205.814453 62.2246094,206.400391 62.2246094,207.296875 L62.2246094,211 L60.7714844,211 Z M68.3828125,205.615234 C67.515625,205.615234 66.90625,206.236328 66.8417969,207.173828 L69.859375,207.173828 C69.8300781,206.224609 69.2558594,205.615234 68.3828125,205.615234 Z M69.8710938,209.236328 L71.2480469,209.236328 C70.9726562,210.402344 69.9121094,211.128906 68.4003906,211.128906 C66.5136719,211.128906 65.3769531,209.880859 65.3769531,207.818359 C65.3769531,205.755859 66.53125,204.460938 68.3886719,204.460938 C70.2167969,204.460938 71.3125,205.673828 71.3125,207.695312 L71.3125,208.164062 L66.8359375,208.164062 L66.8359375,208.240234 C66.8710938,209.306641 67.4863281,209.974609 68.4414062,209.974609 C69.1621094,209.974609 69.6601562,209.710938 69.8710938,209.236328 Z M75.0976562,204.484375 C75.9648438,204.484375 76.7265625,204.935547 77.078125,205.650391 L77.1777344,205.650391 L77.1777344,204.589844 L78.5898438,204.589844 L78.5898438,213.050781 L77.125,213.050781 L77.125,210.027344 L77.0253906,210.027344 C76.65625,210.712891 75.9824219,211.105469 75.0742188,211.105469 C73.4570312,211.105469 72.4550781,209.828125 72.4550781,207.789062 C72.4550781,205.767578 73.4804688,204.484375 75.0976562,204.484375 Z M75.53125,209.869141 C76.5332031,209.869141 77.1542969,209.078125 77.1542969,207.794922 C77.1542969,206.517578 76.5273437,205.720703 75.5371094,205.720703 C74.5410156,205.720703 73.9433594,206.5 73.9433594,207.794922 C73.9433594,209.095703 74.5351562,209.869141 75.53125,209.869141 Z M86.078125,204.589844 L86.078125,211 L84.6777344,211 L84.6777344,209.980469 L84.578125,209.980469 C84.2675781,210.712891 83.5410156,211.128906 82.5917969,211.128906 C81.1796875,211.128906 80.3066406,210.255859 80.3066406,208.738281 L80.3066406,204.589844 L81.7597656,204.589844 L81.7597656,208.392578 C81.7597656,209.376953 82.2226563,209.851562 83.0957031,209.851562 C84.0332031,209.851562 84.625,209.271484 84.625,208.322266 L84.625,204.589844 L86.078125,204.589844 Z M90.5488281,205.615234 C89.6816406,205.615234 89.0722656,206.236328 89.0078125,207.173828 L92.0253906,207.173828 C91.9960938,206.224609 91.421875,205.615234 90.5488281,205.615234 Z M92.0371094,209.236328 L93.4140625,209.236328 C93.1386719,210.402344 92.078125,211.128906 90.5664063,211.128906 C88.6796875,211.128906 87.5429688,209.880859 87.5429688,207.818359 C87.5429688,205.755859 88.6972656,204.460938 90.5546875,204.460938 C92.3828125,204.460938 93.4785156,205.673828 93.4785156,207.695312 L93.4785156,208.164062 L89.0019531,208.164062 L89.0019531,208.240234 C89.0371094,209.306641 89.6523438,209.974609 90.6074219,209.974609 C91.328125,209.974609 91.8261719,209.710938 92.0371094,209.236328 Z M94.7910156,206.423828 C94.7910156,205.263672 95.8457031,204.460938 97.3574219,204.460938 C98.8808594,204.460938 99.8359375,205.134766 99.9414062,206.300781 L98.5761719,206.300781 C98.4707031,205.849609 98.0429688,205.5625 97.3632812,205.5625 C96.7011719,205.5625 96.203125,205.878906 96.203125,206.341797 C96.203125,206.705078 96.5078125,206.927734 97.1523438,207.074219 L98.2832031,207.332031 C99.5078125,207.607422 100.076172,208.134766 100.076172,209.078125 C100.076172,210.308594 98.9453125,211.128906 97.3457031,211.128906 C95.7460938,211.128906 94.7382812,210.4375 94.6269531,209.271484 L96.0625,209.271484 C96.203125,209.746094 96.6542969,210.027344 97.3808594,210.027344 C98.1132812,210.027344 98.6230469,209.705078 98.6230469,209.230469 C98.6230469,208.867188 98.3476562,208.638672 97.7382812,208.503906 L96.6015625,208.240234 C95.3710938,207.958984 94.7910156,207.390625 94.7910156,206.423828 Z M102.009766,203.060547 L103.457031,203.060547 L103.457031,204.630859 L104.863281,204.630859 L104.863281,205.791016 L103.457031,205.791016 L103.457031,208.9375 C103.457031,209.570312 103.726563,209.851562 104.335938,209.851562 C104.541016,209.851562 104.646484,209.839844 104.816406,209.822266 L104.816406,210.958984 C104.611328,211 104.347656,211.029297 104.066406,211.029297 C102.595703,211.029297 102.009766,210.53125 102.009766,209.289062 L102.009766,205.791016 L100.966797,205.791016 L100.966797,204.630859 L102.009766,204.630859 L102.009766,203.060547 Z M106.134766,206.423828 C106.134766,205.263672 107.189453,204.460938 108.701172,204.460938 C110.224609,204.460938 111.179688,205.134766 111.285156,206.300781 L109.919922,206.300781 C109.814453,205.849609 109.386719,205.5625 108.707031,205.5625 C108.044922,205.5625 107.546875,205.878906 107.546875,206.341797 C107.546875,206.705078 107.851562,206.927734 108.496094,207.074219 L109.626953,207.332031 C110.851562,207.607422 111.419922,208.134766 111.419922,209.078125 C111.419922,210.308594 110.289062,211.128906 108.689453,211.128906 C107.089844,211.128906 106.082031,210.4375 105.970703,209.271484 L107.40625,209.271484 C107.546875,209.746094 107.998047,210.027344 108.724609,210.027344 C109.457031,210.027344 109.966797,209.705078 109.966797,209.230469 C109.966797,208.867188 109.691406,208.638672 109.082031,208.503906 L107.945312,208.240234 C106.714844,207.958984 106.134766,207.390625 106.134766,206.423828 Z" id="Feature-requests"></path>
            </g>
        </g>
    </g>
</svg>