<?xml version="1.0" encoding="UTF-8"?>
<svg width="400px" height="320px" viewBox="0 0 400 320" version="1.1" xmlns="http://www.w3.org/2000/svg" xmlns:xlink="http://www.w3.org/1999/xlink">
    <!-- Generator: Sketch 49.3 (51167) - http://www.bohemiancoding.com/sketch -->
    <title>snippet/editor</title>
    <desc>Created with Sketch.</desc>
    <defs></defs>
    <g id="snippet/editor" stroke="none" stroke-width="1" fill="none" fill-rule="evenodd">
        <g id="Group" transform="translate(16.000000, 26.000000)">
            <g>
                <path d="M2.57226562,1.54492188 L2.57226562,6.94726563 C2.57226562,8.08984375 3.28710938,8.85742188 4.54101562,8.85742188 C5.79492188,8.85742188 6.50390625,8.08984375 6.50390625,6.94726563 L6.50390625,1.54492188 L8.015625,1.54492188 L8.015625,7.08789062 C8.015625,8.93359375 6.6796875,10.2109375 4.54101562,10.2109375 C2.40234375,10.2109375 1.06640625,8.93359375 1.06640625,7.08789062 L1.06640625,1.54492188 L2.57226562,1.54492188 Z M9.8203125,5.42382813 C9.8203125,4.26367188 10.875,3.4609375 12.3867188,3.4609375 C13.9101562,3.4609375 14.8652344,4.13476563 14.9707031,5.30078125 L13.6054688,5.30078125 C13.5,4.84960938 13.0722656,4.5625 12.3925781,4.5625 C11.7304688,4.5625 11.2324219,4.87890625 11.2324219,5.34179688 C11.2324219,5.70507813 11.5371094,5.92773438 12.1816406,6.07421875 L13.3125,6.33203125 C14.5371094,6.60742188 15.1054688,7.13476563 15.1054688,8.078125 C15.1054688,9.30859375 13.9746094,10.1289063 12.375,10.1289063 C10.7753906,10.1289063 9.76757812,9.4375 9.65625,8.27148438 L11.0917969,8.27148438 C11.2324219,8.74609375 11.6835938,9.02734375 12.4101562,9.02734375 C13.1425781,9.02734375 13.6523438,8.70507813 13.6523438,8.23046875 C13.6523438,7.8671875 13.3769531,7.63867188 12.7675781,7.50390625 L11.6308594,7.24023438 C10.4003906,6.95898438 9.8203125,6.390625 9.8203125,5.42382813 Z M19.265625,4.61523438 C18.3984375,4.61523438 17.7890625,5.23632812 17.7246094,6.17382812 L20.7421875,6.17382812 C20.7128906,5.22460938 20.1386719,4.61523438 19.265625,4.61523438 Z M20.7539062,8.23632813 L22.1308594,8.23632813 C21.8554688,9.40234375 20.7949219,10.1289063 19.2832031,10.1289063 C17.3964844,10.1289063 16.2597656,8.88085938 16.2597656,6.81835938 C16.2597656,4.75585938 17.4140625,3.4609375 19.2714844,3.4609375 C21.0996094,3.4609375 22.1953125,4.67382813 22.1953125,6.6953125 L22.1953125,7.1640625 L17.71875,7.1640625 L17.71875,7.24023438 C17.7539062,8.30664063 18.3691406,8.97460938 19.3242188,8.97460938 C20.0449219,8.97460938 20.5429688,8.7109375 20.7539062,8.23632813 Z M23.6542969,10 L23.6542969,3.58984375 L25.0546875,3.58984375 L25.0546875,4.5859375 L25.1542969,4.5859375 C25.3300781,3.953125 26.015625,3.484375 26.8359375,3.484375 C27.0410156,3.484375 27.2929687,3.5078125 27.4335937,3.54882813 L27.4335937,4.89648438 C27.3222656,4.85546875 26.9238281,4.81445313 26.6953125,4.81445313 C25.7636719,4.81445313 25.1074219,5.40039063 25.1074219,6.296875 L25.1074219,10 L23.6542969,10 Z M32.2382813,2.06054687 L33.6855469,2.06054687 L33.6855469,3.63085938 L35.0917969,3.63085938 L35.0917969,4.79101562 L33.6855469,4.79101562 L33.6855469,7.9375 C33.6855469,8.5703125 33.9550781,8.8515625 34.5644531,8.8515625 C34.7695313,8.8515625 34.875,8.83984375 35.0449219,8.82226562 L35.0449219,9.95898438 C34.8398438,10 34.5761719,10.0292969 34.2949219,10.0292969 C32.8242188,10.0292969 32.2382813,9.53125 32.2382813,8.2890625 L32.2382813,4.79101562 L31.1953125,4.79101562 L31.1953125,3.63085938 L32.2382813,3.63085938 L32.2382813,2.06054687 Z M39.1992188,4.61523438 C38.3320313,4.61523438 37.7226563,5.23632812 37.6582031,6.17382812 L40.6757813,6.17382812 C40.6464844,5.22460938 40.0722656,4.61523438 39.1992188,4.61523438 Z M40.6875,8.23632813 L42.0644531,8.23632813 C41.7890625,9.40234375 40.7285156,10.1289063 39.2167969,10.1289063 C37.3300781,10.1289063 36.1933594,8.88085938 36.1933594,6.81835938 C36.1933594,4.75585938 37.3476562,3.4609375 39.2050781,3.4609375 C41.0332031,3.4609375 42.1289062,4.67382813 42.1289062,6.6953125 L42.1289062,7.1640625 L37.6523437,7.1640625 L37.6523437,7.24023438 C37.6875,8.30664063 38.3027344,8.97460938 39.2578125,8.97460938 C39.9785156,8.97460938 40.4765625,8.7109375 40.6875,8.23632813 Z M43.4414062,5.42382813 C43.4414062,4.26367188 44.4960937,3.4609375 46.0078125,3.4609375 C47.53125,3.4609375 48.4863281,4.13476563 48.5917969,5.30078125 L47.2265625,5.30078125 C47.1210937,4.84960938 46.6933594,4.5625 46.0136719,4.5625 C45.3515625,4.5625 44.8535156,4.87890625 44.8535156,5.34179688 C44.8535156,5.70507813 45.1582031,5.92773438 45.8027344,6.07421875 L46.9335937,6.33203125 C48.1582031,6.60742188 48.7265625,7.13476563 48.7265625,8.078125 C48.7265625,9.30859375 47.5957031,10.1289063 45.9960937,10.1289063 C44.3964844,10.1289063 43.3886719,9.4375 43.2773437,8.27148438 L44.7128906,8.27148438 C44.8535156,8.74609375 45.3046875,9.02734375 46.03125,9.02734375 C46.7636719,9.02734375 47.2734375,8.70507813 47.2734375,8.23046875 C47.2734375,7.8671875 46.9980469,7.63867188 46.3886719,7.50390625 L45.2519531,7.24023438 C44.0214844,6.95898438 43.4414062,6.390625 43.4414062,5.42382813 Z M50.6601562,2.06054687 L52.1074219,2.06054687 L52.1074219,3.63085938 L53.5136719,3.63085938 L53.5136719,4.79101562 L52.1074219,4.79101562 L52.1074219,7.9375 C52.1074219,8.5703125 52.3769531,8.8515625 52.9863281,8.8515625 C53.1914062,8.8515625 53.296875,8.83984375 53.4667969,8.82226562 L53.4667969,9.95898438 C53.2617188,10 52.9980469,10.0292969 52.7167969,10.0292969 C51.2460938,10.0292969 50.6601562,9.53125 50.6601562,8.2890625 L50.6601562,4.79101562 L49.6171875,4.79101562 L49.6171875,3.63085938 L50.6601562,3.63085938 L50.6601562,2.06054687 Z M54.9492188,10 L54.9492188,3.58984375 L56.3964844,3.58984375 L56.3964844,10 L54.9492188,10 Z M55.6699219,2.546875 C55.1425781,2.546875 54.7734375,2.20703125 54.7734375,1.74414062 C54.7734375,1.28125 55.1425781,0.94140625 55.6699219,0.94140625 C56.203125,0.94140625 56.5664062,1.28125 56.5664062,1.74414062 C56.5664062,2.20703125 56.203125,2.546875 55.6699219,2.546875 Z M58.1953125,10 L58.1953125,3.58984375 L59.5957031,3.58984375 L59.5957031,4.61523438 L59.6953125,4.61523438 C60,3.90039062 60.75,3.4609375 61.7109375,3.4609375 C63.140625,3.4609375 63.9433594,4.32226562 63.9433594,5.8515625 L63.9433594,10 L62.4960938,10 L62.4960938,6.19726562 C62.4960938,5.21875 62.0507813,4.7265625 61.171875,4.7265625 C60.234375,4.7265625 59.6484375,5.32421875 59.6484375,6.26757812 L59.6484375,10 L58.1953125,10 Z M70.0429688,6.72460938 C70.0429688,5.5 69.4277344,4.72070312 68.4199219,4.72070312 C67.40625,4.72070312 66.8320312,5.5 66.8320312,6.72460938 C66.8320312,7.94921875 67.40625,8.72265625 68.4199219,8.72265625 C69.4335938,8.72265625 70.0429688,7.94921875 70.0429688,6.72460938 Z M68.4199219,12.4375 C66.7734375,12.4375 65.6953125,11.7109375 65.578125,10.609375 L67.0371094,10.609375 C67.1308594,11.0488281 67.6464844,11.3300781 68.4433594,11.3300781 C69.4394531,11.3300781 70.0195313,10.8613281 70.0195313,10.0585938 L70.0195313,8.84570312 L69.9199219,8.84570312 C69.5507813,9.53125 68.8535156,9.90625 67.9628906,9.90625 C66.3457031,9.90625 65.3378906,8.65234375 65.3378906,6.72460938 C65.3378906,4.76171875 66.3515625,3.484375 67.9863281,3.484375 C68.859375,3.484375 69.6210938,3.91796875 69.9726563,4.61523438 L70.0722656,4.61523438 L70.0722656,3.58984375 L71.4726563,3.58984375 L71.4726563,10.0234375 C71.4726563,11.5058594 70.2890625,12.4375 68.4199219,12.4375 Z M76.3066406,5.42382813 C76.3066406,4.26367188 77.3613281,3.4609375 78.8730469,3.4609375 C80.3964844,3.4609375 81.3515625,4.13476563 81.4570312,5.30078125 L80.0917969,5.30078125 C79.9863281,4.84960938 79.5585938,4.5625 78.8789062,4.5625 C78.2167969,4.5625 77.71875,4.87890625 77.71875,5.34179688 C77.71875,5.70507813 78.0234375,5.92773438 78.6679688,6.07421875 L79.7988281,6.33203125 C81.0234375,6.60742188 81.5917969,7.13476563 81.5917969,8.078125 C81.5917969,9.30859375 80.4609375,10.1289063 78.8613281,10.1289063 C77.2617188,10.1289063 76.2539062,9.4375 76.1425781,8.27148438 L77.578125,8.27148438 C77.71875,8.74609375 78.1699219,9.02734375 78.8964844,9.02734375 C79.6289062,9.02734375 80.1386719,8.70507813 80.1386719,8.23046875 C80.1386719,7.8671875 79.8632812,7.63867188 79.2539062,7.50390625 L78.1171875,7.24023438 C76.8867188,6.95898438 76.3066406,6.390625 76.3066406,5.42382813 Z M85.7519531,4.61523438 C84.8847656,4.61523438 84.2753906,5.23632812 84.2109375,6.17382812 L87.2285156,6.17382812 C87.1992187,5.22460938 86.625,4.61523438 85.7519531,4.61523438 Z M87.2402344,8.23632813 L88.6171875,8.23632813 C88.3417969,9.40234375 87.28125,10.1289063 85.7695313,10.1289063 C83.8828125,10.1289063 82.7460938,8.88085938 82.7460938,6.81835938 C82.7460938,4.75585938 83.9003906,3.4609375 85.7578125,3.4609375 C87.5859375,3.4609375 88.6816406,4.67382813 88.6816406,6.6953125 L88.6816406,7.1640625 L84.2050781,7.1640625 L84.2050781,7.24023438 C84.2402344,8.30664063 84.8554688,8.97460938 85.8105469,8.97460938 C86.53125,8.97460938 87.0292969,8.7109375 87.2402344,8.23632813 Z M89.9941406,5.42382813 C89.9941406,4.26367188 91.0488281,3.4609375 92.5605469,3.4609375 C94.0839844,3.4609375 95.0390625,4.13476563 95.1445312,5.30078125 L93.7792969,5.30078125 C93.6738281,4.84960938 93.2460937,4.5625 92.5664062,4.5625 C91.9042969,4.5625 91.40625,4.87890625 91.40625,5.34179688 C91.40625,5.70507813 91.7109375,5.92773438 92.3554687,6.07421875 L93.4863281,6.33203125 C94.7109375,6.60742188 95.2792969,7.13476563 95.2792969,8.078125 C95.2792969,9.30859375 94.1484375,10.1289063 92.5488281,10.1289063 C90.9492187,10.1289063 89.9414062,9.4375 89.8300781,8.27148438 L91.265625,8.27148438 C91.40625,8.74609375 91.8574219,9.02734375 92.5839844,9.02734375 C93.3164062,9.02734375 93.8261719,8.70507813 93.8261719,8.23046875 C93.8261719,7.8671875 93.5507812,7.63867188 92.9414062,7.50390625 L91.8046875,7.24023438 C90.5742187,6.95898438 89.9941406,6.390625 89.9941406,5.42382813 Z M96.6035156,5.42382813 C96.6035156,4.26367188 97.6582031,3.4609375 99.1699219,3.4609375 C100.693359,3.4609375 101.648437,4.13476563 101.753906,5.30078125 L100.388672,5.30078125 C100.283203,4.84960938 99.8554687,4.5625 99.1757812,4.5625 C98.5136719,4.5625 98.015625,4.87890625 98.015625,5.34179688 C98.015625,5.70507813 98.3203125,5.92773438 98.9648437,6.07421875 L100.095703,6.33203125 C101.320312,6.60742188 101.888672,7.13476563 101.888672,8.078125 C101.888672,9.30859375 100.757812,10.1289063 99.1582031,10.1289063 C97.5585937,10.1289063 96.5507812,9.4375 96.4394531,8.27148438 L97.875,8.27148438 C98.015625,8.74609375 98.4667969,9.02734375 99.1933594,9.02734375 C99.9257812,9.02734375 100.435547,8.70507813 100.435547,8.23046875 C100.435547,7.8671875 100.160156,7.63867188 99.5507812,7.50390625 L98.4140625,7.24023438 C97.1835937,6.95898438 96.6035156,6.390625 96.6035156,5.42382813 Z M103.376953,10 L103.376953,3.58984375 L104.824219,3.58984375 L104.824219,10 L103.376953,10 Z M104.097656,2.546875 C103.570313,2.546875 103.201172,2.20703125 103.201172,1.74414062 C103.201172,1.28125 103.570313,0.94140625 104.097656,0.94140625 C104.630859,0.94140625 104.994141,1.28125 104.994141,1.74414062 C104.994141,2.20703125 104.630859,2.546875 104.097656,2.546875 Z M109.388672,8.91015625 C110.402344,8.91015625 110.976562,8.13671875 110.976562,6.79492188 C110.976562,5.45898438 110.396484,4.6796875 109.388672,4.6796875 C108.375,4.6796875 107.794922,5.45898438 107.794922,6.79492188 C107.794922,8.13671875 108.375,8.91015625 109.388672,8.91015625 Z M109.388672,10.1289063 C107.466797,10.1289063 106.306641,8.875 106.306641,6.79492188 C106.306641,4.7265625 107.484375,3.4609375 109.388672,3.4609375 C111.298828,3.4609375 112.470703,4.72070313 112.470703,6.79492188 C112.470703,8.875 111.304688,10.1289063 109.388672,10.1289063 Z M113.935547,10 L113.935547,3.58984375 L115.335937,3.58984375 L115.335937,4.61523438 L115.435547,4.61523438 C115.740234,3.90039062 116.490234,3.4609375 117.451172,3.4609375 C118.880859,3.4609375 119.683594,4.32226562 119.683594,5.8515625 L119.683594,10 L118.236328,10 L118.236328,6.19726562 C118.236328,5.21875 117.791016,4.7265625 116.912109,4.7265625 C115.974609,4.7265625 115.388672,5.32421875 115.388672,6.26757812 L115.388672,10 L113.935547,10 Z M121.259766,5.42382813 C121.259766,4.26367188 122.314453,3.4609375 123.826172,3.4609375 C125.349609,3.4609375 126.304688,4.13476563 126.410156,5.30078125 L125.044922,5.30078125 C124.939453,4.84960938 124.511719,4.5625 123.832031,4.5625 C123.169922,4.5625 122.671875,4.87890625 122.671875,5.34179688 C122.671875,5.70507813 122.976562,5.92773438 123.621094,6.07421875 L124.751953,6.33203125 C125.976562,6.60742188 126.544922,7.13476563 126.544922,8.078125 C126.544922,9.30859375 125.414062,10.1289063 123.814453,10.1289063 C122.214844,10.1289063 121.207031,9.4375 121.095703,8.27148438 L122.53125,8.27148438 C122.671875,8.74609375 123.123047,9.02734375 123.849609,9.02734375 C124.582031,9.02734375 125.091797,8.70507813 125.091797,8.23046875 C125.091797,7.8671875 124.816406,7.63867188 124.207031,7.50390625 L123.070312,7.24023438 C121.839844,6.95898438 121.259766,6.390625 121.259766,5.42382813 Z" id="User-testing-session" fill="#24124D" opacity="0.600000024"></path>
                <rect id="Rectangle-9" fill="#DCD5EE" x="0" y="78" width="248" height="12" rx="3"></rect>
                <rect id="Rectangle-9" fill="#DCD5EE" x="0" y="110" width="136" height="12" rx="3"></rect>
                <rect id="Rectangle-9" fill="#512DA8" x="152" y="110" width="96" height="12" rx="3"></rect>
                <rect id="Rectangle-9" fill="#512DA8" x="0" y="142" width="64" height="12" rx="3"></rect>
                <rect id="Rectangle-9" fill="#DCD5EE" x="80" y="142" width="144" height="12" rx="3"></rect>
                <rect id="Rectangle-9" fill="#5182F8" x="0" y="174" width="168" height="12" rx="3"></rect>
                <rect id="Rectangle-9" fill="#DCD5EE" x="0" y="222" width="96" height="12" rx="3"></rect>
                <rect id="Rectangle-9" fill="#009688" x="112" y="222" width="136" height="12" rx="3"></rect>
                <rect id="Rectangle-9" fill="#009688" x="0" y="254" width="136" height="12" rx="3"></rect>
                <path d="M1.09375,42.171875 L3.5546875,42.171875 C3.7109375,43.4316406 4.9609375,44.2421875 6.74804687,44.2421875 C8.40820312,44.2421875 9.609375,43.3925781 9.609375,42.2109375 C9.609375,41.1953125 8.83789062,40.5996094 7.03125,40.1796875 L5.20507812,39.7597656 C2.64648437,39.1835938 1.4453125,37.9140625 1.4453125,35.8144531 C1.4453125,33.2558594 3.53515625,31.5566406 6.68945312,31.5566406 C9.6484375,31.5566406 11.7871094,33.2558594 11.9042969,35.6777344 L9.4921875,35.6777344 C9.31640625,34.4375 8.22265625,33.65625 6.6796875,33.65625 C5.05859375,33.65625 3.984375,34.4375 3.984375,35.6386719 C3.984375,36.5859375 4.69726562,37.1425781 6.4453125,37.5429688 L8.06640625,37.9140625 C10.9277344,38.5585938 12.1289062,39.75 12.1289062,41.8984375 C12.1289062,44.6425781 10.0097656,46.3515625 6.59179687,46.3515625 C3.359375,46.3515625 1.22070312,44.7304688 1.09375,42.171875 Z M19.1894531,37.0253906 C17.7441406,37.0253906 16.7285156,38.0605469 16.6210938,39.6230469 L21.6503906,39.6230469 C21.6015625,38.0410156 20.6445312,37.0253906 19.1894531,37.0253906 Z M21.6699219,43.0605469 L23.9648437,43.0605469 C23.5058594,45.0039062 21.7382812,46.2148438 19.21875,46.2148438 C16.0742187,46.2148438 14.1796875,44.1347656 14.1796875,40.6972656 C14.1796875,37.2597656 16.1035156,35.1015625 19.1992187,35.1015625 C22.2460937,35.1015625 24.0722656,37.1230469 24.0722656,40.4921875 L24.0722656,41.2734375 L16.6113281,41.2734375 L16.6113281,41.4003906 C16.6699219,43.1777344 17.6953125,44.2910156 19.2871094,44.2910156 C20.4882812,44.2910156 21.3183594,43.8515625 21.6699219,43.0605469 Z M26.2597656,38.3730469 C26.2597656,36.4394531 28.0175781,35.1015625 30.5371094,35.1015625 C33.0761719,35.1015625 34.6679688,36.2246094 34.84375,38.1679688 L32.5683594,38.1679688 C32.3925781,37.4160156 31.6796875,36.9375 30.546875,36.9375 C29.4433594,36.9375 28.6132812,37.4648438 28.6132812,38.2363281 C28.6132812,38.8417969 29.1210937,39.2128906 30.1953125,39.4570312 L32.0800781,39.8867188 C34.1210938,40.3457031 35.0683594,41.2246094 35.0683594,42.796875 C35.0683594,44.8476562 33.1835938,46.2148438 30.5175781,46.2148438 C27.8515625,46.2148438 26.171875,45.0625 25.9863281,43.1191406 L28.3789062,43.1191406 C28.6132812,43.9101562 29.3652344,44.3789062 30.5761719,44.3789062 C31.796875,44.3789062 32.6464844,43.8417969 32.6464844,43.0507812 C32.6464844,42.4453125 32.1875,42.0644531 31.171875,41.8398438 L29.2773437,41.4003906 C27.2265625,40.9316406 26.2597656,39.984375 26.2597656,38.3730469 Z M37.2753906,38.3730469 C37.2753906,36.4394531 39.0332031,35.1015625 41.5527344,35.1015625 C44.0917969,35.1015625 45.6835938,36.2246094 45.859375,38.1679688 L43.5839844,38.1679688 C43.4082031,37.4160156 42.6953125,36.9375 41.5625,36.9375 C40.4589844,36.9375 39.6289062,37.4648438 39.6289062,38.2363281 C39.6289062,38.8417969 40.1367188,39.2128906 41.2109375,39.4570312 L43.0957031,39.8867188 C45.1367188,40.3457031 46.0839844,41.2246094 46.0839844,42.796875 C46.0839844,44.8476562 44.1992188,46.2148438 41.5332031,46.2148438 C38.8671875,46.2148438 37.1875,45.0625 37.0019531,43.1191406 L39.3945312,43.1191406 C39.6289062,43.9101562 40.3808594,44.3789062 41.5917969,44.3789062 C42.8125,44.3789062 43.6621094,43.8417969 43.6621094,43.0507812 C43.6621094,42.4453125 43.203125,42.0644531 42.1875,41.8398438 L40.2929688,41.4003906 C38.2421875,40.9316406 37.2753906,39.984375 37.2753906,38.3730469 Z M48.5644531,46 L48.5644531,35.3164062 L50.9765625,35.3164062 L50.9765625,46 L48.5644531,46 Z M49.765625,33.578125 C48.8867187,33.578125 48.2714844,33.0117188 48.2714844,32.2402344 C48.2714844,31.46875 48.8867187,30.9023438 49.765625,30.9023438 C50.6542969,30.9023438 51.2597656,31.46875 51.2597656,32.2402344 C51.2597656,33.0117188 50.6542969,33.578125 49.765625,33.578125 Z M58.5839844,44.1835938 C60.2734375,44.1835938 61.2304688,42.8945312 61.2304688,40.6582031 C61.2304688,38.4316406 60.2636719,37.1328125 58.5839844,37.1328125 C56.8945312,37.1328125 55.9277344,38.4316406 55.9277344,40.6582031 C55.9277344,42.8945312 56.8945312,44.1835938 58.5839844,44.1835938 Z M58.5839844,46.2148438 C55.3808594,46.2148438 53.4472656,44.125 53.4472656,40.6582031 C53.4472656,37.2109375 55.4101562,35.1015625 58.5839844,35.1015625 C61.7675781,35.1015625 63.7207031,37.2011719 63.7207031,40.6582031 C63.7207031,44.125 61.7773437,46.2148438 58.5839844,46.2148438 Z M66.1621094,46 L66.1621094,35.3164062 L68.4960938,35.3164062 L68.4960938,37.0253906 L68.6621094,37.0253906 C69.1699219,35.8339844 70.4199219,35.1015625 72.0214844,35.1015625 C74.4042969,35.1015625 75.7421875,36.5371094 75.7421875,39.0859375 L75.7421875,46 L73.3300781,46 L73.3300781,39.6621094 C73.3300781,38.03125 72.5878906,37.2109375 71.1230469,37.2109375 C69.5605469,37.2109375 68.5839844,38.2070312 68.5839844,39.7792969 L68.5839844,46 L66.1621094,46 Z M90.46875,46 L90.46875,43.3730469 L83.5839844,43.3730469 L83.5839844,41.1269531 C84.8535156,38.7929688 86.8359375,35.6582031 89.3261719,31.9082031 L92.8808594,31.9082031 L92.8808594,41.2441406 L94.7851562,41.2441406 L94.7851562,43.3730469 L92.8808594,43.3730469 L92.8808594,46 L90.46875,46 Z M85.9179688,41.15625 L85.9179688,41.3027344 L90.5078125,41.3027344 L90.5078125,33.9589844 L90.3710938,33.9589844 C89.0234375,35.9511719 87.5585938,38.265625 85.9179688,41.15625 Z M111.240234,41.4589844 L101.240234,41.4589844 L101.240234,39.1835938 L111.240234,39.1835938 L111.240234,41.4589844 Z M117.34375,42.1621094 L119.804687,42.1621094 C119.824219,43.3242188 120.625,44.0859375 121.826172,44.0859375 C123.144531,44.0859375 123.876953,43.2851562 123.876953,41.7714844 L123.876953,31.9082031 L126.396484,31.9082031 L126.396484,41.7910156 C126.396484,44.6914062 124.6875,46.3515625 121.855469,46.3515625 C119.160156,46.3515625 117.34375,44.7109375 117.34375,42.1621094 Z M133.271484,44.2714844 C134.736328,44.2714844 135.830078,43.3242188 135.830078,42.0839844 L135.830078,41.234375 L133.417969,41.390625 C132.060547,41.4785156 131.425781,41.9667969 131.425781,42.8359375 C131.425781,43.734375 132.197266,44.2714844 133.271484,44.2714844 Z M132.558594,46.1757812 C130.498047,46.1757812 129.023438,44.9257812 129.023438,42.9726562 C129.023438,41.0390625 130.478516,39.9257812 133.076172,39.7695312 L135.830078,39.6035156 L135.830078,38.7050781 C135.830078,37.6601562 135.126953,37.0742188 133.818359,37.0742188 C132.705078,37.0742188 131.943359,37.4648438 131.71875,38.1875 L129.433594,38.1875 C129.628906,36.3027344 131.396484,35.1015625 133.935547,35.1015625 C136.679688,35.1015625 138.222656,36.4394531 138.222656,38.7050781 L138.222656,46 L135.888672,46 L135.888672,44.5351562 L135.722656,44.5351562 C135.126953,45.5703125 133.955078,46.1757812 132.558594,46.1757812 Z M141.132812,46 L141.132812,35.3164062 L143.466797,35.3164062 L143.466797,37.0253906 L143.632812,37.0253906 C144.140625,35.8339844 145.390625,35.1015625 146.992188,35.1015625 C149.375,35.1015625 150.712891,36.5371094 150.712891,39.0859375 L150.712891,46 L148.300781,46 L148.300781,39.6621094 C148.300781,38.03125 147.558594,37.2109375 146.09375,37.2109375 C144.53125,37.2109375 143.554688,38.2070312 143.554688,39.7792969 L143.554688,46 L141.132812,46 Z M158.066406,37.0253906 C156.621094,37.0253906 155.605469,38.0605469 155.498047,39.6230469 L160.527344,39.6230469 C160.478516,38.0410156 159.521484,37.0253906 158.066406,37.0253906 Z M160.546875,43.0605469 L162.841797,43.0605469 C162.382812,45.0039062 160.615234,46.2148438 158.095703,46.2148438 C154.951172,46.2148438 153.056641,44.1347656 153.056641,40.6972656 C153.056641,37.2597656 154.980469,35.1015625 158.076172,35.1015625 C161.123047,35.1015625 162.949219,37.1230469 162.949219,40.4921875 L162.949219,41.2734375 L155.488281,41.2734375 L155.488281,41.4003906 C155.546875,43.1777344 156.572266,44.2910156 158.164062,44.2910156 C159.365234,44.2910156 160.195312,43.8515625 160.546875,43.0605469 Z M170.966797,31.9082031 L176.25,31.9082031 C180.439453,31.9082031 182.880859,34.4667969 182.880859,38.890625 C182.880859,43.4121094 180.46875,46 176.25,46 L170.966797,46 L170.966797,31.9082031 Z M173.486328,34.0859375 L173.486328,43.8222656 L175.917969,43.8222656 C178.720703,43.8222656 180.3125,42.0742188 180.3125,38.9296875 C180.3125,35.8535156 178.681641,34.0859375 175.917969,34.0859375 L173.486328,34.0859375 Z M190.107422,44.1835938 C191.796875,44.1835938 192.753906,42.8945312 192.753906,40.6582031 C192.753906,38.4316406 191.787109,37.1328125 190.107422,37.1328125 C188.417969,37.1328125 187.451172,38.4316406 187.451172,40.6582031 C187.451172,42.8945312 188.417969,44.1835938 190.107422,44.1835938 Z M190.107422,46.2148438 C186.904297,46.2148438 184.970703,44.125 184.970703,40.6582031 C184.970703,37.2109375 186.933594,35.1015625 190.107422,35.1015625 C193.291016,35.1015625 195.244141,37.2011719 195.244141,40.6582031 C195.244141,44.125 193.300781,46.2148438 190.107422,46.2148438 Z M202.167969,37.0253906 C200.722656,37.0253906 199.707031,38.0605469 199.599609,39.6230469 L204.628906,39.6230469 C204.580078,38.0410156 203.623047,37.0253906 202.167969,37.0253906 Z M204.648438,43.0605469 L206.943359,43.0605469 C206.484375,45.0039062 204.716797,46.2148438 202.197266,46.2148438 C199.052734,46.2148438 197.158203,44.1347656 197.158203,40.6972656 C197.158203,37.2597656 199.082031,35.1015625 202.177734,35.1015625 C205.224609,35.1015625 207.050781,37.1230469 207.050781,40.4921875 L207.050781,41.2734375 L199.589844,41.2734375 L199.589844,41.4003906 C199.648438,43.1777344 200.673828,44.2910156 202.265625,44.2910156 C203.466797,44.2910156 204.296875,43.8515625 204.648438,43.0605469 Z" id="Session-4-–-Jane-Doe" fill="#24124D"></path>
            </g>
            <g transform="translate(280.000000, 106.000000)">
                <rect id="Rectangle-9" fill="#512DA8" x="0" y="0" width="72" height="24" rx="3"></rect>
                <path d="M15.9726562,13.703125 L17.4492188,13.703125 C17.5429688,14.4589844 18.2929688,14.9453125 19.3652344,14.9453125 C20.3613281,14.9453125 21.0820312,14.4355469 21.0820312,13.7265625 C21.0820312,13.1171875 20.6191406,12.7597656 19.5351562,12.5078125 L18.4394531,12.2558594 C16.9042969,11.9101562 16.1835938,11.1484375 16.1835938,9.88867188 C16.1835938,8.35351562 17.4375,7.33398438 19.3300781,7.33398438 C21.1054688,7.33398438 22.3886719,8.35351562 22.4589844,9.80664062 L21.0117188,9.80664062 C20.90625,9.0625 20.25,8.59375 19.3242188,8.59375 C18.3515625,8.59375 17.7070312,9.0625 17.7070312,9.78320312 C17.7070312,10.3515625 18.1347656,10.6855469 19.1835938,10.9257812 L20.15625,11.1484375 C21.8730469,11.5351562 22.59375,12.25 22.59375,13.5390625 C22.59375,15.1855469 21.3222656,16.2109375 19.2714844,16.2109375 C17.3320312,16.2109375 16.0488281,15.2382812 15.9726562,13.703125 Z M26.8300781,10.6152344 C25.9628906,10.6152344 25.3535156,11.2363281 25.2890625,12.1738281 L28.3066406,12.1738281 C28.2773438,11.2246094 27.703125,10.6152344 26.8300781,10.6152344 Z M28.3183594,14.2363281 L29.6953125,14.2363281 C29.4199219,15.4023438 28.359375,16.1289062 26.8476562,16.1289062 C24.9609375,16.1289062 23.8242188,14.8808594 23.8242188,12.8183594 C23.8242188,10.7558594 24.9785156,9.4609375 26.8359375,9.4609375 C28.6640625,9.4609375 29.7597656,10.6738281 29.7597656,12.6953125 L29.7597656,13.1640625 L25.2832031,13.1640625 L25.2832031,13.2402344 C25.3183594,14.3066406 25.9335938,14.9746094 26.8886719,14.9746094 C27.609375,14.9746094 28.1074219,14.7109375 28.3183594,14.2363281 Z M33.4101562,14.9628906 C34.2890625,14.9628906 34.9453125,14.3945312 34.9453125,13.6503906 L34.9453125,13.140625 L33.4980469,13.234375 C32.6835938,13.2871094 32.3027344,13.5800781 32.3027344,14.1015625 C32.3027344,14.640625 32.765625,14.9628906 33.4101562,14.9628906 Z M32.9824219,16.1054688 C31.7460938,16.1054688 30.8613281,15.3554688 30.8613281,14.1835938 C30.8613281,13.0234375 31.734375,12.3554688 33.2929688,12.2617188 L34.9453125,12.1621094 L34.9453125,11.6230469 C34.9453125,10.9960938 34.5234375,10.6445312 33.7382812,10.6445312 C33.0703125,10.6445312 32.6132812,10.8789062 32.4785156,11.3125 L31.1074219,11.3125 C31.2246094,10.1816406 32.2851562,9.4609375 33.8085938,9.4609375 C35.4550781,9.4609375 36.3808594,10.2636719 36.3808594,11.6230469 L36.3808594,16 L34.9804688,16 L34.9804688,15.1210938 L34.8808594,15.1210938 C34.5234375,15.7421875 33.8203125,16.1054688 32.9824219,16.1054688 Z M38.1269531,16 L38.1269531,9.58984375 L39.5273438,9.58984375 L39.5273438,10.5859375 L39.6269531,10.5859375 C39.8027344,9.953125 40.4882812,9.484375 41.3085938,9.484375 C41.5136719,9.484375 41.765625,9.5078125 41.90625,9.54882812 L41.90625,10.8964844 C41.7949219,10.8554688 41.3964844,10.8144531 41.1679688,10.8144531 C40.2363281,10.8144531 39.5800781,11.4003906 39.5800781,12.296875 L39.5800781,16 L38.1269531,16 Z M48.5859375,11.7460938 L47.203125,11.7460938 C47.0683594,11.125 46.5878906,10.6796875 45.7910156,10.6796875 C44.7949219,10.6796875 44.203125,11.4472656 44.203125,12.7773438 C44.203125,14.125 44.8007812,14.9101562 45.7910156,14.9101562 C46.546875,14.9101562 47.0507812,14.5527344 47.203125,13.8847656 L48.5859375,13.8847656 C48.4277344,15.2265625 47.4199219,16.1289062 45.796875,16.1289062 C43.8691406,16.1289062 42.7324219,14.8867188 42.7324219,12.7773438 C42.7324219,10.6972656 43.8632812,9.4609375 45.7910156,9.4609375 C47.4375,9.4609375 48.4335937,10.3984375 48.5859375,11.7460938 Z M50.0332031,16 L50.0332031,7.11132812 L51.4628906,7.11132812 L51.4628906,10.6269531 L51.5683594,10.6269531 C51.8730469,9.90625 52.6289062,9.47265625 53.5839844,9.47265625 C55.0195312,9.47265625 55.8515625,10.3398438 55.8515625,11.8632812 L55.8515625,16 L54.4042969,16 L54.4042969,12.2089844 C54.4042969,11.2363281 53.9355469,10.7382812 53.0449219,10.7382812 C52.0898438,10.7382812 51.4863281,11.359375 51.4863281,12.2792969 L51.4863281,16 L50.0332031,16 Z" id="Search" fill="#FFFFFF"></path>
            </g>
            <g transform="translate(280.000000, 170.000000)">
                <rect id="Rectangle-9" fill="#5182F8" x="0" y="0" width="88" height="24" rx="3"></rect>
                <path d="M14.1992188,16 L12.7402344,16 L12.7402344,7.54492188 L14.0527344,7.54492188 L18.2011719,13.2929688 L18.3007812,13.2929688 L18.3007812,7.54492188 L19.7539062,7.54492188 L19.7539062,16 L18.4472656,16 L14.2988281,10.2460938 L14.1992188,10.2460938 L14.1992188,16 Z M24.4589844,14.9101562 C25.4726562,14.9101562 26.046875,14.1367188 26.046875,12.7949219 C26.046875,11.4589844 25.4667969,10.6796875 24.4589844,10.6796875 C23.4453125,10.6796875 22.8652344,11.4589844 22.8652344,12.7949219 C22.8652344,14.1367188 23.4453125,14.9101562 24.4589844,14.9101562 Z M24.4589844,16.1289062 C22.5371094,16.1289062 21.3769531,14.875 21.3769531,12.7949219 C21.3769531,10.7265625 22.5546875,9.4609375 24.4589844,9.4609375 C26.3691406,9.4609375 27.5410156,10.7207031 27.5410156,12.7949219 C27.5410156,14.875 26.375,16.1289062 24.4589844,16.1289062 Z M37.7421875,11.7460938 L36.359375,11.7460938 C36.2246094,11.125 35.7441406,10.6796875 34.9472656,10.6796875 C33.9511719,10.6796875 33.359375,11.4472656 33.359375,12.7773438 C33.359375,14.125 33.9570312,14.9101562 34.9472656,14.9101562 C35.703125,14.9101562 36.2070312,14.5527344 36.359375,13.8847656 L37.7421875,13.8847656 C37.5839844,15.2265625 36.5761719,16.1289062 34.953125,16.1289062 C33.0253906,16.1289062 31.8886719,14.8867188 31.8886719,12.7773438 C31.8886719,10.6972656 33.0195312,9.4609375 34.9472656,9.4609375 C36.59375,9.4609375 37.5898438,10.3984375 37.7421875,11.7460938 Z M41.8964844,14.9101562 C42.9101562,14.9101562 43.484375,14.1367188 43.484375,12.7949219 C43.484375,11.4589844 42.9042969,10.6796875 41.8964844,10.6796875 C40.8828125,10.6796875 40.3027344,11.4589844 40.3027344,12.7949219 C40.3027344,14.1367188 40.8828125,14.9101562 41.8964844,14.9101562 Z M41.8964844,16.1289062 C39.9746094,16.1289062 38.8144531,14.875 38.8144531,12.7949219 C38.8144531,10.7265625 39.9921875,9.4609375 41.8964844,9.4609375 C43.8066406,9.4609375 44.9785156,10.7207031 44.9785156,12.7949219 C44.9785156,14.875 43.8125,16.1289062 41.8964844,16.1289062 Z M46.4433594,16 L46.4433594,9.58984375 L47.84375,9.58984375 L47.84375,10.6152344 L47.9433594,10.6152344 C48.2480469,9.90039062 48.9980469,9.4609375 49.9589844,9.4609375 C51.3886719,9.4609375 52.1914063,10.3222656 52.1914063,11.8515625 L52.1914063,16 L50.7441406,16 L50.7441406,12.1972656 C50.7441406,11.21875 50.2988281,10.7265625 49.4199219,10.7265625 C48.4824219,10.7265625 47.8964844,11.3242188 47.8964844,12.2675781 L47.8964844,16 L46.4433594,16 Z M54.3769531,8.06054688 L55.8242188,8.06054688 L55.8242188,9.63085938 L57.2304688,9.63085938 L57.2304688,10.7910156 L55.8242188,10.7910156 L55.8242188,13.9375 C55.8242188,14.5703125 56.09375,14.8515625 56.703125,14.8515625 C56.9082031,14.8515625 57.0136719,14.8398438 57.1835938,14.8222656 L57.1835938,15.9589844 C56.9785156,16 56.7148438,16.0292969 56.4335938,16.0292969 C54.9628906,16.0292969 54.3769531,15.53125 54.3769531,14.2890625 L54.3769531,10.7910156 L53.3339844,10.7910156 L53.3339844,9.63085938 L54.3769531,9.63085938 L54.3769531,8.06054688 Z M61.3378906,10.6152344 C60.4707031,10.6152344 59.8613281,11.2363281 59.796875,12.1738281 L62.8144531,12.1738281 C62.7851562,11.2246094 62.2109375,10.6152344 61.3378906,10.6152344 Z M62.8261719,14.2363281 L64.203125,14.2363281 C63.9277344,15.4023438 62.8671875,16.1289062 61.3554688,16.1289062 C59.46875,16.1289062 58.3320312,14.8808594 58.3320312,12.8183594 C58.3320312,10.7558594 59.4863281,9.4609375 61.34375,9.4609375 C63.171875,9.4609375 64.2675781,10.6738281 64.2675781,12.6953125 L64.2675781,13.1640625 L59.7910156,13.1640625 L59.7910156,13.2402344 C59.8261719,14.3066406 60.4414062,14.9746094 61.3964844,14.9746094 C62.1171875,14.9746094 62.6152344,14.7109375 62.8261719,14.2363281 Z M68.2226562,13.7910156 L68.1230469,13.7910156 L66.8105469,16 L65.2460938,16 L67.3203125,12.8183594 L65.2285156,9.58984375 L66.9101562,9.58984375 L68.1875,11.7929688 L68.2871094,11.7929688 L69.5527344,9.58984375 L71.1523438,9.58984375 L69.0839844,12.7597656 L71.1757812,16 L69.5351562,16 L68.2226562,13.7910156 Z M72.921875,8.06054688 L74.3691406,8.06054688 L74.3691406,9.63085938 L75.7753906,9.63085938 L75.7753906,10.7910156 L74.3691406,10.7910156 L74.3691406,13.9375 C74.3691406,14.5703125 74.6386719,14.8515625 75.2480469,14.8515625 C75.453125,14.8515625 75.5585938,14.8398438 75.7285156,14.8222656 L75.7285156,15.9589844 C75.5234375,16 75.2597656,16.0292969 74.9785156,16.0292969 C73.5078125,16.0292969 72.921875,15.53125 72.921875,14.2890625 L72.921875,10.7910156 L71.8789062,10.7910156 L71.8789062,9.63085938 L72.921875,9.63085938 L72.921875,8.06054688 Z" id="No-context" fill="#FFFFFF"></path>
            </g>
            <g transform="translate(280.000000, 218.000000)">
                <rect id="Rectangle-9" fill="#009688" x="0" y="0" width="88" height="24" rx="3"></rect>
                <path d="M16.3320312,10.0117188 L14.6210938,16 L13.1972656,16 L10.9296875,7.54492188 L12.5058594,7.54492188 L13.953125,13.8378906 L14.0410156,13.8378906 L15.7050781,7.54492188 L17.046875,7.54492188 L18.734375,13.8378906 L18.8164062,13.8378906 L20.2636719,7.54492188 L21.828125,7.54492188 L19.5605469,16 L18.1425781,16 L16.4199219,10.0117188 L16.3320312,10.0117188 Z M25.4257812,14.9628906 C26.3046875,14.9628906 26.9609375,14.3945312 26.9609375,13.6503906 L26.9609375,13.140625 L25.5136719,13.234375 C24.6992188,13.2871094 24.3183594,13.5800781 24.3183594,14.1015625 C24.3183594,14.640625 24.78125,14.9628906 25.4257812,14.9628906 Z M24.9980469,16.1054688 C23.7617188,16.1054688 22.8769531,15.3554688 22.8769531,14.1835938 C22.8769531,13.0234375 23.75,12.3554688 25.3085938,12.2617188 L26.9609375,12.1621094 L26.9609375,11.6230469 C26.9609375,10.9960938 26.5390625,10.6445312 25.7539062,10.6445312 C25.0859375,10.6445312 24.6289062,10.8789062 24.4941406,11.3125 L23.1230469,11.3125 C23.2402344,10.1816406 24.3007812,9.4609375 25.8242188,9.4609375 C27.4707031,9.4609375 28.3964844,10.2636719 28.3964844,11.6230469 L28.3964844,16 L26.9960938,16 L26.9960938,15.1210938 L26.8964844,15.1210938 C26.5390625,15.7421875 25.8359375,16.1054688 24.9980469,16.1054688 Z M30.8457031,18.3320312 C30.7578125,18.3320312 30.3652344,18.3261719 30.2714844,18.3085938 L30.2714844,17.125 C30.3535156,17.1367188 30.5703125,17.1425781 30.6699219,17.1425781 C31.2851562,17.1425781 31.6308594,16.9023438 31.8183594,16.3105469 L31.8945312,16.0292969 L29.6035156,9.58984375 L31.1972656,9.58984375 L32.6972656,14.59375 L32.796875,14.59375 L34.2910156,9.58984375 L35.8261719,9.58984375 L33.5117188,16.2050781 C32.9667969,17.7988281 32.28125,18.3320312 30.8457031,18.3320312 Z M37.5371094,16 L37.5371094,10.7910156 L36.4941406,10.7910156 L36.4941406,9.63085938 L37.5371094,9.63085938 L37.5371094,8.9921875 C37.5371094,7.69140625 38.2109375,7.1640625 39.6171875,7.1640625 C39.875,7.1640625 40.1269531,7.1875 40.3847656,7.22851562 L40.3847656,8.3125 C40.2558594,8.28320312 40.0390625,8.265625 39.828125,8.265625 C39.2597656,8.265625 38.9609375,8.51171875 38.9609375,9.0859375 L38.9609375,9.63085938 L40.3496094,9.63085938 L40.3496094,10.7910156 L38.984375,10.7910156 L38.984375,16 L37.5371094,16 Z M41.7851562,16 L41.7851562,9.58984375 L43.2324219,9.58984375 L43.2324219,16 L41.7851562,16 Z M42.5058594,8.546875 C41.9785156,8.546875 41.609375,8.20703125 41.609375,7.74414062 C41.609375,7.28125 41.9785156,6.94140625 42.5058594,6.94140625 C43.0390625,6.94140625 43.4023438,7.28125 43.4023438,7.74414062 C43.4023438,8.20703125 43.0390625,8.546875 42.5058594,8.546875 Z M45.03125,16 L45.03125,9.58984375 L46.4316406,9.58984375 L46.4316406,10.6152344 L46.53125,10.6152344 C46.8359375,9.90039062 47.5859375,9.4609375 48.546875,9.4609375 C49.9765625,9.4609375 50.7792969,10.3222656 50.7792969,11.8515625 L50.7792969,16 L49.3320312,16 L49.3320312,12.1972656 C49.3320312,11.21875 48.8867188,10.7265625 48.0078125,10.7265625 C47.0703125,10.7265625 46.484375,11.3242188 46.484375,12.2675781 L46.484375,16 L45.03125,16 Z M54.8222656,16.1054688 C53.1992188,16.1054688 52.1855469,14.828125 52.1855469,12.7890625 C52.1855469,10.7617188 53.2050781,9.484375 54.8222656,9.484375 C55.7011719,9.484375 56.4277344,9.90625 56.7675781,10.609375 L56.8671875,10.609375 L56.8671875,7.11132812 L58.3203125,7.11132812 L58.3203125,16 L56.9140625,16 L56.9140625,14.9863281 L56.8144531,14.9863281 C56.4511719,15.6894531 55.7128906,16.1054688 54.8222656,16.1054688 Z M55.2734375,10.7207031 C54.2832031,10.7207031 53.6738281,11.5058594 53.6738281,12.7949219 C53.6738281,14.0898438 54.2773438,14.8691406 55.2734375,14.8691406 C56.2753906,14.8691406 56.8847656,14.0839844 56.8847656,12.7949219 C56.8847656,11.5175781 56.2695313,10.7207031 55.2734375,10.7207031 Z M60.171875,16 L60.171875,9.58984375 L61.6191406,9.58984375 L61.6191406,16 L60.171875,16 Z M60.8925781,8.546875 C60.3652344,8.546875 59.9960938,8.20703125 59.9960938,7.74414062 C59.9960938,7.28125 60.3652344,6.94140625 60.8925781,6.94140625 C61.4257812,6.94140625 61.7890625,7.28125 61.7890625,7.74414062 C61.7890625,8.20703125 61.4257812,8.546875 60.8925781,8.546875 Z M63.4179688,16 L63.4179688,9.58984375 L64.8183594,9.58984375 L64.8183594,10.6152344 L64.9179688,10.6152344 C65.2226562,9.90039062 65.9726562,9.4609375 66.9335938,9.4609375 C68.3632812,9.4609375 69.1660156,10.3222656 69.1660156,11.8515625 L69.1660156,16 L67.71875,16 L67.71875,12.1972656 C67.71875,11.21875 67.2734375,10.7265625 66.3945312,10.7265625 C65.4570312,10.7265625 64.8710938,11.3242188 64.8710938,12.2675781 L64.8710938,16 L63.4179688,16 Z M75.265625,12.7246094 C75.265625,11.5 74.6503906,10.7207031 73.6425781,10.7207031 C72.6289062,10.7207031 72.0546875,11.5 72.0546875,12.7246094 C72.0546875,13.9492188 72.6289062,14.7226562 73.6425781,14.7226562 C74.65625,14.7226562 75.265625,13.9492188 75.265625,12.7246094 Z M73.6425781,18.4375 C71.9960938,18.4375 70.9179688,17.7109375 70.8007812,16.609375 L72.2597656,16.609375 C72.3535156,17.0488281 72.8691406,17.3300781 73.6660156,17.3300781 C74.6621094,17.3300781 75.2421875,16.8613281 75.2421875,16.0585938 L75.2421875,14.8457031 L75.1425781,14.8457031 C74.7734375,15.53125 74.0761719,15.90625 73.1855469,15.90625 C71.5683594,15.90625 70.5605469,14.6523438 70.5605469,12.7246094 C70.5605469,10.7617188 71.5742188,9.484375 73.2089844,9.484375 C74.0820312,9.484375 74.84375,9.91796875 75.1953125,10.6152344 L75.2949219,10.6152344 L75.2949219,9.58984375 L76.6953125,9.58984375 L76.6953125,16.0234375 C76.6953125,17.5058594 75.5117188,18.4375 73.6425781,18.4375 Z" id="Wayfinding" fill="#FFFFFF"></path>
            </g>
        </g>
    </g>
</svg>