<?xml version="1.0" encoding="UTF-8"?>
<svg width="400px" height="320px" viewBox="0 0 400 320" version="1.1" xmlns="http://www.w3.org/2000/svg" xmlns:xlink="http://www.w3.org/1999/xlink">
    <!-- Generator: Sketch 51 (57462) - http://www.bohemiancoding.com/sketch -->
    <title>snippet/editor</title>
    <desc>Created with Sketch.</desc>
    <defs></defs>
    <g id="snippet/editor" stroke="none" stroke-width="1" fill="none" fill-rule="evenodd">
        <g id="Group" transform="translate(16.000000, 26.000000)">
            <g>
                <path d="M2.57226562,1.54492188 L2.57226562,6.94726563 C2.57226562,8.08984375 3.28710938,8.85742188 4.54101562,8.85742188 C5.79492188,8.85742188 6.50390625,8.08984375 6.50390625,6.94726563 L6.50390625,1.54492188 L8.015625,1.54492188 L8.015625,7.08789062 C8.015625,8.93359375 6.6796875,10.2109375 4.54101562,10.2109375 C2.40234375,10.2109375 1.06640625,8.93359375 1.06640625,7.08789062 L1.06640625,1.54492188 L2.57226562,1.54492188 Z M9.8203125,5.42382813 C9.8203125,4.26367188 10.875,3.4609375 12.3867188,3.4609375 C13.9101562,3.4609375 14.8652344,4.13476562 14.9707031,5.30078125 L13.6054688,5.30078125 C13.5,4.84960938 13.0722656,4.5625 12.3925781,4.5625 C11.7304688,4.5625 11.2324219,4.87890625 11.2324219,5.34179688 C11.2324219,5.70507813 11.5371094,5.92773438 12.1816406,6.07421875 L13.3125,6.33203125 C14.5371094,6.60742188 15.1054688,7.13476562 15.1054688,8.078125 C15.1054688,9.30859375 13.9746094,10.1289063 12.375,10.1289063 C10.7753906,10.1289063 9.76757812,9.4375 9.65625,8.27148438 L11.0917969,8.27148438 C11.2324219,8.74609375 11.6835938,9.02734375 12.4101562,9.02734375 C13.1425781,9.02734375 13.6523438,8.70507813 13.6523438,8.23046875 C13.6523438,7.8671875 13.3769531,7.63867188 12.7675781,7.50390625 L11.6308594,7.24023438 C10.4003906,6.95898438 9.8203125,6.390625 9.8203125,5.42382813 Z M19.265625,4.61523438 C18.3984375,4.61523438 17.7890625,5.23632812 17.7246094,6.17382812 L20.7421875,6.17382812 C20.7128906,5.22460938 20.1386719,4.61523438 19.265625,4.61523438 Z M20.7539062,8.23632813 L22.1308594,8.23632813 C21.8554688,9.40234375 20.7949219,10.1289063 19.2832031,10.1289063 C17.3964844,10.1289063 16.2597656,8.88085938 16.2597656,6.81835938 C16.2597656,4.75585938 17.4140625,3.4609375 19.2714844,3.4609375 C21.0996094,3.4609375 22.1953125,4.67382812 22.1953125,6.6953125 L22.1953125,7.1640625 L17.71875,7.1640625 L17.71875,7.24023438 C17.7539062,8.30664063 18.3691406,8.97460938 19.3242188,8.97460938 C20.0449219,8.97460938 20.5429688,8.7109375 20.7539062,8.23632813 Z M23.6542969,10 L23.6542969,3.58984375 L25.0546875,3.58984375 L25.0546875,4.5859375 L25.1542969,4.5859375 C25.3300781,3.953125 26.015625,3.484375 26.8359375,3.484375 C27.0410156,3.484375 27.2929688,3.5078125 27.4335938,3.54882812 L27.4335938,4.89648438 C27.3222656,4.85546875 26.9238281,4.81445313 26.6953125,4.81445313 C25.7636719,4.81445313 25.1074219,5.40039063 25.1074219,6.296875 L25.1074219,10 L23.6542969,10 Z M32.2382812,2.06054688 L33.6855469,2.06054688 L33.6855469,3.63085938 L35.0917969,3.63085938 L35.0917969,4.79101562 L33.6855469,4.79101562 L33.6855469,7.9375 C33.6855469,8.5703125 33.9550781,8.8515625 34.5644531,8.8515625 C34.7695312,8.8515625 34.875,8.83984375 35.0449219,8.82226562 L35.0449219,9.95898438 C34.8398438,10 34.5761719,10.0292969 34.2949219,10.0292969 C32.8242188,10.0292969 32.2382812,9.53125 32.2382812,8.2890625 L32.2382812,4.79101562 L31.1953125,4.79101562 L31.1953125,3.63085938 L32.2382812,3.63085938 L32.2382812,2.06054688 Z M39.1992188,4.61523438 C38.3320312,4.61523438 37.7226562,5.23632812 37.6582031,6.17382812 L40.6757812,6.17382812 C40.6464844,5.22460938 40.0722656,4.61523438 39.1992188,4.61523438 Z M40.6875,8.23632813 L42.0644531,8.23632813 C41.7890625,9.40234375 40.7285156,10.1289063 39.2167969,10.1289063 C37.3300781,10.1289063 36.1933594,8.88085938 36.1933594,6.81835938 C36.1933594,4.75585938 37.3476562,3.4609375 39.2050781,3.4609375 C41.0332031,3.4609375 42.1289062,4.67382812 42.1289062,6.6953125 L42.1289062,7.1640625 L37.6523437,7.1640625 L37.6523437,7.24023438 C37.6875,8.30664063 38.3027344,8.97460938 39.2578125,8.97460938 C39.9785156,8.97460938 40.4765625,8.7109375 40.6875,8.23632813 Z M43.4414062,5.42382813 C43.4414062,4.26367188 44.4960937,3.4609375 46.0078125,3.4609375 C47.53125,3.4609375 48.4863281,4.13476562 48.5917969,5.30078125 L47.2265625,5.30078125 C47.1210937,4.84960938 46.6933594,4.5625 46.0136719,4.5625 C45.3515625,4.5625 44.8535156,4.87890625 44.8535156,5.34179688 C44.8535156,5.70507813 45.1582031,5.92773438 45.8027344,6.07421875 L46.9335937,6.33203125 C48.1582031,6.60742188 48.7265625,7.13476562 48.7265625,8.078125 C48.7265625,9.30859375 47.5957031,10.1289063 45.9960937,10.1289063 C44.3964844,10.1289063 43.3886719,9.4375 43.2773437,8.27148438 L44.7128906,8.27148438 C44.8535156,8.74609375 45.3046875,9.02734375 46.03125,9.02734375 C46.7636719,9.02734375 47.2734375,8.70507813 47.2734375,8.23046875 C47.2734375,7.8671875 46.9980469,7.63867188 46.3886719,7.50390625 L45.2519531,7.24023438 C44.0214844,6.95898438 43.4414062,6.390625 43.4414062,5.42382813 Z M50.6601562,2.06054688 L52.1074219,2.06054688 L52.1074219,3.63085938 L53.5136719,3.63085938 L53.5136719,4.79101562 L52.1074219,4.79101562 L52.1074219,7.9375 C52.1074219,8.5703125 52.3769531,8.8515625 52.9863281,8.8515625 C53.1914062,8.8515625 53.296875,8.83984375 53.4667969,8.82226562 L53.4667969,9.95898438 C53.2617188,10 52.9980469,10.0292969 52.7167969,10.0292969 C51.2460938,10.0292969 50.6601562,9.53125 50.6601562,8.2890625 L50.6601562,4.79101562 L49.6171875,4.79101562 L49.6171875,3.63085938 L50.6601562,3.63085938 L50.6601562,2.06054688 Z M54.9492188,10 L54.9492188,3.58984375 L56.3964844,3.58984375 L56.3964844,10 L54.9492188,10 Z M55.6699219,2.546875 C55.1425781,2.546875 54.7734375,2.20703125 54.7734375,1.74414062 C54.7734375,1.28125 55.1425781,0.94140625 55.6699219,0.94140625 C56.203125,0.94140625 56.5664062,1.28125 56.5664062,1.74414062 C56.5664062,2.20703125 56.203125,2.546875 55.6699219,2.546875 Z M58.1953125,10 L58.1953125,3.58984375 L59.5957031,3.58984375 L59.5957031,4.61523438 L59.6953125,4.61523438 C60,3.90039062 60.75,3.4609375 61.7109375,3.4609375 C63.140625,3.4609375 63.9433594,4.32226562 63.9433594,5.8515625 L63.9433594,10 L62.4960938,10 L62.4960938,6.19726562 C62.4960938,5.21875 62.0507812,4.7265625 61.171875,4.7265625 C60.234375,4.7265625 59.6484375,5.32421875 59.6484375,6.26757812 L59.6484375,10 L58.1953125,10 Z M70.0429687,6.72460938 C70.0429687,5.5 69.4277344,4.72070312 68.4199219,4.72070312 C67.40625,4.72070312 66.8320312,5.5 66.8320312,6.72460938 C66.8320312,7.94921875 67.40625,8.72265625 68.4199219,8.72265625 C69.4335937,8.72265625 70.0429687,7.94921875 70.0429687,6.72460938 Z M68.4199219,12.4375 C66.7734375,12.4375 65.6953125,11.7109375 65.578125,10.609375 L67.0371094,10.609375 C67.1308594,11.0488281 67.6464844,11.3300781 68.4433594,11.3300781 C69.4394531,11.3300781 70.0195312,10.8613281 70.0195312,10.0585938 L70.0195312,8.84570312 L69.9199219,8.84570312 C69.5507812,9.53125 68.8535156,9.90625 67.9628906,9.90625 C66.3457031,9.90625 65.3378906,8.65234375 65.3378906,6.72460938 C65.3378906,4.76171875 66.3515625,3.484375 67.9863281,3.484375 C68.859375,3.484375 69.6210938,3.91796875 69.9726562,4.61523438 L70.0722656,4.61523438 L70.0722656,3.58984375 L71.4726562,3.58984375 L71.4726562,10.0234375 C71.4726562,11.5058594 70.2890625,12.4375 68.4199219,12.4375 Z M76.3066406,5.42382813 C76.3066406,4.26367188 77.3613281,3.4609375 78.8730469,3.4609375 C80.3964844,3.4609375 81.3515625,4.13476562 81.4570312,5.30078125 L80.0917969,5.30078125 C79.9863281,4.84960938 79.5585938,4.5625 78.8789062,4.5625 C78.2167969,4.5625 77.71875,4.87890625 77.71875,5.34179688 C77.71875,5.70507813 78.0234375,5.92773438 78.6679688,6.07421875 L79.7988281,6.33203125 C81.0234375,6.60742188 81.5917969,7.13476562 81.5917969,8.078125 C81.5917969,9.30859375 80.4609375,10.1289063 78.8613281,10.1289063 C77.2617188,10.1289063 76.2539062,9.4375 76.1425781,8.27148438 L77.578125,8.27148438 C77.71875,8.74609375 78.1699219,9.02734375 78.8964844,9.02734375 C79.6289062,9.02734375 80.1386719,8.70507813 80.1386719,8.23046875 C80.1386719,7.8671875 79.8632812,7.63867188 79.2539062,7.50390625 L78.1171875,7.24023438 C76.8867188,6.95898438 76.3066406,6.390625 76.3066406,5.42382813 Z M85.7519531,4.61523438 C84.8847656,4.61523438 84.2753906,5.23632812 84.2109375,6.17382812 L87.2285156,6.17382812 C87.1992187,5.22460938 86.625,4.61523438 85.7519531,4.61523438 Z M87.2402344,8.23632813 L88.6171875,8.23632813 C88.3417969,9.40234375 87.28125,10.1289063 85.7695312,10.1289063 C83.8828125,10.1289063 82.7460938,8.88085938 82.7460938,6.81835938 C82.7460938,4.75585938 83.9003906,3.4609375 85.7578125,3.4609375 C87.5859375,3.4609375 88.6816406,4.67382812 88.6816406,6.6953125 L88.6816406,7.1640625 L84.2050781,7.1640625 L84.2050781,7.24023438 C84.2402344,8.30664063 84.8554688,8.97460938 85.8105469,8.97460938 C86.53125,8.97460938 87.0292969,8.7109375 87.2402344,8.23632813 Z M89.9941406,5.42382813 C89.9941406,4.26367188 91.0488281,3.4609375 92.5605469,3.4609375 C94.0839844,3.4609375 95.0390625,4.13476562 95.1445312,5.30078125 L93.7792969,5.30078125 C93.6738281,4.84960938 93.2460937,4.5625 92.5664062,4.5625 C91.9042969,4.5625 91.40625,4.87890625 91.40625,5.34179688 C91.40625,5.70507813 91.7109375,5.92773438 92.3554687,6.07421875 L93.4863281,6.33203125 C94.7109375,6.60742188 95.2792969,7.13476562 95.2792969,8.078125 C95.2792969,9.30859375 94.1484375,10.1289063 92.5488281,10.1289063 C90.9492187,10.1289063 89.9414062,9.4375 89.8300781,8.27148438 L91.265625,8.27148438 C91.40625,8.74609375 91.8574219,9.02734375 92.5839844,9.02734375 C93.3164062,9.02734375 93.8261719,8.70507813 93.8261719,8.23046875 C93.8261719,7.8671875 93.5507812,7.63867188 92.9414062,7.50390625 L91.8046875,7.24023438 C90.5742187,6.95898438 89.9941406,6.390625 89.9941406,5.42382813 Z M96.6035156,5.42382813 C96.6035156,4.26367188 97.6582031,3.4609375 99.1699219,3.4609375 C100.693359,3.4609375 101.648437,4.13476562 101.753906,5.30078125 L100.388672,5.30078125 C100.283203,4.84960938 99.8554687,4.5625 99.1757812,4.5625 C98.5136719,4.5625 98.015625,4.87890625 98.015625,5.34179688 C98.015625,5.70507813 98.3203125,5.92773438 98.9648437,6.07421875 L100.095703,6.33203125 C101.320312,6.60742188 101.888672,7.13476562 101.888672,8.078125 C101.888672,9.30859375 100.757812,10.1289063 99.1582031,10.1289063 C97.5585937,10.1289063 96.5507812,9.4375 96.4394531,8.27148438 L97.875,8.27148438 C98.015625,8.74609375 98.4667969,9.02734375 99.1933594,9.02734375 C99.9257812,9.02734375 100.435547,8.70507813 100.435547,8.23046875 C100.435547,7.8671875 100.160156,7.63867188 99.5507812,7.50390625 L98.4140625,7.24023438 C97.1835937,6.95898438 96.6035156,6.390625 96.6035156,5.42382813 Z M103.376953,10 L103.376953,3.58984375 L104.824219,3.58984375 L104.824219,10 L103.376953,10 Z M104.097656,2.546875 C103.570312,2.546875 103.201172,2.20703125 103.201172,1.74414062 C103.201172,1.28125 103.570312,0.94140625 104.097656,0.94140625 C104.630859,0.94140625 104.994141,1.28125 104.994141,1.74414062 C104.994141,2.20703125 104.630859,2.546875 104.097656,2.546875 Z M109.388672,8.91015625 C110.402344,8.91015625 110.976562,8.13671875 110.976562,6.79492188 C110.976562,5.45898438 110.396484,4.6796875 109.388672,4.6796875 C108.375,4.6796875 107.794922,5.45898438 107.794922,6.79492188 C107.794922,8.13671875 108.375,8.91015625 109.388672,8.91015625 Z M109.388672,10.1289063 C107.466797,10.1289063 106.306641,8.875 106.306641,6.79492188 C106.306641,4.7265625 107.484375,3.4609375 109.388672,3.4609375 C111.298828,3.4609375 112.470703,4.72070313 112.470703,6.79492188 C112.470703,8.875 111.304688,10.1289063 109.388672,10.1289063 Z M113.935547,10 L113.935547,3.58984375 L115.335938,3.58984375 L115.335938,4.61523438 L115.435547,4.61523438 C115.740234,3.90039062 116.490234,3.4609375 117.451172,3.4609375 C118.880859,3.4609375 119.683594,4.32226562 119.683594,5.8515625 L119.683594,10 L118.236328,10 L118.236328,6.19726562 C118.236328,5.21875 117.791016,4.7265625 116.912109,4.7265625 C115.974609,4.7265625 115.388672,5.32421875 115.388672,6.26757812 L115.388672,10 L113.935547,10 Z M121.259766,5.42382813 C121.259766,4.26367188 122.314453,3.4609375 123.826172,3.4609375 C125.349609,3.4609375 126.304688,4.13476562 126.410156,5.30078125 L125.044922,5.30078125 C124.939453,4.84960938 124.511719,4.5625 123.832031,4.5625 C123.169922,4.5625 122.671875,4.87890625 122.671875,5.34179688 C122.671875,5.70507813 122.976562,5.92773438 123.621094,6.07421875 L124.751953,6.33203125 C125.976562,6.60742188 126.544922,7.13476562 126.544922,8.078125 C126.544922,9.30859375 125.414062,10.1289063 123.814453,10.1289063 C122.214844,10.1289063 121.207031,9.4375 121.095703,8.27148438 L122.53125,8.27148438 C122.671875,8.74609375 123.123047,9.02734375 123.849609,9.02734375 C124.582031,9.02734375 125.091797,8.70507813 125.091797,8.23046875 C125.091797,7.8671875 124.816406,7.63867188 124.207031,7.50390625 L123.070312,7.24023438 C121.839844,6.95898438 121.259766,6.390625 121.259766,5.42382813 Z" id="User-testing-session" fill="#24124D" opacity="0.600000024"></path>
                <rect id="Rectangle-9" fill="#DCD5EE" x="0" y="78" width="248" height="12" rx="4"></rect>
                <rect id="Rectangle-9" fill="#DCD5EE" x="0" y="110" width="136" height="12" rx="4"></rect>
                <rect id="Rectangle-9" fill="#512DA8" x="152" y="110" width="96" height="12" rx="4"></rect>
                <rect id="Rectangle-9" fill="#512DA8" x="0" y="142" width="64" height="12" rx="4"></rect>
                <rect id="Rectangle-9" fill="#DCD5EE" x="80" y="142" width="144" height="12" rx="4"></rect>
                <rect id="Rectangle-9" fill="#5182F8" x="0" y="174" width="168" height="12" rx="4"></rect>
                <rect id="Rectangle-9" fill="#DCD5EE" x="0" y="222" width="96" height="12" rx="4"></rect>
                <rect id="Rectangle-9" fill="#FFB300" x="112" y="222" width="136" height="12" rx="4"></rect>
                <rect id="Rectangle-9" fill="#FFB300" x="0" y="254" width="136" height="12" rx="4"></rect>
                <path d="M1.09375,42.171875 L3.5546875,42.171875 C3.7109375,43.4316406 4.9609375,44.2421875 6.74804688,44.2421875 C8.40820312,44.2421875 9.609375,43.3925781 9.609375,42.2109375 C9.609375,41.1953125 8.83789063,40.5996094 7.03125,40.1796875 L5.20507812,39.7597656 C2.64648438,39.1835938 1.4453125,37.9140625 1.4453125,35.8144531 C1.4453125,33.2558594 3.53515625,31.5566406 6.68945313,31.5566406 C9.6484375,31.5566406 11.7871094,33.2558594 11.9042969,35.6777344 L9.4921875,35.6777344 C9.31640625,34.4375 8.22265625,33.65625 6.6796875,33.65625 C5.05859375,33.65625 3.984375,34.4375 3.984375,35.6386719 C3.984375,36.5859375 4.69726562,37.1425781 6.4453125,37.5429688 L8.06640625,37.9140625 C10.9277344,38.5585938 12.1289062,39.75 12.1289062,41.8984375 C12.1289062,44.6425781 10.0097656,46.3515625 6.59179688,46.3515625 C3.359375,46.3515625 1.22070312,44.7304688 1.09375,42.171875 Z M19.1894531,37.0253906 C17.7441406,37.0253906 16.7285156,38.0605469 16.6210938,39.6230469 L21.6503906,39.6230469 C21.6015625,38.0410156 20.6445312,37.0253906 19.1894531,37.0253906 Z M21.6699219,43.0605469 L23.9648438,43.0605469 C23.5058594,45.0039062 21.7382812,46.2148438 19.21875,46.2148438 C16.0742188,46.2148438 14.1796875,44.1347656 14.1796875,40.6972656 C14.1796875,37.2597656 16.1035156,35.1015625 19.1992188,35.1015625 C22.2460938,35.1015625 24.0722656,37.1230469 24.0722656,40.4921875 L24.0722656,41.2734375 L16.6113281,41.2734375 L16.6113281,41.4003906 C16.6699219,43.1777344 17.6953125,44.2910156 19.2871094,44.2910156 C20.4882812,44.2910156 21.3183594,43.8515625 21.6699219,43.0605469 Z M26.2597656,38.3730469 C26.2597656,36.4394531 28.0175781,35.1015625 30.5371094,35.1015625 C33.0761719,35.1015625 34.6679688,36.2246094 34.84375,38.1679688 L32.5683594,38.1679688 C32.3925781,37.4160156 31.6796875,36.9375 30.546875,36.9375 C29.4433594,36.9375 28.6132812,37.4648438 28.6132812,38.2363281 C28.6132812,38.8417969 29.1210938,39.2128906 30.1953125,39.4570312 L32.0800781,39.8867188 C34.1210938,40.3457031 35.0683594,41.2246094 35.0683594,42.796875 C35.0683594,44.8476562 33.1835938,46.2148438 30.5175781,46.2148438 C27.8515625,46.2148438 26.171875,45.0625 25.9863281,43.1191406 L28.3789062,43.1191406 C28.6132812,43.9101562 29.3652344,44.3789062 30.5761719,44.3789062 C31.796875,44.3789062 32.6464844,43.8417969 32.6464844,43.0507812 C32.6464844,42.4453125 32.1875,42.0644531 31.171875,41.8398438 L29.2773438,41.4003906 C27.2265625,40.9316406 26.2597656,39.984375 26.2597656,38.3730469 Z M37.2753906,38.3730469 C37.2753906,36.4394531 39.0332031,35.1015625 41.5527344,35.1015625 C44.0917969,35.1015625 45.6835938,36.2246094 45.859375,38.1679688 L43.5839844,38.1679688 C43.4082031,37.4160156 42.6953125,36.9375 41.5625,36.9375 C40.4589844,36.9375 39.6289062,37.4648438 39.6289062,38.2363281 C39.6289062,38.8417969 40.1367188,39.2128906 41.2109375,39.4570312 L43.0957031,39.8867188 C45.1367188,40.3457031 46.0839844,41.2246094 46.0839844,42.796875 C46.0839844,44.8476562 44.1992188,46.2148438 41.5332031,46.2148438 C38.8671875,46.2148438 37.1875,45.0625 37.0019531,43.1191406 L39.3945312,43.1191406 C39.6289062,43.9101562 40.3808594,44.3789062 41.5917969,44.3789062 C42.8125,44.3789062 43.6621094,43.8417969 43.6621094,43.0507812 C43.6621094,42.4453125 43.203125,42.0644531 42.1875,41.8398438 L40.2929688,41.4003906 C38.2421875,40.9316406 37.2753906,39.984375 37.2753906,38.3730469 Z M48.5644531,46 L48.5644531,35.3164062 L50.9765625,35.3164062 L50.9765625,46 L48.5644531,46 Z M49.765625,33.578125 C48.8867187,33.578125 48.2714844,33.0117188 48.2714844,32.2402344 C48.2714844,31.46875 48.8867187,30.9023438 49.765625,30.9023438 C50.6542969,30.9023438 51.2597656,31.46875 51.2597656,32.2402344 C51.2597656,33.0117188 50.6542969,33.578125 49.765625,33.578125 Z M58.5839844,44.1835938 C60.2734375,44.1835938 61.2304688,42.8945312 61.2304688,40.6582031 C61.2304688,38.4316406 60.2636719,37.1328125 58.5839844,37.1328125 C56.8945312,37.1328125 55.9277344,38.4316406 55.9277344,40.6582031 C55.9277344,42.8945312 56.8945312,44.1835938 58.5839844,44.1835938 Z M58.5839844,46.2148438 C55.3808594,46.2148438 53.4472656,44.125 53.4472656,40.6582031 C53.4472656,37.2109375 55.4101562,35.1015625 58.5839844,35.1015625 C61.7675781,35.1015625 63.7207031,37.2011719 63.7207031,40.6582031 C63.7207031,44.125 61.7773437,46.2148438 58.5839844,46.2148438 Z M66.1621094,46 L66.1621094,35.3164062 L68.4960938,35.3164062 L68.4960938,37.0253906 L68.6621094,37.0253906 C69.1699219,35.8339844 70.4199219,35.1015625 72.0214844,35.1015625 C74.4042969,35.1015625 75.7421875,36.5371094 75.7421875,39.0859375 L75.7421875,46 L73.3300781,46 L73.3300781,39.6621094 C73.3300781,38.03125 72.5878906,37.2109375 71.1230469,37.2109375 C69.5605469,37.2109375 68.5839844,38.2070312 68.5839844,39.7792969 L68.5839844,46 L66.1621094,46 Z M90.46875,46 L90.46875,43.3730469 L83.5839844,43.3730469 L83.5839844,41.1269531 C84.8535156,38.7929688 86.8359375,35.6582031 89.3261719,31.9082031 L92.8808594,31.9082031 L92.8808594,41.2441406 L94.7851562,41.2441406 L94.7851562,43.3730469 L92.8808594,43.3730469 L92.8808594,46 L90.46875,46 Z M85.9179688,41.15625 L85.9179688,41.3027344 L90.5078125,41.3027344 L90.5078125,33.9589844 L90.3710938,33.9589844 C89.0234375,35.9511719 87.5585938,38.265625 85.9179688,41.15625 Z M111.240234,41.4589844 L101.240234,41.4589844 L101.240234,39.1835938 L111.240234,39.1835938 L111.240234,41.4589844 Z M117.34375,42.1621094 L119.804688,42.1621094 C119.824219,43.3242188 120.625,44.0859375 121.826172,44.0859375 C123.144531,44.0859375 123.876953,43.2851562 123.876953,41.7714844 L123.876953,31.9082031 L126.396484,31.9082031 L126.396484,41.7910156 C126.396484,44.6914062 124.6875,46.3515625 121.855469,46.3515625 C119.160156,46.3515625 117.34375,44.7109375 117.34375,42.1621094 Z M133.271484,44.2714844 C134.736328,44.2714844 135.830078,43.3242188 135.830078,42.0839844 L135.830078,41.234375 L133.417969,41.390625 C132.060547,41.4785156 131.425781,41.9667969 131.425781,42.8359375 C131.425781,43.734375 132.197266,44.2714844 133.271484,44.2714844 Z M132.558594,46.1757812 C130.498047,46.1757812 129.023438,44.9257812 129.023438,42.9726562 C129.023438,41.0390625 130.478516,39.9257812 133.076172,39.7695312 L135.830078,39.6035156 L135.830078,38.7050781 C135.830078,37.6601562 135.126953,37.0742188 133.818359,37.0742188 C132.705078,37.0742188 131.943359,37.4648438 131.71875,38.1875 L129.433594,38.1875 C129.628906,36.3027344 131.396484,35.1015625 133.935547,35.1015625 C136.679688,35.1015625 138.222656,36.4394531 138.222656,38.7050781 L138.222656,46 L135.888672,46 L135.888672,44.5351562 L135.722656,44.5351562 C135.126953,45.5703125 133.955078,46.1757812 132.558594,46.1757812 Z M141.132812,46 L141.132812,35.3164062 L143.466797,35.3164062 L143.466797,37.0253906 L143.632812,37.0253906 C144.140625,35.8339844 145.390625,35.1015625 146.992188,35.1015625 C149.375,35.1015625 150.712891,36.5371094 150.712891,39.0859375 L150.712891,46 L148.300781,46 L148.300781,39.6621094 C148.300781,38.03125 147.558594,37.2109375 146.09375,37.2109375 C144.53125,37.2109375 143.554688,38.2070312 143.554688,39.7792969 L143.554688,46 L141.132812,46 Z M158.066406,37.0253906 C156.621094,37.0253906 155.605469,38.0605469 155.498047,39.6230469 L160.527344,39.6230469 C160.478516,38.0410156 159.521484,37.0253906 158.066406,37.0253906 Z M160.546875,43.0605469 L162.841797,43.0605469 C162.382812,45.0039062 160.615234,46.2148438 158.095703,46.2148438 C154.951172,46.2148438 153.056641,44.1347656 153.056641,40.6972656 C153.056641,37.2597656 154.980469,35.1015625 158.076172,35.1015625 C161.123047,35.1015625 162.949219,37.1230469 162.949219,40.4921875 L162.949219,41.2734375 L155.488281,41.2734375 L155.488281,41.4003906 C155.546875,43.1777344 156.572266,44.2910156 158.164062,44.2910156 C159.365234,44.2910156 160.195312,43.8515625 160.546875,43.0605469 Z M170.966797,31.9082031 L176.25,31.9082031 C180.439453,31.9082031 182.880859,34.4667969 182.880859,38.890625 C182.880859,43.4121094 180.46875,46 176.25,46 L170.966797,46 L170.966797,31.9082031 Z M173.486328,34.0859375 L173.486328,43.8222656 L175.917969,43.8222656 C178.720703,43.8222656 180.3125,42.0742188 180.3125,38.9296875 C180.3125,35.8535156 178.681641,34.0859375 175.917969,34.0859375 L173.486328,34.0859375 Z M190.107422,44.1835938 C191.796875,44.1835938 192.753906,42.8945312 192.753906,40.6582031 C192.753906,38.4316406 191.787109,37.1328125 190.107422,37.1328125 C188.417969,37.1328125 187.451172,38.4316406 187.451172,40.6582031 C187.451172,42.8945312 188.417969,44.1835938 190.107422,44.1835938 Z M190.107422,46.2148438 C186.904297,46.2148438 184.970703,44.125 184.970703,40.6582031 C184.970703,37.2109375 186.933594,35.1015625 190.107422,35.1015625 C193.291016,35.1015625 195.244141,37.2011719 195.244141,40.6582031 C195.244141,44.125 193.300781,46.2148438 190.107422,46.2148438 Z M202.167969,37.0253906 C200.722656,37.0253906 199.707031,38.0605469 199.599609,39.6230469 L204.628906,39.6230469 C204.580078,38.0410156 203.623047,37.0253906 202.167969,37.0253906 Z M204.648438,43.0605469 L206.943359,43.0605469 C206.484375,45.0039062 204.716797,46.2148438 202.197266,46.2148438 C199.052734,46.2148438 197.158203,44.1347656 197.158203,40.6972656 C197.158203,37.2597656 199.082031,35.1015625 202.177734,35.1015625 C205.224609,35.1015625 207.050781,37.1230469 207.050781,40.4921875 L207.050781,41.2734375 L199.589844,41.2734375 L199.589844,41.4003906 C199.648438,43.1777344 200.673828,44.2910156 202.265625,44.2910156 C203.466797,44.2910156 204.296875,43.8515625 204.648438,43.0605469 Z" id="Session-4-–-Jane-Doe" fill="#24124D"></path>
            </g>
            <g transform="translate(272.000000, 106.000000)">
                <rect id="Rectangle-9" fill="#DCD5EE" x="0" y="0" width="66" height="24" rx="4"></rect>
                <text id="Search" font-family="SFUIText-Bold, SF UI Text" font-size="14" font-weight="bold" fill="#512DA8">
                    <tspan x="8" y="17">Search</tspan>
                </text>
            </g>
            <g transform="translate(272.000000, 170.000000)">
                <rect id="Rectangle-9" fill="#DCE6FE" x="0" y="0" width="96" height="24" rx="4"></rect>
                <text id="No-context" font-family="SFUIText-Bold, SF UI Text" font-size="14" font-weight="bold" fill="#305DC8">
                    <tspan x="8" y="17">No context</tspan>
                </text>
            </g>
            <g transform="translate(272.000000, 218.000000)">
                <rect id="Rectangle-9" fill="#FFF0CC" x="0" y="0" width="96" height="24" rx="4"></rect>
                <text id="Wayfinding" font-family="SFUIText-Bold, SF UI Text" font-size="14" font-weight="bold" fill="#BC611F">
                    <tspan x="8" y="17">Wayfinding</tspan>
                </text>
            </g>
        </g>
    </g>
</svg>