<?xml version="1.0" encoding="UTF-8"?>
<svg width="400px" height="320px" viewBox="0 0 400 320" version="1.1" xmlns="http://www.w3.org/2000/svg" xmlns:xlink="http://www.w3.org/1999/xlink">
    <!-- Generator: Sketch 51 (57462) - http://www.bohemiancoding.com/sketch -->
    <title>snippet/editor</title>
    <desc>Created with Sketch.</desc>
    <defs></defs>
    <g id="snippet/editor" stroke="none" stroke-width="1" fill="none" fill-rule="evenodd">
        <g id="Group" transform="translate(16.000000, 26.000000)">
            <g>
                <path d="M2.57226562,1.54492188 L2.57226562,6.94726563 C2.57226562,8.08984375 3.28710938,8.85742188 4.54101562,8.85742188 C5.79492188,8.85742188 6.50390625,8.08984375 6.50390625,6.94726563 L6.50390625,1.54492188 L8.015625,1.54492188 L8.015625,7.08789062 C8.015625,8.93359375 6.6796875,10.2109375 4.54101562,10.2109375 C2.40234375,10.2109375 1.06640625,8.93359375 1.06640625,7.08789062 L1.06640625,1.54492188 L2.57226562,1.54492188 Z M9.8203125,5.42382813 C9.8203125,4.26367188 10.875,3.4609375 12.3867188,3.4609375 C13.9101562,3.4609375 14.8652344,4.13476562 14.9707031,5.30078125 L13.6054688,5.30078125 C13.5,4.84960938 13.0722656,4.5625 12.3925781,4.5625 C11.7304688,4.5625 11.2324219,4.87890625 11.2324219,5.34179688 C11.2324219,5.70507813 11.5371094,5.92773438 12.1816406,6.07421875 L13.3125,6.33203125 C14.5371094,6.60742188 15.1054688,7.13476562 15.1054688,8.078125 C15.1054688,9.30859375 13.9746094,10.1289063 12.375,10.1289063 C10.7753906,10.1289063 9.76757812,9.4375 9.65625,8.27148438 L11.0917969,8.27148438 C11.2324219,8.74609375 11.6835938,9.02734375 12.4101562,9.02734375 C13.1425781,9.02734375 13.6523438,8.70507813 13.6523438,8.23046875 C13.6523438,7.8671875 13.3769531,7.63867188 12.7675781,7.50390625 L11.6308594,7.24023438 C10.4003906,6.95898438 9.8203125,6.390625 9.8203125,5.42382813 Z M19.265625,4.61523438 C18.3984375,4.61523438 17.7890625,5.23632812 17.7246094,6.17382812 L20.7421875,6.17382812 C20.7128906,5.22460938 20.1386719,4.61523438 19.265625,4.61523438 Z M20.7539062,8.23632813 L22.1308594,8.23632813 C21.8554688,9.40234375 20.7949219,10.1289063 19.2832031,10.1289063 C17.3964844,10.1289063 16.2597656,8.88085938 16.2597656,6.81835938 C16.2597656,4.75585938 17.4140625,3.4609375 19.2714844,3.4609375 C21.0996094,3.4609375 22.1953125,4.67382812 22.1953125,6.6953125 L22.1953125,7.1640625 L17.71875,7.1640625 L17.71875,7.24023438 C17.7539062,8.30664063 18.3691406,8.97460938 19.3242188,8.97460938 C20.0449219,8.97460938 20.5429688,8.7109375 20.7539062,8.23632813 Z M23.6542969,10 L23.6542969,3.58984375 L25.0546875,3.58984375 L25.0546875,4.5859375 L25.1542969,4.5859375 C25.3300781,3.953125 26.015625,3.484375 26.8359375,3.484375 C27.0410156,3.484375 27.2929688,3.5078125 27.4335938,3.54882812 L27.4335938,4.89648438 C27.3222656,4.85546875 26.9238281,4.81445313 26.6953125,4.81445313 C25.7636719,4.81445313 25.1074219,5.40039063 25.1074219,6.296875 L25.1074219,10 L23.6542969,10 Z M32.2382812,2.06054688 L33.6855469,2.06054688 L33.6855469,3.63085938 L35.0917969,3.63085938 L35.0917969,4.79101562 L33.6855469,4.79101562 L33.6855469,7.9375 C33.6855469,8.5703125 33.9550781,8.8515625 34.5644531,8.8515625 C34.7695312,8.8515625 34.875,8.83984375 35.0449219,8.82226562 L35.0449219,9.95898438 C34.8398438,10 34.5761719,10.0292969 34.2949219,10.0292969 C32.8242188,10.0292969 32.2382812,9.53125 32.2382812,8.2890625 L32.2382812,4.79101562 L31.1953125,4.79101562 L31.1953125,3.63085938 L32.2382812,3.63085938 L32.2382812,2.06054688 Z M39.1992188,4.61523438 C38.3320312,4.61523438 37.7226562,5.23632812 37.6582031,6.17382812 L40.6757812,6.17382812 C40.6464844,5.22460938 40.0722656,4.61523438 39.1992188,4.61523438 Z M40.6875,8.23632813 L42.0644531,8.23632813 C41.7890625,9.40234375 40.7285156,10.1289063 39.2167969,10.1289063 C37.3300781,10.1289063 36.1933594,8.88085938 36.1933594,6.81835938 C36.1933594,4.75585938 37.3476562,3.4609375 39.2050781,3.4609375 C41.0332031,3.4609375 42.1289062,4.67382812 42.1289062,6.6953125 L42.1289062,7.1640625 L37.6523437,7.1640625 L37.6523437,7.24023438 C37.6875,8.30664063 38.3027344,8.97460938 39.2578125,8.97460938 C39.9785156,8.97460938 40.4765625,8.7109375 40.6875,8.23632813 Z M43.4414062,5.42382813 C43.4414062,4.26367188 44.4960937,3.4609375 46.0078125,3.4609375 C47.53125,3.4609375 48.4863281,4.13476562 48.5917969,5.30078125 L47.2265625,5.30078125 C47.1210937,4.84960938 46.6933594,4.5625 46.0136719,4.5625 C45.3515625,4.5625 44.8535156,4.87890625 44.8535156,5.34179688 C44.8535156,5.70507813 45.1582031,5.92773438 45.8027344,6.07421875 L46.9335937,6.33203125 C48.1582031,6.60742188 48.7265625,7.13476562 48.7265625,8.078125 C48.7265625,9.30859375 47.5957031,10.1289063 45.9960937,10.1289063 C44.3964844,10.1289063 43.3886719,9.4375 43.2773437,8.27148438 L44.7128906,8.27148438 C44.8535156,8.74609375 45.3046875,9.02734375 46.03125,9.02734375 C46.7636719,9.02734375 47.2734375,8.70507813 47.2734375,8.23046875 C47.2734375,7.8671875 46.9980469,7.63867188 46.3886719,7.50390625 L45.2519531,7.24023438 C44.0214844,6.95898438 43.4414062,6.390625 43.4414062,5.42382813 Z M50.6601562,2.06054688 L52.1074219,2.06054688 L52.1074219,3.63085938 L53.5136719,3.63085938 L53.5136719,4.79101562 L52.1074219,4.79101562 L52.1074219,7.9375 C52.1074219,8.5703125 52.3769531,8.8515625 52.9863281,8.8515625 C53.1914062,8.8515625 53.296875,8.83984375 53.4667969,8.82226562 L53.4667969,9.95898438 C53.2617188,10 52.9980469,10.0292969 52.7167969,10.0292969 C51.2460938,10.0292969 50.6601562,9.53125 50.6601562,8.2890625 L50.6601562,4.79101562 L49.6171875,4.79101562 L49.6171875,3.63085938 L50.6601562,3.63085938 L50.6601562,2.06054688 Z M54.9492188,10 L54.9492188,3.58984375 L56.3964844,3.58984375 L56.3964844,10 L54.9492188,10 Z M55.6699219,2.546875 C55.1425781,2.546875 54.7734375,2.20703125 54.7734375,1.74414062 C54.7734375,1.28125 55.1425781,0.94140625 55.6699219,0.94140625 C56.203125,0.94140625 56.5664062,1.28125 56.5664062,1.74414062 C56.5664062,2.20703125 56.203125,2.546875 55.6699219,2.546875 Z M58.1953125,10 L58.1953125,3.58984375 L59.5957031,3.58984375 L59.5957031,4.61523438 L59.6953125,4.61523438 C60,3.90039062 60.75,3.4609375 61.7109375,3.4609375 C63.140625,3.4609375 63.9433594,4.32226562 63.9433594,5.8515625 L63.9433594,10 L62.4960938,10 L62.4960938,6.19726562 C62.4960938,5.21875 62.0507812,4.7265625 61.171875,4.7265625 C60.234375,4.7265625 59.6484375,5.32421875 59.6484375,6.26757812 L59.6484375,10 L58.1953125,10 Z M70.0429687,6.72460938 C70.0429687,5.5 69.4277344,4.72070312 68.4199219,4.72070312 C67.40625,4.72070312 66.8320312,5.5 66.8320312,6.72460938 C66.8320312,7.94921875 67.40625,8.72265625 68.4199219,8.72265625 C69.4335937,8.72265625 70.0429687,7.94921875 70.0429687,6.72460938 Z M68.4199219,12.4375 C66.7734375,12.4375 65.6953125,11.7109375 65.578125,10.609375 L67.0371094,10.609375 C67.1308594,11.0488281 67.6464844,11.3300781 68.4433594,11.3300781 C69.4394531,11.3300781 70.0195312,10.8613281 70.0195312,10.0585938 L70.0195312,8.84570312 L69.9199219,8.84570312 C69.5507812,9.53125 68.8535156,9.90625 67.9628906,9.90625 C66.3457031,9.90625 65.3378906,8.65234375 65.3378906,6.72460938 C65.3378906,4.76171875 66.3515625,3.484375 67.9863281,3.484375 C68.859375,3.484375 69.6210938,3.91796875 69.9726562,4.61523438 L70.0722656,4.61523438 L70.0722656,3.58984375 L71.4726562,3.58984375 L71.4726562,10.0234375 C71.4726562,11.5058594 70.2890625,12.4375 68.4199219,12.4375 Z M76.3066406,5.42382813 C76.3066406,4.26367188 77.3613281,3.4609375 78.8730469,3.4609375 C80.3964844,3.4609375 81.3515625,4.13476562 81.4570312,5.30078125 L80.0917969,5.30078125 C79.9863281,4.84960938 79.5585938,4.5625 78.8789062,4.5625 C78.2167969,4.5625 77.71875,4.87890625 77.71875,5.34179688 C77.71875,5.70507813 78.0234375,5.92773438 78.6679688,6.07421875 L79.7988281,6.33203125 C81.0234375,6.60742188 81.5917969,7.13476562 81.5917969,8.078125 C81.5917969,9.30859375 80.4609375,10.1289063 78.8613281,10.1289063 C77.2617188,10.1289063 76.2539062,9.4375 76.1425781,8.27148438 L77.578125,8.27148438 C77.71875,8.74609375 78.1699219,9.02734375 78.8964844,9.02734375 C79.6289062,9.02734375 80.1386719,8.70507813 80.1386719,8.23046875 C80.1386719,7.8671875 79.8632812,7.63867188 79.2539062,7.50390625 L78.1171875,7.24023438 C76.8867188,6.95898438 76.3066406,6.390625 76.3066406,5.42382813 Z M85.7519531,4.61523438 C84.8847656,4.61523438 84.2753906,5.23632812 84.2109375,6.17382812 L87.2285156,6.17382812 C87.1992187,5.22460938 86.625,4.61523438 85.7519531,4.61523438 Z M87.2402344,8.23632813 L88.6171875,8.23632813 C88.3417969,9.40234375 87.28125,10.1289063 85.7695312,10.1289063 C83.8828125,10.1289063 82.7460938,8.88085938 82.7460938,6.81835938 C82.7460938,4.75585938 83.9003906,3.4609375 85.7578125,3.4609375 C87.5859375,3.4609375 88.6816406,4.67382812 88.6816406,6.6953125 L88.6816406,7.1640625 L84.2050781,7.1640625 L84.2050781,7.24023438 C84.2402344,8.30664063 84.8554688,8.97460938 85.8105469,8.97460938 C86.53125,8.97460938 87.0292969,8.7109375 87.2402344,8.23632813 Z M89.9941406,5.42382813 C89.9941406,4.26367188 91.0488281,3.4609375 92.5605469,3.4609375 C94.0839844,3.4609375 95.0390625,4.13476562 95.1445312,5.30078125 L93.7792969,5.30078125 C93.6738281,4.84960938 93.2460937,4.5625 92.5664062,4.5625 C91.9042969,4.5625 91.40625,4.87890625 91.40625,5.34179688 C91.40625,5.70507813 91.7109375,5.92773438 92.3554687,6.07421875 L93.4863281,6.33203125 C94.7109375,6.60742188 95.2792969,7.13476562 95.2792969,8.078125 C95.2792969,9.30859375 94.1484375,10.1289063 92.5488281,10.1289063 C90.9492187,10.1289063 89.9414062,9.4375 89.8300781,8.27148438 L91.265625,8.27148438 C91.40625,8.74609375 91.8574219,9.02734375 92.5839844,9.02734375 C93.3164062,9.02734375 93.8261719,8.70507813 93.8261719,8.23046875 C93.8261719,7.8671875 93.5507812,7.63867188 92.9414062,7.50390625 L91.8046875,7.24023438 C90.5742187,6.95898438 89.9941406,6.390625 89.9941406,5.42382813 Z M96.6035156,5.42382813 C96.6035156,4.26367188 97.6582031,3.4609375 99.1699219,3.4609375 C100.693359,3.4609375 101.648437,4.13476562 101.753906,5.30078125 L100.388672,5.30078125 C100.283203,4.84960938 99.8554687,4.5625 99.1757812,4.5625 C98.5136719,4.5625 98.015625,4.87890625 98.015625,5.34179688 C98.015625,5.70507813 98.3203125,5.92773438 98.9648437,6.07421875 L100.095703,6.33203125 C101.320312,6.60742188 101.888672,7.13476562 101.888672,8.078125 C101.888672,9.30859375 100.757812,10.1289063 99.1582031,10.1289063 C97.5585937,10.1289063 96.5507812,9.4375 96.4394531,8.27148438 L97.875,8.27148438 C98.015625,8.74609375 98.4667969,9.02734375 99.1933594,9.02734375 C99.9257812,9.02734375 100.435547,8.70507813 100.435547,8.23046875 C100.435547,7.8671875 100.160156,7.63867188 99.5507812,7.50390625 L98.4140625,7.24023438 C97.1835937,6.95898438 96.6035156,6.390625 96.6035156,5.42382813 Z M103.376953,10 L103.376953,3.58984375 L104.824219,3.58984375 L104.824219,10 L103.376953,10 Z M104.097656,2.546875 C103.570312,2.546875 103.201172,2.20703125 103.201172,1.74414062 C103.201172,1.28125 103.570312,0.94140625 104.097656,0.94140625 C104.630859,0.94140625 104.994141,1.28125 104.994141,1.74414062 C104.994141,2.20703125 104.630859,2.546875 104.097656,2.546875 Z M109.388672,8.91015625 C110.402344,8.91015625 110.976562,8.13671875 110.976562,6.79492188 C110.976562,5.45898438 110.396484,4.6796875 109.388672,4.6796875 C108.375,4.6796875 107.794922,5.45898438 107.794922,6.79492188 C107.794922,8.13671875 108.375,8.91015625 109.388672,8.91015625 Z M109.388672,10.1289063 C107.466797,10.1289063 106.306641,8.875 106.306641,6.79492188 C106.306641,4.7265625 107.484375,3.4609375 109.388672,3.4609375 C111.298828,3.4609375 112.470703,4.72070313 112.470703,6.79492188 C112.470703,8.875 111.304688,10.1289063 109.388672,10.1289063 Z M113.935547,10 L113.935547,3.58984375 L115.335938,3.58984375 L115.335938,4.61523438 L115.435547,4.61523438 C115.740234,3.90039062 116.490234,3.4609375 117.451172,3.4609375 C118.880859,3.4609375 119.683594,4.32226562 119.683594,5.8515625 L119.683594,10 L118.236328,10 L118.236328,6.19726562 C118.236328,5.21875 117.791016,4.7265625 116.912109,4.7265625 C115.974609,4.7265625 115.388672,5.32421875 115.388672,6.26757812 L115.388672,10 L113.935547,10 Z M121.259766,5.42382813 C121.259766,4.26367188 122.314453,3.4609375 123.826172,3.4609375 C125.349609,3.4609375 126.304688,4.13476562 126.410156,5.30078125 L125.044922,5.30078125 C124.939453,4.84960938 124.511719,4.5625 123.832031,4.5625 C123.169922,4.5625 122.671875,4.87890625 122.671875,5.34179688 C122.671875,5.70507813 122.976562,5.92773438 123.621094,6.07421875 L124.751953,6.33203125 C125.976562,6.60742188 126.544922,7.13476562 126.544922,8.078125 C126.544922,9.30859375 125.414062,10.1289063 123.814453,10.1289063 C122.214844,10.1289063 121.207031,9.4375 121.095703,8.27148438 L122.53125,8.27148438 C122.671875,8.74609375 123.123047,9.02734375 123.849609,9.02734375 C124.582031,9.02734375 125.091797,8.70507813 125.091797,8.23046875 C125.091797,7.8671875 124.816406,7.63867188 124.207031,7.50390625 L123.070312,7.24023438 C121.839844,6.95898438 121.259766,6.390625 121.259766,5.42382813 Z" id="User-testing-session" fill="#24124D" opacity="0.600000024"></path>
                <rect id="Rectangle-9" fill="#DCD5EE" x="0" y="78" width="248" height="12" rx="4"></rect>
                <rect id="Rectangle-9" fill="#DCD5EE" x="0" y="110" width="136" height="12" rx="4"></rect>
                <rect id="Rectangle-9" fill="#512DA8" x="152" y="110" width="96" height="12" rx="4"></rect>
                <rect id="Rectangle-9" fill="#512DA8" x="0" y="142" width="64" height="12" rx="4"></rect>
                <rect id="Rectangle-9" fill="#DCD5EE" x="80" y="142" width="144" height="12" rx="4"></rect>
                <rect id="Rectangle-9" fill="#F84F77" x="0" y="174" width="168" height="12" rx="4"></rect>
                <rect id="Rectangle-9" fill="#DCD5EE" x="0" y="222" width="96" height="12" rx="4"></rect>
                <rect id="Rectangle-9" fill="#FFB300" x="112" y="222" width="136" height="12" rx="4"></rect>
                <rect id="Rectangle-9" fill="#FFB300" x="0" y="254" width="136" height="12" rx="4"></rect>
                <path d="M1.09375,42.171875 L3.5546875,42.171875 C3.7109375,43.4316406 4.9609375,44.2421875 6.74804688,44.2421875 C8.40820312,44.2421875 9.609375,43.3925781 9.609375,42.2109375 C9.609375,41.1953125 8.83789063,40.5996094 7.03125,40.1796875 L5.20507812,39.7597656 C2.64648438,39.1835938 1.4453125,37.9140625 1.4453125,35.8144531 C1.4453125,33.2558594 3.53515625,31.5566406 6.68945313,31.5566406 C9.6484375,31.5566406 11.7871094,33.2558594 11.9042969,35.6777344 L9.4921875,35.6777344 C9.31640625,34.4375 8.22265625,33.65625 6.6796875,33.65625 C5.05859375,33.65625 3.984375,34.4375 3.984375,35.6386719 C3.984375,36.5859375 4.69726562,37.1425781 6.4453125,37.5429688 L8.06640625,37.9140625 C10.9277344,38.5585938 12.1289062,39.75 12.1289062,41.8984375 C12.1289062,44.6425781 10.0097656,46.3515625 6.59179688,46.3515625 C3.359375,46.3515625 1.22070312,44.7304688 1.09375,42.171875 Z M19.1894531,37.0253906 C17.7441406,37.0253906 16.7285156,38.0605469 16.6210938,39.6230469 L21.6503906,39.6230469 C21.6015625,38.0410156 20.6445312,37.0253906 19.1894531,37.0253906 Z M21.6699219,43.0605469 L23.9648438,43.0605469 C23.5058594,45.0039062 21.7382812,46.2148438 19.21875,46.2148438 C16.0742188,46.2148438 14.1796875,44.1347656 14.1796875,40.6972656 C14.1796875,37.2597656 16.1035156,35.1015625 19.1992188,35.1015625 C22.2460938,35.1015625 24.0722656,37.1230469 24.0722656,40.4921875 L24.0722656,41.2734375 L16.6113281,41.2734375 L16.6113281,41.4003906 C16.6699219,43.1777344 17.6953125,44.2910156 19.2871094,44.2910156 C20.4882812,44.2910156 21.3183594,43.8515625 21.6699219,43.0605469 Z M26.2597656,38.3730469 C26.2597656,36.4394531 28.0175781,35.1015625 30.5371094,35.1015625 C33.0761719,35.1015625 34.6679688,36.2246094 34.84375,38.1679688 L32.5683594,38.1679688 C32.3925781,37.4160156 31.6796875,36.9375 30.546875,36.9375 C29.4433594,36.9375 28.6132812,37.4648438 28.6132812,38.2363281 C28.6132812,38.8417969 29.1210938,39.2128906 30.1953125,39.4570312 L32.0800781,39.8867188 C34.1210938,40.3457031 35.0683594,41.2246094 35.0683594,42.796875 C35.0683594,44.8476562 33.1835938,46.2148438 30.5175781,46.2148438 C27.8515625,46.2148438 26.171875,45.0625 25.9863281,43.1191406 L28.3789062,43.1191406 C28.6132812,43.9101562 29.3652344,44.3789062 30.5761719,44.3789062 C31.796875,44.3789062 32.6464844,43.8417969 32.6464844,43.0507812 C32.6464844,42.4453125 32.1875,42.0644531 31.171875,41.8398438 L29.2773438,41.4003906 C27.2265625,40.9316406 26.2597656,39.984375 26.2597656,38.3730469 Z M37.2753906,38.3730469 C37.2753906,36.4394531 39.0332031,35.1015625 41.5527344,35.1015625 C44.0917969,35.1015625 45.6835938,36.2246094 45.859375,38.1679688 L43.5839844,38.1679688 C43.4082031,37.4160156 42.6953125,36.9375 41.5625,36.9375 C40.4589844,36.9375 39.6289062,37.4648438 39.6289062,38.2363281 C39.6289062,38.8417969 40.1367188,39.2128906 41.2109375,39.4570312 L43.0957031,39.8867188 C45.1367188,40.3457031 46.0839844,41.2246094 46.0839844,42.796875 C46.0839844,44.8476562 44.1992188,46.2148438 41.5332031,46.2148438 C38.8671875,46.2148438 37.1875,45.0625 37.0019531,43.1191406 L39.3945312,43.1191406 C39.6289062,43.9101562 40.3808594,44.3789062 41.5917969,44.3789062 C42.8125,44.3789062 43.6621094,43.8417969 43.6621094,43.0507812 C43.6621094,42.4453125 43.203125,42.0644531 42.1875,41.8398438 L40.2929688,41.4003906 C38.2421875,40.9316406 37.2753906,39.984375 37.2753906,38.3730469 Z M48.5644531,46 L48.5644531,35.3164062 L50.9765625,35.3164062 L50.9765625,46 L48.5644531,46 Z M49.765625,33.578125 C48.8867187,33.578125 48.2714844,33.0117188 48.2714844,32.2402344 C48.2714844,31.46875 48.8867187,30.9023438 49.765625,30.9023438 C50.6542969,30.9023438 51.2597656,31.46875 51.2597656,32.2402344 C51.2597656,33.0117188 50.6542969,33.578125 49.765625,33.578125 Z M58.5839844,44.1835938 C60.2734375,44.1835938 61.2304688,42.8945312 61.2304688,40.6582031 C61.2304688,38.4316406 60.2636719,37.1328125 58.5839844,37.1328125 C56.8945312,37.1328125 55.9277344,38.4316406 55.9277344,40.6582031 C55.9277344,42.8945312 56.8945312,44.1835938 58.5839844,44.1835938 Z M58.5839844,46.2148438 C55.3808594,46.2148438 53.4472656,44.125 53.4472656,40.6582031 C53.4472656,37.2109375 55.4101562,35.1015625 58.5839844,35.1015625 C61.7675781,35.1015625 63.7207031,37.2011719 63.7207031,40.6582031 C63.7207031,44.125 61.7773437,46.2148438 58.5839844,46.2148438 Z M66.1621094,46 L66.1621094,35.3164062 L68.4960938,35.3164062 L68.4960938,37.0253906 L68.6621094,37.0253906 C69.1699219,35.8339844 70.4199219,35.1015625 72.0214844,35.1015625 C74.4042969,35.1015625 75.7421875,36.5371094 75.7421875,39.0859375 L75.7421875,46 L73.3300781,46 L73.3300781,39.6621094 C73.3300781,38.03125 72.5878906,37.2109375 71.1230469,37.2109375 C69.5605469,37.2109375 68.5839844,38.2070312 68.5839844,39.7792969 L68.5839844,46 L66.1621094,46 Z M90.46875,46 L90.46875,43.3730469 L83.5839844,43.3730469 L83.5839844,41.1269531 C84.8535156,38.7929688 86.8359375,35.6582031 89.3261719,31.9082031 L92.8808594,31.9082031 L92.8808594,41.2441406 L94.7851562,41.2441406 L94.7851562,43.3730469 L92.8808594,43.3730469 L92.8808594,46 L90.46875,46 Z M85.9179688,41.15625 L85.9179688,41.3027344 L90.5078125,41.3027344 L90.5078125,33.9589844 L90.3710938,33.9589844 C89.0234375,35.9511719 87.5585938,38.265625 85.9179688,41.15625 Z M111.240234,41.4589844 L101.240234,41.4589844 L101.240234,39.1835938 L111.240234,39.1835938 L111.240234,41.4589844 Z M117.34375,42.1621094 L119.804688,42.1621094 C119.824219,43.3242188 120.625,44.0859375 121.826172,44.0859375 C123.144531,44.0859375 123.876953,43.2851562 123.876953,41.7714844 L123.876953,31.9082031 L126.396484,31.9082031 L126.396484,41.7910156 C126.396484,44.6914062 124.6875,46.3515625 121.855469,46.3515625 C119.160156,46.3515625 117.34375,44.7109375 117.34375,42.1621094 Z M133.271484,44.2714844 C134.736328,44.2714844 135.830078,43.3242188 135.830078,42.0839844 L135.830078,41.234375 L133.417969,41.390625 C132.060547,41.4785156 131.425781,41.9667969 131.425781,42.8359375 C131.425781,43.734375 132.197266,44.2714844 133.271484,44.2714844 Z M132.558594,46.1757812 C130.498047,46.1757812 129.023438,44.9257812 129.023438,42.9726562 C129.023438,41.0390625 130.478516,39.9257812 133.076172,39.7695312 L135.830078,39.6035156 L135.830078,38.7050781 C135.830078,37.6601562 135.126953,37.0742188 133.818359,37.0742188 C132.705078,37.0742188 131.943359,37.4648438 131.71875,38.1875 L129.433594,38.1875 C129.628906,36.3027344 131.396484,35.1015625 133.935547,35.1015625 C136.679688,35.1015625 138.222656,36.4394531 138.222656,38.7050781 L138.222656,46 L135.888672,46 L135.888672,44.5351562 L135.722656,44.5351562 C135.126953,45.5703125 133.955078,46.1757812 132.558594,46.1757812 Z M141.132812,46 L141.132812,35.3164062 L143.466797,35.3164062 L143.466797,37.0253906 L143.632812,37.0253906 C144.140625,35.8339844 145.390625,35.1015625 146.992188,35.1015625 C149.375,35.1015625 150.712891,36.5371094 150.712891,39.0859375 L150.712891,46 L148.300781,46 L148.300781,39.6621094 C148.300781,38.03125 147.558594,37.2109375 146.09375,37.2109375 C144.53125,37.2109375 143.554688,38.2070312 143.554688,39.7792969 L143.554688,46 L141.132812,46 Z M158.066406,37.0253906 C156.621094,37.0253906 155.605469,38.0605469 155.498047,39.6230469 L160.527344,39.6230469 C160.478516,38.0410156 159.521484,37.0253906 158.066406,37.0253906 Z M160.546875,43.0605469 L162.841797,43.0605469 C162.382812,45.0039062 160.615234,46.2148438 158.095703,46.2148438 C154.951172,46.2148438 153.056641,44.1347656 153.056641,40.6972656 C153.056641,37.2597656 154.980469,35.1015625 158.076172,35.1015625 C161.123047,35.1015625 162.949219,37.1230469 162.949219,40.4921875 L162.949219,41.2734375 L155.488281,41.2734375 L155.488281,41.4003906 C155.546875,43.1777344 156.572266,44.2910156 158.164062,44.2910156 C159.365234,44.2910156 160.195312,43.8515625 160.546875,43.0605469 Z M170.966797,31.9082031 L176.25,31.9082031 C180.439453,31.9082031 182.880859,34.4667969 182.880859,38.890625 C182.880859,43.4121094 180.46875,46 176.25,46 L170.966797,46 L170.966797,31.9082031 Z M173.486328,34.0859375 L173.486328,43.8222656 L175.917969,43.8222656 C178.720703,43.8222656 180.3125,42.0742188 180.3125,38.9296875 C180.3125,35.8535156 178.681641,34.0859375 175.917969,34.0859375 L173.486328,34.0859375 Z M190.107422,44.1835938 C191.796875,44.1835938 192.753906,42.8945312 192.753906,40.6582031 C192.753906,38.4316406 191.787109,37.1328125 190.107422,37.1328125 C188.417969,37.1328125 187.451172,38.4316406 187.451172,40.6582031 C187.451172,42.8945312 188.417969,44.1835938 190.107422,44.1835938 Z M190.107422,46.2148438 C186.904297,46.2148438 184.970703,44.125 184.970703,40.6582031 C184.970703,37.2109375 186.933594,35.1015625 190.107422,35.1015625 C193.291016,35.1015625 195.244141,37.2011719 195.244141,40.6582031 C195.244141,44.125 193.300781,46.2148438 190.107422,46.2148438 Z M202.167969,37.0253906 C200.722656,37.0253906 199.707031,38.0605469 199.599609,39.6230469 L204.628906,39.6230469 C204.580078,38.0410156 203.623047,37.0253906 202.167969,37.0253906 Z M204.648438,43.0605469 L206.943359,43.0605469 C206.484375,45.0039062 204.716797,46.2148438 202.197266,46.2148438 C199.052734,46.2148438 197.158203,44.1347656 197.158203,40.6972656 C197.158203,37.2597656 199.082031,35.1015625 202.177734,35.1015625 C205.224609,35.1015625 207.050781,37.1230469 207.050781,40.4921875 L207.050781,41.2734375 L199.589844,41.2734375 L199.589844,41.4003906 C199.648438,43.1777344 200.673828,44.2910156 202.265625,44.2910156 C203.466797,44.2910156 204.296875,43.8515625 204.648438,43.0605469 Z" id="Session-4-–-Jane-Doe" fill="#24124D"></path>
            </g>
            <g transform="translate(272.000000, 106.000000)">
                <rect id="Rectangle-9" fill="#DCD5EE" x="0" y="0" width="66" height="24" rx="4"></rect>
                <path d="M8.75195312,14.2587891 L10.7480469,14.2587891 C10.84375,15.0585938 11.6503906,15.5712891 12.8125,15.5712891 C13.8857422,15.5712891 14.6445312,15.0517578 14.6445312,14.3066406 C14.6445312,13.6777344 14.1523438,13.3154297 12.9423828,13.0556641 L11.6572266,12.7822266 C9.859375,12.40625 8.97753906,11.4697266 8.97753906,9.96582031 C8.97753906,8.10644531 10.4746094,6.8828125 12.7509766,6.8828125 C14.9248047,6.8828125 16.4628906,8.09960938 16.5244141,9.85644531 L14.5830078,9.85644531 C14.4873047,9.07714844 13.7626953,8.55761719 12.7646484,8.55761719 C11.7324219,8.55761719 11.0488281,9.03613281 11.0488281,9.78808594 C11.0488281,10.3964844 11.5205078,10.7451172 12.6757812,10.9912109 L13.8652344,11.2441406 C15.8476562,11.6611328 16.7021484,12.515625 16.7021484,14.046875 C16.7021484,16.0361328 15.1777344,17.2529297 12.703125,17.2529297 C10.3515625,17.2529297 8.82714844,16.0976562 8.75195312,14.2587891 Z M21.7128906,10.8203125 C20.7900391,10.8203125 20.140625,11.4628906 20.0722656,12.4404297 L23.2851562,12.4404297 C23.2441406,11.4423828 22.6425781,10.8203125 21.7128906,10.8203125 Z M23.3261719,14.8535156 L25.1787109,14.8535156 C24.8779297,16.2753906 23.5791016,17.1640625 21.7333984,17.1640625 C19.4365234,17.1640625 18.0830078,15.7148438 18.0830078,13.2675781 C18.0830078,10.8134766 19.4638672,9.29589844 21.7060547,9.29589844 C23.9277344,9.29589844 25.2402344,10.7109375 25.2402344,13.1035156 L25.2402344,13.7119141 L20.0654297,13.7119141 L20.0654297,13.8144531 C20.0927734,14.9355469 20.7490234,15.6328125 21.7880859,15.6328125 C22.5742188,15.6328125 23.1142578,15.3525391 23.3261719,14.8535156 Z M29.5878906,15.6191406 C30.5107422,15.6191406 31.2080078,15.03125 31.2080078,14.265625 L31.2080078,13.7119141 L29.6835938,13.8076172 C28.8291016,13.8691406 28.4121094,14.1767578 28.4121094,14.7167969 C28.4121094,15.2773438 28.8974609,15.6191406 29.5878906,15.6191406 Z M28.9316406,17.1162109 C27.4824219,17.1162109 26.4638672,16.2275391 26.4638672,14.8466797 C26.4638672,13.4794922 27.5097656,12.6865234 29.3828125,12.5771484 L31.2080078,12.4677734 L31.2080078,11.8525391 C31.2080078,11.2236328 30.7568359,10.8681641 29.9365234,10.8681641 C29.21875,10.8681641 28.7402344,11.1142578 28.5761719,11.5654297 L26.7441406,11.5654297 C26.8740234,10.1708984 28.1523438,9.29589844 30.0458984,9.29589844 C32.0419922,9.29589844 33.1699219,10.2392578 33.1699219,11.8525391 L33.1699219,17 L31.2421875,17 L31.2421875,16.015625 L31.1191406,16.015625 C30.7294922,16.7060547 29.9091797,17.1162109 28.9316406,17.1162109 Z M35.125,17 L35.125,9.45996094 L37.0527344,9.45996094 L37.0527344,10.6630859 L37.1757812,10.6630859 C37.3740234,9.91113281 38.1464844,9.33691406 39.0898438,9.33691406 C39.3564453,9.33691406 39.6845703,9.37109375 39.8554688,9.43261719 L39.8554688,11.2441406 C39.6982422,11.1826172 39.2128906,11.1210938 38.9257812,11.1210938 C37.859375,11.1210938 37.1142578,11.7636719 37.1142578,12.8232422 L37.1142578,17 L35.125,17 Z M47.8398438,12.1191406 L45.9804688,12.1191406 C45.84375,11.4013672 45.3310547,10.9296875 44.4833984,10.9296875 C43.4101562,10.9296875 42.8085938,11.7294922 42.8085938,13.2128906 C42.8085938,14.7167969 43.4169922,15.5302734 44.4833984,15.5302734 C45.296875,15.5302734 45.8300781,15.1337891 45.9804688,14.3886719 L47.8398438,14.3886719 C47.6757812,16.0771484 46.4453125,17.1640625 44.4833984,17.1640625 C42.1318359,17.1640625 40.7988281,15.7421875 40.7988281,13.2128906 C40.7988281,10.7109375 42.125,9.29589844 44.4833984,9.29589844 C46.4794922,9.29589844 47.6757812,10.4033203 47.8398438,12.1191406 Z M49.4599609,17 L49.4599609,6.58203125 L51.4150391,6.58203125 L51.4150391,10.6972656 L51.5380859,10.6972656 C51.8867188,9.8359375 52.7958984,9.31640625 53.9033203,9.31640625 C55.578125,9.31640625 56.5693359,10.3349609 56.5693359,12.1464844 L56.5693359,17 L54.5800781,17 L54.5800781,12.6181641 C54.5800781,11.5722656 54.0537109,11.0322266 53.1035156,11.0322266 C52.1054688,11.0322266 51.4492188,11.6953125 51.4492188,12.6728516 L51.4492188,17 L49.4599609,17 Z" id="Search" fill="#512DA8"></path>
            </g>
            <g transform="translate(272.000000, 166.000000)">
                <rect id="Rectangle-9" fill="#FEDCE4" x="0" y="0" width="80" height="24" rx="4"></rect>
                <path d="M11.28125,7.13574219 L11.28125,13.3837891 C11.28125,14.6279297 12.0263672,15.4208984 13.3457031,15.4208984 C14.671875,15.4208984 15.4169922,14.6279297 15.4169922,13.3837891 L15.4169922,7.13574219 L17.4814453,7.13574219 L17.4814453,13.5957031 C17.4814453,15.7832031 15.875,17.2529297 13.3457031,17.2529297 C10.8232422,17.2529297 9.21679688,15.7832031 9.21679688,13.5957031 L9.21679688,7.13574219 L11.28125,7.13574219 Z M19.5185547,11.6748047 C19.5185547,10.2460938 20.7763672,9.29589844 22.65625,9.29589844 C24.5703125,9.29589844 25.6982422,10.0957031 25.8076172,11.5380859 L23.96875,11.5380859 C23.8662109,11.0527344 23.4082031,10.7519531 22.6699219,10.7519531 C21.9589844,10.7519531 21.4326172,11.0732422 21.4326172,11.5517578 C21.4326172,11.9208984 21.7539062,12.1464844 22.4511719,12.3037109 L23.8662109,12.6113281 C25.3291016,12.9326172 25.9853516,13.5478516 25.9853516,14.6757812 C25.9853516,16.1796875 24.6386719,17.1640625 22.6630859,17.1640625 C20.6738281,17.1640625 19.4707031,16.3505859 19.3339844,14.9013672 L21.2753906,14.9013672 C21.4257812,15.4140625 21.9111328,15.7080078 22.7041016,15.7080078 C23.4765625,15.7080078 24.0097656,15.3867188 24.0097656,14.9013672 C24.0097656,14.5322266 23.7226562,14.3066406 23.0595703,14.1630859 L21.6923828,13.8554688 C20.2294922,13.5341797 19.5185547,12.8369141 19.5185547,11.6748047 Z M30.3398438,15.6191406 C31.2626953,15.6191406 31.9599609,15.03125 31.9599609,14.265625 L31.9599609,13.7119141 L30.4355469,13.8076172 C29.5810547,13.8691406 29.1640625,14.1767578 29.1640625,14.7167969 C29.1640625,15.2773438 29.6494141,15.6191406 30.3398438,15.6191406 Z M29.6835938,17.1162109 C28.234375,17.1162109 27.2158203,16.2275391 27.2158203,14.8466797 C27.2158203,13.4794922 28.2617188,12.6865234 30.1347656,12.5771484 L31.9599609,12.4677734 L31.9599609,11.8525391 C31.9599609,11.2236328 31.5087891,10.8681641 30.6884766,10.8681641 C29.9707031,10.8681641 29.4921875,11.1142578 29.328125,11.5654297 L27.4960938,11.5654297 C27.6259766,10.1708984 28.9042969,9.29589844 30.7978516,9.29589844 C32.7939453,9.29589844 33.921875,10.2392578 33.921875,11.8525391 L33.921875,17 L31.9941406,17 L31.9941406,16.015625 L31.8710938,16.015625 C31.4814453,16.7060547 30.6611328,17.1162109 29.6835938,17.1162109 Z M40.3203125,17.1162109 C39.2539062,17.1162109 38.3994141,16.6376953 37.9960938,15.8173828 L37.8730469,15.8173828 L37.8730469,17 L35.9453125,17 L35.9453125,6.58203125 L37.9345703,6.58203125 L37.9345703,10.6630859 L38.0576172,10.6630859 C38.4404297,9.8359375 39.2880859,9.33691406 40.3203125,9.33691406 C42.2275391,9.33691406 43.3759766,10.7929688 43.3759766,13.2265625 C43.3759766,15.6464844 42.2138672,17.1162109 40.3203125,17.1162109 Z M39.6298828,11.0048828 C38.5839844,11.0048828 37.9208984,11.859375 37.9140625,13.2333984 C37.9208984,14.6005859 38.5771484,15.4550781 39.6298828,15.4550781 C40.6894531,15.4550781 41.3320312,14.6074219 41.3320312,13.2265625 C41.3320312,11.8525391 40.6826172,11.0048828 39.6298828,11.0048828 Z M45.0097656,17 L45.0097656,9.45996094 L46.9990234,9.45996094 L46.9990234,17 L45.0097656,17 Z M46.0078125,8.40722656 C45.2900391,8.40722656 44.8320312,7.99023438 44.8320312,7.40234375 C44.8320312,6.80761719 45.2900391,6.39746094 46.0078125,6.39746094 C46.71875,6.39746094 47.1835938,6.80761719 47.1835938,7.40234375 C47.1835938,7.99023438 46.71875,8.40722656 46.0078125,8.40722656 Z M49.0771484,17 L49.0771484,6.58203125 L51.0664062,6.58203125 L51.0664062,17 L49.0771484,17 Z M53.1445312,17 L53.1445312,9.45996094 L55.1337891,9.45996094 L55.1337891,17 L53.1445312,17 Z M54.1425781,8.40722656 C53.4248047,8.40722656 52.9667969,7.99023438 52.9667969,7.40234375 C52.9667969,6.80761719 53.4248047,6.39746094 54.1425781,6.39746094 C54.8535156,6.39746094 55.3183594,6.80761719 55.3183594,7.40234375 C55.3183594,7.99023438 54.8535156,8.40722656 54.1425781,8.40722656 Z M57.7109375,7.703125 L59.7001953,7.703125 L59.7001953,9.53515625 L61.2998047,9.53515625 L61.2998047,11.1005859 L59.7001953,11.1005859 L59.7001953,14.4912109 C59.7001953,15.1474609 60.0009766,15.4482422 60.6777344,15.4482422 C60.9375,15.4482422 61.0673828,15.4414062 61.2587891,15.4208984 L61.2587891,16.9384766 C61.0126953,16.9863281 60.6503906,17.0273438 60.2675781,17.0273438 C58.4355469,17.0273438 57.7109375,16.4326172 57.7109375,14.9628906 L57.7109375,11.1005859 L56.5146484,11.1005859 L56.5146484,9.53515625 L57.7109375,9.53515625 L57.7109375,7.703125 Z M63.8564453,19.7548828 C63.78125,19.7548828 63.1796875,19.7480469 63.0976562,19.734375 L63.0976562,18.1279297 C63.1660156,18.1416016 63.4667969,18.1484375 63.5488281,18.1484375 C64.2939453,18.1484375 64.7177734,17.8955078 64.8818359,17.3212891 L64.9501953,17.0478516 L62.3046875,9.45996094 L64.4990234,9.45996094 L66.0849609,15.1748047 L66.2080078,15.1748047 L67.7939453,9.45996094 L69.8994141,9.45996094 L67.3017578,17.1162109 C66.6591797,19.0576172 65.7363281,19.7548828 63.8564453,19.7548828 Z" id="Usability" fill="#F84F77"></path>
            </g>
            <g transform="translate(272.000000, 218.000000)">
                <rect id="Rectangle-9" fill="#FFF0CC" x="0" y="0" width="96" height="24" rx="4"></rect>
                <path d="M15.0068359,10.4716797 L13.1611328,17 L11.2128906,17 L8.6015625,7.13574219 L10.7480469,7.13574219 L12.2861328,14.0878906 L12.3955078,14.0878906 L14.1933594,7.13574219 L15.9365234,7.13574219 L17.7685547,14.0878906 L17.8779297,14.0878906 L19.4023438,7.13574219 L21.5351562,7.13574219 L18.9169922,17 L16.9824219,17 L15.1162109,10.4716797 L15.0068359,10.4716797 Z M25.8486328,15.6191406 C26.7714844,15.6191406 27.46875,15.03125 27.46875,14.265625 L27.46875,13.7119141 L25.9443359,13.8076172 C25.0898438,13.8691406 24.6728516,14.1767578 24.6728516,14.7167969 C24.6728516,15.2773438 25.1582031,15.6191406 25.8486328,15.6191406 Z M25.1923828,17.1162109 C23.7431641,17.1162109 22.7246094,16.2275391 22.7246094,14.8466797 C22.7246094,13.4794922 23.7705078,12.6865234 25.6435547,12.5771484 L27.46875,12.4677734 L27.46875,11.8525391 C27.46875,11.2236328 27.0175781,10.8681641 26.1972656,10.8681641 C25.4794922,10.8681641 25.0009766,11.1142578 24.8369141,11.5654297 L23.0048828,11.5654297 C23.1347656,10.1708984 24.4130859,9.29589844 26.3066406,9.29589844 C28.3027344,9.29589844 29.4306641,10.2392578 29.4306641,11.8525391 L29.4306641,17 L27.5029297,17 L27.5029297,16.015625 L27.3798828,16.015625 C26.9902344,16.7060547 26.1699219,17.1162109 25.1923828,17.1162109 Z M32.3222656,19.7548828 C32.2470703,19.7548828 31.6455078,19.7480469 31.5634766,19.734375 L31.5634766,18.1279297 C31.6318359,18.1416016 31.9326172,18.1484375 32.0146484,18.1484375 C32.7597656,18.1484375 33.1835938,17.8955078 33.3476562,17.3212891 L33.4160156,17.0478516 L30.7705078,9.45996094 L32.9648438,9.45996094 L34.5507812,15.1748047 L34.6738281,15.1748047 L36.2597656,9.45996094 L38.3652344,9.45996094 L35.7675781,17.1162109 C35.125,19.0576172 34.2021484,19.7548828 32.3222656,19.7548828 Z M40.3134766,17 L40.3134766,11.1005859 L39.1171875,11.1005859 L39.1171875,9.53515625 L40.3134766,9.53515625 L40.3134766,8.77636719 C40.3134766,7.25195312 41.0996094,6.64355469 42.8701172,6.64355469 C43.2050781,6.64355469 43.5605469,6.67089844 43.8681641,6.71875 L43.8681641,8.14746094 C43.7177734,8.12011719 43.4648438,8.09277344 43.21875,8.09277344 C42.5761719,8.09277344 42.2617188,8.35253906 42.2617188,8.91992188 L42.2617188,9.53515625 L43.8408203,9.53515625 L43.8408203,11.1005859 L42.3027344,11.1005859 L42.3027344,17 L40.3134766,17 Z M45.4746094,17 L45.4746094,9.45996094 L47.4638672,9.45996094 L47.4638672,17 L45.4746094,17 Z M46.4726562,8.40722656 C45.7548828,8.40722656 45.296875,7.99023438 45.296875,7.40234375 C45.296875,6.80761719 45.7548828,6.39746094 46.4726562,6.39746094 C47.1835938,6.39746094 47.6484375,6.80761719 47.6484375,7.40234375 C47.6484375,7.99023438 47.1835938,8.40722656 46.4726562,8.40722656 Z M49.4736328,17 L49.4736328,9.45996094 L51.4013672,9.45996094 L51.4013672,10.6699219 L51.5244141,10.6699219 C51.8730469,9.82226562 52.7617188,9.29589844 53.8691406,9.29589844 C55.5507812,9.29589844 56.5009766,10.3212891 56.5009766,12.1259766 L56.5009766,17 L54.5117188,17 L54.5117188,12.5976562 C54.5117188,11.5585938 54.0195312,11.0117188 53.0761719,11.0117188 C52.0917969,11.0117188 51.4628906,11.6611328 51.4628906,12.6523438 L51.4628906,17 L49.4736328,17 Z M61.1289062,17.1162109 C59.2285156,17.1162109 58.0595703,15.6259766 58.0595703,13.2197266 C58.0595703,10.8203125 59.2353516,9.33691406 61.1289062,9.33691406 C62.1474609,9.33691406 62.9882812,9.82910156 63.3779297,10.6630859 L63.4941406,10.6630859 L63.4941406,6.58203125 L65.4833984,6.58203125 L65.4833984,17 L63.5556641,17 L63.5556641,15.8173828 L63.4326172,15.8173828 C63.0292969,16.6308594 62.1748047,17.1162109 61.1289062,17.1162109 Z M61.8056641,11.0048828 C60.7460938,11.0048828 60.1035156,11.8457031 60.1035156,13.2265625 C60.1035156,14.6210938 60.7392578,15.4550781 61.8056641,15.4550781 C62.8720703,15.4550781 63.5146484,14.6142578 63.5146484,13.2333984 C63.5146484,11.859375 62.8652344,11.0048828 61.8056641,11.0048828 Z M67.5615234,17 L67.5615234,9.45996094 L69.5507812,9.45996094 L69.5507812,17 L67.5615234,17 Z M68.5595703,8.40722656 C67.8417969,8.40722656 67.3837891,7.99023438 67.3837891,7.40234375 C67.3837891,6.80761719 67.8417969,6.39746094 68.5595703,6.39746094 C69.2705078,6.39746094 69.7353516,6.80761719 69.7353516,7.40234375 C69.7353516,7.99023438 69.2705078,8.40722656 68.5595703,8.40722656 Z M71.5605469,17 L71.5605469,9.45996094 L73.4882812,9.45996094 L73.4882812,10.6699219 L73.6113281,10.6699219 C73.9599609,9.82226562 74.8486328,9.29589844 75.9560547,9.29589844 C77.6376953,9.29589844 78.5878906,10.3212891 78.5878906,12.1259766 L78.5878906,17 L76.5986328,17 L76.5986328,12.5976562 C76.5986328,11.5585938 76.1064453,11.0117188 75.1630859,11.0117188 C74.1787109,11.0117188 73.5498047,11.6611328 73.5498047,12.6523438 L73.5498047,17 L71.5605469,17 Z M85.5878906,13.1650391 C85.5878906,11.8388672 84.9384766,11.0048828 83.8652344,11.0048828 C82.7919922,11.0048828 82.1699219,11.8388672 82.1699219,13.1582031 C82.1699219,14.4912109 82.7851562,15.3183594 83.8652344,15.3183594 C84.9453125,15.3183594 85.5878906,14.4912109 85.5878906,13.1650391 Z M83.8378906,19.8574219 C81.8349609,19.8574219 80.5087891,18.9755859 80.3857422,17.6494141 L82.3544922,17.6494141 C82.4570312,18.1142578 83.0175781,18.4082031 83.8789062,18.4082031 C84.9453125,18.4082031 85.5673828,17.9160156 85.5673828,17.0683594 L85.5673828,15.6738281 L85.4443359,15.6738281 C85.0273438,16.4667969 84.234375,16.890625 83.1748047,16.890625 C81.2949219,16.890625 80.1259766,15.4345703 80.1259766,13.1650391 C80.1259766,10.8271484 81.3017578,9.33691406 83.2158203,9.33691406 C84.234375,9.33691406 85.1025391,9.84277344 85.5058594,10.6699219 L85.6289062,10.6699219 L85.6289062,9.45996094 L87.5566406,9.45996094 L87.5566406,16.9726562 C87.5566406,18.7431641 86.1142578,19.8574219 83.8378906,19.8574219 Z" id="Wayfinding" fill="#BC611F"></path>
            </g>
        </g>
    </g>
</svg>