<?xml version="1.0" encoding="UTF-8"?>
<svg width="400px" height="320px" viewBox="0 0 400 320" version="1.1" xmlns="http://www.w3.org/2000/svg" xmlns:xlink="http://www.w3.org/1999/xlink">
    <!-- Generator: Sketch 51 (57462) - http://www.bohemiancoding.com/sketch -->
    <title>snippet/export</title>
    <desc>Created with Sketch.</desc>
    <defs>
        <path d="M367.996345,75.3090462 C367.625025,37.4086214 331.091496,6.39447607 286.327767,5.98026378 C277.761037,5.89324627 269.230564,6.93634706 261.043052,9.07206268 C229.23621,17.3821968 194.974286,16.9531912 163.918821,6.80868837 C150.07903,2.29334692 135.371825,-0.0150480476 120.539897,7.38158632e-05 C54.01681,7.38158632e-05 -0.217766134,46.0737947 0.000657451227,102.391873 C0.162290904,143.572711 29.1339952,178.998957 70.769899,195.009002 C96.8889913,205.05365 119.316725,220.89727 134.894695,241.293527 C157.131769,270.487517 195.394718,288.089004 236.426714,287.999662 C303.146383,287.881315 357.40717,241.326812 356.699477,184.846007 C356.628266,179.059121 355.979423,173.287684 354.759876,167.593326 C349.954557,145.177784 352.929486,122.174208 362.557598,100.89775 C366.248657,92.7321006 368.093612,84.0517926 367.996345,75.3090462 Z" id="path-1"></path>
    </defs>
    <g id="snippet/export" stroke="none" stroke-width="1" fill="none" fill-rule="evenodd">
        <g id="Group" transform="translate(16.000000, 16.000000)">
            <mask id="mask-2" fill="white">
                <use xlink:href="#path-1"></use>
            </mask>
            <g id="Shape" fill-rule="nonzero"></g>
            <g mask="url(#mask-2)">
                <rect id="Rectangle" fill="#512DA8" opacity="0.0399999991" x="0" y="0" width="368" height="288" rx="3"></rect>
                <path d="M3,0 L365,0 C366.656854,-3.04359188e-16 368,1.34314575 368,3 L368,32 L0,32 L0,3 C-2.02906125e-16,1.34314575 1.34314575,3.04359188e-16 3,0 Z" id="Rectangle" fill="#512DA8" opacity="0.100000001"></path>
                <rect id="Rectangle" fill="#512DA8" opacity="0.0399999991" x="0" y="64" width="368" height="32"></rect>
                <rect id="Rectangle" fill="#512DA8" opacity="0.0399999991" x="0" y="128" width="368" height="32"></rect>
                <rect id="Rectangle" fill="#512DA8" opacity="0.0399999991" x="0" y="192" width="368" height="32"></rect>
                <path d="M0,256 L368,256 L368,285 C368,286.656854 366.656854,288 365,288 L3,288 C1.34314575,288 2.02906125e-16,286.656854 0,285 L0,256 Z" id="Rectangle" fill="#512DA8" opacity="0.0399999991"></path>
                <path d="M92,0 L92,288" id="Path" stroke="#512DA8" stroke-width="2" opacity="0.100000001"></path>
                <path d="M184,0 L184,288" id="Path" stroke="#512DA8" stroke-width="2" opacity="0.100000001"></path>
                <path d="M276,0 L276,288" id="Path" stroke="#512DA8" stroke-width="2" opacity="0.100000001"></path>
                <rect id="Rectangle" fill="#512DA8" x="284" y="42" width="48" height="12" rx="3"></rect>
                <rect id="Rectangle" fill="#5182F8" x="284" y="74" width="32" height="12" rx="3"></rect>
                <rect id="Rectangle" fill="#009688" x="284" y="106" width="64" height="12" rx="3"></rect>
                <rect id="Rectangle" fill="#F84F77" x="284" y="138" width="72" height="12" rx="3"></rect>
                <rect id="Rectangle" fill="#512DA8" x="284" y="170" width="64" height="12" rx="3"></rect>
                <rect id="Rectangle" fill="#512DA8" x="284" y="202" width="48" height="12" rx="3"></rect>
                <rect id="Rectangle" fill="#5182F8" x="284" y="234" width="64" height="12" rx="3"></rect>
                <rect id="Rectangle" fill="#F84F77" x="284" y="266" width="32" height="12" rx="3"></rect>
                <rect id="Rectangle" fill="#512DA8" opacity="0.200000003" x="192" y="42" width="64" height="12" rx="3"></rect>
                <rect id="Rectangle" fill="#512DA8" opacity="0.200000003" x="192" y="74" width="32" height="12" rx="3"></rect>
                <rect id="Rectangle" fill="#512DA8" opacity="0.200000003" x="192" y="106" width="32" height="12" rx="3"></rect>
                <rect id="Rectangle" fill="#512DA8" opacity="0.200000003" x="192" y="138" width="48" height="12" rx="3"></rect>
                <rect id="Rectangle" fill="#512DA8" opacity="0.200000003" x="192" y="170" width="64" height="12" rx="3"></rect>
                <rect id="Rectangle" fill="#512DA8" opacity="0.200000003" x="192" y="202" width="48" height="12" rx="3"></rect>
                <rect id="Rectangle" fill="#512DA8" opacity="0.200000003" x="192" y="234" width="64" height="12" rx="3"></rect>
                <rect id="Rectangle" fill="#512DA8" opacity="0.200000003" x="192" y="266" width="32" height="12" rx="3"></rect>
                <rect id="Rectangle" fill="#512DA8" opacity="0.200000003" x="100" y="42" width="48" height="12" rx="3"></rect>
                <rect id="Rectangle" fill="#512DA8" opacity="0.200000003" x="100" y="74" width="32" height="12" rx="3"></rect>
                <rect id="Rectangle" fill="#512DA8" opacity="0.200000003" x="100" y="106" width="48" height="12" rx="3"></rect>
                <rect id="Rectangle" fill="#512DA8" opacity="0.200000003" x="100" y="138" width="32" height="12" rx="3"></rect>
                <rect id="Rectangle" fill="#512DA8" opacity="0.200000003" x="100" y="170" width="32" height="12" rx="3"></rect>
                <rect id="Rectangle" fill="#512DA8" opacity="0.200000003" x="100" y="202" width="48" height="12" rx="3"></rect>
                <rect id="Rectangle" fill="#512DA8" opacity="0.200000003" x="100" y="234" width="48" height="12" rx="3"></rect>
                <rect id="Rectangle" fill="#512DA8" opacity="0.200000003" x="100" y="266" width="32" height="12" rx="3"></rect>
                <rect id="Rectangle" fill="#512DA8" opacity="0.200000003" x="8" y="42" width="48" height="12" rx="3"></rect>
                <rect id="Rectangle" fill="#512DA8" opacity="0.200000003" x="8" y="74" width="32" height="12" rx="3"></rect>
                <rect id="Rectangle" fill="#512DA8" opacity="0.200000003" x="8" y="106" width="64" height="12" rx="3"></rect>
                <rect id="Rectangle" fill="#512DA8" opacity="0.200000003" x="8" y="138" width="32" height="12" rx="3"></rect>
                <rect id="Rectangle" fill="#512DA8" opacity="0.200000003" x="8" y="170" width="64" height="12" rx="3"></rect>
                <rect id="Rectangle" fill="#512DA8" opacity="0.200000003" x="8" y="202" width="48" height="12" rx="3"></rect>
                <rect id="Rectangle" fill="#512DA8" opacity="0.200000003" x="8" y="234" width="64" height="12" rx="3"></rect>
                <rect id="Rectangle" fill="#512DA8" opacity="0.200000003" x="8" y="266" width="64" height="12" rx="3"></rect>
                <rect id="Rectangle" fill="#512DA8" opacity="0.200000003" x="192" y="10" width="64" height="12" rx="3"></rect>
                <rect id="Rectangle" fill="#512DA8" opacity="0.200000003" x="100" y="10" width="32" height="12" rx="3"></rect>
                <rect id="Rectangle" fill="#512DA8" opacity="0.200000003" x="7" y="10" width="64" height="12" rx="3"></rect>
                <rect id="Rectangle" fill="#512DA8" opacity="0.200000003" x="284" y="10" width="48" height="12" rx="3"></rect>
            </g>
        </g>
    </g>
</svg>