<?xml version="1.0" encoding="UTF-8"?>
<svg width="400px" height="320px" viewBox="0 0 400 320" version="1.1" xmlns="http://www.w3.org/2000/svg" xmlns:xlink="http://www.w3.org/1999/xlink">
    <!-- Generator: Sketch 51 (57462) - http://www.bohemiancoding.com/sketch -->
    <title>snippet/files</title>
    <desc>Created with Sketch.</desc>
    <defs>
        <rect id="path-1" x="3.625" y="6" width="224.75" height="186" rx="3"></rect>
        <filter x="-24.9%" y="-21.5%" width="149.8%" height="160.2%" filterUnits="objectBoundingBox" id="filter-2">
            <feOffset dx="0" dy="16" in="SourceAlpha" result="shadowOffsetOuter1"></feOffset>
            <feGaussianBlur stdDeviation="16" in="shadowOffsetOuter1" result="shadowBlurOuter1"></feGaussianBlur>
            <feColorMatrix values="0 0 0 0 0.139296534   0 0 0 0 0.0722663527   0 0 0 0 0.301286139  0 0 0 1 0" type="matrix" in="shadowBlurOuter1"></feColorMatrix>
        </filter>
        <rect id="path-3" x="0" y="0" width="232" height="192" rx="4"></rect>
        <filter x="-0.6%" y="-0.8%" width="101.3%" height="101.6%" filterUnits="objectBoundingBox" id="filter-4">
            <feMorphology radius="0.5" operator="dilate" in="SourceAlpha" result="shadowSpreadOuter1"></feMorphology>
            <feOffset dx="0" dy="0" in="shadowSpreadOuter1" result="shadowOffsetOuter1"></feOffset>
            <feColorMatrix values="0 0 0 0 0.141176471   0 0 0 0 0.0705882353   0 0 0 0 0.301960784  0 0 0 0.1 0" type="matrix" in="shadowOffsetOuter1"></feColorMatrix>
        </filter>
        <rect id="path-5" x="0" y="0" width="56" height="56" rx="4"></rect>
        <filter x="-94.6%" y="-80.4%" width="289.3%" height="289.3%" filterUnits="objectBoundingBox" id="filter-6">
            <feMorphology radius="1" operator="dilate" in="SourceAlpha" result="shadowSpreadOuter1"></feMorphology>
            <feOffset dx="0" dy="8" in="shadowSpreadOuter1" result="shadowOffsetOuter1"></feOffset>
            <feGaussianBlur stdDeviation="16" in="shadowOffsetOuter1" result="shadowBlurOuter1"></feGaussianBlur>
            <feComposite in="shadowBlurOuter1" in2="SourceAlpha" operator="out" result="shadowBlurOuter1"></feComposite>
            <feColorMatrix values="0 0 0 0 0   0 0 0 0 0   0 0 0 0 0  0 0 0 0.4 0" type="matrix" in="shadowBlurOuter1"></feColorMatrix>
        </filter>
        <rect id="path-7" x="72" y="16" width="128" height="24" rx="12"></rect>
        <filter x="-40.6%" y="-183.3%" width="181.2%" height="533.3%" filterUnits="objectBoundingBox" id="filter-8">
            <feOffset dx="0" dy="8" in="SourceAlpha" result="shadowOffsetOuter1"></feOffset>
            <feGaussianBlur stdDeviation="16" in="shadowOffsetOuter1" result="shadowBlurOuter1"></feGaussianBlur>
            <feColorMatrix values="0 0 0 0 0   0 0 0 0 0   0 0 0 0 0  0 0 0 0.4 0" type="matrix" in="shadowBlurOuter1"></feColorMatrix>
        </filter>
        <path d="M10.0303087,19 C10.0303087,19 7.81106595,17.3012618 7.03030885,16 C6.24955176,14.6987382 4.77005657,13.0410095 5.03030896,12 C5.29056133,10.9589905 6.24955175,10.6309149 7.03030893,11.4116721 C7.81106615,12.1924292 8.00980413,13.7602524 8.53030896,13.5 C9.05081381,13.2397477 9.05081352,11.931388 8.53030896,10.5 C8.00980435,9.06861202 6.46713376,6.00000017 7.53030896,6 C8.59348416,5.99999991 9.03030872,6 9.53030872,7.5 C10.0303087,8.99999999 10.1399301,10.9999993 10.5303087,11 C10.9206874,11.0000006 10.5303087,11.4116721 11.0696573,10 C11.1328239,9.83466996 10.9992708,6.62388587 11.0696573,6.5 C11.2582747,6.16801851 11.3319666,5.00000011 12.0538297,5 C12.3995786,4.99999997 13.0303086,5.5 13.0303087,7.5 C13.0303087,9.5 13.1473944,11.0000001 13.5303087,11 C14.0303087,11 14.0303091,11.0410094 14.0303087,10 C14.0303086,9.5623877 14.0303087,8 14.0303087,7.5 C14.0303087,7 14.914321,6.0000001 15.493948,6 C16.493948,6 16.0098044,10.9999999 16.5303087,11 C16.7552581,11 17.5303087,9 17.5303087,9 C17.5303087,9 18.2463966,8.00000004 18.5303087,8 C19.5303087,8 19.0303087,11 18.5303087,12 C18.0303089,13.0000001 18.3110662,14.9589904 17.5303087,16 C16.7495512,17.0410096 16.0303087,18 16.0303087,18 C16.0303087,18 16.0303087,19 15.493948,19 C14.9575872,19.0000001 13.0303087,19 13.0303087,19 L10.0303087,19 Z M13.030309,16 C13.030309,16.2708838 13.2622426,17 13.530309,17 C13.8064513,17 14.030309,16.2754211 14.030309,16 L14.030309,14 C14.030309,13.7291162 13.7983754,13 13.530309,13 C13.2541666,13 13.030309,13.7245789 13.030309,14 L13.030309,16 Z M15.030309,16 C15.030309,16.2708838 15.2622426,17 15.530309,17 C15.8064513,17 16.030309,16.2754211 16.030309,16 L16.030309,14 C16.030309,13.7291162 15.7983754,13 15.530309,13 C15.2541666,13 15.030309,13.7245789 15.030309,14 L15.030309,16 Z M11.030309,16 C11.030309,16.2708838 11.2622426,17 11.530309,17 C11.8064513,17 12.030309,16.2754211 12.030309,16 L12.030309,14 C12.030309,13.7291162 11.7983754,13 11.530309,13 C11.2541666,13 11.030309,13.7245789 11.030309,14 L11.030309,16 Z" id="path-9"></path>
        <filter x="-31.9%" y="-25.0%" width="163.8%" height="164.3%" filterUnits="objectBoundingBox" id="filter-10">
            <feMorphology radius="1" operator="dilate" in="SourceAlpha" result="shadowSpreadOuter1"></feMorphology>
            <feOffset dx="0" dy="1" in="shadowSpreadOuter1" result="shadowOffsetOuter1"></feOffset>
            <feGaussianBlur stdDeviation="1" in="shadowOffsetOuter1" result="shadowBlurOuter1"></feGaussianBlur>
            <feComposite in="shadowBlurOuter1" in2="SourceAlpha" operator="out" result="shadowBlurOuter1"></feComposite>
            <feColorMatrix values="0 0 0 0 0   0 0 0 0 0   0 0 0 0 0  0 0 0 1 0" type="matrix" in="shadowBlurOuter1"></feColorMatrix>
        </filter>
    </defs>
    <g id="snippet/files" stroke="none" stroke-width="1" fill="none" fill-rule="evenodd">
        <g id="Group" transform="translate(16.000000, 16.000000)">
            <g transform="translate(0.000000, 10.000000)">
                <g transform="translate(0.000000, 78.000000)">
                    <rect id="Rectangle-9" fill="#DCD5EE" x="0" y="0" width="272" height="12" rx="4"></rect>
                    <rect id="Rectangle-9" fill="#DCD5EE" x="0" y="32" width="136" height="12" rx="4"></rect>
                    <rect id="Rectangle-9" fill="#512DA8" x="152" y="32" width="120" height="12" rx="4"></rect>
                    <rect id="Rectangle-9" fill="#DCD5EE" x="0" y="64" width="168" height="12" rx="4"></rect>
                    <rect id="Rectangle-9" fill="#DCD5EE" x="0" y="96" width="92" height="12" rx="4"></rect>
                    <rect id="Rectangle-9" fill="#DCD5EE" x="0" y="176" width="136" height="12" rx="4"></rect>
                    <rect id="Rectangle-7" fill="#5182F8" fill-rule="nonzero" x="0" y="142" width="272" height="4" rx="2"></rect>
                </g>
                <path d="M2.57226562,1.54492188 L2.57226562,6.94726563 C2.57226562,8.08984375 3.28710938,8.85742188 4.54101562,8.85742188 C5.79492188,8.85742188 6.50390625,8.08984375 6.50390625,6.94726563 L6.50390625,1.54492188 L8.015625,1.54492188 L8.015625,7.08789062 C8.015625,8.93359375 6.6796875,10.2109375 4.54101562,10.2109375 C2.40234375,10.2109375 1.06640625,8.93359375 1.06640625,7.08789062 L1.06640625,1.54492188 L2.57226562,1.54492188 Z M9.8203125,5.42382813 C9.8203125,4.26367188 10.875,3.4609375 12.3867188,3.4609375 C13.9101562,3.4609375 14.8652344,4.13476562 14.9707031,5.30078125 L13.6054688,5.30078125 C13.5,4.84960938 13.0722656,4.5625 12.3925781,4.5625 C11.7304688,4.5625 11.2324219,4.87890625 11.2324219,5.34179688 C11.2324219,5.70507813 11.5371094,5.92773438 12.1816406,6.07421875 L13.3125,6.33203125 C14.5371094,6.60742188 15.1054688,7.13476562 15.1054688,8.078125 C15.1054688,9.30859375 13.9746094,10.1289063 12.375,10.1289063 C10.7753906,10.1289063 9.76757812,9.4375 9.65625,8.27148438 L11.0917969,8.27148438 C11.2324219,8.74609375 11.6835938,9.02734375 12.4101562,9.02734375 C13.1425781,9.02734375 13.6523438,8.70507813 13.6523438,8.23046875 C13.6523438,7.8671875 13.3769531,7.63867188 12.7675781,7.50390625 L11.6308594,7.24023438 C10.4003906,6.95898438 9.8203125,6.390625 9.8203125,5.42382813 Z M19.265625,4.61523438 C18.3984375,4.61523438 17.7890625,5.23632812 17.7246094,6.17382812 L20.7421875,6.17382812 C20.7128906,5.22460938 20.1386719,4.61523438 19.265625,4.61523438 Z M20.7539062,8.23632813 L22.1308594,8.23632813 C21.8554688,9.40234375 20.7949219,10.1289063 19.2832031,10.1289063 C17.3964844,10.1289063 16.2597656,8.88085938 16.2597656,6.81835938 C16.2597656,4.75585938 17.4140625,3.4609375 19.2714844,3.4609375 C21.0996094,3.4609375 22.1953125,4.67382812 22.1953125,6.6953125 L22.1953125,7.1640625 L17.71875,7.1640625 L17.71875,7.24023438 C17.7539062,8.30664063 18.3691406,8.97460938 19.3242188,8.97460938 C20.0449219,8.97460938 20.5429688,8.7109375 20.7539062,8.23632813 Z M23.6542969,10 L23.6542969,3.58984375 L25.0546875,3.58984375 L25.0546875,4.5859375 L25.1542969,4.5859375 C25.3300781,3.953125 26.015625,3.484375 26.8359375,3.484375 C27.0410156,3.484375 27.2929688,3.5078125 27.4335938,3.54882812 L27.4335938,4.89648438 C27.3222656,4.85546875 26.9238281,4.81445313 26.6953125,4.81445313 C25.7636719,4.81445313 25.1074219,5.40039063 25.1074219,6.296875 L25.1074219,10 L23.6542969,10 Z M32.2382812,2.06054688 L33.6855469,2.06054688 L33.6855469,3.63085938 L35.0917969,3.63085938 L35.0917969,4.79101562 L33.6855469,4.79101562 L33.6855469,7.9375 C33.6855469,8.5703125 33.9550781,8.8515625 34.5644531,8.8515625 C34.7695312,8.8515625 34.875,8.83984375 35.0449219,8.82226562 L35.0449219,9.95898438 C34.8398438,10 34.5761719,10.0292969 34.2949219,10.0292969 C32.8242188,10.0292969 32.2382812,9.53125 32.2382812,8.2890625 L32.2382812,4.79101562 L31.1953125,4.79101562 L31.1953125,3.63085938 L32.2382812,3.63085938 L32.2382812,2.06054688 Z M39.1992188,4.61523438 C38.3320312,4.61523438 37.7226562,5.23632812 37.6582031,6.17382812 L40.6757812,6.17382812 C40.6464844,5.22460938 40.0722656,4.61523438 39.1992188,4.61523438 Z M40.6875,8.23632813 L42.0644531,8.23632813 C41.7890625,9.40234375 40.7285156,10.1289063 39.2167969,10.1289063 C37.3300781,10.1289063 36.1933594,8.88085938 36.1933594,6.81835938 C36.1933594,4.75585938 37.3476562,3.4609375 39.2050781,3.4609375 C41.0332031,3.4609375 42.1289062,4.67382812 42.1289062,6.6953125 L42.1289062,7.1640625 L37.6523437,7.1640625 L37.6523437,7.24023438 C37.6875,8.30664063 38.3027344,8.97460938 39.2578125,8.97460938 C39.9785156,8.97460938 40.4765625,8.7109375 40.6875,8.23632813 Z M43.4414062,5.42382813 C43.4414062,4.26367188 44.4960937,3.4609375 46.0078125,3.4609375 C47.53125,3.4609375 48.4863281,4.13476562 48.5917969,5.30078125 L47.2265625,5.30078125 C47.1210937,4.84960938 46.6933594,4.5625 46.0136719,4.5625 C45.3515625,4.5625 44.8535156,4.87890625 44.8535156,5.34179688 C44.8535156,5.70507813 45.1582031,5.92773438 45.8027344,6.07421875 L46.9335937,6.33203125 C48.1582031,6.60742188 48.7265625,7.13476562 48.7265625,8.078125 C48.7265625,9.30859375 47.5957031,10.1289063 45.9960937,10.1289063 C44.3964844,10.1289063 43.3886719,9.4375 43.2773437,8.27148438 L44.7128906,8.27148438 C44.8535156,8.74609375 45.3046875,9.02734375 46.03125,9.02734375 C46.7636719,9.02734375 47.2734375,8.70507813 47.2734375,8.23046875 C47.2734375,7.8671875 46.9980469,7.63867188 46.3886719,7.50390625 L45.2519531,7.24023438 C44.0214844,6.95898438 43.4414062,6.390625 43.4414062,5.42382813 Z M50.6601562,2.06054688 L52.1074219,2.06054688 L52.1074219,3.63085938 L53.5136719,3.63085938 L53.5136719,4.79101562 L52.1074219,4.79101562 L52.1074219,7.9375 C52.1074219,8.5703125 52.3769531,8.8515625 52.9863281,8.8515625 C53.1914062,8.8515625 53.296875,8.83984375 53.4667969,8.82226562 L53.4667969,9.95898438 C53.2617188,10 52.9980469,10.0292969 52.7167969,10.0292969 C51.2460938,10.0292969 50.6601562,9.53125 50.6601562,8.2890625 L50.6601562,4.79101562 L49.6171875,4.79101562 L49.6171875,3.63085938 L50.6601562,3.63085938 L50.6601562,2.06054688 Z M54.9492188,10 L54.9492188,3.58984375 L56.3964844,3.58984375 L56.3964844,10 L54.9492188,10 Z M55.6699219,2.546875 C55.1425781,2.546875 54.7734375,2.20703125 54.7734375,1.74414062 C54.7734375,1.28125 55.1425781,0.94140625 55.6699219,0.94140625 C56.203125,0.94140625 56.5664062,1.28125 56.5664062,1.74414062 C56.5664062,2.20703125 56.203125,2.546875 55.6699219,2.546875 Z M58.1953125,10 L58.1953125,3.58984375 L59.5957031,3.58984375 L59.5957031,4.61523438 L59.6953125,4.61523438 C60,3.90039062 60.75,3.4609375 61.7109375,3.4609375 C63.140625,3.4609375 63.9433594,4.32226562 63.9433594,5.8515625 L63.9433594,10 L62.4960938,10 L62.4960938,6.19726562 C62.4960938,5.21875 62.0507812,4.7265625 61.171875,4.7265625 C60.234375,4.7265625 59.6484375,5.32421875 59.6484375,6.26757812 L59.6484375,10 L58.1953125,10 Z M70.0429687,6.72460938 C70.0429687,5.5 69.4277344,4.72070312 68.4199219,4.72070312 C67.40625,4.72070312 66.8320312,5.5 66.8320312,6.72460938 C66.8320312,7.94921875 67.40625,8.72265625 68.4199219,8.72265625 C69.4335937,8.72265625 70.0429687,7.94921875 70.0429687,6.72460938 Z M68.4199219,12.4375 C66.7734375,12.4375 65.6953125,11.7109375 65.578125,10.609375 L67.0371094,10.609375 C67.1308594,11.0488281 67.6464844,11.3300781 68.4433594,11.3300781 C69.4394531,11.3300781 70.0195312,10.8613281 70.0195312,10.0585938 L70.0195312,8.84570312 L69.9199219,8.84570312 C69.5507812,9.53125 68.8535156,9.90625 67.9628906,9.90625 C66.3457031,9.90625 65.3378906,8.65234375 65.3378906,6.72460938 C65.3378906,4.76171875 66.3515625,3.484375 67.9863281,3.484375 C68.859375,3.484375 69.6210938,3.91796875 69.9726562,4.61523438 L70.0722656,4.61523438 L70.0722656,3.58984375 L71.4726562,3.58984375 L71.4726562,10.0234375 C71.4726562,11.5058594 70.2890625,12.4375 68.4199219,12.4375 Z M76.3066406,5.42382813 C76.3066406,4.26367188 77.3613281,3.4609375 78.8730469,3.4609375 C80.3964844,3.4609375 81.3515625,4.13476562 81.4570312,5.30078125 L80.0917969,5.30078125 C79.9863281,4.84960938 79.5585938,4.5625 78.8789062,4.5625 C78.2167969,4.5625 77.71875,4.87890625 77.71875,5.34179688 C77.71875,5.70507813 78.0234375,5.92773438 78.6679688,6.07421875 L79.7988281,6.33203125 C81.0234375,6.60742188 81.5917969,7.13476562 81.5917969,8.078125 C81.5917969,9.30859375 80.4609375,10.1289063 78.8613281,10.1289063 C77.2617188,10.1289063 76.2539062,9.4375 76.1425781,8.27148438 L77.578125,8.27148438 C77.71875,8.74609375 78.1699219,9.02734375 78.8964844,9.02734375 C79.6289062,9.02734375 80.1386719,8.70507813 80.1386719,8.23046875 C80.1386719,7.8671875 79.8632812,7.63867188 79.2539062,7.50390625 L78.1171875,7.24023438 C76.8867188,6.95898438 76.3066406,6.390625 76.3066406,5.42382813 Z M85.7519531,4.61523438 C84.8847656,4.61523438 84.2753906,5.23632812 84.2109375,6.17382812 L87.2285156,6.17382812 C87.1992187,5.22460938 86.625,4.61523438 85.7519531,4.61523438 Z M87.2402344,8.23632813 L88.6171875,8.23632813 C88.3417969,9.40234375 87.28125,10.1289063 85.7695312,10.1289063 C83.8828125,10.1289063 82.7460938,8.88085938 82.7460938,6.81835938 C82.7460938,4.75585938 83.9003906,3.4609375 85.7578125,3.4609375 C87.5859375,3.4609375 88.6816406,4.67382812 88.6816406,6.6953125 L88.6816406,7.1640625 L84.2050781,7.1640625 L84.2050781,7.24023438 C84.2402344,8.30664063 84.8554688,8.97460938 85.8105469,8.97460938 C86.53125,8.97460938 87.0292969,8.7109375 87.2402344,8.23632813 Z M89.9941406,5.42382813 C89.9941406,4.26367188 91.0488281,3.4609375 92.5605469,3.4609375 C94.0839844,3.4609375 95.0390625,4.13476562 95.1445312,5.30078125 L93.7792969,5.30078125 C93.6738281,4.84960938 93.2460937,4.5625 92.5664062,4.5625 C91.9042969,4.5625 91.40625,4.87890625 91.40625,5.34179688 C91.40625,5.70507813 91.7109375,5.92773438 92.3554687,6.07421875 L93.4863281,6.33203125 C94.7109375,6.60742188 95.2792969,7.13476562 95.2792969,8.078125 C95.2792969,9.30859375 94.1484375,10.1289063 92.5488281,10.1289063 C90.9492187,10.1289063 89.9414062,9.4375 89.8300781,8.27148438 L91.265625,8.27148438 C91.40625,8.74609375 91.8574219,9.02734375 92.5839844,9.02734375 C93.3164062,9.02734375 93.8261719,8.70507813 93.8261719,8.23046875 C93.8261719,7.8671875 93.5507812,7.63867188 92.9414062,7.50390625 L91.8046875,7.24023438 C90.5742187,6.95898438 89.9941406,6.390625 89.9941406,5.42382813 Z M96.6035156,5.42382813 C96.6035156,4.26367188 97.6582031,3.4609375 99.1699219,3.4609375 C100.693359,3.4609375 101.648437,4.13476562 101.753906,5.30078125 L100.388672,5.30078125 C100.283203,4.84960938 99.8554687,4.5625 99.1757812,4.5625 C98.5136719,4.5625 98.015625,4.87890625 98.015625,5.34179688 C98.015625,5.70507813 98.3203125,5.92773438 98.9648437,6.07421875 L100.095703,6.33203125 C101.320312,6.60742188 101.888672,7.13476562 101.888672,8.078125 C101.888672,9.30859375 100.757812,10.1289063 99.1582031,10.1289063 C97.5585937,10.1289063 96.5507812,9.4375 96.4394531,8.27148438 L97.875,8.27148438 C98.015625,8.74609375 98.4667969,9.02734375 99.1933594,9.02734375 C99.9257812,9.02734375 100.435547,8.70507813 100.435547,8.23046875 C100.435547,7.8671875 100.160156,7.63867188 99.5507812,7.50390625 L98.4140625,7.24023438 C97.1835937,6.95898438 96.6035156,6.390625 96.6035156,5.42382813 Z M103.376953,10 L103.376953,3.58984375 L104.824219,3.58984375 L104.824219,10 L103.376953,10 Z M104.097656,2.546875 C103.570312,2.546875 103.201172,2.20703125 103.201172,1.74414062 C103.201172,1.28125 103.570312,0.94140625 104.097656,0.94140625 C104.630859,0.94140625 104.994141,1.28125 104.994141,1.74414062 C104.994141,2.20703125 104.630859,2.546875 104.097656,2.546875 Z M109.388672,8.91015625 C110.402344,8.91015625 110.976562,8.13671875 110.976562,6.79492188 C110.976562,5.45898438 110.396484,4.6796875 109.388672,4.6796875 C108.375,4.6796875 107.794922,5.45898438 107.794922,6.79492188 C107.794922,8.13671875 108.375,8.91015625 109.388672,8.91015625 Z M109.388672,10.1289063 C107.466797,10.1289063 106.306641,8.875 106.306641,6.79492188 C106.306641,4.7265625 107.484375,3.4609375 109.388672,3.4609375 C111.298828,3.4609375 112.470703,4.72070313 112.470703,6.79492188 C112.470703,8.875 111.304688,10.1289063 109.388672,10.1289063 Z M113.935547,10 L113.935547,3.58984375 L115.335938,3.58984375 L115.335938,4.61523438 L115.435547,4.61523438 C115.740234,3.90039062 116.490234,3.4609375 117.451172,3.4609375 C118.880859,3.4609375 119.683594,4.32226562 119.683594,5.8515625 L119.683594,10 L118.236328,10 L118.236328,6.19726562 C118.236328,5.21875 117.791016,4.7265625 116.912109,4.7265625 C115.974609,4.7265625 115.388672,5.32421875 115.388672,6.26757812 L115.388672,10 L113.935547,10 Z M121.259766,5.42382813 C121.259766,4.26367188 122.314453,3.4609375 123.826172,3.4609375 C125.349609,3.4609375 126.304688,4.13476562 126.410156,5.30078125 L125.044922,5.30078125 C124.939453,4.84960938 124.511719,4.5625 123.832031,4.5625 C123.169922,4.5625 122.671875,4.87890625 122.671875,5.34179688 C122.671875,5.70507813 122.976562,5.92773438 123.621094,6.07421875 L124.751953,6.33203125 C125.976562,6.60742188 126.544922,7.13476562 126.544922,8.078125 C126.544922,9.30859375 125.414062,10.1289063 123.814453,10.1289063 C122.214844,10.1289063 121.207031,9.4375 121.095703,8.27148438 L122.53125,8.27148438 C122.671875,8.74609375 123.123047,9.02734375 123.849609,9.02734375 C124.582031,9.02734375 125.091797,8.70507813 125.091797,8.23046875 C125.091797,7.8671875 124.816406,7.63867188 124.207031,7.50390625 L123.070312,7.24023438 C121.839844,6.95898438 121.259766,6.390625 121.259766,5.42382813 Z" id="User-testing-session" fill="#24124D" opacity="0.600000024"></path>
                <path d="M1.09375,42.171875 L3.5546875,42.171875 C3.7109375,43.4316406 4.9609375,44.2421875 6.74804688,44.2421875 C8.40820312,44.2421875 9.609375,43.3925781 9.609375,42.2109375 C9.609375,41.1953125 8.83789063,40.5996094 7.03125,40.1796875 L5.20507812,39.7597656 C2.64648438,39.1835938 1.4453125,37.9140625 1.4453125,35.8144531 C1.4453125,33.2558594 3.53515625,31.5566406 6.68945313,31.5566406 C9.6484375,31.5566406 11.7871094,33.2558594 11.9042969,35.6777344 L9.4921875,35.6777344 C9.31640625,34.4375 8.22265625,33.65625 6.6796875,33.65625 C5.05859375,33.65625 3.984375,34.4375 3.984375,35.6386719 C3.984375,36.5859375 4.69726562,37.1425781 6.4453125,37.5429688 L8.06640625,37.9140625 C10.9277344,38.5585938 12.1289062,39.75 12.1289062,41.8984375 C12.1289062,44.6425781 10.0097656,46.3515625 6.59179688,46.3515625 C3.359375,46.3515625 1.22070312,44.7304688 1.09375,42.171875 Z M19.1894531,37.0253906 C17.7441406,37.0253906 16.7285156,38.0605469 16.6210938,39.6230469 L21.6503906,39.6230469 C21.6015625,38.0410156 20.6445312,37.0253906 19.1894531,37.0253906 Z M21.6699219,43.0605469 L23.9648438,43.0605469 C23.5058594,45.0039062 21.7382812,46.2148438 19.21875,46.2148438 C16.0742188,46.2148438 14.1796875,44.1347656 14.1796875,40.6972656 C14.1796875,37.2597656 16.1035156,35.1015625 19.1992188,35.1015625 C22.2460938,35.1015625 24.0722656,37.1230469 24.0722656,40.4921875 L24.0722656,41.2734375 L16.6113281,41.2734375 L16.6113281,41.4003906 C16.6699219,43.1777344 17.6953125,44.2910156 19.2871094,44.2910156 C20.4882812,44.2910156 21.3183594,43.8515625 21.6699219,43.0605469 Z M26.2597656,38.3730469 C26.2597656,36.4394531 28.0175781,35.1015625 30.5371094,35.1015625 C33.0761719,35.1015625 34.6679688,36.2246094 34.84375,38.1679688 L32.5683594,38.1679688 C32.3925781,37.4160156 31.6796875,36.9375 30.546875,36.9375 C29.4433594,36.9375 28.6132812,37.4648438 28.6132812,38.2363281 C28.6132812,38.8417969 29.1210938,39.2128906 30.1953125,39.4570312 L32.0800781,39.8867188 C34.1210938,40.3457031 35.0683594,41.2246094 35.0683594,42.796875 C35.0683594,44.8476562 33.1835938,46.2148438 30.5175781,46.2148438 C27.8515625,46.2148438 26.171875,45.0625 25.9863281,43.1191406 L28.3789062,43.1191406 C28.6132812,43.9101562 29.3652344,44.3789062 30.5761719,44.3789062 C31.796875,44.3789062 32.6464844,43.8417969 32.6464844,43.0507812 C32.6464844,42.4453125 32.1875,42.0644531 31.171875,41.8398438 L29.2773438,41.4003906 C27.2265625,40.9316406 26.2597656,39.984375 26.2597656,38.3730469 Z M37.2753906,38.3730469 C37.2753906,36.4394531 39.0332031,35.1015625 41.5527344,35.1015625 C44.0917969,35.1015625 45.6835938,36.2246094 45.859375,38.1679688 L43.5839844,38.1679688 C43.4082031,37.4160156 42.6953125,36.9375 41.5625,36.9375 C40.4589844,36.9375 39.6289062,37.4648438 39.6289062,38.2363281 C39.6289062,38.8417969 40.1367188,39.2128906 41.2109375,39.4570312 L43.0957031,39.8867188 C45.1367188,40.3457031 46.0839844,41.2246094 46.0839844,42.796875 C46.0839844,44.8476562 44.1992188,46.2148438 41.5332031,46.2148438 C38.8671875,46.2148438 37.1875,45.0625 37.0019531,43.1191406 L39.3945312,43.1191406 C39.6289062,43.9101562 40.3808594,44.3789062 41.5917969,44.3789062 C42.8125,44.3789062 43.6621094,43.8417969 43.6621094,43.0507812 C43.6621094,42.4453125 43.203125,42.0644531 42.1875,41.8398438 L40.2929688,41.4003906 C38.2421875,40.9316406 37.2753906,39.984375 37.2753906,38.3730469 Z M48.5644531,46 L48.5644531,35.3164062 L50.9765625,35.3164062 L50.9765625,46 L48.5644531,46 Z M49.765625,33.578125 C48.8867187,33.578125 48.2714844,33.0117188 48.2714844,32.2402344 C48.2714844,31.46875 48.8867187,30.9023438 49.765625,30.9023438 C50.6542969,30.9023438 51.2597656,31.46875 51.2597656,32.2402344 C51.2597656,33.0117188 50.6542969,33.578125 49.765625,33.578125 Z M58.5839844,44.1835938 C60.2734375,44.1835938 61.2304688,42.8945312 61.2304688,40.6582031 C61.2304688,38.4316406 60.2636719,37.1328125 58.5839844,37.1328125 C56.8945312,37.1328125 55.9277344,38.4316406 55.9277344,40.6582031 C55.9277344,42.8945312 56.8945312,44.1835938 58.5839844,44.1835938 Z M58.5839844,46.2148438 C55.3808594,46.2148438 53.4472656,44.125 53.4472656,40.6582031 C53.4472656,37.2109375 55.4101562,35.1015625 58.5839844,35.1015625 C61.7675781,35.1015625 63.7207031,37.2011719 63.7207031,40.6582031 C63.7207031,44.125 61.7773437,46.2148438 58.5839844,46.2148438 Z M66.1621094,46 L66.1621094,35.3164062 L68.4960938,35.3164062 L68.4960938,37.0253906 L68.6621094,37.0253906 C69.1699219,35.8339844 70.4199219,35.1015625 72.0214844,35.1015625 C74.4042969,35.1015625 75.7421875,36.5371094 75.7421875,39.0859375 L75.7421875,46 L73.3300781,46 L73.3300781,39.6621094 C73.3300781,38.03125 72.5878906,37.2109375 71.1230469,37.2109375 C69.5605469,37.2109375 68.5839844,38.2070312 68.5839844,39.7792969 L68.5839844,46 L66.1621094,46 Z M90.46875,46 L90.46875,43.3730469 L83.5839844,43.3730469 L83.5839844,41.1269531 C84.8535156,38.7929688 86.8359375,35.6582031 89.3261719,31.9082031 L92.8808594,31.9082031 L92.8808594,41.2441406 L94.7851562,41.2441406 L94.7851562,43.3730469 L92.8808594,43.3730469 L92.8808594,46 L90.46875,46 Z M85.9179688,41.15625 L85.9179688,41.3027344 L90.5078125,41.3027344 L90.5078125,33.9589844 L90.3710938,33.9589844 C89.0234375,35.9511719 87.5585938,38.265625 85.9179688,41.15625 Z M111.240234,41.4589844 L101.240234,41.4589844 L101.240234,39.1835938 L111.240234,39.1835938 L111.240234,41.4589844 Z M117.34375,42.1621094 L119.804688,42.1621094 C119.824219,43.3242188 120.625,44.0859375 121.826172,44.0859375 C123.144531,44.0859375 123.876953,43.2851562 123.876953,41.7714844 L123.876953,31.9082031 L126.396484,31.9082031 L126.396484,41.7910156 C126.396484,44.6914062 124.6875,46.3515625 121.855469,46.3515625 C119.160156,46.3515625 117.34375,44.7109375 117.34375,42.1621094 Z M133.271484,44.2714844 C134.736328,44.2714844 135.830078,43.3242188 135.830078,42.0839844 L135.830078,41.234375 L133.417969,41.390625 C132.060547,41.4785156 131.425781,41.9667969 131.425781,42.8359375 C131.425781,43.734375 132.197266,44.2714844 133.271484,44.2714844 Z M132.558594,46.1757812 C130.498047,46.1757812 129.023438,44.9257812 129.023438,42.9726562 C129.023438,41.0390625 130.478516,39.9257812 133.076172,39.7695312 L135.830078,39.6035156 L135.830078,38.7050781 C135.830078,37.6601562 135.126953,37.0742188 133.818359,37.0742188 C132.705078,37.0742188 131.943359,37.4648438 131.71875,38.1875 L129.433594,38.1875 C129.628906,36.3027344 131.396484,35.1015625 133.935547,35.1015625 C136.679688,35.1015625 138.222656,36.4394531 138.222656,38.7050781 L138.222656,46 L135.888672,46 L135.888672,44.5351562 L135.722656,44.5351562 C135.126953,45.5703125 133.955078,46.1757812 132.558594,46.1757812 Z M141.132812,46 L141.132812,35.3164062 L143.466797,35.3164062 L143.466797,37.0253906 L143.632812,37.0253906 C144.140625,35.8339844 145.390625,35.1015625 146.992188,35.1015625 C149.375,35.1015625 150.712891,36.5371094 150.712891,39.0859375 L150.712891,46 L148.300781,46 L148.300781,39.6621094 C148.300781,38.03125 147.558594,37.2109375 146.09375,37.2109375 C144.53125,37.2109375 143.554688,38.2070312 143.554688,39.7792969 L143.554688,46 L141.132812,46 Z M158.066406,37.0253906 C156.621094,37.0253906 155.605469,38.0605469 155.498047,39.6230469 L160.527344,39.6230469 C160.478516,38.0410156 159.521484,37.0253906 158.066406,37.0253906 Z M160.546875,43.0605469 L162.841797,43.0605469 C162.382812,45.0039062 160.615234,46.2148438 158.095703,46.2148438 C154.951172,46.2148438 153.056641,44.1347656 153.056641,40.6972656 C153.056641,37.2597656 154.980469,35.1015625 158.076172,35.1015625 C161.123047,35.1015625 162.949219,37.1230469 162.949219,40.4921875 L162.949219,41.2734375 L155.488281,41.2734375 L155.488281,41.4003906 C155.546875,43.1777344 156.572266,44.2910156 158.164062,44.2910156 C159.365234,44.2910156 160.195312,43.8515625 160.546875,43.0605469 Z M170.966797,31.9082031 L176.25,31.9082031 C180.439453,31.9082031 182.880859,34.4667969 182.880859,38.890625 C182.880859,43.4121094 180.46875,46 176.25,46 L170.966797,46 L170.966797,31.9082031 Z M173.486328,34.0859375 L173.486328,43.8222656 L175.917969,43.8222656 C178.720703,43.8222656 180.3125,42.0742188 180.3125,38.9296875 C180.3125,35.8535156 178.681641,34.0859375 175.917969,34.0859375 L173.486328,34.0859375 Z M190.107422,44.1835938 C191.796875,44.1835938 192.753906,42.8945312 192.753906,40.6582031 C192.753906,38.4316406 191.787109,37.1328125 190.107422,37.1328125 C188.417969,37.1328125 187.451172,38.4316406 187.451172,40.6582031 C187.451172,42.8945312 188.417969,44.1835938 190.107422,44.1835938 Z M190.107422,46.2148438 C186.904297,46.2148438 184.970703,44.125 184.970703,40.6582031 C184.970703,37.2109375 186.933594,35.1015625 190.107422,35.1015625 C193.291016,35.1015625 195.244141,37.2011719 195.244141,40.6582031 C195.244141,44.125 193.300781,46.2148438 190.107422,46.2148438 Z M202.167969,37.0253906 C200.722656,37.0253906 199.707031,38.0605469 199.599609,39.6230469 L204.628906,39.6230469 C204.580078,38.0410156 203.623047,37.0253906 202.167969,37.0253906 Z M204.648438,43.0605469 L206.943359,43.0605469 C206.484375,45.0039062 204.716797,46.2148438 202.197266,46.2148438 C199.052734,46.2148438 197.158203,44.1347656 197.158203,40.6972656 C197.158203,37.2597656 199.082031,35.1015625 202.177734,35.1015625 C205.224609,35.1015625 207.050781,37.1230469 207.050781,40.4921875 L207.050781,41.2734375 L199.589844,41.2734375 L199.589844,41.4003906 C199.648438,43.1777344 200.673828,44.2910156 202.265625,44.2910156 C203.466797,44.2910156 204.296875,43.8515625 204.648438,43.0605469 Z" id="Session-4-–-Jane-Doe" fill="#24124D"></path>
            </g>
            <g id="Finder" transform="translate(112.000000, 0.000000)">
                <g id="component/card-shadow">
                    <g id="Group">
                        <g id="Shadow" opacity="0.200000003">
                            <use fill="black" fill-opacity="1" filter="url(#filter-2)" xlink:href="#path-1"></use>
                            <use fill="#FFFFFF" fill-rule="evenodd" xlink:href="#path-1"></use>
                        </g>
                        <g id="Rectangle">
                            <use fill="black" fill-opacity="1" filter="url(#filter-4)" xlink:href="#path-3"></use>
                            <use fill="#FFFFFF" fill-rule="evenodd" xlink:href="#path-3"></use>
                        </g>
                    </g>
                </g>
                <g id="Group-3" transform="translate(88.000000, 48.000000)">
                    <rect id="Rectangle-3" stroke="#FEDCE4" fill="#FEE9EE" fill-rule="nonzero" x="0.5" y="0.5" width="55" height="55" rx="4"></rect>
                    <g id="film" transform="translate(18.000000, 18.000000)" stroke="#F84F77" stroke-linecap="round" stroke-linejoin="round" stroke-width="2">
                        <rect id="Rectangle-path" x="0" y="0" width="20" height="20" rx="2.18"></rect>
                        <path d="M5,0 L5,20" id="Shape"></path>
                        <path d="M15,0 L15,20" id="Shape"></path>
                        <path d="M0,10 L20,10" id="Shape"></path>
                        <path d="M0,5 L5,5" id="Shape"></path>
                        <path d="M0,15 L5,15" id="Shape"></path>
                        <path d="M15,15 L20,15" id="Shape"></path>
                        <path d="M15,5 L20,5" id="Shape"></path>
                    </g>
                </g>
                <g id="Group-5" transform="translate(16.000000, 120.000000)">
                    <rect id="Rectangle-3" stroke="#CCEAE7" fill="#E0F2F0" fill-rule="nonzero" x="0.5" y="0.5" width="55" height="55" rx="4"></rect>
                    <g id="table" transform="translate(18.000000, 18.000000)" stroke="#009688" stroke-linecap="round" stroke-linejoin="round" stroke-width="2">
                        <rect id="Combined-Shape" x="0" y="0" width="20" height="20" rx="3"></rect>
                        <path d="M8,0 L8,20 L8,0 Z" id="Shape"></path>
                        <path d="M0,7 L20,7 L0,7 Z" id="Shape"></path>
                    </g>
                </g>
                <g id="Group-4" transform="translate(88.000000, 120.000000)">
                    <rect id="Rectangle-3" stroke="#F4F3F6" fill="#FBFAFC" fill-rule="nonzero" x="0.5" y="0.5" width="55" height="55" rx="4"></rect>
                    <g id="music" transform="translate(19.000000, 19.000000)" stroke="#E4E2E9" stroke-linecap="round" stroke-linejoin="round" stroke-width="2">
                        <path d="M6,14 L2,14 C0.8954305,14 0,14.8954305 0,16 C0,17.1045695 0.8954305,18 2,18 L4,18 C5.1045695,18 6,17.1045695 6,16 L6,14 Z M18,12 L14,12 C12.8954305,12 12,12.8954305 12,14 C12,15.1045695 12.8954305,16 14,16 L16,16 C17.1045695,16 18,15.1045695 18,14 L18,12 Z" id="Shape"></path>
                        <polyline id="Shape" points="6 14 6 2 18 0 18 12"></polyline>
                    </g>
                </g>
                <g id="Group-6" transform="translate(160.000000, 120.000000)">
                    <rect id="Rectangle-3" stroke="#FADDD7" fill="#FBEAE6" fill-rule="nonzero" x="0.5" y="0.5" width="55" height="55" rx="4"></rect>
                    <g id="image" transform="translate(18.000000, 18.000000)" stroke="#E45735" stroke-linecap="round" stroke-linejoin="round" stroke-width="2">
                        <rect id="Rectangle-path" x="0" y="0" width="20" height="20" rx="2.18"></rect>
                        <circle id="Oval" cx="6.5" cy="6.5" r="1.5"></circle>
                        <polyline id="Shape" points="20 14 14 8 2 20"></polyline>
                    </g>
                </g>
                <g id="Group-4" transform="translate(160.000000, 48.000000)">
                    <rect id="Rectangle-3" stroke="#FFF0CC" fill="#FFF5E0" fill-rule="nonzero" x="0.5" y="0.5" width="55" height="55" rx="4"></rect>
                    <g id="music" transform="translate(19.000000, 19.000000)" stroke="#BF6E33" stroke-linecap="round" stroke-linejoin="round" stroke-width="2">
                        <path d="M6,14 L2,14 C0.8954305,14 0,14.8954305 0,16 C0,17.1045695 0.8954305,18 2,18 L4,18 C5.1045695,18 6,17.1045695 6,16 L6,14 Z M18,12 L14,12 C12.8954305,12 12,12.8954305 12,14 C12,15.1045695 12.8954305,16 14,16 L16,16 C17.1045695,16 18,15.1045695 18,14 L18,12 Z" id="Shape"></path>
                        <polyline id="Shape" points="6 14 6 2 18 0 18 12"></polyline>
                    </g>
                </g>
                <g id="Group-2" transform="translate(16.000000, 48.000000)">
                    <rect id="Rectangle-3" stroke="#DCE6FE" fill="#EAF0FE" fill-rule="nonzero" x="0.5" y="0.5" width="55" height="55" rx="4"></rect>
                    <g id="file-text" transform="translate(20.000000, 18.000000)" stroke="#5182F8" stroke-linecap="round" stroke-linejoin="round" stroke-width="2">
                        <path d="M10,0 L2,0 C0.8954305,0 0,0.8954305 0,2 L0,18 C0,19.1045695 0.8954305,20 2,20 L14,20 C15.1045695,20 16,19.1045695 16,18 L16,6 L10,0 Z" id="Shape"></path>
                        <polyline id="Shape" points="10 0 10 6 16 6"></polyline>
                        <path d="M12,11 L4,11" id="Shape"></path>
                        <path d="M12,15 L4,15" id="Shape"></path>
                        <polyline id="Shape" points="6 7 5 7 4 7"></polyline>
                    </g>
                </g>
                <path d="M4,0 L228,0 C230.209139,-4.05812251e-16 232,1.790861 232,4 L232,32 L0,32 L0,4 C-2.705415e-16,1.790861 1.790861,4.05812251e-16 4,0 Z" id="Rectangle" fill="#F4F3F6" fill-rule="nonzero"></path>
                <circle id="Oval-3" fill="#FF6058" fill-rule="nonzero" cx="21" cy="16" r="5"></circle>
                <circle id="Oval-3" fill="#FFC12F" fill-rule="nonzero" cx="37" cy="16" r="5"></circle>
                <circle id="Oval-3" fill="#2ACE42" fill-rule="nonzero" cx="53" cy="16" r="5"></circle>
            </g>
            <g id="Dragging" transform="translate(48.000000, 208.000000)">
                <g id="Group-2">
                    <g id="Rectangle-3" fill-rule="nonzero">
                        <use fill="black" fill-opacity="1" filter="url(#filter-6)" xlink:href="#path-5"></use>
                        <rect stroke-opacity="0.1" stroke="#24124D" stroke-width="1" fill="#FFF5E0" fill-rule="evenodd" x="-0.5" y="-0.5" width="57" height="57" rx="4"></rect>
                    </g>
                    <g id="music" transform="translate(19.000000, 19.000000)" stroke="#BF6E33" stroke-linecap="round" stroke-linejoin="round" stroke-width="2">
                        <path d="M6,14 L2,14 C0.8954305,14 0,14.8954305 0,16 C0,17.1045695 0.8954305,18 2,18 L4,18 C5.1045695,18 6,17.1045695 6,16 L6,14 Z M18,12 L14,12 C12.8954305,12 12,12.8954305 12,14 C12,15.1045695 12.8954305,16 14,16 L16,16 C17.1045695,16 18,15.1045695 18,14 L18,12 Z" id="Shape"></path>
                        <polyline id="Shape" points="6 14 6 2 18 0 18 12"></polyline>
                    </g>
                </g>
                <g id="Rectangle-10" fill-rule="nonzero">
                    <use fill="black" fill-opacity="1" filter="url(#filter-8)" xlink:href="#path-7"></use>
                    <use fill="#5182F8" xlink:href="#path-7"></use>
                </g>
                <path d="M83.9980469,32 L83.9980469,24.4599609 L85.9257812,24.4599609 L85.9257812,25.6630859 L86.0488281,25.6630859 C86.2470703,24.9111328 87.0195312,24.3369141 87.9628906,24.3369141 C88.2294922,24.3369141 88.5576172,24.3710938 88.7285156,24.4326172 L88.7285156,26.2441406 C88.5712891,26.1826172 88.0859375,26.1210938 87.7988281,26.1210938 C86.7324219,26.1210938 85.9873047,26.7636719 85.9873047,27.8232422 L85.9873047,32 L83.9980469,32 Z M93.3017578,25.8203125 C92.3789062,25.8203125 91.7294922,26.4628906 91.6611328,27.4404297 L94.8740234,27.4404297 C94.8330078,26.4423828 94.2314453,25.8203125 93.3017578,25.8203125 Z M94.9150391,29.8535156 L96.7675781,29.8535156 C96.4667969,31.2753906 95.1679688,32.1640625 93.3222656,32.1640625 C91.0253906,32.1640625 89.671875,30.7148438 89.671875,28.2675781 C89.671875,25.8134766 91.0527344,24.2958984 93.2949219,24.2958984 C95.5166016,24.2958984 96.8291016,25.7109375 96.8291016,28.1035156 L96.8291016,28.7119141 L91.6542969,28.7119141 L91.6542969,28.8144531 C91.6816406,29.9355469 92.3378906,30.6328125 93.3769531,30.6328125 C94.1630859,30.6328125 94.703125,30.3525391 94.9150391,29.8535156 Z M105.12793,27.1191406 L103.268555,27.1191406 C103.131836,26.4013672 102.619141,25.9296875 101.771484,25.9296875 C100.698242,25.9296875 100.09668,26.7294922 100.09668,28.2128906 C100.09668,29.7167969 100.705078,30.5302734 101.771484,30.5302734 C102.584961,30.5302734 103.118164,30.1337891 103.268555,29.3886719 L105.12793,29.3886719 C104.963867,31.0771484 103.733398,32.1640625 101.771484,32.1640625 C99.4199219,32.1640625 98.0869141,30.7421875 98.0869141,28.2128906 C98.0869141,25.7109375 99.4130859,24.2958984 101.771484,24.2958984 C103.767578,24.2958984 104.963867,25.4033203 105.12793,27.1191406 Z M110.022461,30.5371094 C111.082031,30.5371094 111.69043,29.6894531 111.69043,28.2265625 C111.69043,26.7773438 111.075195,25.9228516 110.022461,25.9228516 C108.962891,25.9228516 108.354492,26.7773438 108.354492,28.2265625 C108.354492,29.6962891 108.956055,30.5371094 110.022461,30.5371094 Z M110.022461,32.1640625 C107.705078,32.1640625 106.310547,30.6943359 106.310547,28.2265625 C106.310547,25.7861328 107.725586,24.2958984 110.022461,24.2958984 C112.319336,24.2958984 113.734375,25.7792969 113.734375,28.2265625 C113.734375,30.6943359 112.339844,32.1640625 110.022461,32.1640625 Z M115.354492,32 L115.354492,24.4599609 L117.282227,24.4599609 L117.282227,25.6630859 L117.405273,25.6630859 C117.603516,24.9111328 118.375977,24.3369141 119.319336,24.3369141 C119.585938,24.3369141 119.914062,24.3710938 120.084961,24.4326172 L120.084961,26.2441406 C119.927734,26.1826172 119.442383,26.1210938 119.155273,26.1210938 C118.088867,26.1210938 117.34375,26.7636719 117.34375,27.8232422 L117.34375,32 L115.354492,32 Z M124.097656,32.1162109 C122.197266,32.1162109 121.02832,30.6259766 121.02832,28.2197266 C121.02832,25.8203125 122.204102,24.3369141 124.097656,24.3369141 C125.116211,24.3369141 125.957031,24.8291016 126.34668,25.6630859 L126.462891,25.6630859 L126.462891,21.5820312 L128.452148,21.5820312 L128.452148,32 L126.524414,32 L126.524414,30.8173828 L126.401367,30.8173828 C125.998047,31.6308594 125.143555,32.1162109 124.097656,32.1162109 Z M124.774414,26.0048828 C123.714844,26.0048828 123.072266,26.8457031 123.072266,28.2265625 C123.072266,29.6210938 123.708008,30.4550781 124.774414,30.4550781 C125.84082,30.4550781 126.483398,29.6142578 126.483398,28.2333984 C126.483398,26.859375 125.833984,26.0048828 124.774414,26.0048828 Z M130.530273,32 L130.530273,24.4599609 L132.519531,24.4599609 L132.519531,32 L130.530273,32 Z M131.52832,23.4072266 C130.810547,23.4072266 130.352539,22.9902344 130.352539,22.4023438 C130.352539,21.8076172 130.810547,21.3974609 131.52832,21.3974609 C132.239258,21.3974609 132.704102,21.8076172 132.704102,22.4023438 C132.704102,22.9902344 132.239258,23.4072266 131.52832,23.4072266 Z M134.529297,32 L134.529297,24.4599609 L136.457031,24.4599609 L136.457031,25.6699219 L136.580078,25.6699219 C136.928711,24.8222656 137.817383,24.2958984 138.924805,24.2958984 C140.606445,24.2958984 141.556641,25.3212891 141.556641,27.1259766 L141.556641,32 L139.567383,32 L139.567383,27.5976562 C139.567383,26.5585938 139.075195,26.0117188 138.131836,26.0117188 C137.147461,26.0117188 136.518555,26.6611328 136.518555,27.6523438 L136.518555,32 L134.529297,32 Z M148.556641,28.1650391 C148.556641,26.8388672 147.907227,26.0048828 146.833984,26.0048828 C145.760742,26.0048828 145.138672,26.8388672 145.138672,28.1582031 C145.138672,29.4912109 145.753906,30.3183594 146.833984,30.3183594 C147.914062,30.3183594 148.556641,29.4912109 148.556641,28.1650391 Z M146.806641,34.8574219 C144.803711,34.8574219 143.477539,33.9755859 143.354492,32.6494141 L145.323242,32.6494141 C145.425781,33.1142578 145.986328,33.4082031 146.847656,33.4082031 C147.914062,33.4082031 148.536133,32.9160156 148.536133,32.0683594 L148.536133,30.6738281 L148.413086,30.6738281 C147.996094,31.4667969 147.203125,31.890625 146.143555,31.890625 C144.263672,31.890625 143.094727,30.4345703 143.094727,28.1650391 C143.094727,25.8271484 144.270508,24.3369141 146.18457,24.3369141 C147.203125,24.3369141 148.071289,24.8427734 148.474609,25.6699219 L148.597656,25.6699219 L148.597656,24.4599609 L150.525391,24.4599609 L150.525391,31.9726562 C150.525391,33.7431641 149.083008,34.8574219 146.806641,34.8574219 Z M153.957031,32.1845703 C153.225586,32.1845703 152.74707,31.6855469 152.74707,30.9951172 C152.74707,30.3046875 153.225586,29.8125 153.957031,29.8125 C154.695312,29.8125 155.166992,30.3046875 155.166992,30.9951172 C155.166992,31.6855469 154.695312,32.1845703 153.957031,32.1845703 Z M157.388672,32 L157.388672,24.4599609 L159.316406,24.4599609 L159.316406,25.6904297 L159.439453,25.6904297 C159.74707,24.8291016 160.533203,24.2958984 161.524414,24.2958984 C162.583984,24.2958984 163.308594,24.8154297 163.609375,25.6904297 L163.732422,25.6904297 C164.081055,24.8496094 164.949219,24.2958984 166.001953,24.2958984 C167.505859,24.2958984 168.442383,25.2734375 168.442383,26.8251953 L168.442383,32 L166.453125,32 L166.453125,27.3515625 C166.453125,26.4560547 166.036133,26.0117188 165.195312,26.0117188 C164.388672,26.0117188 163.869141,26.5859375 163.869141,27.3857422 L163.869141,32 L161.955078,32 L161.955078,27.2695312 C161.955078,26.4697266 161.490234,26.0117188 160.710938,26.0117188 C159.931641,26.0117188 159.37793,26.6201172 159.37793,27.4609375 L159.37793,32 L157.388672,32 Z M174.724609,24.3369141 C176.631836,24.3369141 177.800781,25.7861328 177.800781,28.2265625 C177.800781,30.6601562 176.645508,32.1162109 174.758789,32.1162109 C173.678711,32.1162109 172.851562,31.6445312 172.482422,30.8447266 L172.359375,30.8447266 L172.359375,34.3583984 L170.370117,34.3583984 L170.370117,24.4599609 L172.297852,24.4599609 L172.297852,25.6972656 L172.420898,25.6972656 C172.831055,24.8496094 173.685547,24.3369141 174.724609,24.3369141 Z M174.047852,30.4550781 C175.121094,30.4550781 175.756836,29.6210938 175.756836,28.2265625 C175.756836,26.8457031 175.114258,26.0048828 174.054688,26.0048828 C172.995117,26.0048828 172.338867,26.8525391 172.338867,28.2333984 C172.338867,29.6142578 172.995117,30.4550781 174.047852,30.4550781 Z M181.827148,27.7207031 L181.827148,26.1826172 L183.030273,26.1826172 C183.966797,26.1826172 184.602539,25.6357422 184.602539,24.8291016 C184.602539,24.0361328 183.987305,23.5302734 183.023438,23.5302734 C182.066406,23.5302734 181.430664,24.0703125 181.375977,24.9248047 L179.46875,24.9248047 C179.537109,23.0585938 180.924805,21.8828125 183.078125,21.8828125 C185.101562,21.8828125 186.557617,22.9902344 186.557617,24.5419922 C186.557617,25.6835938 185.839844,26.5722656 184.739258,26.7978516 L184.739258,26.9208984 C186.092773,27.0712891 186.94043,27.9736328 186.94043,29.2724609 C186.94043,31.0019531 185.313477,32.2529297 183.064453,32.2529297 C180.863281,32.2529297 179.373047,31.0361328 179.28418,29.1767578 L181.259766,29.1767578 C181.321289,30.0107422 182.025391,30.5371094 183.084961,30.5371094 C184.117188,30.5371094 184.834961,29.9560547 184.834961,29.1152344 C184.834961,28.2539062 184.158203,27.7207031 183.050781,27.7207031 L181.827148,27.7207031 Z" id="recording.mp3" fill="#FFFFFF"></path>
                <g id="Cursors/Drag" transform="translate(35.000000, 34.000000)">
                    <g id="Drag">
                        <use fill="black" fill-opacity="1" filter="url(#filter-10)" xlink:href="#path-9"></use>
                        <path stroke="#000000" stroke-width="1" d="M11.5516534,6.69974108 C11.5516696,6.6989483 11.5516925,6.69804034 11.5517253,6.69700549 C11.5516934,6.69801343 11.5516618,6.69902633 11.5516304,6.70004417 Z M8.41274384,12.8009395 C8.47105599,12.3972818 8.38749262,11.5703429 8.06041224,10.6708715 C7.99715323,10.4969092 7.91544561,10.2898052 7.79688986,10.0001704 C7.75607838,9.90046687 7.53089785,9.35547597 7.46517671,9.19449258 C7.406092,9.0497651 7.35337514,8.91898556 7.30378218,8.79378411 C6.97949763,7.97510152 6.78239953,7.37672934 6.70249377,6.89779967 C6.56984634,6.1027532 6.78326918,5.50000012 7.53030892,5.5 C9.01414722,5.49999987 9.48789409,5.79161726 10.0046504,7.34188611 C10.1027975,7.63632741 10.1907722,7.9595862 10.2759301,8.32714676 C10.3484962,8.64035873 10.515652,9.47806904 10.5911851,9.85147807 C10.5949505,9.84156436 10.5987508,9.83158823 10.6025863,9.82154918 C10.5892241,9.85652292 10.5836184,9.07614178 10.5679521,8.28976657 C10.5676698,8.275595 10.5676698,8.275595 10.5673875,8.26142058 C10.5551739,7.64804869 10.5503616,7.36095487 10.548887,7.08508423 C10.5455321,6.45744722 10.5471087,6.40756612 10.6349243,6.25300372 C10.6400481,6.24398533 10.6543115,6.20772283 10.6732049,6.1483493 C10.6837587,6.11518365 10.7857869,5.75912053 10.8264847,5.63627804 C11.0604614,4.93004103 11.4048671,4.5000001 12.0538296,4.5 C12.9414741,4.49999993 13.5303086,5.59911251 13.5303087,7.5 C13.5303087,6.7013303 14.6584306,5.50000014 15.493948,5.5 C16.390431,5.5 16.5726715,6.32640729 16.6911786,8.47243115 C16.701746,8.66379394 16.6995899,8.61956333 16.7268172,9.18969242 C16.7340375,9.34088324 16.7407119,9.47386231 16.7471471,9.59218388 C16.81267,9.43978005 16.8783638,9.28207581 16.9424623,9.12430309 C16.9984986,8.98637479 17.0407899,8.87945973 17.064092,8.8193292 L17.1237888,8.708896 C17.2210812,8.57302935 17.372203,8.37507219 17.5443824,8.17440725 C17.6059822,8.10261629 17.6662811,8.03547528 17.7250322,7.97371662 C18.0220004,7.66154568 18.2366087,7.50000004 18.5303087,7.5 C19.4280301,7.5 19.6829628,8.38067683 19.5915381,9.66062352 C19.526625,10.5694067 19.2684846,11.6416823 18.9775224,12.2236067 C18.8359634,12.5067248 18.7678057,12.8645541 18.6718156,13.7021844 C18.6496801,13.895982 18.6390098,13.987868 18.6259141,14.0944346 C18.4974619,15.139725 18.3271558,15.7708708 17.9303087,16.3000001 C16.8969495,17.6778121 16.7999733,17.8071137 16.5232936,18.1760202 C16.5128419,18.3113719 16.489589,18.4677182 16.4461986,18.6295137 C16.3105875,19.135185 16.0170789,19.5 15.4939481,19.5 C15.0345016,19.5 15.0345016,19.5 14.3306558,19.5 C13.9150975,19.5 13.9150975,19.5 13.5498387,19.5 C13.1373797,19.5 13.1373797,19.5 13.0303087,19.5 L9.86090972,19.5 L9.72639516,19.3970347 C9.61937201,19.3151129 9.43563076,19.1694172 9.20048047,18.9743411 C8.80900393,18.6495797 8.41739929,18.3046237 8.0505666,17.9532621 C7.74294615,17.6586155 7.46603689,17.3718986 7.22704888,17.0965327 C6.96960195,16.799898 6.75924971,16.5200601 6.60156239,16.2572479 C6.42884105,15.969379 6.34343481,15.8424581 5.83248929,15.099907 C5.73780003,14.9622963 5.66586091,14.8569915 5.59639474,14.7539705 C4.7086449,13.4374033 4.35371817,12.6448103 4.54523771,11.8787322 C4.90196557,10.4518208 6.33404679,10.0083032 7.38386229,11.0581187 C7.63777758,11.3120339 7.84238093,11.6252571 8.04833434,12.0343746 C8.09649978,12.1300532 8.29379439,12.5571373 8.41274384,12.8009395 Z M13.7107033,13.446887 C13.6830363,13.4719991 13.6262939,13.5 13.530309,13.5 C13.4220185,13.5 13.3637659,13.4664768 13.3386547,13.4394851 C13.3672849,13.4809674 13.3940024,13.5309946 13.420387,13.5933254 C13.4842988,13.7443103 13.530309,13.9331742 13.530309,14 L13.530309,16 C13.530309,16.0716349 13.4855417,16.2603554 13.4228269,16.4097725 C13.3938384,16.4788371 13.3644348,16.5320146 13.3431994,16.5593743 C13.3775817,16.5280009 13.434324,16.5 13.530309,16.5 C13.6385994,16.5 13.6968521,16.5335232 13.7219632,16.5605149 C13.6933331,16.5190326 13.6666155,16.4690054 13.6402309,16.4066746 C13.5763191,16.2556897 13.530309,16.0668258 13.530309,16 L13.530309,14 C13.530309,13.9283651 13.5750762,13.7396446 13.637791,13.5902275 C13.6667795,13.5211629 13.6961831,13.4679854 13.7174185,13.4406257 Z M13.3431994,16.5593743 C13.3420555,16.5608481 13.3409353,16.5622471 13.3398401,16.5635695 C13.342629,16.5602019 13.3459774,16.5566867 13.3499147,16.553113 Z M13.7219632,16.5605149 C13.723395,16.562054 13.7247191,16.5635719 13.7259386,16.5650611 C13.7223416,16.5606686 13.7184961,16.5555101 13.714444,16.5496359 Z M15.7107033,13.446887 C15.6830363,13.4719991 15.6262939,13.5 15.530309,13.5 C15.4220185,13.5 15.3637659,13.4664768 15.3386547,13.4394851 C15.3672849,13.4809674 15.3940024,13.5309946 15.420387,13.5933254 C15.4842988,13.7443103 15.530309,13.9331742 15.530309,14 L15.530309,16 C15.530309,16.0716349 15.4855417,16.2603554 15.4228269,16.4097725 C15.3938384,16.4788371 15.3644348,16.5320146 15.3431994,16.5593743 C15.3775817,16.5280009 15.434324,16.5 15.530309,16.5 C15.6385994,16.5 15.6968521,16.5335232 15.7219632,16.5605149 C15.6933331,16.5190326 15.6666155,16.4690054 15.6402309,16.4066746 C15.5763191,16.2556897 15.530309,16.0668258 15.530309,16 L15.530309,14 C15.530309,13.9283651 15.5750762,13.7396446 15.637791,13.5902275 C15.6667795,13.5211629 15.6961831,13.4679854 15.7174185,13.4406257 Z M15.3431994,16.5593743 C15.3420555,16.5608481 15.3409353,16.5622471 15.3398401,16.5635695 C15.342629,16.5602019 15.3459774,16.5566867 15.3499147,16.553113 Z M15.7219632,16.5605149 C15.723395,16.562054 15.7247191,16.5635719 15.7259386,16.5650611 C15.7223416,16.5606686 15.7184961,16.5555101 15.714444,16.5496359 Z M11.7107033,13.446887 C11.6830363,13.4719991 11.6262939,13.5 11.530309,13.5 C11.4220185,13.5 11.3637659,13.4664768 11.3386547,13.4394851 C11.3672849,13.4809674 11.3940024,13.5309946 11.420387,13.5933254 C11.4842988,13.7443103 11.530309,13.9331742 11.530309,14 L11.530309,16 C11.530309,16.0716349 11.4855417,16.2603554 11.4228269,16.4097725 C11.3938384,16.4788371 11.3644348,16.5320146 11.3431994,16.5593743 C11.3775817,16.5280009 11.434324,16.5 11.530309,16.5 C11.6385994,16.5 11.6968521,16.5335232 11.7219632,16.5605149 C11.6933331,16.5190326 11.6666155,16.4690054 11.6402309,16.4066746 C11.5763191,16.2556897 11.530309,16.0668258 11.530309,16 L11.530309,14 C11.530309,13.9283651 11.5750762,13.7396446 11.637791,13.5902275 C11.6667795,13.5211629 11.6961831,13.4679854 11.7174185,13.4406257 Z M11.3431994,16.5593743 C11.3420555,16.5608481 11.3409353,16.5622471 11.3398401,16.5635695 C11.342629,16.5602019 11.3459774,16.5566867 11.3499147,16.553113 Z M11.7219632,16.5605149 C11.723395,16.562054 11.7247191,16.5635719 11.7259386,16.5650611 C11.7223416,16.5606686 11.7184961,16.5555101 11.714444,16.5496359 Z" fill="#FFFFFF" fill-rule="evenodd"></path>
                    </g>
                </g>
            </g>
        </g>
    </g>
</svg>