<?xml version="1.0" encoding="UTF-8"?>
<svg width="832px" height="536px" viewBox="0 0 832 536" version="1.1" xmlns="http://www.w3.org/2000/svg" xmlns:xlink="http://www.w3.org/1999/xlink">
    <!-- Generator: Sketch 51 (57462) - http://www.bohemiancoding.com/sketch -->
    <title>snippet/files-large</title>
    <desc>Created with Sketch.</desc>
    <defs>
        <rect id="path-1" x="2" y="2" width="500" height="500" rx="4"></rect>
        <filter x="-1.4%" y="-1.0%" width="102.8%" height="102.8%" filterUnits="objectBoundingBox" id="filter-2">
            <feOffset dx="0" dy="2" in="SourceAlpha" result="shadowOffsetOuter1"></feOffset>
            <feGaussianBlur stdDeviation="2" in="shadowOffsetOuter1" result="shadowBlurOuter1"></feGaussianBlur>
            <feColorMatrix values="0 0 0 0 0   0 0 0 0 0   0 0 0 0 0  0 0 0 0.2 0" type="matrix" in="shadowBlurOuter1"></feColorMatrix>
        </filter>
        <rect id="path-3" x="0" y="0" width="504" height="504" rx="4"></rect>
        <filter x="-0.9%" y="-0.7%" width="101.8%" height="101.8%" filterUnits="objectBoundingBox" id="filter-4">
            <feMorphology radius="1" operator="dilate" in="SourceAlpha" result="shadowSpreadOuter1"></feMorphology>
            <feOffset dx="0" dy="1" in="shadowSpreadOuter1" result="shadowOffsetOuter1"></feOffset>
            <feGaussianBlur stdDeviation="1" in="shadowOffsetOuter1" result="shadowBlurOuter1"></feGaussianBlur>
            <feComposite in="shadowBlurOuter1" in2="SourceAlpha" operator="out" result="shadowBlurOuter1"></feComposite>
            <feColorMatrix values="0 0 0 0 0   0 0 0 0 0   0 0 0 0 0  0 0 0 0.04 0" type="matrix" in="shadowBlurOuter1"></feColorMatrix>
        </filter>
        <rect id="path-5" x="0" y="0" width="312" height="180" rx="4"></rect>
        <rect id="path-7" x="6.75" y="8.5" width="418.5" height="263.5" rx="3"></rect>
        <filter x="-13.4%" y="-15.2%" width="126.8%" height="142.5%" filterUnits="objectBoundingBox" id="filter-8">
            <feOffset dx="0" dy="16" in="SourceAlpha" result="shadowOffsetOuter1"></feOffset>
            <feGaussianBlur stdDeviation="16" in="shadowOffsetOuter1" result="shadowBlurOuter1"></feGaussianBlur>
            <feColorMatrix values="0 0 0 0 0.139296534   0 0 0 0 0.0722663527   0 0 0 0 0.301286139  0 0 0 1 0" type="matrix" in="shadowBlurOuter1"></feColorMatrix>
        </filter>
        <rect id="path-9" x="0" y="0" width="432" height="272" rx="4"></rect>
        <filter x="-0.3%" y="-0.6%" width="100.7%" height="101.1%" filterUnits="objectBoundingBox" id="filter-10">
            <feMorphology radius="0.5" operator="dilate" in="SourceAlpha" result="shadowSpreadOuter1"></feMorphology>
            <feOffset dx="0" dy="0" in="shadowSpreadOuter1" result="shadowOffsetOuter1"></feOffset>
            <feColorMatrix values="0 0 0 0 0.141176471   0 0 0 0 0.0705882353   0 0 0 0 0.301960784  0 0 0 0.1 0" type="matrix" in="shadowOffsetOuter1"></feColorMatrix>
        </filter>
        <rect id="path-11" x="0" y="0" width="56" height="56" rx="4"></rect>
        <filter x="-94.6%" y="-80.4%" width="289.3%" height="289.3%" filterUnits="objectBoundingBox" id="filter-12">
            <feMorphology radius="1" operator="dilate" in="SourceAlpha" result="shadowSpreadOuter1"></feMorphology>
            <feOffset dx="0" dy="8" in="shadowSpreadOuter1" result="shadowOffsetOuter1"></feOffset>
            <feGaussianBlur stdDeviation="16" in="shadowOffsetOuter1" result="shadowBlurOuter1"></feGaussianBlur>
            <feComposite in="shadowBlurOuter1" in2="SourceAlpha" operator="out" result="shadowBlurOuter1"></feComposite>
            <feColorMatrix values="0 0 0 0 0   0 0 0 0 0   0 0 0 0 0  0 0 0 0.4 0" type="matrix" in="shadowBlurOuter1"></feColorMatrix>
        </filter>
        <rect id="path-13" x="72" y="16" width="128" height="24" rx="12"></rect>
        <filter x="-40.6%" y="-183.3%" width="181.2%" height="533.3%" filterUnits="objectBoundingBox" id="filter-14">
            <feOffset dx="0" dy="8" in="SourceAlpha" result="shadowOffsetOuter1"></feOffset>
            <feGaussianBlur stdDeviation="16" in="shadowOffsetOuter1" result="shadowBlurOuter1"></feGaussianBlur>
            <feColorMatrix values="0 0 0 0 0   0 0 0 0 0   0 0 0 0 0  0 0 0 0.4 0" type="matrix" in="shadowBlurOuter1"></feColorMatrix>
        </filter>
        <path d="M10.0303087,19 C10.0303087,19 7.81106595,17.3012618 7.03030885,16 C6.24955176,14.6987382 4.77005657,13.0410095 5.03030896,12 C5.29056133,10.9589905 6.24955175,10.6309149 7.03030893,11.4116721 C7.81106615,12.1924292 8.00980413,13.7602524 8.53030896,13.5 C9.05081381,13.2397477 9.05081352,11.931388 8.53030896,10.5 C8.00980435,9.06861202 6.46713376,6.00000017 7.53030896,6 C8.59348416,5.99999991 9.03030872,6 9.53030872,7.5 C10.0303087,8.99999999 10.1399301,10.9999993 10.5303087,11 C10.9206874,11.0000006 10.5303087,11.4116721 11.0696573,10 C11.1328239,9.83466996 10.9992708,6.62388587 11.0696573,6.5 C11.2582747,6.16801851 11.3319666,5.00000011 12.0538297,5 C12.3995786,4.99999997 13.0303086,5.5 13.0303087,7.5 C13.0303087,9.5 13.1473944,11.0000001 13.5303087,11 C14.0303087,11 14.0303091,11.0410094 14.0303087,10 C14.0303086,9.5623877 14.0303087,8 14.0303087,7.5 C14.0303087,7 14.914321,6.0000001 15.493948,6 C16.493948,6 16.0098044,10.9999999 16.5303087,11 C16.7552581,11 17.5303087,9 17.5303087,9 C17.5303087,9 18.2463966,8.00000004 18.5303087,8 C19.5303087,8 19.0303087,11 18.5303087,12 C18.0303089,13.0000001 18.3110662,14.9589904 17.5303087,16 C16.7495512,17.0410096 16.0303087,18 16.0303087,18 C16.0303087,18 16.0303087,19 15.493948,19 C14.9575872,19.0000001 13.0303087,19 13.0303087,19 L10.0303087,19 Z M13.030309,16 C13.030309,16.2708838 13.2622426,17 13.530309,17 C13.8064513,17 14.030309,16.2754211 14.030309,16 L14.030309,14 C14.030309,13.7291162 13.7983754,13 13.530309,13 C13.2541666,13 13.030309,13.7245789 13.030309,14 L13.030309,16 Z M15.030309,16 C15.030309,16.2708838 15.2622426,17 15.530309,17 C15.8064513,17 16.030309,16.2754211 16.030309,16 L16.030309,14 C16.030309,13.7291162 15.7983754,13 15.530309,13 C15.2541666,13 15.030309,13.7245789 15.030309,14 L15.030309,16 Z M11.030309,16 C11.030309,16.2708838 11.2622426,17 11.530309,17 C11.8064513,17 12.030309,16.2754211 12.030309,16 L12.030309,14 C12.030309,13.7291162 11.7983754,13 11.530309,13 C11.2541666,13 11.030309,13.7245789 11.030309,14 L11.030309,16 Z" id="path-15"></path>
        <filter x="-31.9%" y="-25.0%" width="163.8%" height="164.3%" filterUnits="objectBoundingBox" id="filter-16">
            <feMorphology radius="1" operator="dilate" in="SourceAlpha" result="shadowSpreadOuter1"></feMorphology>
            <feOffset dx="0" dy="1" in="shadowSpreadOuter1" result="shadowOffsetOuter1"></feOffset>
            <feGaussianBlur stdDeviation="1" in="shadowOffsetOuter1" result="shadowBlurOuter1"></feGaussianBlur>
            <feComposite in="shadowBlurOuter1" in2="SourceAlpha" operator="out" result="shadowBlurOuter1"></feComposite>
            <feColorMatrix values="0 0 0 0 0   0 0 0 0 0   0 0 0 0 0  0 0 0 1 0" type="matrix" in="shadowBlurOuter1"></feColorMatrix>
        </filter>
    </defs>
    <g id="snippet/files-large" stroke="none" stroke-width="1" fill="none" fill-rule="evenodd">
        <g id="Browser" transform="translate(16.000000, 16.000000)">
            <g id="component/card">
                <g id="Shadow">
                    <use fill="black" fill-opacity="1" filter="url(#filter-2)" xlink:href="#path-1"></use>
                    <use fill="#FFFFFF" fill-rule="evenodd" xlink:href="#path-1"></use>
                </g>
                <g id="Card" stroke-linecap="square">
                    <use fill="black" fill-opacity="1" filter="url(#filter-4)" xlink:href="#path-3"></use>
                    <rect stroke-opacity="0.098194067" stroke="#140B2F" stroke-width="1" fill="#FFFFFF" fill-rule="evenodd" x="-0.5" y="-0.5" width="505" height="505" rx="4"></rect>
                </g>
            </g>
            <path d="M67.8583984,91.3173828 L67.8583984,99.4208984 C67.8583984,101.134766 68.9306641,102.286133 70.8115234,102.286133 C72.6923828,102.286133 73.7558594,101.134766 73.7558594,99.4208984 L73.7558594,91.3173828 L76.0234375,91.3173828 L76.0234375,99.6318359 C76.0234375,102.400391 74.0195312,104.316406 70.8115234,104.316406 C67.6035156,104.316406 65.5996094,102.400391 65.5996094,99.6318359 L65.5996094,91.3173828 L67.8583984,91.3173828 Z M78.7304688,97.1357422 C78.7304688,95.3955078 80.3125,94.1914062 82.5800781,94.1914062 C84.8652344,94.1914062 86.2978516,95.2021484 86.4560547,96.9511719 L84.4082031,96.9511719 C84.25,96.2744141 83.6083984,95.84375 82.5888672,95.84375 C81.5957031,95.84375 80.8486328,96.3183594 80.8486328,97.0126953 C80.8486328,97.5576172 81.3056641,97.8916016 82.2724609,98.1113281 L83.96875,98.4980469 C85.8056641,98.9111328 86.6582031,99.7021484 86.6582031,101.117188 C86.6582031,102.962891 84.9619141,104.193359 82.5625,104.193359 C80.1630859,104.193359 78.6513672,103.15625 78.484375,101.407227 L80.6376953,101.407227 C80.8486328,102.119141 81.5253906,102.541016 82.6152344,102.541016 C83.7138672,102.541016 84.4785156,102.057617 84.4785156,101.345703 C84.4785156,100.800781 84.0654297,100.458008 83.1513672,100.255859 L81.4462891,99.8603516 C79.6005859,99.4384766 78.7304688,98.5859375 78.7304688,97.1357422 Z M92.1513672,102.444336 C93.4697266,102.444336 94.4541016,101.591797 94.4541016,100.475586 L94.4541016,99.7109375 L92.2832031,99.8515625 C91.0615234,99.9306641 90.4902344,100.370117 90.4902344,101.152344 C90.4902344,101.960938 91.1845703,102.444336 92.1513672,102.444336 Z M91.5097656,104.158203 C89.6552734,104.158203 88.328125,103.033203 88.328125,101.275391 C88.328125,99.5351562 89.6376953,98.5332031 91.9755859,98.3925781 L94.4541016,98.2431641 L94.4541016,97.4345703 C94.4541016,96.4941406 93.8212891,95.9667969 92.6435547,95.9667969 C91.6416016,95.9667969 90.9560547,96.3183594 90.7539062,96.96875 L88.6972656,96.96875 C88.8730469,95.2724609 90.4638672,94.1914062 92.7490234,94.1914062 C95.21875,94.1914062 96.6074219,95.3955078 96.6074219,97.4345703 L96.6074219,104 L94.5068359,104 L94.5068359,102.681641 L94.3574219,102.681641 C93.8212891,103.613281 92.7666016,104.158203 91.5097656,104.158203 Z M104.570312,104.158203 C103.225586,104.158203 102.109375,103.53418 101.564453,102.479492 L101.415039,102.479492 L101.415039,104 L99.3144531,104 L99.3144531,90.6669922 L101.494141,90.6669922 L101.494141,95.9140625 L101.643555,95.9140625 C102.144531,94.8681641 103.251953,94.2265625 104.570312,94.2265625 C107.004883,94.2265625 108.516602,96.1162109 108.516602,99.1923828 C108.516602,102.250977 106.996094,104.158203 104.570312,104.158203 Z M103.884766,96.0810547 C102.399414,96.0810547 101.458984,97.2763672 101.458984,99.1923828 C101.458984,101.108398 102.390625,102.303711 103.884766,102.303711 C105.378906,102.303711 106.275391,101.125977 106.275391,99.1923828 C106.275391,97.2587891 105.370117,96.0810547 103.884766,96.0810547 Z M110.731445,104 L110.731445,94.3847656 L112.902344,94.3847656 L112.902344,104 L110.731445,104 Z M111.8125,92.8203125 C111.021484,92.8203125 110.467773,92.3105469 110.467773,91.6162109 C110.467773,90.921875 111.021484,90.4121094 111.8125,90.4121094 C112.612305,90.4121094 113.157227,90.921875 113.157227,91.6162109 C113.157227,92.3105469 112.612305,92.8203125 111.8125,92.8203125 Z M115.688477,104 L115.688477,90.6669922 L117.868164,90.6669922 L117.868164,104 L115.688477,104 Z M120.645508,104 L120.645508,94.3847656 L122.816406,94.3847656 L122.816406,104 L120.645508,104 Z M121.726562,92.8203125 C120.935547,92.8203125 120.381836,92.3105469 120.381836,91.6162109 C120.381836,90.921875 120.935547,90.4121094 121.726562,90.4121094 C122.526367,90.4121094 123.071289,90.921875 123.071289,91.6162109 C123.071289,92.3105469 122.526367,92.8203125 121.726562,92.8203125 Z M126.208984,92.0908203 L128.379883,92.0908203 L128.379883,94.4462891 L130.489258,94.4462891 L130.489258,96.1865234 L128.379883,96.1865234 L128.379883,100.90625 C128.379883,101.855469 128.78418,102.277344 129.698242,102.277344 C130.005859,102.277344 130.164062,102.259766 130.418945,102.233398 L130.418945,103.938477 C130.111328,104 129.71582,104.043945 129.293945,104.043945 C127.087891,104.043945 126.208984,103.296875 126.208984,101.433594 L126.208984,96.1865234 L124.644531,96.1865234 L124.644531,94.4462891 L126.208984,94.4462891 L126.208984,92.0908203 Z M133.670898,107.498047 C133.539062,107.498047 132.950195,107.489258 132.80957,107.462891 L132.80957,105.6875 C132.932617,105.705078 133.257812,105.713867 133.407227,105.713867 C134.330078,105.713867 134.848633,105.353516 135.129883,104.46582 L135.244141,104.043945 L131.807617,94.3847656 L134.198242,94.3847656 L136.448242,101.890625 L136.597656,101.890625 L138.838867,94.3847656 L141.141602,94.3847656 L137.669922,104.307617 C136.852539,106.698242 135.824219,107.498047 133.670898,107.498047 Z M148.506836,92.0908203 L150.677734,92.0908203 L150.677734,94.4462891 L152.787109,94.4462891 L152.787109,96.1865234 L150.677734,96.1865234 L150.677734,100.90625 C150.677734,101.855469 151.082031,102.277344 151.996094,102.277344 C152.303711,102.277344 152.461914,102.259766 152.716797,102.233398 L152.716797,103.938477 C152.40918,104 152.013672,104.043945 151.591797,104.043945 C149.385742,104.043945 148.506836,103.296875 148.506836,101.433594 L148.506836,96.1865234 L146.942383,96.1865234 L146.942383,94.4462891 L148.506836,94.4462891 L148.506836,92.0908203 Z M158.948242,95.9228516 C157.647461,95.9228516 156.733398,96.8544922 156.636719,98.2607422 L161.163086,98.2607422 C161.119141,96.8369141 160.257812,95.9228516 158.948242,95.9228516 Z M161.180664,101.354492 L163.246094,101.354492 C162.833008,103.103516 161.242188,104.193359 158.974609,104.193359 C156.144531,104.193359 154.439453,102.321289 154.439453,99.2275391 C154.439453,96.1337891 156.170898,94.1914062 158.957031,94.1914062 C161.699219,94.1914062 163.342773,96.0107422 163.342773,99.0429688 L163.342773,99.7460938 L156.62793,99.7460938 L156.62793,99.8603516 C156.680664,101.459961 157.603516,102.461914 159.036133,102.461914 C160.117188,102.461914 160.864258,102.066406 161.180664,101.354492 Z M165.311523,97.1357422 C165.311523,95.3955078 166.893555,94.1914062 169.161133,94.1914062 C171.446289,94.1914062 172.878906,95.2021484 173.037109,96.9511719 L170.989258,96.9511719 C170.831055,96.2744141 170.189453,95.84375 169.169922,95.84375 C168.176758,95.84375 167.429688,96.3183594 167.429688,97.0126953 C167.429688,97.5576172 167.886719,97.8916016 168.853516,98.1113281 L170.549805,98.4980469 C172.386719,98.9111328 173.239258,99.7021484 173.239258,101.117188 C173.239258,102.962891 171.542969,104.193359 169.143555,104.193359 C166.744141,104.193359 165.232422,103.15625 165.06543,101.407227 L167.21875,101.407227 C167.429688,102.119141 168.106445,102.541016 169.196289,102.541016 C170.294922,102.541016 171.05957,102.057617 171.05957,101.345703 C171.05957,100.800781 170.646484,100.458008 169.732422,100.255859 L168.027344,99.8603516 C166.181641,99.4384766 165.311523,98.5859375 165.311523,97.1357422 Z M176.139648,92.0908203 L178.310547,92.0908203 L178.310547,94.4462891 L180.419922,94.4462891 L180.419922,96.1865234 L178.310547,96.1865234 L178.310547,100.90625 C178.310547,101.855469 178.714844,102.277344 179.628906,102.277344 C179.936523,102.277344 180.094727,102.259766 180.349609,102.233398 L180.349609,103.938477 C180.041992,104 179.646484,104.043945 179.224609,104.043945 C177.018555,104.043945 176.139648,103.296875 176.139648,101.433594 L176.139648,96.1865234 L174.575195,96.1865234 L174.575195,94.4462891 L176.139648,94.4462891 L176.139648,92.0908203 Z M200.22168,94.3847656 L197.620117,104 L195.326172,104 L193.454102,97.0742188 L193.304688,97.0742188 L191.441406,104 L189.173828,104 L186.572266,94.3847656 L188.769531,94.3847656 L190.369141,101.56543 L190.518555,101.56543 L192.364258,94.3847656 L194.447266,94.3847656 L196.310547,101.56543 L196.459961,101.56543 L198.050781,94.3847656 L200.22168,94.3847656 Z M202.146484,104 L202.146484,94.3847656 L204.317383,94.3847656 L204.317383,104 L202.146484,104 Z M203.227539,92.8203125 C202.436523,92.8203125 201.882812,92.3105469 201.882812,91.6162109 C201.882812,90.921875 202.436523,90.4121094 203.227539,90.4121094 C204.027344,90.4121094 204.572266,90.921875 204.572266,91.6162109 C204.572266,92.3105469 204.027344,92.8203125 203.227539,92.8203125 Z M207.709961,92.0908203 L209.880859,92.0908203 L209.880859,94.4462891 L211.990234,94.4462891 L211.990234,96.1865234 L209.880859,96.1865234 L209.880859,100.90625 C209.880859,101.855469 210.285156,102.277344 211.199219,102.277344 C211.506836,102.277344 211.665039,102.259766 211.919922,102.233398 L211.919922,103.938477 C211.612305,104 211.216797,104.043945 210.794922,104.043945 C208.588867,104.043945 207.709961,103.296875 207.709961,101.433594 L207.709961,96.1865234 L206.145508,96.1865234 L206.145508,94.4462891 L207.709961,94.4462891 L207.709961,92.0908203 Z M214.205078,104 L214.205078,90.6669922 L216.349609,90.6669922 L216.349609,95.9404297 L216.507812,95.9404297 C216.964844,94.859375 218.098633,94.2089844 219.53125,94.2089844 C221.68457,94.2089844 222.932617,95.5097656 222.932617,97.7949219 L222.932617,104 L220.761719,104 L220.761719,98.3134766 C220.761719,96.8544922 220.058594,96.1074219 218.722656,96.1074219 C217.290039,96.1074219 216.384766,97.0390625 216.384766,98.4189453 L216.384766,104 L214.205078,104 Z M238.726562,104 L237.654297,100.756836 L232.987305,100.756836 L231.897461,104 L229.603516,104 L234.103516,91.3173828 L236.652344,91.3173828 L241.161133,104 L238.726562,104 Z M235.254883,93.734375 L233.514648,98.9638672 L237.126953,98.9638672 L235.404297,93.734375 L235.254883,93.734375 Z M246.592773,104.158203 C244.158203,104.158203 242.637695,102.242188 242.637695,99.1835938 C242.637695,96.1425781 244.166992,94.2265625 246.592773,94.2265625 C247.911133,94.2265625 249.000977,94.859375 249.510742,95.9140625 L249.660156,95.9140625 L249.660156,90.6669922 L251.839844,90.6669922 L251.839844,104 L249.730469,104 L249.730469,102.479492 L249.581055,102.479492 C249.036133,103.53418 247.928711,104.158203 246.592773,104.158203 Z M247.269531,96.0810547 C245.78418,96.0810547 244.870117,97.2587891 244.870117,99.1923828 C244.870117,101.134766 245.775391,102.303711 247.269531,102.303711 C248.772461,102.303711 249.686523,101.125977 249.686523,99.1923828 C249.686523,97.2763672 248.763672,96.0810547 247.269531,96.0810547 Z M257.87793,102.444336 C259.196289,102.444336 260.180664,101.591797 260.180664,100.475586 L260.180664,99.7109375 L258.009766,99.8515625 C256.788086,99.9306641 256.216797,100.370117 256.216797,101.152344 C256.216797,101.960938 256.911133,102.444336 257.87793,102.444336 Z M257.236328,104.158203 C255.381836,104.158203 254.054688,103.033203 254.054688,101.275391 C254.054688,99.5351562 255.364258,98.5332031 257.702148,98.3925781 L260.180664,98.2431641 L260.180664,97.4345703 C260.180664,96.4941406 259.547852,95.9667969 258.370117,95.9667969 C257.368164,95.9667969 256.682617,96.3183594 256.480469,96.96875 L254.423828,96.96875 C254.599609,95.2724609 256.19043,94.1914062 258.475586,94.1914062 C260.945312,94.1914062 262.333984,95.3955078 262.333984,97.4345703 L262.333984,104 L260.233398,104 L260.233398,102.681641 L260.083984,102.681641 C259.547852,103.613281 258.493164,104.158203 257.236328,104.158203 Z M264.953125,104 L264.953125,94.3847656 L267.053711,94.3847656 L267.053711,95.9404297 L267.203125,95.9404297 C267.616211,94.8417969 268.600586,94.1914062 269.875,94.1914062 C271.202148,94.1914062 272.125,94.859375 272.529297,95.9404297 L272.678711,95.9404297 C273.15332,94.8857422 274.260742,94.1914062 275.59668,94.1914062 C277.521484,94.1914062 278.681641,95.3955078 278.681641,97.390625 L278.681641,104 L276.510742,104 L276.510742,97.9443359 C276.510742,96.7050781 275.921875,96.0898438 274.75293,96.0898438 C273.619141,96.0898438 272.87207,96.9160156 272.87207,98.0146484 L272.87207,104 L270.753906,104 L270.753906,97.7861328 C270.753906,96.7314453 270.085938,96.0898438 269.013672,96.0898438 C267.932617,96.0898438 267.132812,96.9775391 267.132812,98.1552734 L267.132812,104 L264.953125,104 Z M293.605469,95.0175781 L291.039062,104 L288.90332,104 L285.501953,91.3173828 L287.866211,91.3173828 L290.037109,100.756836 L290.168945,100.756836 L292.665039,91.3173828 L294.677734,91.3173828 L297.208984,100.756836 L297.332031,100.756836 L299.50293,91.3173828 L301.849609,91.3173828 L298.448242,104 L296.321289,104 L293.737305,95.0175781 L293.605469,95.0175781 Z" id="Usability-test-with" fill="#A7A0B8"></path>
            <path d="M4,0 L500,0 C502.209139,-4.05812251e-16 504,1.790861 504,4 L504,32 L0,32 L0,4 C-2.705415e-16,1.790861 1.790861,4.05812251e-16 4,0 Z" id="Rectangle" fill="#F4F3F6" fill-rule="nonzero"></path>
            <rect id="Rectangle-2" fill="#FBFAFC" fill-rule="nonzero" x="129" y="8" width="246" height="16" rx="4"></rect>
            <circle id="Oval-3" fill="#FF6058" fill-rule="nonzero" cx="21" cy="16" r="5"></circle>
            <circle id="Oval-3" fill="#FFC12F" fill-rule="nonzero" cx="37" cy="16" r="5"></circle>
            <circle id="Oval-3" fill="#2ACE42" fill-rule="nonzero" cx="53" cy="16" r="5"></circle>
        </g>
        <g id="Content" transform="translate(80.000000, 140.000000)">
            <rect id="Rectangle-9" fill="#DCD5EE" x="0" y="236" width="312" height="12" rx="4"></rect>
            <rect id="Rectangle-9" fill="#DCD5EE" x="0" y="264" width="120" height="12" rx="4"></rect>
            <rect id="Rectangle-9" fill="#512DA8" x="136" y="264" width="176" height="12" rx="4"></rect>
            <rect id="Rectangle-9" fill="#512DA8" x="0" y="292" width="312" height="12" rx="4"></rect>
            <rect id="Rectangle-9" fill="#DCD5EE" x="0" y="320" width="120" height="12" rx="4"></rect>
            <rect id="Rectangle-7" fill="#5182F8" fill-rule="nonzero" x="0" y="204" width="312" height="4" rx="2"></rect>
            <g id="Group">
                <mask id="mask-6" fill="white">
                    <use xlink:href="#path-5"></use>
                </mask>
                <use id="Rectangle" fill="#512DA8" opacity="0.200000003" xlink:href="#path-5"></use>
                <ellipse id="Oval" fill="#512DA8" opacity="0.200000003" mask="url(#mask-6)" cx="273.333333" cy="28" rx="11.9166667" ry="12"></ellipse>
                <path d="M0,142.285714 C28.6,108.761905 59.8,92 93.6,92 C144.3,92 156,151.714286 218.4,142.285714 C260,136 291.2,144.380952 312,167.428571 L312,180 L0,180 L0,142.285714 Z" id="Path-2" fill="#512DA8" opacity="0.200000003" mask="url(#mask-6)"></path>
            </g>
        </g>
        <g id="Page-header" transform="translate(32.000000, 60.000000)" fill="#E4E2E9">
            <rect id="Rectangle-4" fill-rule="nonzero" x="0" y="0" width="16" height="16" rx="8"></rect>
            <rect id="Rectangle-4" fill-rule="nonzero" x="20" y="0" width="16" height="16" rx="8"></rect>
            <rect id="Rectangle-9" x="48" y="4" width="120" height="8" rx="4"></rect>
            <rect id="Rectangle-4" fill-rule="nonzero" x="456" y="0" width="16" height="16" rx="8"></rect>
            <rect id="Rectangle-4" fill-rule="nonzero" x="436" y="0" width="16" height="16" rx="8"></rect>
            <rect id="Rectangle-4" fill-rule="nonzero" x="416" y="0" width="16" height="16" rx="8"></rect>
        </g>
        <g id="Finder" transform="translate(376.000000, 208.000000)">
            <g id="component/card-shadow">
                <g id="Group">
                    <g id="Shadow" opacity="0.200000003">
                        <use fill="black" fill-opacity="1" filter="url(#filter-8)" xlink:href="#path-7"></use>
                        <use fill="#FFFFFF" fill-rule="evenodd" xlink:href="#path-7"></use>
                    </g>
                    <g id="Rectangle">
                        <use fill="black" fill-opacity="1" filter="url(#filter-10)" xlink:href="#path-9"></use>
                        <use fill="#FFFFFF" fill-rule="evenodd" xlink:href="#path-9"></use>
                    </g>
                </g>
            </g>
            <g id="Group-3" transform="translate(256.000000, 64.000000)">
                <rect id="Rectangle-3" stroke="#FEDCE4" fill="#FEE9EE" fill-rule="nonzero" x="0.5" y="0.5" width="55" height="55" rx="4"></rect>
                <g id="film" transform="translate(18.000000, 18.000000)" stroke="#F84F77" stroke-linecap="round" stroke-linejoin="round" stroke-width="2">
                    <rect id="Rectangle-path" x="0" y="0" width="20" height="20" rx="2.18"></rect>
                    <path d="M5,0 L5,20" id="Shape"></path>
                    <path d="M15,0 L15,20" id="Shape"></path>
                    <path d="M0,10 L20,10" id="Shape"></path>
                    <path d="M0,5 L5,5" id="Shape"></path>
                    <path d="M0,15 L5,15" id="Shape"></path>
                    <path d="M15,15 L20,15" id="Shape"></path>
                    <path d="M15,5 L20,5" id="Shape"></path>
                </g>
            </g>
            <g id="Group-5" transform="translate(168.000000, 152.000000)">
                <rect id="Rectangle-3" stroke="#CCEAE7" fill="#E0F2F0" fill-rule="nonzero" x="0.5" y="0.5" width="55" height="55" rx="4"></rect>
                <g id="table" transform="translate(18.000000, 18.000000)" stroke="#009688" stroke-linecap="round" stroke-linejoin="round" stroke-width="2">
                    <rect id="Combined-Shape" x="0" y="0" width="20" height="20" rx="3"></rect>
                    <path d="M8,0 L8,20 L8,0 Z" id="Shape"></path>
                    <path d="M0,7 L20,7 L0,7 Z" id="Shape"></path>
                </g>
            </g>
            <g id="Group-4" transform="translate(256.000000, 152.000000)">
                <rect id="Rectangle-3" stroke="#F4F3F6" fill="#FBFAFC" fill-rule="nonzero" x="0.5" y="0.5" width="55" height="55" rx="4"></rect>
                <g id="music" transform="translate(19.000000, 19.000000)" stroke="#E4E2E9" stroke-linecap="round" stroke-linejoin="round" stroke-width="2">
                    <path d="M6,14 L2,14 C0.8954305,14 0,14.8954305 0,16 C0,17.1045695 0.8954305,18 2,18 L4,18 C5.1045695,18 6,17.1045695 6,16 L6,14 Z M18,12 L14,12 C12.8954305,12 12,12.8954305 12,14 C12,15.1045695 12.8954305,16 14,16 L16,16 C17.1045695,16 18,15.1045695 18,14 L18,12 Z" id="Shape"></path>
                    <polyline id="Shape" points="6 14 6 2 18 0 18 12"></polyline>
                </g>
            </g>
            <g id="Group-6" transform="translate(344.000000, 152.000000)">
                <rect id="Rectangle-3" stroke="#FADDD7" fill="#FBEAE6" fill-rule="nonzero" x="0.5" y="0.5" width="55" height="55" rx="4"></rect>
                <g id="image" transform="translate(18.000000, 18.000000)" stroke="#E45735" stroke-linecap="round" stroke-linejoin="round" stroke-width="2">
                    <rect id="Rectangle-path" x="0" y="0" width="20" height="20" rx="2.18"></rect>
                    <circle id="Oval" cx="6.5" cy="6.5" r="1.5"></circle>
                    <polyline id="Shape" points="20 14 14 8 2 20"></polyline>
                </g>
            </g>
            <g id="Group-4" transform="translate(344.000000, 64.000000)">
                <rect id="Rectangle-3" stroke="#FFF0CC" fill="#FFF5E0" fill-rule="nonzero" x="0.5" y="0.5" width="55" height="55" rx="4"></rect>
                <g id="music" transform="translate(19.000000, 19.000000)" stroke="#BF6E33" stroke-linecap="round" stroke-linejoin="round" stroke-width="2">
                    <path d="M6,14 L2,14 C0.8954305,14 0,14.8954305 0,16 C0,17.1045695 0.8954305,18 2,18 L4,18 C5.1045695,18 6,17.1045695 6,16 L6,14 Z M18,12 L14,12 C12.8954305,12 12,12.8954305 12,14 C12,15.1045695 12.8954305,16 14,16 L16,16 C17.1045695,16 18,15.1045695 18,14 L18,12 Z" id="Shape"></path>
                    <polyline id="Shape" points="6 14 6 2 18 0 18 12"></polyline>
                </g>
            </g>
            <g id="Group-2" transform="translate(168.000000, 64.000000)">
                <rect id="Rectangle-3" stroke="#DCE6FE" fill="#EAF0FE" fill-rule="nonzero" x="0.5" y="0.5" width="55" height="55" rx="4"></rect>
                <g id="file-text" transform="translate(20.000000, 18.000000)" stroke="#5182F8" stroke-linecap="round" stroke-linejoin="round" stroke-width="2">
                    <path d="M10,0 L2,0 C0.8954305,0 0,0.8954305 0,2 L0,18 C0,19.1045695 0.8954305,20 2,20 L14,20 C15.1045695,20 16,19.1045695 16,18 L16,6 L10,0 Z" id="Shape"></path>
                    <polyline id="Shape" points="10 0 10 6 16 6"></polyline>
                    <path d="M12,11 L4,11" id="Shape"></path>
                    <path d="M12,15 L4,15" id="Shape"></path>
                    <polyline id="Shape" points="6 7 5 7 4 7"></polyline>
                </g>
            </g>
            <path d="M4,0 L428,0 C430.209139,-4.05812251e-16 432,1.790861 432,4 L432,32 L0,32 L0,4 C-2.705415e-16,1.790861 1.790861,4.05812251e-16 4,0 Z" id="Rectangle" fill="#F4F3F6" fill-rule="nonzero"></path>
            <circle id="Oval-3" fill="#FF6058" fill-rule="nonzero" cx="21" cy="16" r="5"></circle>
            <circle id="Oval-3" fill="#FFC12F" fill-rule="nonzero" cx="37" cy="16" r="5"></circle>
            <circle id="Oval-3" fill="#2ACE42" fill-rule="nonzero" cx="53" cy="16" r="5"></circle>
            <path d="M0,32 L136,32 L136,272 L4,272 C1.790861,272 2.705415e-16,270.209139 0,268 L0,32 Z" id="Rectangle-8" fill="#FBFAFC" fill-rule="nonzero"></path>
            <rect id="Rectangle-9" fill="#EEECF1" x="16" y="56" width="72" height="8" rx="3"></rect>
            <rect id="Rectangle-9" fill="#EEECF1" x="16" y="80" width="104" height="8" rx="3"></rect>
            <rect id="Rectangle-9" fill="#EEECF1" x="16" y="104" width="64" height="8" rx="3"></rect>
            <rect id="Rectangle-9" fill="#EEECF1" x="16" y="128" width="104" height="8" rx="3"></rect>
            <rect id="Rectangle-9" fill="#EEECF1" x="16" y="152" width="32" height="8" rx="3"></rect>
        </g>
        <g id="Dragging" transform="translate(272.000000, 312.000000)">
            <g id="Group-2">
                <g id="Rectangle-3" fill-rule="nonzero">
                    <use fill="black" fill-opacity="1" filter="url(#filter-12)" xlink:href="#path-11"></use>
                    <rect stroke-opacity="0.1" stroke="#24124D" stroke-width="1" fill="#FFF5E0" fill-rule="evenodd" x="-0.5" y="-0.5" width="57" height="57" rx="4"></rect>
                </g>
                <g id="music" transform="translate(19.000000, 19.000000)" stroke="#BF6E33" stroke-linecap="round" stroke-linejoin="round" stroke-width="2">
                    <path d="M6,14 L2,14 C0.8954305,14 0,14.8954305 0,16 C0,17.1045695 0.8954305,18 2,18 L4,18 C5.1045695,18 6,17.1045695 6,16 L6,14 Z M18,12 L14,12 C12.8954305,12 12,12.8954305 12,14 C12,15.1045695 12.8954305,16 14,16 L16,16 C17.1045695,16 18,15.1045695 18,14 L18,12 Z" id="Shape"></path>
                    <polyline id="Shape" points="6 14 6 2 18 0 18 12"></polyline>
                </g>
            </g>
            <g id="Rectangle-10" fill-rule="nonzero">
                <use fill="black" fill-opacity="1" filter="url(#filter-14)" xlink:href="#path-13"></use>
                <use fill="#5182F8" xlink:href="#path-13"></use>
            </g>
            <path d="M83.9980469,32 L83.9980469,24.4599609 L85.9257812,24.4599609 L85.9257812,25.6630859 L86.0488281,25.6630859 C86.2470703,24.9111328 87.0195312,24.3369141 87.9628906,24.3369141 C88.2294922,24.3369141 88.5576172,24.3710938 88.7285156,24.4326172 L88.7285156,26.2441406 C88.5712891,26.1826172 88.0859375,26.1210938 87.7988281,26.1210938 C86.7324219,26.1210938 85.9873047,26.7636719 85.9873047,27.8232422 L85.9873047,32 L83.9980469,32 Z M93.3017578,25.8203125 C92.3789062,25.8203125 91.7294922,26.4628906 91.6611328,27.4404297 L94.8740234,27.4404297 C94.8330078,26.4423828 94.2314453,25.8203125 93.3017578,25.8203125 Z M94.9150391,29.8535156 L96.7675781,29.8535156 C96.4667969,31.2753906 95.1679688,32.1640625 93.3222656,32.1640625 C91.0253906,32.1640625 89.671875,30.7148438 89.671875,28.2675781 C89.671875,25.8134766 91.0527344,24.2958984 93.2949219,24.2958984 C95.5166016,24.2958984 96.8291016,25.7109375 96.8291016,28.1035156 L96.8291016,28.7119141 L91.6542969,28.7119141 L91.6542969,28.8144531 C91.6816406,29.9355469 92.3378906,30.6328125 93.3769531,30.6328125 C94.1630859,30.6328125 94.703125,30.3525391 94.9150391,29.8535156 Z M105.12793,27.1191406 L103.268555,27.1191406 C103.131836,26.4013672 102.619141,25.9296875 101.771484,25.9296875 C100.698242,25.9296875 100.09668,26.7294922 100.09668,28.2128906 C100.09668,29.7167969 100.705078,30.5302734 101.771484,30.5302734 C102.584961,30.5302734 103.118164,30.1337891 103.268555,29.3886719 L105.12793,29.3886719 C104.963867,31.0771484 103.733398,32.1640625 101.771484,32.1640625 C99.4199219,32.1640625 98.0869141,30.7421875 98.0869141,28.2128906 C98.0869141,25.7109375 99.4130859,24.2958984 101.771484,24.2958984 C103.767578,24.2958984 104.963867,25.4033203 105.12793,27.1191406 Z M110.022461,30.5371094 C111.082031,30.5371094 111.69043,29.6894531 111.69043,28.2265625 C111.69043,26.7773438 111.075195,25.9228516 110.022461,25.9228516 C108.962891,25.9228516 108.354492,26.7773438 108.354492,28.2265625 C108.354492,29.6962891 108.956055,30.5371094 110.022461,30.5371094 Z M110.022461,32.1640625 C107.705078,32.1640625 106.310547,30.6943359 106.310547,28.2265625 C106.310547,25.7861328 107.725586,24.2958984 110.022461,24.2958984 C112.319336,24.2958984 113.734375,25.7792969 113.734375,28.2265625 C113.734375,30.6943359 112.339844,32.1640625 110.022461,32.1640625 Z M115.354492,32 L115.354492,24.4599609 L117.282227,24.4599609 L117.282227,25.6630859 L117.405273,25.6630859 C117.603516,24.9111328 118.375977,24.3369141 119.319336,24.3369141 C119.585938,24.3369141 119.914062,24.3710938 120.084961,24.4326172 L120.084961,26.2441406 C119.927734,26.1826172 119.442383,26.1210938 119.155273,26.1210938 C118.088867,26.1210938 117.34375,26.7636719 117.34375,27.8232422 L117.34375,32 L115.354492,32 Z M124.097656,32.1162109 C122.197266,32.1162109 121.02832,30.6259766 121.02832,28.2197266 C121.02832,25.8203125 122.204102,24.3369141 124.097656,24.3369141 C125.116211,24.3369141 125.957031,24.8291016 126.34668,25.6630859 L126.462891,25.6630859 L126.462891,21.5820312 L128.452148,21.5820312 L128.452148,32 L126.524414,32 L126.524414,30.8173828 L126.401367,30.8173828 C125.998047,31.6308594 125.143555,32.1162109 124.097656,32.1162109 Z M124.774414,26.0048828 C123.714844,26.0048828 123.072266,26.8457031 123.072266,28.2265625 C123.072266,29.6210938 123.708008,30.4550781 124.774414,30.4550781 C125.84082,30.4550781 126.483398,29.6142578 126.483398,28.2333984 C126.483398,26.859375 125.833984,26.0048828 124.774414,26.0048828 Z M130.530273,32 L130.530273,24.4599609 L132.519531,24.4599609 L132.519531,32 L130.530273,32 Z M131.52832,23.4072266 C130.810547,23.4072266 130.352539,22.9902344 130.352539,22.4023438 C130.352539,21.8076172 130.810547,21.3974609 131.52832,21.3974609 C132.239258,21.3974609 132.704102,21.8076172 132.704102,22.4023438 C132.704102,22.9902344 132.239258,23.4072266 131.52832,23.4072266 Z M134.529297,32 L134.529297,24.4599609 L136.457031,24.4599609 L136.457031,25.6699219 L136.580078,25.6699219 C136.928711,24.8222656 137.817383,24.2958984 138.924805,24.2958984 C140.606445,24.2958984 141.556641,25.3212891 141.556641,27.1259766 L141.556641,32 L139.567383,32 L139.567383,27.5976562 C139.567383,26.5585938 139.075195,26.0117188 138.131836,26.0117188 C137.147461,26.0117188 136.518555,26.6611328 136.518555,27.6523438 L136.518555,32 L134.529297,32 Z M148.556641,28.1650391 C148.556641,26.8388672 147.907227,26.0048828 146.833984,26.0048828 C145.760742,26.0048828 145.138672,26.8388672 145.138672,28.1582031 C145.138672,29.4912109 145.753906,30.3183594 146.833984,30.3183594 C147.914062,30.3183594 148.556641,29.4912109 148.556641,28.1650391 Z M146.806641,34.8574219 C144.803711,34.8574219 143.477539,33.9755859 143.354492,32.6494141 L145.323242,32.6494141 C145.425781,33.1142578 145.986328,33.4082031 146.847656,33.4082031 C147.914062,33.4082031 148.536133,32.9160156 148.536133,32.0683594 L148.536133,30.6738281 L148.413086,30.6738281 C147.996094,31.4667969 147.203125,31.890625 146.143555,31.890625 C144.263672,31.890625 143.094727,30.4345703 143.094727,28.1650391 C143.094727,25.8271484 144.270508,24.3369141 146.18457,24.3369141 C147.203125,24.3369141 148.071289,24.8427734 148.474609,25.6699219 L148.597656,25.6699219 L148.597656,24.4599609 L150.525391,24.4599609 L150.525391,31.9726562 C150.525391,33.7431641 149.083008,34.8574219 146.806641,34.8574219 Z M153.957031,32.1845703 C153.225586,32.1845703 152.74707,31.6855469 152.74707,30.9951172 C152.74707,30.3046875 153.225586,29.8125 153.957031,29.8125 C154.695312,29.8125 155.166992,30.3046875 155.166992,30.9951172 C155.166992,31.6855469 154.695312,32.1845703 153.957031,32.1845703 Z M157.388672,32 L157.388672,24.4599609 L159.316406,24.4599609 L159.316406,25.6904297 L159.439453,25.6904297 C159.74707,24.8291016 160.533203,24.2958984 161.524414,24.2958984 C162.583984,24.2958984 163.308594,24.8154297 163.609375,25.6904297 L163.732422,25.6904297 C164.081055,24.8496094 164.949219,24.2958984 166.001953,24.2958984 C167.505859,24.2958984 168.442383,25.2734375 168.442383,26.8251953 L168.442383,32 L166.453125,32 L166.453125,27.3515625 C166.453125,26.4560547 166.036133,26.0117188 165.195312,26.0117188 C164.388672,26.0117188 163.869141,26.5859375 163.869141,27.3857422 L163.869141,32 L161.955078,32 L161.955078,27.2695312 C161.955078,26.4697266 161.490234,26.0117188 160.710938,26.0117188 C159.931641,26.0117188 159.37793,26.6201172 159.37793,27.4609375 L159.37793,32 L157.388672,32 Z M174.724609,24.3369141 C176.631836,24.3369141 177.800781,25.7861328 177.800781,28.2265625 C177.800781,30.6601562 176.645508,32.1162109 174.758789,32.1162109 C173.678711,32.1162109 172.851562,31.6445312 172.482422,30.8447266 L172.359375,30.8447266 L172.359375,34.3583984 L170.370117,34.3583984 L170.370117,24.4599609 L172.297852,24.4599609 L172.297852,25.6972656 L172.420898,25.6972656 C172.831055,24.8496094 173.685547,24.3369141 174.724609,24.3369141 Z M174.047852,30.4550781 C175.121094,30.4550781 175.756836,29.6210938 175.756836,28.2265625 C175.756836,26.8457031 175.114258,26.0048828 174.054688,26.0048828 C172.995117,26.0048828 172.338867,26.8525391 172.338867,28.2333984 C172.338867,29.6142578 172.995117,30.4550781 174.047852,30.4550781 Z M181.827148,27.7207031 L181.827148,26.1826172 L183.030273,26.1826172 C183.966797,26.1826172 184.602539,25.6357422 184.602539,24.8291016 C184.602539,24.0361328 183.987305,23.5302734 183.023438,23.5302734 C182.066406,23.5302734 181.430664,24.0703125 181.375977,24.9248047 L179.46875,24.9248047 C179.537109,23.0585938 180.924805,21.8828125 183.078125,21.8828125 C185.101562,21.8828125 186.557617,22.9902344 186.557617,24.5419922 C186.557617,25.6835938 185.839844,26.5722656 184.739258,26.7978516 L184.739258,26.9208984 C186.092773,27.0712891 186.94043,27.9736328 186.94043,29.2724609 C186.94043,31.0019531 185.313477,32.2529297 183.064453,32.2529297 C180.863281,32.2529297 179.373047,31.0361328 179.28418,29.1767578 L181.259766,29.1767578 C181.321289,30.0107422 182.025391,30.5371094 183.084961,30.5371094 C184.117188,30.5371094 184.834961,29.9560547 184.834961,29.1152344 C184.834961,28.2539062 184.158203,27.7207031 183.050781,27.7207031 L181.827148,27.7207031 Z" id="recording.mp3" fill="#FFFFFF"></path>
            <g id="Cursors/Drag" transform="translate(35.000000, 34.000000)">
                <g id="Drag">
                    <use fill="black" fill-opacity="1" filter="url(#filter-16)" xlink:href="#path-15"></use>
                    <path stroke="#000000" stroke-width="1" d="M11.5516534,6.69974108 C11.5516696,6.6989483 11.5516925,6.69804034 11.5517253,6.69700549 C11.5516934,6.69801343 11.5516618,6.69902633 11.5516304,6.70004417 Z M8.41274384,12.8009395 C8.47105599,12.3972818 8.38749262,11.5703429 8.06041224,10.6708715 C7.99715323,10.4969092 7.91544561,10.2898052 7.79688986,10.0001704 C7.75607838,9.90046687 7.53089785,9.35547597 7.46517671,9.19449258 C7.406092,9.0497651 7.35337514,8.91898556 7.30378218,8.79378411 C6.97949763,7.97510152 6.78239953,7.37672934 6.70249377,6.89779967 C6.56984634,6.1027532 6.78326918,5.50000012 7.53030892,5.5 C9.01414722,5.49999987 9.48789409,5.79161726 10.0046504,7.34188611 C10.1027975,7.63632741 10.1907722,7.9595862 10.2759301,8.32714676 C10.3484962,8.64035873 10.515652,9.47806904 10.5911851,9.85147807 C10.5949505,9.84156436 10.5987508,9.83158823 10.6025863,9.82154918 C10.5892241,9.85652292 10.5836184,9.07614178 10.5679521,8.28976657 C10.5676698,8.275595 10.5676698,8.275595 10.5673875,8.26142058 C10.5551739,7.64804869 10.5503616,7.36095487 10.548887,7.08508423 C10.5455321,6.45744722 10.5471087,6.40756612 10.6349243,6.25300372 C10.6400481,6.24398533 10.6543115,6.20772283 10.6732049,6.1483493 C10.6837587,6.11518365 10.7857869,5.75912053 10.8264847,5.63627804 C11.0604614,4.93004103 11.4048671,4.5000001 12.0538296,4.5 C12.9414741,4.49999993 13.5303086,5.59911251 13.5303087,7.5 C13.5303087,6.7013303 14.6584306,5.50000014 15.493948,5.5 C16.390431,5.5 16.5726715,6.32640729 16.6911786,8.47243115 C16.701746,8.66379394 16.6995899,8.61956333 16.7268172,9.18969242 C16.7340375,9.34088324 16.7407119,9.47386231 16.7471471,9.59218388 C16.81267,9.43978005 16.8783638,9.28207581 16.9424623,9.12430309 C16.9984986,8.98637479 17.0407899,8.87945973 17.064092,8.8193292 L17.1237888,8.708896 C17.2210812,8.57302935 17.372203,8.37507219 17.5443824,8.17440725 C17.6059822,8.10261629 17.6662811,8.03547528 17.7250322,7.97371662 C18.0220004,7.66154568 18.2366087,7.50000004 18.5303087,7.5 C19.4280301,7.5 19.6829628,8.38067683 19.5915381,9.66062352 C19.526625,10.5694067 19.2684846,11.6416823 18.9775224,12.2236067 C18.8359634,12.5067248 18.7678057,12.8645541 18.6718156,13.7021844 C18.6496801,13.895982 18.6390098,13.987868 18.6259141,14.0944346 C18.4974619,15.139725 18.3271558,15.7708708 17.9303087,16.3000001 C16.8969495,17.6778121 16.7999733,17.8071137 16.5232936,18.1760202 C16.5128419,18.3113719 16.489589,18.4677182 16.4461986,18.6295137 C16.3105875,19.135185 16.0170789,19.5 15.4939481,19.5 C15.0345016,19.5 15.0345016,19.5 14.3306558,19.5 C13.9150975,19.5 13.9150975,19.5 13.5498387,19.5 C13.1373797,19.5 13.1373797,19.5 13.0303087,19.5 L9.86090972,19.5 L9.72639516,19.3970347 C9.61937201,19.3151129 9.43563076,19.1694172 9.20048047,18.9743411 C8.80900393,18.6495797 8.41739929,18.3046237 8.0505666,17.9532621 C7.74294615,17.6586155 7.46603689,17.3718986 7.22704888,17.0965327 C6.96960195,16.799898 6.75924971,16.5200601 6.60156239,16.2572479 C6.42884105,15.969379 6.34343481,15.8424581 5.83248929,15.099907 C5.73780003,14.9622963 5.66586091,14.8569915 5.59639474,14.7539705 C4.7086449,13.4374033 4.35371817,12.6448103 4.54523771,11.8787322 C4.90196557,10.4518208 6.33404679,10.0083032 7.38386229,11.0581187 C7.63777758,11.3120339 7.84238093,11.6252571 8.04833434,12.0343746 C8.09649978,12.1300532 8.29379439,12.5571373 8.41274384,12.8009395 Z M13.7107033,13.446887 C13.6830363,13.4719991 13.6262939,13.5 13.530309,13.5 C13.4220185,13.5 13.3637659,13.4664768 13.3386547,13.4394851 C13.3672849,13.4809674 13.3940024,13.5309946 13.420387,13.5933254 C13.4842988,13.7443103 13.530309,13.9331742 13.530309,14 L13.530309,16 C13.530309,16.0716349 13.4855417,16.2603554 13.4228269,16.4097725 C13.3938384,16.4788371 13.3644348,16.5320146 13.3431994,16.5593743 C13.3775817,16.5280009 13.434324,16.5 13.530309,16.5 C13.6385994,16.5 13.6968521,16.5335232 13.7219632,16.5605149 C13.6933331,16.5190326 13.6666155,16.4690054 13.6402309,16.4066746 C13.5763191,16.2556897 13.530309,16.0668258 13.530309,16 L13.530309,14 C13.530309,13.9283651 13.5750762,13.7396446 13.637791,13.5902275 C13.6667795,13.5211629 13.6961831,13.4679854 13.7174185,13.4406257 Z M13.3431994,16.5593743 C13.3420555,16.5608481 13.3409353,16.5622471 13.3398401,16.5635695 C13.342629,16.5602019 13.3459774,16.5566867 13.3499147,16.553113 Z M13.7219632,16.5605149 C13.723395,16.562054 13.7247191,16.5635719 13.7259386,16.5650611 C13.7223416,16.5606686 13.7184961,16.5555101 13.714444,16.5496359 Z M15.7107033,13.446887 C15.6830363,13.4719991 15.6262939,13.5 15.530309,13.5 C15.4220185,13.5 15.3637659,13.4664768 15.3386547,13.4394851 C15.3672849,13.4809674 15.3940024,13.5309946 15.420387,13.5933254 C15.4842988,13.7443103 15.530309,13.9331742 15.530309,14 L15.530309,16 C15.530309,16.0716349 15.4855417,16.2603554 15.4228269,16.4097725 C15.3938384,16.4788371 15.3644348,16.5320146 15.3431994,16.5593743 C15.3775817,16.5280009 15.434324,16.5 15.530309,16.5 C15.6385994,16.5 15.6968521,16.5335232 15.7219632,16.5605149 C15.6933331,16.5190326 15.6666155,16.4690054 15.6402309,16.4066746 C15.5763191,16.2556897 15.530309,16.0668258 15.530309,16 L15.530309,14 C15.530309,13.9283651 15.5750762,13.7396446 15.637791,13.5902275 C15.6667795,13.5211629 15.6961831,13.4679854 15.7174185,13.4406257 Z M15.3431994,16.5593743 C15.3420555,16.5608481 15.3409353,16.5622471 15.3398401,16.5635695 C15.342629,16.5602019 15.3459774,16.5566867 15.3499147,16.553113 Z M15.7219632,16.5605149 C15.723395,16.562054 15.7247191,16.5635719 15.7259386,16.5650611 C15.7223416,16.5606686 15.7184961,16.5555101 15.714444,16.5496359 Z M11.7107033,13.446887 C11.6830363,13.4719991 11.6262939,13.5 11.530309,13.5 C11.4220185,13.5 11.3637659,13.4664768 11.3386547,13.4394851 C11.3672849,13.4809674 11.3940024,13.5309946 11.420387,13.5933254 C11.4842988,13.7443103 11.530309,13.9331742 11.530309,14 L11.530309,16 C11.530309,16.0716349 11.4855417,16.2603554 11.4228269,16.4097725 C11.3938384,16.4788371 11.3644348,16.5320146 11.3431994,16.5593743 C11.3775817,16.5280009 11.434324,16.5 11.530309,16.5 C11.6385994,16.5 11.6968521,16.5335232 11.7219632,16.5605149 C11.6933331,16.5190326 11.6666155,16.4690054 11.6402309,16.4066746 C11.5763191,16.2556897 11.530309,16.0668258 11.530309,16 L11.530309,14 C11.530309,13.9283651 11.5750762,13.7396446 11.637791,13.5902275 C11.6667795,13.5211629 11.6961831,13.4679854 11.7174185,13.4406257 Z M11.3431994,16.5593743 C11.3420555,16.5608481 11.3409353,16.5622471 11.3398401,16.5635695 C11.342629,16.5602019 11.3459774,16.5566867 11.3499147,16.553113 Z M11.7219632,16.5605149 C11.723395,16.562054 11.7247191,16.5635719 11.7259386,16.5650611 C11.7223416,16.5606686 11.7184961,16.5555101 11.714444,16.5496359 Z" fill="#FFFFFF" fill-rule="evenodd"></path>
                </g>
            </g>
        </g>
    </g>
</svg>