<?xml version="1.0" encoding="UTF-8"?>
<svg width="400px" height="320px" viewBox="0 0 400 320" version="1.1" xmlns="http://www.w3.org/2000/svg" xmlns:xlink="http://www.w3.org/1999/xlink">
    <!-- Generator: Sketch 51 (57462) - http://www.bohemiancoding.com/sketch -->
    <title>snippet/groups</title>
    <desc>Created with Sketch.</desc>
    <defs>
        <rect id="path-1" x="8" y="0" width="352" height="48" rx="3"></rect>
        <filter x="-8.0%" y="-41.7%" width="115.9%" height="216.7%" filterUnits="objectBoundingBox" id="filter-2">
            <feOffset dx="0" dy="8" in="SourceAlpha" result="shadowOffsetOuter1"></feOffset>
            <feGaussianBlur stdDeviation="8" in="shadowOffsetOuter1" result="shadowBlurOuter1"></feGaussianBlur>
            <feColorMatrix values="0 0 0 0 0   0 0 0 0 0   0 0 0 0 0  0 0 0 0.25 0" type="matrix" in="shadowBlurOuter1"></feColorMatrix>
        </filter>
        <path d="M238.030309,31 C238.030309,31 235.811066,29.3012618 235.030309,28 C234.249552,26.6987382 232.770057,25.0410095 233.030309,24 C233.290561,22.9589905 234.249552,22.6309149 235.030309,23.4116721 C235.811066,24.1924292 236.009804,25.7602524 236.530309,25.5 C237.050814,25.2397477 237.050814,23.931388 236.530309,22.5 C236.009804,21.068612 234.467134,18.0000002 235.530309,18 C236.593484,17.9999999 237.030309,18 237.530309,19.5 C238.030309,21 238.13993,22.9999993 238.530309,23 C238.920687,23.0000006 238.530309,23.4116721 239.069657,22 C239.132824,21.83467 238.999271,18.6238859 239.069657,18.5 C239.258275,18.1680185 239.331967,17.0000001 240.05383,17 C240.399579,17 241.030309,17.5 241.030309,19.5 C241.030309,21.5 241.147394,23.0000001 241.530309,23 C242.030309,23 242.030309,23.0410094 242.030309,22 C242.030309,21.5623877 242.030309,20 242.030309,19.5 C242.030309,19 242.914321,18.0000001 243.493948,18 C244.493948,18 244.009804,22.9999999 244.530309,23 C244.755258,23 245.530309,21 245.530309,21 C245.530309,21 246.246397,20 246.530309,20 C247.530309,20 247.030309,23 246.530309,24 C246.030309,25.0000001 246.311066,26.9589904 245.530309,28 C244.749551,29.0410096 244.030309,30 244.030309,30 C244.030309,30 244.030309,31 243.493948,31 C242.957587,31.0000001 242.68094,29.9999999 242.030309,30 C241.379677,30.0000001 241.030309,31 241.030309,31 L238.030309,31 Z M244.030309,29 L244.030309,25 L243.030309,25 L243.030309,29 L244.030309,29 Z M241.030309,28 C241.030309,28.2708838 241.262243,29 241.530309,29 C241.806451,29 242.030309,28.2754211 242.030309,28 L242.030309,26 C242.030309,25.7291162 241.798375,25 241.530309,25 C241.254167,25 241.030309,25.7245789 241.030309,26 L241.030309,28 Z M239.030309,28 C239.030309,28.2708838 239.262243,29 239.530309,29 C239.806451,29 240.030309,28.2754211 240.030309,28 L240.030309,26 C240.030309,25.7291162 239.798375,25 239.530309,25 C239.254167,25 239.030309,25.7245789 239.030309,26 L239.030309,28 Z" id="path-3"></path>
        <filter x="-31.9%" y="-25.0%" width="163.8%" height="164.3%" filterUnits="objectBoundingBox" id="filter-4">
            <feMorphology radius="1" operator="dilate" in="SourceAlpha" result="shadowSpreadOuter1"></feMorphology>
            <feOffset dx="0" dy="1" in="shadowSpreadOuter1" result="shadowOffsetOuter1"></feOffset>
            <feGaussianBlur stdDeviation="1" in="shadowOffsetOuter1" result="shadowBlurOuter1"></feGaussianBlur>
            <feComposite in="shadowBlurOuter1" in2="SourceAlpha" operator="out" result="shadowBlurOuter1"></feComposite>
            <feColorMatrix values="0 0 0 0 0   0 0 0 0 0   0 0 0 0 0  0 0 0 1 0" type="matrix" in="shadowBlurOuter1"></feColorMatrix>
        </filter>
    </defs>
    <g id="snippet/groups" stroke="none" stroke-width="1" fill="none" fill-rule="evenodd">
        <g id="Group" transform="translate(8.000000, 32.000000)">
            <g transform="translate(8.000000, 0.000000)" id="component/button-subtle">
                <g>
                    <rect id="Background" fill="#FFFFFF" style="mix-blend-mode: screen;" x="0" y="0" width="57" height="32"></rect>
                    <path d="M11.0957031,20 L9.39355469,20 L9.39355469,10.1357422 L10.9248047,10.1357422 L15.7646484,16.8417969 L15.8808594,16.8417969 L15.8808594,10.1357422 L17.5761719,10.1357422 L17.5761719,20 L16.0517578,20 L11.2119141,13.2871094 L11.0957031,13.2871094 L11.0957031,20 Z M23.0654297,18.7285156 C24.2480469,18.7285156 24.9179688,17.8261719 24.9179688,16.2607422 C24.9179688,14.7021484 24.2412109,13.7929688 23.0654297,13.7929688 C21.8828125,13.7929688 21.2060547,14.7021484 21.2060547,16.2607422 C21.2060547,17.8261719 21.8828125,18.7285156 23.0654297,18.7285156 Z M23.0654297,20.1503906 C20.8232422,20.1503906 19.4697266,18.6875 19.4697266,16.2607422 C19.4697266,13.8476562 20.84375,12.3710938 23.0654297,12.3710938 C25.2939453,12.3710938 26.6611328,13.8408203 26.6611328,16.2607422 C26.6611328,18.6875 25.3007812,20.1503906 23.0654297,20.1503906 Z M28.9101562,10.7373047 L30.5986328,10.7373047 L30.5986328,12.5693359 L32.2392578,12.5693359 L32.2392578,13.9228516 L30.5986328,13.9228516 L30.5986328,17.59375 C30.5986328,18.3320312 30.9130859,18.6601562 31.6240234,18.6601562 C31.8632812,18.6601562 31.9863281,18.6464844 32.1845703,18.6259766 L32.1845703,19.9521484 C31.9453125,20 31.6376953,20.0341797 31.3095703,20.0341797 C29.59375,20.0341797 28.9101562,19.453125 28.9101562,18.0039062 L28.9101562,13.9228516 L27.6933594,13.9228516 L27.6933594,12.5693359 L28.9101562,12.5693359 L28.9101562,10.7373047 Z M37.03125,13.7177734 C36.0195312,13.7177734 35.3085938,14.4423828 35.2333984,15.5361328 L38.7539062,15.5361328 C38.7197266,14.4287109 38.0498047,13.7177734 37.03125,13.7177734 Z M38.7675781,17.9423828 L40.3740234,17.9423828 C40.0527344,19.3027344 38.8154297,20.1503906 37.0517578,20.1503906 C34.8505859,20.1503906 33.5244141,18.6943359 33.5244141,16.2880859 C33.5244141,13.8818359 34.8710938,12.3710938 37.0380859,12.3710938 C39.1708984,12.3710938 40.4492188,13.7861328 40.4492188,16.1445312 L40.4492188,16.6914062 L35.2265625,16.6914062 L35.2265625,16.7802734 C35.2675781,18.0244141 35.9853516,18.8037109 37.0996094,18.8037109 C37.9404297,18.8037109 38.5214844,18.4960938 38.7675781,17.9423828 Z M41.9804688,14.6611328 C41.9804688,13.3076172 43.2109375,12.3710938 44.9746094,12.3710938 C46.7519531,12.3710938 47.8662109,13.1572266 47.9892578,14.5175781 L46.3964844,14.5175781 C46.2734375,13.9912109 45.7744141,13.65625 44.9814453,13.65625 C44.2089844,13.65625 43.6279297,14.0253906 43.6279297,14.5654297 C43.6279297,14.9892578 43.9833984,15.2490234 44.7353516,15.4199219 L46.0546875,15.7207031 C47.4833984,16.0419922 48.1464844,16.6572266 48.1464844,17.7578125 C48.1464844,19.1933594 46.8271484,20.1503906 44.9609375,20.1503906 C43.0947266,20.1503906 41.9189453,19.34375 41.7890625,17.9833984 L43.4638672,17.9833984 C43.6279297,18.5371094 44.1542969,18.8652344 45.0019531,18.8652344 C45.8564453,18.8652344 46.4511719,18.4892578 46.4511719,17.9355469 C46.4511719,17.5117188 46.1298828,17.2451172 45.4189453,17.0878906 L44.0927734,16.7802734 C42.6572266,16.4521484 41.9804688,15.7890625 41.9804688,14.6611328 Z" id="Notes" fill="#512DA8"></path>
                </g>
                <g transform="translate(58.000000, 0.000000)">
                    <rect id="Background" fill="#FFFFFF" style="mix-blend-mode: screen;" x="0" y="0" width="50" height="32"></rect>
                    <path d="M13.5703125,20 L11.8066406,20 L11.8066406,11.6601562 L8.77148438,11.6601562 L8.77148438,10.1357422 L16.6123047,10.1357422 L16.6123047,11.6601562 L13.5703125,11.6601562 L13.5703125,20 Z M20.8369141,18.7900391 C21.8623047,18.7900391 22.6279297,18.1269531 22.6279297,17.2587891 L22.6279297,16.6640625 L20.9394531,16.7734375 C19.9892578,16.8349609 19.5449219,17.1767578 19.5449219,17.7851562 C19.5449219,18.4140625 20.0849609,18.7900391 20.8369141,18.7900391 Z M20.3378906,20.1230469 C18.8955078,20.1230469 17.8632812,19.2480469 17.8632812,17.8808594 C17.8632812,16.5273438 18.8818359,15.7480469 20.7001953,15.6386719 L22.6279297,15.5224609 L22.6279297,14.8935547 C22.6279297,14.1621094 22.1357422,13.7519531 21.2197266,13.7519531 C20.4404297,13.7519531 19.9072266,14.0253906 19.75,14.53125 L18.1503906,14.53125 C18.2871094,13.2119141 19.5244141,12.3710938 21.3017578,12.3710938 C23.2226562,12.3710938 24.3027344,13.3076172 24.3027344,14.8935547 L24.3027344,20 L22.6689453,20 L22.6689453,18.9746094 L22.5527344,18.9746094 C22.1357422,19.6992188 21.3154297,20.1230469 20.3378906,20.1230469 Z M31.4462891,16.1787109 C31.4462891,14.75 30.7285156,13.8408203 29.5527344,13.8408203 C28.3701172,13.8408203 27.7001953,14.75 27.7001953,16.1787109 C27.7001953,17.6074219 28.3701172,18.5097656 29.5527344,18.5097656 C30.7353516,18.5097656 31.4462891,17.6074219 31.4462891,16.1787109 Z M29.5527344,22.84375 C27.6318359,22.84375 26.3740234,21.9960938 26.2373047,20.7109375 L27.9394531,20.7109375 C28.0488281,21.2236328 28.6503906,21.5517578 29.5800781,21.5517578 C30.7421875,21.5517578 31.4189453,21.0048828 31.4189453,20.0683594 L31.4189453,18.6533203 L31.3027344,18.6533203 C30.8720703,19.453125 30.0585938,19.890625 29.0195312,19.890625 C27.1328125,19.890625 25.9570312,18.4277344 25.9570312,16.1787109 C25.9570312,13.8886719 27.1396484,12.3984375 29.046875,12.3984375 C30.0654297,12.3984375 30.9541016,12.9042969 31.3642578,13.7177734 L31.4804688,13.7177734 L31.4804688,12.5214844 L33.1142578,12.5214844 L33.1142578,20.0273438 C33.1142578,21.7568359 31.7333984,22.84375 29.5527344,22.84375 Z M35.0214844,14.6611328 C35.0214844,13.3076172 36.2519531,12.3710938 38.015625,12.3710938 C39.7929688,12.3710938 40.9072266,13.1572266 41.0302734,14.5175781 L39.4375,14.5175781 C39.3144531,13.9912109 38.8154297,13.65625 38.0224609,13.65625 C37.25,13.65625 36.6689453,14.0253906 36.6689453,14.5654297 C36.6689453,14.9892578 37.0244141,15.2490234 37.7763672,15.4199219 L39.0957031,15.7207031 C40.5244141,16.0419922 41.1875,16.6572266 41.1875,17.7578125 C41.1875,19.1933594 39.8681641,20.1503906 38.0019531,20.1503906 C36.1357422,20.1503906 34.9599609,19.34375 34.8300781,17.9833984 L36.5048828,17.9833984 C36.6689453,18.5371094 37.1953125,18.8652344 38.0429688,18.8652344 C38.8974609,18.8652344 39.4921875,18.4892578 39.4921875,17.9355469 C39.4921875,17.5117188 39.1708984,17.2451172 38.4599609,17.0878906 L37.1337891,16.7802734 C35.6982422,16.4521484 35.0214844,15.7890625 35.0214844,14.6611328 Z" id="Notes" fill="#7B7194"></path>
                </g>
                <g transform="translate(108.000000, 0.000000)">
                    <rect id="Background" fill="#FFFFFF" style="mix-blend-mode: screen;" x="0" y="0" width="72" height="32"></rect>
                    <path d="M11.2880859,20 L9.52441406,20 L9.52441406,10.1357422 L11.2880859,10.1357422 L11.2880859,20 Z M13.5439453,20 L13.5439453,12.5214844 L15.1777344,12.5214844 L15.1777344,13.7177734 L15.2939453,13.7177734 C15.6494141,12.8837891 16.5244141,12.3710938 17.6455078,12.3710938 C19.3134766,12.3710938 20.25,13.3759766 20.25,15.1601562 L20.25,20 L18.5615234,20 L18.5615234,15.5634766 C18.5615234,14.421875 18.0419922,13.8476562 17.0166016,13.8476562 C15.9228516,13.8476562 15.2392578,14.5449219 15.2392578,15.6455078 L15.2392578,20 L13.5439453,20 Z M22.0888672,14.6611328 C22.0888672,13.3076172 23.3193359,12.3710938 25.0830078,12.3710938 C26.8603516,12.3710938 27.9746094,13.1572266 28.0976562,14.5175781 L26.5048828,14.5175781 C26.3818359,13.9912109 25.8828125,13.65625 25.0898438,13.65625 C24.3173828,13.65625 23.7363281,14.0253906 23.7363281,14.5654297 C23.7363281,14.9892578 24.0917969,15.2490234 24.84375,15.4199219 L26.1630859,15.7207031 C27.5917969,16.0419922 28.2548828,16.6572266 28.2548828,17.7578125 C28.2548828,19.1933594 26.9355469,20.1503906 25.0693359,20.1503906 C23.203125,20.1503906 22.0273438,19.34375 21.8974609,17.9833984 L23.5722656,17.9833984 C23.7363281,18.5371094 24.2626953,18.8652344 25.1103516,18.8652344 C25.9648438,18.8652344 26.5595703,18.4892578 26.5595703,17.9355469 C26.5595703,17.5117188 26.2382812,17.2451172 25.5273438,17.0878906 L24.2011719,16.7802734 C22.765625,16.4521484 22.0888672,15.7890625 22.0888672,14.6611328 Z M29.9912109,20 L29.9912109,12.5214844 L31.6796875,12.5214844 L31.6796875,20 L29.9912109,20 Z M30.8320312,11.3046875 C30.2167969,11.3046875 29.7861328,10.9082031 29.7861328,10.3681641 C29.7861328,9.828125 30.2167969,9.43164062 30.8320312,9.43164062 C31.4541016,9.43164062 31.8779297,9.828125 31.8779297,10.3681641 C31.8779297,10.9082031 31.4541016,11.3046875 30.8320312,11.3046875 Z M38.8847656,16.1787109 C38.8847656,14.75 38.1669922,13.8408203 36.9912109,13.8408203 C35.8085938,13.8408203 35.1386719,14.75 35.1386719,16.1787109 C35.1386719,17.6074219 35.8085938,18.5097656 36.9912109,18.5097656 C38.1738281,18.5097656 38.8847656,17.6074219 38.8847656,16.1787109 Z M36.9912109,22.84375 C35.0703125,22.84375 33.8125,21.9960938 33.6757812,20.7109375 L35.3779297,20.7109375 C35.4873047,21.2236328 36.0888672,21.5517578 37.0185547,21.5517578 C38.1806641,21.5517578 38.8574219,21.0048828 38.8574219,20.0683594 L38.8574219,18.6533203 L38.7412109,18.6533203 C38.3105469,19.453125 37.4970703,19.890625 36.4580078,19.890625 C34.5712891,19.890625 33.3955078,18.4277344 33.3955078,16.1787109 C33.3955078,13.8886719 34.578125,12.3984375 36.4853516,12.3984375 C37.5039062,12.3984375 38.3925781,12.9042969 38.8027344,13.7177734 L38.9189453,13.7177734 L38.9189453,12.5214844 L40.5527344,12.5214844 L40.5527344,20.0273438 C40.5527344,21.7568359 39.171875,22.84375 36.9912109,22.84375 Z M42.6992188,20 L42.6992188,9.62988281 L44.3671875,9.62988281 L44.3671875,13.7314453 L44.4902344,13.7314453 C44.8457031,12.890625 45.7275391,12.3847656 46.8417969,12.3847656 C48.5166016,12.3847656 49.4873047,13.3964844 49.4873047,15.1738281 L49.4873047,20 L47.7988281,20 L47.7988281,15.5771484 C47.7988281,14.4423828 47.2519531,13.8613281 46.2128906,13.8613281 C45.0986328,13.8613281 44.3945312,14.5859375 44.3945312,15.6591797 L44.3945312,20 L42.6992188,20 Z M52.0371094,10.7373047 L53.7255859,10.7373047 L53.7255859,12.5693359 L55.3662109,12.5693359 L55.3662109,13.9228516 L53.7255859,13.9228516 L53.7255859,17.59375 C53.7255859,18.3320312 54.0400391,18.6601562 54.7509766,18.6601562 C54.9902344,18.6601562 55.1132812,18.6464844 55.3115234,18.6259766 L55.3115234,19.9521484 C55.0722656,20 54.7646484,20.0341797 54.4365234,20.0341797 C52.7207031,20.0341797 52.0371094,19.453125 52.0371094,18.0039062 L52.0371094,13.9228516 L50.8203125,13.9228516 L50.8203125,12.5693359 L52.0371094,12.5693359 L52.0371094,10.7373047 Z M56.8496094,14.6611328 C56.8496094,13.3076172 58.0800781,12.3710938 59.84375,12.3710938 C61.6210938,12.3710938 62.7353516,13.1572266 62.8583984,14.5175781 L61.265625,14.5175781 C61.1425781,13.9912109 60.6435547,13.65625 59.8505859,13.65625 C59.078125,13.65625 58.4970703,14.0253906 58.4970703,14.5654297 C58.4970703,14.9892578 58.8525391,15.2490234 59.6044922,15.4199219 L60.9238281,15.7207031 C62.3525391,16.0419922 63.015625,16.6572266 63.015625,17.7578125 C63.015625,19.1933594 61.6962891,20.1503906 59.8300781,20.1503906 C57.9638672,20.1503906 56.7880859,19.34375 56.6582031,17.9833984 L58.3330078,17.9833984 C58.4970703,18.5371094 59.0234375,18.8652344 59.8710938,18.8652344 C60.7255859,18.8652344 61.3203125,18.4892578 61.3203125,17.9355469 C61.3203125,17.5117188 60.9990234,17.2451172 60.2880859,17.0878906 L58.9619141,16.7802734 C57.5263672,16.4521484 56.8496094,15.7890625 56.8496094,14.6611328 Z" id="Notes" fill="#7B7194"></path>
                </g>
                <g transform="translate(180.000000, 0.000000)">
                    <rect id="Background" fill="#FFFFFF" style="mix-blend-mode: screen;" x="0" y="0" width="63" height="32"></rect>
                    <path d="M13.7573242,20.2460938 C10.9614258,20.2460938 9.22509766,18.2636719 9.22509766,15.0712891 C9.22509766,11.8652344 10.9545898,9.88964844 13.7504883,9.88964844 C15.9926758,9.88964844 17.722168,11.3525391 17.9272461,13.4101562 L16.190918,13.4101562 C15.9448242,12.2275391 14.9946289,11.4619141 13.7504883,11.4619141 C12.0756836,11.4619141 11.0297852,12.8427734 11.0297852,15.0644531 C11.0297852,17.2929688 12.0756836,18.6738281 13.7573242,18.6738281 C15.0083008,18.6738281 15.9584961,17.9765625 16.1977539,16.8691406 L17.934082,16.8691406 C17.7016602,18.8857422 16.0336914,20.2460938 13.7573242,20.2460938 Z M19.7797852,20 L19.7797852,9.62988281 L21.4477539,9.62988281 L21.4477539,13.7314453 L21.5708008,13.7314453 C21.9262695,12.890625 22.8081055,12.3847656 23.9223633,12.3847656 C25.597168,12.3847656 26.5678711,13.3964844 26.5678711,15.1738281 L26.5678711,20 L24.8793945,20 L24.8793945,15.5771484 C24.8793945,14.4423828 24.3325195,13.8613281 23.293457,13.8613281 C22.1791992,13.8613281 21.4750977,14.5859375 21.4750977,15.6591797 L21.4750977,20 L19.7797852,20 Z M31.1342773,18.7900391 C32.159668,18.7900391 32.925293,18.1269531 32.925293,17.2587891 L32.925293,16.6640625 L31.2368164,16.7734375 C30.2866211,16.8349609 29.8422852,17.1767578 29.8422852,17.7851562 C29.8422852,18.4140625 30.3823242,18.7900391 31.1342773,18.7900391 Z M30.6352539,20.1230469 C29.1928711,20.1230469 28.1606445,19.2480469 28.1606445,17.8808594 C28.1606445,16.5273438 29.1791992,15.7480469 30.9975586,15.6386719 L32.925293,15.5224609 L32.925293,14.8935547 C32.925293,14.1621094 32.4331055,13.7519531 31.5170898,13.7519531 C30.737793,13.7519531 30.2045898,14.0253906 30.0473633,14.53125 L28.4477539,14.53125 C28.5844727,13.2119141 29.8217773,12.3710938 31.5991211,12.3710938 C33.5200195,12.3710938 34.6000977,13.3076172 34.6000977,14.8935547 L34.6000977,20 L32.9663086,20 L32.9663086,18.9746094 L32.8500977,18.9746094 C32.4331055,19.6992188 31.612793,20.1230469 30.6352539,20.1230469 Z M36.637207,20 L36.637207,12.5214844 L38.2709961,12.5214844 L38.2709961,13.6835938 L38.387207,13.6835938 C38.5922852,12.9453125 39.3920898,12.3984375 40.3491211,12.3984375 C40.5883789,12.3984375 40.8823242,12.4257812 41.0463867,12.4736328 L41.0463867,14.0458984 C40.9165039,13.9980469 40.4516602,13.9501953 40.1850586,13.9501953 C39.0981445,13.9501953 38.3325195,14.6337891 38.3325195,15.6796875 L38.3325195,20 L36.637207,20 Z M42.9194336,10.7373047 L44.6079102,10.7373047 L44.6079102,12.5693359 L46.2485352,12.5693359 L46.2485352,13.9228516 L44.6079102,13.9228516 L44.6079102,17.59375 C44.6079102,18.3320312 44.9223633,18.6601562 45.6333008,18.6601562 C45.8725586,18.6601562 45.9956055,18.6464844 46.1938477,18.6259766 L46.1938477,19.9521484 C45.9545898,20 45.6469727,20.0341797 45.3188477,20.0341797 C43.6030273,20.0341797 42.9194336,19.453125 42.9194336,18.0039062 L42.9194336,13.9228516 L41.7026367,13.9228516 L41.7026367,12.5693359 L42.9194336,12.5693359 L42.9194336,10.7373047 Z M47.7319336,14.6611328 C47.7319336,13.3076172 48.9624023,12.3710938 50.7260742,12.3710938 C52.503418,12.3710938 53.6176758,13.1572266 53.7407227,14.5175781 L52.1479492,14.5175781 C52.0249023,13.9912109 51.5258789,13.65625 50.7329102,13.65625 C49.9604492,13.65625 49.3793945,14.0253906 49.3793945,14.5654297 C49.3793945,14.9892578 49.7348633,15.2490234 50.4868164,15.4199219 L51.8061523,15.7207031 C53.2348633,16.0419922 53.8979492,16.6572266 53.8979492,17.7578125 C53.8979492,19.1933594 52.5786133,20.1503906 50.7124023,20.1503906 C48.8461914,20.1503906 47.6704102,19.34375 47.5405273,17.9833984 L49.215332,17.9833984 C49.3793945,18.5371094 49.9057617,18.8652344 50.753418,18.8652344 C51.6079102,18.8652344 52.2026367,18.4892578 52.2026367,17.9355469 C52.2026367,17.5117188 51.8813477,17.2451172 51.1704102,17.0878906 L49.8442383,16.7802734 C48.4086914,16.4521484 47.7319336,15.7890625 47.7319336,14.6611328 Z" id="Notes" fill="#7B7194"></path>
                </g>
            </g>
            <g transform="translate(8.000000, 64.000000)">
                <rect id="Rectangle-3" fill="#512DA8" opacity="0.0799999982" x="0" y="0" width="368" height="48" rx="4"></rect>
                <g id="GroupHeader" transform="translate(16.000000, 15.000000)">
                    <path d="M3.75,3.7265625 L3.75,10.8671875 C3.75,12.2890625 4.6015625,13.1953125 6.109375,13.1953125 C7.625,13.1953125 8.4765625,12.2890625 8.4765625,10.8671875 L8.4765625,3.7265625 L10.8359375,3.7265625 L10.8359375,11.109375 C10.8359375,13.609375 9,15.2890625 6.109375,15.2890625 C3.2265625,15.2890625 1.390625,13.609375 1.390625,11.109375 L1.390625,3.7265625 L3.75,3.7265625 Z M13.1640625,8.9140625 C13.1640625,7.28125 14.6015625,6.1953125 16.75,6.1953125 C18.9375,6.1953125 20.2265625,7.109375 20.3515625,8.7578125 L18.25,8.7578125 C18.1328125,8.203125 17.609375,7.859375 16.765625,7.859375 C15.953125,7.859375 15.3515625,8.2265625 15.3515625,8.7734375 C15.3515625,9.1953125 15.71875,9.453125 16.515625,9.6328125 L18.1328125,9.984375 C19.8046875,10.3515625 20.5546875,11.0546875 20.5546875,12.34375 C20.5546875,14.0625 19.015625,15.1875 16.7578125,15.1875 C14.484375,15.1875 13.109375,14.2578125 12.953125,12.6015625 L15.171875,12.6015625 C15.34375,13.1875 15.8984375,13.5234375 16.8046875,13.5234375 C17.6875,13.5234375 18.296875,13.15625 18.296875,12.6015625 C18.296875,12.1796875 17.96875,11.921875 17.2109375,11.7578125 L15.6484375,11.40625 C13.9765625,11.0390625 13.1640625,10.2421875 13.1640625,8.9140625 Z M26.1484375,7.9375 C25.09375,7.9375 24.3515625,8.671875 24.2734375,9.7890625 L27.9453125,9.7890625 C27.8984375,8.6484375 27.2109375,7.9375 26.1484375,7.9375 Z M27.9921875,12.546875 L30.109375,12.546875 C29.765625,14.171875 28.28125,15.1875 26.171875,15.1875 C23.546875,15.1875 22,13.53125 22,10.734375 C22,7.9296875 23.578125,6.1953125 26.140625,6.1953125 C28.6796875,6.1953125 30.1796875,7.8125 30.1796875,10.546875 L30.1796875,11.2421875 L24.265625,11.2421875 L24.265625,11.359375 C24.296875,12.640625 25.046875,13.4375 26.234375,13.4375 C27.1328125,13.4375 27.75,13.1171875 27.9921875,12.546875 Z M32.0390625,15 L32.0390625,6.3828125 L34.2421875,6.3828125 L34.2421875,7.7578125 L34.3828125,7.7578125 C34.609375,6.8984375 35.4921875,6.2421875 36.5703125,6.2421875 C36.875,6.2421875 37.25,6.28125 37.4453125,6.3515625 L37.4453125,8.421875 C37.265625,8.3515625 36.7109375,8.28125 36.3828125,8.28125 C35.1640625,8.28125 34.3125,9.015625 34.3125,10.2265625 L34.3125,15 L32.0390625,15 Z M43.71875,4.375 L45.9921875,4.375 L45.9921875,6.46875 L47.8203125,6.46875 L47.8203125,8.2578125 L45.9921875,8.2578125 L45.9921875,12.1328125 C45.9921875,12.8828125 46.3359375,13.2265625 47.109375,13.2265625 C47.40625,13.2265625 47.5546875,13.21875 47.7734375,13.1953125 L47.7734375,14.9296875 C47.4921875,14.984375 47.078125,15.03125 46.640625,15.03125 C44.546875,15.03125 43.71875,14.3515625 43.71875,12.671875 L43.71875,8.2578125 L42.3515625,8.2578125 L42.3515625,6.46875 L43.71875,6.46875 L43.71875,4.375 Z M53.3984375,7.9375 C52.34375,7.9375 51.6015625,8.671875 51.5234375,9.7890625 L55.1953125,9.7890625 C55.1484375,8.6484375 54.4609375,7.9375 53.3984375,7.9375 Z M55.2421875,12.546875 L57.359375,12.546875 C57.015625,14.171875 55.53125,15.1875 53.421875,15.1875 C50.796875,15.1875 49.25,13.53125 49.25,10.734375 C49.25,7.9296875 50.828125,6.1953125 53.390625,6.1953125 C55.9296875,6.1953125 57.4296875,7.8125 57.4296875,10.546875 L57.4296875,11.2421875 L51.515625,11.2421875 L51.515625,11.359375 C51.546875,12.640625 52.296875,13.4375 53.484375,13.4375 C54.3828125,13.4375 55,13.1171875 55.2421875,12.546875 Z M59.09375,8.9140625 C59.09375,7.28125 60.53125,6.1953125 62.6796875,6.1953125 C64.8671875,6.1953125 66.15625,7.109375 66.28125,8.7578125 L64.1796875,8.7578125 C64.0625,8.203125 63.5390625,7.859375 62.6953125,7.859375 C61.8828125,7.859375 61.28125,8.2265625 61.28125,8.7734375 C61.28125,9.1953125 61.6484375,9.453125 62.4453125,9.6328125 L64.0625,9.984375 C65.734375,10.3515625 66.484375,11.0546875 66.484375,12.34375 C66.484375,14.0625 64.9453125,15.1875 62.6875,15.1875 C60.4140625,15.1875 59.0390625,14.2578125 58.8828125,12.6015625 L61.1015625,12.6015625 C61.2734375,13.1875 61.828125,13.5234375 62.734375,13.5234375 C63.6171875,13.5234375 64.2265625,13.15625 64.2265625,12.6015625 C64.2265625,12.1796875 63.8984375,11.921875 63.140625,11.7578125 L61.578125,11.40625 C59.90625,11.0390625 59.09375,10.2421875 59.09375,8.9140625 Z M69,4.375 L71.2734375,4.375 L71.2734375,6.46875 L73.1015625,6.46875 L73.1015625,8.2578125 L71.2734375,8.2578125 L71.2734375,12.1328125 C71.2734375,12.8828125 71.6171875,13.2265625 72.390625,13.2265625 C72.6875,13.2265625 72.8359375,13.21875 73.0546875,13.1953125 L73.0546875,14.9296875 C72.7734375,14.984375 72.359375,15.03125 71.921875,15.03125 C69.828125,15.03125 69,14.3515625 69,12.671875 L69,8.2578125 L67.6328125,8.2578125 L67.6328125,6.46875 L69,6.46875 L69,4.375 Z M74.96875,15 L74.96875,6.3828125 L77.2421875,6.3828125 L77.2421875,15 L74.96875,15 Z M76.109375,5.1796875 C75.2890625,5.1796875 74.765625,4.703125 74.765625,4.03125 C74.765625,3.3515625 75.2890625,2.8828125 76.109375,2.8828125 C76.921875,2.8828125 77.453125,3.3515625 77.453125,4.03125 C77.453125,4.703125 76.921875,5.1796875 76.109375,5.1796875 Z M79.5390625,15 L79.5390625,6.3828125 L81.7421875,6.3828125 L81.7421875,7.765625 L81.8828125,7.765625 C82.28125,6.796875 83.296875,6.1953125 84.5625,6.1953125 C86.484375,6.1953125 87.5703125,7.3671875 87.5703125,9.4296875 L87.5703125,15 L85.296875,15 L85.296875,9.96875 C85.296875,8.78125 84.734375,8.15625 83.65625,8.15625 C82.53125,8.15625 81.8125,8.8984375 81.8125,10.03125 L81.8125,15 L79.5390625,15 Z M95.5703125,10.6171875 C95.5703125,9.1015625 94.828125,8.1484375 93.6015625,8.1484375 C92.375,8.1484375 91.6640625,9.1015625 91.6640625,10.609375 C91.6640625,12.1328125 92.3671875,13.078125 93.6015625,13.078125 C94.8359375,13.078125 95.5703125,12.1328125 95.5703125,10.6171875 Z M93.5703125,18.265625 C91.28125,18.265625 89.765625,17.2578125 89.625,15.7421875 L91.875,15.7421875 C91.9921875,16.2734375 92.6328125,16.609375 93.6171875,16.609375 C94.8359375,16.609375 95.546875,16.046875 95.546875,15.078125 L95.546875,13.484375 L95.40625,13.484375 C94.9296875,14.390625 94.0234375,14.875 92.8125,14.875 C90.6640625,14.875 89.328125,13.2109375 89.328125,10.6171875 C89.328125,7.9453125 90.671875,6.2421875 92.859375,6.2421875 C94.0234375,6.2421875 95.015625,6.8203125 95.4765625,7.765625 L95.6171875,7.765625 L95.6171875,6.3828125 L97.8203125,6.3828125 L97.8203125,14.96875 C97.8203125,16.9921875 96.171875,18.265625 93.5703125,18.265625 Z" id="User-testing" fill="#24124D" opacity="0.800000012"></path>
                    <g id="plus" transform="translate(277.000000, 2.000000)" stroke="#7B7194" stroke-linecap="round" stroke-linejoin="round" stroke-width="2">
                        <path d="M7,0 L7,14" id="Shape"></path>
                        <path d="M0,7 L14,7" id="Shape"></path>
                    </g>
                    <g id="more-horizontal" transform="translate(314.000000, 7.000000)" stroke="#7B7194" stroke-linecap="round" stroke-linejoin="round" stroke-width="2">
                        <circle id="Oval" cx="10" cy="2" r="2"></circle>
                        <circle id="Oval" cx="18" cy="2" r="2"></circle>
                        <circle id="Oval" cx="2" cy="2" r="2"></circle>
                    </g>
                </g>
            </g>
            <g transform="translate(8.000000, 192.000000)">
                <rect id="Rectangle-3" fill="#1EB8C1" x="0" y="0" width="368" height="48" rx="4"></rect>
                <g id="GroupHeader" transform="translate(16.000000, 15.000000)">
                    <path d="M6.15625,15.2890625 C2.890625,15.2890625 0.8671875,13.03125 0.8671875,9.359375 C0.8671875,5.6953125 2.8828125,3.4375 6.15625,3.4375 C8.828125,3.4375 10.875,5.2109375 11.046875,7.6640625 L8.75,7.6640625 C8.5234375,6.3671875 7.5,5.515625 6.15625,5.515625 C4.3828125,5.515625 3.28125,6.984375 3.28125,9.359375 C3.28125,11.734375 4.3828125,13.2109375 6.1640625,13.2109375 C7.515625,13.2109375 8.53125,12.4140625 8.7578125,11.171875 L11.0546875,11.171875 C10.859375,13.609375 8.875,15.2890625 6.15625,15.2890625 Z M16.8203125,13.328125 C18.03125,13.328125 18.7265625,12.359375 18.7265625,10.6875 C18.7265625,9.03125 18.0234375,8.0546875 16.8203125,8.0546875 C15.609375,8.0546875 14.9140625,9.03125 14.9140625,10.6875 C14.9140625,12.3671875 15.6015625,13.328125 16.8203125,13.328125 Z M16.8203125,15.1875 C14.171875,15.1875 12.578125,13.5078125 12.578125,10.6875 C12.578125,7.8984375 14.1953125,6.1953125 16.8203125,6.1953125 C19.4453125,6.1953125 21.0625,7.890625 21.0625,10.6875 C21.0625,13.5078125 19.46875,15.1875 16.8203125,15.1875 Z M22.9140625,15 L22.9140625,6.3828125 L25.1171875,6.3828125 L25.1171875,7.765625 L25.2578125,7.765625 C25.65625,6.796875 26.671875,6.1953125 27.9375,6.1953125 C29.859375,6.1953125 30.9453125,7.3671875 30.9453125,9.4296875 L30.9453125,15 L28.671875,15 L28.671875,9.96875 C28.671875,8.78125 28.109375,8.15625 27.03125,8.15625 C25.90625,8.15625 25.1875,8.8984375 25.1875,10.03125 L25.1875,15 L22.9140625,15 Z M33.796875,4.375 L36.0703125,4.375 L36.0703125,6.46875 L37.8984375,6.46875 L37.8984375,8.2578125 L36.0703125,8.2578125 L36.0703125,12.1328125 C36.0703125,12.8828125 36.4140625,13.2265625 37.1875,13.2265625 C37.484375,13.2265625 37.6328125,13.21875 37.8515625,13.1953125 L37.8515625,14.9296875 C37.5703125,14.984375 37.15625,15.03125 36.71875,15.03125 C34.625,15.03125 33.796875,14.3515625 33.796875,12.671875 L33.796875,8.2578125 L32.4296875,8.2578125 L32.4296875,6.46875 L33.796875,6.46875 L33.796875,4.375 Z M43.4765625,7.9375 C42.421875,7.9375 41.6796875,8.671875 41.6015625,9.7890625 L45.2734375,9.7890625 C45.2265625,8.6484375 44.5390625,7.9375 43.4765625,7.9375 Z M45.3203125,12.546875 L47.4375,12.546875 C47.09375,14.171875 45.609375,15.1875 43.5,15.1875 C40.875,15.1875 39.328125,13.53125 39.328125,10.734375 C39.328125,7.9296875 40.90625,6.1953125 43.46875,6.1953125 C46.0078125,6.1953125 47.5078125,7.8125 47.5078125,10.546875 L47.5078125,11.2421875 L41.59375,11.2421875 L41.59375,11.359375 C41.625,12.640625 42.375,13.4375 43.5625,13.4375 C44.4609375,13.4375 45.078125,13.1171875 45.3203125,12.546875 Z M52.8984375,12.1875 L52.7578125,12.1875 L51.15625,15 L48.7421875,15 L51.4453125,10.7421875 L48.7265625,6.3828125 L51.3359375,6.3828125 L52.859375,9.2109375 L53,9.2109375 L54.5234375,6.3828125 L57.0078125,6.3828125 L54.3046875,10.640625 L57.03125,15 L54.5,15 L52.8984375,12.1875 Z M59.3125,4.375 L61.5859375,4.375 L61.5859375,6.46875 L63.4140625,6.46875 L63.4140625,8.2578125 L61.5859375,8.2578125 L61.5859375,12.1328125 C61.5859375,12.8828125 61.9296875,13.2265625 62.703125,13.2265625 C63,13.2265625 63.1484375,13.21875 63.3671875,13.1953125 L63.3671875,14.9296875 C63.0859375,14.984375 62.671875,15.03125 62.234375,15.03125 C60.140625,15.03125 59.3125,14.3515625 59.3125,12.671875 L59.3125,8.2578125 L57.9453125,8.2578125 L57.9453125,6.46875 L59.3125,6.46875 L59.3125,4.375 Z M73.2578125,6.3828125 L73.2578125,15 L71.0546875,15 L71.0546875,13.6171875 L70.9140625,13.6171875 C70.5078125,14.6171875 69.546875,15.1875 68.296875,15.1875 C66.40625,15.1875 65.1875,14 65.1875,11.9609375 L65.1875,6.3828125 L67.4609375,6.3828125 L67.4609375,11.4140625 C67.4609375,12.6171875 68.078125,13.2109375 69.140625,13.2109375 C70.2578125,13.2109375 70.984375,12.5 70.984375,11.3515625 L70.984375,6.3828125 L73.2578125,6.3828125 Z M78.6484375,13.421875 C79.703125,13.421875 80.5,12.75 80.5,11.875 L80.5,11.2421875 L78.7578125,11.3515625 C77.78125,11.421875 77.3046875,11.7734375 77.3046875,12.390625 C77.3046875,13.03125 77.859375,13.421875 78.6484375,13.421875 Z M77.8984375,15.1328125 C76.2421875,15.1328125 75.078125,14.1171875 75.078125,12.5390625 C75.078125,10.9765625 76.2734375,10.0703125 78.4140625,9.9453125 L80.5,9.8203125 L80.5,9.1171875 C80.5,8.3984375 79.984375,7.9921875 79.046875,7.9921875 C78.2265625,7.9921875 77.6796875,8.2734375 77.4921875,8.7890625 L75.3984375,8.7890625 C75.546875,7.1953125 77.0078125,6.1953125 79.171875,6.1953125 C81.453125,6.1953125 82.7421875,7.2734375 82.7421875,9.1171875 L82.7421875,15 L80.5390625,15 L80.5390625,13.875 L80.3984375,13.875 C79.953125,14.6640625 79.015625,15.1328125 77.8984375,15.1328125 Z M85.0546875,15 L85.0546875,3.09375 L87.328125,3.09375 L87.328125,15 L85.0546875,15 Z M93.828125,15 L93.828125,6.3828125 L96.1015625,6.3828125 L96.1015625,15 L93.828125,15 Z M94.96875,5.1796875 C94.1484375,5.1796875 93.625,4.703125 93.625,4.03125 C93.625,3.3515625 94.1484375,2.8828125 94.96875,2.8828125 C95.78125,2.8828125 96.3125,3.3515625 96.3125,4.03125 C96.3125,4.703125 95.78125,5.1796875 94.96875,5.1796875 Z M98.3984375,15 L98.3984375,6.3828125 L100.601562,6.3828125 L100.601562,7.765625 L100.742188,7.765625 C101.140625,6.796875 102.15625,6.1953125 103.421875,6.1953125 C105.34375,6.1953125 106.429688,7.3671875 106.429688,9.4296875 L106.429688,15 L104.15625,15 L104.15625,9.96875 C104.15625,8.78125 103.59375,8.15625 102.515625,8.15625 C101.390625,8.15625 100.671875,8.8984375 100.671875,10.03125 L100.671875,15 L98.3984375,15 Z M111.734375,6.2421875 C112.898438,6.2421875 113.890625,6.84375 114.34375,7.796875 L114.484375,7.796875 L114.484375,6.3828125 L116.695312,6.3828125 L116.695312,17.6953125 L114.414062,17.6953125 L114.414062,13.6796875 L114.273438,13.6796875 C113.8125,14.6015625 112.90625,15.1328125 111.6875,15.1328125 C109.523438,15.1328125 108.210938,13.4375 108.210938,10.6796875 C108.210938,7.9453125 109.5625,6.2421875 111.734375,6.2421875 Z M112.476562,13.234375 C113.695312,13.234375 114.445312,12.2734375 114.445312,10.6953125 C114.445312,9.125 113.6875,8.1484375 112.484375,8.1484375 C111.273438,8.1484375 110.546875,9.109375 110.546875,10.6875 C110.546875,12.28125 111.265625,13.234375 112.476562,13.234375 Z M126.96875,6.3828125 L126.96875,15 L124.765625,15 L124.765625,13.6171875 L124.625,13.6171875 C124.21875,14.6171875 123.257812,15.1875 122.007812,15.1875 C120.117188,15.1875 118.898438,14 118.898438,11.9609375 L118.898438,6.3828125 L121.171875,6.3828125 L121.171875,11.4140625 C121.171875,12.6171875 121.789062,13.2109375 122.851562,13.2109375 C123.96875,13.2109375 124.695312,12.5 124.695312,11.3515625 L124.695312,6.3828125 L126.96875,6.3828125 Z M129.265625,15 L129.265625,6.3828125 L131.539062,6.3828125 L131.539062,15 L129.265625,15 Z M130.40625,5.1796875 C129.585938,5.1796875 129.0625,4.703125 129.0625,4.03125 C129.0625,3.3515625 129.585938,2.8828125 130.40625,2.8828125 C131.21875,2.8828125 131.75,3.3515625 131.75,4.03125 C131.75,4.703125 131.21875,5.1796875 130.40625,5.1796875 Z M133.835938,15 L133.835938,6.3828125 L136.039062,6.3828125 L136.039062,7.7578125 L136.179688,7.7578125 C136.40625,6.8984375 137.289062,6.2421875 138.367188,6.2421875 C138.671875,6.2421875 139.046875,6.28125 139.242188,6.3515625 L139.242188,8.421875 C139.0625,8.3515625 138.507812,8.28125 138.179688,8.28125 C136.960938,8.28125 136.109375,9.015625 136.109375,10.2265625 L136.109375,15 L133.835938,15 Z M140.757812,15 L140.757812,6.3828125 L143.03125,6.3828125 L143.03125,15 L140.757812,15 Z M141.898438,5.1796875 C141.078125,5.1796875 140.554688,4.703125 140.554688,4.03125 C140.554688,3.3515625 141.078125,2.8828125 141.898438,2.8828125 C142.710938,2.8828125 143.242188,3.3515625 143.242188,4.03125 C143.242188,4.703125 142.710938,5.1796875 141.898438,5.1796875 Z M149.054688,7.9375 C148,7.9375 147.257812,8.671875 147.179688,9.7890625 L150.851562,9.7890625 C150.804688,8.6484375 150.117188,7.9375 149.054688,7.9375 Z M150.898438,12.546875 L153.015625,12.546875 C152.671875,14.171875 151.1875,15.1875 149.078125,15.1875 C146.453125,15.1875 144.90625,13.53125 144.90625,10.734375 C144.90625,7.9296875 146.484375,6.1953125 149.046875,6.1953125 C151.585938,6.1953125 153.085938,7.8125 153.085938,10.546875 L153.085938,11.2421875 L147.171875,11.2421875 L147.171875,11.359375 C147.203125,12.640625 147.953125,13.4375 149.140625,13.4375 C150.039062,13.4375 150.65625,13.1171875 150.898438,12.546875 Z M154.75,8.9140625 C154.75,7.28125 156.1875,6.1953125 158.335938,6.1953125 C160.523438,6.1953125 161.8125,7.109375 161.9375,8.7578125 L159.835938,8.7578125 C159.71875,8.203125 159.195312,7.859375 158.351562,7.859375 C157.539062,7.859375 156.9375,8.2265625 156.9375,8.7734375 C156.9375,9.1953125 157.304688,9.453125 158.101562,9.6328125 L159.71875,9.984375 C161.390625,10.3515625 162.140625,11.0546875 162.140625,12.34375 C162.140625,14.0625 160.601562,15.1875 158.34375,15.1875 C156.070312,15.1875 154.695312,14.2578125 154.539062,12.6015625 L156.757812,12.6015625 C156.929688,13.1875 157.484375,13.5234375 158.390625,13.5234375 C159.273438,13.5234375 159.882812,13.15625 159.882812,12.6015625 C159.882812,12.1796875 159.554688,11.921875 158.796875,11.7578125 L157.234375,11.40625 C155.5625,11.0390625 154.75,10.2421875 154.75,8.9140625 Z" id="Contextual-inquiries" fill="#FFFFFF"></path>
                    <g id="plus" transform="translate(274.000000, 2.000000)" stroke="#FFFFFF" stroke-linecap="round" stroke-linejoin="round" stroke-width="2">
                        <path d="M7,0 L7,14" id="Shape"></path>
                        <path d="M0,7 L14,7" id="Shape"></path>
                    </g>
                    <g id="more-horizontal" transform="translate(311.000000, 7.000000)" stroke="#FFFFFF" stroke-linecap="round" stroke-linejoin="round" stroke-width="2">
                        <circle id="Oval" cx="10" cy="2" r="2"></circle>
                        <circle id="Oval" cx="18" cy="2" r="2"></circle>
                        <circle id="Oval" cx="2" cy="2" r="2"></circle>
                    </g>
                </g>
            </g>
            <g transform="translate(0.000000, 128.000000)">
                <g id="Card">
                    <use fill="black" fill-opacity="1" filter="url(#filter-2)" xlink:href="#path-1"></use>
                    <use fill="#FFFFFF" fill-rule="evenodd" xlink:href="#path-1"></use>
                </g>
                <rect id="Rectangle-3" fill="#5182F8" x="0" y="0" width="368" height="48" rx="4"></rect>
                <g id="Drag">
                    <use fill="black" fill-opacity="1" filter="url(#filter-4)" xlink:href="#path-3"></use>
                    <path stroke="#000000" stroke-width="1" d="M239.551653,18.6997411 C239.55167,18.6989483 239.551693,18.6980403 239.551725,18.6970055 C239.551693,18.6980134 239.551662,18.6990263 239.55163,18.7000442 Z M236.412744,24.8009395 C236.471056,24.3972818 236.387493,23.5703429 236.060412,22.6708715 C235.997153,22.4969092 235.915446,22.2898052 235.79689,22.0001704 C235.756078,21.9004669 235.530898,21.355476 235.465177,21.1944926 C235.406092,21.0497651 235.353375,20.9189856 235.303782,20.7937841 C234.979498,19.9751015 234.7824,19.3767293 234.702494,18.8977997 C234.569846,18.1027532 234.783269,17.5000001 235.530309,17.5 C237.014147,17.4999999 237.487894,17.7916173 238.00465,19.3418861 C238.102797,19.6363274 238.190772,19.9595862 238.27593,20.3271468 C238.348496,20.6403587 238.515652,21.478069 238.591185,21.8514781 C238.59495,21.8415644 238.598751,21.8315882 238.602586,21.8215492 C238.589224,21.8565229 238.583618,21.0761418 238.567952,20.2897666 C238.56767,20.275595 238.56767,20.275595 238.567388,20.2614206 C238.555174,19.6480487 238.550362,19.3609549 238.548887,19.0850842 C238.545532,18.4574472 238.547109,18.4075661 238.634924,18.2530037 C238.640048,18.2439853 238.654312,18.2077228 238.673205,18.1483493 C238.683759,18.1151837 238.785787,17.7591205 238.826485,17.636278 C239.060461,16.930041 239.404867,16.5000001 240.05383,16.5 C240.941474,16.4999999 241.530309,17.5991125 241.530309,19.5 C241.530309,18.7013303 242.658431,17.5000001 243.493948,17.5 C244.390431,17.5 244.572671,18.3264073 244.691179,20.4724311 C244.701746,20.6637939 244.69959,20.6195633 244.726817,21.1896924 C244.734038,21.3408832 244.740712,21.4738623 244.747147,21.5921839 C244.81267,21.4397801 244.878364,21.2820758 244.942462,21.1243031 C244.998499,20.9863748 245.04079,20.8794597 245.064092,20.8193292 L245.123789,20.708896 C245.221081,20.5730294 245.372203,20.3750722 245.544382,20.1744072 C245.605982,20.1026163 245.666281,20.0354753 245.725032,19.9737166 C246.022,19.6615457 246.236609,19.5 246.530309,19.5 C247.42803,19.5 247.682963,20.3806768 247.591538,21.6606235 C247.526625,22.5694067 247.268485,23.6416823 246.977522,24.2236067 C246.835963,24.5067248 246.767806,24.8645541 246.671816,25.7021844 C246.64968,25.895982 246.63901,25.987868 246.625914,26.0944346 C246.497462,27.139725 246.327156,27.7708708 245.930309,28.3000001 C244.896949,29.6778121 244.799973,29.8071137 244.523294,30.1760202 C244.512842,30.3113719 244.489589,30.4677182 244.446199,30.6295137 C244.310587,31.135185 244.017079,31.5 243.493948,31.5 C243.11327,31.5000001 242.865438,31.3231063 242.547999,30.9659274 C242.517165,30.9312336 242.485652,30.8949899 242.427785,30.8282135 C242.206805,30.5742554 242.107155,30.5 242.030309,30.5 C241.948546,30.5 241.828231,30.5907818 241.700807,30.7796466 C241.602388,30.9255204 241.533056,31.0769638 241.502331,31.1649097 L241.385261,31.5 L237.86091,31.5 L237.726395,31.3970347 C237.619372,31.3151129 237.435631,31.1694172 237.20048,30.9743411 C236.809004,30.6495797 236.417399,30.3046237 236.050567,29.9532621 C235.742946,29.6586155 235.466037,29.3718986 235.227049,29.0965327 C234.969602,28.799898 234.75925,28.5200601 234.601562,28.2572479 C234.428841,27.969379 234.343435,27.8424581 233.832489,27.099907 C233.7378,26.9622963 233.665861,26.8569915 233.596395,26.7539705 C232.708645,25.4374033 232.353718,24.6448103 232.545238,23.8787322 C232.901966,22.4518208 234.334047,22.0083032 235.383862,23.0581187 C235.637778,23.3120339 235.842381,23.6252571 236.048334,24.0343746 C236.0965,24.1300532 236.293794,24.5571373 236.412744,24.8009395 Z M243.530309,27 L243.530309,25 L243.030309,25.5 L244.030309,25.5 L243.530309,25 L243.530309,27 Z M243.530309,27 L243.530309,29 L244.030309,28.5 L243.030309,28.5 L243.530309,29 L243.530309,27 Z M241.710703,25.446887 C241.683036,25.4719991 241.626294,25.5 241.530309,25.5 C241.422019,25.5 241.363766,25.4664768 241.338655,25.4394851 C241.367285,25.4809674 241.394002,25.5309946 241.420387,25.5933254 C241.484299,25.7443103 241.530309,25.9331742 241.530309,26 L241.530309,28 C241.530309,28.0716349 241.485542,28.2603554 241.422827,28.4097725 C241.393838,28.4788371 241.364435,28.5320146 241.343199,28.5593743 C241.377582,28.5280009 241.434324,28.5 241.530309,28.5 C241.638599,28.5 241.696852,28.5335232 241.721963,28.5605149 C241.693333,28.5190326 241.666616,28.4690054 241.640231,28.4066746 C241.576319,28.2556897 241.530309,28.0668258 241.530309,28 L241.530309,26 C241.530309,25.9283651 241.575076,25.7396446 241.637791,25.5902275 C241.66678,25.5211629 241.696183,25.4679854 241.717418,25.4406257 Z M241.343199,28.5593743 C241.342056,28.5608481 241.340935,28.5622471 241.33984,28.5635695 C241.342629,28.5602019 241.345977,28.5566867 241.349915,28.553113 Z M241.721963,28.5605149 C241.723395,28.562054 241.724719,28.5635719 241.725939,28.5650611 C241.722342,28.5606686 241.718496,28.5555101 241.714444,28.5496359 Z M239.710703,25.446887 C239.683036,25.4719991 239.626294,25.5 239.530309,25.5 C239.422019,25.5 239.363766,25.4664768 239.338655,25.4394851 C239.367285,25.4809674 239.394002,25.5309946 239.420387,25.5933254 C239.484299,25.7443103 239.530309,25.9331742 239.530309,26 L239.530309,28 C239.530309,28.0716349 239.485542,28.2603554 239.422827,28.4097725 C239.393838,28.4788371 239.364435,28.5320146 239.343199,28.5593743 C239.377582,28.5280009 239.434324,28.5 239.530309,28.5 C239.638599,28.5 239.696852,28.5335232 239.721963,28.5605149 C239.693333,28.5190326 239.666616,28.4690054 239.640231,28.4066746 C239.576319,28.2556897 239.530309,28.0668258 239.530309,28 L239.530309,26 C239.530309,25.9283651 239.575076,25.7396446 239.637791,25.5902275 C239.66678,25.5211629 239.696183,25.4679854 239.717418,25.4406257 Z M239.343199,28.5593743 C239.342056,28.5608481 239.340935,28.5622471 239.33984,28.5635695 C239.342629,28.5602019 239.345977,28.5566867 239.349915,28.553113 Z M239.721963,28.5605149 C239.723395,28.562054 239.724719,28.5635719 239.725939,28.5650611 C239.722342,28.5606686 239.718496,28.5555101 239.714444,28.5496359 Z" fill="#FFFFFF" fill-rule="evenodd"></path>
                </g>
                <g id="GroupHeader" transform="translate(16.000000, 15.000000)">
                    <path d="M6.15625,15.2890625 C2.890625,15.2890625 0.8671875,13.03125 0.8671875,9.359375 C0.8671875,5.6953125 2.8828125,3.4375 6.15625,3.4375 C8.828125,3.4375 10.875,5.2109375 11.046875,7.6640625 L8.75,7.6640625 C8.5234375,6.3671875 7.5,5.515625 6.15625,5.515625 C4.3828125,5.515625 3.28125,6.984375 3.28125,9.359375 C3.28125,11.734375 4.3828125,13.2109375 6.1640625,13.2109375 C7.515625,13.2109375 8.53125,12.4140625 8.7578125,11.171875 L11.0546875,11.171875 C10.859375,13.609375 8.875,15.2890625 6.15625,15.2890625 Z M20.9921875,6.3828125 L20.9921875,15 L18.7890625,15 L18.7890625,13.6171875 L18.6484375,13.6171875 C18.2421875,14.6171875 17.28125,15.1875 16.03125,15.1875 C14.140625,15.1875 12.921875,14 12.921875,11.9609375 L12.921875,6.3828125 L15.1953125,6.3828125 L15.1953125,11.4140625 C15.1953125,12.6171875 15.8125,13.2109375 16.875,13.2109375 C17.9921875,13.2109375 18.71875,12.5 18.71875,11.3515625 L18.71875,6.3828125 L20.9921875,6.3828125 Z M23.078125,8.9140625 C23.078125,7.28125 24.515625,6.1953125 26.6640625,6.1953125 C28.8515625,6.1953125 30.140625,7.109375 30.265625,8.7578125 L28.1640625,8.7578125 C28.046875,8.203125 27.5234375,7.859375 26.6796875,7.859375 C25.8671875,7.859375 25.265625,8.2265625 25.265625,8.7734375 C25.265625,9.1953125 25.6328125,9.453125 26.4296875,9.6328125 L28.046875,9.984375 C29.71875,10.3515625 30.46875,11.0546875 30.46875,12.34375 C30.46875,14.0625 28.9296875,15.1875 26.671875,15.1875 C24.3984375,15.1875 23.0234375,14.2578125 22.8671875,12.6015625 L25.0859375,12.6015625 C25.2578125,13.1875 25.8125,13.5234375 26.71875,13.5234375 C27.6015625,13.5234375 28.2109375,13.15625 28.2109375,12.6015625 C28.2109375,12.1796875 27.8828125,11.921875 27.125,11.7578125 L25.5625,11.40625 C23.890625,11.0390625 23.078125,10.2421875 23.078125,8.9140625 Z M32.984375,4.375 L35.2578125,4.375 L35.2578125,6.46875 L37.0859375,6.46875 L37.0859375,8.2578125 L35.2578125,8.2578125 L35.2578125,12.1328125 C35.2578125,12.8828125 35.6015625,13.2265625 36.375,13.2265625 C36.671875,13.2265625 36.8203125,13.21875 37.0390625,13.1953125 L37.0390625,14.9296875 C36.7578125,14.984375 36.34375,15.03125 35.90625,15.03125 C33.8125,15.03125 32.984375,14.3515625 32.984375,12.671875 L32.984375,8.2578125 L31.6171875,8.2578125 L31.6171875,6.46875 L32.984375,6.46875 L32.984375,4.375 Z M42.7578125,13.328125 C43.96875,13.328125 44.6640625,12.359375 44.6640625,10.6875 C44.6640625,9.03125 43.9609375,8.0546875 42.7578125,8.0546875 C41.546875,8.0546875 40.8515625,9.03125 40.8515625,10.6875 C40.8515625,12.3671875 41.5390625,13.328125 42.7578125,13.328125 Z M42.7578125,15.1875 C40.109375,15.1875 38.515625,13.5078125 38.515625,10.6875 C38.515625,7.8984375 40.1328125,6.1953125 42.7578125,6.1953125 C45.3828125,6.1953125 47,7.890625 47,10.6875 C47,13.5078125 45.40625,15.1875 42.7578125,15.1875 Z M48.8515625,15 L48.8515625,6.3828125 L51.0546875,6.3828125 L51.0546875,7.7890625 L51.1953125,7.7890625 C51.546875,6.8046875 52.4453125,6.1953125 53.578125,6.1953125 C54.7890625,6.1953125 55.6171875,6.7890625 55.9609375,7.7890625 L56.1015625,7.7890625 C56.5,6.828125 57.4921875,6.1953125 58.6953125,6.1953125 C60.4140625,6.1953125 61.484375,7.3125 61.484375,9.0859375 L61.484375,15 L59.2109375,15 L59.2109375,9.6875 C59.2109375,8.6640625 58.734375,8.15625 57.7734375,8.15625 C56.8515625,8.15625 56.2578125,8.8125 56.2578125,9.7265625 L56.2578125,15 L54.0703125,15 L54.0703125,9.59375 C54.0703125,8.6796875 53.5390625,8.15625 52.6484375,8.15625 C51.7578125,8.15625 51.125,8.8515625 51.125,9.8125 L51.125,15 L48.8515625,15 Z M67.4140625,7.9375 C66.359375,7.9375 65.6171875,8.671875 65.5390625,9.7890625 L69.2109375,9.7890625 C69.1640625,8.6484375 68.4765625,7.9375 67.4140625,7.9375 Z M69.2578125,12.546875 L71.375,12.546875 C71.03125,14.171875 69.546875,15.1875 67.4375,15.1875 C64.8125,15.1875 63.265625,13.53125 63.265625,10.734375 C63.265625,7.9296875 64.84375,6.1953125 67.40625,6.1953125 C69.9453125,6.1953125 71.4453125,7.8125 71.4453125,10.546875 L71.4453125,11.2421875 L65.53125,11.2421875 L65.53125,11.359375 C65.5625,12.640625 66.3125,13.4375 67.5,13.4375 C68.3984375,13.4375 69.015625,13.1171875 69.2578125,12.546875 Z M73.3046875,15 L73.3046875,6.3828125 L75.5078125,6.3828125 L75.5078125,7.7578125 L75.6484375,7.7578125 C75.875,6.8984375 76.7578125,6.2421875 77.8359375,6.2421875 C78.140625,6.2421875 78.515625,6.28125 78.7109375,6.3515625 L78.7109375,8.421875 C78.53125,8.3515625 77.9765625,8.28125 77.6484375,8.28125 C76.4296875,8.28125 75.578125,9.015625 75.578125,10.2265625 L75.578125,15 L73.3046875,15 Z M84.3515625,15 L84.3515625,6.3828125 L86.625,6.3828125 L86.625,15 L84.3515625,15 Z M85.4921875,5.1796875 C84.671875,5.1796875 84.1484375,4.703125 84.1484375,4.03125 C84.1484375,3.3515625 84.671875,2.8828125 85.4921875,2.8828125 C86.3046875,2.8828125 86.8359375,3.3515625 86.8359375,4.03125 C86.8359375,4.703125 86.3046875,5.1796875 85.4921875,5.1796875 Z M88.921875,15 L88.921875,6.3828125 L91.125,6.3828125 L91.125,7.765625 L91.265625,7.765625 C91.6640625,6.796875 92.6796875,6.1953125 93.9453125,6.1953125 C95.8671875,6.1953125 96.953125,7.3671875 96.953125,9.4296875 L96.953125,15 L94.6796875,15 L94.6796875,9.96875 C94.6796875,8.78125 94.1171875,8.15625 93.0390625,8.15625 C91.9140625,8.15625 91.1953125,8.8984375 91.1953125,10.03125 L91.1953125,15 L88.921875,15 Z M99.8046875,4.375 L102.078125,4.375 L102.078125,6.46875 L103.90625,6.46875 L103.90625,8.2578125 L102.078125,8.2578125 L102.078125,12.1328125 C102.078125,12.8828125 102.421875,13.2265625 103.195312,13.2265625 C103.492188,13.2265625 103.640625,13.21875 103.859375,13.1953125 L103.859375,14.9296875 C103.578125,14.984375 103.164062,15.03125 102.726562,15.03125 C100.632812,15.03125 99.8046875,14.3515625 99.8046875,12.671875 L99.8046875,8.2578125 L98.4375,8.2578125 L98.4375,6.46875 L99.8046875,6.46875 L99.8046875,4.375 Z M109.484375,7.9375 C108.429688,7.9375 107.6875,8.671875 107.609375,9.7890625 L111.28125,9.7890625 C111.234375,8.6484375 110.546875,7.9375 109.484375,7.9375 Z M111.328125,12.546875 L113.445312,12.546875 C113.101562,14.171875 111.617188,15.1875 109.507812,15.1875 C106.882812,15.1875 105.335938,13.53125 105.335938,10.734375 C105.335938,7.9296875 106.914062,6.1953125 109.476562,6.1953125 C112.015625,6.1953125 113.515625,7.8125 113.515625,10.546875 L113.515625,11.2421875 L107.601562,11.2421875 L107.601562,11.359375 C107.632812,12.640625 108.382812,13.4375 109.570312,13.4375 C110.46875,13.4375 111.085938,13.1171875 111.328125,12.546875 Z M115.375,15 L115.375,6.3828125 L117.578125,6.3828125 L117.578125,7.7578125 L117.71875,7.7578125 C117.945312,6.8984375 118.828125,6.2421875 119.90625,6.2421875 C120.210938,6.2421875 120.585938,6.28125 120.78125,6.3515625 L120.78125,8.421875 C120.601562,8.3515625 120.046875,8.28125 119.71875,8.28125 C118.5,8.28125 117.648438,9.015625 117.648438,10.2265625 L117.648438,15 L115.375,15 Z M121.539062,6.3828125 L123.984375,6.3828125 L125.765625,12.8046875 L125.90625,12.8046875 L127.671875,6.3828125 L130.070312,6.3828125 L127.09375,15 L124.53125,15 L121.539062,6.3828125 Z M131.625,15 L131.625,6.3828125 L133.898438,6.3828125 L133.898438,15 L131.625,15 Z M132.765625,5.1796875 C131.945312,5.1796875 131.421875,4.703125 131.421875,4.03125 C131.421875,3.3515625 131.945312,2.8828125 132.765625,2.8828125 C133.578125,2.8828125 134.109375,3.3515625 134.109375,4.03125 C134.109375,4.703125 133.578125,5.1796875 132.765625,5.1796875 Z M139.921875,7.9375 C138.867188,7.9375 138.125,8.671875 138.046875,9.7890625 L141.71875,9.7890625 C141.671875,8.6484375 140.984375,7.9375 139.921875,7.9375 Z M141.765625,12.546875 L143.882812,12.546875 C143.539062,14.171875 142.054688,15.1875 139.945312,15.1875 C137.320312,15.1875 135.773438,13.53125 135.773438,10.734375 C135.773438,7.9296875 137.351562,6.1953125 139.914062,6.1953125 C142.453125,6.1953125 143.953125,7.8125 143.953125,10.546875 L143.953125,11.2421875 L138.039062,11.2421875 L138.039062,11.359375 C138.070312,12.640625 138.820312,13.4375 140.007812,13.4375 C140.90625,13.4375 141.523438,13.1171875 141.765625,12.546875 Z M157.75,6.3828125 L155.460938,15 L153.039062,15 L151.5,9.0546875 L151.359375,9.0546875 L149.835938,15 L147.445312,15 L145.148438,6.3828125 L147.453125,6.3828125 L148.734375,12.5625 L148.875,12.5625 L150.382812,6.3828125 L152.554688,6.3828125 L154.070312,12.5625 L154.210938,12.5625 L155.492188,6.3828125 L157.75,6.3828125 Z M159.171875,8.9140625 C159.171875,7.28125 160.609375,6.1953125 162.757812,6.1953125 C164.945312,6.1953125 166.234375,7.109375 166.359375,8.7578125 L164.257812,8.7578125 C164.140625,8.203125 163.617188,7.859375 162.773438,7.859375 C161.960938,7.859375 161.359375,8.2265625 161.359375,8.7734375 C161.359375,9.1953125 161.726562,9.453125 162.523438,9.6328125 L164.140625,9.984375 C165.8125,10.3515625 166.5625,11.0546875 166.5625,12.34375 C166.5625,14.0625 165.023438,15.1875 162.765625,15.1875 C160.492188,15.1875 159.117188,14.2578125 158.960938,12.6015625 L161.179688,12.6015625 C161.351562,13.1875 161.90625,13.5234375 162.8125,13.5234375 C163.695312,13.5234375 164.304688,13.15625 164.304688,12.6015625 C164.304688,12.1796875 163.976562,11.921875 163.21875,11.7578125 L161.65625,11.40625 C159.984375,11.0390625 159.171875,10.2421875 159.171875,8.9140625 Z" id="Customer-interviews" fill="#FFFFFF"></path>
                    <g id="plus" transform="translate(277.000000, 2.000000)" stroke="#FFFFFF" stroke-linecap="round" stroke-linejoin="round" stroke-width="2">
                        <path d="M7,0 L7,14" id="Shape"></path>
                        <path d="M0,7 L14,7" id="Shape"></path>
                    </g>
                    <g id="more-horizontal" transform="translate(314.000000, 7.000000)" stroke="#FFFFFF" stroke-linecap="round" stroke-linejoin="round" stroke-width="2">
                        <circle id="Oval" cx="10" cy="2" r="2"></circle>
                        <circle id="Oval" cx="18" cy="2" r="2"></circle>
                        <circle id="Oval" cx="2" cy="2" r="2"></circle>
                    </g>
                </g>
            </g>
        </g>
    </g>
</svg>