<?xml version="1.0" encoding="UTF-8"?>
<svg width="832px" height="536px" viewBox="0 0 832 536" version="1.1" xmlns="http://www.w3.org/2000/svg" xmlns:xlink="http://www.w3.org/1999/xlink">
    <!-- Generator: Sketch 51 (57462) - http://www.bohemiancoding.com/sketch -->
    <title>snippet/highlights-feedback</title>
    <desc>Created with Sketch.</desc>
    <defs>
        <rect id="path-1" x="2" y="2" width="252" height="172" rx="4"></rect>
        <filter x="-2.8%" y="-2.9%" width="105.6%" height="108.1%" filterUnits="objectBoundingBox" id="filter-2">
            <feOffset dx="0" dy="2" in="SourceAlpha" result="shadowOffsetOuter1"></feOffset>
            <feGaussianBlur stdDeviation="2" in="shadowOffsetOuter1" result="shadowBlurOuter1"></feGaussianBlur>
            <feColorMatrix values="0 0 0 0 0   0 0 0 0 0   0 0 0 0 0  0 0 0 0.2 0" type="matrix" in="shadowBlurOuter1"></feColorMatrix>
        </filter>
        <rect id="path-3" x="0" y="0" width="256" height="176" rx="4"></rect>
        <filter x="-1.8%" y="-2.0%" width="103.5%" height="105.1%" filterUnits="objectBoundingBox" id="filter-4">
            <feMorphology radius="1" operator="dilate" in="SourceAlpha" result="shadowSpreadOuter1"></feMorphology>
            <feOffset dx="0" dy="1" in="shadowSpreadOuter1" result="shadowOffsetOuter1"></feOffset>
            <feGaussianBlur stdDeviation="1" in="shadowOffsetOuter1" result="shadowBlurOuter1"></feGaussianBlur>
            <feComposite in="shadowBlurOuter1" in2="SourceAlpha" operator="out" result="shadowBlurOuter1"></feComposite>
            <feColorMatrix values="0 0 0 0 0   0 0 0 0 0   0 0 0 0 0  0 0 0 0.04 0" type="matrix" in="shadowBlurOuter1"></feColorMatrix>
        </filter>
        <rect id="path-5" x="2" y="2" width="252" height="116" rx="4"></rect>
        <filter x="-2.8%" y="-4.3%" width="105.6%" height="112.1%" filterUnits="objectBoundingBox" id="filter-6">
            <feOffset dx="0" dy="2" in="SourceAlpha" result="shadowOffsetOuter1"></feOffset>
            <feGaussianBlur stdDeviation="2" in="shadowOffsetOuter1" result="shadowBlurOuter1"></feGaussianBlur>
            <feColorMatrix values="0 0 0 0 0   0 0 0 0 0   0 0 0 0 0  0 0 0 0.2 0" type="matrix" in="shadowBlurOuter1"></feColorMatrix>
        </filter>
        <rect id="path-7" x="0" y="0" width="256" height="120" rx="4"></rect>
        <filter x="-1.8%" y="-2.9%" width="103.5%" height="107.5%" filterUnits="objectBoundingBox" id="filter-8">
            <feMorphology radius="1" operator="dilate" in="SourceAlpha" result="shadowSpreadOuter1"></feMorphology>
            <feOffset dx="0" dy="1" in="shadowSpreadOuter1" result="shadowOffsetOuter1"></feOffset>
            <feGaussianBlur stdDeviation="1" in="shadowOffsetOuter1" result="shadowBlurOuter1"></feGaussianBlur>
            <feComposite in="shadowBlurOuter1" in2="SourceAlpha" operator="out" result="shadowBlurOuter1"></feComposite>
            <feColorMatrix values="0 0 0 0 0   0 0 0 0 0   0 0 0 0 0  0 0 0 0.04 0" type="matrix" in="shadowBlurOuter1"></feColorMatrix>
        </filter>
        <rect id="path-9" x="2" y="2" width="252" height="144" rx="4"></rect>
        <filter x="-2.8%" y="-3.5%" width="105.6%" height="109.7%" filterUnits="objectBoundingBox" id="filter-10">
            <feOffset dx="0" dy="2" in="SourceAlpha" result="shadowOffsetOuter1"></feOffset>
            <feGaussianBlur stdDeviation="2" in="shadowOffsetOuter1" result="shadowBlurOuter1"></feGaussianBlur>
            <feColorMatrix values="0 0 0 0 0   0 0 0 0 0   0 0 0 0 0  0 0 0 0.2 0" type="matrix" in="shadowBlurOuter1"></feColorMatrix>
        </filter>
        <rect id="path-11" x="0" y="0" width="256" height="148" rx="4"></rect>
        <filter x="-1.8%" y="-2.4%" width="103.5%" height="106.1%" filterUnits="objectBoundingBox" id="filter-12">
            <feMorphology radius="1" operator="dilate" in="SourceAlpha" result="shadowSpreadOuter1"></feMorphology>
            <feOffset dx="0" dy="1" in="shadowSpreadOuter1" result="shadowOffsetOuter1"></feOffset>
            <feGaussianBlur stdDeviation="1" in="shadowOffsetOuter1" result="shadowBlurOuter1"></feGaussianBlur>
            <feComposite in="shadowBlurOuter1" in2="SourceAlpha" operator="out" result="shadowBlurOuter1"></feComposite>
            <feColorMatrix values="0 0 0 0 0   0 0 0 0 0   0 0 0 0 0  0 0 0 0.04 0" type="matrix" in="shadowBlurOuter1"></feColorMatrix>
        </filter>
        <rect id="path-13" x="2" y="2" width="252" height="144" rx="4"></rect>
        <filter x="-2.8%" y="-3.5%" width="105.6%" height="109.7%" filterUnits="objectBoundingBox" id="filter-14">
            <feOffset dx="0" dy="2" in="SourceAlpha" result="shadowOffsetOuter1"></feOffset>
            <feGaussianBlur stdDeviation="2" in="shadowOffsetOuter1" result="shadowBlurOuter1"></feGaussianBlur>
            <feColorMatrix values="0 0 0 0 0   0 0 0 0 0   0 0 0 0 0  0 0 0 0.2 0" type="matrix" in="shadowBlurOuter1"></feColorMatrix>
        </filter>
        <rect id="path-15" x="0" y="0" width="256" height="148" rx="4"></rect>
        <filter x="-1.8%" y="-2.4%" width="103.5%" height="106.1%" filterUnits="objectBoundingBox" id="filter-16">
            <feMorphology radius="1" operator="dilate" in="SourceAlpha" result="shadowSpreadOuter1"></feMorphology>
            <feOffset dx="0" dy="1" in="shadowSpreadOuter1" result="shadowOffsetOuter1"></feOffset>
            <feGaussianBlur stdDeviation="1" in="shadowOffsetOuter1" result="shadowBlurOuter1"></feGaussianBlur>
            <feComposite in="shadowBlurOuter1" in2="SourceAlpha" operator="out" result="shadowBlurOuter1"></feComposite>
            <feColorMatrix values="0 0 0 0 0   0 0 0 0 0   0 0 0 0 0  0 0 0 0.04 0" type="matrix" in="shadowBlurOuter1"></feColorMatrix>
        </filter>
        <circle id="path-17" cx="12" cy="12" r="12"></circle>
        <filter x="-27.1%" y="-22.9%" width="154.2%" height="154.2%" filterUnits="objectBoundingBox" id="filter-18">
            <feOffset dx="0" dy="1" in="SourceAlpha" result="shadowOffsetOuter1"></feOffset>
            <feGaussianBlur stdDeviation="2" in="shadowOffsetOuter1" result="shadowBlurOuter1"></feGaussianBlur>
            <feColorMatrix values="0 0 0 0 0.141176471   0 0 0 0 0.0705882353   0 0 0 0 0.301960784  0 0 0 0.16 0" type="matrix" in="shadowBlurOuter1"></feColorMatrix>
        </filter>
        <rect id="path-19" x="2" y="2" width="252" height="144" rx="4"></rect>
        <filter x="-2.8%" y="-3.5%" width="105.6%" height="109.7%" filterUnits="objectBoundingBox" id="filter-20">
            <feOffset dx="0" dy="2" in="SourceAlpha" result="shadowOffsetOuter1"></feOffset>
            <feGaussianBlur stdDeviation="2" in="shadowOffsetOuter1" result="shadowBlurOuter1"></feGaussianBlur>
            <feColorMatrix values="0 0 0 0 0   0 0 0 0 0   0 0 0 0 0  0 0 0 0.2 0" type="matrix" in="shadowBlurOuter1"></feColorMatrix>
        </filter>
        <rect id="path-21" x="0" y="0" width="256" height="148" rx="4"></rect>
        <filter x="-1.8%" y="-2.4%" width="103.5%" height="106.1%" filterUnits="objectBoundingBox" id="filter-22">
            <feMorphology radius="1" operator="dilate" in="SourceAlpha" result="shadowSpreadOuter1"></feMorphology>
            <feOffset dx="0" dy="1" in="shadowSpreadOuter1" result="shadowOffsetOuter1"></feOffset>
            <feGaussianBlur stdDeviation="1" in="shadowOffsetOuter1" result="shadowBlurOuter1"></feGaussianBlur>
            <feComposite in="shadowBlurOuter1" in2="SourceAlpha" operator="out" result="shadowBlurOuter1"></feComposite>
            <feColorMatrix values="0 0 0 0 0   0 0 0 0 0   0 0 0 0 0  0 0 0 0.04 0" type="matrix" in="shadowBlurOuter1"></feColorMatrix>
        </filter>
        <rect id="path-23" x="2" y="2" width="252" height="172" rx="4"></rect>
        <filter x="-2.8%" y="-2.9%" width="105.6%" height="108.1%" filterUnits="objectBoundingBox" id="filter-24">
            <feOffset dx="0" dy="2" in="SourceAlpha" result="shadowOffsetOuter1"></feOffset>
            <feGaussianBlur stdDeviation="2" in="shadowOffsetOuter1" result="shadowBlurOuter1"></feGaussianBlur>
            <feColorMatrix values="0 0 0 0 0   0 0 0 0 0   0 0 0 0 0  0 0 0 0.2 0" type="matrix" in="shadowBlurOuter1"></feColorMatrix>
        </filter>
        <rect id="path-25" x="0" y="0" width="256" height="176" rx="4"></rect>
        <filter x="-1.8%" y="-2.0%" width="103.5%" height="105.1%" filterUnits="objectBoundingBox" id="filter-26">
            <feMorphology radius="1" operator="dilate" in="SourceAlpha" result="shadowSpreadOuter1"></feMorphology>
            <feOffset dx="0" dy="1" in="shadowSpreadOuter1" result="shadowOffsetOuter1"></feOffset>
            <feGaussianBlur stdDeviation="1" in="shadowOffsetOuter1" result="shadowBlurOuter1"></feGaussianBlur>
            <feComposite in="shadowBlurOuter1" in2="SourceAlpha" operator="out" result="shadowBlurOuter1"></feComposite>
            <feColorMatrix values="0 0 0 0 0   0 0 0 0 0   0 0 0 0 0  0 0 0 0.04 0" type="matrix" in="shadowBlurOuter1"></feColorMatrix>
        </filter>
        <circle id="path-27" cx="12" cy="12" r="12"></circle>
        <filter x="-27.1%" y="-22.9%" width="154.2%" height="154.2%" filterUnits="objectBoundingBox" id="filter-28">
            <feOffset dx="0" dy="1" in="SourceAlpha" result="shadowOffsetOuter1"></feOffset>
            <feGaussianBlur stdDeviation="2" in="shadowOffsetOuter1" result="shadowBlurOuter1"></feGaussianBlur>
            <feColorMatrix values="0 0 0 0 0.141176471   0 0 0 0 0.0705882353   0 0 0 0 0.301960784  0 0 0 0.16 0" type="matrix" in="shadowBlurOuter1"></feColorMatrix>
        </filter>
        <rect id="path-29" x="2" y="2" width="252" height="144" rx="4"></rect>
        <filter x="-2.8%" y="-3.5%" width="105.6%" height="109.7%" filterUnits="objectBoundingBox" id="filter-30">
            <feOffset dx="0" dy="2" in="SourceAlpha" result="shadowOffsetOuter1"></feOffset>
            <feGaussianBlur stdDeviation="2" in="shadowOffsetOuter1" result="shadowBlurOuter1"></feGaussianBlur>
            <feColorMatrix values="0 0 0 0 0   0 0 0 0 0   0 0 0 0 0  0 0 0 0.2 0" type="matrix" in="shadowBlurOuter1"></feColorMatrix>
        </filter>
        <rect id="path-31" x="0" y="0" width="256" height="148" rx="4"></rect>
        <filter x="-1.8%" y="-2.4%" width="103.5%" height="106.1%" filterUnits="objectBoundingBox" id="filter-32">
            <feMorphology radius="1" operator="dilate" in="SourceAlpha" result="shadowSpreadOuter1"></feMorphology>
            <feOffset dx="0" dy="1" in="shadowSpreadOuter1" result="shadowOffsetOuter1"></feOffset>
            <feGaussianBlur stdDeviation="1" in="shadowOffsetOuter1" result="shadowBlurOuter1"></feGaussianBlur>
            <feComposite in="shadowBlurOuter1" in2="SourceAlpha" operator="out" result="shadowBlurOuter1"></feComposite>
            <feColorMatrix values="0 0 0 0 0   0 0 0 0 0   0 0 0 0 0  0 0 0 0.04 0" type="matrix" in="shadowBlurOuter1"></feColorMatrix>
        </filter>
    </defs>
    <g id="snippet/highlights-feedback" stroke="none" stroke-width="1" fill="none" fill-rule="evenodd">
        <g id="Group" transform="translate(16.000000, 16.000000)">
            <g id="Card" transform="translate(0.000000, 72.000000)">
                <g id="component/card">
                    <g id="Shadow">
                        <use fill="black" fill-opacity="1" filter="url(#filter-2)" xlink:href="#path-1"></use>
                        <use fill="#FFFFFF" fill-rule="evenodd" xlink:href="#path-1"></use>
                    </g>
                    <g id="Card" stroke-linecap="square">
                        <use fill="black" fill-opacity="1" filter="url(#filter-4)" xlink:href="#path-3"></use>
                        <rect stroke-opacity="0.098194067" stroke="#140B2F" stroke-width="1" fill="#FFFFFF" fill-rule="evenodd" x="-0.5" y="-0.5" width="257" height="177" rx="4"></rect>
                    </g>
                </g>
                <path d="M58.5546875,32 L57.0429688,32 L57.0429688,23.5449219 L58.5546875,23.5449219 L58.5546875,32 Z M60.4882812,32 L60.4882812,25.5898438 L61.8886719,25.5898438 L61.8886719,26.6152344 L61.9882812,26.6152344 C62.2929688,25.9003906 63.0429688,25.4609375 64.0039062,25.4609375 C65.4335938,25.4609375 66.2363281,26.3222656 66.2363281,27.8515625 L66.2363281,32 L64.7890625,32 L64.7890625,28.1972656 C64.7890625,27.21875 64.34375,26.7265625 63.4648438,26.7265625 C62.5273438,26.7265625 61.9414062,27.3242188 61.9414062,28.2675781 L61.9414062,32 L60.4882812,32 Z M68.421875,24.0605469 L69.8691406,24.0605469 L69.8691406,25.6308594 L71.2753906,25.6308594 L71.2753906,26.7910156 L69.8691406,26.7910156 L69.8691406,29.9375 C69.8691406,30.5703125 70.1386719,30.8515625 70.7480469,30.8515625 C70.953125,30.8515625 71.0585938,30.8398438 71.2285156,30.8222656 L71.2285156,31.9589844 C71.0234375,32 70.7597656,32.0292969 70.4785156,32.0292969 C69.0078125,32.0292969 68.421875,31.53125 68.421875,30.2890625 L68.421875,26.7910156 L67.3789062,26.7910156 L67.3789062,25.6308594 L68.421875,25.6308594 L68.421875,24.0605469 Z M75.3828125,26.6152344 C74.515625,26.6152344 73.90625,27.2363281 73.8417969,28.1738281 L76.859375,28.1738281 C76.8300781,27.2246094 76.2558594,26.6152344 75.3828125,26.6152344 Z M76.8710938,30.2363281 L78.2480469,30.2363281 C77.9726562,31.4023438 76.9121094,32.1289062 75.4003906,32.1289062 C73.5136719,32.1289062 72.3769531,30.8808594 72.3769531,28.8183594 C72.3769531,26.7558594 73.53125,25.4609375 75.3886719,25.4609375 C77.2167969,25.4609375 78.3125,26.6738281 78.3125,28.6953125 L78.3125,29.1640625 L73.8359375,29.1640625 L73.8359375,29.2402344 C73.8710938,30.3066406 74.4863281,30.9746094 75.4414062,30.9746094 C76.1621094,30.9746094 76.6601562,30.7109375 76.8710938,30.2363281 Z M79.7714844,32 L79.7714844,25.5898438 L81.171875,25.5898438 L81.171875,26.5859375 L81.2714844,26.5859375 C81.4472656,25.953125 82.1328125,25.484375 82.953125,25.484375 C83.1582031,25.484375 83.4101562,25.5078125 83.5507812,25.5488281 L83.5507812,26.8964844 C83.4394531,26.8554688 83.0410156,26.8144531 82.8125,26.8144531 C81.8808594,26.8144531 81.2246094,27.4003906 81.2246094,28.296875 L81.2246094,32 L79.7714844,32 Z M90.2304688,27.7460938 L88.8476562,27.7460938 C88.7128906,27.125 88.2324219,26.6796875 87.4355469,26.6796875 C86.4394531,26.6796875 85.8476562,27.4472656 85.8476562,28.7773438 C85.8476562,30.125 86.4453125,30.9101562 87.4355469,30.9101562 C88.1914062,30.9101562 88.6953125,30.5527344 88.8476562,29.8847656 L90.2304688,29.8847656 C90.0722656,31.2265625 89.0644531,32.1289062 87.4414062,32.1289062 C85.5136719,32.1289062 84.3769531,30.8867188 84.3769531,28.7773438 C84.3769531,26.6972656 85.5078125,25.4609375 87.4355469,25.4609375 C89.0820312,25.4609375 90.078125,26.3984375 90.2304688,27.7460938 Z M94.3847656,30.9101562 C95.3984375,30.9101562 95.9726562,30.1367188 95.9726562,28.7949219 C95.9726562,27.4589844 95.3925781,26.6796875 94.3847656,26.6796875 C93.3710938,26.6796875 92.7910156,27.4589844 92.7910156,28.7949219 C92.7910156,30.1367188 93.3710938,30.9101562 94.3847656,30.9101562 Z M94.3847656,32.1289062 C92.4628906,32.1289062 91.3027344,30.875 91.3027344,28.7949219 C91.3027344,26.7265625 92.4804688,25.4609375 94.3847656,25.4609375 C96.2949219,25.4609375 97.4667969,26.7207031 97.4667969,28.7949219 C97.4667969,30.875 96.3007812,32.1289062 94.3847656,32.1289062 Z M98.9316406,32 L98.9316406,25.5898438 L100.332031,25.5898438 L100.332031,26.6269531 L100.431641,26.6269531 C100.707031,25.8945312 101.363281,25.4609375 102.212891,25.4609375 C103.097656,25.4609375 103.712891,25.90625 103.982422,26.6269531 L104.082031,26.6269531 C104.398438,25.9238281 105.136719,25.4609375 106.027344,25.4609375 C107.310547,25.4609375 108.083984,26.2636719 108.083984,27.59375 L108.083984,32 L106.636719,32 L106.636719,27.9628906 C106.636719,27.1367188 106.244141,26.7265625 105.464844,26.7265625 C104.708984,26.7265625 104.210938,27.2773438 104.210938,28.0097656 L104.210938,32 L102.798828,32 L102.798828,27.8574219 C102.798828,27.1542969 102.353516,26.7265625 101.638672,26.7265625 C100.917969,26.7265625 100.384766,27.3183594 100.384766,28.1035156 L100.384766,32 L98.9316406,32 Z M118.542969,27.7460938 L117.160156,27.7460938 C117.025391,27.125 116.544922,26.6796875 115.748047,26.6796875 C114.751953,26.6796875 114.160156,27.4472656 114.160156,28.7773438 C114.160156,30.125 114.757812,30.9101562 115.748047,30.9101562 C116.503906,30.9101562 117.007812,30.5527344 117.160156,29.8847656 L118.542969,29.8847656 C118.384766,31.2265625 117.376953,32.1289062 115.753906,32.1289062 C113.826172,32.1289062 112.689453,30.8867188 112.689453,28.7773438 C112.689453,26.6972656 113.820312,25.4609375 115.748047,25.4609375 C117.394531,25.4609375 118.390625,26.3984375 118.542969,27.7460938 Z M122.697266,30.9101562 C123.710938,30.9101562 124.285156,30.1367188 124.285156,28.7949219 C124.285156,27.4589844 123.705078,26.6796875 122.697266,26.6796875 C121.683594,26.6796875 121.103516,27.4589844 121.103516,28.7949219 C121.103516,30.1367188 121.683594,30.9101562 122.697266,30.9101562 Z M122.697266,32.1289062 C120.775391,32.1289062 119.615234,30.875 119.615234,28.7949219 C119.615234,26.7265625 120.792969,25.4609375 122.697266,25.4609375 C124.607422,25.4609375 125.779297,26.7207031 125.779297,28.7949219 C125.779297,30.875 124.613281,32.1289062 122.697266,32.1289062 Z M127.244141,32 L127.244141,25.5898438 L128.644531,25.5898438 L128.644531,26.6152344 L128.744141,26.6152344 C129.048828,25.9003906 129.798828,25.4609375 130.759766,25.4609375 C132.189453,25.4609375 132.992188,26.3222656 132.992188,27.8515625 L132.992188,32 L131.544922,32 L131.544922,28.1972656 C131.544922,27.21875 131.099609,26.7265625 130.220703,26.7265625 C129.283203,26.7265625 128.697266,27.3242188 128.697266,28.2675781 L128.697266,32 L127.244141,32 Z M134.158203,25.5898438 L135.716797,25.5898438 L137.199219,30.546875 L137.298828,30.546875 L138.769531,25.5898438 L140.304688,25.5898438 L138.037109,32 L136.4375,32 L134.158203,25.5898438 Z M144.21875,26.6152344 C143.351562,26.6152344 142.742188,27.2363281 142.677734,28.1738281 L145.695312,28.1738281 C145.666016,27.2246094 145.091797,26.6152344 144.21875,26.6152344 Z M145.707031,30.2363281 L147.083984,30.2363281 C146.808594,31.4023438 145.748047,32.1289062 144.236328,32.1289062 C142.349609,32.1289062 141.212891,30.8808594 141.212891,28.8183594 C141.212891,26.7558594 142.367188,25.4609375 144.224609,25.4609375 C146.052734,25.4609375 147.148438,26.6738281 147.148438,28.6953125 L147.148438,29.1640625 L142.671875,29.1640625 L142.671875,29.2402344 C142.707031,30.3066406 143.322266,30.9746094 144.277344,30.9746094 C144.998047,30.9746094 145.496094,30.7109375 145.707031,30.2363281 Z M148.607422,32 L148.607422,25.5898438 L150.007812,25.5898438 L150.007812,26.5859375 L150.107422,26.5859375 C150.283203,25.953125 150.96875,25.484375 151.789062,25.484375 C151.994141,25.484375 152.246094,25.5078125 152.386719,25.5488281 L152.386719,26.8964844 C152.275391,26.8554688 151.876953,26.8144531 151.648438,26.8144531 C150.716797,26.8144531 150.060547,27.4003906 150.060547,28.296875 L150.060547,32 L148.607422,32 Z M153.382812,27.4238281 C153.382812,26.2636719 154.4375,25.4609375 155.949219,25.4609375 C157.472656,25.4609375 158.427734,26.1347656 158.533203,27.3007812 L157.167969,27.3007812 C157.0625,26.8496094 156.634766,26.5625 155.955078,26.5625 C155.292969,26.5625 154.794922,26.8789062 154.794922,27.3417969 C154.794922,27.7050781 155.099609,27.9277344 155.744141,28.0742188 L156.875,28.3320312 C158.099609,28.6074219 158.667969,29.1347656 158.667969,30.078125 C158.667969,31.3085938 157.537109,32.1289062 155.9375,32.1289062 C154.337891,32.1289062 153.330078,31.4375 153.21875,30.2714844 L154.654297,30.2714844 C154.794922,30.7460938 155.246094,31.0273438 155.972656,31.0273438 C156.705078,31.0273438 157.214844,30.7050781 157.214844,30.2304688 C157.214844,29.8671875 156.939453,29.6386719 156.330078,29.5039062 L155.193359,29.2402344 C153.962891,28.9589844 153.382812,28.390625 153.382812,27.4238281 Z M162.330078,30.9628906 C163.208984,30.9628906 163.865234,30.3945312 163.865234,29.6503906 L163.865234,29.140625 L162.417969,29.234375 C161.603516,29.2871094 161.222656,29.5800781 161.222656,30.1015625 C161.222656,30.640625 161.685547,30.9628906 162.330078,30.9628906 Z M161.902344,32.1054688 C160.666016,32.1054688 159.78125,31.3554688 159.78125,30.1835938 C159.78125,29.0234375 160.654297,28.3554688 162.212891,28.2617188 L163.865234,28.1621094 L163.865234,27.6230469 C163.865234,26.9960938 163.443359,26.6445312 162.658203,26.6445312 C161.990234,26.6445312 161.533203,26.8789062 161.398438,27.3125 L160.027344,27.3125 C160.144531,26.1816406 161.205078,25.4609375 162.728516,25.4609375 C164.375,25.4609375 165.300781,26.2636719 165.300781,27.6230469 L165.300781,32 L163.900391,32 L163.900391,31.1210938 L163.800781,31.1210938 C163.443359,31.7421875 162.740234,32.1054688 161.902344,32.1054688 Z M167.509766,24.0605469 L168.957031,24.0605469 L168.957031,25.6308594 L170.363281,25.6308594 L170.363281,26.7910156 L168.957031,26.7910156 L168.957031,29.9375 C168.957031,30.5703125 169.226562,30.8515625 169.835938,30.8515625 C170.041016,30.8515625 170.146484,30.8398438 170.316406,30.8222656 L170.316406,31.9589844 C170.111328,32 169.847656,32.0292969 169.566406,32.0292969 C168.095703,32.0292969 167.509766,31.53125 167.509766,30.2890625 L167.509766,26.7910156 L166.466797,26.7910156 L166.466797,25.6308594 L167.509766,25.6308594 L167.509766,24.0605469 Z M171.798828,32 L171.798828,25.5898438 L173.246094,25.5898438 L173.246094,32 L171.798828,32 Z M172.519531,24.546875 C171.992188,24.546875 171.623047,24.2070312 171.623047,23.7441406 C171.623047,23.28125 171.992188,22.9414062 172.519531,22.9414062 C173.052734,22.9414062 173.416016,23.28125 173.416016,23.7441406 C173.416016,24.2070312 173.052734,24.546875 172.519531,24.546875 Z M177.810547,30.9101562 C178.824219,30.9101562 179.398438,30.1367188 179.398438,28.7949219 C179.398438,27.4589844 178.818359,26.6796875 177.810547,26.6796875 C176.796875,26.6796875 176.216797,27.4589844 176.216797,28.7949219 C176.216797,30.1367188 176.796875,30.9101562 177.810547,30.9101562 Z M177.810547,32.1289062 C175.888672,32.1289062 174.728516,30.875 174.728516,28.7949219 C174.728516,26.7265625 175.90625,25.4609375 177.810547,25.4609375 C179.720703,25.4609375 180.892578,26.7207031 180.892578,28.7949219 C180.892578,30.875 179.726562,32.1289062 177.810547,32.1289062 Z M182.357422,32 L182.357422,25.5898438 L183.757812,25.5898438 L183.757812,26.6152344 L183.857422,26.6152344 C184.162109,25.9003906 184.912109,25.4609375 185.873047,25.4609375 C187.302734,25.4609375 188.105469,26.3222656 188.105469,27.8515625 L188.105469,32 L186.658203,32 L186.658203,28.1972656 C186.658203,27.21875 186.212891,26.7265625 185.333984,26.7265625 C184.396484,26.7265625 183.810547,27.3242188 183.810547,28.2675781 L183.810547,32 L182.357422,32 Z" id="Intercom-conversatio" fill="#24124D" opacity="0.5"></path>
                <g id="intercom" transform="translate(16.000000, 16.000000)" fill="#1F8DED" fill-rule="nonzero">
                    <path d="M20.8000313,13.195125 C20.7952848,13.6335832 20.4384995,13.986527 20.0000156,13.986527 C19.5615317,13.986527 19.2047465,13.6335832 19.2,13.195125 L19.2,6 C19.2047465,5.56154178 19.5615317,5.20859797 20.0000156,5.20859797 C20.4384995,5.20859797 20.7952848,5.56154178 20.8000312,6 L20.8000312,13.195125 Z M20.5208437,18.2025937 C20.3971875,18.3084375 17.4336562,20.79525 12,20.79525 C6.5664375,20.79525 3.603,18.3083437 3.47934375,18.2025 C3.14394656,17.9148998 3.10512546,17.4098898 3.392625,17.0744062 C3.67947459,16.7394938 4.18329687,16.6999865 4.51884375,16.9860937 C4.5658125,17.0254687 7.2121875,19.195125 12.0000937,19.195125 C16.8480938,19.195125 19.4535,17.0098125 19.4792812,16.9877812 C19.8140625,16.70025 20.3200312,16.738875 20.607375,17.0745 C20.8949738,17.4099162 20.8562337,17.9149643 20.5208437,18.2025937 Z M3.19996875,6 C3.20471522,5.56154178 3.56150047,5.20859797 3.99998438,5.20859797 C4.43846828,5.20859797 4.79525353,5.56154178 4.8,6 L4.8,13.195125 C4.79525353,13.6335832 4.43846828,13.986527 3.99998438,13.986527 C3.56150047,13.986527 3.20471522,13.6335832 3.19996875,13.195125 L3.19996875,6 Z M7.20009375,4.39996875 C7.20678479,3.96293326 7.56297579,3.61215382 8.0000625,3.61215382 C8.43714921,3.61215382 8.79334021,3.96293326 8.80003125,4.39996875 L8.80003125,15.0875625 C8.79334021,15.524598 8.43714921,15.8753774 8.0000625,15.8753774 C7.56297579,15.8753774 7.20678479,15.524598 7.20009375,15.0875625 L7.20009375,4.4000625 L7.20009375,4.39996875 Z M11.2000313,3.99515625 C11.2000064,3.78298372 11.2842806,3.57949409 11.4343092,3.42946546 C11.5843378,3.27943682 11.7878275,3.19516263 12,3.1951875 C12.2121888,3.19513776 12.4157025,3.27940097 12.5657514,3.4294323 C12.7158003,3.57946363 12.8000874,3.78296748 12.8000625,3.99515625 L12.8000625,15.595125 C12.795316,16.0335832 12.4385308,16.386527 12.0000469,16.386527 C11.561563,16.386527 11.2047777,16.0335832 11.2000313,15.595125 L11.2000313,3.99515625 Z M15.2000625,4.39996875 C15.2067535,3.96293326 15.5629445,3.61215382 16.0000313,3.61215382 C16.437118,3.61215382 16.793309,3.96293326 16.8,4.39996875 L16.8,15.0875625 C16.793309,15.524598 16.437118,15.8753774 16.0000313,15.8753774 C15.5629445,15.8753774 15.2067535,15.524598 15.2000625,15.0875625 L15.2000625,4.4000625 L15.2000625,4.39996875 Z M21,0 L3,0 C1.34315625,0 0,1.34315625 0,3 L0,21 C0,22.65675 1.34315625,24 3,24 L21,24 C22.6568438,24 24,22.65675 24,21 L24,3 C24,1.34315625 22.6568438,0 21,0 Z" id="Shape"></path>
                </g>
                <rect id="Rectangle-9" fill="#DCD5EE" x="16" y="64" width="224" height="12" rx="4"></rect>
                <rect id="Rectangle-9" fill="#DCD5EE" x="16" y="92" width="136" height="12" rx="4"></rect>
                <rect id="Rectangle-9" fill="#DCD5EE" x="16" y="148" width="136" height="12" rx="4"></rect>
                <rect id="Rectangle-9" fill="#5182F8" x="168" y="92" width="72" height="12" rx="4"></rect>
                <rect id="Rectangle-9" fill="#5182F8" x="16" y="120" width="224" height="12" rx="4"></rect>
            </g>
            <g id="Card" transform="translate(0.000000, 264.000000)">
                <g id="component/card">
                    <g id="Shadow">
                        <use fill="black" fill-opacity="1" filter="url(#filter-6)" xlink:href="#path-5"></use>
                        <use fill="#FFFFFF" fill-rule="evenodd" xlink:href="#path-5"></use>
                    </g>
                    <g id="Card" stroke-linecap="square">
                        <use fill="black" fill-opacity="1" filter="url(#filter-8)" xlink:href="#path-7"></use>
                        <rect stroke-opacity="0.098194067" stroke="#140B2F" stroke-width="1" fill="#FFFFFF" fill-rule="evenodd" x="-0.5" y="-0.5" width="257" height="121" rx="4"></rect>
                    </g>
                </g>
                <g id="typeform" transform="translate(20.500000, 16.000000)" fill-rule="nonzero">
                    <polygon id="Shape" fill="#89C6BE" points="12.7339754 0.0768353808 15.0768354 0.0768353808 15.0768354 23.9604324 12.7339754 23.9604324"></polygon>
                    <path d="M0.0240589681,5.51646192 L2.96007862,5.51646192 L2.96007862,0.0505945946 L6.85114496,0.0505945946 L6.85114496,5.51646192 L10.3670565,5.51646192 L10.3670565,8.51392629 L6.85114496,8.51392629 L6.85114496,18.2471351 C6.85114496,18.6699361 6.8682457,19.0348894 6.90244717,19.3401671 C6.93623587,19.6462113 7.01596069,19.9044914 7.14109091,20.1162457 C7.2662801,20.3276462 7.45362162,20.4863292 7.70470762,20.5921769 C7.95473219,20.6980835 8.29598034,20.750801 8.72862899,20.750801 C9.00153317,20.750801 9.27479115,20.7453759 9.54769533,20.7329926 C9.82089435,20.7217297 10.0937985,20.6802162 10.3670565,20.6100442 L10.3670565,23.7133563 C9.93446683,23.759941 9.51343489,23.8068796 9.10413759,23.8545258 C8.68479249,23.9015708 8.26313539,23.9250181 7.84115971,23.9247568 C6.81688452,23.9247568 5.99203931,23.8243342 5.36627027,23.625317 C4.74002948,23.4255332 4.25136118,23.1311646 3.89879115,22.7433317 C3.54545455,22.3554398 3.30675184,21.8674791 3.18162162,21.2795086 C3.05607862,20.6925995 2.98225061,20.0223686 2.96001966,19.2698771 L2.96001966,8.51398526 L0.0240589681,8.51398526 L0.0240589681,5.51646192" id="Shape" fill="#33393F"></path>
                </g>
                <path d="M60.6582031,32 L59.1464844,32 L59.1464844,24.8515625 L56.5449219,24.8515625 L56.5449219,23.5449219 L63.265625,23.5449219 L63.265625,24.8515625 L60.6582031,24.8515625 L60.6582031,32 Z M65.3984375,34.3320312 C65.3105469,34.3320312 64.9179688,34.3261719 64.8242188,34.3085938 L64.8242188,33.125 C64.90625,33.1367188 65.1230469,33.1425781 65.2226562,33.1425781 C65.8378906,33.1425781 66.1835938,32.9023438 66.3710938,32.3105469 L66.4472656,32.0292969 L64.15625,25.5898438 L65.75,25.5898438 L67.25,30.59375 L67.3496094,30.59375 L68.84375,25.5898438 L70.3789062,25.5898438 L68.0644531,32.2050781 C67.5195312,33.7988281 66.8339844,34.3320312 65.3984375,34.3320312 Z M75.1191406,25.484375 C76.7421875,25.484375 77.7617188,26.7382812 77.7617188,28.7949219 C77.7617188,30.8398438 76.7539062,32.1054688 75.1367188,32.1054688 C74.2167969,32.1054688 73.5078125,31.7070312 73.1796875,31.0273438 L73.0800781,31.0273438 L73.0800781,34.0507812 L71.6269531,34.0507812 L71.6269531,25.5898438 L73.0273438,25.5898438 L73.0273438,26.6503906 L73.1269531,26.6503906 C73.4960938,25.9238281 74.2402344,25.484375 75.1191406,25.484375 Z M74.6621094,30.8691406 C75.6699219,30.8691406 76.2675781,30.0898438 76.2675781,28.7949219 C76.2675781,27.5 75.6640625,26.7207031 74.6679688,26.7207031 C73.6777344,26.7207031 73.0566406,27.5175781 73.0507812,28.7949219 C73.0566406,30.078125 73.671875,30.8691406 74.6621094,30.8691406 Z M81.9101562,26.6152344 C81.0429688,26.6152344 80.4335938,27.2363281 80.3691406,28.1738281 L83.3867188,28.1738281 C83.3574219,27.2246094 82.7832031,26.6152344 81.9101562,26.6152344 Z M83.3984375,30.2363281 L84.7753906,30.2363281 C84.5,31.4023438 83.4394531,32.1289062 81.9277344,32.1289062 C80.0410156,32.1289062 78.9042969,30.8808594 78.9042969,28.8183594 C78.9042969,26.7558594 80.0585938,25.4609375 81.9160156,25.4609375 C83.7441406,25.4609375 84.8398438,26.6738281 84.8398438,28.6953125 L84.8398438,29.1640625 L80.3632812,29.1640625 L80.3632812,29.2402344 C80.3984375,30.3066406 81.0136719,30.9746094 81.96875,30.9746094 C82.6894531,30.9746094 83.1875,30.7109375 83.3984375,30.2363281 Z M86.7617188,32 L86.7617188,26.7910156 L85.71875,26.7910156 L85.71875,25.6308594 L86.7617188,25.6308594 L86.7617188,24.9921875 C86.7617188,23.6914062 87.4355469,23.1640625 88.8417969,23.1640625 C89.0996094,23.1640625 89.3515625,23.1875 89.609375,23.2285156 L89.609375,24.3125 C89.4804688,24.2832031 89.2636719,24.265625 89.0527344,24.265625 C88.484375,24.265625 88.1855469,24.5117188 88.1855469,25.0859375 L88.1855469,25.6308594 L89.5742188,25.6308594 L89.5742188,26.7910156 L88.2089844,26.7910156 L88.2089844,32 L86.7617188,32 Z M93.7578125,30.9101562 C94.7714844,30.9101562 95.3457031,30.1367188 95.3457031,28.7949219 C95.3457031,27.4589844 94.765625,26.6796875 93.7578125,26.6796875 C92.7441406,26.6796875 92.1640625,27.4589844 92.1640625,28.7949219 C92.1640625,30.1367188 92.7441406,30.9101562 93.7578125,30.9101562 Z M93.7578125,32.1289062 C91.8359375,32.1289062 90.6757812,30.875 90.6757812,28.7949219 C90.6757812,26.7265625 91.8535156,25.4609375 93.7578125,25.4609375 C95.6679688,25.4609375 96.8398438,26.7207031 96.8398438,28.7949219 C96.8398438,30.875 95.6738281,32.1289062 93.7578125,32.1289062 Z M98.3046875,32 L98.3046875,25.5898438 L99.7050781,25.5898438 L99.7050781,26.5859375 L99.8046875,26.5859375 C99.9804688,25.953125 100.666016,25.484375 101.486328,25.484375 C101.691406,25.484375 101.943359,25.5078125 102.083984,25.5488281 L102.083984,26.8964844 C101.972656,26.8554688 101.574219,26.8144531 101.345703,26.8144531 C100.414062,26.8144531 99.7578125,27.4003906 99.7578125,28.296875 L99.7578125,32 L98.3046875,32 Z M103.226562,32 L103.226562,25.5898438 L104.626953,25.5898438 L104.626953,26.6269531 L104.726562,26.6269531 C105.001953,25.8945312 105.658203,25.4609375 106.507812,25.4609375 C107.392578,25.4609375 108.007812,25.90625 108.277344,26.6269531 L108.376953,26.6269531 C108.693359,25.9238281 109.431641,25.4609375 110.322266,25.4609375 C111.605469,25.4609375 112.378906,26.2636719 112.378906,27.59375 L112.378906,32 L110.931641,32 L110.931641,27.9628906 C110.931641,27.1367188 110.539062,26.7265625 109.759766,26.7265625 C109.003906,26.7265625 108.505859,27.2773438 108.505859,28.0097656 L108.505859,32 L107.09375,32 L107.09375,27.8574219 C107.09375,27.1542969 106.648438,26.7265625 105.933594,26.7265625 C105.212891,26.7265625 104.679688,27.3183594 104.679688,28.1035156 L104.679688,32 L103.226562,32 Z M119.990234,26.6152344 C119.123047,26.6152344 118.513672,27.2363281 118.449219,28.1738281 L121.466797,28.1738281 C121.4375,27.2246094 120.863281,26.6152344 119.990234,26.6152344 Z M121.478516,30.2363281 L122.855469,30.2363281 C122.580078,31.4023438 121.519531,32.1289062 120.007812,32.1289062 C118.121094,32.1289062 116.984375,30.8808594 116.984375,28.8183594 C116.984375,26.7558594 118.138672,25.4609375 119.996094,25.4609375 C121.824219,25.4609375 122.919922,26.6738281 122.919922,28.6953125 L122.919922,29.1640625 L118.443359,29.1640625 L118.443359,29.2402344 C118.478516,30.3066406 119.09375,30.9746094 120.048828,30.9746094 C120.769531,30.9746094 121.267578,30.7109375 121.478516,30.2363281 Z M124.378906,32 L124.378906,25.5898438 L125.779297,25.5898438 L125.779297,26.6152344 L125.878906,26.6152344 C126.183594,25.9003906 126.933594,25.4609375 127.894531,25.4609375 C129.324219,25.4609375 130.126953,26.3222656 130.126953,27.8515625 L130.126953,32 L128.679688,32 L128.679688,28.1972656 C128.679688,27.21875 128.234375,26.7265625 127.355469,26.7265625 C126.417969,26.7265625 125.832031,27.3242188 125.832031,28.2675781 L125.832031,32 L124.378906,32 Z M132.3125,24.0605469 L133.759766,24.0605469 L133.759766,25.6308594 L135.166016,25.6308594 L135.166016,26.7910156 L133.759766,26.7910156 L133.759766,29.9375 C133.759766,30.5703125 134.029297,30.8515625 134.638672,30.8515625 C134.84375,30.8515625 134.949219,30.8398438 135.119141,30.8222656 L135.119141,31.9589844 C134.914062,32 134.650391,32.0292969 134.369141,32.0292969 C132.898438,32.0292969 132.3125,31.53125 132.3125,30.2890625 L132.3125,26.7910156 L131.269531,26.7910156 L131.269531,25.6308594 L132.3125,25.6308594 L132.3125,24.0605469 Z M136.583984,32 L136.583984,25.5898438 L137.984375,25.5898438 L137.984375,26.5859375 L138.083984,26.5859375 C138.259766,25.953125 138.945312,25.484375 139.765625,25.484375 C139.970703,25.484375 140.222656,25.5078125 140.363281,25.5488281 L140.363281,26.8964844 C140.251953,26.8554688 139.853516,26.8144531 139.625,26.8144531 C138.693359,26.8144531 138.037109,27.4003906 138.037109,28.296875 L138.037109,32 L136.583984,32 Z M142.208984,34.3320312 C142.121094,34.3320312 141.728516,34.3261719 141.634766,34.3085938 L141.634766,33.125 C141.716797,33.1367188 141.933594,33.1425781 142.033203,33.1425781 C142.648438,33.1425781 142.994141,32.9023438 143.181641,32.3105469 L143.257812,32.0292969 L140.966797,25.5898438 L142.560547,25.5898438 L144.060547,30.59375 L144.160156,30.59375 L145.654297,25.5898438 L147.189453,25.5898438 L144.875,32.2050781 C144.330078,33.7988281 143.644531,34.3320312 142.208984,34.3320312 Z" id="Typeform-entry" fill="#24124D" opacity="0.5"></path>
                <rect id="Rectangle-9" fill="#DCD5EE" x="16" y="64" width="224" height="12" rx="4"></rect>
                <rect id="Rectangle-9" fill="#DCD5EE" x="16" y="92" width="136" height="12" rx="4"></rect>
                <rect id="Rectangle-9" fill="#009688" x="168" y="92" width="72" height="12" rx="4"></rect>
            </g>
            <g id="Card" transform="translate(272.000000, 0.000000)">
                <g id="component/card">
                    <g id="Shadow">
                        <use fill="black" fill-opacity="1" filter="url(#filter-10)" xlink:href="#path-9"></use>
                        <use fill="#FFFFFF" fill-rule="evenodd" xlink:href="#path-9"></use>
                    </g>
                    <g id="Card" stroke-linecap="square">
                        <use fill="black" fill-opacity="1" filter="url(#filter-12)" xlink:href="#path-11"></use>
                        <rect stroke-opacity="0.098194067" stroke="#140B2F" stroke-width="1" fill="#FFFFFF" fill-rule="evenodd" x="-0.5" y="-0.5" width="257" height="149" rx="4"></rect>
                    </g>
                </g>
                <path d="M60.6582031,32 L59.1464844,32 L59.1464844,24.8515625 L56.5449219,24.8515625 L56.5449219,23.5449219 L63.265625,23.5449219 L63.265625,24.8515625 L60.6582031,24.8515625 L60.6582031,32 Z M65.3984375,34.3320312 C65.3105469,34.3320312 64.9179688,34.3261719 64.8242188,34.3085938 L64.8242188,33.125 C64.90625,33.1367188 65.1230469,33.1425781 65.2226562,33.1425781 C65.8378906,33.1425781 66.1835938,32.9023438 66.3710938,32.3105469 L66.4472656,32.0292969 L64.15625,25.5898438 L65.75,25.5898438 L67.25,30.59375 L67.3496094,30.59375 L68.84375,25.5898438 L70.3789062,25.5898438 L68.0644531,32.2050781 C67.5195312,33.7988281 66.8339844,34.3320312 65.3984375,34.3320312 Z M75.1191406,25.484375 C76.7421875,25.484375 77.7617188,26.7382812 77.7617188,28.7949219 C77.7617188,30.8398438 76.7539062,32.1054688 75.1367188,32.1054688 C74.2167969,32.1054688 73.5078125,31.7070312 73.1796875,31.0273438 L73.0800781,31.0273438 L73.0800781,34.0507812 L71.6269531,34.0507812 L71.6269531,25.5898438 L73.0273438,25.5898438 L73.0273438,26.6503906 L73.1269531,26.6503906 C73.4960938,25.9238281 74.2402344,25.484375 75.1191406,25.484375 Z M74.6621094,30.8691406 C75.6699219,30.8691406 76.2675781,30.0898438 76.2675781,28.7949219 C76.2675781,27.5 75.6640625,26.7207031 74.6679688,26.7207031 C73.6777344,26.7207031 73.0566406,27.5175781 73.0507812,28.7949219 C73.0566406,30.078125 73.671875,30.8691406 74.6621094,30.8691406 Z M81.9101562,26.6152344 C81.0429688,26.6152344 80.4335938,27.2363281 80.3691406,28.1738281 L83.3867188,28.1738281 C83.3574219,27.2246094 82.7832031,26.6152344 81.9101562,26.6152344 Z M83.3984375,30.2363281 L84.7753906,30.2363281 C84.5,31.4023438 83.4394531,32.1289062 81.9277344,32.1289062 C80.0410156,32.1289062 78.9042969,30.8808594 78.9042969,28.8183594 C78.9042969,26.7558594 80.0585938,25.4609375 81.9160156,25.4609375 C83.7441406,25.4609375 84.8398438,26.6738281 84.8398438,28.6953125 L84.8398438,29.1640625 L80.3632812,29.1640625 L80.3632812,29.2402344 C80.3984375,30.3066406 81.0136719,30.9746094 81.96875,30.9746094 C82.6894531,30.9746094 83.1875,30.7109375 83.3984375,30.2363281 Z M86.7617188,32 L86.7617188,26.7910156 L85.71875,26.7910156 L85.71875,25.6308594 L86.7617188,25.6308594 L86.7617188,24.9921875 C86.7617188,23.6914062 87.4355469,23.1640625 88.8417969,23.1640625 C89.0996094,23.1640625 89.3515625,23.1875 89.609375,23.2285156 L89.609375,24.3125 C89.4804688,24.2832031 89.2636719,24.265625 89.0527344,24.265625 C88.484375,24.265625 88.1855469,24.5117188 88.1855469,25.0859375 L88.1855469,25.6308594 L89.5742188,25.6308594 L89.5742188,26.7910156 L88.2089844,26.7910156 L88.2089844,32 L86.7617188,32 Z M93.7578125,30.9101562 C94.7714844,30.9101562 95.3457031,30.1367188 95.3457031,28.7949219 C95.3457031,27.4589844 94.765625,26.6796875 93.7578125,26.6796875 C92.7441406,26.6796875 92.1640625,27.4589844 92.1640625,28.7949219 C92.1640625,30.1367188 92.7441406,30.9101562 93.7578125,30.9101562 Z M93.7578125,32.1289062 C91.8359375,32.1289062 90.6757812,30.875 90.6757812,28.7949219 C90.6757812,26.7265625 91.8535156,25.4609375 93.7578125,25.4609375 C95.6679688,25.4609375 96.8398438,26.7207031 96.8398438,28.7949219 C96.8398438,30.875 95.6738281,32.1289062 93.7578125,32.1289062 Z M98.3046875,32 L98.3046875,25.5898438 L99.7050781,25.5898438 L99.7050781,26.5859375 L99.8046875,26.5859375 C99.9804688,25.953125 100.666016,25.484375 101.486328,25.484375 C101.691406,25.484375 101.943359,25.5078125 102.083984,25.5488281 L102.083984,26.8964844 C101.972656,26.8554688 101.574219,26.8144531 101.345703,26.8144531 C100.414062,26.8144531 99.7578125,27.4003906 99.7578125,28.296875 L99.7578125,32 L98.3046875,32 Z M103.226562,32 L103.226562,25.5898438 L104.626953,25.5898438 L104.626953,26.6269531 L104.726562,26.6269531 C105.001953,25.8945312 105.658203,25.4609375 106.507812,25.4609375 C107.392578,25.4609375 108.007812,25.90625 108.277344,26.6269531 L108.376953,26.6269531 C108.693359,25.9238281 109.431641,25.4609375 110.322266,25.4609375 C111.605469,25.4609375 112.378906,26.2636719 112.378906,27.59375 L112.378906,32 L110.931641,32 L110.931641,27.9628906 C110.931641,27.1367188 110.539062,26.7265625 109.759766,26.7265625 C109.003906,26.7265625 108.505859,27.2773438 108.505859,28.0097656 L108.505859,32 L107.09375,32 L107.09375,27.8574219 C107.09375,27.1542969 106.648438,26.7265625 105.933594,26.7265625 C105.212891,26.7265625 104.679688,27.3183594 104.679688,28.1035156 L104.679688,32 L103.226562,32 Z M119.990234,26.6152344 C119.123047,26.6152344 118.513672,27.2363281 118.449219,28.1738281 L121.466797,28.1738281 C121.4375,27.2246094 120.863281,26.6152344 119.990234,26.6152344 Z M121.478516,30.2363281 L122.855469,30.2363281 C122.580078,31.4023438 121.519531,32.1289062 120.007812,32.1289062 C118.121094,32.1289062 116.984375,30.8808594 116.984375,28.8183594 C116.984375,26.7558594 118.138672,25.4609375 119.996094,25.4609375 C121.824219,25.4609375 122.919922,26.6738281 122.919922,28.6953125 L122.919922,29.1640625 L118.443359,29.1640625 L118.443359,29.2402344 C118.478516,30.3066406 119.09375,30.9746094 120.048828,30.9746094 C120.769531,30.9746094 121.267578,30.7109375 121.478516,30.2363281 Z M124.378906,32 L124.378906,25.5898438 L125.779297,25.5898438 L125.779297,26.6152344 L125.878906,26.6152344 C126.183594,25.9003906 126.933594,25.4609375 127.894531,25.4609375 C129.324219,25.4609375 130.126953,26.3222656 130.126953,27.8515625 L130.126953,32 L128.679688,32 L128.679688,28.1972656 C128.679688,27.21875 128.234375,26.7265625 127.355469,26.7265625 C126.417969,26.7265625 125.832031,27.3242188 125.832031,28.2675781 L125.832031,32 L124.378906,32 Z M132.3125,24.0605469 L133.759766,24.0605469 L133.759766,25.6308594 L135.166016,25.6308594 L135.166016,26.7910156 L133.759766,26.7910156 L133.759766,29.9375 C133.759766,30.5703125 134.029297,30.8515625 134.638672,30.8515625 C134.84375,30.8515625 134.949219,30.8398438 135.119141,30.8222656 L135.119141,31.9589844 C134.914062,32 134.650391,32.0292969 134.369141,32.0292969 C132.898438,32.0292969 132.3125,31.53125 132.3125,30.2890625 L132.3125,26.7910156 L131.269531,26.7910156 L131.269531,25.6308594 L132.3125,25.6308594 L132.3125,24.0605469 Z M136.583984,32 L136.583984,25.5898438 L137.984375,25.5898438 L137.984375,26.5859375 L138.083984,26.5859375 C138.259766,25.953125 138.945312,25.484375 139.765625,25.484375 C139.970703,25.484375 140.222656,25.5078125 140.363281,25.5488281 L140.363281,26.8964844 C140.251953,26.8554688 139.853516,26.8144531 139.625,26.8144531 C138.693359,26.8144531 138.037109,27.4003906 138.037109,28.296875 L138.037109,32 L136.583984,32 Z M142.208984,34.3320312 C142.121094,34.3320312 141.728516,34.3261719 141.634766,34.3085938 L141.634766,33.125 C141.716797,33.1367188 141.933594,33.1425781 142.033203,33.1425781 C142.648438,33.1425781 142.994141,32.9023438 143.181641,32.3105469 L143.257812,32.0292969 L140.966797,25.5898438 L142.560547,25.5898438 L144.060547,30.59375 L144.160156,30.59375 L145.654297,25.5898438 L147.189453,25.5898438 L144.875,32.2050781 C144.330078,33.7988281 143.644531,34.3320312 142.208984,34.3320312 Z" id="Typeform-entry" fill="#24124D" opacity="0.5"></path>
                <g id="typeform" transform="translate(20.500000, 16.000000)" fill-rule="nonzero">
                    <polygon id="Shape" fill="#89C6BE" points="12.7339754 0.0768353808 15.0768354 0.0768353808 15.0768354 23.9604324 12.7339754 23.9604324"></polygon>
                    <path d="M0.0240589681,5.51646192 L2.96007862,5.51646192 L2.96007862,0.0505945946 L6.85114496,0.0505945946 L6.85114496,5.51646192 L10.3670565,5.51646192 L10.3670565,8.51392629 L6.85114496,8.51392629 L6.85114496,18.2471351 C6.85114496,18.6699361 6.8682457,19.0348894 6.90244717,19.3401671 C6.93623587,19.6462113 7.01596069,19.9044914 7.14109091,20.1162457 C7.2662801,20.3276462 7.45362162,20.4863292 7.70470762,20.5921769 C7.95473219,20.6980835 8.29598034,20.750801 8.72862899,20.750801 C9.00153317,20.750801 9.27479115,20.7453759 9.54769533,20.7329926 C9.82089435,20.7217297 10.0937985,20.6802162 10.3670565,20.6100442 L10.3670565,23.7133563 C9.93446683,23.759941 9.51343489,23.8068796 9.10413759,23.8545258 C8.68479249,23.9015708 8.26313539,23.9250181 7.84115971,23.9247568 C6.81688452,23.9247568 5.99203931,23.8243342 5.36627027,23.625317 C4.74002948,23.4255332 4.25136118,23.1311646 3.89879115,22.7433317 C3.54545455,22.3554398 3.30675184,21.8674791 3.18162162,21.2795086 C3.05607862,20.6925995 2.98225061,20.0223686 2.96001966,19.2698771 L2.96001966,8.51398526 L0.0240589681,8.51398526 L0.0240589681,5.51646192" id="Shape" fill="#33393F"></path>
                </g>
                <rect id="Rectangle-9" fill="#DCD5EE" x="16" y="64" width="224" height="12" rx="4"></rect>
                <rect id="Rectangle-9" fill="#DCD5EE" x="16" y="92" width="136" height="12" rx="4"></rect>
                <rect id="Rectangle-9" fill="#009688" x="16" y="120" width="96" height="12" rx="4"></rect>
                <rect id="Rectangle-9" fill="#009688" x="168" y="92" width="72" height="12" rx="4"></rect>
            </g>
            <g id="Card" transform="translate(536.000000, 31.000000)">
                <g id="component/card" transform="translate(8.000000, 9.000000)">
                    <g id="Shadow">
                        <use fill="black" fill-opacity="1" filter="url(#filter-14)" xlink:href="#path-13"></use>
                        <use fill="#FFFFFF" fill-rule="evenodd" xlink:href="#path-13"></use>
                    </g>
                    <g id="Card" stroke-linecap="square">
                        <use fill="black" fill-opacity="1" filter="url(#filter-16)" xlink:href="#path-15"></use>
                        <rect stroke-opacity="0.098194067" stroke="#140B2F" stroke-width="1" fill="#FFFFFF" fill-rule="evenodd" x="-0.5" y="-0.5" width="257" height="149" rx="4"></rect>
                    </g>
                </g>
                <g id="zendesk" transform="translate(24.000000, 25.000000)" fill="#719C40" fill-rule="nonzero">
                    <path d="M21.1735312,14.2646324 C20.12325,14.8613123 18.9801562,15.1450435 17.8557188,15.1450435 C17.1227812,15.1450435 16.3973437,15.0220079 15.7846875,14.775083 C14.6645625,15.7973123 13.4592187,16.5133281 12.8524687,16.845913 C13.7314688,18.2568854 15.1289062,19.3414387 16.8557812,19.7767589 C17.3778628,19.9086249 17.9139616,19.9751774 18.4520625,19.9749249 C19.6329375,19.9749249 20.7692812,19.6476522 21.7350938,19.1215494 C21.8780367,18.562117 21.9500524,17.9865546 21.9494063,17.4087273 C21.9494063,16.3415336 21.6972188,15.2629565 21.1735312,14.2646324 M19.8049688,5.85011858 C19.6062188,7.19222134 19.0320938,8.38558103 18.2280937,9.27348617 C18.2702813,9.50912253 18.29925,9.76733597 18.29925,10.037502 C18.2955,11.6069881 17.4951563,12.9722372 16.4952187,14.0710198 C16.781625,14.1070672 17.0700938,14.1272727 17.3564062,14.1272727 C18.7821562,14.1272727 20.218875,13.6650119 21.434625,12.7065296 C22.8388125,11.5919051 23.6836875,10.0194783 23.9277188,8.41631621 C22.9819688,7.1576917 21.5925937,6.25470356 20.0445937,5.86074308 C19.9644375,5.8433834 19.8910312,5.81113043 19.8094687,5.79690119 L19.8049687,5.85021344 M18.7494375,4.70257708 C18.7494375,2.89527273 18.0463125,1.25748617 16.9455,0.0716205534 L16.849875,0.0716205534 C15.2699062,0.0716205534 13.8857812,0.639841897 12.6306562,1.78890119 C13.8300937,3.07911462 14.2610625,4.7153834 14.2610625,6.35079842 C14.2610625,6.48294071 14.2566562,6.61356522 14.2529062,6.7403004 C14.518465,6.67253872 14.7912839,6.63825502 15.0651562,6.63822925 L15.1364062,6.63822925 C16.168125,6.65928854 17.2080937,7.17799209 17.8045312,8.15506719 C18.402375,7.14488538 18.7495312,5.9666087 18.7495312,4.70257708 M6.82940625,0.190956522 C6.7306875,0.190956522 6.6365625,0.190956522 6.60159375,0.171509881 C5.52253125,1.37075099 4.8740625,2.95532016 4.8740625,4.68161265 C4.8740625,4.70627668 4.8740625,4.72733597 4.86525,4.74090119 C4.94015625,4.74090119 5.0158125,4.73862451 5.09296875,4.73862451 C6.91096875,4.73862451 8.57475,5.47114625 9.753375,6.65027668 C10.7429062,6.72085375 11.7554062,7.25226877 12.28875,8.30675099 C12.5750625,7.74004743 13.000125,7.32578656 13.4488125,7.1141502 C13.4488125,7.03901976 13.4518125,6.96028458 13.4518125,6.88297233 C13.4518125,5.03506719 12.696,3.19171542 11.2258125,1.8744664 C9.961875,0.74115415 8.3923125,0.190956522 6.82940625,0.190956522 M8.683125,6.74485375 C7.68984375,6.1586087 6.549,5.82991304 5.3510625,5.82991304 C4.96678125,5.82991304 4.5751875,5.86368379 4.188,5.93501976 C2.42775,6.25470356 0.95615625,7.24543874 0,8.5484585 C0.2596875,10.1606324 1.1015625,11.6782292 2.461125,12.75083 C3.45440625,11.4028458 4.8459375,10.5321107 6.28425,10.2529328 C6.28425,10.1846324 6.28125,10.1080791 6.28125,10.0360791 C6.27825,8.20999209 7.39978125,7.07886166 8.683125,6.74485375 M2.85871875,14.2804743 C2.33278125,15.2816443 2.08209375,16.3527273 2.08209375,17.4117628 C2.08209375,18.045249 2.17040625,18.6703874 2.30690625,19.227415 C3.28145731,19.767525 4.37490519,20.0501726 5.4860625,20.0492016 C6.01790625,20.0492016 6.55715625,19.9846957 7.10090625,19.8502767 C6.93403125,19.2416443 6.853125,18.6344348 6.853125,18.0317787 C6.853125,16.5981344 7.30265625,15.2223557 8.09925,14.0830672 C7.33153125,13.2446798 6.68025,12.2524269 6.4125,11.1303083 C4.93640625,11.6835415 3.65090625,12.7650593 2.85871875,14.2803794 M12.0454688,23.9655652 C13.5312188,23.3155731 14.78625,22.1222134 15.4827188,20.5235099 C13.7886562,19.8135652 12.5371875,18.4805692 11.9038125,16.941913 C11.3623125,16.6589407 9.96478125,15.8671304 8.6911875,14.6819289 C8.20693381,15.6323642 7.95416354,16.6861369 7.9539375,17.7554466 C7.9539375,18.6659289 8.132625,19.5920632 8.53021875,20.4777866 C9.26015625,22.1327431 10.570125,23.3359684 12.0454688,23.9655652" id="Shape"></path>
                </g>
                <path d="M64.8085938,41 L64.8085938,39.96875 L69.2558594,33.9511719 L69.2558594,33.8515625 L64.9316406,33.8515625 L64.9316406,32.5449219 L71.125,32.5449219 L71.125,33.5761719 L66.6953125,39.59375 L66.6953125,39.6933594 L71.2363281,39.6933594 L71.2363281,41 L64.8085938,41 Z M75.625,35.6152344 C74.7578125,35.6152344 74.1484375,36.2363281 74.0839844,37.1738281 L77.1015625,37.1738281 C77.0722656,36.2246094 76.4980469,35.6152344 75.625,35.6152344 Z M77.1132812,39.2363281 L78.4902344,39.2363281 C78.2148438,40.4023438 77.1542969,41.1289062 75.6425781,41.1289062 C73.7558594,41.1289062 72.6191406,39.8808594 72.6191406,37.8183594 C72.6191406,35.7558594 73.7734375,34.4609375 75.6308594,34.4609375 C77.4589844,34.4609375 78.5546875,35.6738281 78.5546875,37.6953125 L78.5546875,38.1640625 L74.078125,38.1640625 L74.078125,38.2402344 C74.1132812,39.3066406 74.7285156,39.9746094 75.6835938,39.9746094 C76.4042969,39.9746094 76.9023438,39.7109375 77.1132812,39.2363281 Z M80.0136719,41 L80.0136719,34.5898438 L81.4140625,34.5898438 L81.4140625,35.6152344 L81.5136719,35.6152344 C81.8183594,34.9003906 82.5683594,34.4609375 83.5292969,34.4609375 C84.9589844,34.4609375 85.7617188,35.3222656 85.7617188,36.8515625 L85.7617188,41 L84.3144531,41 L84.3144531,37.1972656 C84.3144531,36.21875 83.8691406,35.7265625 82.9902344,35.7265625 C82.0527344,35.7265625 81.4667969,36.3242188 81.4667969,37.2675781 L81.4667969,41 L80.0136719,41 Z M89.8046875,41.1054688 C88.1816406,41.1054688 87.1679688,39.828125 87.1679688,37.7890625 C87.1679688,35.7617188 88.1875,34.484375 89.8046875,34.484375 C90.6835938,34.484375 91.4101562,34.90625 91.75,35.609375 L91.8496094,35.609375 L91.8496094,32.1113281 L93.3027344,32.1113281 L93.3027344,41 L91.8964844,41 L91.8964844,39.9863281 L91.796875,39.9863281 C91.4335938,40.6894531 90.6953125,41.1054688 89.8046875,41.1054688 Z M90.2558594,35.7207031 C89.265625,35.7207031 88.65625,36.5058594 88.65625,37.7949219 C88.65625,39.0898438 89.2597656,39.8691406 90.2558594,39.8691406 C91.2578125,39.8691406 91.8671875,39.0839844 91.8671875,37.7949219 C91.8671875,36.5175781 91.2519531,35.7207031 90.2558594,35.7207031 Z M97.8261719,35.6152344 C96.9589844,35.6152344 96.3496094,36.2363281 96.2851562,37.1738281 L99.3027344,37.1738281 C99.2734375,36.2246094 98.6992188,35.6152344 97.8261719,35.6152344 Z M99.3144531,39.2363281 L100.691406,39.2363281 C100.416016,40.4023438 99.3554688,41.1289062 97.84375,41.1289062 C95.9570312,41.1289062 94.8203125,39.8808594 94.8203125,37.8183594 C94.8203125,35.7558594 95.9746094,34.4609375 97.8320312,34.4609375 C99.6601562,34.4609375 100.755859,35.6738281 100.755859,37.6953125 L100.755859,38.1640625 L96.2792969,38.1640625 L96.2792969,38.2402344 C96.3144531,39.3066406 96.9296875,39.9746094 97.8847656,39.9746094 C98.6054688,39.9746094 99.1035156,39.7109375 99.3144531,39.2363281 Z M102.068359,36.4238281 C102.068359,35.2636719 103.123047,34.4609375 104.634766,34.4609375 C106.158203,34.4609375 107.113281,35.1347656 107.21875,36.3007812 L105.853516,36.3007812 C105.748047,35.8496094 105.320312,35.5625 104.640625,35.5625 C103.978516,35.5625 103.480469,35.8789062 103.480469,36.3417969 C103.480469,36.7050781 103.785156,36.9277344 104.429688,37.0742188 L105.560547,37.3320312 C106.785156,37.6074219 107.353516,38.1347656 107.353516,39.078125 C107.353516,40.3085938 106.222656,41.1289062 104.623047,41.1289062 C103.023438,41.1289062 102.015625,40.4375 101.904297,39.2714844 L103.339844,39.2714844 C103.480469,39.7460938 103.931641,40.0273438 104.658203,40.0273438 C105.390625,40.0273438 105.900391,39.7050781 105.900391,39.2304688 C105.900391,38.8671875 105.625,38.6386719 105.015625,38.5039062 L103.878906,38.2402344 C102.648438,37.9589844 102.068359,37.390625 102.068359,36.4238281 Z M110.435547,37.203125 L112.802734,34.5898438 L114.490234,34.5898438 L111.935547,37.3378906 L114.666016,41 L112.908203,41 L110.851562,38.2519531 L110.335938,38.7675781 L110.335938,41 L108.882812,41 L108.882812,32.1113281 L110.335938,32.1113281 L110.335938,37.203125 L110.435547,37.203125 Z M119.447266,33.0605469 L120.894531,33.0605469 L120.894531,34.6308594 L122.300781,34.6308594 L122.300781,35.7910156 L120.894531,35.7910156 L120.894531,38.9375 C120.894531,39.5703125 121.164062,39.8515625 121.773438,39.8515625 C121.978516,39.8515625 122.083984,39.8398438 122.253906,39.8222656 L122.253906,40.9589844 C122.048828,41 121.785156,41.0292969 121.503906,41.0292969 C120.033203,41.0292969 119.447266,40.53125 119.447266,39.2890625 L119.447266,35.7910156 L118.404297,35.7910156 L118.404297,34.6308594 L119.447266,34.6308594 L119.447266,33.0605469 Z M123.736328,41 L123.736328,34.5898438 L125.183594,34.5898438 L125.183594,41 L123.736328,41 Z M124.457031,33.546875 C123.929688,33.546875 123.560547,33.2070312 123.560547,32.7441406 C123.560547,32.28125 123.929688,31.9414062 124.457031,31.9414062 C124.990234,31.9414062 125.353516,32.28125 125.353516,32.7441406 C125.353516,33.2070312 124.990234,33.546875 124.457031,33.546875 Z M132.519531,36.7460938 L131.136719,36.7460938 C131.001953,36.125 130.521484,35.6796875 129.724609,35.6796875 C128.728516,35.6796875 128.136719,36.4472656 128.136719,37.7773438 C128.136719,39.125 128.734375,39.9101562 129.724609,39.9101562 C130.480469,39.9101562 130.984375,39.5527344 131.136719,38.8847656 L132.519531,38.8847656 C132.361328,40.2265625 131.353516,41.1289062 129.730469,41.1289062 C127.802734,41.1289062 126.666016,39.8867188 126.666016,37.7773438 C126.666016,35.6972656 127.796875,34.4609375 129.724609,34.4609375 C131.371094,34.4609375 132.367188,35.3984375 132.519531,36.7460938 Z M135.519531,37.203125 L137.886719,34.5898438 L139.574219,34.5898438 L137.019531,37.3378906 L139.75,41 L137.992188,41 L135.935547,38.2519531 L135.419922,38.7675781 L135.419922,41 L133.966797,41 L133.966797,32.1113281 L135.419922,32.1113281 L135.419922,37.203125 L135.519531,37.203125 Z M143.558594,35.6152344 C142.691406,35.6152344 142.082031,36.2363281 142.017578,37.1738281 L145.035156,37.1738281 C145.005859,36.2246094 144.431641,35.6152344 143.558594,35.6152344 Z M145.046875,39.2363281 L146.423828,39.2363281 C146.148438,40.4023438 145.087891,41.1289062 143.576172,41.1289062 C141.689453,41.1289062 140.552734,39.8808594 140.552734,37.8183594 C140.552734,35.7558594 141.707031,34.4609375 143.564453,34.4609375 C145.392578,34.4609375 146.488281,35.6738281 146.488281,37.6953125 L146.488281,38.1640625 L142.011719,38.1640625 L142.011719,38.2402344 C142.046875,39.3066406 142.662109,39.9746094 143.617188,39.9746094 C144.337891,39.9746094 144.835938,39.7109375 145.046875,39.2363281 Z M148.410156,33.0605469 L149.857422,33.0605469 L149.857422,34.6308594 L151.263672,34.6308594 L151.263672,35.7910156 L149.857422,35.7910156 L149.857422,38.9375 C149.857422,39.5703125 150.126953,39.8515625 150.736328,39.8515625 C150.941406,39.8515625 151.046875,39.8398438 151.216797,39.8222656 L151.216797,40.9589844 C151.011719,41 150.748047,41.0292969 150.466797,41.0292969 C148.996094,41.0292969 148.410156,40.53125 148.410156,39.2890625 L148.410156,35.7910156 L147.367188,35.7910156 L147.367188,34.6308594 L148.410156,34.6308594 L148.410156,33.0605469 Z" id="Zendesk-ticket" fill="#24124D" opacity="0.5"></path>
                <rect id="Rectangle-9" fill="#DCD5EE" x="24" y="73" width="224" height="12" rx="4"></rect>
                <rect id="Rectangle-9" fill="#5182F8" x="24" y="101" width="136" height="12" rx="4"></rect>
                <rect id="Rectangle-9" fill="#DCD5EE" x="24" y="129" width="224" height="12" rx="4"></rect>
                <rect id="Rectangle-9" fill="#DCD5EE" x="176" y="101" width="72" height="12" rx="4"></rect>
                <rect id="Rectangle-12" fill-opacity="0.1" fill="#5182F8" fill-rule="nonzero" x="7" y="8" width="258" height="150" rx="4"></rect>
                <g id="Checkbox">
                    <g id="Oval" fill-rule="nonzero">
                        <use fill="black" fill-opacity="1" filter="url(#filter-18)" xlink:href="#path-17"></use>
                        <use fill="#5182F8" xlink:href="#path-17"></use>
                    </g>
                    <g id="check" transform="translate(6.666667, 8.666667)" stroke="#FFFFFF" stroke-linecap="round" stroke-linejoin="round" stroke-width="2">
                        <polyline id="Shape" points="10.6666667 0 3.33333333 7.33333333 0 4"></polyline>
                    </g>
                </g>
            </g>
            <g id="Card" transform="translate(272.000000, 164.000000)">
                <g id="component/card">
                    <g id="Shadow">
                        <use fill="black" fill-opacity="1" filter="url(#filter-20)" xlink:href="#path-19"></use>
                        <use fill="#FFFFFF" fill-rule="evenodd" xlink:href="#path-19"></use>
                    </g>
                    <g id="Card" stroke-linecap="square">
                        <use fill="black" fill-opacity="1" filter="url(#filter-22)" xlink:href="#path-21"></use>
                        <rect stroke-opacity="0.098194067" stroke="#140B2F" stroke-width="1" fill="#FFFFFF" fill-rule="evenodd" x="-0.5" y="-0.5" width="257" height="149" rx="4"></rect>
                    </g>
                </g>
                <path d="M56.8085938,32 L56.8085938,30.96875 L61.2558594,24.9511719 L61.2558594,24.8515625 L56.9316406,24.8515625 L56.9316406,23.5449219 L63.125,23.5449219 L63.125,24.5761719 L58.6953125,30.59375 L58.6953125,30.6933594 L63.2363281,30.6933594 L63.2363281,32 L56.8085938,32 Z M67.625,26.6152344 C66.7578125,26.6152344 66.1484375,27.2363281 66.0839844,28.1738281 L69.1015625,28.1738281 C69.0722656,27.2246094 68.4980469,26.6152344 67.625,26.6152344 Z M69.1132812,30.2363281 L70.4902344,30.2363281 C70.2148438,31.4023438 69.1542969,32.1289062 67.6425781,32.1289062 C65.7558594,32.1289062 64.6191406,30.8808594 64.6191406,28.8183594 C64.6191406,26.7558594 65.7734375,25.4609375 67.6308594,25.4609375 C69.4589844,25.4609375 70.5546875,26.6738281 70.5546875,28.6953125 L70.5546875,29.1640625 L66.078125,29.1640625 L66.078125,29.2402344 C66.1132812,30.3066406 66.7285156,30.9746094 67.6835938,30.9746094 C68.4042969,30.9746094 68.9023438,30.7109375 69.1132812,30.2363281 Z M72.0136719,32 L72.0136719,25.5898438 L73.4140625,25.5898438 L73.4140625,26.6152344 L73.5136719,26.6152344 C73.8183594,25.9003906 74.5683594,25.4609375 75.5292969,25.4609375 C76.9589844,25.4609375 77.7617188,26.3222656 77.7617188,27.8515625 L77.7617188,32 L76.3144531,32 L76.3144531,28.1972656 C76.3144531,27.21875 75.8691406,26.7265625 74.9902344,26.7265625 C74.0527344,26.7265625 73.4667969,27.3242188 73.4667969,28.2675781 L73.4667969,32 L72.0136719,32 Z M81.8046875,32.1054688 C80.1816406,32.1054688 79.1679688,30.828125 79.1679688,28.7890625 C79.1679688,26.7617188 80.1875,25.484375 81.8046875,25.484375 C82.6835938,25.484375 83.4101562,25.90625 83.75,26.609375 L83.8496094,26.609375 L83.8496094,23.1113281 L85.3027344,23.1113281 L85.3027344,32 L83.8964844,32 L83.8964844,30.9863281 L83.796875,30.9863281 C83.4335938,31.6894531 82.6953125,32.1054688 81.8046875,32.1054688 Z M82.2558594,26.7207031 C81.265625,26.7207031 80.65625,27.5058594 80.65625,28.7949219 C80.65625,30.0898438 81.2597656,30.8691406 82.2558594,30.8691406 C83.2578125,30.8691406 83.8671875,30.0839844 83.8671875,28.7949219 C83.8671875,27.5175781 83.2519531,26.7207031 82.2558594,26.7207031 Z M89.8261719,26.6152344 C88.9589844,26.6152344 88.3496094,27.2363281 88.2851562,28.1738281 L91.3027344,28.1738281 C91.2734375,27.2246094 90.6992188,26.6152344 89.8261719,26.6152344 Z M91.3144531,30.2363281 L92.6914062,30.2363281 C92.4160156,31.4023438 91.3554688,32.1289062 89.84375,32.1289062 C87.9570312,32.1289062 86.8203125,30.8808594 86.8203125,28.8183594 C86.8203125,26.7558594 87.9746094,25.4609375 89.8320312,25.4609375 C91.6601562,25.4609375 92.7558594,26.6738281 92.7558594,28.6953125 L92.7558594,29.1640625 L88.2792969,29.1640625 L88.2792969,29.2402344 C88.3144531,30.3066406 88.9296875,30.9746094 89.8847656,30.9746094 C90.6054688,30.9746094 91.1035156,30.7109375 91.3144531,30.2363281 Z M94.0683594,27.4238281 C94.0683594,26.2636719 95.1230469,25.4609375 96.6347656,25.4609375 C98.1582031,25.4609375 99.1132812,26.1347656 99.21875,27.3007812 L97.8535156,27.3007812 C97.7480469,26.8496094 97.3203125,26.5625 96.640625,26.5625 C95.9785156,26.5625 95.4804688,26.8789062 95.4804688,27.3417969 C95.4804688,27.7050781 95.7851562,27.9277344 96.4296875,28.0742188 L97.5605469,28.3320312 C98.7851562,28.6074219 99.3535156,29.1347656 99.3535156,30.078125 C99.3535156,31.3085938 98.2226562,32.1289062 96.6230469,32.1289062 C95.0234375,32.1289062 94.015625,31.4375 93.9042969,30.2714844 L95.3398438,30.2714844 C95.4804688,30.7460938 95.9316406,31.0273438 96.6582031,31.0273438 C97.390625,31.0273438 97.9003906,30.7050781 97.9003906,30.2304688 C97.9003906,29.8671875 97.625,29.6386719 97.015625,29.5039062 L95.8789062,29.2402344 C94.6484375,28.9589844 94.0683594,28.390625 94.0683594,27.4238281 Z M102.435547,28.203125 L104.802734,25.5898438 L106.490234,25.5898438 L103.935547,28.3378906 L106.666016,32 L104.908203,32 L102.851562,29.2519531 L102.335938,29.7675781 L102.335938,32 L100.882812,32 L100.882812,23.1113281 L102.335938,23.1113281 L102.335938,28.203125 L102.435547,28.203125 Z M111.447266,24.0605469 L112.894531,24.0605469 L112.894531,25.6308594 L114.300781,25.6308594 L114.300781,26.7910156 L112.894531,26.7910156 L112.894531,29.9375 C112.894531,30.5703125 113.164062,30.8515625 113.773438,30.8515625 C113.978516,30.8515625 114.083984,30.8398438 114.253906,30.8222656 L114.253906,31.9589844 C114.048828,32 113.785156,32.0292969 113.503906,32.0292969 C112.033203,32.0292969 111.447266,31.53125 111.447266,30.2890625 L111.447266,26.7910156 L110.404297,26.7910156 L110.404297,25.6308594 L111.447266,25.6308594 L111.447266,24.0605469 Z M115.736328,32 L115.736328,25.5898438 L117.183594,25.5898438 L117.183594,32 L115.736328,32 Z M116.457031,24.546875 C115.929688,24.546875 115.560547,24.2070312 115.560547,23.7441406 C115.560547,23.28125 115.929688,22.9414062 116.457031,22.9414062 C116.990234,22.9414062 117.353516,23.28125 117.353516,23.7441406 C117.353516,24.2070312 116.990234,24.546875 116.457031,24.546875 Z M124.519531,27.7460938 L123.136719,27.7460938 C123.001953,27.125 122.521484,26.6796875 121.724609,26.6796875 C120.728516,26.6796875 120.136719,27.4472656 120.136719,28.7773438 C120.136719,30.125 120.734375,30.9101562 121.724609,30.9101562 C122.480469,30.9101562 122.984375,30.5527344 123.136719,29.8847656 L124.519531,29.8847656 C124.361328,31.2265625 123.353516,32.1289062 121.730469,32.1289062 C119.802734,32.1289062 118.666016,30.8867188 118.666016,28.7773438 C118.666016,26.6972656 119.796875,25.4609375 121.724609,25.4609375 C123.371094,25.4609375 124.367188,26.3984375 124.519531,27.7460938 Z M127.519531,28.203125 L129.886719,25.5898438 L131.574219,25.5898438 L129.019531,28.3378906 L131.75,32 L129.992188,32 L127.935547,29.2519531 L127.419922,29.7675781 L127.419922,32 L125.966797,32 L125.966797,23.1113281 L127.419922,23.1113281 L127.419922,28.203125 L127.519531,28.203125 Z M135.558594,26.6152344 C134.691406,26.6152344 134.082031,27.2363281 134.017578,28.1738281 L137.035156,28.1738281 C137.005859,27.2246094 136.431641,26.6152344 135.558594,26.6152344 Z M137.046875,30.2363281 L138.423828,30.2363281 C138.148438,31.4023438 137.087891,32.1289062 135.576172,32.1289062 C133.689453,32.1289062 132.552734,30.8808594 132.552734,28.8183594 C132.552734,26.7558594 133.707031,25.4609375 135.564453,25.4609375 C137.392578,25.4609375 138.488281,26.6738281 138.488281,28.6953125 L138.488281,29.1640625 L134.011719,29.1640625 L134.011719,29.2402344 C134.046875,30.3066406 134.662109,30.9746094 135.617188,30.9746094 C136.337891,30.9746094 136.835938,30.7109375 137.046875,30.2363281 Z M140.410156,24.0605469 L141.857422,24.0605469 L141.857422,25.6308594 L143.263672,25.6308594 L143.263672,26.7910156 L141.857422,26.7910156 L141.857422,29.9375 C141.857422,30.5703125 142.126953,30.8515625 142.736328,30.8515625 C142.941406,30.8515625 143.046875,30.8398438 143.216797,30.8222656 L143.216797,31.9589844 C143.011719,32 142.748047,32.0292969 142.466797,32.0292969 C140.996094,32.0292969 140.410156,31.53125 140.410156,30.2890625 L140.410156,26.7910156 L139.367188,26.7910156 L139.367188,25.6308594 L140.410156,25.6308594 L140.410156,24.0605469 Z" id="Zendesk-ticket" fill="#24124D" opacity="0.5"></path>
                <g id="zendesk" transform="translate(16.000000, 16.000000)" fill="#719C40" fill-rule="nonzero">
                    <path d="M21.1735312,14.2646324 C20.12325,14.8613123 18.9801562,15.1450435 17.8557188,15.1450435 C17.1227812,15.1450435 16.3973437,15.0220079 15.7846875,14.775083 C14.6645625,15.7973123 13.4592187,16.5133281 12.8524687,16.845913 C13.7314688,18.2568854 15.1289062,19.3414387 16.8557812,19.7767589 C17.3778628,19.9086249 17.9139616,19.9751774 18.4520625,19.9749249 C19.6329375,19.9749249 20.7692812,19.6476522 21.7350938,19.1215494 C21.8780367,18.562117 21.9500524,17.9865546 21.9494063,17.4087273 C21.9494063,16.3415336 21.6972188,15.2629565 21.1735312,14.2646324 M19.8049688,5.85011858 C19.6062188,7.19222134 19.0320938,8.38558103 18.2280937,9.27348617 C18.2702813,9.50912253 18.29925,9.76733597 18.29925,10.037502 C18.2955,11.6069881 17.4951563,12.9722372 16.4952187,14.0710198 C16.781625,14.1070672 17.0700938,14.1272727 17.3564062,14.1272727 C18.7821562,14.1272727 20.218875,13.6650119 21.434625,12.7065296 C22.8388125,11.5919051 23.6836875,10.0194783 23.9277188,8.41631621 C22.9819688,7.1576917 21.5925937,6.25470356 20.0445937,5.86074308 C19.9644375,5.8433834 19.8910312,5.81113043 19.8094687,5.79690119 L19.8049687,5.85021344 M18.7494375,4.70257708 C18.7494375,2.89527273 18.0463125,1.25748617 16.9455,0.0716205534 L16.849875,0.0716205534 C15.2699062,0.0716205534 13.8857812,0.639841897 12.6306562,1.78890119 C13.8300937,3.07911462 14.2610625,4.7153834 14.2610625,6.35079842 C14.2610625,6.48294071 14.2566562,6.61356522 14.2529062,6.7403004 C14.518465,6.67253872 14.7912839,6.63825502 15.0651562,6.63822925 L15.1364062,6.63822925 C16.168125,6.65928854 17.2080937,7.17799209 17.8045312,8.15506719 C18.402375,7.14488538 18.7495312,5.9666087 18.7495312,4.70257708 M6.82940625,0.190956522 C6.7306875,0.190956522 6.6365625,0.190956522 6.60159375,0.171509881 C5.52253125,1.37075099 4.8740625,2.95532016 4.8740625,4.68161265 C4.8740625,4.70627668 4.8740625,4.72733597 4.86525,4.74090119 C4.94015625,4.74090119 5.0158125,4.73862451 5.09296875,4.73862451 C6.91096875,4.73862451 8.57475,5.47114625 9.753375,6.65027668 C10.7429062,6.72085375 11.7554062,7.25226877 12.28875,8.30675099 C12.5750625,7.74004743 13.000125,7.32578656 13.4488125,7.1141502 C13.4488125,7.03901976 13.4518125,6.96028458 13.4518125,6.88297233 C13.4518125,5.03506719 12.696,3.19171542 11.2258125,1.8744664 C9.961875,0.74115415 8.3923125,0.190956522 6.82940625,0.190956522 M8.683125,6.74485375 C7.68984375,6.1586087 6.549,5.82991304 5.3510625,5.82991304 C4.96678125,5.82991304 4.5751875,5.86368379 4.188,5.93501976 C2.42775,6.25470356 0.95615625,7.24543874 0,8.5484585 C0.2596875,10.1606324 1.1015625,11.6782292 2.461125,12.75083 C3.45440625,11.4028458 4.8459375,10.5321107 6.28425,10.2529328 C6.28425,10.1846324 6.28125,10.1080791 6.28125,10.0360791 C6.27825,8.20999209 7.39978125,7.07886166 8.683125,6.74485375 M2.85871875,14.2804743 C2.33278125,15.2816443 2.08209375,16.3527273 2.08209375,17.4117628 C2.08209375,18.045249 2.17040625,18.6703874 2.30690625,19.227415 C3.28145731,19.767525 4.37490519,20.0501726 5.4860625,20.0492016 C6.01790625,20.0492016 6.55715625,19.9846957 7.10090625,19.8502767 C6.93403125,19.2416443 6.853125,18.6344348 6.853125,18.0317787 C6.853125,16.5981344 7.30265625,15.2223557 8.09925,14.0830672 C7.33153125,13.2446798 6.68025,12.2524269 6.4125,11.1303083 C4.93640625,11.6835415 3.65090625,12.7650593 2.85871875,14.2803794 M12.0454688,23.9655652 C13.5312188,23.3155731 14.78625,22.1222134 15.4827188,20.5235099 C13.7886562,19.8135652 12.5371875,18.4805692 11.9038125,16.941913 C11.3623125,16.6589407 9.96478125,15.8671304 8.6911875,14.6819289 C8.20693381,15.6323642 7.95416354,16.6861369 7.9539375,17.7554466 C7.9539375,18.6659289 8.132625,19.5920632 8.53021875,20.4777866 C9.26015625,22.1327431 10.570125,23.3359684 12.0454688,23.9655652" id="Shape"></path>
                </g>
                <rect id="Rectangle-9" fill="#DCD5EE" x="16" y="64" width="224" height="12" rx="4"></rect>
                <rect id="Rectangle-9" fill="#DCD5EE" x="16" y="92" width="136" height="12" rx="4"></rect>
                <rect id="Rectangle-9" fill="#5182F8" x="168" y="92" width="72" height="12" rx="4"></rect>
                <rect id="Rectangle-9" fill="#5182F8" x="16" y="120" width="96" height="12" rx="4"></rect>
            </g>
            <g id="Card" transform="translate(264.000000, 319.000000)">
                <g id="component/card" transform="translate(8.000000, 9.000000)">
                    <g id="Shadow">
                        <use fill="black" fill-opacity="1" filter="url(#filter-24)" xlink:href="#path-23"></use>
                        <use fill="#FFFFFF" fill-rule="evenodd" xlink:href="#path-23"></use>
                    </g>
                    <g id="Card" stroke-linecap="square">
                        <use fill="black" fill-opacity="1" filter="url(#filter-26)" xlink:href="#path-25"></use>
                        <rect stroke-opacity="0.098194067" stroke="#140B2F" stroke-width="1" fill="#FFFFFF" fill-rule="evenodd" x="-0.5" y="-0.5" width="257" height="177" rx="4"></rect>
                    </g>
                </g>
                <rect id="Rectangle-9" fill="#DCD5EE" x="24" y="129" width="72" height="12" rx="4"></rect>
                <rect id="Rectangle-9" fill="#DCD5EE" x="112" y="129" width="136" height="12" rx="4"></rect>
                <rect id="Rectangle-9" fill="#DCD5EE" x="24" y="157" width="120" height="12" rx="4"></rect>
                <g id="slack" transform="translate(24.000000, 25.000000)" fill-rule="nonzero">
                    <path d="M15.559125,1.4848125 C15.1944375,0.36215625 13.988625,-0.2521875 12.8661563,0.1126875 C11.7435,0.477375 11.1291563,1.6831875 11.4940313,2.80565625 L17.0203125,19.808625 C17.3998125,20.8574063 18.5326875,21.4467187 19.6201875,21.1337812 C20.7545625,20.80725 21.4459688,19.6024687 21.084,18.4884375 L15.559125,1.4848125" id="Shape" fill="#DFA22F"></path>
                    <path d="M6.9961875,4.267125 C6.6313125,3.1445625 5.42559375,2.53021875 4.303125,2.89490625 C3.180375,3.2596875 2.5659375,4.46540625 2.93090625,5.5880625 L8.45728125,22.591125 C8.8366875,23.6398125 9.96965625,24.2292188 11.0571562,23.916 C12.1914375,23.5896563 12.8828437,22.384875 12.520875,21.2706563 L6.9961875,4.267125" id="Shape" fill="#3CB187"></path>
                    <path d="M22.5151875,15.5667187 C23.6378438,15.2020313 24.252,13.9964062 23.8873125,12.8736562 C23.522625,11.7511875 22.3168125,11.13675 21.1943438,11.5015312 L4.191375,17.028 C3.14259375,17.4073125 2.55328125,18.5401875 2.86621875,19.6276875 C3.19275,20.7619688 4.39753125,21.4534687 5.5115625,21.0915 L22.5151875,15.5668125" id="Shape" fill="#CE1E5B"></path>
                    <polyline id="Shape" fill="#392538" points="7.735125 20.3690625 11.7989062 19.0486875 10.4783438 14.9844375 6.41428125 16.305375 7.735125 20.3691563"></polyline>
                    <path d="M16.2981563,17.5866562 C17.8345313,17.087625 19.2625313,16.6235625 20.3620313,16.2662812 L19.0412813,12.2012812 L14.9772188,13.5222187 L16.2981563,17.5866562" id="Shape" fill="#BB242A"></path>
                    <path d="M19.732875,7.0036875 C20.8554375,6.639 21.4697813,5.43328125 21.1050938,4.31053125 C20.7404062,3.1880625 19.5345937,2.57371875 18.4119375,2.93840625 L1.408875,8.46496875 C0.3601875,8.84409375 -0.22921875,9.9770625 0.084,11.0645625 C0.41034375,12.19875 1.615125,12.89025 2.72934375,12.5282813 L19.732875,7.00359375" id="Shape" fill="#72C5CD"></path>
                    <path d="M4.9520625,11.8062187 C6.05878125,11.4465937 7.48565625,10.9829062 9.0165,10.4856562 C8.51746875,8.94909375 8.05340625,7.52109375 7.696125,6.42140625 L3.631125,7.74253125 L4.9520625,11.8062187" id="Shape" fill="#248C73"></path>
                    <path d="M13.515,9.024 L17.579625,7.70325 C17.1394003,6.34823162 16.6991191,4.99323162 16.2587812,3.63825 L12.1940625,4.959375 L13.515,9.024" id="Shape" fill="#62803A"></path>
                </g>
                <path d="M64.65625,38.703125 L66.1328125,38.703125 C66.2265625,39.4589844 66.9765625,39.9453125 68.0488281,39.9453125 C69.0449219,39.9453125 69.765625,39.4355469 69.765625,38.7265625 C69.765625,38.1171875 69.3027344,37.7597656 68.21875,37.5078125 L67.1230469,37.2558594 C65.5878906,36.9101562 64.8671875,36.1484375 64.8671875,34.8886719 C64.8671875,33.3535156 66.1210938,32.3339844 68.0136719,32.3339844 C69.7890625,32.3339844 71.0722656,33.3535156 71.1425781,34.8066406 L69.6953125,34.8066406 C69.5898438,34.0625 68.9335938,33.59375 68.0078125,33.59375 C67.0351562,33.59375 66.390625,34.0625 66.390625,34.7832031 C66.390625,35.3515625 66.8183594,35.6855469 67.8671875,35.9257812 L68.8398438,36.1484375 C70.5566406,36.5351562 71.2773438,37.25 71.2773438,38.5390625 C71.2773438,40.1855469 70.0058594,41.2109375 67.9550781,41.2109375 C66.015625,41.2109375 64.7324219,40.2382812 64.65625,38.703125 Z M72.8828125,41 L72.8828125,32.1113281 L74.3359375,32.1113281 L74.3359375,41 L72.8828125,41 Z M78.3613281,39.9628906 C79.2402344,39.9628906 79.8964844,39.3945312 79.8964844,38.6503906 L79.8964844,38.140625 L78.4492188,38.234375 C77.6347656,38.2871094 77.2539062,38.5800781 77.2539062,39.1015625 C77.2539062,39.640625 77.7167969,39.9628906 78.3613281,39.9628906 Z M77.9335938,41.1054688 C76.6972656,41.1054688 75.8125,40.3554688 75.8125,39.1835938 C75.8125,38.0234375 76.6855469,37.3554688 78.2441406,37.2617188 L79.8964844,37.1621094 L79.8964844,36.6230469 C79.8964844,35.9960938 79.4746094,35.6445312 78.6894531,35.6445312 C78.0214844,35.6445312 77.5644531,35.8789062 77.4296875,36.3125 L76.0585938,36.3125 C76.1757812,35.1816406 77.2363281,34.4609375 78.7597656,34.4609375 C80.40625,34.4609375 81.3320312,35.2636719 81.3320312,36.6230469 L81.3320312,41 L79.9316406,41 L79.9316406,40.1210938 L79.8320312,40.1210938 C79.4746094,40.7421875 78.7714844,41.1054688 77.9335938,41.1054688 Z M88.6152344,36.7460938 L87.2324219,36.7460938 C87.0976562,36.125 86.6171875,35.6796875 85.8203125,35.6796875 C84.8242188,35.6796875 84.2324219,36.4472656 84.2324219,37.7773438 C84.2324219,39.125 84.8300781,39.9101562 85.8203125,39.9101562 C86.5761719,39.9101562 87.0800781,39.5527344 87.2324219,38.8847656 L88.6152344,38.8847656 C88.4570312,40.2265625 87.4492188,41.1289062 85.8261719,41.1289062 C83.8984375,41.1289062 82.7617188,39.8867188 82.7617188,37.7773438 C82.7617188,35.6972656 83.8925781,34.4609375 85.8203125,34.4609375 C87.4667969,34.4609375 88.4628906,35.3984375 88.6152344,36.7460938 Z M91.6152344,37.203125 L93.9824219,34.5898438 L95.6699219,34.5898438 L93.1152344,37.3378906 L95.8457031,41 L94.0878906,41 L92.03125,38.2519531 L91.515625,38.7675781 L91.515625,41 L90.0625,41 L90.0625,32.1113281 L91.515625,32.1113281 L91.515625,37.203125 L91.6152344,37.203125 Z M100.164062,41 L100.164062,34.5898438 L101.564453,34.5898438 L101.564453,35.6269531 L101.664062,35.6269531 C101.939453,34.8945312 102.595703,34.4609375 103.445312,34.4609375 C104.330078,34.4609375 104.945312,34.90625 105.214844,35.6269531 L105.314453,35.6269531 C105.630859,34.9238281 106.369141,34.4609375 107.259766,34.4609375 C108.542969,34.4609375 109.316406,35.2636719 109.316406,36.59375 L109.316406,41 L107.869141,41 L107.869141,36.9628906 C107.869141,36.1367188 107.476562,35.7265625 106.697266,35.7265625 C105.941406,35.7265625 105.443359,36.2773438 105.443359,37.0097656 L105.443359,41 L104.03125,41 L104.03125,36.8574219 C104.03125,36.1542969 103.585938,35.7265625 102.871094,35.7265625 C102.150391,35.7265625 101.617188,36.3183594 101.617188,37.1035156 L101.617188,41 L100.164062,41 Z M113.728516,35.6152344 C112.861328,35.6152344 112.251953,36.2363281 112.1875,37.1738281 L115.205078,37.1738281 C115.175781,36.2246094 114.601562,35.6152344 113.728516,35.6152344 Z M115.216797,39.2363281 L116.59375,39.2363281 C116.318359,40.4023438 115.257812,41.1289062 113.746094,41.1289062 C111.859375,41.1289062 110.722656,39.8808594 110.722656,37.8183594 C110.722656,35.7558594 111.876953,34.4609375 113.734375,34.4609375 C115.5625,34.4609375 116.658203,35.6738281 116.658203,37.6953125 L116.658203,38.1640625 L112.181641,38.1640625 L112.181641,38.2402344 C112.216797,39.3066406 112.832031,39.9746094 113.787109,39.9746094 C114.507812,39.9746094 115.005859,39.7109375 115.216797,39.2363281 Z M117.970703,36.4238281 C117.970703,35.2636719 119.025391,34.4609375 120.537109,34.4609375 C122.060547,34.4609375 123.015625,35.1347656 123.121094,36.3007812 L121.755859,36.3007812 C121.650391,35.8496094 121.222656,35.5625 120.542969,35.5625 C119.880859,35.5625 119.382812,35.8789062 119.382812,36.3417969 C119.382812,36.7050781 119.6875,36.9277344 120.332031,37.0742188 L121.462891,37.3320312 C122.6875,37.6074219 123.255859,38.1347656 123.255859,39.078125 C123.255859,40.3085938 122.125,41.1289062 120.525391,41.1289062 C118.925781,41.1289062 117.917969,40.4375 117.806641,39.2714844 L119.242188,39.2714844 C119.382812,39.7460938 119.833984,40.0273438 120.560547,40.0273438 C121.292969,40.0273438 121.802734,39.7050781 121.802734,39.2304688 C121.802734,38.8671875 121.527344,38.6386719 120.917969,38.5039062 L119.78125,38.2402344 C118.550781,37.9589844 117.970703,37.390625 117.970703,36.4238281 Z M124.580078,36.4238281 C124.580078,35.2636719 125.634766,34.4609375 127.146484,34.4609375 C128.669922,34.4609375 129.625,35.1347656 129.730469,36.3007812 L128.365234,36.3007812 C128.259766,35.8496094 127.832031,35.5625 127.152344,35.5625 C126.490234,35.5625 125.992188,35.8789062 125.992188,36.3417969 C125.992188,36.7050781 126.296875,36.9277344 126.941406,37.0742188 L128.072266,37.3320312 C129.296875,37.6074219 129.865234,38.1347656 129.865234,39.078125 C129.865234,40.3085938 128.734375,41.1289062 127.134766,41.1289062 C125.535156,41.1289062 124.527344,40.4375 124.416016,39.2714844 L125.851562,39.2714844 C125.992188,39.7460938 126.443359,40.0273438 127.169922,40.0273438 C127.902344,40.0273438 128.412109,39.7050781 128.412109,39.2304688 C128.412109,38.8671875 128.136719,38.6386719 127.527344,38.5039062 L126.390625,38.2402344 C125.160156,37.9589844 124.580078,37.390625 124.580078,36.4238281 Z M133.527344,39.9628906 C134.40625,39.9628906 135.0625,39.3945312 135.0625,38.6503906 L135.0625,38.140625 L133.615234,38.234375 C132.800781,38.2871094 132.419922,38.5800781 132.419922,39.1015625 C132.419922,39.640625 132.882812,39.9628906 133.527344,39.9628906 Z M133.099609,41.1054688 C131.863281,41.1054688 130.978516,40.3554688 130.978516,39.1835938 C130.978516,38.0234375 131.851562,37.3554688 133.410156,37.2617188 L135.0625,37.1621094 L135.0625,36.6230469 C135.0625,35.9960938 134.640625,35.6445312 133.855469,35.6445312 C133.1875,35.6445312 132.730469,35.8789062 132.595703,36.3125 L131.224609,36.3125 C131.341797,35.1816406 132.402344,34.4609375 133.925781,34.4609375 C135.572266,34.4609375 136.498047,35.2636719 136.498047,36.6230469 L136.498047,41 L135.097656,41 L135.097656,40.1210938 L134.998047,40.1210938 C134.640625,40.7421875 133.9375,41.1054688 133.099609,41.1054688 Z M142.621094,37.7246094 C142.621094,36.5 142.005859,35.7207031 140.998047,35.7207031 C139.984375,35.7207031 139.410156,36.5 139.410156,37.7246094 C139.410156,38.9492188 139.984375,39.7226562 140.998047,39.7226562 C142.011719,39.7226562 142.621094,38.9492188 142.621094,37.7246094 Z M140.998047,43.4375 C139.351562,43.4375 138.273438,42.7109375 138.15625,41.609375 L139.615234,41.609375 C139.708984,42.0488281 140.224609,42.3300781 141.021484,42.3300781 C142.017578,42.3300781 142.597656,41.8613281 142.597656,41.0585938 L142.597656,39.8457031 L142.498047,39.8457031 C142.128906,40.53125 141.431641,40.90625 140.541016,40.90625 C138.923828,40.90625 137.916016,39.6523438 137.916016,37.7246094 C137.916016,35.7617188 138.929688,34.484375 140.564453,34.484375 C141.4375,34.484375 142.199219,34.9179688 142.550781,35.6152344 L142.650391,35.6152344 L142.650391,34.5898438 L144.050781,34.5898438 L144.050781,41.0234375 C144.050781,42.5058594 142.867188,43.4375 140.998047,43.4375 Z M148.521484,35.6152344 C147.654297,35.6152344 147.044922,36.2363281 146.980469,37.1738281 L149.998047,37.1738281 C149.96875,36.2246094 149.394531,35.6152344 148.521484,35.6152344 Z M150.009766,39.2363281 L151.386719,39.2363281 C151.111328,40.4023438 150.050781,41.1289062 148.539062,41.1289062 C146.652344,41.1289062 145.515625,39.8808594 145.515625,37.8183594 C145.515625,35.7558594 146.669922,34.4609375 148.527344,34.4609375 C150.355469,34.4609375 151.451172,35.6738281 151.451172,37.6953125 L151.451172,38.1640625 L146.974609,38.1640625 L146.974609,38.2402344 C147.009766,39.3066406 147.625,39.9746094 148.580078,39.9746094 C149.300781,39.9746094 149.798828,39.7109375 150.009766,39.2363281 Z" id="Slack-message" fill="#24124D" opacity="0.5"></path>
                <rect id="Rectangle-9" fill="#5182F8" x="24" y="73" width="224" height="12" rx="4"></rect>
                <rect id="Rectangle-9" fill="#DCD5EE" x="24" y="101" width="136" height="12" rx="4"></rect>
                <rect id="Rectangle-12" fill-opacity="0.1" fill="#5182F8" fill-rule="nonzero" x="7" y="8" width="258" height="178" rx="4"></rect>
                <g id="Checkbox">
                    <g id="Oval" fill-rule="nonzero">
                        <use fill="black" fill-opacity="1" filter="url(#filter-28)" xlink:href="#path-27"></use>
                        <use fill="#5182F8" xlink:href="#path-27"></use>
                    </g>
                    <g id="check" transform="translate(6.666667, 8.666667)" stroke="#FFFFFF" stroke-linecap="round" stroke-linejoin="round" stroke-width="2">
                        <polyline id="Shape" points="10.6666667 0 3.33333333 7.33333333 0 4"></polyline>
                    </g>
                </g>
            </g>
            <g id="Card" transform="translate(544.000000, 204.000000)">
                <g id="component/card">
                    <g id="Shadow">
                        <use fill="black" fill-opacity="1" filter="url(#filter-30)" xlink:href="#path-29"></use>
                        <use fill="#FFFFFF" fill-rule="evenodd" xlink:href="#path-29"></use>
                    </g>
                    <g id="Card" stroke-linecap="square">
                        <use fill="black" fill-opacity="1" filter="url(#filter-32)" xlink:href="#path-31"></use>
                        <rect stroke-opacity="0.098194067" stroke="#140B2F" stroke-width="1" fill="#FFFFFF" fill-rule="evenodd" x="-0.5" y="-0.5" width="257" height="149" rx="4"></rect>
                    </g>
                </g>
                <g id="intercom" transform="translate(16.000000, 16.000000)" fill="#1F8DED" fill-rule="nonzero">
                    <path d="M20.8000313,13.195125 C20.7952848,13.6335832 20.4384995,13.986527 20.0000156,13.986527 C19.5615317,13.986527 19.2047465,13.6335832 19.2,13.195125 L19.2,6 C19.2047465,5.56154178 19.5615317,5.20859797 20.0000156,5.20859797 C20.4384995,5.20859797 20.7952848,5.56154178 20.8000312,6 L20.8000312,13.195125 Z M20.5208437,18.2025937 C20.3971875,18.3084375 17.4336562,20.79525 12,20.79525 C6.5664375,20.79525 3.603,18.3083437 3.47934375,18.2025 C3.14394656,17.9148998 3.10512546,17.4098898 3.392625,17.0744062 C3.67947459,16.7394938 4.18329687,16.6999865 4.51884375,16.9860937 C4.5658125,17.0254687 7.2121875,19.195125 12.0000937,19.195125 C16.8480938,19.195125 19.4535,17.0098125 19.4792812,16.9877812 C19.8140625,16.70025 20.3200312,16.738875 20.607375,17.0745 C20.8949738,17.4099162 20.8562337,17.9149643 20.5208437,18.2025937 Z M3.19996875,6 C3.20471522,5.56154178 3.56150047,5.20859797 3.99998438,5.20859797 C4.43846828,5.20859797 4.79525353,5.56154178 4.8,6 L4.8,13.195125 C4.79525353,13.6335832 4.43846828,13.986527 3.99998438,13.986527 C3.56150047,13.986527 3.20471522,13.6335832 3.19996875,13.195125 L3.19996875,6 Z M7.20009375,4.39996875 C7.20678479,3.96293326 7.56297579,3.61215382 8.0000625,3.61215382 C8.43714921,3.61215382 8.79334021,3.96293326 8.80003125,4.39996875 L8.80003125,15.0875625 C8.79334021,15.524598 8.43714921,15.8753774 8.0000625,15.8753774 C7.56297579,15.8753774 7.20678479,15.524598 7.20009375,15.0875625 L7.20009375,4.4000625 L7.20009375,4.39996875 Z M11.2000313,3.99515625 C11.2000064,3.78298372 11.2842806,3.57949409 11.4343092,3.42946546 C11.5843378,3.27943682 11.7878275,3.19516263 12,3.1951875 C12.2121888,3.19513776 12.4157025,3.27940097 12.5657514,3.4294323 C12.7158003,3.57946363 12.8000874,3.78296748 12.8000625,3.99515625 L12.8000625,15.595125 C12.795316,16.0335832 12.4385308,16.386527 12.0000469,16.386527 C11.561563,16.386527 11.2047777,16.0335832 11.2000313,15.595125 L11.2000313,3.99515625 Z M15.2000625,4.39996875 C15.2067535,3.96293326 15.5629445,3.61215382 16.0000313,3.61215382 C16.437118,3.61215382 16.793309,3.96293326 16.8,4.39996875 L16.8,15.0875625 C16.793309,15.524598 16.437118,15.8753774 16.0000313,15.8753774 C15.5629445,15.8753774 15.2067535,15.524598 15.2000625,15.0875625 L15.2000625,4.4000625 L15.2000625,4.39996875 Z M21,0 L3,0 C1.34315625,0 0,1.34315625 0,3 L0,21 C0,22.65675 1.34315625,24 3,24 L21,24 C22.6568438,24 24,22.65675 24,21 L24,3 C24,1.34315625 22.6568438,0 21,0 Z" id="Shape"></path>
                </g>
                <path d="M58.5546875,32 L57.0429688,32 L57.0429688,23.5449219 L58.5546875,23.5449219 L58.5546875,32 Z M60.4882812,32 L60.4882812,25.5898438 L61.8886719,25.5898438 L61.8886719,26.6152344 L61.9882812,26.6152344 C62.2929688,25.9003906 63.0429688,25.4609375 64.0039062,25.4609375 C65.4335938,25.4609375 66.2363281,26.3222656 66.2363281,27.8515625 L66.2363281,32 L64.7890625,32 L64.7890625,28.1972656 C64.7890625,27.21875 64.34375,26.7265625 63.4648438,26.7265625 C62.5273438,26.7265625 61.9414062,27.3242188 61.9414062,28.2675781 L61.9414062,32 L60.4882812,32 Z M68.421875,24.0605469 L69.8691406,24.0605469 L69.8691406,25.6308594 L71.2753906,25.6308594 L71.2753906,26.7910156 L69.8691406,26.7910156 L69.8691406,29.9375 C69.8691406,30.5703125 70.1386719,30.8515625 70.7480469,30.8515625 C70.953125,30.8515625 71.0585938,30.8398438 71.2285156,30.8222656 L71.2285156,31.9589844 C71.0234375,32 70.7597656,32.0292969 70.4785156,32.0292969 C69.0078125,32.0292969 68.421875,31.53125 68.421875,30.2890625 L68.421875,26.7910156 L67.3789062,26.7910156 L67.3789062,25.6308594 L68.421875,25.6308594 L68.421875,24.0605469 Z M75.3828125,26.6152344 C74.515625,26.6152344 73.90625,27.2363281 73.8417969,28.1738281 L76.859375,28.1738281 C76.8300781,27.2246094 76.2558594,26.6152344 75.3828125,26.6152344 Z M76.8710938,30.2363281 L78.2480469,30.2363281 C77.9726562,31.4023438 76.9121094,32.1289062 75.4003906,32.1289062 C73.5136719,32.1289062 72.3769531,30.8808594 72.3769531,28.8183594 C72.3769531,26.7558594 73.53125,25.4609375 75.3886719,25.4609375 C77.2167969,25.4609375 78.3125,26.6738281 78.3125,28.6953125 L78.3125,29.1640625 L73.8359375,29.1640625 L73.8359375,29.2402344 C73.8710938,30.3066406 74.4863281,30.9746094 75.4414062,30.9746094 C76.1621094,30.9746094 76.6601562,30.7109375 76.8710938,30.2363281 Z M79.7714844,32 L79.7714844,25.5898438 L81.171875,25.5898438 L81.171875,26.5859375 L81.2714844,26.5859375 C81.4472656,25.953125 82.1328125,25.484375 82.953125,25.484375 C83.1582031,25.484375 83.4101562,25.5078125 83.5507812,25.5488281 L83.5507812,26.8964844 C83.4394531,26.8554688 83.0410156,26.8144531 82.8125,26.8144531 C81.8808594,26.8144531 81.2246094,27.4003906 81.2246094,28.296875 L81.2246094,32 L79.7714844,32 Z M90.2304688,27.7460938 L88.8476562,27.7460938 C88.7128906,27.125 88.2324219,26.6796875 87.4355469,26.6796875 C86.4394531,26.6796875 85.8476562,27.4472656 85.8476562,28.7773438 C85.8476562,30.125 86.4453125,30.9101562 87.4355469,30.9101562 C88.1914062,30.9101562 88.6953125,30.5527344 88.8476562,29.8847656 L90.2304688,29.8847656 C90.0722656,31.2265625 89.0644531,32.1289062 87.4414062,32.1289062 C85.5136719,32.1289062 84.3769531,30.8867188 84.3769531,28.7773438 C84.3769531,26.6972656 85.5078125,25.4609375 87.4355469,25.4609375 C89.0820312,25.4609375 90.078125,26.3984375 90.2304688,27.7460938 Z M94.3847656,30.9101562 C95.3984375,30.9101562 95.9726562,30.1367188 95.9726562,28.7949219 C95.9726562,27.4589844 95.3925781,26.6796875 94.3847656,26.6796875 C93.3710938,26.6796875 92.7910156,27.4589844 92.7910156,28.7949219 C92.7910156,30.1367188 93.3710938,30.9101562 94.3847656,30.9101562 Z M94.3847656,32.1289062 C92.4628906,32.1289062 91.3027344,30.875 91.3027344,28.7949219 C91.3027344,26.7265625 92.4804688,25.4609375 94.3847656,25.4609375 C96.2949219,25.4609375 97.4667969,26.7207031 97.4667969,28.7949219 C97.4667969,30.875 96.3007812,32.1289062 94.3847656,32.1289062 Z M98.9316406,32 L98.9316406,25.5898438 L100.332031,25.5898438 L100.332031,26.6269531 L100.431641,26.6269531 C100.707031,25.8945312 101.363281,25.4609375 102.212891,25.4609375 C103.097656,25.4609375 103.712891,25.90625 103.982422,26.6269531 L104.082031,26.6269531 C104.398438,25.9238281 105.136719,25.4609375 106.027344,25.4609375 C107.310547,25.4609375 108.083984,26.2636719 108.083984,27.59375 L108.083984,32 L106.636719,32 L106.636719,27.9628906 C106.636719,27.1367188 106.244141,26.7265625 105.464844,26.7265625 C104.708984,26.7265625 104.210938,27.2773438 104.210938,28.0097656 L104.210938,32 L102.798828,32 L102.798828,27.8574219 C102.798828,27.1542969 102.353516,26.7265625 101.638672,26.7265625 C100.917969,26.7265625 100.384766,27.3183594 100.384766,28.1035156 L100.384766,32 L98.9316406,32 Z M118.542969,27.7460938 L117.160156,27.7460938 C117.025391,27.125 116.544922,26.6796875 115.748047,26.6796875 C114.751953,26.6796875 114.160156,27.4472656 114.160156,28.7773438 C114.160156,30.125 114.757812,30.9101562 115.748047,30.9101562 C116.503906,30.9101562 117.007812,30.5527344 117.160156,29.8847656 L118.542969,29.8847656 C118.384766,31.2265625 117.376953,32.1289062 115.753906,32.1289062 C113.826172,32.1289062 112.689453,30.8867188 112.689453,28.7773438 C112.689453,26.6972656 113.820312,25.4609375 115.748047,25.4609375 C117.394531,25.4609375 118.390625,26.3984375 118.542969,27.7460938 Z M122.697266,30.9101562 C123.710938,30.9101562 124.285156,30.1367188 124.285156,28.7949219 C124.285156,27.4589844 123.705078,26.6796875 122.697266,26.6796875 C121.683594,26.6796875 121.103516,27.4589844 121.103516,28.7949219 C121.103516,30.1367188 121.683594,30.9101562 122.697266,30.9101562 Z M122.697266,32.1289062 C120.775391,32.1289062 119.615234,30.875 119.615234,28.7949219 C119.615234,26.7265625 120.792969,25.4609375 122.697266,25.4609375 C124.607422,25.4609375 125.779297,26.7207031 125.779297,28.7949219 C125.779297,30.875 124.613281,32.1289062 122.697266,32.1289062 Z M127.244141,32 L127.244141,25.5898438 L128.644531,25.5898438 L128.644531,26.6152344 L128.744141,26.6152344 C129.048828,25.9003906 129.798828,25.4609375 130.759766,25.4609375 C132.189453,25.4609375 132.992188,26.3222656 132.992188,27.8515625 L132.992188,32 L131.544922,32 L131.544922,28.1972656 C131.544922,27.21875 131.099609,26.7265625 130.220703,26.7265625 C129.283203,26.7265625 128.697266,27.3242188 128.697266,28.2675781 L128.697266,32 L127.244141,32 Z M134.158203,25.5898438 L135.716797,25.5898438 L137.199219,30.546875 L137.298828,30.546875 L138.769531,25.5898438 L140.304688,25.5898438 L138.037109,32 L136.4375,32 L134.158203,25.5898438 Z M144.21875,26.6152344 C143.351562,26.6152344 142.742188,27.2363281 142.677734,28.1738281 L145.695312,28.1738281 C145.666016,27.2246094 145.091797,26.6152344 144.21875,26.6152344 Z M145.707031,30.2363281 L147.083984,30.2363281 C146.808594,31.4023438 145.748047,32.1289062 144.236328,32.1289062 C142.349609,32.1289062 141.212891,30.8808594 141.212891,28.8183594 C141.212891,26.7558594 142.367188,25.4609375 144.224609,25.4609375 C146.052734,25.4609375 147.148438,26.6738281 147.148438,28.6953125 L147.148438,29.1640625 L142.671875,29.1640625 L142.671875,29.2402344 C142.707031,30.3066406 143.322266,30.9746094 144.277344,30.9746094 C144.998047,30.9746094 145.496094,30.7109375 145.707031,30.2363281 Z M148.607422,32 L148.607422,25.5898438 L150.007812,25.5898438 L150.007812,26.5859375 L150.107422,26.5859375 C150.283203,25.953125 150.96875,25.484375 151.789062,25.484375 C151.994141,25.484375 152.246094,25.5078125 152.386719,25.5488281 L152.386719,26.8964844 C152.275391,26.8554688 151.876953,26.8144531 151.648438,26.8144531 C150.716797,26.8144531 150.060547,27.4003906 150.060547,28.296875 L150.060547,32 L148.607422,32 Z M153.382812,27.4238281 C153.382812,26.2636719 154.4375,25.4609375 155.949219,25.4609375 C157.472656,25.4609375 158.427734,26.1347656 158.533203,27.3007812 L157.167969,27.3007812 C157.0625,26.8496094 156.634766,26.5625 155.955078,26.5625 C155.292969,26.5625 154.794922,26.8789062 154.794922,27.3417969 C154.794922,27.7050781 155.099609,27.9277344 155.744141,28.0742188 L156.875,28.3320312 C158.099609,28.6074219 158.667969,29.1347656 158.667969,30.078125 C158.667969,31.3085938 157.537109,32.1289062 155.9375,32.1289062 C154.337891,32.1289062 153.330078,31.4375 153.21875,30.2714844 L154.654297,30.2714844 C154.794922,30.7460938 155.246094,31.0273438 155.972656,31.0273438 C156.705078,31.0273438 157.214844,30.7050781 157.214844,30.2304688 C157.214844,29.8671875 156.939453,29.6386719 156.330078,29.5039062 L155.193359,29.2402344 C153.962891,28.9589844 153.382812,28.390625 153.382812,27.4238281 Z M162.330078,30.9628906 C163.208984,30.9628906 163.865234,30.3945312 163.865234,29.6503906 L163.865234,29.140625 L162.417969,29.234375 C161.603516,29.2871094 161.222656,29.5800781 161.222656,30.1015625 C161.222656,30.640625 161.685547,30.9628906 162.330078,30.9628906 Z M161.902344,32.1054688 C160.666016,32.1054688 159.78125,31.3554688 159.78125,30.1835938 C159.78125,29.0234375 160.654297,28.3554688 162.212891,28.2617188 L163.865234,28.1621094 L163.865234,27.6230469 C163.865234,26.9960938 163.443359,26.6445312 162.658203,26.6445312 C161.990234,26.6445312 161.533203,26.8789062 161.398438,27.3125 L160.027344,27.3125 C160.144531,26.1816406 161.205078,25.4609375 162.728516,25.4609375 C164.375,25.4609375 165.300781,26.2636719 165.300781,27.6230469 L165.300781,32 L163.900391,32 L163.900391,31.1210938 L163.800781,31.1210938 C163.443359,31.7421875 162.740234,32.1054688 161.902344,32.1054688 Z M167.509766,24.0605469 L168.957031,24.0605469 L168.957031,25.6308594 L170.363281,25.6308594 L170.363281,26.7910156 L168.957031,26.7910156 L168.957031,29.9375 C168.957031,30.5703125 169.226562,30.8515625 169.835938,30.8515625 C170.041016,30.8515625 170.146484,30.8398438 170.316406,30.8222656 L170.316406,31.9589844 C170.111328,32 169.847656,32.0292969 169.566406,32.0292969 C168.095703,32.0292969 167.509766,31.53125 167.509766,30.2890625 L167.509766,26.7910156 L166.466797,26.7910156 L166.466797,25.6308594 L167.509766,25.6308594 L167.509766,24.0605469 Z M171.798828,32 L171.798828,25.5898438 L173.246094,25.5898438 L173.246094,32 L171.798828,32 Z M172.519531,24.546875 C171.992188,24.546875 171.623047,24.2070312 171.623047,23.7441406 C171.623047,23.28125 171.992188,22.9414062 172.519531,22.9414062 C173.052734,22.9414062 173.416016,23.28125 173.416016,23.7441406 C173.416016,24.2070312 173.052734,24.546875 172.519531,24.546875 Z M177.810547,30.9101562 C178.824219,30.9101562 179.398438,30.1367188 179.398438,28.7949219 C179.398438,27.4589844 178.818359,26.6796875 177.810547,26.6796875 C176.796875,26.6796875 176.216797,27.4589844 176.216797,28.7949219 C176.216797,30.1367188 176.796875,30.9101562 177.810547,30.9101562 Z M177.810547,32.1289062 C175.888672,32.1289062 174.728516,30.875 174.728516,28.7949219 C174.728516,26.7265625 175.90625,25.4609375 177.810547,25.4609375 C179.720703,25.4609375 180.892578,26.7207031 180.892578,28.7949219 C180.892578,30.875 179.726562,32.1289062 177.810547,32.1289062 Z M182.357422,32 L182.357422,25.5898438 L183.757812,25.5898438 L183.757812,26.6152344 L183.857422,26.6152344 C184.162109,25.9003906 184.912109,25.4609375 185.873047,25.4609375 C187.302734,25.4609375 188.105469,26.3222656 188.105469,27.8515625 L188.105469,32 L186.658203,32 L186.658203,28.1972656 C186.658203,27.21875 186.212891,26.7265625 185.333984,26.7265625 C184.396484,26.7265625 183.810547,27.3242188 183.810547,28.2675781 L183.810547,32 L182.357422,32 Z" id="Intercom-conversatio" fill="#24124D" opacity="0.5"></path>
                <rect id="Rectangle-9" fill="#DCD5EE" x="16" y="120" width="96" height="12" rx="4"></rect>
                <rect id="Rectangle-9" fill="#DCD5EE" x="128" y="120" width="112" height="12" rx="4"></rect>
                <rect id="Rectangle-9" fill="#F84F77" x="16" y="92" width="136" height="12" rx="4"></rect>
                <rect id="Rectangle-9" fill="#F84F77" x="16" y="64" width="224" height="12" rx="4"></rect>
            </g>
        </g>
    </g>
</svg>