<?xml version="1.0" encoding="UTF-8"?>
<svg width="832px" height="536px" viewBox="0 0 832 536" version="1.1" xmlns="http://www.w3.org/2000/svg" xmlns:xlink="http://www.w3.org/1999/xlink">
    <!-- Generator: Sketch 49.3 (51167) - http://www.bohemiancoding.com/sketch -->
    <title>snippet/highlights-feedback</title>
    <desc>Created with Sketch.</desc>
    <defs>
        <rect id="path-1" x="2" y="2" width="276" height="212" rx="3"></rect>
        <filter x="-2.5%" y="-2.4%" width="105.1%" height="106.6%" filterUnits="objectBoundingBox" id="filter-2">
            <feOffset dx="0" dy="2" in="SourceAlpha" result="shadowOffsetOuter1"></feOffset>
            <feGaussianBlur stdDeviation="2" in="shadowOffsetOuter1" result="shadowBlurOuter1"></feGaussianBlur>
            <feColorMatrix values="0 0 0 0 0   0 0 0 0 0   0 0 0 0 0  0 0 0 0.2 0" type="matrix" in="shadowBlurOuter1"></feColorMatrix>
        </filter>
        <rect id="path-3" x="0" y="0" width="280" height="216" rx="3"></rect>
        <filter x="-1.6%" y="-1.6%" width="103.2%" height="104.2%" filterUnits="objectBoundingBox" id="filter-4">
            <feMorphology radius="1" operator="dilate" in="SourceAlpha" result="shadowSpreadOuter1"></feMorphology>
            <feOffset dx="0" dy="1" in="shadowSpreadOuter1" result="shadowOffsetOuter1"></feOffset>
            <feGaussianBlur stdDeviation="1" in="shadowOffsetOuter1" result="shadowBlurOuter1"></feGaussianBlur>
            <feComposite in="shadowBlurOuter1" in2="SourceAlpha" operator="out" result="shadowBlurOuter1"></feComposite>
            <feColorMatrix values="0 0 0 0 0   0 0 0 0 0   0 0 0 0 0  0 0 0 0.04 0" type="matrix" in="shadowBlurOuter1"></feColorMatrix>
        </filter>
        <rect id="path-5" x="2" y="2" width="276" height="132" rx="3"></rect>
        <filter x="-2.5%" y="-3.8%" width="105.1%" height="110.6%" filterUnits="objectBoundingBox" id="filter-6">
            <feOffset dx="0" dy="2" in="SourceAlpha" result="shadowOffsetOuter1"></feOffset>
            <feGaussianBlur stdDeviation="2" in="shadowOffsetOuter1" result="shadowBlurOuter1"></feGaussianBlur>
            <feColorMatrix values="0 0 0 0 0   0 0 0 0 0   0 0 0 0 0  0 0 0 0.2 0" type="matrix" in="shadowBlurOuter1"></feColorMatrix>
        </filter>
        <rect id="path-7" x="0" y="0" width="280" height="136" rx="3"></rect>
        <filter x="-1.6%" y="-2.6%" width="103.2%" height="106.6%" filterUnits="objectBoundingBox" id="filter-8">
            <feMorphology radius="1" operator="dilate" in="SourceAlpha" result="shadowSpreadOuter1"></feMorphology>
            <feOffset dx="0" dy="1" in="shadowSpreadOuter1" result="shadowOffsetOuter1"></feOffset>
            <feGaussianBlur stdDeviation="1" in="shadowOffsetOuter1" result="shadowBlurOuter1"></feGaussianBlur>
            <feComposite in="shadowBlurOuter1" in2="SourceAlpha" operator="out" result="shadowBlurOuter1"></feComposite>
            <feColorMatrix values="0 0 0 0 0   0 0 0 0 0   0 0 0 0 0  0 0 0 0.04 0" type="matrix" in="shadowBlurOuter1"></feColorMatrix>
        </filter>
        <rect id="path-9" x="2" y="2" width="244" height="164" rx="3"></rect>
        <filter x="-2.9%" y="-3.0%" width="105.7%" height="108.5%" filterUnits="objectBoundingBox" id="filter-10">
            <feOffset dx="0" dy="2" in="SourceAlpha" result="shadowOffsetOuter1"></feOffset>
            <feGaussianBlur stdDeviation="2" in="shadowOffsetOuter1" result="shadowBlurOuter1"></feGaussianBlur>
            <feColorMatrix values="0 0 0 0 0   0 0 0 0 0   0 0 0 0 0  0 0 0 0.2 0" type="matrix" in="shadowBlurOuter1"></feColorMatrix>
        </filter>
        <rect id="path-11" x="0" y="0" width="248" height="168" rx="3"></rect>
        <filter x="-1.8%" y="-2.1%" width="103.6%" height="105.4%" filterUnits="objectBoundingBox" id="filter-12">
            <feMorphology radius="1" operator="dilate" in="SourceAlpha" result="shadowSpreadOuter1"></feMorphology>
            <feOffset dx="0" dy="1" in="shadowSpreadOuter1" result="shadowOffsetOuter1"></feOffset>
            <feGaussianBlur stdDeviation="1" in="shadowOffsetOuter1" result="shadowBlurOuter1"></feGaussianBlur>
            <feComposite in="shadowBlurOuter1" in2="SourceAlpha" operator="out" result="shadowBlurOuter1"></feComposite>
            <feColorMatrix values="0 0 0 0 0   0 0 0 0 0   0 0 0 0 0  0 0 0 0.04 0" type="matrix" in="shadowBlurOuter1"></feColorMatrix>
        </filter>
        <rect id="path-13" x="2" y="2" width="236" height="164" rx="3"></rect>
        <filter x="-3.0%" y="-3.0%" width="105.9%" height="108.5%" filterUnits="objectBoundingBox" id="filter-14">
            <feOffset dx="0" dy="2" in="SourceAlpha" result="shadowOffsetOuter1"></feOffset>
            <feGaussianBlur stdDeviation="2" in="shadowOffsetOuter1" result="shadowBlurOuter1"></feGaussianBlur>
            <feColorMatrix values="0 0 0 0 0   0 0 0 0 0   0 0 0 0 0  0 0 0 0.2 0" type="matrix" in="shadowBlurOuter1"></feColorMatrix>
        </filter>
        <rect id="path-15" x="0" y="0" width="240" height="168" rx="3"></rect>
        <filter x="-1.9%" y="-2.1%" width="103.8%" height="105.4%" filterUnits="objectBoundingBox" id="filter-16">
            <feMorphology radius="1" operator="dilate" in="SourceAlpha" result="shadowSpreadOuter1"></feMorphology>
            <feOffset dx="0" dy="1" in="shadowSpreadOuter1" result="shadowOffsetOuter1"></feOffset>
            <feGaussianBlur stdDeviation="1" in="shadowOffsetOuter1" result="shadowBlurOuter1"></feGaussianBlur>
            <feComposite in="shadowBlurOuter1" in2="SourceAlpha" operator="out" result="shadowBlurOuter1"></feComposite>
            <feColorMatrix values="0 0 0 0 0   0 0 0 0 0   0 0 0 0 0  0 0 0 0.04 0" type="matrix" in="shadowBlurOuter1"></feColorMatrix>
        </filter>
        <rect id="path-17" x="2" y="2" width="244" height="164" rx="3"></rect>
        <filter x="-2.9%" y="-3.0%" width="105.7%" height="108.5%" filterUnits="objectBoundingBox" id="filter-18">
            <feOffset dx="0" dy="2" in="SourceAlpha" result="shadowOffsetOuter1"></feOffset>
            <feGaussianBlur stdDeviation="2" in="shadowOffsetOuter1" result="shadowBlurOuter1"></feGaussianBlur>
            <feColorMatrix values="0 0 0 0 0   0 0 0 0 0   0 0 0 0 0  0 0 0 0.2 0" type="matrix" in="shadowBlurOuter1"></feColorMatrix>
        </filter>
        <rect id="path-19" x="0" y="0" width="248" height="168" rx="3"></rect>
        <filter x="-1.8%" y="-2.1%" width="103.6%" height="105.4%" filterUnits="objectBoundingBox" id="filter-20">
            <feMorphology radius="1" operator="dilate" in="SourceAlpha" result="shadowSpreadOuter1"></feMorphology>
            <feOffset dx="0" dy="1" in="shadowSpreadOuter1" result="shadowOffsetOuter1"></feOffset>
            <feGaussianBlur stdDeviation="1" in="shadowOffsetOuter1" result="shadowBlurOuter1"></feGaussianBlur>
            <feComposite in="shadowBlurOuter1" in2="SourceAlpha" operator="out" result="shadowBlurOuter1"></feComposite>
            <feColorMatrix values="0 0 0 0 0   0 0 0 0 0   0 0 0 0 0  0 0 0 0.04 0" type="matrix" in="shadowBlurOuter1"></feColorMatrix>
        </filter>
        <rect id="path-21" x="2" y="2" width="244" height="132" rx="3"></rect>
        <filter x="-2.9%" y="-3.8%" width="105.7%" height="110.6%" filterUnits="objectBoundingBox" id="filter-22">
            <feOffset dx="0" dy="2" in="SourceAlpha" result="shadowOffsetOuter1"></feOffset>
            <feGaussianBlur stdDeviation="2" in="shadowOffsetOuter1" result="shadowBlurOuter1"></feGaussianBlur>
            <feColorMatrix values="0 0 0 0 0   0 0 0 0 0   0 0 0 0 0  0 0 0 0.2 0" type="matrix" in="shadowBlurOuter1"></feColorMatrix>
        </filter>
        <rect id="path-23" x="0" y="0" width="248" height="136" rx="3"></rect>
        <filter x="-1.8%" y="-2.6%" width="103.6%" height="106.6%" filterUnits="objectBoundingBox" id="filter-24">
            <feMorphology radius="1" operator="dilate" in="SourceAlpha" result="shadowSpreadOuter1"></feMorphology>
            <feOffset dx="0" dy="1" in="shadowSpreadOuter1" result="shadowOffsetOuter1"></feOffset>
            <feGaussianBlur stdDeviation="1" in="shadowOffsetOuter1" result="shadowBlurOuter1"></feGaussianBlur>
            <feComposite in="shadowBlurOuter1" in2="SourceAlpha" operator="out" result="shadowBlurOuter1"></feComposite>
            <feColorMatrix values="0 0 0 0 0   0 0 0 0 0   0 0 0 0 0  0 0 0 0.04 0" type="matrix" in="shadowBlurOuter1"></feColorMatrix>
        </filter>
        <rect id="path-25" x="2" y="2" width="236" height="164" rx="3"></rect>
        <filter x="-3.0%" y="-3.0%" width="105.9%" height="108.5%" filterUnits="objectBoundingBox" id="filter-26">
            <feOffset dx="0" dy="2" in="SourceAlpha" result="shadowOffsetOuter1"></feOffset>
            <feGaussianBlur stdDeviation="2" in="shadowOffsetOuter1" result="shadowBlurOuter1"></feGaussianBlur>
            <feColorMatrix values="0 0 0 0 0   0 0 0 0 0   0 0 0 0 0  0 0 0 0.2 0" type="matrix" in="shadowBlurOuter1"></feColorMatrix>
        </filter>
        <rect id="path-27" x="0" y="0" width="240" height="168" rx="3"></rect>
        <filter x="-1.9%" y="-2.1%" width="103.8%" height="105.4%" filterUnits="objectBoundingBox" id="filter-28">
            <feMorphology radius="1" operator="dilate" in="SourceAlpha" result="shadowSpreadOuter1"></feMorphology>
            <feOffset dx="0" dy="1" in="shadowSpreadOuter1" result="shadowOffsetOuter1"></feOffset>
            <feGaussianBlur stdDeviation="1" in="shadowOffsetOuter1" result="shadowBlurOuter1"></feGaussianBlur>
            <feComposite in="shadowBlurOuter1" in2="SourceAlpha" operator="out" result="shadowBlurOuter1"></feComposite>
            <feColorMatrix values="0 0 0 0 0   0 0 0 0 0   0 0 0 0 0  0 0 0 0.04 0" type="matrix" in="shadowBlurOuter1"></feColorMatrix>
        </filter>
    </defs>
    <g id="snippet/highlights-feedback" stroke="none" stroke-width="1" fill="none" fill-rule="evenodd">
        <g id="Group" transform="translate(16.000000, 16.000000)">
            <g id="Card" transform="translate(0.000000, 40.000000)">
                <g id="component/card">
                    <g id="Shadow">
                        <use fill="black" fill-opacity="1" filter="url(#filter-2)" xlink:href="#path-1"></use>
                        <use fill="#FFFFFF" fill-rule="evenodd" xlink:href="#path-1"></use>
                    </g>
                    <g id="Card" stroke-linecap="square">
                        <use fill="black" fill-opacity="1" filter="url(#filter-4)" xlink:href="#path-3"></use>
                        <use fill="#FFFFFF" fill-rule="evenodd" xlink:href="#path-3"></use>
                        <rect stroke-opacity="0.098194067" stroke="#140B2F" stroke-width="1" x="-0.5" y="-0.5" width="281" height="217" rx="3"></rect>
                    </g>
                </g>
                <path d="M58.5546875,32 L57.0429688,32 L57.0429688,23.5449219 L58.5546875,23.5449219 L58.5546875,32 Z M60.4882812,32 L60.4882812,25.5898438 L61.8886719,25.5898438 L61.8886719,26.6152344 L61.9882812,26.6152344 C62.2929688,25.9003906 63.0429688,25.4609375 64.0039062,25.4609375 C65.4335938,25.4609375 66.2363281,26.3222656 66.2363281,27.8515625 L66.2363281,32 L64.7890625,32 L64.7890625,28.1972656 C64.7890625,27.21875 64.34375,26.7265625 63.4648438,26.7265625 C62.5273438,26.7265625 61.9414062,27.3242188 61.9414062,28.2675781 L61.9414062,32 L60.4882812,32 Z M68.421875,24.0605469 L69.8691406,24.0605469 L69.8691406,25.6308594 L71.2753906,25.6308594 L71.2753906,26.7910156 L69.8691406,26.7910156 L69.8691406,29.9375 C69.8691406,30.5703125 70.1386719,30.8515625 70.7480469,30.8515625 C70.953125,30.8515625 71.0585938,30.8398438 71.2285156,30.8222656 L71.2285156,31.9589844 C71.0234375,32 70.7597656,32.0292969 70.4785156,32.0292969 C69.0078125,32.0292969 68.421875,31.53125 68.421875,30.2890625 L68.421875,26.7910156 L67.3789062,26.7910156 L67.3789062,25.6308594 L68.421875,25.6308594 L68.421875,24.0605469 Z M75.3828125,26.6152344 C74.515625,26.6152344 73.90625,27.2363281 73.8417969,28.1738281 L76.859375,28.1738281 C76.8300781,27.2246094 76.2558594,26.6152344 75.3828125,26.6152344 Z M76.8710938,30.2363281 L78.2480469,30.2363281 C77.9726562,31.4023438 76.9121094,32.1289062 75.4003906,32.1289062 C73.5136719,32.1289062 72.3769531,30.8808594 72.3769531,28.8183594 C72.3769531,26.7558594 73.53125,25.4609375 75.3886719,25.4609375 C77.2167969,25.4609375 78.3125,26.6738281 78.3125,28.6953125 L78.3125,29.1640625 L73.8359375,29.1640625 L73.8359375,29.2402344 C73.8710938,30.3066406 74.4863281,30.9746094 75.4414062,30.9746094 C76.1621094,30.9746094 76.6601562,30.7109375 76.8710938,30.2363281 Z M79.7714844,32 L79.7714844,25.5898438 L81.171875,25.5898438 L81.171875,26.5859375 L81.2714844,26.5859375 C81.4472656,25.953125 82.1328125,25.484375 82.953125,25.484375 C83.1582031,25.484375 83.4101562,25.5078125 83.5507812,25.5488281 L83.5507812,26.8964844 C83.4394531,26.8554688 83.0410156,26.8144531 82.8125,26.8144531 C81.8808594,26.8144531 81.2246094,27.4003906 81.2246094,28.296875 L81.2246094,32 L79.7714844,32 Z M90.2304688,27.7460938 L88.8476562,27.7460938 C88.7128906,27.125 88.2324219,26.6796875 87.4355469,26.6796875 C86.4394531,26.6796875 85.8476562,27.4472656 85.8476562,28.7773438 C85.8476562,30.125 86.4453125,30.9101562 87.4355469,30.9101562 C88.1914062,30.9101562 88.6953125,30.5527344 88.8476562,29.8847656 L90.2304688,29.8847656 C90.0722656,31.2265625 89.0644531,32.1289062 87.4414062,32.1289062 C85.5136719,32.1289062 84.3769531,30.8867188 84.3769531,28.7773438 C84.3769531,26.6972656 85.5078125,25.4609375 87.4355469,25.4609375 C89.0820312,25.4609375 90.078125,26.3984375 90.2304688,27.7460938 Z M94.3847656,30.9101562 C95.3984375,30.9101562 95.9726562,30.1367188 95.9726562,28.7949219 C95.9726562,27.4589844 95.3925781,26.6796875 94.3847656,26.6796875 C93.3710938,26.6796875 92.7910156,27.4589844 92.7910156,28.7949219 C92.7910156,30.1367188 93.3710938,30.9101562 94.3847656,30.9101562 Z M94.3847656,32.1289062 C92.4628906,32.1289062 91.3027344,30.875 91.3027344,28.7949219 C91.3027344,26.7265625 92.4804688,25.4609375 94.3847656,25.4609375 C96.2949219,25.4609375 97.4667969,26.7207031 97.4667969,28.7949219 C97.4667969,30.875 96.3007812,32.1289062 94.3847656,32.1289062 Z M98.9316406,32 L98.9316406,25.5898438 L100.332031,25.5898438 L100.332031,26.6269531 L100.431641,26.6269531 C100.707031,25.8945312 101.363281,25.4609375 102.212891,25.4609375 C103.097656,25.4609375 103.712891,25.90625 103.982422,26.6269531 L104.082031,26.6269531 C104.398438,25.9238281 105.136719,25.4609375 106.027344,25.4609375 C107.310547,25.4609375 108.083984,26.2636719 108.083984,27.59375 L108.083984,32 L106.636719,32 L106.636719,27.9628906 C106.636719,27.1367188 106.244141,26.7265625 105.464844,26.7265625 C104.708984,26.7265625 104.210938,27.2773438 104.210938,28.0097656 L104.210938,32 L102.798828,32 L102.798828,27.8574219 C102.798828,27.1542969 102.353516,26.7265625 101.638672,26.7265625 C100.917969,26.7265625 100.384766,27.3183594 100.384766,28.1035156 L100.384766,32 L98.9316406,32 Z M118.542969,27.7460938 L117.160156,27.7460938 C117.025391,27.125 116.544922,26.6796875 115.748047,26.6796875 C114.751953,26.6796875 114.160156,27.4472656 114.160156,28.7773438 C114.160156,30.125 114.757812,30.9101562 115.748047,30.9101562 C116.503906,30.9101562 117.007812,30.5527344 117.160156,29.8847656 L118.542969,29.8847656 C118.384766,31.2265625 117.376953,32.1289062 115.753906,32.1289062 C113.826172,32.1289062 112.689453,30.8867188 112.689453,28.7773438 C112.689453,26.6972656 113.820312,25.4609375 115.748047,25.4609375 C117.394531,25.4609375 118.390625,26.3984375 118.542969,27.7460938 Z M122.697266,30.9101562 C123.710938,30.9101562 124.285156,30.1367188 124.285156,28.7949219 C124.285156,27.4589844 123.705078,26.6796875 122.697266,26.6796875 C121.683594,26.6796875 121.103516,27.4589844 121.103516,28.7949219 C121.103516,30.1367188 121.683594,30.9101562 122.697266,30.9101562 Z M122.697266,32.1289062 C120.775391,32.1289062 119.615234,30.875 119.615234,28.7949219 C119.615234,26.7265625 120.792969,25.4609375 122.697266,25.4609375 C124.607422,25.4609375 125.779297,26.7207031 125.779297,28.7949219 C125.779297,30.875 124.613281,32.1289062 122.697266,32.1289062 Z M127.244141,32 L127.244141,25.5898438 L128.644531,25.5898438 L128.644531,26.6152344 L128.744141,26.6152344 C129.048828,25.9003906 129.798828,25.4609375 130.759766,25.4609375 C132.189453,25.4609375 132.992188,26.3222656 132.992188,27.8515625 L132.992188,32 L131.544922,32 L131.544922,28.1972656 C131.544922,27.21875 131.099609,26.7265625 130.220703,26.7265625 C129.283203,26.7265625 128.697266,27.3242188 128.697266,28.2675781 L128.697266,32 L127.244141,32 Z M134.158203,25.5898438 L135.716797,25.5898438 L137.199219,30.546875 L137.298828,30.546875 L138.769531,25.5898438 L140.304688,25.5898438 L138.037109,32 L136.4375,32 L134.158203,25.5898438 Z M144.21875,26.6152344 C143.351562,26.6152344 142.742188,27.2363281 142.677734,28.1738281 L145.695312,28.1738281 C145.666016,27.2246094 145.091797,26.6152344 144.21875,26.6152344 Z M145.707031,30.2363281 L147.083984,30.2363281 C146.808594,31.4023438 145.748047,32.1289062 144.236328,32.1289062 C142.349609,32.1289062 141.212891,30.8808594 141.212891,28.8183594 C141.212891,26.7558594 142.367188,25.4609375 144.224609,25.4609375 C146.052734,25.4609375 147.148438,26.6738281 147.148438,28.6953125 L147.148438,29.1640625 L142.671875,29.1640625 L142.671875,29.2402344 C142.707031,30.3066406 143.322266,30.9746094 144.277344,30.9746094 C144.998047,30.9746094 145.496094,30.7109375 145.707031,30.2363281 Z M148.607422,32 L148.607422,25.5898438 L150.007812,25.5898438 L150.007812,26.5859375 L150.107422,26.5859375 C150.283203,25.953125 150.96875,25.484375 151.789062,25.484375 C151.994141,25.484375 152.246094,25.5078125 152.386719,25.5488281 L152.386719,26.8964844 C152.275391,26.8554688 151.876953,26.8144531 151.648438,26.8144531 C150.716797,26.8144531 150.060547,27.4003906 150.060547,28.296875 L150.060547,32 L148.607422,32 Z M153.382812,27.4238281 C153.382812,26.2636719 154.4375,25.4609375 155.949219,25.4609375 C157.472656,25.4609375 158.427734,26.1347656 158.533203,27.3007812 L157.167969,27.3007812 C157.0625,26.8496094 156.634766,26.5625 155.955078,26.5625 C155.292969,26.5625 154.794922,26.8789062 154.794922,27.3417969 C154.794922,27.7050781 155.099609,27.9277344 155.744141,28.0742188 L156.875,28.3320312 C158.099609,28.6074219 158.667969,29.1347656 158.667969,30.078125 C158.667969,31.3085938 157.537109,32.1289062 155.9375,32.1289062 C154.337891,32.1289062 153.330078,31.4375 153.21875,30.2714844 L154.654297,30.2714844 C154.794922,30.7460938 155.246094,31.0273438 155.972656,31.0273438 C156.705078,31.0273438 157.214844,30.7050781 157.214844,30.2304688 C157.214844,29.8671875 156.939453,29.6386719 156.330078,29.5039062 L155.193359,29.2402344 C153.962891,28.9589844 153.382812,28.390625 153.382812,27.4238281 Z M162.330078,30.9628906 C163.208984,30.9628906 163.865234,30.3945312 163.865234,29.6503906 L163.865234,29.140625 L162.417969,29.234375 C161.603516,29.2871094 161.222656,29.5800781 161.222656,30.1015625 C161.222656,30.640625 161.685547,30.9628906 162.330078,30.9628906 Z M161.902344,32.1054688 C160.666016,32.1054688 159.78125,31.3554688 159.78125,30.1835938 C159.78125,29.0234375 160.654297,28.3554688 162.212891,28.2617188 L163.865234,28.1621094 L163.865234,27.6230469 C163.865234,26.9960938 163.443359,26.6445312 162.658203,26.6445312 C161.990234,26.6445312 161.533203,26.8789062 161.398438,27.3125 L160.027344,27.3125 C160.144531,26.1816406 161.205078,25.4609375 162.728516,25.4609375 C164.375,25.4609375 165.300781,26.2636719 165.300781,27.6230469 L165.300781,32 L163.900391,32 L163.900391,31.1210938 L163.800781,31.1210938 C163.443359,31.7421875 162.740234,32.1054688 161.902344,32.1054688 Z M167.509766,24.0605469 L168.957031,24.0605469 L168.957031,25.6308594 L170.363281,25.6308594 L170.363281,26.7910156 L168.957031,26.7910156 L168.957031,29.9375 C168.957031,30.5703125 169.226562,30.8515625 169.835938,30.8515625 C170.041016,30.8515625 170.146484,30.8398438 170.316406,30.8222656 L170.316406,31.9589844 C170.111328,32 169.847656,32.0292969 169.566406,32.0292969 C168.095703,32.0292969 167.509766,31.53125 167.509766,30.2890625 L167.509766,26.7910156 L166.466797,26.7910156 L166.466797,25.6308594 L167.509766,25.6308594 L167.509766,24.0605469 Z M171.798828,32 L171.798828,25.5898438 L173.246094,25.5898438 L173.246094,32 L171.798828,32 Z M172.519531,24.546875 C171.992188,24.546875 171.623047,24.2070312 171.623047,23.7441406 C171.623047,23.28125 171.992188,22.9414062 172.519531,22.9414062 C173.052734,22.9414062 173.416016,23.28125 173.416016,23.7441406 C173.416016,24.2070312 173.052734,24.546875 172.519531,24.546875 Z M177.810547,30.9101562 C178.824219,30.9101562 179.398438,30.1367188 179.398438,28.7949219 C179.398438,27.4589844 178.818359,26.6796875 177.810547,26.6796875 C176.796875,26.6796875 176.216797,27.4589844 176.216797,28.7949219 C176.216797,30.1367188 176.796875,30.9101562 177.810547,30.9101562 Z M177.810547,32.1289062 C175.888672,32.1289062 174.728516,30.875 174.728516,28.7949219 C174.728516,26.7265625 175.90625,25.4609375 177.810547,25.4609375 C179.720703,25.4609375 180.892578,26.7207031 180.892578,28.7949219 C180.892578,30.875 179.726562,32.1289062 177.810547,32.1289062 Z M182.357422,32 L182.357422,25.5898438 L183.757812,25.5898438 L183.757812,26.6152344 L183.857422,26.6152344 C184.162109,25.9003906 184.912109,25.4609375 185.873047,25.4609375 C187.302734,25.4609375 188.105469,26.3222656 188.105469,27.8515625 L188.105469,32 L186.658203,32 L186.658203,28.1972656 C186.658203,27.21875 186.212891,26.7265625 185.333984,26.7265625 C184.396484,26.7265625 183.810547,27.3242188 183.810547,28.2675781 L183.810547,32 L182.357422,32 Z" id="Intercom-conversatio" fill="#24124D" opacity="0.5"></path>
                <g id="integrations/intercom" transform="translate(16.000000, 16.000000)" fill="#1F8DED">
                    <g id="intercom">
                        <path d="M20.8000312,13.195125 C20.7952848,13.6335832 20.4384995,13.986527 20.0000156,13.986527 C19.5615317,13.986527 19.2047465,13.6335832 19.2,13.195125 L19.2,6 C19.2047465,5.56154178 19.5615317,5.20859797 20.0000156,5.20859797 C20.4384995,5.20859797 20.7952848,5.56154178 20.8000312,6 L20.8000312,13.195125 Z M20.5208437,18.2025937 C20.3971875,18.3084375 17.4336562,20.79525 12,20.79525 C6.5664375,20.79525 3.603,18.3083437 3.47934375,18.2025 C3.14394656,17.9148998 3.10512546,17.4098898 3.392625,17.0744063 C3.67947459,16.7394938 4.18329687,16.6999865 4.51884375,16.9860938 C4.5658125,17.0254688 7.2121875,19.195125 12.0000938,19.195125 C16.8480938,19.195125 19.4535,17.0098125 19.4792812,16.9877813 C19.8140625,16.70025 20.3200312,16.738875 20.607375,17.0745 C20.8949738,17.4099162 20.8562337,17.9149643 20.5208437,18.2025938 Z M3.19996875,6 C3.20471522,5.56154178 3.56150047,5.20859797 3.99998438,5.20859797 C4.43846828,5.20859797 4.79525353,5.56154178 4.8,6 L4.8,13.195125 C4.79525353,13.6335832 4.43846828,13.986527 3.99998438,13.986527 C3.56150047,13.986527 3.20471522,13.6335832 3.19996875,13.195125 L3.19996875,6 Z M7.20009375,4.39996875 C7.20678479,3.96293326 7.56297579,3.61215382 8.0000625,3.61215382 C8.43714921,3.61215382 8.79334021,3.96293326 8.80003125,4.39996875 L8.80003125,15.0875625 C8.79334021,15.524598 8.43714921,15.8753774 8.0000625,15.8753774 C7.56297579,15.8753774 7.20678479,15.524598 7.20009375,15.0875625 L7.20009375,4.4000625 L7.20009375,4.39996875 Z M11.2000313,3.99515625 C11.2000064,3.78298372 11.2842806,3.57949409 11.4343092,3.42946546 C11.5843378,3.27943682 11.7878275,3.19516263 12,3.1951875 C12.2121888,3.19513776 12.4157025,3.27940097 12.5657514,3.4294323 C12.7158003,3.57946363 12.8000874,3.78296748 12.8000625,3.99515625 L12.8000625,15.595125 C12.795316,16.0335832 12.4385308,16.386527 12.0000469,16.386527 C11.561563,16.386527 11.2047777,16.0335832 11.2000312,15.595125 L11.2000312,3.99515625 Z M15.2000625,4.39996875 C15.2067535,3.96293326 15.5629445,3.61215382 16.0000312,3.61215382 C16.437118,3.61215382 16.793309,3.96293326 16.8,4.39996875 L16.8,15.0875625 C16.793309,15.524598 16.437118,15.8753774 16.0000312,15.8753774 C15.5629445,15.8753774 15.2067535,15.524598 15.2000625,15.0875625 L15.2000625,4.4000625 L15.2000625,4.39996875 Z M21,0 L3,0 C1.34315625,0 0,1.34315625 0,3 L0,21 C0,22.65675 1.34315625,24 3,24 L21,24 C22.6568438,24 24,22.65675 24,21 L24,3 C24,1.34315625 22.6568438,0 21,0 Z" id="Shape" fill-rule="nonzero"></path>
                    </g>
                </g>
                <rect id="Rectangle-9" fill="#DCD5EE" x="16" y="64" width="248" height="12" rx="3"></rect>
                <rect id="Rectangle-9" fill="#DCD5EE" x="16" y="96" width="136" height="12" rx="3"></rect>
                <rect id="Rectangle-9" fill="#DCD5EE" x="16" y="160" width="136" height="12" rx="3"></rect>
                <rect id="Rectangle-9" fill="#5182F8" x="168" y="96" width="96" height="12" rx="3"></rect>
                <rect id="Rectangle-9" fill="#5182F8" x="16" y="128" width="248" height="12" rx="3"></rect>
            </g>
            <g id="Card" transform="translate(0.000000, 229.000000)">
                <g id="component/card" transform="translate(0.000000, 43.000000)">
                    <g id="Shadow">
                        <use fill="black" fill-opacity="1" filter="url(#filter-6)" xlink:href="#path-5"></use>
                        <use fill="#FFFFFF" fill-rule="evenodd" xlink:href="#path-5"></use>
                    </g>
                    <g id="Card" stroke-linecap="square">
                        <use fill="black" fill-opacity="1" filter="url(#filter-8)" xlink:href="#path-7"></use>
                        <use fill="#FFFFFF" fill-rule="evenodd" xlink:href="#path-7"></use>
                        <rect stroke-opacity="0.098194067" stroke="#140B2F" stroke-width="1" x="-0.5" y="-0.5" width="281" height="137" rx="3"></rect>
                    </g>
                </g>
                <g id="integrations/typeform" transform="translate(16.000000, 59.000000)">
                    <g id="typeform" transform="translate(4.500000, 0.000000)">
                        <polygon id="Shape" fill="#89C6BE" fill-rule="nonzero" points="12.7339754 0.0768353808 15.0768354 0.0768353808 15.0768354 23.9604324 12.7339754 23.9604324"></polygon>
                        <path d="M0.0240589681,5.51646192 L2.96007862,5.51646192 L2.96007862,0.0505945946 L6.85114496,0.0505945946 L6.85114496,5.51646192 L10.3670565,5.51646192 L10.3670565,8.51392629 L6.85114496,8.51392629 L6.85114496,18.2471351 C6.85114496,18.6699361 6.8682457,19.0348894 6.90244717,19.3401671 C6.93623587,19.6462113 7.01596069,19.9044914 7.14109091,20.1162457 C7.2662801,20.3276462 7.45362162,20.4863292 7.70470762,20.5921769 C7.95473219,20.6980835 8.29598034,20.750801 8.72862899,20.750801 C9.00153317,20.750801 9.27479115,20.7453759 9.54769533,20.7329926 C9.82089435,20.7217297 10.0937985,20.6802162 10.3670565,20.6100442 L10.3670565,23.7133563 C9.93446683,23.759941 9.51343489,23.8068796 9.10413759,23.8545258 C8.68479249,23.9015708 8.26313539,23.9250181 7.84115971,23.9247568 C6.81688452,23.9247568 5.99203931,23.8243342 5.36627027,23.625317 C4.74002948,23.4255332 4.25136118,23.1311646 3.89879115,22.7433317 C3.54545455,22.3554398 3.30675184,21.8674791 3.18162162,21.2795086 C3.05607862,20.6925995 2.98225061,20.0223686 2.96001966,19.2698771 L2.96001966,8.51398526 L0.0240589681,8.51398526 L0.0240589681,5.51646192" id="Shape" fill="#33393F" fill-rule="nonzero"></path>
                    </g>
                </g>
                <path d="M60.6582031,75 L59.1464844,75 L59.1464844,67.8515625 L56.5449219,67.8515625 L56.5449219,66.5449219 L63.265625,66.5449219 L63.265625,67.8515625 L60.6582031,67.8515625 L60.6582031,75 Z M65.3984375,77.3320312 C65.3105469,77.3320312 64.9179688,77.3261719 64.8242188,77.3085938 L64.8242188,76.125 C64.90625,76.1367188 65.1230469,76.1425781 65.2226562,76.1425781 C65.8378906,76.1425781 66.1835938,75.9023438 66.3710938,75.3105469 L66.4472656,75.0292969 L64.15625,68.5898438 L65.75,68.5898438 L67.25,73.59375 L67.3496094,73.59375 L68.84375,68.5898438 L70.3789062,68.5898438 L68.0644531,75.2050781 C67.5195312,76.7988281 66.8339844,77.3320312 65.3984375,77.3320312 Z M75.1191406,68.484375 C76.7421875,68.484375 77.7617188,69.7382812 77.7617188,71.7949219 C77.7617188,73.8398438 76.7539062,75.1054688 75.1367188,75.1054688 C74.2167969,75.1054688 73.5078125,74.7070312 73.1796875,74.0273438 L73.0800781,74.0273438 L73.0800781,77.0507812 L71.6269531,77.0507812 L71.6269531,68.5898438 L73.0273438,68.5898438 L73.0273438,69.6503906 L73.1269531,69.6503906 C73.4960938,68.9238281 74.2402344,68.484375 75.1191406,68.484375 Z M74.6621094,73.8691406 C75.6699219,73.8691406 76.2675781,73.0898438 76.2675781,71.7949219 C76.2675781,70.5 75.6640625,69.7207031 74.6679688,69.7207031 C73.6777344,69.7207031 73.0566406,70.5175781 73.0507812,71.7949219 C73.0566406,73.078125 73.671875,73.8691406 74.6621094,73.8691406 Z M81.9101562,69.6152344 C81.0429688,69.6152344 80.4335938,70.2363281 80.3691406,71.1738281 L83.3867188,71.1738281 C83.3574219,70.2246094 82.7832031,69.6152344 81.9101562,69.6152344 Z M83.3984375,73.2363281 L84.7753906,73.2363281 C84.5,74.4023438 83.4394531,75.1289062 81.9277344,75.1289062 C80.0410156,75.1289062 78.9042969,73.8808594 78.9042969,71.8183594 C78.9042969,69.7558594 80.0585938,68.4609375 81.9160156,68.4609375 C83.7441406,68.4609375 84.8398438,69.6738281 84.8398438,71.6953125 L84.8398438,72.1640625 L80.3632812,72.1640625 L80.3632812,72.2402344 C80.3984375,73.3066406 81.0136719,73.9746094 81.96875,73.9746094 C82.6894531,73.9746094 83.1875,73.7109375 83.3984375,73.2363281 Z M86.7617188,75 L86.7617188,69.7910156 L85.71875,69.7910156 L85.71875,68.6308594 L86.7617188,68.6308594 L86.7617188,67.9921875 C86.7617188,66.6914062 87.4355469,66.1640625 88.8417969,66.1640625 C89.0996094,66.1640625 89.3515625,66.1875 89.609375,66.2285156 L89.609375,67.3125 C89.4804688,67.2832031 89.2636719,67.265625 89.0527344,67.265625 C88.484375,67.265625 88.1855469,67.5117188 88.1855469,68.0859375 L88.1855469,68.6308594 L89.5742188,68.6308594 L89.5742188,69.7910156 L88.2089844,69.7910156 L88.2089844,75 L86.7617188,75 Z M93.7578125,73.9101562 C94.7714844,73.9101562 95.3457031,73.1367188 95.3457031,71.7949219 C95.3457031,70.4589844 94.765625,69.6796875 93.7578125,69.6796875 C92.7441406,69.6796875 92.1640625,70.4589844 92.1640625,71.7949219 C92.1640625,73.1367188 92.7441406,73.9101562 93.7578125,73.9101562 Z M93.7578125,75.1289062 C91.8359375,75.1289062 90.6757812,73.875 90.6757812,71.7949219 C90.6757812,69.7265625 91.8535156,68.4609375 93.7578125,68.4609375 C95.6679688,68.4609375 96.8398438,69.7207031 96.8398438,71.7949219 C96.8398438,73.875 95.6738281,75.1289062 93.7578125,75.1289062 Z M98.3046875,75 L98.3046875,68.5898438 L99.7050781,68.5898438 L99.7050781,69.5859375 L99.8046875,69.5859375 C99.9804688,68.953125 100.666016,68.484375 101.486328,68.484375 C101.691406,68.484375 101.943359,68.5078125 102.083984,68.5488281 L102.083984,69.8964844 C101.972656,69.8554688 101.574219,69.8144531 101.345703,69.8144531 C100.414062,69.8144531 99.7578125,70.4003906 99.7578125,71.296875 L99.7578125,75 L98.3046875,75 Z M103.226562,75 L103.226562,68.5898438 L104.626953,68.5898438 L104.626953,69.6269531 L104.726562,69.6269531 C105.001953,68.8945312 105.658203,68.4609375 106.507812,68.4609375 C107.392578,68.4609375 108.007812,68.90625 108.277344,69.6269531 L108.376953,69.6269531 C108.693359,68.9238281 109.431641,68.4609375 110.322266,68.4609375 C111.605469,68.4609375 112.378906,69.2636719 112.378906,70.59375 L112.378906,75 L110.931641,75 L110.931641,70.9628906 C110.931641,70.1367188 110.539062,69.7265625 109.759766,69.7265625 C109.003906,69.7265625 108.505859,70.2773438 108.505859,71.0097656 L108.505859,75 L107.09375,75 L107.09375,70.8574219 C107.09375,70.1542969 106.648438,69.7265625 105.933594,69.7265625 C105.212891,69.7265625 104.679688,70.3183594 104.679688,71.1035156 L104.679688,75 L103.226562,75 Z M119.990234,69.6152344 C119.123047,69.6152344 118.513672,70.2363281 118.449219,71.1738281 L121.466797,71.1738281 C121.4375,70.2246094 120.863281,69.6152344 119.990234,69.6152344 Z M121.478516,73.2363281 L122.855469,73.2363281 C122.580078,74.4023438 121.519531,75.1289062 120.007812,75.1289062 C118.121094,75.1289062 116.984375,73.8808594 116.984375,71.8183594 C116.984375,69.7558594 118.138672,68.4609375 119.996094,68.4609375 C121.824219,68.4609375 122.919922,69.6738281 122.919922,71.6953125 L122.919922,72.1640625 L118.443359,72.1640625 L118.443359,72.2402344 C118.478516,73.3066406 119.09375,73.9746094 120.048828,73.9746094 C120.769531,73.9746094 121.267578,73.7109375 121.478516,73.2363281 Z M124.378906,75 L124.378906,68.5898438 L125.779297,68.5898438 L125.779297,69.6152344 L125.878906,69.6152344 C126.183594,68.9003906 126.933594,68.4609375 127.894531,68.4609375 C129.324219,68.4609375 130.126953,69.3222656 130.126953,70.8515625 L130.126953,75 L128.679688,75 L128.679688,71.1972656 C128.679688,70.21875 128.234375,69.7265625 127.355469,69.7265625 C126.417969,69.7265625 125.832031,70.3242188 125.832031,71.2675781 L125.832031,75 L124.378906,75 Z M132.3125,67.0605469 L133.759766,67.0605469 L133.759766,68.6308594 L135.166016,68.6308594 L135.166016,69.7910156 L133.759766,69.7910156 L133.759766,72.9375 C133.759766,73.5703125 134.029297,73.8515625 134.638672,73.8515625 C134.84375,73.8515625 134.949219,73.8398438 135.119141,73.8222656 L135.119141,74.9589844 C134.914062,75 134.650391,75.0292969 134.369141,75.0292969 C132.898438,75.0292969 132.3125,74.53125 132.3125,73.2890625 L132.3125,69.7910156 L131.269531,69.7910156 L131.269531,68.6308594 L132.3125,68.6308594 L132.3125,67.0605469 Z M136.583984,75 L136.583984,68.5898438 L137.984375,68.5898438 L137.984375,69.5859375 L138.083984,69.5859375 C138.259766,68.953125 138.945312,68.484375 139.765625,68.484375 C139.970703,68.484375 140.222656,68.5078125 140.363281,68.5488281 L140.363281,69.8964844 C140.251953,69.8554688 139.853516,69.8144531 139.625,69.8144531 C138.693359,69.8144531 138.037109,70.4003906 138.037109,71.296875 L138.037109,75 L136.583984,75 Z M142.208984,77.3320312 C142.121094,77.3320312 141.728516,77.3261719 141.634766,77.3085938 L141.634766,76.125 C141.716797,76.1367188 141.933594,76.1425781 142.033203,76.1425781 C142.648438,76.1425781 142.994141,75.9023438 143.181641,75.3105469 L143.257812,75.0292969 L140.966797,68.5898438 L142.560547,68.5898438 L144.060547,73.59375 L144.160156,73.59375 L145.654297,68.5898438 L147.189453,68.5898438 L144.875,75.2050781 C144.330078,76.7988281 143.644531,77.3320312 142.208984,77.3320312 Z" id="Typeform-entry" fill="#24124D" opacity="0.5"></path>
                <text id="Typeform-entry" font-family="Rubik-Medium, Rubik" font-size="12" font-weight="400" fill="#24124D">
                    <tspan x="616" y="11">Typeform entry</tspan>
                </text>
                <rect id="Rectangle-9" fill="#DCD5EE" x="16" y="107" width="248" height="12" rx="3"></rect>
                <rect id="Rectangle-9" fill="#DCD5EE" x="16" y="139" width="136" height="12" rx="3"></rect>
                <rect id="Rectangle-9" fill="#009688" x="168" y="139" width="96" height="12" rx="3"></rect>
            </g>
            <g id="Card" transform="translate(296.000000, 0.000000)">
                <g id="component/card">
                    <g id="Shadow">
                        <use fill="black" fill-opacity="1" filter="url(#filter-10)" xlink:href="#path-9"></use>
                        <use fill="#FFFFFF" fill-rule="evenodd" xlink:href="#path-9"></use>
                    </g>
                    <g id="Card" stroke-linecap="square">
                        <use fill="black" fill-opacity="1" filter="url(#filter-12)" xlink:href="#path-11"></use>
                        <use fill="#FFFFFF" fill-rule="evenodd" xlink:href="#path-11"></use>
                        <rect stroke-opacity="0.098194067" stroke="#140B2F" stroke-width="1" x="-0.5" y="-0.5" width="249" height="169" rx="3"></rect>
                    </g>
                </g>
                <path d="M60.6582031,32 L59.1464844,32 L59.1464844,24.8515625 L56.5449219,24.8515625 L56.5449219,23.5449219 L63.265625,23.5449219 L63.265625,24.8515625 L60.6582031,24.8515625 L60.6582031,32 Z M65.3984375,34.3320312 C65.3105469,34.3320312 64.9179688,34.3261719 64.8242188,34.3085938 L64.8242188,33.125 C64.90625,33.1367188 65.1230469,33.1425781 65.2226562,33.1425781 C65.8378906,33.1425781 66.1835938,32.9023438 66.3710938,32.3105469 L66.4472656,32.0292969 L64.15625,25.5898438 L65.75,25.5898438 L67.25,30.59375 L67.3496094,30.59375 L68.84375,25.5898438 L70.3789062,25.5898438 L68.0644531,32.2050781 C67.5195312,33.7988281 66.8339844,34.3320312 65.3984375,34.3320312 Z M75.1191406,25.484375 C76.7421875,25.484375 77.7617188,26.7382812 77.7617188,28.7949219 C77.7617188,30.8398438 76.7539062,32.1054688 75.1367188,32.1054688 C74.2167969,32.1054688 73.5078125,31.7070312 73.1796875,31.0273438 L73.0800781,31.0273438 L73.0800781,34.0507812 L71.6269531,34.0507812 L71.6269531,25.5898438 L73.0273438,25.5898438 L73.0273438,26.6503906 L73.1269531,26.6503906 C73.4960938,25.9238281 74.2402344,25.484375 75.1191406,25.484375 Z M74.6621094,30.8691406 C75.6699219,30.8691406 76.2675781,30.0898438 76.2675781,28.7949219 C76.2675781,27.5 75.6640625,26.7207031 74.6679688,26.7207031 C73.6777344,26.7207031 73.0566406,27.5175781 73.0507812,28.7949219 C73.0566406,30.078125 73.671875,30.8691406 74.6621094,30.8691406 Z M81.9101562,26.6152344 C81.0429688,26.6152344 80.4335938,27.2363281 80.3691406,28.1738281 L83.3867188,28.1738281 C83.3574219,27.2246094 82.7832031,26.6152344 81.9101562,26.6152344 Z M83.3984375,30.2363281 L84.7753906,30.2363281 C84.5,31.4023438 83.4394531,32.1289062 81.9277344,32.1289062 C80.0410156,32.1289062 78.9042969,30.8808594 78.9042969,28.8183594 C78.9042969,26.7558594 80.0585938,25.4609375 81.9160156,25.4609375 C83.7441406,25.4609375 84.8398438,26.6738281 84.8398438,28.6953125 L84.8398438,29.1640625 L80.3632812,29.1640625 L80.3632812,29.2402344 C80.3984375,30.3066406 81.0136719,30.9746094 81.96875,30.9746094 C82.6894531,30.9746094 83.1875,30.7109375 83.3984375,30.2363281 Z M86.7617188,32 L86.7617188,26.7910156 L85.71875,26.7910156 L85.71875,25.6308594 L86.7617188,25.6308594 L86.7617188,24.9921875 C86.7617188,23.6914062 87.4355469,23.1640625 88.8417969,23.1640625 C89.0996094,23.1640625 89.3515625,23.1875 89.609375,23.2285156 L89.609375,24.3125 C89.4804688,24.2832031 89.2636719,24.265625 89.0527344,24.265625 C88.484375,24.265625 88.1855469,24.5117188 88.1855469,25.0859375 L88.1855469,25.6308594 L89.5742188,25.6308594 L89.5742188,26.7910156 L88.2089844,26.7910156 L88.2089844,32 L86.7617188,32 Z M93.7578125,30.9101562 C94.7714844,30.9101562 95.3457031,30.1367188 95.3457031,28.7949219 C95.3457031,27.4589844 94.765625,26.6796875 93.7578125,26.6796875 C92.7441406,26.6796875 92.1640625,27.4589844 92.1640625,28.7949219 C92.1640625,30.1367188 92.7441406,30.9101562 93.7578125,30.9101562 Z M93.7578125,32.1289062 C91.8359375,32.1289062 90.6757812,30.875 90.6757812,28.7949219 C90.6757812,26.7265625 91.8535156,25.4609375 93.7578125,25.4609375 C95.6679688,25.4609375 96.8398438,26.7207031 96.8398438,28.7949219 C96.8398438,30.875 95.6738281,32.1289062 93.7578125,32.1289062 Z M98.3046875,32 L98.3046875,25.5898438 L99.7050781,25.5898438 L99.7050781,26.5859375 L99.8046875,26.5859375 C99.9804688,25.953125 100.666016,25.484375 101.486328,25.484375 C101.691406,25.484375 101.943359,25.5078125 102.083984,25.5488281 L102.083984,26.8964844 C101.972656,26.8554688 101.574219,26.8144531 101.345703,26.8144531 C100.414062,26.8144531 99.7578125,27.4003906 99.7578125,28.296875 L99.7578125,32 L98.3046875,32 Z M103.226562,32 L103.226562,25.5898438 L104.626953,25.5898438 L104.626953,26.6269531 L104.726562,26.6269531 C105.001953,25.8945312 105.658203,25.4609375 106.507812,25.4609375 C107.392578,25.4609375 108.007812,25.90625 108.277344,26.6269531 L108.376953,26.6269531 C108.693359,25.9238281 109.431641,25.4609375 110.322266,25.4609375 C111.605469,25.4609375 112.378906,26.2636719 112.378906,27.59375 L112.378906,32 L110.931641,32 L110.931641,27.9628906 C110.931641,27.1367188 110.539062,26.7265625 109.759766,26.7265625 C109.003906,26.7265625 108.505859,27.2773438 108.505859,28.0097656 L108.505859,32 L107.09375,32 L107.09375,27.8574219 C107.09375,27.1542969 106.648438,26.7265625 105.933594,26.7265625 C105.212891,26.7265625 104.679688,27.3183594 104.679688,28.1035156 L104.679688,32 L103.226562,32 Z M119.990234,26.6152344 C119.123047,26.6152344 118.513672,27.2363281 118.449219,28.1738281 L121.466797,28.1738281 C121.4375,27.2246094 120.863281,26.6152344 119.990234,26.6152344 Z M121.478516,30.2363281 L122.855469,30.2363281 C122.580078,31.4023438 121.519531,32.1289062 120.007812,32.1289062 C118.121094,32.1289062 116.984375,30.8808594 116.984375,28.8183594 C116.984375,26.7558594 118.138672,25.4609375 119.996094,25.4609375 C121.824219,25.4609375 122.919922,26.6738281 122.919922,28.6953125 L122.919922,29.1640625 L118.443359,29.1640625 L118.443359,29.2402344 C118.478516,30.3066406 119.09375,30.9746094 120.048828,30.9746094 C120.769531,30.9746094 121.267578,30.7109375 121.478516,30.2363281 Z M124.378906,32 L124.378906,25.5898438 L125.779297,25.5898438 L125.779297,26.6152344 L125.878906,26.6152344 C126.183594,25.9003906 126.933594,25.4609375 127.894531,25.4609375 C129.324219,25.4609375 130.126953,26.3222656 130.126953,27.8515625 L130.126953,32 L128.679688,32 L128.679688,28.1972656 C128.679688,27.21875 128.234375,26.7265625 127.355469,26.7265625 C126.417969,26.7265625 125.832031,27.3242188 125.832031,28.2675781 L125.832031,32 L124.378906,32 Z M132.3125,24.0605469 L133.759766,24.0605469 L133.759766,25.6308594 L135.166016,25.6308594 L135.166016,26.7910156 L133.759766,26.7910156 L133.759766,29.9375 C133.759766,30.5703125 134.029297,30.8515625 134.638672,30.8515625 C134.84375,30.8515625 134.949219,30.8398438 135.119141,30.8222656 L135.119141,31.9589844 C134.914062,32 134.650391,32.0292969 134.369141,32.0292969 C132.898438,32.0292969 132.3125,31.53125 132.3125,30.2890625 L132.3125,26.7910156 L131.269531,26.7910156 L131.269531,25.6308594 L132.3125,25.6308594 L132.3125,24.0605469 Z M136.583984,32 L136.583984,25.5898438 L137.984375,25.5898438 L137.984375,26.5859375 L138.083984,26.5859375 C138.259766,25.953125 138.945312,25.484375 139.765625,25.484375 C139.970703,25.484375 140.222656,25.5078125 140.363281,25.5488281 L140.363281,26.8964844 C140.251953,26.8554688 139.853516,26.8144531 139.625,26.8144531 C138.693359,26.8144531 138.037109,27.4003906 138.037109,28.296875 L138.037109,32 L136.583984,32 Z M142.208984,34.3320312 C142.121094,34.3320312 141.728516,34.3261719 141.634766,34.3085938 L141.634766,33.125 C141.716797,33.1367188 141.933594,33.1425781 142.033203,33.1425781 C142.648438,33.1425781 142.994141,32.9023438 143.181641,32.3105469 L143.257812,32.0292969 L140.966797,25.5898438 L142.560547,25.5898438 L144.060547,30.59375 L144.160156,30.59375 L145.654297,25.5898438 L147.189453,25.5898438 L144.875,32.2050781 C144.330078,33.7988281 143.644531,34.3320312 142.208984,34.3320312 Z" id="Typeform-entry" fill="#24124D" opacity="0.5"></path>
                <g id="integrations/typeform" transform="translate(16.000000, 16.000000)">
                    <g id="typeform" transform="translate(4.500000, 0.000000)">
                        <polygon id="Shape" fill="#89C6BE" fill-rule="nonzero" points="12.7339754 0.0768353808 15.0768354 0.0768353808 15.0768354 23.9604324 12.7339754 23.9604324"></polygon>
                        <path d="M0.0240589681,5.51646192 L2.96007862,5.51646192 L2.96007862,0.0505945946 L6.85114496,0.0505945946 L6.85114496,5.51646192 L10.3670565,5.51646192 L10.3670565,8.51392629 L6.85114496,8.51392629 L6.85114496,18.2471351 C6.85114496,18.6699361 6.8682457,19.0348894 6.90244717,19.3401671 C6.93623587,19.6462113 7.01596069,19.9044914 7.14109091,20.1162457 C7.2662801,20.3276462 7.45362162,20.4863292 7.70470762,20.5921769 C7.95473219,20.6980835 8.29598034,20.750801 8.72862899,20.750801 C9.00153317,20.750801 9.27479115,20.7453759 9.54769533,20.7329926 C9.82089435,20.7217297 10.0937985,20.6802162 10.3670565,20.6100442 L10.3670565,23.7133563 C9.93446683,23.759941 9.51343489,23.8068796 9.10413759,23.8545258 C8.68479249,23.9015708 8.26313539,23.9250181 7.84115971,23.9247568 C6.81688452,23.9247568 5.99203931,23.8243342 5.36627027,23.625317 C4.74002948,23.4255332 4.25136118,23.1311646 3.89879115,22.7433317 C3.54545455,22.3554398 3.30675184,21.8674791 3.18162162,21.2795086 C3.05607862,20.6925995 2.98225061,20.0223686 2.96001966,19.2698771 L2.96001966,8.51398526 L0.0240589681,8.51398526 L0.0240589681,5.51646192" id="Shape" fill="#33393F" fill-rule="nonzero"></path>
                    </g>
                </g>
                <rect id="Rectangle-9" fill="#DCD5EE" x="16" y="64" width="216" height="12" rx="3"></rect>
                <rect id="Rectangle-9" fill="#DCD5EE" x="16" y="96" width="136" height="12" rx="3"></rect>
                <rect id="Rectangle-9" fill="#009688" x="16" y="128" width="96" height="12" rx="3"></rect>
                <rect id="Rectangle-9" fill="#009688" x="168" y="96" width="64" height="12" rx="3"></rect>
            </g>
            <g id="Card" transform="translate(560.000000, 24.000000)">
                <g id="component/card">
                    <g id="Shadow">
                        <use fill="black" fill-opacity="1" filter="url(#filter-14)" xlink:href="#path-13"></use>
                        <use fill="#FFFFFF" fill-rule="evenodd" xlink:href="#path-13"></use>
                    </g>
                    <g id="Card" stroke-linecap="square">
                        <use fill="black" fill-opacity="1" filter="url(#filter-16)" xlink:href="#path-15"></use>
                        <use fill="#FFFFFF" fill-rule="evenodd" xlink:href="#path-15"></use>
                        <rect stroke-opacity="0.098194067" stroke="#140B2F" stroke-width="1" x="-0.5" y="-0.5" width="241" height="169" rx="3"></rect>
                    </g>
                </g>
                <g id="integrations/zendesk" transform="translate(16.000000, 16.000000)" fill="#719C40">
                    <g id="zendesk">
                        <path d="M21.1735313,14.2646324 C20.12325,14.8613123 18.9801563,15.1450435 17.8557188,15.1450435 C17.1227813,15.1450435 16.3973438,15.0220079 15.7846875,14.775083 C14.6645625,15.7973123 13.4592188,16.5133281 12.8524688,16.845913 C13.7314688,18.2568854 15.1289063,19.3414387 16.8557813,19.7767589 C17.3778628,19.9086249 17.9139616,19.9751774 18.4520625,19.9749249 C19.6329375,19.9749249 20.7692813,19.6476522 21.7350938,19.1215494 C21.8780367,18.562117 21.9500524,17.9865546 21.9494063,17.4087273 C21.9494063,16.3415336 21.6972188,15.2629565 21.1735313,14.2646324 M19.8049687,5.85011858 C19.6062187,7.19222134 19.0320937,8.38558103 18.2280937,9.27348617 C18.2702812,9.50912253 18.29925,9.76733597 18.29925,10.037502 C18.2955,11.6069881 17.4951562,12.9722372 16.4952187,14.0710198 C16.781625,14.1070672 17.0700937,14.1272727 17.3564062,14.1272727 C18.7821562,14.1272727 20.218875,13.6650119 21.434625,12.7065296 C22.8388125,11.5919051 23.6836875,10.0194783 23.9277187,8.41631621 C22.9819687,7.1576917 21.5925937,6.25470356 20.0445937,5.86074308 C19.9644375,5.8433834 19.8910312,5.81113043 19.8094687,5.79690119 L19.8049687,5.85021344 M18.7494375,4.70257708 C18.7494375,2.89527273 18.0463125,1.25748617 16.9455,0.0716205534 L16.849875,0.0716205534 C15.2699063,0.0716205534 13.8857813,0.639841897 12.6306563,1.78890119 C13.8300938,3.07911462 14.2610625,4.7153834 14.2610625,6.35079842 C14.2610625,6.48294071 14.2566563,6.61356522 14.2529063,6.7403004 C14.518465,6.67253872 14.7912839,6.63825502 15.0651563,6.63822925 L15.1364063,6.63822925 C16.168125,6.65928854 17.2080938,7.17799209 17.8045313,8.15506719 C18.402375,7.14488538 18.7495313,5.9666087 18.7495313,4.70257708 M6.82940625,0.190956522 C6.7306875,0.190956522 6.6365625,0.190956522 6.60159375,0.171509881 C5.52253125,1.37075099 4.8740625,2.95532016 4.8740625,4.68161265 C4.8740625,4.70627668 4.8740625,4.72733597 4.86525,4.74090119 C4.94015625,4.74090119 5.0158125,4.73862451 5.09296875,4.73862451 C6.91096875,4.73862451 8.57475,5.47114625 9.753375,6.65027668 C10.7429062,6.72085375 11.7554062,7.25226877 12.28875,8.30675099 C12.5750625,7.74004743 13.000125,7.32578656 13.4488125,7.1141502 C13.4488125,7.03901976 13.4518125,6.96028458 13.4518125,6.88297233 C13.4518125,5.03506719 12.696,3.19171542 11.2258125,1.8744664 C9.961875,0.74115415 8.3923125,0.190956522 6.82940625,0.190956522 M8.683125,6.74485375 C7.68984375,6.1586087 6.549,5.82991304 5.3510625,5.82991304 C4.96678125,5.82991304 4.5751875,5.86368379 4.188,5.93501976 C2.42775,6.25470356 0.95615625,7.24543874 0,8.5484585 C0.2596875,10.1606324 1.1015625,11.6782292 2.461125,12.75083 C3.45440625,11.4028458 4.8459375,10.5321107 6.28425,10.2529328 C6.28425,10.1846324 6.28125,10.1080791 6.28125,10.0360791 C6.27825,8.20999209 7.39978125,7.07886166 8.683125,6.74485375 M2.85871875,14.2804743 C2.33278125,15.2816443 2.08209375,16.3527273 2.08209375,17.4117628 C2.08209375,18.045249 2.17040625,18.6703874 2.30690625,19.227415 C3.28145731,19.767525 4.37490519,20.0501726 5.4860625,20.0492016 C6.01790625,20.0492016 6.55715625,19.9846957 7.10090625,19.8502767 C6.93403125,19.2416443 6.853125,18.6344348 6.853125,18.0317787 C6.853125,16.5981344 7.30265625,15.2223557 8.09925,14.0830672 C7.33153125,13.2446798 6.68025,12.2524269 6.4125,11.1303083 C4.93640625,11.6835415 3.65090625,12.7650593 2.85871875,14.2803794 M12.0454688,23.9655652 C13.5312188,23.3155731 14.78625,22.1222134 15.4827188,20.5235099 C13.7886563,19.8135652 12.5371875,18.4805692 11.9038125,16.941913 C11.3623125,16.6589407 9.96478125,15.8671304 8.6911875,14.6819289 C8.20693381,15.6323642 7.95416354,16.6861369 7.9539375,17.7554466 C7.9539375,18.6659289 8.132625,19.5920632 8.53021875,20.4777866 C9.26015625,22.1327431 10.570125,23.3359684 12.0454688,23.9655652" id="Shape" fill-rule="nonzero"></path>
                    </g>
                </g>
                <path d="M56.8085938,32 L56.8085938,30.96875 L61.2558594,24.9511719 L61.2558594,24.8515625 L56.9316406,24.8515625 L56.9316406,23.5449219 L63.125,23.5449219 L63.125,24.5761719 L58.6953125,30.59375 L58.6953125,30.6933594 L63.2363281,30.6933594 L63.2363281,32 L56.8085938,32 Z M67.625,26.6152344 C66.7578125,26.6152344 66.1484375,27.2363281 66.0839844,28.1738281 L69.1015625,28.1738281 C69.0722656,27.2246094 68.4980469,26.6152344 67.625,26.6152344 Z M69.1132812,30.2363281 L70.4902344,30.2363281 C70.2148438,31.4023438 69.1542969,32.1289062 67.6425781,32.1289062 C65.7558594,32.1289062 64.6191406,30.8808594 64.6191406,28.8183594 C64.6191406,26.7558594 65.7734375,25.4609375 67.6308594,25.4609375 C69.4589844,25.4609375 70.5546875,26.6738281 70.5546875,28.6953125 L70.5546875,29.1640625 L66.078125,29.1640625 L66.078125,29.2402344 C66.1132812,30.3066406 66.7285156,30.9746094 67.6835938,30.9746094 C68.4042969,30.9746094 68.9023438,30.7109375 69.1132812,30.2363281 Z M72.0136719,32 L72.0136719,25.5898438 L73.4140625,25.5898438 L73.4140625,26.6152344 L73.5136719,26.6152344 C73.8183594,25.9003906 74.5683594,25.4609375 75.5292969,25.4609375 C76.9589844,25.4609375 77.7617188,26.3222656 77.7617188,27.8515625 L77.7617188,32 L76.3144531,32 L76.3144531,28.1972656 C76.3144531,27.21875 75.8691406,26.7265625 74.9902344,26.7265625 C74.0527344,26.7265625 73.4667969,27.3242188 73.4667969,28.2675781 L73.4667969,32 L72.0136719,32 Z M81.8046875,32.1054688 C80.1816406,32.1054688 79.1679688,30.828125 79.1679688,28.7890625 C79.1679688,26.7617188 80.1875,25.484375 81.8046875,25.484375 C82.6835938,25.484375 83.4101562,25.90625 83.75,26.609375 L83.8496094,26.609375 L83.8496094,23.1113281 L85.3027344,23.1113281 L85.3027344,32 L83.8964844,32 L83.8964844,30.9863281 L83.796875,30.9863281 C83.4335938,31.6894531 82.6953125,32.1054688 81.8046875,32.1054688 Z M82.2558594,26.7207031 C81.265625,26.7207031 80.65625,27.5058594 80.65625,28.7949219 C80.65625,30.0898438 81.2597656,30.8691406 82.2558594,30.8691406 C83.2578125,30.8691406 83.8671875,30.0839844 83.8671875,28.7949219 C83.8671875,27.5175781 83.2519531,26.7207031 82.2558594,26.7207031 Z M89.8261719,26.6152344 C88.9589844,26.6152344 88.3496094,27.2363281 88.2851562,28.1738281 L91.3027344,28.1738281 C91.2734375,27.2246094 90.6992188,26.6152344 89.8261719,26.6152344 Z M91.3144531,30.2363281 L92.6914062,30.2363281 C92.4160156,31.4023438 91.3554688,32.1289062 89.84375,32.1289062 C87.9570312,32.1289062 86.8203125,30.8808594 86.8203125,28.8183594 C86.8203125,26.7558594 87.9746094,25.4609375 89.8320312,25.4609375 C91.6601562,25.4609375 92.7558594,26.6738281 92.7558594,28.6953125 L92.7558594,29.1640625 L88.2792969,29.1640625 L88.2792969,29.2402344 C88.3144531,30.3066406 88.9296875,30.9746094 89.8847656,30.9746094 C90.6054688,30.9746094 91.1035156,30.7109375 91.3144531,30.2363281 Z M94.0683594,27.4238281 C94.0683594,26.2636719 95.1230469,25.4609375 96.6347656,25.4609375 C98.1582031,25.4609375 99.1132812,26.1347656 99.21875,27.3007812 L97.8535156,27.3007812 C97.7480469,26.8496094 97.3203125,26.5625 96.640625,26.5625 C95.9785156,26.5625 95.4804688,26.8789062 95.4804688,27.3417969 C95.4804688,27.7050781 95.7851562,27.9277344 96.4296875,28.0742188 L97.5605469,28.3320312 C98.7851562,28.6074219 99.3535156,29.1347656 99.3535156,30.078125 C99.3535156,31.3085938 98.2226562,32.1289062 96.6230469,32.1289062 C95.0234375,32.1289062 94.015625,31.4375 93.9042969,30.2714844 L95.3398438,30.2714844 C95.4804688,30.7460938 95.9316406,31.0273438 96.6582031,31.0273438 C97.390625,31.0273438 97.9003906,30.7050781 97.9003906,30.2304688 C97.9003906,29.8671875 97.625,29.6386719 97.015625,29.5039062 L95.8789062,29.2402344 C94.6484375,28.9589844 94.0683594,28.390625 94.0683594,27.4238281 Z M102.435547,28.203125 L104.802734,25.5898438 L106.490234,25.5898438 L103.935547,28.3378906 L106.666016,32 L104.908203,32 L102.851562,29.2519531 L102.335938,29.7675781 L102.335938,32 L100.882812,32 L100.882812,23.1113281 L102.335938,23.1113281 L102.335938,28.203125 L102.435547,28.203125 Z M111.447266,24.0605469 L112.894531,24.0605469 L112.894531,25.6308594 L114.300781,25.6308594 L114.300781,26.7910156 L112.894531,26.7910156 L112.894531,29.9375 C112.894531,30.5703125 113.164062,30.8515625 113.773438,30.8515625 C113.978516,30.8515625 114.083984,30.8398438 114.253906,30.8222656 L114.253906,31.9589844 C114.048828,32 113.785156,32.0292969 113.503906,32.0292969 C112.033203,32.0292969 111.447266,31.53125 111.447266,30.2890625 L111.447266,26.7910156 L110.404297,26.7910156 L110.404297,25.6308594 L111.447266,25.6308594 L111.447266,24.0605469 Z M115.736328,32 L115.736328,25.5898438 L117.183594,25.5898438 L117.183594,32 L115.736328,32 Z M116.457031,24.546875 C115.929688,24.546875 115.560547,24.2070312 115.560547,23.7441406 C115.560547,23.28125 115.929688,22.9414062 116.457031,22.9414062 C116.990234,22.9414062 117.353516,23.28125 117.353516,23.7441406 C117.353516,24.2070312 116.990234,24.546875 116.457031,24.546875 Z M124.519531,27.7460938 L123.136719,27.7460938 C123.001953,27.125 122.521484,26.6796875 121.724609,26.6796875 C120.728516,26.6796875 120.136719,27.4472656 120.136719,28.7773438 C120.136719,30.125 120.734375,30.9101562 121.724609,30.9101562 C122.480469,30.9101562 122.984375,30.5527344 123.136719,29.8847656 L124.519531,29.8847656 C124.361328,31.2265625 123.353516,32.1289062 121.730469,32.1289062 C119.802734,32.1289062 118.666016,30.8867188 118.666016,28.7773438 C118.666016,26.6972656 119.796875,25.4609375 121.724609,25.4609375 C123.371094,25.4609375 124.367188,26.3984375 124.519531,27.7460938 Z M127.519531,28.203125 L129.886719,25.5898438 L131.574219,25.5898438 L129.019531,28.3378906 L131.75,32 L129.992188,32 L127.935547,29.2519531 L127.419922,29.7675781 L127.419922,32 L125.966797,32 L125.966797,23.1113281 L127.419922,23.1113281 L127.419922,28.203125 L127.519531,28.203125 Z M135.558594,26.6152344 C134.691406,26.6152344 134.082031,27.2363281 134.017578,28.1738281 L137.035156,28.1738281 C137.005859,27.2246094 136.431641,26.6152344 135.558594,26.6152344 Z M137.046875,30.2363281 L138.423828,30.2363281 C138.148438,31.4023438 137.087891,32.1289062 135.576172,32.1289062 C133.689453,32.1289062 132.552734,30.8808594 132.552734,28.8183594 C132.552734,26.7558594 133.707031,25.4609375 135.564453,25.4609375 C137.392578,25.4609375 138.488281,26.6738281 138.488281,28.6953125 L138.488281,29.1640625 L134.011719,29.1640625 L134.011719,29.2402344 C134.046875,30.3066406 134.662109,30.9746094 135.617188,30.9746094 C136.337891,30.9746094 136.835938,30.7109375 137.046875,30.2363281 Z M140.410156,24.0605469 L141.857422,24.0605469 L141.857422,25.6308594 L143.263672,25.6308594 L143.263672,26.7910156 L141.857422,26.7910156 L141.857422,29.9375 C141.857422,30.5703125 142.126953,30.8515625 142.736328,30.8515625 C142.941406,30.8515625 143.046875,30.8398438 143.216797,30.8222656 L143.216797,31.9589844 C143.011719,32 142.748047,32.0292969 142.466797,32.0292969 C140.996094,32.0292969 140.410156,31.53125 140.410156,30.2890625 L140.410156,26.7910156 L139.367188,26.7910156 L139.367188,25.6308594 L140.410156,25.6308594 L140.410156,24.0605469 Z" id="Zendesk-ticket" fill="#24124D" opacity="0.5"></path>
                <rect id="Rectangle-9" fill="#DCD5EE" x="16" y="64" width="208" height="12" rx="3"></rect>
                <rect id="Rectangle-9" fill="#5182F8" x="16" y="96" width="136" height="12" rx="3"></rect>
                <rect id="Rectangle-9" fill="#DCD5EE" x="16" y="128" width="208" height="12" rx="3"></rect>
                <rect id="Rectangle-9" fill="#DCD5EE" x="168" y="96" width="56" height="12" rx="3"></rect>
            </g>
            <g id="Card" transform="translate(296.000000, 184.000000)">
                <g id="component/card">
                    <g id="Shadow">
                        <use fill="black" fill-opacity="1" filter="url(#filter-18)" xlink:href="#path-17"></use>
                        <use fill="#FFFFFF" fill-rule="evenodd" xlink:href="#path-17"></use>
                    </g>
                    <g id="Card" stroke-linecap="square">
                        <use fill="black" fill-opacity="1" filter="url(#filter-20)" xlink:href="#path-19"></use>
                        <use fill="#FFFFFF" fill-rule="evenodd" xlink:href="#path-19"></use>
                        <rect stroke-opacity="0.098194067" stroke="#140B2F" stroke-width="1" x="-0.5" y="-0.5" width="249" height="169" rx="3"></rect>
                    </g>
                </g>
                <path d="M56.8085938,32 L56.8085938,30.96875 L61.2558594,24.9511719 L61.2558594,24.8515625 L56.9316406,24.8515625 L56.9316406,23.5449219 L63.125,23.5449219 L63.125,24.5761719 L58.6953125,30.59375 L58.6953125,30.6933594 L63.2363281,30.6933594 L63.2363281,32 L56.8085938,32 Z M67.625,26.6152344 C66.7578125,26.6152344 66.1484375,27.2363281 66.0839844,28.1738281 L69.1015625,28.1738281 C69.0722656,27.2246094 68.4980469,26.6152344 67.625,26.6152344 Z M69.1132812,30.2363281 L70.4902344,30.2363281 C70.2148438,31.4023438 69.1542969,32.1289062 67.6425781,32.1289062 C65.7558594,32.1289062 64.6191406,30.8808594 64.6191406,28.8183594 C64.6191406,26.7558594 65.7734375,25.4609375 67.6308594,25.4609375 C69.4589844,25.4609375 70.5546875,26.6738281 70.5546875,28.6953125 L70.5546875,29.1640625 L66.078125,29.1640625 L66.078125,29.2402344 C66.1132812,30.3066406 66.7285156,30.9746094 67.6835938,30.9746094 C68.4042969,30.9746094 68.9023438,30.7109375 69.1132812,30.2363281 Z M72.0136719,32 L72.0136719,25.5898438 L73.4140625,25.5898438 L73.4140625,26.6152344 L73.5136719,26.6152344 C73.8183594,25.9003906 74.5683594,25.4609375 75.5292969,25.4609375 C76.9589844,25.4609375 77.7617188,26.3222656 77.7617188,27.8515625 L77.7617188,32 L76.3144531,32 L76.3144531,28.1972656 C76.3144531,27.21875 75.8691406,26.7265625 74.9902344,26.7265625 C74.0527344,26.7265625 73.4667969,27.3242188 73.4667969,28.2675781 L73.4667969,32 L72.0136719,32 Z M81.8046875,32.1054688 C80.1816406,32.1054688 79.1679688,30.828125 79.1679688,28.7890625 C79.1679688,26.7617188 80.1875,25.484375 81.8046875,25.484375 C82.6835938,25.484375 83.4101562,25.90625 83.75,26.609375 L83.8496094,26.609375 L83.8496094,23.1113281 L85.3027344,23.1113281 L85.3027344,32 L83.8964844,32 L83.8964844,30.9863281 L83.796875,30.9863281 C83.4335938,31.6894531 82.6953125,32.1054688 81.8046875,32.1054688 Z M82.2558594,26.7207031 C81.265625,26.7207031 80.65625,27.5058594 80.65625,28.7949219 C80.65625,30.0898438 81.2597656,30.8691406 82.2558594,30.8691406 C83.2578125,30.8691406 83.8671875,30.0839844 83.8671875,28.7949219 C83.8671875,27.5175781 83.2519531,26.7207031 82.2558594,26.7207031 Z M89.8261719,26.6152344 C88.9589844,26.6152344 88.3496094,27.2363281 88.2851562,28.1738281 L91.3027344,28.1738281 C91.2734375,27.2246094 90.6992188,26.6152344 89.8261719,26.6152344 Z M91.3144531,30.2363281 L92.6914062,30.2363281 C92.4160156,31.4023438 91.3554688,32.1289062 89.84375,32.1289062 C87.9570312,32.1289062 86.8203125,30.8808594 86.8203125,28.8183594 C86.8203125,26.7558594 87.9746094,25.4609375 89.8320312,25.4609375 C91.6601562,25.4609375 92.7558594,26.6738281 92.7558594,28.6953125 L92.7558594,29.1640625 L88.2792969,29.1640625 L88.2792969,29.2402344 C88.3144531,30.3066406 88.9296875,30.9746094 89.8847656,30.9746094 C90.6054688,30.9746094 91.1035156,30.7109375 91.3144531,30.2363281 Z M94.0683594,27.4238281 C94.0683594,26.2636719 95.1230469,25.4609375 96.6347656,25.4609375 C98.1582031,25.4609375 99.1132812,26.1347656 99.21875,27.3007812 L97.8535156,27.3007812 C97.7480469,26.8496094 97.3203125,26.5625 96.640625,26.5625 C95.9785156,26.5625 95.4804688,26.8789062 95.4804688,27.3417969 C95.4804688,27.7050781 95.7851562,27.9277344 96.4296875,28.0742188 L97.5605469,28.3320312 C98.7851562,28.6074219 99.3535156,29.1347656 99.3535156,30.078125 C99.3535156,31.3085938 98.2226562,32.1289062 96.6230469,32.1289062 C95.0234375,32.1289062 94.015625,31.4375 93.9042969,30.2714844 L95.3398438,30.2714844 C95.4804688,30.7460938 95.9316406,31.0273438 96.6582031,31.0273438 C97.390625,31.0273438 97.9003906,30.7050781 97.9003906,30.2304688 C97.9003906,29.8671875 97.625,29.6386719 97.015625,29.5039062 L95.8789062,29.2402344 C94.6484375,28.9589844 94.0683594,28.390625 94.0683594,27.4238281 Z M102.435547,28.203125 L104.802734,25.5898438 L106.490234,25.5898438 L103.935547,28.3378906 L106.666016,32 L104.908203,32 L102.851562,29.2519531 L102.335938,29.7675781 L102.335938,32 L100.882812,32 L100.882812,23.1113281 L102.335938,23.1113281 L102.335938,28.203125 L102.435547,28.203125 Z M111.447266,24.0605469 L112.894531,24.0605469 L112.894531,25.6308594 L114.300781,25.6308594 L114.300781,26.7910156 L112.894531,26.7910156 L112.894531,29.9375 C112.894531,30.5703125 113.164062,30.8515625 113.773438,30.8515625 C113.978516,30.8515625 114.083984,30.8398438 114.253906,30.8222656 L114.253906,31.9589844 C114.048828,32 113.785156,32.0292969 113.503906,32.0292969 C112.033203,32.0292969 111.447266,31.53125 111.447266,30.2890625 L111.447266,26.7910156 L110.404297,26.7910156 L110.404297,25.6308594 L111.447266,25.6308594 L111.447266,24.0605469 Z M115.736328,32 L115.736328,25.5898438 L117.183594,25.5898438 L117.183594,32 L115.736328,32 Z M116.457031,24.546875 C115.929688,24.546875 115.560547,24.2070312 115.560547,23.7441406 C115.560547,23.28125 115.929688,22.9414062 116.457031,22.9414062 C116.990234,22.9414062 117.353516,23.28125 117.353516,23.7441406 C117.353516,24.2070312 116.990234,24.546875 116.457031,24.546875 Z M124.519531,27.7460938 L123.136719,27.7460938 C123.001953,27.125 122.521484,26.6796875 121.724609,26.6796875 C120.728516,26.6796875 120.136719,27.4472656 120.136719,28.7773438 C120.136719,30.125 120.734375,30.9101562 121.724609,30.9101562 C122.480469,30.9101562 122.984375,30.5527344 123.136719,29.8847656 L124.519531,29.8847656 C124.361328,31.2265625 123.353516,32.1289062 121.730469,32.1289062 C119.802734,32.1289062 118.666016,30.8867188 118.666016,28.7773438 C118.666016,26.6972656 119.796875,25.4609375 121.724609,25.4609375 C123.371094,25.4609375 124.367188,26.3984375 124.519531,27.7460938 Z M127.519531,28.203125 L129.886719,25.5898438 L131.574219,25.5898438 L129.019531,28.3378906 L131.75,32 L129.992188,32 L127.935547,29.2519531 L127.419922,29.7675781 L127.419922,32 L125.966797,32 L125.966797,23.1113281 L127.419922,23.1113281 L127.419922,28.203125 L127.519531,28.203125 Z M135.558594,26.6152344 C134.691406,26.6152344 134.082031,27.2363281 134.017578,28.1738281 L137.035156,28.1738281 C137.005859,27.2246094 136.431641,26.6152344 135.558594,26.6152344 Z M137.046875,30.2363281 L138.423828,30.2363281 C138.148438,31.4023438 137.087891,32.1289062 135.576172,32.1289062 C133.689453,32.1289062 132.552734,30.8808594 132.552734,28.8183594 C132.552734,26.7558594 133.707031,25.4609375 135.564453,25.4609375 C137.392578,25.4609375 138.488281,26.6738281 138.488281,28.6953125 L138.488281,29.1640625 L134.011719,29.1640625 L134.011719,29.2402344 C134.046875,30.3066406 134.662109,30.9746094 135.617188,30.9746094 C136.337891,30.9746094 136.835938,30.7109375 137.046875,30.2363281 Z M140.410156,24.0605469 L141.857422,24.0605469 L141.857422,25.6308594 L143.263672,25.6308594 L143.263672,26.7910156 L141.857422,26.7910156 L141.857422,29.9375 C141.857422,30.5703125 142.126953,30.8515625 142.736328,30.8515625 C142.941406,30.8515625 143.046875,30.8398438 143.216797,30.8222656 L143.216797,31.9589844 C143.011719,32 142.748047,32.0292969 142.466797,32.0292969 C140.996094,32.0292969 140.410156,31.53125 140.410156,30.2890625 L140.410156,26.7910156 L139.367188,26.7910156 L139.367188,25.6308594 L140.410156,25.6308594 L140.410156,24.0605469 Z" id="Zendesk-ticket" fill="#24124D" opacity="0.5"></path>
                <g id="integrations/zendesk" transform="translate(16.000000, 16.000000)" fill="#719C40">
                    <g id="zendesk">
                        <path d="M21.1735313,14.2646324 C20.12325,14.8613123 18.9801563,15.1450435 17.8557188,15.1450435 C17.1227813,15.1450435 16.3973438,15.0220079 15.7846875,14.775083 C14.6645625,15.7973123 13.4592188,16.5133281 12.8524688,16.845913 C13.7314688,18.2568854 15.1289063,19.3414387 16.8557813,19.7767589 C17.3778628,19.9086249 17.9139616,19.9751774 18.4520625,19.9749249 C19.6329375,19.9749249 20.7692813,19.6476522 21.7350938,19.1215494 C21.8780367,18.562117 21.9500524,17.9865546 21.9494063,17.4087273 C21.9494063,16.3415336 21.6972188,15.2629565 21.1735313,14.2646324 M19.8049687,5.85011858 C19.6062187,7.19222134 19.0320937,8.38558103 18.2280937,9.27348617 C18.2702812,9.50912253 18.29925,9.76733597 18.29925,10.037502 C18.2955,11.6069881 17.4951562,12.9722372 16.4952187,14.0710198 C16.781625,14.1070672 17.0700937,14.1272727 17.3564062,14.1272727 C18.7821562,14.1272727 20.218875,13.6650119 21.434625,12.7065296 C22.8388125,11.5919051 23.6836875,10.0194783 23.9277187,8.41631621 C22.9819687,7.1576917 21.5925937,6.25470356 20.0445937,5.86074308 C19.9644375,5.8433834 19.8910312,5.81113043 19.8094687,5.79690119 L19.8049687,5.85021344 M18.7494375,4.70257708 C18.7494375,2.89527273 18.0463125,1.25748617 16.9455,0.0716205534 L16.849875,0.0716205534 C15.2699063,0.0716205534 13.8857813,0.639841897 12.6306563,1.78890119 C13.8300938,3.07911462 14.2610625,4.7153834 14.2610625,6.35079842 C14.2610625,6.48294071 14.2566563,6.61356522 14.2529063,6.7403004 C14.518465,6.67253872 14.7912839,6.63825502 15.0651563,6.63822925 L15.1364063,6.63822925 C16.168125,6.65928854 17.2080938,7.17799209 17.8045313,8.15506719 C18.402375,7.14488538 18.7495313,5.9666087 18.7495313,4.70257708 M6.82940625,0.190956522 C6.7306875,0.190956522 6.6365625,0.190956522 6.60159375,0.171509881 C5.52253125,1.37075099 4.8740625,2.95532016 4.8740625,4.68161265 C4.8740625,4.70627668 4.8740625,4.72733597 4.86525,4.74090119 C4.94015625,4.74090119 5.0158125,4.73862451 5.09296875,4.73862451 C6.91096875,4.73862451 8.57475,5.47114625 9.753375,6.65027668 C10.7429062,6.72085375 11.7554062,7.25226877 12.28875,8.30675099 C12.5750625,7.74004743 13.000125,7.32578656 13.4488125,7.1141502 C13.4488125,7.03901976 13.4518125,6.96028458 13.4518125,6.88297233 C13.4518125,5.03506719 12.696,3.19171542 11.2258125,1.8744664 C9.961875,0.74115415 8.3923125,0.190956522 6.82940625,0.190956522 M8.683125,6.74485375 C7.68984375,6.1586087 6.549,5.82991304 5.3510625,5.82991304 C4.96678125,5.82991304 4.5751875,5.86368379 4.188,5.93501976 C2.42775,6.25470356 0.95615625,7.24543874 0,8.5484585 C0.2596875,10.1606324 1.1015625,11.6782292 2.461125,12.75083 C3.45440625,11.4028458 4.8459375,10.5321107 6.28425,10.2529328 C6.28425,10.1846324 6.28125,10.1080791 6.28125,10.0360791 C6.27825,8.20999209 7.39978125,7.07886166 8.683125,6.74485375 M2.85871875,14.2804743 C2.33278125,15.2816443 2.08209375,16.3527273 2.08209375,17.4117628 C2.08209375,18.045249 2.17040625,18.6703874 2.30690625,19.227415 C3.28145731,19.767525 4.37490519,20.0501726 5.4860625,20.0492016 C6.01790625,20.0492016 6.55715625,19.9846957 7.10090625,19.8502767 C6.93403125,19.2416443 6.853125,18.6344348 6.853125,18.0317787 C6.853125,16.5981344 7.30265625,15.2223557 8.09925,14.0830672 C7.33153125,13.2446798 6.68025,12.2524269 6.4125,11.1303083 C4.93640625,11.6835415 3.65090625,12.7650593 2.85871875,14.2803794 M12.0454688,23.9655652 C13.5312188,23.3155731 14.78625,22.1222134 15.4827188,20.5235099 C13.7886563,19.8135652 12.5371875,18.4805692 11.9038125,16.941913 C11.3623125,16.6589407 9.96478125,15.8671304 8.6911875,14.6819289 C8.20693381,15.6323642 7.95416354,16.6861369 7.9539375,17.7554466 C7.9539375,18.6659289 8.132625,19.5920632 8.53021875,20.4777866 C9.26015625,22.1327431 10.570125,23.3359684 12.0454688,23.9655652" id="Shape" fill-rule="nonzero"></path>
                    </g>
                </g>
                <rect id="Rectangle-9" fill="#DCD5EE" x="16" y="64" width="208" height="12" rx="3"></rect>
                <rect id="Rectangle-9" fill="#DCD5EE" x="16" y="96" width="136" height="12" rx="3"></rect>
                <rect id="Rectangle-9" fill="#5182F8" x="168" y="96" width="56" height="12" rx="3"></rect>
                <rect id="Rectangle-9" fill="#5182F8" x="16" y="128" width="96" height="12" rx="3"></rect>
            </g>
            <g id="Card" transform="translate(296.000000, 368.000000)">
                <g id="component/card">
                    <g id="Shadow">
                        <use fill="black" fill-opacity="1" filter="url(#filter-22)" xlink:href="#path-21"></use>
                        <use fill="#FFFFFF" fill-rule="evenodd" xlink:href="#path-21"></use>
                    </g>
                    <g id="Card" stroke-linecap="square">
                        <use fill="black" fill-opacity="1" filter="url(#filter-24)" xlink:href="#path-23"></use>
                        <use fill="#FFFFFF" fill-rule="evenodd" xlink:href="#path-23"></use>
                        <rect stroke-opacity="0.098194067" stroke="#140B2F" stroke-width="1" x="-0.5" y="-0.5" width="249" height="137" rx="3"></rect>
                    </g>
                </g>
                <g id="integrations/slack" transform="translate(16.000000, 16.000000)">
                    <g id="slack">
                        <path d="M15.559125,1.4848125 C15.1944375,0.36215625 13.988625,-0.2521875 12.8661562,0.1126875 C11.7435,0.477375 11.1291563,1.6831875 11.4940313,2.80565625 L17.0203125,19.808625 C17.3998125,20.8574063 18.5326875,21.4467187 19.6201875,21.1337812 C20.7545625,20.80725 21.4459688,19.6024687 21.084,18.4884375 L15.559125,1.4848125" id="Shape" fill="#DFA22F" fill-rule="nonzero"></path>
                        <path d="M6.9961875,4.267125 C6.6313125,3.1445625 5.42559375,2.53021875 4.303125,2.89490625 C3.180375,3.2596875 2.5659375,4.46540625 2.93090625,5.5880625 L8.45728125,22.591125 C8.8366875,23.6398125 9.96965625,24.2292188 11.0571562,23.916 C12.1914375,23.5896563 12.8828437,22.384875 12.520875,21.2706563 L6.9961875,4.267125" id="Shape" fill="#3CB187" fill-rule="nonzero"></path>
                        <path d="M22.5151875,15.5667187 C23.6378437,15.2020313 24.252,13.9964063 23.8873125,12.8736563 C23.522625,11.7511875 22.3168125,11.13675 21.1943438,11.5015313 L4.191375,17.028 C3.14259375,17.4073125 2.55328125,18.5401875 2.86621875,19.6276875 C3.19275,20.7619687 4.39753125,21.4534687 5.5115625,21.0915 L22.5151875,15.5668125" id="Shape" fill="#CE1E5B" fill-rule="nonzero"></path>
                        <polyline id="Shape" fill="#392538" fill-rule="nonzero" points="7.735125 20.3690625 11.7989062 19.0486875 10.4783438 14.9844375 6.41428125 16.305375 7.735125 20.3691563"></polyline>
                        <path d="M16.2981563,17.5866562 C17.8345313,17.087625 19.2625313,16.6235625 20.3620313,16.2662812 L19.0412813,12.2012812 L14.9772188,13.5222187 L16.2981563,17.5866562" id="Shape" fill="#BB242A" fill-rule="nonzero"></path>
                        <path d="M19.732875,7.0036875 C20.8554375,6.639 21.4697813,5.43328125 21.1050938,4.31053125 C20.7404062,3.1880625 19.5345937,2.57371875 18.4119375,2.93840625 L1.408875,8.46496875 C0.3601875,8.84409375 -0.22921875,9.9770625 0.084,11.0645625 C0.41034375,12.19875 1.615125,12.89025 2.72934375,12.5282813 L19.732875,7.00359375" id="Shape" fill="#72C5CD" fill-rule="nonzero"></path>
                        <path d="M4.9520625,11.8062187 C6.05878125,11.4465937 7.48565625,10.9829062 9.0165,10.4856562 C8.51746875,8.94909375 8.05340625,7.52109375 7.696125,6.42140625 L3.631125,7.74253125 L4.9520625,11.8062187" id="Shape" fill="#248C73" fill-rule="nonzero"></path>
                        <path d="M13.515,9.024 L17.579625,7.70325 C17.1394003,6.34823162 16.6991191,4.99323162 16.2587812,3.63825 L12.1940625,4.959375 L13.515,9.024" id="Shape" fill="#62803A" fill-rule="nonzero"></path>
                    </g>
                </g>
                <path d="M56.65625,29.703125 L58.1328125,29.703125 C58.2265625,30.4589844 58.9765625,30.9453125 60.0488281,30.9453125 C61.0449219,30.9453125 61.765625,30.4355469 61.765625,29.7265625 C61.765625,29.1171875 61.3027344,28.7597656 60.21875,28.5078125 L59.1230469,28.2558594 C57.5878906,27.9101562 56.8671875,27.1484375 56.8671875,25.8886719 C56.8671875,24.3535156 58.1210938,23.3339844 60.0136719,23.3339844 C61.7890625,23.3339844 63.0722656,24.3535156 63.1425781,25.8066406 L61.6953125,25.8066406 C61.5898438,25.0625 60.9335938,24.59375 60.0078125,24.59375 C59.0351562,24.59375 58.390625,25.0625 58.390625,25.7832031 C58.390625,26.3515625 58.8183594,26.6855469 59.8671875,26.9257812 L60.8398438,27.1484375 C62.5566406,27.5351562 63.2773438,28.25 63.2773438,29.5390625 C63.2773438,31.1855469 62.0058594,32.2109375 59.9550781,32.2109375 C58.015625,32.2109375 56.7324219,31.2382812 56.65625,29.703125 Z M64.8828125,32 L64.8828125,23.1113281 L66.3359375,23.1113281 L66.3359375,32 L64.8828125,32 Z M70.3613281,30.9628906 C71.2402344,30.9628906 71.8964844,30.3945312 71.8964844,29.6503906 L71.8964844,29.140625 L70.4492188,29.234375 C69.6347656,29.2871094 69.2539062,29.5800781 69.2539062,30.1015625 C69.2539062,30.640625 69.7167969,30.9628906 70.3613281,30.9628906 Z M69.9335938,32.1054688 C68.6972656,32.1054688 67.8125,31.3554688 67.8125,30.1835938 C67.8125,29.0234375 68.6855469,28.3554688 70.2441406,28.2617188 L71.8964844,28.1621094 L71.8964844,27.6230469 C71.8964844,26.9960938 71.4746094,26.6445312 70.6894531,26.6445312 C70.0214844,26.6445312 69.5644531,26.8789062 69.4296875,27.3125 L68.0585938,27.3125 C68.1757812,26.1816406 69.2363281,25.4609375 70.7597656,25.4609375 C72.40625,25.4609375 73.3320312,26.2636719 73.3320312,27.6230469 L73.3320312,32 L71.9316406,32 L71.9316406,31.1210938 L71.8320312,31.1210938 C71.4746094,31.7421875 70.7714844,32.1054688 69.9335938,32.1054688 Z M80.6152344,27.7460938 L79.2324219,27.7460938 C79.0976562,27.125 78.6171875,26.6796875 77.8203125,26.6796875 C76.8242188,26.6796875 76.2324219,27.4472656 76.2324219,28.7773438 C76.2324219,30.125 76.8300781,30.9101562 77.8203125,30.9101562 C78.5761719,30.9101562 79.0800781,30.5527344 79.2324219,29.8847656 L80.6152344,29.8847656 C80.4570312,31.2265625 79.4492188,32.1289062 77.8261719,32.1289062 C75.8984375,32.1289062 74.7617188,30.8867188 74.7617188,28.7773438 C74.7617188,26.6972656 75.8925781,25.4609375 77.8203125,25.4609375 C79.4667969,25.4609375 80.4628906,26.3984375 80.6152344,27.7460938 Z M83.6152344,28.203125 L85.9824219,25.5898438 L87.6699219,25.5898438 L85.1152344,28.3378906 L87.8457031,32 L86.0878906,32 L84.03125,29.2519531 L83.515625,29.7675781 L83.515625,32 L82.0625,32 L82.0625,23.1113281 L83.515625,23.1113281 L83.515625,28.203125 L83.6152344,28.203125 Z M92.1640625,32 L92.1640625,25.5898438 L93.5644531,25.5898438 L93.5644531,26.6269531 L93.6640625,26.6269531 C93.9394531,25.8945312 94.5957031,25.4609375 95.4453125,25.4609375 C96.3300781,25.4609375 96.9453125,25.90625 97.2148438,26.6269531 L97.3144531,26.6269531 C97.6308594,25.9238281 98.3691406,25.4609375 99.2597656,25.4609375 C100.542969,25.4609375 101.316406,26.2636719 101.316406,27.59375 L101.316406,32 L99.8691406,32 L99.8691406,27.9628906 C99.8691406,27.1367188 99.4765625,26.7265625 98.6972656,26.7265625 C97.9414062,26.7265625 97.4433594,27.2773438 97.4433594,28.0097656 L97.4433594,32 L96.03125,32 L96.03125,27.8574219 C96.03125,27.1542969 95.5859375,26.7265625 94.8710938,26.7265625 C94.1503906,26.7265625 93.6171875,27.3183594 93.6171875,28.1035156 L93.6171875,32 L92.1640625,32 Z M105.728516,26.6152344 C104.861328,26.6152344 104.251953,27.2363281 104.1875,28.1738281 L107.205078,28.1738281 C107.175781,27.2246094 106.601562,26.6152344 105.728516,26.6152344 Z M107.216797,30.2363281 L108.59375,30.2363281 C108.318359,31.4023438 107.257812,32.1289062 105.746094,32.1289062 C103.859375,32.1289062 102.722656,30.8808594 102.722656,28.8183594 C102.722656,26.7558594 103.876953,25.4609375 105.734375,25.4609375 C107.5625,25.4609375 108.658203,26.6738281 108.658203,28.6953125 L108.658203,29.1640625 L104.181641,29.1640625 L104.181641,29.2402344 C104.216797,30.3066406 104.832031,30.9746094 105.787109,30.9746094 C106.507812,30.9746094 107.005859,30.7109375 107.216797,30.2363281 Z M109.970703,27.4238281 C109.970703,26.2636719 111.025391,25.4609375 112.537109,25.4609375 C114.060547,25.4609375 115.015625,26.1347656 115.121094,27.3007812 L113.755859,27.3007812 C113.650391,26.8496094 113.222656,26.5625 112.542969,26.5625 C111.880859,26.5625 111.382812,26.8789062 111.382812,27.3417969 C111.382812,27.7050781 111.6875,27.9277344 112.332031,28.0742188 L113.462891,28.3320312 C114.6875,28.6074219 115.255859,29.1347656 115.255859,30.078125 C115.255859,31.3085938 114.125,32.1289062 112.525391,32.1289062 C110.925781,32.1289062 109.917969,31.4375 109.806641,30.2714844 L111.242188,30.2714844 C111.382812,30.7460938 111.833984,31.0273438 112.560547,31.0273438 C113.292969,31.0273438 113.802734,30.7050781 113.802734,30.2304688 C113.802734,29.8671875 113.527344,29.6386719 112.917969,29.5039062 L111.78125,29.2402344 C110.550781,28.9589844 109.970703,28.390625 109.970703,27.4238281 Z M116.580078,27.4238281 C116.580078,26.2636719 117.634766,25.4609375 119.146484,25.4609375 C120.669922,25.4609375 121.625,26.1347656 121.730469,27.3007812 L120.365234,27.3007812 C120.259766,26.8496094 119.832031,26.5625 119.152344,26.5625 C118.490234,26.5625 117.992188,26.8789062 117.992188,27.3417969 C117.992188,27.7050781 118.296875,27.9277344 118.941406,28.0742188 L120.072266,28.3320312 C121.296875,28.6074219 121.865234,29.1347656 121.865234,30.078125 C121.865234,31.3085938 120.734375,32.1289062 119.134766,32.1289062 C117.535156,32.1289062 116.527344,31.4375 116.416016,30.2714844 L117.851562,30.2714844 C117.992188,30.7460938 118.443359,31.0273438 119.169922,31.0273438 C119.902344,31.0273438 120.412109,30.7050781 120.412109,30.2304688 C120.412109,29.8671875 120.136719,29.6386719 119.527344,29.5039062 L118.390625,29.2402344 C117.160156,28.9589844 116.580078,28.390625 116.580078,27.4238281 Z M125.527344,30.9628906 C126.40625,30.9628906 127.0625,30.3945312 127.0625,29.6503906 L127.0625,29.140625 L125.615234,29.234375 C124.800781,29.2871094 124.419922,29.5800781 124.419922,30.1015625 C124.419922,30.640625 124.882812,30.9628906 125.527344,30.9628906 Z M125.099609,32.1054688 C123.863281,32.1054688 122.978516,31.3554688 122.978516,30.1835938 C122.978516,29.0234375 123.851562,28.3554688 125.410156,28.2617188 L127.0625,28.1621094 L127.0625,27.6230469 C127.0625,26.9960938 126.640625,26.6445312 125.855469,26.6445312 C125.1875,26.6445312 124.730469,26.8789062 124.595703,27.3125 L123.224609,27.3125 C123.341797,26.1816406 124.402344,25.4609375 125.925781,25.4609375 C127.572266,25.4609375 128.498047,26.2636719 128.498047,27.6230469 L128.498047,32 L127.097656,32 L127.097656,31.1210938 L126.998047,31.1210938 C126.640625,31.7421875 125.9375,32.1054688 125.099609,32.1054688 Z M134.621094,28.7246094 C134.621094,27.5 134.005859,26.7207031 132.998047,26.7207031 C131.984375,26.7207031 131.410156,27.5 131.410156,28.7246094 C131.410156,29.9492188 131.984375,30.7226562 132.998047,30.7226562 C134.011719,30.7226562 134.621094,29.9492188 134.621094,28.7246094 Z M132.998047,34.4375 C131.351562,34.4375 130.273438,33.7109375 130.15625,32.609375 L131.615234,32.609375 C131.708984,33.0488281 132.224609,33.3300781 133.021484,33.3300781 C134.017578,33.3300781 134.597656,32.8613281 134.597656,32.0585938 L134.597656,30.8457031 L134.498047,30.8457031 C134.128906,31.53125 133.431641,31.90625 132.541016,31.90625 C130.923828,31.90625 129.916016,30.6523438 129.916016,28.7246094 C129.916016,26.7617188 130.929688,25.484375 132.564453,25.484375 C133.4375,25.484375 134.199219,25.9179688 134.550781,26.6152344 L134.650391,26.6152344 L134.650391,25.5898438 L136.050781,25.5898438 L136.050781,32.0234375 C136.050781,33.5058594 134.867188,34.4375 132.998047,34.4375 Z M140.521484,26.6152344 C139.654297,26.6152344 139.044922,27.2363281 138.980469,28.1738281 L141.998047,28.1738281 C141.96875,27.2246094 141.394531,26.6152344 140.521484,26.6152344 Z M142.009766,30.2363281 L143.386719,30.2363281 C143.111328,31.4023438 142.050781,32.1289062 140.539062,32.1289062 C138.652344,32.1289062 137.515625,30.8808594 137.515625,28.8183594 C137.515625,26.7558594 138.669922,25.4609375 140.527344,25.4609375 C142.355469,25.4609375 143.451172,26.6738281 143.451172,28.6953125 L143.451172,29.1640625 L138.974609,29.1640625 L138.974609,29.2402344 C139.009766,30.3066406 139.625,30.9746094 140.580078,30.9746094 C141.300781,30.9746094 141.798828,30.7109375 142.009766,30.2363281 Z" id="Slack-message" fill="#24124D" opacity="0.5"></path>
                <rect id="Rectangle-9" fill="#5182F8" x="16" y="64" width="208" height="12" rx="3"></rect>
                <rect id="Rectangle-9" fill="#DCD5EE" x="16" y="96" width="136" height="12" rx="3"></rect>
            </g>
            <g id="Card" transform="translate(560.000000, 208.000000)">
                <g id="component/card">
                    <g id="Shadow">
                        <use fill="black" fill-opacity="1" filter="url(#filter-26)" xlink:href="#path-25"></use>
                        <use fill="#FFFFFF" fill-rule="evenodd" xlink:href="#path-25"></use>
                    </g>
                    <g id="Card" stroke-linecap="square">
                        <use fill="black" fill-opacity="1" filter="url(#filter-28)" xlink:href="#path-27"></use>
                        <use fill="#FFFFFF" fill-rule="evenodd" xlink:href="#path-27"></use>
                        <rect stroke-opacity="0.098194067" stroke="#140B2F" stroke-width="1" x="-0.5" y="-0.5" width="241" height="169" rx="3"></rect>
                    </g>
                </g>
                <g id="integrations/intercom" transform="translate(16.000000, 16.000000)" fill="#1F8DED">
                    <g id="intercom">
                        <path d="M20.8000312,13.195125 C20.7952848,13.6335832 20.4384995,13.986527 20.0000156,13.986527 C19.5615317,13.986527 19.2047465,13.6335832 19.2,13.195125 L19.2,6 C19.2047465,5.56154178 19.5615317,5.20859797 20.0000156,5.20859797 C20.4384995,5.20859797 20.7952848,5.56154178 20.8000312,6 L20.8000312,13.195125 Z M20.5208437,18.2025937 C20.3971875,18.3084375 17.4336562,20.79525 12,20.79525 C6.5664375,20.79525 3.603,18.3083437 3.47934375,18.2025 C3.14394656,17.9148998 3.10512546,17.4098898 3.392625,17.0744063 C3.67947459,16.7394938 4.18329687,16.6999865 4.51884375,16.9860938 C4.5658125,17.0254688 7.2121875,19.195125 12.0000938,19.195125 C16.8480938,19.195125 19.4535,17.0098125 19.4792812,16.9877813 C19.8140625,16.70025 20.3200312,16.738875 20.607375,17.0745 C20.8949738,17.4099162 20.8562337,17.9149643 20.5208437,18.2025938 Z M3.19996875,6 C3.20471522,5.56154178 3.56150047,5.20859797 3.99998438,5.20859797 C4.43846828,5.20859797 4.79525353,5.56154178 4.8,6 L4.8,13.195125 C4.79525353,13.6335832 4.43846828,13.986527 3.99998438,13.986527 C3.56150047,13.986527 3.20471522,13.6335832 3.19996875,13.195125 L3.19996875,6 Z M7.20009375,4.39996875 C7.20678479,3.96293326 7.56297579,3.61215382 8.0000625,3.61215382 C8.43714921,3.61215382 8.79334021,3.96293326 8.80003125,4.39996875 L8.80003125,15.0875625 C8.79334021,15.524598 8.43714921,15.8753774 8.0000625,15.8753774 C7.56297579,15.8753774 7.20678479,15.524598 7.20009375,15.0875625 L7.20009375,4.4000625 L7.20009375,4.39996875 Z M11.2000313,3.99515625 C11.2000064,3.78298372 11.2842806,3.57949409 11.4343092,3.42946546 C11.5843378,3.27943682 11.7878275,3.19516263 12,3.1951875 C12.2121888,3.19513776 12.4157025,3.27940097 12.5657514,3.4294323 C12.7158003,3.57946363 12.8000874,3.78296748 12.8000625,3.99515625 L12.8000625,15.595125 C12.795316,16.0335832 12.4385308,16.386527 12.0000469,16.386527 C11.561563,16.386527 11.2047777,16.0335832 11.2000312,15.595125 L11.2000312,3.99515625 Z M15.2000625,4.39996875 C15.2067535,3.96293326 15.5629445,3.61215382 16.0000312,3.61215382 C16.437118,3.61215382 16.793309,3.96293326 16.8,4.39996875 L16.8,15.0875625 C16.793309,15.524598 16.437118,15.8753774 16.0000312,15.8753774 C15.5629445,15.8753774 15.2067535,15.524598 15.2000625,15.0875625 L15.2000625,4.4000625 L15.2000625,4.39996875 Z M21,0 L3,0 C1.34315625,0 0,1.34315625 0,3 L0,21 C0,22.65675 1.34315625,24 3,24 L21,24 C22.6568438,24 24,22.65675 24,21 L24,3 C24,1.34315625 22.6568438,0 21,0 Z" id="Shape" fill-rule="nonzero"></path>
                    </g>
                </g>
                <path d="M58.5546875,32 L57.0429688,32 L57.0429688,23.5449219 L58.5546875,23.5449219 L58.5546875,32 Z M60.4882812,32 L60.4882812,25.5898438 L61.8886719,25.5898438 L61.8886719,26.6152344 L61.9882812,26.6152344 C62.2929688,25.9003906 63.0429688,25.4609375 64.0039062,25.4609375 C65.4335938,25.4609375 66.2363281,26.3222656 66.2363281,27.8515625 L66.2363281,32 L64.7890625,32 L64.7890625,28.1972656 C64.7890625,27.21875 64.34375,26.7265625 63.4648438,26.7265625 C62.5273438,26.7265625 61.9414062,27.3242188 61.9414062,28.2675781 L61.9414062,32 L60.4882812,32 Z M68.421875,24.0605469 L69.8691406,24.0605469 L69.8691406,25.6308594 L71.2753906,25.6308594 L71.2753906,26.7910156 L69.8691406,26.7910156 L69.8691406,29.9375 C69.8691406,30.5703125 70.1386719,30.8515625 70.7480469,30.8515625 C70.953125,30.8515625 71.0585938,30.8398438 71.2285156,30.8222656 L71.2285156,31.9589844 C71.0234375,32 70.7597656,32.0292969 70.4785156,32.0292969 C69.0078125,32.0292969 68.421875,31.53125 68.421875,30.2890625 L68.421875,26.7910156 L67.3789062,26.7910156 L67.3789062,25.6308594 L68.421875,25.6308594 L68.421875,24.0605469 Z M75.3828125,26.6152344 C74.515625,26.6152344 73.90625,27.2363281 73.8417969,28.1738281 L76.859375,28.1738281 C76.8300781,27.2246094 76.2558594,26.6152344 75.3828125,26.6152344 Z M76.8710938,30.2363281 L78.2480469,30.2363281 C77.9726562,31.4023438 76.9121094,32.1289062 75.4003906,32.1289062 C73.5136719,32.1289062 72.3769531,30.8808594 72.3769531,28.8183594 C72.3769531,26.7558594 73.53125,25.4609375 75.3886719,25.4609375 C77.2167969,25.4609375 78.3125,26.6738281 78.3125,28.6953125 L78.3125,29.1640625 L73.8359375,29.1640625 L73.8359375,29.2402344 C73.8710938,30.3066406 74.4863281,30.9746094 75.4414062,30.9746094 C76.1621094,30.9746094 76.6601562,30.7109375 76.8710938,30.2363281 Z M79.7714844,32 L79.7714844,25.5898438 L81.171875,25.5898438 L81.171875,26.5859375 L81.2714844,26.5859375 C81.4472656,25.953125 82.1328125,25.484375 82.953125,25.484375 C83.1582031,25.484375 83.4101562,25.5078125 83.5507812,25.5488281 L83.5507812,26.8964844 C83.4394531,26.8554688 83.0410156,26.8144531 82.8125,26.8144531 C81.8808594,26.8144531 81.2246094,27.4003906 81.2246094,28.296875 L81.2246094,32 L79.7714844,32 Z M90.2304688,27.7460938 L88.8476562,27.7460938 C88.7128906,27.125 88.2324219,26.6796875 87.4355469,26.6796875 C86.4394531,26.6796875 85.8476562,27.4472656 85.8476562,28.7773438 C85.8476562,30.125 86.4453125,30.9101562 87.4355469,30.9101562 C88.1914062,30.9101562 88.6953125,30.5527344 88.8476562,29.8847656 L90.2304688,29.8847656 C90.0722656,31.2265625 89.0644531,32.1289062 87.4414062,32.1289062 C85.5136719,32.1289062 84.3769531,30.8867188 84.3769531,28.7773438 C84.3769531,26.6972656 85.5078125,25.4609375 87.4355469,25.4609375 C89.0820312,25.4609375 90.078125,26.3984375 90.2304688,27.7460938 Z M94.3847656,30.9101562 C95.3984375,30.9101562 95.9726562,30.1367188 95.9726562,28.7949219 C95.9726562,27.4589844 95.3925781,26.6796875 94.3847656,26.6796875 C93.3710938,26.6796875 92.7910156,27.4589844 92.7910156,28.7949219 C92.7910156,30.1367188 93.3710938,30.9101562 94.3847656,30.9101562 Z M94.3847656,32.1289062 C92.4628906,32.1289062 91.3027344,30.875 91.3027344,28.7949219 C91.3027344,26.7265625 92.4804688,25.4609375 94.3847656,25.4609375 C96.2949219,25.4609375 97.4667969,26.7207031 97.4667969,28.7949219 C97.4667969,30.875 96.3007812,32.1289062 94.3847656,32.1289062 Z M98.9316406,32 L98.9316406,25.5898438 L100.332031,25.5898438 L100.332031,26.6269531 L100.431641,26.6269531 C100.707031,25.8945312 101.363281,25.4609375 102.212891,25.4609375 C103.097656,25.4609375 103.712891,25.90625 103.982422,26.6269531 L104.082031,26.6269531 C104.398438,25.9238281 105.136719,25.4609375 106.027344,25.4609375 C107.310547,25.4609375 108.083984,26.2636719 108.083984,27.59375 L108.083984,32 L106.636719,32 L106.636719,27.9628906 C106.636719,27.1367188 106.244141,26.7265625 105.464844,26.7265625 C104.708984,26.7265625 104.210938,27.2773438 104.210938,28.0097656 L104.210938,32 L102.798828,32 L102.798828,27.8574219 C102.798828,27.1542969 102.353516,26.7265625 101.638672,26.7265625 C100.917969,26.7265625 100.384766,27.3183594 100.384766,28.1035156 L100.384766,32 L98.9316406,32 Z M118.542969,27.7460938 L117.160156,27.7460938 C117.025391,27.125 116.544922,26.6796875 115.748047,26.6796875 C114.751953,26.6796875 114.160156,27.4472656 114.160156,28.7773438 C114.160156,30.125 114.757812,30.9101562 115.748047,30.9101562 C116.503906,30.9101562 117.007812,30.5527344 117.160156,29.8847656 L118.542969,29.8847656 C118.384766,31.2265625 117.376953,32.1289062 115.753906,32.1289062 C113.826172,32.1289062 112.689453,30.8867188 112.689453,28.7773438 C112.689453,26.6972656 113.820312,25.4609375 115.748047,25.4609375 C117.394531,25.4609375 118.390625,26.3984375 118.542969,27.7460938 Z M122.697266,30.9101562 C123.710938,30.9101562 124.285156,30.1367188 124.285156,28.7949219 C124.285156,27.4589844 123.705078,26.6796875 122.697266,26.6796875 C121.683594,26.6796875 121.103516,27.4589844 121.103516,28.7949219 C121.103516,30.1367188 121.683594,30.9101562 122.697266,30.9101562 Z M122.697266,32.1289062 C120.775391,32.1289062 119.615234,30.875 119.615234,28.7949219 C119.615234,26.7265625 120.792969,25.4609375 122.697266,25.4609375 C124.607422,25.4609375 125.779297,26.7207031 125.779297,28.7949219 C125.779297,30.875 124.613281,32.1289062 122.697266,32.1289062 Z M127.244141,32 L127.244141,25.5898438 L128.644531,25.5898438 L128.644531,26.6152344 L128.744141,26.6152344 C129.048828,25.9003906 129.798828,25.4609375 130.759766,25.4609375 C132.189453,25.4609375 132.992188,26.3222656 132.992188,27.8515625 L132.992188,32 L131.544922,32 L131.544922,28.1972656 C131.544922,27.21875 131.099609,26.7265625 130.220703,26.7265625 C129.283203,26.7265625 128.697266,27.3242188 128.697266,28.2675781 L128.697266,32 L127.244141,32 Z M134.158203,25.5898438 L135.716797,25.5898438 L137.199219,30.546875 L137.298828,30.546875 L138.769531,25.5898438 L140.304688,25.5898438 L138.037109,32 L136.4375,32 L134.158203,25.5898438 Z M144.21875,26.6152344 C143.351562,26.6152344 142.742188,27.2363281 142.677734,28.1738281 L145.695312,28.1738281 C145.666016,27.2246094 145.091797,26.6152344 144.21875,26.6152344 Z M145.707031,30.2363281 L147.083984,30.2363281 C146.808594,31.4023438 145.748047,32.1289062 144.236328,32.1289062 C142.349609,32.1289062 141.212891,30.8808594 141.212891,28.8183594 C141.212891,26.7558594 142.367188,25.4609375 144.224609,25.4609375 C146.052734,25.4609375 147.148438,26.6738281 147.148438,28.6953125 L147.148438,29.1640625 L142.671875,29.1640625 L142.671875,29.2402344 C142.707031,30.3066406 143.322266,30.9746094 144.277344,30.9746094 C144.998047,30.9746094 145.496094,30.7109375 145.707031,30.2363281 Z M148.607422,32 L148.607422,25.5898438 L150.007812,25.5898438 L150.007812,26.5859375 L150.107422,26.5859375 C150.283203,25.953125 150.96875,25.484375 151.789062,25.484375 C151.994141,25.484375 152.246094,25.5078125 152.386719,25.5488281 L152.386719,26.8964844 C152.275391,26.8554688 151.876953,26.8144531 151.648438,26.8144531 C150.716797,26.8144531 150.060547,27.4003906 150.060547,28.296875 L150.060547,32 L148.607422,32 Z M153.382812,27.4238281 C153.382812,26.2636719 154.4375,25.4609375 155.949219,25.4609375 C157.472656,25.4609375 158.427734,26.1347656 158.533203,27.3007812 L157.167969,27.3007812 C157.0625,26.8496094 156.634766,26.5625 155.955078,26.5625 C155.292969,26.5625 154.794922,26.8789062 154.794922,27.3417969 C154.794922,27.7050781 155.099609,27.9277344 155.744141,28.0742188 L156.875,28.3320312 C158.099609,28.6074219 158.667969,29.1347656 158.667969,30.078125 C158.667969,31.3085938 157.537109,32.1289062 155.9375,32.1289062 C154.337891,32.1289062 153.330078,31.4375 153.21875,30.2714844 L154.654297,30.2714844 C154.794922,30.7460938 155.246094,31.0273438 155.972656,31.0273438 C156.705078,31.0273438 157.214844,30.7050781 157.214844,30.2304688 C157.214844,29.8671875 156.939453,29.6386719 156.330078,29.5039062 L155.193359,29.2402344 C153.962891,28.9589844 153.382812,28.390625 153.382812,27.4238281 Z M162.330078,30.9628906 C163.208984,30.9628906 163.865234,30.3945312 163.865234,29.6503906 L163.865234,29.140625 L162.417969,29.234375 C161.603516,29.2871094 161.222656,29.5800781 161.222656,30.1015625 C161.222656,30.640625 161.685547,30.9628906 162.330078,30.9628906 Z M161.902344,32.1054688 C160.666016,32.1054688 159.78125,31.3554688 159.78125,30.1835938 C159.78125,29.0234375 160.654297,28.3554688 162.212891,28.2617188 L163.865234,28.1621094 L163.865234,27.6230469 C163.865234,26.9960938 163.443359,26.6445312 162.658203,26.6445312 C161.990234,26.6445312 161.533203,26.8789062 161.398438,27.3125 L160.027344,27.3125 C160.144531,26.1816406 161.205078,25.4609375 162.728516,25.4609375 C164.375,25.4609375 165.300781,26.2636719 165.300781,27.6230469 L165.300781,32 L163.900391,32 L163.900391,31.1210938 L163.800781,31.1210938 C163.443359,31.7421875 162.740234,32.1054688 161.902344,32.1054688 Z M167.509766,24.0605469 L168.957031,24.0605469 L168.957031,25.6308594 L170.363281,25.6308594 L170.363281,26.7910156 L168.957031,26.7910156 L168.957031,29.9375 C168.957031,30.5703125 169.226562,30.8515625 169.835938,30.8515625 C170.041016,30.8515625 170.146484,30.8398438 170.316406,30.8222656 L170.316406,31.9589844 C170.111328,32 169.847656,32.0292969 169.566406,32.0292969 C168.095703,32.0292969 167.509766,31.53125 167.509766,30.2890625 L167.509766,26.7910156 L166.466797,26.7910156 L166.466797,25.6308594 L167.509766,25.6308594 L167.509766,24.0605469 Z M171.798828,32 L171.798828,25.5898438 L173.246094,25.5898438 L173.246094,32 L171.798828,32 Z M172.519531,24.546875 C171.992188,24.546875 171.623047,24.2070312 171.623047,23.7441406 C171.623047,23.28125 171.992188,22.9414062 172.519531,22.9414062 C173.052734,22.9414062 173.416016,23.28125 173.416016,23.7441406 C173.416016,24.2070312 173.052734,24.546875 172.519531,24.546875 Z M177.810547,30.9101562 C178.824219,30.9101562 179.398438,30.1367188 179.398438,28.7949219 C179.398438,27.4589844 178.818359,26.6796875 177.810547,26.6796875 C176.796875,26.6796875 176.216797,27.4589844 176.216797,28.7949219 C176.216797,30.1367188 176.796875,30.9101562 177.810547,30.9101562 Z M177.810547,32.1289062 C175.888672,32.1289062 174.728516,30.875 174.728516,28.7949219 C174.728516,26.7265625 175.90625,25.4609375 177.810547,25.4609375 C179.720703,25.4609375 180.892578,26.7207031 180.892578,28.7949219 C180.892578,30.875 179.726562,32.1289062 177.810547,32.1289062 Z M182.357422,32 L182.357422,25.5898438 L183.757812,25.5898438 L183.757812,26.6152344 L183.857422,26.6152344 C184.162109,25.9003906 184.912109,25.4609375 185.873047,25.4609375 C187.302734,25.4609375 188.105469,26.3222656 188.105469,27.8515625 L188.105469,32 L186.658203,32 L186.658203,28.1972656 C186.658203,27.21875 186.212891,26.7265625 185.333984,26.7265625 C184.396484,26.7265625 183.810547,27.3242188 183.810547,28.2675781 L183.810547,32 L182.357422,32 Z" id="Intercom-conversatio" fill="#24124D" opacity="0.5"></path>
                <rect id="Rectangle-9" fill="#DCD5EE" x="16" y="128" width="96" height="12" rx="3"></rect>
                <rect id="Rectangle-9" fill="#DCD5EE" x="128" y="128" width="96" height="12" rx="3"></rect>
                <rect id="Rectangle-9" fill="#F84F77" x="16" y="96" width="136" height="12" rx="3"></rect>
                <rect id="Rectangle-9" fill="#F84F77" x="16" y="64" width="208" height="12" rx="3"></rect>
            </g>
        </g>
    </g>
</svg>