<?xml version="1.0" encoding="UTF-8"?>
<svg width="400px" height="320px" viewBox="0 0 400 320" version="1.1" xmlns="http://www.w3.org/2000/svg" xmlns:xlink="http://www.w3.org/1999/xlink">
    <!-- Generator: Sketch 51 (57462) - http://www.bohemiancoding.com/sketch -->
    <title>snippet/highlight-edit</title>
    <desc>Created with Sketch.</desc>
    <defs>
        <path d="M3,8 L365,8 C366.656854,8 368,9.34314575 368,11 L368,64 L0,64 L0,11 C-2.02906125e-16,9.34314575 1.34314575,8 3,8 Z" id="path-1"></path>
        <filter x="-3.3%" y="-21.4%" width="106.5%" height="142.9%" filterUnits="objectBoundingBox" id="filter-2">
            <feOffset dx="0" dy="0" in="SourceAlpha" result="shadowOffsetOuter1"></feOffset>
            <feGaussianBlur stdDeviation="4" in="shadowOffsetOuter1" result="shadowBlurOuter1"></feGaussianBlur>
            <feColorMatrix values="0 0 0 0 0   0 0 0 0 0   0 0 0 0 0  0 0 0 0.16 0" type="matrix" in="shadowBlurOuter1"></feColorMatrix>
        </filter>
        <rect id="path-3" x="0" y="0" width="48" height="32" rx="4"></rect>
        <filter x="-9.4%" y="-10.9%" width="118.8%" height="128.1%" filterUnits="objectBoundingBox" id="filter-4">
            <feMorphology radius="1" operator="dilate" in="SourceAlpha" result="shadowSpreadOuter1"></feMorphology>
            <feOffset dx="0" dy="1" in="shadowSpreadOuter1" result="shadowOffsetOuter1"></feOffset>
            <feGaussianBlur stdDeviation="1" in="shadowOffsetOuter1" result="shadowBlurOuter1"></feGaussianBlur>
            <feComposite in="shadowBlurOuter1" in2="SourceAlpha" operator="out" result="shadowBlurOuter1"></feComposite>
            <feColorMatrix values="0 0 0 0 0   0 0 0 0 0   0 0 0 0 0  0 0 0 0.04 0" type="matrix" in="shadowBlurOuter1"></feColorMatrix>
        </filter>
        <rect id="path-5" x="0" y="0" width="71" height="32" rx="4"></rect>
        <filter x="-6.3%" y="-10.9%" width="112.7%" height="128.1%" filterUnits="objectBoundingBox" id="filter-6">
            <feMorphology radius="1" operator="dilate" in="SourceAlpha" result="shadowSpreadOuter1"></feMorphology>
            <feOffset dx="0" dy="1" in="shadowSpreadOuter1" result="shadowOffsetOuter1"></feOffset>
            <feGaussianBlur stdDeviation="1" in="shadowOffsetOuter1" result="shadowBlurOuter1"></feGaussianBlur>
            <feComposite in="shadowBlurOuter1" in2="SourceAlpha" operator="out" result="shadowBlurOuter1"></feComposite>
            <feColorMatrix values="0 0 0 0 0   0 0 0 0 0   0 0 0 0 0  0 0 0 0.04 0" type="matrix" in="shadowBlurOuter1"></feColorMatrix>
        </filter>
        <rect id="path-7" x="0" y="0" width="48" height="32" rx="4"></rect>
        <filter x="-9.4%" y="-10.9%" width="118.8%" height="128.1%" filterUnits="objectBoundingBox" id="filter-8">
            <feMorphology radius="1" operator="dilate" in="SourceAlpha" result="shadowSpreadOuter1"></feMorphology>
            <feOffset dx="0" dy="1" in="shadowSpreadOuter1" result="shadowOffsetOuter1"></feOffset>
            <feGaussianBlur stdDeviation="1" in="shadowOffsetOuter1" result="shadowBlurOuter1"></feGaussianBlur>
            <feComposite in="shadowBlurOuter1" in2="SourceAlpha" operator="out" result="shadowBlurOuter1"></feComposite>
            <feColorMatrix values="0 0 0 0 0   0 0 0 0 0   0 0 0 0 0  0 0 0 0.04 0" type="matrix" in="shadowBlurOuter1"></feColorMatrix>
        </filter>
        <rect id="path-9" x="2" y="2" width="364" height="116" rx="4"></rect>
        <filter x="-1.9%" y="-4.3%" width="103.8%" height="112.1%" filterUnits="objectBoundingBox" id="filter-10">
            <feOffset dx="0" dy="2" in="SourceAlpha" result="shadowOffsetOuter1"></feOffset>
            <feGaussianBlur stdDeviation="2" in="shadowOffsetOuter1" result="shadowBlurOuter1"></feGaussianBlur>
            <feColorMatrix values="0 0 0 0 0   0 0 0 0 0   0 0 0 0 0  0 0 0 0.2 0" type="matrix" in="shadowBlurOuter1"></feColorMatrix>
        </filter>
        <rect id="path-11" x="0" y="0" width="368" height="120" rx="4"></rect>
        <filter x="-1.2%" y="-2.9%" width="102.4%" height="107.5%" filterUnits="objectBoundingBox" id="filter-12">
            <feMorphology radius="1" operator="dilate" in="SourceAlpha" result="shadowSpreadOuter1"></feMorphology>
            <feOffset dx="0" dy="1" in="shadowSpreadOuter1" result="shadowOffsetOuter1"></feOffset>
            <feGaussianBlur stdDeviation="1" in="shadowOffsetOuter1" result="shadowBlurOuter1"></feGaussianBlur>
            <feComposite in="shadowBlurOuter1" in2="SourceAlpha" operator="out" result="shadowBlurOuter1"></feComposite>
            <feColorMatrix values="0 0 0 0 0   0 0 0 0 0   0 0 0 0 0  0 0 0 0.04 0" type="matrix" in="shadowBlurOuter1"></feColorMatrix>
        </filter>
        <circle id="path-13" cx="12" cy="12" r="12"></circle>
        <circle id="path-15" cx="12" cy="12" r="12"></circle>
        <filter x="-27.1%" y="-22.9%" width="154.2%" height="154.2%" filterUnits="objectBoundingBox" id="filter-16">
            <feOffset dx="0" dy="1" in="SourceAlpha" result="shadowOffsetOuter1"></feOffset>
            <feGaussianBlur stdDeviation="2" in="shadowOffsetOuter1" result="shadowBlurOuter1"></feGaussianBlur>
            <feColorMatrix values="0 0 0 0 0.141176471   0 0 0 0 0.0705882353   0 0 0 0 0.301960784  0 0 0 0.16 0" type="matrix" in="shadowBlurOuter1"></feColorMatrix>
        </filter>
        <rect id="path-17" x="2" y="2" width="364" height="76" rx="4"></rect>
        <filter x="-1.9%" y="-6.6%" width="103.8%" height="118.4%" filterUnits="objectBoundingBox" id="filter-18">
            <feOffset dx="0" dy="2" in="SourceAlpha" result="shadowOffsetOuter1"></feOffset>
            <feGaussianBlur stdDeviation="2" in="shadowOffsetOuter1" result="shadowBlurOuter1"></feGaussianBlur>
            <feColorMatrix values="0 0 0 0 0   0 0 0 0 0   0 0 0 0 0  0 0 0 0.2 0" type="matrix" in="shadowBlurOuter1"></feColorMatrix>
        </filter>
        <rect id="path-19" x="0" y="0" width="368" height="80" rx="4"></rect>
        <filter x="-1.2%" y="-4.4%" width="102.4%" height="111.2%" filterUnits="objectBoundingBox" id="filter-20">
            <feMorphology radius="1" operator="dilate" in="SourceAlpha" result="shadowSpreadOuter1"></feMorphology>
            <feOffset dx="0" dy="1" in="shadowSpreadOuter1" result="shadowOffsetOuter1"></feOffset>
            <feGaussianBlur stdDeviation="1" in="shadowOffsetOuter1" result="shadowBlurOuter1"></feGaussianBlur>
            <feComposite in="shadowBlurOuter1" in2="SourceAlpha" operator="out" result="shadowBlurOuter1"></feComposite>
            <feColorMatrix values="0 0 0 0 0   0 0 0 0 0   0 0 0 0 0  0 0 0 0.04 0" type="matrix" in="shadowBlurOuter1"></feColorMatrix>
        </filter>
        <circle id="path-21" cx="12" cy="12" r="12"></circle>
        <circle id="path-23" cx="12" cy="12" r="12"></circle>
        <filter x="-27.1%" y="-22.9%" width="154.2%" height="154.2%" filterUnits="objectBoundingBox" id="filter-24">
            <feOffset dx="0" dy="1" in="SourceAlpha" result="shadowOffsetOuter1"></feOffset>
            <feGaussianBlur stdDeviation="2" in="shadowOffsetOuter1" result="shadowBlurOuter1"></feGaussianBlur>
            <feColorMatrix values="0 0 0 0 0.141176471   0 0 0 0 0.0705882353   0 0 0 0 0.301960784  0 0 0 0.16 0" type="matrix" in="shadowBlurOuter1"></feColorMatrix>
        </filter>
    </defs>
    <g id="snippet/highlight-edit" stroke="none" stroke-width="1" fill="none" fill-rule="evenodd">
        <g id="Group" transform="translate(8.000000, 16.000000)">
            <g id="Bulk-edit" transform="translate(8.000000, 0.000000)">
                <g id="Rectangle-3" fill="black" fill-opacity="1">
                    <use filter="url(#filter-2)" xlink:href="#path-1"></use>
                </g>
                <rect id="Rectangle-3" fill="#5B93FF" x="0" y="0" width="368" height="56" rx="4"></rect>
                <g id="component/secondary-button" transform="translate(225.000000, 12.000000)">
                    <g id="Secondary-button">
                        <g id="Rectangle" stroke-linecap="square">
                            <use fill="black" fill-opacity="1" filter="url(#filter-4)" xlink:href="#path-3"></use>
                            <rect stroke-opacity="0.098194067" stroke="#140B2F" stroke-width="1" fill="#FFFFFF" fill-rule="evenodd" x="-0.5" y="-0.5" width="49" height="33" rx="4"></rect>
                        </g>
                        <text id="Add-to-group" font-family="SFUIText-Semibold, SF UI Text" font-size="14" font-weight="500" fill="#24124D">
                            <tspan x="10.0957031" y="20.2">Add</tspan>
                        </text>
                    </g>
                </g>
                <g id="component/secondary-button" transform="translate(281.000000, 12.000000)">
                    <g id="Secondary-button">
                        <g id="Rectangle" stroke-linecap="square">
                            <use fill="black" fill-opacity="1" filter="url(#filter-6)" xlink:href="#path-5"></use>
                            <rect stroke-opacity="0.098194067" stroke="#140B2F" stroke-width="1" fill="#FFFFFF" fill-rule="evenodd" x="-0.5" y="-0.5" width="72" height="33" rx="4"></rect>
                        </g>
                        <text id="Add-to-group" font-family="SFUIText-Semibold, SF UI Text" font-size="14" font-weight="500" fill="#24124D">
                            <tspan x="8.03662109" y="20.2">Replace</tspan>
                        </text>
                    </g>
                </g>
                <g id="component/icon-button" transform="translate(16.000000, 12.000000)">
                    <g id="Group">
                        <g id="Rectangle-5" stroke-linecap="square">
                            <use fill="black" fill-opacity="1" filter="url(#filter-8)" xlink:href="#path-7"></use>
                            <rect stroke-opacity="0.098194067" stroke="#140B2F" stroke-width="1" fill="#FFFFFF" fill-rule="evenodd" x="-0.5" y="-0.5" width="49" height="33" rx="4"></rect>
                        </g>
                        <g id="icons/back" transform="translate(12.000000, 4.000000)" stroke="#7B7194" stroke-linecap="round" stroke-linejoin="round">
                            <g id="arrow-left" transform="translate(4.000000, 6.000000)">
                                <path d="M16,6 L0,6" id="Shape" stroke-width="2"></path>
                                <polyline id="Shape" stroke-width="2" points="6 12 0 6 6 0"></polyline>
                            </g>
                        </g>
                    </g>
                </g>
                <path d="M80,25.859375 C80,24.3007812 81.1777344,23.2109375 82.8417969,23.2109375 C84.4472656,23.2109375 85.6308594,24.2304688 85.6308594,25.625 C85.6308594,26.5214844 85.1972656,27.2539062 83.7792969,28.6894531 L81.8984375,30.59375 L81.8984375,30.6933594 L85.765625,30.6933594 L85.765625,31.8710938 L80.0703125,31.8710938 L80.0703125,30.921875 L82.9296875,27.9453125 C84.0605469,26.7675781 84.3359375,26.3222656 84.3359375,25.7011719 C84.3359375,24.9277344 83.6738281,24.3476562 82.8007812,24.3476562 C81.8691406,24.3476562 81.2421875,24.9570312 81.2421875,25.859375 L81.2421875,25.8769531 L80,25.8769531 L80,25.859375 Z M90.6230469,27.2949219 C90.6230469,26.1640625 91.6601562,25.3671875 93.1015625,25.3671875 C94.5371094,25.3671875 95.4746094,26.0351562 95.5976562,27.1601562 L94.390625,27.1601562 C94.2734375,26.6914062 93.8164062,26.3925781 93.1015625,26.3925781 C92.3984375,26.3925781 91.8652344,26.7265625 91.8652344,27.2246094 C91.8652344,27.6054688 92.1875,27.8457031 92.8789062,28.0039062 L93.9394531,28.25 C95.1523438,28.53125 95.7207031,29.0527344 95.7207031,29.9902344 C95.7207031,31.1914062 94.6015625,31.9941406 93.078125,31.9941406 C91.5605469,31.9941406 90.5703125,31.3085938 90.4589844,30.1777344 L91.71875,30.1777344 C91.8769531,30.6699219 92.3457031,30.9746094 93.1074219,30.9746094 C93.8925781,30.9746094 94.4492188,30.6230469 94.4492188,30.1132812 C94.4492188,29.7324219 94.1503906,29.4863281 93.5117188,29.3339844 L92.3984375,29.0761719 C91.1855469,28.7890625 90.6230469,28.2441406 90.6230469,27.2949219 Z M99.8574219,26.4394531 C98.9257812,26.4394531 98.2753906,27.0957031 98.2050781,28.0917969 L101.427734,28.0917969 C101.398438,27.0898438 100.789062,26.4394531 99.8574219,26.4394531 Z M101.421875,30.1484375 L102.634766,30.1484375 C102.347656,31.2910156 101.328125,31.9941406 99.8691406,31.9941406 C98.0410156,31.9941406 96.921875,30.7402344 96.921875,28.7011719 C96.921875,26.6621094 98.0644531,25.3671875 99.8632812,25.3671875 C101.638672,25.3671875 102.710938,26.5800781 102.710938,28.5839844 L102.710938,29.0234375 L98.2050781,29.0234375 L98.2050781,29.09375 C98.2460938,30.2128906 98.8964844,30.921875 99.9042969,30.921875 C100.666016,30.921875 101.1875,30.6464844 101.421875,30.1484375 Z M104.28125,31.8710938 L104.28125,23 L105.541016,23 L105.541016,31.8710938 L104.28125,31.8710938 Z M110.046875,26.4394531 C109.115234,26.4394531 108.464844,27.0957031 108.394531,28.0917969 L111.617188,28.0917969 C111.587891,27.0898438 110.978516,26.4394531 110.046875,26.4394531 Z M111.611328,30.1484375 L112.824219,30.1484375 C112.537109,31.2910156 111.517578,31.9941406 110.058594,31.9941406 C108.230469,31.9941406 107.111328,30.7402344 107.111328,28.7011719 C107.111328,26.6621094 108.253906,25.3671875 110.052734,25.3671875 C111.828125,25.3671875 112.900391,26.5800781 112.900391,28.5839844 L112.900391,29.0234375 L108.394531,29.0234375 L108.394531,29.09375 C108.435547,30.2128906 109.085938,30.921875 110.09375,30.921875 C110.855469,30.921875 111.376953,30.6464844 111.611328,30.1484375 Z M119.814453,27.5761719 L118.589844,27.5761719 C118.443359,26.9550781 117.927734,26.4921875 117.083984,26.4921875 C116.029297,26.4921875 115.384766,27.3007812 115.384766,28.6601562 C115.384766,30.0429688 116.035156,30.8691406 117.083984,30.8691406 C117.880859,30.8691406 118.425781,30.5058594 118.589844,29.8203125 L119.814453,29.8203125 C119.650391,31.1035156 118.666016,31.9941406 117.089844,31.9941406 C115.232422,31.9941406 114.095703,30.7402344 114.095703,28.6601562 C114.095703,26.6152344 115.226562,25.3671875 117.083984,25.3671875 C118.683594,25.3671875 119.650391,26.2988281 119.814453,27.5761719 Z M121.695312,23.9433594 L122.955078,23.9433594 L122.955078,25.5195312 L124.384766,25.5195312 L124.384766,26.5800781 L122.955078,26.5800781 L122.955078,29.8613281 C122.955078,30.5292969 123.230469,30.8222656 123.857422,30.8222656 C124.050781,30.8222656 124.150391,30.8105469 124.326172,30.7929688 L124.326172,31.8417969 C124.126953,31.8769531 123.898438,31.90625 123.652344,31.90625 C122.251953,31.90625 121.695312,31.4140625 121.695312,30.1835938 L121.695312,26.5800781 L120.646484,26.5800781 L120.646484,25.5195312 L121.695312,25.5195312 L121.695312,23.9433594 Z M128.439453,26.4394531 C127.507812,26.4394531 126.857422,27.0957031 126.787109,28.0917969 L130.009766,28.0917969 C129.980469,27.0898438 129.371094,26.4394531 128.439453,26.4394531 Z M130.003906,30.1484375 L131.216797,30.1484375 C130.929688,31.2910156 129.910156,31.9941406 128.451172,31.9941406 C126.623047,31.9941406 125.503906,30.7402344 125.503906,28.7011719 C125.503906,26.6621094 126.646484,25.3671875 128.445312,25.3671875 C130.220703,25.3671875 131.292969,26.5800781 131.292969,28.5839844 L131.292969,29.0234375 L126.787109,29.0234375 L126.787109,29.09375 C126.828125,30.2128906 127.478516,30.921875 128.486328,30.921875 C129.248047,30.921875 129.769531,30.6464844 130.003906,30.1484375 Z M135.136719,31.9765625 C133.513672,31.9765625 132.488281,30.6992188 132.488281,28.6777344 C132.488281,26.6621094 133.525391,25.3847656 135.136719,25.3847656 C136.009766,25.3847656 136.748047,25.8007812 137.09375,26.5039062 L137.1875,26.5039062 L137.1875,23 L138.447266,23 L138.447266,31.8710938 L137.240234,31.8710938 L137.240234,30.8632812 L137.140625,30.8632812 C136.759766,31.5605469 136.015625,31.9765625 135.136719,31.9765625 Z M135.494141,26.515625 C134.433594,26.515625 133.789062,27.3359375 133.789062,28.6777344 C133.789062,30.03125 134.427734,30.8457031 135.494141,30.8457031 C136.554688,30.8457031 137.210938,30.0195312 137.210938,28.6835938 C137.210938,27.3535156 136.548828,26.515625 135.494141,26.515625 Z" id="2-selected" fill="#FFFFFF" opacity="0.800000012"></path>
            </g>
            <g id="Card" transform="translate(0.000000, 63.000000)">
                <g id="component/card" transform="translate(8.000000, 9.000000)">
                    <g id="Shadow">
                        <use fill="black" fill-opacity="1" filter="url(#filter-10)" xlink:href="#path-9"></use>
                        <use fill="#FFFFFF" fill-rule="evenodd" xlink:href="#path-9"></use>
                    </g>
                    <g id="Card" stroke-linecap="square">
                        <use fill="black" fill-opacity="1" filter="url(#filter-12)" xlink:href="#path-11"></use>
                        <rect stroke-opacity="0.098194067" stroke="#140B2F" stroke-width="1" fill="#FFFFFF" fill-rule="evenodd" x="-0.5" y="-0.5" width="369" height="121" rx="4"></rect>
                    </g>
                </g>
                <g id="Group" transform="translate(24.000000, 25.000000)">
                    <mask id="mask-14" fill="white">
                        <use xlink:href="#path-13"></use>
                    </mask>
                    <use id="Oval-2" fill="#A5A5D8" opacity="0.300000012" xlink:href="#path-13"></use>
                    <g mask="url(#mask-14)">
                        <g transform="translate(4.000000, 5.000000)">
                            <path d="M11.75,1 C12.2722013,1.3323732 11.75,4.5 12,5.5 C12.2072928,6.32917113 10.8739594,5.4958378 8,3 C6.50720195,3.85101684 5.50720195,4.35101684 5,4.5 C3.11138595,5.05475279 3.36107903,3.43505824 3.5,3 C3.77491914,2.10505796 3.37177598,1.69404803 4,1 C4.69904895,0.208300325 5.6229515,0.360291835 6.67256383,0.185416073 C7.36528053,0.0728325171 8.09519227,0.045788991 8.7926359,0 C8.81875227,0.000618681719 8.84432951,0.00802277875 8.86681915,0.0214745633 C8.90110578,0.0389117282 8.9312018,0.0635781162 8.95497639,0.0937273244 C9.0567137,0.244629664 9.14605515,0.403338057 9.22212181,0.568291133 C9.24751397,0.647567945 9.30011959,0.715746103 9.37069513,0.760845755 C9.43790981,0.792912796 9.51240057,0.806401751 9.58625788,0.799880346 C10.1584509,0.795125837 11.2525644,0.713137132 11.75,1 Z" id="Shape" fill="#7E7EB1" fill-rule="nonzero"></path>
                            <path d="M16,19.5 L0,19.5 C0,18.5094102 0.5,11.25 4.5,11.25 C4.5,11.25 6.55172414,14.5 8,14.5 C9.44827586,14.5 11.5,11.25 11.5,11.25 C14.1666667,11.25 15.6666667,14 16,19.5 Z" id="Shape" fill="#A5A5D8" fill-rule="nonzero"></path>
                            <path d="M11.5,11.4999481 C11.5,13.166632 10.3333333,14.833316 8,16.5 C5.66666667,14.833316 4.5,13.166632 4.5,11.4999481 C4.5,11.4999481 11.5,11.4999481 11.5,11.4999481 Z" id="Shape" fill="#7878AB" fill-rule="nonzero"></path>
                            <path d="M10,11.00967 C10,12.4412872 9.33333341,13.5150001 8.00000024,13.5150001 C6.68708962,13.5150001 6.03001109,12.4083978 6.00000049,11.00967 C6.00000049,11.00967 6.00000033,10.33978 6,9 L10,9 C10,10.33978 10,11.00967 10,11.00967 Z" id="Shape" fill="#B6B6E9" fill-rule="nonzero"></path>
                            <path d="M7.5,2.75 C8.69693441,2.53237556 9.75,2.75 10.5,3 C11.25,3.25 11.25,4 11.25,4 C11.25,4 11.2903096,6.60651383 11,8 C10.7096904,9.39348617 10.5,9.5 10,10 C9.5,10.5 6.5,10.5 6,10 C5.5,9.5 5.1357703,9 5,8 C4.8642297,7 4.75,4.5 5,4 C5.25,3.5 6.30306559,2.96762444 7.5,2.75 Z" id="Shape" fill="#C8C8F7" fill-rule="nonzero"></path>
                            <path d="M6.74291406,5.56891428 C6.90424249,5.74166542 6.9899378,5.88949032 7,6.01238897 C6.99497764,6.09246279 6.96926913,6.1696257 6.92538174,6.23635226 C6.83820604,6.38875349 6.68088632,6.48740753 6.50500639,6.49996655 C6.41503901,6.50102005 6.32624201,6.47716946 6.24843485,6.43105227 C6.1030272,6.3426311 6.01000764,6.18846094 6.00003785,6.01936035 C5.9988483,5.92160753 6.02572017,5.82589192 6.07746669,5.74356458 C6.16102693,5.59605098 6.31602373,5.50372043 6.48634252,5.5 C6.57617406,5.50009789 6.66466997,5.5238676 6.74291406,5.56891428 Z M9.23214079,5.54934682 C9.38816592,5.63568912 9.48956079,5.79706381 9.49996226,5.97559724 C9.50114842,6.07400235 9.47435299,6.17035666 9.42275367,6.25323336 C9.33943111,6.4017313 9.18487519,6.49467796 9.01504088,6.49842321 C8.92349565,6.5055209 8.831411,6.48857531 8.74773234,6.44923259 C8.59963274,6.36338509 8.50573815,6.20627936 8.5000419,6.03479349 C8.49667537,5.76173287 8.69652735,5.53184789 8.96483226,5.50015619 C9.02473419,5.49859284 9.11383703,5.51498971 9.23214079,5.54934682 Z" id="Shape" fill="#7272A5" fill-rule="nonzero"></path>
                            <path d="M6,10 L6,10.75 C7,11.25 7.83333333,11.5 8.5,11.5 C9.16666667,11.5 9.66666667,11.3333333 10,11 L10,10 C9.16666667,10.1666667 8.5,10.25 8,10.25 C7.66666667,10.25 7,10.1666667 6,10 Z" id="Path-2" fill="#9898CB" fill-rule="evenodd"></path>
                        </g>
                    </g>
                </g>
                <path d="M66.5546875,41 L65.0429688,41 L65.0429688,32.5449219 L66.5546875,32.5449219 L66.5546875,41 Z M68.4882812,41 L68.4882812,34.5898438 L69.8886719,34.5898438 L69.8886719,35.6152344 L69.9882812,35.6152344 C70.2929688,34.9003906 71.0429688,34.4609375 72.0039062,34.4609375 C73.4335938,34.4609375 74.2363281,35.3222656 74.2363281,36.8515625 L74.2363281,41 L72.7890625,41 L72.7890625,37.1972656 C72.7890625,36.21875 72.34375,35.7265625 71.4648438,35.7265625 C70.5273438,35.7265625 69.9414062,36.3242188 69.9414062,37.2675781 L69.9414062,41 L68.4882812,41 Z M76.421875,33.0605469 L77.8691406,33.0605469 L77.8691406,34.6308594 L79.2753906,34.6308594 L79.2753906,35.7910156 L77.8691406,35.7910156 L77.8691406,38.9375 C77.8691406,39.5703125 78.1386719,39.8515625 78.7480469,39.8515625 C78.953125,39.8515625 79.0585938,39.8398438 79.2285156,39.8222656 L79.2285156,40.9589844 C79.0234375,41 78.7597656,41.0292969 78.4785156,41.0292969 C77.0078125,41.0292969 76.421875,40.53125 76.421875,39.2890625 L76.421875,35.7910156 L75.3789062,35.7910156 L75.3789062,34.6308594 L76.421875,34.6308594 L76.421875,33.0605469 Z M83.3828125,35.6152344 C82.515625,35.6152344 81.90625,36.2363281 81.8417969,37.1738281 L84.859375,37.1738281 C84.8300781,36.2246094 84.2558594,35.6152344 83.3828125,35.6152344 Z M84.8710938,39.2363281 L86.2480469,39.2363281 C85.9726562,40.4023438 84.9121094,41.1289062 83.4003906,41.1289062 C81.5136719,41.1289062 80.3769531,39.8808594 80.3769531,37.8183594 C80.3769531,35.7558594 81.53125,34.4609375 83.3886719,34.4609375 C85.2167969,34.4609375 86.3125,35.6738281 86.3125,37.6953125 L86.3125,38.1640625 L81.8359375,38.1640625 L81.8359375,38.2402344 C81.8710938,39.3066406 82.4863281,39.9746094 83.4414062,39.9746094 C84.1621094,39.9746094 84.6601562,39.7109375 84.8710938,39.2363281 Z M87.7714844,41 L87.7714844,34.5898438 L89.171875,34.5898438 L89.171875,35.5859375 L89.2714844,35.5859375 C89.4472656,34.953125 90.1328125,34.484375 90.953125,34.484375 C91.1582031,34.484375 91.4101562,34.5078125 91.5507812,34.5488281 L91.5507812,35.8964844 C91.4394531,35.8554688 91.0410156,35.8144531 90.8125,35.8144531 C89.8808594,35.8144531 89.2246094,36.4003906 89.2246094,37.296875 L89.2246094,41 L87.7714844,41 Z M92.1367188,34.5898438 L93.6953125,34.5898438 L95.1777344,39.546875 L95.2773438,39.546875 L96.7480469,34.5898438 L98.2832031,34.5898438 L96.015625,41 L94.4160156,41 L92.1367188,34.5898438 Z M99.5253906,41 L99.5253906,34.5898438 L100.972656,34.5898438 L100.972656,41 L99.5253906,41 Z M100.246094,33.546875 C99.71875,33.546875 99.3496094,33.2070312 99.3496094,32.7441406 C99.3496094,32.28125 99.71875,31.9414062 100.246094,31.9414062 C100.779297,31.9414062 101.142578,32.28125 101.142578,32.7441406 C101.142578,33.2070312 100.779297,33.546875 100.246094,33.546875 Z M105.460938,35.6152344 C104.59375,35.6152344 103.984375,36.2363281 103.919922,37.1738281 L106.9375,37.1738281 C106.908203,36.2246094 106.333984,35.6152344 105.460938,35.6152344 Z M106.949219,39.2363281 L108.326172,39.2363281 C108.050781,40.4023438 106.990234,41.1289062 105.478516,41.1289062 C103.591797,41.1289062 102.455078,39.8808594 102.455078,37.8183594 C102.455078,35.7558594 103.609375,34.4609375 105.466797,34.4609375 C107.294922,34.4609375 108.390625,35.6738281 108.390625,37.6953125 L108.390625,38.1640625 L103.914062,38.1640625 L103.914062,38.2402344 C103.949219,39.3066406 104.564453,39.9746094 105.519531,39.9746094 C106.240234,39.9746094 106.738281,39.7109375 106.949219,39.2363281 Z M118.433594,34.5898438 L116.699219,41 L115.169922,41 L113.921875,36.3828125 L113.822266,36.3828125 L112.580078,41 L111.068359,41 L109.333984,34.5898438 L110.798828,34.5898438 L111.865234,39.3769531 L111.964844,39.3769531 L113.195312,34.5898438 L114.583984,34.5898438 L115.826172,39.3769531 L115.925781,39.3769531 L116.986328,34.5898438 L118.433594,34.5898438 Z M131.482422,34.5898438 L129.748047,41 L128.21875,41 L126.970703,36.3828125 L126.871094,36.3828125 L125.628906,41 L124.117188,41 L122.382812,34.5898438 L123.847656,34.5898438 L124.914062,39.3769531 L125.013672,39.3769531 L126.244141,34.5898438 L127.632812,34.5898438 L128.875,39.3769531 L128.974609,39.3769531 L130.035156,34.5898438 L131.482422,34.5898438 Z M133.462891,42.7695312 L132.144531,42.7695312 L134.623047,32.5449219 L135.964844,32.5449219 L133.462891,42.7695312 Z M140.494141,32.5449219 L143.664062,32.5449219 C146.177734,32.5449219 147.642578,34.0800781 147.642578,36.734375 C147.642578,39.4472656 146.195312,41 143.664062,41 L140.494141,41 L140.494141,32.5449219 Z M142.005859,33.8515625 L142.005859,39.6933594 L143.464844,39.6933594 C145.146484,39.6933594 146.101562,38.6445312 146.101562,36.7578125 C146.101562,34.9121094 145.123047,33.8515625 143.464844,33.8515625 L142.005859,33.8515625 Z M149.916016,43.3320312 C149.828125,43.3320312 149.435547,43.3261719 149.341797,43.3085938 L149.341797,42.125 C149.423828,42.1367188 149.640625,42.1425781 149.740234,42.1425781 C150.355469,42.1425781 150.701172,41.9023438 150.888672,41.3105469 L150.964844,41.0292969 L148.673828,34.5898438 L150.267578,34.5898438 L151.767578,39.59375 L151.867188,39.59375 L153.361328,34.5898438 L154.896484,34.5898438 L152.582031,41.2050781 C152.037109,42.7988281 151.351562,43.3320312 149.916016,43.3320312 Z M158.833984,35.6152344 C157.966797,35.6152344 157.357422,36.2363281 157.292969,37.1738281 L160.310547,37.1738281 C160.28125,36.2246094 159.707031,35.6152344 158.833984,35.6152344 Z M160.322266,39.2363281 L161.699219,39.2363281 C161.423828,40.4023438 160.363281,41.1289062 158.851562,41.1289062 C156.964844,41.1289062 155.828125,39.8808594 155.828125,37.8183594 C155.828125,35.7558594 156.982422,34.4609375 158.839844,34.4609375 C160.667969,34.4609375 161.763672,35.6738281 161.763672,37.6953125 L161.763672,38.1640625 L157.287109,38.1640625 L157.287109,38.2402344 C157.322266,39.3066406 157.9375,39.9746094 158.892578,39.9746094 C159.613281,39.9746094 160.111328,39.7109375 160.322266,39.2363281 Z M170.189453,41 L168.677734,41 L168.677734,33.8515625 L166.076172,33.8515625 L166.076172,32.5449219 L172.796875,32.5449219 L172.796875,33.8515625 L170.189453,33.8515625 L170.189453,41 Z M179.939453,34.5898438 L179.939453,41 L178.539062,41 L178.539062,39.9804688 L178.439453,39.9804688 C178.128906,40.7128906 177.402344,41.1289062 176.453125,41.1289062 C175.041016,41.1289062 174.167969,40.2558594 174.167969,38.7382812 L174.167969,34.5898438 L175.621094,34.5898438 L175.621094,38.3925781 C175.621094,39.3769531 176.083984,39.8515625 176.957031,39.8515625 C177.894531,39.8515625 178.486328,39.2714844 178.486328,38.3222656 L178.486328,34.5898438 L179.939453,34.5898438 Z M181.720703,41 L181.720703,34.5898438 L183.121094,34.5898438 L183.121094,35.6269531 L183.220703,35.6269531 C183.496094,34.8945312 184.152344,34.4609375 185.001953,34.4609375 C185.886719,34.4609375 186.501953,34.90625 186.771484,35.6269531 L186.871094,35.6269531 C187.1875,34.9238281 187.925781,34.4609375 188.816406,34.4609375 C190.099609,34.4609375 190.873047,35.2636719 190.873047,36.59375 L190.873047,41 L189.425781,41 L189.425781,36.9628906 C189.425781,36.1367188 189.033203,35.7265625 188.253906,35.7265625 C187.498047,35.7265625 187,36.2773438 187,37.0097656 L187,41 L185.587891,41 L185.587891,36.8574219 C185.587891,36.1542969 185.142578,35.7265625 184.427734,35.7265625 C183.707031,35.7265625 183.173828,36.3183594 183.173828,37.1035156 L183.173828,41 L181.720703,41 Z M195.285156,35.6152344 C194.417969,35.6152344 193.808594,36.2363281 193.744141,37.1738281 L196.761719,37.1738281 C196.732422,36.2246094 196.158203,35.6152344 195.285156,35.6152344 Z M196.773438,39.2363281 L198.150391,39.2363281 C197.875,40.4023438 196.814453,41.1289062 195.302734,41.1289062 C193.416016,41.1289062 192.279297,39.8808594 192.279297,37.8183594 C192.279297,35.7558594 193.433594,34.4609375 195.291016,34.4609375 C197.119141,34.4609375 198.214844,35.6738281 198.214844,37.6953125 L198.214844,38.1640625 L193.738281,38.1640625 L193.738281,38.2402344 C193.773438,39.3066406 194.388672,39.9746094 195.34375,39.9746094 C196.064453,39.9746094 196.5625,39.7109375 196.773438,39.2363281 Z M199.732422,41 L199.732422,32.1113281 L201.185547,32.1113281 L201.185547,41 L199.732422,41 Z M205.785156,39.9101562 C206.798828,39.9101562 207.373047,39.1367188 207.373047,37.7949219 C207.373047,36.4589844 206.792969,35.6796875 205.785156,35.6796875 C204.771484,35.6796875 204.191406,36.4589844 204.191406,37.7949219 C204.191406,39.1367188 204.771484,39.9101562 205.785156,39.9101562 Z M205.785156,41.1289062 C203.863281,41.1289062 202.703125,39.875 202.703125,37.7949219 C202.703125,35.7265625 203.880859,34.4609375 205.785156,34.4609375 C207.695312,34.4609375 208.867188,35.7207031 208.867188,37.7949219 C208.867188,39.875 207.701172,41.1289062 205.785156,41.1289062 Z" id="Interview-w/-Dye-Tum" fill="#24124D" opacity="0.5"></path>
                <rect id="Rectangle-9" fill="#DCD5EE" x="24" y="65" width="336" height="12" rx="4"></rect>
                <rect id="Rectangle-9" fill="#512DA8" x="24" y="93" width="136" height="12" rx="4"></rect>
                <rect id="Rectangle-9" fill="#DCD5EE" x="176" y="93" width="72" height="12" rx="4"></rect>
                <rect id="Rectangle-12" fill-opacity="0.1" fill="#5182F8" fill-rule="nonzero" x="7" y="8" width="370" height="122" rx="4"></rect>
                <g id="Checkbox">
                    <g id="Oval" fill-rule="nonzero">
                        <use fill="black" fill-opacity="1" filter="url(#filter-16)" xlink:href="#path-15"></use>
                        <use fill="#5182F8" xlink:href="#path-15"></use>
                    </g>
                    <g id="check" transform="translate(6.666667, 8.666667)" stroke="#FFFFFF" stroke-linecap="round" stroke-linejoin="round" stroke-width="2">
                        <polyline id="Shape" points="10.6666667 0 3.33333333 7.33333333 0 4"></polyline>
                    </g>
                </g>
            </g>
        </g>
        <g id="Card" transform="translate(8.000000, 216.000000)">
            <g id="component/card" transform="translate(8.000000, 9.000000)">
                <g id="Shadow">
                    <use fill="black" fill-opacity="1" filter="url(#filter-18)" xlink:href="#path-17"></use>
                    <use fill="#FFFFFF" fill-rule="evenodd" xlink:href="#path-17"></use>
                </g>
                <g id="Card" stroke-linecap="square">
                    <use fill="black" fill-opacity="1" filter="url(#filter-20)" xlink:href="#path-19"></use>
                    <rect stroke-opacity="0.098194067" stroke="#140B2F" stroke-width="1" fill="#FFFFFF" fill-rule="evenodd" x="-0.5" y="-0.5" width="369" height="81" rx="4"></rect>
                </g>
            </g>
            <g id="Group" transform="translate(24.000000, 25.000000)">
                <mask id="mask-22" fill="white">
                    <use xlink:href="#path-21"></use>
                </mask>
                <use id="Oval-2" fill="#A5A5D8" opacity="0.300000012" xlink:href="#path-21"></use>
                <g mask="url(#mask-22)">
                    <g transform="translate(5.000000, 4.000000)">
                        <path d="M10.2205494,1.23091527 C10.7427507,1.56328847 11.1971487,1.99350077 11.5408548,2.50571765 C12.1672237,3.44104423 12.599704,4.48953002 12.8126798,5.58907324 C12.9573534,6.31325528 13.0510649,7.05072459 13.1795045,7.76553389 L13.2617088,8.56042503 C13.2761989,8.67990724 13.2250348,8.79716018 13.12773,8.86746509 L10,11 L7,7.5 L3.98042788,11.5517407 L2.00439404,10.3254564 L1.15323651,9.81268524 C1.09169704,9.76753671 1.05268714,9.69823855 1.04637835,9.62285972 C0.982748597,8.72016659 0.984594799,7.81485372 1.05190263,6.91394443 C1.12342004,5.95374968 1.30719192,5.00637538 1.59951706,4.09090193 C1.87443619,3.19595989 2.34211702,2.37312225 2.97034103,1.67907423 C3.66938998,0.887374551 4.6229515,0.360291835 5.67256383,0.185416073 C6.36528053,0.0728325171 7.09519227,0.045788991 7.7926359,0 C7.81875227,0.000618681719 7.84432951,0.00802277875 7.86681915,0.0214745633 C7.90110578,0.0389117282 7.9312018,0.0635781162 7.95497639,0.0937273244 C8.0567137,0.244629664 8.14605515,0.403338057 8.22212181,0.568291133 C8.24751397,0.647567945 8.30011959,0.715746103 8.37069513,0.760845755 C8.43790981,0.792912796 8.51240057,0.806401751 8.58625788,0.799880346 C9.15845093,0.795125837 9.72311382,0.944052404 10.2205494,1.23091527 Z" id="Shape" fill="#7878AB" fill-rule="nonzero"></path>
                        <path d="M14,20 L0,20 C0,19.0094102 0,11.75 4,11.75 C4,11.75 5.31034483,15 6.75862069,15 C8.20689655,15 10,11.75 10,11.75 C12.6666667,11.75 14,14.5 14,20 Z" id="Shape" fill="#A5A5D8" fill-rule="nonzero"></path>
                        <path d="M10,11.9999481 C10,13.9922582 8.99999963,15.5 6.99999963,15.5 C5.03063346,15.5 4.0450159,13.9464877 4,11.9999481 C4,11.9999481 10,11.9999481 10,11.9999481 Z" id="Shape" fill="#7878AB" fill-rule="nonzero"></path>
                        <path d="M9,12.00967 C9,13.4412872 8.33333341,14.5150001 7.00000024,14.5150001 C5.68708962,14.5150001 5.03001109,13.4083978 5.00000049,12.00967 C5.00000049,12.00967 5.00000033,11.33978 5,10 L9,10 C9,11.33978 9,12.00967 9,12.00967 Z" id="Shape" fill="#B6B6E9" fill-rule="nonzero"></path>
                        <path d="M10.5,8.5 L10,11 L9,11 L9,9.5 C9.01141645,9.48826812 9.51141645,9.15493479 10.5,8.5 Z" id="Shape" fill="#636396" fill-rule="nonzero"></path>
                        <path d="M3.5,8.5 C3.80406242,8.98105986 4.96464579,9.95125885 5,9.98200161 L5,11 L4,11.5 C3.65374159,9.64889807 3.48707493,8.64889807 3.5,8.5 Z" id="Path" fill="#636396" fill-rule="evenodd"></path>
                        <path d="M8.5,3 L9.85610324,4.36150073 L10.5,5.03354102 C10.5287408,5.03354102 10.5287408,6.18902734 10.5,8.5 C10.1666667,9.5 9.83333333,10.1666667 9.5,10.5 C9,11 6.10586352,10.6538449 5,10.5 C4.43851747,10.421888 3.77154061,10 3.6357703,9 C3.54525677,8.33333333 3.5,7.5 3.5,6.5 C4.31548157,6.11819024 5.14881491,5.62937058 6,5.03354102 C6.85118509,4.43771145 7.68451843,3.75986445 8.5,3 Z" id="Shape" fill="#C8C8F7" fill-rule="nonzero"></path>
                        <path d="M5.74291406,6.56891428 C5.90424249,6.74166542 5.9899378,6.88949032 6,7.01238897 C5.99497764,7.09246279 5.96926913,7.1696257 5.92538174,7.23635226 C5.83820604,7.38875349 5.68088632,7.48740753 5.50500639,7.49996655 C5.41503901,7.50102005 5.32624201,7.47716946 5.24843485,7.43105227 C5.1030272,7.3426311 5.01000764,7.18846094 5.00003785,7.01936035 C4.9988483,6.92160753 5.02572017,6.82589192 5.07746669,6.74356458 C5.16102693,6.59605098 5.31602373,6.50372043 5.48634252,6.5 C5.57617406,6.50009789 5.66466997,6.5238676 5.74291406,6.56891428 Z M8.23214079,6.54934682 C8.38816592,6.63568912 8.48956079,6.79706381 8.49996226,6.97559724 C8.50114842,7.07400235 8.47435299,7.17035666 8.42275367,7.25323336 C8.33943111,7.4017313 8.18487519,7.49467796 8.01504088,7.49842321 C7.92349565,7.5055209 7.831411,7.48857531 7.74773234,7.44923259 C7.59963274,7.36338509 7.50573815,7.20627936 7.5000419,7.03479349 C7.49667537,6.76173287 7.69652735,6.53184789 7.96483226,6.50015619 C8.02473419,6.49859284 8.11383703,6.51498971 8.23214079,6.54934682 Z" id="Shape" fill="#7272A5" fill-rule="nonzero"></path>
                        <path d="M5,10.5 L5,11 C6,11.5 6.83333333,11.75 7.5,11.75 C8.16666667,11.75 8.66666667,11.5833333 9,11.25 L9,10.75 C8.16666667,10.75 7.5,10.75 7,10.75 C6.66666667,10.75 6,10.6666667 5,10.5 Z" id="Path-2" fill="#9898CB" fill-rule="evenodd"></path>
                    </g>
                </g>
            </g>
            <path d="M68.6933594,32.3339844 C71.1484375,32.3339844 72.6835938,34.0390625 72.6835938,36.7695312 C72.6835938,39.4941406 71.1601562,41.2109375 68.6933594,41.2109375 C66.2089844,41.2109375 64.6855469,39.5 64.6855469,36.7695312 C64.6855469,34.0390625 66.2382812,32.3339844 68.6933594,32.3339844 Z M68.6933594,33.6757812 C67.1875,33.6757812 66.2324219,34.8769531 66.2324219,36.7695312 C66.2324219,38.65625 67.1640625,39.8691406 68.6933594,39.8691406 C70.1992188,39.8691406 71.1367188,38.65625 71.1367188,36.7695312 C71.1367188,34.8769531 70.1933594,33.6757812 68.6933594,33.6757812 Z M74.7226562,41 L74.7226562,35.7910156 L73.6796875,35.7910156 L73.6796875,34.6308594 L74.7226562,34.6308594 L74.7226562,33.9921875 C74.7226562,32.6914062 75.3964844,32.1640625 76.8027344,32.1640625 C77.0605469,32.1640625 77.3125,32.1875 77.5703125,32.2285156 L77.5703125,33.3125 C77.4414062,33.2832031 77.2246094,33.265625 77.0136719,33.265625 C76.4453125,33.265625 76.1464844,33.5117188 76.1464844,34.0859375 L76.1464844,34.6308594 L77.5351562,34.6308594 L77.5351562,35.7910156 L76.1699219,35.7910156 L76.1699219,41 L74.7226562,41 Z M79.4160156,41 L79.4160156,35.7910156 L78.3730469,35.7910156 L78.3730469,34.6308594 L79.4160156,34.6308594 L79.4160156,33.9921875 C79.4160156,32.6914062 80.0898438,32.1640625 81.4960938,32.1640625 C81.7539062,32.1640625 82.0058594,32.1875 82.2636719,32.2285156 L82.2636719,33.3125 C82.1347656,33.2832031 81.9179688,33.265625 81.7070312,33.265625 C81.1386719,33.265625 80.8398438,33.5117188 80.8398438,34.0859375 L80.8398438,34.6308594 L82.2285156,34.6308594 L82.2285156,35.7910156 L80.8632812,35.7910156 L80.8632812,41 L79.4160156,41 Z M83.6640625,41 L83.6640625,34.5898438 L85.1113281,34.5898438 L85.1113281,41 L83.6640625,41 Z M84.3847656,33.546875 C83.8574219,33.546875 83.4882812,33.2070312 83.4882812,32.7441406 C83.4882812,32.28125 83.8574219,31.9414062 84.3847656,31.9414062 C84.9179688,31.9414062 85.28125,32.28125 85.28125,32.7441406 C85.28125,33.2070312 84.9179688,33.546875 84.3847656,33.546875 Z M92.4472656,36.7460938 L91.0644531,36.7460938 C90.9296875,36.125 90.4492188,35.6796875 89.6523438,35.6796875 C88.65625,35.6796875 88.0644531,36.4472656 88.0644531,37.7773438 C88.0644531,39.125 88.6621094,39.9101562 89.6523438,39.9101562 C90.4082031,39.9101562 90.9121094,39.5527344 91.0644531,38.8847656 L92.4472656,38.8847656 C92.2890625,40.2265625 91.28125,41.1289062 89.6582031,41.1289062 C87.7304688,41.1289062 86.59375,39.8867188 86.59375,37.7773438 C86.59375,35.6972656 87.7246094,34.4609375 89.6523438,34.4609375 C91.2988281,34.4609375 92.2949219,35.3984375 92.4472656,36.7460938 Z M96.5253906,35.6152344 C95.6582031,35.6152344 95.0488281,36.2363281 94.984375,37.1738281 L98.0019531,37.1738281 C97.9726562,36.2246094 97.3984375,35.6152344 96.5253906,35.6152344 Z M98.0136719,39.2363281 L99.390625,39.2363281 C99.1152344,40.4023438 98.0546875,41.1289062 96.5429688,41.1289062 C94.65625,41.1289062 93.5195312,39.8808594 93.5195312,37.8183594 C93.5195312,35.7558594 94.6738281,34.4609375 96.53125,34.4609375 C98.359375,34.4609375 99.4550781,35.6738281 99.4550781,37.6953125 L99.4550781,38.1640625 L94.9785156,38.1640625 L94.9785156,38.2402344 C95.0136719,39.3066406 95.6289062,39.9746094 96.5839844,39.9746094 C97.3046875,39.9746094 97.8027344,39.7109375 98.0136719,39.2363281 Z M103.556641,34.5898438 L105.115234,34.5898438 L106.597656,39.546875 L106.697266,39.546875 L108.167969,34.5898438 L109.703125,34.5898438 L107.435547,41 L105.835938,41 L103.556641,34.5898438 Z M110.945312,41 L110.945312,34.5898438 L112.392578,34.5898438 L112.392578,41 L110.945312,41 Z M111.666016,33.546875 C111.138672,33.546875 110.769531,33.2070312 110.769531,32.7441406 C110.769531,32.28125 111.138672,31.9414062 111.666016,31.9414062 C112.199219,31.9414062 112.5625,32.28125 112.5625,32.7441406 C112.5625,33.2070312 112.199219,33.546875 111.666016,33.546875 Z M114.044922,36.4238281 C114.044922,35.2636719 115.099609,34.4609375 116.611328,34.4609375 C118.134766,34.4609375 119.089844,35.1347656 119.195312,36.3007812 L117.830078,36.3007812 C117.724609,35.8496094 117.296875,35.5625 116.617188,35.5625 C115.955078,35.5625 115.457031,35.8789062 115.457031,36.3417969 C115.457031,36.7050781 115.761719,36.9277344 116.40625,37.0742188 L117.537109,37.3320312 C118.761719,37.6074219 119.330078,38.1347656 119.330078,39.078125 C119.330078,40.3085938 118.199219,41.1289062 116.599609,41.1289062 C115,41.1289062 113.992188,40.4375 113.880859,39.2714844 L115.316406,39.2714844 C115.457031,39.7460938 115.908203,40.0273438 116.634766,40.0273438 C117.367188,40.0273438 117.876953,39.7050781 117.876953,39.2304688 C117.876953,38.8671875 117.601562,38.6386719 116.992188,38.5039062 L115.855469,38.2402344 C114.625,37.9589844 114.044922,37.390625 114.044922,36.4238281 Z M120.818359,41 L120.818359,34.5898438 L122.265625,34.5898438 L122.265625,41 L120.818359,41 Z M121.539062,33.546875 C121.011719,33.546875 120.642578,33.2070312 120.642578,32.7441406 C120.642578,32.28125 121.011719,31.9414062 121.539062,31.9414062 C122.072266,31.9414062 122.435547,32.28125 122.435547,32.7441406 C122.435547,33.2070312 122.072266,33.546875 121.539062,33.546875 Z M124.527344,33.0605469 L125.974609,33.0605469 L125.974609,34.6308594 L127.380859,34.6308594 L127.380859,35.7910156 L125.974609,35.7910156 L125.974609,38.9375 C125.974609,39.5703125 126.244141,39.8515625 126.853516,39.8515625 C127.058594,39.8515625 127.164062,39.8398438 127.333984,39.8222656 L127.333984,40.9589844 C127.128906,41 126.865234,41.0292969 126.583984,41.0292969 C125.113281,41.0292969 124.527344,40.53125 124.527344,39.2890625 L124.527344,35.7910156 L123.484375,35.7910156 L123.484375,34.6308594 L124.527344,34.6308594 L124.527344,33.0605469 Z" id="Office-visit" fill="#24124D" opacity="0.5"></path>
            <rect id="Rectangle-9" fill="#512DA8" x="80" y="60" width="224" height="12" rx="4"></rect>
            <rect id="Rectangle-9" fill="#DCD5EE" x="24" y="60" width="40" height="12" rx="4"></rect>
            <rect id="Rectangle-9" fill="#DCD5EE" x="320" y="60" width="40" height="12" rx="4"></rect>
            <rect id="Rectangle-12" fill-opacity="0.1" fill="#5182F8" fill-rule="nonzero" x="7" y="8" width="370" height="82" rx="4"></rect>
            <g id="Checkbox">
                <g id="Oval" fill-rule="nonzero">
                    <use fill="black" fill-opacity="1" filter="url(#filter-24)" xlink:href="#path-23"></use>
                    <use fill="#5182F8" xlink:href="#path-23"></use>
                </g>
                <g id="check" transform="translate(6.666667, 8.666667)" stroke="#FFFFFF" stroke-linecap="round" stroke-linejoin="round" stroke-width="2">
                    <polyline id="Shape" points="10.6666667 0 3.33333333 7.33333333 0 4"></polyline>
                </g>
            </g>
        </g>
    </g>
</svg>