<?xml version="1.0" encoding="UTF-8"?>
<svg width="400px" height="320px" viewBox="0 0 400 320" version="1.1" xmlns="http://www.w3.org/2000/svg" xmlns:xlink="http://www.w3.org/1999/xlink">
    <!-- Generator: Sketch 51 (57462) - http://www.bohemiancoding.com/sketch -->
    <title>snippet/import</title>
    <desc>Created with Sketch.</desc>
    <defs>
        <rect id="path-1" x="0" y="0" width="72" height="40" rx="4"></rect>
        <filter x="-4.9%" y="-6.2%" width="109.7%" height="117.5%" filterUnits="objectBoundingBox" id="filter-2">
            <feOffset dx="0" dy="1" in="SourceAlpha" result="shadowOffsetOuter1"></feOffset>
            <feGaussianBlur stdDeviation="1" in="shadowOffsetOuter1" result="shadowBlurOuter1"></feGaussianBlur>
            <feColorMatrix values="0 0 0 0 0   0 0 0 0 0   0 0 0 0 0  0 0 0 0.08 0" type="matrix" in="shadowBlurOuter1"></feColorMatrix>
        </filter>
        <rect id="path-3" x="0" y="0" width="144" height="40" rx="4"></rect>
        <filter x="-3.1%" y="-8.8%" width="106.2%" height="122.5%" filterUnits="objectBoundingBox" id="filter-4">
            <feMorphology radius="1" operator="dilate" in="SourceAlpha" result="shadowSpreadOuter1"></feMorphology>
            <feOffset dx="0" dy="1" in="shadowSpreadOuter1" result="shadowOffsetOuter1"></feOffset>
            <feGaussianBlur stdDeviation="1" in="shadowOffsetOuter1" result="shadowBlurOuter1"></feGaussianBlur>
            <feComposite in="shadowBlurOuter1" in2="SourceAlpha" operator="out" result="shadowBlurOuter1"></feComposite>
            <feColorMatrix values="0 0 0 0 0   0 0 0 0 0   0 0 0 0 0  0 0 0 0.04 0" type="matrix" in="shadowBlurOuter1"></feColorMatrix>
        </filter>
        <rect id="path-5" x="0" y="0" width="24" height="24" rx="4"></rect>
        <filter x="-22.9%" y="-14.6%" width="145.8%" height="145.8%" filterUnits="objectBoundingBox" id="filter-6">
            <feOffset dx="0" dy="2" in="SourceAlpha" result="shadowOffsetOuter1"></feOffset>
            <feGaussianBlur stdDeviation="1.5" in="shadowOffsetOuter1" result="shadowBlurOuter1"></feGaussianBlur>
            <feColorMatrix values="0 0 0 0 0   0 0 0 0 0   0 0 0 0 0  0 0 0 0.0508378623 0" type="matrix" in="shadowBlurOuter1"></feColorMatrix>
        </filter>
    </defs>
    <g id="snippet/import" stroke="none" stroke-width="1" fill="none" fill-rule="evenodd">
        <g id="Group" transform="translate(16.000000, 16.000000)">
            <g id="Actions" transform="translate(0.000000, 200.000000)">
                <g id="Buttons" transform="translate(0.000000, 48.000000)">
                    <g id="Button">
                        <g id="Rectangle">
                            <use fill="black" fill-opacity="1" filter="url(#filter-2)" xlink:href="#path-1"></use>
                            <use fill="#009688" fill-rule="evenodd" xlink:href="#path-1"></use>
                        </g>
                        <path d="M16.2099609,24 L14.4462891,24 L14.4462891,14.1357422 L16.2099609,14.1357422 L16.2099609,24 Z M18.4658203,24 L18.4658203,16.5214844 L20.0996094,16.5214844 L20.0996094,17.7314453 L20.2158203,17.7314453 C20.5371094,16.8769531 21.3027344,16.3710938 22.2939453,16.3710938 C23.3261719,16.3710938 24.0439453,16.890625 24.3583984,17.7314453 L24.4746094,17.7314453 C24.84375,16.9111328 25.7050781,16.3710938 26.7441406,16.3710938 C28.2412109,16.3710938 29.1435547,17.3076172 29.1435547,18.859375 L29.1435547,24 L27.4550781,24 L27.4550781,19.2900391 C27.4550781,18.3261719 26.9970703,17.8476562 26.0878906,17.8476562 C25.2060547,17.8476562 24.625,18.4902344 24.625,19.3447266 L24.625,24 L22.9775391,24 L22.9775391,19.1669922 C22.9775391,18.3466797 22.4580078,17.8476562 21.6240234,17.8476562 C20.7832031,17.8476562 20.1611328,18.5380859 20.1611328,19.4541016 L20.1611328,24 L18.4658203,24 Z M35.2275391,16.3984375 C37.1210938,16.3984375 38.3105469,17.8613281 38.3105469,20.2607422 C38.3105469,22.6464844 37.1347656,24.1230469 35.2480469,24.1230469 C34.1748047,24.1230469 33.3476562,23.6582031 32.9648438,22.8652344 L32.8486328,22.8652344 L32.8486328,26.3925781 L31.1533203,26.3925781 L31.1533203,16.5214844 L32.7871094,16.5214844 L32.7871094,17.7587891 L32.9033203,17.7587891 C33.3339844,16.9111328 34.2021484,16.3984375 35.2275391,16.3984375 Z M34.6943359,22.6806641 C35.8701172,22.6806641 36.5673828,21.7714844 36.5673828,20.2607422 C36.5673828,18.75 35.8632812,17.8408203 34.7011719,17.8408203 C33.5458984,17.8408203 32.8212891,18.7705078 32.8144531,20.2607422 C32.8212891,21.7578125 33.5390625,22.6806641 34.6943359,22.6806641 Z M43.2392578,22.7285156 C44.421875,22.7285156 45.0917969,21.8261719 45.0917969,20.2607422 C45.0917969,18.7021484 44.4150391,17.7929688 43.2392578,17.7929688 C42.0566406,17.7929688 41.3798828,18.7021484 41.3798828,20.2607422 C41.3798828,21.8261719 42.0566406,22.7285156 43.2392578,22.7285156 Z M43.2392578,24.1503906 C40.9970703,24.1503906 39.6435547,22.6875 39.6435547,20.2607422 C39.6435547,17.8476562 41.0175781,16.3710938 43.2392578,16.3710938 C45.4677734,16.3710938 46.8349609,17.8408203 46.8349609,20.2607422 C46.8349609,22.6875 45.4746094,24.1503906 43.2392578,24.1503906 Z M48.5439453,24 L48.5439453,16.5214844 L50.1777344,16.5214844 L50.1777344,17.6835938 L50.2939453,17.6835938 C50.4990234,16.9453125 51.2988281,16.3984375 52.2558594,16.3984375 C52.4951172,16.3984375 52.7890625,16.4257812 52.953125,16.4736328 L52.953125,18.0458984 C52.8232422,17.9980469 52.3583984,17.9501953 52.0917969,17.9501953 C51.0048828,17.9501953 50.2392578,18.6337891 50.2392578,19.6796875 L50.2392578,24 L48.5439453,24 Z M54.8261719,14.7373047 L56.5146484,14.7373047 L56.5146484,16.5693359 L58.1552734,16.5693359 L58.1552734,17.9228516 L56.5146484,17.9228516 L56.5146484,21.59375 C56.5146484,22.3320312 56.8291016,22.6601562 57.5400391,22.6601562 C57.7792969,22.6601562 57.9023438,22.6464844 58.1005859,22.6259766 L58.1005859,23.9521484 C57.8613281,24 57.5537109,24.0341797 57.2255859,24.0341797 C55.5097656,24.0341797 54.8261719,23.453125 54.8261719,22.0039062 L54.8261719,17.9228516 L53.609375,17.9228516 L53.609375,16.5693359 L54.8261719,16.5693359 L54.8261719,14.7373047 Z" id="Import" fill="#FFFFFF"></path>
                    </g>
                    <path d="M88.9375,24 L88.9375,17.6191406 L90.1914062,17.6191406 L90.1914062,24 L88.9375,24 Z M89.5644531,16.5 C89.0957031,16.5 88.75,16.1660156 88.75,15.7324219 C88.75,15.2929688 89.0957031,14.9589844 89.5644531,14.9589844 C90.0332031,14.9589844 90.3789062,15.2929688 90.3789062,15.7324219 C90.3789062,16.1660156 90.0332031,16.5 89.5644531,16.5 Z M92.0429688,24 L92.0429688,17.6191406 L93.2558594,17.6191406 L93.2558594,18.6328125 L93.3496094,18.6328125 C93.6601562,17.9238281 94.4042969,17.4960938 95.3652344,17.4960938 C96.7890625,17.4960938 97.5917969,18.3515625 97.5917969,19.8691406 L97.5917969,24 L96.3320312,24 L96.3320312,20.1855469 C96.3320312,19.1601562 95.875,18.6503906 94.9375,18.6503906 C93.9238281,18.6503906 93.3027344,19.2714844 93.3027344,20.2675781 L93.3027344,24 L92.0429688,24 Z M99.8066406,16.0722656 L101.066406,16.0722656 L101.066406,17.6484375 L102.496094,17.6484375 L102.496094,18.7089844 L101.066406,18.7089844 L101.066406,21.9902344 C101.066406,22.6582031 101.341797,22.9511719 101.96875,22.9511719 C102.162109,22.9511719 102.261719,22.9394531 102.4375,22.921875 L102.4375,23.9707031 C102.238281,24.0058594 102.009766,24.0351562 101.763672,24.0351562 C100.363281,24.0351562 99.8066406,23.5429688 99.8066406,22.3125 L99.8066406,18.7089844 L98.7578125,18.7089844 L98.7578125,17.6484375 L99.8066406,17.6484375 L99.8066406,16.0722656 Z M106.626953,23.0039062 C107.716797,23.0039062 108.337891,22.1953125 108.337891,20.8066406 C108.337891,19.4238281 107.716797,18.6152344 106.626953,18.6152344 C105.53125,18.6152344 104.916016,19.4238281 104.916016,20.8066406 C104.916016,22.2011719 105.53125,23.0039062 106.626953,23.0039062 Z M106.626953,24.1230469 C104.757812,24.1230469 103.615234,22.875 103.615234,20.8066406 C103.615234,18.75 104.763672,17.4960938 106.626953,17.4960938 C108.484375,17.4960938 109.632812,18.75 109.632812,20.8066406 C109.632812,22.875 108.490234,24.1230469 106.626953,24.1230469 Z" id="into" fill="#726D82"></path>
                    <g id="component/select" transform="translate(128.000000, 0.000000)">
                        <g id="Rectangle-5" stroke-linecap="square">
                            <use fill="black" fill-opacity="1" filter="url(#filter-4)" xlink:href="#path-3"></use>
                            <rect stroke-opacity="0.098194067" stroke="#140B2F" stroke-width="1" fill="#FFFFFF" fill-rule="evenodd" x="-0.5" y="-0.5" width="145" height="41" rx="4"></rect>
                        </g>
                        <path d="M19.6220703,24 L18.7197266,21.3818359 L14.9599609,21.3818359 L14.0507812,24 L12.4785156,24 L16.0400391,14.1357422 L17.6875,14.1357422 L21.2490234,24 L19.6220703,24 Z M16.7851562,15.9267578 L15.3496094,20.0966797 L18.3300781,20.0966797 L16.9013672,15.9267578 L16.7851562,15.9267578 Z M26.65625,16.4326172 C28.5498047,16.4326172 29.7460938,17.9091797 29.7460938,20.2744141 C29.7460938,22.6396484 28.5498047,24.1230469 26.6699219,24.1230469 C25.6103516,24.1230469 24.7695312,23.6582031 24.3798828,22.8720703 L24.2636719,22.8720703 L24.2636719,26.4130859 L22.7939453,26.4130859 L22.7939453,16.5556641 L24.2089844,16.5556641 L24.2089844,17.7861328 L24.3183594,17.7861328 C24.7695312,16.9384766 25.6445312,16.4326172 26.65625,16.4326172 Z M26.2392578,22.8037109 C27.4902344,22.8037109 28.2353516,21.8535156 28.2353516,20.2744141 C28.2353516,18.7021484 27.4902344,17.7519531 26.2460938,17.7519531 C25.0087891,17.7519531 24.2363281,18.7226562 24.2363281,20.28125 C24.2363281,21.8330078 25.0087891,22.8037109 26.2392578,22.8037109 Z M35.3720703,16.4326172 C37.265625,16.4326172 38.4619141,17.9091797 38.4619141,20.2744141 C38.4619141,22.6396484 37.265625,24.1230469 35.3857422,24.1230469 C34.3261719,24.1230469 33.4853516,23.6582031 33.0957031,22.8720703 L32.9794922,22.8720703 L32.9794922,26.4130859 L31.5097656,26.4130859 L31.5097656,16.5556641 L32.9248047,16.5556641 L32.9248047,17.7861328 L33.0341797,17.7861328 C33.4853516,16.9384766 34.3603516,16.4326172 35.3720703,16.4326172 Z M34.9550781,22.8037109 C36.2060547,22.8037109 36.9511719,21.8535156 36.9511719,20.2744141 C36.9511719,18.7021484 36.2060547,17.7519531 34.9619141,17.7519531 C33.7246094,17.7519531 32.9521484,18.7226562 32.9521484,20.28125 C32.9521484,21.8330078 33.7246094,22.8037109 34.9550781,22.8037109 Z M44.0537109,24 L44.0537109,16.5556641 L45.46875,16.5556641 L45.46875,17.6972656 L45.578125,17.6972656 C45.7900391,16.9658203 46.6103516,16.4326172 47.5810547,16.4326172 C47.7929688,16.4326172 48.0732422,16.453125 48.2304688,16.4941406 L48.2304688,17.9433594 C48.1142578,17.9023438 47.6630859,17.8544922 47.4169922,17.8544922 C46.3095703,17.8544922 45.5234375,18.5585938 45.5234375,19.6044922 L45.5234375,24 L44.0537109,24 Z M52.6328125,17.6630859 C51.5458984,17.6630859 50.7871094,18.4287109 50.7050781,19.5908203 L54.4648438,19.5908203 C54.4306641,18.421875 53.7197266,17.6630859 52.6328125,17.6630859 Z M54.4580078,21.9902344 L55.8730469,21.9902344 C55.5380859,23.3232422 54.3486328,24.1435547 52.6464844,24.1435547 C50.5136719,24.1435547 49.2080078,22.6806641 49.2080078,20.3017578 C49.2080078,17.9228516 50.5410156,16.4121094 52.6396484,16.4121094 C54.7109375,16.4121094 55.9619141,17.8271484 55.9619141,20.1650391 L55.9619141,20.6777344 L50.7050781,20.6777344 L50.7050781,20.7597656 C50.7529297,22.0654297 51.5117188,22.8925781 52.6875,22.8925781 C53.5761719,22.8925781 54.1845703,22.5712891 54.4580078,21.9902344 Z M57.0830078,16.5556641 L58.6552734,16.5556641 L60.5078125,22.4277344 L60.6240234,22.4277344 L62.4697266,16.5556641 L64.0283203,16.5556641 L61.3486328,24 L59.7695312,24 L57.0830078,16.5556641 Z M65.5458984,24 L65.5458984,16.5556641 L67.0087891,16.5556641 L67.0087891,24 L65.5458984,24 Z M66.2773438,15.25 C65.7304688,15.25 65.3271484,14.8603516 65.3271484,14.3544922 C65.3271484,13.8417969 65.7304688,13.4521484 66.2773438,13.4521484 C66.8242188,13.4521484 67.2275391,13.8417969 67.2275391,14.3544922 C67.2275391,14.8603516 66.8242188,15.25 66.2773438,15.25 Z M72.2246094,17.6630859 C71.1376953,17.6630859 70.3789062,18.4287109 70.296875,19.5908203 L74.0566406,19.5908203 C74.0224609,18.421875 73.3115234,17.6630859 72.2246094,17.6630859 Z M74.0498047,21.9902344 L75.4648438,21.9902344 C75.1298828,23.3232422 73.9404297,24.1435547 72.2382812,24.1435547 C70.1054688,24.1435547 68.7998047,22.6806641 68.7998047,20.3017578 C68.7998047,17.9228516 70.1328125,16.4121094 72.2314453,16.4121094 C74.3027344,16.4121094 75.5537109,17.8271484 75.5537109,20.1650391 L75.5537109,20.6777344 L70.296875,20.6777344 L70.296875,20.7597656 C70.3447266,22.0654297 71.1035156,22.8925781 72.2792969,22.8925781 C73.1679688,22.8925781 73.7763672,22.5712891 74.0498047,21.9902344 Z M87.0107422,16.5556641 L84.9667969,24 L83.4423828,24 L81.9042969,18.5175781 L81.7880859,18.5175781 L80.2568359,24 L78.7460938,24 L76.6953125,16.5556641 L78.1855469,16.5556641 L79.5185547,22.2363281 L79.6279297,22.2363281 L81.1591797,16.5556641 L82.5673828,16.5556641 L84.0986328,22.2363281 L84.2148438,22.2363281 L85.5410156,16.5556641 L87.0107422,16.5556641 Z M88.3574219,18.6611328 C88.3574219,17.3417969 89.5673828,16.4121094 91.2490234,16.4121094 C92.9238281,16.4121094 94.0175781,17.1914062 94.1611328,18.5039062 L92.7529297,18.5039062 C92.6162109,17.9570312 92.0830078,17.6083984 91.2490234,17.6083984 C90.4287109,17.6083984 89.8066406,17.9980469 89.8066406,18.5791016 C89.8066406,19.0234375 90.1826172,19.3037109 90.9892578,19.4882812 L92.2265625,19.7753906 C93.6416016,20.1035156 94.3046875,20.7119141 94.3046875,21.8056641 C94.3046875,23.2070312 92.9990234,24.1435547 91.2216797,24.1435547 C89.4511719,24.1435547 88.2958984,23.34375 88.1660156,22.0244141 L89.6357422,22.0244141 C89.8203125,22.5986328 90.3671875,22.9541016 91.2558594,22.9541016 C92.171875,22.9541016 92.8212891,22.5439453 92.8212891,21.9492188 C92.8212891,21.5048828 92.4726562,21.2177734 91.7275391,21.0400391 L90.4287109,20.7392578 C89.0136719,20.4042969 88.3574219,19.7685547 88.3574219,18.6611328 Z" id="Select…" fill="#140B2F"></path>
                        <g id="icons/chevron-down" transform="translate(108.000000, 8.000000)" stroke="#7B7194" stroke-linecap="round" stroke-linejoin="round">
                            <g id="chevron-down" transform="translate(6.000000, 9.000000)">
                                <polyline id="Shape" stroke-width="2" points="0 0 6 6 12 0"></polyline>
                            </g>
                        </g>
                    </g>
                </g>
                <g id="Sentiment">
                    <g id="component/checkbox-checked">
                        <g id="Checkbox-checked">
                            <g id="Rectangle-5">
                                <use fill="black" fill-opacity="1" filter="url(#filter-6)" xlink:href="#path-5"></use>
                                <use fill="#5182F8" fill-rule="evenodd" xlink:href="#path-5"></use>
                            </g>
                            <g id="Tick" transform="translate(2.000000, 2.000000)">
                                <rect id="Rectangle" x="0" y="0" width="20" height="20"></rect>
                                <polyline id="Path-3" stroke="#FFFFFF" stroke-width="2" stroke-linecap="round" points="5 11 8 14 15 7"></polyline>
                            </g>
                        </g>
                    </g>
                    <path d="M46.5332031,16 L45.7597656,13.7558594 L42.5371094,13.7558594 L41.7578125,16 L40.4101562,16 L43.4628906,7.54492188 L44.875,7.54492188 L47.9277344,16 L46.5332031,16 Z M44.1015625,9.08007812 L42.8710938,12.6542969 L45.4257812,12.6542969 L44.2011719,9.08007812 L44.1015625,9.08007812 Z M54.7539062,9.61914062 L54.7539062,16 L53.546875,16 L53.546875,14.9863281 L53.4472656,14.9863281 C53.1367188,15.7128906 52.4101562,16.1230469 51.4492188,16.1230469 C50.03125,16.1230469 49.1933594,15.2617188 49.1933594,13.75 L49.1933594,9.61914062 L50.453125,9.61914062 L50.453125,13.4335938 C50.453125,14.4648438 50.9277344,14.9570313 51.859375,14.9570313 C52.8730469,14.9570313 53.5,14.3535156 53.5,13.3515625 L53.5,9.61914062 L54.7539062,9.61914062 Z M57.0332031,8.07226562 L58.2929688,8.07226562 L58.2929688,9.6484375 L59.7226562,9.6484375 L59.7226562,10.7089844 L58.2929688,10.7089844 L58.2929688,13.9902344 C58.2929688,14.6582031 58.5683594,14.9511719 59.1953125,14.9511719 C59.3886719,14.9511719 59.4882812,14.9394531 59.6640625,14.921875 L59.6640625,15.9707031 C59.4648438,16.0058594 59.2363281,16.0351562 58.9902344,16.0351562 C57.5898438,16.0351562 57.0332031,15.5429688 57.0332031,14.3125 L57.0332031,10.7089844 L55.984375,10.7089844 L55.984375,9.6484375 L57.0332031,9.6484375 L57.0332031,8.07226562 Z M63.8535156,15.0039062 C64.9433594,15.0039062 65.5644531,14.1953125 65.5644531,12.8066406 C65.5644531,11.4238281 64.9433594,10.6152344 63.8535156,10.6152344 C62.7578125,10.6152344 62.1425781,11.4238281 62.1425781,12.8066406 C62.1425781,14.2011719 62.7578125,15.0039062 63.8535156,15.0039062 Z M63.8535156,16.1230469 C61.984375,16.1230469 60.8417969,14.875 60.8417969,12.8066406 C60.8417969,10.75 61.9902344,9.49609375 63.8535156,9.49609375 C65.7109375,9.49609375 66.859375,10.75 66.859375,12.8066406 C66.859375,14.875 65.7167969,16.1230469 63.8535156,16.1230469 Z M68.3710938,16 L68.3710938,9.61914062 L69.5839844,9.61914062 L69.5839844,10.6445312 L69.6777344,10.6445312 C69.9589844,9.92382812 70.6035156,9.49609375 71.453125,9.49609375 C72.3261719,9.49609375 72.9296875,9.94726562 73.2109375,10.6445312 L73.3105469,10.6445312 C73.6328125,9.94726562 74.3652344,9.49609375 75.25,9.49609375 C76.5390625,9.49609375 77.2890625,10.2753906 77.2890625,11.6054688 L77.2890625,16 L76.0292969,16 L76.0292969,11.9335938 C76.0292969,11.0722656 75.6191406,10.6503906 74.7929688,10.6503906 C73.9785156,10.6503906 73.4453125,11.2363281 73.4453125,11.9863281 L73.4453125,16 L72.2089844,16 L72.2089844,11.8105469 C72.2089844,11.0898438 71.7285156,10.6503906 70.9785156,10.6503906 C70.2109375,10.6503906 69.6308594,11.2773438 69.6308594,12.0976562 L69.6308594,16 L68.3710938,16 Z M81.1445312,15.0449219 C82.09375,15.0449219 82.796875,14.4414062 82.796875,13.6503906 L82.796875,13.1171875 L81.2382812,13.2167969 C80.359375,13.2753906 79.9609375,13.5742188 79.9609375,14.1367188 C79.9609375,14.7109375 80.4589844,15.0449219 81.1445312,15.0449219 Z M80.8222656,16.1054688 C79.5917969,16.1054688 78.6953125,15.3613281 78.6953125,14.1953125 C78.6953125,13.046875 79.5507812,12.3847656 81.0683594,12.2910156 L82.796875,12.1914062 L82.796875,11.640625 C82.796875,10.9667969 82.3515625,10.5859375 81.4902344,10.5859375 C80.7871094,10.5859375 80.3007812,10.84375 80.1601562,11.2949219 L78.9414062,11.2949219 C79.0703125,10.1992188 80.1015625,9.49609375 81.5488281,9.49609375 C83.1484375,9.49609375 84.0507812,10.2929688 84.0507812,11.640625 L84.0507812,16 L82.8378906,16 L82.8378906,15.1035156 L82.7382812,15.1035156 C82.3574219,15.7421875 81.6601562,16.1054688 80.8222656,16.1054688 Z M86.2890625,8.07226562 L87.5488281,8.07226562 L87.5488281,9.6484375 L88.9785156,9.6484375 L88.9785156,10.7089844 L87.5488281,10.7089844 L87.5488281,13.9902344 C87.5488281,14.6582031 87.8242188,14.9511719 88.4511719,14.9511719 C88.6445312,14.9511719 88.7441406,14.9394531 88.9199219,14.921875 L88.9199219,15.9707031 C88.7207031,16.0058594 88.4921875,16.0351562 88.2460938,16.0351562 C86.8457031,16.0351562 86.2890625,15.5429688 86.2890625,14.3125 L86.2890625,10.7089844 L85.2402344,10.7089844 L85.2402344,9.6484375 L86.2890625,9.6484375 L86.2890625,8.07226562 Z M90.4375,16 L90.4375,9.61914062 L91.6914062,9.61914062 L91.6914062,16 L90.4375,16 Z M91.0644531,8.5 C90.5957031,8.5 90.25,8.16601562 90.25,7.73242188 C90.25,7.29296875 90.5957031,6.95898438 91.0644531,6.95898438 C91.5332031,6.95898438 91.8789062,7.29296875 91.8789062,7.73242188 C91.8789062,8.16601562 91.5332031,8.5 91.0644531,8.5 Z M98.9453125,11.7050781 L97.7207031,11.7050781 C97.5742188,11.0839844 97.0585938,10.6210938 96.2148438,10.6210938 C95.1601562,10.6210938 94.515625,11.4296875 94.515625,12.7890625 C94.515625,14.171875 95.1660156,14.9980469 96.2148438,14.9980469 C97.0117188,14.9980469 97.5566406,14.6347656 97.7207031,13.9492188 L98.9453125,13.9492188 C98.78125,15.2324219 97.796875,16.1230469 96.2207031,16.1230469 C94.3632812,16.1230469 93.2265625,14.8691406 93.2265625,12.7890625 C93.2265625,10.7441406 94.3574219,9.49609375 96.2148438,9.49609375 C97.8144531,9.49609375 98.78125,10.4277344 98.9453125,11.7050781 Z M102.466797,15.0449219 C103.416016,15.0449219 104.119141,14.4414062 104.119141,13.6503906 L104.119141,13.1171875 L102.560547,13.2167969 C101.681641,13.2753906 101.283203,13.5742188 101.283203,14.1367188 C101.283203,14.7109375 101.78125,15.0449219 102.466797,15.0449219 Z M102.144531,16.1054688 C100.914062,16.1054688 100.017578,15.3613281 100.017578,14.1953125 C100.017578,13.046875 100.873047,12.3847656 102.390625,12.2910156 L104.119141,12.1914062 L104.119141,11.640625 C104.119141,10.9667969 103.673828,10.5859375 102.8125,10.5859375 C102.109375,10.5859375 101.623047,10.84375 101.482422,11.2949219 L100.263672,11.2949219 C100.392578,10.1992188 101.423828,9.49609375 102.871094,9.49609375 C104.470703,9.49609375 105.373047,10.2929688 105.373047,11.640625 L105.373047,16 L104.160156,16 L104.160156,15.1035156 L104.060547,15.1035156 C103.679688,15.7421875 102.982422,16.1054688 102.144531,16.1054688 Z M107.224609,16 L107.224609,7.12890625 L108.484375,7.12890625 L108.484375,16 L107.224609,16 Z M110.429688,16 L110.429688,7.12890625 L111.689453,7.12890625 L111.689453,16 L110.429688,16 Z M114.208984,18.3203125 C114.103516,18.3203125 113.804687,18.3144531 113.6875,18.2910156 L113.6875,17.2070312 C113.787109,17.2246094 113.980469,17.2304688 114.097656,17.2304688 C114.695312,17.2304688 115.035156,16.9785156 115.251953,16.3339844 L115.345703,16.0234375 L113.037109,9.61914062 L114.408203,9.61914062 L116.007812,14.6875 L116.107422,14.6875 L117.701172,9.61914062 L119.037109,9.61914062 L116.658203,16.2636719 C116.113281,17.8164062 115.509766,18.3203125 114.208984,18.3203125 Z M125.693359,15.0449219 C126.642578,15.0449219 127.345703,14.4414062 127.345703,13.6503906 L127.345703,13.1171875 L125.787109,13.2167969 C124.908203,13.2753906 124.509766,13.5742188 124.509766,14.1367188 C124.509766,14.7109375 125.007812,15.0449219 125.693359,15.0449219 Z M125.371094,16.1054688 C124.140625,16.1054688 123.244141,15.3613281 123.244141,14.1953125 C123.244141,13.046875 124.099609,12.3847656 125.617188,12.2910156 L127.345703,12.1914062 L127.345703,11.640625 C127.345703,10.9667969 126.900391,10.5859375 126.039062,10.5859375 C125.335938,10.5859375 124.849609,10.84375 124.708984,11.2949219 L123.490234,11.2949219 C123.619141,10.1992188 124.650391,9.49609375 126.097656,9.49609375 C127.697266,9.49609375 128.599609,10.2929688 128.599609,11.640625 L128.599609,16 L127.386719,16 L127.386719,15.1035156 L127.287109,15.1035156 C126.90625,15.7421875 126.208984,16.1054688 125.371094,16.1054688 Z M130.392578,16 L130.392578,9.61914062 L131.605469,9.61914062 L131.605469,10.6328125 L131.699219,10.6328125 C132.009766,9.92382812 132.753906,9.49609375 133.714844,9.49609375 C135.138672,9.49609375 135.941406,10.3515625 135.941406,11.8691406 L135.941406,16 L134.681641,16 L134.681641,12.1855469 C134.681641,11.1601562 134.224609,10.6503906 133.287109,10.6503906 C132.273438,10.6503906 131.652344,11.2714844 131.652344,12.2675781 L131.652344,16 L130.392578,16 Z M139.796875,15.0449219 C140.746094,15.0449219 141.449219,14.4414062 141.449219,13.6503906 L141.449219,13.1171875 L139.890625,13.2167969 C139.011719,13.2753906 138.613281,13.5742188 138.613281,14.1367188 C138.613281,14.7109375 139.111328,15.0449219 139.796875,15.0449219 Z M139.474609,16.1054688 C138.244141,16.1054688 137.347656,15.3613281 137.347656,14.1953125 C137.347656,13.046875 138.203125,12.3847656 139.720703,12.2910156 L141.449219,12.1914062 L141.449219,11.640625 C141.449219,10.9667969 141.003906,10.5859375 140.142578,10.5859375 C139.439453,10.5859375 138.953125,10.84375 138.8125,11.2949219 L137.59375,11.2949219 C137.722656,10.1992188 138.753906,9.49609375 140.201172,9.49609375 C141.800781,9.49609375 142.703125,10.2929688 142.703125,11.640625 L142.703125,16 L141.490234,16 L141.490234,15.1035156 L141.390625,15.1035156 C141.009766,15.7421875 140.3125,16.1054688 139.474609,16.1054688 Z M144.554688,16 L144.554688,7.12890625 L145.814453,7.12890625 L145.814453,16 L144.554688,16 Z M148.333984,18.3203125 C148.228516,18.3203125 147.929688,18.3144531 147.8125,18.2910156 L147.8125,17.2070312 C147.912109,17.2246094 148.105469,17.2304688 148.222656,17.2304688 C148.820312,17.2304688 149.160156,16.9785156 149.376953,16.3339844 L149.470703,16.0234375 L147.162109,9.61914062 L148.533203,9.61914062 L150.132812,14.6875 L150.232422,14.6875 L151.826172,9.61914062 L153.162109,9.61914062 L150.783203,16.2636719 C150.238281,17.8164062 149.634766,18.3203125 148.333984,18.3203125 Z M154.304688,16 L154.304688,15.1445312 L157.814453,10.7851562 L157.814453,10.6855469 L154.328125,10.6855469 L154.328125,9.61914062 L159.320312,9.61914062 L159.320312,10.5390625 L155.886719,14.8339844 L155.886719,14.9335938 L159.355469,14.9335938 L159.355469,16 L154.304688,16 Z M163.65625,10.5683594 C162.724609,10.5683594 162.074219,11.2246094 162.003906,12.2207031 L165.226562,12.2207031 C165.197266,11.21875 164.587891,10.5683594 163.65625,10.5683594 Z M165.220703,14.2773438 L166.433594,14.2773438 C166.146484,15.4199219 165.126953,16.1230469 163.667969,16.1230469 C161.839844,16.1230469 160.720703,14.8691406 160.720703,12.8300781 C160.720703,10.7910156 161.863281,9.49609375 163.662109,9.49609375 C165.4375,9.49609375 166.509766,10.7089844 166.509766,12.7128906 L166.509766,13.1523438 L162.003906,13.1523438 L162.003906,13.2226562 C162.044922,14.3417969 162.695312,15.0507812 163.703125,15.0507812 C164.464844,15.0507812 164.986328,14.7753906 165.220703,14.2773438 Z M171.15625,11.4238281 C171.15625,10.2929688 172.193359,9.49609375 173.634766,9.49609375 C175.070312,9.49609375 176.007812,10.1640625 176.130859,11.2890625 L174.923828,11.2890625 C174.806641,10.8203125 174.349609,10.5214844 173.634766,10.5214844 C172.931641,10.5214844 172.398438,10.8554688 172.398438,11.3535156 C172.398438,11.734375 172.720703,11.9746094 173.412109,12.1328125 L174.472656,12.3789062 C175.685547,12.6601562 176.253906,13.1816406 176.253906,14.1191406 C176.253906,15.3203125 175.134766,16.1230469 173.611328,16.1230469 C172.09375,16.1230469 171.103516,15.4375 170.992188,14.3066406 L172.251953,14.3066406 C172.410156,14.7988281 172.878906,15.1035156 173.640625,15.1035156 C174.425781,15.1035156 174.982422,14.7519531 174.982422,14.2421875 C174.982422,13.8613281 174.683594,13.6152344 174.044922,13.4628906 L172.931641,13.2050781 C171.71875,12.9179688 171.15625,12.3730469 171.15625,11.4238281 Z M180.390625,10.5683594 C179.458984,10.5683594 178.808594,11.2246094 178.738281,12.2207031 L181.960938,12.2207031 C181.931641,11.21875 181.322266,10.5683594 180.390625,10.5683594 Z M181.955078,14.2773438 L183.167969,14.2773438 C182.880859,15.4199219 181.861328,16.1230469 180.402344,16.1230469 C178.574219,16.1230469 177.455078,14.8691406 177.455078,12.8300781 C177.455078,10.7910156 178.597656,9.49609375 180.396484,9.49609375 C182.171875,9.49609375 183.244141,10.7089844 183.244141,12.7128906 L183.244141,13.1523438 L178.738281,13.1523438 L178.738281,13.2226562 C178.779297,14.3417969 179.429688,15.0507812 180.4375,15.0507812 C181.199219,15.0507812 181.720703,14.7753906 181.955078,14.2773438 Z M184.755859,16 L184.755859,9.61914062 L185.96875,9.61914062 L185.96875,10.6328125 L186.0625,10.6328125 C186.373047,9.92382812 187.117188,9.49609375 188.078125,9.49609375 C189.501953,9.49609375 190.304688,10.3515625 190.304688,11.8691406 L190.304688,16 L189.044922,16 L189.044922,12.1855469 C189.044922,11.1601562 188.587891,10.6503906 187.650391,10.6503906 C186.636719,10.6503906 186.015625,11.2714844 186.015625,12.2675781 L186.015625,16 L184.755859,16 Z M192.519531,8.07226562 L193.779297,8.07226562 L193.779297,9.6484375 L195.208984,9.6484375 L195.208984,10.7089844 L193.779297,10.7089844 L193.779297,13.9902344 C193.779297,14.6582031 194.054688,14.9511719 194.681641,14.9511719 C194.875,14.9511719 194.974609,14.9394531 195.150391,14.921875 L195.150391,15.9707031 C194.951172,16.0058594 194.722656,16.0351562 194.476562,16.0351562 C193.076172,16.0351562 192.519531,15.5429688 192.519531,14.3125 L192.519531,10.7089844 L191.470703,10.7089844 L191.470703,9.6484375 L192.519531,9.6484375 L192.519531,8.07226562 Z M196.667969,16 L196.667969,9.61914062 L197.921875,9.61914062 L197.921875,16 L196.667969,16 Z M197.294922,8.5 C196.826172,8.5 196.480469,8.16601562 196.480469,7.73242188 C196.480469,7.29296875 196.826172,6.95898438 197.294922,6.95898438 C197.763672,6.95898438 198.109375,7.29296875 198.109375,7.73242188 C198.109375,8.16601562 197.763672,8.5 197.294922,8.5 Z M199.773438,16 L199.773438,9.61914062 L200.986328,9.61914062 L200.986328,10.6445312 L201.080078,10.6445312 C201.361328,9.92382812 202.005859,9.49609375 202.855469,9.49609375 C203.728516,9.49609375 204.332031,9.94726562 204.613281,10.6445312 L204.712891,10.6445312 C205.035156,9.94726562 205.767578,9.49609375 206.652344,9.49609375 C207.941406,9.49609375 208.691406,10.2753906 208.691406,11.6054688 L208.691406,16 L207.431641,16 L207.431641,11.9335938 C207.431641,11.0722656 207.021484,10.6503906 206.195312,10.6503906 C205.380859,10.6503906 204.847656,11.2363281 204.847656,11.9863281 L204.847656,16 L203.611328,16 L203.611328,11.8105469 C203.611328,11.0898438 203.130859,10.6503906 202.380859,10.6503906 C201.613281,10.6503906 201.033203,11.2773438 201.033203,12.0976562 L201.033203,16 L199.773438,16 Z M213.080078,10.5683594 C212.148438,10.5683594 211.498047,11.2246094 211.427734,12.2207031 L214.650391,12.2207031 C214.621094,11.21875 214.011719,10.5683594 213.080078,10.5683594 Z M214.644531,14.2773438 L215.857422,14.2773438 C215.570312,15.4199219 214.550781,16.1230469 213.091797,16.1230469 C211.263672,16.1230469 210.144531,14.8691406 210.144531,12.8300781 C210.144531,10.7910156 211.287109,9.49609375 213.085938,9.49609375 C214.861328,9.49609375 215.933594,10.7089844 215.933594,12.7128906 L215.933594,13.1523438 L211.427734,13.1523438 L211.427734,13.2226562 C211.46875,14.3417969 212.119141,15.0507812 213.126953,15.0507812 C213.888672,15.0507812 214.410156,14.7753906 214.644531,14.2773438 Z M217.445312,16 L217.445312,9.61914062 L218.658203,9.61914062 L218.658203,10.6328125 L218.751953,10.6328125 C219.0625,9.92382812 219.806641,9.49609375 220.767578,9.49609375 C222.191406,9.49609375 222.994141,10.3515625 222.994141,11.8691406 L222.994141,16 L221.734375,16 L221.734375,12.1855469 C221.734375,11.1601562 221.277344,10.6503906 220.339844,10.6503906 C219.326172,10.6503906 218.705078,11.2714844 218.705078,12.2675781 L218.705078,16 L217.445312,16 Z M225.208984,8.07226562 L226.46875,8.07226562 L226.46875,9.6484375 L227.898438,9.6484375 L227.898438,10.7089844 L226.46875,10.7089844 L226.46875,13.9902344 C226.46875,14.6582031 226.744141,14.9511719 227.371094,14.9511719 C227.564453,14.9511719 227.664062,14.9394531 227.839844,14.921875 L227.839844,15.9707031 C227.640625,16.0058594 227.412109,16.0351562 227.166016,16.0351562 C225.765625,16.0351562 225.208984,15.5429688 225.208984,14.3125 L225.208984,10.7089844 L224.160156,10.7089844 L224.160156,9.6484375 L225.208984,9.6484375 L225.208984,8.07226562 Z" id="Automatically-analyz" fill="#726D82"></path>
                </g>
            </g>
            <g>
                <rect id="Rectangle-6" fill="#F1EFF8" x="0" y="0" width="128" height="176" rx="4"></rect>
                <path d="M5.1277704,-2.07168062e-16 L122.87223,2.07168062e-16 C124.655267,-1.2037061e-16 125.30184,0.185651222 125.953691,0.534265408 C126.605543,0.882879593 127.11712,1.39445674 127.465735,2.04630859 C127.814349,2.69816044 128,3.34473292 128,5.1277704 L128,40 L0,40 L1.38112041e-16,5.1277704 C-8.02470732e-17,3.34473292 0.185651222,2.69816044 0.534265408,2.04630859 C0.882879593,1.39445674 1.39445674,0.882879593 2.04630859,0.534265408 C2.69816044,0.185651222 3.34473292,1.2037061e-16 5.1277704,-2.07168062e-16 Z" id="Rectangle-6" fill="#DCD5EE"></path>
                <path d="M19.6220703,24 L18.7197266,21.3818359 L14.9599609,21.3818359 L14.0507812,24 L12.4785156,24 L16.0400391,14.1357422 L17.6875,14.1357422 L21.2490234,24 L19.6220703,24 Z M16.7851562,15.9267578 L15.3496094,20.0966797 L18.3300781,20.0966797 L16.9013672,15.9267578 L16.7851562,15.9267578 Z M29.2128906,16.5556641 L29.2128906,24 L27.8046875,24 L27.8046875,22.8173828 L27.6884766,22.8173828 C27.3261719,23.6650391 26.4785156,24.1435547 25.3574219,24.1435547 C23.703125,24.1435547 22.7255859,23.1386719 22.7255859,21.375 L22.7255859,16.5556641 L24.1953125,16.5556641 L24.1953125,21.0058594 C24.1953125,22.2089844 24.7490234,22.7832031 25.8359375,22.7832031 C27.0185547,22.7832031 27.75,22.0791016 27.75,20.9101562 L27.75,16.5556641 L29.2128906,16.5556641 Z M31.8720703,14.7509766 L33.3417969,14.7509766 L33.3417969,16.5898438 L35.0097656,16.5898438 L35.0097656,17.8271484 L33.3417969,17.8271484 L33.3417969,21.6552734 C33.3417969,22.4345703 33.6630859,22.7763672 34.3945312,22.7763672 C34.6201172,22.7763672 34.7363281,22.7626953 34.9414062,22.7421875 L34.9414062,23.9658203 C34.7089844,24.0068359 34.4423828,24.0410156 34.1552734,24.0410156 C32.5214844,24.0410156 31.8720703,23.4667969 31.8720703,22.03125 L31.8720703,17.8271484 L30.6484375,17.8271484 L30.6484375,16.5898438 L31.8720703,16.5898438 L31.8720703,14.7509766 Z M36.7529297,24 L36.7529297,13.6503906 L38.2089844,13.6503906 L38.2089844,17.7519531 L38.3251953,17.7519531 C38.6875,16.9179688 39.5488281,16.4189453 40.6699219,16.4189453 C42.3447266,16.4189453 43.3017578,17.4238281 43.3017578,19.1943359 L43.3017578,24 L41.8320312,24 L41.8320312,19.5566406 C41.8320312,18.3671875 41.2783203,17.765625 40.1708984,17.765625 C38.9677734,17.765625 38.2226562,18.5244141 38.2226562,19.6523438 L38.2226562,24 L36.7529297,24 Z M48.5175781,22.8378906 C49.7890625,22.8378906 50.5136719,21.8945312 50.5136719,20.2744141 C50.5136719,18.6611328 49.7890625,17.7177734 48.5175781,17.7177734 C47.2392578,17.7177734 46.5214844,18.6611328 46.5214844,20.2744141 C46.5214844,21.9013672 47.2392578,22.8378906 48.5175781,22.8378906 Z M48.5175781,24.1435547 C46.3369141,24.1435547 45.0039062,22.6875 45.0039062,20.2744141 C45.0039062,17.875 46.34375,16.4121094 48.5175781,16.4121094 C50.6845703,16.4121094 52.0244141,17.875 52.0244141,20.2744141 C52.0244141,22.6875 50.6914062,24.1435547 48.5175781,24.1435547 Z M53.7880859,24 L53.7880859,16.5556641 L55.203125,16.5556641 L55.203125,17.6972656 L55.3125,17.6972656 C55.5244141,16.9658203 56.3447266,16.4326172 57.3154297,16.4326172 C57.5273438,16.4326172 57.8076172,16.453125 57.9648438,16.4941406 L57.9648438,17.9433594 C57.8486328,17.9023438 57.3974609,17.8544922 57.1513672,17.8544922 C56.0439453,17.8544922 55.2578125,18.5585938 55.2578125,19.6044922 L55.2578125,24 L53.7880859,24 Z" id="Author" fill="#4F4270"></path>
                <rect id="Rectangle-6" fill="#33ABA0" x="136" y="0" width="232" height="176" rx="4"></rect>
                <path d="M141.12777,-2.07168062e-16 L362.87223,2.07168062e-16 C364.655267,-1.2037061e-16 365.30184,0.185651222 365.953691,0.534265408 C366.605543,0.882879593 367.11712,1.39445674 367.465735,2.04630859 C367.814349,2.69816044 368,3.34473292 368,5.1277704 L368,40 L136,40 L136,5.1277704 C136,3.34473292 136.185651,2.69816044 136.534265,2.04630859 C136.88288,1.39445674 137.394457,0.882879593 138.046309,0.534265408 C138.69816,0.185651222 139.344733,1.2037061e-16 141.12777,-2.07168062e-16 Z" id="Rectangle-6" fill="#009688"></path>
                <path d="M150.768555,15.4824219 L150.768555,18.9345703 L152.969727,18.9345703 C154.152344,18.9345703 154.835938,18.3056641 154.835938,17.2050781 C154.835938,16.1318359 154.111328,15.4824219 152.928711,15.4824219 L150.768555,15.4824219 Z M150.768555,20.2402344 L150.768555,24 L149.237305,24 L149.237305,14.1357422 L153.140625,14.1357422 C155.129883,14.1357422 156.408203,15.3183594 156.408203,17.1708984 C156.408203,18.4970703 155.697266,19.5771484 154.494141,19.9873047 L156.708984,24 L154.938477,24 L152.928711,20.2402344 L150.768555,20.2402344 Z M161.473633,17.6630859 C160.386719,17.6630859 159.62793,18.4287109 159.545898,19.5908203 L163.305664,19.5908203 C163.271484,18.421875 162.560547,17.6630859 161.473633,17.6630859 Z M163.298828,21.9902344 L164.713867,21.9902344 C164.378906,23.3232422 163.189453,24.1435547 161.487305,24.1435547 C159.354492,24.1435547 158.048828,22.6806641 158.048828,20.3017578 C158.048828,17.9228516 159.381836,16.4121094 161.480469,16.4121094 C163.551758,16.4121094 164.802734,17.8271484 164.802734,20.1650391 L164.802734,20.6777344 L159.545898,20.6777344 L159.545898,20.7597656 C159.59375,22.0654297 160.352539,22.8925781 161.52832,22.8925781 C162.416992,22.8925781 163.025391,22.5712891 163.298828,21.9902344 Z M165.923828,16.5556641 L167.496094,16.5556641 L169.348633,22.4277344 L169.464844,22.4277344 L171.310547,16.5556641 L172.869141,16.5556641 L170.189453,24 L168.610352,24 L165.923828,16.5556641 Z M174.386719,24 L174.386719,16.5556641 L175.849609,16.5556641 L175.849609,24 L174.386719,24 Z M175.118164,15.25 C174.571289,15.25 174.167969,14.8603516 174.167969,14.3544922 C174.167969,13.8417969 174.571289,13.4521484 175.118164,13.4521484 C175.665039,13.4521484 176.068359,13.8417969 176.068359,14.3544922 C176.068359,14.8603516 175.665039,15.25 175.118164,15.25 Z M181.06543,17.6630859 C179.978516,17.6630859 179.219727,18.4287109 179.137695,19.5908203 L182.897461,19.5908203 C182.863281,18.421875 182.152344,17.6630859 181.06543,17.6630859 Z M182.890625,21.9902344 L184.305664,21.9902344 C183.970703,23.3232422 182.78125,24.1435547 181.079102,24.1435547 C178.946289,24.1435547 177.640625,22.6806641 177.640625,20.3017578 C177.640625,17.9228516 178.973633,16.4121094 181.072266,16.4121094 C183.143555,16.4121094 184.394531,17.8271484 184.394531,20.1650391 L184.394531,20.6777344 L179.137695,20.6777344 L179.137695,20.7597656 C179.185547,22.0654297 179.944336,22.8925781 181.120117,22.8925781 C182.008789,22.8925781 182.617188,22.5712891 182.890625,21.9902344 Z M195.851562,16.5556641 L193.807617,24 L192.283203,24 L190.745117,18.5175781 L190.628906,18.5175781 L189.097656,24 L187.586914,24 L185.536133,16.5556641 L187.026367,16.5556641 L188.359375,22.2363281 L188.46875,22.2363281 L190,16.5556641 L191.408203,16.5556641 L192.939453,22.2363281 L193.055664,22.2363281 L194.381836,16.5556641 L195.851562,16.5556641 Z" id="Review" fill="#FFFFFF"></path>
                <rect id="Rectangle-9" fill="#DCD5EE" x="12" y="52" width="68" height="12" rx="3"></rect>
                <rect id="Rectangle-9" fill="#DCD5EE" x="12" y="84" width="92" height="12" rx="3"></rect>
                <rect id="Rectangle-9" fill="#DCD5EE" x="12" y="116" width="44" height="12" rx="3"></rect>
                <rect id="Rectangle-9" fill="#DCD5EE" x="12" y="148" width="44" height="12" rx="3"></rect>
                <path d="M155.246094,62.8925781 L155.246094,64 L149.257812,64 L149.257812,54.1357422 L150.488281,54.1357422 L150.488281,62.8925781 L155.246094,62.8925781 Z M160.085938,63.0703125 C161.480469,63.0703125 162.266602,62.0585938 162.266602,60.3154297 C162.266602,58.5654297 161.480469,57.5605469 160.085938,57.5605469 C158.691406,57.5605469 157.905273,58.5654297 157.905273,60.3154297 C157.905273,62.0585938 158.691406,63.0703125 160.085938,63.0703125 Z M160.085938,64.1298828 C157.987305,64.1298828 156.688477,62.6806641 156.688477,60.3154297 C156.688477,57.9433594 157.987305,56.5009766 160.085938,56.5009766 C162.18457,56.5009766 163.483398,57.9433594 163.483398,60.3154297 C163.483398,62.6806641 162.18457,64.1298828 160.085938,64.1298828 Z M164.686523,56.6308594 L165.944336,56.6308594 L167.960938,62.7011719 L168.070312,62.7011719 L170.086914,56.6308594 L171.344727,56.6308594 L168.617188,64 L167.414062,64 L164.686523,56.6308594 Z M175.856445,57.5400391 C174.680664,57.5400391 173.860352,58.4013672 173.771484,59.7070312 L177.832031,59.7070312 C177.804688,58.4013672 177.025391,57.5400391 175.856445,57.5400391 Z M177.797852,62.0927734 L178.973633,62.0927734 C178.618164,63.3574219 177.483398,64.1298828 175.870117,64.1298828 C173.826172,64.1298828 172.547852,62.6533203 172.547852,60.3222656 C172.547852,58.0048828 173.84668,56.5009766 175.870117,56.5009766 C177.859375,56.5009766 179.069336,57.9160156 179.069336,60.2060547 L179.069336,60.6572266 L173.771484,60.6572266 L173.771484,60.7119141 C173.833008,62.1679688 174.646484,63.0908203 175.897461,63.0908203 C176.847656,63.0908203 177.490234,62.7421875 177.797852,62.0927734 Z M185.358398,54.7919922 L186.53418,54.7919922 L186.53418,56.6308594 L188.243164,56.6308594 L188.243164,57.6152344 L186.53418,57.6152344 L186.53418,61.7851562 C186.53418,62.6533203 186.862305,63.0224609 187.62793,63.0224609 C187.839844,63.0224609 187.942383,63.015625 188.161133,62.9951172 L188.161133,63.9863281 C187.928711,64.0273438 187.716797,64.0546875 187.484375,64.0546875 C185.966797,64.0546875 185.358398,63.4941406 185.358398,62.0859375 L185.358398,57.6152344 L184.121094,57.6152344 L184.121094,56.6308594 L185.358398,56.6308594 L185.358398,54.7919922 Z M190.020508,64 L190.020508,53.7050781 L191.196289,53.7050781 L191.196289,57.7929688 L191.305664,57.7929688 C191.674805,56.9794922 192.515625,56.5009766 193.643555,56.5009766 C195.318359,56.5009766 196.254883,57.4990234 196.254883,59.2285156 L196.254883,64 L195.079102,64 L195.079102,59.515625 C195.079102,58.2099609 194.504883,57.5605469 193.308594,57.5605469 C191.989258,57.5605469 191.196289,58.3945312 191.196289,59.6386719 L191.196289,64 L190.020508,64 Z M201.34082,57.5400391 C200.165039,57.5400391 199.344727,58.4013672 199.255859,59.7070312 L203.316406,59.7070312 C203.289062,58.4013672 202.509766,57.5400391 201.34082,57.5400391 Z M203.282227,62.0927734 L204.458008,62.0927734 C204.102539,63.3574219 202.967773,64.1298828 201.354492,64.1298828 C199.310547,64.1298828 198.032227,62.6533203 198.032227,60.3222656 C198.032227,58.0048828 199.331055,56.5009766 201.354492,56.5009766 C203.34375,56.5009766 204.553711,57.9160156 204.553711,60.2060547 L204.553711,60.6572266 L199.255859,60.6572266 L199.255859,60.7119141 C199.317383,62.1679688 200.130859,63.0908203 201.381836,63.0908203 C202.332031,63.0908203 202.974609,62.7421875 203.282227,62.0927734 Z M212.620117,63.0976562 C213.830078,63.0976562 214.725586,62.3046875 214.725586,61.2519531 L214.725586,60.5751953 L212.743164,60.7050781 C211.62207,60.7802734 211.129883,61.1699219 211.129883,61.9082031 C211.129883,62.6601562 211.765625,63.0976562 212.620117,63.0976562 Z M212.401367,64.1298828 C210.972656,64.1298828 209.913086,63.2822266 209.913086,61.9355469 C209.913086,60.6162109 210.883789,59.8574219 212.599609,59.7548828 L214.725586,59.625 L214.725586,58.9550781 C214.725586,58.0458984 214.158203,57.546875 213.057617,57.546875 C212.175781,57.546875 211.560547,57.8818359 211.396484,58.4628906 L210.207031,58.4628906 C210.364258,57.2802734 211.526367,56.5009766 213.098633,56.5009766 C214.896484,56.5009766 215.901367,57.4238281 215.901367,58.9550781 L215.901367,64 L214.780273,64 L214.780273,62.9130859 L214.670898,62.9130859 C214.192383,63.6992188 213.385742,64.1298828 212.401367,64.1298828 Z M221.664062,56.5009766 C223.543945,56.5009766 224.760742,57.9980469 224.760742,60.3154297 C224.760742,62.6191406 223.537109,64.1298828 221.664062,64.1298828 C220.611328,64.1298828 219.763672,63.671875 219.360352,62.8925781 L219.250977,62.8925781 L219.250977,66.4609375 L218.075195,66.4609375 L218.075195,56.6308594 L219.196289,56.6308594 L219.196289,57.8613281 L219.305664,57.8613281 C219.777344,57.0136719 220.65918,56.5009766 221.664062,56.5009766 Z M221.383789,63.0703125 C222.737305,63.0703125 223.543945,62.0380859 223.543945,60.3154297 C223.543945,58.5927734 222.737305,57.5605469 221.390625,57.5605469 C220.057617,57.5605469 219.216797,58.6201172 219.216797,60.3154297 C219.216797,62.0039062 220.057617,63.0703125 221.383789,63.0703125 Z M230.195312,56.5009766 C232.075195,56.5009766 233.291992,57.9980469 233.291992,60.3154297 C233.291992,62.6191406 232.068359,64.1298828 230.195312,64.1298828 C229.142578,64.1298828 228.294922,63.671875 227.891602,62.8925781 L227.782227,62.8925781 L227.782227,66.4609375 L226.606445,66.4609375 L226.606445,56.6308594 L227.727539,56.6308594 L227.727539,57.8613281 L227.836914,57.8613281 C228.308594,57.0136719 229.19043,56.5009766 230.195312,56.5009766 Z M229.915039,63.0703125 C231.268555,63.0703125 232.075195,62.0380859 232.075195,60.3154297 C232.075195,58.5927734 231.268555,57.5605469 229.921875,57.5605469 C228.588867,57.5605469 227.748047,58.6201172 227.748047,60.3154297 C227.748047,62.0039062 228.588867,63.0703125 229.915039,63.0703125 Z M235.807617,66.5087891 L234.782227,66.5087891 L235.438477,62.6191406 L236.819336,62.6191406 L235.807617,66.5087891 Z M243.450195,64 L243.450195,53.7050781 L244.625977,53.7050781 L244.625977,57.7929688 L244.735352,57.7929688 C245.104492,56.9794922 245.945312,56.5009766 247.073242,56.5009766 C248.748047,56.5009766 249.68457,57.4990234 249.68457,59.2285156 L249.68457,64 L248.508789,64 L248.508789,59.515625 C248.508789,58.2099609 247.93457,57.5605469 246.738281,57.5605469 C245.418945,57.5605469 244.625977,58.3945312 244.625977,59.6386719 L244.625977,64 L243.450195,64 Z M254.859375,63.0703125 C256.253906,63.0703125 257.040039,62.0585938 257.040039,60.3154297 C257.040039,58.5654297 256.253906,57.5605469 254.859375,57.5605469 C253.464844,57.5605469 252.678711,58.5654297 252.678711,60.3154297 C252.678711,62.0585938 253.464844,63.0703125 254.859375,63.0703125 Z M254.859375,64.1298828 C252.760742,64.1298828 251.461914,62.6806641 251.461914,60.3154297 C251.461914,57.9433594 252.760742,56.5009766 254.859375,56.5009766 C256.958008,56.5009766 258.256836,57.9433594 258.256836,60.3154297 C258.256836,62.6806641 256.958008,64.1298828 254.859375,64.1298828 Z M269.37207,56.6308594 L267.307617,64 L266.111328,64 L264.463867,58.2988281 L264.354492,58.2988281 L262.713867,64 L261.524414,64 L259.459961,56.6308594 L260.649414,56.6308594 L262.098633,62.5234375 L262.208008,62.5234375 L263.855469,56.6308594 L264.983398,56.6308594 L266.630859,62.5234375 L266.740234,62.5234375 L268.189453,56.6308594 L269.37207,56.6308594 Z M273.883789,57.5400391 C272.708008,57.5400391 271.887695,58.4013672 271.798828,59.7070312 L275.859375,59.7070312 C275.832031,58.4013672 275.052734,57.5400391 273.883789,57.5400391 Z M275.825195,62.0927734 L277.000977,62.0927734 C276.645508,63.3574219 275.510742,64.1298828 273.897461,64.1298828 C271.853516,64.1298828 270.575195,62.6533203 270.575195,60.3222656 C270.575195,58.0048828 271.874023,56.5009766 273.897461,56.5009766 C275.886719,56.5009766 277.09668,57.9160156 277.09668,60.2060547 L277.09668,60.6572266 L271.798828,60.6572266 L271.798828,60.7119141 C271.860352,62.1679688 272.673828,63.0908203 273.924805,63.0908203 C274.875,63.0908203 275.517578,62.7421875 275.825195,62.0927734 Z M278.299805,56.6308594 L279.557617,56.6308594 L281.574219,62.7011719 L281.683594,62.7011719 L283.700195,56.6308594 L284.958008,56.6308594 L282.230469,64 L281.027344,64 L278.299805,56.6308594 Z M289.469727,57.5400391 C288.293945,57.5400391 287.473633,58.4013672 287.384766,59.7070312 L291.445312,59.7070312 C291.417969,58.4013672 290.638672,57.5400391 289.469727,57.5400391 Z M291.411133,62.0927734 L292.586914,62.0927734 C292.231445,63.3574219 291.09668,64.1298828 289.483398,64.1298828 C287.439453,64.1298828 286.161133,62.6533203 286.161133,60.3222656 C286.161133,58.0048828 287.459961,56.5009766 289.483398,56.5009766 C291.472656,56.5009766 292.682617,57.9160156 292.682617,60.2060547 L292.682617,60.6572266 L287.384766,60.6572266 L287.384766,60.7119141 C287.446289,62.1679688 288.259766,63.0908203 289.510742,63.0908203 C290.460938,63.0908203 291.103516,62.7421875 291.411133,62.0927734 Z M294.52832,64 L294.52832,56.6308594 L295.649414,56.6308594 L295.649414,57.7246094 L295.758789,57.7246094 C295.977539,57.0068359 296.825195,56.5009766 297.802734,56.5009766 C297.994141,56.5009766 298.240234,56.5146484 298.390625,56.5351562 L298.390625,57.7109375 C298.294922,57.6835938 297.871094,57.6425781 297.638672,57.6425781 C296.517578,57.6425781 295.704102,58.3945312 295.704102,59.4335938 L295.704102,64 L294.52832,64 Z M303.736328,64 L303.736328,56.6308594 L304.912109,56.6308594 L304.912109,64 L303.736328,64 Z M304.324219,55.1337891 C303.873047,55.1337891 303.503906,54.7646484 303.503906,54.3134766 C303.503906,53.8623047 303.873047,53.4931641 304.324219,53.4931641 C304.775391,53.4931641 305.144531,53.8623047 305.144531,54.3134766 C305.144531,54.7646484 304.775391,55.1337891 304.324219,55.1337891 Z M307.646484,54.7919922 L308.822266,54.7919922 L308.822266,56.6308594 L310.53125,56.6308594 L310.53125,57.6152344 L308.822266,57.6152344 L308.822266,61.7851562 C308.822266,62.6533203 309.150391,63.0224609 309.916016,63.0224609 C310.12793,63.0224609 310.230469,63.015625 310.449219,62.9951172 L310.449219,63.9863281 C310.216797,64.0273438 310.004883,64.0546875 309.772461,64.0546875 C308.254883,64.0546875 307.646484,63.4941406 307.646484,62.0859375 L307.646484,57.6152344 L306.40918,57.6152344 L306.40918,56.6308594 L307.646484,56.6308594 L307.646484,54.7919922 Z M313.210938,57.8203125 L312.117188,57.8203125 L313.053711,54.1357422 L314.28418,54.1357422 L313.210938,57.8203125 Z M316.205078,58.6474609 C316.205078,57.4238281 317.387695,56.5009766 318.953125,56.5009766 C320.498047,56.5009766 321.571289,57.2666016 321.728516,58.4765625 L320.566406,58.4765625 C320.40918,57.8886719 319.834961,57.4990234 318.946289,57.4990234 C318.071289,57.4990234 317.387695,57.9433594 317.387695,58.5996094 C317.387695,59.1054688 317.797852,59.4199219 318.666016,59.6318359 L319.800781,59.9052734 C321.188477,60.2402344 321.858398,60.8417969 321.858398,61.9013672 C321.858398,63.2207031 320.580078,64.1298828 318.905273,64.1298828 C317.264648,64.1298828 316.136719,63.34375 316.006836,62.1201172 L317.216797,62.1201172 C317.415039,62.7421875 318.00293,63.1386719 318.946289,63.1386719 C319.9375,63.1386719 320.648438,62.6669922 320.648438,61.9902344 C320.648438,61.484375 320.265625,61.1425781 319.479492,60.9511719 L318.214844,60.6435547 C316.833984,60.3085938 316.205078,59.7138672 316.205078,58.6474609 Z M327.655273,64 L327.655273,56.6308594 L328.776367,56.6308594 L328.776367,57.7929688 L328.885742,57.7929688 C329.220703,56.9726562 329.958984,56.5009766 330.943359,56.5009766 C331.941406,56.5009766 332.638672,57.0273438 332.980469,57.7929688 L333.089844,57.7929688 C333.486328,57.0136719 334.327148,56.5009766 335.345703,56.5009766 C336.849609,56.5009766 337.69043,57.3623047 337.69043,58.9072266 L337.69043,64 L336.514648,64 L336.514648,59.1806641 C336.514648,58.09375 336.001953,57.5605469 334.962891,57.5605469 C333.9375,57.5605469 333.253906,58.3261719 333.253906,59.2626953 L333.253906,64 L332.078125,64 L332.078125,58.9960938 C332.078125,58.1210938 331.469727,57.5605469 330.540039,57.5605469 C329.576172,57.5605469 328.831055,58.3945312 328.831055,59.4335938 L328.831055,64 L327.655273,64 Z M339.864258,64 L339.864258,56.6308594 L341.040039,56.6308594 L341.040039,64 L339.864258,64 Z M340.452148,55.1337891 C340.000977,55.1337891 339.631836,54.7646484 339.631836,54.3134766 C339.631836,53.8623047 340.000977,53.4931641 340.452148,53.4931641 C340.90332,53.4931641 341.272461,53.8623047 341.272461,54.3134766 C341.272461,54.7646484 340.90332,55.1337891 340.452148,55.1337891 Z M344.25293,64.0683594 C343.767578,64.0683594 343.364258,63.6650391 343.364258,63.1796875 C343.364258,62.6875 343.767578,62.2910156 344.25293,62.2910156 C344.745117,62.2910156 345.141602,62.6875 345.141602,63.1796875 C345.141602,63.6650391 344.745117,64.0683594 344.25293,64.0683594 Z M347.793945,64.0683594 C347.308594,64.0683594 346.905273,63.6650391 346.905273,63.1796875 C346.905273,62.6875 347.308594,62.2910156 347.793945,62.2910156 C348.286133,62.2910156 348.682617,62.6875 348.682617,63.1796875 C348.682617,63.6650391 348.286133,64.0683594 347.793945,64.0683594 Z M351.25293,64.0683594 C350.767578,64.0683594 350.364258,63.6650391 350.364258,63.1796875 C350.364258,62.6875 350.767578,62.2910156 351.25293,62.2910156 C351.745117,62.2910156 352.141602,62.6875 352.141602,63.1796875 C352.141602,63.6650391 351.745117,64.0683594 351.25293,64.0683594 Z" id="Love-the-app,-howeve" fill="#FFFFFF"></path>
                <path d="M150.488281,87.2294922 L150.488281,91.0029297 L152.915039,91.0029297 C154.179688,91.0029297 154.897461,90.3261719 154.897461,89.1162109 C154.897461,87.9335938 154.131836,87.2294922 152.860352,87.2294922 L150.488281,87.2294922 Z M150.488281,92.0966797 L150.488281,96 L149.257812,96 L149.257812,86.1357422 L153.024414,86.1357422 C154.924805,86.1357422 156.168945,87.2978516 156.168945,89.0751953 C156.168945,90.4492188 155.423828,91.515625 154.186523,91.9052734 L156.469727,96 L155.027344,96 L152.915039,92.0966797 L150.488281,92.0966797 Z M161.193359,89.5400391 C160.017578,89.5400391 159.197266,90.4013672 159.108398,91.7070312 L163.168945,91.7070312 C163.141602,90.4013672 162.362305,89.5400391 161.193359,89.5400391 Z M163.134766,94.0927734 L164.310547,94.0927734 C163.955078,95.3574219 162.820312,96.1298828 161.207031,96.1298828 C159.163086,96.1298828 157.884766,94.6533203 157.884766,92.3222656 C157.884766,90.0048828 159.183594,88.5009766 161.207031,88.5009766 C163.196289,88.5009766 164.40625,89.9160156 164.40625,92.2060547 L164.40625,92.6572266 L159.108398,92.6572266 L159.108398,92.7119141 C159.169922,94.1679688 159.983398,95.0908203 161.234375,95.0908203 C162.18457,95.0908203 162.827148,94.7421875 163.134766,94.0927734 Z M168.521484,95.0976562 C169.731445,95.0976562 170.626953,94.3046875 170.626953,93.2519531 L170.626953,92.5751953 L168.644531,92.7050781 C167.523438,92.7802734 167.03125,93.1699219 167.03125,93.9082031 C167.03125,94.6601562 167.666992,95.0976562 168.521484,95.0976562 Z M168.302734,96.1298828 C166.874023,96.1298828 165.814453,95.2822266 165.814453,93.9355469 C165.814453,92.6162109 166.785156,91.8574219 168.500977,91.7548828 L170.626953,91.625 L170.626953,90.9550781 C170.626953,90.0458984 170.05957,89.546875 168.958984,89.546875 C168.077148,89.546875 167.461914,89.8818359 167.297852,90.4628906 L166.108398,90.4628906 C166.265625,89.2802734 167.427734,88.5009766 169,88.5009766 C170.797852,88.5009766 171.802734,89.4238281 171.802734,90.9550781 L171.802734,96 L170.681641,96 L170.681641,94.9130859 L170.572266,94.9130859 C170.09375,95.6992188 169.287109,96.1298828 168.302734,96.1298828 Z M174.044922,96 L174.044922,85.7050781 L175.220703,85.7050781 L175.220703,96 L174.044922,96 Z M177.572266,96 L177.572266,85.7050781 L178.748047,85.7050781 L178.748047,96 L177.572266,96 Z M181.660156,98.6728516 C181.50293,98.6728516 181.297852,98.6591797 181.133789,98.6318359 L181.133789,97.6269531 C181.277344,97.6542969 181.461914,97.6611328 181.625977,97.6611328 C182.302734,97.6611328 182.671875,97.3330078 182.979492,96.4443359 L183.116211,96.0068359 L180.388672,88.6308594 L181.660156,88.6308594 L183.683594,94.6943359 L183.792969,94.6943359 L185.80957,88.6308594 L187.060547,88.6308594 L184.182617,96.4511719 C183.553711,98.1601562 182.96582,98.6728516 181.660156,98.6728516 Z M192.583984,96 L192.583984,88.6308594 L193.705078,88.6308594 L193.705078,89.7929688 L193.814453,89.7929688 C194.183594,88.9794922 195.038086,88.5009766 196.166016,88.5009766 C197.820312,88.5009766 198.743164,89.4785156 198.743164,91.2285156 L198.743164,96 L197.567383,96 L197.567383,91.515625 C197.567383,90.1894531 197.006836,89.5605469 195.831055,89.5605469 C194.539062,89.5605469 193.759766,90.3466797 193.759766,91.6386719 L193.759766,96 L192.583984,96 Z M203.829102,89.5400391 C202.65332,89.5400391 201.833008,90.4013672 201.744141,91.7070312 L205.804688,91.7070312 C205.777344,90.4013672 204.998047,89.5400391 203.829102,89.5400391 Z M205.770508,94.0927734 L206.946289,94.0927734 C206.59082,95.3574219 205.456055,96.1298828 203.842773,96.1298828 C201.798828,96.1298828 200.520508,94.6533203 200.520508,92.3222656 C200.520508,90.0048828 201.819336,88.5009766 203.842773,88.5009766 C205.832031,88.5009766 207.041992,89.9160156 207.041992,92.2060547 L207.041992,92.6572266 L201.744141,92.6572266 L201.744141,92.7119141 C201.805664,94.1679688 202.619141,95.0908203 203.870117,95.0908203 C204.820312,95.0908203 205.462891,94.7421875 205.770508,94.0927734 Z M211.827148,89.5400391 C210.651367,89.5400391 209.831055,90.4013672 209.742188,91.7070312 L213.802734,91.7070312 C213.775391,90.4013672 212.996094,89.5400391 211.827148,89.5400391 Z M213.768555,94.0927734 L214.944336,94.0927734 C214.588867,95.3574219 213.454102,96.1298828 211.84082,96.1298828 C209.796875,96.1298828 208.518555,94.6533203 208.518555,92.3222656 C208.518555,90.0048828 209.817383,88.5009766 211.84082,88.5009766 C213.830078,88.5009766 215.040039,89.9160156 215.040039,92.2060547 L215.040039,92.6572266 L209.742188,92.6572266 L209.742188,92.7119141 C209.803711,94.1679688 210.617188,95.0908203 211.868164,95.0908203 C212.818359,95.0908203 213.460938,94.7421875 213.768555,94.0927734 Z M219.613281,96.1298828 C217.726562,96.1298828 216.516602,94.6328125 216.516602,92.3154297 C216.516602,90.0048828 217.740234,88.5009766 219.613281,88.5009766 C220.638672,88.5009766 221.506836,88.9863281 221.923828,89.7929688 L222.026367,89.7929688 L222.026367,85.7050781 L223.202148,85.7050781 L223.202148,96 L222.081055,96 L222.081055,94.8242188 L221.97168,94.8242188 C221.506836,95.6445312 220.631836,96.1298828 219.613281,96.1298828 Z M219.886719,89.5605469 C218.546875,89.5605469 217.733398,90.5996094 217.733398,92.3154297 C217.733398,94.0380859 218.540039,95.0703125 219.886719,95.0703125 C221.226562,95.0703125 222.053711,94.0175781 222.053711,92.3154297 C222.053711,90.6269531 221.219727,89.5605469 219.886719,89.5605469 Z M225.314453,90.6474609 C225.314453,89.4238281 226.49707,88.5009766 228.0625,88.5009766 C229.607422,88.5009766 230.680664,89.2666016 230.837891,90.4765625 L229.675781,90.4765625 C229.518555,89.8886719 228.944336,89.4990234 228.055664,89.4990234 C227.180664,89.4990234 226.49707,89.9433594 226.49707,90.5996094 C226.49707,91.1054688 226.907227,91.4199219 227.775391,91.6318359 L228.910156,91.9052734 C230.297852,92.2402344 230.967773,92.8417969 230.967773,93.9013672 C230.967773,95.2207031 229.689453,96.1298828 228.014648,96.1298828 C226.374023,96.1298828 225.246094,95.34375 225.116211,94.1201172 L226.326172,94.1201172 C226.524414,94.7421875 227.112305,95.1386719 228.055664,95.1386719 C229.046875,95.1386719 229.757812,94.6669922 229.757812,93.9902344 C229.757812,93.484375 229.375,93.1425781 228.588867,92.9511719 L227.324219,92.6435547 C225.943359,92.3085938 225.314453,91.7138672 225.314453,90.6474609 Z M236.59375,90.6474609 C236.59375,89.4238281 237.776367,88.5009766 239.341797,88.5009766 C240.886719,88.5009766 241.959961,89.2666016 242.117188,90.4765625 L240.955078,90.4765625 C240.797852,89.8886719 240.223633,89.4990234 239.334961,89.4990234 C238.459961,89.4990234 237.776367,89.9433594 237.776367,90.5996094 C237.776367,91.1054688 238.186523,91.4199219 239.054688,91.6318359 L240.189453,91.9052734 C241.577148,92.2402344 242.24707,92.8417969 242.24707,93.9013672 C242.24707,95.2207031 240.96875,96.1298828 239.293945,96.1298828 C237.65332,96.1298828 236.525391,95.34375 236.395508,94.1201172 L237.605469,94.1201172 C237.803711,94.7421875 238.391602,95.1386719 239.334961,95.1386719 C240.326172,95.1386719 241.037109,94.6669922 241.037109,93.9902344 C241.037109,93.484375 240.654297,93.1425781 239.868164,92.9511719 L238.603516,92.6435547 C237.222656,92.3085938 236.59375,91.7138672 236.59375,90.6474609 Z M247.032227,89.5400391 C245.856445,89.5400391 245.036133,90.4013672 244.947266,91.7070312 L249.007812,91.7070312 C248.980469,90.4013672 248.201172,89.5400391 247.032227,89.5400391 Z M248.973633,94.0927734 L250.149414,94.0927734 C249.793945,95.3574219 248.65918,96.1298828 247.045898,96.1298828 C245.001953,96.1298828 243.723633,94.6533203 243.723633,92.3222656 C243.723633,90.0048828 245.022461,88.5009766 247.045898,88.5009766 C249.035156,88.5009766 250.245117,89.9160156 250.245117,92.2060547 L250.245117,92.6572266 L244.947266,92.6572266 L244.947266,92.7119141 C245.008789,94.1679688 245.822266,95.0908203 247.073242,95.0908203 C248.023438,95.0908203 248.666016,94.7421875 248.973633,94.0927734 Z M254.360352,95.0976562 C255.570312,95.0976562 256.46582,94.3046875 256.46582,93.2519531 L256.46582,92.5751953 L254.483398,92.7050781 C253.362305,92.7802734 252.870117,93.1699219 252.870117,93.9082031 C252.870117,94.6601562 253.505859,95.0976562 254.360352,95.0976562 Z M254.141602,96.1298828 C252.712891,96.1298828 251.65332,95.2822266 251.65332,93.9355469 C251.65332,92.6162109 252.624023,91.8574219 254.339844,91.7548828 L256.46582,91.625 L256.46582,90.9550781 C256.46582,90.0458984 255.898438,89.546875 254.797852,89.546875 C253.916016,89.546875 253.300781,89.8818359 253.136719,90.4628906 L251.947266,90.4628906 C252.104492,89.2802734 253.266602,88.5009766 254.838867,88.5009766 C256.636719,88.5009766 257.641602,89.4238281 257.641602,90.9550781 L257.641602,96 L256.520508,96 L256.520508,94.9130859 L256.411133,94.9130859 C255.932617,95.6992188 255.125977,96.1298828 254.141602,96.1298828 Z M259.81543,96 L259.81543,88.6308594 L260.936523,88.6308594 L260.936523,89.7246094 L261.045898,89.7246094 C261.264648,89.0068359 262.112305,88.5009766 263.089844,88.5009766 C263.28125,88.5009766 263.527344,88.5146484 263.677734,88.5351562 L263.677734,89.7109375 C263.582031,89.6835938 263.158203,89.6425781 262.925781,89.6425781 C261.804688,89.6425781 260.991211,90.3945312 260.991211,91.4335938 L260.991211,96 L259.81543,96 Z M271.142578,90.8867188 L269.953125,90.8867188 C269.761719,90.1552734 269.112305,89.5605469 268.052734,89.5605469 C266.726562,89.5605469 265.892578,90.6201172 265.892578,92.2880859 C265.892578,93.9902344 266.740234,95.0703125 268.052734,95.0703125 C269.043945,95.0703125 269.734375,94.6123047 269.953125,93.7783203 L271.142578,93.7783203 C270.930664,95.1318359 269.830078,96.1298828 268.05957,96.1298828 C265.995117,96.1298828 264.675781,94.6328125 264.675781,92.2880859 C264.675781,89.9912109 265.988281,88.5009766 268.052734,88.5009766 C269.84375,88.5009766 270.9375,89.5742188 271.142578,90.8867188 Z M272.947266,96 L272.947266,85.7050781 L274.123047,85.7050781 L274.123047,89.7929688 L274.232422,89.7929688 C274.601562,88.9794922 275.442383,88.5009766 276.570312,88.5009766 C278.245117,88.5009766 279.181641,89.4990234 279.181641,91.2285156 L279.181641,96 L278.005859,96 L278.005859,91.515625 C278.005859,90.2099609 277.431641,89.5605469 276.235352,89.5605469 C274.916016,89.5605469 274.123047,90.3945312 274.123047,91.6386719 L274.123047,96 L272.947266,96 Z M281.710938,86.1289062 L283.078125,86.1289062 L282.961914,92.71875 L281.827148,92.71875 L281.710938,86.1289062 Z M281.451172,95.1728516 C281.451172,94.6123047 281.847656,94.2158203 282.401367,94.2158203 C282.955078,94.2158203 283.344727,94.6123047 283.344727,95.1728516 C283.344727,95.7265625 282.955078,96.1230469 282.401367,96.1230469 C281.847656,96.1230469 281.451172,95.7265625 281.451172,95.1728516 Z M293.578125,96 L292.347656,96 L292.347656,87.2431641 L289.168945,87.2431641 L289.168945,86.1357422 L296.756836,86.1357422 L296.756836,87.2431641 L293.578125,87.2431641 L293.578125,96 Z M298.575195,96 L298.575195,85.7050781 L299.750977,85.7050781 L299.750977,89.7929688 L299.860352,89.7929688 C300.229492,88.9794922 301.070312,88.5009766 302.198242,88.5009766 C303.873047,88.5009766 304.80957,89.4990234 304.80957,91.2285156 L304.80957,96 L303.633789,96 L303.633789,91.515625 C303.633789,90.2099609 303.05957,89.5605469 301.863281,89.5605469 C300.543945,89.5605469 299.750977,90.3945312 299.750977,91.6386719 L299.750977,96 L298.575195,96 Z M309.895508,89.5400391 C308.719727,89.5400391 307.899414,90.4013672 307.810547,91.7070312 L311.871094,91.7070312 C311.84375,90.4013672 311.064453,89.5400391 309.895508,89.5400391 Z M311.836914,94.0927734 L313.012695,94.0927734 C312.657227,95.3574219 311.522461,96.1298828 309.90918,96.1298828 C307.865234,96.1298828 306.586914,94.6533203 306.586914,92.3222656 C306.586914,90.0048828 307.885742,88.5009766 309.90918,88.5009766 C311.898438,88.5009766 313.108398,89.9160156 313.108398,92.2060547 L313.108398,92.6572266 L307.810547,92.6572266 L307.810547,92.7119141 C307.87207,94.1679688 308.685547,95.0908203 309.936523,95.0908203 C310.886719,95.0908203 311.529297,94.7421875 311.836914,94.0927734 Z M314.954102,96 L314.954102,88.6308594 L316.075195,88.6308594 L316.075195,89.7929688 L316.18457,89.7929688 C316.553711,88.9794922 317.408203,88.5009766 318.536133,88.5009766 C320.19043,88.5009766 321.113281,89.4785156 321.113281,91.2285156 L321.113281,96 L319.9375,96 L319.9375,91.515625 C319.9375,90.1894531 319.376953,89.5605469 318.201172,89.5605469 C316.90918,89.5605469 316.129883,90.3466797 316.129883,91.6386719 L316.129883,96 L314.954102,96 Z M330.458008,96.2324219 C328.591797,96.2324219 327.251953,95.0771484 327.142578,93.375 L328.352539,93.375 C328.461914,94.4414062 329.30957,95.1523438 330.47168,95.1523438 C331.791016,95.1523438 332.672852,94.25 332.672852,92.8964844 C332.672852,91.5429688 331.78418,90.6201172 330.492188,90.6201172 C329.59668,90.6201172 328.858398,91.0234375 328.455078,91.7275391 L327.299805,91.7275391 L327.839844,86.1357422 L333.342773,86.1357422 L333.342773,87.2363281 L328.803711,87.2363281 L328.523438,90.4013672 L328.632812,90.4013672 C329.111328,89.8408203 329.808594,89.5605469 330.717773,89.5605469 C332.59082,89.5605469 333.90332,90.9208984 333.90332,92.8623047 C333.90332,94.8652344 332.501953,96.2324219 330.458008,96.2324219 Z M339.652344,90.6474609 C339.652344,89.4238281 340.834961,88.5009766 342.400391,88.5009766 C343.945312,88.5009766 345.018555,89.2666016 345.175781,90.4765625 L344.013672,90.4765625 C343.856445,89.8886719 343.282227,89.4990234 342.393555,89.4990234 C341.518555,89.4990234 340.834961,89.9433594 340.834961,90.5996094 C340.834961,91.1054688 341.245117,91.4199219 342.113281,91.6318359 L343.248047,91.9052734 C344.635742,92.2402344 345.305664,92.8417969 345.305664,93.9013672 C345.305664,95.2207031 344.027344,96.1298828 342.352539,96.1298828 C340.711914,96.1298828 339.583984,95.34375 339.454102,94.1201172 L340.664062,94.1201172 C340.862305,94.7421875 341.450195,95.1386719 342.393555,95.1386719 C343.384766,95.1386719 344.095703,94.6669922 344.095703,93.9902344 C344.095703,93.484375 343.712891,93.1425781 342.926758,92.9511719 L341.662109,92.6435547 C340.28125,92.3085938 339.652344,91.7138672 339.652344,90.6474609 Z M348.12207,96.0683594 C347.636719,96.0683594 347.233398,95.6650391 347.233398,95.1796875 C347.233398,94.6875 347.636719,94.2910156 348.12207,94.2910156 C348.614258,94.2910156 349.010742,94.6875 349.010742,95.1796875 C349.010742,95.6650391 348.614258,96.0683594 348.12207,96.0683594 Z M351.663086,96.0683594 C351.177734,96.0683594 350.774414,95.6650391 350.774414,95.1796875 C350.774414,94.6875 351.177734,94.2910156 351.663086,94.2910156 C352.155273,94.2910156 352.551758,94.6875 352.551758,95.1796875 C352.551758,95.6650391 352.155273,96.0683594 351.663086,96.0683594 Z M355.12207,96.0683594 C354.636719,96.0683594 354.233398,95.6650391 354.233398,95.1796875 C354.233398,94.6875 354.636719,94.2910156 355.12207,94.2910156 C355.614258,94.2910156 356.010742,94.6875 356.010742,95.1796875 C356.010742,95.6650391 355.614258,96.0683594 355.12207,96.0683594 Z" id="Really-needs-search!" fill="#FFFFFF"></path>
                <path d="M150.474609,128 L149.257812,128 L149.257812,118.135742 L150.454102,118.135742 L155.806641,125.8125 L155.916016,125.8125 L155.916016,118.135742 L157.132812,118.135742 L157.132812,128 L155.936523,128 L150.583984,120.350586 L150.474609,120.350586 L150.474609,128 Z M161.767578,127.097656 C162.977539,127.097656 163.873047,126.304688 163.873047,125.251953 L163.873047,124.575195 L161.890625,124.705078 C160.769531,124.780273 160.277344,125.169922 160.277344,125.908203 C160.277344,126.660156 160.913086,127.097656 161.767578,127.097656 Z M161.548828,128.129883 C160.120117,128.129883 159.060547,127.282227 159.060547,125.935547 C159.060547,124.616211 160.03125,123.857422 161.74707,123.754883 L163.873047,123.625 L163.873047,122.955078 C163.873047,122.045898 163.305664,121.546875 162.205078,121.546875 C161.323242,121.546875 160.708008,121.881836 160.543945,122.462891 L159.354492,122.462891 C159.511719,121.280273 160.673828,120.500977 162.246094,120.500977 C164.043945,120.500977 165.048828,121.423828 165.048828,122.955078 L165.048828,128 L163.927734,128 L163.927734,126.913086 L163.818359,126.913086 C163.339844,127.699219 162.533203,128.129883 161.548828,128.129883 Z M166.580078,120.630859 L167.837891,120.630859 L169.854492,126.701172 L169.963867,126.701172 L171.980469,120.630859 L173.238281,120.630859 L170.510742,128 L169.307617,128 L166.580078,120.630859 Z M174.837891,128 L174.837891,120.630859 L176.013672,120.630859 L176.013672,128 L174.837891,128 Z M175.425781,119.133789 C174.974609,119.133789 174.605469,118.764648 174.605469,118.313477 C174.605469,117.862305 174.974609,117.493164 175.425781,117.493164 C175.876953,117.493164 176.246094,117.862305 176.246094,118.313477 C176.246094,118.764648 175.876953,119.133789 175.425781,119.133789 Z M183.423828,124.206055 C183.423828,122.599609 182.59668,121.560547 181.236328,121.560547 C179.869141,121.560547 179.103516,122.599609 179.103516,124.206055 C179.103516,125.8125 179.869141,126.851562 181.236328,126.851562 C182.603516,126.851562 183.423828,125.8125 183.423828,124.206055 Z M181.291016,130.830078 C179.513672,130.830078 178.378906,130.030273 178.201172,128.813477 L179.445312,128.813477 C179.575195,129.415039 180.231445,129.804688 181.291016,129.804688 C182.610352,129.804688 183.396484,129.155273 183.396484,128.068359 L183.396484,126.619141 L183.287109,126.619141 C182.822266,127.432617 181.988281,127.890625 180.976562,127.890625 C179.069336,127.890625 177.886719,126.414062 177.886719,124.206055 C177.886719,121.998047 179.083008,120.500977 180.976562,120.500977 C182.008789,120.500977 182.917969,121.006836 183.341797,121.799805 L183.451172,121.799805 L183.451172,120.630859 L184.572266,120.630859 L184.572266,128.129883 C184.572266,129.777344 183.300781,130.830078 181.291016,130.830078 Z M189.056641,127.097656 C190.266602,127.097656 191.162109,126.304688 191.162109,125.251953 L191.162109,124.575195 L189.179688,124.705078 C188.058594,124.780273 187.566406,125.169922 187.566406,125.908203 C187.566406,126.660156 188.202148,127.097656 189.056641,127.097656 Z M188.837891,128.129883 C187.40918,128.129883 186.349609,127.282227 186.349609,125.935547 C186.349609,124.616211 187.320312,123.857422 189.036133,123.754883 L191.162109,123.625 L191.162109,122.955078 C191.162109,122.045898 190.594727,121.546875 189.494141,121.546875 C188.612305,121.546875 187.99707,121.881836 187.833008,122.462891 L186.643555,122.462891 C186.800781,121.280273 187.962891,120.500977 189.535156,120.500977 C191.333008,120.500977 192.337891,121.423828 192.337891,122.955078 L192.337891,128 L191.216797,128 L191.216797,126.913086 L191.107422,126.913086 C190.628906,127.699219 189.822266,128.129883 188.837891,128.129883 Z M195.003906,118.791992 L196.179688,118.791992 L196.179688,120.630859 L197.888672,120.630859 L197.888672,121.615234 L196.179688,121.615234 L196.179688,125.785156 C196.179688,126.65332 196.507812,127.022461 197.273438,127.022461 C197.485352,127.022461 197.587891,127.015625 197.806641,126.995117 L197.806641,127.986328 C197.574219,128.027344 197.362305,128.054688 197.129883,128.054688 C195.612305,128.054688 195.003906,127.494141 195.003906,126.085938 L195.003906,121.615234 L193.766602,121.615234 L193.766602,120.630859 L195.003906,120.630859 L195.003906,118.791992 Z M199.625,128 L199.625,120.630859 L200.800781,120.630859 L200.800781,128 L199.625,128 Z M200.212891,119.133789 C199.761719,119.133789 199.392578,118.764648 199.392578,118.313477 C199.392578,117.862305 199.761719,117.493164 200.212891,117.493164 C200.664062,117.493164 201.033203,117.862305 201.033203,118.313477 C201.033203,118.764648 200.664062,119.133789 200.212891,119.133789 Z M206.071289,127.070312 C207.46582,127.070312 208.251953,126.058594 208.251953,124.31543 C208.251953,122.56543 207.46582,121.560547 206.071289,121.560547 C204.676758,121.560547 203.890625,122.56543 203.890625,124.31543 C203.890625,126.058594 204.676758,127.070312 206.071289,127.070312 Z M206.071289,128.129883 C203.972656,128.129883 202.673828,126.680664 202.673828,124.31543 C202.673828,121.943359 203.972656,120.500977 206.071289,120.500977 C208.169922,120.500977 209.46875,121.943359 209.46875,124.31543 C209.46875,126.680664 208.169922,128.129883 206.071289,128.129883 Z M211.314453,128 L211.314453,120.630859 L212.435547,120.630859 L212.435547,121.792969 L212.544922,121.792969 C212.914062,120.979492 213.768555,120.500977 214.896484,120.500977 C216.550781,120.500977 217.473633,121.478516 217.473633,123.228516 L217.473633,128 L216.297852,128 L216.297852,123.515625 C216.297852,122.189453 215.737305,121.560547 214.561523,121.560547 C213.269531,121.560547 212.490234,122.34668 212.490234,123.638672 L212.490234,128 L211.314453,128 Z M223.598633,128 L223.598633,120.630859 L224.774414,120.630859 L224.774414,128 L223.598633,128 Z M224.186523,119.133789 C223.735352,119.133789 223.366211,118.764648 223.366211,118.313477 C223.366211,117.862305 223.735352,117.493164 224.186523,117.493164 C224.637695,117.493164 225.006836,117.862305 225.006836,118.313477 C225.006836,118.764648 224.637695,119.133789 224.186523,119.133789 Z M226.845703,122.647461 C226.845703,121.423828 228.02832,120.500977 229.59375,120.500977 C231.138672,120.500977 232.211914,121.266602 232.369141,122.476562 L231.207031,122.476562 C231.049805,121.888672 230.475586,121.499023 229.586914,121.499023 C228.711914,121.499023 228.02832,121.943359 228.02832,122.599609 C228.02832,123.105469 228.438477,123.419922 229.306641,123.631836 L230.441406,123.905273 C231.829102,124.240234 232.499023,124.841797 232.499023,125.901367 C232.499023,127.220703 231.220703,128.129883 229.545898,128.129883 C227.905273,128.129883 226.777344,127.34375 226.647461,126.120117 L227.857422,126.120117 C228.055664,126.742188 228.643555,127.138672 229.586914,127.138672 C230.578125,127.138672 231.289062,126.666992 231.289062,125.990234 C231.289062,125.484375 230.90625,125.142578 230.120117,124.951172 L228.855469,124.643555 C227.474609,124.308594 226.845703,123.713867 226.845703,122.647461 Z M238.295898,128 L238.295898,120.630859 L239.416992,120.630859 L239.416992,121.724609 L239.526367,121.724609 C239.745117,121.006836 240.592773,120.500977 241.570312,120.500977 C241.761719,120.500977 242.007812,120.514648 242.158203,120.535156 L242.158203,121.710938 C242.0625,121.683594 241.638672,121.642578 241.40625,121.642578 C240.285156,121.642578 239.47168,122.394531 239.47168,123.433594 L239.47168,128 L238.295898,128 Z M246.464844,121.540039 C245.289062,121.540039 244.46875,122.401367 244.379883,123.707031 L248.44043,123.707031 C248.413086,122.401367 247.633789,121.540039 246.464844,121.540039 Z M248.40625,126.092773 L249.582031,126.092773 C249.226562,127.357422 248.091797,128.129883 246.478516,128.129883 C244.43457,128.129883 243.15625,126.65332 243.15625,124.322266 C243.15625,122.004883 244.455078,120.500977 246.478516,120.500977 C248.467773,120.500977 249.677734,121.916016 249.677734,124.206055 L249.677734,124.657227 L244.379883,124.657227 L244.379883,124.711914 C244.441406,126.167969 245.254883,127.09082 246.505859,127.09082 C247.456055,127.09082 248.098633,126.742188 248.40625,126.092773 Z M253.792969,127.097656 C255.00293,127.097656 255.898438,126.304688 255.898438,125.251953 L255.898438,124.575195 L253.916016,124.705078 C252.794922,124.780273 252.302734,125.169922 252.302734,125.908203 C252.302734,126.660156 252.938477,127.097656 253.792969,127.097656 Z M253.574219,128.129883 C252.145508,128.129883 251.085938,127.282227 251.085938,125.935547 C251.085938,124.616211 252.056641,123.857422 253.772461,123.754883 L255.898438,123.625 L255.898438,122.955078 C255.898438,122.045898 255.331055,121.546875 254.230469,121.546875 C253.348633,121.546875 252.733398,121.881836 252.569336,122.462891 L251.379883,122.462891 C251.537109,121.280273 252.699219,120.500977 254.271484,120.500977 C256.069336,120.500977 257.074219,121.423828 257.074219,122.955078 L257.074219,128 L255.953125,128 L255.953125,126.913086 L255.84375,126.913086 C255.365234,127.699219 254.558594,128.129883 253.574219,128.129883 Z M259.316406,128 L259.316406,117.705078 L260.492188,117.705078 L260.492188,128 L259.316406,128 Z M262.84375,128 L262.84375,117.705078 L264.019531,117.705078 L264.019531,128 L262.84375,128 Z M266.931641,130.672852 C266.774414,130.672852 266.569336,130.65918 266.405273,130.631836 L266.405273,129.626953 C266.548828,129.654297 266.733398,129.661133 266.897461,129.661133 C267.574219,129.661133 267.943359,129.333008 268.250977,128.444336 L268.387695,128.006836 L265.660156,120.630859 L266.931641,120.630859 L268.955078,126.694336 L269.064453,126.694336 L271.081055,120.630859 L272.332031,120.630859 L269.454102,128.451172 C268.825195,130.160156 268.237305,130.672852 266.931641,130.672852 Z M277.923828,128 L277.923828,117.705078 L279.099609,117.705078 L279.099609,121.792969 L279.208984,121.792969 C279.578125,120.979492 280.418945,120.500977 281.546875,120.500977 C283.22168,120.500977 284.158203,121.499023 284.158203,123.228516 L284.158203,128 L282.982422,128 L282.982422,123.515625 C282.982422,122.209961 282.408203,121.560547 281.211914,121.560547 C279.892578,121.560547 279.099609,122.394531 279.099609,123.638672 L279.099609,128 L277.923828,128 Z M288.574219,127.097656 C289.78418,127.097656 290.679688,126.304688 290.679688,125.251953 L290.679688,124.575195 L288.697266,124.705078 C287.576172,124.780273 287.083984,125.169922 287.083984,125.908203 C287.083984,126.660156 287.719727,127.097656 288.574219,127.097656 Z M288.355469,128.129883 C286.926758,128.129883 285.867188,127.282227 285.867188,125.935547 C285.867188,124.616211 286.837891,123.857422 288.553711,123.754883 L290.679688,123.625 L290.679688,122.955078 C290.679688,122.045898 290.112305,121.546875 289.011719,121.546875 C288.129883,121.546875 287.514648,121.881836 287.350586,122.462891 L286.161133,122.462891 C286.318359,121.280273 287.480469,120.500977 289.052734,120.500977 C290.850586,120.500977 291.855469,121.423828 291.855469,122.955078 L291.855469,128 L290.734375,128 L290.734375,126.913086 L290.625,126.913086 C290.146484,127.699219 289.339844,128.129883 288.355469,128.129883 Z M294.029297,128 L294.029297,120.630859 L295.150391,120.630859 L295.150391,121.724609 L295.259766,121.724609 C295.478516,121.006836 296.326172,120.500977 297.303711,120.500977 C297.495117,120.500977 297.741211,120.514648 297.891602,120.535156 L297.891602,121.710938 C297.795898,121.683594 297.37207,121.642578 297.139648,121.642578 C296.018555,121.642578 295.205078,122.394531 295.205078,123.433594 L295.205078,128 L294.029297,128 Z M301.986328,128.129883 C300.099609,128.129883 298.889648,126.632812 298.889648,124.31543 C298.889648,122.004883 300.113281,120.500977 301.986328,120.500977 C303.011719,120.500977 303.879883,120.986328 304.296875,121.792969 L304.399414,121.792969 L304.399414,117.705078 L305.575195,117.705078 L305.575195,128 L304.454102,128 L304.454102,126.824219 L304.344727,126.824219 C303.879883,127.644531 303.004883,128.129883 301.986328,128.129883 Z M302.259766,121.560547 C300.919922,121.560547 300.106445,122.599609 300.106445,124.31543 C300.106445,126.038086 300.913086,127.070312 302.259766,127.070312 C303.599609,127.070312 304.426758,126.017578 304.426758,124.31543 C304.426758,122.626953 303.592773,121.560547 302.259766,121.560547 Z M308.52832,130.508789 L307.50293,130.508789 L308.15918,126.619141 L309.540039,126.619141 L308.52832,130.508789 Z M317.483398,128 L316.25293,128 L316.25293,118.135742 L317.483398,118.135742 L317.483398,128 Z M320.819336,121.820312 L319.725586,121.820312 L320.662109,118.135742 L321.892578,118.135742 L320.819336,121.820312 Z M323.984375,128 L323.984375,120.630859 L325.105469,120.630859 L325.105469,121.792969 L325.214844,121.792969 C325.549805,120.972656 326.288086,120.500977 327.272461,120.500977 C328.270508,120.500977 328.967773,121.027344 329.30957,121.792969 L329.418945,121.792969 C329.81543,121.013672 330.65625,120.500977 331.674805,120.500977 C333.178711,120.500977 334.019531,121.362305 334.019531,122.907227 L334.019531,128 L332.84375,128 L332.84375,123.180664 C332.84375,122.09375 332.331055,121.560547 331.291992,121.560547 C330.266602,121.560547 329.583008,122.326172 329.583008,123.262695 L329.583008,128 L328.407227,128 L328.407227,122.996094 C328.407227,122.121094 327.798828,121.560547 326.869141,121.560547 C325.905273,121.560547 325.160156,122.394531 325.160156,123.433594 L325.160156,128 L323.984375,128 Z M337.136719,128.068359 C336.651367,128.068359 336.248047,127.665039 336.248047,127.179688 C336.248047,126.6875 336.651367,126.291016 337.136719,126.291016 C337.628906,126.291016 338.025391,126.6875 338.025391,127.179688 C338.025391,127.665039 337.628906,128.068359 337.136719,128.068359 Z M340.677734,128.068359 C340.192383,128.068359 339.789062,127.665039 339.789062,127.179688 C339.789062,126.6875 340.192383,126.291016 340.677734,126.291016 C341.169922,126.291016 341.566406,126.6875 341.566406,127.179688 C341.566406,127.665039 341.169922,128.068359 340.677734,128.068359 Z M344.136719,128.068359 C343.651367,128.068359 343.248047,127.665039 343.248047,127.179688 C343.248047,126.6875 343.651367,126.291016 344.136719,126.291016 C344.628906,126.291016 345.025391,126.6875 345.025391,127.179688 C345.025391,127.665039 344.628906,128.068359 344.136719,128.068359 Z" id="Navigation-is-really" fill="#FFFFFF"></path>
                <path d="M150.488281,160 L149.257812,160 L149.257812,150.135742 L150.488281,150.135742 L150.488281,160 Z M153.824219,153.820312 L152.730469,153.820312 L153.666992,150.135742 L154.897461,150.135742 L153.824219,153.820312 Z M156.989258,160 L156.989258,152.630859 L158.110352,152.630859 L158.110352,153.792969 L158.219727,153.792969 C158.554688,152.972656 159.292969,152.500977 160.277344,152.500977 C161.275391,152.500977 161.972656,153.027344 162.314453,153.792969 L162.423828,153.792969 C162.820312,153.013672 163.661133,152.500977 164.679688,152.500977 C166.183594,152.500977 167.024414,153.362305 167.024414,154.907227 L167.024414,160 L165.848633,160 L165.848633,155.180664 C165.848633,154.09375 165.335938,153.560547 164.296875,153.560547 C163.271484,153.560547 162.587891,154.326172 162.587891,155.262695 L162.587891,160 L161.412109,160 L161.412109,154.996094 C161.412109,154.121094 160.803711,153.560547 159.874023,153.560547 C158.910156,153.560547 158.165039,154.394531 158.165039,155.433594 L158.165039,160 L156.989258,160 Z M173.12207,160 L173.12207,152.630859 L174.243164,152.630859 L174.243164,153.792969 L174.352539,153.792969 C174.72168,152.979492 175.576172,152.500977 176.704102,152.500977 C178.358398,152.500977 179.28125,153.478516 179.28125,155.228516 L179.28125,160 L178.105469,160 L178.105469,155.515625 C178.105469,154.189453 177.544922,153.560547 176.369141,153.560547 C175.077148,153.560547 174.297852,154.34668 174.297852,155.638672 L174.297852,160 L173.12207,160 Z M184.456055,159.070312 C185.850586,159.070312 186.636719,158.058594 186.636719,156.31543 C186.636719,154.56543 185.850586,153.560547 184.456055,153.560547 C183.061523,153.560547 182.275391,154.56543 182.275391,156.31543 C182.275391,158.058594 183.061523,159.070312 184.456055,159.070312 Z M184.456055,160.129883 C182.357422,160.129883 181.058594,158.680664 181.058594,156.31543 C181.058594,153.943359 182.357422,152.500977 184.456055,152.500977 C186.554688,152.500977 187.853516,153.943359 187.853516,156.31543 C187.853516,158.680664 186.554688,160.129883 184.456055,160.129883 Z M190.191406,150.791992 L191.367188,150.791992 L191.367188,152.630859 L193.076172,152.630859 L193.076172,153.615234 L191.367188,153.615234 L191.367188,157.785156 C191.367188,158.65332 191.695312,159.022461 192.460938,159.022461 C192.672852,159.022461 192.775391,159.015625 192.994141,158.995117 L192.994141,159.986328 C192.761719,160.027344 192.549805,160.054688 192.317383,160.054688 C190.799805,160.054688 190.191406,159.494141 190.191406,158.085938 L190.191406,153.615234 L188.954102,153.615234 L188.954102,152.630859 L190.191406,152.630859 L190.191406,150.791992 Z M198.56543,154.647461 C198.56543,153.423828 199.748047,152.500977 201.313477,152.500977 C202.858398,152.500977 203.931641,153.266602 204.088867,154.476562 L202.926758,154.476562 C202.769531,153.888672 202.195312,153.499023 201.306641,153.499023 C200.431641,153.499023 199.748047,153.943359 199.748047,154.599609 C199.748047,155.105469 200.158203,155.419922 201.026367,155.631836 L202.161133,155.905273 C203.548828,156.240234 204.21875,156.841797 204.21875,157.901367 C204.21875,159.220703 202.94043,160.129883 201.265625,160.129883 C199.625,160.129883 198.49707,159.34375 198.367188,158.120117 L199.577148,158.120117 C199.775391,158.742188 200.363281,159.138672 201.306641,159.138672 C202.297852,159.138672 203.008789,158.666992 203.008789,157.990234 C203.008789,157.484375 202.625977,157.142578 201.839844,156.951172 L200.575195,156.643555 C199.194336,156.308594 198.56543,155.713867 198.56543,154.647461 Z M212.162109,152.630859 L212.162109,160 L211.041016,160 L211.041016,158.844727 L210.931641,158.844727 C210.5625,159.665039 209.708008,160.129883 208.580078,160.129883 C206.925781,160.129883 205.996094,159.145508 205.996094,157.402344 L205.996094,152.630859 L207.171875,152.630859 L207.171875,157.115234 C207.171875,158.441406 207.732422,159.056641 208.908203,159.056641 C210.207031,159.056641 210.986328,158.28418 210.986328,156.992188 L210.986328,152.630859 L212.162109,152.630859 Z M214.376953,160 L214.376953,152.630859 L215.498047,152.630859 L215.498047,153.724609 L215.607422,153.724609 C215.826172,153.006836 216.673828,152.500977 217.651367,152.500977 C217.842773,152.500977 218.088867,152.514648 218.239258,152.535156 L218.239258,153.710938 C218.143555,153.683594 217.719727,153.642578 217.487305,153.642578 C216.366211,153.642578 215.552734,154.394531 215.552734,155.433594 L215.552734,160 L214.376953,160 Z M222.545898,153.540039 C221.370117,153.540039 220.549805,154.401367 220.460938,155.707031 L224.521484,155.707031 C224.494141,154.401367 223.714844,153.540039 222.545898,153.540039 Z M224.487305,158.092773 L225.663086,158.092773 C225.307617,159.357422 224.172852,160.129883 222.55957,160.129883 C220.515625,160.129883 219.237305,158.65332 219.237305,156.322266 C219.237305,154.004883 220.536133,152.500977 222.55957,152.500977 C224.548828,152.500977 225.758789,153.916016 225.758789,156.206055 L225.758789,156.657227 L220.460938,156.657227 L220.460938,156.711914 C220.522461,158.167969 221.335938,159.09082 222.586914,159.09082 C223.537109,159.09082 224.179688,158.742188 224.487305,158.092773 Z M231.624023,160 L231.624023,149.705078 L232.799805,149.705078 L232.799805,153.792969 L232.90918,153.792969 C233.27832,152.979492 234.119141,152.500977 235.24707,152.500977 C236.921875,152.500977 237.858398,153.499023 237.858398,155.228516 L237.858398,160 L236.682617,160 L236.682617,155.515625 C236.682617,154.209961 236.108398,153.560547 234.912109,153.560547 C233.592773,153.560547 232.799805,154.394531 232.799805,155.638672 L232.799805,160 L231.624023,160 Z M243.033203,159.070312 C244.427734,159.070312 245.213867,158.058594 245.213867,156.31543 C245.213867,154.56543 244.427734,153.560547 243.033203,153.560547 C241.638672,153.560547 240.852539,154.56543 240.852539,156.31543 C240.852539,158.058594 241.638672,159.070312 243.033203,159.070312 Z M243.033203,160.129883 C240.93457,160.129883 239.635742,158.680664 239.635742,156.31543 C239.635742,153.943359 240.93457,152.500977 243.033203,152.500977 C245.131836,152.500977 246.430664,153.943359 246.430664,156.31543 C246.430664,158.680664 245.131836,160.129883 243.033203,160.129883 Z M257.545898,152.630859 L255.481445,160 L254.285156,160 L252.637695,154.298828 L252.52832,154.298828 L250.887695,160 L249.698242,160 L247.633789,152.630859 L248.823242,152.630859 L250.272461,158.523438 L250.381836,158.523438 L252.029297,152.630859 L253.157227,152.630859 L254.804688,158.523438 L254.914062,158.523438 L256.363281,152.630859 L257.545898,152.630859 Z M263.561523,150.791992 L264.737305,150.791992 L264.737305,152.630859 L266.446289,152.630859 L266.446289,153.615234 L264.737305,153.615234 L264.737305,157.785156 C264.737305,158.65332 265.06543,159.022461 265.831055,159.022461 C266.042969,159.022461 266.145508,159.015625 266.364258,158.995117 L266.364258,159.986328 C266.131836,160.027344 265.919922,160.054688 265.6875,160.054688 C264.169922,160.054688 263.561523,159.494141 263.561523,158.085938 L263.561523,153.615234 L262.324219,153.615234 L262.324219,152.630859 L263.561523,152.630859 L263.561523,150.791992 Z M271.183594,159.070312 C272.578125,159.070312 273.364258,158.058594 273.364258,156.31543 C273.364258,154.56543 272.578125,153.560547 271.183594,153.560547 C269.789062,153.560547 269.00293,154.56543 269.00293,156.31543 C269.00293,158.058594 269.789062,159.070312 271.183594,159.070312 Z M271.183594,160.129883 C269.084961,160.129883 267.786133,158.680664 267.786133,156.31543 C267.786133,153.943359 269.084961,152.500977 271.183594,152.500977 C273.282227,152.500977 274.581055,153.943359 274.581055,156.31543 C274.581055,158.680664 273.282227,160.129883 271.183594,160.129883 Z M286.475586,152.630859 L286.475586,160 L285.354492,160 L285.354492,158.844727 L285.245117,158.844727 C284.875977,159.665039 284.021484,160.129883 282.893555,160.129883 C281.239258,160.129883 280.30957,159.145508 280.30957,157.402344 L280.30957,152.630859 L281.485352,152.630859 L281.485352,157.115234 C281.485352,158.441406 282.045898,159.056641 283.22168,159.056641 C284.520508,159.056641 285.299805,158.28418 285.299805,156.992188 L285.299805,152.630859 L286.475586,152.630859 Z M288.519531,154.647461 C288.519531,153.423828 289.702148,152.500977 291.267578,152.500977 C292.8125,152.500977 293.885742,153.266602 294.042969,154.476562 L292.880859,154.476562 C292.723633,153.888672 292.149414,153.499023 291.260742,153.499023 C290.385742,153.499023 289.702148,153.943359 289.702148,154.599609 C289.702148,155.105469 290.112305,155.419922 290.980469,155.631836 L292.115234,155.905273 C293.50293,156.240234 294.172852,156.841797 294.172852,157.901367 C294.172852,159.220703 292.894531,160.129883 291.219727,160.129883 C289.579102,160.129883 288.451172,159.34375 288.321289,158.120117 L289.53125,158.120117 C289.729492,158.742188 290.317383,159.138672 291.260742,159.138672 C292.251953,159.138672 292.962891,158.666992 292.962891,157.990234 C292.962891,157.484375 292.580078,157.142578 291.793945,156.951172 L290.529297,156.643555 C289.148438,156.308594 288.519531,155.713867 288.519531,154.647461 Z M298.958008,153.540039 C297.782227,153.540039 296.961914,154.401367 296.873047,155.707031 L300.933594,155.707031 C300.90625,154.401367 300.126953,153.540039 298.958008,153.540039 Z M300.899414,158.092773 L302.075195,158.092773 C301.719727,159.357422 300.584961,160.129883 298.97168,160.129883 C296.927734,160.129883 295.649414,158.65332 295.649414,156.322266 C295.649414,154.004883 296.948242,152.500977 298.97168,152.500977 C300.960938,152.500977 302.170898,153.916016 302.170898,156.206055 L302.170898,156.657227 L296.873047,156.657227 L296.873047,156.711914 C296.93457,158.167969 297.748047,159.09082 298.999023,159.09082 C299.949219,159.09082 300.591797,158.742188 300.899414,158.092773 Z M308.459961,150.791992 L309.635742,150.791992 L309.635742,152.630859 L311.344727,152.630859 L311.344727,153.615234 L309.635742,153.615234 L309.635742,157.785156 C309.635742,158.65332 309.963867,159.022461 310.729492,159.022461 C310.941406,159.022461 311.043945,159.015625 311.262695,158.995117 L311.262695,159.986328 C311.030273,160.027344 310.818359,160.054688 310.585938,160.054688 C309.068359,160.054688 308.459961,159.494141 308.459961,158.085938 L308.459961,153.615234 L307.222656,153.615234 L307.222656,152.630859 L308.459961,152.630859 L308.459961,150.791992 Z M313.12207,160 L313.12207,149.705078 L314.297852,149.705078 L314.297852,153.792969 L314.407227,153.792969 C314.776367,152.979492 315.617188,152.500977 316.745117,152.500977 C318.419922,152.500977 319.356445,153.499023 319.356445,155.228516 L319.356445,160 L318.180664,160 L318.180664,155.515625 C318.180664,154.209961 317.606445,153.560547 316.410156,153.560547 C315.09082,153.560547 314.297852,154.394531 314.297852,155.638672 L314.297852,160 L313.12207,160 Z M321.530273,160 L321.530273,152.630859 L322.706055,152.630859 L322.706055,160 L321.530273,160 Z M322.118164,151.133789 C321.666992,151.133789 321.297852,150.764648 321.297852,150.313477 C321.297852,149.862305 321.666992,149.493164 322.118164,149.493164 C322.569336,149.493164 322.938477,149.862305 322.938477,150.313477 C322.938477,150.764648 322.569336,151.133789 322.118164,151.133789 Z M324.777344,154.647461 C324.777344,153.423828 325.959961,152.500977 327.525391,152.500977 C329.070312,152.500977 330.143555,153.266602 330.300781,154.476562 L329.138672,154.476562 C328.981445,153.888672 328.407227,153.499023 327.518555,153.499023 C326.643555,153.499023 325.959961,153.943359 325.959961,154.599609 C325.959961,155.105469 326.370117,155.419922 327.238281,155.631836 L328.373047,155.905273 C329.760742,156.240234 330.430664,156.841797 330.430664,157.901367 C330.430664,159.220703 329.152344,160.129883 327.477539,160.129883 C325.836914,160.129883 324.708984,159.34375 324.579102,158.120117 L325.789062,158.120117 C325.987305,158.742188 326.575195,159.138672 327.518555,159.138672 C328.509766,159.138672 329.220703,158.666992 329.220703,157.990234 C329.220703,157.484375 328.837891,157.142578 328.051758,156.951172 L326.787109,156.643555 C325.40625,156.308594 324.777344,155.713867 324.777344,154.647461 Z" id="I’m-not-sure-how-to" fill="#FFFFFF"></path>
            </g>
        </g>
    </g>
</svg>