<?xml version="1.0" encoding="UTF-8"?>
<svg width="400px" height="320px" viewBox="0 0 400 320" version="1.1" xmlns="http://www.w3.org/2000/svg" xmlns:xlink="http://www.w3.org/1999/xlink">
    <!-- Generator: Sketch 49.2 (51160) - http://www.bohemiancoding.com/sketch -->
    <title>snippet/line-chart</title>
    <desc>Created with Sketch.</desc>
    <defs>
        <circle id="path-1" cx="184" cy="156" r="4"></circle>
        <circle id="path-2" cx="184" cy="207" r="4"></circle>
        <circle id="path-3" cx="184" cy="253" r="4"></circle>
        <rect id="path-4" x="8" y="12" width="144" height="112" rx="3"></rect>
        <filter x="-27.1%" y="-29.5%" width="154.2%" height="169.6%" filterUnits="objectBoundingBox" id="filter-5">
            <feOffset dx="0" dy="6" in="SourceAlpha" result="shadowOffsetOuter1"></feOffset>
            <feGaussianBlur stdDeviation="12" in="shadowOffsetOuter1" result="shadowBlurOuter1"></feGaussianBlur>
            <feColorMatrix values="0 0 0 0 0   0 0 0 0 0   0 0 0 0 0  0 0 0 0.6 0" type="matrix" in="shadowBlurOuter1"></feColorMatrix>
        </filter>
    </defs>
    <g id="snippet/line-chart" stroke="none" stroke-width="1" fill="none" fill-rule="evenodd">
        <g id="Group" transform="translate(16.000000, 16.000000)">
            <g id="Lines">
                <path d="M184,288 L184,0" id="Path-6" stroke="#C4C2CB" stroke-width="2" stroke-linecap="round" stroke-linejoin="round"></path>
                <path d="M0,192 C29.6666667,134 60.3333333,105 92,105 C139.5,105 145,142 184,156.5 C210,166.166667 240.666667,157.666667 276,131" id="Path-4" stroke="#1EB8C1" stroke-width="3" stroke-linecap="round" stroke-linejoin="round"></path>
                <g id="Oval">
                    <use fill="#FFFFFF" fill-rule="evenodd" xlink:href="#path-1"></use>
                    <circle stroke="#1EB8C1" stroke-width="3" cx="184" cy="156" r="5.5"></circle>
                </g>
                <path d="M0,233.074473 C31.3333333,163.691491 62,129 92,129 C137,129 155,180.925527 184,206 C203.333333,222.716315 256.666667,223.382982 344,208" id="Path-4" stroke="#5B93FF" stroke-width="3" stroke-linecap="round" stroke-linejoin="round"></path>
                <g id="Oval">
                    <use fill="#FFFFFF" fill-rule="evenodd" xlink:href="#path-2"></use>
                    <circle stroke="#5B93FF" stroke-width="3" cx="184" cy="207" r="5.5"></circle>
                </g>
                <path d="M0,256 C32.6666667,204.333333 63.3333333,178.5 92,178.5 C135,178.5 141.5,239 184,253 C212.333333,262.333333 265.666667,260.666667 344,248" id="Path-4" stroke="#F84F77" stroke-width="3" stroke-linecap="round" stroke-linejoin="round"></path>
                <g id="Oval">
                    <use fill="#FFFFFF" fill-rule="evenodd" xlink:href="#path-3"></use>
                    <circle stroke="#F84F77" stroke-width="3" cx="184" cy="253" r="5.5"></circle>
                </g>
            </g>
            <g id="Dialog" transform="translate(192.000000, 8.000000)">
                <g id="Shadow">
                    <use fill="black" fill-opacity="1" filter="url(#filter-5)" xlink:href="#path-4"></use>
                    <use fill="#FFFFFF" fill-rule="evenodd" xlink:href="#path-4"></use>
                </g>
                <rect id="Rectangle-13" fill="#140B2F" x="0" y="0" width="160" height="128" rx="3"></rect>
                <rect id="Rectangle" fill="#FAFAFB" opacity="0.100000001" x="0" y="0" width="160" height="32"></rect>
                <path d="M14.4492188,20 L13.0429688,20 L13.0429688,11.5449219 L14.8125,11.5449219 L17.3554688,17.703125 L17.4609375,17.703125 L20.0039062,11.5449219 L21.7734375,11.5449219 L21.7734375,20 L20.3671875,20 L20.3671875,14.0527344 L20.2851562,14.0527344 L17.9472656,19.671875 L16.8691406,19.671875 L14.53125,14.0527344 L14.4492188,14.0527344 L14.4492188,20 Z M26.4726562,18.9101562 C27.4863281,18.9101562 28.0605469,18.1367188 28.0605469,16.7949219 C28.0605469,15.4589844 27.4804688,14.6796875 26.4726562,14.6796875 C25.4589844,14.6796875 24.8789062,15.4589844 24.8789062,16.7949219 C24.8789062,18.1367188 25.4589844,18.9101562 26.4726562,18.9101562 Z M26.4726562,20.1289062 C24.5507812,20.1289062 23.390625,18.875 23.390625,16.7949219 C23.390625,14.7265625 24.5683594,13.4609375 26.4726562,13.4609375 C28.3828125,13.4609375 29.5546875,14.7207031 29.5546875,16.7949219 C29.5546875,18.875 28.3886719,20.1289062 26.4726562,20.1289062 Z M31.0195312,20 L31.0195312,13.5898438 L32.4199219,13.5898438 L32.4199219,14.6152344 L32.5195312,14.6152344 C32.8242188,13.9003906 33.5742188,13.4609375 34.5351562,13.4609375 C35.9648438,13.4609375 36.7675781,14.3222656 36.7675781,15.8515625 L36.7675781,20 L35.3203125,20 L35.3203125,16.1972656 C35.3203125,15.21875 34.875,14.7265625 33.9960938,14.7265625 C33.0585938,14.7265625 32.4726562,15.3242188 32.4726562,16.2675781 L32.4726562,20 L31.0195312,20 Z M40.8105469,20.1054688 C39.1875,20.1054688 38.1738281,18.828125 38.1738281,16.7890625 C38.1738281,14.7617188 39.1933594,13.484375 40.8105469,13.484375 C41.6894531,13.484375 42.4160156,13.90625 42.7558594,14.609375 L42.8554688,14.609375 L42.8554688,11.1113281 L44.3085938,11.1113281 L44.3085938,20 L42.9023438,20 L42.9023438,18.9863281 L42.8027344,18.9863281 C42.4394531,19.6894531 41.7011719,20.1054688 40.8105469,20.1054688 Z M41.2617188,14.7207031 C40.2714844,14.7207031 39.6621094,15.5058594 39.6621094,16.7949219 C39.6621094,18.0898438 40.265625,18.8691406 41.2617188,18.8691406 C42.2636719,18.8691406 42.8730469,18.0839844 42.8730469,16.7949219 C42.8730469,15.5175781 42.2578125,14.7207031 41.2617188,14.7207031 Z M48.3339844,18.9628906 C49.2128906,18.9628906 49.8691406,18.3945312 49.8691406,17.6503906 L49.8691406,17.140625 L48.421875,17.234375 C47.6074219,17.2871094 47.2265625,17.5800781 47.2265625,18.1015625 C47.2265625,18.640625 47.6894531,18.9628906 48.3339844,18.9628906 Z M47.90625,20.1054688 C46.6699219,20.1054688 45.7851562,19.3554688 45.7851562,18.1835938 C45.7851562,17.0234375 46.6582031,16.3554688 48.2167969,16.2617188 L49.8691406,16.1621094 L49.8691406,15.6230469 C49.8691406,14.9960938 49.4472656,14.6445312 48.6621094,14.6445312 C47.9941406,14.6445312 47.5371094,14.8789062 47.4023438,15.3125 L46.03125,15.3125 C46.1484375,14.1816406 47.2089844,13.4609375 48.7324219,13.4609375 C50.3789062,13.4609375 51.3046875,14.2636719 51.3046875,15.6230469 L51.3046875,20 L49.9042969,20 L49.9042969,19.1210938 L49.8046875,19.1210938 C49.4472656,19.7421875 48.7441406,20.1054688 47.90625,20.1054688 Z M53.5546875,22.3320312 C53.4667969,22.3320312 53.0742188,22.3261719 52.9804688,22.3085938 L52.9804688,21.125 C53.0625,21.1367188 53.2792969,21.1425781 53.3789062,21.1425781 C53.9941406,21.1425781 54.3398438,20.9023438 54.5273438,20.3105469 L54.6035156,20.0292969 L52.3125,13.5898438 L53.90625,13.5898438 L55.40625,18.59375 L55.5058594,18.59375 L57,13.5898438 L58.5351562,13.5898438 L56.2207031,20.2050781 C55.6757812,21.7988281 54.9902344,22.3320312 53.5546875,22.3320312 Z M65.015625,20 L65.015625,13.0683594 L64.9160156,13.0683594 L62.8125,14.5449219 L62.8125,13.0917969 L65.0214844,11.5449219 L66.5273438,11.5449219 L66.5273438,20 L65.015625,20 Z M71.8828125,20.2050781 C70.3359375,20.2050781 69.1582031,19.2910156 68.90625,17.9023438 L70.4121094,17.9023438 C70.6054688,18.5410156 71.1679688,18.9394531 71.8945312,18.9394531 C73.1308594,18.9394531 73.8632812,17.7851562 73.8632812,15.8515625 L73.7636719,15.8515625 C73.3652344,16.6542969 72.5625,17.1171875 71.5722656,17.1171875 C69.9609375,17.1171875 68.7890625,15.9335938 68.7890625,14.3046875 C68.7890625,12.5703125 70.0898438,11.3339844 71.9296875,11.3339844 C73.1660156,11.3339844 74.1445312,11.9199219 74.7128906,13.0039062 C75.1054688,13.7011719 75.3105469,14.6035156 75.3105469,15.6757812 C75.3105469,18.5234375 74.0332031,20.2050781 71.8828125,20.2050781 Z M71.9355469,15.9160156 C72.9023438,15.9160156 73.6113281,15.2246094 73.6113281,14.28125 C73.6113281,13.3261719 72.8847656,12.59375 71.9414062,12.59375 C70.9980469,12.59375 70.2714844,13.3144531 70.2714844,14.2578125 C70.2714844,15.2246094 70.9628906,15.9160156 71.9355469,15.9160156 Z M81.8027344,20 L80.2910156,20 L80.2910156,11.5449219 L85.6816406,11.5449219 L85.6816406,12.8515625 L81.8027344,12.8515625 L81.8027344,15.3125 L85.3476562,15.3125 L85.3476562,16.5722656 L81.8027344,16.5722656 L81.8027344,20 Z M89.8886719,14.6152344 C89.0214844,14.6152344 88.4121094,15.2363281 88.3476562,16.1738281 L91.3652344,16.1738281 C91.3359375,15.2246094 90.7617188,14.6152344 89.8886719,14.6152344 Z M91.3769531,18.2363281 L92.7539062,18.2363281 C92.4785156,19.4023438 91.4179688,20.1289062 89.90625,20.1289062 C88.0195312,20.1289062 86.8828125,18.8808594 86.8828125,16.8183594 C86.8828125,14.7558594 88.0371094,13.4609375 89.8945312,13.4609375 C91.7226562,13.4609375 92.8183594,14.6738281 92.8183594,16.6953125 L92.8183594,17.1640625 L88.3417969,17.1640625 L88.3417969,17.2402344 C88.3769531,18.3066406 88.9921875,18.9746094 89.9472656,18.9746094 C90.6679688,18.9746094 91.1660156,18.7109375 91.3769531,18.2363281 Z M97.8398438,20.1054688 C96.9433594,20.1054688 96.1992188,19.6894531 95.8359375,18.9863281 L95.7363281,18.9863281 L95.7363281,20 L94.3359375,20 L94.3359375,11.1113281 L95.7890625,11.1113281 L95.7890625,14.609375 L95.8886719,14.609375 C96.2226562,13.9121094 96.9609375,13.484375 97.8398438,13.484375 C99.4628906,13.484375 100.470703,14.7441406 100.470703,16.7949219 C100.470703,18.8339844 99.4570312,20.1054688 97.8398438,20.1054688 Z M97.3828125,14.7207031 C96.3925781,14.7207031 95.765625,15.5175781 95.765625,16.7949219 C95.765625,18.0722656 96.3867188,18.8691406 97.3828125,18.8691406 C98.3789062,18.8691406 98.9765625,18.0839844 98.9765625,16.7949219 C98.9765625,15.5058594 98.3730469,14.7207031 97.3828125,14.7207031 Z M105.041016,14.0175781 C105.041016,12.4355469 106.253906,11.3339844 107.988281,11.3339844 C109.658203,11.3339844 110.865234,12.3535156 110.865234,13.765625 C110.865234,14.6738281 110.402344,15.4238281 108.966797,16.8417969 L107.197266,18.6171875 L107.197266,18.7167969 L110.994141,18.7167969 L110.994141,20 L105.123047,20 L105.123047,18.9511719 L107.941406,16.0683594 C109.095703,14.8964844 109.382812,14.4570312 109.382812,13.859375 C109.382812,13.1152344 108.773438,12.5761719 107.941406,12.5761719 C107.056641,12.5761719 106.458984,13.15625 106.458984,14.0175781 L106.458984,14.0410156 L105.041016,14.0410156 L105.041016,14.0175781 Z M115.78125,20.2109375 C113.753906,20.2109375 112.552734,18.5703125 112.552734,15.7636719 C112.552734,12.96875 113.771484,11.3339844 115.78125,11.3339844 C117.785156,11.3339844 119.003906,12.96875 119.003906,15.7753906 C119.003906,18.5703125 117.802734,20.2109375 115.78125,20.2109375 Z M115.78125,18.9570312 C116.853516,18.9570312 117.474609,17.84375 117.474609,15.7636719 C117.474609,13.6953125 116.841797,12.59375 115.78125,12.59375 C114.720703,12.59375 114.082031,13.7011719 114.082031,15.7636719 C114.082031,17.84375 114.708984,18.9570312 115.78125,18.9570312 Z M122.689453,20 L122.689453,13.0683594 L122.589844,13.0683594 L120.486328,14.5449219 L120.486328,13.0917969 L122.695312,11.5449219 L124.201172,11.5449219 L124.201172,20 L122.689453,20 Z M129.755859,20.2109375 C127.816406,20.2109375 126.480469,19.203125 126.480469,17.7382812 C126.480469,16.6660156 127.201172,15.8164062 128.308594,15.5820312 L128.308594,15.4824219 C127.40625,15.2597656 126.820312,14.5273438 126.820312,13.625 C126.820312,12.2890625 128.044922,11.3339844 129.761719,11.3339844 C131.478516,11.3339844 132.697266,12.2890625 132.697266,13.625 C132.697266,14.5332031 132.123047,15.2539062 131.214844,15.4824219 L131.214844,15.5820312 C132.316406,15.7871094 133.042969,16.6425781 133.042969,17.7324219 C133.042969,19.203125 131.707031,20.2109375 129.755859,20.2109375 Z M129.761719,19.0332031 C130.78125,19.0332031 131.478516,18.453125 131.478516,17.609375 C131.478516,16.765625 130.775391,16.1855469 129.761719,16.1855469 C128.742188,16.1855469 128.039062,16.765625 128.039062,17.609375 C128.039062,18.453125 128.742188,19.0332031 129.761719,19.0332031 Z M129.761719,15.0253906 C130.617188,15.0253906 131.208984,14.515625 131.208984,13.7714844 C131.208984,13.015625 130.623047,12.4941406 129.761719,12.4941406 C128.894531,12.4941406 128.308594,13.015625 128.308594,13.7714844 C128.308594,14.515625 128.900391,15.0253906 129.761719,15.0253906 Z" id="Monday-19-Feb-2018" fill="#FFFFFF"></path>
                <g id="Group" transform="translate(12.000000, 44.000000)">
                    <rect id="Rectangle-2" fill="#1EB8C1" x="0" y="0" width="16" height="16" rx="3"></rect>
                    <path d="M28.0605469,3.54492188 L31.3710938,3.54492188 C33.0234375,3.54492188 34.1601562,4.6875 34.1601562,6.36328125 C34.1601562,8.015625 32.9882812,9.15234375 31.3300781,9.15234375 L29.3730469,9.15234375 L29.3730469,12 L28.0605469,12 L28.0605469,3.54492188 Z M29.3730469,4.70507812 L29.3730469,7.99804688 L31.0253906,7.99804688 C32.15625,7.99804688 32.8183594,7.41210938 32.8183594,6.36328125 C32.8183594,5.29101562 32.1796875,4.70507812 31.0253906,4.70507812 L29.3730469,4.70507812 Z M38.2207031,11.0039062 C39.3105469,11.0039062 39.9316406,10.1953125 39.9316406,8.80664062 C39.9316406,7.42382812 39.3105469,6.61523438 38.2207031,6.61523438 C37.125,6.61523438 36.5097656,7.42382812 36.5097656,8.80664062 C36.5097656,10.2011719 37.125,11.0039062 38.2207031,11.0039062 Z M38.2207031,12.1230469 C36.3515625,12.1230469 35.2089844,10.875 35.2089844,8.80664062 C35.2089844,6.75 36.3574219,5.49609375 38.2207031,5.49609375 C40.078125,5.49609375 41.2265625,6.75 41.2265625,8.80664062 C41.2265625,10.875 40.0839844,12.1230469 38.2207031,12.1230469 Z M42.5917969,7.42382812 C42.5917969,6.29296875 43.6289062,5.49609375 45.0703125,5.49609375 C46.5058594,5.49609375 47.4433594,6.1640625 47.5664062,7.2890625 L46.359375,7.2890625 C46.2421875,6.8203125 45.7851562,6.52148438 45.0703125,6.52148438 C44.3671875,6.52148438 43.8339844,6.85546875 43.8339844,7.35351562 C43.8339844,7.734375 44.15625,7.97460938 44.8476562,8.1328125 L45.9082031,8.37890625 C47.1210938,8.66015625 47.6894531,9.18164062 47.6894531,10.1191406 C47.6894531,11.3203125 46.5703125,12.1230469 45.046875,12.1230469 C43.5292969,12.1230469 42.5390625,11.4375 42.4277344,10.3066406 L43.6875,10.3066406 C43.8457031,10.7988281 44.3144531,11.1035156 45.0761719,11.1035156 C45.8613281,11.1035156 46.4179688,10.7519531 46.4179688,10.2421875 C46.4179688,9.86132812 46.1191406,9.61523438 45.4804688,9.46289062 L44.3671875,9.20507812 C43.1542969,8.91796875 42.5917969,8.37304688 42.5917969,7.42382812 Z M49.2304688,12 L49.2304688,5.61914062 L50.484375,5.61914062 L50.484375,12 L49.2304688,12 Z M49.8574219,4.5 C49.3886719,4.5 49.0429688,4.16601562 49.0429688,3.73242188 C49.0429688,3.29296875 49.3886719,2.95898438 49.8574219,2.95898438 C50.3261719,2.95898438 50.671875,3.29296875 50.671875,3.73242188 C50.671875,4.16601562 50.3261719,4.5 49.8574219,4.5 Z M52.78125,4.07226562 L54.0410156,4.07226562 L54.0410156,5.6484375 L55.4707031,5.6484375 L55.4707031,6.70898438 L54.0410156,6.70898438 L54.0410156,9.99023438 C54.0410156,10.6582031 54.3164062,10.9511719 54.9433594,10.9511719 C55.1367188,10.9511719 55.2363281,10.9394531 55.4121094,10.921875 L55.4121094,11.9707031 C55.2128906,12.0058594 54.984375,12.0351562 54.7382812,12.0351562 C53.3378906,12.0351562 52.78125,11.5429688 52.78125,10.3125 L52.78125,6.70898438 L51.7324219,6.70898438 L51.7324219,5.6484375 L52.78125,5.6484375 L52.78125,4.07226562 Z M56.9296875,12 L56.9296875,5.61914062 L58.1835938,5.61914062 L58.1835938,12 L56.9296875,12 Z M57.5566406,4.5 C57.0878906,4.5 56.7421875,4.16601562 56.7421875,3.73242188 C56.7421875,3.29296875 57.0878906,2.95898438 57.5566406,2.95898438 C58.0253906,2.95898438 58.3710938,3.29296875 58.3710938,3.73242188 C58.3710938,4.16601562 58.0253906,4.5 57.5566406,4.5 Z M59.484375,5.61914062 L60.8320312,5.61914062 L62.4199219,10.6523438 L62.5195312,10.6523438 L64.1015625,5.61914062 L65.4375,5.61914062 L63.140625,12 L61.7871094,12 L59.484375,5.61914062 Z M69.0878906,6.56835938 C68.15625,6.56835938 67.5058594,7.22460938 67.4355469,8.22070312 L70.6582031,8.22070312 C70.6289062,7.21875 70.0195312,6.56835938 69.0878906,6.56835938 Z M70.6523438,10.2773438 L71.8652344,10.2773438 C71.578125,11.4199219 70.5585938,12.1230469 69.0996094,12.1230469 C67.2714844,12.1230469 66.1523438,10.8691406 66.1523438,8.83007812 C66.1523438,6.79101562 67.2949219,5.49609375 69.09375,5.49609375 C70.8691406,5.49609375 71.9414062,6.70898438 71.9414062,8.71289062 L71.9414062,9.15234375 L67.4355469,9.15234375 L67.4355469,9.22265625 C67.4765625,10.3417969 68.1269531,11.0507812 69.1347656,11.0507812 C69.8964844,11.0507812 70.4179688,10.7753906 70.6523438,10.2773438 Z" id="Positive" fill="#FFFFFF"></path>
                </g>
                <g id="Group" transform="translate(12.000000, 72.000000)">
                    <rect id="Rectangle-2" fill="#5B93FF" x="0" y="0" width="16" height="16" rx="3"></rect>
                    <path d="M29.3730469,12 L28.0605469,12 L28.0605469,3.54492188 L33.3398438,3.54492188 L33.3398438,4.74023438 L29.3730469,4.74023438 L29.3730469,7.3359375 L33.0058594,7.3359375 L33.0058594,8.49609375 L29.3730469,8.49609375 L29.3730469,12 Z M37.5117188,6.56835938 C36.5800781,6.56835938 35.9296875,7.22460938 35.859375,8.22070312 L39.0820312,8.22070312 C39.0527344,7.21875 38.4433594,6.56835938 37.5117188,6.56835938 Z M39.0761719,10.2773438 L40.2890625,10.2773438 C40.0019531,11.4199219 38.9824219,12.1230469 37.5234375,12.1230469 C35.6953125,12.1230469 34.5761719,10.8691406 34.5761719,8.83007812 C34.5761719,6.79101562 35.71875,5.49609375 37.5175781,5.49609375 C39.2929688,5.49609375 40.3652344,6.70898438 40.3652344,8.71289062 L40.3652344,9.15234375 L35.859375,9.15234375 L35.859375,9.22265625 C35.9003906,10.3417969 36.5507812,11.0507812 37.5585938,11.0507812 C38.3203125,11.0507812 38.8417969,10.7753906 39.0761719,10.2773438 Z M43.9628906,11.0449219 C44.9121094,11.0449219 45.6152344,10.4414062 45.6152344,9.65039062 L45.6152344,9.1171875 L44.0566406,9.21679688 C43.1777344,9.27539062 42.7792969,9.57421875 42.7792969,10.1367188 C42.7792969,10.7109375 43.2773438,11.0449219 43.9628906,11.0449219 Z M43.640625,12.1054687 C42.4101562,12.1054687 41.5136719,11.3613281 41.5136719,10.1953125 C41.5136719,9.046875 42.3691406,8.38476562 43.8867188,8.29101562 L45.6152344,8.19140625 L45.6152344,7.640625 C45.6152344,6.96679687 45.1699219,6.5859375 44.3085938,6.5859375 C43.6054688,6.5859375 43.1191406,6.84375 42.9785156,7.29492187 L41.7597656,7.29492187 C41.8886719,6.19921875 42.9199219,5.49609375 44.3671875,5.49609375 C45.9667969,5.49609375 46.8691406,6.29296875 46.8691406,7.640625 L46.8691406,12 L45.65625,12 L45.65625,11.1035156 L45.5566406,11.1035156 C45.1757812,11.7421875 44.4785156,12.1054687 43.640625,12.1054687 Z M49.1074219,4.07226562 L50.3671875,4.07226562 L50.3671875,5.6484375 L51.796875,5.6484375 L51.796875,6.70898438 L50.3671875,6.70898438 L50.3671875,9.99023438 C50.3671875,10.6582031 50.6425781,10.9511719 51.2695312,10.9511719 C51.4628906,10.9511719 51.5625,10.9394531 51.7382812,10.921875 L51.7382812,11.9707031 C51.5390625,12.0058594 51.3105469,12.0351562 51.0644531,12.0351562 C49.6640625,12.0351562 49.1074219,11.5429688 49.1074219,10.3125 L49.1074219,6.70898438 L48.0585938,6.70898438 L48.0585938,5.6484375 L49.1074219,5.6484375 L49.1074219,4.07226562 Z M58.734375,5.61914062 L58.734375,12 L57.5273438,12 L57.5273438,10.9863281 L57.4277344,10.9863281 C57.1171875,11.7128906 56.390625,12.1230469 55.4296875,12.1230469 C54.0117188,12.1230469 53.1738281,11.2617188 53.1738281,9.75 L53.1738281,5.61914062 L54.4335938,5.61914062 L54.4335938,9.43359375 C54.4335938,10.4648438 54.9082031,10.9570312 55.8398438,10.9570312 C56.8535156,10.9570312 57.4804688,10.3535156 57.4804688,9.3515625 L57.4804688,5.61914062 L58.734375,5.61914062 Z M60.5683594,12 L60.5683594,5.61914062 L61.78125,5.61914062 L61.78125,6.59765625 L61.875,6.59765625 C62.0566406,5.97070312 62.7597656,5.51367188 63.5917969,5.51367188 C63.7734375,5.51367188 64.0136719,5.53125 64.1484375,5.56640625 L64.1484375,6.80859375 C64.0488281,6.7734375 63.6621094,6.73242187 63.4511719,6.73242187 C62.5019531,6.73242187 61.828125,7.3359375 61.828125,8.23242188 L61.828125,12 L60.5683594,12 Z M67.8164062,6.56835938 C66.8847656,6.56835938 66.234375,7.22460938 66.1640625,8.22070312 L69.3867188,8.22070312 C69.3574219,7.21875 68.7480469,6.56835938 67.8164062,6.56835938 Z M69.3808594,10.2773438 L70.59375,10.2773438 C70.3066406,11.4199219 69.2871094,12.1230469 67.828125,12.1230469 C66,12.1230469 64.8808594,10.8691406 64.8808594,8.83007812 C64.8808594,6.79101562 66.0234375,5.49609375 67.8222656,5.49609375 C69.5976562,5.49609375 70.6699219,6.70898438 70.6699219,8.71289062 L70.6699219,9.15234375 L66.1640625,9.15234375 L66.1640625,9.22265625 C66.2050781,10.3417969 66.8554688,11.0507812 67.8632812,11.0507812 C68.625,11.0507812 69.1464844,10.7753906 69.3808594,10.2773438 Z M75.4628906,12 L75.4628906,5.61914062 L76.6757812,5.61914062 L76.6757812,6.59765625 L76.7695312,6.59765625 C76.9511719,5.97070312 77.6542969,5.51367188 78.4863281,5.51367188 C78.6679688,5.51367188 78.9082031,5.53125 79.0429688,5.56640625 L79.0429688,6.80859375 C78.9433594,6.7734375 78.5566406,6.73242187 78.3457031,6.73242187 C77.3964844,6.73242187 76.7226562,7.3359375 76.7226562,8.23242188 L76.7226562,12 L75.4628906,12 Z M82.7109375,6.56835938 C81.7792969,6.56835938 81.1289062,7.22460938 81.0585938,8.22070312 L84.28125,8.22070312 C84.2519531,7.21875 83.6425781,6.56835938 82.7109375,6.56835938 Z M84.2753906,10.2773438 L85.4882812,10.2773438 C85.2011719,11.4199219 84.1816406,12.1230469 82.7226562,12.1230469 C80.8945312,12.1230469 79.7753906,10.8691406 79.7753906,8.83007812 C79.7753906,6.79101562 80.9179688,5.49609375 82.7167969,5.49609375 C84.4921875,5.49609375 85.5644531,6.70898438 85.5644531,8.71289062 L85.5644531,9.15234375 L81.0585938,9.15234375 L81.0585938,9.22265625 C81.0996094,10.3417969 81.75,11.0507812 82.7578125,11.0507812 C83.5195312,11.0507812 84.0410156,10.7753906 84.2753906,10.2773438 Z M89.4023438,5.51367188 C90.2695312,5.51367188 91.0371094,5.96484375 91.4003906,6.67382812 L91.5,6.67382812 L91.5,5.61914062 L92.71875,5.61914062 L92.71875,14.0683594 L91.453125,14.0683594 L91.453125,11.0332031 L91.3535156,11.0332031 C90.9667969,11.7246094 90.2929688,12.1054688 89.390625,12.1054688 C87.7734375,12.1054688 86.7597656,10.8339844 86.7597656,8.80664062 C86.7597656,6.796875 87.7910156,5.51367188 89.4023438,5.51367188 Z M89.7480469,10.9746094 C90.8203125,10.9746094 91.4765625,10.1484375 91.4765625,8.8125 C91.4765625,7.48242188 90.8144531,6.64453125 89.7539062,6.64453125 C88.6933594,6.64453125 88.0605469,7.45898438 88.0605469,8.80664062 C88.0605469,10.1660156 88.6875,10.9746094 89.7480469,10.9746094 Z M100.048828,5.61914062 L100.048828,12 L98.8417969,12 L98.8417969,10.9863281 L98.7421875,10.9863281 C98.4316406,11.7128906 97.7050781,12.1230469 96.7441406,12.1230469 C95.3261719,12.1230469 94.4882812,11.2617188 94.4882812,9.75 L94.4882812,5.61914062 L95.7480469,5.61914062 L95.7480469,9.43359375 C95.7480469,10.4648438 96.2226562,10.9570312 97.1542969,10.9570312 C98.1679688,10.9570312 98.7949219,10.3535156 98.7949219,9.3515625 L98.7949219,5.61914062 L100.048828,5.61914062 Z M104.501953,6.56835938 C103.570312,6.56835938 102.919922,7.22460938 102.849609,8.22070312 L106.072266,8.22070312 C106.042969,7.21875 105.433594,6.56835938 104.501953,6.56835938 Z M106.066406,10.2773438 L107.279297,10.2773438 C106.992188,11.4199219 105.972656,12.1230469 104.513672,12.1230469 C102.685547,12.1230469 101.566406,10.8691406 101.566406,8.83007812 C101.566406,6.79101562 102.708984,5.49609375 104.507812,5.49609375 C106.283203,5.49609375 107.355469,6.70898438 107.355469,8.71289062 L107.355469,9.15234375 L102.849609,9.15234375 L102.849609,9.22265625 C102.890625,10.3417969 103.541016,11.0507812 104.548828,11.0507812 C105.310547,11.0507812 105.832031,10.7753906 106.066406,10.2773438 Z M108.720703,7.42382812 C108.720703,6.29296875 109.757812,5.49609375 111.199219,5.49609375 C112.634766,5.49609375 113.572266,6.1640625 113.695312,7.2890625 L112.488281,7.2890625 C112.371094,6.8203125 111.914062,6.52148438 111.199219,6.52148438 C110.496094,6.52148438 109.962891,6.85546875 109.962891,7.35351562 C109.962891,7.734375 110.285156,7.97460938 110.976562,8.1328125 L112.037109,8.37890625 C113.25,8.66015625 113.818359,9.18164062 113.818359,10.1191406 C113.818359,11.3203125 112.699219,12.1230469 111.175781,12.1230469 C109.658203,12.1230469 108.667969,11.4375 108.556641,10.3066406 L109.816406,10.3066406 C109.974609,10.7988281 110.443359,11.1035156 111.205078,11.1035156 C111.990234,11.1035156 112.546875,10.7519531 112.546875,10.2421875 C112.546875,9.86132812 112.248047,9.61523438 111.609375,9.46289062 L110.496094,9.20507812 C109.283203,8.91796875 108.720703,8.37304688 108.720703,7.42382812 Z M115.734375,4.07226562 L116.994141,4.07226562 L116.994141,5.6484375 L118.423828,5.6484375 L118.423828,6.70898438 L116.994141,6.70898438 L116.994141,9.99023438 C116.994141,10.6582031 117.269531,10.9511719 117.896484,10.9511719 C118.089844,10.9511719 118.189453,10.9394531 118.365234,10.921875 L118.365234,11.9707031 C118.166016,12.0058594 117.9375,12.0351562 117.691406,12.0351562 C116.291016,12.0351562 115.734375,11.5429688 115.734375,10.3125 L115.734375,6.70898438 L114.685547,6.70898438 L114.685547,5.6484375 L115.734375,5.6484375 L115.734375,4.07226562 Z M119.619141,7.42382812 C119.619141,6.29296875 120.65625,5.49609375 122.097656,5.49609375 C123.533203,5.49609375 124.470703,6.1640625 124.59375,7.2890625 L123.386719,7.2890625 C123.269531,6.8203125 122.8125,6.52148438 122.097656,6.52148438 C121.394531,6.52148438 120.861328,6.85546875 120.861328,7.35351562 C120.861328,7.734375 121.183594,7.97460938 121.875,8.1328125 L122.935547,8.37890625 C124.148438,8.66015625 124.716797,9.18164062 124.716797,10.1191406 C124.716797,11.3203125 123.597656,12.1230469 122.074219,12.1230469 C120.556641,12.1230469 119.566406,11.4375 119.455078,10.3066406 L120.714844,10.3066406 C120.873047,10.7988281 121.341797,11.1035156 122.103516,11.1035156 C122.888672,11.1035156 123.445312,10.7519531 123.445312,10.2421875 C123.445312,9.86132812 123.146484,9.61523438 122.507812,9.46289062 L121.394531,9.20507812 C120.181641,8.91796875 119.619141,8.37304688 119.619141,7.42382812 Z" id="Feature-requests" fill="#FFFFFF"></path>
                </g>
                <g id="Group" transform="translate(12.000000, 100.000000)">
                    <rect id="Rectangle-2" fill="#F84F77" x="0" y="0" width="16" height="16" rx="3"></rect>
                    <path d="M29.3964844,3.54492188 L29.3964844,8.97070312 C29.3964844,10.1542969 30.1640625,10.9746094 31.5058594,10.9746094 C32.8535156,10.9746094 33.6210938,10.1542969 33.6210938,8.97070312 L33.6210938,3.54492188 L34.9335938,3.54492188 L34.9335938,9.08789062 C34.9335938,10.921875 33.6269531,12.2050781 31.5058594,12.2050781 C29.3847656,12.2050781 28.0839844,10.921875 28.0839844,9.08789062 L28.0839844,3.54492188 L29.3964844,3.54492188 Z M36.7792969,7.42382812 C36.7792969,6.29296875 37.8164062,5.49609375 39.2578125,5.49609375 C40.6933594,5.49609375 41.6308594,6.1640625 41.7539062,7.2890625 L40.546875,7.2890625 C40.4296875,6.8203125 39.9726562,6.52148438 39.2578125,6.52148438 C38.5546875,6.52148438 38.0214844,6.85546875 38.0214844,7.35351562 C38.0214844,7.734375 38.34375,7.97460938 39.0351562,8.1328125 L40.0957031,8.37890625 C41.3085938,8.66015625 41.8769531,9.18164062 41.8769531,10.1191406 C41.8769531,11.3203125 40.7578125,12.1230469 39.234375,12.1230469 C37.7167969,12.1230469 36.7265625,11.4375 36.6152344,10.3066406 L37.875,10.3066406 C38.0332031,10.7988281 38.5019531,11.1035156 39.2636719,11.1035156 C40.0488281,11.1035156 40.6054688,10.7519531 40.6054688,10.2421875 C40.6054688,9.86132812 40.3066406,9.61523438 39.6679688,9.46289062 L38.5546875,9.20507812 C37.3417969,8.91796875 36.7792969,8.37304688 36.7792969,7.42382812 Z M45.4804688,11.0449219 C46.4296875,11.0449219 47.1328125,10.4414062 47.1328125,9.65039062 L47.1328125,9.1171875 L45.5742188,9.21679688 C44.6953125,9.27539062 44.296875,9.57421875 44.296875,10.1367188 C44.296875,10.7109375 44.7949219,11.0449219 45.4804688,11.0449219 Z M45.1582031,12.1054688 C43.9277344,12.1054688 43.03125,11.3613281 43.03125,10.1953125 C43.03125,9.046875 43.8867188,8.38476562 45.4042969,8.29101562 L47.1328125,8.19140625 L47.1328125,7.640625 C47.1328125,6.96679688 46.6875,6.5859375 45.8261719,6.5859375 C45.1230469,6.5859375 44.6367188,6.84375 44.4960938,7.29492188 L43.2773438,7.29492188 C43.40625,6.19921875 44.4375,5.49609375 45.8847656,5.49609375 C47.484375,5.49609375 48.3867188,6.29296875 48.3867188,7.640625 L48.3867188,12 L47.1738281,12 L47.1738281,11.1035156 L47.0742188,11.1035156 C46.6933594,11.7421875 45.9960938,12.1054688 45.1582031,12.1054688 Z M53.5605469,12.1054688 C52.6699219,12.1054688 51.9257812,11.6953125 51.5449219,10.9921875 L51.4511719,10.9921875 L51.4511719,12 L50.2382812,12 L50.2382812,3.12890625 L51.4980469,3.12890625 L51.4980469,6.6328125 L51.5976562,6.6328125 C51.9375,5.93554688 52.6875,5.51367188 53.5605469,5.51367188 C55.1777344,5.51367188 56.1972656,6.77929688 56.1972656,8.80664062 C56.1972656,10.828125 55.171875,12.1054688 53.5605469,12.1054688 Z M53.1972656,6.64453125 C52.1425781,6.64453125 51.4804688,7.4765625 51.4746094,8.8125 C51.4804688,10.1484375 52.1367188,10.9746094 53.1972656,10.9746094 C54.2636719,10.9746094 54.9023438,10.1601562 54.9023438,8.80664062 C54.9023438,7.46484375 54.2636719,6.64453125 53.1972656,6.64453125 Z M57.7324219,12 L57.7324219,5.61914062 L58.9863281,5.61914062 L58.9863281,12 L57.7324219,12 Z M58.359375,4.5 C57.890625,4.5 57.5449219,4.16601562 57.5449219,3.73242188 C57.5449219,3.29296875 57.890625,2.95898438 58.359375,2.95898438 C58.828125,2.95898438 59.1738281,3.29296875 59.1738281,3.73242188 C59.1738281,4.16601562 58.828125,4.5 58.359375,4.5 Z M60.8964844,12 L60.8964844,3.12890625 L62.15625,3.12890625 L62.15625,12 L60.8964844,12 Z M64.0664062,12 L64.0664062,5.61914062 L65.3203125,5.61914062 L65.3203125,12 L64.0664062,12 Z M64.6933594,4.5 C64.2246094,4.5 63.8789062,4.16601562 63.8789062,3.73242188 C63.8789062,3.29296875 64.2246094,2.95898438 64.6933594,2.95898438 C65.1621094,2.95898438 65.5078125,3.29296875 65.5078125,3.73242188 C65.5078125,4.16601562 65.1621094,4.5 64.6933594,4.5 Z M67.6171875,4.07226562 L68.8769531,4.07226562 L68.8769531,5.6484375 L70.3066406,5.6484375 L70.3066406,6.70898438 L68.8769531,6.70898438 L68.8769531,9.99023438 C68.8769531,10.6582031 69.1523438,10.9511719 69.7792969,10.9511719 C69.9726562,10.9511719 70.0722656,10.9394531 70.2480469,10.921875 L70.2480469,11.9707031 C70.0488281,12.0058594 69.8203125,12.0351562 69.5742188,12.0351562 C68.1738281,12.0351562 67.6171875,11.5429688 67.6171875,10.3125 L67.6171875,6.70898438 L66.5683594,6.70898438 L66.5683594,5.6484375 L67.6171875,5.6484375 L67.6171875,4.07226562 Z M72.375,14.3203125 C72.2695312,14.3203125 71.9707031,14.3144531 71.8535156,14.2910156 L71.8535156,13.2070312 C71.953125,13.2246094 72.1464844,13.2304688 72.2636719,13.2304688 C72.8613281,13.2304688 73.2011719,12.9785156 73.4179688,12.3339844 L73.5117188,12.0234375 L71.203125,5.61914062 L72.5742188,5.61914062 L74.1738281,10.6875 L74.2734375,10.6875 L75.8671875,5.61914062 L77.203125,5.61914062 L74.8242188,12.2636719 C74.2792969,13.8164062 73.6757812,14.3203125 72.375,14.3203125 Z" id="Usability" fill="#FFFFFF"></path>
                </g>
            </g>
        </g>
    </g>
</svg>