<?xml version="1.0" encoding="UTF-8"?>
<svg width="400px" height="320px" viewBox="0 0 400 320" version="1.1" xmlns="http://www.w3.org/2000/svg" xmlns:xlink="http://www.w3.org/1999/xlink">
    <!-- Generator: Sketch 49.3 (51167) - http://www.bohemiancoding.com/sketch -->
    <title>snippet/notes</title>
    <desc>Created with Sketch.</desc>
    <defs></defs>
    <g id="snippet/notes" stroke="none" stroke-width="1" fill="none" fill-rule="evenodd">
        <g id="Group" transform="translate(16.000000, 36.000000)">
            <g transform="translate(1.000000, 37.000000)" id="Shape">
                <path d="M2.59570312,11 L0.893554688,11 L0.893554688,1.13574219 L2.42480469,1.13574219 L7.26464844,7.84179688 L7.38085938,7.84179688 L7.38085938,1.13574219 L9.07617188,1.13574219 L9.07617188,11 L7.55175781,11 L2.71191406,4.28710938 L2.59570312,4.28710938 L2.59570312,11 Z M14.5654297,9.72851562 C15.7480469,9.72851562 16.4179688,8.82617188 16.4179688,7.26074219 C16.4179688,5.70214844 15.7412109,4.79296875 14.5654297,4.79296875 C13.3828125,4.79296875 12.7060547,5.70214844 12.7060547,7.26074219 C12.7060547,8.82617188 13.3828125,9.72851562 14.5654297,9.72851562 Z M14.5654297,11.1503906 C12.3232422,11.1503906 10.9697266,9.6875 10.9697266,7.26074219 C10.9697266,4.84765625 12.34375,3.37109375 14.5654297,3.37109375 C16.7939453,3.37109375 18.1611328,4.84082031 18.1611328,7.26074219 C18.1611328,9.6875 16.8007812,11.1503906 14.5654297,11.1503906 Z M20.4101562,1.73730469 L22.0986328,1.73730469 L22.0986328,3.56933594 L23.7392578,3.56933594 L23.7392578,4.92285156 L22.0986328,4.92285156 L22.0986328,8.59375 C22.0986328,9.33203125 22.4130859,9.66015625 23.1240234,9.66015625 C23.3632812,9.66015625 23.4863281,9.64648438 23.6845703,9.62597656 L23.6845703,10.9521484 C23.4453125,11 23.1376953,11.0341797 22.8095703,11.0341797 C21.09375,11.0341797 20.4101562,10.453125 20.4101562,9.00390625 L20.4101562,4.92285156 L19.1933594,4.92285156 L19.1933594,3.56933594 L20.4101562,3.56933594 L20.4101562,1.73730469 Z M28.53125,4.71777344 C27.5195312,4.71777344 26.8085937,5.44238281 26.7333984,6.53613281 L30.2539062,6.53613281 C30.2197266,5.42871094 29.5498047,4.71777344 28.53125,4.71777344 Z M30.2675781,8.94238281 L31.8740234,8.94238281 C31.5527344,10.3027344 30.3154297,11.1503906 28.5517578,11.1503906 C26.3505859,11.1503906 25.0244141,9.69433594 25.0244141,7.28808594 C25.0244141,4.88183594 26.3710938,3.37109375 28.5380859,3.37109375 C30.6708984,3.37109375 31.9492188,4.78613281 31.9492188,7.14453125 L31.9492188,7.69140625 L26.7265625,7.69140625 L26.7265625,7.78027344 C26.7675781,9.02441406 27.4853516,9.80371094 28.5996094,9.80371094 C29.4404297,9.80371094 30.0214844,9.49609375 30.2675781,8.94238281 Z M33.4804688,5.66113281 C33.4804688,4.30761719 34.7109375,3.37109375 36.4746094,3.37109375 C38.2519531,3.37109375 39.3662109,4.15722656 39.4892578,5.51757812 L37.8964844,5.51757812 C37.7734375,4.99121094 37.2744141,4.65625 36.4814453,4.65625 C35.7089844,4.65625 35.1279297,5.02539062 35.1279297,5.56542969 C35.1279297,5.98925781 35.4833984,6.24902344 36.2353516,6.41992188 L37.5546875,6.72070312 C38.9833984,7.04199219 39.6464844,7.65722656 39.6464844,8.7578125 C39.6464844,10.1933594 38.3271484,11.1503906 36.4609375,11.1503906 C34.5947266,11.1503906 33.4189453,10.34375 33.2890625,8.98339844 L34.9638672,8.98339844 C35.1279297,9.53710938 35.6542969,9.86523438 36.5019531,9.86523438 C37.3564453,9.86523438 37.9511719,9.48925781 37.9511719,8.93554688 C37.9511719,8.51171875 37.6298828,8.24511719 36.9189453,8.08789062 L35.5927734,7.78027344 C34.1572266,7.45214844 33.4804688,6.7890625 33.4804688,5.66113281 Z" fill="#512DA8"></path>
                <path d="M63.0703125,11 L61.3066406,11 L61.3066406,2.66015625 L58.2714844,2.66015625 L58.2714844,1.13574219 L66.1123047,1.13574219 L66.1123047,2.66015625 L63.0703125,2.66015625 L63.0703125,11 Z M70.3369141,9.79003906 C71.3623047,9.79003906 72.1279297,9.12695312 72.1279297,8.25878906 L72.1279297,7.6640625 L70.4394531,7.7734375 C69.4892578,7.83496094 69.0449219,8.17675781 69.0449219,8.78515625 C69.0449219,9.4140625 69.5849609,9.79003906 70.3369141,9.79003906 Z M69.8378906,11.1230469 C68.3955078,11.1230469 67.3632812,10.2480469 67.3632812,8.88085938 C67.3632812,7.52734375 68.3818359,6.74804688 70.2001953,6.63867188 L72.1279297,6.52246094 L72.1279297,5.89355469 C72.1279297,5.16210938 71.6357422,4.75195312 70.7197266,4.75195312 C69.9404297,4.75195312 69.4072266,5.02539062 69.25,5.53125 L67.6503906,5.53125 C67.7871094,4.21191406 69.0244141,3.37109375 70.8017578,3.37109375 C72.7226562,3.37109375 73.8027344,4.30761719 73.8027344,5.89355469 L73.8027344,11 L72.1689453,11 L72.1689453,9.97460938 L72.0527344,9.97460938 C71.6357422,10.6992188 70.8154297,11.1230469 69.8378906,11.1230469 Z M80.9462891,7.17871094 C80.9462891,5.75 80.2285156,4.84082031 79.0527344,4.84082031 C77.8701172,4.84082031 77.2001953,5.75 77.2001953,7.17871094 C77.2001953,8.60742187 77.8701172,9.50976562 79.0527344,9.50976562 C80.2353516,9.50976562 80.9462891,8.60742187 80.9462891,7.17871094 Z M79.0527344,13.84375 C77.1318359,13.84375 75.8740234,12.9960938 75.7373047,11.7109375 L77.4394531,11.7109375 C77.5488281,12.2236328 78.1503906,12.5517578 79.0800781,12.5517578 C80.2421875,12.5517578 80.9189453,12.0048828 80.9189453,11.0683594 L80.9189453,9.65332031 L80.8027344,9.65332031 C80.3720703,10.453125 79.5585938,10.890625 78.5195312,10.890625 C76.6328125,10.890625 75.4570312,9.42773438 75.4570312,7.17871094 C75.4570312,4.88867188 76.6396484,3.3984375 78.546875,3.3984375 C79.5654297,3.3984375 80.4541016,3.90429688 80.8642578,4.71777344 L80.9804688,4.71777344 L80.9804688,3.52148438 L82.6142578,3.52148438 L82.6142578,11.0273438 C82.6142578,12.7568359 81.2333984,13.84375 79.0527344,13.84375 Z M84.5214844,5.66113281 C84.5214844,4.30761719 85.7519531,3.37109375 87.515625,3.37109375 C89.2929688,3.37109375 90.4072266,4.15722656 90.5302734,5.51757812 L88.9375,5.51757812 C88.8144531,4.99121094 88.3154297,4.65625 87.5224609,4.65625 C86.75,4.65625 86.1689453,5.02539062 86.1689453,5.56542969 C86.1689453,5.98925781 86.5244141,6.24902344 87.2763672,6.41992188 L88.5957031,6.72070312 C90.0244141,7.04199219 90.6875,7.65722656 90.6875,8.7578125 C90.6875,10.1933594 89.3681641,11.1503906 87.5019531,11.1503906 C85.6357422,11.1503906 84.4599609,10.34375 84.3300781,8.98339844 L86.0048828,8.98339844 C86.1689453,9.53710938 86.6953125,9.86523438 87.5429688,9.86523438 C88.3974609,9.86523438 88.9921875,9.48925781 88.9921875,8.93554688 C88.9921875,8.51171875 88.6708984,8.24511719 87.9599609,8.08789062 L86.6337891,7.78027344 C85.1982422,7.45214844 84.5214844,6.7890625 84.5214844,5.66113281 Z" fill="#726D82"></path>
                <path d="M111.788086,11 L110.024414,11 L110.024414,1.13574219 L111.788086,1.13574219 L111.788086,11 Z M114.043945,11 L114.043945,3.52148438 L115.677734,3.52148438 L115.677734,4.71777344 L115.793945,4.71777344 C116.149414,3.88378906 117.024414,3.37109375 118.145508,3.37109375 C119.813477,3.37109375 120.75,4.37597656 120.75,6.16015625 L120.75,11 L119.061523,11 L119.061523,6.56347656 C119.061523,5.421875 118.541992,4.84765625 117.516602,4.84765625 C116.422852,4.84765625 115.739258,5.54492188 115.739258,6.64550781 L115.739258,11 L114.043945,11 Z M122.588867,5.66113281 C122.588867,4.30761719 123.819336,3.37109375 125.583008,3.37109375 C127.360352,3.37109375 128.474609,4.15722656 128.597656,5.51757812 L127.004883,5.51757812 C126.881836,4.99121094 126.382812,4.65625 125.589844,4.65625 C124.817383,4.65625 124.236328,5.02539062 124.236328,5.56542969 C124.236328,5.98925781 124.591797,6.24902344 125.34375,6.41992188 L126.663086,6.72070312 C128.091797,7.04199219 128.754883,7.65722656 128.754883,8.7578125 C128.754883,10.1933594 127.435547,11.1503906 125.569336,11.1503906 C123.703125,11.1503906 122.527344,10.34375 122.397461,8.98339844 L124.072266,8.98339844 C124.236328,9.53710938 124.762695,9.86523438 125.610352,9.86523438 C126.464844,9.86523438 127.05957,9.48925781 127.05957,8.93554688 C127.05957,8.51171875 126.738281,8.24511719 126.027344,8.08789062 L124.701172,7.78027344 C123.265625,7.45214844 122.588867,6.7890625 122.588867,5.66113281 Z M130.491211,11 L130.491211,3.52148438 L132.179688,3.52148438 L132.179688,11 L130.491211,11 Z M131.332031,2.3046875 C130.716797,2.3046875 130.286133,1.90820312 130.286133,1.36816406 C130.286133,0.828125 130.716797,0.431640625 131.332031,0.431640625 C131.954102,0.431640625 132.37793,0.828125 132.37793,1.36816406 C132.37793,1.90820312 131.954102,2.3046875 131.332031,2.3046875 Z M139.384766,7.17871094 C139.384766,5.75 138.666992,4.84082031 137.491211,4.84082031 C136.308594,4.84082031 135.638672,5.75 135.638672,7.17871094 C135.638672,8.60742188 136.308594,9.50976562 137.491211,9.50976562 C138.673828,9.50976562 139.384766,8.60742188 139.384766,7.17871094 Z M137.491211,13.84375 C135.570312,13.84375 134.3125,12.9960938 134.175781,11.7109375 L135.87793,11.7109375 C135.987305,12.2236328 136.588867,12.5517578 137.518555,12.5517578 C138.680664,12.5517578 139.357422,12.0048828 139.357422,11.0683594 L139.357422,9.65332031 L139.241211,9.65332031 C138.810547,10.453125 137.99707,10.890625 136.958008,10.890625 C135.071289,10.890625 133.895508,9.42773438 133.895508,7.17871094 C133.895508,4.88867188 135.078125,3.3984375 136.985352,3.3984375 C138.003906,3.3984375 138.892578,3.90429688 139.302734,4.71777344 L139.418945,4.71777344 L139.418945,3.52148438 L141.052734,3.52148438 L141.052734,11.0273438 C141.052734,12.7568359 139.671875,13.84375 137.491211,13.84375 Z M143.199219,11 L143.199219,0.629882812 L144.867188,0.629882812 L144.867188,4.73144531 L144.990234,4.73144531 C145.345703,3.890625 146.227539,3.38476562 147.341797,3.38476562 C149.016602,3.38476562 149.987305,4.39648438 149.987305,6.17382813 L149.987305,11 L148.298828,11 L148.298828,6.57714844 C148.298828,5.44238281 147.751953,4.86132812 146.712891,4.86132812 C145.598633,4.86132812 144.894531,5.5859375 144.894531,6.65917969 L144.894531,11 L143.199219,11 Z M152.537109,1.73730469 L154.225586,1.73730469 L154.225586,3.56933594 L155.866211,3.56933594 L155.866211,4.92285156 L154.225586,4.92285156 L154.225586,8.59375 C154.225586,9.33203125 154.540039,9.66015625 155.250977,9.66015625 C155.490234,9.66015625 155.613281,9.64648438 155.811523,9.62597656 L155.811523,10.9521484 C155.572266,11 155.264648,11.0341797 154.936523,11.0341797 C153.220703,11.0341797 152.537109,10.453125 152.537109,9.00390625 L152.537109,4.92285156 L151.320312,4.92285156 L151.320312,3.56933594 L152.537109,3.56933594 L152.537109,1.73730469 Z M157.349609,5.66113281 C157.349609,4.30761719 158.580078,3.37109375 160.34375,3.37109375 C162.121094,3.37109375 163.235352,4.15722656 163.358398,5.51757812 L161.765625,5.51757812 C161.642578,4.99121094 161.143555,4.65625 160.350586,4.65625 C159.578125,4.65625 158.99707,5.02539062 158.99707,5.56542969 C158.99707,5.98925781 159.352539,6.24902344 160.104492,6.41992188 L161.423828,6.72070312 C162.852539,7.04199219 163.515625,7.65722656 163.515625,8.7578125 C163.515625,10.1933594 162.196289,11.1503906 160.330078,11.1503906 C158.463867,11.1503906 157.288086,10.34375 157.158203,8.98339844 L158.833008,8.98339844 C158.99707,9.53710938 159.523438,9.86523438 160.371094,9.86523438 C161.225586,9.86523438 161.820312,9.48925781 161.820312,8.93554688 C161.820312,8.51171875 161.499023,8.24511719 160.788086,8.08789062 L159.461914,7.78027344 C158.026367,7.45214844 157.349609,6.7890625 157.349609,5.66113281 Z" fill="#726D82"></path>
                <path d="M187.257324,11.2460938 C184.461426,11.2460938 182.725098,9.26367188 182.725098,6.07128906 C182.725098,2.86523438 184.45459,0.889648438 187.250488,0.889648438 C189.492676,0.889648438 191.222168,2.35253906 191.427246,4.41015625 L189.690918,4.41015625 C189.444824,3.22753906 188.494629,2.46191406 187.250488,2.46191406 C185.575684,2.46191406 184.529785,3.84277344 184.529785,6.06445312 C184.529785,8.29296875 185.575684,9.67382812 187.257324,9.67382812 C188.508301,9.67382812 189.458496,8.9765625 189.697754,7.86914062 L191.434082,7.86914062 C191.20166,9.88574219 189.533691,11.2460938 187.257324,11.2460938 Z M193.279785,11 L193.279785,0.629882812 L194.947754,0.629882812 L194.947754,4.73144531 L195.070801,4.73144531 C195.42627,3.890625 196.308105,3.38476562 197.422363,3.38476562 C199.097168,3.38476562 200.067871,4.39648438 200.067871,6.17382812 L200.067871,11 L198.379395,11 L198.379395,6.57714844 C198.379395,5.44238281 197.83252,4.86132812 196.793457,4.86132812 C195.679199,4.86132812 194.975098,5.5859375 194.975098,6.65917969 L194.975098,11 L193.279785,11 Z M204.634277,9.79003906 C205.659668,9.79003906 206.425293,9.12695312 206.425293,8.25878906 L206.425293,7.6640625 L204.736816,7.7734375 C203.786621,7.83496094 203.342285,8.17675781 203.342285,8.78515625 C203.342285,9.4140625 203.882324,9.79003906 204.634277,9.79003906 Z M204.135254,11.1230469 C202.692871,11.1230469 201.660645,10.2480469 201.660645,8.88085938 C201.660645,7.52734375 202.679199,6.74804688 204.497559,6.63867188 L206.425293,6.52246094 L206.425293,5.89355469 C206.425293,5.16210938 205.933105,4.75195312 205.01709,4.75195312 C204.237793,4.75195312 203.70459,5.02539062 203.547363,5.53125 L201.947754,5.53125 C202.084473,4.21191406 203.321777,3.37109375 205.099121,3.37109375 C207.02002,3.37109375 208.100098,4.30761719 208.100098,5.89355469 L208.100098,11 L206.466309,11 L206.466309,9.97460938 L206.350098,9.97460938 C205.933105,10.6992188 205.112793,11.1230469 204.135254,11.1230469 Z M210.137207,11 L210.137207,3.52148437 L211.770996,3.52148437 L211.770996,4.68359375 L211.887207,4.68359375 C212.092285,3.9453125 212.89209,3.3984375 213.849121,3.3984375 C214.088379,3.3984375 214.382324,3.42578125 214.546387,3.47363281 L214.546387,5.04589844 C214.416504,4.99804688 213.95166,4.95019531 213.685059,4.95019531 C212.598145,4.95019531 211.83252,5.63378906 211.83252,6.6796875 L211.83252,11 L210.137207,11 Z M216.419434,1.73730469 L218.10791,1.73730469 L218.10791,3.56933594 L219.748535,3.56933594 L219.748535,4.92285156 L218.10791,4.92285156 L218.10791,8.59375 C218.10791,9.33203125 218.422363,9.66015625 219.133301,9.66015625 C219.372559,9.66015625 219.495605,9.64648438 219.693848,9.62597656 L219.693848,10.9521484 C219.45459,11 219.146973,11.0341797 218.818848,11.0341797 C217.103027,11.0341797 216.419434,10.453125 216.419434,9.00390625 L216.419434,4.92285156 L215.202637,4.92285156 L215.202637,3.56933594 L216.419434,3.56933594 L216.419434,1.73730469 Z M221.231934,5.66113281 C221.231934,4.30761719 222.462402,3.37109375 224.226074,3.37109375 C226.003418,3.37109375 227.117676,4.15722656 227.240723,5.51757812 L225.647949,5.51757812 C225.524902,4.99121094 225.025879,4.65625 224.23291,4.65625 C223.460449,4.65625 222.879395,5.02539062 222.879395,5.56542969 C222.879395,5.98925781 223.234863,6.24902344 223.986816,6.41992188 L225.306152,6.72070312 C226.734863,7.04199219 227.397949,7.65722656 227.397949,8.7578125 C227.397949,10.1933594 226.078613,11.1503906 224.212402,11.1503906 C222.346191,11.1503906 221.17041,10.34375 221.040527,8.98339844 L222.715332,8.98339844 C222.879395,9.53710938 223.405762,9.86523438 224.253418,9.86523438 C225.10791,9.86523438 225.702637,9.48925781 225.702637,8.93554688 C225.702637,8.51171875 225.381348,8.24511719 224.67041,8.08789062 L223.344238,7.78027344 C221.908691,7.45214844 221.231934,6.7890625 221.231934,5.66113281 Z" fill="#726D82"></path>
            </g>
            <g transform="translate(0.000000, 148.000000)">
                <rect id="Rectangle-3" fill="#5182F8" x="0" y="0" width="368" height="48" rx="3"></rect>
                <g id="GroupHeader" transform="translate(20.000000, 12.000000)">
                    <rect id="Rectangle" fill="#140B2F" opacity="0.100000001" x="0" y="0" width="32" height="24" rx="3"></rect>
                    <path d="M15.9492188,16.2167969 C14.34375,16.2167969 13.0957031,15.2617188 12.8554688,13.8554688 L14.6074219,13.8554688 C14.7714844,14.4121094 15.2988281,14.7636719 15.9609375,14.7636719 C17.1210938,14.7636719 17.8242188,13.6445312 17.7890625,11.8867188 L17.6835938,11.8867188 C17.296875,12.6835938 16.5117188,13.1347656 15.5273438,13.1347656 C13.921875,13.1347656 12.7441406,11.9511719 12.7441406,10.3339844 C12.7441406,8.57617188 14.0859375,7.328125 15.9785156,7.328125 C17.1972656,7.328125 18.1816406,7.86132812 18.7675781,8.8515625 C19.2363281,9.578125 19.4765625,10.5507812 19.4765625,11.7050781 C19.4765625,14.5175781 18.1523438,16.2167969 15.9492188,16.2167969 Z M15.9902344,11.7695312 C16.875,11.7695312 17.5253906,11.1425781 17.5253906,10.2929688 C17.5253906,9.4375 16.8632812,8.77539062 15.9960938,8.77539062 C15.1289062,8.77539062 14.4609375,9.43164062 14.4609375,10.2753906 C14.4609375,11.1425781 15.1054688,11.7695312 15.9902344,11.7695312 Z" id="9" fill="#FFFFFF"></path>
                    <path d="M47.4296875,6.7265625 L47.4296875,13.9296875 C47.4296875,15.453125 48.3828125,16.4765625 50.0546875,16.4765625 C51.7265625,16.4765625 52.671875,15.453125 52.671875,13.9296875 L52.671875,6.7265625 L54.6875,6.7265625 L54.6875,14.1171875 C54.6875,16.578125 52.90625,18.28125 50.0546875,18.28125 C47.203125,18.28125 45.421875,16.578125 45.421875,14.1171875 L45.421875,6.7265625 L47.4296875,6.7265625 Z M57.09375,11.8984375 C57.09375,10.3515625 58.5,9.28125 60.515625,9.28125 C62.546875,9.28125 63.8203125,10.1796875 63.9609375,11.734375 L62.140625,11.734375 C62,11.1328125 61.4296875,10.75 60.5234375,10.75 C59.640625,10.75 58.9765625,11.171875 58.9765625,11.7890625 C58.9765625,12.2734375 59.3828125,12.5703125 60.2421875,12.765625 L61.75,13.109375 C63.3828125,13.4765625 64.140625,14.1796875 64.140625,15.4375 C64.140625,17.078125 62.6328125,18.171875 60.5,18.171875 C58.3671875,18.171875 57.0234375,17.25 56.875,15.6953125 L58.7890625,15.6953125 C58.9765625,16.328125 59.578125,16.703125 60.546875,16.703125 C61.5234375,16.703125 62.203125,16.2734375 62.203125,15.640625 C62.203125,15.15625 61.8359375,14.8515625 61.0234375,14.671875 L59.5078125,14.3203125 C57.8671875,13.9453125 57.09375,13.1875 57.09375,11.8984375 Z M69.6875,10.8203125 C68.53125,10.8203125 67.71875,11.6484375 67.6328125,12.8984375 L71.65625,12.8984375 C71.6171875,11.6328125 70.8515625,10.8203125 69.6875,10.8203125 Z M71.671875,15.6484375 L73.5078125,15.6484375 C73.140625,17.203125 71.7265625,18.171875 69.7109375,18.171875 C67.1953125,18.171875 65.6796875,16.5078125 65.6796875,13.7578125 C65.6796875,11.0078125 67.21875,9.28125 69.6953125,9.28125 C72.1328125,9.28125 73.59375,10.8984375 73.59375,13.59375 L73.59375,14.21875 L67.625,14.21875 L67.625,14.3203125 C67.671875,15.7421875 68.4921875,16.6328125 69.765625,16.6328125 C70.7265625,16.6328125 71.390625,16.28125 71.671875,15.6484375 Z M75.5390625,18 L75.5390625,9.453125 L77.40625,9.453125 L77.40625,10.78125 L77.5390625,10.78125 C77.7734375,9.9375 78.6875,9.3125 79.78125,9.3125 C80.0546875,9.3125 80.390625,9.34375 80.578125,9.3984375 L80.578125,11.1953125 C80.4296875,11.140625 79.8984375,11.0859375 79.59375,11.0859375 C78.3515625,11.0859375 77.4765625,11.8671875 77.4765625,13.0625 L77.4765625,18 L75.5390625,18 Z M86.984375,7.4140625 L88.9140625,7.4140625 L88.9140625,9.5078125 L90.7890625,9.5078125 L90.7890625,11.0546875 L88.9140625,11.0546875 L88.9140625,15.25 C88.9140625,16.09375 89.2734375,16.46875 90.0859375,16.46875 C90.359375,16.46875 90.5,16.453125 90.7265625,16.4296875 L90.7265625,17.9453125 C90.453125,18 90.1015625,18.0390625 89.7265625,18.0390625 C87.765625,18.0390625 86.984375,17.375 86.984375,15.71875 L86.984375,11.0546875 L85.59375,11.0546875 L85.59375,9.5078125 L86.984375,9.5078125 L86.984375,7.4140625 Z M96.265625,10.8203125 C95.109375,10.8203125 94.296875,11.6484375 94.2109375,12.8984375 L98.234375,12.8984375 C98.1953125,11.6328125 97.4296875,10.8203125 96.265625,10.8203125 Z M98.25,15.6484375 L100.085938,15.6484375 C99.71875,17.203125 98.3046875,18.171875 96.2890625,18.171875 C93.7734375,18.171875 92.2578125,16.5078125 92.2578125,13.7578125 C92.2578125,11.0078125 93.796875,9.28125 96.2734375,9.28125 C98.7109375,9.28125 100.171875,10.8984375 100.171875,13.59375 L100.171875,14.21875 L94.203125,14.21875 L94.203125,14.3203125 C94.25,15.7421875 95.0703125,16.6328125 96.34375,16.6328125 C97.3046875,16.6328125 97.96875,16.28125 98.25,15.6484375 Z M101.921875,11.8984375 C101.921875,10.3515625 103.328125,9.28125 105.34375,9.28125 C107.375,9.28125 108.648438,10.1796875 108.789062,11.734375 L106.96875,11.734375 C106.828125,11.1328125 106.257812,10.75 105.351562,10.75 C104.46875,10.75 103.804688,11.171875 103.804688,11.7890625 C103.804688,12.2734375 104.210938,12.5703125 105.070312,12.765625 L106.578125,13.109375 C108.210938,13.4765625 108.96875,14.1796875 108.96875,15.4375 C108.96875,17.078125 107.460938,18.171875 105.328125,18.171875 C103.195312,18.171875 101.851562,17.25 101.703125,15.6953125 L103.617188,15.6953125 C103.804688,16.328125 104.40625,16.703125 105.375,16.703125 C106.351562,16.703125 107.03125,16.2734375 107.03125,15.640625 C107.03125,15.15625 106.664062,14.8515625 105.851562,14.671875 L104.335938,14.3203125 C102.695312,13.9453125 101.921875,13.1875 101.921875,11.8984375 Z M111.546875,7.4140625 L113.476562,7.4140625 L113.476562,9.5078125 L115.351562,9.5078125 L115.351562,11.0546875 L113.476562,11.0546875 L113.476562,15.25 C113.476562,16.09375 113.835938,16.46875 114.648438,16.46875 C114.921875,16.46875 115.0625,16.453125 115.289062,16.4296875 L115.289062,17.9453125 C115.015625,18 114.664062,18.0390625 114.289062,18.0390625 C112.328125,18.0390625 111.546875,17.375 111.546875,15.71875 L111.546875,11.0546875 L110.15625,11.0546875 L110.15625,9.5078125 L111.546875,9.5078125 L111.546875,7.4140625 Z M117.265625,18 L117.265625,9.453125 L119.195312,9.453125 L119.195312,18 L117.265625,18 Z M118.226562,8.0625 C117.523438,8.0625 117.03125,7.609375 117.03125,6.9921875 C117.03125,6.375 117.523438,5.921875 118.226562,5.921875 C118.9375,5.921875 119.421875,6.375 119.421875,6.9921875 C119.421875,7.609375 118.9375,8.0625 118.226562,8.0625 Z M121.59375,18 L121.59375,9.453125 L123.460938,9.453125 L123.460938,10.8203125 L123.59375,10.8203125 C124,9.8671875 125,9.28125 126.28125,9.28125 C128.1875,9.28125 129.257812,10.4296875 129.257812,12.46875 L129.257812,18 L127.328125,18 L127.328125,12.9296875 C127.328125,11.625 126.734375,10.96875 125.5625,10.96875 C124.3125,10.96875 123.53125,11.765625 123.53125,13.0234375 L123.53125,18 L121.59375,18 Z M137.390625,13.6328125 C137.390625,12 136.570312,10.9609375 135.226562,10.9609375 C133.875,10.9609375 133.109375,12 133.109375,13.6328125 C133.109375,15.265625 133.875,16.296875 135.226562,16.296875 C136.578125,16.296875 137.390625,15.265625 137.390625,13.6328125 Z M135.226562,21.25 C133.03125,21.25 131.59375,20.28125 131.4375,18.8125 L133.382812,18.8125 C133.507812,19.3984375 134.195312,19.7734375 135.257812,19.7734375 C136.585938,19.7734375 137.359375,19.1484375 137.359375,18.078125 L137.359375,16.4609375 L137.226562,16.4609375 C136.734375,17.375 135.804688,17.875 134.617188,17.875 C132.460938,17.875 131.117188,16.203125 131.117188,13.6328125 C131.117188,11.015625 132.46875,9.3125 134.648438,9.3125 C135.8125,9.3125 136.828125,9.890625 137.296875,10.8203125 L137.429688,10.8203125 L137.429688,9.453125 L139.296875,9.453125 L139.296875,18.03125 C139.296875,20.0078125 137.71875,21.25 135.226562,21.25 Z M145.742188,11.8984375 C145.742188,10.3515625 147.148438,9.28125 149.164062,9.28125 C151.195312,9.28125 152.46875,10.1796875 152.609375,11.734375 L150.789062,11.734375 C150.648438,11.1328125 150.078125,10.75 149.171875,10.75 C148.289062,10.75 147.625,11.171875 147.625,11.7890625 C147.625,12.2734375 148.03125,12.5703125 148.890625,12.765625 L150.398438,13.109375 C152.03125,13.4765625 152.789062,14.1796875 152.789062,15.4375 C152.789062,17.078125 151.28125,18.171875 149.148438,18.171875 C147.015625,18.171875 145.671875,17.25 145.523438,15.6953125 L147.4375,15.6953125 C147.625,16.328125 148.226562,16.703125 149.195312,16.703125 C150.171875,16.703125 150.851562,16.2734375 150.851562,15.640625 C150.851562,15.15625 150.484375,14.8515625 149.671875,14.671875 L148.15625,14.3203125 C146.515625,13.9453125 145.742188,13.1875 145.742188,11.8984375 Z M158.335938,10.8203125 C157.179688,10.8203125 156.367188,11.6484375 156.28125,12.8984375 L160.304688,12.8984375 C160.265625,11.6328125 159.5,10.8203125 158.335938,10.8203125 Z M160.320312,15.6484375 L162.15625,15.6484375 C161.789062,17.203125 160.375,18.171875 158.359375,18.171875 C155.84375,18.171875 154.328125,16.5078125 154.328125,13.7578125 C154.328125,11.0078125 155.867188,9.28125 158.34375,9.28125 C160.78125,9.28125 162.242188,10.8984375 162.242188,13.59375 L162.242188,14.21875 L156.273438,14.21875 L156.273438,14.3203125 C156.320312,15.7421875 157.140625,16.6328125 158.414062,16.6328125 C159.375,16.6328125 160.039062,16.28125 160.320312,15.6484375 Z M163.992188,11.8984375 C163.992188,10.3515625 165.398438,9.28125 167.414062,9.28125 C169.445312,9.28125 170.71875,10.1796875 170.859375,11.734375 L169.039062,11.734375 C168.898438,11.1328125 168.328125,10.75 167.421875,10.75 C166.539062,10.75 165.875,11.171875 165.875,11.7890625 C165.875,12.2734375 166.28125,12.5703125 167.140625,12.765625 L168.648438,13.109375 C170.28125,13.4765625 171.039062,14.1796875 171.039062,15.4375 C171.039062,17.078125 169.53125,18.171875 167.398438,18.171875 C165.265625,18.171875 163.921875,17.25 163.773438,15.6953125 L165.6875,15.6953125 C165.875,16.328125 166.476562,16.703125 167.445312,16.703125 C168.421875,16.703125 169.101562,16.2734375 169.101562,15.640625 C169.101562,15.15625 168.734375,14.8515625 167.921875,14.671875 L166.40625,14.3203125 C164.765625,13.9453125 163.992188,13.1875 163.992188,11.8984375 Z M172.804688,11.8984375 C172.804688,10.3515625 174.210938,9.28125 176.226562,9.28125 C178.257812,9.28125 179.53125,10.1796875 179.671875,11.734375 L177.851562,11.734375 C177.710938,11.1328125 177.140625,10.75 176.234375,10.75 C175.351562,10.75 174.6875,11.171875 174.6875,11.7890625 C174.6875,12.2734375 175.09375,12.5703125 175.953125,12.765625 L177.460938,13.109375 C179.09375,13.4765625 179.851562,14.1796875 179.851562,15.4375 C179.851562,17.078125 178.34375,18.171875 176.210938,18.171875 C174.078125,18.171875 172.734375,17.25 172.585938,15.6953125 L174.5,15.6953125 C174.6875,16.328125 175.289062,16.703125 176.257812,16.703125 C177.234375,16.703125 177.914062,16.2734375 177.914062,15.640625 C177.914062,15.15625 177.546875,14.8515625 176.734375,14.671875 L175.21875,14.3203125 C173.578125,13.9453125 172.804688,13.1875 172.804688,11.8984375 Z M181.835938,18 L181.835938,9.453125 L183.765625,9.453125 L183.765625,18 L181.835938,18 Z M182.796875,8.0625 C182.09375,8.0625 181.601562,7.609375 181.601562,6.9921875 C181.601562,6.375 182.09375,5.921875 182.796875,5.921875 C183.507812,5.921875 183.992188,6.375 183.992188,6.9921875 C183.992188,7.609375 183.507812,8.0625 182.796875,8.0625 Z M189.851562,16.546875 C191.203125,16.546875 191.96875,15.515625 191.96875,13.7265625 C191.96875,11.9453125 191.195312,10.90625 189.851562,10.90625 C188.5,10.90625 187.726562,11.9453125 187.726562,13.7265625 C187.726562,15.515625 188.5,16.546875 189.851562,16.546875 Z M189.851562,18.171875 C187.289062,18.171875 185.742188,16.5 185.742188,13.7265625 C185.742188,10.96875 187.3125,9.28125 189.851562,9.28125 C192.398438,9.28125 193.960938,10.9609375 193.960938,13.7265625 C193.960938,16.5 192.40625,18.171875 189.851562,18.171875 Z M195.914062,18 L195.914062,9.453125 L197.78125,9.453125 L197.78125,10.8203125 L197.914062,10.8203125 C198.320312,9.8671875 199.320312,9.28125 200.601562,9.28125 C202.507812,9.28125 203.578125,10.4296875 203.578125,12.46875 L203.578125,18 L201.648437,18 L201.648437,12.9296875 C201.648437,11.625 201.054687,10.96875 199.882812,10.96875 C198.632812,10.96875 197.851562,11.765625 197.851562,13.0234375 L197.851562,18 L195.914062,18 Z M205.679687,11.8984375 C205.679687,10.3515625 207.085937,9.28125 209.101562,9.28125 C211.132812,9.28125 212.40625,10.1796875 212.546875,11.734375 L210.726562,11.734375 C210.585937,11.1328125 210.015625,10.75 209.109375,10.75 C208.226562,10.75 207.5625,11.171875 207.5625,11.7890625 C207.5625,12.2734375 207.96875,12.5703125 208.828125,12.765625 L210.335937,13.109375 C211.96875,13.4765625 212.726562,14.1796875 212.726562,15.4375 C212.726562,17.078125 211.21875,18.171875 209.085937,18.171875 C206.953125,18.171875 205.609375,17.25 205.460937,15.6953125 L207.375,15.6953125 C207.5625,16.328125 208.164062,16.703125 209.132812,16.703125 C210.109375,16.703125 210.789062,16.2734375 210.789062,15.640625 C210.789062,15.15625 210.421875,14.8515625 209.609375,14.671875 L208.09375,14.3203125 C206.453125,13.9453125 205.679687,13.1875 205.679687,11.8984375 Z" id="User-testing-session" fill="#FFFFFF"></path>
                </g>
            </g>
            <g transform="translate(0.000000, 212.000000)">
                <rect id="Rectangle-3" fill="#1EB8C1" x="0" y="0" width="368" height="48" rx="3"></rect>
                <g id="GroupHeader" transform="translate(20.000000, 12.000000)">
                    <rect id="Rectangle" fill="#140B2F" opacity="0.100000001" x="0" y="0" width="32" height="24" rx="3"></rect>
                    <path d="M12.2304688,16.2167969 C11.0058594,16.2167969 10.0214844,15.6777344 9.44140625,14.6875 C8.97265625,13.9667969 8.73242188,12.9941406 8.73242188,11.8339844 C8.73242188,9.02734375 10.0566406,7.328125 12.2597656,7.328125 C13.8652344,7.328125 15.1132812,8.27734375 15.3535156,9.68945312 L13.6015625,9.68945312 C13.4375,9.1328125 12.9101562,8.78125 12.2480469,8.78125 C11.0878906,8.78125 10.3847656,9.90039062 10.4199219,11.6523438 L10.5253906,11.6523438 C10.9121094,10.8554688 11.6972656,10.4042969 12.6816406,10.4042969 C14.2871094,10.4042969 15.4648438,11.59375 15.4648438,13.2109375 C15.4648438,14.96875 14.1230469,16.2167969 12.2304688,16.2167969 Z M12.2128906,14.7636719 C13.0800781,14.7636719 13.7480469,14.1132812 13.7480469,13.2636719 C13.7480469,12.4023438 13.1035156,11.7695312 12.21875,11.7695312 C11.3339844,11.7695312 10.6835938,12.4023438 10.6835938,13.2460938 C10.6835938,14.1074219 11.3457031,14.7636719 12.2128906,14.7636719 Z M21.0136719,16 L21.0136719,14.5234375 L16.8769531,14.5234375 L16.8769531,12.9589844 C17.6386719,11.5234375 18.7402344,9.77734375 20.2226562,7.54492188 L22.7011719,7.54492188 L22.7011719,13.0527344 L23.8085938,13.0527344 L23.8085938,14.5234375 L22.7011719,14.5234375 L22.7011719,16 L21.0136719,16 Z M18.4648438,13.0117188 L18.4648438,13.1054688 L21.0546875,13.1054688 L21.0546875,8.921875 L20.9609375,8.921875 C20.1875,10.0761719 19.4316406,11.2597656 18.4648438,13.0117188 Z" id="64" fill="#FFFFFF"></path>
                    <path d="M44.875,14.9375 L46.84375,14.9375 C46.96875,15.9453125 47.96875,16.59375 49.3984375,16.59375 C50.7265625,16.59375 51.6875,15.9140625 51.6875,14.96875 C51.6875,14.15625 51.0703125,13.6796875 49.625,13.34375 L48.1640625,13.0078125 C46.1171875,12.546875 45.15625,11.53125 45.15625,9.8515625 C45.15625,7.8046875 46.828125,6.4453125 49.3515625,6.4453125 C51.71875,6.4453125 53.4296875,7.8046875 53.5234375,9.7421875 L51.59375,9.7421875 C51.453125,8.75 50.578125,8.125 49.34375,8.125 C48.046875,8.125 47.1875,8.75 47.1875,9.7109375 C47.1875,10.46875 47.7578125,10.9140625 49.15625,11.234375 L50.453125,11.53125 C52.7421875,12.046875 53.703125,13 53.703125,14.71875 C53.703125,16.9140625 52.0078125,18.28125 49.2734375,18.28125 C46.6875,18.28125 44.9765625,16.984375 44.875,14.9375 Z M63.3828125,9.453125 L63.3828125,18 L61.515625,18 L61.515625,16.640625 L61.3828125,16.640625 C60.96875,17.6171875 60,18.171875 58.734375,18.171875 C56.8515625,18.171875 55.6875,17.0078125 55.6875,14.984375 L55.6875,9.453125 L57.625,9.453125 L57.625,14.5234375 C57.625,15.8359375 58.2421875,16.46875 59.40625,16.46875 C60.65625,16.46875 61.4453125,15.6953125 61.4453125,14.4296875 L61.4453125,9.453125 L63.3828125,9.453125 Z M65.7578125,18 L65.7578125,9.453125 L67.625,9.453125 L67.625,10.78125 L67.7578125,10.78125 C67.9921875,9.9375 68.90625,9.3125 70,9.3125 C70.2734375,9.3125 70.609375,9.34375 70.796875,9.3984375 L70.796875,11.1953125 C70.6484375,11.140625 70.1171875,11.0859375 69.8125,11.0859375 C68.5703125,11.0859375 67.6953125,11.8671875 67.6953125,13.0625 L67.6953125,18 L65.7578125,18 Z M71.578125,9.453125 L73.65625,9.453125 L75.6328125,16.0625 L75.765625,16.0625 L77.7265625,9.453125 L79.7734375,9.453125 L76.75,18 L74.6171875,18 L71.578125,9.453125 Z M84.9921875,10.8203125 C83.8359375,10.8203125 83.0234375,11.6484375 82.9375,12.8984375 L86.9609375,12.8984375 C86.921875,11.6328125 86.15625,10.8203125 84.9921875,10.8203125 Z M86.9765625,15.6484375 L88.8125,15.6484375 C88.4453125,17.203125 87.03125,18.171875 85.015625,18.171875 C82.5,18.171875 80.984375,16.5078125 80.984375,13.7578125 C80.984375,11.0078125 82.5234375,9.28125 85,9.28125 C87.4375,9.28125 88.8984375,10.8984375 88.8984375,13.59375 L88.8984375,14.21875 L82.9296875,14.21875 L82.9296875,14.3203125 C82.9765625,15.7421875 83.796875,16.6328125 85.0703125,16.6328125 C86.03125,16.6328125 86.6953125,16.28125 86.9765625,15.6484375 Z M91.78125,21.109375 C91.6640625,21.109375 91.140625,21.1015625 91.015625,21.078125 L91.015625,19.5 C91.125,19.515625 91.4140625,19.5234375 91.546875,19.5234375 C92.3671875,19.5234375 92.828125,19.203125 93.078125,18.4140625 L93.1796875,18.0390625 L90.125,9.453125 L92.25,9.453125 L94.25,16.125 L94.3828125,16.125 L96.375,9.453125 L98.421875,9.453125 L95.3359375,18.2734375 C94.609375,20.3984375 93.6953125,21.109375 91.78125,21.109375 Z M104.351562,18 L104.351562,9.453125 L106.21875,9.453125 L106.21875,10.78125 L106.351562,10.78125 C106.585938,9.9375 107.5,9.3125 108.59375,9.3125 C108.867188,9.3125 109.203125,9.34375 109.390625,9.3984375 L109.390625,11.1953125 C109.242188,11.140625 108.710938,11.0859375 108.40625,11.0859375 C107.164062,11.0859375 106.289062,11.8671875 106.289062,13.0625 L106.289062,18 L104.351562,18 Z M114.5,10.8203125 C113.34375,10.8203125 112.53125,11.6484375 112.445312,12.8984375 L116.46875,12.8984375 C116.429688,11.6328125 115.664062,10.8203125 114.5,10.8203125 Z M116.484375,15.6484375 L118.320312,15.6484375 C117.953125,17.203125 116.539062,18.171875 114.523438,18.171875 C112.007812,18.171875 110.492188,16.5078125 110.492188,13.7578125 C110.492188,11.0078125 112.03125,9.28125 114.507812,9.28125 C116.945312,9.28125 118.40625,10.8984375 118.40625,13.59375 L118.40625,14.21875 L112.4375,14.21875 L112.4375,14.3203125 C112.484375,15.7421875 113.304688,16.6328125 114.578125,16.6328125 C115.539062,16.6328125 116.203125,16.28125 116.484375,15.6484375 Z M120.15625,11.8984375 C120.15625,10.3515625 121.5625,9.28125 123.578125,9.28125 C125.609375,9.28125 126.882812,10.1796875 127.023438,11.734375 L125.203125,11.734375 C125.0625,11.1328125 124.492188,10.75 123.585938,10.75 C122.703125,10.75 122.039062,11.171875 122.039062,11.7890625 C122.039062,12.2734375 122.445312,12.5703125 123.304688,12.765625 L124.8125,13.109375 C126.445312,13.4765625 127.203125,14.1796875 127.203125,15.4375 C127.203125,17.078125 125.695312,18.171875 123.5625,18.171875 C121.429688,18.171875 120.085938,17.25 119.9375,15.6953125 L121.851562,15.6953125 C122.039062,16.328125 122.640625,16.703125 123.609375,16.703125 C124.585938,16.703125 125.265625,16.2734375 125.265625,15.640625 C125.265625,15.15625 124.898438,14.8515625 124.085938,14.671875 L122.570312,14.3203125 C120.929688,13.9453125 120.15625,13.1875 120.15625,11.8984375 Z M133.820312,9.3125 C135.984375,9.3125 137.34375,10.984375 137.34375,13.7265625 C137.34375,16.453125 136,18.140625 133.84375,18.140625 C132.617188,18.140625 131.671875,17.609375 131.234375,16.703125 L131.101562,16.703125 L131.101562,20.734375 L129.164062,20.734375 L129.164062,9.453125 L131.03125,9.453125 L131.03125,10.8671875 L131.164062,10.8671875 C131.65625,9.8984375 132.648438,9.3125 133.820312,9.3125 Z M133.210938,16.4921875 C134.554688,16.4921875 135.351562,15.453125 135.351562,13.7265625 C135.351562,12 134.546875,10.9609375 133.21875,10.9609375 C131.898438,10.9609375 131.070312,12.0234375 131.0625,13.7265625 C131.070312,15.4375 131.890625,16.4921875 133.210938,16.4921875 Z M142.976562,16.546875 C144.328125,16.546875 145.09375,15.515625 145.09375,13.7265625 C145.09375,11.9453125 144.320312,10.90625 142.976562,10.90625 C141.625,10.90625 140.851562,11.9453125 140.851562,13.7265625 C140.851562,15.515625 141.625,16.546875 142.976562,16.546875 Z M142.976562,18.171875 C140.414062,18.171875 138.867188,16.5 138.867188,13.7265625 C138.867188,10.96875 140.4375,9.28125 142.976562,9.28125 C145.523438,9.28125 147.085938,10.9609375 147.085938,13.7265625 C147.085938,16.5 145.53125,18.171875 142.976562,18.171875 Z M149.039062,18 L149.039062,9.453125 L150.90625,9.453125 L150.90625,10.8203125 L151.039062,10.8203125 C151.445312,9.8671875 152.445312,9.28125 153.726562,9.28125 C155.632812,9.28125 156.703125,10.4296875 156.703125,12.46875 L156.703125,18 L154.773438,18 L154.773438,12.9296875 C154.773438,11.625 154.179688,10.96875 153.007812,10.96875 C151.757812,10.96875 150.976562,11.765625 150.976562,13.0234375 L150.976562,18 L149.039062,18 Z M158.804688,11.8984375 C158.804688,10.3515625 160.210938,9.28125 162.226562,9.28125 C164.257812,9.28125 165.53125,10.1796875 165.671875,11.734375 L163.851562,11.734375 C163.710938,11.1328125 163.140625,10.75 162.234375,10.75 C161.351562,10.75 160.6875,11.171875 160.6875,11.7890625 C160.6875,12.2734375 161.09375,12.5703125 161.953125,12.765625 L163.460938,13.109375 C165.09375,13.4765625 165.851562,14.1796875 165.851562,15.4375 C165.851562,17.078125 164.34375,18.171875 162.210938,18.171875 C160.078125,18.171875 158.734375,17.25 158.585938,15.6953125 L160.5,15.6953125 C160.6875,16.328125 161.289062,16.703125 162.257812,16.703125 C163.234375,16.703125 163.914062,16.2734375 163.914062,15.640625 C163.914062,15.15625 163.546875,14.8515625 162.734375,14.671875 L161.21875,14.3203125 C159.578125,13.9453125 158.804688,13.1875 158.804688,11.8984375 Z M171.398438,10.8203125 C170.242188,10.8203125 169.429688,11.6484375 169.34375,12.8984375 L173.367188,12.8984375 C173.328125,11.6328125 172.5625,10.8203125 171.398438,10.8203125 Z M173.382812,15.6484375 L175.21875,15.6484375 C174.851562,17.203125 173.4375,18.171875 171.421875,18.171875 C168.90625,18.171875 167.390625,16.5078125 167.390625,13.7578125 C167.390625,11.0078125 168.929688,9.28125 171.40625,9.28125 C173.84375,9.28125 175.304688,10.8984375 175.304688,13.59375 L175.304688,14.21875 L169.335938,14.21875 L169.335938,14.3203125 C169.382812,15.7421875 170.203125,16.6328125 171.476562,16.6328125 C172.4375,16.6328125 173.101562,16.28125 173.382812,15.6484375 Z M177.054688,11.8984375 C177.054688,10.3515625 178.460938,9.28125 180.476562,9.28125 C182.507812,9.28125 183.78125,10.1796875 183.921875,11.734375 L182.101562,11.734375 C181.960938,11.1328125 181.390625,10.75 180.484375,10.75 C179.601562,10.75 178.9375,11.171875 178.9375,11.7890625 C178.9375,12.2734375 179.34375,12.5703125 180.203125,12.765625 L181.710938,13.109375 C183.34375,13.4765625 184.101562,14.1796875 184.101562,15.4375 C184.101562,17.078125 182.59375,18.171875 180.460938,18.171875 C178.328125,18.171875 176.984375,17.25 176.835938,15.6953125 L178.75,15.6953125 C178.9375,16.328125 179.539062,16.703125 180.507812,16.703125 C181.484375,16.703125 182.164062,16.2734375 182.164062,15.640625 C182.164062,15.15625 181.796875,14.8515625 180.984375,14.671875 L179.46875,14.3203125 C177.828125,13.9453125 177.054688,13.1875 177.054688,11.8984375 Z" id="Survey-responses" fill="#FFFFFF"></path>
                </g>
            </g>
            <g transform="translate(0.000000, 84.000000)">
                <rect id="Rectangle-3" fill="#512DA8" x="0" y="0" width="368" height="48" rx="3"></rect>
                <g id="GroupHeader" transform="translate(20.000000, 12.000000)">
                    <rect id="Rectangle" fill="#512DA8" x="0" y="0" width="32" height="24" rx="3"></rect>
                    <path d="M10.9003906,16 L10.9003906,9.26757812 L10.7949219,9.26757812 L8.72070312,10.6972656 L8.72070312,9.05078125 L10.90625,7.54492188 L12.6699219,7.54492188 L12.6699219,16 L10.9003906,16 Z M18.3886719,16.2167969 C17.1640625,16.2167969 16.1796875,15.6777344 15.5996094,14.6875 C15.1308594,13.9667969 14.890625,12.9941406 14.890625,11.8339844 C14.890625,9.02734375 16.2148438,7.328125 18.4179688,7.328125 C20.0234375,7.328125 21.2714844,8.27734375 21.5117188,9.68945312 L19.7597656,9.68945312 C19.5957031,9.1328125 19.0683594,8.78125 18.40625,8.78125 C17.2460938,8.78125 16.5429688,9.90039062 16.578125,11.6523438 L16.6835938,11.6523438 C17.0703125,10.8554688 17.8554688,10.4042969 18.8398438,10.4042969 C20.4453125,10.4042969 21.6230469,11.59375 21.6230469,13.2109375 C21.6230469,14.96875 20.28125,16.2167969 18.3886719,16.2167969 Z M18.3710938,14.7636719 C19.2382812,14.7636719 19.90625,14.1132812 19.90625,13.2636719 C19.90625,12.4023438 19.2617188,11.7695312 18.3769531,11.7695312 C17.4921875,11.7695312 16.8417969,12.4023438 16.8417969,13.2460938 C16.8417969,14.1074219 17.5039062,14.7636719 18.3710938,14.7636719 Z" id="16" fill="#FFFFFF"></path>
                    <path d="M50.09375,18.28125 C46.8984375,18.28125 44.9140625,16.015625 44.9140625,12.3671875 C44.9140625,8.703125 46.890625,6.4453125 50.0859375,6.4453125 C52.6484375,6.4453125 54.625,8.1171875 54.859375,10.46875 L52.875,10.46875 C52.59375,9.1171875 51.5078125,8.2421875 50.0859375,8.2421875 C48.171875,8.2421875 46.9765625,9.8203125 46.9765625,12.359375 C46.9765625,14.90625 48.171875,16.484375 50.09375,16.484375 C51.5234375,16.484375 52.609375,15.6875 52.8828125,14.421875 L54.8671875,14.421875 C54.6015625,16.7265625 52.6953125,18.28125 50.09375,18.28125 Z M64.515625,9.453125 L64.515625,18 L62.6484375,18 L62.6484375,16.640625 L62.515625,16.640625 C62.1015625,17.6171875 61.1328125,18.171875 59.8671875,18.171875 C57.984375,18.171875 56.8203125,17.0078125 56.8203125,14.984375 L56.8203125,9.453125 L58.7578125,9.453125 L58.7578125,14.5234375 C58.7578125,15.8359375 59.375,16.46875 60.5390625,16.46875 C61.7890625,16.46875 62.578125,15.6953125 62.578125,14.4296875 L62.578125,9.453125 L64.515625,9.453125 Z M66.6953125,11.8984375 C66.6953125,10.3515625 68.1015625,9.28125 70.1171875,9.28125 C72.1484375,9.28125 73.421875,10.1796875 73.5625,11.734375 L71.7421875,11.734375 C71.6015625,11.1328125 71.03125,10.75 70.125,10.75 C69.2421875,10.75 68.578125,11.171875 68.578125,11.7890625 C68.578125,12.2734375 68.984375,12.5703125 69.84375,12.765625 L71.3515625,13.109375 C72.984375,13.4765625 73.7421875,14.1796875 73.7421875,15.4375 C73.7421875,17.078125 72.234375,18.171875 70.1015625,18.171875 C67.96875,18.171875 66.625,17.25 66.4765625,15.6953125 L68.390625,15.6953125 C68.578125,16.328125 69.1796875,16.703125 70.1484375,16.703125 C71.125,16.703125 71.8046875,16.2734375 71.8046875,15.640625 C71.8046875,15.15625 71.4375,14.8515625 70.625,14.671875 L69.109375,14.3203125 C67.46875,13.9453125 66.6953125,13.1875 66.6953125,11.8984375 Z M76.3203125,7.4140625 L78.25,7.4140625 L78.25,9.5078125 L80.125,9.5078125 L80.125,11.0546875 L78.25,11.0546875 L78.25,15.25 C78.25,16.09375 78.609375,16.46875 79.421875,16.46875 C79.6953125,16.46875 79.8359375,16.453125 80.0625,16.4296875 L80.0625,17.9453125 C79.7890625,18 79.4375,18.0390625 79.0625,18.0390625 C77.1015625,18.0390625 76.3203125,17.375 76.3203125,15.71875 L76.3203125,11.0546875 L74.9296875,11.0546875 L74.9296875,9.5078125 L76.3203125,9.5078125 L76.3203125,7.4140625 Z M85.703125,16.546875 C87.0546875,16.546875 87.8203125,15.515625 87.8203125,13.7265625 C87.8203125,11.9453125 87.046875,10.90625 85.703125,10.90625 C84.3515625,10.90625 83.578125,11.9453125 83.578125,13.7265625 C83.578125,15.515625 84.3515625,16.546875 85.703125,16.546875 Z M85.703125,18.171875 C83.140625,18.171875 81.59375,16.5 81.59375,13.7265625 C81.59375,10.96875 83.1640625,9.28125 85.703125,9.28125 C88.25,9.28125 89.8125,10.9609375 89.8125,13.7265625 C89.8125,16.5 88.2578125,18.171875 85.703125,18.171875 Z M91.765625,18 L91.765625,9.453125 L93.6328125,9.453125 L93.6328125,10.8359375 L93.765625,10.8359375 C94.1328125,9.859375 95.0078125,9.28125 96.140625,9.28125 C97.3203125,9.28125 98.140625,9.875 98.5,10.8359375 L98.6328125,10.8359375 C99.0546875,9.8984375 100.039062,9.28125 101.226562,9.28125 C102.9375,9.28125 103.96875,10.3515625 103.96875,12.125 L103.96875,18 L102.039062,18 L102.039062,12.6171875 C102.039062,11.515625 101.515625,10.96875 100.476562,10.96875 C99.46875,10.96875 98.8046875,11.703125 98.8046875,12.6796875 L98.8046875,18 L96.921875,18 L96.921875,12.4765625 C96.921875,11.5390625 96.328125,10.96875 95.375,10.96875 C94.4140625,10.96875 93.703125,11.7578125 93.703125,12.8046875 L93.703125,18 L91.765625,18 Z M109.851562,10.8203125 C108.695312,10.8203125 107.882812,11.6484375 107.796875,12.8984375 L111.820312,12.8984375 C111.78125,11.6328125 111.015625,10.8203125 109.851562,10.8203125 Z M111.835938,15.6484375 L113.671875,15.6484375 C113.304688,17.203125 111.890625,18.171875 109.875,18.171875 C107.359375,18.171875 105.84375,16.5078125 105.84375,13.7578125 C105.84375,11.0078125 107.382812,9.28125 109.859375,9.28125 C112.296875,9.28125 113.757812,10.8984375 113.757812,13.59375 L113.757812,14.21875 L107.789062,14.21875 L107.789062,14.3203125 C107.835938,15.7421875 108.65625,16.6328125 109.929688,16.6328125 C110.890625,16.6328125 111.554688,16.28125 111.835938,15.6484375 Z M115.703125,18 L115.703125,9.453125 L117.570312,9.453125 L117.570312,10.78125 L117.703125,10.78125 C117.9375,9.9375 118.851562,9.3125 119.945312,9.3125 C120.21875,9.3125 120.554688,9.34375 120.742188,9.3984375 L120.742188,11.1953125 C120.59375,11.140625 120.0625,11.0859375 119.757812,11.0859375 C118.515625,11.0859375 117.640625,11.8671875 117.640625,13.0625 L117.640625,18 L115.703125,18 Z M126.554688,18 L126.554688,9.453125 L128.484375,9.453125 L128.484375,18 L126.554688,18 Z M127.515625,8.0625 C126.8125,8.0625 126.320312,7.609375 126.320312,6.9921875 C126.320312,6.375 126.8125,5.921875 127.515625,5.921875 C128.226562,5.921875 128.710938,6.375 128.710938,6.9921875 C128.710938,7.609375 128.226562,8.0625 127.515625,8.0625 Z M130.882812,18 L130.882812,9.453125 L132.75,9.453125 L132.75,10.8203125 L132.882812,10.8203125 C133.289062,9.8671875 134.289062,9.28125 135.570312,9.28125 C137.476562,9.28125 138.546875,10.4296875 138.546875,12.46875 L138.546875,18 L136.617188,18 L136.617188,12.9296875 C136.617188,11.625 136.023438,10.96875 134.851562,10.96875 C133.601562,10.96875 132.820312,11.765625 132.820312,13.0234375 L132.820312,18 L130.882812,18 Z M141.460938,7.4140625 L143.390625,7.4140625 L143.390625,9.5078125 L145.265625,9.5078125 L145.265625,11.0546875 L143.390625,11.0546875 L143.390625,15.25 C143.390625,16.09375 143.75,16.46875 144.5625,16.46875 C144.835938,16.46875 144.976562,16.453125 145.203125,16.4296875 L145.203125,17.9453125 C144.929688,18 144.578125,18.0390625 144.203125,18.0390625 C142.242188,18.0390625 141.460938,17.375 141.460938,15.71875 L141.460938,11.0546875 L140.070312,11.0546875 L140.070312,9.5078125 L141.460938,9.5078125 L141.460938,7.4140625 Z M150.742188,10.8203125 C149.585938,10.8203125 148.773438,11.6484375 148.6875,12.8984375 L152.710938,12.8984375 C152.671875,11.6328125 151.90625,10.8203125 150.742188,10.8203125 Z M152.726562,15.6484375 L154.5625,15.6484375 C154.195312,17.203125 152.78125,18.171875 150.765625,18.171875 C148.25,18.171875 146.734375,16.5078125 146.734375,13.7578125 C146.734375,11.0078125 148.273438,9.28125 150.75,9.28125 C153.1875,9.28125 154.648438,10.8984375 154.648438,13.59375 L154.648438,14.21875 L148.679688,14.21875 L148.679688,14.3203125 C148.726562,15.7421875 149.546875,16.6328125 150.820312,16.6328125 C151.78125,16.6328125 152.445312,16.28125 152.726562,15.6484375 Z M156.59375,18 L156.59375,9.453125 L158.460938,9.453125 L158.460938,10.78125 L158.59375,10.78125 C158.828125,9.9375 159.742188,9.3125 160.835938,9.3125 C161.109375,9.3125 161.445312,9.34375 161.632812,9.3984375 L161.632812,11.1953125 C161.484375,11.140625 160.953125,11.0859375 160.648438,11.0859375 C159.40625,11.0859375 158.53125,11.8671875 158.53125,13.0625 L158.53125,18 L156.59375,18 Z M162.414062,9.453125 L164.492188,9.453125 L166.46875,16.0625 L166.601562,16.0625 L168.5625,9.453125 L170.609375,9.453125 L167.585938,18 L165.453125,18 L162.414062,9.453125 Z M172.265625,18 L172.265625,9.453125 L174.195312,9.453125 L174.195312,18 L172.265625,18 Z M173.226562,8.0625 C172.523438,8.0625 172.03125,7.609375 172.03125,6.9921875 C172.03125,6.375 172.523438,5.921875 173.226562,5.921875 C173.9375,5.921875 174.421875,6.375 174.421875,6.9921875 C174.421875,7.609375 173.9375,8.0625 173.226562,8.0625 Z M180.179688,10.8203125 C179.023438,10.8203125 178.210938,11.6484375 178.125,12.8984375 L182.148438,12.8984375 C182.109375,11.6328125 181.34375,10.8203125 180.179688,10.8203125 Z M182.164062,15.6484375 L184,15.6484375 C183.632812,17.203125 182.21875,18.171875 180.203125,18.171875 C177.6875,18.171875 176.171875,16.5078125 176.171875,13.7578125 C176.171875,11.0078125 177.710938,9.28125 180.1875,9.28125 C182.625,9.28125 184.085938,10.8984375 184.085938,13.59375 L184.085938,14.21875 L178.117188,14.21875 L178.117188,14.3203125 C178.164062,15.7421875 178.984375,16.6328125 180.257812,16.6328125 C181.21875,16.6328125 181.882812,16.28125 182.164062,15.6484375 Z M197.476562,9.453125 L195.164062,18 L193.125,18 L191.460938,11.84375 L191.328125,11.84375 L189.671875,18 L187.65625,18 L185.34375,9.453125 L187.296875,9.453125 L188.71875,15.8359375 L188.851562,15.8359375 L190.492188,9.453125 L192.34375,9.453125 L194,15.8359375 L194.132812,15.8359375 L195.546875,9.453125 L197.476562,9.453125 Z M203.429688,18 L203.429688,9.453125 L205.296875,9.453125 L205.296875,10.8203125 L205.429688,10.8203125 C205.835938,9.8671875 206.835938,9.28125 208.117188,9.28125 C210.023438,9.28125 211.09375,10.4296875 211.09375,12.46875 L211.09375,18 L209.164062,18 L209.164062,12.9296875 C209.164062,11.625 208.570312,10.96875 207.398438,10.96875 C206.148438,10.96875 205.367188,11.765625 205.367188,13.0234375 L205.367188,18 L203.429688,18 Z M217.078125,16.546875 C218.429688,16.546875 219.195312,15.515625 219.195312,13.7265625 C219.195312,11.9453125 218.421875,10.90625 217.078125,10.90625 C215.726562,10.90625 214.953125,11.9453125 214.953125,13.7265625 C214.953125,15.515625 215.726562,16.546875 217.078125,16.546875 Z M217.078125,18.171875 C214.515625,18.171875 212.96875,16.5 212.96875,13.7265625 C212.96875,10.96875 214.539062,9.28125 217.078125,9.28125 C219.625,9.28125 221.1875,10.9609375 221.1875,13.7265625 C221.1875,16.5 219.632812,18.171875 217.078125,18.171875 Z M223.757812,7.4140625 L225.6875,7.4140625 L225.6875,9.5078125 L227.5625,9.5078125 L227.5625,11.0546875 L225.6875,11.0546875 L225.6875,15.25 C225.6875,16.09375 226.046875,16.46875 226.859375,16.46875 C227.132812,16.46875 227.273438,16.453125 227.5,16.4296875 L227.5,17.9453125 C227.226562,18 226.875,18.0390625 226.5,18.0390625 C224.539062,18.0390625 223.757812,17.375 223.757812,15.71875 L223.757812,11.0546875 L222.367188,11.0546875 L222.367188,9.5078125 L223.757812,9.5078125 L223.757812,7.4140625 Z M233.039062,10.8203125 C231.882812,10.8203125 231.070312,11.6484375 230.984375,12.8984375 L235.007812,12.8984375 C234.96875,11.6328125 234.203125,10.8203125 233.039062,10.8203125 Z M235.023438,15.6484375 L236.859375,15.6484375 C236.492188,17.203125 235.078125,18.171875 233.0625,18.171875 C230.546875,18.171875 229.03125,16.5078125 229.03125,13.7578125 C229.03125,11.0078125 230.570312,9.28125 233.046875,9.28125 C235.484375,9.28125 236.945312,10.8984375 236.945312,13.59375 L236.945312,14.21875 L230.976562,14.21875 L230.976562,14.3203125 C231.023438,15.7421875 231.84375,16.6328125 233.117188,16.6328125 C234.078125,16.6328125 234.742188,16.28125 235.023438,15.6484375 Z M238.695312,11.8984375 C238.695312,10.3515625 240.101562,9.28125 242.117188,9.28125 C244.148438,9.28125 245.421875,10.1796875 245.5625,11.734375 L243.742188,11.734375 C243.601562,11.1328125 243.03125,10.75 242.125,10.75 C241.242188,10.75 240.578125,11.171875 240.578125,11.7890625 C240.578125,12.2734375 240.984375,12.5703125 241.84375,12.765625 L243.351562,13.109375 C244.984375,13.4765625 245.742188,14.1796875 245.742188,15.4375 C245.742188,17.078125 244.234375,18.171875 242.101562,18.171875 C239.96875,18.171875 238.625,17.25 238.476562,15.6953125 L240.390625,15.6953125 C240.578125,16.328125 241.179688,16.703125 242.148438,16.703125 C243.125,16.703125 243.804688,16.2734375 243.804688,15.640625 C243.804688,15.15625 243.4375,14.8515625 242.625,14.671875 L241.109375,14.3203125 C239.46875,13.9453125 238.695312,13.1875 238.695312,11.8984375 Z" id="Customer-interview-n" fill="#FFFFFF"></path>
                </g>
            </g>
            <path d="M6.2578125,0.4453125 C9.53125,0.4453125 11.578125,2.71875 11.578125,6.359375 C11.578125,9.9921875 9.546875,12.28125 6.2578125,12.28125 C2.9453125,12.28125 0.9140625,10 0.9140625,6.359375 C0.9140625,2.71875 2.984375,0.4453125 6.2578125,0.4453125 Z M6.2578125,2.234375 C4.25,2.234375 2.9765625,3.8359375 2.9765625,6.359375 C2.9765625,8.875 4.21875,10.4921875 6.2578125,10.4921875 C8.265625,10.4921875 9.515625,8.875 9.515625,6.359375 C9.515625,3.8359375 8.2578125,2.234375 6.2578125,2.234375 Z M21.0625,6.328125 L19.21875,6.328125 C19.0390625,5.5 18.3984375,4.90625 17.3359375,4.90625 C16.0078125,4.90625 15.21875,5.9296875 15.21875,7.703125 C15.21875,9.5 16.015625,10.546875 17.3359375,10.546875 C18.34375,10.546875 19.015625,10.0703125 19.21875,9.1796875 L21.0625,9.1796875 C20.8515625,10.96875 19.5078125,12.171875 17.34375,12.171875 C14.7734375,12.171875 13.2578125,10.515625 13.2578125,7.703125 C13.2578125,4.9296875 14.765625,3.28125 17.3359375,3.28125 C19.53125,3.28125 20.859375,4.53125 21.0625,6.328125 Z M23.53125,1.4140625 L25.4609375,1.4140625 L25.4609375,3.5078125 L27.3359375,3.5078125 L27.3359375,5.0546875 L25.4609375,5.0546875 L25.4609375,9.25 C25.4609375,10.09375 25.8203125,10.46875 26.6328125,10.46875 C26.90625,10.46875 27.046875,10.453125 27.2734375,10.4296875 L27.2734375,11.9453125 C27,12 26.6484375,12.0390625 26.2734375,12.0390625 C24.3125,12.0390625 23.53125,11.375 23.53125,9.71875 L23.53125,5.0546875 L22.140625,5.0546875 L22.140625,3.5078125 L23.53125,3.5078125 L23.53125,1.4140625 Z M32.9140625,10.546875 C34.265625,10.546875 35.03125,9.515625 35.03125,7.7265625 C35.03125,5.9453125 34.2578125,4.90625 32.9140625,4.90625 C31.5625,4.90625 30.7890625,5.9453125 30.7890625,7.7265625 C30.7890625,9.515625 31.5625,10.546875 32.9140625,10.546875 Z M32.9140625,12.171875 C30.3515625,12.171875 28.8046875,10.5 28.8046875,7.7265625 C28.8046875,4.96875 30.375,3.28125 32.9140625,3.28125 C35.4609375,3.28125 37.0234375,4.9609375 37.0234375,7.7265625 C37.0234375,10.5 35.46875,12.171875 32.9140625,12.171875 Z M43.7265625,12.140625 C42.53125,12.140625 41.5390625,11.5859375 41.0546875,10.6484375 L40.921875,10.6484375 L40.921875,12 L39.0546875,12 L39.0546875,0.1484375 L40.9921875,0.1484375 L40.9921875,4.8125 L41.125,4.8125 C41.5703125,3.8828125 42.5546875,3.3125 43.7265625,3.3125 C45.890625,3.3125 47.234375,4.9921875 47.234375,7.7265625 C47.234375,10.4453125 45.8828125,12.140625 43.7265625,12.140625 Z M43.1171875,4.9609375 C41.796875,4.9609375 40.9609375,6.0234375 40.9609375,7.7265625 C40.9609375,9.4296875 41.7890625,10.4921875 43.1171875,10.4921875 C44.4453125,10.4921875 45.2421875,9.4453125 45.2421875,7.7265625 C45.2421875,6.0078125 44.4375,4.9609375 43.1171875,4.9609375 Z M52.765625,4.8203125 C51.609375,4.8203125 50.796875,5.6484375 50.7109375,6.8984375 L54.734375,6.8984375 C54.6953125,5.6328125 53.9296875,4.8203125 52.765625,4.8203125 Z M54.75,9.6484375 L56.5859375,9.6484375 C56.21875,11.203125 54.8046875,12.171875 52.7890625,12.171875 C50.2734375,12.171875 48.7578125,10.5078125 48.7578125,7.7578125 C48.7578125,5.0078125 50.296875,3.28125 52.7734375,3.28125 C55.2109375,3.28125 56.671875,4.8984375 56.671875,7.59375 L56.671875,8.21875 L50.703125,8.21875 L50.703125,8.3203125 C50.75,9.7421875 51.5703125,10.6328125 52.84375,10.6328125 C53.8046875,10.6328125 54.46875,10.28125 54.75,9.6484375 Z M58.6171875,12 L58.6171875,3.453125 L60.484375,3.453125 L60.484375,4.78125 L60.6171875,4.78125 C60.8515625,3.9375 61.765625,3.3125 62.859375,3.3125 C63.1328125,3.3125 63.46875,3.34375 63.65625,3.3984375 L63.65625,5.1953125 C63.5078125,5.140625 62.9765625,5.0859375 62.671875,5.0859375 C61.4296875,5.0859375 60.5546875,5.8671875 60.5546875,7.0625 L60.5546875,12 L58.6171875,12 Z M74.1015625,3.3125 C76.265625,3.3125 77.625,4.984375 77.625,7.7265625 C77.625,10.453125 76.28125,12.140625 74.125,12.140625 C72.8984375,12.140625 71.953125,11.609375 71.515625,10.703125 L71.3828125,10.703125 L71.3828125,14.734375 L69.4453125,14.734375 L69.4453125,3.453125 L71.3125,3.453125 L71.3125,4.8671875 L71.4453125,4.8671875 C71.9375,3.8984375 72.9296875,3.3125 74.1015625,3.3125 Z M73.4921875,10.4921875 C74.8359375,10.4921875 75.6328125,9.453125 75.6328125,7.7265625 C75.6328125,6 74.828125,4.9609375 73.5,4.9609375 C72.1796875,4.9609375 71.3515625,6.0234375 71.34375,7.7265625 C71.3515625,9.4375 72.171875,10.4921875 73.4921875,10.4921875 Z M79.5703125,12 L79.5703125,3.453125 L81.4375,3.453125 L81.4375,4.78125 L81.5703125,4.78125 C81.8046875,3.9375 82.71875,3.3125 83.8125,3.3125 C84.0859375,3.3125 84.421875,3.34375 84.609375,3.3984375 L84.609375,5.1953125 C84.4609375,5.140625 83.9296875,5.0859375 83.625,5.0859375 C82.3828125,5.0859375 81.5078125,5.8671875 81.5078125,7.0625 L81.5078125,12 L79.5703125,12 Z M89.8203125,10.546875 C91.171875,10.546875 91.9375,9.515625 91.9375,7.7265625 C91.9375,5.9453125 91.1640625,4.90625 89.8203125,4.90625 C88.46875,4.90625 87.6953125,5.9453125 87.6953125,7.7265625 C87.6953125,9.515625 88.46875,10.546875 89.8203125,10.546875 Z M89.8203125,12.171875 C87.2578125,12.171875 85.7109375,10.5 85.7109375,7.7265625 C85.7109375,4.96875 87.28125,3.28125 89.8203125,3.28125 C92.3671875,3.28125 93.9296875,4.9609375 93.9296875,7.7265625 C93.9296875,10.5 92.375,12.171875 89.8203125,12.171875 Z M98.9765625,12.140625 C96.8125,12.140625 95.4609375,10.4375 95.4609375,7.71875 C95.4609375,5.015625 96.8203125,3.3125 98.9765625,3.3125 C100.148438,3.3125 101.117188,3.875 101.570313,4.8125 L101.703125,4.8125 L101.703125,0.1484375 L103.640625,0.1484375 L103.640625,12 L101.765625,12 L101.765625,10.6484375 L101.632813,10.6484375 C101.148438,11.5859375 100.164063,12.140625 98.9765625,12.140625 Z M99.578125,4.9609375 C98.2578125,4.9609375 97.4453125,6.0078125 97.4453125,7.7265625 C97.4453125,9.453125 98.25,10.4921875 99.578125,10.4921875 C100.914063,10.4921875 101.726563,9.4453125 101.726563,7.7265625 C101.726563,6.0234375 100.90625,4.9609375 99.578125,4.9609375 Z M113.703125,3.453125 L113.703125,12 L111.835938,12 L111.835938,10.640625 L111.703125,10.640625 C111.289063,11.6171875 110.320313,12.171875 109.054688,12.171875 C107.171875,12.171875 106.007813,11.0078125 106.007813,8.984375 L106.007813,3.453125 L107.945313,3.453125 L107.945313,8.5234375 C107.945313,9.8359375 108.5625,10.46875 109.726563,10.46875 C110.976563,10.46875 111.765625,9.6953125 111.765625,8.4296875 L111.765625,3.453125 L113.703125,3.453125 Z M123.460938,6.328125 L121.617188,6.328125 C121.4375,5.5 120.796875,4.90625 119.734375,4.90625 C118.40625,4.90625 117.617188,5.9296875 117.617188,7.703125 C117.617188,9.5 118.414062,10.546875 119.734375,10.546875 C120.742188,10.546875 121.414062,10.0703125 121.617188,9.1796875 L123.460938,9.1796875 C123.25,10.96875 121.90625,12.171875 119.742188,12.171875 C117.171875,12.171875 115.65625,10.515625 115.65625,7.703125 C115.65625,4.9296875 117.164062,3.28125 119.734375,3.28125 C121.929688,3.28125 123.257812,4.53125 123.460938,6.328125 Z M125.929688,1.4140625 L127.859375,1.4140625 L127.859375,3.5078125 L129.734375,3.5078125 L129.734375,5.0546875 L127.859375,5.0546875 L127.859375,9.25 C127.859375,10.09375 128.21875,10.46875 129.03125,10.46875 C129.304688,10.46875 129.445313,10.453125 129.671875,10.4296875 L129.671875,11.9453125 C129.398438,12 129.046875,12.0390625 128.671875,12.0390625 C126.710938,12.0390625 125.929688,11.375 125.929688,9.71875 L125.929688,5.0546875 L124.539063,5.0546875 L124.539063,3.5078125 L125.929688,3.5078125 L125.929688,1.4140625 Z M135.890625,12 L135.890625,3.453125 L137.757812,3.453125 L137.757812,4.78125 L137.890625,4.78125 C138.125,3.9375 139.039062,3.3125 140.132812,3.3125 C140.40625,3.3125 140.742188,3.34375 140.929688,3.3984375 L140.929688,5.1953125 C140.78125,5.140625 140.25,5.0859375 139.945312,5.0859375 C138.703125,5.0859375 137.828125,5.8671875 137.828125,7.0625 L137.828125,12 L135.890625,12 Z M146.039062,4.8203125 C144.882812,4.8203125 144.070312,5.6484375 143.984375,6.8984375 L148.007812,6.8984375 C147.96875,5.6328125 147.203125,4.8203125 146.039062,4.8203125 Z M148.023438,9.6484375 L149.859375,9.6484375 C149.492188,11.203125 148.078125,12.171875 146.0625,12.171875 C143.546875,12.171875 142.03125,10.5078125 142.03125,7.7578125 C142.03125,5.0078125 143.570312,3.28125 146.046875,3.28125 C148.484375,3.28125 149.945312,4.8984375 149.945312,7.59375 L149.945312,8.21875 L143.976562,8.21875 L143.976562,8.3203125 C144.023438,9.7421875 144.84375,10.6328125 146.117188,10.6328125 C147.078125,10.6328125 147.742188,10.28125 148.023438,9.6484375 Z M151.695312,5.8984375 C151.695312,4.3515625 153.101562,3.28125 155.117188,3.28125 C157.148438,3.28125 158.421875,4.1796875 158.5625,5.734375 L156.742188,5.734375 C156.601562,5.1328125 156.03125,4.75 155.125,4.75 C154.242188,4.75 153.578125,5.171875 153.578125,5.7890625 C153.578125,6.2734375 153.984375,6.5703125 154.84375,6.765625 L156.351562,7.109375 C157.984375,7.4765625 158.742188,8.1796875 158.742188,9.4375 C158.742188,11.078125 157.234375,12.171875 155.101562,12.171875 C152.96875,12.171875 151.625,11.25 151.476562,9.6953125 L153.390625,9.6953125 C153.578125,10.328125 154.179688,10.703125 155.148438,10.703125 C156.125,10.703125 156.804688,10.2734375 156.804688,9.640625 C156.804688,9.15625 156.4375,8.8515625 155.625,8.671875 L154.109375,8.3203125 C152.46875,7.9453125 151.695312,7.1875 151.695312,5.8984375 Z M164.289063,4.8203125 C163.132813,4.8203125 162.320313,5.6484375 162.234375,6.8984375 L166.257813,6.8984375 C166.21875,5.6328125 165.453125,4.8203125 164.289063,4.8203125 Z M166.273438,9.6484375 L168.109375,9.6484375 C167.742188,11.203125 166.328125,12.171875 164.3125,12.171875 C161.796875,12.171875 160.28125,10.5078125 160.28125,7.7578125 C160.28125,5.0078125 161.820312,3.28125 164.296875,3.28125 C166.734375,3.28125 168.195312,4.8984375 168.195312,7.59375 L168.195312,8.21875 L162.226562,8.21875 L162.226562,8.3203125 C162.273438,9.7421875 163.09375,10.6328125 164.367188,10.6328125 C165.328125,10.6328125 165.992188,10.28125 166.273438,9.6484375 Z M173.0625,10.6171875 C174.234375,10.6171875 175.109375,9.859375 175.109375,8.8671875 L175.109375,8.1875 L173.179688,8.3125 C172.09375,8.3828125 171.585938,8.7734375 171.585938,9.46875 C171.585938,10.1875 172.203125,10.6171875 173.0625,10.6171875 Z M172.492188,12.140625 C170.84375,12.140625 169.664063,11.140625 169.664063,9.578125 C169.664063,8.03125 170.828125,7.140625 172.90625,7.015625 L175.109375,6.8828125 L175.109375,6.1640625 C175.109375,5.328125 174.546875,4.859375 173.5,4.859375 C172.609375,4.859375 172,5.171875 171.820313,5.75 L169.992188,5.75 C170.148438,4.2421875 171.5625,3.28125 173.59375,3.28125 C175.789063,3.28125 177.023438,4.3515625 177.023438,6.1640625 L177.023438,12 L175.15625,12 L175.15625,10.828125 L175.023438,10.828125 C174.546875,11.65625 173.609375,12.140625 172.492188,12.140625 Z M179.351562,12 L179.351562,3.453125 L181.21875,3.453125 L181.21875,4.78125 L181.351562,4.78125 C181.585938,3.9375 182.5,3.3125 183.59375,3.3125 C183.867188,3.3125 184.203125,3.34375 184.390625,3.3984375 L184.390625,5.1953125 C184.242188,5.140625 183.710938,5.0859375 183.40625,5.0859375 C182.164062,5.0859375 181.289062,5.8671875 181.289062,7.0625 L181.289062,12 L179.351562,12 Z M193.296875,6.328125 L191.453125,6.328125 C191.273438,5.5 190.632813,4.90625 189.570313,4.90625 C188.242188,4.90625 187.453125,5.9296875 187.453125,7.703125 C187.453125,9.5 188.25,10.546875 189.570313,10.546875 C190.578125,10.546875 191.25,10.0703125 191.453125,9.1796875 L193.296875,9.1796875 C193.085938,10.96875 191.742188,12.171875 189.578125,12.171875 C187.007813,12.171875 185.492188,10.515625 185.492188,7.703125 C185.492188,4.9296875 187,3.28125 189.570313,3.28125 C191.765625,3.28125 193.09375,4.53125 193.296875,6.328125 Z M195.226563,12 L195.226563,0.1484375 L197.132813,0.1484375 L197.132813,4.8359375 L197.273438,4.8359375 C197.679688,3.875 198.6875,3.296875 199.960938,3.296875 C201.875,3.296875 202.984375,4.453125 202.984375,6.484375 L202.984375,12 L201.054688,12 L201.054688,6.9453125 C201.054688,5.6484375 200.429688,4.984375 199.242188,4.984375 C197.96875,4.984375 197.164063,5.8125 197.164063,7.0390625 L197.164063,12 L195.226563,12 Z" id="October-product-rese" fill="#24124D"></path>
        </g>
    </g>
</svg>