<?xml version="1.0" encoding="UTF-8"?>
<svg width="400px" height="320px" viewBox="0 0 400 320" version="1.1" xmlns="http://www.w3.org/2000/svg" xmlns:xlink="http://www.w3.org/1999/xlink">
    <!-- Generator: Sketch 51 (57462) - http://www.bohemiancoding.com/sketch -->
    <title>snippet/notes</title>
    <desc>Created with Sketch.</desc>
    <defs></defs>
    <g id="snippet/notes" stroke="none" stroke-width="1" fill="none" fill-rule="evenodd">
        <g id="Group" transform="translate(16.000000, 36.000000)">
            <g transform="translate(0.000000, 148.000000)">
                <rect id="Rectangle-3" fill="#5182F8" x="0" y="0" width="368" height="48" rx="4"></rect>
                <g id="GroupHeader" transform="translate(0.000000, 17.000000)" fill="#FFFFFF">
                    <path d="M18.0078125,1.7265625 L18.0078125,8.9296875 C18.0078125,10.453125 18.9609375,11.4765625 20.6328125,11.4765625 C22.3046875,11.4765625 23.25,10.453125 23.25,8.9296875 L23.25,1.7265625 L25.265625,1.7265625 L25.265625,9.1171875 C25.265625,11.578125 23.484375,13.28125 20.6328125,13.28125 C17.78125,13.28125 16,11.578125 16,9.1171875 L16,1.7265625 L18.0078125,1.7265625 Z M27.671875,6.8984375 C27.671875,5.3515625 29.078125,4.28125 31.09375,4.28125 C33.125,4.28125 34.3984375,5.1796875 34.5390625,6.734375 L32.71875,6.734375 C32.578125,6.1328125 32.0078125,5.75 31.1015625,5.75 C30.21875,5.75 29.5546875,6.171875 29.5546875,6.7890625 C29.5546875,7.2734375 29.9609375,7.5703125 30.8203125,7.765625 L32.328125,8.109375 C33.9609375,8.4765625 34.71875,9.1796875 34.71875,10.4375 C34.71875,12.078125 33.2109375,13.171875 31.078125,13.171875 C28.9453125,13.171875 27.6015625,12.25 27.453125,10.6953125 L29.3671875,10.6953125 C29.5546875,11.328125 30.15625,11.703125 31.125,11.703125 C32.1015625,11.703125 32.78125,11.2734375 32.78125,10.640625 C32.78125,10.15625 32.4140625,9.8515625 31.6015625,9.671875 L30.0859375,9.3203125 C28.4453125,8.9453125 27.671875,8.1875 27.671875,6.8984375 Z M40.265625,5.8203125 C39.109375,5.8203125 38.296875,6.6484375 38.2109375,7.8984375 L42.234375,7.8984375 C42.1953125,6.6328125 41.4296875,5.8203125 40.265625,5.8203125 Z M42.25,10.6484375 L44.0859375,10.6484375 C43.71875,12.203125 42.3046875,13.171875 40.2890625,13.171875 C37.7734375,13.171875 36.2578125,11.5078125 36.2578125,8.7578125 C36.2578125,6.0078125 37.796875,4.28125 40.2734375,4.28125 C42.7109375,4.28125 44.171875,5.8984375 44.171875,8.59375 L44.171875,9.21875 L38.203125,9.21875 L38.203125,9.3203125 C38.25,10.7421875 39.0703125,11.6328125 40.34375,11.6328125 C41.3046875,11.6328125 41.96875,11.28125 42.25,10.6484375 Z M46.1171875,13 L46.1171875,4.453125 L47.984375,4.453125 L47.984375,5.78125 L48.1171875,5.78125 C48.3515625,4.9375 49.265625,4.3125 50.359375,4.3125 C50.6328125,4.3125 50.96875,4.34375 51.15625,4.3984375 L51.15625,6.1953125 C51.0078125,6.140625 50.4765625,6.0859375 50.171875,6.0859375 C48.9296875,6.0859375 48.0546875,6.8671875 48.0546875,8.0625 L48.0546875,13 L46.1171875,13 Z M57.5625,2.4140625 L59.4921875,2.4140625 L59.4921875,4.5078125 L61.3671875,4.5078125 L61.3671875,6.0546875 L59.4921875,6.0546875 L59.4921875,10.25 C59.4921875,11.09375 59.8515625,11.46875 60.6640625,11.46875 C60.9375,11.46875 61.078125,11.453125 61.3046875,11.4296875 L61.3046875,12.9453125 C61.03125,13 60.6796875,13.0390625 60.3046875,13.0390625 C58.34375,13.0390625 57.5625,12.375 57.5625,10.71875 L57.5625,6.0546875 L56.171875,6.0546875 L56.171875,4.5078125 L57.5625,4.5078125 L57.5625,2.4140625 Z M66.84375,5.8203125 C65.6875,5.8203125 64.875,6.6484375 64.7890625,7.8984375 L68.8125,7.8984375 C68.7734375,6.6328125 68.0078125,5.8203125 66.84375,5.8203125 Z M68.828125,10.6484375 L70.6640625,10.6484375 C70.296875,12.203125 68.8828125,13.171875 66.8671875,13.171875 C64.3515625,13.171875 62.8359375,11.5078125 62.8359375,8.7578125 C62.8359375,6.0078125 64.375,4.28125 66.8515625,4.28125 C69.2890625,4.28125 70.75,5.8984375 70.75,8.59375 L70.75,9.21875 L64.78125,9.21875 L64.78125,9.3203125 C64.828125,10.7421875 65.6484375,11.6328125 66.921875,11.6328125 C67.8828125,11.6328125 68.546875,11.28125 68.828125,10.6484375 Z M72.5,6.8984375 C72.5,5.3515625 73.90625,4.28125 75.921875,4.28125 C77.953125,4.28125 79.2265625,5.1796875 79.3671875,6.734375 L77.546875,6.734375 C77.40625,6.1328125 76.8359375,5.75 75.9296875,5.75 C75.046875,5.75 74.3828125,6.171875 74.3828125,6.7890625 C74.3828125,7.2734375 74.7890625,7.5703125 75.6484375,7.765625 L77.15625,8.109375 C78.7890625,8.4765625 79.546875,9.1796875 79.546875,10.4375 C79.546875,12.078125 78.0390625,13.171875 75.90625,13.171875 C73.7734375,13.171875 72.4296875,12.25 72.28125,10.6953125 L74.1953125,10.6953125 C74.3828125,11.328125 74.984375,11.703125 75.953125,11.703125 C76.9296875,11.703125 77.609375,11.2734375 77.609375,10.640625 C77.609375,10.15625 77.2421875,9.8515625 76.4296875,9.671875 L74.9140625,9.3203125 C73.2734375,8.9453125 72.5,8.1875 72.5,6.8984375 Z M82.125,2.4140625 L84.0546875,2.4140625 L84.0546875,4.5078125 L85.9296875,4.5078125 L85.9296875,6.0546875 L84.0546875,6.0546875 L84.0546875,10.25 C84.0546875,11.09375 84.4140625,11.46875 85.2265625,11.46875 C85.5,11.46875 85.640625,11.453125 85.8671875,11.4296875 L85.8671875,12.9453125 C85.59375,13 85.2421875,13.0390625 84.8671875,13.0390625 C82.90625,13.0390625 82.125,12.375 82.125,10.71875 L82.125,6.0546875 L80.734375,6.0546875 L80.734375,4.5078125 L82.125,4.5078125 L82.125,2.4140625 Z M87.84375,13 L87.84375,4.453125 L89.7734375,4.453125 L89.7734375,13 L87.84375,13 Z M88.8046875,3.0625 C88.1015625,3.0625 87.609375,2.609375 87.609375,1.9921875 C87.609375,1.375 88.1015625,0.921875 88.8046875,0.921875 C89.515625,0.921875 90,1.375 90,1.9921875 C90,2.609375 89.515625,3.0625 88.8046875,3.0625 Z M92.171875,13 L92.171875,4.453125 L94.0390625,4.453125 L94.0390625,5.8203125 L94.171875,5.8203125 C94.578125,4.8671875 95.578125,4.28125 96.859375,4.28125 C98.765625,4.28125 99.8359375,5.4296875 99.8359375,7.46875 L99.8359375,13 L97.90625,13 L97.90625,7.9296875 C97.90625,6.625 97.3125,5.96875 96.140625,5.96875 C94.890625,5.96875 94.109375,6.765625 94.109375,8.0234375 L94.109375,13 L92.171875,13 Z M107.96875,8.6328125 C107.96875,7 107.148438,5.9609375 105.804688,5.9609375 C104.453125,5.9609375 103.6875,7 103.6875,8.6328125 C103.6875,10.265625 104.453125,11.296875 105.804688,11.296875 C107.15625,11.296875 107.96875,10.265625 107.96875,8.6328125 Z M105.804688,16.25 C103.609375,16.25 102.171875,15.28125 102.015625,13.8125 L103.960938,13.8125 C104.085938,14.3984375 104.773438,14.7734375 105.835938,14.7734375 C107.164062,14.7734375 107.9375,14.1484375 107.9375,13.078125 L107.9375,11.4609375 L107.804688,11.4609375 C107.3125,12.375 106.382812,12.875 105.195312,12.875 C103.039062,12.875 101.695312,11.203125 101.695312,8.6328125 C101.695312,6.015625 103.046875,4.3125 105.226562,4.3125 C106.390625,4.3125 107.40625,4.890625 107.875,5.8203125 L108.007812,5.8203125 L108.007812,4.453125 L109.875,4.453125 L109.875,13.03125 C109.875,15.0078125 108.296875,16.25 105.804688,16.25 Z M116.320312,6.8984375 C116.320312,5.3515625 117.726562,4.28125 119.742188,4.28125 C121.773438,4.28125 123.046875,5.1796875 123.1875,6.734375 L121.367188,6.734375 C121.226562,6.1328125 120.65625,5.75 119.75,5.75 C118.867188,5.75 118.203125,6.171875 118.203125,6.7890625 C118.203125,7.2734375 118.609375,7.5703125 119.46875,7.765625 L120.976562,8.109375 C122.609375,8.4765625 123.367188,9.1796875 123.367188,10.4375 C123.367188,12.078125 121.859375,13.171875 119.726562,13.171875 C117.59375,13.171875 116.25,12.25 116.101562,10.6953125 L118.015625,10.6953125 C118.203125,11.328125 118.804688,11.703125 119.773438,11.703125 C120.75,11.703125 121.429688,11.2734375 121.429688,10.640625 C121.429688,10.15625 121.0625,9.8515625 120.25,9.671875 L118.734375,9.3203125 C117.09375,8.9453125 116.320312,8.1875 116.320312,6.8984375 Z M128.914062,5.8203125 C127.757812,5.8203125 126.945312,6.6484375 126.859375,7.8984375 L130.882812,7.8984375 C130.84375,6.6328125 130.078125,5.8203125 128.914062,5.8203125 Z M130.898438,10.6484375 L132.734375,10.6484375 C132.367188,12.203125 130.953125,13.171875 128.9375,13.171875 C126.421875,13.171875 124.90625,11.5078125 124.90625,8.7578125 C124.90625,6.0078125 126.445312,4.28125 128.921875,4.28125 C131.359375,4.28125 132.820312,5.8984375 132.820312,8.59375 L132.820312,9.21875 L126.851562,9.21875 L126.851562,9.3203125 C126.898438,10.7421875 127.71875,11.6328125 128.992188,11.6328125 C129.953125,11.6328125 130.617188,11.28125 130.898438,10.6484375 Z M134.570312,6.8984375 C134.570312,5.3515625 135.976562,4.28125 137.992188,4.28125 C140.023438,4.28125 141.296875,5.1796875 141.4375,6.734375 L139.617188,6.734375 C139.476562,6.1328125 138.90625,5.75 138,5.75 C137.117188,5.75 136.453125,6.171875 136.453125,6.7890625 C136.453125,7.2734375 136.859375,7.5703125 137.71875,7.765625 L139.226562,8.109375 C140.859375,8.4765625 141.617188,9.1796875 141.617188,10.4375 C141.617188,12.078125 140.109375,13.171875 137.976562,13.171875 C135.84375,13.171875 134.5,12.25 134.351562,10.6953125 L136.265625,10.6953125 C136.453125,11.328125 137.054688,11.703125 138.023438,11.703125 C139,11.703125 139.679688,11.2734375 139.679688,10.640625 C139.679688,10.15625 139.3125,9.8515625 138.5,9.671875 L136.984375,9.3203125 C135.34375,8.9453125 134.570312,8.1875 134.570312,6.8984375 Z M143.382812,6.8984375 C143.382812,5.3515625 144.789062,4.28125 146.804688,4.28125 C148.835938,4.28125 150.109375,5.1796875 150.25,6.734375 L148.429688,6.734375 C148.289062,6.1328125 147.71875,5.75 146.8125,5.75 C145.929688,5.75 145.265625,6.171875 145.265625,6.7890625 C145.265625,7.2734375 145.671875,7.5703125 146.53125,7.765625 L148.039062,8.109375 C149.671875,8.4765625 150.429688,9.1796875 150.429688,10.4375 C150.429688,12.078125 148.921875,13.171875 146.789062,13.171875 C144.65625,13.171875 143.3125,12.25 143.164062,10.6953125 L145.078125,10.6953125 C145.265625,11.328125 145.867188,11.703125 146.835938,11.703125 C147.8125,11.703125 148.492188,11.2734375 148.492188,10.640625 C148.492188,10.15625 148.125,9.8515625 147.3125,9.671875 L145.796875,9.3203125 C144.15625,8.9453125 143.382812,8.1875 143.382812,6.8984375 Z M152.414062,13 L152.414062,4.453125 L154.34375,4.453125 L154.34375,13 L152.414062,13 Z M153.375,3.0625 C152.671875,3.0625 152.179688,2.609375 152.179688,1.9921875 C152.179688,1.375 152.671875,0.921875 153.375,0.921875 C154.085938,0.921875 154.570312,1.375 154.570312,1.9921875 C154.570312,2.609375 154.085938,3.0625 153.375,3.0625 Z M160.429688,11.546875 C161.78125,11.546875 162.546875,10.515625 162.546875,8.7265625 C162.546875,6.9453125 161.773438,5.90625 160.429688,5.90625 C159.078125,5.90625 158.304688,6.9453125 158.304688,8.7265625 C158.304688,10.515625 159.078125,11.546875 160.429688,11.546875 Z M160.429688,13.171875 C157.867188,13.171875 156.320312,11.5 156.320312,8.7265625 C156.320312,5.96875 157.890625,4.28125 160.429688,4.28125 C162.976562,4.28125 164.539062,5.9609375 164.539062,8.7265625 C164.539062,11.5 162.984375,13.171875 160.429688,13.171875 Z M166.492188,13 L166.492188,4.453125 L168.359375,4.453125 L168.359375,5.8203125 L168.492188,5.8203125 C168.898438,4.8671875 169.898438,4.28125 171.179688,4.28125 C173.085938,4.28125 174.15625,5.4296875 174.15625,7.46875 L174.15625,13 L172.226562,13 L172.226562,7.9296875 C172.226562,6.625 171.632812,5.96875 170.460938,5.96875 C169.210938,5.96875 168.429688,6.765625 168.429688,8.0234375 L168.429688,13 L166.492188,13 Z M176.257812,6.8984375 C176.257812,5.3515625 177.664062,4.28125 179.679688,4.28125 C181.710938,4.28125 182.984375,5.1796875 183.125,6.734375 L181.304688,6.734375 C181.164062,6.1328125 180.59375,5.75 179.6875,5.75 C178.804688,5.75 178.140625,6.171875 178.140625,6.7890625 C178.140625,7.2734375 178.546875,7.5703125 179.40625,7.765625 L180.914062,8.109375 C182.546875,8.4765625 183.304688,9.1796875 183.304688,10.4375 C183.304688,12.078125 181.796875,13.171875 179.664062,13.171875 C177.53125,13.171875 176.1875,12.25 176.039062,10.6953125 L177.953125,10.6953125 C178.140625,11.328125 178.742188,11.703125 179.710938,11.703125 C180.6875,11.703125 181.367188,11.2734375 181.367188,10.640625 C181.367188,10.15625 181,9.8515625 180.1875,9.671875 L178.671875,9.3203125 C177.03125,8.9453125 176.257812,8.1875 176.257812,6.8984375 Z" id="User-testing-session"></path>
                </g>
            </g>
            <g transform="translate(0.000000, 212.000000)">
                <rect id="Rectangle-3" fill="#1EB8C1" x="0" y="0" width="368" height="48" rx="4"></rect>
                <g id="GroupHeader" transform="translate(0.000000, 18.000000)" fill="#FFFFFF">
                    <path d="M16,8.9375 L17.96875,8.9375 C18.09375,9.9453125 19.09375,10.59375 20.5234375,10.59375 C21.8515625,10.59375 22.8125,9.9140625 22.8125,8.96875 C22.8125,8.15625 22.1953125,7.6796875 20.75,7.34375 L19.2890625,7.0078125 C17.2421875,6.546875 16.28125,5.53125 16.28125,3.8515625 C16.28125,1.8046875 17.953125,0.4453125 20.4765625,0.4453125 C22.84375,0.4453125 24.5546875,1.8046875 24.6484375,3.7421875 L22.71875,3.7421875 C22.578125,2.75 21.703125,2.125 20.46875,2.125 C19.171875,2.125 18.3125,2.75 18.3125,3.7109375 C18.3125,4.46875 18.8828125,4.9140625 20.28125,5.234375 L21.578125,5.53125 C23.8671875,6.046875 24.828125,7 24.828125,8.71875 C24.828125,10.9140625 23.1328125,12.28125 20.3984375,12.28125 C17.8125,12.28125 16.1015625,10.984375 16,8.9375 Z M34.5078125,3.453125 L34.5078125,12 L32.640625,12 L32.640625,10.640625 L32.5078125,10.640625 C32.09375,11.6171875 31.125,12.171875 29.859375,12.171875 C27.9765625,12.171875 26.8125,11.0078125 26.8125,8.984375 L26.8125,3.453125 L28.75,3.453125 L28.75,8.5234375 C28.75,9.8359375 29.3671875,10.46875 30.53125,10.46875 C31.78125,10.46875 32.5703125,9.6953125 32.5703125,8.4296875 L32.5703125,3.453125 L34.5078125,3.453125 Z M36.8828125,12 L36.8828125,3.453125 L38.75,3.453125 L38.75,4.78125 L38.8828125,4.78125 C39.1171875,3.9375 40.03125,3.3125 41.125,3.3125 C41.3984375,3.3125 41.734375,3.34375 41.921875,3.3984375 L41.921875,5.1953125 C41.7734375,5.140625 41.2421875,5.0859375 40.9375,5.0859375 C39.6953125,5.0859375 38.8203125,5.8671875 38.8203125,7.0625 L38.8203125,12 L36.8828125,12 Z M42.703125,3.453125 L44.78125,3.453125 L46.7578125,10.0625 L46.890625,10.0625 L48.8515625,3.453125 L50.8984375,3.453125 L47.875,12 L45.7421875,12 L42.703125,3.453125 Z M56.1171875,4.8203125 C54.9609375,4.8203125 54.1484375,5.6484375 54.0625,6.8984375 L58.0859375,6.8984375 C58.046875,5.6328125 57.28125,4.8203125 56.1171875,4.8203125 Z M58.1015625,9.6484375 L59.9375,9.6484375 C59.5703125,11.203125 58.15625,12.171875 56.140625,12.171875 C53.625,12.171875 52.109375,10.5078125 52.109375,7.7578125 C52.109375,5.0078125 53.6484375,3.28125 56.125,3.28125 C58.5625,3.28125 60.0234375,4.8984375 60.0234375,7.59375 L60.0234375,8.21875 L54.0546875,8.21875 L54.0546875,8.3203125 C54.1015625,9.7421875 54.921875,10.6328125 56.1953125,10.6328125 C57.15625,10.6328125 57.8203125,10.28125 58.1015625,9.6484375 Z M62.90625,15.109375 C62.7890625,15.109375 62.265625,15.1015625 62.140625,15.078125 L62.140625,13.5 C62.25,13.515625 62.5390625,13.5234375 62.671875,13.5234375 C63.4921875,13.5234375 63.953125,13.203125 64.203125,12.4140625 L64.3046875,12.0390625 L61.25,3.453125 L63.375,3.453125 L65.375,10.125 L65.5078125,10.125 L67.5,3.453125 L69.546875,3.453125 L66.4609375,12.2734375 C65.734375,14.3984375 64.8203125,15.109375 62.90625,15.109375 Z M75.4765625,12 L75.4765625,3.453125 L77.34375,3.453125 L77.34375,4.78125 L77.4765625,4.78125 C77.7109375,3.9375 78.625,3.3125 79.71875,3.3125 C79.9921875,3.3125 80.328125,3.34375 80.515625,3.3984375 L80.515625,5.1953125 C80.3671875,5.140625 79.8359375,5.0859375 79.53125,5.0859375 C78.2890625,5.0859375 77.4140625,5.8671875 77.4140625,7.0625 L77.4140625,12 L75.4765625,12 Z M85.625,4.8203125 C84.46875,4.8203125 83.65625,5.6484375 83.5703125,6.8984375 L87.59375,6.8984375 C87.5546875,5.6328125 86.7890625,4.8203125 85.625,4.8203125 Z M87.609375,9.6484375 L89.4453125,9.6484375 C89.078125,11.203125 87.6640625,12.171875 85.6484375,12.171875 C83.1328125,12.171875 81.6171875,10.5078125 81.6171875,7.7578125 C81.6171875,5.0078125 83.15625,3.28125 85.6328125,3.28125 C88.0703125,3.28125 89.53125,4.8984375 89.53125,7.59375 L89.53125,8.21875 L83.5625,8.21875 L83.5625,8.3203125 C83.609375,9.7421875 84.4296875,10.6328125 85.703125,10.6328125 C86.6640625,10.6328125 87.328125,10.28125 87.609375,9.6484375 Z M91.28125,5.8984375 C91.28125,4.3515625 92.6875,3.28125 94.703125,3.28125 C96.734375,3.28125 98.0078125,4.1796875 98.1484375,5.734375 L96.328125,5.734375 C96.1875,5.1328125 95.6171875,4.75 94.7109375,4.75 C93.828125,4.75 93.1640625,5.171875 93.1640625,5.7890625 C93.1640625,6.2734375 93.5703125,6.5703125 94.4296875,6.765625 L95.9375,7.109375 C97.5703125,7.4765625 98.328125,8.1796875 98.328125,9.4375 C98.328125,11.078125 96.8203125,12.171875 94.6875,12.171875 C92.5546875,12.171875 91.2109375,11.25 91.0625,9.6953125 L92.9765625,9.6953125 C93.1640625,10.328125 93.765625,10.703125 94.734375,10.703125 C95.7109375,10.703125 96.390625,10.2734375 96.390625,9.640625 C96.390625,9.15625 96.0234375,8.8515625 95.2109375,8.671875 L93.6953125,8.3203125 C92.0546875,7.9453125 91.28125,7.1875 91.28125,5.8984375 Z M104.945312,3.3125 C107.109375,3.3125 108.46875,4.984375 108.46875,7.7265625 C108.46875,10.453125 107.125,12.140625 104.96875,12.140625 C103.742188,12.140625 102.796875,11.609375 102.359375,10.703125 L102.226562,10.703125 L102.226562,14.734375 L100.289062,14.734375 L100.289062,3.453125 L102.15625,3.453125 L102.15625,4.8671875 L102.289062,4.8671875 C102.78125,3.8984375 103.773438,3.3125 104.945312,3.3125 Z M104.335938,10.4921875 C105.679688,10.4921875 106.476562,9.453125 106.476562,7.7265625 C106.476562,6 105.671875,4.9609375 104.34375,4.9609375 C103.023438,4.9609375 102.195312,6.0234375 102.1875,7.7265625 C102.195312,9.4375 103.015625,10.4921875 104.335938,10.4921875 Z M114.101562,10.546875 C115.453125,10.546875 116.21875,9.515625 116.21875,7.7265625 C116.21875,5.9453125 115.445312,4.90625 114.101562,4.90625 C112.75,4.90625 111.976562,5.9453125 111.976562,7.7265625 C111.976562,9.515625 112.75,10.546875 114.101562,10.546875 Z M114.101562,12.171875 C111.539062,12.171875 109.992188,10.5 109.992188,7.7265625 C109.992188,4.96875 111.5625,3.28125 114.101562,3.28125 C116.648438,3.28125 118.210938,4.9609375 118.210938,7.7265625 C118.210938,10.5 116.65625,12.171875 114.101562,12.171875 Z M120.164062,12 L120.164062,3.453125 L122.03125,3.453125 L122.03125,4.8203125 L122.164062,4.8203125 C122.570312,3.8671875 123.570312,3.28125 124.851562,3.28125 C126.757812,3.28125 127.828125,4.4296875 127.828125,6.46875 L127.828125,12 L125.898438,12 L125.898438,6.9296875 C125.898438,5.625 125.304688,4.96875 124.132812,4.96875 C122.882812,4.96875 122.101562,5.765625 122.101562,7.0234375 L122.101562,12 L120.164062,12 Z M129.929688,5.8984375 C129.929688,4.3515625 131.335938,3.28125 133.351562,3.28125 C135.382812,3.28125 136.65625,4.1796875 136.796875,5.734375 L134.976562,5.734375 C134.835938,5.1328125 134.265625,4.75 133.359375,4.75 C132.476562,4.75 131.8125,5.171875 131.8125,5.7890625 C131.8125,6.2734375 132.21875,6.5703125 133.078125,6.765625 L134.585938,7.109375 C136.21875,7.4765625 136.976562,8.1796875 136.976562,9.4375 C136.976562,11.078125 135.46875,12.171875 133.335938,12.171875 C131.203125,12.171875 129.859375,11.25 129.710938,9.6953125 L131.625,9.6953125 C131.8125,10.328125 132.414062,10.703125 133.382812,10.703125 C134.359375,10.703125 135.039062,10.2734375 135.039062,9.640625 C135.039062,9.15625 134.671875,8.8515625 133.859375,8.671875 L132.34375,8.3203125 C130.703125,7.9453125 129.929688,7.1875 129.929688,5.8984375 Z M142.523438,4.8203125 C141.367188,4.8203125 140.554688,5.6484375 140.46875,6.8984375 L144.492188,6.8984375 C144.453125,5.6328125 143.6875,4.8203125 142.523438,4.8203125 Z M144.507812,9.6484375 L146.34375,9.6484375 C145.976562,11.203125 144.5625,12.171875 142.546875,12.171875 C140.03125,12.171875 138.515625,10.5078125 138.515625,7.7578125 C138.515625,5.0078125 140.054688,3.28125 142.53125,3.28125 C144.96875,3.28125 146.429688,4.8984375 146.429688,7.59375 L146.429688,8.21875 L140.460938,8.21875 L140.460938,8.3203125 C140.507812,9.7421875 141.328125,10.6328125 142.601562,10.6328125 C143.5625,10.6328125 144.226562,10.28125 144.507812,9.6484375 Z M148.179688,5.8984375 C148.179688,4.3515625 149.585938,3.28125 151.601562,3.28125 C153.632812,3.28125 154.90625,4.1796875 155.046875,5.734375 L153.226562,5.734375 C153.085938,5.1328125 152.515625,4.75 151.609375,4.75 C150.726562,4.75 150.0625,5.171875 150.0625,5.7890625 C150.0625,6.2734375 150.46875,6.5703125 151.328125,6.765625 L152.835938,7.109375 C154.46875,7.4765625 155.226562,8.1796875 155.226562,9.4375 C155.226562,11.078125 153.71875,12.171875 151.585938,12.171875 C149.453125,12.171875 148.109375,11.25 147.960938,9.6953125 L149.875,9.6953125 C150.0625,10.328125 150.664062,10.703125 151.632812,10.703125 C152.609375,10.703125 153.289062,10.2734375 153.289062,9.640625 C153.289062,9.15625 152.921875,8.8515625 152.109375,8.671875 L150.59375,8.3203125 C148.953125,7.9453125 148.179688,7.1875 148.179688,5.8984375 Z" id="Survey-responses"></path>
                </g>
            </g>
            <g transform="translate(0.000000, 84.000000)">
                <rect id="Rectangle-3" fill="#512DA8" x="0" y="0" width="368" height="48" rx="4"></rect>
                <g id="GroupHeader" transform="translate(0.000000, 17.000000)" fill="#FFFFFF">
                    <path d="M21.1796875,13.28125 C17.984375,13.28125 16,11.015625 16,7.3671875 C16,3.703125 17.9765625,1.4453125 21.171875,1.4453125 C23.734375,1.4453125 25.7109375,3.1171875 25.9453125,5.46875 L23.9609375,5.46875 C23.6796875,4.1171875 22.59375,3.2421875 21.171875,3.2421875 C19.2578125,3.2421875 18.0625,4.8203125 18.0625,7.359375 C18.0625,9.90625 19.2578125,11.484375 21.1796875,11.484375 C22.609375,11.484375 23.6953125,10.6875 23.96875,9.421875 L25.953125,9.421875 C25.6875,11.7265625 23.78125,13.28125 21.1796875,13.28125 Z M35.6015625,4.453125 L35.6015625,13 L33.734375,13 L33.734375,11.640625 L33.6015625,11.640625 C33.1875,12.6171875 32.21875,13.171875 30.953125,13.171875 C29.0703125,13.171875 27.90625,12.0078125 27.90625,9.984375 L27.90625,4.453125 L29.84375,4.453125 L29.84375,9.5234375 C29.84375,10.8359375 30.4609375,11.46875 31.625,11.46875 C32.875,11.46875 33.6640625,10.6953125 33.6640625,9.4296875 L33.6640625,4.453125 L35.6015625,4.453125 Z M37.78125,6.8984375 C37.78125,5.3515625 39.1875,4.28125 41.203125,4.28125 C43.234375,4.28125 44.5078125,5.1796875 44.6484375,6.734375 L42.828125,6.734375 C42.6875,6.1328125 42.1171875,5.75 41.2109375,5.75 C40.328125,5.75 39.6640625,6.171875 39.6640625,6.7890625 C39.6640625,7.2734375 40.0703125,7.5703125 40.9296875,7.765625 L42.4375,8.109375 C44.0703125,8.4765625 44.828125,9.1796875 44.828125,10.4375 C44.828125,12.078125 43.3203125,13.171875 41.1875,13.171875 C39.0546875,13.171875 37.7109375,12.25 37.5625,10.6953125 L39.4765625,10.6953125 C39.6640625,11.328125 40.265625,11.703125 41.234375,11.703125 C42.2109375,11.703125 42.890625,11.2734375 42.890625,10.640625 C42.890625,10.15625 42.5234375,9.8515625 41.7109375,9.671875 L40.1953125,9.3203125 C38.5546875,8.9453125 37.78125,8.1875 37.78125,6.8984375 Z M47.40625,2.4140625 L49.3359375,2.4140625 L49.3359375,4.5078125 L51.2109375,4.5078125 L51.2109375,6.0546875 L49.3359375,6.0546875 L49.3359375,10.25 C49.3359375,11.09375 49.6953125,11.46875 50.5078125,11.46875 C50.78125,11.46875 50.921875,11.453125 51.1484375,11.4296875 L51.1484375,12.9453125 C50.875,13 50.5234375,13.0390625 50.1484375,13.0390625 C48.1875,13.0390625 47.40625,12.375 47.40625,10.71875 L47.40625,6.0546875 L46.015625,6.0546875 L46.015625,4.5078125 L47.40625,4.5078125 L47.40625,2.4140625 Z M56.7890625,11.546875 C58.140625,11.546875 58.90625,10.515625 58.90625,8.7265625 C58.90625,6.9453125 58.1328125,5.90625 56.7890625,5.90625 C55.4375,5.90625 54.6640625,6.9453125 54.6640625,8.7265625 C54.6640625,10.515625 55.4375,11.546875 56.7890625,11.546875 Z M56.7890625,13.171875 C54.2265625,13.171875 52.6796875,11.5 52.6796875,8.7265625 C52.6796875,5.96875 54.25,4.28125 56.7890625,4.28125 C59.3359375,4.28125 60.8984375,5.9609375 60.8984375,8.7265625 C60.8984375,11.5 59.34375,13.171875 56.7890625,13.171875 Z M62.8515625,13 L62.8515625,4.453125 L64.71875,4.453125 L64.71875,5.8359375 L64.8515625,5.8359375 C65.21875,4.859375 66.09375,4.28125 67.2265625,4.28125 C68.40625,4.28125 69.2265625,4.875 69.5859375,5.8359375 L69.71875,5.8359375 C70.140625,4.8984375 71.125,4.28125 72.3125,4.28125 C74.0234375,4.28125 75.0546875,5.3515625 75.0546875,7.125 L75.0546875,13 L73.125,13 L73.125,7.6171875 C73.125,6.515625 72.6015625,5.96875 71.5625,5.96875 C70.5546875,5.96875 69.890625,6.703125 69.890625,7.6796875 L69.890625,13 L68.0078125,13 L68.0078125,7.4765625 C68.0078125,6.5390625 67.4140625,5.96875 66.4609375,5.96875 C65.5,5.96875 64.7890625,6.7578125 64.7890625,7.8046875 L64.7890625,13 L62.8515625,13 Z M80.9375,5.8203125 C79.78125,5.8203125 78.96875,6.6484375 78.8828125,7.8984375 L82.90625,7.8984375 C82.8671875,6.6328125 82.1015625,5.8203125 80.9375,5.8203125 Z M82.921875,10.6484375 L84.7578125,10.6484375 C84.390625,12.203125 82.9765625,13.171875 80.9609375,13.171875 C78.4453125,13.171875 76.9296875,11.5078125 76.9296875,8.7578125 C76.9296875,6.0078125 78.46875,4.28125 80.9453125,4.28125 C83.3828125,4.28125 84.84375,5.8984375 84.84375,8.59375 L84.84375,9.21875 L78.875,9.21875 L78.875,9.3203125 C78.921875,10.7421875 79.7421875,11.6328125 81.015625,11.6328125 C81.9765625,11.6328125 82.640625,11.28125 82.921875,10.6484375 Z M86.7890625,13 L86.7890625,4.453125 L88.65625,4.453125 L88.65625,5.78125 L88.7890625,5.78125 C89.0234375,4.9375 89.9375,4.3125 91.03125,4.3125 C91.3046875,4.3125 91.640625,4.34375 91.828125,4.3984375 L91.828125,6.1953125 C91.6796875,6.140625 91.1484375,6.0859375 90.84375,6.0859375 C89.6015625,6.0859375 88.7265625,6.8671875 88.7265625,8.0625 L88.7265625,13 L86.7890625,13 Z M97.640625,13 L97.640625,4.453125 L99.5703125,4.453125 L99.5703125,13 L97.640625,13 Z M98.6015625,3.0625 C97.8984375,3.0625 97.40625,2.609375 97.40625,1.9921875 C97.40625,1.375 97.8984375,0.921875 98.6015625,0.921875 C99.3125,0.921875 99.796875,1.375 99.796875,1.9921875 C99.796875,2.609375 99.3125,3.0625 98.6015625,3.0625 Z M101.96875,13 L101.96875,4.453125 L103.835938,4.453125 L103.835938,5.8203125 L103.96875,5.8203125 C104.375,4.8671875 105.375,4.28125 106.65625,4.28125 C108.5625,4.28125 109.632812,5.4296875 109.632812,7.46875 L109.632812,13 L107.703125,13 L107.703125,7.9296875 C107.703125,6.625 107.109375,5.96875 105.9375,5.96875 C104.6875,5.96875 103.90625,6.765625 103.90625,8.0234375 L103.90625,13 L101.96875,13 Z M112.546875,2.4140625 L114.476562,2.4140625 L114.476562,4.5078125 L116.351562,4.5078125 L116.351562,6.0546875 L114.476562,6.0546875 L114.476562,10.25 C114.476562,11.09375 114.835938,11.46875 115.648438,11.46875 C115.921875,11.46875 116.0625,11.453125 116.289062,11.4296875 L116.289062,12.9453125 C116.015625,13 115.664062,13.0390625 115.289062,13.0390625 C113.328125,13.0390625 112.546875,12.375 112.546875,10.71875 L112.546875,6.0546875 L111.15625,6.0546875 L111.15625,4.5078125 L112.546875,4.5078125 L112.546875,2.4140625 Z M121.828125,5.8203125 C120.671875,5.8203125 119.859375,6.6484375 119.773438,7.8984375 L123.796875,7.8984375 C123.757812,6.6328125 122.992188,5.8203125 121.828125,5.8203125 Z M123.8125,10.6484375 L125.648438,10.6484375 C125.28125,12.203125 123.867188,13.171875 121.851562,13.171875 C119.335938,13.171875 117.820312,11.5078125 117.820312,8.7578125 C117.820312,6.0078125 119.359375,4.28125 121.835938,4.28125 C124.273438,4.28125 125.734375,5.8984375 125.734375,8.59375 L125.734375,9.21875 L119.765625,9.21875 L119.765625,9.3203125 C119.8125,10.7421875 120.632812,11.6328125 121.90625,11.6328125 C122.867188,11.6328125 123.53125,11.28125 123.8125,10.6484375 Z M127.679688,13 L127.679688,4.453125 L129.546875,4.453125 L129.546875,5.78125 L129.679688,5.78125 C129.914062,4.9375 130.828125,4.3125 131.921875,4.3125 C132.195312,4.3125 132.53125,4.34375 132.71875,4.3984375 L132.71875,6.1953125 C132.570312,6.140625 132.039062,6.0859375 131.734375,6.0859375 C130.492188,6.0859375 129.617188,6.8671875 129.617188,8.0625 L129.617188,13 L127.679688,13 Z M133.5,4.453125 L135.578125,4.453125 L137.554688,11.0625 L137.6875,11.0625 L139.648438,4.453125 L141.695312,4.453125 L138.671875,13 L136.539062,13 L133.5,4.453125 Z M143.351562,13 L143.351562,4.453125 L145.28125,4.453125 L145.28125,13 L143.351562,13 Z M144.3125,3.0625 C143.609375,3.0625 143.117188,2.609375 143.117188,1.9921875 C143.117188,1.375 143.609375,0.921875 144.3125,0.921875 C145.023438,0.921875 145.507812,1.375 145.507812,1.9921875 C145.507812,2.609375 145.023438,3.0625 144.3125,3.0625 Z M151.265625,5.8203125 C150.109375,5.8203125 149.296875,6.6484375 149.210938,7.8984375 L153.234375,7.8984375 C153.195312,6.6328125 152.429688,5.8203125 151.265625,5.8203125 Z M153.25,10.6484375 L155.085938,10.6484375 C154.71875,12.203125 153.304688,13.171875 151.289062,13.171875 C148.773438,13.171875 147.257812,11.5078125 147.257812,8.7578125 C147.257812,6.0078125 148.796875,4.28125 151.273438,4.28125 C153.710938,4.28125 155.171875,5.8984375 155.171875,8.59375 L155.171875,9.21875 L149.203125,9.21875 L149.203125,9.3203125 C149.25,10.7421875 150.070312,11.6328125 151.34375,11.6328125 C152.304688,11.6328125 152.96875,11.28125 153.25,10.6484375 Z M168.5625,4.453125 L166.25,13 L164.210938,13 L162.546875,6.84375 L162.414062,6.84375 L160.757812,13 L158.742188,13 L156.429688,4.453125 L158.382812,4.453125 L159.804688,10.8359375 L159.9375,10.8359375 L161.578125,4.453125 L163.429688,4.453125 L165.085938,10.8359375 L165.21875,10.8359375 L166.632812,4.453125 L168.5625,4.453125 Z M174.515625,13 L174.515625,4.453125 L176.382812,4.453125 L176.382812,5.8203125 L176.515625,5.8203125 C176.921875,4.8671875 177.921875,4.28125 179.203125,4.28125 C181.109375,4.28125 182.179688,5.4296875 182.179688,7.46875 L182.179688,13 L180.25,13 L180.25,7.9296875 C180.25,6.625 179.65625,5.96875 178.484375,5.96875 C177.234375,5.96875 176.453125,6.765625 176.453125,8.0234375 L176.453125,13 L174.515625,13 Z M188.164062,11.546875 C189.515625,11.546875 190.28125,10.515625 190.28125,8.7265625 C190.28125,6.9453125 189.507812,5.90625 188.164062,5.90625 C186.8125,5.90625 186.039062,6.9453125 186.039062,8.7265625 C186.039062,10.515625 186.8125,11.546875 188.164062,11.546875 Z M188.164062,13.171875 C185.601562,13.171875 184.054688,11.5 184.054688,8.7265625 C184.054688,5.96875 185.625,4.28125 188.164062,4.28125 C190.710938,4.28125 192.273438,5.9609375 192.273438,8.7265625 C192.273438,11.5 190.71875,13.171875 188.164062,13.171875 Z M194.84375,2.4140625 L196.773438,2.4140625 L196.773438,4.5078125 L198.648438,4.5078125 L198.648438,6.0546875 L196.773438,6.0546875 L196.773438,10.25 C196.773438,11.09375 197.132812,11.46875 197.945312,11.46875 C198.21875,11.46875 198.359375,11.453125 198.585938,11.4296875 L198.585938,12.9453125 C198.3125,13 197.960938,13.0390625 197.585938,13.0390625 C195.625,13.0390625 194.84375,12.375 194.84375,10.71875 L194.84375,6.0546875 L193.453125,6.0546875 L193.453125,4.5078125 L194.84375,4.5078125 L194.84375,2.4140625 Z M204.125,5.8203125 C202.96875,5.8203125 202.15625,6.6484375 202.070312,7.8984375 L206.09375,7.8984375 C206.054688,6.6328125 205.289062,5.8203125 204.125,5.8203125 Z M206.109375,10.6484375 L207.945312,10.6484375 C207.578125,12.203125 206.164062,13.171875 204.148438,13.171875 C201.632812,13.171875 200.117188,11.5078125 200.117188,8.7578125 C200.117188,6.0078125 201.65625,4.28125 204.132812,4.28125 C206.570312,4.28125 208.03125,5.8984375 208.03125,8.59375 L208.03125,9.21875 L202.0625,9.21875 L202.0625,9.3203125 C202.109375,10.7421875 202.929688,11.6328125 204.203125,11.6328125 C205.164062,11.6328125 205.828125,11.28125 206.109375,10.6484375 Z M209.78125,6.8984375 C209.78125,5.3515625 211.1875,4.28125 213.203125,4.28125 C215.234375,4.28125 216.507812,5.1796875 216.648438,6.734375 L214.828125,6.734375 C214.6875,6.1328125 214.117188,5.75 213.210938,5.75 C212.328125,5.75 211.664062,6.171875 211.664062,6.7890625 C211.664062,7.2734375 212.070312,7.5703125 212.929688,7.765625 L214.4375,8.109375 C216.070312,8.4765625 216.828125,9.1796875 216.828125,10.4375 C216.828125,12.078125 215.320312,13.171875 213.1875,13.171875 C211.054688,13.171875 209.710938,12.25 209.5625,10.6953125 L211.476562,10.6953125 C211.664062,11.328125 212.265625,11.703125 213.234375,11.703125 C214.210938,11.703125 214.890625,11.2734375 214.890625,10.640625 C214.890625,10.15625 214.523438,9.8515625 213.710938,9.671875 L212.195312,9.3203125 C210.554688,8.9453125 209.78125,8.1875 209.78125,6.8984375 Z" id="Customer-interview-n"></path>
                </g>
            </g>
            <path d="M13.34375,0.4453125 C16.6171875,0.4453125 18.6640625,2.71875 18.6640625,6.359375 C18.6640625,9.9921875 16.6328125,12.28125 13.34375,12.28125 C10.03125,12.28125 8,10 8,6.359375 C8,2.71875 10.0703125,0.4453125 13.34375,0.4453125 Z M13.34375,2.234375 C11.3359375,2.234375 10.0625,3.8359375 10.0625,6.359375 C10.0625,8.875 11.3046875,10.4921875 13.34375,10.4921875 C15.3515625,10.4921875 16.6015625,8.875 16.6015625,6.359375 C16.6015625,3.8359375 15.34375,2.234375 13.34375,2.234375 Z M28.1484375,6.328125 L26.3046875,6.328125 C26.125,5.5 25.484375,4.90625 24.421875,4.90625 C23.09375,4.90625 22.3046875,5.9296875 22.3046875,7.703125 C22.3046875,9.5 23.1015625,10.546875 24.421875,10.546875 C25.4296875,10.546875 26.1015625,10.0703125 26.3046875,9.1796875 L28.1484375,9.1796875 C27.9375,10.96875 26.59375,12.171875 24.4296875,12.171875 C21.859375,12.171875 20.34375,10.515625 20.34375,7.703125 C20.34375,4.9296875 21.8515625,3.28125 24.421875,3.28125 C26.6171875,3.28125 27.9453125,4.53125 28.1484375,6.328125 Z M30.6171875,1.4140625 L32.546875,1.4140625 L32.546875,3.5078125 L34.421875,3.5078125 L34.421875,5.0546875 L32.546875,5.0546875 L32.546875,9.25 C32.546875,10.09375 32.90625,10.46875 33.71875,10.46875 C33.9921875,10.46875 34.1328125,10.453125 34.359375,10.4296875 L34.359375,11.9453125 C34.0859375,12 33.734375,12.0390625 33.359375,12.0390625 C31.3984375,12.0390625 30.6171875,11.375 30.6171875,9.71875 L30.6171875,5.0546875 L29.2265625,5.0546875 L29.2265625,3.5078125 L30.6171875,3.5078125 L30.6171875,1.4140625 Z M40,10.546875 C41.3515625,10.546875 42.1171875,9.515625 42.1171875,7.7265625 C42.1171875,5.9453125 41.34375,4.90625 40,4.90625 C38.6484375,4.90625 37.875,5.9453125 37.875,7.7265625 C37.875,9.515625 38.6484375,10.546875 40,10.546875 Z M40,12.171875 C37.4375,12.171875 35.890625,10.5 35.890625,7.7265625 C35.890625,4.96875 37.4609375,3.28125 40,3.28125 C42.546875,3.28125 44.109375,4.9609375 44.109375,7.7265625 C44.109375,10.5 42.5546875,12.171875 40,12.171875 Z M50.8125,12.140625 C49.6171875,12.140625 48.625,11.5859375 48.140625,10.6484375 L48.0078125,10.6484375 L48.0078125,12 L46.140625,12 L46.140625,0.1484375 L48.078125,0.1484375 L48.078125,4.8125 L48.2109375,4.8125 C48.65625,3.8828125 49.640625,3.3125 50.8125,3.3125 C52.9765625,3.3125 54.3203125,4.9921875 54.3203125,7.7265625 C54.3203125,10.4453125 52.96875,12.140625 50.8125,12.140625 Z M50.203125,4.9609375 C48.8828125,4.9609375 48.046875,6.0234375 48.046875,7.7265625 C48.046875,9.4296875 48.875,10.4921875 50.203125,10.4921875 C51.53125,10.4921875 52.328125,9.4453125 52.328125,7.7265625 C52.328125,6.0078125 51.5234375,4.9609375 50.203125,4.9609375 Z M59.8515625,4.8203125 C58.6953125,4.8203125 57.8828125,5.6484375 57.796875,6.8984375 L61.8203125,6.8984375 C61.78125,5.6328125 61.015625,4.8203125 59.8515625,4.8203125 Z M61.8359375,9.6484375 L63.671875,9.6484375 C63.3046875,11.203125 61.890625,12.171875 59.875,12.171875 C57.359375,12.171875 55.84375,10.5078125 55.84375,7.7578125 C55.84375,5.0078125 57.3828125,3.28125 59.859375,3.28125 C62.296875,3.28125 63.7578125,4.8984375 63.7578125,7.59375 L63.7578125,8.21875 L57.7890625,8.21875 L57.7890625,8.3203125 C57.8359375,9.7421875 58.65625,10.6328125 59.9296875,10.6328125 C60.890625,10.6328125 61.5546875,10.28125 61.8359375,9.6484375 Z M65.703125,12 L65.703125,3.453125 L67.5703125,3.453125 L67.5703125,4.78125 L67.703125,4.78125 C67.9375,3.9375 68.8515625,3.3125 69.9453125,3.3125 C70.21875,3.3125 70.5546875,3.34375 70.7421875,3.3984375 L70.7421875,5.1953125 C70.59375,5.140625 70.0625,5.0859375 69.7578125,5.0859375 C68.515625,5.0859375 67.640625,5.8671875 67.640625,7.0625 L67.640625,12 L65.703125,12 Z M81.1875,3.3125 C83.3515625,3.3125 84.7109375,4.984375 84.7109375,7.7265625 C84.7109375,10.453125 83.3671875,12.140625 81.2109375,12.140625 C79.984375,12.140625 79.0390625,11.609375 78.6015625,10.703125 L78.46875,10.703125 L78.46875,14.734375 L76.53125,14.734375 L76.53125,3.453125 L78.3984375,3.453125 L78.3984375,4.8671875 L78.53125,4.8671875 C79.0234375,3.8984375 80.015625,3.3125 81.1875,3.3125 Z M80.578125,10.4921875 C81.921875,10.4921875 82.71875,9.453125 82.71875,7.7265625 C82.71875,6 81.9140625,4.9609375 80.5859375,4.9609375 C79.265625,4.9609375 78.4375,6.0234375 78.4296875,7.7265625 C78.4375,9.4375 79.2578125,10.4921875 80.578125,10.4921875 Z M86.65625,12 L86.65625,3.453125 L88.5234375,3.453125 L88.5234375,4.78125 L88.65625,4.78125 C88.890625,3.9375 89.8046875,3.3125 90.8984375,3.3125 C91.171875,3.3125 91.5078125,3.34375 91.6953125,3.3984375 L91.6953125,5.1953125 C91.546875,5.140625 91.015625,5.0859375 90.7109375,5.0859375 C89.46875,5.0859375 88.59375,5.8671875 88.59375,7.0625 L88.59375,12 L86.65625,12 Z M96.90625,10.546875 C98.2578125,10.546875 99.0234375,9.515625 99.0234375,7.7265625 C99.0234375,5.9453125 98.25,4.90625 96.90625,4.90625 C95.5546875,4.90625 94.78125,5.9453125 94.78125,7.7265625 C94.78125,9.515625 95.5546875,10.546875 96.90625,10.546875 Z M96.90625,12.171875 C94.34375,12.171875 92.796875,10.5 92.796875,7.7265625 C92.796875,4.96875 94.3671875,3.28125 96.90625,3.28125 C99.453125,3.28125 101.015625,4.9609375 101.015625,7.7265625 C101.015625,10.5 99.4609375,12.171875 96.90625,12.171875 Z M106.0625,12.140625 C103.898438,12.140625 102.546875,10.4375 102.546875,7.71875 C102.546875,5.015625 103.90625,3.3125 106.0625,3.3125 C107.234375,3.3125 108.203125,3.875 108.65625,4.8125 L108.789062,4.8125 L108.789062,0.1484375 L110.726562,0.1484375 L110.726562,12 L108.851562,12 L108.851562,10.6484375 L108.71875,10.6484375 C108.234375,11.5859375 107.25,12.140625 106.0625,12.140625 Z M106.664062,4.9609375 C105.34375,4.9609375 104.53125,6.0078125 104.53125,7.7265625 C104.53125,9.453125 105.335938,10.4921875 106.664062,10.4921875 C108,10.4921875 108.8125,9.4453125 108.8125,7.7265625 C108.8125,6.0234375 107.992188,4.9609375 106.664062,4.9609375 Z M120.789062,3.453125 L120.789062,12 L118.921875,12 L118.921875,10.640625 L118.789062,10.640625 C118.375,11.6171875 117.40625,12.171875 116.140625,12.171875 C114.257812,12.171875 113.09375,11.0078125 113.09375,8.984375 L113.09375,3.453125 L115.03125,3.453125 L115.03125,8.5234375 C115.03125,9.8359375 115.648438,10.46875 116.8125,10.46875 C118.0625,10.46875 118.851562,9.6953125 118.851562,8.4296875 L118.851562,3.453125 L120.789062,3.453125 Z M130.546875,6.328125 L128.703125,6.328125 C128.523438,5.5 127.882812,4.90625 126.820312,4.90625 C125.492188,4.90625 124.703125,5.9296875 124.703125,7.703125 C124.703125,9.5 125.5,10.546875 126.820312,10.546875 C127.828125,10.546875 128.5,10.0703125 128.703125,9.1796875 L130.546875,9.1796875 C130.335938,10.96875 128.992188,12.171875 126.828125,12.171875 C124.257812,12.171875 122.742188,10.515625 122.742188,7.703125 C122.742188,4.9296875 124.25,3.28125 126.820312,3.28125 C129.015625,3.28125 130.34375,4.53125 130.546875,6.328125 Z M133.015625,1.4140625 L134.945312,1.4140625 L134.945312,3.5078125 L136.820312,3.5078125 L136.820312,5.0546875 L134.945312,5.0546875 L134.945312,9.25 C134.945312,10.09375 135.304688,10.46875 136.117188,10.46875 C136.390625,10.46875 136.53125,10.453125 136.757812,10.4296875 L136.757812,11.9453125 C136.484375,12 136.132812,12.0390625 135.757812,12.0390625 C133.796875,12.0390625 133.015625,11.375 133.015625,9.71875 L133.015625,5.0546875 L131.625,5.0546875 L131.625,3.5078125 L133.015625,3.5078125 L133.015625,1.4140625 Z M142.976562,12 L142.976562,3.453125 L144.84375,3.453125 L144.84375,4.78125 L144.976562,4.78125 C145.210938,3.9375 146.125,3.3125 147.21875,3.3125 C147.492188,3.3125 147.828125,3.34375 148.015625,3.3984375 L148.015625,5.1953125 C147.867188,5.140625 147.335938,5.0859375 147.03125,5.0859375 C145.789062,5.0859375 144.914062,5.8671875 144.914062,7.0625 L144.914062,12 L142.976562,12 Z M153.125,4.8203125 C151.96875,4.8203125 151.15625,5.6484375 151.070312,6.8984375 L155.09375,6.8984375 C155.054688,5.6328125 154.289062,4.8203125 153.125,4.8203125 Z M155.109375,9.6484375 L156.945312,9.6484375 C156.578125,11.203125 155.164062,12.171875 153.148438,12.171875 C150.632812,12.171875 149.117188,10.5078125 149.117188,7.7578125 C149.117188,5.0078125 150.65625,3.28125 153.132812,3.28125 C155.570312,3.28125 157.03125,4.8984375 157.03125,7.59375 L157.03125,8.21875 L151.0625,8.21875 L151.0625,8.3203125 C151.109375,9.7421875 151.929688,10.6328125 153.203125,10.6328125 C154.164062,10.6328125 154.828125,10.28125 155.109375,9.6484375 Z M158.78125,5.8984375 C158.78125,4.3515625 160.1875,3.28125 162.203125,3.28125 C164.234375,3.28125 165.507812,4.1796875 165.648438,5.734375 L163.828125,5.734375 C163.6875,5.1328125 163.117188,4.75 162.210938,4.75 C161.328125,4.75 160.664062,5.171875 160.664062,5.7890625 C160.664062,6.2734375 161.070312,6.5703125 161.929688,6.765625 L163.4375,7.109375 C165.070312,7.4765625 165.828125,8.1796875 165.828125,9.4375 C165.828125,11.078125 164.320312,12.171875 162.1875,12.171875 C160.054688,12.171875 158.710938,11.25 158.5625,9.6953125 L160.476562,9.6953125 C160.664062,10.328125 161.265625,10.703125 162.234375,10.703125 C163.210938,10.703125 163.890625,10.2734375 163.890625,9.640625 C163.890625,9.15625 163.523438,8.8515625 162.710938,8.671875 L161.195312,8.3203125 C159.554688,7.9453125 158.78125,7.1875 158.78125,5.8984375 Z M171.375,4.8203125 C170.21875,4.8203125 169.40625,5.6484375 169.320312,6.8984375 L173.34375,6.8984375 C173.304688,5.6328125 172.539062,4.8203125 171.375,4.8203125 Z M173.359375,9.6484375 L175.195312,9.6484375 C174.828125,11.203125 173.414062,12.171875 171.398438,12.171875 C168.882812,12.171875 167.367188,10.5078125 167.367188,7.7578125 C167.367188,5.0078125 168.90625,3.28125 171.382812,3.28125 C173.820312,3.28125 175.28125,4.8984375 175.28125,7.59375 L175.28125,8.21875 L169.3125,8.21875 L169.3125,8.3203125 C169.359375,9.7421875 170.179688,10.6328125 171.453125,10.6328125 C172.414062,10.6328125 173.078125,10.28125 173.359375,9.6484375 Z M180.148438,10.6171875 C181.320312,10.6171875 182.195312,9.859375 182.195312,8.8671875 L182.195312,8.1875 L180.265625,8.3125 C179.179688,8.3828125 178.671875,8.7734375 178.671875,9.46875 C178.671875,10.1875 179.289062,10.6171875 180.148438,10.6171875 Z M179.578125,12.140625 C177.929688,12.140625 176.75,11.140625 176.75,9.578125 C176.75,8.03125 177.914062,7.140625 179.992188,7.015625 L182.195312,6.8828125 L182.195312,6.1640625 C182.195312,5.328125 181.632812,4.859375 180.585938,4.859375 C179.695312,4.859375 179.085938,5.171875 178.90625,5.75 L177.078125,5.75 C177.234375,4.2421875 178.648438,3.28125 180.679688,3.28125 C182.875,3.28125 184.109375,4.3515625 184.109375,6.1640625 L184.109375,12 L182.242188,12 L182.242188,10.828125 L182.109375,10.828125 C181.632812,11.65625 180.695312,12.140625 179.578125,12.140625 Z M186.4375,12 L186.4375,3.453125 L188.304688,3.453125 L188.304688,4.78125 L188.4375,4.78125 C188.671875,3.9375 189.585938,3.3125 190.679688,3.3125 C190.953125,3.3125 191.289062,3.34375 191.476562,3.3984375 L191.476562,5.1953125 C191.328125,5.140625 190.796875,5.0859375 190.492188,5.0859375 C189.25,5.0859375 188.375,5.8671875 188.375,7.0625 L188.375,12 L186.4375,12 Z M200.382812,6.328125 L198.539062,6.328125 C198.359375,5.5 197.71875,4.90625 196.65625,4.90625 C195.328125,4.90625 194.539062,5.9296875 194.539062,7.703125 C194.539062,9.5 195.335938,10.546875 196.65625,10.546875 C197.664062,10.546875 198.335938,10.0703125 198.539062,9.1796875 L200.382812,9.1796875 C200.171875,10.96875 198.828125,12.171875 196.664062,12.171875 C194.09375,12.171875 192.578125,10.515625 192.578125,7.703125 C192.578125,4.9296875 194.085938,3.28125 196.65625,3.28125 C198.851562,3.28125 200.179688,4.53125 200.382812,6.328125 Z M202.3125,12 L202.3125,0.1484375 L204.21875,0.1484375 L204.21875,4.8359375 L204.359375,4.8359375 C204.765625,3.875 205.773438,3.296875 207.046875,3.296875 C208.960938,3.296875 210.070312,4.453125 210.070312,6.484375 L210.070312,12 L208.140625,12 L208.140625,6.9453125 C208.140625,5.6484375 207.515625,4.984375 206.328125,4.984375 C205.054688,4.984375 204.25,5.8125 204.25,7.0390625 L204.25,12 L202.3125,12 Z" id="October-product-rese" fill="#24124D"></path>
        </g>
        <g id="Group" transform="translate(16.000000, 64.000000)">
            <g id="component/button-subtle">
                <rect id="Background" fill="#FFFFFF" style="mix-blend-mode: screen;" x="0" y="0" width="57" height="32"></rect>
                <path d="M11.0957031,20 L9.39355469,20 L9.39355469,10.1357422 L10.9248047,10.1357422 L15.7646484,16.8417969 L15.8808594,16.8417969 L15.8808594,10.1357422 L17.5761719,10.1357422 L17.5761719,20 L16.0517578,20 L11.2119141,13.2871094 L11.0957031,13.2871094 L11.0957031,20 Z M23.0654297,18.7285156 C24.2480469,18.7285156 24.9179688,17.8261719 24.9179688,16.2607422 C24.9179688,14.7021484 24.2412109,13.7929688 23.0654297,13.7929688 C21.8828125,13.7929688 21.2060547,14.7021484 21.2060547,16.2607422 C21.2060547,17.8261719 21.8828125,18.7285156 23.0654297,18.7285156 Z M23.0654297,20.1503906 C20.8232422,20.1503906 19.4697266,18.6875 19.4697266,16.2607422 C19.4697266,13.8476562 20.84375,12.3710938 23.0654297,12.3710938 C25.2939453,12.3710938 26.6611328,13.8408203 26.6611328,16.2607422 C26.6611328,18.6875 25.3007812,20.1503906 23.0654297,20.1503906 Z M28.9101562,10.7373047 L30.5986328,10.7373047 L30.5986328,12.5693359 L32.2392578,12.5693359 L32.2392578,13.9228516 L30.5986328,13.9228516 L30.5986328,17.59375 C30.5986328,18.3320312 30.9130859,18.6601562 31.6240234,18.6601562 C31.8632812,18.6601562 31.9863281,18.6464844 32.1845703,18.6259766 L32.1845703,19.9521484 C31.9453125,20 31.6376953,20.0341797 31.3095703,20.0341797 C29.59375,20.0341797 28.9101562,19.453125 28.9101562,18.0039062 L28.9101562,13.9228516 L27.6933594,13.9228516 L27.6933594,12.5693359 L28.9101562,12.5693359 L28.9101562,10.7373047 Z M37.03125,13.7177734 C36.0195312,13.7177734 35.3085938,14.4423828 35.2333984,15.5361328 L38.7539062,15.5361328 C38.7197266,14.4287109 38.0498047,13.7177734 37.03125,13.7177734 Z M38.7675781,17.9423828 L40.3740234,17.9423828 C40.0527344,19.3027344 38.8154297,20.1503906 37.0517578,20.1503906 C34.8505859,20.1503906 33.5244141,18.6943359 33.5244141,16.2880859 C33.5244141,13.8818359 34.8710938,12.3710938 37.0380859,12.3710938 C39.1708984,12.3710938 40.4492188,13.7861328 40.4492188,16.1445312 L40.4492188,16.6914062 L35.2265625,16.6914062 L35.2265625,16.7802734 C35.2675781,18.0244141 35.9853516,18.8037109 37.0996094,18.8037109 C37.9404297,18.8037109 38.5214844,18.4960938 38.7675781,17.9423828 Z M41.9804688,14.6611328 C41.9804688,13.3076172 43.2109375,12.3710938 44.9746094,12.3710938 C46.7519531,12.3710938 47.8662109,13.1572266 47.9892578,14.5175781 L46.3964844,14.5175781 C46.2734375,13.9912109 45.7744141,13.65625 44.9814453,13.65625 C44.2089844,13.65625 43.6279297,14.0253906 43.6279297,14.5654297 C43.6279297,14.9892578 43.9833984,15.2490234 44.7353516,15.4199219 L46.0546875,15.7207031 C47.4833984,16.0419922 48.1464844,16.6572266 48.1464844,17.7578125 C48.1464844,19.1933594 46.8271484,20.1503906 44.9609375,20.1503906 C43.0947266,20.1503906 41.9189453,19.34375 41.7890625,17.9833984 L43.4638672,17.9833984 C43.6279297,18.5371094 44.1542969,18.8652344 45.0019531,18.8652344 C45.8564453,18.8652344 46.4511719,18.4892578 46.4511719,17.9355469 C46.4511719,17.5117188 46.1298828,17.2451172 45.4189453,17.0878906 L44.0927734,16.7802734 C42.6572266,16.4521484 41.9804688,15.7890625 41.9804688,14.6611328 Z" id="Notes" fill="#512DA8"></path>
            </g>
            <g id="component/button-subtle" transform="translate(58.000000, 0.000000)">
                <rect id="Background" fill="#FFFFFF" style="mix-blend-mode: screen;" x="0" y="0" width="50" height="32"></rect>
                <path d="M13.5703125,20 L11.8066406,20 L11.8066406,11.6601562 L8.77148438,11.6601562 L8.77148438,10.1357422 L16.6123047,10.1357422 L16.6123047,11.6601562 L13.5703125,11.6601562 L13.5703125,20 Z M20.8369141,18.7900391 C21.8623047,18.7900391 22.6279297,18.1269531 22.6279297,17.2587891 L22.6279297,16.6640625 L20.9394531,16.7734375 C19.9892578,16.8349609 19.5449219,17.1767578 19.5449219,17.7851562 C19.5449219,18.4140625 20.0849609,18.7900391 20.8369141,18.7900391 Z M20.3378906,20.1230469 C18.8955078,20.1230469 17.8632812,19.2480469 17.8632812,17.8808594 C17.8632812,16.5273438 18.8818359,15.7480469 20.7001953,15.6386719 L22.6279297,15.5224609 L22.6279297,14.8935547 C22.6279297,14.1621094 22.1357422,13.7519531 21.2197266,13.7519531 C20.4404297,13.7519531 19.9072266,14.0253906 19.75,14.53125 L18.1503906,14.53125 C18.2871094,13.2119141 19.5244141,12.3710938 21.3017578,12.3710938 C23.2226562,12.3710938 24.3027344,13.3076172 24.3027344,14.8935547 L24.3027344,20 L22.6689453,20 L22.6689453,18.9746094 L22.5527344,18.9746094 C22.1357422,19.6992188 21.3154297,20.1230469 20.3378906,20.1230469 Z M31.4462891,16.1787109 C31.4462891,14.75 30.7285156,13.8408203 29.5527344,13.8408203 C28.3701172,13.8408203 27.7001953,14.75 27.7001953,16.1787109 C27.7001953,17.6074219 28.3701172,18.5097656 29.5527344,18.5097656 C30.7353516,18.5097656 31.4462891,17.6074219 31.4462891,16.1787109 Z M29.5527344,22.84375 C27.6318359,22.84375 26.3740234,21.9960938 26.2373047,20.7109375 L27.9394531,20.7109375 C28.0488281,21.2236328 28.6503906,21.5517578 29.5800781,21.5517578 C30.7421875,21.5517578 31.4189453,21.0048828 31.4189453,20.0683594 L31.4189453,18.6533203 L31.3027344,18.6533203 C30.8720703,19.453125 30.0585938,19.890625 29.0195312,19.890625 C27.1328125,19.890625 25.9570312,18.4277344 25.9570312,16.1787109 C25.9570312,13.8886719 27.1396484,12.3984375 29.046875,12.3984375 C30.0654297,12.3984375 30.9541016,12.9042969 31.3642578,13.7177734 L31.4804688,13.7177734 L31.4804688,12.5214844 L33.1142578,12.5214844 L33.1142578,20.0273438 C33.1142578,21.7568359 31.7333984,22.84375 29.5527344,22.84375 Z M35.0214844,14.6611328 C35.0214844,13.3076172 36.2519531,12.3710938 38.015625,12.3710938 C39.7929688,12.3710938 40.9072266,13.1572266 41.0302734,14.5175781 L39.4375,14.5175781 C39.3144531,13.9912109 38.8154297,13.65625 38.0224609,13.65625 C37.25,13.65625 36.6689453,14.0253906 36.6689453,14.5654297 C36.6689453,14.9892578 37.0244141,15.2490234 37.7763672,15.4199219 L39.0957031,15.7207031 C40.5244141,16.0419922 41.1875,16.6572266 41.1875,17.7578125 C41.1875,19.1933594 39.8681641,20.1503906 38.0019531,20.1503906 C36.1357422,20.1503906 34.9599609,19.34375 34.8300781,17.9833984 L36.5048828,17.9833984 C36.6689453,18.5371094 37.1953125,18.8652344 38.0429688,18.8652344 C38.8974609,18.8652344 39.4921875,18.4892578 39.4921875,17.9355469 C39.4921875,17.5117188 39.1708984,17.2451172 38.4599609,17.0878906 L37.1337891,16.7802734 C35.6982422,16.4521484 35.0214844,15.7890625 35.0214844,14.6611328 Z" id="Notes" fill="#7B7194"></path>
            </g>
            <g id="component/button-subtle" transform="translate(108.000000, 0.000000)">
                <rect id="Background" fill="#FFFFFF" style="mix-blend-mode: screen;" x="0" y="0" width="72" height="32"></rect>
                <path d="M11.2880859,20 L9.52441406,20 L9.52441406,10.1357422 L11.2880859,10.1357422 L11.2880859,20 Z M13.5439453,20 L13.5439453,12.5214844 L15.1777344,12.5214844 L15.1777344,13.7177734 L15.2939453,13.7177734 C15.6494141,12.8837891 16.5244141,12.3710938 17.6455078,12.3710938 C19.3134766,12.3710938 20.25,13.3759766 20.25,15.1601562 L20.25,20 L18.5615234,20 L18.5615234,15.5634766 C18.5615234,14.421875 18.0419922,13.8476562 17.0166016,13.8476562 C15.9228516,13.8476562 15.2392578,14.5449219 15.2392578,15.6455078 L15.2392578,20 L13.5439453,20 Z M22.0888672,14.6611328 C22.0888672,13.3076172 23.3193359,12.3710938 25.0830078,12.3710938 C26.8603516,12.3710938 27.9746094,13.1572266 28.0976562,14.5175781 L26.5048828,14.5175781 C26.3818359,13.9912109 25.8828125,13.65625 25.0898438,13.65625 C24.3173828,13.65625 23.7363281,14.0253906 23.7363281,14.5654297 C23.7363281,14.9892578 24.0917969,15.2490234 24.84375,15.4199219 L26.1630859,15.7207031 C27.5917969,16.0419922 28.2548828,16.6572266 28.2548828,17.7578125 C28.2548828,19.1933594 26.9355469,20.1503906 25.0693359,20.1503906 C23.203125,20.1503906 22.0273438,19.34375 21.8974609,17.9833984 L23.5722656,17.9833984 C23.7363281,18.5371094 24.2626953,18.8652344 25.1103516,18.8652344 C25.9648438,18.8652344 26.5595703,18.4892578 26.5595703,17.9355469 C26.5595703,17.5117188 26.2382812,17.2451172 25.5273438,17.0878906 L24.2011719,16.7802734 C22.765625,16.4521484 22.0888672,15.7890625 22.0888672,14.6611328 Z M29.9912109,20 L29.9912109,12.5214844 L31.6796875,12.5214844 L31.6796875,20 L29.9912109,20 Z M30.8320312,11.3046875 C30.2167969,11.3046875 29.7861328,10.9082031 29.7861328,10.3681641 C29.7861328,9.828125 30.2167969,9.43164062 30.8320312,9.43164062 C31.4541016,9.43164062 31.8779297,9.828125 31.8779297,10.3681641 C31.8779297,10.9082031 31.4541016,11.3046875 30.8320312,11.3046875 Z M38.8847656,16.1787109 C38.8847656,14.75 38.1669922,13.8408203 36.9912109,13.8408203 C35.8085938,13.8408203 35.1386719,14.75 35.1386719,16.1787109 C35.1386719,17.6074219 35.8085938,18.5097656 36.9912109,18.5097656 C38.1738281,18.5097656 38.8847656,17.6074219 38.8847656,16.1787109 Z M36.9912109,22.84375 C35.0703125,22.84375 33.8125,21.9960938 33.6757812,20.7109375 L35.3779297,20.7109375 C35.4873047,21.2236328 36.0888672,21.5517578 37.0185547,21.5517578 C38.1806641,21.5517578 38.8574219,21.0048828 38.8574219,20.0683594 L38.8574219,18.6533203 L38.7412109,18.6533203 C38.3105469,19.453125 37.4970703,19.890625 36.4580078,19.890625 C34.5712891,19.890625 33.3955078,18.4277344 33.3955078,16.1787109 C33.3955078,13.8886719 34.578125,12.3984375 36.4853516,12.3984375 C37.5039062,12.3984375 38.3925781,12.9042969 38.8027344,13.7177734 L38.9189453,13.7177734 L38.9189453,12.5214844 L40.5527344,12.5214844 L40.5527344,20.0273438 C40.5527344,21.7568359 39.171875,22.84375 36.9912109,22.84375 Z M42.6992188,20 L42.6992188,9.62988281 L44.3671875,9.62988281 L44.3671875,13.7314453 L44.4902344,13.7314453 C44.8457031,12.890625 45.7275391,12.3847656 46.8417969,12.3847656 C48.5166016,12.3847656 49.4873047,13.3964844 49.4873047,15.1738281 L49.4873047,20 L47.7988281,20 L47.7988281,15.5771484 C47.7988281,14.4423828 47.2519531,13.8613281 46.2128906,13.8613281 C45.0986328,13.8613281 44.3945312,14.5859375 44.3945312,15.6591797 L44.3945312,20 L42.6992188,20 Z M52.0371094,10.7373047 L53.7255859,10.7373047 L53.7255859,12.5693359 L55.3662109,12.5693359 L55.3662109,13.9228516 L53.7255859,13.9228516 L53.7255859,17.59375 C53.7255859,18.3320312 54.0400391,18.6601562 54.7509766,18.6601562 C54.9902344,18.6601562 55.1132812,18.6464844 55.3115234,18.6259766 L55.3115234,19.9521484 C55.0722656,20 54.7646484,20.0341797 54.4365234,20.0341797 C52.7207031,20.0341797 52.0371094,19.453125 52.0371094,18.0039062 L52.0371094,13.9228516 L50.8203125,13.9228516 L50.8203125,12.5693359 L52.0371094,12.5693359 L52.0371094,10.7373047 Z M56.8496094,14.6611328 C56.8496094,13.3076172 58.0800781,12.3710938 59.84375,12.3710938 C61.6210938,12.3710938 62.7353516,13.1572266 62.8583984,14.5175781 L61.265625,14.5175781 C61.1425781,13.9912109 60.6435547,13.65625 59.8505859,13.65625 C59.078125,13.65625 58.4970703,14.0253906 58.4970703,14.5654297 C58.4970703,14.9892578 58.8525391,15.2490234 59.6044922,15.4199219 L60.9238281,15.7207031 C62.3525391,16.0419922 63.015625,16.6572266 63.015625,17.7578125 C63.015625,19.1933594 61.6962891,20.1503906 59.8300781,20.1503906 C57.9638672,20.1503906 56.7880859,19.34375 56.6582031,17.9833984 L58.3330078,17.9833984 C58.4970703,18.5371094 59.0234375,18.8652344 59.8710938,18.8652344 C60.7255859,18.8652344 61.3203125,18.4892578 61.3203125,17.9355469 C61.3203125,17.5117188 60.9990234,17.2451172 60.2880859,17.0878906 L58.9619141,16.7802734 C57.5263672,16.4521484 56.8496094,15.7890625 56.8496094,14.6611328 Z" id="Notes" fill="#7B7194"></path>
            </g>
            <g id="component/button-subtle" transform="translate(180.000000, 0.000000)">
                <rect id="Background" fill="#FFFFFF" style="mix-blend-mode: screen;" x="0" y="0" width="63" height="32"></rect>
                <path d="M13.7573242,20.2460938 C10.9614258,20.2460938 9.22509766,18.2636719 9.22509766,15.0712891 C9.22509766,11.8652344 10.9545898,9.88964844 13.7504883,9.88964844 C15.9926758,9.88964844 17.722168,11.3525391 17.9272461,13.4101562 L16.190918,13.4101562 C15.9448242,12.2275391 14.9946289,11.4619141 13.7504883,11.4619141 C12.0756836,11.4619141 11.0297852,12.8427734 11.0297852,15.0644531 C11.0297852,17.2929688 12.0756836,18.6738281 13.7573242,18.6738281 C15.0083008,18.6738281 15.9584961,17.9765625 16.1977539,16.8691406 L17.934082,16.8691406 C17.7016602,18.8857422 16.0336914,20.2460938 13.7573242,20.2460938 Z M19.7797852,20 L19.7797852,9.62988281 L21.4477539,9.62988281 L21.4477539,13.7314453 L21.5708008,13.7314453 C21.9262695,12.890625 22.8081055,12.3847656 23.9223633,12.3847656 C25.597168,12.3847656 26.5678711,13.3964844 26.5678711,15.1738281 L26.5678711,20 L24.8793945,20 L24.8793945,15.5771484 C24.8793945,14.4423828 24.3325195,13.8613281 23.293457,13.8613281 C22.1791992,13.8613281 21.4750977,14.5859375 21.4750977,15.6591797 L21.4750977,20 L19.7797852,20 Z M31.1342773,18.7900391 C32.159668,18.7900391 32.925293,18.1269531 32.925293,17.2587891 L32.925293,16.6640625 L31.2368164,16.7734375 C30.2866211,16.8349609 29.8422852,17.1767578 29.8422852,17.7851562 C29.8422852,18.4140625 30.3823242,18.7900391 31.1342773,18.7900391 Z M30.6352539,20.1230469 C29.1928711,20.1230469 28.1606445,19.2480469 28.1606445,17.8808594 C28.1606445,16.5273438 29.1791992,15.7480469 30.9975586,15.6386719 L32.925293,15.5224609 L32.925293,14.8935547 C32.925293,14.1621094 32.4331055,13.7519531 31.5170898,13.7519531 C30.737793,13.7519531 30.2045898,14.0253906 30.0473633,14.53125 L28.4477539,14.53125 C28.5844727,13.2119141 29.8217773,12.3710938 31.5991211,12.3710938 C33.5200195,12.3710938 34.6000977,13.3076172 34.6000977,14.8935547 L34.6000977,20 L32.9663086,20 L32.9663086,18.9746094 L32.8500977,18.9746094 C32.4331055,19.6992188 31.612793,20.1230469 30.6352539,20.1230469 Z M36.637207,20 L36.637207,12.5214844 L38.2709961,12.5214844 L38.2709961,13.6835938 L38.387207,13.6835938 C38.5922852,12.9453125 39.3920898,12.3984375 40.3491211,12.3984375 C40.5883789,12.3984375 40.8823242,12.4257812 41.0463867,12.4736328 L41.0463867,14.0458984 C40.9165039,13.9980469 40.4516602,13.9501953 40.1850586,13.9501953 C39.0981445,13.9501953 38.3325195,14.6337891 38.3325195,15.6796875 L38.3325195,20 L36.637207,20 Z M42.9194336,10.7373047 L44.6079102,10.7373047 L44.6079102,12.5693359 L46.2485352,12.5693359 L46.2485352,13.9228516 L44.6079102,13.9228516 L44.6079102,17.59375 C44.6079102,18.3320312 44.9223633,18.6601562 45.6333008,18.6601562 C45.8725586,18.6601562 45.9956055,18.6464844 46.1938477,18.6259766 L46.1938477,19.9521484 C45.9545898,20 45.6469727,20.0341797 45.3188477,20.0341797 C43.6030273,20.0341797 42.9194336,19.453125 42.9194336,18.0039062 L42.9194336,13.9228516 L41.7026367,13.9228516 L41.7026367,12.5693359 L42.9194336,12.5693359 L42.9194336,10.7373047 Z M47.7319336,14.6611328 C47.7319336,13.3076172 48.9624023,12.3710938 50.7260742,12.3710938 C52.503418,12.3710938 53.6176758,13.1572266 53.7407227,14.5175781 L52.1479492,14.5175781 C52.0249023,13.9912109 51.5258789,13.65625 50.7329102,13.65625 C49.9604492,13.65625 49.3793945,14.0253906 49.3793945,14.5654297 C49.3793945,14.9892578 49.7348633,15.2490234 50.4868164,15.4199219 L51.8061523,15.7207031 C53.2348633,16.0419922 53.8979492,16.6572266 53.8979492,17.7578125 C53.8979492,19.1933594 52.5786133,20.1503906 50.7124023,20.1503906 C48.8461914,20.1503906 47.6704102,19.34375 47.5405273,17.9833984 L49.215332,17.9833984 C49.3793945,18.5371094 49.9057617,18.8652344 50.753418,18.8652344 C51.6079102,18.8652344 52.2026367,18.4892578 52.2026367,17.9355469 C52.2026367,17.5117188 51.8813477,17.2451172 51.1704102,17.0878906 L49.8442383,16.7802734 C48.4086914,16.4521484 47.7319336,15.7890625 47.7319336,14.6611328 Z" id="Notes" fill="#7B7194"></path>
            </g>
        </g>
    </g>
</svg>