<?xml version="1.0" encoding="UTF-8"?>
<svg width="400px" height="320px" viewBox="0 0 400 320" version="1.1" xmlns="http://www.w3.org/2000/svg" xmlns:xlink="http://www.w3.org/1999/xlink">
    <!-- Generator: Sketch 51 (57462) - http://www.bohemiancoding.com/sketch -->
    <title>snippet/projects-feedback</title>
    <desc>Created with Sketch.</desc>
    <defs>
        <rect id="path-1" x="2" y="2" width="172" height="76" rx="4"></rect>
        <filter x="-4.1%" y="-6.6%" width="108.1%" height="118.4%" filterUnits="objectBoundingBox" id="filter-2">
            <feOffset dx="0" dy="2" in="SourceAlpha" result="shadowOffsetOuter1"></feOffset>
            <feGaussianBlur stdDeviation="2" in="shadowOffsetOuter1" result="shadowBlurOuter1"></feGaussianBlur>
            <feColorMatrix values="0 0 0 0 0   0 0 0 0 0   0 0 0 0 0  0 0 0 0.2 0" type="matrix" in="shadowBlurOuter1"></feColorMatrix>
        </filter>
        <rect id="path-3" x="0" y="0" width="176" height="80" rx="4"></rect>
        <filter x="-2.6%" y="-4.4%" width="105.1%" height="111.2%" filterUnits="objectBoundingBox" id="filter-4">
            <feMorphology radius="1" operator="dilate" in="SourceAlpha" result="shadowSpreadOuter1"></feMorphology>
            <feOffset dx="0" dy="1" in="shadowSpreadOuter1" result="shadowOffsetOuter1"></feOffset>
            <feGaussianBlur stdDeviation="1" in="shadowOffsetOuter1" result="shadowBlurOuter1"></feGaussianBlur>
            <feComposite in="shadowBlurOuter1" in2="SourceAlpha" operator="out" result="shadowBlurOuter1"></feComposite>
            <feColorMatrix values="0 0 0 0 0   0 0 0 0 0   0 0 0 0 0  0 0 0 0.04 0" type="matrix" in="shadowBlurOuter1"></feColorMatrix>
        </filter>
        <circle id="path-5" cx="8" cy="8" r="8"></circle>
        <rect id="path-7" x="2" y="2" width="172" height="76" rx="4"></rect>
        <filter x="-4.1%" y="-6.6%" width="108.1%" height="118.4%" filterUnits="objectBoundingBox" id="filter-8">
            <feOffset dx="0" dy="2" in="SourceAlpha" result="shadowOffsetOuter1"></feOffset>
            <feGaussianBlur stdDeviation="2" in="shadowOffsetOuter1" result="shadowBlurOuter1"></feGaussianBlur>
            <feColorMatrix values="0 0 0 0 0   0 0 0 0 0   0 0 0 0 0  0 0 0 0.2 0" type="matrix" in="shadowBlurOuter1"></feColorMatrix>
        </filter>
        <rect id="path-9" x="0" y="0" width="176" height="80" rx="4"></rect>
        <filter x="-2.6%" y="-4.4%" width="105.1%" height="111.2%" filterUnits="objectBoundingBox" id="filter-10">
            <feMorphology radius="1" operator="dilate" in="SourceAlpha" result="shadowSpreadOuter1"></feMorphology>
            <feOffset dx="0" dy="1" in="shadowSpreadOuter1" result="shadowOffsetOuter1"></feOffset>
            <feGaussianBlur stdDeviation="1" in="shadowOffsetOuter1" result="shadowBlurOuter1"></feGaussianBlur>
            <feComposite in="shadowBlurOuter1" in2="SourceAlpha" operator="out" result="shadowBlurOuter1"></feComposite>
            <feColorMatrix values="0 0 0 0 0   0 0 0 0 0   0 0 0 0 0  0 0 0 0.04 0" type="matrix" in="shadowBlurOuter1"></feColorMatrix>
        </filter>
        <circle id="path-11" cx="8" cy="8" r="8"></circle>
        <circle id="path-13" cx="8" cy="8" r="8"></circle>
        <circle id="path-15" cx="8" cy="8" r="8"></circle>
        <rect id="path-17" x="2" y="2" width="172" height="76" rx="4"></rect>
        <filter x="-4.1%" y="-6.6%" width="108.1%" height="118.4%" filterUnits="objectBoundingBox" id="filter-18">
            <feOffset dx="0" dy="2" in="SourceAlpha" result="shadowOffsetOuter1"></feOffset>
            <feGaussianBlur stdDeviation="2" in="shadowOffsetOuter1" result="shadowBlurOuter1"></feGaussianBlur>
            <feColorMatrix values="0 0 0 0 0   0 0 0 0 0   0 0 0 0 0  0 0 0 0.2 0" type="matrix" in="shadowBlurOuter1"></feColorMatrix>
        </filter>
        <rect id="path-19" x="0" y="0" width="176" height="80" rx="4"></rect>
        <filter x="-2.6%" y="-4.4%" width="105.1%" height="111.2%" filterUnits="objectBoundingBox" id="filter-20">
            <feMorphology radius="1" operator="dilate" in="SourceAlpha" result="shadowSpreadOuter1"></feMorphology>
            <feOffset dx="0" dy="1" in="shadowSpreadOuter1" result="shadowOffsetOuter1"></feOffset>
            <feGaussianBlur stdDeviation="1" in="shadowOffsetOuter1" result="shadowBlurOuter1"></feGaussianBlur>
            <feComposite in="shadowBlurOuter1" in2="SourceAlpha" operator="out" result="shadowBlurOuter1"></feComposite>
            <feColorMatrix values="0 0 0 0 0   0 0 0 0 0   0 0 0 0 0  0 0 0 0.04 0" type="matrix" in="shadowBlurOuter1"></feColorMatrix>
        </filter>
        <circle id="path-21" cx="8" cy="8" r="8"></circle>
        <circle id="path-23" cx="8" cy="8" r="8"></circle>
        <rect id="path-25" x="2" y="2" width="172" height="76" rx="4"></rect>
        <filter x="-4.1%" y="-6.6%" width="108.1%" height="118.4%" filterUnits="objectBoundingBox" id="filter-26">
            <feOffset dx="0" dy="2" in="SourceAlpha" result="shadowOffsetOuter1"></feOffset>
            <feGaussianBlur stdDeviation="2" in="shadowOffsetOuter1" result="shadowBlurOuter1"></feGaussianBlur>
            <feColorMatrix values="0 0 0 0 0   0 0 0 0 0   0 0 0 0 0  0 0 0 0.2 0" type="matrix" in="shadowBlurOuter1"></feColorMatrix>
        </filter>
        <rect id="path-27" x="0" y="0" width="176" height="80" rx="4"></rect>
        <filter x="-2.6%" y="-4.4%" width="105.1%" height="111.2%" filterUnits="objectBoundingBox" id="filter-28">
            <feMorphology radius="1" operator="dilate" in="SourceAlpha" result="shadowSpreadOuter1"></feMorphology>
            <feOffset dx="0" dy="1" in="shadowSpreadOuter1" result="shadowOffsetOuter1"></feOffset>
            <feGaussianBlur stdDeviation="1" in="shadowOffsetOuter1" result="shadowBlurOuter1"></feGaussianBlur>
            <feComposite in="shadowBlurOuter1" in2="SourceAlpha" operator="out" result="shadowBlurOuter1"></feComposite>
            <feColorMatrix values="0 0 0 0 0   0 0 0 0 0   0 0 0 0 0  0 0 0 0.04 0" type="matrix" in="shadowBlurOuter1"></feColorMatrix>
        </filter>
        <circle id="path-29" cx="8" cy="8" r="8"></circle>
        <circle id="path-31" cx="8" cy="8" r="8"></circle>
    </defs>
    <g id="snippet/projects-feedback" stroke="none" stroke-width="1" fill="none" fill-rule="evenodd">
        <g id="Group" transform="translate(16.000000, 16.000000)">
            <g transform="translate(0.000000, 192.000000)">
                <g id="component/card">
                    <g id="Shadow">
                        <use fill="black" fill-opacity="1" filter="url(#filter-2)" xlink:href="#path-1"></use>
                        <use fill="#FFFFFF" fill-rule="evenodd" xlink:href="#path-1"></use>
                    </g>
                    <g id="Card" stroke-linecap="square">
                        <use fill="black" fill-opacity="1" filter="url(#filter-4)" xlink:href="#path-3"></use>
                        <rect stroke-opacity="0.098194067" stroke="#140B2F" stroke-width="1" fill="#FFFFFF" fill-rule="evenodd" x="-0.5" y="-0.5" width="177" height="81" rx="4"></rect>
                    </g>
                </g>
                <g transform="translate(16.000000, 48.000000)">
                    <mask id="mask-6" fill="white">
                        <use xlink:href="#path-5"></use>
                    </mask>
                    <use id="Oval-2" fill="#A5A5D8" opacity="0.300000012" xlink:href="#path-5"></use>
                    <g mask="url(#mask-6)">
                        <g transform="translate(3.333333, 2.666667)">
                            <path d="M6.8136996,0.820610181 C7.16183381,1.04219231 7.46476578,1.32900052 7.69390317,1.67047843 C8.11148249,2.29402948 8.39980267,2.99302001 8.5417865,3.72604883 C8.63823561,4.20883685 8.70070992,4.70048306 8.78633633,5.17702259 L8.84113922,5.70695002 C8.85079925,5.78660483 8.81668988,5.86477345 8.75181998,5.9116434 L6.66666667,7.33333333 L4.66666667,5 L2.65361859,7.70116048 L1.3362627,6.88363762 L0.768824341,6.54179016 C0.727798025,6.51169114 0.701791426,6.46549237 0.697585563,6.41523981 C0.655165732,5.81344439 0.656396533,5.20990248 0.701268419,4.60929629 C0.748946693,3.96916645 0.871461281,3.33758359 1.0663447,2.72726796 C1.24962413,2.13063993 1.56141134,1.5820815 1.98022736,1.11938282 C2.44625999,0.591583034 3.08196767,0.240194557 3.78170922,0.123610715 C4.24352036,0.0485550114 4.73012818,0.030525994 5.1950906,0 C5.21250152,0.000412454479 5.22955301,0.00534851917 5.2445461,0.0143163755 C5.26740385,0.0259411521 5.28746787,0.0423854108 5.30331759,0.0624848829 C5.37114247,0.163086443 5.43070344,0.268892038 5.48141454,0.378860755 C5.49834264,0.431711963 5.53341306,0.477164069 5.58046342,0.507230503 C5.62527321,0.528608531 5.67493371,0.537601167 5.72417192,0.533253564 C6.10563395,0.530083891 6.48207588,0.629368269 6.8136996,0.820610181 Z" id="Shape" fill="#7878AB" fill-rule="nonzero"></path>
                            <path d="M9.33333333,13.3333333 L0,13.3333333 C0,12.6729402 0,7.83333333 2.66666667,7.83333333 C2.66666667,7.83333333 3.54022989,10 4.50574713,10 C5.47126437,10 6.66666667,7.83333333 6.66666667,7.83333333 C8.44444444,7.83333333 9.33333333,9.66666667 9.33333333,13.3333333 Z" id="Shape" fill="#A5A5D8" fill-rule="nonzero"></path>
                            <path d="M6.66666667,7.99996537 C6.66666667,9.32817214 5.99999976,10.3333333 4.66666642,10.3333333 C3.35375564,10.3333333 2.69667727,9.29765849 2.66666667,7.99996537 C2.66666667,7.99996537 6.66666667,7.99996537 6.66666667,7.99996537 Z" id="Shape" fill="#7878AB" fill-rule="nonzero"></path>
                            <path d="M6,8.00644665 C6,8.96085813 5.55555561,9.67666674 4.66666683,9.67666674 C3.79139308,9.67666674 3.35334072,8.93893189 3.33333366,8.00644665 C3.33333366,8.00644665 3.33333355,7.55985332 3.33333333,6.66666667 L6,6.66666667 C6,7.55985332 6,8.00644665 6,8.00644665 Z" id="Shape" fill="#B6B6E9" fill-rule="nonzero"></path>
                            <path d="M7,5.66666667 L6.66666667,7.33333333 L6,7.33333333 L6,6.33333333 C6.00761097,6.32551208 6.3409443,6.10328986 7,5.66666667 Z" id="Shape" fill="#636396" fill-rule="nonzero"></path>
                            <path d="M2.33333333,5.66666667 C2.53604161,5.98737324 3.30976386,6.63417256 3.33333333,6.65466774 L3.33333333,7.33333333 L2.66666667,7.66666667 C2.43582773,6.43259872 2.32471662,5.76593205 2.33333333,5.66666667 Z" id="Path" fill="#636396" fill-rule="evenodd"></path>
                            <path d="M5.66666667,2 L6.5707355,2.90766716 L7,3.35569401 C7.0191605,3.35569401 7.0191605,4.12601823 7,5.66666667 C6.77777778,6.33333333 6.55555556,6.77777778 6.33333333,7 C6,7.33333333 4.07057568,7.10256329 3.33333333,7 C2.95901165,6.94792531 2.5143604,6.66666667 2.42384687,6 C2.36350451,5.55555556 2.33333333,5 2.33333333,4.33333333 C2.87698772,4.07879349 3.43254327,3.75291372 4,3.35569401 C4.56745673,2.9584743 5.12301228,2.5065763 5.66666667,2 Z" id="Shape" fill="#C8C8F7" fill-rule="nonzero"></path>
                            <path d="M3.82860937,4.37927619 C3.93616166,4.49444361 3.99329187,4.59299354 4,4.67492598 C3.99665176,4.72830853 3.97951275,4.77975047 3.95025449,4.82423484 C3.89213736,4.92583566 3.78725755,4.99160502 3.67000426,4.9999777 C3.610026,5.00068003 3.550828,4.98477964 3.49895657,4.95403485 C3.40201814,4.8950874 3.34000509,4.79230729 3.33335857,4.67957356 C3.33256553,4.61440502 3.35048012,4.55059461 3.38497779,4.49570972 C3.44068462,4.39736732 3.54401582,4.33581362 3.65756168,4.33333333 C3.71744937,4.33339859 3.77644665,4.34924507 3.82860937,4.37927619 Z M5.48809386,4.36623121 C5.59211061,4.42379275 5.65970719,4.53137588 5.66664151,4.65039816 C5.66743228,4.71600156 5.64956866,4.78023777 5.61516911,4.83548891 C5.55962074,4.93448753 5.45658346,4.99645197 5.34336058,4.99894881 C5.28233044,5.0036806 5.22094067,4.99238354 5.1651549,4.96615506 C5.06642182,4.90892339 5.00382543,4.80418624 5.00002794,4.68986233 C4.99778358,4.50782191 5.13101824,4.35456526 5.30988817,4.33343746 C5.34982279,4.33239522 5.40922469,4.34332647 5.48809386,4.36623121 Z" id="Shape" fill="#7272A5" fill-rule="nonzero"></path>
                            <path d="M3.33333333,7 L3.33333333,7.33333333 C4,7.66666667 4.55555556,7.83333333 5,7.83333333 C5.44444444,7.83333333 5.77777778,7.72222222 6,7.5 L6,7.16666667 C5.44444444,7.16666667 5,7.16666667 4.66666667,7.16666667 C4.44444444,7.16666667 4,7.11111111 3.33333333,7 Z" id="Path-2" fill="#9898CB" fill-rule="evenodd"></path>
                        </g>
                    </g>
                </g>
                <path d="M22.9042969,25.0136719 L20.9082031,32 L19.2470703,32 L16.6015625,22.1357422 L18.4404297,22.1357422 L20.1289062,29.4775391 L20.2314453,29.4775391 L22.1728516,22.1357422 L23.7382812,22.1357422 L25.7070312,29.4775391 L25.8027344,29.4775391 L27.4912109,22.1357422 L29.3164062,22.1357422 L26.6708984,32 L25.0166016,32 L23.0068359,25.0136719 L22.9042969,25.0136719 Z M34.0947266,25.7177734 C33.0830078,25.7177734 32.3720703,26.4423828 32.296875,27.5361328 L35.8173828,27.5361328 C35.7832031,26.4287109 35.1132812,25.7177734 34.0947266,25.7177734 Z M35.8310547,29.9423828 L37.4375,29.9423828 C37.1162109,31.3027344 35.8789062,32.1503906 34.1152344,32.1503906 C31.9140625,32.1503906 30.5878906,30.6943359 30.5878906,28.2880859 C30.5878906,25.8818359 31.9345703,24.3710938 34.1015625,24.3710938 C36.234375,24.3710938 37.5126953,25.7861328 37.5126953,28.1445312 L37.5126953,28.6914062 L32.2900391,28.6914062 L32.2900391,28.7802734 C32.3310547,30.0244141 33.0488281,30.8037109 34.1630859,30.8037109 C35.0039062,30.8037109 35.5849609,30.4960938 35.8310547,29.9423828 Z M43.3710938,32.1230469 C42.3251953,32.1230469 41.4570312,31.6376953 41.0332031,30.8173828 L40.9169922,30.8173828 L40.9169922,32 L39.2832031,32 L39.2832031,21.6298828 L40.9785156,21.6298828 L40.9785156,25.7109375 L41.0947266,25.7109375 C41.484375,24.8974609 42.3457031,24.3984375 43.3710938,24.3984375 C45.2646484,24.3984375 46.4404297,25.8681641 46.4404297,28.2607422 C46.4404297,30.6396484 45.2578125,32.1230469 43.3710938,32.1230469 Z M42.8378906,25.8408203 C41.6826172,25.8408203 40.9511719,26.7705078 40.9511719,28.2607422 C40.9511719,29.7509766 41.6757812,30.6806641 42.8378906,30.6806641 C44,30.6806641 44.6972656,29.7646484 44.6972656,28.2607422 C44.6972656,26.7568359 43.9931641,25.8408203 42.8378906,25.8408203 Z M47.9716797,26.6611328 C47.9716797,25.3076172 49.2021484,24.3710938 50.9658203,24.3710938 C52.7431641,24.3710938 53.8574219,25.1572266 53.9804688,26.5175781 L52.3876953,26.5175781 C52.2646484,25.9912109 51.765625,25.65625 50.9726562,25.65625 C50.2001953,25.65625 49.6191406,26.0253906 49.6191406,26.5654297 C49.6191406,26.9892578 49.9746094,27.2490234 50.7265625,27.4199219 L52.0458984,27.7207031 C53.4746094,28.0419922 54.1376953,28.6572266 54.1376953,29.7578125 C54.1376953,31.1933594 52.8183594,32.1503906 50.9521484,32.1503906 C49.0859375,32.1503906 47.9101562,31.34375 47.7802734,29.9833984 L49.4550781,29.9833984 C49.6191406,30.5371094 50.1455078,30.8652344 50.9931641,30.8652344 C51.8476562,30.8652344 52.4423828,30.4892578 52.4423828,29.9355469 C52.4423828,29.5117188 52.1210938,29.2451172 51.4101562,29.0878906 L50.0839844,28.7802734 C48.6484375,28.4521484 47.9716797,27.7890625 47.9716797,26.6611328 Z M55.8740234,32 L55.8740234,24.5214844 L57.5625,24.5214844 L57.5625,32 L55.8740234,32 Z M56.7148438,23.3046875 C56.0996094,23.3046875 55.6689453,22.9082031 55.6689453,22.3681641 C55.6689453,21.828125 56.0996094,21.4316406 56.7148438,21.4316406 C57.3369141,21.4316406 57.7607422,21.828125 57.7607422,22.3681641 C57.7607422,22.9082031 57.3369141,23.3046875 56.7148438,23.3046875 Z M60.2011719,22.7373047 L61.8896484,22.7373047 L61.8896484,24.5693359 L63.5302734,24.5693359 L63.5302734,25.9228516 L61.8896484,25.9228516 L61.8896484,29.59375 C61.8896484,30.3320312 62.2041016,30.6601562 62.9150391,30.6601562 C63.1542969,30.6601562 63.2773438,30.6464844 63.4755859,30.6259766 L63.4755859,31.9521484 C63.2363281,32 62.9287109,32.0341797 62.6005859,32.0341797 C60.8847656,32.0341797 60.2011719,31.453125 60.2011719,30.0039062 L60.2011719,25.9228516 L58.984375,25.9228516 L58.984375,24.5693359 L60.2011719,24.5693359 L60.2011719,22.7373047 Z M68.3222656,25.7177734 C67.3105469,25.7177734 66.5996094,26.4423828 66.5244141,27.5361328 L70.0449219,27.5361328 C70.0107422,26.4287109 69.3408203,25.7177734 68.3222656,25.7177734 Z M70.0585938,29.9423828 L71.6650391,29.9423828 C71.34375,31.3027344 70.1064453,32.1503906 68.3427734,32.1503906 C66.1416016,32.1503906 64.8154297,30.6943359 64.8154297,28.2880859 C64.8154297,25.8818359 66.1621094,24.3710938 68.3291016,24.3710938 C70.4619141,24.3710938 71.7402344,25.7861328 71.7402344,28.1445312 L71.7402344,28.6914062 L66.5175781,28.6914062 L66.5175781,28.7802734 C66.5585938,30.0244141 67.2763672,30.8037109 68.390625,30.8037109 C69.2314453,30.8037109 69.8125,30.4960938 70.0585938,29.9423828 Z M77.7148438,32 L77.7148438,25.9228516 L76.4980469,25.9228516 L76.4980469,24.5693359 L77.7148438,24.5693359 L77.7148438,23.8242188 C77.7148438,22.3066406 78.5009766,21.6914062 80.1416016,21.6914062 C80.4423828,21.6914062 80.7363281,21.71875 81.0371094,21.7666016 L81.0371094,23.03125 C80.8867188,22.9970703 80.6337891,22.9765625 80.3876953,22.9765625 C79.7246094,22.9765625 79.3759766,23.2636719 79.3759766,23.9335938 L79.3759766,24.5693359 L80.9960938,24.5693359 L80.9960938,25.9228516 L79.4033203,25.9228516 L79.4033203,32 L77.7148438,32 Z M85.7880859,25.7177734 C84.7763672,25.7177734 84.0654297,26.4423828 83.9902344,27.5361328 L87.5107422,27.5361328 C87.4765625,26.4287109 86.8066406,25.7177734 85.7880859,25.7177734 Z M87.5244141,29.9423828 L89.1308594,29.9423828 C88.8095703,31.3027344 87.5722656,32.1503906 85.8085938,32.1503906 C83.6074219,32.1503906 82.28125,30.6943359 82.28125,28.2880859 C82.28125,25.8818359 83.6279297,24.3710938 85.7949219,24.3710938 C87.9277344,24.3710938 89.2060547,25.7861328 89.2060547,28.1445312 L89.2060547,28.6914062 L83.9833984,28.6914062 L83.9833984,28.7802734 C84.0244141,30.0244141 84.7421875,30.8037109 85.8564453,30.8037109 C86.6972656,30.8037109 87.2783203,30.4960938 87.5244141,29.9423828 Z M94.0458984,25.7177734 C93.0341797,25.7177734 92.3232422,26.4423828 92.2480469,27.5361328 L95.7685547,27.5361328 C95.734375,26.4287109 95.0644531,25.7177734 94.0458984,25.7177734 Z M95.7822266,29.9423828 L97.3886719,29.9423828 C97.0673828,31.3027344 95.8300781,32.1503906 94.0664062,32.1503906 C91.8652344,32.1503906 90.5390625,30.6943359 90.5390625,28.2880859 C90.5390625,25.8818359 91.8857422,24.3710938 94.0527344,24.3710938 C96.1855469,24.3710938 97.4638672,25.7861328 97.4638672,28.1445312 L97.4638672,28.6914062 L92.2412109,28.6914062 L92.2412109,28.7802734 C92.2822266,30.0244141 93,30.8037109 94.1142578,30.8037109 C94.9550781,30.8037109 95.5361328,30.4960938 95.7822266,29.9423828 Z M101.873047,32.1230469 C99.9794922,32.1230469 98.796875,30.6328125 98.796875,28.2539062 C98.796875,25.8886719 99.9863281,24.3984375 101.873047,24.3984375 C102.898438,24.3984375 103.746094,24.890625 104.142578,25.7109375 L104.258789,25.7109375 L104.258789,21.6298828 L105.954102,21.6298828 L105.954102,32 L104.313477,32 L104.313477,30.8173828 L104.197266,30.8173828 C103.773438,31.6376953 102.912109,32.1230469 101.873047,32.1230469 Z M102.399414,25.8408203 C101.244141,25.8408203 100.533203,26.7568359 100.533203,28.2607422 C100.533203,29.7714844 101.237305,30.6806641 102.399414,30.6806641 C103.568359,30.6806641 104.279297,29.7646484 104.279297,28.2607422 C104.279297,26.7705078 103.561523,25.8408203 102.399414,25.8408203 Z M112.25,32.1230469 C111.204102,32.1230469 110.335938,31.6376953 109.912109,30.8173828 L109.795898,30.8173828 L109.795898,32 L108.162109,32 L108.162109,21.6298828 L109.857422,21.6298828 L109.857422,25.7109375 L109.973633,25.7109375 C110.363281,24.8974609 111.224609,24.3984375 112.25,24.3984375 C114.143555,24.3984375 115.319336,25.8681641 115.319336,28.2607422 C115.319336,30.6396484 114.136719,32.1230469 112.25,32.1230469 Z M111.716797,25.8408203 C110.561523,25.8408203 109.830078,26.7705078 109.830078,28.2607422 C109.830078,29.7509766 110.554688,30.6806641 111.716797,30.6806641 C112.878906,30.6806641 113.576172,29.7646484 113.576172,28.2607422 C113.576172,26.7568359 112.87207,25.8408203 111.716797,25.8408203 Z M119.578125,30.7900391 C120.603516,30.7900391 121.369141,30.1269531 121.369141,29.2587891 L121.369141,28.6640625 L119.680664,28.7734375 C118.730469,28.8349609 118.286133,29.1767578 118.286133,29.7851562 C118.286133,30.4140625 118.826172,30.7900391 119.578125,30.7900391 Z M119.079102,32.1230469 C117.636719,32.1230469 116.604492,31.2480469 116.604492,29.8808594 C116.604492,28.5273438 117.623047,27.7480469 119.441406,27.6386719 L121.369141,27.5224609 L121.369141,26.8935547 C121.369141,26.1621094 120.876953,25.7519531 119.960938,25.7519531 C119.181641,25.7519531 118.648438,26.0253906 118.491211,26.53125 L116.891602,26.53125 C117.02832,25.2119141 118.265625,24.3710938 120.042969,24.3710938 C121.963867,24.3710938 123.043945,25.3076172 123.043945,26.8935547 L123.043945,32 L121.410156,32 L121.410156,30.9746094 L121.293945,30.9746094 C120.876953,31.6992188 120.056641,32.1230469 119.079102,32.1230469 Z M131.541016,27.0371094 L129.927734,27.0371094 C129.770508,26.3125 129.209961,25.7929688 128.280273,25.7929688 C127.118164,25.7929688 126.427734,26.6884766 126.427734,28.2402344 C126.427734,29.8125 127.125,30.7285156 128.280273,30.7285156 C129.162109,30.7285156 129.75,30.3115234 129.927734,29.5322266 L131.541016,29.5322266 C131.356445,31.0976562 130.180664,32.1503906 128.287109,32.1503906 C126.038086,32.1503906 124.711914,30.7011719 124.711914,28.2402344 C124.711914,25.8134766 126.03125,24.3710938 128.280273,24.3710938 C130.201172,24.3710938 131.363281,25.4648438 131.541016,27.0371094 Z M135.041016,27.5703125 L137.802734,24.5214844 L139.771484,24.5214844 L136.791016,27.7275391 L139.976562,32 L137.925781,32 L135.526367,28.7939453 L134.924805,29.3955078 L134.924805,32 L133.229492,32 L133.229492,21.6298828 L134.924805,21.6298828 L134.924805,27.5703125 L135.041016,27.5703125 Z" id="Website-feedback" fill="#24124D"></path>
            </g>
            <g transform="translate(192.000000, 96.000000)">
                <g id="component/card">
                    <g id="Shadow">
                        <use fill="black" fill-opacity="1" filter="url(#filter-8)" xlink:href="#path-7"></use>
                        <use fill="#FFFFFF" fill-rule="evenodd" xlink:href="#path-7"></use>
                    </g>
                    <g id="Card" stroke-linecap="square">
                        <use fill="black" fill-opacity="1" filter="url(#filter-10)" xlink:href="#path-9"></use>
                        <rect stroke-opacity="0.098194067" stroke="#140B2F" stroke-width="1" fill="#FFFFFF" fill-rule="evenodd" x="-0.5" y="-0.5" width="177" height="81" rx="4"></rect>
                    </g>
                </g>
                <g transform="translate(16.000000, 48.000000)">
                    <mask id="mask-12" fill="white">
                        <use xlink:href="#path-11"></use>
                    </mask>
                    <use id="Oval-2" fill="#A5A5D8" opacity="0.300000012" xlink:href="#path-11"></use>
                    <g mask="url(#mask-12)">
                        <g transform="translate(3.333333, 2.666667)">
                            <path d="M6.8136996,0.820610181 C7.16183381,1.04219231 7.46476578,1.32900052 7.69390317,1.67047843 C8.11148249,2.29402948 8.39980267,2.99302001 8.5417865,3.72604883 C8.63823561,4.20883685 8.70070992,4.70048306 8.78633633,5.17702259 L8.84113922,5.70695002 C8.85079925,5.78660483 8.81668988,5.86477345 8.75181998,5.9116434 L6.66666667,7.33333333 L4.66666667,5 L2.65361859,7.70116048 L1.3362627,6.88363762 L0.768824341,6.54179016 C0.727798025,6.51169114 0.701791426,6.46549237 0.697585563,6.41523981 C0.655165732,5.81344439 0.656396533,5.20990248 0.701268419,4.60929629 C0.748946693,3.96916645 0.871461281,3.33758359 1.0663447,2.72726796 C1.24962413,2.13063993 1.56141134,1.5820815 1.98022736,1.11938282 C2.44625999,0.591583034 3.08196767,0.240194557 3.78170922,0.123610715 C4.24352036,0.0485550114 4.73012818,0.030525994 5.1950906,0 C5.21250152,0.000412454479 5.22955301,0.00534851917 5.2445461,0.0143163755 C5.26740385,0.0259411521 5.28746787,0.0423854108 5.30331759,0.0624848829 C5.37114247,0.163086443 5.43070344,0.268892038 5.48141454,0.378860755 C5.49834264,0.431711963 5.53341306,0.477164069 5.58046342,0.507230503 C5.62527321,0.528608531 5.67493371,0.537601167 5.72417192,0.533253564 C6.10563395,0.530083891 6.48207588,0.629368269 6.8136996,0.820610181 Z" id="Shape" fill="#7878AB" fill-rule="nonzero"></path>
                            <path d="M9.33333333,13.3333333 L0,13.3333333 C0,12.6729402 0,7.83333333 2.66666667,7.83333333 C2.66666667,7.83333333 3.54022989,10 4.50574713,10 C5.47126437,10 6.66666667,7.83333333 6.66666667,7.83333333 C8.44444444,7.83333333 9.33333333,9.66666667 9.33333333,13.3333333 Z" id="Shape" fill="#A5A5D8" fill-rule="nonzero"></path>
                            <path d="M6.66666667,7.99996537 C6.66666667,9.32817214 5.99999976,10.3333333 4.66666642,10.3333333 C3.35375564,10.3333333 2.69667727,9.29765849 2.66666667,7.99996537 C2.66666667,7.99996537 6.66666667,7.99996537 6.66666667,7.99996537 Z" id="Shape" fill="#7878AB" fill-rule="nonzero"></path>
                            <path d="M6,8.00644665 C6,8.96085813 5.55555561,9.67666674 4.66666683,9.67666674 C3.79139308,9.67666674 3.35334072,8.93893189 3.33333366,8.00644665 C3.33333366,8.00644665 3.33333355,7.55985332 3.33333333,6.66666667 L6,6.66666667 C6,7.55985332 6,8.00644665 6,8.00644665 Z" id="Shape" fill="#B6B6E9" fill-rule="nonzero"></path>
                            <path d="M7,5.66666667 L6.66666667,7.33333333 L6,7.33333333 L6,6.33333333 C6.00761097,6.32551208 6.3409443,6.10328986 7,5.66666667 Z" id="Shape" fill="#636396" fill-rule="nonzero"></path>
                            <path d="M2.33333333,5.66666667 C2.53604161,5.98737324 3.30976386,6.63417256 3.33333333,6.65466774 L3.33333333,7.33333333 L2.66666667,7.66666667 C2.43582773,6.43259872 2.32471662,5.76593205 2.33333333,5.66666667 Z" id="Path" fill="#636396" fill-rule="evenodd"></path>
                            <path d="M5.66666667,2 L6.5707355,2.90766716 L7,3.35569401 C7.0191605,3.35569401 7.0191605,4.12601823 7,5.66666667 C6.77777778,6.33333333 6.55555556,6.77777778 6.33333333,7 C6,7.33333333 4.07057568,7.10256329 3.33333333,7 C2.95901165,6.94792531 2.5143604,6.66666667 2.42384687,6 C2.36350451,5.55555556 2.33333333,5 2.33333333,4.33333333 C2.87698772,4.07879349 3.43254327,3.75291372 4,3.35569401 C4.56745673,2.9584743 5.12301228,2.5065763 5.66666667,2 Z" id="Shape" fill="#C8C8F7" fill-rule="nonzero"></path>
                            <path d="M3.82860937,4.37927619 C3.93616166,4.49444361 3.99329187,4.59299354 4,4.67492598 C3.99665176,4.72830853 3.97951275,4.77975047 3.95025449,4.82423484 C3.89213736,4.92583566 3.78725755,4.99160502 3.67000426,4.9999777 C3.610026,5.00068003 3.550828,4.98477964 3.49895657,4.95403485 C3.40201814,4.8950874 3.34000509,4.79230729 3.33335857,4.67957356 C3.33256553,4.61440502 3.35048012,4.55059461 3.38497779,4.49570972 C3.44068462,4.39736732 3.54401582,4.33581362 3.65756168,4.33333333 C3.71744937,4.33339859 3.77644665,4.34924507 3.82860937,4.37927619 Z M5.48809386,4.36623121 C5.59211061,4.42379275 5.65970719,4.53137588 5.66664151,4.65039816 C5.66743228,4.71600156 5.64956866,4.78023777 5.61516911,4.83548891 C5.55962074,4.93448753 5.45658346,4.99645197 5.34336058,4.99894881 C5.28233044,5.0036806 5.22094067,4.99238354 5.1651549,4.96615506 C5.06642182,4.90892339 5.00382543,4.80418624 5.00002794,4.68986233 C4.99778358,4.50782191 5.13101824,4.35456526 5.30988817,4.33343746 C5.34982279,4.33239522 5.40922469,4.34332647 5.48809386,4.36623121 Z" id="Shape" fill="#7272A5" fill-rule="nonzero"></path>
                            <path d="M3.33333333,7 L3.33333333,7.33333333 C4,7.66666667 4.55555556,7.83333333 5,7.83333333 C5.44444444,7.83333333 5.77777778,7.72222222 6,7.5 L6,7.16666667 C5.44444444,7.16666667 5,7.16666667 4.66666667,7.16666667 C4.44444444,7.16666667 4,7.11111111 3.33333333,7 Z" id="Path-2" fill="#9898CB" fill-rule="evenodd"></path>
                        </g>
                    </g>
                </g>
                <g transform="translate(36.000000, 48.000000)">
                    <mask id="mask-14" fill="white">
                        <use xlink:href="#path-13"></use>
                    </mask>
                    <use id="Oval-2" fill="#A5A5D8" opacity="0.300000012" xlink:href="#path-13"></use>
                    <g mask="url(#mask-14)">
                        <g transform="translate(3.333333, 2.666667)">
                            <path d="M6.8136996,0.820610181 C7.16183381,1.04219231 7.46476578,1.32900052 7.69390317,1.67047843 C8.11148249,2.29402948 8.39980267,2.99302001 8.5417865,3.72604883 C8.63823561,4.20883685 8.70070992,4.70048306 8.78633633,5.17702259 L8.84113922,5.70695002 C8.85079925,5.78660483 8.81668988,5.86477345 8.75181998,5.9116434 L6.66666667,7.33333333 L4.66666667,5 L2.65361859,7.70116048 L1.3362627,6.88363762 L0.768824341,6.54179016 C0.727798025,6.51169114 0.701791426,6.46549237 0.697585563,6.41523981 C0.655165732,5.81344439 0.656396533,5.20990248 0.701268419,4.60929629 C0.748946693,3.96916645 0.871461281,3.33758359 1.0663447,2.72726796 C1.24962413,2.13063993 1.56141134,1.5820815 1.98022736,1.11938282 C2.44625999,0.591583034 3.08196767,0.240194557 3.78170922,0.123610715 C4.24352036,0.0485550114 4.73012818,0.030525994 5.1950906,0 C5.21250152,0.000412454479 5.22955301,0.00534851917 5.2445461,0.0143163755 C5.26740385,0.0259411521 5.28746787,0.0423854108 5.30331759,0.0624848829 C5.37114247,0.163086443 5.43070344,0.268892038 5.48141454,0.378860755 C5.49834264,0.431711963 5.53341306,0.477164069 5.58046342,0.507230503 C5.62527321,0.528608531 5.67493371,0.537601167 5.72417192,0.533253564 C6.10563395,0.530083891 6.48207588,0.629368269 6.8136996,0.820610181 Z" id="Shape" fill="#7878AB" fill-rule="nonzero"></path>
                            <path d="M9.33333333,13.3333333 L0,13.3333333 C0,12.6729402 0,7.83333333 2.66666667,7.83333333 C2.66666667,7.83333333 3.54022989,10 4.50574713,10 C5.47126437,10 6.66666667,7.83333333 6.66666667,7.83333333 C8.44444444,7.83333333 9.33333333,9.66666667 9.33333333,13.3333333 Z" id="Shape" fill="#A5A5D8" fill-rule="nonzero"></path>
                            <path d="M6.66666667,7.99996537 C6.66666667,9.32817214 5.99999976,10.3333333 4.66666642,10.3333333 C3.35375564,10.3333333 2.69667727,9.29765849 2.66666667,7.99996537 C2.66666667,7.99996537 6.66666667,7.99996537 6.66666667,7.99996537 Z" id="Shape" fill="#7878AB" fill-rule="nonzero"></path>
                            <path d="M6,8.00644665 C6,8.96085813 5.55555561,9.67666674 4.66666683,9.67666674 C3.79139308,9.67666674 3.35334072,8.93893189 3.33333366,8.00644665 C3.33333366,8.00644665 3.33333355,7.55985332 3.33333333,6.66666667 L6,6.66666667 C6,7.55985332 6,8.00644665 6,8.00644665 Z" id="Shape" fill="#B6B6E9" fill-rule="nonzero"></path>
                            <path d="M7,5.66666667 L6.66666667,7.33333333 L6,7.33333333 L6,6.33333333 C6.00761097,6.32551208 6.3409443,6.10328986 7,5.66666667 Z" id="Shape" fill="#636396" fill-rule="nonzero"></path>
                            <path d="M2.33333333,5.66666667 C2.53604161,5.98737324 3.30976386,6.63417256 3.33333333,6.65466774 L3.33333333,7.33333333 L2.66666667,7.66666667 C2.43582773,6.43259872 2.32471662,5.76593205 2.33333333,5.66666667 Z" id="Path" fill="#636396" fill-rule="evenodd"></path>
                            <path d="M5.66666667,2 L6.5707355,2.90766716 L7,3.35569401 C7.0191605,3.35569401 7.0191605,4.12601823 7,5.66666667 C6.77777778,6.33333333 6.55555556,6.77777778 6.33333333,7 C6,7.33333333 4.07057568,7.10256329 3.33333333,7 C2.95901165,6.94792531 2.5143604,6.66666667 2.42384687,6 C2.36350451,5.55555556 2.33333333,5 2.33333333,4.33333333 C2.87698772,4.07879349 3.43254327,3.75291372 4,3.35569401 C4.56745673,2.9584743 5.12301228,2.5065763 5.66666667,2 Z" id="Shape" fill="#C8C8F7" fill-rule="nonzero"></path>
                            <path d="M3.82860937,4.37927619 C3.93616166,4.49444361 3.99329187,4.59299354 4,4.67492598 C3.99665176,4.72830853 3.97951275,4.77975047 3.95025449,4.82423484 C3.89213736,4.92583566 3.78725755,4.99160502 3.67000426,4.9999777 C3.610026,5.00068003 3.550828,4.98477964 3.49895657,4.95403485 C3.40201814,4.8950874 3.34000509,4.79230729 3.33335857,4.67957356 C3.33256553,4.61440502 3.35048012,4.55059461 3.38497779,4.49570972 C3.44068462,4.39736732 3.54401582,4.33581362 3.65756168,4.33333333 C3.71744937,4.33339859 3.77644665,4.34924507 3.82860937,4.37927619 Z M5.48809386,4.36623121 C5.59211061,4.42379275 5.65970719,4.53137588 5.66664151,4.65039816 C5.66743228,4.71600156 5.64956866,4.78023777 5.61516911,4.83548891 C5.55962074,4.93448753 5.45658346,4.99645197 5.34336058,4.99894881 C5.28233044,5.0036806 5.22094067,4.99238354 5.1651549,4.96615506 C5.06642182,4.90892339 5.00382543,4.80418624 5.00002794,4.68986233 C4.99778358,4.50782191 5.13101824,4.35456526 5.30988817,4.33343746 C5.34982279,4.33239522 5.40922469,4.34332647 5.48809386,4.36623121 Z" id="Shape" fill="#7272A5" fill-rule="nonzero"></path>
                            <path d="M3.33333333,7 L3.33333333,7.33333333 C4,7.66666667 4.55555556,7.83333333 5,7.83333333 C5.44444444,7.83333333 5.77777778,7.72222222 6,7.5 L6,7.16666667 C5.44444444,7.16666667 5,7.16666667 4.66666667,7.16666667 C4.44444444,7.16666667 4,7.11111111 3.33333333,7 Z" id="Path-2" fill="#9898CB" fill-rule="evenodd"></path>
                        </g>
                    </g>
                </g>
                <g transform="translate(56.000000, 48.000000)">
                    <mask id="mask-16" fill="white">
                        <use xlink:href="#path-15"></use>
                    </mask>
                    <use id="Oval-2" fill="#A5A5D8" opacity="0.300000012" xlink:href="#path-15"></use>
                    <g mask="url(#mask-16)">
                        <g transform="translate(2.666667, 3.333333)">
                            <path d="M7.83333333,0.666666667 C8.18146753,0.888248798 7.83333333,3 8,3.66666667 C8.13819519,4.21944742 7.2493063,3.66389187 5.33333333,2 C4.33813464,2.56734456 3.67146797,2.90067789 3.33333333,3 C2.0742573,3.36983519 2.24071936,2.29003882 2.33333333,2 C2.51661276,1.40337197 2.24785065,1.12936535 2.66666667,0.666666667 C3.1326993,0.138866884 3.74863433,0.240194557 4.44837589,0.123610715 C4.91018702,0.0485550114 5.39679485,0.030525994 5.86175727,0 C5.87916818,0.000412454479 5.89621967,0.00534851917 5.91121277,0.0143163755 C5.93407052,0.0259411521 5.95413454,0.0423854108 5.96998426,0.0624848829 C6.03780913,0.163086443 6.0973701,0.268892038 6.14808121,0.378860755 C6.16500931,0.431711963 6.20007972,0.477164069 6.24713008,0.507230503 C6.29193987,0.528608531 6.34160038,0.537601167 6.39083859,0.533253564 C6.77230062,0.530083891 7.50170961,0.475424755 7.83333333,0.666666667 Z" id="Shape" fill="#7E7EB1" fill-rule="nonzero"></path>
                            <path d="M10.6666667,13 L0,13 C0,12.3396068 0.333333333,7.5 3,7.5 C3,7.5 4.36781609,9.66666667 5.33333333,9.66666667 C6.29885057,9.66666667 7.66666667,7.5 7.66666667,7.5 C9.44444444,7.5 10.4444444,9.33333333 10.6666667,13 Z" id="Shape" fill="#A5A5D8" fill-rule="nonzero"></path>
                            <path d="M7.66666667,7.66663204 C7.66666667,8.77775469 6.88888889,9.88887735 5.33333333,11 C3.77777778,9.88887735 3,8.77775469 3,7.66663204 C3,7.66663204 7.66666667,7.66663204 7.66666667,7.66663204 Z" id="Shape" fill="#7878AB" fill-rule="nonzero"></path>
                            <path d="M6.66666667,7.33977999 C6.66666667,8.29419146 6.22222228,9.01000007 5.3333335,9.01000007 C4.45805975,9.01000007 4.02000739,8.27226522 4.00000033,7.33977999 C4.00000033,7.33977999 4.00000022,6.89318666 4,6 L6.66666667,6 C6.66666667,6.89318666 6.66666667,7.33977999 6.66666667,7.33977999 Z" id="Shape" fill="#B6B6E9" fill-rule="nonzero"></path>
                            <path d="M5,1.83333333 C5.79795627,1.68825038 6.5,1.83333333 7,2 C7.5,2.16666667 7.5,2.66666667 7.5,2.66666667 C7.5,2.66666667 7.52687308,4.40434255 7.33333333,5.33333333 C7.13979359,6.26232411 7,6.33333333 6.66666667,6.66666667 C6.33333333,7 4.33333333,7 4,6.66666667 C3.66666667,6.33333333 3.42384687,6 3.33333333,5.33333333 C3.2428198,4.66666667 3.16666667,3 3.33333333,2.66666667 C3.5,2.33333333 4.20204373,1.97841629 5,1.83333333 Z" id="Shape" fill="#C8C8F7" fill-rule="nonzero"></path>
                            <path d="M4.49527604,3.71260952 C4.60282833,3.82777695 4.65995854,3.92632688 4.66666667,4.00825931 C4.66331842,4.06164186 4.64617942,4.1130838 4.61692116,4.15756817 C4.55880403,4.25916899 4.45392421,4.32493835 4.33667093,4.33331103 C4.27669267,4.33401336 4.21749467,4.31811297 4.16562323,4.28736818 C4.0686848,4.22842073 4.00667176,4.12564063 4.00002523,4.0129069 C3.9992322,3.94773836 4.01714678,3.88392795 4.05164446,3.82904305 C4.10735128,3.73070065 4.21068249,3.66914695 4.32422835,3.66666667 C4.38411604,3.66673193 4.44311331,3.6825784 4.49527604,3.71260952 Z M6.15476053,3.69956454 C6.25877728,3.75712608 6.32637386,3.86470921 6.33330817,3.9837315 C6.33409895,4.0493349 6.31623532,4.1135711 6.28183578,4.16882224 C6.22628741,4.26782087 6.12325013,4.32978531 6.01002725,4.33228214 C5.9489971,4.33701393 5.88760733,4.32571687 5.83182156,4.29948839 C5.73308849,4.24225673 5.6704921,4.13751957 5.6666946,4.02319566 C5.66445025,3.84115525 5.7976849,3.68789859 5.97655484,3.66677079 C6.01648946,3.66572856 6.07589135,3.67665981 6.15476053,3.69956454 Z" id="Shape" fill="#7272A5" fill-rule="nonzero"></path>
                            <path d="M4,6.66666667 L4,7.16666667 C4.66666667,7.5 5.22222222,7.66666667 5.66666667,7.66666667 C6.11111111,7.66666667 6.44444444,7.55555556 6.66666667,7.33333333 L6.66666667,6.66666667 C6.11111111,6.77777778 5.66666667,6.83333333 5.33333333,6.83333333 C5.11111111,6.83333333 4.66666667,6.77777778 4,6.66666667 Z" id="Path-2" fill="#9898CB" fill-rule="evenodd"></path>
                        </g>
                    </g>
                </g>
                <path d="M16.765625,29.3203125 L18.4882812,29.3203125 C18.5976562,30.2021484 19.4726562,30.7695312 20.7236328,30.7695312 C21.8857422,30.7695312 22.7265625,30.1748047 22.7265625,29.3476562 C22.7265625,28.6367188 22.1865234,28.2197266 20.921875,27.9257812 L19.6435547,27.6318359 C17.8525391,27.2285156 17.0117188,26.3398438 17.0117188,24.8701172 C17.0117188,23.0791016 18.4746094,21.8896484 20.6826172,21.8896484 C22.7539062,21.8896484 24.2509766,23.0791016 24.3330078,24.7744141 L22.6445312,24.7744141 C22.5214844,23.90625 21.7558594,23.359375 20.6757812,23.359375 C19.5410156,23.359375 18.7890625,23.90625 18.7890625,24.7470703 C18.7890625,25.4101562 19.2880859,25.7998047 20.5117188,26.0800781 L21.6464844,26.3398438 C23.6494141,26.7910156 24.4902344,27.625 24.4902344,29.1289062 C24.4902344,31.0498047 23.0068359,32.2460938 20.6142578,32.2460938 C18.3515625,32.2460938 16.8544922,31.1113281 16.765625,29.3203125 Z M32.9599609,24.5214844 L32.9599609,32 L31.3261719,32 L31.3261719,30.8105469 L31.2099609,30.8105469 C30.8476562,31.6650391 30,32.1503906 28.8925781,32.1503906 C27.2451172,32.1503906 26.2265625,31.1318359 26.2265625,29.3613281 L26.2265625,24.5214844 L27.921875,24.5214844 L27.921875,28.9580078 C27.921875,30.1064453 28.4619141,30.6601562 29.4804688,30.6601562 C30.5742188,30.6601562 31.2646484,29.9833984 31.2646484,28.8759766 L31.2646484,24.5214844 L32.9599609,24.5214844 Z M39.1123047,24.3984375 C41.0058594,24.3984375 42.1953125,25.8613281 42.1953125,28.2607422 C42.1953125,30.6464844 41.0195312,32.1230469 39.1328125,32.1230469 C38.0595703,32.1230469 37.2324219,31.6582031 36.8496094,30.8652344 L36.7333984,30.8652344 L36.7333984,34.3925781 L35.0380859,34.3925781 L35.0380859,24.5214844 L36.671875,24.5214844 L36.671875,25.7587891 L36.7880859,25.7587891 C37.21875,24.9111328 38.0869141,24.3984375 39.1123047,24.3984375 Z M38.5791016,30.6806641 C39.7548828,30.6806641 40.4521484,29.7714844 40.4521484,28.2607422 C40.4521484,26.75 39.7480469,25.8408203 38.5859375,25.8408203 C37.4306641,25.8408203 36.7060547,26.7705078 36.6992188,28.2607422 C36.7060547,29.7578125 37.4238281,30.6806641 38.5791016,30.6806641 Z M47.9716797,24.3984375 C49.8652344,24.3984375 51.0546875,25.8613281 51.0546875,28.2607422 C51.0546875,30.6464844 49.8789062,32.1230469 47.9921875,32.1230469 C46.9189453,32.1230469 46.0917969,31.6582031 45.7089844,30.8652344 L45.5927734,30.8652344 L45.5927734,34.3925781 L43.8974609,34.3925781 L43.8974609,24.5214844 L45.53125,24.5214844 L45.53125,25.7587891 L45.6474609,25.7587891 C46.078125,24.9111328 46.9462891,24.3984375 47.9716797,24.3984375 Z M47.4384766,30.6806641 C48.6142578,30.6806641 49.3115234,29.7714844 49.3115234,28.2607422 C49.3115234,26.75 48.6074219,25.8408203 47.4453125,25.8408203 C46.2900391,25.8408203 45.5654297,26.7705078 45.5585938,28.2607422 C45.5654297,29.7578125 46.2832031,30.6806641 47.4384766,30.6806641 Z M55.9833984,30.7285156 C57.1660156,30.7285156 57.8359375,29.8261719 57.8359375,28.2607422 C57.8359375,26.7021484 57.1591797,25.7929688 55.9833984,25.7929688 C54.8007812,25.7929688 54.1240234,26.7021484 54.1240234,28.2607422 C54.1240234,29.8261719 54.8007812,30.7285156 55.9833984,30.7285156 Z M55.9833984,32.1503906 C53.7412109,32.1503906 52.3876953,30.6875 52.3876953,28.2607422 C52.3876953,25.8476562 53.7617187,24.3710938 55.9833984,24.3710938 C58.2119141,24.3710938 59.5791016,25.8408203 59.5791016,28.2607422 C59.5791016,30.6875 58.21875,32.1503906 55.9833984,32.1503906 Z M61.2880859,32 L61.2880859,24.5214844 L62.921875,24.5214844 L62.921875,25.6835938 L63.0380859,25.6835938 C63.2431641,24.9453125 64.0429688,24.3984375 65,24.3984375 C65.2392578,24.3984375 65.5332031,24.4257812 65.6972656,24.4736328 L65.6972656,26.0458984 C65.5673828,25.9980469 65.1025391,25.9501953 64.8359375,25.9501953 C63.7490234,25.9501953 62.9833984,26.6337891 62.9833984,27.6796875 L62.9833984,32 L61.2880859,32 Z M67.5703125,22.7373047 L69.2587891,22.7373047 L69.2587891,24.5693359 L70.8994141,24.5693359 L70.8994141,25.9228516 L69.2587891,25.9228516 L69.2587891,29.59375 C69.2587891,30.3320312 69.5732422,30.6601562 70.2841797,30.6601562 C70.5234375,30.6601562 70.6464844,30.6464844 70.8447266,30.6259766 L70.8447266,31.9521484 C70.6054688,32 70.2978516,32.0341797 69.9697266,32.0341797 C68.2539062,32.0341797 67.5703125,31.453125 67.5703125,30.0039062 L67.5703125,25.9228516 L66.3535156,25.9228516 L66.3535156,24.5693359 L67.5703125,24.5693359 L67.5703125,22.7373047 Z M76.8261719,22.7373047 L78.5146484,22.7373047 L78.5146484,24.5693359 L80.1552734,24.5693359 L80.1552734,25.9228516 L78.5146484,25.9228516 L78.5146484,29.59375 C78.5146484,30.3320312 78.8291016,30.6601562 79.5400391,30.6601562 C79.7792969,30.6601562 79.9023438,30.6464844 80.1005859,30.6259766 L80.1005859,31.9521484 C79.8613281,32 79.5537109,32.0341797 79.2255859,32.0341797 C77.5097656,32.0341797 76.8261719,31.453125 76.8261719,30.0039062 L76.8261719,25.9228516 L75.609375,25.9228516 L75.609375,24.5693359 L76.8261719,24.5693359 L76.8261719,22.7373047 Z M81.8300781,32 L81.8300781,24.5214844 L83.5185547,24.5214844 L83.5185547,32 L81.8300781,32 Z M82.6708984,23.3046875 C82.0556641,23.3046875 81.625,22.9082031 81.625,22.3681641 C81.625,21.828125 82.0556641,21.4316406 82.6708984,21.4316406 C83.2929688,21.4316406 83.7167969,21.828125 83.7167969,22.3681641 C83.7167969,22.9082031 83.2929688,23.3046875 82.6708984,23.3046875 Z M92.0771484,27.0371094 L90.4638672,27.0371094 C90.3066406,26.3125 89.7460938,25.7929688 88.8164062,25.7929688 C87.6542969,25.7929688 86.9638672,26.6884766 86.9638672,28.2402344 C86.9638672,29.8125 87.6611328,30.7285156 88.8164062,30.7285156 C89.6982422,30.7285156 90.2861328,30.3115234 90.4638672,29.5322266 L92.0771484,29.5322266 C91.8925781,31.0976562 90.7167969,32.1503906 88.8232422,32.1503906 C86.5742188,32.1503906 85.2480469,30.7011719 85.2480469,28.2402344 C85.2480469,25.8134766 86.5673828,24.3710938 88.8164062,24.3710938 C90.7373047,24.3710938 91.8994141,25.4648438 92.0771484,27.0371094 Z M95.5771484,27.5703125 L98.3388672,24.5214844 L100.307617,24.5214844 L97.3271484,27.7275391 L100.512695,32 L98.4619141,32 L96.0625,28.7939453 L95.4609375,29.3955078 L95.4609375,32 L93.765625,32 L93.765625,21.6298828 L95.4609375,21.6298828 L95.4609375,27.5703125 L95.5771484,27.5703125 Z M104.956055,25.7177734 C103.944336,25.7177734 103.233398,26.4423828 103.158203,27.5361328 L106.678711,27.5361328 C106.644531,26.4287109 105.974609,25.7177734 104.956055,25.7177734 Z M106.692383,29.9423828 L108.298828,29.9423828 C107.977539,31.3027344 106.740234,32.1503906 104.976562,32.1503906 C102.775391,32.1503906 101.449219,30.6943359 101.449219,28.2880859 C101.449219,25.8818359 102.795898,24.3710938 104.962891,24.3710938 C107.095703,24.3710938 108.374023,25.7861328 108.374023,28.1445312 L108.374023,28.6914062 L103.151367,28.6914062 L103.151367,28.7802734 C103.192383,30.0244141 103.910156,30.8037109 105.024414,30.8037109 C105.865234,30.8037109 106.446289,30.4960938 106.692383,29.9423828 Z M110.616211,22.7373047 L112.304687,22.7373047 L112.304687,24.5693359 L113.945312,24.5693359 L113.945312,25.9228516 L112.304687,25.9228516 L112.304687,29.59375 C112.304687,30.3320312 112.619141,30.6601562 113.330078,30.6601562 C113.569336,30.6601562 113.692383,30.6464844 113.890625,30.6259766 L113.890625,31.9521484 C113.651367,32 113.34375,32.0341797 113.015625,32.0341797 C111.299805,32.0341797 110.616211,31.453125 110.616211,30.0039062 L110.616211,25.9228516 L109.399414,25.9228516 L109.399414,24.5693359 L110.616211,24.5693359 L110.616211,22.7373047 Z M115.428711,26.6611328 C115.428711,25.3076172 116.65918,24.3710938 118.422852,24.3710938 C120.200195,24.3710938 121.314453,25.1572266 121.4375,26.5175781 L119.844727,26.5175781 C119.72168,25.9912109 119.222656,25.65625 118.429688,25.65625 C117.657227,25.65625 117.076172,26.0253906 117.076172,26.5654297 C117.076172,26.9892578 117.431641,27.2490234 118.183594,27.4199219 L119.50293,27.7207031 C120.931641,28.0419922 121.594727,28.6572266 121.594727,29.7578125 C121.594727,31.1933594 120.275391,32.1503906 118.40918,32.1503906 C116.542969,32.1503906 115.367188,31.34375 115.237305,29.9833984 L116.912109,29.9833984 C117.076172,30.5371094 117.602539,30.8652344 118.450195,30.8652344 C119.304688,30.8652344 119.899414,30.4892578 119.899414,29.9355469 C119.899414,29.5117188 119.578125,29.2451172 118.867188,29.0878906 L117.541016,28.7802734 C116.105469,28.4521484 115.428711,27.7890625 115.428711,26.6611328 Z" id="Support-tickets" fill="#24124D"></path>
            </g>
            <g transform="translate(0.000000, 96.000000)">
                <g id="component/card">
                    <g id="Shadow">
                        <use fill="black" fill-opacity="1" filter="url(#filter-18)" xlink:href="#path-17"></use>
                        <use fill="#FFFFFF" fill-rule="evenodd" xlink:href="#path-17"></use>
                    </g>
                    <g id="Card" stroke-linecap="square">
                        <use fill="black" fill-opacity="1" filter="url(#filter-20)" xlink:href="#path-19"></use>
                        <rect stroke-opacity="0.098194067" stroke="#140B2F" stroke-width="1" fill="#FFFFFF" fill-rule="evenodd" x="-0.5" y="-0.5" width="177" height="81" rx="4"></rect>
                    </g>
                </g>
                <g transform="translate(16.000000, 48.000000)">
                    <mask id="mask-22" fill="white">
                        <use xlink:href="#path-21"></use>
                    </mask>
                    <use id="Oval-2" fill="#A5A5D8" opacity="0.300000012" xlink:href="#path-21"></use>
                    <g mask="url(#mask-22)">
                        <g transform="translate(3.333333, 2.666667)">
                            <path d="M6.8136996,0.820610181 C7.16183381,1.04219231 7.46476578,1.32900052 7.69390317,1.67047843 C8.11148249,2.29402948 8.39980267,2.99302001 8.5417865,3.72604883 C8.63823561,4.20883685 8.70070992,4.70048306 8.78633633,5.17702259 L8.84113922,5.70695002 C8.85079925,5.78660483 8.81668988,5.86477345 8.75181998,5.9116434 L6.66666667,7.33333333 L4.66666667,5 L2.65361859,7.70116048 L1.3362627,6.88363762 L0.768824341,6.54179016 C0.727798025,6.51169114 0.701791426,6.46549237 0.697585563,6.41523981 C0.655165732,5.81344439 0.656396533,5.20990248 0.701268419,4.60929629 C0.748946693,3.96916645 0.871461281,3.33758359 1.0663447,2.72726796 C1.24962413,2.13063993 1.56141134,1.5820815 1.98022736,1.11938282 C2.44625999,0.591583034 3.08196767,0.240194557 3.78170922,0.123610715 C4.24352036,0.0485550114 4.73012818,0.030525994 5.1950906,0 C5.21250152,0.000412454479 5.22955301,0.00534851917 5.2445461,0.0143163755 C5.26740385,0.0259411521 5.28746787,0.0423854108 5.30331759,0.0624848829 C5.37114247,0.163086443 5.43070344,0.268892038 5.48141454,0.378860755 C5.49834264,0.431711963 5.53341306,0.477164069 5.58046342,0.507230503 C5.62527321,0.528608531 5.67493371,0.537601167 5.72417192,0.533253564 C6.10563395,0.530083891 6.48207588,0.629368269 6.8136996,0.820610181 Z" id="Shape" fill="#7878AB" fill-rule="nonzero"></path>
                            <path d="M9.33333333,13.3333333 L0,13.3333333 C0,12.6729402 0,7.83333333 2.66666667,7.83333333 C2.66666667,7.83333333 3.54022989,10 4.50574713,10 C5.47126437,10 6.66666667,7.83333333 6.66666667,7.83333333 C8.44444444,7.83333333 9.33333333,9.66666667 9.33333333,13.3333333 Z" id="Shape" fill="#A5A5D8" fill-rule="nonzero"></path>
                            <path d="M6.66666667,7.99996537 C6.66666667,9.32817214 5.99999976,10.3333333 4.66666642,10.3333333 C3.35375564,10.3333333 2.69667727,9.29765849 2.66666667,7.99996537 C2.66666667,7.99996537 6.66666667,7.99996537 6.66666667,7.99996537 Z" id="Shape" fill="#7878AB" fill-rule="nonzero"></path>
                            <path d="M6,8.00644665 C6,8.96085813 5.55555561,9.67666674 4.66666683,9.67666674 C3.79139308,9.67666674 3.35334072,8.93893189 3.33333366,8.00644665 C3.33333366,8.00644665 3.33333355,7.55985332 3.33333333,6.66666667 L6,6.66666667 C6,7.55985332 6,8.00644665 6,8.00644665 Z" id="Shape" fill="#B6B6E9" fill-rule="nonzero"></path>
                            <path d="M7,5.66666667 L6.66666667,7.33333333 L6,7.33333333 L6,6.33333333 C6.00761097,6.32551208 6.3409443,6.10328986 7,5.66666667 Z" id="Shape" fill="#636396" fill-rule="nonzero"></path>
                            <path d="M2.33333333,5.66666667 C2.53604161,5.98737324 3.30976386,6.63417256 3.33333333,6.65466774 L3.33333333,7.33333333 L2.66666667,7.66666667 C2.43582773,6.43259872 2.32471662,5.76593205 2.33333333,5.66666667 Z" id="Path" fill="#636396" fill-rule="evenodd"></path>
                            <path d="M5.66666667,2 L6.5707355,2.90766716 L7,3.35569401 C7.0191605,3.35569401 7.0191605,4.12601823 7,5.66666667 C6.77777778,6.33333333 6.55555556,6.77777778 6.33333333,7 C6,7.33333333 4.07057568,7.10256329 3.33333333,7 C2.95901165,6.94792531 2.5143604,6.66666667 2.42384687,6 C2.36350451,5.55555556 2.33333333,5 2.33333333,4.33333333 C2.87698772,4.07879349 3.43254327,3.75291372 4,3.35569401 C4.56745673,2.9584743 5.12301228,2.5065763 5.66666667,2 Z" id="Shape" fill="#C8C8F7" fill-rule="nonzero"></path>
                            <path d="M3.82860937,4.37927619 C3.93616166,4.49444361 3.99329187,4.59299354 4,4.67492598 C3.99665176,4.72830853 3.97951275,4.77975047 3.95025449,4.82423484 C3.89213736,4.92583566 3.78725755,4.99160502 3.67000426,4.9999777 C3.610026,5.00068003 3.550828,4.98477964 3.49895657,4.95403485 C3.40201814,4.8950874 3.34000509,4.79230729 3.33335857,4.67957356 C3.33256553,4.61440502 3.35048012,4.55059461 3.38497779,4.49570972 C3.44068462,4.39736732 3.54401582,4.33581362 3.65756168,4.33333333 C3.71744937,4.33339859 3.77644665,4.34924507 3.82860937,4.37927619 Z M5.48809386,4.36623121 C5.59211061,4.42379275 5.65970719,4.53137588 5.66664151,4.65039816 C5.66743228,4.71600156 5.64956866,4.78023777 5.61516911,4.83548891 C5.55962074,4.93448753 5.45658346,4.99645197 5.34336058,4.99894881 C5.28233044,5.0036806 5.22094067,4.99238354 5.1651549,4.96615506 C5.06642182,4.90892339 5.00382543,4.80418624 5.00002794,4.68986233 C4.99778358,4.50782191 5.13101824,4.35456526 5.30988817,4.33343746 C5.34982279,4.33239522 5.40922469,4.34332647 5.48809386,4.36623121 Z" id="Shape" fill="#7272A5" fill-rule="nonzero"></path>
                            <path d="M3.33333333,7 L3.33333333,7.33333333 C4,7.66666667 4.55555556,7.83333333 5,7.83333333 C5.44444444,7.83333333 5.77777778,7.72222222 6,7.5 L6,7.16666667 C5.44444444,7.16666667 5,7.16666667 4.66666667,7.16666667 C4.44444444,7.16666667 4,7.11111111 3.33333333,7 Z" id="Path-2" fill="#9898CB" fill-rule="evenodd"></path>
                        </g>
                    </g>
                </g>
                <g transform="translate(36.000000, 48.000000)">
                    <mask id="mask-24" fill="white">
                        <use xlink:href="#path-23"></use>
                    </mask>
                    <use id="Oval-2" fill="#A5A5D8" opacity="0.300000012" xlink:href="#path-23"></use>
                    <g mask="url(#mask-24)">
                        <g transform="translate(2.666667, 3.333333)">
                            <path d="M7.83333333,0.666666667 C8.18146753,0.888248798 7.83333333,3 8,3.66666667 C8.13819519,4.21944742 7.2493063,3.66389187 5.33333333,2 C4.33813464,2.56734456 3.67146797,2.90067789 3.33333333,3 C2.0742573,3.36983519 2.24071936,2.29003882 2.33333333,2 C2.51661276,1.40337197 2.24785065,1.12936535 2.66666667,0.666666667 C3.1326993,0.138866884 3.74863433,0.240194557 4.44837589,0.123610715 C4.91018702,0.0485550114 5.39679485,0.030525994 5.86175727,0 C5.87916818,0.000412454479 5.89621967,0.00534851917 5.91121277,0.0143163755 C5.93407052,0.0259411521 5.95413454,0.0423854108 5.96998426,0.0624848829 C6.03780913,0.163086443 6.0973701,0.268892038 6.14808121,0.378860755 C6.16500931,0.431711963 6.20007972,0.477164069 6.24713008,0.507230503 C6.29193987,0.528608531 6.34160038,0.537601167 6.39083859,0.533253564 C6.77230062,0.530083891 7.50170961,0.475424755 7.83333333,0.666666667 Z" id="Shape" fill="#7E7EB1" fill-rule="nonzero"></path>
                            <path d="M10.6666667,13 L0,13 C0,12.3396068 0.333333333,7.5 3,7.5 C3,7.5 4.36781609,9.66666667 5.33333333,9.66666667 C6.29885057,9.66666667 7.66666667,7.5 7.66666667,7.5 C9.44444444,7.5 10.4444444,9.33333333 10.6666667,13 Z" id="Shape" fill="#A5A5D8" fill-rule="nonzero"></path>
                            <path d="M7.66666667,7.66663204 C7.66666667,8.77775469 6.88888889,9.88887735 5.33333333,11 C3.77777778,9.88887735 3,8.77775469 3,7.66663204 C3,7.66663204 7.66666667,7.66663204 7.66666667,7.66663204 Z" id="Shape" fill="#7878AB" fill-rule="nonzero"></path>
                            <path d="M6.66666667,7.33977999 C6.66666667,8.29419146 6.22222228,9.01000007 5.3333335,9.01000007 C4.45805975,9.01000007 4.02000739,8.27226522 4.00000033,7.33977999 C4.00000033,7.33977999 4.00000022,6.89318666 4,6 L6.66666667,6 C6.66666667,6.89318666 6.66666667,7.33977999 6.66666667,7.33977999 Z" id="Shape" fill="#B6B6E9" fill-rule="nonzero"></path>
                            <path d="M5,1.83333333 C5.79795627,1.68825038 6.5,1.83333333 7,2 C7.5,2.16666667 7.5,2.66666667 7.5,2.66666667 C7.5,2.66666667 7.52687308,4.40434255 7.33333333,5.33333333 C7.13979359,6.26232411 7,6.33333333 6.66666667,6.66666667 C6.33333333,7 4.33333333,7 4,6.66666667 C3.66666667,6.33333333 3.42384687,6 3.33333333,5.33333333 C3.2428198,4.66666667 3.16666667,3 3.33333333,2.66666667 C3.5,2.33333333 4.20204373,1.97841629 5,1.83333333 Z" id="Shape" fill="#C8C8F7" fill-rule="nonzero"></path>
                            <path d="M4.49527604,3.71260952 C4.60282833,3.82777695 4.65995854,3.92632688 4.66666667,4.00825931 C4.66331842,4.06164186 4.64617942,4.1130838 4.61692116,4.15756817 C4.55880403,4.25916899 4.45392421,4.32493835 4.33667093,4.33331103 C4.27669267,4.33401336 4.21749467,4.31811297 4.16562323,4.28736818 C4.0686848,4.22842073 4.00667176,4.12564063 4.00002523,4.0129069 C3.9992322,3.94773836 4.01714678,3.88392795 4.05164446,3.82904305 C4.10735128,3.73070065 4.21068249,3.66914695 4.32422835,3.66666667 C4.38411604,3.66673193 4.44311331,3.6825784 4.49527604,3.71260952 Z M6.15476053,3.69956454 C6.25877728,3.75712608 6.32637386,3.86470921 6.33330817,3.9837315 C6.33409895,4.0493349 6.31623532,4.1135711 6.28183578,4.16882224 C6.22628741,4.26782087 6.12325013,4.32978531 6.01002725,4.33228214 C5.9489971,4.33701393 5.88760733,4.32571687 5.83182156,4.29948839 C5.73308849,4.24225673 5.6704921,4.13751957 5.6666946,4.02319566 C5.66445025,3.84115525 5.7976849,3.68789859 5.97655484,3.66677079 C6.01648946,3.66572856 6.07589135,3.67665981 6.15476053,3.69956454 Z" id="Shape" fill="#7272A5" fill-rule="nonzero"></path>
                            <path d="M4,6.66666667 L4,7.16666667 C4.66666667,7.5 5.22222222,7.66666667 5.66666667,7.66666667 C6.11111111,7.66666667 6.44444444,7.55555556 6.66666667,7.33333333 L6.66666667,6.66666667 C6.11111111,6.77777778 5.66666667,6.83333333 5.33333333,6.83333333 C5.11111111,6.83333333 4.66666667,6.77777778 4,6.66666667 Z" id="Path-2" fill="#9898CB" fill-rule="evenodd"></path>
                        </g>
                    </g>
                </g>
                <path d="M16.765625,29.3203125 L18.4882812,29.3203125 C18.5976562,30.2021484 19.4726562,30.7695312 20.7236328,30.7695312 C21.8857422,30.7695312 22.7265625,30.1748047 22.7265625,29.3476562 C22.7265625,28.6367188 22.1865234,28.2197266 20.921875,27.9257812 L19.6435547,27.6318359 C17.8525391,27.2285156 17.0117188,26.3398438 17.0117188,24.8701172 C17.0117188,23.0791016 18.4746094,21.8896484 20.6826172,21.8896484 C22.7539062,21.8896484 24.2509766,23.0791016 24.3330078,24.7744141 L22.6445312,24.7744141 C22.5214844,23.90625 21.7558594,23.359375 20.6757812,23.359375 C19.5410156,23.359375 18.7890625,23.90625 18.7890625,24.7470703 C18.7890625,25.4101562 19.2880859,25.7998047 20.5117188,26.0800781 L21.6464844,26.3398438 C23.6494141,26.7910156 24.4902344,27.625 24.4902344,29.1289062 C24.4902344,31.0498047 23.0068359,32.2460938 20.6142578,32.2460938 C18.3515625,32.2460938 16.8544922,31.1113281 16.765625,29.3203125 Z M28.8515625,30.7900391 C29.8769531,30.7900391 30.6425781,30.1269531 30.6425781,29.2587891 L30.6425781,28.6640625 L28.9541016,28.7734375 C28.0039062,28.8349609 27.5595703,29.1767578 27.5595703,29.7851562 C27.5595703,30.4140625 28.0996094,30.7900391 28.8515625,30.7900391 Z M28.3525391,32.1230469 C26.9101562,32.1230469 25.8779297,31.2480469 25.8779297,29.8808594 C25.8779297,28.5273438 26.8964844,27.7480469 28.7148438,27.6386719 L30.6425781,27.5224609 L30.6425781,26.8935547 C30.6425781,26.1621094 30.1503906,25.7519531 29.234375,25.7519531 C28.4550781,25.7519531 27.921875,26.0253906 27.7646484,26.53125 L26.1650391,26.53125 C26.3017578,25.2119141 27.5390625,24.3710938 29.3164062,24.3710938 C31.2373047,24.3710938 32.3173828,25.3076172 32.3173828,26.8935547 L32.3173828,32 L30.6835938,32 L30.6835938,30.9746094 L30.5673828,30.9746094 C30.1503906,31.6992188 29.3300781,32.1230469 28.3525391,32.1230469 Z M34.4228516,32 L34.4228516,21.6298828 L36.1181641,21.6298828 L36.1181641,32 L34.4228516,32 Z M41.3955078,25.7177734 C40.3837891,25.7177734 39.6728516,26.4423828 39.5976562,27.5361328 L43.1181641,27.5361328 C43.0839844,26.4287109 42.4140625,25.7177734 41.3955078,25.7177734 Z M43.1318359,29.9423828 L44.7382812,29.9423828 C44.4169922,31.3027344 43.1796875,32.1503906 41.4160156,32.1503906 C39.2148438,32.1503906 37.8886719,30.6943359 37.8886719,28.2880859 C37.8886719,25.8818359 39.2353516,24.3710938 41.4023438,24.3710938 C43.5351562,24.3710938 44.8134766,25.7861328 44.8134766,28.1445312 L44.8134766,28.6914062 L39.5908203,28.6914062 L39.5908203,28.7802734 C39.6318359,30.0244141 40.3496094,30.8037109 41.4638672,30.8037109 C42.3046875,30.8037109 42.8857422,30.4960938 43.1318359,29.9423828 Z M46.3447266,26.6611328 C46.3447266,25.3076172 47.5751953,24.3710938 49.3388672,24.3710938 C51.1162109,24.3710938 52.2304688,25.1572266 52.3535156,26.5175781 L50.7607422,26.5175781 C50.6376953,25.9912109 50.1386719,25.65625 49.3457031,25.65625 C48.5732422,25.65625 47.9921875,26.0253906 47.9921875,26.5654297 C47.9921875,26.9892578 48.3476562,27.2490234 49.0996094,27.4199219 L50.4189453,27.7207031 C51.8476562,28.0419922 52.5107422,28.6572266 52.5107422,29.7578125 C52.5107422,31.1933594 51.1914062,32.1503906 49.3251953,32.1503906 C47.4589844,32.1503906 46.2832031,31.34375 46.1533203,29.9833984 L47.828125,29.9833984 C47.9921875,30.5371094 48.5185547,30.8652344 49.3662109,30.8652344 C50.2207031,30.8652344 50.8154297,30.4892578 50.8154297,29.9355469 C50.8154297,29.5117188 50.4941406,29.2451172 49.7832031,29.0878906 L48.4570312,28.7802734 C47.0214844,28.4521484 46.3447266,27.7890625 46.3447266,26.6611328 Z M60.6660156,32.1230469 C58.7724609,32.1230469 57.5898438,30.6328125 57.5898438,28.2539062 C57.5898438,25.8886719 58.7792969,24.3984375 60.6660156,24.3984375 C61.6914062,24.3984375 62.5390625,24.890625 62.9355469,25.7109375 L63.0517578,25.7109375 L63.0517578,21.6298828 L64.7470703,21.6298828 L64.7470703,32 L63.1064453,32 L63.1064453,30.8173828 L62.9902344,30.8173828 C62.5664062,31.6376953 61.7050781,32.1230469 60.6660156,32.1230469 Z M61.1923828,25.8408203 C60.0371094,25.8408203 59.3261719,26.7568359 59.3261719,28.2607422 C59.3261719,29.7714844 60.0302734,30.6806641 61.1923828,30.6806641 C62.3613281,30.6806641 63.0722656,29.7646484 63.0722656,28.2607422 C63.0722656,26.7705078 62.3544922,25.8408203 61.1923828,25.8408203 Z M70.0244141,25.7177734 C69.0126953,25.7177734 68.3017578,26.4423828 68.2265625,27.5361328 L71.7470703,27.5361328 C71.7128906,26.4287109 71.0429688,25.7177734 70.0244141,25.7177734 Z M71.7607422,29.9423828 L73.3671875,29.9423828 C73.0458984,31.3027344 71.8085938,32.1503906 70.0449219,32.1503906 C67.84375,32.1503906 66.5175781,30.6943359 66.5175781,28.2880859 C66.5175781,25.8818359 67.8642578,24.3710938 70.03125,24.3710938 C72.1640625,24.3710938 73.4423828,25.7861328 73.4423828,28.1445312 L73.4423828,28.6914062 L68.2197266,28.6914062 L68.2197266,28.7802734 C68.2607422,30.0244141 68.9785156,30.8037109 70.0927734,30.8037109 C70.9335938,30.8037109 71.5146484,30.4960938 71.7607422,29.9423828 Z M75.1445312,32 L75.1445312,24.5214844 L76.7783203,24.5214844 L76.7783203,25.7314453 L76.8945312,25.7314453 C77.2158203,24.8769531 77.9814453,24.3710938 78.9726562,24.3710938 C80.0048828,24.3710938 80.7226562,24.890625 81.0371094,25.7314453 L81.1533203,25.7314453 C81.5224609,24.9111328 82.3837891,24.3710938 83.4228516,24.3710938 C84.9199219,24.3710938 85.8222656,25.3076172 85.8222656,26.859375 L85.8222656,32 L84.1337891,32 L84.1337891,27.2900391 C84.1337891,26.3261719 83.6757812,25.8476562 82.7666016,25.8476562 C81.8847656,25.8476562 81.3037109,26.4902344 81.3037109,27.3447266 L81.3037109,32 L79.65625,32 L79.65625,27.1669922 C79.65625,26.3466797 79.1367188,25.8476562 78.3027344,25.8476562 C77.4619141,25.8476562 76.8398438,26.5380859 76.8398438,27.4541016 L76.8398438,32 L75.1445312,32 Z M91.0585937,30.7285156 C92.2412109,30.7285156 92.9111328,29.8261719 92.9111328,28.2607422 C92.9111328,26.7021484 92.234375,25.7929688 91.0585937,25.7929688 C89.8759766,25.7929688 89.1992187,26.7021484 89.1992187,28.2607422 C89.1992187,29.8261719 89.8759766,30.7285156 91.0585937,30.7285156 Z M91.0585938,32.1503906 C88.8164062,32.1503906 87.4628906,30.6875 87.4628906,28.2607422 C87.4628906,25.8476562 88.8369141,24.3710938 91.0585938,24.3710938 C93.2871094,24.3710938 94.6542969,25.8408203 94.6542969,28.2607422 C94.6542969,30.6875 93.2939453,32.1503906 91.0585938,32.1503906 Z M96.1923828,26.6611328 C96.1923828,25.3076172 97.4228516,24.3710938 99.1865234,24.3710938 C100.963867,24.3710938 102.078125,25.1572266 102.201172,26.5175781 L100.608398,26.5175781 C100.485352,25.9912109 99.9863281,25.65625 99.1933594,25.65625 C98.4208984,25.65625 97.8398438,26.0253906 97.8398438,26.5654297 C97.8398438,26.9892578 98.1953125,27.2490234 98.9472656,27.4199219 L100.266602,27.7207031 C101.695312,28.0419922 102.358398,28.6572266 102.358398,29.7578125 C102.358398,31.1933594 101.039062,32.1503906 99.1728516,32.1503906 C97.3066406,32.1503906 96.1308594,31.34375 96.0009766,29.9833984 L97.6757812,29.9833984 C97.8398438,30.5371094 98.3662109,30.8652344 99.2138672,30.8652344 C100.068359,30.8652344 100.663086,30.4892578 100.663086,29.9355469 C100.663086,29.5117188 100.341797,29.2451172 99.6308594,29.0878906 L98.3046875,28.7802734 C96.8691406,28.4521484 96.1923828,27.7890625 96.1923828,26.6611328 Z" id="Sales-demos" fill="#24124D"></path>
            </g>
            <g transform="translate(192.000000, 0.000000)">
                <g id="component/card">
                    <g id="Shadow">
                        <use fill="black" fill-opacity="1" filter="url(#filter-26)" xlink:href="#path-25"></use>
                        <use fill="#FFFFFF" fill-rule="evenodd" xlink:href="#path-25"></use>
                    </g>
                    <g id="Card" stroke-linecap="square">
                        <use fill="black" fill-opacity="1" filter="url(#filter-28)" xlink:href="#path-27"></use>
                        <rect stroke-opacity="0.098194067" stroke="#140B2F" stroke-width="1" fill="#FFFFFF" fill-rule="evenodd" x="-0.5" y="-0.5" width="177" height="81" rx="4"></rect>
                    </g>
                </g>
                <g transform="translate(16.000000, 48.000000)">
                    <mask id="mask-30" fill="white">
                        <use xlink:href="#path-29"></use>
                    </mask>
                    <use id="Oval-2" fill="#A5A5D8" opacity="0.300000012" xlink:href="#path-29"></use>
                    <g mask="url(#mask-30)">
                        <g transform="translate(2.666667, 3.333333)">
                            <path d="M7.83333333,0.666666667 C8.18146753,0.888248798 7.83333333,3 8,3.66666667 C8.13819519,4.21944742 7.2493063,3.66389187 5.33333333,2 C4.33813464,2.56734456 3.67146797,2.90067789 3.33333333,3 C2.0742573,3.36983519 2.24071936,2.29003882 2.33333333,2 C2.51661276,1.40337197 2.24785065,1.12936535 2.66666667,0.666666667 C3.1326993,0.138866884 3.74863433,0.240194557 4.44837589,0.123610715 C4.91018702,0.0485550114 5.39679485,0.030525994 5.86175727,0 C5.87916818,0.000412454479 5.89621967,0.00534851917 5.91121277,0.0143163755 C5.93407052,0.0259411521 5.95413454,0.0423854108 5.96998426,0.0624848829 C6.03780913,0.163086443 6.0973701,0.268892038 6.14808121,0.378860755 C6.16500931,0.431711963 6.20007972,0.477164069 6.24713008,0.507230503 C6.29193987,0.528608531 6.34160038,0.537601167 6.39083859,0.533253564 C6.77230062,0.530083891 7.50170961,0.475424755 7.83333333,0.666666667 Z" id="Shape" fill="#7E7EB1" fill-rule="nonzero"></path>
                            <path d="M10.6666667,13 L0,13 C0,12.3396068 0.333333333,7.5 3,7.5 C3,7.5 4.36781609,9.66666667 5.33333333,9.66666667 C6.29885057,9.66666667 7.66666667,7.5 7.66666667,7.5 C9.44444444,7.5 10.4444444,9.33333333 10.6666667,13 Z" id="Shape" fill="#A5A5D8" fill-rule="nonzero"></path>
                            <path d="M7.66666667,7.66663204 C7.66666667,8.77775469 6.88888889,9.88887735 5.33333333,11 C3.77777778,9.88887735 3,8.77775469 3,7.66663204 C3,7.66663204 7.66666667,7.66663204 7.66666667,7.66663204 Z" id="Shape" fill="#7878AB" fill-rule="nonzero"></path>
                            <path d="M6.66666667,7.33977999 C6.66666667,8.29419146 6.22222228,9.01000007 5.3333335,9.01000007 C4.45805975,9.01000007 4.02000739,8.27226522 4.00000033,7.33977999 C4.00000033,7.33977999 4.00000022,6.89318666 4,6 L6.66666667,6 C6.66666667,6.89318666 6.66666667,7.33977999 6.66666667,7.33977999 Z" id="Shape" fill="#B6B6E9" fill-rule="nonzero"></path>
                            <path d="M5,1.83333333 C5.79795627,1.68825038 6.5,1.83333333 7,2 C7.5,2.16666667 7.5,2.66666667 7.5,2.66666667 C7.5,2.66666667 7.52687308,4.40434255 7.33333333,5.33333333 C7.13979359,6.26232411 7,6.33333333 6.66666667,6.66666667 C6.33333333,7 4.33333333,7 4,6.66666667 C3.66666667,6.33333333 3.42384687,6 3.33333333,5.33333333 C3.2428198,4.66666667 3.16666667,3 3.33333333,2.66666667 C3.5,2.33333333 4.20204373,1.97841629 5,1.83333333 Z" id="Shape" fill="#C8C8F7" fill-rule="nonzero"></path>
                            <path d="M4.49527604,3.71260952 C4.60282833,3.82777695 4.65995854,3.92632688 4.66666667,4.00825931 C4.66331842,4.06164186 4.64617942,4.1130838 4.61692116,4.15756817 C4.55880403,4.25916899 4.45392421,4.32493835 4.33667093,4.33331103 C4.27669267,4.33401336 4.21749467,4.31811297 4.16562323,4.28736818 C4.0686848,4.22842073 4.00667176,4.12564063 4.00002523,4.0129069 C3.9992322,3.94773836 4.01714678,3.88392795 4.05164446,3.82904305 C4.10735128,3.73070065 4.21068249,3.66914695 4.32422835,3.66666667 C4.38411604,3.66673193 4.44311331,3.6825784 4.49527604,3.71260952 Z M6.15476053,3.69956454 C6.25877728,3.75712608 6.32637386,3.86470921 6.33330817,3.9837315 C6.33409895,4.0493349 6.31623532,4.1135711 6.28183578,4.16882224 C6.22628741,4.26782087 6.12325013,4.32978531 6.01002725,4.33228214 C5.9489971,4.33701393 5.88760733,4.32571687 5.83182156,4.29948839 C5.73308849,4.24225673 5.6704921,4.13751957 5.6666946,4.02319566 C5.66445025,3.84115525 5.7976849,3.68789859 5.97655484,3.66677079 C6.01648946,3.66572856 6.07589135,3.67665981 6.15476053,3.69956454 Z" id="Shape" fill="#7272A5" fill-rule="nonzero"></path>
                            <path d="M4,6.66666667 L4,7.16666667 C4.66666667,7.5 5.22222222,7.66666667 5.66666667,7.66666667 C6.11111111,7.66666667 6.44444444,7.55555556 6.66666667,7.33333333 L6.66666667,6.66666667 C6.11111111,6.77777778 5.66666667,6.83333333 5.33333333,6.83333333 C5.11111111,6.83333333 4.66666667,6.77777778 4,6.66666667 Z" id="Path-2" fill="#9898CB" fill-rule="evenodd"></path>
                        </g>
                    </g>
                </g>
                <g transform="translate(36.000000, 48.000000)">
                    <mask id="mask-32" fill="white">
                        <use xlink:href="#path-31"></use>
                    </mask>
                    <use id="Oval-2" fill="#A5A5D8" opacity="0.300000012" xlink:href="#path-31"></use>
                    <g mask="url(#mask-32)">
                        <g transform="translate(2.666667, 3.333333)">
                            <path d="M7.83333333,0.666666667 C8.18146753,0.888248798 7.83333333,3 8,3.66666667 C8.13819519,4.21944742 7.2493063,3.66389187 5.33333333,2 C4.33813464,2.56734456 3.67146797,2.90067789 3.33333333,3 C2.0742573,3.36983519 2.24071936,2.29003882 2.33333333,2 C2.51661276,1.40337197 2.24785065,1.12936535 2.66666667,0.666666667 C3.1326993,0.138866884 3.74863433,0.240194557 4.44837589,0.123610715 C4.91018702,0.0485550114 5.39679485,0.030525994 5.86175727,0 C5.87916818,0.000412454479 5.89621967,0.00534851917 5.91121277,0.0143163755 C5.93407052,0.0259411521 5.95413454,0.0423854108 5.96998426,0.0624848829 C6.03780913,0.163086443 6.0973701,0.268892038 6.14808121,0.378860755 C6.16500931,0.431711963 6.20007972,0.477164069 6.24713008,0.507230503 C6.29193987,0.528608531 6.34160038,0.537601167 6.39083859,0.533253564 C6.77230062,0.530083891 7.50170961,0.475424755 7.83333333,0.666666667 Z" id="Shape" fill="#7E7EB1" fill-rule="nonzero"></path>
                            <path d="M10.6666667,13 L0,13 C0,12.3396068 0.333333333,7.5 3,7.5 C3,7.5 4.36781609,9.66666667 5.33333333,9.66666667 C6.29885057,9.66666667 7.66666667,7.5 7.66666667,7.5 C9.44444444,7.5 10.4444444,9.33333333 10.6666667,13 Z" id="Shape" fill="#A5A5D8" fill-rule="nonzero"></path>
                            <path d="M7.66666667,7.66663204 C7.66666667,8.77775469 6.88888889,9.88887735 5.33333333,11 C3.77777778,9.88887735 3,8.77775469 3,7.66663204 C3,7.66663204 7.66666667,7.66663204 7.66666667,7.66663204 Z" id="Shape" fill="#7878AB" fill-rule="nonzero"></path>
                            <path d="M6.66666667,7.33977999 C6.66666667,8.29419146 6.22222228,9.01000007 5.3333335,9.01000007 C4.45805975,9.01000007 4.02000739,8.27226522 4.00000033,7.33977999 C4.00000033,7.33977999 4.00000022,6.89318666 4,6 L6.66666667,6 C6.66666667,6.89318666 6.66666667,7.33977999 6.66666667,7.33977999 Z" id="Shape" fill="#B6B6E9" fill-rule="nonzero"></path>
                            <path d="M5,1.83333333 C5.79795627,1.68825038 6.5,1.83333333 7,2 C7.5,2.16666667 7.5,2.66666667 7.5,2.66666667 C7.5,2.66666667 7.52687308,4.40434255 7.33333333,5.33333333 C7.13979359,6.26232411 7,6.33333333 6.66666667,6.66666667 C6.33333333,7 4.33333333,7 4,6.66666667 C3.66666667,6.33333333 3.42384687,6 3.33333333,5.33333333 C3.2428198,4.66666667 3.16666667,3 3.33333333,2.66666667 C3.5,2.33333333 4.20204373,1.97841629 5,1.83333333 Z" id="Shape" fill="#C8C8F7" fill-rule="nonzero"></path>
                            <path d="M4.49527604,3.71260952 C4.60282833,3.82777695 4.65995854,3.92632688 4.66666667,4.00825931 C4.66331842,4.06164186 4.64617942,4.1130838 4.61692116,4.15756817 C4.55880403,4.25916899 4.45392421,4.32493835 4.33667093,4.33331103 C4.27669267,4.33401336 4.21749467,4.31811297 4.16562323,4.28736818 C4.0686848,4.22842073 4.00667176,4.12564063 4.00002523,4.0129069 C3.9992322,3.94773836 4.01714678,3.88392795 4.05164446,3.82904305 C4.10735128,3.73070065 4.21068249,3.66914695 4.32422835,3.66666667 C4.38411604,3.66673193 4.44311331,3.6825784 4.49527604,3.71260952 Z M6.15476053,3.69956454 C6.25877728,3.75712608 6.32637386,3.86470921 6.33330817,3.9837315 C6.33409895,4.0493349 6.31623532,4.1135711 6.28183578,4.16882224 C6.22628741,4.26782087 6.12325013,4.32978531 6.01002725,4.33228214 C5.9489971,4.33701393 5.88760733,4.32571687 5.83182156,4.29948839 C5.73308849,4.24225673 5.6704921,4.13751957 5.6666946,4.02319566 C5.66445025,3.84115525 5.7976849,3.68789859 5.97655484,3.66677079 C6.01648946,3.66572856 6.07589135,3.67665981 6.15476053,3.69956454 Z" id="Shape" fill="#7272A5" fill-rule="nonzero"></path>
                            <path d="M4,6.66666667 L4,7.16666667 C4.66666667,7.5 5.22222222,7.66666667 5.66666667,7.66666667 C6.11111111,7.66666667 6.44444444,7.55555556 6.66666667,7.33333333 L6.66666667,6.66666667 C6.11111111,6.77777778 5.66666667,6.83333333 5.33333333,6.83333333 C5.11111111,6.83333333 4.66666667,6.77777778 4,6.66666667 Z" id="Path-2" fill="#9898CB" fill-rule="evenodd"></path>
                        </g>
                    </g>
                </g>
                <path d="M23.5810547,32 L22.7470703,29.4775391 L19.1171875,29.4775391 L18.2695312,32 L16.4853516,32 L19.9853516,22.1357422 L21.9677734,22.1357422 L25.4746094,32 L23.5810547,32 Z M20.8808594,24.015625 L19.5273438,28.0830078 L22.3369141,28.0830078 L20.9970703,24.015625 L20.8808594,24.015625 Z M31.0664062,24.3984375 C32.9599609,24.3984375 34.1494141,25.8613281 34.1494141,28.2607422 C34.1494141,30.6464844 32.9736328,32.1230469 31.0869141,32.1230469 C30.0136719,32.1230469 29.1865234,31.6582031 28.8037109,30.8652344 L28.6875,30.8652344 L28.6875,34.3925781 L26.9921875,34.3925781 L26.9921875,24.5214844 L28.6259766,24.5214844 L28.6259766,25.7587891 L28.7421875,25.7587891 C29.1728516,24.9111328 30.0410156,24.3984375 31.0664062,24.3984375 Z M30.5332031,30.6806641 C31.7089844,30.6806641 32.40625,29.7714844 32.40625,28.2607422 C32.40625,26.75 31.7021484,25.8408203 30.5400391,25.8408203 C29.3847656,25.8408203 28.6601562,26.7705078 28.6533203,28.2607422 C28.6601562,29.7578125 29.3779297,30.6806641 30.5332031,30.6806641 Z M39.9257812,24.3984375 C41.8193359,24.3984375 43.0087891,25.8613281 43.0087891,28.2607422 C43.0087891,30.6464844 41.8330078,32.1230469 39.9462891,32.1230469 C38.8730469,32.1230469 38.0458984,31.6582031 37.6630859,30.8652344 L37.546875,30.8652344 L37.546875,34.3925781 L35.8515625,34.3925781 L35.8515625,24.5214844 L37.4853516,24.5214844 L37.4853516,25.7587891 L37.6015625,25.7587891 C38.0322266,24.9111328 38.9003906,24.3984375 39.9257812,24.3984375 Z M39.3925781,30.6806641 C40.5683594,30.6806641 41.265625,29.7714844 41.265625,28.2607422 C41.265625,26.75 40.5615234,25.8408203 39.3994141,25.8408203 C38.2441406,25.8408203 37.5195312,26.7705078 37.5126953,28.2607422 C37.5195312,29.7578125 38.2373047,30.6806641 39.3925781,30.6806641 Z M48.9833984,32 L48.9833984,25.9228516 L47.7666016,25.9228516 L47.7666016,24.5693359 L48.9833984,24.5693359 L48.9833984,23.8242188 C48.9833984,22.3066406 49.7695312,21.6914062 51.4101562,21.6914062 C51.7109375,21.6914062 52.0048828,21.71875 52.3056641,21.7666016 L52.3056641,23.03125 C52.1552734,22.9970703 51.9023438,22.9765625 51.65625,22.9765625 C50.9931641,22.9765625 50.6445312,23.2636719 50.6445312,23.9335938 L50.6445312,24.5693359 L52.2646484,24.5693359 L52.2646484,25.9228516 L50.671875,25.9228516 L50.671875,32 L48.9833984,32 Z M57.0566406,25.7177734 C56.0449219,25.7177734 55.3339844,26.4423828 55.2587891,27.5361328 L58.7792969,27.5361328 C58.7451172,26.4287109 58.0751953,25.7177734 57.0566406,25.7177734 Z M58.7929688,29.9423828 L60.3994141,29.9423828 C60.078125,31.3027344 58.8408203,32.1503906 57.0771484,32.1503906 C54.8759766,32.1503906 53.5498047,30.6943359 53.5498047,28.2880859 C53.5498047,25.8818359 54.8964844,24.3710938 57.0634766,24.3710938 C59.1962891,24.3710938 60.4746094,25.7861328 60.4746094,28.1445312 L60.4746094,28.6914062 L55.2519531,28.6914062 L55.2519531,28.7802734 C55.2929688,30.0244141 56.0107422,30.8037109 57.125,30.8037109 C57.9658203,30.8037109 58.546875,30.4960938 58.7929688,29.9423828 Z M65.3144531,25.7177734 C64.3027344,25.7177734 63.5917969,26.4423828 63.5166016,27.5361328 L67.0371094,27.5361328 C67.0029297,26.4287109 66.3330078,25.7177734 65.3144531,25.7177734 Z M67.0507812,29.9423828 L68.6572266,29.9423828 C68.3359375,31.3027344 67.0986328,32.1503906 65.3349609,32.1503906 C63.1337891,32.1503906 61.8076172,30.6943359 61.8076172,28.2880859 C61.8076172,25.8818359 63.1542969,24.3710938 65.3212891,24.3710938 C67.4541016,24.3710938 68.7324219,25.7861328 68.7324219,28.1445312 L68.7324219,28.6914062 L63.5097656,28.6914062 L63.5097656,28.7802734 C63.5507812,30.0244141 64.2685547,30.8037109 65.3828125,30.8037109 C66.2236328,30.8037109 66.8046875,30.4960938 67.0507812,29.9423828 Z M73.1416016,32.1230469 C71.2480469,32.1230469 70.0654297,30.6328125 70.0654297,28.2539062 C70.0654297,25.8886719 71.2548828,24.3984375 73.1416016,24.3984375 C74.1669922,24.3984375 75.0146484,24.890625 75.4111328,25.7109375 L75.5273438,25.7109375 L75.5273438,21.6298828 L77.2226562,21.6298828 L77.2226562,32 L75.5820312,32 L75.5820312,30.8173828 L75.4658203,30.8173828 C75.0419922,31.6376953 74.1806641,32.1230469 73.1416016,32.1230469 Z M73.6679688,25.8408203 C72.5126953,25.8408203 71.8017578,26.7568359 71.8017578,28.2607422 C71.8017578,29.7714844 72.5058594,30.6806641 73.6679688,30.6806641 C74.8369141,30.6806641 75.5478516,29.7646484 75.5478516,28.2607422 C75.5478516,26.7705078 74.8300781,25.8408203 73.6679688,25.8408203 Z M83.5185547,32.1230469 C82.4726562,32.1230469 81.6044922,31.6376953 81.1806641,30.8173828 L81.0644531,30.8173828 L81.0644531,32 L79.4306641,32 L79.4306641,21.6298828 L81.1259766,21.6298828 L81.1259766,25.7109375 L81.2421875,25.7109375 C81.6318359,24.8974609 82.4931641,24.3984375 83.5185547,24.3984375 C85.4121094,24.3984375 86.5878906,25.8681641 86.5878906,28.2607422 C86.5878906,30.6396484 85.4052734,32.1230469 83.5185547,32.1230469 Z M82.9853516,25.8408203 C81.8300781,25.8408203 81.0986328,26.7705078 81.0986328,28.2607422 C81.0986328,29.7509766 81.8232422,30.6806641 82.9853516,30.6806641 C84.1474609,30.6806641 84.8447266,29.7646484 84.8447266,28.2607422 C84.8447266,26.7568359 84.140625,25.8408203 82.9853516,25.8408203 Z M90.8466797,30.7900391 C91.8720703,30.7900391 92.6376953,30.1269531 92.6376953,29.2587891 L92.6376953,28.6640625 L90.9492188,28.7734375 C89.9990234,28.8349609 89.5546875,29.1767578 89.5546875,29.7851562 C89.5546875,30.4140625 90.0947266,30.7900391 90.8466797,30.7900391 Z M90.3476562,32.1230469 C88.9052734,32.1230469 87.8730469,31.2480469 87.8730469,29.8808594 C87.8730469,28.5273438 88.8916016,27.7480469 90.7099609,27.6386719 L92.6376953,27.5224609 L92.6376953,26.8935547 C92.6376953,26.1621094 92.1455078,25.7519531 91.2294922,25.7519531 C90.4501953,25.7519531 89.9169922,26.0253906 89.7597656,26.53125 L88.1601562,26.53125 C88.296875,25.2119141 89.5341797,24.3710938 91.3115234,24.3710938 C93.2324219,24.3710938 94.3125,25.3076172 94.3125,26.8935547 L94.3125,32 L92.6787109,32 L92.6787109,30.9746094 L92.5625,30.9746094 C92.1455078,31.6992188 91.3251953,32.1230469 90.3476562,32.1230469 Z M102.80957,27.0371094 L101.196289,27.0371094 C101.039062,26.3125 100.478516,25.7929688 99.5488281,25.7929688 C98.3867188,25.7929688 97.6962891,26.6884766 97.6962891,28.2402344 C97.6962891,29.8125 98.3935547,30.7285156 99.5488281,30.7285156 C100.430664,30.7285156 101.018555,30.3115234 101.196289,29.5322266 L102.80957,29.5322266 C102.625,31.0976562 101.449219,32.1503906 99.5556641,32.1503906 C97.3066406,32.1503906 95.9804688,30.7011719 95.9804688,28.2402344 C95.9804688,25.8134766 97.2998047,24.3710938 99.5488281,24.3710938 C101.469727,24.3710938 102.631836,25.4648438 102.80957,27.0371094 Z M106.30957,27.5703125 L109.071289,24.5214844 L111.040039,24.5214844 L108.05957,27.7275391 L111.245117,32 L109.194336,32 L106.794922,28.7939453 L106.193359,29.3955078 L106.193359,32 L104.498047,32 L104.498047,21.6298828 L106.193359,21.6298828 L106.193359,27.5703125 L106.30957,27.5703125 Z" id="App-feedback" fill="#24124D"></path>
            </g>
            <g>
                <rect id="Rectangle-11" fill="#F1EFF8" x="0" y="0" width="176" height="80" rx="4"></rect>
                <g id="plus" transform="translate(81.000000, 33.000000)" stroke="#7B7194" stroke-linecap="round" stroke-linejoin="round" stroke-width="2">
                    <path d="M7,0 L7,14" id="Shape"></path>
                    <path d="M0,7 L14,7" id="Shape"></path>
                </g>
            </g>
        </g>
    </g>
</svg>