<?xml version="1.0" encoding="UTF-8"?>
<svg width="400px" height="320px" viewBox="0 0 400 320" version="1.1" xmlns="http://www.w3.org/2000/svg" xmlns:xlink="http://www.w3.org/1999/xlink">
    <!-- Generator: Sketch 51 (57462) - http://www.bohemiancoding.com/sketch -->
    <title>snippet/projects-research</title>
    <desc>Created with Sketch.</desc>
    <defs>
        <rect id="path-1" x="2" y="2" width="172" height="76" rx="4"></rect>
        <filter x="-4.1%" y="-6.6%" width="108.1%" height="118.4%" filterUnits="objectBoundingBox" id="filter-2">
            <feOffset dx="0" dy="2" in="SourceAlpha" result="shadowOffsetOuter1"></feOffset>
            <feGaussianBlur stdDeviation="2" in="shadowOffsetOuter1" result="shadowBlurOuter1"></feGaussianBlur>
            <feColorMatrix values="0 0 0 0 0   0 0 0 0 0   0 0 0 0 0  0 0 0 0.2 0" type="matrix" in="shadowBlurOuter1"></feColorMatrix>
        </filter>
        <rect id="path-3" x="0" y="0" width="176" height="80" rx="4"></rect>
        <filter x="-2.6%" y="-4.4%" width="105.1%" height="111.2%" filterUnits="objectBoundingBox" id="filter-4">
            <feMorphology radius="1" operator="dilate" in="SourceAlpha" result="shadowSpreadOuter1"></feMorphology>
            <feOffset dx="0" dy="1" in="shadowSpreadOuter1" result="shadowOffsetOuter1"></feOffset>
            <feGaussianBlur stdDeviation="1" in="shadowOffsetOuter1" result="shadowBlurOuter1"></feGaussianBlur>
            <feComposite in="shadowBlurOuter1" in2="SourceAlpha" operator="out" result="shadowBlurOuter1"></feComposite>
            <feColorMatrix values="0 0 0 0 0   0 0 0 0 0   0 0 0 0 0  0 0 0 0.04 0" type="matrix" in="shadowBlurOuter1"></feColorMatrix>
        </filter>
        <circle id="path-5" cx="8" cy="8" r="8"></circle>
        <rect id="path-7" x="2" y="2" width="172" height="76" rx="4"></rect>
        <filter x="-4.1%" y="-6.6%" width="108.1%" height="118.4%" filterUnits="objectBoundingBox" id="filter-8">
            <feOffset dx="0" dy="2" in="SourceAlpha" result="shadowOffsetOuter1"></feOffset>
            <feGaussianBlur stdDeviation="2" in="shadowOffsetOuter1" result="shadowBlurOuter1"></feGaussianBlur>
            <feColorMatrix values="0 0 0 0 0   0 0 0 0 0   0 0 0 0 0  0 0 0 0.2 0" type="matrix" in="shadowBlurOuter1"></feColorMatrix>
        </filter>
        <rect id="path-9" x="0" y="0" width="176" height="80" rx="4"></rect>
        <filter x="-2.6%" y="-4.4%" width="105.1%" height="111.2%" filterUnits="objectBoundingBox" id="filter-10">
            <feMorphology radius="1" operator="dilate" in="SourceAlpha" result="shadowSpreadOuter1"></feMorphology>
            <feOffset dx="0" dy="1" in="shadowSpreadOuter1" result="shadowOffsetOuter1"></feOffset>
            <feGaussianBlur stdDeviation="1" in="shadowOffsetOuter1" result="shadowBlurOuter1"></feGaussianBlur>
            <feComposite in="shadowBlurOuter1" in2="SourceAlpha" operator="out" result="shadowBlurOuter1"></feComposite>
            <feColorMatrix values="0 0 0 0 0   0 0 0 0 0   0 0 0 0 0  0 0 0 0.04 0" type="matrix" in="shadowBlurOuter1"></feColorMatrix>
        </filter>
        <circle id="path-11" cx="8" cy="8" r="8"></circle>
        <circle id="path-13" cx="8" cy="8" r="8"></circle>
        <circle id="path-15" cx="8" cy="8" r="8"></circle>
        <rect id="path-17" x="2" y="2" width="172" height="76" rx="4"></rect>
        <filter x="-4.1%" y="-6.6%" width="108.1%" height="118.4%" filterUnits="objectBoundingBox" id="filter-18">
            <feOffset dx="0" dy="2" in="SourceAlpha" result="shadowOffsetOuter1"></feOffset>
            <feGaussianBlur stdDeviation="2" in="shadowOffsetOuter1" result="shadowBlurOuter1"></feGaussianBlur>
            <feColorMatrix values="0 0 0 0 0   0 0 0 0 0   0 0 0 0 0  0 0 0 0.2 0" type="matrix" in="shadowBlurOuter1"></feColorMatrix>
        </filter>
        <rect id="path-19" x="0" y="0" width="176" height="80" rx="4"></rect>
        <filter x="-2.6%" y="-4.4%" width="105.1%" height="111.2%" filterUnits="objectBoundingBox" id="filter-20">
            <feMorphology radius="1" operator="dilate" in="SourceAlpha" result="shadowSpreadOuter1"></feMorphology>
            <feOffset dx="0" dy="1" in="shadowSpreadOuter1" result="shadowOffsetOuter1"></feOffset>
            <feGaussianBlur stdDeviation="1" in="shadowOffsetOuter1" result="shadowBlurOuter1"></feGaussianBlur>
            <feComposite in="shadowBlurOuter1" in2="SourceAlpha" operator="out" result="shadowBlurOuter1"></feComposite>
            <feColorMatrix values="0 0 0 0 0   0 0 0 0 0   0 0 0 0 0  0 0 0 0.04 0" type="matrix" in="shadowBlurOuter1"></feColorMatrix>
        </filter>
        <circle id="path-21" cx="8" cy="8" r="8"></circle>
        <circle id="path-23" cx="8" cy="8" r="8"></circle>
        <rect id="path-25" x="2" y="2" width="172" height="76" rx="4"></rect>
        <filter x="-4.1%" y="-6.6%" width="108.1%" height="118.4%" filterUnits="objectBoundingBox" id="filter-26">
            <feOffset dx="0" dy="2" in="SourceAlpha" result="shadowOffsetOuter1"></feOffset>
            <feGaussianBlur stdDeviation="2" in="shadowOffsetOuter1" result="shadowBlurOuter1"></feGaussianBlur>
            <feColorMatrix values="0 0 0 0 0   0 0 0 0 0   0 0 0 0 0  0 0 0 0.2 0" type="matrix" in="shadowBlurOuter1"></feColorMatrix>
        </filter>
        <rect id="path-27" x="0" y="0" width="176" height="80" rx="4"></rect>
        <filter x="-2.6%" y="-4.4%" width="105.1%" height="111.2%" filterUnits="objectBoundingBox" id="filter-28">
            <feMorphology radius="1" operator="dilate" in="SourceAlpha" result="shadowSpreadOuter1"></feMorphology>
            <feOffset dx="0" dy="1" in="shadowSpreadOuter1" result="shadowOffsetOuter1"></feOffset>
            <feGaussianBlur stdDeviation="1" in="shadowOffsetOuter1" result="shadowBlurOuter1"></feGaussianBlur>
            <feComposite in="shadowBlurOuter1" in2="SourceAlpha" operator="out" result="shadowBlurOuter1"></feComposite>
            <feColorMatrix values="0 0 0 0 0   0 0 0 0 0   0 0 0 0 0  0 0 0 0.04 0" type="matrix" in="shadowBlurOuter1"></feColorMatrix>
        </filter>
        <circle id="path-29" cx="8" cy="8" r="8"></circle>
        <circle id="path-31" cx="8" cy="8" r="8"></circle>
    </defs>
    <g id="snippet/projects-research" stroke="none" stroke-width="1" fill="none" fill-rule="evenodd">
        <g id="Group" transform="translate(16.000000, 16.000000)">
            <g transform="translate(0.000000, 192.000000)">
                <g id="component/card">
                    <g id="Shadow">
                        <use fill="black" fill-opacity="1" filter="url(#filter-2)" xlink:href="#path-1"></use>
                        <use fill="#FFFFFF" fill-rule="evenodd" xlink:href="#path-1"></use>
                    </g>
                    <g id="Card" stroke-linecap="square">
                        <use fill="black" fill-opacity="1" filter="url(#filter-4)" xlink:href="#path-3"></use>
                        <rect stroke-opacity="0.098194067" stroke="#140B2F" stroke-width="1" fill="#FFFFFF" fill-rule="evenodd" x="-0.5" y="-0.5" width="177" height="81" rx="4"></rect>
                    </g>
                </g>
                <g transform="translate(16.000000, 48.000000)">
                    <mask id="mask-6" fill="white">
                        <use xlink:href="#path-5"></use>
                    </mask>
                    <use id="Oval-2" fill="#A5A5D8" opacity="0.300000012" xlink:href="#path-5"></use>
                    <g mask="url(#mask-6)">
                        <g transform="translate(2.666667, 3.333333)">
                            <path d="M7.83333333,0.666666667 C8.18146753,0.888248798 7.83333333,3 8,3.66666667 C8.13819519,4.21944742 7.2493063,3.66389187 5.33333333,2 C4.33813464,2.56734456 3.67146797,2.90067789 3.33333333,3 C2.0742573,3.36983519 2.24071936,2.29003882 2.33333333,2 C2.51661276,1.40337197 2.24785065,1.12936535 2.66666667,0.666666667 C3.1326993,0.138866884 3.74863433,0.240194557 4.44837589,0.123610715 C4.91018702,0.0485550114 5.39679485,0.030525994 5.86175727,0 C5.87916818,0.000412454479 5.89621967,0.00534851917 5.91121277,0.0143163755 C5.93407052,0.0259411521 5.95413454,0.0423854108 5.96998426,0.0624848829 C6.03780913,0.163086443 6.0973701,0.268892038 6.14808121,0.378860755 C6.16500931,0.431711963 6.20007972,0.477164069 6.24713008,0.507230503 C6.29193987,0.528608531 6.34160038,0.537601167 6.39083859,0.533253564 C6.77230062,0.530083891 7.50170961,0.475424755 7.83333333,0.666666667 Z" id="Shape" fill="#7E7EB1" fill-rule="nonzero"></path>
                            <path d="M10.6666667,13 L0,13 C0,12.3396068 0.333333333,7.5 3,7.5 C3,7.5 4.36781609,9.66666667 5.33333333,9.66666667 C6.29885057,9.66666667 7.66666667,7.5 7.66666667,7.5 C9.44444444,7.5 10.4444444,9.33333333 10.6666667,13 Z" id="Shape" fill="#A5A5D8" fill-rule="nonzero"></path>
                            <path d="M7.66666667,7.66663204 C7.66666667,8.77775469 6.88888889,9.88887735 5.33333333,11 C3.77777778,9.88887735 3,8.77775469 3,7.66663204 C3,7.66663204 7.66666667,7.66663204 7.66666667,7.66663204 Z" id="Shape" fill="#7878AB" fill-rule="nonzero"></path>
                            <path d="M6.66666667,7.33977999 C6.66666667,8.29419146 6.22222228,9.01000007 5.3333335,9.01000007 C4.45805975,9.01000007 4.02000739,8.27226522 4.00000033,7.33977999 C4.00000033,7.33977999 4.00000022,6.89318666 4,6 L6.66666667,6 C6.66666667,6.89318666 6.66666667,7.33977999 6.66666667,7.33977999 Z" id="Shape" fill="#B6B6E9" fill-rule="nonzero"></path>
                            <path d="M5,1.83333333 C5.79795627,1.68825038 6.5,1.83333333 7,2 C7.5,2.16666667 7.5,2.66666667 7.5,2.66666667 C7.5,2.66666667 7.52687308,4.40434255 7.33333333,5.33333333 C7.13979359,6.26232411 7,6.33333333 6.66666667,6.66666667 C6.33333333,7 4.33333333,7 4,6.66666667 C3.66666667,6.33333333 3.42384687,6 3.33333333,5.33333333 C3.2428198,4.66666667 3.16666667,3 3.33333333,2.66666667 C3.5,2.33333333 4.20204373,1.97841629 5,1.83333333 Z" id="Shape" fill="#C8C8F7" fill-rule="nonzero"></path>
                            <path d="M4.49527604,3.71260952 C4.60282833,3.82777695 4.65995854,3.92632688 4.66666667,4.00825931 C4.66331842,4.06164186 4.64617942,4.1130838 4.61692116,4.15756817 C4.55880403,4.25916899 4.45392421,4.32493835 4.33667093,4.33331103 C4.27669267,4.33401336 4.21749467,4.31811297 4.16562323,4.28736818 C4.0686848,4.22842073 4.00667176,4.12564063 4.00002523,4.0129069 C3.9992322,3.94773836 4.01714678,3.88392795 4.05164446,3.82904305 C4.10735128,3.73070065 4.21068249,3.66914695 4.32422835,3.66666667 C4.38411604,3.66673193 4.44311331,3.6825784 4.49527604,3.71260952 Z M6.15476053,3.69956454 C6.25877728,3.75712608 6.32637386,3.86470921 6.33330817,3.9837315 C6.33409895,4.0493349 6.31623532,4.1135711 6.28183578,4.16882224 C6.22628741,4.26782087 6.12325013,4.32978531 6.01002725,4.33228214 C5.9489971,4.33701393 5.88760733,4.32571687 5.83182156,4.29948839 C5.73308849,4.24225673 5.6704921,4.13751957 5.6666946,4.02319566 C5.66445025,3.84115525 5.7976849,3.68789859 5.97655484,3.66677079 C6.01648946,3.66572856 6.07589135,3.67665981 6.15476053,3.69956454 Z" id="Shape" fill="#7272A5" fill-rule="nonzero"></path>
                            <path d="M4,6.66666667 L4,7.16666667 C4.66666667,7.5 5.22222222,7.66666667 5.66666667,7.66666667 C6.11111111,7.66666667 6.44444444,7.55555556 6.66666667,7.33333333 L6.66666667,6.66666667 C6.11111111,6.77777778 5.66666667,6.83333333 5.33333333,6.83333333 C5.11111111,6.83333333 4.66666667,6.77777778 4,6.66666667 Z" id="Path-2" fill="#9898CB" fill-rule="evenodd"></path>
                        </g>
                    </g>
                </g>
                <path d="M21.4755859,21.8896484 C24.3398438,21.8896484 26.1308594,23.8789062 26.1308594,27.0644531 C26.1308594,30.2431641 24.3535156,32.2460938 21.4755859,32.2460938 C18.5771484,32.2460938 16.7998047,30.25 16.7998047,27.0644531 C16.7998047,23.8789062 18.6113281,21.8896484 21.4755859,21.8896484 Z M21.4755859,23.4550781 C19.71875,23.4550781 18.6044922,24.8564453 18.6044922,27.0644531 C18.6044922,29.265625 19.6914062,30.6806641 21.4755859,30.6806641 C23.2324219,30.6806641 24.3261719,29.265625 24.3261719,27.0644531 C24.3261719,24.8564453 23.2255859,23.4550781 21.4755859,23.4550781 Z M34.4296875,27.0371094 L32.8164062,27.0371094 C32.6591797,26.3125 32.0986328,25.7929688 31.1689453,25.7929688 C30.0068359,25.7929688 29.3164062,26.6884766 29.3164062,28.2402344 C29.3164062,29.8125 30.0136719,30.7285156 31.1689453,30.7285156 C32.0507812,30.7285156 32.6386719,30.3115234 32.8164062,29.5322266 L34.4296875,29.5322266 C34.2451172,31.0976562 33.0693359,32.1503906 31.1757812,32.1503906 C28.9267578,32.1503906 27.6005859,30.7011719 27.6005859,28.2402344 C27.6005859,25.8134766 28.9199219,24.3710938 31.1689453,24.3710938 C33.0898438,24.3710938 34.2519531,25.4648438 34.4296875,27.0371094 Z M36.5898438,22.7373047 L38.2783203,22.7373047 L38.2783203,24.5693359 L39.9189453,24.5693359 L39.9189453,25.9228516 L38.2783203,25.9228516 L38.2783203,29.59375 C38.2783203,30.3320312 38.5927734,30.6601562 39.3037109,30.6601562 C39.5429688,30.6601562 39.6660156,30.6464844 39.8642578,30.6259766 L39.8642578,31.9521484 C39.625,32 39.3173828,32.0341797 38.9892578,32.0341797 C37.2734375,32.0341797 36.5898438,31.453125 36.5898438,30.0039062 L36.5898438,25.9228516 L35.3730469,25.9228516 L35.3730469,24.5693359 L36.5898438,24.5693359 L36.5898438,22.7373047 Z M44.7998047,30.7285156 C45.9824219,30.7285156 46.6523438,29.8261719 46.6523438,28.2607422 C46.6523438,26.7021484 45.9755859,25.7929688 44.7998047,25.7929688 C43.6171875,25.7929688 42.9404297,26.7021484 42.9404297,28.2607422 C42.9404297,29.8261719 43.6171875,30.7285156 44.7998047,30.7285156 Z M44.7998047,32.1503906 C42.5576172,32.1503906 41.2041016,30.6875 41.2041016,28.2607422 C41.2041016,25.8476562 42.578125,24.3710938 44.7998047,24.3710938 C47.0283203,24.3710938 48.3955078,25.8408203 48.3955078,28.2607422 C48.3955078,30.6875 47.0351562,32.1503906 44.7998047,32.1503906 Z M54.2607422,32.1230469 C53.2148438,32.1230469 52.3466797,31.6376953 51.9228516,30.8173828 L51.8066406,30.8173828 L51.8066406,32 L50.1728516,32 L50.1728516,21.6298828 L51.8681641,21.6298828 L51.8681641,25.7109375 L51.984375,25.7109375 C52.3740234,24.8974609 53.2353516,24.3984375 54.2607422,24.3984375 C56.1542969,24.3984375 57.3300781,25.8681641 57.3300781,28.2607422 C57.3300781,30.6396484 56.1474609,32.1230469 54.2607422,32.1230469 Z M53.7275391,25.8408203 C52.5722656,25.8408203 51.8408203,26.7705078 51.8408203,28.2607422 C51.8408203,29.7509766 52.5654297,30.6806641 53.7275391,30.6806641 C54.8896484,30.6806641 55.5869141,29.7646484 55.5869141,28.2607422 C55.5869141,26.7568359 54.8828125,25.8408203 53.7275391,25.8408203 Z M62.1699219,25.7177734 C61.1582031,25.7177734 60.4472656,26.4423828 60.3720703,27.5361328 L63.8925781,27.5361328 C63.8583984,26.4287109 63.1884766,25.7177734 62.1699219,25.7177734 Z M63.90625,29.9423828 L65.5126953,29.9423828 C65.1914062,31.3027344 63.9541016,32.1503906 62.1904297,32.1503906 C59.9892578,32.1503906 58.6630859,30.6943359 58.6630859,28.2880859 C58.6630859,25.8818359 60.0097656,24.3710938 62.1767578,24.3710938 C64.3095703,24.3710938 65.5878906,25.7861328 65.5878906,28.1445312 L65.5878906,28.6914062 L60.3652344,28.6914062 L60.3652344,28.7802734 C60.40625,30.0244141 61.1240234,30.8037109 62.2382812,30.8037109 C63.0791016,30.8037109 63.6601562,30.4960938 63.90625,29.9423828 Z M67.2900391,32 L67.2900391,24.5214844 L68.9238281,24.5214844 L68.9238281,25.6835938 L69.0400391,25.6835938 C69.2451172,24.9453125 70.0449219,24.3984375 71.0019531,24.3984375 C71.2412109,24.3984375 71.5351562,24.4257812 71.6992188,24.4736328 L71.6992188,26.0458984 C71.5693359,25.9980469 71.1044922,25.9501953 70.8378906,25.9501953 C69.7509766,25.9501953 68.9853516,26.6337891 68.9853516,27.6796875 L68.9853516,32 L67.2900391,32 Z M83.4296875,24.5214844 L83.4296875,32 L81.7958984,32 L81.7958984,30.8105469 L81.6796875,30.8105469 C81.3173828,31.6650391 80.4697266,32.1503906 79.3623047,32.1503906 C77.7148438,32.1503906 76.6962891,31.1318359 76.6962891,29.3613281 L76.6962891,24.5214844 L78.3916016,24.5214844 L78.3916016,28.9580078 C78.3916016,30.1064453 78.9316406,30.6601562 79.9501953,30.6601562 C81.0439453,30.6601562 81.734375,29.9833984 81.734375,28.8759766 L81.734375,24.5214844 L83.4296875,24.5214844 Z M85.3369141,26.6611328 C85.3369141,25.3076172 86.5673828,24.3710938 88.3310547,24.3710938 C90.1083984,24.3710938 91.2226562,25.1572266 91.3457031,26.5175781 L89.7529297,26.5175781 C89.6298828,25.9912109 89.1308594,25.65625 88.3378906,25.65625 C87.5654297,25.65625 86.984375,26.0253906 86.984375,26.5654297 C86.984375,26.9892578 87.3398438,27.2490234 88.0917969,27.4199219 L89.4111328,27.7207031 C90.8398438,28.0419922 91.5029297,28.6572266 91.5029297,29.7578125 C91.5029297,31.1933594 90.1835938,32.1503906 88.3173828,32.1503906 C86.4511719,32.1503906 85.2753906,31.34375 85.1455078,29.9833984 L86.8203125,29.9833984 C86.984375,30.5371094 87.5107422,30.8652344 88.3583984,30.8652344 C89.2128906,30.8652344 89.8076172,30.4892578 89.8076172,29.9355469 C89.8076172,29.5117188 89.4863281,29.2451172 88.7753906,29.0878906 L87.4492188,28.7802734 C86.0136719,28.4521484 85.3369141,27.7890625 85.3369141,26.6611328 Z M96.3564453,25.7177734 C95.3447266,25.7177734 94.6337891,26.4423828 94.5585938,27.5361328 L98.0791016,27.5361328 C98.0449219,26.4287109 97.375,25.7177734 96.3564453,25.7177734 Z M98.0927734,29.9423828 L99.6992188,29.9423828 C99.3779297,31.3027344 98.140625,32.1503906 96.3769531,32.1503906 C94.1757812,32.1503906 92.8496094,30.6943359 92.8496094,28.2880859 C92.8496094,25.8818359 94.1962891,24.3710938 96.3632812,24.3710938 C98.4960938,24.3710938 99.7744141,25.7861328 99.7744141,28.1445312 L99.7744141,28.6914062 L94.5517578,28.6914062 L94.5517578,28.7802734 C94.5927734,30.0244141 95.3105469,30.8037109 96.4248047,30.8037109 C97.265625,30.8037109 97.8466797,30.4960938 98.0927734,29.9423828 Z M101.476562,32 L101.476562,24.5214844 L103.110352,24.5214844 L103.110352,25.6835938 L103.226562,25.6835938 C103.431641,24.9453125 104.231445,24.3984375 105.188477,24.3984375 C105.427734,24.3984375 105.72168,24.4257812 105.885742,24.4736328 L105.885742,26.0458984 C105.755859,25.9980469 105.291016,25.9501953 105.024414,25.9501953 C103.9375,25.9501953 103.171875,26.6337891 103.171875,27.6796875 L103.171875,32 L101.476562,32 Z M110.780273,26.6611328 C110.780273,25.3076172 112.010742,24.3710938 113.774414,24.3710938 C115.551758,24.3710938 116.666016,25.1572266 116.789062,26.5175781 L115.196289,26.5175781 C115.073242,25.9912109 114.574219,25.65625 113.78125,25.65625 C113.008789,25.65625 112.427734,26.0253906 112.427734,26.5654297 C112.427734,26.9892578 112.783203,27.2490234 113.535156,27.4199219 L114.854492,27.7207031 C116.283203,28.0419922 116.946289,28.6572266 116.946289,29.7578125 C116.946289,31.1933594 115.626953,32.1503906 113.760742,32.1503906 C111.894531,32.1503906 110.71875,31.34375 110.588867,29.9833984 L112.263672,29.9833984 C112.427734,30.5371094 112.954102,30.8652344 113.801758,30.8652344 C114.65625,30.8652344 115.250977,30.4892578 115.250977,29.9355469 C115.250977,29.5117188 114.929688,29.2451172 114.21875,29.0878906 L112.892578,28.7802734 C111.457031,28.4521484 110.780273,27.7890625 110.780273,26.6611328 Z M125.327148,24.5214844 L125.327148,32 L123.693359,32 L123.693359,30.8105469 L123.577148,30.8105469 C123.214844,31.6650391 122.367188,32.1503906 121.259766,32.1503906 C119.612305,32.1503906 118.59375,31.1318359 118.59375,29.3613281 L118.59375,24.5214844 L120.289062,24.5214844 L120.289062,28.9580078 C120.289062,30.1064453 120.829102,30.6601562 121.847656,30.6601562 C122.941406,30.6601562 123.631836,29.9833984 123.631836,28.8759766 L123.631836,24.5214844 L125.327148,24.5214844 Z M127.405273,32 L127.405273,24.5214844 L129.039062,24.5214844 L129.039062,25.6835938 L129.155273,25.6835938 C129.360352,24.9453125 130.160156,24.3984375 131.117188,24.3984375 C131.356445,24.3984375 131.650391,24.4257812 131.814453,24.4736328 L131.814453,26.0458984 C131.68457,25.9980469 131.219727,25.9501953 130.953125,25.9501953 C129.866211,25.9501953 129.100586,26.6337891 129.100586,27.6796875 L129.100586,32 L127.405273,32 Z M132.498047,24.5214844 L134.316406,24.5214844 L136.045898,30.3046875 L136.162109,30.3046875 L137.87793,24.5214844 L139.668945,24.5214844 L137.023438,32 L135.157227,32 L132.498047,24.5214844 Z M144.235352,25.7177734 C143.223633,25.7177734 142.512695,26.4423828 142.4375,27.5361328 L145.958008,27.5361328 C145.923828,26.4287109 145.253906,25.7177734 144.235352,25.7177734 Z M145.97168,29.9423828 L147.578125,29.9423828 C147.256836,31.3027344 146.019531,32.1503906 144.255859,32.1503906 C142.054688,32.1503906 140.728516,30.6943359 140.728516,28.2880859 C140.728516,25.8818359 142.075195,24.3710938 144.242188,24.3710938 C146.375,24.3710938 147.65332,25.7861328 147.65332,28.1445312 L147.65332,28.6914062 L142.430664,28.6914062 L142.430664,28.7802734 C142.47168,30.0244141 143.189453,30.8037109 144.303711,30.8037109 C145.144531,30.8037109 145.725586,30.4960938 145.97168,29.9423828 Z M150.175781,34.7207031 C150.073242,34.7207031 149.615234,34.7138672 149.505859,34.6933594 L149.505859,33.3125 C149.601562,33.3261719 149.854492,33.3330078 149.970703,33.3330078 C150.688477,33.3330078 151.091797,33.0527344 151.310547,32.3623047 L151.399414,32.0341797 L148.726562,24.5214844 L150.585938,24.5214844 L152.335938,30.359375 L152.452148,30.359375 L154.195312,24.5214844 L155.986328,24.5214844 L153.286133,32.2392578 C152.650391,34.0986328 151.850586,34.7207031 150.175781,34.7207031 Z" id="October-user-survey" fill="#24124D"></path>
            </g>
            <g transform="translate(192.000000, 96.000000)">
                <g id="component/card">
                    <g id="Shadow">
                        <use fill="black" fill-opacity="1" filter="url(#filter-8)" xlink:href="#path-7"></use>
                        <use fill="#FFFFFF" fill-rule="evenodd" xlink:href="#path-7"></use>
                    </g>
                    <g id="Card" stroke-linecap="square">
                        <use fill="black" fill-opacity="1" filter="url(#filter-10)" xlink:href="#path-9"></use>
                        <rect stroke-opacity="0.098194067" stroke="#140B2F" stroke-width="1" fill="#FFFFFF" fill-rule="evenodd" x="-0.5" y="-0.5" width="177" height="81" rx="4"></rect>
                    </g>
                </g>
                <g transform="translate(16.000000, 48.000000)">
                    <mask id="mask-12" fill="white">
                        <use xlink:href="#path-11"></use>
                    </mask>
                    <use id="Oval-2" fill="#A5A5D8" opacity="0.300000012" xlink:href="#path-11"></use>
                    <g mask="url(#mask-12)">
                        <g transform="translate(3.333333, 2.666667)">
                            <path d="M6.8136996,0.820610181 C7.16183381,1.04219231 7.46476578,1.32900052 7.69390317,1.67047843 C8.11148249,2.29402948 8.39980267,2.99302001 8.5417865,3.72604883 C8.63823561,4.20883685 8.70070992,4.70048306 8.78633633,5.17702259 L8.84113922,5.70695002 C8.85079925,5.78660483 8.81668988,5.86477345 8.75181998,5.9116434 L6.66666667,7.33333333 L4.66666667,5 L2.65361859,7.70116048 L1.3362627,6.88363762 L0.768824341,6.54179016 C0.727798025,6.51169114 0.701791426,6.46549237 0.697585563,6.41523981 C0.655165732,5.81344439 0.656396533,5.20990248 0.701268419,4.60929629 C0.748946693,3.96916645 0.871461281,3.33758359 1.0663447,2.72726796 C1.24962413,2.13063993 1.56141134,1.5820815 1.98022736,1.11938282 C2.44625999,0.591583034 3.08196767,0.240194557 3.78170922,0.123610715 C4.24352036,0.0485550114 4.73012818,0.030525994 5.1950906,0 C5.21250152,0.000412454479 5.22955301,0.00534851917 5.2445461,0.0143163755 C5.26740385,0.0259411521 5.28746787,0.0423854108 5.30331759,0.0624848829 C5.37114247,0.163086443 5.43070344,0.268892038 5.48141454,0.378860755 C5.49834264,0.431711963 5.53341306,0.477164069 5.58046342,0.507230503 C5.62527321,0.528608531 5.67493371,0.537601167 5.72417192,0.533253564 C6.10563395,0.530083891 6.48207588,0.629368269 6.8136996,0.820610181 Z" id="Shape" fill="#7878AB" fill-rule="nonzero"></path>
                            <path d="M9.33333333,13.3333333 L0,13.3333333 C0,12.6729402 0,7.83333333 2.66666667,7.83333333 C2.66666667,7.83333333 3.54022989,10 4.50574713,10 C5.47126437,10 6.66666667,7.83333333 6.66666667,7.83333333 C8.44444444,7.83333333 9.33333333,9.66666667 9.33333333,13.3333333 Z" id="Shape" fill="#A5A5D8" fill-rule="nonzero"></path>
                            <path d="M6.66666667,7.99996537 C6.66666667,9.32817214 5.99999976,10.3333333 4.66666642,10.3333333 C3.35375564,10.3333333 2.69667727,9.29765849 2.66666667,7.99996537 C2.66666667,7.99996537 6.66666667,7.99996537 6.66666667,7.99996537 Z" id="Shape" fill="#7878AB" fill-rule="nonzero"></path>
                            <path d="M6,8.00644665 C6,8.96085813 5.55555561,9.67666674 4.66666683,9.67666674 C3.79139308,9.67666674 3.35334072,8.93893189 3.33333366,8.00644665 C3.33333366,8.00644665 3.33333355,7.55985332 3.33333333,6.66666667 L6,6.66666667 C6,7.55985332 6,8.00644665 6,8.00644665 Z" id="Shape" fill="#B6B6E9" fill-rule="nonzero"></path>
                            <path d="M7,5.66666667 L6.66666667,7.33333333 L6,7.33333333 L6,6.33333333 C6.00761097,6.32551208 6.3409443,6.10328986 7,5.66666667 Z" id="Shape" fill="#636396" fill-rule="nonzero"></path>
                            <path d="M2.33333333,5.66666667 C2.53604161,5.98737324 3.30976386,6.63417256 3.33333333,6.65466774 L3.33333333,7.33333333 L2.66666667,7.66666667 C2.43582773,6.43259872 2.32471662,5.76593205 2.33333333,5.66666667 Z" id="Path" fill="#636396" fill-rule="evenodd"></path>
                            <path d="M5.66666667,2 L6.5707355,2.90766716 L7,3.35569401 C7.0191605,3.35569401 7.0191605,4.12601823 7,5.66666667 C6.77777778,6.33333333 6.55555556,6.77777778 6.33333333,7 C6,7.33333333 4.07057568,7.10256329 3.33333333,7 C2.95901165,6.94792531 2.5143604,6.66666667 2.42384687,6 C2.36350451,5.55555556 2.33333333,5 2.33333333,4.33333333 C2.87698772,4.07879349 3.43254327,3.75291372 4,3.35569401 C4.56745673,2.9584743 5.12301228,2.5065763 5.66666667,2 Z" id="Shape" fill="#C8C8F7" fill-rule="nonzero"></path>
                            <path d="M3.82860937,4.37927619 C3.93616166,4.49444361 3.99329187,4.59299354 4,4.67492598 C3.99665176,4.72830853 3.97951275,4.77975047 3.95025449,4.82423484 C3.89213736,4.92583566 3.78725755,4.99160502 3.67000426,4.9999777 C3.610026,5.00068003 3.550828,4.98477964 3.49895657,4.95403485 C3.40201814,4.8950874 3.34000509,4.79230729 3.33335857,4.67957356 C3.33256553,4.61440502 3.35048012,4.55059461 3.38497779,4.49570972 C3.44068462,4.39736732 3.54401582,4.33581362 3.65756168,4.33333333 C3.71744937,4.33339859 3.77644665,4.34924507 3.82860937,4.37927619 Z M5.48809386,4.36623121 C5.59211061,4.42379275 5.65970719,4.53137588 5.66664151,4.65039816 C5.66743228,4.71600156 5.64956866,4.78023777 5.61516911,4.83548891 C5.55962074,4.93448753 5.45658346,4.99645197 5.34336058,4.99894881 C5.28233044,5.0036806 5.22094067,4.99238354 5.1651549,4.96615506 C5.06642182,4.90892339 5.00382543,4.80418624 5.00002794,4.68986233 C4.99778358,4.50782191 5.13101824,4.35456526 5.30988817,4.33343746 C5.34982279,4.33239522 5.40922469,4.34332647 5.48809386,4.36623121 Z" id="Shape" fill="#7272A5" fill-rule="nonzero"></path>
                            <path d="M3.33333333,7 L3.33333333,7.33333333 C4,7.66666667 4.55555556,7.83333333 5,7.83333333 C5.44444444,7.83333333 5.77777778,7.72222222 6,7.5 L6,7.16666667 C5.44444444,7.16666667 5,7.16666667 4.66666667,7.16666667 C4.44444444,7.16666667 4,7.11111111 3.33333333,7 Z" id="Path-2" fill="#9898CB" fill-rule="evenodd"></path>
                        </g>
                    </g>
                </g>
                <g transform="translate(36.000000, 48.000000)">
                    <mask id="mask-14" fill="white">
                        <use xlink:href="#path-13"></use>
                    </mask>
                    <use id="Oval-2" fill="#A5A5D8" opacity="0.300000012" xlink:href="#path-13"></use>
                    <g mask="url(#mask-14)">
                        <g transform="translate(3.333333, 2.666667)">
                            <path d="M6.8136996,0.820610181 C7.16183381,1.04219231 7.46476578,1.32900052 7.69390317,1.67047843 C8.11148249,2.29402948 8.39980267,2.99302001 8.5417865,3.72604883 C8.63823561,4.20883685 8.70070992,4.70048306 8.78633633,5.17702259 L8.84113922,5.70695002 C8.85079925,5.78660483 8.81668988,5.86477345 8.75181998,5.9116434 L6.66666667,7.33333333 L4.66666667,5 L2.65361859,7.70116048 L1.3362627,6.88363762 L0.768824341,6.54179016 C0.727798025,6.51169114 0.701791426,6.46549237 0.697585563,6.41523981 C0.655165732,5.81344439 0.656396533,5.20990248 0.701268419,4.60929629 C0.748946693,3.96916645 0.871461281,3.33758359 1.0663447,2.72726796 C1.24962413,2.13063993 1.56141134,1.5820815 1.98022736,1.11938282 C2.44625999,0.591583034 3.08196767,0.240194557 3.78170922,0.123610715 C4.24352036,0.0485550114 4.73012818,0.030525994 5.1950906,0 C5.21250152,0.000412454479 5.22955301,0.00534851917 5.2445461,0.0143163755 C5.26740385,0.0259411521 5.28746787,0.0423854108 5.30331759,0.0624848829 C5.37114247,0.163086443 5.43070344,0.268892038 5.48141454,0.378860755 C5.49834264,0.431711963 5.53341306,0.477164069 5.58046342,0.507230503 C5.62527321,0.528608531 5.67493371,0.537601167 5.72417192,0.533253564 C6.10563395,0.530083891 6.48207588,0.629368269 6.8136996,0.820610181 Z" id="Shape" fill="#7878AB" fill-rule="nonzero"></path>
                            <path d="M9.33333333,13.3333333 L0,13.3333333 C0,12.6729402 0,7.83333333 2.66666667,7.83333333 C2.66666667,7.83333333 3.54022989,10 4.50574713,10 C5.47126437,10 6.66666667,7.83333333 6.66666667,7.83333333 C8.44444444,7.83333333 9.33333333,9.66666667 9.33333333,13.3333333 Z" id="Shape" fill="#A5A5D8" fill-rule="nonzero"></path>
                            <path d="M6.66666667,7.99996537 C6.66666667,9.32817214 5.99999976,10.3333333 4.66666642,10.3333333 C3.35375564,10.3333333 2.69667727,9.29765849 2.66666667,7.99996537 C2.66666667,7.99996537 6.66666667,7.99996537 6.66666667,7.99996537 Z" id="Shape" fill="#7878AB" fill-rule="nonzero"></path>
                            <path d="M6,8.00644665 C6,8.96085813 5.55555561,9.67666674 4.66666683,9.67666674 C3.79139308,9.67666674 3.35334072,8.93893189 3.33333366,8.00644665 C3.33333366,8.00644665 3.33333355,7.55985332 3.33333333,6.66666667 L6,6.66666667 C6,7.55985332 6,8.00644665 6,8.00644665 Z" id="Shape" fill="#B6B6E9" fill-rule="nonzero"></path>
                            <path d="M7,5.66666667 L6.66666667,7.33333333 L6,7.33333333 L6,6.33333333 C6.00761097,6.32551208 6.3409443,6.10328986 7,5.66666667 Z" id="Shape" fill="#636396" fill-rule="nonzero"></path>
                            <path d="M2.33333333,5.66666667 C2.53604161,5.98737324 3.30976386,6.63417256 3.33333333,6.65466774 L3.33333333,7.33333333 L2.66666667,7.66666667 C2.43582773,6.43259872 2.32471662,5.76593205 2.33333333,5.66666667 Z" id="Path" fill="#636396" fill-rule="evenodd"></path>
                            <path d="M5.66666667,2 L6.5707355,2.90766716 L7,3.35569401 C7.0191605,3.35569401 7.0191605,4.12601823 7,5.66666667 C6.77777778,6.33333333 6.55555556,6.77777778 6.33333333,7 C6,7.33333333 4.07057568,7.10256329 3.33333333,7 C2.95901165,6.94792531 2.5143604,6.66666667 2.42384687,6 C2.36350451,5.55555556 2.33333333,5 2.33333333,4.33333333 C2.87698772,4.07879349 3.43254327,3.75291372 4,3.35569401 C4.56745673,2.9584743 5.12301228,2.5065763 5.66666667,2 Z" id="Shape" fill="#C8C8F7" fill-rule="nonzero"></path>
                            <path d="M3.82860937,4.37927619 C3.93616166,4.49444361 3.99329187,4.59299354 4,4.67492598 C3.99665176,4.72830853 3.97951275,4.77975047 3.95025449,4.82423484 C3.89213736,4.92583566 3.78725755,4.99160502 3.67000426,4.9999777 C3.610026,5.00068003 3.550828,4.98477964 3.49895657,4.95403485 C3.40201814,4.8950874 3.34000509,4.79230729 3.33335857,4.67957356 C3.33256553,4.61440502 3.35048012,4.55059461 3.38497779,4.49570972 C3.44068462,4.39736732 3.54401582,4.33581362 3.65756168,4.33333333 C3.71744937,4.33339859 3.77644665,4.34924507 3.82860937,4.37927619 Z M5.48809386,4.36623121 C5.59211061,4.42379275 5.65970719,4.53137588 5.66664151,4.65039816 C5.66743228,4.71600156 5.64956866,4.78023777 5.61516911,4.83548891 C5.55962074,4.93448753 5.45658346,4.99645197 5.34336058,4.99894881 C5.28233044,5.0036806 5.22094067,4.99238354 5.1651549,4.96615506 C5.06642182,4.90892339 5.00382543,4.80418624 5.00002794,4.68986233 C4.99778358,4.50782191 5.13101824,4.35456526 5.30988817,4.33343746 C5.34982279,4.33239522 5.40922469,4.34332647 5.48809386,4.36623121 Z" id="Shape" fill="#7272A5" fill-rule="nonzero"></path>
                            <path d="M3.33333333,7 L3.33333333,7.33333333 C4,7.66666667 4.55555556,7.83333333 5,7.83333333 C5.44444444,7.83333333 5.77777778,7.72222222 6,7.5 L6,7.16666667 C5.44444444,7.16666667 5,7.16666667 4.66666667,7.16666667 C4.44444444,7.16666667 4,7.11111111 3.33333333,7 Z" id="Path-2" fill="#9898CB" fill-rule="evenodd"></path>
                        </g>
                    </g>
                </g>
                <g transform="translate(56.000000, 48.000000)">
                    <mask id="mask-16" fill="white">
                        <use xlink:href="#path-15"></use>
                    </mask>
                    <use id="Oval-2" fill="#A5A5D8" opacity="0.300000012" xlink:href="#path-15"></use>
                    <g mask="url(#mask-16)">
                        <g transform="translate(2.666667, 3.333333)">
                            <path d="M7.83333333,0.666666667 C8.18146753,0.888248798 7.83333333,3 8,3.66666667 C8.13819519,4.21944742 7.2493063,3.66389187 5.33333333,2 C4.33813464,2.56734456 3.67146797,2.90067789 3.33333333,3 C2.0742573,3.36983519 2.24071936,2.29003882 2.33333333,2 C2.51661276,1.40337197 2.24785065,1.12936535 2.66666667,0.666666667 C3.1326993,0.138866884 3.74863433,0.240194557 4.44837589,0.123610715 C4.91018702,0.0485550114 5.39679485,0.030525994 5.86175727,0 C5.87916818,0.000412454479 5.89621967,0.00534851917 5.91121277,0.0143163755 C5.93407052,0.0259411521 5.95413454,0.0423854108 5.96998426,0.0624848829 C6.03780913,0.163086443 6.0973701,0.268892038 6.14808121,0.378860755 C6.16500931,0.431711963 6.20007972,0.477164069 6.24713008,0.507230503 C6.29193987,0.528608531 6.34160038,0.537601167 6.39083859,0.533253564 C6.77230062,0.530083891 7.50170961,0.475424755 7.83333333,0.666666667 Z" id="Shape" fill="#7E7EB1" fill-rule="nonzero"></path>
                            <path d="M10.6666667,13 L0,13 C0,12.3396068 0.333333333,7.5 3,7.5 C3,7.5 4.36781609,9.66666667 5.33333333,9.66666667 C6.29885057,9.66666667 7.66666667,7.5 7.66666667,7.5 C9.44444444,7.5 10.4444444,9.33333333 10.6666667,13 Z" id="Shape" fill="#A5A5D8" fill-rule="nonzero"></path>
                            <path d="M7.66666667,7.66663204 C7.66666667,8.77775469 6.88888889,9.88887735 5.33333333,11 C3.77777778,9.88887735 3,8.77775469 3,7.66663204 C3,7.66663204 7.66666667,7.66663204 7.66666667,7.66663204 Z" id="Shape" fill="#7878AB" fill-rule="nonzero"></path>
                            <path d="M6.66666667,7.33977999 C6.66666667,8.29419146 6.22222228,9.01000007 5.3333335,9.01000007 C4.45805975,9.01000007 4.02000739,8.27226522 4.00000033,7.33977999 C4.00000033,7.33977999 4.00000022,6.89318666 4,6 L6.66666667,6 C6.66666667,6.89318666 6.66666667,7.33977999 6.66666667,7.33977999 Z" id="Shape" fill="#B6B6E9" fill-rule="nonzero"></path>
                            <path d="M5,1.83333333 C5.79795627,1.68825038 6.5,1.83333333 7,2 C7.5,2.16666667 7.5,2.66666667 7.5,2.66666667 C7.5,2.66666667 7.52687308,4.40434255 7.33333333,5.33333333 C7.13979359,6.26232411 7,6.33333333 6.66666667,6.66666667 C6.33333333,7 4.33333333,7 4,6.66666667 C3.66666667,6.33333333 3.42384687,6 3.33333333,5.33333333 C3.2428198,4.66666667 3.16666667,3 3.33333333,2.66666667 C3.5,2.33333333 4.20204373,1.97841629 5,1.83333333 Z" id="Shape" fill="#C8C8F7" fill-rule="nonzero"></path>
                            <path d="M4.49527604,3.71260952 C4.60282833,3.82777695 4.65995854,3.92632688 4.66666667,4.00825931 C4.66331842,4.06164186 4.64617942,4.1130838 4.61692116,4.15756817 C4.55880403,4.25916899 4.45392421,4.32493835 4.33667093,4.33331103 C4.27669267,4.33401336 4.21749467,4.31811297 4.16562323,4.28736818 C4.0686848,4.22842073 4.00667176,4.12564063 4.00002523,4.0129069 C3.9992322,3.94773836 4.01714678,3.88392795 4.05164446,3.82904305 C4.10735128,3.73070065 4.21068249,3.66914695 4.32422835,3.66666667 C4.38411604,3.66673193 4.44311331,3.6825784 4.49527604,3.71260952 Z M6.15476053,3.69956454 C6.25877728,3.75712608 6.32637386,3.86470921 6.33330817,3.9837315 C6.33409895,4.0493349 6.31623532,4.1135711 6.28183578,4.16882224 C6.22628741,4.26782087 6.12325013,4.32978531 6.01002725,4.33228214 C5.9489971,4.33701393 5.88760733,4.32571687 5.83182156,4.29948839 C5.73308849,4.24225673 5.6704921,4.13751957 5.6666946,4.02319566 C5.66445025,3.84115525 5.7976849,3.68789859 5.97655484,3.66677079 C6.01648946,3.66572856 6.07589135,3.67665981 6.15476053,3.69956454 Z" id="Shape" fill="#7272A5" fill-rule="nonzero"></path>
                            <path d="M4,6.66666667 L4,7.16666667 C4.66666667,7.5 5.22222222,7.66666667 5.66666667,7.66666667 C6.11111111,7.66666667 6.44444444,7.55555556 6.66666667,7.33333333 L6.66666667,6.66666667 C6.11111111,6.77777778 5.66666667,6.83333333 5.33333333,6.83333333 C5.11111111,6.83333333 4.66666667,6.77777778 4,6.66666667 Z" id="Path-2" fill="#9898CB" fill-rule="evenodd"></path>
                        </g>
                    </g>
                </g>
                <path d="M18.8574219,32 L17.2167969,32 L17.2167969,22.1357422 L19.28125,22.1357422 L22.2480469,29.3203125 L22.3710938,29.3203125 L25.3378906,22.1357422 L27.4023438,22.1357422 L27.4023438,32 L25.7617188,32 L25.7617188,25.0615234 L25.6660156,25.0615234 L22.9384766,31.6171875 L21.6806641,31.6171875 L18.953125,25.0615234 L18.8574219,25.0615234 L18.8574219,32 Z M32.8847656,30.7285156 C34.0673828,30.7285156 34.7373047,29.8261719 34.7373047,28.2607422 C34.7373047,26.7021484 34.0605469,25.7929688 32.8847656,25.7929688 C31.7021484,25.7929688 31.0253906,26.7021484 31.0253906,28.2607422 C31.0253906,29.8261719 31.7021484,30.7285156 32.8847656,30.7285156 Z M32.8847656,32.1503906 C30.6425781,32.1503906 29.2890625,30.6875 29.2890625,28.2607422 C29.2890625,25.8476562 30.6630859,24.3710938 32.8847656,24.3710938 C35.1132812,24.3710938 36.4804688,25.8408203 36.4804688,28.2607422 C36.4804688,30.6875 35.1201172,32.1503906 32.8847656,32.1503906 Z M42.3457031,32.1230469 C41.2998047,32.1230469 40.4316406,31.6376953 40.0078125,30.8173828 L39.8916016,30.8173828 L39.8916016,32 L38.2578125,32 L38.2578125,21.6298828 L39.953125,21.6298828 L39.953125,25.7109375 L40.0693359,25.7109375 C40.4589844,24.8974609 41.3203125,24.3984375 42.3457031,24.3984375 C44.2392578,24.3984375 45.4150391,25.8681641 45.4150391,28.2607422 C45.4150391,30.6396484 44.2324219,32.1230469 42.3457031,32.1230469 Z M41.8125,25.8408203 C40.6572266,25.8408203 39.9257812,26.7705078 39.9257812,28.2607422 C39.9257812,29.7509766 40.6503906,30.6806641 41.8125,30.6806641 C42.9746094,30.6806641 43.671875,29.7646484 43.671875,28.2607422 C43.671875,26.7568359 42.9677734,25.8408203 41.8125,25.8408203 Z M47.1376953,32 L47.1376953,24.5214844 L48.8261719,24.5214844 L48.8261719,32 L47.1376953,32 Z M47.9785156,23.3046875 C47.3632812,23.3046875 46.9326172,22.9082031 46.9326172,22.3681641 C46.9326172,21.828125 47.3632812,21.4316406 47.9785156,21.4316406 C48.6005859,21.4316406 49.0244141,21.828125 49.0244141,22.3681641 C49.0244141,22.9082031 48.6005859,23.3046875 47.9785156,23.3046875 Z M50.9931641,32 L50.9931641,21.6298828 L52.6884766,21.6298828 L52.6884766,32 L50.9931641,32 Z M57.9658203,25.7177734 C56.9541016,25.7177734 56.2431641,26.4423828 56.1679687,27.5361328 L59.6884766,27.5361328 C59.6542969,26.4287109 58.984375,25.7177734 57.9658203,25.7177734 Z M59.7021484,29.9423828 L61.3085937,29.9423828 C60.9873047,31.3027344 59.75,32.1503906 57.9863281,32.1503906 C55.7851562,32.1503906 54.4589844,30.6943359 54.4589844,28.2880859 C54.4589844,25.8818359 55.8056641,24.3710938 57.9726562,24.3710938 C60.1054687,24.3710938 61.3837891,25.7861328 61.3837891,28.1445312 L61.3837891,28.6914062 L56.1611328,28.6914062 L56.1611328,28.7802734 C56.2021484,30.0244141 56.9199219,30.8037109 58.0341797,30.8037109 C58.875,30.8037109 59.4560547,30.4960938 59.7021484,29.9423828 Z M73.4833984,24.5214844 L73.4833984,32 L71.8496094,32 L71.8496094,30.8105469 L71.7333984,30.8105469 C71.3710938,31.6650391 70.5234375,32.1503906 69.4160156,32.1503906 C67.7685547,32.1503906 66.75,31.1318359 66.75,29.3613281 L66.75,24.5214844 L68.4453125,24.5214844 L68.4453125,28.9580078 C68.4453125,30.1064453 68.9853516,30.6601562 70.0039062,30.6601562 C71.0976562,30.6601562 71.7880859,29.9833984 71.7880859,28.8759766 L71.7880859,24.5214844 L73.4833984,24.5214844 Z M75.390625,26.6611328 C75.390625,25.3076172 76.6210938,24.3710938 78.3847656,24.3710938 C80.1621094,24.3710938 81.2763672,25.1572266 81.3994141,26.5175781 L79.8066406,26.5175781 C79.6835938,25.9912109 79.1845703,25.65625 78.3916016,25.65625 C77.6191406,25.65625 77.0380859,26.0253906 77.0380859,26.5654297 C77.0380859,26.9892578 77.3935547,27.2490234 78.1455078,27.4199219 L79.4648438,27.7207031 C80.8935547,28.0419922 81.5566406,28.6572266 81.5566406,29.7578125 C81.5566406,31.1933594 80.2373047,32.1503906 78.3710938,32.1503906 C76.5048828,32.1503906 75.3291016,31.34375 75.1992188,29.9833984 L76.8740234,29.9833984 C77.0380859,30.5371094 77.5644531,30.8652344 78.4121094,30.8652344 C79.2666016,30.8652344 79.8613281,30.4892578 79.8613281,29.9355469 C79.8613281,29.5117188 79.5400391,29.2451172 78.8291016,29.0878906 L77.5029297,28.7802734 C76.0673828,28.4521484 75.390625,27.7890625 75.390625,26.6611328 Z M86.4101562,25.7177734 C85.3984375,25.7177734 84.6875,26.4423828 84.6123047,27.5361328 L88.1328125,27.5361328 C88.0986328,26.4287109 87.4287109,25.7177734 86.4101562,25.7177734 Z M88.1464844,29.9423828 L89.7529297,29.9423828 C89.4316406,31.3027344 88.1943359,32.1503906 86.4306641,32.1503906 C84.2294922,32.1503906 82.9033203,30.6943359 82.9033203,28.2880859 C82.9033203,25.8818359 84.25,24.3710938 86.4169922,24.3710938 C88.5498047,24.3710938 89.828125,25.7861328 89.828125,28.1445312 L89.828125,28.6914062 L84.6054688,28.6914062 L84.6054688,28.7802734 C84.6464844,30.0244141 85.3642578,30.8037109 86.4785156,30.8037109 C87.3193359,30.8037109 87.9003906,30.4960938 88.1464844,29.9423828 Z M91.5302734,32 L91.5302734,24.5214844 L93.1640625,24.5214844 L93.1640625,25.6835938 L93.2802734,25.6835938 C93.4853516,24.9453125 94.2851562,24.3984375 95.2421875,24.3984375 C95.4814453,24.3984375 95.7753906,24.4257812 95.9394531,24.4736328 L95.9394531,26.0458984 C95.8095703,25.9980469 95.3447266,25.9501953 95.078125,25.9501953 C93.9912109,25.9501953 93.2255859,26.6337891 93.2255859,27.6796875 L93.2255859,32 L91.5302734,32 Z M101.544922,22.7373047 L103.233398,22.7373047 L103.233398,24.5693359 L104.874023,24.5693359 L104.874023,25.9228516 L103.233398,25.9228516 L103.233398,29.59375 C103.233398,30.3320312 103.547852,30.6601562 104.258789,30.6601562 C104.498047,30.6601562 104.621094,30.6464844 104.819336,30.6259766 L104.819336,31.9521484 C104.580078,32 104.272461,32.0341797 103.944336,32.0341797 C102.228516,32.0341797 101.544922,31.453125 101.544922,30.0039062 L101.544922,25.9228516 L100.328125,25.9228516 L100.328125,24.5693359 L101.544922,24.5693359 L101.544922,22.7373047 Z M109.666016,25.7177734 C108.654297,25.7177734 107.943359,26.4423828 107.868164,27.5361328 L111.388672,27.5361328 C111.354492,26.4287109 110.68457,25.7177734 109.666016,25.7177734 Z M111.402344,29.9423828 L113.008789,29.9423828 C112.6875,31.3027344 111.450195,32.1503906 109.686523,32.1503906 C107.485352,32.1503906 106.15918,30.6943359 106.15918,28.2880859 C106.15918,25.8818359 107.505859,24.3710938 109.672852,24.3710938 C111.805664,24.3710938 113.083984,25.7861328 113.083984,28.1445312 L113.083984,28.6914062 L107.861328,28.6914062 L107.861328,28.7802734 C107.902344,30.0244141 108.620117,30.8037109 109.734375,30.8037109 C110.575195,30.8037109 111.15625,30.4960938 111.402344,29.9423828 Z M114.615234,26.6611328 C114.615234,25.3076172 115.845703,24.3710938 117.609375,24.3710938 C119.386719,24.3710938 120.500977,25.1572266 120.624023,26.5175781 L119.03125,26.5175781 C118.908203,25.9912109 118.40918,25.65625 117.616211,25.65625 C116.84375,25.65625 116.262695,26.0253906 116.262695,26.5654297 C116.262695,26.9892578 116.618164,27.2490234 117.370117,27.4199219 L118.689453,27.7207031 C120.118164,28.0419922 120.78125,28.6572266 120.78125,29.7578125 C120.78125,31.1933594 119.461914,32.1503906 117.595703,32.1503906 C115.729492,32.1503906 114.553711,31.34375 114.423828,29.9833984 L116.098633,29.9833984 C116.262695,30.5371094 116.789062,30.8652344 117.636719,30.8652344 C118.491211,30.8652344 119.085937,30.4892578 119.085937,29.9355469 C119.085937,29.5117188 118.764648,29.2451172 118.053711,29.0878906 L116.727539,28.7802734 C115.291992,28.4521484 114.615234,27.7890625 114.615234,26.6611328 Z M123.037109,22.7373047 L124.725586,22.7373047 L124.725586,24.5693359 L126.366211,24.5693359 L126.366211,25.9228516 L124.725586,25.9228516 L124.725586,29.59375 C124.725586,30.3320312 125.040039,30.6601562 125.750977,30.6601562 C125.990234,30.6601562 126.113281,30.6464844 126.311523,30.6259766 L126.311523,31.9521484 C126.072266,32 125.764648,32.0341797 125.436523,32.0341797 C123.720703,32.0341797 123.037109,31.453125 123.037109,30.0039062 L123.037109,25.9228516 L121.820312,25.9228516 L121.820312,24.5693359 L123.037109,24.5693359 L123.037109,22.7373047 Z M128.041016,32 L128.041016,24.5214844 L129.729492,24.5214844 L129.729492,32 L128.041016,32 Z M128.881836,23.3046875 C128.266602,23.3046875 127.835938,22.9082031 127.835938,22.3681641 C127.835938,21.828125 128.266602,21.4316406 128.881836,21.4316406 C129.503906,21.4316406 129.927734,21.828125 129.927734,22.3681641 C129.927734,22.9082031 129.503906,23.3046875 128.881836,23.3046875 Z M131.828125,32 L131.828125,24.5214844 L133.461914,24.5214844 L133.461914,25.7177734 L133.578125,25.7177734 C133.933594,24.8837891 134.808594,24.3710938 135.929688,24.3710938 C137.597656,24.3710938 138.53418,25.3759766 138.53418,27.1601562 L138.53418,32 L136.845703,32 L136.845703,27.5634766 C136.845703,26.421875 136.326172,25.8476562 135.300781,25.8476562 C134.207031,25.8476562 133.523438,26.5449219 133.523438,27.6455078 L133.523438,32 L131.828125,32 Z M145.650391,28.1787109 C145.650391,26.75 144.932617,25.8408203 143.756836,25.8408203 C142.574219,25.8408203 141.904297,26.75 141.904297,28.1787109 C141.904297,29.6074219 142.574219,30.5097656 143.756836,30.5097656 C144.939453,30.5097656 145.650391,29.6074219 145.650391,28.1787109 Z M143.756836,34.84375 C141.835938,34.84375 140.578125,33.9960938 140.441406,32.7109375 L142.143555,32.7109375 C142.25293,33.2236328 142.854492,33.5517578 143.78418,33.5517578 C144.946289,33.5517578 145.623047,33.0048828 145.623047,32.0683594 L145.623047,30.6533203 L145.506836,30.6533203 C145.076172,31.453125 144.262695,31.890625 143.223633,31.890625 C141.336914,31.890625 140.161133,30.4277344 140.161133,28.1787109 C140.161133,25.8886719 141.34375,24.3984375 143.250977,24.3984375 C144.269531,24.3984375 145.158203,24.9042969 145.568359,25.7177734 L145.68457,25.7177734 L145.68457,24.5214844 L147.318359,24.5214844 L147.318359,32.0273438 C147.318359,33.7568359 145.9375,34.84375 143.756836,34.84375 Z" id="Mobile-user-testing" fill="#24124D"></path>
            </g>
            <g transform="translate(0.000000, 96.000000)">
                <g id="component/card">
                    <g id="Shadow">
                        <use fill="black" fill-opacity="1" filter="url(#filter-18)" xlink:href="#path-17"></use>
                        <use fill="#FFFFFF" fill-rule="evenodd" xlink:href="#path-17"></use>
                    </g>
                    <g id="Card" stroke-linecap="square">
                        <use fill="black" fill-opacity="1" filter="url(#filter-20)" xlink:href="#path-19"></use>
                        <rect stroke-opacity="0.098194067" stroke="#140B2F" stroke-width="1" fill="#FFFFFF" fill-rule="evenodd" x="-0.5" y="-0.5" width="177" height="81" rx="4"></rect>
                    </g>
                </g>
                <g transform="translate(16.000000, 48.000000)">
                    <mask id="mask-22" fill="white">
                        <use xlink:href="#path-21"></use>
                    </mask>
                    <use id="Oval-2" fill="#A5A5D8" opacity="0.300000012" xlink:href="#path-21"></use>
                    <g mask="url(#mask-22)">
                        <g transform="translate(3.333333, 2.666667)">
                            <path d="M6.8136996,0.820610181 C7.16183381,1.04219231 7.46476578,1.32900052 7.69390317,1.67047843 C8.11148249,2.29402948 8.39980267,2.99302001 8.5417865,3.72604883 C8.63823561,4.20883685 8.70070992,4.70048306 8.78633633,5.17702259 L8.84113922,5.70695002 C8.85079925,5.78660483 8.81668988,5.86477345 8.75181998,5.9116434 L6.66666667,7.33333333 L4.66666667,5 L2.65361859,7.70116048 L1.3362627,6.88363762 L0.768824341,6.54179016 C0.727798025,6.51169114 0.701791426,6.46549237 0.697585563,6.41523981 C0.655165732,5.81344439 0.656396533,5.20990248 0.701268419,4.60929629 C0.748946693,3.96916645 0.871461281,3.33758359 1.0663447,2.72726796 C1.24962413,2.13063993 1.56141134,1.5820815 1.98022736,1.11938282 C2.44625999,0.591583034 3.08196767,0.240194557 3.78170922,0.123610715 C4.24352036,0.0485550114 4.73012818,0.030525994 5.1950906,0 C5.21250152,0.000412454479 5.22955301,0.00534851917 5.2445461,0.0143163755 C5.26740385,0.0259411521 5.28746787,0.0423854108 5.30331759,0.0624848829 C5.37114247,0.163086443 5.43070344,0.268892038 5.48141454,0.378860755 C5.49834264,0.431711963 5.53341306,0.477164069 5.58046342,0.507230503 C5.62527321,0.528608531 5.67493371,0.537601167 5.72417192,0.533253564 C6.10563395,0.530083891 6.48207588,0.629368269 6.8136996,0.820610181 Z" id="Shape" fill="#7878AB" fill-rule="nonzero"></path>
                            <path d="M9.33333333,13.3333333 L0,13.3333333 C0,12.6729402 0,7.83333333 2.66666667,7.83333333 C2.66666667,7.83333333 3.54022989,10 4.50574713,10 C5.47126437,10 6.66666667,7.83333333 6.66666667,7.83333333 C8.44444444,7.83333333 9.33333333,9.66666667 9.33333333,13.3333333 Z" id="Shape" fill="#A5A5D8" fill-rule="nonzero"></path>
                            <path d="M6.66666667,7.99996537 C6.66666667,9.32817214 5.99999976,10.3333333 4.66666642,10.3333333 C3.35375564,10.3333333 2.69667727,9.29765849 2.66666667,7.99996537 C2.66666667,7.99996537 6.66666667,7.99996537 6.66666667,7.99996537 Z" id="Shape" fill="#7878AB" fill-rule="nonzero"></path>
                            <path d="M6,8.00644665 C6,8.96085813 5.55555561,9.67666674 4.66666683,9.67666674 C3.79139308,9.67666674 3.35334072,8.93893189 3.33333366,8.00644665 C3.33333366,8.00644665 3.33333355,7.55985332 3.33333333,6.66666667 L6,6.66666667 C6,7.55985332 6,8.00644665 6,8.00644665 Z" id="Shape" fill="#B6B6E9" fill-rule="nonzero"></path>
                            <path d="M7,5.66666667 L6.66666667,7.33333333 L6,7.33333333 L6,6.33333333 C6.00761097,6.32551208 6.3409443,6.10328986 7,5.66666667 Z" id="Shape" fill="#636396" fill-rule="nonzero"></path>
                            <path d="M2.33333333,5.66666667 C2.53604161,5.98737324 3.30976386,6.63417256 3.33333333,6.65466774 L3.33333333,7.33333333 L2.66666667,7.66666667 C2.43582773,6.43259872 2.32471662,5.76593205 2.33333333,5.66666667 Z" id="Path" fill="#636396" fill-rule="evenodd"></path>
                            <path d="M5.66666667,2 L6.5707355,2.90766716 L7,3.35569401 C7.0191605,3.35569401 7.0191605,4.12601823 7,5.66666667 C6.77777778,6.33333333 6.55555556,6.77777778 6.33333333,7 C6,7.33333333 4.07057568,7.10256329 3.33333333,7 C2.95901165,6.94792531 2.5143604,6.66666667 2.42384687,6 C2.36350451,5.55555556 2.33333333,5 2.33333333,4.33333333 C2.87698772,4.07879349 3.43254327,3.75291372 4,3.35569401 C4.56745673,2.9584743 5.12301228,2.5065763 5.66666667,2 Z" id="Shape" fill="#C8C8F7" fill-rule="nonzero"></path>
                            <path d="M3.82860937,4.37927619 C3.93616166,4.49444361 3.99329187,4.59299354 4,4.67492598 C3.99665176,4.72830853 3.97951275,4.77975047 3.95025449,4.82423484 C3.89213736,4.92583566 3.78725755,4.99160502 3.67000426,4.9999777 C3.610026,5.00068003 3.550828,4.98477964 3.49895657,4.95403485 C3.40201814,4.8950874 3.34000509,4.79230729 3.33335857,4.67957356 C3.33256553,4.61440502 3.35048012,4.55059461 3.38497779,4.49570972 C3.44068462,4.39736732 3.54401582,4.33581362 3.65756168,4.33333333 C3.71744937,4.33339859 3.77644665,4.34924507 3.82860937,4.37927619 Z M5.48809386,4.36623121 C5.59211061,4.42379275 5.65970719,4.53137588 5.66664151,4.65039816 C5.66743228,4.71600156 5.64956866,4.78023777 5.61516911,4.83548891 C5.55962074,4.93448753 5.45658346,4.99645197 5.34336058,4.99894881 C5.28233044,5.0036806 5.22094067,4.99238354 5.1651549,4.96615506 C5.06642182,4.90892339 5.00382543,4.80418624 5.00002794,4.68986233 C4.99778358,4.50782191 5.13101824,4.35456526 5.30988817,4.33343746 C5.34982279,4.33239522 5.40922469,4.34332647 5.48809386,4.36623121 Z" id="Shape" fill="#7272A5" fill-rule="nonzero"></path>
                            <path d="M3.33333333,7 L3.33333333,7.33333333 C4,7.66666667 4.55555556,7.83333333 5,7.83333333 C5.44444444,7.83333333 5.77777778,7.72222222 6,7.5 L6,7.16666667 C5.44444444,7.16666667 5,7.16666667 4.66666667,7.16666667 C4.44444444,7.16666667 4,7.11111111 3.33333333,7 Z" id="Path-2" fill="#9898CB" fill-rule="evenodd"></path>
                        </g>
                    </g>
                </g>
                <g transform="translate(36.000000, 48.000000)">
                    <mask id="mask-24" fill="white">
                        <use xlink:href="#path-23"></use>
                    </mask>
                    <use id="Oval-2" fill="#A5A5D8" opacity="0.300000012" xlink:href="#path-23"></use>
                    <g mask="url(#mask-24)">
                        <g transform="translate(3.333333, 2.666667)">
                            <path d="M6.8136996,0.820610181 C7.16183381,1.04219231 7.46476578,1.32900052 7.69390317,1.67047843 C8.11148249,2.29402948 8.39980267,2.99302001 8.5417865,3.72604883 C8.63823561,4.20883685 8.70070992,4.70048306 8.78633633,5.17702259 L8.84113922,5.70695002 C8.85079925,5.78660483 8.81668988,5.86477345 8.75181998,5.9116434 L6.66666667,7.33333333 L4.66666667,5 L2.65361859,7.70116048 L1.3362627,6.88363762 L0.768824341,6.54179016 C0.727798025,6.51169114 0.701791426,6.46549237 0.697585563,6.41523981 C0.655165732,5.81344439 0.656396533,5.20990248 0.701268419,4.60929629 C0.748946693,3.96916645 0.871461281,3.33758359 1.0663447,2.72726796 C1.24962413,2.13063993 1.56141134,1.5820815 1.98022736,1.11938282 C2.44625999,0.591583034 3.08196767,0.240194557 3.78170922,0.123610715 C4.24352036,0.0485550114 4.73012818,0.030525994 5.1950906,0 C5.21250152,0.000412454479 5.22955301,0.00534851917 5.2445461,0.0143163755 C5.26740385,0.0259411521 5.28746787,0.0423854108 5.30331759,0.0624848829 C5.37114247,0.163086443 5.43070344,0.268892038 5.48141454,0.378860755 C5.49834264,0.431711963 5.53341306,0.477164069 5.58046342,0.507230503 C5.62527321,0.528608531 5.67493371,0.537601167 5.72417192,0.533253564 C6.10563395,0.530083891 6.48207588,0.629368269 6.8136996,0.820610181 Z" id="Shape" fill="#7878AB" fill-rule="nonzero"></path>
                            <path d="M9.33333333,13.3333333 L0,13.3333333 C0,12.6729402 0,7.83333333 2.66666667,7.83333333 C2.66666667,7.83333333 3.54022989,10 4.50574713,10 C5.47126437,10 6.66666667,7.83333333 6.66666667,7.83333333 C8.44444444,7.83333333 9.33333333,9.66666667 9.33333333,13.3333333 Z" id="Shape" fill="#A5A5D8" fill-rule="nonzero"></path>
                            <path d="M6.66666667,7.99996537 C6.66666667,9.32817214 5.99999976,10.3333333 4.66666642,10.3333333 C3.35375564,10.3333333 2.69667727,9.29765849 2.66666667,7.99996537 C2.66666667,7.99996537 6.66666667,7.99996537 6.66666667,7.99996537 Z" id="Shape" fill="#7878AB" fill-rule="nonzero"></path>
                            <path d="M6,8.00644665 C6,8.96085813 5.55555561,9.67666674 4.66666683,9.67666674 C3.79139308,9.67666674 3.35334072,8.93893189 3.33333366,8.00644665 C3.33333366,8.00644665 3.33333355,7.55985332 3.33333333,6.66666667 L6,6.66666667 C6,7.55985332 6,8.00644665 6,8.00644665 Z" id="Shape" fill="#B6B6E9" fill-rule="nonzero"></path>
                            <path d="M7,5.66666667 L6.66666667,7.33333333 L6,7.33333333 L6,6.33333333 C6.00761097,6.32551208 6.3409443,6.10328986 7,5.66666667 Z" id="Shape" fill="#636396" fill-rule="nonzero"></path>
                            <path d="M2.33333333,5.66666667 C2.53604161,5.98737324 3.30976386,6.63417256 3.33333333,6.65466774 L3.33333333,7.33333333 L2.66666667,7.66666667 C2.43582773,6.43259872 2.32471662,5.76593205 2.33333333,5.66666667 Z" id="Path" fill="#636396" fill-rule="evenodd"></path>
                            <path d="M5.66666667,2 L6.5707355,2.90766716 L7,3.35569401 C7.0191605,3.35569401 7.0191605,4.12601823 7,5.66666667 C6.77777778,6.33333333 6.55555556,6.77777778 6.33333333,7 C6,7.33333333 4.07057568,7.10256329 3.33333333,7 C2.95901165,6.94792531 2.5143604,6.66666667 2.42384687,6 C2.36350451,5.55555556 2.33333333,5 2.33333333,4.33333333 C2.87698772,4.07879349 3.43254327,3.75291372 4,3.35569401 C4.56745673,2.9584743 5.12301228,2.5065763 5.66666667,2 Z" id="Shape" fill="#C8C8F7" fill-rule="nonzero"></path>
                            <path d="M3.82860937,4.37927619 C3.93616166,4.49444361 3.99329187,4.59299354 4,4.67492598 C3.99665176,4.72830853 3.97951275,4.77975047 3.95025449,4.82423484 C3.89213736,4.92583566 3.78725755,4.99160502 3.67000426,4.9999777 C3.610026,5.00068003 3.550828,4.98477964 3.49895657,4.95403485 C3.40201814,4.8950874 3.34000509,4.79230729 3.33335857,4.67957356 C3.33256553,4.61440502 3.35048012,4.55059461 3.38497779,4.49570972 C3.44068462,4.39736732 3.54401582,4.33581362 3.65756168,4.33333333 C3.71744937,4.33339859 3.77644665,4.34924507 3.82860937,4.37927619 Z M5.48809386,4.36623121 C5.59211061,4.42379275 5.65970719,4.53137588 5.66664151,4.65039816 C5.66743228,4.71600156 5.64956866,4.78023777 5.61516911,4.83548891 C5.55962074,4.93448753 5.45658346,4.99645197 5.34336058,4.99894881 C5.28233044,5.0036806 5.22094067,4.99238354 5.1651549,4.96615506 C5.06642182,4.90892339 5.00382543,4.80418624 5.00002794,4.68986233 C4.99778358,4.50782191 5.13101824,4.35456526 5.30988817,4.33343746 C5.34982279,4.33239522 5.40922469,4.34332647 5.48809386,4.36623121 Z" id="Shape" fill="#7272A5" fill-rule="nonzero"></path>
                            <path d="M3.33333333,7 L3.33333333,7.33333333 C4,7.66666667 4.55555556,7.83333333 5,7.83333333 C5.44444444,7.83333333 5.77777778,7.72222222 6,7.5 L6,7.16666667 C5.44444444,7.16666667 5,7.16666667 4.66666667,7.16666667 C4.44444444,7.16666667 4,7.11111111 3.33333333,7 Z" id="Path-2" fill="#9898CB" fill-rule="evenodd"></path>
                        </g>
                    </g>
                </g>
                <path d="M16.5400391,29.3134766 L18.2626953,29.3134766 C18.2763672,30.1269531 18.8369141,30.6601562 19.6777344,30.6601562 C20.6005859,30.6601562 21.1132812,30.0996094 21.1132812,29.0400391 L21.1132812,22.1357422 L22.8769531,22.1357422 L22.8769531,29.0537109 C22.8769531,31.0839844 21.6806641,32.2460938 19.6982422,32.2460938 C17.8115234,32.2460938 16.5400391,31.0976562 16.5400391,29.3134766 Z M29.5283203,32 L27.7646484,32 L27.7646484,23.6601562 L24.7294922,23.6601562 L24.7294922,22.1357422 L32.5703125,22.1357422 L32.5703125,23.6601562 L29.5283203,23.6601562 L29.5283203,32 Z M38.6337891,32 L34.4160156,32 L34.4160156,22.1357422 L38.5380859,22.1357422 C40.4111328,22.1357422 41.5390625,23.0791016 41.5390625,24.5966797 C41.5390625,25.6357422 40.7734375,26.5517578 39.7822266,26.7089844 L39.7822266,26.8320312 C41.1083984,26.9550781 42.0244141,27.9121094 42.0244141,29.1972656 C42.0244141,30.9267578 40.7392578,32 38.6337891,32 Z M36.1796875,23.5371094 L36.1796875,26.2851562 L37.8818359,26.2851562 C39.1328125,26.2851562 39.7958984,25.7998047 39.7958984,24.9111328 C39.7958984,24.0429688 39.1738281,23.5371094 38.1074219,23.5371094 L36.1796875,23.5371094 Z M36.1796875,30.5986328 L38.2304688,30.5986328 C39.5292969,30.5986328 40.2197266,30.0654297 40.2197266,29.0605469 C40.2197266,28.0761719 39.5087891,27.5566406 38.1621094,27.5566406 L36.1796875,27.5566406 L36.1796875,30.5986328 Z M43.9384766,22.1357422 L47.6367188,22.1357422 C50.5693359,22.1357422 52.2783203,23.9267578 52.2783203,27.0234375 C52.2783203,30.1884766 50.5898438,32 47.6367188,32 L43.9384766,32 L43.9384766,22.1357422 Z M45.7021484,23.6601562 L45.7021484,30.4755859 L47.4042969,30.4755859 C49.3662109,30.4755859 50.4804688,29.2519531 50.4804688,27.0507812 C50.4804688,24.8974609 49.3388672,23.6601562 47.4042969,23.6601562 L45.7021484,23.6601562 Z M60.3994141,30.7900391 C61.4248047,30.7900391 62.1904297,30.1269531 62.1904297,29.2587891 L62.1904297,28.6640625 L60.5019531,28.7734375 C59.5517578,28.8349609 59.1074219,29.1767578 59.1074219,29.7851562 C59.1074219,30.4140625 59.6474609,30.7900391 60.3994141,30.7900391 Z M59.9003906,32.1230469 C58.4580078,32.1230469 57.4257813,31.2480469 57.4257813,29.8808594 C57.4257813,28.5273438 58.4443359,27.7480469 60.2626953,27.6386719 L62.1904297,27.5224609 L62.1904297,26.8935547 C62.1904297,26.1621094 61.6982422,25.7519531 60.7822266,25.7519531 C60.0029297,25.7519531 59.4697266,26.0253906 59.3125,26.53125 L57.7128906,26.53125 C57.8496094,25.2119141 59.0869141,24.3710938 60.8642578,24.3710938 C62.7851563,24.3710938 63.8652344,25.3076172 63.8652344,26.8935547 L63.8652344,32 L62.2314453,32 L62.2314453,30.9746094 L62.1152344,30.9746094 C61.6982422,31.6992188 60.8779297,32.1230469 59.9003906,32.1230469 Z M65.9023438,32 L65.9023438,24.5214844 L67.5361328,24.5214844 L67.5361328,25.7177734 L67.6523438,25.7177734 C68.0078125,24.8837891 68.8828125,24.3710938 70.0039062,24.3710938 C71.671875,24.3710938 72.6083984,25.3759766 72.6083984,27.1601562 L72.6083984,32 L70.9199219,32 L70.9199219,27.5634766 C70.9199219,26.421875 70.4003906,25.8476562 69.375,25.8476562 C68.28125,25.8476562 67.5976562,26.5449219 67.5976562,27.6455078 L67.5976562,32 L65.9023438,32 Z M77.1748047,30.7900391 C78.2001953,30.7900391 78.9658203,30.1269531 78.9658203,29.2587891 L78.9658203,28.6640625 L77.2773438,28.7734375 C76.3271484,28.8349609 75.8828125,29.1767578 75.8828125,29.7851562 C75.8828125,30.4140625 76.4228516,30.7900391 77.1748047,30.7900391 Z M76.6757812,32.1230469 C75.2333984,32.1230469 74.2011719,31.2480469 74.2011719,29.8808594 C74.2011719,28.5273438 75.2197266,27.7480469 77.0380859,27.6386719 L78.9658203,27.5224609 L78.9658203,26.8935547 C78.9658203,26.1621094 78.4736328,25.7519531 77.5576172,25.7519531 C76.7783203,25.7519531 76.2451172,26.0253906 76.0878906,26.53125 L74.4882812,26.53125 C74.625,25.2119141 75.8623047,24.3710938 77.6396484,24.3710938 C79.5605469,24.3710938 80.640625,25.3076172 80.640625,26.8935547 L80.640625,32 L79.0068359,32 L79.0068359,30.9746094 L78.890625,30.9746094 C78.4736328,31.6992188 77.6533203,32.1230469 76.6757812,32.1230469 Z M82.7460938,32 L82.7460938,21.6298828 L84.4414062,21.6298828 L84.4414062,32 L82.7460938,32 Z M87.4013672,34.7207031 C87.2988281,34.7207031 86.8408203,34.7138672 86.7314453,34.6933594 L86.7314453,33.3125 C86.8271484,33.3261719 87.0800781,33.3330078 87.1962891,33.3330078 C87.9140625,33.3330078 88.3173828,33.0527344 88.5361328,32.3623047 L88.625,32.0341797 L85.9521484,24.5214844 L87.8115234,24.5214844 L89.5615234,30.359375 L89.6777344,30.359375 L91.4208984,24.5214844 L93.2119141,24.5214844 L90.5117188,32.2392578 C89.8759766,34.0986328 89.0761719,34.7207031 87.4013672,34.7207031 Z M94.4970703,26.6611328 C94.4970703,25.3076172 95.7275391,24.3710938 97.4912109,24.3710938 C99.2685547,24.3710938 100.382812,25.1572266 100.505859,26.5175781 L98.9130859,26.5175781 C98.7900391,25.9912109 98.2910156,25.65625 97.4980469,25.65625 C96.7255859,25.65625 96.1445312,26.0253906 96.1445312,26.5654297 C96.1445312,26.9892578 96.5,27.2490234 97.2519531,27.4199219 L98.5712891,27.7207031 C100,28.0419922 100.663086,28.6572266 100.663086,29.7578125 C100.663086,31.1933594 99.34375,32.1503906 97.4775391,32.1503906 C95.6113281,32.1503906 94.4355469,31.34375 94.3056641,29.9833984 L95.9804688,29.9833984 C96.1445312,30.5371094 96.6708984,30.8652344 97.5185547,30.8652344 C98.3730469,30.8652344 98.9677734,30.4892578 98.9677734,29.9355469 C98.9677734,29.5117188 98.6464844,29.2451172 97.9355469,29.0878906 L96.609375,28.7802734 C95.1738281,28.4521484 94.4970703,27.7890625 94.4970703,26.6611328 Z M102.399414,32 L102.399414,24.5214844 L104.087891,24.5214844 L104.087891,32 L102.399414,32 Z M103.240234,23.3046875 C102.625,23.3046875 102.194336,22.9082031 102.194336,22.3681641 C102.194336,21.828125 102.625,21.4316406 103.240234,21.4316406 C103.862305,21.4316406 104.286133,21.828125 104.286133,22.3681641 C104.286133,22.9082031 103.862305,23.3046875 103.240234,23.3046875 Z M106.015625,26.6611328 C106.015625,25.3076172 107.246094,24.3710938 109.009766,24.3710938 C110.787109,24.3710938 111.901367,25.1572266 112.024414,26.5175781 L110.431641,26.5175781 C110.308594,25.9912109 109.80957,25.65625 109.016602,25.65625 C108.244141,25.65625 107.663086,26.0253906 107.663086,26.5654297 C107.663086,26.9892578 108.018555,27.2490234 108.770508,27.4199219 L110.089844,27.7207031 C111.518555,28.0419922 112.181641,28.6572266 112.181641,29.7578125 C112.181641,31.1933594 110.862305,32.1503906 108.996094,32.1503906 C107.129883,32.1503906 105.954102,31.34375 105.824219,29.9833984 L107.499023,29.9833984 C107.663086,30.5371094 108.189453,30.8652344 109.037109,30.8652344 C109.891602,30.8652344 110.486328,30.4892578 110.486328,29.9355469 C110.486328,29.5117188 110.165039,29.2451172 109.454102,29.0878906 L108.12793,28.7802734 C106.692383,28.4521484 106.015625,27.7890625 106.015625,26.6611328 Z" id="JTBD-analysis" fill="#24124D"></path>
            </g>
            <g transform="translate(192.000000, 0.000000)">
                <g id="component/card">
                    <g id="Shadow">
                        <use fill="black" fill-opacity="1" filter="url(#filter-26)" xlink:href="#path-25"></use>
                        <use fill="#FFFFFF" fill-rule="evenodd" xlink:href="#path-25"></use>
                    </g>
                    <g id="Card" stroke-linecap="square">
                        <use fill="black" fill-opacity="1" filter="url(#filter-28)" xlink:href="#path-27"></use>
                        <rect stroke-opacity="0.098194067" stroke="#140B2F" stroke-width="1" fill="#FFFFFF" fill-rule="evenodd" x="-0.5" y="-0.5" width="177" height="81" rx="4"></rect>
                    </g>
                </g>
                <g transform="translate(16.000000, 48.000000)">
                    <mask id="mask-30" fill="white">
                        <use xlink:href="#path-29"></use>
                    </mask>
                    <use id="Oval-2" fill="#A5A5D8" opacity="0.300000012" xlink:href="#path-29"></use>
                    <g mask="url(#mask-30)">
                        <g transform="translate(2.666667, 3.333333)">
                            <path d="M7.83333333,0.666666667 C8.18146753,0.888248798 7.83333333,3 8,3.66666667 C8.13819519,4.21944742 7.2493063,3.66389187 5.33333333,2 C4.33813464,2.56734456 3.67146797,2.90067789 3.33333333,3 C2.0742573,3.36983519 2.24071936,2.29003882 2.33333333,2 C2.51661276,1.40337197 2.24785065,1.12936535 2.66666667,0.666666667 C3.1326993,0.138866884 3.74863433,0.240194557 4.44837589,0.123610715 C4.91018702,0.0485550114 5.39679485,0.030525994 5.86175727,0 C5.87916818,0.000412454479 5.89621967,0.00534851917 5.91121277,0.0143163755 C5.93407052,0.0259411521 5.95413454,0.0423854108 5.96998426,0.0624848829 C6.03780913,0.163086443 6.0973701,0.268892038 6.14808121,0.378860755 C6.16500931,0.431711963 6.20007972,0.477164069 6.24713008,0.507230503 C6.29193987,0.528608531 6.34160038,0.537601167 6.39083859,0.533253564 C6.77230062,0.530083891 7.50170961,0.475424755 7.83333333,0.666666667 Z" id="Shape" fill="#7E7EB1" fill-rule="nonzero"></path>
                            <path d="M10.6666667,13 L0,13 C0,12.3396068 0.333333333,7.5 3,7.5 C3,7.5 4.36781609,9.66666667 5.33333333,9.66666667 C6.29885057,9.66666667 7.66666667,7.5 7.66666667,7.5 C9.44444444,7.5 10.4444444,9.33333333 10.6666667,13 Z" id="Shape" fill="#A5A5D8" fill-rule="nonzero"></path>
                            <path d="M7.66666667,7.66663204 C7.66666667,8.77775469 6.88888889,9.88887735 5.33333333,11 C3.77777778,9.88887735 3,8.77775469 3,7.66663204 C3,7.66663204 7.66666667,7.66663204 7.66666667,7.66663204 Z" id="Shape" fill="#7878AB" fill-rule="nonzero"></path>
                            <path d="M6.66666667,7.33977999 C6.66666667,8.29419146 6.22222228,9.01000007 5.3333335,9.01000007 C4.45805975,9.01000007 4.02000739,8.27226522 4.00000033,7.33977999 C4.00000033,7.33977999 4.00000022,6.89318666 4,6 L6.66666667,6 C6.66666667,6.89318666 6.66666667,7.33977999 6.66666667,7.33977999 Z" id="Shape" fill="#B6B6E9" fill-rule="nonzero"></path>
                            <path d="M5,1.83333333 C5.79795627,1.68825038 6.5,1.83333333 7,2 C7.5,2.16666667 7.5,2.66666667 7.5,2.66666667 C7.5,2.66666667 7.52687308,4.40434255 7.33333333,5.33333333 C7.13979359,6.26232411 7,6.33333333 6.66666667,6.66666667 C6.33333333,7 4.33333333,7 4,6.66666667 C3.66666667,6.33333333 3.42384687,6 3.33333333,5.33333333 C3.2428198,4.66666667 3.16666667,3 3.33333333,2.66666667 C3.5,2.33333333 4.20204373,1.97841629 5,1.83333333 Z" id="Shape" fill="#C8C8F7" fill-rule="nonzero"></path>
                            <path d="M4.49527604,3.71260952 C4.60282833,3.82777695 4.65995854,3.92632688 4.66666667,4.00825931 C4.66331842,4.06164186 4.64617942,4.1130838 4.61692116,4.15756817 C4.55880403,4.25916899 4.45392421,4.32493835 4.33667093,4.33331103 C4.27669267,4.33401336 4.21749467,4.31811297 4.16562323,4.28736818 C4.0686848,4.22842073 4.00667176,4.12564063 4.00002523,4.0129069 C3.9992322,3.94773836 4.01714678,3.88392795 4.05164446,3.82904305 C4.10735128,3.73070065 4.21068249,3.66914695 4.32422835,3.66666667 C4.38411604,3.66673193 4.44311331,3.6825784 4.49527604,3.71260952 Z M6.15476053,3.69956454 C6.25877728,3.75712608 6.32637386,3.86470921 6.33330817,3.9837315 C6.33409895,4.0493349 6.31623532,4.1135711 6.28183578,4.16882224 C6.22628741,4.26782087 6.12325013,4.32978531 6.01002725,4.33228214 C5.9489971,4.33701393 5.88760733,4.32571687 5.83182156,4.29948839 C5.73308849,4.24225673 5.6704921,4.13751957 5.6666946,4.02319566 C5.66445025,3.84115525 5.7976849,3.68789859 5.97655484,3.66677079 C6.01648946,3.66572856 6.07589135,3.67665981 6.15476053,3.69956454 Z" id="Shape" fill="#7272A5" fill-rule="nonzero"></path>
                            <path d="M4,6.66666667 L4,7.16666667 C4.66666667,7.5 5.22222222,7.66666667 5.66666667,7.66666667 C6.11111111,7.66666667 6.44444444,7.55555556 6.66666667,7.33333333 L6.66666667,6.66666667 C6.11111111,6.77777778 5.66666667,6.83333333 5.33333333,6.83333333 C5.11111111,6.83333333 4.66666667,6.77777778 4,6.66666667 Z" id="Path-2" fill="#9898CB" fill-rule="evenodd"></path>
                        </g>
                    </g>
                </g>
                <g transform="translate(36.000000, 48.000000)">
                    <mask id="mask-32" fill="white">
                        <use xlink:href="#path-31"></use>
                    </mask>
                    <use id="Oval-2" fill="#A5A5D8" opacity="0.300000012" xlink:href="#path-31"></use>
                    <g mask="url(#mask-32)">
                        <g transform="translate(3.333333, 2.666667)">
                            <path d="M6.8136996,0.820610181 C7.16183381,1.04219231 7.46476578,1.32900052 7.69390317,1.67047843 C8.11148249,2.29402948 8.39980267,2.99302001 8.5417865,3.72604883 C8.63823561,4.20883685 8.70070992,4.70048306 8.78633633,5.17702259 L8.84113922,5.70695002 C8.85079925,5.78660483 8.81668988,5.86477345 8.75181998,5.9116434 L6.66666667,7.33333333 L4.66666667,5 L2.65361859,7.70116048 L1.3362627,6.88363762 L0.768824341,6.54179016 C0.727798025,6.51169114 0.701791426,6.46549237 0.697585563,6.41523981 C0.655165732,5.81344439 0.656396533,5.20990248 0.701268419,4.60929629 C0.748946693,3.96916645 0.871461281,3.33758359 1.0663447,2.72726796 C1.24962413,2.13063993 1.56141134,1.5820815 1.98022736,1.11938282 C2.44625999,0.591583034 3.08196767,0.240194557 3.78170922,0.123610715 C4.24352036,0.0485550114 4.73012818,0.030525994 5.1950906,0 C5.21250152,0.000412454479 5.22955301,0.00534851917 5.2445461,0.0143163755 C5.26740385,0.0259411521 5.28746787,0.0423854108 5.30331759,0.0624848829 C5.37114247,0.163086443 5.43070344,0.268892038 5.48141454,0.378860755 C5.49834264,0.431711963 5.53341306,0.477164069 5.58046342,0.507230503 C5.62527321,0.528608531 5.67493371,0.537601167 5.72417192,0.533253564 C6.10563395,0.530083891 6.48207588,0.629368269 6.8136996,0.820610181 Z" id="Shape" fill="#7878AB" fill-rule="nonzero"></path>
                            <path d="M9.33333333,13.3333333 L0,13.3333333 C0,12.6729402 0,7.83333333 2.66666667,7.83333333 C2.66666667,7.83333333 3.54022989,10 4.50574713,10 C5.47126437,10 6.66666667,7.83333333 6.66666667,7.83333333 C8.44444444,7.83333333 9.33333333,9.66666667 9.33333333,13.3333333 Z" id="Shape" fill="#A5A5D8" fill-rule="nonzero"></path>
                            <path d="M6.66666667,7.99996537 C6.66666667,9.32817214 5.99999976,10.3333333 4.66666642,10.3333333 C3.35375564,10.3333333 2.69667727,9.29765849 2.66666667,7.99996537 C2.66666667,7.99996537 6.66666667,7.99996537 6.66666667,7.99996537 Z" id="Shape" fill="#7878AB" fill-rule="nonzero"></path>
                            <path d="M6,8.00644665 C6,8.96085813 5.55555561,9.67666674 4.66666683,9.67666674 C3.79139308,9.67666674 3.35334072,8.93893189 3.33333366,8.00644665 C3.33333366,8.00644665 3.33333355,7.55985332 3.33333333,6.66666667 L6,6.66666667 C6,7.55985332 6,8.00644665 6,8.00644665 Z" id="Shape" fill="#B6B6E9" fill-rule="nonzero"></path>
                            <path d="M7,5.66666667 L6.66666667,7.33333333 L6,7.33333333 L6,6.33333333 C6.00761097,6.32551208 6.3409443,6.10328986 7,5.66666667 Z" id="Shape" fill="#636396" fill-rule="nonzero"></path>
                            <path d="M2.33333333,5.66666667 C2.53604161,5.98737324 3.30976386,6.63417256 3.33333333,6.65466774 L3.33333333,7.33333333 L2.66666667,7.66666667 C2.43582773,6.43259872 2.32471662,5.76593205 2.33333333,5.66666667 Z" id="Path" fill="#636396" fill-rule="evenodd"></path>
                            <path d="M5.66666667,2 L6.5707355,2.90766716 L7,3.35569401 C7.0191605,3.35569401 7.0191605,4.12601823 7,5.66666667 C6.77777778,6.33333333 6.55555556,6.77777778 6.33333333,7 C6,7.33333333 4.07057568,7.10256329 3.33333333,7 C2.95901165,6.94792531 2.5143604,6.66666667 2.42384687,6 C2.36350451,5.55555556 2.33333333,5 2.33333333,4.33333333 C2.87698772,4.07879349 3.43254327,3.75291372 4,3.35569401 C4.56745673,2.9584743 5.12301228,2.5065763 5.66666667,2 Z" id="Shape" fill="#C8C8F7" fill-rule="nonzero"></path>
                            <path d="M3.82860937,4.37927619 C3.93616166,4.49444361 3.99329187,4.59299354 4,4.67492598 C3.99665176,4.72830853 3.97951275,4.77975047 3.95025449,4.82423484 C3.89213736,4.92583566 3.78725755,4.99160502 3.67000426,4.9999777 C3.610026,5.00068003 3.550828,4.98477964 3.49895657,4.95403485 C3.40201814,4.8950874 3.34000509,4.79230729 3.33335857,4.67957356 C3.33256553,4.61440502 3.35048012,4.55059461 3.38497779,4.49570972 C3.44068462,4.39736732 3.54401582,4.33581362 3.65756168,4.33333333 C3.71744937,4.33339859 3.77644665,4.34924507 3.82860937,4.37927619 Z M5.48809386,4.36623121 C5.59211061,4.42379275 5.65970719,4.53137588 5.66664151,4.65039816 C5.66743228,4.71600156 5.64956866,4.78023777 5.61516911,4.83548891 C5.55962074,4.93448753 5.45658346,4.99645197 5.34336058,4.99894881 C5.28233044,5.0036806 5.22094067,4.99238354 5.1651549,4.96615506 C5.06642182,4.90892339 5.00382543,4.80418624 5.00002794,4.68986233 C4.99778358,4.50782191 5.13101824,4.35456526 5.30988817,4.33343746 C5.34982279,4.33239522 5.40922469,4.34332647 5.48809386,4.36623121 Z" id="Shape" fill="#7272A5" fill-rule="nonzero"></path>
                            <path d="M3.33333333,7 L3.33333333,7.33333333 C4,7.66666667 4.55555556,7.83333333 5,7.83333333 C5.44444444,7.83333333 5.77777778,7.72222222 6,7.5 L6,7.16666667 C5.44444444,7.16666667 5,7.16666667 4.66666667,7.16666667 C4.44444444,7.16666667 4,7.11111111 3.33333333,7 Z" id="Path-2" fill="#9898CB" fill-rule="evenodd"></path>
                        </g>
                    </g>
                </g>
                <path d="M23.5810547,32 L22.7470703,29.4775391 L19.1171875,29.4775391 L18.2695312,32 L16.4853516,32 L19.9853516,22.1357422 L21.9677734,22.1357422 L25.4746094,32 L23.5810547,32 Z M20.8808594,24.015625 L19.5273438,28.0830078 L22.3369141,28.0830078 L20.9970703,24.015625 L20.8808594,24.015625 Z M31.0664063,24.3984375 C32.9599609,24.3984375 34.1494141,25.8613281 34.1494141,28.2607422 C34.1494141,30.6464844 32.9736328,32.1230469 31.0869141,32.1230469 C30.0136719,32.1230469 29.1865234,31.6582031 28.8037109,30.8652344 L28.6875,30.8652344 L28.6875,34.3925781 L26.9921875,34.3925781 L26.9921875,24.5214844 L28.6259766,24.5214844 L28.6259766,25.7587891 L28.7421875,25.7587891 C29.1728516,24.9111328 30.0410156,24.3984375 31.0664063,24.3984375 Z M30.5332031,30.6806641 C31.7089844,30.6806641 32.40625,29.7714844 32.40625,28.2607422 C32.40625,26.75 31.7021484,25.8408203 30.5400391,25.8408203 C29.3847656,25.8408203 28.6601562,26.7705078 28.6533203,28.2607422 C28.6601562,29.7578125 29.3779297,30.6806641 30.5332031,30.6806641 Z M39.9257812,24.3984375 C41.8193359,24.3984375 43.0087891,25.8613281 43.0087891,28.2607422 C43.0087891,30.6464844 41.8330078,32.1230469 39.9462891,32.1230469 C38.8730469,32.1230469 38.0458984,31.6582031 37.6630859,30.8652344 L37.546875,30.8652344 L37.546875,34.3925781 L35.8515625,34.3925781 L35.8515625,24.5214844 L37.4853516,24.5214844 L37.4853516,25.7587891 L37.6015625,25.7587891 C38.0322266,24.9111328 38.9003906,24.3984375 39.9257812,24.3984375 Z M39.3925781,30.6806641 C40.5683594,30.6806641 41.265625,29.7714844 41.265625,28.2607422 C41.265625,26.75 40.5615234,25.8408203 39.3994141,25.8408203 C38.2441406,25.8408203 37.5195312,26.7705078 37.5126953,28.2607422 C37.5195312,29.7578125 38.2373047,30.6806641 39.3925781,30.6806641 Z M48.4433594,32 L48.4433594,24.5214844 L50.0771484,24.5214844 L50.0771484,25.6835938 L50.1933594,25.6835938 C50.3984375,24.9453125 51.1982422,24.3984375 52.1552734,24.3984375 C52.3945312,24.3984375 52.6884766,24.4257812 52.8525391,24.4736328 L52.8525391,26.0458984 C52.7226562,25.9980469 52.2578125,25.9501953 51.9912109,25.9501953 C50.9042969,25.9501953 50.1386719,26.6337891 50.1386719,27.6796875 L50.1386719,32 L48.4433594,32 Z M57.3232422,25.7177734 C56.3115234,25.7177734 55.6005859,26.4423828 55.5253906,27.5361328 L59.0458984,27.5361328 C59.0117188,26.4287109 58.3417969,25.7177734 57.3232422,25.7177734 Z M59.0595703,29.9423828 L60.6660156,29.9423828 C60.3447266,31.3027344 59.1074219,32.1503906 57.34375,32.1503906 C55.1425781,32.1503906 53.8164063,30.6943359 53.8164063,28.2880859 C53.8164063,25.8818359 55.1630859,24.3710938 57.3300781,24.3710938 C59.4628906,24.3710938 60.7412109,25.7861328 60.7412109,28.1445312 L60.7412109,28.6914062 L55.5185547,28.6914062 L55.5185547,28.7802734 C55.5595703,30.0244141 56.2773438,30.8037109 57.3916016,30.8037109 C58.2324219,30.8037109 58.8134766,30.4960938 59.0595703,29.9423828 Z M62.2724609,26.6611328 C62.2724609,25.3076172 63.5029297,24.3710938 65.2666016,24.3710938 C67.0439453,24.3710938 68.1582031,25.1572266 68.28125,26.5175781 L66.6884766,26.5175781 C66.5654297,25.9912109 66.0664062,25.65625 65.2734375,25.65625 C64.5009766,25.65625 63.9199219,26.0253906 63.9199219,26.5654297 C63.9199219,26.9892578 64.2753906,27.2490234 65.0273438,27.4199219 L66.3466797,27.7207031 C67.7753906,28.0419922 68.4384766,28.6572266 68.4384766,29.7578125 C68.4384766,31.1933594 67.1191406,32.1503906 65.2529297,32.1503906 C63.3867188,32.1503906 62.2109375,31.34375 62.0810547,29.9833984 L63.7558594,29.9833984 C63.9199219,30.5371094 64.4462891,30.8652344 65.2939453,30.8652344 C66.1484375,30.8652344 66.7431641,30.4892578 66.7431641,29.9355469 C66.7431641,29.5117188 66.421875,29.2451172 65.7109375,29.0878906 L64.3847656,28.7802734 C62.9492188,28.4521484 62.2724609,27.7890625 62.2724609,26.6611328 Z M73.2919922,25.7177734 C72.2802734,25.7177734 71.5693359,26.4423828 71.4941406,27.5361328 L75.0146484,27.5361328 C74.9804688,26.4287109 74.3105469,25.7177734 73.2919922,25.7177734 Z M75.0283203,29.9423828 L76.6347656,29.9423828 C76.3134766,31.3027344 75.0761719,32.1503906 73.3125,32.1503906 C71.1113281,32.1503906 69.7851562,30.6943359 69.7851562,28.2880859 C69.7851562,25.8818359 71.1318359,24.3710938 73.2988281,24.3710938 C75.4316406,24.3710938 76.7099609,25.7861328 76.7099609,28.1445312 L76.7099609,28.6914062 L71.4873047,28.6914062 L71.4873047,28.7802734 C71.5283203,30.0244141 72.2460938,30.8037109 73.3603516,30.8037109 C74.2011719,30.8037109 74.7822266,30.4960938 75.0283203,29.9423828 Z M80.96875,30.7900391 C81.9941406,30.7900391 82.7597656,30.1269531 82.7597656,29.2587891 L82.7597656,28.6640625 L81.0712891,28.7734375 C80.1210938,28.8349609 79.6767578,29.1767578 79.6767578,29.7851562 C79.6767578,30.4140625 80.2167969,30.7900391 80.96875,30.7900391 Z M80.4697266,32.1230469 C79.0273438,32.1230469 77.9951172,31.2480469 77.9951172,29.8808594 C77.9951172,28.5273438 79.0136719,27.7480469 80.8320312,27.6386719 L82.7597656,27.5224609 L82.7597656,26.8935547 C82.7597656,26.1621094 82.2675781,25.7519531 81.3515625,25.7519531 C80.5722656,25.7519531 80.0390625,26.0253906 79.8818359,26.53125 L78.2822266,26.53125 C78.4189453,25.2119141 79.65625,24.3710938 81.4335938,24.3710938 C83.3544922,24.3710938 84.4345703,25.3076172 84.4345703,26.8935547 L84.4345703,32 L82.8007812,32 L82.8007812,30.9746094 L82.6845703,30.9746094 C82.2675781,31.6992188 81.4472656,32.1230469 80.4697266,32.1230469 Z M86.4716797,32 L86.4716797,24.5214844 L88.1054688,24.5214844 L88.1054688,25.6835938 L88.2216797,25.6835938 C88.4267578,24.9453125 89.2265625,24.3984375 90.1835938,24.3984375 C90.4228516,24.3984375 90.7167969,24.4257812 90.8808594,24.4736328 L90.8808594,26.0458984 C90.7509766,25.9980469 90.2861328,25.9501953 90.0195312,25.9501953 C88.9326172,25.9501953 88.1669922,26.6337891 88.1669922,27.6796875 L88.1669922,32 L86.4716797,32 Z M98.6738281,27.0371094 L97.0605469,27.0371094 C96.9033203,26.3125 96.3427734,25.7929688 95.4130859,25.7929688 C94.2509766,25.7929688 93.5605469,26.6884766 93.5605469,28.2402344 C93.5605469,29.8125 94.2578125,30.7285156 95.4130859,30.7285156 C96.2949219,30.7285156 96.8828125,30.3115234 97.0605469,29.5322266 L98.6738281,29.5322266 C98.4892578,31.0976562 97.3134766,32.1503906 95.4199219,32.1503906 C93.1708984,32.1503906 91.8447266,30.7011719 91.8447266,28.2402344 C91.8447266,25.8134766 93.1640625,24.3710938 95.4130859,24.3710938 C97.3339844,24.3710938 98.4960938,25.4648438 98.6738281,27.0371094 Z M100.362305,32 L100.362305,21.6298828 L102.030273,21.6298828 L102.030273,25.7314453 L102.15332,25.7314453 C102.508789,24.890625 103.390625,24.3847656 104.504883,24.3847656 C106.179688,24.3847656 107.150391,25.3964844 107.150391,27.1738281 L107.150391,32 L105.461914,32 L105.461914,27.5771484 C105.461914,26.4423828 104.915039,25.8613281 103.875977,25.8613281 C102.761719,25.8613281 102.057617,26.5859375 102.057617,27.6591797 L102.057617,32 L100.362305,32 Z" id="App-research" fill="#24124D"></path>
            </g>
            <g>
                <rect id="Rectangle-11" fill="#F1EFF8" x="0" y="0" width="176" height="80" rx="4"></rect>
                <g id="plus" transform="translate(81.000000, 33.000000)" stroke="#7B7194" stroke-linecap="round" stroke-linejoin="round" stroke-width="2">
                    <path d="M7,0 L7,14" id="Shape"></path>
                    <path d="M0,7 L14,7" id="Shape"></path>
                </g>
            </g>
        </g>
    </g>
</svg>