<?xml version="1.0" encoding="UTF-8"?>
<svg width="400px" height="320px" viewBox="0 0 400 320" version="1.1" xmlns="http://www.w3.org/2000/svg" xmlns:xlink="http://www.w3.org/1999/xlink">
    <!-- Generator: Sketch 51 (57462) - http://www.bohemiancoding.com/sketch -->
    <title>snippet/realtime</title>
    <desc>Created with Sketch.</desc>
    <defs>
        <circle id="path-1" cx="16" cy="16" r="16"></circle>
        <circle id="path-3" cx="16" cy="16" r="16"></circle>
        <circle id="path-5" cx="16" cy="16" r="16"></circle>
    </defs>
    <g id="snippet/realtime" stroke="none" stroke-width="1" fill="none" fill-rule="evenodd">
        <g id="Group" transform="translate(16.000000, 16.000000)">
            <g transform="translate(336.000000, 0.000000)">
                <mask id="mask-2" fill="white">
                    <use xlink:href="#path-1"></use>
                </mask>
                <use id="Oval-2" fill="#A5A5D8" opacity="0.300000012" xlink:href="#path-1"></use>
                <g mask="url(#mask-2)">
                    <g transform="translate(6.666667, 5.333333)">
                        <path d="M13.6273992,1.64122036 C14.3236676,2.08438463 14.9295316,2.65800103 15.3878063,3.34095687 C16.222965,4.58805897 16.7996053,5.98604002 17.083573,7.45209765 C17.2764712,8.41767371 17.4014198,9.40096611 17.5726727,10.3540452 L17.6822784,11.4139 C17.7015985,11.5732097 17.6333798,11.7295469 17.50364,11.8232868 L13.3333333,14.6666667 L9.33333333,10 L5.30723717,15.402321 L2.67252539,13.7672752 L1.53764868,13.0835803 C1.45559605,13.0233823 1.40358285,12.9309847 1.39517113,12.8304796 C1.31033146,11.6268888 1.31279307,10.419805 1.40253684,9.21859258 C1.49789339,7.93833291 1.74292256,6.67516718 2.13268941,5.45453591 C2.49924826,4.26127986 3.12282269,3.16416301 3.96045471,2.23876563 C4.89251998,1.18316607 6.16393533,0.480389114 7.56341845,0.24722143 C8.48704071,0.0971100228 9.46025636,0.061051988 10.3901812,0 C10.425003,0.000824908958 10.459106,0.0106970383 10.4890922,0.028632751 C10.5348077,0.0518823043 10.5749357,0.0847708215 10.6066352,0.124969766 C10.7422849,0.326172885 10.8614069,0.537784076 10.9628291,0.757721511 C10.9966853,0.863423926 11.0668261,0.954328137 11.1609268,1.01446101 C11.2505464,1.05721706 11.3498674,1.07520233 11.4483438,1.06650713 C12.2112679,1.06016778 12.9641518,1.25873654 13.6273992,1.64122036 Z" id="Shape" fill="#7878AB" fill-rule="nonzero"></path>
                        <path d="M18.6666667,26.6666667 L0,26.6666667 C0,25.3458803 0,15.6666667 5.33333333,15.6666667 C5.33333333,15.6666667 7.08045977,20 9.01149425,20 C10.9425287,20 13.3333333,15.6666667 13.3333333,15.6666667 C16.8888889,15.6666667 18.6666667,19.3333333 18.6666667,26.6666667 Z" id="Shape" fill="#A5A5D8" fill-rule="nonzero"></path>
                        <path d="M13.3333333,15.9999307 C13.3333333,18.6563443 11.9999995,20.6666667 9.33333284,20.6666667 C6.70751128,20.6666667 5.39335454,18.595317 5.33333333,15.9999307 C5.33333333,15.9999307 13.3333333,15.9999307 13.3333333,15.9999307 Z" id="Shape" fill="#7878AB" fill-rule="nonzero"></path>
                        <path d="M12,16.0128933 C12,17.9217163 11.1111112,19.3533335 9.33333366,19.3533335 C7.58278616,19.3533335 6.70668145,17.8778638 6.66666732,16.0128933 C6.66666732,16.0128933 6.6666671,15.1197066 6.66666667,13.3333333 L12,13.3333333 C12,15.1197066 12,16.0128933 12,16.0128933 Z" id="Shape" fill="#B6B6E9" fill-rule="nonzero"></path>
                        <path d="M14,11.3333333 L13.3333333,14.6666667 L12,14.6666667 L12,12.6666667 C12.0152219,12.6510242 12.6818886,12.2065797 14,11.3333333 Z" id="Shape" fill="#636396" fill-rule="nonzero"></path>
                        <path d="M4.66666667,11.3333333 C5.07208323,11.9747465 6.61952772,13.2683451 6.66666667,13.3093355 L6.66666667,14.6666667 L5.33333333,15.3333333 C4.87165546,12.8651974 4.64943324,11.5318641 4.66666667,11.3333333 Z" id="Path" fill="#636396" fill-rule="evenodd"></path>
                        <path d="M11.3333333,4 L13.141471,5.81533431 L14,6.71138802 C14.038321,6.71138802 14.038321,8.25203646 14,11.3333333 C13.5555556,12.6666667 13.1111111,13.5555556 12.6666667,14 C12,14.6666667 8.14115136,14.2051266 6.66666667,14 C5.9180233,13.8958506 5.02872081,13.3333333 4.84769374,12 C4.72700902,11.1111111 4.66666667,10 4.66666667,8.66666667 C5.75397543,8.15758699 6.86508654,7.50582744 8,6.71138802 C9.13491346,5.9169486 10.2460246,5.01315259 11.3333333,4 Z" id="Shape" fill="#C8C8F7" fill-rule="nonzero"></path>
                        <path d="M7.65721875,8.75855237 C7.87232332,8.98888723 7.98658374,9.18598709 8,9.34985196 C7.99330352,9.45661706 7.95902551,9.55950094 7.90050899,9.64846967 C7.78427472,9.85167132 7.57451509,9.98321004 7.34000852,9.9999554 C7.22005201,10.0013601 7.10165601,9.96955928 6.99791314,9.9080697 C6.80403627,9.79017479 6.68001019,9.58461459 6.66671713,9.35914713 C6.66513107,9.22881005 6.70096023,9.10118923 6.76995558,8.99141943 C6.88136924,8.79473464 7.08803165,8.67162723 7.31512336,8.66666667 C7.43489874,8.66679718 7.55289329,8.69849013 7.65721875,8.75855237 Z M10.9761877,8.73246242 C11.1842212,8.84758549 11.3194144,9.06275175 11.333283,9.30079632 C11.3348646,9.43200313 11.2991373,9.56047554 11.2303382,9.67097782 C11.1192415,9.86897506 10.9131669,9.99290395 10.6867212,9.99789762 C10.5646609,10.0073612 10.4418813,9.98476708 10.3303098,9.93231012 C10.1328436,9.81784679 10.0076509,9.60837248 10.0000559,9.37972466 C9.99556716,9.01564383 10.2620365,8.70913052 10.6197763,8.66687492 C10.6996456,8.66479045 10.8184494,8.68665295 10.9761877,8.73246242 Z" id="Shape" fill="#7272A5" fill-rule="nonzero"></path>
                        <path d="M6.66666667,14 L6.66666667,14.6666667 C8,15.3333333 9.11111111,15.6666667 10,15.6666667 C10.8888889,15.6666667 11.5555556,15.4444444 12,15 L12,14.3333333 C10.8888889,14.3333333 10,14.3333333 9.33333333,14.3333333 C8.88888889,14.3333333 8,14.2222222 6.66666667,14 Z" id="Path-2" fill="#9898CB" fill-rule="evenodd"></path>
                    </g>
                </g>
            </g>
            <g transform="translate(300.000000, 0.000000)">
                <mask id="mask-4" fill="white">
                    <use xlink:href="#path-3"></use>
                </mask>
                <use id="Oval-2" fill="#A5A5D8" opacity="0.300000012" xlink:href="#path-3"></use>
                <g mask="url(#mask-4)">
                    <g transform="translate(5.333333, 6.666667)">
                        <path d="M15.6666667,1.33333333 C16.3629351,1.7764976 15.6666667,6 16,7.33333333 C16.2763904,8.43889484 14.4986126,7.32778373 10.6666667,4 C8.67626927,5.13468911 7.34293594,5.80135578 6.66666667,6 C4.1485146,6.73967038 4.48143871,4.58007765 4.66666667,4 C5.03322552,2.80674394 4.49570131,2.2587307 5.33333333,1.33333333 C6.2653986,0.277733767 7.49726866,0.480389114 8.89675178,0.24722143 C9.82037404,0.0971100228 10.7935897,0.061051988 11.7235145,0 C11.7583364,0.000824908958 11.7924393,0.0106970383 11.8224255,0.028632751 C11.868141,0.0518823043 11.9082691,0.0847708215 11.9399685,0.124969766 C12.0756183,0.326172885 12.1947402,0.537784076 12.2961624,0.757721511 C12.3300186,0.863423926 12.4001594,0.954328137 12.4942602,1.01446101 C12.5838797,1.05721706 12.6832008,1.07520233 12.7816772,1.06650713 C13.5446012,1.06016778 15.0034192,0.950849509 15.6666667,1.33333333 Z" id="Shape" fill="#7E7EB1" fill-rule="nonzero"></path>
                        <path d="M21.3333333,26 L0,26 C0,24.6792136 0.666666667,15 6,15 C6,15 8.73563218,19.3333333 10.6666667,19.3333333 C12.5977011,19.3333333 15.3333333,15 15.3333333,15 C18.8888889,15 20.8888889,18.6666667 21.3333333,26 Z" id="Shape" fill="#A5A5D8" fill-rule="nonzero"></path>
                        <path d="M15.3333333,15.3332641 C15.3333333,17.5555094 13.7777778,19.7777547 10.6666667,22 C7.55555556,19.7777547 6,17.5555094 6,15.3332641 C6,15.3332641 15.3333333,15.3332641 15.3333333,15.3332641 Z" id="Shape" fill="#7878AB" fill-rule="nonzero"></path>
                        <path d="M13.3333333,14.67956 C13.3333333,16.5883829 12.4444446,18.0200001 10.666667,18.0200001 C8.9161195,18.0200001 8.04001478,16.5445304 8.00000065,14.67956 C8.00000065,14.67956 8.00000043,13.7863733 8,12 L13.3333333,12 C13.3333333,13.7863733 13.3333333,14.67956 13.3333333,14.67956 Z" id="Shape" fill="#B6B6E9" fill-rule="nonzero"></path>
                        <path d="M10,3.66666667 C11.5959125,3.37650075 13,3.66666667 14,4 C15,4.33333333 15,5.33333333 15,5.33333333 C15,5.33333333 15.0537462,8.80868511 14.6666667,10.6666667 C14.2795872,12.5246482 14,12.6666667 13.3333333,13.3333333 C12.6666667,14 8.66666667,14 8,13.3333333 C7.33333333,12.6666667 6.84769374,12 6.66666667,10.6666667 C6.4856396,9.33333333 6.33333333,6 6.66666667,5.33333333 C7,4.66666667 8.40408746,3.95683258 10,3.66666667 Z" id="Shape" fill="#C8C8F7" fill-rule="nonzero"></path>
                        <path d="M8.99055208,7.42521904 C9.20565665,7.65555389 9.31991707,7.85265376 9.33333333,8.01651862 C9.32663685,8.12328373 9.29235884,8.2261676 9.23384232,8.31513634 C9.11760805,8.51833799 8.90784843,8.64987671 8.67334186,8.66662207 C8.55338534,8.66802673 8.43498934,8.63622595 8.33124647,8.57473636 C8.13736961,8.45684146 8.01334352,8.25128126 8.00005047,8.02581379 C7.9984644,7.89547671 8.03429357,7.7678559 8.10328892,7.6580861 C8.21470257,7.4614013 8.42136498,7.3382939 8.64845669,7.33333333 C8.76823208,7.33346385 8.88622662,7.3651568 8.99055208,7.42521904 Z M12.3095211,7.39912909 C12.5175546,7.51425216 12.6527477,7.72941842 12.6666163,7.96746299 C12.6681979,8.09866979 12.6324706,8.22714221 12.5636716,8.33764448 C12.4525748,8.53564173 12.2465003,8.65957061 12.0200545,8.66456428 C11.8979942,8.67402787 11.7752147,8.65143375 11.6636431,8.59897679 C11.466177,8.48451346 11.3409842,8.27503915 11.3333892,8.04639133 C11.3289005,7.68231049 11.5953698,7.37579718 11.9531097,7.33354159 C12.0329789,7.33145711 12.1517827,7.35331961 12.3095211,7.39912909 Z" id="Shape" fill="#7272A5" fill-rule="nonzero"></path>
                        <path d="M8,13.3333333 L8,14.3333333 C9.33333333,15 10.4444444,15.3333333 11.3333333,15.3333333 C12.2222222,15.3333333 12.8888889,15.1111111 13.3333333,14.6666667 L13.3333333,13.3333333 C12.2222222,13.5555556 11.3333333,13.6666667 10.6666667,13.6666667 C10.2222222,13.6666667 9.33333333,13.5555556 8,13.3333333 Z" id="Path-2" fill="#9898CB" fill-rule="evenodd"></path>
                    </g>
                </g>
            </g>
            <g transform="translate(264.000000, 0.000000)">
                <mask id="mask-6" fill="white">
                    <use xlink:href="#path-5"></use>
                </mask>
                <use id="Oval-2" fill="#A5A5D8" opacity="0.300000012" xlink:href="#path-5"></use>
                <g mask="url(#mask-6)">
                    <g transform="translate(6.666667, 5.333333)">
                        <path d="M13.6273992,1.64122036 C14.3236676,2.08438463 14.9295316,2.65800103 15.3878063,3.34095687 C16.222965,4.58805897 16.7996053,5.98604002 17.083573,7.45209765 C17.2764712,8.41767371 17.4014198,9.40096611 17.5726727,10.3540452 L17.6822784,11.4139 C17.7015985,11.5732097 17.6333798,11.7295469 17.50364,11.8232868 L13.3333333,14.6666667 L9.33333333,10 L5.30723717,15.402321 L2.67252539,13.7672752 L1.53764868,13.0835803 C1.45559605,13.0233823 1.40358285,12.9309847 1.39517113,12.8304796 C1.31033146,11.6268888 1.31279307,10.419805 1.40253684,9.21859258 C1.49789339,7.93833291 1.74292256,6.67516718 2.13268941,5.45453591 C2.49924826,4.26127986 3.12282269,3.16416301 3.96045471,2.23876563 C4.89251998,1.18316607 6.16393533,0.480389114 7.56341845,0.24722143 C8.48704071,0.0971100228 9.46025636,0.061051988 10.3901812,0 C10.425003,0.000824908958 10.459106,0.0106970383 10.4890922,0.028632751 C10.5348077,0.0518823043 10.5749357,0.0847708215 10.6066352,0.124969766 C10.7422849,0.326172885 10.8614069,0.537784076 10.9628291,0.757721511 C10.9966853,0.863423926 11.0668261,0.954328137 11.1609268,1.01446101 C11.2505464,1.05721706 11.3498674,1.07520233 11.4483438,1.06650713 C12.2112679,1.06016778 12.9641518,1.25873654 13.6273992,1.64122036 Z" id="Shape" fill="#7878AB" fill-rule="nonzero"></path>
                        <path d="M18.6666667,26.6666667 L0,26.6666667 C0,25.3458803 0,15.6666667 5.33333333,15.6666667 C5.33333333,15.6666667 7.08045977,20 9.01149425,20 C10.9425287,20 13.3333333,15.6666667 13.3333333,15.6666667 C16.8888889,15.6666667 18.6666667,19.3333333 18.6666667,26.6666667 Z" id="Shape" fill="#A5A5D8" fill-rule="nonzero"></path>
                        <path d="M13.3333333,15.9999307 C13.3333333,18.6563443 11.9999995,20.6666667 9.33333284,20.6666667 C6.70751128,20.6666667 5.39335454,18.595317 5.33333333,15.9999307 C5.33333333,15.9999307 13.3333333,15.9999307 13.3333333,15.9999307 Z" id="Shape" fill="#7878AB" fill-rule="nonzero"></path>
                        <path d="M12,16.0128933 C12,17.9217163 11.1111112,19.3533335 9.33333366,19.3533335 C7.58278616,19.3533335 6.70668145,17.8778638 6.66666732,16.0128933 C6.66666732,16.0128933 6.6666671,15.1197066 6.66666667,13.3333333 L12,13.3333333 C12,15.1197066 12,16.0128933 12,16.0128933 Z" id="Shape" fill="#B6B6E9" fill-rule="nonzero"></path>
                        <path d="M14,11.3333333 L13.3333333,14.6666667 L12,14.6666667 L12,12.6666667 C12.0152219,12.6510242 12.6818886,12.2065797 14,11.3333333 Z" id="Shape" fill="#636396" fill-rule="nonzero"></path>
                        <path d="M4.66666667,11.3333333 C5.07208323,11.9747465 6.61952772,13.2683451 6.66666667,13.3093355 L6.66666667,14.6666667 L5.33333333,15.3333333 C4.87165546,12.8651974 4.64943324,11.5318641 4.66666667,11.3333333 Z" id="Path" fill="#636396" fill-rule="evenodd"></path>
                        <path d="M11.3333333,4 L13.141471,5.81533431 L14,6.71138802 C14.038321,6.71138802 14.038321,8.25203646 14,11.3333333 C13.5555556,12.6666667 13.1111111,13.5555556 12.6666667,14 C12,14.6666667 8.14115136,14.2051266 6.66666667,14 C5.9180233,13.8958506 5.02872081,13.3333333 4.84769374,12 C4.72700902,11.1111111 4.66666667,10 4.66666667,8.66666667 C5.75397543,8.15758699 6.86508654,7.50582744 8,6.71138802 C9.13491346,5.9169486 10.2460246,5.01315259 11.3333333,4 Z" id="Shape" fill="#C8C8F7" fill-rule="nonzero"></path>
                        <path d="M7.65721875,8.75855237 C7.87232332,8.98888723 7.98658374,9.18598709 8,9.34985196 C7.99330352,9.45661706 7.95902551,9.55950094 7.90050899,9.64846967 C7.78427472,9.85167132 7.57451509,9.98321004 7.34000852,9.9999554 C7.22005201,10.0013601 7.10165601,9.96955928 6.99791314,9.9080697 C6.80403627,9.79017479 6.68001019,9.58461459 6.66671713,9.35914713 C6.66513107,9.22881005 6.70096023,9.10118923 6.76995558,8.99141943 C6.88136924,8.79473464 7.08803165,8.67162723 7.31512336,8.66666667 C7.43489874,8.66679718 7.55289329,8.69849013 7.65721875,8.75855237 Z M10.9761877,8.73246242 C11.1842212,8.84758549 11.3194144,9.06275175 11.333283,9.30079632 C11.3348646,9.43200313 11.2991373,9.56047554 11.2303382,9.67097782 C11.1192415,9.86897506 10.9131669,9.99290395 10.6867212,9.99789762 C10.5646609,10.0073612 10.4418813,9.98476708 10.3303098,9.93231012 C10.1328436,9.81784679 10.0076509,9.60837248 10.0000559,9.37972466 C9.99556716,9.01564383 10.2620365,8.70913052 10.6197763,8.66687492 C10.6996456,8.66479045 10.8184494,8.68665295 10.9761877,8.73246242 Z" id="Shape" fill="#7272A5" fill-rule="nonzero"></path>
                        <path d="M6.66666667,14 L6.66666667,14.6666667 C8,15.3333333 9.11111111,15.6666667 10,15.6666667 C10.8888889,15.6666667 11.5555556,15.4444444 12,15 L12,14.3333333 C10.8888889,14.3333333 10,14.3333333 9.33333333,14.3333333 C8.88888889,14.3333333 8,14.2222222 6.66666667,14 Z" id="Path-2" fill="#9898CB" fill-rule="evenodd"></path>
                    </g>
                </g>
            </g>
            <circle id="Oval" stroke="#FFFFFF" stroke-width="2" fill="#009688" cx="290" cy="26" r="5"></circle>
            <circle id="Oval" stroke="#FFFFFF" stroke-width="2" fill="#FFB300" cx="326" cy="26" r="5"></circle>
            <circle id="Oval" stroke="#FFFFFF" stroke-width="2" fill="#F84F77" cx="362" cy="26" r="5"></circle>
            <g transform="translate(0.000000, 10.000000)">
                <path d="M2.57226562,1.54492188 L2.57226562,6.94726563 C2.57226562,8.08984375 3.28710938,8.85742188 4.54101562,8.85742188 C5.79492188,8.85742188 6.50390625,8.08984375 6.50390625,6.94726563 L6.50390625,1.54492188 L8.015625,1.54492188 L8.015625,7.08789062 C8.015625,8.93359375 6.6796875,10.2109375 4.54101562,10.2109375 C2.40234375,10.2109375 1.06640625,8.93359375 1.06640625,7.08789062 L1.06640625,1.54492188 L2.57226562,1.54492188 Z M9.8203125,5.42382813 C9.8203125,4.26367188 10.875,3.4609375 12.3867188,3.4609375 C13.9101562,3.4609375 14.8652344,4.13476562 14.9707031,5.30078125 L13.6054688,5.30078125 C13.5,4.84960938 13.0722656,4.5625 12.3925781,4.5625 C11.7304688,4.5625 11.2324219,4.87890625 11.2324219,5.34179688 C11.2324219,5.70507813 11.5371094,5.92773438 12.1816406,6.07421875 L13.3125,6.33203125 C14.5371094,6.60742188 15.1054688,7.13476562 15.1054688,8.078125 C15.1054688,9.30859375 13.9746094,10.1289063 12.375,10.1289063 C10.7753906,10.1289063 9.76757812,9.4375 9.65625,8.27148438 L11.0917969,8.27148438 C11.2324219,8.74609375 11.6835938,9.02734375 12.4101562,9.02734375 C13.1425781,9.02734375 13.6523438,8.70507813 13.6523438,8.23046875 C13.6523438,7.8671875 13.3769531,7.63867188 12.7675781,7.50390625 L11.6308594,7.24023438 C10.4003906,6.95898438 9.8203125,6.390625 9.8203125,5.42382813 Z M19.265625,4.61523438 C18.3984375,4.61523438 17.7890625,5.23632812 17.7246094,6.17382812 L20.7421875,6.17382812 C20.7128906,5.22460938 20.1386719,4.61523438 19.265625,4.61523438 Z M20.7539062,8.23632813 L22.1308594,8.23632813 C21.8554688,9.40234375 20.7949219,10.1289063 19.2832031,10.1289063 C17.3964844,10.1289063 16.2597656,8.88085938 16.2597656,6.81835938 C16.2597656,4.75585938 17.4140625,3.4609375 19.2714844,3.4609375 C21.0996094,3.4609375 22.1953125,4.67382812 22.1953125,6.6953125 L22.1953125,7.1640625 L17.71875,7.1640625 L17.71875,7.24023438 C17.7539062,8.30664063 18.3691406,8.97460938 19.3242188,8.97460938 C20.0449219,8.97460938 20.5429688,8.7109375 20.7539062,8.23632813 Z M23.6542969,10 L23.6542969,3.58984375 L25.0546875,3.58984375 L25.0546875,4.5859375 L25.1542969,4.5859375 C25.3300781,3.953125 26.015625,3.484375 26.8359375,3.484375 C27.0410156,3.484375 27.2929688,3.5078125 27.4335938,3.54882812 L27.4335938,4.89648438 C27.3222656,4.85546875 26.9238281,4.81445313 26.6953125,4.81445313 C25.7636719,4.81445313 25.1074219,5.40039063 25.1074219,6.296875 L25.1074219,10 L23.6542969,10 Z M32.2382812,2.06054688 L33.6855469,2.06054688 L33.6855469,3.63085938 L35.0917969,3.63085938 L35.0917969,4.79101562 L33.6855469,4.79101562 L33.6855469,7.9375 C33.6855469,8.5703125 33.9550781,8.8515625 34.5644531,8.8515625 C34.7695312,8.8515625 34.875,8.83984375 35.0449219,8.82226562 L35.0449219,9.95898438 C34.8398438,10 34.5761719,10.0292969 34.2949219,10.0292969 C32.8242188,10.0292969 32.2382812,9.53125 32.2382812,8.2890625 L32.2382812,4.79101562 L31.1953125,4.79101562 L31.1953125,3.63085938 L32.2382812,3.63085938 L32.2382812,2.06054688 Z M39.1992188,4.61523438 C38.3320312,4.61523438 37.7226562,5.23632812 37.6582031,6.17382812 L40.6757812,6.17382812 C40.6464844,5.22460938 40.0722656,4.61523438 39.1992188,4.61523438 Z M40.6875,8.23632813 L42.0644531,8.23632813 C41.7890625,9.40234375 40.7285156,10.1289063 39.2167969,10.1289063 C37.3300781,10.1289063 36.1933594,8.88085938 36.1933594,6.81835938 C36.1933594,4.75585938 37.3476562,3.4609375 39.2050781,3.4609375 C41.0332031,3.4609375 42.1289062,4.67382812 42.1289062,6.6953125 L42.1289062,7.1640625 L37.6523437,7.1640625 L37.6523437,7.24023438 C37.6875,8.30664063 38.3027344,8.97460938 39.2578125,8.97460938 C39.9785156,8.97460938 40.4765625,8.7109375 40.6875,8.23632813 Z M43.4414062,5.42382813 C43.4414062,4.26367188 44.4960937,3.4609375 46.0078125,3.4609375 C47.53125,3.4609375 48.4863281,4.13476562 48.5917969,5.30078125 L47.2265625,5.30078125 C47.1210937,4.84960938 46.6933594,4.5625 46.0136719,4.5625 C45.3515625,4.5625 44.8535156,4.87890625 44.8535156,5.34179688 C44.8535156,5.70507813 45.1582031,5.92773438 45.8027344,6.07421875 L46.9335937,6.33203125 C48.1582031,6.60742188 48.7265625,7.13476562 48.7265625,8.078125 C48.7265625,9.30859375 47.5957031,10.1289063 45.9960937,10.1289063 C44.3964844,10.1289063 43.3886719,9.4375 43.2773437,8.27148438 L44.7128906,8.27148438 C44.8535156,8.74609375 45.3046875,9.02734375 46.03125,9.02734375 C46.7636719,9.02734375 47.2734375,8.70507813 47.2734375,8.23046875 C47.2734375,7.8671875 46.9980469,7.63867188 46.3886719,7.50390625 L45.2519531,7.24023438 C44.0214844,6.95898438 43.4414062,6.390625 43.4414062,5.42382813 Z M50.6601562,2.06054688 L52.1074219,2.06054688 L52.1074219,3.63085938 L53.5136719,3.63085938 L53.5136719,4.79101562 L52.1074219,4.79101562 L52.1074219,7.9375 C52.1074219,8.5703125 52.3769531,8.8515625 52.9863281,8.8515625 C53.1914062,8.8515625 53.296875,8.83984375 53.4667969,8.82226562 L53.4667969,9.95898438 C53.2617188,10 52.9980469,10.0292969 52.7167969,10.0292969 C51.2460938,10.0292969 50.6601562,9.53125 50.6601562,8.2890625 L50.6601562,4.79101562 L49.6171875,4.79101562 L49.6171875,3.63085938 L50.6601562,3.63085938 L50.6601562,2.06054688 Z M54.9492188,10 L54.9492188,3.58984375 L56.3964844,3.58984375 L56.3964844,10 L54.9492188,10 Z M55.6699219,2.546875 C55.1425781,2.546875 54.7734375,2.20703125 54.7734375,1.74414062 C54.7734375,1.28125 55.1425781,0.94140625 55.6699219,0.94140625 C56.203125,0.94140625 56.5664062,1.28125 56.5664062,1.74414062 C56.5664062,2.20703125 56.203125,2.546875 55.6699219,2.546875 Z M58.1953125,10 L58.1953125,3.58984375 L59.5957031,3.58984375 L59.5957031,4.61523438 L59.6953125,4.61523438 C60,3.90039062 60.75,3.4609375 61.7109375,3.4609375 C63.140625,3.4609375 63.9433594,4.32226562 63.9433594,5.8515625 L63.9433594,10 L62.4960938,10 L62.4960938,6.19726562 C62.4960938,5.21875 62.0507812,4.7265625 61.171875,4.7265625 C60.234375,4.7265625 59.6484375,5.32421875 59.6484375,6.26757812 L59.6484375,10 L58.1953125,10 Z M70.0429687,6.72460938 C70.0429687,5.5 69.4277344,4.72070312 68.4199219,4.72070312 C67.40625,4.72070312 66.8320312,5.5 66.8320312,6.72460938 C66.8320312,7.94921875 67.40625,8.72265625 68.4199219,8.72265625 C69.4335937,8.72265625 70.0429687,7.94921875 70.0429687,6.72460938 Z M68.4199219,12.4375 C66.7734375,12.4375 65.6953125,11.7109375 65.578125,10.609375 L67.0371094,10.609375 C67.1308594,11.0488281 67.6464844,11.3300781 68.4433594,11.3300781 C69.4394531,11.3300781 70.0195312,10.8613281 70.0195312,10.0585938 L70.0195312,8.84570312 L69.9199219,8.84570312 C69.5507812,9.53125 68.8535156,9.90625 67.9628906,9.90625 C66.3457031,9.90625 65.3378906,8.65234375 65.3378906,6.72460938 C65.3378906,4.76171875 66.3515625,3.484375 67.9863281,3.484375 C68.859375,3.484375 69.6210938,3.91796875 69.9726562,4.61523438 L70.0722656,4.61523438 L70.0722656,3.58984375 L71.4726562,3.58984375 L71.4726562,10.0234375 C71.4726562,11.5058594 70.2890625,12.4375 68.4199219,12.4375 Z M76.3066406,5.42382813 C76.3066406,4.26367188 77.3613281,3.4609375 78.8730469,3.4609375 C80.3964844,3.4609375 81.3515625,4.13476562 81.4570312,5.30078125 L80.0917969,5.30078125 C79.9863281,4.84960938 79.5585938,4.5625 78.8789062,4.5625 C78.2167969,4.5625 77.71875,4.87890625 77.71875,5.34179688 C77.71875,5.70507813 78.0234375,5.92773438 78.6679688,6.07421875 L79.7988281,6.33203125 C81.0234375,6.60742188 81.5917969,7.13476562 81.5917969,8.078125 C81.5917969,9.30859375 80.4609375,10.1289063 78.8613281,10.1289063 C77.2617188,10.1289063 76.2539062,9.4375 76.1425781,8.27148438 L77.578125,8.27148438 C77.71875,8.74609375 78.1699219,9.02734375 78.8964844,9.02734375 C79.6289062,9.02734375 80.1386719,8.70507813 80.1386719,8.23046875 C80.1386719,7.8671875 79.8632812,7.63867188 79.2539062,7.50390625 L78.1171875,7.24023438 C76.8867188,6.95898438 76.3066406,6.390625 76.3066406,5.42382813 Z M85.7519531,4.61523438 C84.8847656,4.61523438 84.2753906,5.23632812 84.2109375,6.17382812 L87.2285156,6.17382812 C87.1992187,5.22460938 86.625,4.61523438 85.7519531,4.61523438 Z M87.2402344,8.23632813 L88.6171875,8.23632813 C88.3417969,9.40234375 87.28125,10.1289063 85.7695312,10.1289063 C83.8828125,10.1289063 82.7460938,8.88085938 82.7460938,6.81835938 C82.7460938,4.75585938 83.9003906,3.4609375 85.7578125,3.4609375 C87.5859375,3.4609375 88.6816406,4.67382812 88.6816406,6.6953125 L88.6816406,7.1640625 L84.2050781,7.1640625 L84.2050781,7.24023438 C84.2402344,8.30664063 84.8554688,8.97460938 85.8105469,8.97460938 C86.53125,8.97460938 87.0292969,8.7109375 87.2402344,8.23632813 Z M89.9941406,5.42382813 C89.9941406,4.26367188 91.0488281,3.4609375 92.5605469,3.4609375 C94.0839844,3.4609375 95.0390625,4.13476562 95.1445312,5.30078125 L93.7792969,5.30078125 C93.6738281,4.84960938 93.2460937,4.5625 92.5664062,4.5625 C91.9042969,4.5625 91.40625,4.87890625 91.40625,5.34179688 C91.40625,5.70507813 91.7109375,5.92773438 92.3554687,6.07421875 L93.4863281,6.33203125 C94.7109375,6.60742188 95.2792969,7.13476562 95.2792969,8.078125 C95.2792969,9.30859375 94.1484375,10.1289063 92.5488281,10.1289063 C90.9492187,10.1289063 89.9414062,9.4375 89.8300781,8.27148438 L91.265625,8.27148438 C91.40625,8.74609375 91.8574219,9.02734375 92.5839844,9.02734375 C93.3164062,9.02734375 93.8261719,8.70507813 93.8261719,8.23046875 C93.8261719,7.8671875 93.5507812,7.63867188 92.9414062,7.50390625 L91.8046875,7.24023438 C90.5742187,6.95898438 89.9941406,6.390625 89.9941406,5.42382813 Z M96.6035156,5.42382813 C96.6035156,4.26367188 97.6582031,3.4609375 99.1699219,3.4609375 C100.693359,3.4609375 101.648437,4.13476562 101.753906,5.30078125 L100.388672,5.30078125 C100.283203,4.84960938 99.8554687,4.5625 99.1757812,4.5625 C98.5136719,4.5625 98.015625,4.87890625 98.015625,5.34179688 C98.015625,5.70507813 98.3203125,5.92773438 98.9648437,6.07421875 L100.095703,6.33203125 C101.320312,6.60742188 101.888672,7.13476562 101.888672,8.078125 C101.888672,9.30859375 100.757812,10.1289063 99.1582031,10.1289063 C97.5585937,10.1289063 96.5507812,9.4375 96.4394531,8.27148438 L97.875,8.27148438 C98.015625,8.74609375 98.4667969,9.02734375 99.1933594,9.02734375 C99.9257812,9.02734375 100.435547,8.70507813 100.435547,8.23046875 C100.435547,7.8671875 100.160156,7.63867188 99.5507812,7.50390625 L98.4140625,7.24023438 C97.1835937,6.95898438 96.6035156,6.390625 96.6035156,5.42382813 Z M103.376953,10 L103.376953,3.58984375 L104.824219,3.58984375 L104.824219,10 L103.376953,10 Z M104.097656,2.546875 C103.570312,2.546875 103.201172,2.20703125 103.201172,1.74414062 C103.201172,1.28125 103.570312,0.94140625 104.097656,0.94140625 C104.630859,0.94140625 104.994141,1.28125 104.994141,1.74414062 C104.994141,2.20703125 104.630859,2.546875 104.097656,2.546875 Z M109.388672,8.91015625 C110.402344,8.91015625 110.976562,8.13671875 110.976562,6.79492188 C110.976562,5.45898438 110.396484,4.6796875 109.388672,4.6796875 C108.375,4.6796875 107.794922,5.45898438 107.794922,6.79492188 C107.794922,8.13671875 108.375,8.91015625 109.388672,8.91015625 Z M109.388672,10.1289063 C107.466797,10.1289063 106.306641,8.875 106.306641,6.79492188 C106.306641,4.7265625 107.484375,3.4609375 109.388672,3.4609375 C111.298828,3.4609375 112.470703,4.72070313 112.470703,6.79492188 C112.470703,8.875 111.304688,10.1289063 109.388672,10.1289063 Z M113.935547,10 L113.935547,3.58984375 L115.335938,3.58984375 L115.335938,4.61523438 L115.435547,4.61523438 C115.740234,3.90039062 116.490234,3.4609375 117.451172,3.4609375 C118.880859,3.4609375 119.683594,4.32226562 119.683594,5.8515625 L119.683594,10 L118.236328,10 L118.236328,6.19726562 C118.236328,5.21875 117.791016,4.7265625 116.912109,4.7265625 C115.974609,4.7265625 115.388672,5.32421875 115.388672,6.26757812 L115.388672,10 L113.935547,10 Z M121.259766,5.42382813 C121.259766,4.26367188 122.314453,3.4609375 123.826172,3.4609375 C125.349609,3.4609375 126.304688,4.13476562 126.410156,5.30078125 L125.044922,5.30078125 C124.939453,4.84960938 124.511719,4.5625 123.832031,4.5625 C123.169922,4.5625 122.671875,4.87890625 122.671875,5.34179688 C122.671875,5.70507813 122.976562,5.92773438 123.621094,6.07421875 L124.751953,6.33203125 C125.976562,6.60742188 126.544922,7.13476562 126.544922,8.078125 C126.544922,9.30859375 125.414062,10.1289063 123.814453,10.1289063 C122.214844,10.1289063 121.207031,9.4375 121.095703,8.27148438 L122.53125,8.27148438 C122.671875,8.74609375 123.123047,9.02734375 123.849609,9.02734375 C124.582031,9.02734375 125.091797,8.70507813 125.091797,8.23046875 C125.091797,7.8671875 124.816406,7.63867188 124.207031,7.50390625 L123.070312,7.24023438 C121.839844,6.95898438 121.259766,6.390625 121.259766,5.42382813 Z" id="User-testing-session" fill="#24124D" opacity="0.600000024"></path>
                <rect id="Rectangle-9" fill="#DCD5EE" x="0" y="78" width="248" height="12" rx="4"></rect>
                <rect id="Rectangle-9" fill="#DCD5EE" x="0" y="110" width="136" height="12" rx="4"></rect>
                <rect id="Rectangle-9" fill="#512DA8" x="152" y="110" width="97" height="12" rx="4"></rect>
                <rect id="Rectangle-9" fill="#512DA8" x="0" y="142" width="64" height="12" rx="4"></rect>
                <rect id="Rectangle-9" fill="#DCD5EE" x="84" y="142" width="136" height="12" rx="4"></rect>
                <rect id="Rectangle-9" fill="#DCD5EE" x="0" y="174" width="168" height="12" rx="4"></rect>
                <rect id="Rectangle-9" fill="#DCD5EE" x="0" y="222" width="92" height="12" rx="4"></rect>
                <g transform="translate(100.000000, 206.000000)"></g>
                <rect id="Rectangle-9" fill="#DCD5EE" x="112" y="222" width="136" height="12" rx="4"></rect>
                <rect id="Rectangle-9" fill="#DCD5EE" x="0" y="254" width="136" height="12" rx="4"></rect>
                <path d="M1.09375,42.171875 L3.5546875,42.171875 C3.7109375,43.4316406 4.9609375,44.2421875 6.74804688,44.2421875 C8.40820312,44.2421875 9.609375,43.3925781 9.609375,42.2109375 C9.609375,41.1953125 8.83789063,40.5996094 7.03125,40.1796875 L5.20507812,39.7597656 C2.64648438,39.1835938 1.4453125,37.9140625 1.4453125,35.8144531 C1.4453125,33.2558594 3.53515625,31.5566406 6.68945313,31.5566406 C9.6484375,31.5566406 11.7871094,33.2558594 11.9042969,35.6777344 L9.4921875,35.6777344 C9.31640625,34.4375 8.22265625,33.65625 6.6796875,33.65625 C5.05859375,33.65625 3.984375,34.4375 3.984375,35.6386719 C3.984375,36.5859375 4.69726562,37.1425781 6.4453125,37.5429688 L8.06640625,37.9140625 C10.9277344,38.5585938 12.1289062,39.75 12.1289062,41.8984375 C12.1289062,44.6425781 10.0097656,46.3515625 6.59179688,46.3515625 C3.359375,46.3515625 1.22070312,44.7304688 1.09375,42.171875 Z M19.1894531,37.0253906 C17.7441406,37.0253906 16.7285156,38.0605469 16.6210938,39.6230469 L21.6503906,39.6230469 C21.6015625,38.0410156 20.6445312,37.0253906 19.1894531,37.0253906 Z M21.6699219,43.0605469 L23.9648438,43.0605469 C23.5058594,45.0039062 21.7382812,46.2148438 19.21875,46.2148438 C16.0742188,46.2148438 14.1796875,44.1347656 14.1796875,40.6972656 C14.1796875,37.2597656 16.1035156,35.1015625 19.1992188,35.1015625 C22.2460938,35.1015625 24.0722656,37.1230469 24.0722656,40.4921875 L24.0722656,41.2734375 L16.6113281,41.2734375 L16.6113281,41.4003906 C16.6699219,43.1777344 17.6953125,44.2910156 19.2871094,44.2910156 C20.4882812,44.2910156 21.3183594,43.8515625 21.6699219,43.0605469 Z M26.2597656,38.3730469 C26.2597656,36.4394531 28.0175781,35.1015625 30.5371094,35.1015625 C33.0761719,35.1015625 34.6679688,36.2246094 34.84375,38.1679688 L32.5683594,38.1679688 C32.3925781,37.4160156 31.6796875,36.9375 30.546875,36.9375 C29.4433594,36.9375 28.6132812,37.4648438 28.6132812,38.2363281 C28.6132812,38.8417969 29.1210938,39.2128906 30.1953125,39.4570312 L32.0800781,39.8867188 C34.1210938,40.3457031 35.0683594,41.2246094 35.0683594,42.796875 C35.0683594,44.8476562 33.1835938,46.2148438 30.5175781,46.2148438 C27.8515625,46.2148438 26.171875,45.0625 25.9863281,43.1191406 L28.3789062,43.1191406 C28.6132812,43.9101562 29.3652344,44.3789062 30.5761719,44.3789062 C31.796875,44.3789062 32.6464844,43.8417969 32.6464844,43.0507812 C32.6464844,42.4453125 32.1875,42.0644531 31.171875,41.8398438 L29.2773438,41.4003906 C27.2265625,40.9316406 26.2597656,39.984375 26.2597656,38.3730469 Z M37.2753906,38.3730469 C37.2753906,36.4394531 39.0332031,35.1015625 41.5527344,35.1015625 C44.0917969,35.1015625 45.6835938,36.2246094 45.859375,38.1679688 L43.5839844,38.1679688 C43.4082031,37.4160156 42.6953125,36.9375 41.5625,36.9375 C40.4589844,36.9375 39.6289062,37.4648438 39.6289062,38.2363281 C39.6289062,38.8417969 40.1367188,39.2128906 41.2109375,39.4570312 L43.0957031,39.8867188 C45.1367188,40.3457031 46.0839844,41.2246094 46.0839844,42.796875 C46.0839844,44.8476562 44.1992188,46.2148438 41.5332031,46.2148438 C38.8671875,46.2148438 37.1875,45.0625 37.0019531,43.1191406 L39.3945312,43.1191406 C39.6289062,43.9101562 40.3808594,44.3789062 41.5917969,44.3789062 C42.8125,44.3789062 43.6621094,43.8417969 43.6621094,43.0507812 C43.6621094,42.4453125 43.203125,42.0644531 42.1875,41.8398438 L40.2929688,41.4003906 C38.2421875,40.9316406 37.2753906,39.984375 37.2753906,38.3730469 Z M48.5644531,46 L48.5644531,35.3164062 L50.9765625,35.3164062 L50.9765625,46 L48.5644531,46 Z M49.765625,33.578125 C48.8867187,33.578125 48.2714844,33.0117188 48.2714844,32.2402344 C48.2714844,31.46875 48.8867187,30.9023438 49.765625,30.9023438 C50.6542969,30.9023438 51.2597656,31.46875 51.2597656,32.2402344 C51.2597656,33.0117188 50.6542969,33.578125 49.765625,33.578125 Z M58.5839844,44.1835938 C60.2734375,44.1835938 61.2304688,42.8945312 61.2304688,40.6582031 C61.2304688,38.4316406 60.2636719,37.1328125 58.5839844,37.1328125 C56.8945312,37.1328125 55.9277344,38.4316406 55.9277344,40.6582031 C55.9277344,42.8945312 56.8945312,44.1835938 58.5839844,44.1835938 Z M58.5839844,46.2148438 C55.3808594,46.2148438 53.4472656,44.125 53.4472656,40.6582031 C53.4472656,37.2109375 55.4101562,35.1015625 58.5839844,35.1015625 C61.7675781,35.1015625 63.7207031,37.2011719 63.7207031,40.6582031 C63.7207031,44.125 61.7773437,46.2148438 58.5839844,46.2148438 Z M66.1621094,46 L66.1621094,35.3164062 L68.4960938,35.3164062 L68.4960938,37.0253906 L68.6621094,37.0253906 C69.1699219,35.8339844 70.4199219,35.1015625 72.0214844,35.1015625 C74.4042969,35.1015625 75.7421875,36.5371094 75.7421875,39.0859375 L75.7421875,46 L73.3300781,46 L73.3300781,39.6621094 C73.3300781,38.03125 72.5878906,37.2109375 71.1230469,37.2109375 C69.5605469,37.2109375 68.5839844,38.2070312 68.5839844,39.7792969 L68.5839844,46 L66.1621094,46 Z M90.46875,46 L90.46875,43.3730469 L83.5839844,43.3730469 L83.5839844,41.1269531 C84.8535156,38.7929688 86.8359375,35.6582031 89.3261719,31.9082031 L92.8808594,31.9082031 L92.8808594,41.2441406 L94.7851562,41.2441406 L94.7851562,43.3730469 L92.8808594,43.3730469 L92.8808594,46 L90.46875,46 Z M85.9179688,41.15625 L85.9179688,41.3027344 L90.5078125,41.3027344 L90.5078125,33.9589844 L90.3710938,33.9589844 C89.0234375,35.9511719 87.5585938,38.265625 85.9179688,41.15625 Z M111.240234,41.4589844 L101.240234,41.4589844 L101.240234,39.1835938 L111.240234,39.1835938 L111.240234,41.4589844 Z M117.34375,42.1621094 L119.804688,42.1621094 C119.824219,43.3242188 120.625,44.0859375 121.826172,44.0859375 C123.144531,44.0859375 123.876953,43.2851562 123.876953,41.7714844 L123.876953,31.9082031 L126.396484,31.9082031 L126.396484,41.7910156 C126.396484,44.6914062 124.6875,46.3515625 121.855469,46.3515625 C119.160156,46.3515625 117.34375,44.7109375 117.34375,42.1621094 Z M133.271484,44.2714844 C134.736328,44.2714844 135.830078,43.3242188 135.830078,42.0839844 L135.830078,41.234375 L133.417969,41.390625 C132.060547,41.4785156 131.425781,41.9667969 131.425781,42.8359375 C131.425781,43.734375 132.197266,44.2714844 133.271484,44.2714844 Z M132.558594,46.1757812 C130.498047,46.1757812 129.023438,44.9257812 129.023438,42.9726562 C129.023438,41.0390625 130.478516,39.9257812 133.076172,39.7695312 L135.830078,39.6035156 L135.830078,38.7050781 C135.830078,37.6601562 135.126953,37.0742188 133.818359,37.0742188 C132.705078,37.0742188 131.943359,37.4648438 131.71875,38.1875 L129.433594,38.1875 C129.628906,36.3027344 131.396484,35.1015625 133.935547,35.1015625 C136.679688,35.1015625 138.222656,36.4394531 138.222656,38.7050781 L138.222656,46 L135.888672,46 L135.888672,44.5351562 L135.722656,44.5351562 C135.126953,45.5703125 133.955078,46.1757812 132.558594,46.1757812 Z M141.132812,46 L141.132812,35.3164062 L143.466797,35.3164062 L143.466797,37.0253906 L143.632812,37.0253906 C144.140625,35.8339844 145.390625,35.1015625 146.992188,35.1015625 C149.375,35.1015625 150.712891,36.5371094 150.712891,39.0859375 L150.712891,46 L148.300781,46 L148.300781,39.6621094 C148.300781,38.03125 147.558594,37.2109375 146.09375,37.2109375 C144.53125,37.2109375 143.554688,38.2070312 143.554688,39.7792969 L143.554688,46 L141.132812,46 Z M158.066406,37.0253906 C156.621094,37.0253906 155.605469,38.0605469 155.498047,39.6230469 L160.527344,39.6230469 C160.478516,38.0410156 159.521484,37.0253906 158.066406,37.0253906 Z M160.546875,43.0605469 L162.841797,43.0605469 C162.382812,45.0039062 160.615234,46.2148438 158.095703,46.2148438 C154.951172,46.2148438 153.056641,44.1347656 153.056641,40.6972656 C153.056641,37.2597656 154.980469,35.1015625 158.076172,35.1015625 C161.123047,35.1015625 162.949219,37.1230469 162.949219,40.4921875 L162.949219,41.2734375 L155.488281,41.2734375 L155.488281,41.4003906 C155.546875,43.1777344 156.572266,44.2910156 158.164062,44.2910156 C159.365234,44.2910156 160.195312,43.8515625 160.546875,43.0605469 Z M170.966797,31.9082031 L176.25,31.9082031 C180.439453,31.9082031 182.880859,34.4667969 182.880859,38.890625 C182.880859,43.4121094 180.46875,46 176.25,46 L170.966797,46 L170.966797,31.9082031 Z M173.486328,34.0859375 L173.486328,43.8222656 L175.917969,43.8222656 C178.720703,43.8222656 180.3125,42.0742188 180.3125,38.9296875 C180.3125,35.8535156 178.681641,34.0859375 175.917969,34.0859375 L173.486328,34.0859375 Z M190.107422,44.1835938 C191.796875,44.1835938 192.753906,42.8945312 192.753906,40.6582031 C192.753906,38.4316406 191.787109,37.1328125 190.107422,37.1328125 C188.417969,37.1328125 187.451172,38.4316406 187.451172,40.6582031 C187.451172,42.8945312 188.417969,44.1835938 190.107422,44.1835938 Z M190.107422,46.2148438 C186.904297,46.2148438 184.970703,44.125 184.970703,40.6582031 C184.970703,37.2109375 186.933594,35.1015625 190.107422,35.1015625 C193.291016,35.1015625 195.244141,37.2011719 195.244141,40.6582031 C195.244141,44.125 193.300781,46.2148438 190.107422,46.2148438 Z M202.167969,37.0253906 C200.722656,37.0253906 199.707031,38.0605469 199.599609,39.6230469 L204.628906,39.6230469 C204.580078,38.0410156 203.623047,37.0253906 202.167969,37.0253906 Z M204.648438,43.0605469 L206.943359,43.0605469 C206.484375,45.0039062 204.716797,46.2148438 202.197266,46.2148438 C199.052734,46.2148438 197.158203,44.1347656 197.158203,40.6972656 C197.158203,37.2597656 199.082031,35.1015625 202.177734,35.1015625 C205.224609,35.1015625 207.050781,37.1230469 207.050781,40.4921875 L207.050781,41.2734375 L199.589844,41.2734375 L199.589844,41.4003906 C199.648438,43.1777344 200.673828,44.2910156 202.265625,44.2910156 C203.466797,44.2910156 204.296875,43.8515625 204.648438,43.0605469 Z" id="Session-4-–-Jane-Doe" fill="#24124D"></path>
            </g>
            <g transform="translate(72.000000, 136.000000)" id="Combined-Shape">
                <path d="M4,0 L16,0 L4,12 L4,30 C4,31.1045695 3.1045695,32 2,32 C0.8954305,32 1.3527075e-16,31.1045695 0,30 L0,3 C-2.02906125e-16,1.34314575 1.34314575,3.04359188e-16 3,0 L4,0 Z" fill="#009688"></path>
                <path d="M32,80 L44,80 L32,92 L32,110 C32,111.104569 31.1045695,112 30,112 C28.8954305,112 28,111.104569 28,110 L28,83 C28,81.3431458 29.3431458,80 31,80 L32,80 Z" fill="#FFB300"></path>
                <path d="M76,112 L88,112 L76,124 L76,142 C76,143.104569 75.1045695,144 74,144 C72.8954305,144 72,143.104569 72,142 L72,115 C72,113.343146 73.3431458,112 75,112 L76,112 Z" fill="#F84F77"></path>
            </g>
            <g transform="translate(280.000000, 116.000000)">
                <rect id="Rectangle-9" fill="#DCD5EE" x="0" y="0" width="66" height="24" rx="4"></rect>
                <path d="M8.75195312,14.2587891 L10.7480469,14.2587891 C10.84375,15.0585938 11.6503906,15.5712891 12.8125,15.5712891 C13.8857422,15.5712891 14.6445312,15.0517578 14.6445312,14.3066406 C14.6445312,13.6777344 14.1523438,13.3154297 12.9423828,13.0556641 L11.6572266,12.7822266 C9.859375,12.40625 8.97753906,11.4697266 8.97753906,9.96582031 C8.97753906,8.10644531 10.4746094,6.8828125 12.7509766,6.8828125 C14.9248047,6.8828125 16.4628906,8.09960938 16.5244141,9.85644531 L14.5830078,9.85644531 C14.4873047,9.07714844 13.7626953,8.55761719 12.7646484,8.55761719 C11.7324219,8.55761719 11.0488281,9.03613281 11.0488281,9.78808594 C11.0488281,10.3964844 11.5205078,10.7451172 12.6757812,10.9912109 L13.8652344,11.2441406 C15.8476562,11.6611328 16.7021484,12.515625 16.7021484,14.046875 C16.7021484,16.0361328 15.1777344,17.2529297 12.703125,17.2529297 C10.3515625,17.2529297 8.82714844,16.0976562 8.75195312,14.2587891 Z M21.7128906,10.8203125 C20.7900391,10.8203125 20.140625,11.4628906 20.0722656,12.4404297 L23.2851562,12.4404297 C23.2441406,11.4423828 22.6425781,10.8203125 21.7128906,10.8203125 Z M23.3261719,14.8535156 L25.1787109,14.8535156 C24.8779297,16.2753906 23.5791016,17.1640625 21.7333984,17.1640625 C19.4365234,17.1640625 18.0830078,15.7148438 18.0830078,13.2675781 C18.0830078,10.8134766 19.4638672,9.29589844 21.7060547,9.29589844 C23.9277344,9.29589844 25.2402344,10.7109375 25.2402344,13.1035156 L25.2402344,13.7119141 L20.0654297,13.7119141 L20.0654297,13.8144531 C20.0927734,14.9355469 20.7490234,15.6328125 21.7880859,15.6328125 C22.5742188,15.6328125 23.1142578,15.3525391 23.3261719,14.8535156 Z M29.5878906,15.6191406 C30.5107422,15.6191406 31.2080078,15.03125 31.2080078,14.265625 L31.2080078,13.7119141 L29.6835938,13.8076172 C28.8291016,13.8691406 28.4121094,14.1767578 28.4121094,14.7167969 C28.4121094,15.2773438 28.8974609,15.6191406 29.5878906,15.6191406 Z M28.9316406,17.1162109 C27.4824219,17.1162109 26.4638672,16.2275391 26.4638672,14.8466797 C26.4638672,13.4794922 27.5097656,12.6865234 29.3828125,12.5771484 L31.2080078,12.4677734 L31.2080078,11.8525391 C31.2080078,11.2236328 30.7568359,10.8681641 29.9365234,10.8681641 C29.21875,10.8681641 28.7402344,11.1142578 28.5761719,11.5654297 L26.7441406,11.5654297 C26.8740234,10.1708984 28.1523438,9.29589844 30.0458984,9.29589844 C32.0419922,9.29589844 33.1699219,10.2392578 33.1699219,11.8525391 L33.1699219,17 L31.2421875,17 L31.2421875,16.015625 L31.1191406,16.015625 C30.7294922,16.7060547 29.9091797,17.1162109 28.9316406,17.1162109 Z M35.125,17 L35.125,9.45996094 L37.0527344,9.45996094 L37.0527344,10.6630859 L37.1757812,10.6630859 C37.3740234,9.91113281 38.1464844,9.33691406 39.0898438,9.33691406 C39.3564453,9.33691406 39.6845703,9.37109375 39.8554688,9.43261719 L39.8554688,11.2441406 C39.6982422,11.1826172 39.2128906,11.1210938 38.9257812,11.1210938 C37.859375,11.1210938 37.1142578,11.7636719 37.1142578,12.8232422 L37.1142578,17 L35.125,17 Z M47.8398438,12.1191406 L45.9804688,12.1191406 C45.84375,11.4013672 45.3310547,10.9296875 44.4833984,10.9296875 C43.4101562,10.9296875 42.8085938,11.7294922 42.8085938,13.2128906 C42.8085938,14.7167969 43.4169922,15.5302734 44.4833984,15.5302734 C45.296875,15.5302734 45.8300781,15.1337891 45.9804688,14.3886719 L47.8398438,14.3886719 C47.6757812,16.0771484 46.4453125,17.1640625 44.4833984,17.1640625 C42.1318359,17.1640625 40.7988281,15.7421875 40.7988281,13.2128906 C40.7988281,10.7109375 42.125,9.29589844 44.4833984,9.29589844 C46.4794922,9.29589844 47.6757812,10.4033203 47.8398438,12.1191406 Z M49.4599609,17 L49.4599609,6.58203125 L51.4150391,6.58203125 L51.4150391,10.6972656 L51.5380859,10.6972656 C51.8867188,9.8359375 52.7958984,9.31640625 53.9033203,9.31640625 C55.578125,9.31640625 56.5693359,10.3349609 56.5693359,12.1464844 L56.5693359,17 L54.5800781,17 L54.5800781,12.6181641 C54.5800781,11.5722656 54.0537109,11.0322266 53.1035156,11.0322266 C52.1054688,11.0322266 51.4492188,11.6953125 51.4492188,12.6728516 L51.4492188,17 L49.4599609,17 Z" id="Search" fill="#512DA8"></path>
            </g>
        </g>
    </g>
</svg>