<?xml version="1.0" encoding="UTF-8"?>
<svg width="400px" height="320px" viewBox="0 0 400 320" version="1.1" xmlns="http://www.w3.org/2000/svg" xmlns:xlink="http://www.w3.org/1999/xlink">
    <!-- Generator: Sketch 51 (57462) - http://www.bohemiancoding.com/sketch -->
    <title>snippet/search</title>
    <desc>Created with Sketch.</desc>
    <defs>
        <rect id="path-1" x="0" y="0" width="400" height="320"></rect>
        <rect id="path-3" x="2" y="2" width="364" height="36" rx="4"></rect>
        <filter x="-1.9%" y="-13.9%" width="103.8%" height="138.9%" filterUnits="objectBoundingBox" id="filter-4">
            <feOffset dx="0" dy="2" in="SourceAlpha" result="shadowOffsetOuter1"></feOffset>
            <feGaussianBlur stdDeviation="2" in="shadowOffsetOuter1" result="shadowBlurOuter1"></feGaussianBlur>
            <feColorMatrix values="0 0 0 0 0   0 0 0 0 0   0 0 0 0 0  0 0 0 0.2 0" type="matrix" in="shadowBlurOuter1"></feColorMatrix>
        </filter>
        <rect id="path-5" x="0" y="0" width="368" height="40" rx="4"></rect>
        <filter x="-1.2%" y="-8.8%" width="102.4%" height="122.5%" filterUnits="objectBoundingBox" id="filter-6">
            <feMorphology radius="1" operator="dilate" in="SourceAlpha" result="shadowSpreadOuter1"></feMorphology>
            <feOffset dx="0" dy="1" in="shadowSpreadOuter1" result="shadowOffsetOuter1"></feOffset>
            <feGaussianBlur stdDeviation="1" in="shadowOffsetOuter1" result="shadowBlurOuter1"></feGaussianBlur>
            <feComposite in="shadowBlurOuter1" in2="SourceAlpha" operator="out" result="shadowBlurOuter1"></feComposite>
            <feColorMatrix values="0 0 0 0 0   0 0 0 0 0   0 0 0 0 0  0 0 0 0.04 0" type="matrix" in="shadowBlurOuter1"></feColorMatrix>
        </filter>
        <rect id="path-7" x="2" y="2" width="172" height="180" rx="4"></rect>
        <filter x="-4.1%" y="-2.8%" width="108.1%" height="107.8%" filterUnits="objectBoundingBox" id="filter-8">
            <feOffset dx="0" dy="2" in="SourceAlpha" result="shadowOffsetOuter1"></feOffset>
            <feGaussianBlur stdDeviation="2" in="shadowOffsetOuter1" result="shadowBlurOuter1"></feGaussianBlur>
            <feColorMatrix values="0 0 0 0 0   0 0 0 0 0   0 0 0 0 0  0 0 0 0.2 0" type="matrix" in="shadowBlurOuter1"></feColorMatrix>
        </filter>
        <rect id="path-9" x="0" y="0" width="176" height="184" rx="4"></rect>
        <filter x="-2.6%" y="-1.9%" width="105.1%" height="104.9%" filterUnits="objectBoundingBox" id="filter-10">
            <feMorphology radius="1" operator="dilate" in="SourceAlpha" result="shadowSpreadOuter1"></feMorphology>
            <feOffset dx="0" dy="1" in="shadowSpreadOuter1" result="shadowOffsetOuter1"></feOffset>
            <feGaussianBlur stdDeviation="1" in="shadowOffsetOuter1" result="shadowBlurOuter1"></feGaussianBlur>
            <feComposite in="shadowBlurOuter1" in2="SourceAlpha" operator="out" result="shadowBlurOuter1"></feComposite>
            <feColorMatrix values="0 0 0 0 0   0 0 0 0 0   0 0 0 0 0  0 0 0 0.04 0" type="matrix" in="shadowBlurOuter1"></feColorMatrix>
        </filter>
        <rect id="path-11" x="2" y="2" width="172" height="116" rx="4"></rect>
        <filter x="-4.1%" y="-4.3%" width="108.1%" height="112.1%" filterUnits="objectBoundingBox" id="filter-12">
            <feOffset dx="0" dy="2" in="SourceAlpha" result="shadowOffsetOuter1"></feOffset>
            <feGaussianBlur stdDeviation="2" in="shadowOffsetOuter1" result="shadowBlurOuter1"></feGaussianBlur>
            <feColorMatrix values="0 0 0 0 0   0 0 0 0 0   0 0 0 0 0  0 0 0 0.2 0" type="matrix" in="shadowBlurOuter1"></feColorMatrix>
        </filter>
        <rect id="path-13" x="0" y="0" width="176" height="120" rx="4"></rect>
        <filter x="-2.6%" y="-2.9%" width="105.1%" height="107.5%" filterUnits="objectBoundingBox" id="filter-14">
            <feMorphology radius="1" operator="dilate" in="SourceAlpha" result="shadowSpreadOuter1"></feMorphology>
            <feOffset dx="0" dy="1" in="shadowSpreadOuter1" result="shadowOffsetOuter1"></feOffset>
            <feGaussianBlur stdDeviation="1" in="shadowOffsetOuter1" result="shadowBlurOuter1"></feGaussianBlur>
            <feComposite in="shadowBlurOuter1" in2="SourceAlpha" operator="out" result="shadowBlurOuter1"></feComposite>
            <feColorMatrix values="0 0 0 0 0   0 0 0 0 0   0 0 0 0 0  0 0 0 0.04 0" type="matrix" in="shadowBlurOuter1"></feColorMatrix>
        </filter>
        <rect id="path-15" x="2" y="2" width="172" height="116" rx="4"></rect>
        <filter x="-4.1%" y="-4.3%" width="108.1%" height="112.1%" filterUnits="objectBoundingBox" id="filter-16">
            <feOffset dx="0" dy="2" in="SourceAlpha" result="shadowOffsetOuter1"></feOffset>
            <feGaussianBlur stdDeviation="2" in="shadowOffsetOuter1" result="shadowBlurOuter1"></feGaussianBlur>
            <feColorMatrix values="0 0 0 0 0   0 0 0 0 0   0 0 0 0 0  0 0 0 0.2 0" type="matrix" in="shadowBlurOuter1"></feColorMatrix>
        </filter>
        <rect id="path-17" x="0" y="0" width="176" height="120" rx="4"></rect>
        <filter x="-2.6%" y="-2.9%" width="105.1%" height="107.5%" filterUnits="objectBoundingBox" id="filter-18">
            <feMorphology radius="1" operator="dilate" in="SourceAlpha" result="shadowSpreadOuter1"></feMorphology>
            <feOffset dx="0" dy="1" in="shadowSpreadOuter1" result="shadowOffsetOuter1"></feOffset>
            <feGaussianBlur stdDeviation="1" in="shadowOffsetOuter1" result="shadowBlurOuter1"></feGaussianBlur>
            <feComposite in="shadowBlurOuter1" in2="SourceAlpha" operator="out" result="shadowBlurOuter1"></feComposite>
            <feColorMatrix values="0 0 0 0 0   0 0 0 0 0   0 0 0 0 0  0 0 0 0.04 0" type="matrix" in="shadowBlurOuter1"></feColorMatrix>
        </filter>
        <rect id="path-19" x="2" y="2" width="172" height="124" rx="4"></rect>
        <filter x="-4.1%" y="-4.0%" width="108.1%" height="111.3%" filterUnits="objectBoundingBox" id="filter-20">
            <feOffset dx="0" dy="2" in="SourceAlpha" result="shadowOffsetOuter1"></feOffset>
            <feGaussianBlur stdDeviation="2" in="shadowOffsetOuter1" result="shadowBlurOuter1"></feGaussianBlur>
            <feColorMatrix values="0 0 0 0 0   0 0 0 0 0   0 0 0 0 0  0 0 0 0.2 0" type="matrix" in="shadowBlurOuter1"></feColorMatrix>
        </filter>
        <rect id="path-21" x="0" y="0" width="176" height="128" rx="4"></rect>
        <filter x="-2.6%" y="-2.7%" width="105.1%" height="107.0%" filterUnits="objectBoundingBox" id="filter-22">
            <feMorphology radius="1" operator="dilate" in="SourceAlpha" result="shadowSpreadOuter1"></feMorphology>
            <feOffset dx="0" dy="1" in="shadowSpreadOuter1" result="shadowOffsetOuter1"></feOffset>
            <feGaussianBlur stdDeviation="1" in="shadowOffsetOuter1" result="shadowBlurOuter1"></feGaussianBlur>
            <feComposite in="shadowBlurOuter1" in2="SourceAlpha" operator="out" result="shadowBlurOuter1"></feComposite>
            <feColorMatrix values="0 0 0 0 0   0 0 0 0 0   0 0 0 0 0  0 0 0 0.04 0" type="matrix" in="shadowBlurOuter1"></feColorMatrix>
        </filter>
        <linearGradient x1="50%" y1="75.0683594%" x2="50%" y2="100%" id="linearGradient-23">
            <stop stop-color="#FFFFFF" stop-opacity="0" offset="0%"></stop>
            <stop stop-color="#FFFFFF" offset="100%"></stop>
        </linearGradient>
    </defs>
    <g id="snippet/search" stroke="none" stroke-width="1" fill="none" fill-rule="evenodd">
        <g id="Group">
            <mask id="mask-2" fill="white">
                <use xlink:href="#path-1"></use>
            </mask>
            <use id="Rectangle" fill="#FFFFFF" fill-rule="nonzero" xlink:href="#path-1"></use>
            <g id="Search" mask="url(#mask-2)">
                <g transform="translate(16.000000, 16.000000)">
                    <g id="component/card" fill="none">
                        <g id="Shadow">
                            <use fill="black" fill-opacity="1" filter="url(#filter-4)" xlink:href="#path-3"></use>
                            <use fill="#FFFFFF" fill-rule="evenodd" xlink:href="#path-3"></use>
                        </g>
                        <g id="Card" stroke-linecap="square">
                            <use fill="black" fill-opacity="1" filter="url(#filter-6)" xlink:href="#path-5"></use>
                            <rect stroke-opacity="0.098194067" stroke="#140B2F" stroke-width="1" fill="#FFFFFF" fill-rule="evenodd" x="-0.5" y="-0.5" width="369" height="41" rx="4"></rect>
                        </g>
                    </g>
                    <g id="icons/search-mini" fill="none" transform="translate(12.000000, 8.000000)" fill-rule="evenodd" stroke-linecap="round" stroke-linejoin="round" stroke-width="1">
                        <g id="icons/search" transform="translate(4.000000, 4.000000)" stroke="#7B7194">
                            <g id="search" transform="translate(2.000000, 2.000000)">
                                <circle id="Oval" stroke-width="2" cx="5" cy="5" r="5"></circle>
                                <path d="M12,12 L8.53333333,8.53333333" id="Shape" stroke-width="2"></path>
                            </g>
                        </g>
                    </g>
                    <path d="M49.5791016,15.7373047 L51.2675781,15.7373047 L51.2675781,17.5693359 L52.9082031,17.5693359 L52.9082031,18.9228516 L51.2675781,18.9228516 L51.2675781,22.59375 C51.2675781,23.3320312 51.5820312,23.6601562 52.2929688,23.6601562 C52.5322266,23.6601562 52.6552734,23.6464844 52.8535156,23.6259766 L52.8535156,24.9521484 C52.6142578,25 52.3066406,25.0341797 51.9785156,25.0341797 C50.2626953,25.0341797 49.5791016,24.453125 49.5791016,23.0039062 L49.5791016,18.9228516 L48.3623047,18.9228516 L48.3623047,17.5693359 L49.5791016,17.5693359 L49.5791016,15.7373047 Z M55.3828125,27.7207031 C55.2802734,27.7207031 54.8222656,27.7138672 54.7128906,27.6933594 L54.7128906,26.3125 C54.8085938,26.3261719 55.0615234,26.3330078 55.1777344,26.3330078 C55.8955078,26.3330078 56.2988281,26.0527344 56.5175781,25.3623047 L56.6064453,25.0341797 L53.9335938,17.5214844 L55.7929688,17.5214844 L57.5429688,23.359375 L57.6591797,23.359375 L59.4023438,17.5214844 L61.1933594,17.5214844 L58.4931641,25.2392578 C57.8574219,27.0986328 57.0576172,27.7207031 55.3828125,27.7207031 Z M66.7236328,17.3984375 C68.6171875,17.3984375 69.8066406,18.8613281 69.8066406,21.2607422 C69.8066406,23.6464844 68.6308594,25.1230469 66.7441406,25.1230469 C65.6708984,25.1230469 64.84375,24.6582031 64.4609375,23.8652344 L64.3447266,23.8652344 L64.3447266,27.3925781 L62.6494141,27.3925781 L62.6494141,17.5214844 L64.2832031,17.5214844 L64.2832031,18.7587891 L64.3994141,18.7587891 C64.8300781,17.9111328 65.6982422,17.3984375 66.7236328,17.3984375 Z M66.1904297,23.6806641 C67.3662109,23.6806641 68.0634766,22.7714844 68.0634766,21.2607422 C68.0634766,19.75 67.359375,18.8408203 66.1972656,18.8408203 C65.0419922,18.8408203 64.3173828,19.7705078 64.3105469,21.2607422 C64.3173828,22.7578125 65.0351562,23.6806641 66.1904297,23.6806641 Z M74.6464844,18.7177734 C73.6347656,18.7177734 72.9238281,19.4423828 72.8486328,20.5361328 L76.3691406,20.5361328 C76.3349609,19.4287109 75.6650391,18.7177734 74.6464844,18.7177734 Z M76.3828125,22.9423828 L77.9892578,22.9423828 C77.6679688,24.3027344 76.4306641,25.1503906 74.6669922,25.1503906 C72.4658203,25.1503906 71.1396484,23.6943359 71.1396484,21.2880859 C71.1396484,18.8818359 72.4863281,17.3710938 74.6533203,17.3710938 C76.7861328,17.3710938 78.0644531,18.7861328 78.0644531,21.1445312 L78.0644531,21.6914062 L72.8417969,21.6914062 L72.8417969,21.7802734 C72.8828125,23.0244141 73.6005859,23.8037109 74.7148438,23.8037109 C75.5556641,23.8037109 76.1367188,23.4960938 76.3828125,22.9423828 Z M81.03125,25.1435547 C80.3886719,25.1435547 79.9375,24.6787109 79.9375,24.0634766 C79.9375,23.4414062 80.3886719,22.9833984 81.03125,22.9833984 C81.6806641,22.9833984 82.125,23.4414062 82.125,24.0634766 C82.125,24.6787109 81.6806641,25.1435547 81.03125,25.1435547 Z M81.03125,20.0166016 C80.3886719,20.0166016 79.9375,19.5585938 79.9375,18.9433594 C79.9375,18.3212891 80.3886719,17.8632812 81.03125,17.8632812 C81.6806641,17.8632812 82.125,18.3212891 82.125,18.9433594 C82.125,19.5585938 81.6806641,20.0166016 81.03125,20.0166016 Z M84.4423828,25 L84.4423828,14.6298828 L86.1103516,14.6298828 L86.1103516,18.7314453 L86.2333984,18.7314453 C86.5888672,17.890625 87.4707031,17.3847656 88.5849609,17.3847656 C90.2597656,17.3847656 91.2304688,18.3964844 91.2304688,20.1738281 L91.2304688,25 L89.5419922,25 L89.5419922,20.5771484 C89.5419922,19.4423828 88.9951172,18.8613281 87.9560547,18.8613281 C86.8417969,18.8613281 86.1376953,19.5859375 86.1376953,20.6591797 L86.1376953,25 L84.4423828,25 Z M93.2607422,25 L93.2607422,17.5214844 L94.9492188,17.5214844 L94.9492188,25 L93.2607422,25 Z M94.1015625,16.3046875 C93.4863281,16.3046875 93.0556641,15.9082031 93.0556641,15.3681641 C93.0556641,14.828125 93.4863281,14.4316406 94.1015625,14.4316406 C94.7236328,14.4316406 95.1474609,14.828125 95.1474609,15.3681641 C95.1474609,15.9082031 94.7236328,16.3046875 94.1015625,16.3046875 Z M102.154297,21.1787109 C102.154297,19.75 101.436523,18.8408203 100.260742,18.8408203 C99.078125,18.8408203 98.4082031,19.75 98.4082031,21.1787109 C98.4082031,22.6074219 99.078125,23.5097656 100.260742,23.5097656 C101.443359,23.5097656 102.154297,22.6074219 102.154297,21.1787109 Z M100.260742,27.84375 C98.3398438,27.84375 97.0820312,26.9960938 96.9453125,25.7109375 L98.6474609,25.7109375 C98.7568359,26.2236328 99.3583984,26.5517578 100.288086,26.5517578 C101.450195,26.5517578 102.126953,26.0048828 102.126953,25.0683594 L102.126953,23.6533203 L102.010742,23.6533203 C101.580078,24.453125 100.766602,24.890625 99.7275391,24.890625 C97.8408203,24.890625 96.6650391,23.4277344 96.6650391,21.1787109 C96.6650391,18.8886719 97.8476562,17.3984375 99.7548828,17.3984375 C100.773438,17.3984375 101.662109,17.9042969 102.072266,18.7177734 L102.188477,18.7177734 L102.188477,17.5214844 L103.822266,17.5214844 L103.822266,25.0273438 C103.822266,26.7568359 102.441406,27.84375 100.260742,27.84375 Z M105.96875,25 L105.96875,14.6298828 L107.636719,14.6298828 L107.636719,18.7314453 L107.759766,18.7314453 C108.115234,17.890625 108.99707,17.3847656 110.111328,17.3847656 C111.786133,17.3847656 112.756836,18.3964844 112.756836,20.1738281 L112.756836,25 L111.068359,25 L111.068359,20.5771484 C111.068359,19.4423828 110.521484,18.8613281 109.482422,18.8613281 C108.368164,18.8613281 107.664062,19.5859375 107.664062,20.6591797 L107.664062,25 L105.96875,25 Z M114.834961,25 L114.834961,14.6298828 L116.530273,14.6298828 L116.530273,25 L114.834961,25 Z M118.69043,25 L118.69043,17.5214844 L120.378906,17.5214844 L120.378906,25 L118.69043,25 Z M119.53125,16.3046875 C118.916016,16.3046875 118.485352,15.9082031 118.485352,15.3681641 C118.485352,14.828125 118.916016,14.4316406 119.53125,14.4316406 C120.15332,14.4316406 120.577148,14.828125 120.577148,15.3681641 C120.577148,15.9082031 120.15332,16.3046875 119.53125,16.3046875 Z M127.583984,21.1787109 C127.583984,19.75 126.866211,18.8408203 125.69043,18.8408203 C124.507812,18.8408203 123.837891,19.75 123.837891,21.1787109 C123.837891,22.6074219 124.507812,23.5097656 125.69043,23.5097656 C126.873047,23.5097656 127.583984,22.6074219 127.583984,21.1787109 Z M125.69043,27.84375 C123.769531,27.84375 122.511719,26.9960938 122.375,25.7109375 L124.077148,25.7109375 C124.186523,26.2236328 124.788086,26.5517578 125.717773,26.5517578 C126.879883,26.5517578 127.556641,26.0048828 127.556641,25.0683594 L127.556641,23.6533203 L127.44043,23.6533203 C127.009766,24.453125 126.196289,24.890625 125.157227,24.890625 C123.270508,24.890625 122.094727,23.4277344 122.094727,21.1787109 C122.094727,18.8886719 123.277344,17.3984375 125.18457,17.3984375 C126.203125,17.3984375 127.091797,17.9042969 127.501953,18.7177734 L127.618164,18.7177734 L127.618164,17.5214844 L129.251953,17.5214844 L129.251953,25.0273438 C129.251953,26.7568359 127.871094,27.84375 125.69043,27.84375 Z M131.398438,25 L131.398438,14.6298828 L133.066406,14.6298828 L133.066406,18.7314453 L133.189453,18.7314453 C133.544922,17.890625 134.426758,17.3847656 135.541016,17.3847656 C137.21582,17.3847656 138.186523,18.3964844 138.186523,20.1738281 L138.186523,25 L136.498047,25 L136.498047,20.5771484 C136.498047,19.4423828 135.951172,18.8613281 134.912109,18.8613281 C133.797852,18.8613281 133.09375,19.5859375 133.09375,20.6591797 L133.09375,25 L131.398438,25 Z M140.736328,15.7373047 L142.424805,15.7373047 L142.424805,17.5693359 L144.06543,17.5693359 L144.06543,18.9228516 L142.424805,18.9228516 L142.424805,22.59375 C142.424805,23.3320312 142.739258,23.6601562 143.450195,23.6601562 C143.689453,23.6601562 143.8125,23.6464844 144.010742,23.6259766 L144.010742,24.9521484 C143.771484,25 143.463867,25.0341797 143.135742,25.0341797 C141.419922,25.0341797 140.736328,24.453125 140.736328,23.0039062 L140.736328,18.9228516 L139.519531,18.9228516 L139.519531,17.5693359 L140.736328,17.5693359 L140.736328,15.7373047 Z M155.912109,20.0371094 L154.298828,20.0371094 C154.141602,19.3125 153.581055,18.7929688 152.651367,18.7929688 C151.489258,18.7929688 150.798828,19.6884766 150.798828,21.2402344 C150.798828,22.8125 151.496094,23.7285156 152.651367,23.7285156 C153.533203,23.7285156 154.121094,23.3115234 154.298828,22.5322266 L155.912109,22.5322266 C155.727539,24.0976562 154.551758,25.1503906 152.658203,25.1503906 C150.40918,25.1503906 149.083008,23.7011719 149.083008,21.2402344 C149.083008,18.8134766 150.402344,17.3710938 152.651367,17.3710938 C154.572266,17.3710938 155.734375,18.4648438 155.912109,20.0371094 Z M160.758789,23.7285156 C161.941406,23.7285156 162.611328,22.8261719 162.611328,21.2607422 C162.611328,19.7021484 161.93457,18.7929688 160.758789,18.7929688 C159.576172,18.7929688 158.899414,19.7021484 158.899414,21.2607422 C158.899414,22.8261719 159.576172,23.7285156 160.758789,23.7285156 Z M160.758789,25.1503906 C158.516602,25.1503906 157.163086,23.6875 157.163086,21.2607422 C157.163086,18.8476562 158.537109,17.3710938 160.758789,17.3710938 C162.987305,17.3710938 164.354492,18.8408203 164.354492,21.2607422 C164.354492,23.6875 162.994141,25.1503906 160.758789,25.1503906 Z M166.063477,25 L166.063477,17.5214844 L167.697266,17.5214844 L167.697266,18.7177734 L167.813477,18.7177734 C168.168945,17.8837891 169.043945,17.3710938 170.165039,17.3710938 C171.833008,17.3710938 172.769531,18.3759766 172.769531,20.1601562 L172.769531,25 L171.081055,25 L171.081055,20.5634766 C171.081055,19.421875 170.561523,18.8476562 169.536133,18.8476562 C168.442383,18.8476562 167.758789,19.5449219 167.758789,20.6455078 L167.758789,25 L166.063477,25 Z M175.319336,25 L175.319336,18.9228516 L174.102539,18.9228516 L174.102539,17.5693359 L175.319336,17.5693359 L175.319336,16.8242188 C175.319336,15.3066406 176.105469,14.6914062 177.746094,14.6914062 C178.046875,14.6914062 178.34082,14.71875 178.641602,14.7666016 L178.641602,16.03125 C178.491211,15.9970703 178.238281,15.9765625 177.992188,15.9765625 C177.329102,15.9765625 176.980469,16.2636719 176.980469,16.9335938 L176.980469,17.5693359 L178.600586,17.5693359 L178.600586,18.9228516 L177.007812,18.9228516 L177.007812,25 L175.319336,25 Z M186.919922,17.5214844 L186.919922,25 L185.286133,25 L185.286133,23.8105469 L185.169922,23.8105469 C184.807617,24.6650391 183.959961,25.1503906 182.852539,25.1503906 C181.205078,25.1503906 180.186523,24.1318359 180.186523,22.3613281 L180.186523,17.5214844 L181.881836,17.5214844 L181.881836,21.9580078 C181.881836,23.1064453 182.421875,23.6601562 183.44043,23.6601562 C184.53418,23.6601562 185.224609,22.9833984 185.224609,21.8759766 L185.224609,17.5214844 L186.919922,17.5214844 Z M188.827148,19.6611328 C188.827148,18.3076172 190.057617,17.3710938 191.821289,17.3710938 C193.598633,17.3710938 194.712891,18.1572266 194.835938,19.5175781 L193.243164,19.5175781 C193.120117,18.9912109 192.621094,18.65625 191.828125,18.65625 C191.055664,18.65625 190.474609,19.0253906 190.474609,19.5654297 C190.474609,19.9892578 190.830078,20.2490234 191.582031,20.4199219 L192.901367,20.7207031 C194.330078,21.0419922 194.993164,21.6572266 194.993164,22.7578125 C194.993164,24.1933594 193.673828,25.1503906 191.807617,25.1503906 C189.941406,25.1503906 188.765625,24.34375 188.635742,22.9833984 L190.310547,22.9833984 C190.474609,23.5371094 191.000977,23.8652344 191.848633,23.8652344 C192.703125,23.8652344 193.297852,23.4892578 193.297852,22.9355469 C193.297852,22.5117188 192.976562,22.2451172 192.265625,22.0878906 L190.939453,21.7802734 C189.503906,21.4521484 188.827148,20.7890625 188.827148,19.6611328 Z M196.729492,25 L196.729492,17.5214844 L198.417969,17.5214844 L198.417969,25 L196.729492,25 Z M197.570312,16.3046875 C196.955078,16.3046875 196.524414,15.9082031 196.524414,15.3681641 C196.524414,14.828125 196.955078,14.4316406 197.570312,14.4316406 C198.192383,14.4316406 198.616211,14.828125 198.616211,15.3681641 C198.616211,15.9082031 198.192383,16.3046875 197.570312,16.3046875 Z M200.516602,25 L200.516602,17.5214844 L202.150391,17.5214844 L202.150391,18.7177734 L202.266602,18.7177734 C202.62207,17.8837891 203.49707,17.3710938 204.618164,17.3710938 C206.286133,17.3710938 207.222656,18.3759766 207.222656,20.1601562 L207.222656,25 L205.53418,25 L205.53418,20.5634766 C205.53418,19.421875 205.014648,18.8476562 203.989258,18.8476562 C202.895508,18.8476562 202.211914,19.5449219 202.211914,20.6455078 L202.211914,25 L200.516602,25 Z M214.338867,21.1787109 C214.338867,19.75 213.621094,18.8408203 212.445312,18.8408203 C211.262695,18.8408203 210.592773,19.75 210.592773,21.1787109 C210.592773,22.6074219 211.262695,23.5097656 212.445312,23.5097656 C213.62793,23.5097656 214.338867,22.6074219 214.338867,21.1787109 Z M212.445312,27.84375 C210.524414,27.84375 209.266602,26.9960938 209.129883,25.7109375 L210.832031,25.7109375 C210.941406,26.2236328 211.542969,26.5517578 212.472656,26.5517578 C213.634766,26.5517578 214.311523,26.0048828 214.311523,25.0683594 L214.311523,23.6533203 L214.195312,23.6533203 C213.764648,24.453125 212.951172,24.890625 211.912109,24.890625 C210.025391,24.890625 208.849609,23.4277344 208.849609,21.1787109 C208.849609,18.8886719 210.032227,17.3984375 211.939453,17.3984375 C212.958008,17.3984375 213.84668,17.9042969 214.256836,18.7177734 L214.373047,18.7177734 L214.373047,17.5214844 L216.006836,17.5214844 L216.006836,25.0273438 C216.006836,26.7568359 214.625977,27.84375 212.445312,27.84375 Z M226.383789,21.8212891 L221.892578,21.8212891 L221.892578,20.2285156 L226.383789,20.2285156 L226.383789,21.8212891 Z M229.077148,15.7373047 L230.765625,15.7373047 L230.765625,17.5693359 L232.40625,17.5693359 L232.40625,18.9228516 L230.765625,18.9228516 L230.765625,22.59375 C230.765625,23.3320312 231.080078,23.6601562 231.791016,23.6601562 C232.030273,23.6601562 232.15332,23.6464844 232.351562,23.6259766 L232.351562,24.9521484 C232.112305,25 231.804688,25.0341797 231.476562,25.0341797 C229.760742,25.0341797 229.077148,24.453125 229.077148,23.0039062 L229.077148,18.9228516 L227.860352,18.9228516 L227.860352,17.5693359 L229.077148,17.5693359 L229.077148,15.7373047 Z M236.617188,23.7900391 C237.642578,23.7900391 238.408203,23.1269531 238.408203,22.2587891 L238.408203,21.6640625 L236.719727,21.7734375 C235.769531,21.8349609 235.325195,22.1767578 235.325195,22.7851562 C235.325195,23.4140625 235.865234,23.7900391 236.617188,23.7900391 Z M236.118164,25.1230469 C234.675781,25.1230469 233.643555,24.2480469 233.643555,22.8808594 C233.643555,21.5273438 234.662109,20.7480469 236.480469,20.6386719 L238.408203,20.5224609 L238.408203,19.8935547 C238.408203,19.1621094 237.916016,18.7519531 237,18.7519531 C236.220703,18.7519531 235.6875,19.0253906 235.530273,19.53125 L233.930664,19.53125 C234.067383,18.2119141 235.304688,17.3710938 237.082031,17.3710938 C239.00293,17.3710938 240.083008,18.3076172 240.083008,19.8935547 L240.083008,25 L238.449219,25 L238.449219,23.9746094 L238.333008,23.9746094 C237.916016,24.6992188 237.095703,25.1230469 236.118164,25.1230469 Z M247.226562,21.1787109 C247.226562,19.75 246.508789,18.8408203 245.333008,18.8408203 C244.150391,18.8408203 243.480469,19.75 243.480469,21.1787109 C243.480469,22.6074219 244.150391,23.5097656 245.333008,23.5097656 C246.515625,23.5097656 247.226562,22.6074219 247.226562,21.1787109 Z M245.333008,27.84375 C243.412109,27.84375 242.154297,26.9960938 242.017578,25.7109375 L243.719727,25.7109375 C243.829102,26.2236328 244.430664,26.5517578 245.360352,26.5517578 C246.522461,26.5517578 247.199219,26.0048828 247.199219,25.0683594 L247.199219,23.6533203 L247.083008,23.6533203 C246.652344,24.453125 245.838867,24.890625 244.799805,24.890625 C242.913086,24.890625 241.737305,23.4277344 241.737305,21.1787109 C241.737305,18.8886719 242.919922,17.3984375 244.827148,17.3984375 C245.845703,17.3984375 246.734375,17.9042969 247.144531,18.7177734 L247.260742,18.7177734 L247.260742,17.5214844 L248.894531,17.5214844 L248.894531,25.0273438 C248.894531,26.7568359 247.513672,27.84375 245.333008,27.84375 Z M252.237305,25.1435547 C251.594727,25.1435547 251.143555,24.6787109 251.143555,24.0634766 C251.143555,23.4414062 251.594727,22.9833984 252.237305,22.9833984 C252.886719,22.9833984 253.331055,23.4414062 253.331055,24.0634766 C253.331055,24.6787109 252.886719,25.1435547 252.237305,25.1435547 Z M252.237305,20.0166016 C251.594727,20.0166016 251.143555,19.5585938 251.143555,18.9433594 C251.143555,18.3212891 251.594727,17.8632812 252.237305,17.8632812 C252.886719,17.8632812 253.331055,18.3212891 253.331055,18.9433594 C253.331055,19.5585938 252.886719,20.0166016 252.237305,20.0166016 Z M262.245117,17.5214844 L262.245117,25 L260.611328,25 L260.611328,23.8105469 L260.495117,23.8105469 C260.132812,24.6650391 259.285156,25.1503906 258.177734,25.1503906 C256.530273,25.1503906 255.511719,24.1318359 255.511719,22.3613281 L255.511719,17.5214844 L257.207031,17.5214844 L257.207031,21.9580078 C257.207031,23.1064453 257.74707,23.6601562 258.765625,23.6601562 C259.859375,23.6601562 260.549805,22.9833984 260.549805,21.8759766 L260.549805,17.5214844 L262.245117,17.5214844 Z M264.152344,19.6611328 C264.152344,18.3076172 265.382812,17.3710938 267.146484,17.3710938 C268.923828,17.3710938 270.038086,18.1572266 270.161133,19.5175781 L268.568359,19.5175781 C268.445312,18.9912109 267.946289,18.65625 267.15332,18.65625 C266.380859,18.65625 265.799805,19.0253906 265.799805,19.5654297 C265.799805,19.9892578 266.155273,20.2490234 266.907227,20.4199219 L268.226562,20.7207031 C269.655273,21.0419922 270.318359,21.6572266 270.318359,22.7578125 C270.318359,24.1933594 268.999023,25.1503906 267.132812,25.1503906 C265.266602,25.1503906 264.09082,24.34375 263.960938,22.9833984 L265.635742,22.9833984 C265.799805,23.5371094 266.326172,23.8652344 267.173828,23.8652344 C268.02832,23.8652344 268.623047,23.4892578 268.623047,22.9355469 C268.623047,22.5117188 268.301758,22.2451172 267.59082,22.0878906 L266.264648,21.7802734 C264.829102,21.4521484 264.152344,20.7890625 264.152344,19.6611328 Z M274.59082,23.7900391 C275.616211,23.7900391 276.381836,23.1269531 276.381836,22.2587891 L276.381836,21.6640625 L274.693359,21.7734375 C273.743164,21.8349609 273.298828,22.1767578 273.298828,22.7851562 C273.298828,23.4140625 273.838867,23.7900391 274.59082,23.7900391 Z M274.091797,25.1230469 C272.649414,25.1230469 271.617188,24.2480469 271.617188,22.8808594 C271.617188,21.5273438 272.635742,20.7480469 274.454102,20.6386719 L276.381836,20.5224609 L276.381836,19.8935547 C276.381836,19.1621094 275.889648,18.7519531 274.973633,18.7519531 C274.194336,18.7519531 273.661133,19.0253906 273.503906,19.53125 L271.904297,19.53125 C272.041016,18.2119141 273.27832,17.3710938 275.055664,17.3710938 C276.976562,17.3710938 278.056641,18.3076172 278.056641,19.8935547 L278.056641,25 L276.422852,25 L276.422852,23.9746094 L276.306641,23.9746094 C275.889648,24.6992188 275.069336,25.1230469 274.091797,25.1230469 Z M284.25,25.1230469 C283.204102,25.1230469 282.335938,24.6376953 281.912109,23.8173828 L281.795898,23.8173828 L281.795898,25 L280.162109,25 L280.162109,14.6298828 L281.857422,14.6298828 L281.857422,18.7109375 L281.973633,18.7109375 C282.363281,17.8974609 283.224609,17.3984375 284.25,17.3984375 C286.143555,17.3984375 287.319336,18.8681641 287.319336,21.2607422 C287.319336,23.6396484 286.136719,25.1230469 284.25,25.1230469 Z M283.716797,18.8408203 C282.561523,18.8408203 281.830078,19.7705078 281.830078,21.2607422 C281.830078,22.7509766 282.554688,23.6806641 283.716797,23.6806641 C284.878906,23.6806641 285.576172,22.7646484 285.576172,21.2607422 C285.576172,19.7568359 284.87207,18.8408203 283.716797,18.8408203 Z M289.041992,25 L289.041992,17.5214844 L290.730469,17.5214844 L290.730469,25 L289.041992,25 Z M289.882812,16.3046875 C289.267578,16.3046875 288.836914,15.9082031 288.836914,15.3681641 C288.836914,14.828125 289.267578,14.4316406 289.882812,14.4316406 C290.504883,14.4316406 290.928711,14.828125 290.928711,15.3681641 C290.928711,15.9082031 290.504883,16.3046875 289.882812,16.3046875 Z M292.897461,25 L292.897461,14.6298828 L294.592773,14.6298828 L294.592773,25 L292.897461,25 Z M296.75293,25 L296.75293,17.5214844 L298.441406,17.5214844 L298.441406,25 L296.75293,25 Z M297.59375,16.3046875 C296.978516,16.3046875 296.547852,15.9082031 296.547852,15.3681641 C296.547852,14.828125 296.978516,14.4316406 297.59375,14.4316406 C298.21582,14.4316406 298.639648,14.828125 298.639648,15.3681641 C298.639648,15.9082031 298.21582,16.3046875 297.59375,16.3046875 Z M301.080078,15.7373047 L302.768555,15.7373047 L302.768555,17.5693359 L304.40918,17.5693359 L304.40918,18.9228516 L302.768555,18.9228516 L302.768555,22.59375 C302.768555,23.3320312 303.083008,23.6601562 303.793945,23.6601562 C304.033203,23.6601562 304.15625,23.6464844 304.354492,23.6259766 L304.354492,24.9521484 C304.115234,25 303.807617,25.0341797 303.479492,25.0341797 C301.763672,25.0341797 301.080078,24.453125 301.080078,23.0039062 L301.080078,18.9228516 L299.863281,18.9228516 L299.863281,17.5693359 L301.080078,17.5693359 L301.080078,15.7373047 Z M306.883789,27.7207031 C306.78125,27.7207031 306.323242,27.7138672 306.213867,27.6933594 L306.213867,26.3125 C306.30957,26.3261719 306.5625,26.3330078 306.678711,26.3330078 C307.396484,26.3330078 307.799805,26.0527344 308.018555,25.3623047 L308.107422,25.0341797 L305.43457,17.5214844 L307.293945,17.5214844 L309.043945,23.359375 L309.160156,23.359375 L310.90332,17.5214844 L312.694336,17.5214844 L309.994141,25.2392578 C309.358398,27.0986328 308.558594,27.7207031 306.883789,27.7207031 Z" id="type:highlight-confu" fill="#24124D" fill-rule="evenodd"></path>
                </g>
            </g>
            <g id="Card" mask="url(#mask-2)">
                <g transform="translate(16.000000, 72.000000)">
                    <g id="component/card" fill="none">
                        <g id="Shadow">
                            <use fill="black" fill-opacity="1" filter="url(#filter-8)" xlink:href="#path-7"></use>
                            <use fill="#FFFFFF" fill-rule="evenodd" xlink:href="#path-7"></use>
                        </g>
                        <g id="Card" stroke-linecap="square">
                            <use fill="black" fill-opacity="1" filter="url(#filter-10)" xlink:href="#path-9"></use>
                            <rect stroke-opacity="0.098194067" stroke="#140B2F" stroke-width="1" fill="#FFFFFF" fill-rule="evenodd" x="-0.5" y="-0.5" width="177" height="185" rx="4"></rect>
                        </g>
                    </g>
                    <path d="M16,28.9375 L17.96875,28.9375 C18.09375,29.9453125 19.09375,30.59375 20.5234375,30.59375 C21.8515625,30.59375 22.8125,29.9140625 22.8125,28.96875 C22.8125,28.15625 22.1953125,27.6796875 20.75,27.34375 L19.2890625,27.0078125 C17.2421875,26.546875 16.28125,25.53125 16.28125,23.8515625 C16.28125,21.8046875 17.953125,20.4453125 20.4765625,20.4453125 C22.84375,20.4453125 24.5546875,21.8046875 24.6484375,23.7421875 L22.71875,23.7421875 C22.578125,22.75 21.703125,22.125 20.46875,22.125 C19.171875,22.125 18.3125,22.75 18.3125,23.7109375 C18.3125,24.46875 18.8828125,24.9140625 20.28125,25.234375 L21.578125,25.53125 C23.8671875,26.046875 24.828125,27 24.828125,28.71875 C24.828125,30.9140625 23.1328125,32.28125 20.3984375,32.28125 C17.8125,32.28125 16.1015625,30.984375 16,28.9375 Z M26.96875,32 L26.96875,20.1484375 L28.875,20.1484375 L28.875,24.8359375 L29.015625,24.8359375 C29.421875,23.875 30.4296875,23.296875 31.703125,23.296875 C33.6171875,23.296875 34.7265625,24.453125 34.7265625,26.484375 L34.7265625,32 L32.796875,32 L32.796875,26.9453125 C32.796875,25.6484375 32.171875,24.984375 30.984375,24.984375 C29.7109375,24.984375 28.90625,25.8125 28.90625,27.0390625 L28.90625,32 L26.96875,32 Z M40.609375,24.8203125 C39.453125,24.8203125 38.640625,25.6484375 38.5546875,26.8984375 L42.578125,26.8984375 C42.5390625,25.6328125 41.7734375,24.8203125 40.609375,24.8203125 Z M42.59375,29.6484375 L44.4296875,29.6484375 C44.0625,31.203125 42.6484375,32.171875 40.6328125,32.171875 C38.1171875,32.171875 36.6015625,30.5078125 36.6015625,27.7578125 C36.6015625,25.0078125 38.140625,23.28125 40.6171875,23.28125 C43.0546875,23.28125 44.515625,24.8984375 44.515625,27.59375 L44.515625,28.21875 L38.546875,28.21875 L38.546875,28.3203125 C38.59375,29.7421875 39.4140625,30.6328125 40.6875,30.6328125 C41.6484375,30.6328125 42.3125,30.28125 42.59375,29.6484375 Z M50.1484375,30.546875 C51.5,30.546875 52.265625,29.515625 52.265625,27.7265625 C52.265625,25.9453125 51.4921875,24.90625 50.1484375,24.90625 C48.796875,24.90625 48.0234375,25.9453125 48.0234375,27.7265625 C48.0234375,29.515625 48.796875,30.546875 50.1484375,30.546875 Z M50.1484375,32.171875 C47.5859375,32.171875 46.0390625,30.5 46.0390625,27.7265625 C46.0390625,24.96875 47.609375,23.28125 50.1484375,23.28125 C52.6953125,23.28125 54.2578125,24.9609375 54.2578125,27.7265625 C54.2578125,30.5 52.703125,32.171875 50.1484375,32.171875 Z M56.2109375,32 L56.2109375,23.453125 L58.078125,23.453125 L58.078125,24.8203125 L58.2109375,24.8203125 C58.6171875,23.8671875 59.6171875,23.28125 60.8984375,23.28125 C62.8046875,23.28125 63.875,24.4296875 63.875,26.46875 L63.875,32 L61.9453125,32 L61.9453125,26.9296875 C61.9453125,25.625 61.3515625,24.96875 60.1796875,24.96875 C58.9296875,24.96875 58.1484375,25.765625 58.1484375,27.0234375 L58.1484375,32 L56.2109375,32 Z M69.09375,30.6171875 C70.265625,30.6171875 71.140625,29.859375 71.140625,28.8671875 L71.140625,28.1875 L69.2109375,28.3125 C68.125,28.3828125 67.6171875,28.7734375 67.6171875,29.46875 C67.6171875,30.1875 68.234375,30.6171875 69.09375,30.6171875 Z M68.5234375,32.140625 C66.875,32.140625 65.6953125,31.140625 65.6953125,29.578125 C65.6953125,28.03125 66.859375,27.140625 68.9375,27.015625 L71.140625,26.8828125 L71.140625,26.1640625 C71.140625,25.328125 70.578125,24.859375 69.53125,24.859375 C68.640625,24.859375 68.03125,25.171875 67.8515625,25.75 L66.0234375,25.75 C66.1796875,24.2421875 67.59375,23.28125 69.625,23.28125 C71.8203125,23.28125 73.0546875,24.3515625 73.0546875,26.1640625 L73.0546875,32 L71.1875,32 L71.1875,30.828125 L71.0546875,30.828125 C70.578125,31.65625 69.640625,32.140625 68.5234375,32.140625 Z M81.8671875,32 L79.8515625,32 L79.8515625,20.7265625 L81.8671875,20.7265625 L81.8671875,32 Z M84.4453125,32 L84.4453125,23.453125 L86.3125,23.453125 L86.3125,24.78125 L86.4453125,24.78125 C86.6796875,23.9375 87.59375,23.3125 88.6875,23.3125 C88.9609375,23.3125 89.296875,23.34375 89.484375,23.3984375 L89.484375,25.1953125 C89.3359375,25.140625 88.8046875,25.0859375 88.5,25.0859375 C87.2578125,25.0859375 86.3828125,25.8671875 86.3828125,27.0625 L86.3828125,32 L84.4453125,32 Z M94.59375,24.8203125 C93.4375,24.8203125 92.625,25.6484375 92.5390625,26.8984375 L96.5625,26.8984375 C96.5234375,25.6328125 95.7578125,24.8203125 94.59375,24.8203125 Z M96.578125,29.6484375 L98.4140625,29.6484375 C98.046875,31.203125 96.6328125,32.171875 94.6171875,32.171875 C92.1015625,32.171875 90.5859375,30.5078125 90.5859375,27.7578125 C90.5859375,25.0078125 92.125,23.28125 94.6015625,23.28125 C97.0390625,23.28125 98.5,24.8984375 98.5,27.59375 L98.5,28.21875 L92.53125,28.21875 L92.53125,28.3203125 C92.578125,29.7421875 93.3984375,30.6328125 94.671875,30.6328125 C95.6328125,30.6328125 96.296875,30.28125 96.578125,29.6484375 Z M100.445312,32 L100.445312,23.453125 L102.3125,23.453125 L102.3125,24.8203125 L102.445312,24.8203125 C102.851562,23.8671875 103.851562,23.28125 105.132812,23.28125 C107.039062,23.28125 108.109375,24.4296875 108.109375,26.46875 L108.109375,32 L106.179688,32 L106.179688,26.9296875 C106.179688,25.625 105.585938,24.96875 104.414062,24.96875 C103.164062,24.96875 102.382812,25.765625 102.382812,27.0234375 L102.382812,32 L100.445312,32 Z M113.992188,24.8203125 C112.835938,24.8203125 112.023438,25.6484375 111.9375,26.8984375 L115.960938,26.8984375 C115.921875,25.6328125 115.15625,24.8203125 113.992188,24.8203125 Z M115.976562,29.6484375 L117.8125,29.6484375 C117.445312,31.203125 116.03125,32.171875 114.015625,32.171875 C111.5,32.171875 109.984375,30.5078125 109.984375,27.7578125 C109.984375,25.0078125 111.523438,23.28125 114,23.28125 C116.4375,23.28125 117.898438,24.8984375 117.898438,27.59375 L117.898438,28.21875 L111.929688,28.21875 L111.929688,28.3203125 C111.976562,29.7421875 112.796875,30.6328125 114.070312,30.6328125 C115.03125,30.6328125 115.695312,30.28125 115.976562,29.6484375 Z" id="Sheona-Irene" fill="#7B7194" fill-rule="evenodd"></path>
                    <path d="M19.8144531,56.2050781 C17.4648438,56.2050781 16,54.5117188 16,51.7753906 C16,49.0332031 17.4589844,47.3398438 19.8085938,47.3398438 C21.671875,47.3398438 23.1132812,48.546875 23.3242188,50.2695312 L22.0175781,50.2695312 C21.7714844,49.2324219 20.921875,48.5644531 19.8085938,48.5644531 C18.2910156,48.5644531 17.3417969,49.8007812 17.3417969,51.7753906 C17.3417969,53.7441406 18.2910156,54.9804688 19.8144531,54.9804688 C20.9335938,54.9804688 21.7832031,54.3769531 22.0175781,53.421875 L23.3242188,53.421875 C23.0898438,55.0917969 21.7011719,56.2050781 19.8144531,56.2050781 Z M30.4023438,49.6191406 L30.4023438,56 L29.1953125,56 L29.1953125,54.9863281 L29.0957031,54.9863281 C28.7851562,55.7128906 28.0585938,56.1230469 27.0976562,56.1230469 C25.6796875,56.1230469 24.8417969,55.2617188 24.8417969,53.75 L24.8417969,49.6191406 L26.1015625,49.6191406 L26.1015625,53.4335938 C26.1015625,54.4648438 26.5761719,54.9570312 27.5078125,54.9570312 C28.5214844,54.9570312 29.1484375,54.3535156 29.1484375,53.3515625 L29.1484375,49.6191406 L30.4023438,49.6191406 Z M32.0898438,51.4238281 C32.0898438,50.2929688 33.1269531,49.4960938 34.5683594,49.4960938 C36.0039062,49.4960938 36.9414062,50.1640625 37.0644531,51.2890625 L35.8574219,51.2890625 C35.7402344,50.8203125 35.2832031,50.5214844 34.5683594,50.5214844 C33.8652344,50.5214844 33.3320312,50.8554688 33.3320312,51.3535156 C33.3320312,51.734375 33.6542969,51.9746094 34.3457031,52.1328125 L35.40625,52.3789062 C36.6191406,52.6601562 37.1875,53.1816406 37.1875,54.1191406 C37.1875,55.3203125 36.0683594,56.1230469 34.5449219,56.1230469 C33.0273438,56.1230469 32.0371094,55.4375 31.9257812,54.3066406 L33.1855469,54.3066406 C33.34375,54.7988281 33.8125,55.1035156 34.5742188,55.1035156 C35.359375,55.1035156 35.9160156,54.7519531 35.9160156,54.2421875 C35.9160156,53.8613281 35.6171875,53.6152344 34.9785156,53.4628906 L33.8652344,53.2050781 C32.6523438,52.9179688 32.0898438,52.3730469 32.0898438,51.4238281 Z M39.1503906,48.0722656 L40.4101562,48.0722656 L40.4101562,49.6484375 L41.8398438,49.6484375 L41.8398438,50.7089844 L40.4101562,50.7089844 L40.4101562,53.9902344 C40.4101562,54.6582031 40.6855469,54.9511719 41.3125,54.9511719 C41.5058594,54.9511719 41.6054688,54.9394531 41.78125,54.921875 L41.78125,55.9707031 C41.5820312,56.0058594 41.3535156,56.0351562 41.1074219,56.0351562 C39.7070312,56.0351562 39.1503906,55.5429688 39.1503906,54.3125 L39.1503906,50.7089844 L38.1015625,50.7089844 L38.1015625,49.6484375 L39.1503906,49.6484375 L39.1503906,48.0722656 Z M45.9707031,55.0039062 C47.0605469,55.0039062 47.6816406,54.1953125 47.6816406,52.8066406 C47.6816406,51.4238281 47.0605469,50.6152344 45.9707031,50.6152344 C44.875,50.6152344 44.2597656,51.4238281 44.2597656,52.8066406 C44.2597656,54.2011719 44.875,55.0039062 45.9707031,55.0039062 Z M45.9707031,56.1230469 C44.1015625,56.1230469 42.9589844,54.875 42.9589844,52.8066406 C42.9589844,50.75 44.1074219,49.4960938 45.9707031,49.4960938 C47.828125,49.4960938 48.9765625,50.75 48.9765625,52.8066406 C48.9765625,54.875 47.8339844,56.1230469 45.9707031,56.1230469 Z M50.4882812,56 L50.4882812,49.6191406 L51.7011719,49.6191406 L51.7011719,50.6445312 L51.7949219,50.6445312 C52.0761719,49.9238281 52.7207031,49.4960938 53.5703125,49.4960938 C54.4433594,49.4960938 55.046875,49.9472656 55.328125,50.6445312 L55.4277344,50.6445312 C55.75,49.9472656 56.4824219,49.4960938 57.3671875,49.4960938 C58.65625,49.4960938 59.40625,50.2753906 59.40625,51.6054688 L59.40625,56 L58.1464844,56 L58.1464844,51.9335938 C58.1464844,51.0722656 57.7363281,50.6503906 56.9101562,50.6503906 C56.0957031,50.6503906 55.5625,51.2363281 55.5625,51.9863281 L55.5625,56 L54.3261719,56 L54.3261719,51.8105469 C54.3261719,51.0898438 53.8457031,50.6503906 53.0957031,50.6503906 C52.328125,50.6503906 51.7480469,51.2773438 51.7480469,52.0976562 L51.7480469,56 L50.4882812,56 Z M63.7949219,50.5683594 C62.8632812,50.5683594 62.2128906,51.2246094 62.1425781,52.2207031 L65.3652344,52.2207031 C65.3359375,51.21875 64.7265625,50.5683594 63.7949219,50.5683594 Z M65.359375,54.2773438 L66.5722656,54.2773438 C66.2851562,55.4199219 65.265625,56.1230469 63.8066406,56.1230469 C61.9785156,56.1230469 60.859375,54.8691406 60.859375,52.8300781 C60.859375,50.7910156 62.0019531,49.4960938 63.8007812,49.4960938 C65.5761719,49.4960938 66.6484375,50.7089844 66.6484375,52.7128906 L66.6484375,53.1523438 L62.1425781,53.1523438 L62.1425781,53.2226562 C62.1835938,54.3417969 62.8339844,55.0507812 63.8417969,55.0507812 C64.6035156,55.0507812 65.125,54.7753906 65.359375,54.2773438 Z M68.1601562,56 L68.1601562,49.6191406 L69.3730469,49.6191406 L69.3730469,50.5976562 L69.4667969,50.5976562 C69.6484375,49.9707031 70.3515625,49.5136719 71.1835938,49.5136719 C71.3652344,49.5136719 71.6054688,49.53125 71.7402344,49.5664062 L71.7402344,50.8085938 C71.640625,50.7734375 71.2539062,50.7324219 71.0429688,50.7324219 C70.09375,50.7324219 69.4199219,51.3359375 69.4199219,52.2324219 L69.4199219,56 L68.1601562,56 Z M76.1992188,56 L76.1992188,49.6191406 L77.453125,49.6191406 L77.453125,56 L76.1992188,56 Z M76.8261719,48.5 C76.3574219,48.5 76.0117188,48.1660156 76.0117188,47.7324219 C76.0117188,47.2929688 76.3574219,46.9589844 76.8261719,46.9589844 C77.2949219,46.9589844 77.640625,47.2929688 77.640625,47.7324219 C77.640625,48.1660156 77.2949219,48.5 76.8261719,48.5 Z M79.3046875,56 L79.3046875,49.6191406 L80.5175781,49.6191406 L80.5175781,50.6328125 L80.6113281,50.6328125 C80.921875,49.9238281 81.6660156,49.4960938 82.6269531,49.4960938 C84.0507812,49.4960938 84.8535156,50.3515625 84.8535156,51.8691406 L84.8535156,56 L83.59375,56 L83.59375,52.1855469 C83.59375,51.1601562 83.1367188,50.6503906 82.1992188,50.6503906 C81.1855469,50.6503906 80.5644531,51.2714844 80.5644531,52.2675781 L80.5644531,56 L79.3046875,56 Z M87.0683594,48.0722656 L88.328125,48.0722656 L88.328125,49.6484375 L89.7578125,49.6484375 L89.7578125,50.7089844 L88.328125,50.7089844 L88.328125,53.9902344 C88.328125,54.6582031 88.6035156,54.9511719 89.2304688,54.9511719 C89.4238281,54.9511719 89.5234375,54.9394531 89.6992188,54.921875 L89.6992188,55.9707031 C89.5,56.0058594 89.2714844,56.0351562 89.0253906,56.0351562 C87.625,56.0351562 87.0683594,55.5429688 87.0683594,54.3125 L87.0683594,50.7089844 L86.0195312,50.7089844 L86.0195312,49.6484375 L87.0683594,49.6484375 L87.0683594,48.0722656 Z M93.8125,50.5683594 C92.8808594,50.5683594 92.2304688,51.2246094 92.1601562,52.2207031 L95.3828125,52.2207031 C95.3535156,51.21875 94.7441406,50.5683594 93.8125,50.5683594 Z M95.3769531,54.2773438 L96.5898438,54.2773438 C96.3027344,55.4199219 95.2832031,56.1230469 93.8242188,56.1230469 C91.9960938,56.1230469 90.8769531,54.8691406 90.8769531,52.8300781 C90.8769531,50.7910156 92.0195312,49.4960938 93.8183594,49.4960938 C95.59375,49.4960938 96.6660156,50.7089844 96.6660156,52.7128906 L96.6660156,53.1523438 L92.1601562,53.1523438 L92.1601562,53.2226562 C92.2011719,54.3417969 92.8515625,55.0507812 93.859375,55.0507812 C94.6210938,55.0507812 95.1425781,54.7753906 95.3769531,54.2773438 Z M98.1777344,56 L98.1777344,49.6191406 L99.390625,49.6191406 L99.390625,50.5976562 L99.484375,50.5976562 C99.6660156,49.9707031 100.369141,49.5136719 101.201172,49.5136719 C101.382812,49.5136719 101.623047,49.53125 101.757812,49.5664062 L101.757812,50.8085938 C101.658203,50.7734375 101.271484,50.7324219 101.060547,50.7324219 C100.111328,50.7324219 99.4375,51.3359375 99.4375,52.2324219 L99.4375,56 L98.1777344,56 Z M102.361328,49.6191406 L103.708984,49.6191406 L105.296875,54.6523438 L105.396484,54.6523438 L106.978516,49.6191406 L108.314453,49.6191406 L106.017578,56 L104.664062,56 L102.361328,49.6191406 Z M109.615234,56 L109.615234,49.6191406 L110.869141,49.6191406 L110.869141,56 L109.615234,56 Z M110.242188,48.5 C109.773438,48.5 109.427734,48.1660156 109.427734,47.7324219 C109.427734,47.2929688 109.773438,46.9589844 110.242188,46.9589844 C110.710938,46.9589844 111.056641,47.2929688 111.056641,47.7324219 C111.056641,48.1660156 110.710938,48.5 110.242188,48.5 Z M115.339844,50.5683594 C114.408203,50.5683594 113.757812,51.2246094 113.6875,52.2207031 L116.910156,52.2207031 C116.880859,51.21875 116.271484,50.5683594 115.339844,50.5683594 Z M116.904297,54.2773438 L118.117188,54.2773438 C117.830078,55.4199219 116.810547,56.1230469 115.351562,56.1230469 C113.523438,56.1230469 112.404297,54.8691406 112.404297,52.8300781 C112.404297,50.7910156 113.546875,49.4960938 115.345703,49.4960938 C117.121094,49.4960938 118.193359,50.7089844 118.193359,52.7128906 L118.193359,53.1523438 L113.6875,53.1523438 L113.6875,53.2226562 C113.728516,54.3417969 114.378906,55.0507812 115.386719,55.0507812 C116.148438,55.0507812 116.669922,54.7753906 116.904297,54.2773438 Z M128.013672,49.6191406 L126.261719,56 L124.955078,56 L123.636719,51.3007812 L123.537109,51.3007812 L122.224609,56 L120.929688,56 L119.171875,49.6191406 L120.449219,49.6191406 L121.591797,54.4882812 L121.685547,54.4882812 L122.998047,49.6191406 L124.205078,49.6191406 L125.517578,54.4882812 L125.617188,54.4882812 L126.753906,49.6191406 L128.013672,49.6191406 Z M129.167969,51.4238281 C129.167969,50.2929688 130.205078,49.4960938 131.646484,49.4960938 C133.082031,49.4960938 134.019531,50.1640625 134.142578,51.2890625 L132.935547,51.2890625 C132.818359,50.8203125 132.361328,50.5214844 131.646484,50.5214844 C130.943359,50.5214844 130.410156,50.8554688 130.410156,51.3535156 C130.410156,51.734375 130.732422,51.9746094 131.423828,52.1328125 L132.484375,52.3789062 C133.697266,52.6601562 134.265625,53.1816406 134.265625,54.1191406 C134.265625,55.3203125 133.146484,56.1230469 131.623047,56.1230469 C130.105469,56.1230469 129.115234,55.4375 129.003906,54.3066406 L130.263672,54.3066406 C130.421875,54.7988281 130.890625,55.1035156 131.652344,55.1035156 C132.4375,55.1035156 132.994141,54.7519531 132.994141,54.2421875 C132.994141,53.8613281 132.695312,53.6152344 132.056641,53.4628906 L130.943359,53.2050781 C129.730469,52.9179688 129.167969,52.3730469 129.167969,51.4238281 Z" id="Customer-interviews" fill="#7B7194" fill-rule="evenodd"></path>
                    <rect id="Rectangle-9" fill="#DCD5EE" fill-rule="evenodd" x="16" y="72" width="144" height="12" rx="4"></rect>
                    <rect id="Rectangle-9" fill="#DCD5EE" fill-rule="evenodd" x="16" y="100" width="56" height="12" rx="4"></rect>
                    <rect id="Rectangle-9" fill="#5182F8" fill-rule="evenodd" x="88" y="100" width="72" height="12" rx="4"></rect>
                    <rect id="Rectangle-9" fill="#5182F8" fill-rule="evenodd" x="16" y="128" width="144" height="12" rx="4"></rect>
                    <rect id="Rectangle-9" fill="#DCD5EE" fill-rule="evenodd" x="16" y="156" width="96" height="12" rx="4"></rect>
                </g>
            </g>
            <g id="Card" mask="url(#mask-2)">
                <g transform="translate(208.000000, 216.000000)">
                    <g id="component/card" fill="none">
                        <g id="Shadow">
                            <use fill="black" fill-opacity="1" filter="url(#filter-12)" xlink:href="#path-11"></use>
                            <use fill="#FFFFFF" fill-rule="evenodd" xlink:href="#path-11"></use>
                        </g>
                        <g id="Card" stroke-linecap="square">
                            <use fill="black" fill-opacity="1" filter="url(#filter-14)" xlink:href="#path-13"></use>
                            <rect stroke-opacity="0.098194067" stroke="#140B2F" stroke-width="1" fill="#FFFFFF" fill-rule="evenodd" x="-0.5" y="-0.5" width="177" height="121" rx="4"></rect>
                        </g>
                    </g>
                    <path d="M19.9726562,56 L18.6601562,56 L18.6601562,48.7402344 L16,48.7402344 L16,47.5449219 L22.6269531,47.5449219 L22.6269531,48.7402344 L19.9726562,48.7402344 L19.9726562,56 Z M32.3945312,49.6191406 L30.6425781,56 L29.3359375,56 L28.0175781,51.3007812 L27.9179688,51.3007812 L26.6054688,56 L25.3105469,56 L23.5527344,49.6191406 L24.8300781,49.6191406 L25.9726562,54.4882812 L26.0664062,54.4882812 L27.3789062,49.6191406 L28.5859375,49.6191406 L29.8984375,54.4882812 L29.9980469,54.4882812 L31.1347656,49.6191406 L32.3945312,49.6191406 Z M33.71875,56 L33.71875,49.6191406 L34.9726562,49.6191406 L34.9726562,56 L33.71875,56 Z M34.3457031,48.5 C33.8769531,48.5 33.53125,48.1660156 33.53125,47.7324219 C33.53125,47.2929688 33.8769531,46.9589844 34.3457031,46.9589844 C34.8144531,46.9589844 35.1601562,47.2929688 35.1601562,47.7324219 C35.1601562,48.1660156 34.8144531,48.5 34.3457031,48.5 Z M37.2695312,48.0722656 L38.5292969,48.0722656 L38.5292969,49.6484375 L39.9589844,49.6484375 L39.9589844,50.7089844 L38.5292969,50.7089844 L38.5292969,53.9902344 C38.5292969,54.6582031 38.8046875,54.9511719 39.4316406,54.9511719 C39.625,54.9511719 39.7246094,54.9394531 39.9003906,54.921875 L39.9003906,55.9707031 C39.7011719,56.0058594 39.4726562,56.0351562 39.2265625,56.0351562 C37.8261719,56.0351562 37.2695312,55.5429688 37.2695312,54.3125 L37.2695312,50.7089844 L36.2207031,50.7089844 L36.2207031,49.6484375 L37.2695312,49.6484375 L37.2695312,48.0722656 Z M41.8398438,48.0722656 L43.0996094,48.0722656 L43.0996094,49.6484375 L44.5292969,49.6484375 L44.5292969,50.7089844 L43.0996094,50.7089844 L43.0996094,53.9902344 C43.0996094,54.6582031 43.375,54.9511719 44.0019531,54.9511719 C44.1953125,54.9511719 44.2949219,54.9394531 44.4707031,54.921875 L44.4707031,55.9707031 C44.2714844,56.0058594 44.0429688,56.0351562 43.796875,56.0351562 C42.3964844,56.0351562 41.8398438,55.5429688 41.8398438,54.3125 L41.8398438,50.7089844 L40.7910156,50.7089844 L40.7910156,49.6484375 L41.8398438,49.6484375 L41.8398438,48.0722656 Z M48.5839844,50.5683594 C47.6523438,50.5683594 47.0019531,51.2246094 46.9316406,52.2207031 L50.1542969,52.2207031 C50.125,51.21875 49.515625,50.5683594 48.5839844,50.5683594 Z M50.1484375,54.2773438 L51.3613281,54.2773438 C51.0742188,55.4199219 50.0546875,56.1230469 48.5957031,56.1230469 C46.7675781,56.1230469 45.6484375,54.8691406 45.6484375,52.8300781 C45.6484375,50.7910156 46.7910156,49.4960938 48.5898438,49.4960938 C50.3652344,49.4960938 51.4375,50.7089844 51.4375,52.7128906 L51.4375,53.1523438 L46.9316406,53.1523438 L46.9316406,53.2226562 C46.9726562,54.3417969 47.6230469,55.0507812 48.6308594,55.0507812 C49.3925781,55.0507812 49.9140625,54.7753906 50.1484375,54.2773438 Z M52.9492188,56 L52.9492188,49.6191406 L54.1621094,49.6191406 L54.1621094,50.5976562 L54.2558594,50.5976562 C54.4375,49.9707031 55.140625,49.5136719 55.9726562,49.5136719 C56.1542969,49.5136719 56.3945312,49.53125 56.5292969,49.5664062 L56.5292969,50.8085938 C56.4296875,50.7734375 56.0429688,50.7324219 55.8320312,50.7324219 C54.8828125,50.7324219 54.2089844,51.3359375 54.2089844,52.2324219 L54.2089844,56 L52.9492188,56 Z M60.9648438,56 L60.9648438,49.6191406 L62.1777344,49.6191406 L62.1777344,50.6445312 L62.2714844,50.6445312 C62.5527344,49.9238281 63.1972656,49.4960938 64.046875,49.4960938 C64.9199219,49.4960938 65.5234375,49.9472656 65.8046875,50.6445312 L65.9042969,50.6445312 C66.2265625,49.9472656 66.9589844,49.4960938 67.84375,49.4960938 C69.1328125,49.4960938 69.8828125,50.2753906 69.8828125,51.6054688 L69.8828125,56 L68.6230469,56 L68.6230469,51.9335938 C68.6230469,51.0722656 68.2128906,50.6503906 67.3867188,50.6503906 C66.5722656,50.6503906 66.0390625,51.2363281 66.0390625,51.9863281 L66.0390625,56 L64.8027344,56 L64.8027344,51.8105469 C64.8027344,51.0898438 64.3222656,50.6503906 63.5722656,50.6503906 C62.8046875,50.6503906 62.2246094,51.2773438 62.2246094,52.0976562 L62.2246094,56 L60.9648438,56 Z M74.2714844,50.5683594 C73.3398438,50.5683594 72.6894531,51.2246094 72.6191406,52.2207031 L75.8417969,52.2207031 C75.8125,51.21875 75.203125,50.5683594 74.2714844,50.5683594 Z M75.8359375,54.2773438 L77.0488281,54.2773438 C76.7617188,55.4199219 75.7421875,56.1230469 74.2832031,56.1230469 C72.4550781,56.1230469 71.3359375,54.8691406 71.3359375,52.8300781 C71.3359375,50.7910156 72.4785156,49.4960938 74.2773438,49.4960938 C76.0527344,49.4960938 77.125,50.7089844 77.125,52.7128906 L77.125,53.1523438 L72.6191406,53.1523438 L72.6191406,53.2226562 C72.6601562,54.3417969 73.3105469,55.0507812 74.3183594,55.0507812 C75.0800781,55.0507812 75.6015625,54.7753906 75.8359375,54.2773438 Z M78.6367188,56 L78.6367188,49.6191406 L79.8496094,49.6191406 L79.8496094,50.6328125 L79.9433594,50.6328125 C80.2539062,49.9238281 80.9980469,49.4960938 81.9589844,49.4960938 C83.3828125,49.4960938 84.1855469,50.3515625 84.1855469,51.8691406 L84.1855469,56 L82.9257812,56 L82.9257812,52.1855469 C82.9257812,51.1601562 82.46875,50.6503906 81.53125,50.6503906 C80.5175781,50.6503906 79.8964844,51.2714844 79.8964844,52.2675781 L79.8964844,56 L78.6367188,56 Z M86.4003906,48.0722656 L87.6601562,48.0722656 L87.6601562,49.6484375 L89.0898438,49.6484375 L89.0898438,50.7089844 L87.6601562,50.7089844 L87.6601562,53.9902344 C87.6601562,54.6582031 87.9355469,54.9511719 88.5625,54.9511719 C88.7558594,54.9511719 88.8554688,54.9394531 89.03125,54.921875 L89.03125,55.9707031 C88.8320312,56.0058594 88.6035156,56.0351562 88.3574219,56.0351562 C86.9570312,56.0351562 86.4003906,55.5429688 86.4003906,54.3125 L86.4003906,50.7089844 L85.3515625,50.7089844 L85.3515625,49.6484375 L86.4003906,49.6484375 L86.4003906,48.0722656 Z M90.5488281,56 L90.5488281,49.6191406 L91.8027344,49.6191406 L91.8027344,56 L90.5488281,56 Z M91.1757812,48.5 C90.7070312,48.5 90.3613281,48.1660156 90.3613281,47.7324219 C90.3613281,47.2929688 90.7070312,46.9589844 91.1757812,46.9589844 C91.6445312,46.9589844 91.9902344,47.2929688 91.9902344,47.7324219 C91.9902344,48.1660156 91.6445312,48.5 91.1757812,48.5 Z M96.3496094,55.0039062 C97.4394531,55.0039062 98.0605469,54.1953125 98.0605469,52.8066406 C98.0605469,51.4238281 97.4394531,50.6152344 96.3496094,50.6152344 C95.2539062,50.6152344 94.6386719,51.4238281 94.6386719,52.8066406 C94.6386719,54.2011719 95.2539062,55.0039062 96.3496094,55.0039062 Z M96.3496094,56.1230469 C94.4804688,56.1230469 93.3378906,54.875 93.3378906,52.8066406 C93.3378906,50.75 94.4863281,49.4960938 96.3496094,49.4960938 C98.2070312,49.4960938 99.3554688,50.75 99.3554688,52.8066406 C99.3554688,54.875 98.2128906,56.1230469 96.3496094,56.1230469 Z M100.867188,56 L100.867188,49.6191406 L102.080078,49.6191406 L102.080078,50.6328125 L102.173828,50.6328125 C102.484375,49.9238281 103.228516,49.4960938 104.189453,49.4960938 C105.613281,49.4960938 106.416016,50.3515625 106.416016,51.8691406 L106.416016,56 L105.15625,56 L105.15625,52.1855469 C105.15625,51.1601562 104.699219,50.6503906 103.761719,50.6503906 C102.748047,50.6503906 102.126953,51.2714844 102.126953,52.2675781 L102.126953,56 L100.867188,56 Z M108.039062,51.4238281 C108.039062,50.2929688 109.076172,49.4960938 110.517578,49.4960938 C111.953125,49.4960938 112.890625,50.1640625 113.013672,51.2890625 L111.806641,51.2890625 C111.689453,50.8203125 111.232422,50.5214844 110.517578,50.5214844 C109.814453,50.5214844 109.28125,50.8554688 109.28125,51.3535156 C109.28125,51.734375 109.603516,51.9746094 110.294922,52.1328125 L111.355469,52.3789062 C112.568359,52.6601562 113.136719,53.1816406 113.136719,54.1191406 C113.136719,55.3203125 112.017578,56.1230469 110.494141,56.1230469 C108.976562,56.1230469 107.986328,55.4375 107.875,54.3066406 L109.134766,54.3066406 C109.292969,54.7988281 109.761719,55.1035156 110.523438,55.1035156 C111.308594,55.1035156 111.865234,54.7519531 111.865234,54.2421875 C111.865234,53.8613281 111.566406,53.6152344 110.927734,53.4628906 L109.814453,53.2050781 C108.601562,52.9179688 108.039062,52.3730469 108.039062,51.4238281 Z" id="Twitter-mentions" fill="#7B7194" fill-rule="evenodd"></path>
                    <rect id="Rectangle-9" fill="#DCD5EE" fill-rule="evenodd" x="16" y="72" width="96" height="12" rx="4"></rect>
                    <rect id="Rectangle-9" fill="#5182F8" fill-rule="evenodd" x="128" y="72" width="32" height="12" rx="4"></rect>
                    <path d="M22.2109375,32 L20.1953125,32 L20.1953125,22.46875 L16.7265625,22.46875 L16.7265625,20.7265625 L25.6875,20.7265625 L25.6875,22.46875 L22.2109375,22.46875 L22.2109375,32 Z M39.0390625,23.453125 L36.7265625,32 L34.6875,32 L33.0234375,25.84375 L32.890625,25.84375 L31.234375,32 L29.21875,32 L26.90625,23.453125 L28.859375,23.453125 L30.28125,29.8359375 L30.4140625,29.8359375 L32.0546875,23.453125 L33.90625,23.453125 L35.5625,29.8359375 L35.6953125,29.8359375 L37.109375,23.453125 L39.0390625,23.453125 Z M44.3125,24.8203125 C43.15625,24.8203125 42.34375,25.6484375 42.2578125,26.8984375 L46.28125,26.8984375 C46.2421875,25.6328125 45.4765625,24.8203125 44.3125,24.8203125 Z M46.296875,29.6484375 L48.1328125,29.6484375 C47.765625,31.203125 46.3515625,32.171875 44.3359375,32.171875 C41.8203125,32.171875 40.3046875,30.5078125 40.3046875,27.7578125 C40.3046875,25.0078125 41.84375,23.28125 44.3203125,23.28125 C46.7578125,23.28125 48.21875,24.8984375 48.21875,27.59375 L48.21875,28.21875 L42.25,28.21875 L42.25,28.3203125 C42.296875,29.7421875 43.1171875,30.6328125 44.390625,30.6328125 C45.3515625,30.6328125 46.015625,30.28125 46.296875,29.6484375 Z M53.75,24.8203125 C52.59375,24.8203125 51.78125,25.6484375 51.6953125,26.8984375 L55.71875,26.8984375 C55.6796875,25.6328125 54.9140625,24.8203125 53.75,24.8203125 Z M55.734375,29.6484375 L57.5703125,29.6484375 C57.203125,31.203125 55.7890625,32.171875 53.7734375,32.171875 C51.2578125,32.171875 49.7421875,30.5078125 49.7421875,27.7578125 C49.7421875,25.0078125 51.28125,23.28125 53.7578125,23.28125 C56.1953125,23.28125 57.65625,24.8984375 57.65625,27.59375 L57.65625,28.21875 L51.6875,28.21875 L51.6875,28.3203125 C51.734375,29.7421875 52.5546875,30.6328125 53.828125,30.6328125 C54.7890625,30.6328125 55.453125,30.28125 55.734375,29.6484375 Z M60.21875,21.4140625 L62.1484375,21.4140625 L62.1484375,23.5078125 L64.0234375,23.5078125 L64.0234375,25.0546875 L62.1484375,25.0546875 L62.1484375,29.25 C62.1484375,30.09375 62.5078125,30.46875 63.3203125,30.46875 C63.59375,30.46875 63.734375,30.453125 63.9609375,30.4296875 L63.9609375,31.9453125 C63.6875,32 63.3359375,32.0390625 62.9609375,32.0390625 C61,32.0390625 60.21875,31.375 60.21875,29.71875 L60.21875,25.0546875 L58.828125,25.0546875 L58.828125,23.5078125 L60.21875,23.5078125 L60.21875,21.4140625 Z M70.796875,32 L70.796875,25.0546875 L69.40625,25.0546875 L69.40625,23.5078125 L70.796875,23.5078125 L70.796875,22.65625 C70.796875,20.921875 71.6953125,20.21875 73.5703125,20.21875 C73.9140625,20.21875 74.25,20.25 74.59375,20.3046875 L74.59375,21.75 C74.421875,21.7109375 74.1328125,21.6875 73.8515625,21.6875 C73.09375,21.6875 72.6953125,22.015625 72.6953125,22.78125 L72.6953125,23.5078125 L74.546875,23.5078125 L74.546875,25.0546875 L72.7265625,25.0546875 L72.7265625,32 L70.796875,32 Z M76.4375,32 L76.4375,23.453125 L78.3046875,23.453125 L78.3046875,24.78125 L78.4375,24.78125 C78.671875,23.9375 79.5859375,23.3125 80.6796875,23.3125 C80.953125,23.3125 81.2890625,23.34375 81.4765625,23.3984375 L81.4765625,25.1953125 C81.328125,25.140625 80.796875,25.0859375 80.4921875,25.0859375 C79.25,25.0859375 78.375,25.8671875 78.375,27.0625 L78.375,32 L76.4375,32 Z M86.6875,30.546875 C88.0390625,30.546875 88.8046875,29.515625 88.8046875,27.7265625 C88.8046875,25.9453125 88.03125,24.90625 86.6875,24.90625 C85.3359375,24.90625 84.5625,25.9453125 84.5625,27.7265625 C84.5625,29.515625 85.3359375,30.546875 86.6875,30.546875 Z M86.6875,32.171875 C84.125,32.171875 82.578125,30.5 82.578125,27.7265625 C82.578125,24.96875 84.1484375,23.28125 86.6875,23.28125 C89.234375,23.28125 90.796875,24.9609375 90.796875,27.7265625 C90.796875,30.5 89.2421875,32.171875 86.6875,32.171875 Z M92.75,32 L92.75,23.453125 L94.6171875,23.453125 L94.6171875,24.8359375 L94.75,24.8359375 C95.1171875,23.859375 95.9921875,23.28125 97.125,23.28125 C98.3046875,23.28125 99.125,23.875 99.484375,24.8359375 L99.6171875,24.8359375 C100.039062,23.8984375 101.023438,23.28125 102.210938,23.28125 C103.921875,23.28125 104.953125,24.3515625 104.953125,26.125 L104.953125,32 L103.023438,32 L103.023438,26.6171875 C103.023438,25.515625 102.5,24.96875 101.460938,24.96875 C100.453125,24.96875 99.7890625,25.703125 99.7890625,26.6796875 L99.7890625,32 L97.90625,32 L97.90625,26.4765625 C97.90625,25.5390625 97.3125,24.96875 96.359375,24.96875 C95.3984375,24.96875 94.6875,25.7578125 94.6875,26.8046875 L94.6875,32 L92.75,32 Z M117.648438,25.3515625 C116.742188,25.3515625 116.203125,26.0703125 116.203125,27.28125 C116.203125,28.484375 116.75,29.2109375 117.640625,29.2109375 C118.5625,29.2109375 119.148438,28.46875 119.148438,27.28125 C119.148438,26.09375 118.570312,25.3515625 117.648438,25.3515625 Z M117.914062,20.7109375 C121.640625,20.7109375 124.203125,23.0703125 124.203125,26.5 C124.203125,29.0078125 123.039062,30.5859375 121.179688,30.5859375 C120.226562,30.5859375 119.515625,30.0859375 119.375,29.328125 L119.234375,29.328125 C118.90625,30.125 118.242188,30.546875 117.335938,30.546875 C115.710938,30.546875 114.625,29.21875 114.625,27.2421875 C114.625,25.34375 115.710938,24.03125 117.289062,24.03125 C118.117188,24.03125 118.804688,24.4453125 119.109375,25.140625 L119.25,25.140625 L119.25,24.1953125 L120.679688,24.1953125 L120.679688,28.5 C120.679688,29.0546875 120.96875,29.375 121.476562,29.375 C122.34375,29.375 122.890625,28.28125 122.890625,26.578125 C122.890625,23.75 120.867188,21.875 117.84375,21.875 C114.8125,21.875 112.679688,24.1015625 112.679688,27.2734375 C112.679688,30.5078125 114.796875,32.5625 118.125,32.5625 C119.046875,32.5625 119.976562,32.4375 120.429688,32.2578125 L120.429688,33.4296875 C119.78125,33.625 118.929688,33.7421875 118.046875,33.7421875 C113.992188,33.7421875 111.367188,31.1796875 111.367188,27.234375 C111.367188,23.3671875 114.03125,20.7109375 117.914062,20.7109375 Z M128.25,23.453125 L128.25,32.390625 C128.25,34.140625 127.289062,34.9921875 125.375,34.9921875 C125.273438,34.9921875 124.960938,34.984375 124.90625,34.9765625 L124.90625,33.4453125 C124.929688,33.453125 125.117188,33.453125 125.15625,33.453125 C126.015625,33.453125 126.320312,33.1328125 126.320312,32.359375 L126.320312,23.453125 L128.25,23.453125 Z M127.28125,22.0625 C126.578125,22.0625 126.085938,21.609375 126.085938,20.9921875 C126.085938,20.375 126.578125,19.921875 127.28125,19.921875 C127.992188,19.921875 128.476562,20.375 128.476562,20.9921875 C128.476562,21.609375 127.992188,22.0625 127.28125,22.0625 Z M130.726562,32 L130.726562,20.1484375 L132.632812,20.1484375 L132.632812,24.8359375 L132.773438,24.8359375 C133.179688,23.875 134.1875,23.296875 135.460938,23.296875 C137.375,23.296875 138.484375,24.453125 138.484375,26.484375 L138.484375,32 L136.554688,32 L136.554688,26.9453125 C136.554688,25.6484375 135.929688,24.984375 134.742188,24.984375 C133.46875,24.984375 132.664062,25.8125 132.664062,27.0390625 L132.664062,32 L130.726562,32 Z M148.398438,23.453125 L148.398438,32 L146.53125,32 L146.53125,30.640625 L146.398438,30.640625 C145.984375,31.6171875 145.015625,32.171875 143.75,32.171875 C141.867188,32.171875 140.703125,31.0078125 140.703125,28.984375 L140.703125,23.453125 L142.640625,23.453125 L142.640625,28.5234375 C142.640625,29.8359375 143.257812,30.46875 144.421875,30.46875 C145.671875,30.46875 146.460938,29.6953125 146.460938,28.4296875 L146.460938,23.453125 L148.398438,23.453125 Z" id="Tweet-from-@jhu" fill="#7B7194" fill-rule="evenodd"></path>
                </g>
            </g>
            <g id="Card" mask="url(#mask-2)">
                <g transform="translate(16.000000, 272.000000)">
                    <g id="component/card" fill="none">
                        <g id="Shadow">
                            <use fill="black" fill-opacity="1" filter="url(#filter-16)" xlink:href="#path-15"></use>
                            <use fill="#FFFFFF" fill-rule="evenodd" xlink:href="#path-15"></use>
                        </g>
                        <g id="Card" stroke-linecap="square">
                            <use fill="black" fill-opacity="1" filter="url(#filter-18)" xlink:href="#path-17"></use>
                            <rect stroke-opacity="0.098194067" stroke="#140B2F" stroke-width="1" fill="#FFFFFF" fill-rule="evenodd" x="-0.5" y="-0.5" width="177" height="121" rx="4"></rect>
                        </g>
                    </g>
                    <path d="M16.875,28.9375 L18.84375,28.9375 C18.96875,29.9453125 19.96875,30.59375 21.3984375,30.59375 C22.7265625,30.59375 23.6875,29.9140625 23.6875,28.96875 C23.6875,28.15625 23.0703125,27.6796875 21.625,27.34375 L20.1640625,27.0078125 C18.1171875,26.546875 17.15625,25.53125 17.15625,23.8515625 C17.15625,21.8046875 18.828125,20.4453125 21.3515625,20.4453125 C23.71875,20.4453125 25.4296875,21.8046875 25.5234375,23.7421875 L23.59375,23.7421875 C23.453125,22.75 22.578125,22.125 21.34375,22.125 C20.046875,22.125 19.1875,22.75 19.1875,23.7109375 C19.1875,24.46875 19.7578125,24.9140625 21.15625,25.234375 L22.453125,25.53125 C24.7421875,26.046875 25.703125,27 25.703125,28.71875 C25.703125,30.9140625 24.0078125,32.28125 21.2734375,32.28125 C18.6875,32.28125 16.9765625,30.984375 16.875,28.9375 Z M35.3828125,23.453125 L35.3828125,32 L33.515625,32 L33.515625,30.640625 L33.3828125,30.640625 C32.96875,31.6171875 32,32.171875 30.734375,32.171875 C28.8515625,32.171875 27.6875,31.0078125 27.6875,28.984375 L27.6875,23.453125 L29.625,23.453125 L29.625,28.5234375 C29.625,29.8359375 30.2421875,30.46875 31.40625,30.46875 C32.65625,30.46875 33.4453125,29.6953125 33.4453125,28.4296875 L33.4453125,23.453125 L35.3828125,23.453125 Z M42.4140625,23.3125 C44.578125,23.3125 45.9375,24.984375 45.9375,27.7265625 C45.9375,30.453125 44.59375,32.140625 42.4375,32.140625 C41.2109375,32.140625 40.265625,31.609375 39.828125,30.703125 L39.6953125,30.703125 L39.6953125,34.734375 L37.7578125,34.734375 L37.7578125,23.453125 L39.625,23.453125 L39.625,24.8671875 L39.7578125,24.8671875 C40.25,23.8984375 41.2421875,23.3125 42.4140625,23.3125 Z M41.8046875,30.4921875 C43.1484375,30.4921875 43.9453125,29.453125 43.9453125,27.7265625 C43.9453125,26 43.140625,24.9609375 41.8125,24.9609375 C40.4921875,24.9609375 39.6640625,26.0234375 39.65625,27.7265625 C39.6640625,29.4375 40.484375,30.4921875 41.8046875,30.4921875 Z M52.5390625,23.3125 C54.703125,23.3125 56.0625,24.984375 56.0625,27.7265625 C56.0625,30.453125 54.71875,32.140625 52.5625,32.140625 C51.3359375,32.140625 50.390625,31.609375 49.953125,30.703125 L49.8203125,30.703125 L49.8203125,34.734375 L47.8828125,34.734375 L47.8828125,23.453125 L49.75,23.453125 L49.75,24.8671875 L49.8828125,24.8671875 C50.375,23.8984375 51.3671875,23.3125 52.5390625,23.3125 Z M51.9296875,30.4921875 C53.2734375,30.4921875 54.0703125,29.453125 54.0703125,27.7265625 C54.0703125,26 53.265625,24.9609375 51.9375,24.9609375 C50.6171875,24.9609375 49.7890625,26.0234375 49.78125,27.7265625 C49.7890625,29.4375 50.609375,30.4921875 51.9296875,30.4921875 Z M61.6953125,30.546875 C63.046875,30.546875 63.8125,29.515625 63.8125,27.7265625 C63.8125,25.9453125 63.0390625,24.90625 61.6953125,24.90625 C60.34375,24.90625 59.5703125,25.9453125 59.5703125,27.7265625 C59.5703125,29.515625 60.34375,30.546875 61.6953125,30.546875 Z M61.6953125,32.171875 C59.1328125,32.171875 57.5859375,30.5 57.5859375,27.7265625 C57.5859375,24.96875 59.15625,23.28125 61.6953125,23.28125 C64.2421875,23.28125 65.8046875,24.9609375 65.8046875,27.7265625 C65.8046875,30.5 64.25,32.171875 61.6953125,32.171875 Z M67.7578125,32 L67.7578125,23.453125 L69.625,23.453125 L69.625,24.78125 L69.7578125,24.78125 C69.9921875,23.9375 70.90625,23.3125 72,23.3125 C72.2734375,23.3125 72.609375,23.34375 72.796875,23.3984375 L72.796875,25.1953125 C72.6484375,25.140625 72.1171875,25.0859375 71.8125,25.0859375 C70.5703125,25.0859375 69.6953125,25.8671875 69.6953125,27.0625 L69.6953125,32 L67.7578125,32 Z M74.9375,21.4140625 L76.8671875,21.4140625 L76.8671875,23.5078125 L78.7421875,23.5078125 L78.7421875,25.0546875 L76.8671875,25.0546875 L76.8671875,29.25 C76.8671875,30.09375 77.2265625,30.46875 78.0390625,30.46875 C78.3125,30.46875 78.453125,30.453125 78.6796875,30.4296875 L78.6796875,31.9453125 C78.40625,32 78.0546875,32.0390625 77.6796875,32.0390625 C75.71875,32.0390625 74.9375,31.375 74.9375,29.71875 L74.9375,25.0546875 L73.546875,25.0546875 L73.546875,23.5078125 L74.9375,23.5078125 L74.9375,21.4140625 Z M85.515625,21.4140625 L87.4453125,21.4140625 L87.4453125,23.5078125 L89.3203125,23.5078125 L89.3203125,25.0546875 L87.4453125,25.0546875 L87.4453125,29.25 C87.4453125,30.09375 87.8046875,30.46875 88.6171875,30.46875 C88.890625,30.46875 89.03125,30.453125 89.2578125,30.4296875 L89.2578125,31.9453125 C88.984375,32 88.6328125,32.0390625 88.2578125,32.0390625 C86.296875,32.0390625 85.515625,31.375 85.515625,29.71875 L85.515625,25.0546875 L84.125,25.0546875 L84.125,23.5078125 L85.515625,23.5078125 L85.515625,21.4140625 Z M91.234375,32 L91.234375,23.453125 L93.1640625,23.453125 L93.1640625,32 L91.234375,32 Z M92.1953125,22.0625 C91.4921875,22.0625 91,21.609375 91,20.9921875 C91,20.375 91.4921875,19.921875 92.1953125,19.921875 C92.90625,19.921875 93.390625,20.375 93.390625,20.9921875 C93.390625,21.609375 92.90625,22.0625 92.1953125,22.0625 Z M102.945312,26.328125 L101.101562,26.328125 C100.921875,25.5 100.28125,24.90625 99.21875,24.90625 C97.890625,24.90625 97.1015625,25.9296875 97.1015625,27.703125 C97.1015625,29.5 97.8984375,30.546875 99.21875,30.546875 C100.226562,30.546875 100.898438,30.0703125 101.101562,29.1796875 L102.945312,29.1796875 C102.734375,30.96875 101.390625,32.171875 99.2265625,32.171875 C96.65625,32.171875 95.140625,30.515625 95.140625,27.703125 C95.140625,24.9296875 96.6484375,23.28125 99.21875,23.28125 C101.414062,23.28125 102.742188,24.53125 102.945312,26.328125 Z M106.945312,26.9375 L110.101562,23.453125 L112.351562,23.453125 L108.945312,27.1171875 L112.585938,32 L110.242188,32 L107.5,28.3359375 L106.8125,29.0234375 L106.8125,32 L104.875,32 L104.875,20.1484375 L106.8125,20.1484375 L106.8125,26.9375 L106.945312,26.9375 Z M117.664062,24.8203125 C116.507812,24.8203125 115.695312,25.6484375 115.609375,26.8984375 L119.632812,26.8984375 C119.59375,25.6328125 118.828125,24.8203125 117.664062,24.8203125 Z M119.648438,29.6484375 L121.484375,29.6484375 C121.117188,31.203125 119.703125,32.171875 117.6875,32.171875 C115.171875,32.171875 113.65625,30.5078125 113.65625,27.7578125 C113.65625,25.0078125 115.195312,23.28125 117.671875,23.28125 C120.109375,23.28125 121.570312,24.8984375 121.570312,27.59375 L121.570312,28.21875 L115.601562,28.21875 L115.601562,28.3203125 C115.648438,29.7421875 116.46875,30.6328125 117.742188,30.6328125 C118.703125,30.6328125 119.367188,30.28125 119.648438,29.6484375 Z M124.132812,21.4140625 L126.0625,21.4140625 L126.0625,23.5078125 L127.9375,23.5078125 L127.9375,25.0546875 L126.0625,25.0546875 L126.0625,29.25 C126.0625,30.09375 126.421875,30.46875 127.234375,30.46875 C127.507812,30.46875 127.648438,30.453125 127.875,30.4296875 L127.875,31.9453125 C127.601562,32 127.25,32.0390625 126.875,32.0390625 C124.914062,32.0390625 124.132812,31.375 124.132812,29.71875 L124.132812,25.0546875 L122.742188,25.0546875 L122.742188,23.5078125 L124.132812,23.5078125 L124.132812,21.4140625 Z" id="Support-ticket" fill="#7B7194" fill-rule="evenodd"></path>
                </g>
            </g>
            <g id="Card" mask="url(#mask-2)">
                <g transform="translate(208.000000, 72.000000)">
                    <g id="component/card" fill="none">
                        <g id="Shadow">
                            <use fill="black" fill-opacity="1" filter="url(#filter-20)" xlink:href="#path-19"></use>
                            <use fill="#FFFFFF" fill-rule="evenodd" xlink:href="#path-19"></use>
                        </g>
                        <g id="Card" stroke-linecap="square">
                            <use fill="black" fill-opacity="1" filter="url(#filter-22)" xlink:href="#path-21"></use>
                            <rect stroke-opacity="0.098194067" stroke="#140B2F" stroke-width="1" fill="#FFFFFF" fill-rule="evenodd" x="-0.5" y="-0.5" width="177" height="129" rx="4"></rect>
                        </g>
                    </g>
                    <path d="M24.109375,31.8515625 L23.15625,28.96875 L19.0078125,28.96875 L18.0390625,31.8515625 L16,31.8515625 L20,20.578125 L22.265625,20.578125 L26.2734375,31.8515625 L24.109375,31.8515625 Z M21.0234375,22.7265625 L19.4765625,27.375 L22.6875,27.375 L21.15625,22.7265625 L21.0234375,22.7265625 Z M31.1015625,31.9921875 C28.9375,31.9921875 27.5859375,30.2890625 27.5859375,27.5703125 C27.5859375,24.8671875 28.9453125,23.1640625 31.1015625,23.1640625 C32.2734375,23.1640625 33.2421875,23.7265625 33.6953125,24.6640625 L33.828125,24.6640625 L33.828125,20 L35.765625,20 L35.765625,31.8515625 L33.890625,31.8515625 L33.890625,30.5 L33.7578125,30.5 C33.2734375,31.4375 32.2890625,31.9921875 31.1015625,31.9921875 Z M31.703125,24.8125 C30.3828125,24.8125 29.5703125,25.859375 29.5703125,27.578125 C29.5703125,29.3046875 30.375,30.34375 31.703125,30.34375 C33.0390625,30.34375 33.8515625,29.296875 33.8515625,27.578125 C33.8515625,25.875 33.03125,24.8125 31.703125,24.8125 Z M41.1328125,30.46875 C42.3046875,30.46875 43.1796875,29.7109375 43.1796875,28.71875 L43.1796875,28.0390625 L41.25,28.1640625 C40.1640625,28.234375 39.65625,28.625 39.65625,29.3203125 C39.65625,30.0390625 40.2734375,30.46875 41.1328125,30.46875 Z M40.5625,31.9921875 C38.9140625,31.9921875 37.734375,30.9921875 37.734375,29.4296875 C37.734375,27.8828125 38.8984375,26.9921875 40.9765625,26.8671875 L43.1796875,26.734375 L43.1796875,26.015625 C43.1796875,25.1796875 42.6171875,24.7109375 41.5703125,24.7109375 C40.6796875,24.7109375 40.0703125,25.0234375 39.890625,25.6015625 L38.0625,25.6015625 C38.21875,24.09375 39.6328125,23.1328125 41.6640625,23.1328125 C43.859375,23.1328125 45.09375,24.203125 45.09375,26.015625 L45.09375,31.8515625 L43.2265625,31.8515625 L43.2265625,30.6796875 L43.09375,30.6796875 C42.6171875,31.5078125 41.6796875,31.9921875 40.5625,31.9921875 Z M47.421875,31.8515625 L47.421875,23.3046875 L49.2890625,23.3046875 L49.2890625,24.6875 L49.421875,24.6875 C49.7890625,23.7109375 50.6640625,23.1328125 51.796875,23.1328125 C52.9765625,23.1328125 53.796875,23.7265625 54.15625,24.6875 L54.2890625,24.6875 C54.7109375,23.75 55.6953125,23.1328125 56.8828125,23.1328125 C58.59375,23.1328125 59.625,24.203125 59.625,25.9765625 L59.625,31.8515625 L57.6953125,31.8515625 L57.6953125,26.46875 C57.6953125,25.3671875 57.171875,24.8203125 56.1328125,24.8203125 C55.125,24.8203125 54.4609375,25.5546875 54.4609375,26.53125 L54.4609375,31.8515625 L52.578125,31.8515625 L52.578125,26.328125 C52.578125,25.390625 51.984375,24.8203125 51.03125,24.8203125 C50.0703125,24.8203125 49.359375,25.609375 49.359375,26.65625 L49.359375,31.8515625 L47.421875,31.8515625 Z M72.890625,23.8671875 L70.609375,31.8515625 L68.7109375,31.8515625 L65.6875,20.578125 L67.7890625,20.578125 L69.71875,28.96875 L69.8359375,28.96875 L72.0546875,20.578125 L73.84375,20.578125 L76.09375,28.96875 L76.203125,28.96875 L78.1328125,20.578125 L80.21875,20.578125 L77.1953125,31.8515625 L75.3046875,31.8515625 L73.0078125,23.8671875 L72.890625,23.8671875 Z" id="Adam-W" fill="#7B7194" fill-rule="evenodd"></path>
                    <path d="M17.3125,47.3964844 L17.3125,52.8222656 C17.3125,54.0058594 18.0800781,54.8261719 19.421875,54.8261719 C20.7695312,54.8261719 21.5371094,54.0058594 21.5371094,52.8222656 L21.5371094,47.3964844 L22.8496094,47.3964844 L22.8496094,52.9394531 C22.8496094,54.7734375 21.5429688,56.0566406 19.421875,56.0566406 C17.3007812,56.0566406 16,54.7734375 16,52.9394531 L16,47.3964844 L17.3125,47.3964844 Z M24.6953125,51.2753906 C24.6953125,50.1445312 25.7324219,49.3476562 27.1738281,49.3476562 C28.609375,49.3476562 29.546875,50.015625 29.6699219,51.140625 L28.4628906,51.140625 C28.3457031,50.671875 27.8886719,50.3730469 27.1738281,50.3730469 C26.4707031,50.3730469 25.9375,50.7070312 25.9375,51.2050781 C25.9375,51.5859375 26.2597656,51.8261719 26.9511719,51.984375 L28.0117188,52.2304688 C29.2246094,52.5117188 29.7929688,53.0332031 29.7929688,53.9707031 C29.7929688,55.171875 28.6738281,55.9746094 27.1503906,55.9746094 C25.6328125,55.9746094 24.6425781,55.2890625 24.53125,54.1582031 L25.7910156,54.1582031 C25.9492188,54.6503906 26.4179688,54.9550781 27.1796875,54.9550781 C27.9648438,54.9550781 28.5214844,54.6035156 28.5214844,54.09375 C28.5214844,53.7128906 28.2226562,53.4667969 27.5839844,53.3144531 L26.4707031,53.0566406 C25.2578125,52.7695312 24.6953125,52.2246094 24.6953125,51.2753906 Z M33.3964844,54.8964844 C34.3457031,54.8964844 35.0488281,54.2929688 35.0488281,53.5019531 L35.0488281,52.96875 L33.4902344,53.0683594 C32.6113281,53.1269531 32.2128906,53.4257812 32.2128906,53.9882812 C32.2128906,54.5625 32.7109375,54.8964844 33.3964844,54.8964844 Z M33.0742188,55.9570312 C31.84375,55.9570312 30.9472656,55.2128906 30.9472656,54.046875 C30.9472656,52.8984375 31.8027344,52.2363281 33.3203125,52.1425781 L35.0488281,52.0429688 L35.0488281,51.4921875 C35.0488281,50.8183594 34.6035156,50.4375 33.7421875,50.4375 C33.0390625,50.4375 32.5527344,50.6953125 32.4121094,51.1464844 L31.1933594,51.1464844 C31.3222656,50.0507812 32.3535156,49.3476562 33.8007812,49.3476562 C35.4003906,49.3476562 36.3027344,50.1445312 36.3027344,51.4921875 L36.3027344,55.8515625 L35.0898438,55.8515625 L35.0898438,54.9550781 L34.9902344,54.9550781 C34.609375,55.59375 33.9121094,55.9570312 33.0742188,55.9570312 Z M41.4765625,55.9570312 C40.5859375,55.9570312 39.8417969,55.546875 39.4609375,54.84375 L39.3671875,54.84375 L39.3671875,55.8515625 L38.1542969,55.8515625 L38.1542969,46.9804688 L39.4140625,46.9804688 L39.4140625,50.484375 L39.5136719,50.484375 C39.8535156,49.7871094 40.6035156,49.3652344 41.4765625,49.3652344 C43.09375,49.3652344 44.1132812,50.6308594 44.1132812,52.6582031 C44.1132812,54.6796875 43.0878906,55.9570312 41.4765625,55.9570312 Z M41.1132812,50.4960938 C40.0585938,50.4960938 39.3964844,51.328125 39.390625,52.6640625 C39.3964844,54 40.0527344,54.8261719 41.1132812,54.8261719 C42.1796875,54.8261719 42.8183594,54.0117188 42.8183594,52.6582031 C42.8183594,51.3164062 42.1796875,50.4960938 41.1132812,50.4960938 Z M45.6484375,55.8515625 L45.6484375,49.4707031 L46.9023438,49.4707031 L46.9023438,55.8515625 L45.6484375,55.8515625 Z M46.2753906,48.3515625 C45.8066406,48.3515625 45.4609375,48.0175781 45.4609375,47.5839844 C45.4609375,47.1445312 45.8066406,46.8105469 46.2753906,46.8105469 C46.7441406,46.8105469 47.0898438,47.1445312 47.0898438,47.5839844 C47.0898438,48.0175781 46.7441406,48.3515625 46.2753906,48.3515625 Z M48.8125,55.8515625 L48.8125,46.9804688 L50.0722656,46.9804688 L50.0722656,55.8515625 L48.8125,55.8515625 Z M51.9824219,55.8515625 L51.9824219,49.4707031 L53.2363281,49.4707031 L53.2363281,55.8515625 L51.9824219,55.8515625 Z M52.609375,48.3515625 C52.140625,48.3515625 51.7949219,48.0175781 51.7949219,47.5839844 C51.7949219,47.1445312 52.140625,46.8105469 52.609375,46.8105469 C53.078125,46.8105469 53.4238281,47.1445312 53.4238281,47.5839844 C53.4238281,48.0175781 53.078125,48.3515625 52.609375,48.3515625 Z M55.5332031,47.9238281 L56.7929688,47.9238281 L56.7929688,49.5 L58.2226562,49.5 L58.2226562,50.5605469 L56.7929688,50.5605469 L56.7929688,53.8417969 C56.7929688,54.5097656 57.0683594,54.8027344 57.6953125,54.8027344 C57.8886719,54.8027344 57.9882812,54.7910156 58.1640625,54.7734375 L58.1640625,55.8222656 C57.9648438,55.8574219 57.7363281,55.8867188 57.4902344,55.8867188 C56.0898438,55.8867188 55.5332031,55.3945312 55.5332031,54.1640625 L55.5332031,50.5605469 L54.484375,50.5605469 L54.484375,49.5 L55.5332031,49.5 L55.5332031,47.9238281 Z M60.2910156,58.171875 C60.1855469,58.171875 59.8867188,58.1660156 59.7695312,58.1425781 L59.7695312,57.0585938 C59.8691406,57.0761719 60.0625,57.0820312 60.1796875,57.0820312 C60.7773438,57.0820312 61.1171875,56.8300781 61.3339844,56.1855469 L61.4277344,55.875 L59.1191406,49.4707031 L60.4902344,49.4707031 L62.0898438,54.5390625 L62.1894531,54.5390625 L63.7832031,49.4707031 L65.1191406,49.4707031 L62.7402344,56.1152344 C62.1953125,57.6679688 61.5917969,58.171875 60.2910156,58.171875 Z M70.1347656,47.9238281 L71.3945312,47.9238281 L71.3945312,49.5 L72.8242188,49.5 L72.8242188,50.5605469 L71.3945312,50.5605469 L71.3945312,53.8417969 C71.3945312,54.5097656 71.6699219,54.8027344 72.296875,54.8027344 C72.4902344,54.8027344 72.5898438,54.7910156 72.765625,54.7734375 L72.765625,55.8222656 C72.5664062,55.8574219 72.3378906,55.8867188 72.0917969,55.8867188 C70.6914062,55.8867188 70.1347656,55.3945312 70.1347656,54.1640625 L70.1347656,50.5605469 L69.0859375,50.5605469 L69.0859375,49.5 L70.1347656,49.5 L70.1347656,47.9238281 Z M76.8789062,50.4199219 C75.9472656,50.4199219 75.296875,51.0761719 75.2265625,52.0722656 L78.4492188,52.0722656 C78.4199219,51.0703125 77.8105469,50.4199219 76.8789062,50.4199219 Z M78.4433594,54.1289062 L79.65625,54.1289062 C79.3691406,55.2714844 78.3496094,55.9746094 76.890625,55.9746094 C75.0625,55.9746094 73.9433594,54.7207031 73.9433594,52.6816406 C73.9433594,50.6425781 75.0859375,49.3476562 76.8847656,49.3476562 C78.6601562,49.3476562 79.7324219,50.5605469 79.7324219,52.5644531 L79.7324219,53.0039062 L75.2265625,53.0039062 L75.2265625,53.0742188 C75.2675781,54.1933594 75.9179688,54.9023438 76.9257812,54.9023438 C77.6875,54.9023438 78.2089844,54.6269531 78.4433594,54.1289062 Z M81.0976562,51.2753906 C81.0976562,50.1445312 82.1347656,49.3476562 83.5761719,49.3476562 C85.0117188,49.3476562 85.9492188,50.015625 86.0722656,51.140625 L84.8652344,51.140625 C84.7480469,50.671875 84.2910156,50.3730469 83.5761719,50.3730469 C82.8730469,50.3730469 82.3398438,50.7070312 82.3398438,51.2050781 C82.3398438,51.5859375 82.6621094,51.8261719 83.3535156,51.984375 L84.4140625,52.2304688 C85.6269531,52.5117188 86.1953125,53.0332031 86.1953125,53.9707031 C86.1953125,55.171875 85.0761719,55.9746094 83.5527344,55.9746094 C82.0351562,55.9746094 81.0449219,55.2890625 80.9335938,54.1582031 L82.1933594,54.1582031 C82.3515625,54.6503906 82.8203125,54.9550781 83.5820312,54.9550781 C84.3671875,54.9550781 84.9238281,54.6035156 84.9238281,54.09375 C84.9238281,53.7128906 84.625,53.4667969 83.9863281,53.3144531 L82.8730469,53.0566406 C81.6601562,52.7695312 81.0976562,52.2246094 81.0976562,51.2753906 Z M88.1582031,47.9238281 L89.4179688,47.9238281 L89.4179688,49.5 L90.8476562,49.5 L90.8476562,50.5605469 L89.4179688,50.5605469 L89.4179688,53.8417969 C89.4179688,54.5097656 89.6933594,54.8027344 90.3203125,54.8027344 C90.5136719,54.8027344 90.6132812,54.7910156 90.7890625,54.7734375 L90.7890625,55.8222656 C90.5898438,55.8574219 90.3613281,55.8867188 90.1152344,55.8867188 C88.7148438,55.8867188 88.1582031,55.3945312 88.1582031,54.1640625 L88.1582031,50.5605469 L87.109375,50.5605469 L87.109375,49.5 L88.1582031,49.5 L88.1582031,47.9238281 Z M92.1367188,51.2753906 C92.1367188,50.1445312 93.1738281,49.3476562 94.6152344,49.3476562 C96.0507812,49.3476562 96.9882812,50.015625 97.1113281,51.140625 L95.9042969,51.140625 C95.7871094,50.671875 95.3300781,50.3730469 94.6152344,50.3730469 C93.9121094,50.3730469 93.3789062,50.7070312 93.3789062,51.2050781 C93.3789062,51.5859375 93.7011719,51.8261719 94.3925781,51.984375 L95.453125,52.2304688 C96.6660156,52.5117188 97.234375,53.0332031 97.234375,53.9707031 C97.234375,55.171875 96.1152344,55.9746094 94.5917969,55.9746094 C93.0742188,55.9746094 92.0839844,55.2890625 91.9726562,54.1582031 L93.2324219,54.1582031 C93.390625,54.6503906 93.859375,54.9550781 94.6210938,54.9550781 C95.40625,54.9550781 95.9628906,54.6035156 95.9628906,54.09375 C95.9628906,53.7128906 95.6640625,53.4667969 95.0253906,53.3144531 L93.9121094,53.0566406 C92.6992188,52.7695312 92.1367188,52.2246094 92.1367188,51.2753906 Z" id="Usability-tests" fill="#7B7194" fill-rule="evenodd"></path>
                    <rect id="Rectangle-9" fill="#DCD5EE" fill-rule="evenodd" x="16" y="72" width="56" height="12" rx="4"></rect>
                    <rect id="Rectangle-9" fill="#DCD5EE" fill-rule="evenodd" x="16" y="100" width="144" height="12" rx="4"></rect>
                    <rect id="Rectangle-9" fill="#F84F77" fill-rule="evenodd" x="88" y="72" width="72" height="12" rx="4"></rect>
                </g>
            </g>
            <rect id="Rectangle-2" fill="url(#linearGradient-23)" fill-rule="nonzero" mask="url(#mask-2)" x="0" y="0" width="400" height="320"></rect>
        </g>
    </g>
</svg>