<?xml version="1.0" encoding="UTF-8"?>
<svg width="400px" height="320px" viewBox="0 0 400 320" version="1.1" xmlns="http://www.w3.org/2000/svg" xmlns:xlink="http://www.w3.org/1999/xlink">
    <!-- Generator: Sketch 49.3 (51167) - http://www.bohemiancoding.com/sketch -->
    <title>snippet/security</title>
    <desc>Created with Sketch.</desc>
    <defs>
        <linearGradient x1="53.6032737%" y1="58.5560331%" x2="60.8528968%" y2="93.4465698%" id="linearGradient-1">
            <stop stop-color="#332DB2" stop-opacity="0.2" offset="0%"></stop>
            <stop stop-color="#332DB2" offset="100%"></stop>
        </linearGradient>
    </defs>
    <g id="snippet/security" stroke="none" stroke-width="1" fill="none" fill-rule="evenodd">
        <g id="Group" transform="translate(91.000000, 16.000000)">
            <g transform="translate(0.000000, 29.617021)" fill-rule="nonzero" id="Shape">
                <path d="M38.2075029,0.0995744681 C38.2713951,0.865531915 38.3301758,1.63148936 38.3301758,2.42553191 C38.3301758,18.48 24.9230481,31.4961702 8.38520516,31.4961702 C5.54915895,31.492302 2.72730309,31.0962014 2.84217094e-14,30.3191489 L2.84217094e-14,152.170213 C2.84217094e-14,176.93617 13.1183353,199.965957 34.7266589,213.132766 L109,258.382979 L109,0.0995744681 L38.2075029,0.0995744681 Z" fill="#97B4FB"></path>
                <path d="M179.792497,0.0995744681 C179.728605,0.865531915 179.669824,1.63148936 179.669824,2.42553191 C179.669824,18.48 193.076952,31.4961702 209.614795,31.4961702 C212.450841,31.492302 215.272697,31.0962014 218,30.3191489 L218,152.170213 C218,176.93617 204.881665,199.965957 183.273341,213.132766 L109,258.382979 L109,0.0995744681 L179.792497,0.0995744681 Z" fill="#B9CDFC"></path>
            </g>
            <path d="M12.2672919,66.3370213 C27.7470809,64.68 40.2546073,53.2493617 43.1374209,38.5302128" id="Shape" stroke="#FFFFFF" stroke-width="2" opacity="0.5" stroke-linecap="round" stroke-linejoin="round" stroke-dasharray="0"></path>
            <path d="M50.1681125,35.147234 L171.10061,35.147234" id="Shape" stroke="#FFFFFF" stroke-width="2" opacity="0.5" stroke-linecap="round" stroke-linejoin="round" stroke-dasharray="0"></path>
            <path d="M175.680399,41.8468085 C179.981618,55.9685106 193.314631,66.3370213 209.139437,66.5412766" id="Shape" stroke="#FFFFFF" stroke-width="2" opacity="0.5" stroke-linecap="round" stroke-linejoin="round" stroke-dasharray="0"></path>
            <path d="M212.556389,72.9268085 L212.556389,181.787234 C212.556389,204.804255 200.544666,225.860426 180.43653,238.115745 L111.780586,279.942128" id="Shape" stroke="#FFFFFF" stroke-width="2" opacity="0.5" stroke-linecap="round" stroke-linejoin="round" stroke-dasharray="0"></path>
            <path d="M103.441383,278.249362 L37.5685815,238.108085 C17.4502227,225.852766 5.44361079,204.796596 5.44361079,181.787234 L5.44361079,69.6740426" id="Shape" stroke="#FFFFFF" stroke-width="2" opacity="0.5" stroke-linecap="round" stroke-linejoin="round" stroke-dasharray="0"></path>
            <path d="M164.03925,128.724255 L51.3692849,128.724255 L51.3692849,56.213617 C51.3692849,25.2178723 76.6296835,0 107.6966,0 C138.763517,0 164.03925,25.2178723 164.03925,56.2161702 L164.03925,128.724255 Z M67.6898945,112.43234 L147.71864,112.43234 L147.71864,56.2161702 C147.71864,34.2025532 129.770059,16.2919149 107.706823,16.2919149 C85.6435873,16.2919149 67.6847831,34.212766 67.6847831,56.2161702 L67.6898945,112.43234 Z" id="Shape" fill="#B7BDF7" fill-rule="nonzero"></path>
            <g opacity="0.29" transform="translate(105.294256, 0.000000)" fill="#E4E6F9" fill-rule="nonzero" id="Shape">
                <path d="M2.40234467,0 C1.61263775,0 0.828042204,0.0204255319 0.0434466589,0.0536170213 C30.0216413,1.29191489 54.0271981,26.0068085 54.0271981,56.2238298 L54.0271981,128.734468 L58.7449941,128.734468 L58.7449941,56.2238298 C58.7449941,25.2178723 33.4794842,0 2.40234467,0 Z"></path>
            </g>
            <polygon id="Shape" fill="#5E50E2" fill-rule="nonzero" opacity="0.23" style="mix-blend-mode: multiply;" points="147.710973 70.0876596 147.710973 112.43234 67.6847831 112.43234 67.6847831 70.0876596 51.3565064 70.0876596 51.3565064 128.724255 164.03925 128.724255 164.03925 70.0876596"></polygon>
            <g opacity="0.36" transform="translate(51.369285, 0.000000)" fill="#5E50E2" fill-rule="nonzero" id="Shape">
                <path d="M5.70173505,58.6595745 C5.70173505,27.6612766 30.9774678,2.44340426 62.0443845,2.44340426 C68.59572,2.43748304 75.0975298,3.5772352 81.2554748,5.81106383 C73.5059531,1.97914998 64.9741217,-0.00972597631 56.3273154,-6.34954871e-15 C25.2603986,-9.07090971e-16 0,25.2178723 0,56.2161702 L0,128.726809 L5.71451348,128.726809 L5.70173505,58.6595745 Z M96.3493552,56.2161702 L96.3493552,112.43234 L22.0325674,112.43234 L22.0325674,114.875745 L102.056202,114.875745 L102.056202,58.6595745 C102.056202,41.1165957 90.6527315,26.1931915 74.8585932,20.8493617 C88.0510618,27.7252841 96.330645,41.3507867 96.3493552,56.2161702 Z"></path>
            </g>
            <path d="M38.4119578,82.2868085 L155.973505,82.2867605 L155.973505,202.797447 C155.969274,218.472065 143.251877,231.178193 127.561946,231.18383 L65.7450176,231.18383 C58.2053213,231.186539 50.9735033,228.196228 45.6411741,222.871019 C40.3088448,217.545809 37.3130124,210.322125 37.3130129,202.789787 L37.3130129,83.3719149 C37.3136811,83.0821142 37.4300877,82.804563 37.6364044,82.6008443 C37.8427212,82.3971256 38.121886,82.2840866 38.4119578,82.2868085 Z" id="Shape" fill="#332DB2" fill-rule="nonzero"></path>
            <path d="M38.4119578,82.2868085 L155.973505,82.2867605 L155.973505,202.797447 C155.969274,218.472065 143.251877,231.178193 127.561946,231.18383 L65.7450176,231.18383 C58.2053213,231.186539 50.9735033,228.196228 45.6411741,222.871019 C40.3088448,217.545809 37.3130124,210.322125 37.3130129,202.789787 L37.3130129,83.3719149 C37.3136811,83.0821142 37.4300877,82.804563 37.6364044,82.6008443 C37.8427212,82.3971256 38.121886,82.2840866 38.4119578,82.2868085 Z" id="Shape" fill="url(#linearGradient-1)" fill-rule="nonzero" style="mix-blend-mode: multiply;"></path>
            <path d="M59.6420399,82.2868085 L176.127644,82.2868085 C176.728928,82.2868085 177.216366,82.7737703 177.216366,83.3744681 L177.216366,202.789787 C177.216366,210.320356 174.221937,217.542491 168.891819,222.867407 C163.561701,228.192323 156.332509,231.18383 148.794584,231.18383 L86.9750996,231.18383 C71.2781829,231.18383 58.5533177,218.471384 58.5533177,202.789787 L58.5533177,83.3719149 C58.5547268,82.7722144 59.0417519,82.2868069 59.6420399,82.2868085 Z" id="Shape" fill="#5E50E2" fill-rule="nonzero"></path>
            <path d="M59.6420399,82.2868085 L176.127644,82.2868085 C176.728928,82.2868085 177.216366,82.7737703 177.216366,83.3744681 L177.216366,202.789787 C177.216366,210.320356 174.221937,217.542491 168.891819,222.867407 C163.561701,228.192323 156.332509,231.18383 148.794584,231.18383 L86.9750996,231.18383 C71.2781829,231.18383 58.5533177,218.471384 58.5533177,202.789787 L58.5533177,83.3719149 C58.5547268,82.7722144 59.0417519,82.2868069 59.6420399,82.2868085 Z" id="Shape" fill="#5E50E2" fill-rule="nonzero"></path>
            <path d="M48.802095,102.894897 L163.98941,102.894897 C170.087614,102.895573 175.935558,105.317408 180.245721,109.627195 C184.555884,113.936983 186.974884,119.781371 186.970137,125.873621 L186.970137,187.612344 C186.970137,200.293272 176.680171,210.573195 163.986855,210.573195 L48.802095,210.573195 L48.802095,102.894897 Z" id="Shape" stroke="#332DB2" stroke-width="2.13" transform="translate(117.886120, 156.734046) rotate(90.000000) translate(-117.886120, -156.734046) "></path>
            <path d="M133.940938,151.340426 C133.940938,142.914894 126.685346,136.07234 117.73789,136.07234 C108.790434,136.07234 101.537397,142.907234 101.537397,151.340426 C101.556131,155.575201 103.388766,159.599346 106.572098,162.395745 C108.040807,163.680027 108.692258,165.661832 108.27163,167.565957 L102.968581,190.544681 C102.901347,190.846084 102.974229,191.161695 103.166837,191.403212 C103.359445,191.644729 103.651094,191.786215 103.960188,191.788085 L131.515592,191.788085 C131.825134,191.786985 132.117507,191.645824 132.310696,191.404202 C132.503885,191.162579 132.577082,190.846519 132.509754,190.544681 L127.206706,167.565957 C126.785465,165.662307 127.435907,163.68059 128.903681,162.395745 C132.087962,159.599813 133.921557,155.575603 133.940938,151.340426 Z" id="Shape" fill="#1A1A84" fill-rule="nonzero"></path>
            <path d="M127.206706,167.565957 C126.785465,165.662307 127.435907,163.68059 128.903681,162.395745 C132.087962,159.599813 133.921557,155.575603 133.940938,151.340426 C133.940938,142.914894 126.685346,136.07234 117.73789,136.07234 C116.764655,136.075368 115.793428,136.16078 114.834631,136.32766 C122.396905,137.617021 128.124197,143.846809 128.124197,151.345532 C128.105463,155.580308 126.272828,159.604453 123.089496,162.400851 C121.624478,163.685271 120.97522,165.664409 121.395076,167.565957 L126.698124,190.544681 C126.765359,190.846084 126.692477,191.161695 126.499869,191.403212 C126.307261,191.644729 126.015612,191.786215 125.706518,191.788085 L131.515592,191.788085 C131.825134,191.786985 132.117507,191.645824 132.310696,191.404202 C132.503885,191.162579 132.577082,190.846519 132.509754,190.544681 L127.206706,167.565957 Z" id="Shape" fill="#050549" fill-rule="nonzero"></path>
            <g opacity="0.33" transform="translate(69.003517, 91.404255)" fill="#B7BDF7" fill-rule="nonzero" id="Oval">
                <ellipse cx="3.39139508" cy="3.48255319" rx="3.26616647" ry="3.25787234"></ellipse>
                <ellipse cx="13.575803" cy="3.48255319" rx="3.26616647" ry="3.25787234"></ellipse>
                <ellipse cx="23.760211" cy="3.48255319" rx="3.26616647" ry="3.25787234"></ellipse>
                <ellipse cx="33.944619" cy="3.48255319" rx="3.26616647" ry="3.25787234"></ellipse>
                <ellipse cx="44.129027" cy="3.48255319" rx="3.26616647" ry="3.25787234"></ellipse>
                <ellipse cx="54.3134349" cy="3.48255319" rx="3.26616647" ry="3.25787234"></ellipse>
                <ellipse cx="64.5003986" cy="3.48255319" rx="3.26616647" ry="3.25787234"></ellipse>
                <ellipse cx="74.6848066" cy="3.48255319" rx="3.26616647" ry="3.25787234"></ellipse>
                <ellipse cx="84.8692145" cy="3.48255319" rx="3.26616647" ry="3.25787234"></ellipse>
                <ellipse cx="95.0536225" cy="3.48255319" rx="3.26616647" ry="3.25787234"></ellipse>
            </g>
            <ellipse id="Oval" fill="#1F1F99" fill-rule="nonzero" cx="42.4780539" cy="96.0382979" rx="1.71997655" ry="3.25787234"></ellipse>
            <ellipse id="Oval" fill="#1F1F99" fill-rule="nonzero" cx="47.8424385" cy="96.0382979" rx="1.71997655" ry="3.25787234"></ellipse>
            <ellipse id="Oval" fill="#1F1F99" fill-rule="nonzero" cx="53.206823" cy="96.0382979" rx="1.71997655" ry="3.25787234"></ellipse>
        </g>
    </g>
</svg>