<?xml version="1.0" encoding="UTF-8"?>
<svg width="400px" height="320px" viewBox="0 0 400 320" version="1.1" xmlns="http://www.w3.org/2000/svg" xmlns:xlink="http://www.w3.org/1999/xlink">
    <!-- Generator: Sketch 49.3 (51167) - http://www.bohemiancoding.com/sketch -->
    <title>snippet/sentiment-chart</title>
    <desc>Created with Sketch.</desc>
    <defs>
        <circle id="path-1" cx="184" cy="72" r="4"></circle>
        <circle id="path-2" cx="92" cy="16" r="4"></circle>
        <circle id="path-3" cx="276" cy="36" r="4"></circle>
        <circle id="path-4" cx="92" cy="4" r="4"></circle>
        <circle id="path-5" cx="184" cy="84" r="4"></circle>
        <circle id="path-6" cx="276" cy="52" r="4"></circle>
    </defs>
    <g id="snippet/sentiment-chart" stroke="none" stroke-width="1" fill="none" fill-rule="evenodd">
        <g id="Group" transform="translate(16.000000, 16.000000)">
            <g id="Lines" transform="translate(0.000000, 136.000000)">
                <g id="Group">
                    <path d="M0,80 C29.6666667,37.3333333 60.3333333,16 92,16 C139.5,16 148.5,51.5 184,72 C219.5,92.5 243.5,70 276,36 C297.666667,13.3333333 328.333333,1.5 368,0.5" id="Path-4" stroke="#1EB8C1" stroke-width="3" stroke-linecap="round" stroke-linejoin="round"></path>
                    <g id="Oval">
                        <use fill="#24124D" fill-rule="evenodd" xlink:href="#path-1"></use>
                        <circle stroke="#1EB8C1" stroke-width="3" cx="184" cy="72" r="5.5"></circle>
                    </g>
                    <g id="Oval">
                        <use fill="#24124D" fill-rule="evenodd" xlink:href="#path-2"></use>
                        <circle stroke="#1EB8C1" stroke-width="3" cx="92" cy="16" r="5.5"></circle>
                    </g>
                    <g id="Oval">
                        <use fill="#24124D" fill-rule="evenodd" xlink:href="#path-3"></use>
                        <circle stroke="#1EB8C1" stroke-width="3" cx="276" cy="36" r="5.5"></circle>
                    </g>
                </g>
                <g id="Group-2" transform="translate(0.000000, 60.000000)">
                    <path d="M0,60 C32.6666667,22.6666667 63.3333333,4 92,4 C135,4 158.120437,68.1553699 184,84 C208.5,99 240,88.0888696 276,52 C300,27.9407536 330.666667,30.6074203 368,60" id="Path-4" stroke="#FF7092" stroke-width="3" stroke-linecap="round" stroke-linejoin="round"></path>
                    <g id="Oval">
                        <use fill="#24124D" fill-rule="evenodd" xlink:href="#path-4"></use>
                        <circle stroke="#FF7092" stroke-width="3" cx="92" cy="4" r="5.5"></circle>
                    </g>
                    <g id="Oval">
                        <use fill="#24124D" fill-rule="evenodd" xlink:href="#path-5"></use>
                        <circle stroke="#FF7092" stroke-width="3" cx="184" cy="84" r="5.5"></circle>
                    </g>
                    <g id="Oval">
                        <use fill="#24124D" fill-rule="evenodd" xlink:href="#path-6"></use>
                        <circle stroke="#FF7092" stroke-width="3" cx="276" cy="52" r="5.5"></circle>
                    </g>
                </g>
            </g>
            <g id="Legend">
                <rect id="Rectangle-2" fill="#1EB8C1" x="0" y="0" width="24" height="24" rx="3"></rect>
                <rect id="Rectangle-2" fill="#FF7092" x="0" y="40" width="24" height="24" rx="3"></rect>
                <path d="M41.2167969,6.13574219 L45.1953125,6.13574219 C47.1640625,6.13574219 48.5107422,7.48242188 48.5107422,9.47167969 C48.5107422,11.4267578 47.1162109,12.7666016 45.1201172,12.7666016 L42.9804688,12.7666016 L42.9804688,16 L41.2167969,16 L41.2167969,6.13574219 Z M42.9804688,7.61230469 L42.9804688,11.3037109 L44.7236328,11.3037109 C45.9814453,11.3037109 46.7197266,10.6474609 46.7197266,9.47167969 C46.7197266,8.26171875 46.0019531,7.61230469 44.7304688,7.61230469 L42.9804688,7.61230469 Z M53.5009766,14.7285156 C54.6835938,14.7285156 55.3535156,13.8261719 55.3535156,12.2607422 C55.3535156,10.7021484 54.6767578,9.79296875 53.5009766,9.79296875 C52.3183594,9.79296875 51.6416016,10.7021484 51.6416016,12.2607422 C51.6416016,13.8261719 52.3183594,14.7285156 53.5009766,14.7285156 Z M53.5009766,16.1503906 C51.2587891,16.1503906 49.9052734,14.6875 49.9052734,12.2607422 C49.9052734,9.84765625 51.2792969,8.37109375 53.5009766,8.37109375 C55.7294922,8.37109375 57.0966797,9.84082031 57.0966797,12.2607422 C57.0966797,14.6875 55.7363281,16.1503906 53.5009766,16.1503906 Z M58.6347656,10.6611328 C58.6347656,9.30761719 59.8652344,8.37109375 61.6289062,8.37109375 C63.40625,8.37109375 64.5205078,9.15722656 64.6435547,10.5175781 L63.0507812,10.5175781 C62.9277344,9.99121094 62.4287109,9.65625 61.6357422,9.65625 C60.8632812,9.65625 60.2822266,10.0253906 60.2822266,10.5654297 C60.2822266,10.9892578 60.6376953,11.2490234 61.3896484,11.4199219 L62.7089844,11.7207031 C64.1376953,12.0419922 64.8007812,12.6572266 64.8007812,13.7578125 C64.8007812,15.1933594 63.4814453,16.1503906 61.6152344,16.1503906 C59.7490234,16.1503906 58.5732422,15.34375 58.4433594,13.9833984 L60.1181641,13.9833984 C60.2822266,14.5371094 60.8085938,14.8652344 61.65625,14.8652344 C62.5107422,14.8652344 63.1054688,14.4892578 63.1054688,13.9355469 C63.1054688,13.5117188 62.7841797,13.2451172 62.0732422,13.0878906 L60.7470703,12.7802734 C59.3115234,12.4521484 58.6347656,11.7890625 58.6347656,10.6611328 Z M66.5371094,16 L66.5371094,8.52148438 L68.2255859,8.52148438 L68.2255859,16 L66.5371094,16 Z M67.3779297,7.3046875 C66.7626953,7.3046875 66.3320312,6.90820312 66.3320312,6.36816406 C66.3320312,5.828125 66.7626953,5.43164062 67.3779297,5.43164062 C68,5.43164062 68.4238281,5.828125 68.4238281,6.36816406 C68.4238281,6.90820312 68,7.3046875 67.3779297,7.3046875 Z M70.8642578,6.73730469 L72.5527344,6.73730469 L72.5527344,8.56933594 L74.1933594,8.56933594 L74.1933594,9.92285156 L72.5527344,9.92285156 L72.5527344,13.59375 C72.5527344,14.3320312 72.8671875,14.6601562 73.578125,14.6601562 C73.8173828,14.6601562 73.9404297,14.6464844 74.1386719,14.6259766 L74.1386719,15.9521484 C73.8994141,16 73.5917969,16.0341797 73.2636719,16.0341797 C71.5478516,16.0341797 70.8642578,15.453125 70.8642578,14.0039062 L70.8642578,9.92285156 L69.6474609,9.92285156 L69.6474609,8.56933594 L70.8642578,8.56933594 L70.8642578,6.73730469 Z M75.8681641,16 L75.8681641,8.52148438 L77.5566406,8.52148438 L77.5566406,16 L75.8681641,16 Z M76.7089844,7.3046875 C76.09375,7.3046875 75.6630859,6.90820312 75.6630859,6.36816406 C75.6630859,5.828125 76.09375,5.43164062 76.7089844,5.43164062 C77.3310547,5.43164062 77.7548828,5.828125 77.7548828,6.36816406 C77.7548828,6.90820312 77.3310547,7.3046875 76.7089844,7.3046875 Z M79.0058594,8.52148438 L80.8242188,8.52148438 L82.5537109,14.3046875 L82.6699219,14.3046875 L84.3857422,8.52148438 L86.1767578,8.52148438 L83.53125,16 L81.6650391,16 L79.0058594,8.52148438 Z M90.7431641,9.71777344 C89.7314453,9.71777344 89.0205078,10.4423828 88.9453125,11.5361328 L92.4658203,11.5361328 C92.4316406,10.4287109 91.7617188,9.71777344 90.7431641,9.71777344 Z M92.4794922,13.9423828 L94.0859375,13.9423828 C93.7646484,15.3027344 92.5273438,16.1503906 90.7636719,16.1503906 C88.5625,16.1503906 87.2363281,14.6943359 87.2363281,12.2880859 C87.2363281,9.88183594 88.5830078,8.37109375 90.75,8.37109375 C92.8828125,8.37109375 94.1611328,9.78613281 94.1611328,12.1445312 L94.1611328,12.6914062 L88.9384766,12.6914062 L88.9384766,12.7802734 C88.9794922,14.0244141 89.6972656,14.8037109 90.8115234,14.8037109 C91.6523438,14.8037109 92.2333984,14.4960938 92.4794922,13.9423828 Z" id="Positive" fill="#FFFFFF" opacity="0.600000024"></path>
                <path d="M42.9189453,56 L41.2167969,56 L41.2167969,46.1357422 L42.7480469,46.1357422 L47.5878906,52.8417969 L47.7041016,52.8417969 L47.7041016,46.1357422 L49.3994141,46.1357422 L49.3994141,56 L47.875,56 L43.0351562,49.2871094 L42.9189453,49.2871094 L42.9189453,56 Z M54.7998047,49.7177734 C53.7880859,49.7177734 53.0771484,50.4423828 53.0019531,51.5361328 L56.5224609,51.5361328 C56.4882812,50.4287109 55.8183594,49.7177734 54.7998047,49.7177734 Z M56.5361328,53.9423828 L58.1425781,53.9423828 C57.8212891,55.3027344 56.5839844,56.1503906 54.8203125,56.1503906 C52.6191406,56.1503906 51.2929688,54.6943359 51.2929688,52.2880859 C51.2929688,49.8818359 52.6396484,48.3710938 54.8066406,48.3710938 C56.9394531,48.3710938 58.2177734,49.7861328 58.2177734,52.1445312 L58.2177734,52.6914062 L52.9951172,52.6914062 L52.9951172,52.7802734 C53.0361328,54.0244141 53.7539062,54.8037109 54.8681641,54.8037109 C55.7089844,54.8037109 56.2900391,54.4960938 56.5361328,53.9423828 Z M65.0263672,52.1787109 C65.0263672,50.75 64.3085938,49.8408203 63.1328125,49.8408203 C61.9501953,49.8408203 61.2802734,50.75 61.2802734,52.1787109 C61.2802734,53.6074219 61.9501953,54.5097656 63.1328125,54.5097656 C64.3154297,54.5097656 65.0263672,53.6074219 65.0263672,52.1787109 Z M63.1328125,58.84375 C61.2119141,58.84375 59.9541016,57.9960938 59.8173828,56.7109375 L61.5195312,56.7109375 C61.6289062,57.2236328 62.2304688,57.5517578 63.1601562,57.5517578 C64.3222656,57.5517578 64.9990234,57.0048828 64.9990234,56.0683594 L64.9990234,54.6533203 L64.8828125,54.6533203 C64.4521484,55.453125 63.6386719,55.890625 62.5996094,55.890625 C60.7128906,55.890625 59.5371094,54.4277344 59.5371094,52.1787109 C59.5371094,49.8886719 60.7197266,48.3984375 62.6269531,48.3984375 C63.6455078,48.3984375 64.5341797,48.9042969 64.9443359,49.7177734 L65.0605469,49.7177734 L65.0605469,48.5214844 L66.6943359,48.5214844 L66.6943359,56.0273438 C66.6943359,57.7568359 65.3134766,58.84375 63.1328125,58.84375 Z M71.3291016,54.7900391 C72.3544922,54.7900391 73.1201172,54.1269531 73.1201172,53.2587891 L73.1201172,52.6640625 L71.4316406,52.7734375 C70.4814453,52.8349609 70.0371094,53.1767578 70.0371094,53.7851562 C70.0371094,54.4140625 70.5771484,54.7900391 71.3291016,54.7900391 Z M70.8300781,56.1230469 C69.3876953,56.1230469 68.3554688,55.2480469 68.3554688,53.8808594 C68.3554688,52.5273438 69.3740234,51.7480469 71.1923828,51.6386719 L73.1201172,51.5224609 L73.1201172,50.8935547 C73.1201172,50.1621094 72.6279297,49.7519531 71.7119141,49.7519531 C70.9326172,49.7519531 70.3994141,50.0253906 70.2421875,50.53125 L68.6425781,50.53125 C68.7792969,49.2119141 70.0166016,48.3710938 71.7939453,48.3710938 C73.7148438,48.3710938 74.7949219,49.3076172 74.7949219,50.8935547 L74.7949219,56 L73.1611328,56 L73.1611328,54.9746094 L73.0449219,54.9746094 C72.6279297,55.6992188 71.8076172,56.1230469 70.8300781,56.1230469 Z M77.3720703,46.7373047 L79.0605469,46.7373047 L79.0605469,48.5693359 L80.7011719,48.5693359 L80.7011719,49.9228516 L79.0605469,49.9228516 L79.0605469,53.59375 C79.0605469,54.3320312 79.375,54.6601562 80.0859375,54.6601562 C80.3251953,54.6601562 80.4482422,54.6464844 80.6464844,54.6259766 L80.6464844,55.9521484 C80.4072266,56 80.0996094,56.0341797 79.7714844,56.0341797 C78.0556641,56.0341797 77.3720703,55.453125 77.3720703,54.0039062 L77.3720703,49.9228516 L76.1552734,49.9228516 L76.1552734,48.5693359 L77.3720703,48.5693359 L77.3720703,46.7373047 Z M82.3759766,56 L82.3759766,48.5214844 L84.0644531,48.5214844 L84.0644531,56 L82.3759766,56 Z M83.2167969,47.3046875 C82.6015625,47.3046875 82.1708984,46.9082031 82.1708984,46.3681641 C82.1708984,45.828125 82.6015625,45.4316406 83.2167969,45.4316406 C83.8388672,45.4316406 84.2626953,45.828125 84.2626953,46.3681641 C84.2626953,46.9082031 83.8388672,47.3046875 83.2167969,47.3046875 Z M85.5136719,48.5214844 L87.3320312,48.5214844 L89.0615234,54.3046875 L89.1777344,54.3046875 L90.8935547,48.5214844 L92.6845703,48.5214844 L90.0390625,56 L88.1728516,56 L85.5136719,48.5214844 Z M97.2509766,49.7177734 C96.2392578,49.7177734 95.5283203,50.4423828 95.453125,51.5361328 L98.9736328,51.5361328 C98.9394531,50.4287109 98.2695312,49.7177734 97.2509766,49.7177734 Z M98.9873047,53.9423828 L100.59375,53.9423828 C100.272461,55.3027344 99.0351562,56.1503906 97.2714844,56.1503906 C95.0703125,56.1503906 93.7441406,54.6943359 93.7441406,52.2880859 C93.7441406,49.8818359 95.0908203,48.3710938 97.2578125,48.3710938 C99.390625,48.3710938 100.668945,49.7861328 100.668945,52.1445312 L100.668945,52.6914062 L95.4462891,52.6914062 L95.4462891,52.7802734 C95.4873047,54.0244141 96.2050781,54.8037109 97.3193359,54.8037109 C98.1601562,54.8037109 98.7412109,54.4960938 98.9873047,53.9423828 Z" id="Negative" fill="#FFFFFF" opacity="0.600000024"></path>
            </g>
        </g>
    </g>
</svg>