<?xml version="1.0" encoding="UTF-8"?>
<svg width="600px" height="400px" viewBox="0 0 600 400" version="1.1" xmlns="http://www.w3.org/2000/svg" xmlns:xlink="http://www.w3.org/1999/xlink">
    <!-- Generator: Sketch 49.3 (51167) - http://www.bohemiancoding.com/sketch -->
    <title>illustration/software</title>
    <desc>Created with Sketch.</desc>
    <defs></defs>
    <g id="illustration/software" stroke="none" stroke-width="1" fill="none" fill-rule="evenodd">
        <g id="Group">
            <g id="Postit" transform="translate(4.000000, 8.000000)">
                <polygon id="Fill-2" fill="#D3DCF2" opacity="0.239999995" points="114.326953 6.47717932 1.56521739 74.9388494 70.3686995 187.139087 183.130435 118.67872"></polygon>
                <polygon id="Fill-4" fill="#6AEAE4" points="177.913043 116.81642 60.7603742 176.756219 0.52173913 60.1872572 117.674408 0.24745836"></polygon>
                <polygon id="Fill-5" fill="#64E2D8" points="128.869565 21.964984 11.6799766 82.2721177 0.52173913 60.554592 117.711328 0.24745836"></polygon>
                <polygon id="Fill-58" fill="#0BAA9E" points="58.6772489 96.8057914 40.2239738 106.508106 40.0261572 106.612474 39.9187336 106.411566 36.6711354 100.285161 30.3763755 87.9318977 30.2728821 87.7296846 30.4759389 87.6279258 49.0837991 78.2269734 49.1846725 78.1747894 49.2357642 78.2752437 58.6772489 96.8057914 49.0353275 78.3783071 49.1872926 78.4265773 30.6829258 88.0284382 30.779869 87.7257708 37.2082533 100.011195 40.320917 106.205439 40.0169869 106.107594"></polygon>
                <polygon id="Fill-60" fill="#0BAA9E" points="64.801441 93.7532868 55.0586463 75.3779865 54.9538428 75.1796872 55.1568996 75.0740146 61.3075546 71.8399095 73.7123581 65.5713034 73.9154148 65.4682399 74.0175983 65.6691484 83.4577729 84.1996962 83.5101747 84.301455 83.4093013 84.3510298 64.801441 93.7532868 83.3058079 84.1514259 83.2573362 84.3027596 73.6154148 65.8752753 73.919345 65.9731204 61.5839738 72.3734912 55.3638865 75.474527 55.4608297 75.170555"></polygon>
                <polygon id="Fill-62" fill="#0BAA9E" points="89.4825328 81.1989842 79.739738 62.8223794 79.6349345 62.6253847 79.8379913 62.5184074 85.9886463 59.2843024 98.3947598 53.0170008 98.5978166 52.9139374 98.69869 53.1148459 108.140175 71.6453936 108.191266 71.7458478 108.090393 71.7967273 89.4825328 81.1989842 107.98821 71.5971234 107.938428 71.748457 98.2965066 53.3209728 98.6017467 53.4188178 86.2650655 59.8191886 80.0449782 62.9202244 80.1419214 62.6162524"></polygon>
                <polygon id="Fill-64" fill="#0BAA9E" points="132.720393 59.1424923 114.268428 68.8448074 114.070611 68.9491754 113.963188 68.7469623 110.71559 62.6218622 104.42083 50.2685986 104.317336 50.0650809 104.519083 49.9646267 123.128253 40.5623697 123.229127 40.5114903 123.280218 40.61064 132.720393 59.1424923 123.078472 40.715008 123.230437 40.7632782 104.72607 50.3651391 104.824323 50.0624717 111.251397 62.3465915 114.365371 68.5408354 114.061441 68.4429904"></polygon>
                <path d="M58.1437991,137.877229 C64.1883406,134.662693 70.2486026,131.480772 76.3311354,128.339294 L94.6023144,118.969652 L112.949476,109.746125 C119.07393,106.689446 125.219345,103.673209 131.3831,100.692197 C125.339869,103.906733 119.278297,107.088654 113.197074,110.230132 L94.9245852,119.599774 L76.5774236,128.823301 C70.4529694,131.878675 64.3062445,134.894912 58.1437991,137.877229" id="Fill-19" fill="#0BAA9E"></path>
                <path d="M47.490786,122.317518 C53.5340175,119.102982 59.5942795,115.919756 65.6768122,112.778278 L83.9479913,103.408636 L102.295153,94.1851096 C108.420917,91.1284302 114.566332,88.1134981 120.728777,85.131181 C114.685546,88.345717 108.625284,91.527638 102.542751,94.670421 L84.270262,104.038758 L65.9231004,113.262285 C59.7999563,116.318964 53.6532314,119.333896 47.490786,122.317518" id="Fill-69" fill="#0BAA9E"></path>
            </g>
            <g id="Tablet" transform="translate(160.000000, 75.000000)">
                <path d="M346.177982,323.996521 L14.0642262,253.884067 C8.55485083,252.720692 5.03607516,247.32988 6.20430356,241.843395 L50.1806733,35.2589351 C51.3476207,29.7724503 56.7622057,26.2682945 62.2703001,27.4303935 L394.385337,97.542848 C399.894712,98.7062226 403.414769,104.097035 402.246541,109.584796 L358.26889,316.16798 C357.101942,321.654465 351.688639,325.159896 346.177982,323.996521" id="Fill-14" fill="#D3DCF2" opacity="0.2421875"></path>
                <path d="M322.869389,310.58849 L8.43270742,226.685708 C3.079869,225.25717 -0.0969868996,219.776543 1.33620087,214.445945 L56.7929694,8.33991477 C58.2274672,3.00801189 63.7296507,-0.155644701 69.0837991,1.27289302 L383.52048,85.1769796 C388.874629,86.6055173 392.051485,92.0848401 390.616987,97.4167429 L335.161528,303.521468 C333.725721,308.853371 328.223537,312.017028 322.869389,310.58849" id="Fill-21" fill="#DAD3EA"></path>
                <path d="M315.559345,289.702225 L38.8610917,215.868351 C37.1344541,215.409131 36.11,213.640093 36.5724454,211.920629 L86.2191703,27.4083493 C86.6816157,25.6875811 88.4567249,24.6673834 90.1833624,25.1279074 L366.881616,98.9604769 C368.608253,99.4210009 369.632707,101.188735 369.170262,102.909503 L319.523537,287.421783 C319.061092,289.141247 317.285983,290.162749 315.559345,289.702225" id="Fill-23" fill="#FFFFFF"></path>
                <path d="M338.245764,137.31104 L94.1754585,72.1853749 C93.3278603,71.9583744 92.8234934,71.0908149 93.051441,70.2454337 L98.5863755,49.6744906 C98.8130131,48.8304139 99.6855022,48.3281427 100.53441,48.5551432 L344.603406,113.680808 C345.451004,113.907808 345.955371,114.776672 345.727424,115.620749 L340.192489,136.191692 C339.964541,137.037073 339.093362,137.53804 338.245764,137.31104" id="Fill-25" fill="#600DD6"></path>
                <polygon id="Fill-27" fill="#FFFFFF" points="339.781004 137.721337 92.6399563 71.775078 52.9141921 219.414125 300.05655 285.360384"></polygon>
                <polygon id="Fill-33" fill="#512DA8" opacity="0.099999994" points="336.13393 149.011378 88.9928821 83.0651197 55.9553275 205.264879 303.097686 271.211137"></polygon>
                <path d="M54.3296943,116.110105 C54.3296943,121.578991 49.8781659,126.012024 44.3851528,126.012024 C38.8947598,126.012024 34.4419214,121.578991 34.4419214,116.110105 C34.4419214,110.641219 38.8947598,106.208186 44.3851528,106.208186 C49.8781659,106.208186 54.3296943,110.641219 54.3296943,116.110105" id="Fill-35" fill="#B4A5D9"></path>
                <polygon id="Fill-83" fill="#FFFFFF" points="134.809607 217.444112 66 198.741923 94.4484716 94.1974343 163.258079 112.899623"></polygon>
                <polygon id="Fill-83" fill="#FFFFFF" points="229.809607 180.444112 161 161.741923 173.448472 115.197434 242.258079 133.899623"></polygon>
                <polygon id="Fill-83" fill="#FFFFFF" points="293.809607 258.444112 225 240.741923 252.448472 136.197434 321.258079 154.899623"></polygon>
                <path d="M105.561179,116.346977 C104.465983,116.049528 103.820131,114.921049 104.118821,113.829098 C104.418821,112.737147 105.550699,112.095284 106.647205,112.394037 L140.634978,121.707062 C141.731485,122.005816 142.377336,123.132991 142.078646,124.223637 C141.777336,125.315588 140.646769,125.96006 139.550262,125.661307 L105.561179,116.346977 Z" id="Fill-85" fill="#6AEAE4"></path>
                <path d="M103.075502,128.194056 C101.978996,127.896607 101.333144,126.768127 101.633144,125.676176 C101.933144,124.58553 103.065022,123.942362 104.161528,124.241116 L138.149301,133.554141 C139.245808,133.852894 139.891659,134.980069 139.591659,136.070715 C139.291659,137.162666 138.159782,137.807139 137.063275,137.508385 L103.075502,128.194056 Z" id="Fill-87" fill="#6AEAE4"></path>
                <path d="M99.7674672,140.919984 C98.6709607,140.622535 98.0251092,139.494056 98.3251092,138.402105 C98.6251092,137.310154 99.7569869,136.666986 100.853493,136.967044 L134.841266,146.280069 C135.937773,146.577518 136.582314,147.705998 136.283624,148.796644 C135.983624,149.888594 134.851747,150.531763 133.75524,150.233009 L99.7674672,140.919984 Z" id="Fill-93" fill="#6AEAE4"></path>
                <path d="M95.7674672,153.919984 C94.6709607,153.622535 94.0251092,152.494056 94.3251092,151.402105 C94.6251092,150.310154 95.7569869,149.666986 96.8534934,149.967044 L130.841266,159.280069 C131.937773,159.577518 132.582314,160.705998 132.283624,161.796644 C131.983624,162.888594 130.851747,163.531763 129.75524,163.233009 L95.7674672,153.919984 Z" id="Fill-93" fill="#FFD52E"></path>
                <path d="M184.561179,137.346977 C183.465983,137.049528 182.820131,135.921049 183.118821,134.829098 C183.418821,133.737147 184.550699,133.095284 185.647205,133.394037 L219.634978,142.707062 C220.731485,143.005816 221.377336,144.132991 221.078646,145.223637 C220.777336,146.315588 219.646769,146.96006 218.550262,146.661307 L184.561179,137.346977 Z" id="Fill-85" fill="#FFD52E"></path>
                <path d="M182.075502,149.194056 C180.978996,148.896607 180.333144,147.768127 180.633144,146.676176 C180.933144,145.58553 182.065022,144.942362 183.161528,145.241116 L217.149301,154.554141 C218.245808,154.852894 218.891659,155.980069 218.591659,157.070715 C218.291659,158.162666 217.159782,158.807139 216.063275,158.508385 L182.075502,149.194056 Z" id="Fill-87" fill="#FFD52E"></path>
            </g>
            <g id="Postit" transform="translate(449.000000, 0.000000)">
                <polygon id="Fill-8" fill="#D3DCF2" opacity="0.239999995" points="106.852653 149.758702 4.01461352 100.548671 38.5 30 147 69.5"></polygon>
                <polygon id="Fill-12" fill="#FFD52E" points="0.260869565 78.795106 89.3720096 149.402985 151 69.5 61.5 0"></polygon>
                <path d="M52.1500437,44.523221 C63.2199127,52.6052221 73.879738,61.1816668 84.4373799,69.8781348 C94.9531004,78.6254822 105.365328,87.4941574 115.362271,96.8637994 C104.288472,88.7857121 93.6299563,80.2092674 83.0749345,71.5088856 C72.5618341,62.758929 62.149607,53.8889492 52.1500437,44.523221" id="Fill-74" fill="#EDAE20"></path>
                <path d="M97.2217031,58.5615069 C107.737424,67.3075497 105.503057,65.6303581 115.5,75 C104.426201,66.9219127 106.414279,68.8926395 95.8592576,60.1922577 C85.3461572,51.4423011 74.9339301,42.5710166 64.9343668,33.2065931 C76.0055459,41.2885942 86.6640611,49.8650389 97.2217031,58.5615069 Z" id="Fill-76" fill="#EDAE20"></path>
                <path d="M43.1524017,55.6052818 C54.2235808,63.6872828 64.8820961,72.2637276 75.439738,80.9601955 C85.9554585,89.7062383 96.3676856,98.5762182 106.364629,107.94586 C95.2908297,99.8677728 84.6323144,91.2913281 74.0772926,82.5909463 C63.5641921,73.8409897 53.1519651,64.9710099 43.1524017,55.6052818" id="Fill-79" fill="#EDAE20"></path>
                <path d="M33.919345,67.6295251 C44.989214,75.7115262 55.6490393,84.2879709 66.2066812,92.9844388 C76.7224017,101.730482 87.1346288,110.600461 97.1315721,119.970103 C86.0577729,111.892016 75.3992576,103.315571 64.8442358,94.6151897 C54.3311354,85.8652331 43.9189083,76.9952532 33.919345,67.6295251" id="Fill-81" fill="#EDAE20"></path>
            </g>
            <g id="Pen" transform="translate(0.000000, 161.000000)">
                <path d="M131.098428,235.696346 L129.735983,233.11976 C132.553886,228.938514 127.628122,212.237017 125.488821,208.192755 L119.949956,197.725944 L104.129869,206.024509 L109.668734,216.492624 C111.789694,220.502967 122.672227,233.808589 127.785328,234.072118 L129.177904,236.703498 C129.456943,237.233165 130.113275,237.435378 130.643843,237.156194 C131.17441,236.878314 131.377467,236.224709 131.098428,235.696346" id="Fill-39" fill="#D3DCF2" opacity="0.639999986"></path>
                <path d="M119.950218,197.725291 L21.3655022,11.365697 C20.9593886,10.601201 20.010917,10.3076658 19.2432314,10.7107875 L17.8951965,11.417881 L16.9951965,9.71929095 L15.8554585,7.56278607 L12.4624454,1.15197845 C12.0222707,0.318338629 10.9873362,-0.00128853193 10.1515284,0.437057288 L2.83624454,4.27519242 C1.99912664,4.71353824 1.67816594,5.74547736 2.11965066,6.57781257 L7.54978166,16.8450197 L5.74978166,17.7895506 C5.23231441,18.0609075 5.03318777,18.7001619 5.30567686,19.2154791 L8.92401747,26.0541958 L5.83755459,36.3827192 L7.769869,40.0369056 L15.8292576,55.272032 L40.4633188,101.839752 L44.7039301,109.855219 L46.1895197,109.076372 C48.4126638,107.910059 49.2655022,105.171703 48.0943231,102.956491 C47.2152838,101.293125 45.4414847,100.400778 43.6716157,100.556025 L17.2323144,50.5767743 L18.9157205,44.9435087 L104.130131,206.023856 L112.215721,201.782599 L119.950218,197.725291 Z" id="Fill-41" fill="#D3DCF2" opacity="0.639999986"></path>
                <path d="M125.711135,238.488974 C125.191048,238.760331 124.547817,238.560727 124.275328,238.041496 L122.581441,234.819132 L124.465284,233.839377 L126.15917,237.060436 C126.431659,237.578363 126.229913,238.217617 125.711135,238.488974" id="Fill-44" fill="#280B54"></path>
                <path d="M115.3369,199.842658 L107.567031,203.893443 L10.7652838,19.771239 L17.1713974,16.4314613 C17.9246725,16.0387765 18.8548035,16.3283979 19.2478166,17.0785433 L115.3369,199.842658 Z" id="Fill-46" fill="#F75E8A"></path>
                <path d="M109.462271,202.905469 L99.8216594,207.9334 L3.50069869,24.7270255 C3.23475983,24.2208405 3.43126638,23.5959367 3.93956332,23.3311028 L12.660524,18.7832649 L109.462271,202.905469 Z" id="Fill-48" fill="#F84F77"></path>
                <path d="M1.19170256,7 C0.371615223,7.42790902 0.0545846558,8.43766992 0.484278979,9.25434993 L7,22 L17,16.5 L10.5,4 C10.0703057,3.18201539 9.05764192,2.86630203 8.23624454,3.29421105 L1.19170256,7 Z" id="Fill-50" fill="#CBB5E8"></path>
                <path d="M115.3369,199.842658 L99.8207424,207.932487 L105.218122,218.19839 C107.460917,222.465738 119.783188,237.485606 124.067031,235.250825 C128.352183,233.017348 122.977074,214.37591 120.734279,210.108561 L115.3369,199.842658 Z" id="Fill-54" fill="#DB4D76"></path>
                <path d="M16.7663319,49.9576108 L7.02615721,31.4335861 L3.97768559,41.541632 L5.86283843,45.12537 L13.7165502,60.0656567 L37.7270306,105.735812 L41.8602183,113.597335 L43.3182969,112.838058 C45.4982096,111.700446 46.3392576,109.019492 45.1982096,106.848636 C44.340131,105.216581 42.6069432,104.339889 40.8711354,104.486004 L15.1025764,55.4721578 L16.7663319,49.9576108 Z" id="Fill-56" fill="#DB4D76"></path>
            </g>
        </g>
    </g>
</svg>