<?xml version="1.0" encoding="UTF-8"?>
<svg width="400px" height="320px" viewBox="0 0 400 320" version="1.1" xmlns="http://www.w3.org/2000/svg" xmlns:xlink="http://www.w3.org/1999/xlink" style="background: #FFFFFF;">
    <!-- Generator: Sketch 49.2 (51160) - http://www.bohemiancoding.com/sketch -->
    <title>snippet/team</title>
    <desc>Created with Sketch.</desc>
    <defs>
        <circle id="path-1" cx="16" cy="16" r="16"></circle>
        <circle id="path-3" cx="16" cy="16" r="16"></circle>
        <circle id="path-5" cx="16" cy="16" r="16"></circle>
        <circle id="path-7" cx="16" cy="16" r="16"></circle>
        <rect id="path-9" x="8" y="0" width="248" height="168" rx="3"></rect>
        <filter x="-11.3%" y="-11.9%" width="122.6%" height="133.3%" filterUnits="objectBoundingBox" id="filter-10">
            <feOffset dx="0" dy="8" in="SourceAlpha" result="shadowOffsetOuter1"></feOffset>
            <feGaussianBlur stdDeviation="8" in="shadowOffsetOuter1" result="shadowBlurOuter1"></feGaussianBlur>
            <feColorMatrix values="0 0 0 0 0   0 0 0 0 0   0 0 0 0 0  0 0 0 0.25 0" type="matrix" in="shadowBlurOuter1"></feColorMatrix>
        </filter>
        <rect id="path-11" x="0" y="0" width="264" height="168" rx="3"></rect>
        <rect id="path-12" x="0" y="0" width="104" height="40" rx="3"></rect>
        <filter x="-3.4%" y="-6.2%" width="106.7%" height="117.5%" filterUnits="objectBoundingBox" id="filter-13">
            <feOffset dx="0" dy="1" in="SourceAlpha" result="shadowOffsetOuter1"></feOffset>
            <feGaussianBlur stdDeviation="1" in="shadowOffsetOuter1" result="shadowBlurOuter1"></feGaussianBlur>
            <feColorMatrix values="0 0 0 0 0   0 0 0 0 0   0 0 0 0 0  0 0 0 0.08 0" type="matrix" in="shadowBlurOuter1"></feColorMatrix>
        </filter>
        <rect id="path-14" x="0" y="0" width="216" height="40" rx="3"></rect>
        <filter x="-2.1%" y="-8.8%" width="104.2%" height="122.5%" filterUnits="objectBoundingBox" id="filter-15">
            <feMorphology radius="1" operator="dilate" in="SourceAlpha" result="shadowSpreadOuter1"></feMorphology>
            <feOffset dx="0" dy="1" in="shadowSpreadOuter1" result="shadowOffsetOuter1"></feOffset>
            <feGaussianBlur stdDeviation="1" in="shadowOffsetOuter1" result="shadowBlurOuter1"></feGaussianBlur>
            <feComposite in="shadowBlurOuter1" in2="SourceAlpha" operator="out" result="shadowBlurOuter1"></feComposite>
            <feColorMatrix values="0 0 0 0 0   0 0 0 0 0   0 0 0 0 0  0 0 0 0.04 0" type="matrix" in="shadowBlurOuter1"></feColorMatrix>
        </filter>
    </defs>
    <g id="snippet/team" stroke="none" stroke-width="1" fill="none" fill-rule="evenodd">
        <g id="Group" transform="translate(16.000000, 20.000000)">
            <g>
                <g>
                    <path d="M0,48.5 L368,48.5" id="Path-2" stroke="#E7E6EA"></path>
                    <g id="user/male">
                        <g id="Group">
                            <mask id="mask-2" fill="white">
                                <use xlink:href="#path-1"></use>
                            </mask>
                            <use id="Oval-2" fill="#A5A5D8" opacity="0.300000012" xlink:href="#path-1"></use>
                            <g mask="url(#mask-2)">
                                <g transform="translate(5.333333, 6.666667)">
                                    <path d="M15.6666667,1.33333333 C16.3629351,1.7764976 15.6666667,6 16,7.33333333 C16.2763904,8.43889484 14.4986126,7.32778373 10.6666667,4 C8.67626927,5.13468911 7.34293594,5.80135578 6.66666667,6 C4.1485146,6.73967038 4.48143871,4.58007765 4.66666667,4 C5.03322552,2.80674394 4.49570131,2.2587307 5.33333333,1.33333333 C6.2653986,0.277733767 7.49726866,0.480389114 8.89675178,0.24722143 C9.82037404,0.0971100228 10.7935897,0.061051988 11.7235145,0 C11.7583364,0.000824908958 11.7924393,0.0106970383 11.8224255,0.028632751 C11.868141,0.0518823043 11.9082691,0.0847708215 11.9399685,0.124969766 C12.0756183,0.326172885 12.1947402,0.537784076 12.2961624,0.757721511 C12.3300186,0.863423926 12.4001594,0.954328137 12.4942602,1.01446101 C12.5838797,1.05721706 12.6832008,1.07520233 12.7816772,1.06650713 C13.5446012,1.06016778 15.0034192,0.950849509 15.6666667,1.33333333 Z" id="Shape" fill="#7E7EB1" fill-rule="nonzero"></path>
                                    <path d="M21.3333333,26 L0,26 C0,24.6792136 0.666666667,15 6,15 C6,15 8.73563218,19.3333333 10.6666667,19.3333333 C12.5977011,19.3333333 15.3333333,15 15.3333333,15 C18.8888889,15 20.8888889,18.6666667 21.3333333,26 Z" id="Shape" fill="#A5A5D8" fill-rule="nonzero"></path>
                                    <path d="M15.3333333,15.3332641 C15.3333333,17.5555094 13.7777778,19.7777547 10.6666667,22 C7.55555556,19.7777547 6,17.5555094 6,15.3332641 C6,15.3332641 15.3333333,15.3332641 15.3333333,15.3332641 Z" id="Shape" fill="#7878AB" fill-rule="nonzero"></path>
                                    <path d="M13.3333333,14.67956 C13.3333333,16.5883829 12.4444446,18.0200001 10.666667,18.0200001 C8.9161195,18.0200001 8.04001478,16.5445304 8.00000065,14.67956 C8.00000065,14.67956 8.00000043,13.7863733 8,12 L13.3333333,12 C13.3333333,13.7863733 13.3333333,14.67956 13.3333333,14.67956 Z" id="Shape" fill="#B6B6E9" fill-rule="nonzero"></path>
                                    <path d="M10,3.66666667 C11.5959125,3.37650075 13,3.66666667 14,4 C15,4.33333333 15,5.33333333 15,5.33333333 C15,5.33333333 15.0537462,8.80868511 14.6666667,10.6666667 C14.2795872,12.5246482 14,12.6666667 13.3333333,13.3333333 C12.6666667,14 8.66666667,14 8,13.3333333 C7.33333333,12.6666667 6.84769374,12 6.66666667,10.6666667 C6.4856396,9.33333333 6.33333333,6 6.66666667,5.33333333 C7,4.66666667 8.40408746,3.95683258 10,3.66666667 Z" id="Shape" fill="#C8C8F7" fill-rule="nonzero"></path>
                                    <path d="M8.99055208,7.42521904 C9.20565665,7.65555389 9.31991707,7.85265376 9.33333333,8.01651862 C9.32663685,8.12328373 9.29235884,8.2261676 9.23384232,8.31513634 C9.11760805,8.51833799 8.90784843,8.64987671 8.67334186,8.66662207 C8.55338534,8.66802673 8.43498934,8.63622595 8.33124647,8.57473636 C8.13736961,8.45684146 8.01334352,8.25128126 8.00005047,8.02581379 C7.9984644,7.89547671 8.03429357,7.7678559 8.10328892,7.6580861 C8.21470257,7.4614013 8.42136498,7.3382939 8.64845669,7.33333333 C8.76823208,7.33346385 8.88622662,7.3651568 8.99055208,7.42521904 Z M12.3095211,7.39912909 C12.5175546,7.51425216 12.6527477,7.72941842 12.6666163,7.96746299 C12.6681979,8.09866979 12.6324706,8.22714221 12.5636716,8.33764448 C12.4525748,8.53564173 12.2465003,8.65957061 12.0200545,8.66456428 C11.8979942,8.67402787 11.7752147,8.65143375 11.6636431,8.59897679 C11.466177,8.48451346 11.3409842,8.27503915 11.3333892,8.04639133 C11.3289005,7.68231049 11.5953698,7.37579718 11.9531097,7.33354159 C12.0329789,7.33145711 12.1517827,7.35331961 12.3095211,7.39912909 Z" id="Shape" fill="#7272A5" fill-rule="nonzero"></path>
                                    <path d="M8,13.3333333 L8,14.3333333 C9.33333333,15 10.4444444,15.3333333 11.3333333,15.3333333 C12.2222222,15.3333333 12.8888889,15.1111111 13.3333333,14.6666667 L13.3333333,13.3333333 C12.2222222,13.5555556 11.3333333,13.6666667 10.6666667,13.6666667 C10.2222222,13.6666667 9.33333333,13.5555556 8,13.3333333 Z" id="Path-2" fill="#9898CB" fill-rule="evenodd"></path>
                                </g>
                            </g>
                        </g>
                    </g>
                    <path d="M61.8359375,20 L57.4375,20 L57.4375,8.7265625 L61.75,8.7265625 C63.8203125,8.7265625 65.0859375,9.8125 65.0859375,11.5390625 C65.0859375,12.7109375 64.2265625,13.7734375 63.140625,13.96875 L63.140625,14.09375 C64.6796875,14.2890625 65.65625,15.34375 65.65625,16.8359375 C65.65625,18.8203125 64.234375,20 61.8359375,20 Z M58.84375,9.96875 L58.84375,13.5859375 L61.09375,13.5859375 C62.796875,13.5859375 63.6640625,12.9765625 63.6640625,11.78125 C63.6640625,10.6328125 62.8515625,9.96875 61.453125,9.96875 L58.84375,9.96875 Z M58.84375,18.7578125 L61.625,18.7578125 C63.3203125,18.7578125 64.2109375,18.0703125 64.2109375,16.765625 C64.2109375,15.4609375 63.2890625,14.796875 61.4921875,14.796875 L58.84375,14.796875 L58.84375,18.7578125 Z M71.140625,12.6171875 C69.796875,12.6171875 68.859375,13.6015625 68.7578125,15.09375 L73.3984375,15.09375 C73.3671875,13.6015625 72.4765625,12.6171875 71.140625,12.6171875 Z M73.359375,17.8203125 L74.703125,17.8203125 C74.296875,19.265625 73,20.1484375 71.15625,20.1484375 C68.8203125,20.1484375 67.359375,18.4609375 67.359375,15.796875 C67.359375,13.1484375 68.84375,11.4296875 71.15625,11.4296875 C73.4296875,11.4296875 74.8125,13.046875 74.8125,15.6640625 L74.8125,16.1796875 L68.7578125,16.1796875 L68.7578125,16.2421875 C68.828125,17.90625 69.7578125,18.9609375 71.1875,18.9609375 C72.2734375,18.9609375 73.0078125,18.5625 73.359375,17.8203125 Z M76.921875,20 L76.921875,11.578125 L78.203125,11.578125 L78.203125,12.90625 L78.328125,12.90625 C78.75,11.9765625 79.7265625,11.4296875 81.015625,11.4296875 C82.90625,11.4296875 83.9609375,12.546875 83.9609375,14.546875 L83.9609375,20 L82.6171875,20 L82.6171875,14.875 C82.6171875,13.359375 81.9765625,12.640625 80.6328125,12.640625 C79.15625,12.640625 78.265625,13.5390625 78.265625,15.015625 L78.265625,20 L76.921875,20 Z M87.7890625,11.578125 L87.7890625,20.6328125 C87.7890625,22.3671875 86.9765625,23.109375 85.2109375,23.109375 L84.9765625,23.109375 L84.9765625,21.9609375 L85.1796875,21.9609375 C86.1328125,21.9609375 86.4453125,21.5859375 86.4453125,20.65625 L86.4453125,11.578125 L87.7890625,11.578125 Z M87.1171875,9.8671875 C86.6015625,9.8671875 86.1796875,9.4453125 86.1796875,8.9296875 C86.1796875,8.4140625 86.6015625,7.9921875 87.1171875,7.9921875 C87.6328125,7.9921875 88.0546875,8.4140625 88.0546875,8.9296875 C88.0546875,9.4453125 87.6328125,9.8671875 87.1171875,9.8671875 Z M92.9453125,18.96875 C94.328125,18.96875 95.3515625,18.0625 95.3515625,16.859375 L95.3515625,16.0859375 L93.0859375,16.234375 C91.8046875,16.3203125 91.2421875,16.765625 91.2421875,17.609375 C91.2421875,18.46875 91.96875,18.96875 92.9453125,18.96875 Z M92.6953125,20.1484375 C91.0625,20.1484375 89.8515625,19.1796875 89.8515625,17.640625 C89.8515625,16.1328125 90.9609375,15.265625 92.921875,15.1484375 L95.3515625,15 L95.3515625,14.234375 C95.3515625,13.1953125 94.703125,12.625 93.4453125,12.625 C92.4375,12.625 91.734375,13.0078125 91.546875,13.671875 L90.1875,13.671875 C90.3671875,12.3203125 91.6953125,11.4296875 93.4921875,11.4296875 C95.546875,11.4296875 96.6953125,12.484375 96.6953125,14.234375 L96.6953125,20 L95.4140625,20 L95.4140625,18.7578125 L95.2890625,18.7578125 C94.7421875,19.65625 93.8203125,20.1484375 92.6953125,20.1484375 Z M99.1796875,20 L99.1796875,11.578125 L100.460938,11.578125 L100.460938,12.90625 L100.585938,12.90625 C100.96875,11.96875 101.8125,11.4296875 102.9375,11.4296875 C104.078125,11.4296875 104.875,12.03125 105.265625,12.90625 L105.390625,12.90625 C105.84375,12.015625 106.804688,11.4296875 107.96875,11.4296875 C109.6875,11.4296875 110.648438,12.4140625 110.648438,14.1796875 L110.648438,20 L109.304688,20 L109.304688,14.4921875 C109.304688,13.25 108.71875,12.640625 107.53125,12.640625 C106.359375,12.640625 105.578125,13.515625 105.578125,14.5859375 L105.578125,20 L104.234375,20 L104.234375,14.28125 C104.234375,13.28125 103.539062,12.640625 102.476562,12.640625 C101.375,12.640625 100.523438,13.59375 100.523438,14.78125 L100.523438,20 L99.1796875,20 Z M113.132812,20 L113.132812,11.578125 L114.476562,11.578125 L114.476562,20 L113.132812,20 Z M113.804688,9.8671875 C113.289062,9.8671875 112.867188,9.4453125 112.867188,8.9296875 C112.867188,8.4140625 113.289062,7.9921875 113.804688,7.9921875 C114.320312,7.9921875 114.742188,8.4140625 114.742188,8.9296875 C114.742188,9.4453125 114.320312,9.8671875 113.804688,9.8671875 Z M117.039062,20 L117.039062,11.578125 L118.320312,11.578125 L118.320312,12.90625 L118.445312,12.90625 C118.867188,11.9765625 119.84375,11.4296875 121.132812,11.4296875 C123.023438,11.4296875 124.078125,12.546875 124.078125,14.546875 L124.078125,20 L122.734375,20 L122.734375,14.875 C122.734375,13.359375 122.09375,12.640625 120.75,12.640625 C119.273438,12.640625 118.382812,13.5390625 118.382812,15.015625 L118.382812,20 L117.039062,20 Z M140.21875,20 L138.8125,20 L138.8125,14.8671875 L132.625,14.8671875 L132.625,20 L131.21875,20 L131.21875,8.7265625 L132.625,8.7265625 L132.625,13.6015625 L138.8125,13.6015625 L138.8125,8.7265625 L140.21875,8.7265625 L140.21875,20 Z M149.890625,11.578125 L149.890625,20 L148.609375,20 L148.609375,18.6796875 L148.484375,18.6796875 C148.0625,19.6171875 147.085938,20.1484375 145.796875,20.1484375 C143.90625,20.1484375 142.84375,19.0234375 142.84375,17.03125 L142.84375,11.578125 L144.1875,11.578125 L144.1875,16.703125 C144.1875,18.21875 144.828125,18.921875 146.171875,18.921875 C147.65625,18.921875 148.546875,18.0390625 148.546875,16.5625 L148.546875,11.578125 L149.890625,11.578125 Z M152.421875,20 L152.421875,11.578125 L153.703125,11.578125 L153.703125,12.90625 L153.828125,12.90625 C154.210938,11.96875 155.054688,11.4296875 156.179688,11.4296875 C157.320312,11.4296875 158.117188,12.03125 158.507812,12.90625 L158.632812,12.90625 C159.085938,12.015625 160.046875,11.4296875 161.210938,11.4296875 C162.929688,11.4296875 163.890625,12.4140625 163.890625,14.1796875 L163.890625,20 L162.546875,20 L162.546875,14.4921875 C162.546875,13.25 161.960938,12.640625 160.773438,12.640625 C159.601562,12.640625 158.820312,13.515625 158.820312,14.5859375 L158.820312,20 L157.476562,20 L157.476562,14.28125 C157.476562,13.28125 156.78125,12.640625 155.71875,12.640625 C154.617188,12.640625 153.765625,13.59375 153.765625,14.78125 L153.765625,20 L152.421875,20 Z M170.445312,11.4296875 C172.59375,11.4296875 173.984375,13.140625 173.984375,15.7890625 C173.984375,18.421875 172.585938,20.1484375 170.445312,20.1484375 C169.242188,20.1484375 168.273438,19.625 167.8125,18.734375 L167.6875,18.734375 L167.6875,22.8125 L166.34375,22.8125 L166.34375,11.578125 L167.625,11.578125 L167.625,12.984375 L167.75,12.984375 C168.289062,12.015625 169.296875,11.4296875 170.445312,11.4296875 Z M170.125,18.9375 C171.671875,18.9375 172.59375,17.7578125 172.59375,15.7890625 C172.59375,13.8203125 171.671875,12.640625 170.132812,12.640625 C168.609375,12.640625 167.648438,13.8515625 167.648438,15.7890625 C167.648438,17.71875 168.609375,18.9375 170.125,18.9375 Z M176.171875,20 L176.171875,8.234375 L177.515625,8.234375 L177.515625,12.90625 L177.640625,12.90625 C178.0625,11.9765625 179.023438,11.4296875 180.3125,11.4296875 C182.226562,11.4296875 183.296875,12.5703125 183.296875,14.546875 L183.296875,20 L181.953125,20 L181.953125,14.875 C181.953125,13.3828125 181.296875,12.640625 179.929688,12.640625 C178.421875,12.640625 177.515625,13.59375 177.515625,15.015625 L177.515625,20 L176.171875,20 Z M185.75,20 L185.75,11.578125 L187.03125,11.578125 L187.03125,12.828125 L187.15625,12.828125 C187.40625,12.0078125 188.375,11.4296875 189.492188,11.4296875 C189.710938,11.4296875 189.992188,11.4453125 190.164062,11.46875 L190.164062,12.8125 C190.054688,12.78125 189.570312,12.734375 189.304688,12.734375 C188.023438,12.734375 187.09375,13.59375 187.09375,14.78125 L187.09375,20 L185.75,20 Z M194.96875,12.6171875 C193.625,12.6171875 192.6875,13.6015625 192.585938,15.09375 L197.226562,15.09375 C197.195312,13.6015625 196.304688,12.6171875 194.96875,12.6171875 Z M197.1875,17.8203125 L198.53125,17.8203125 C198.125,19.265625 196.828125,20.1484375 194.984375,20.1484375 C192.648438,20.1484375 191.1875,18.4609375 191.1875,15.796875 C191.1875,13.1484375 192.671875,11.4296875 194.984375,11.4296875 C197.257812,11.4296875 198.640625,13.046875 198.640625,15.6640625 L198.640625,16.1796875 L192.585938,16.1796875 L192.585938,16.2421875 C192.65625,17.90625 193.585938,18.9609375 195.015625,18.9609375 C196.101562,18.9609375 196.835938,18.5625 197.1875,17.8203125 Z M201.3125,23.0546875 C201.132812,23.0546875 200.898438,23.0390625 200.710938,23.0078125 L200.710938,21.859375 C200.875,21.890625 201.085938,21.8984375 201.273438,21.8984375 C202.046875,21.8984375 202.46875,21.5234375 202.820312,20.5078125 L202.976562,20.0078125 L199.859375,11.578125 L201.3125,11.578125 L203.625,18.5078125 L203.75,18.5078125 L206.054688,11.578125 L207.484375,11.578125 L204.195312,20.515625 C203.476562,22.46875 202.804688,23.0546875 201.3125,23.0546875 Z" id="Benjamin-Humphrey" fill="#24124D"></path>
                </g>
                <g transform="translate(0.000000, 68.000000)">
                    <path d="M0,121 L368,121" id="Path-2" stroke="#E7E6EA"></path>
                    <g id="user/male">
                        <g id="Group">
                            <mask id="mask-4" fill="white">
                                <use xlink:href="#path-3"></use>
                            </mask>
                            <use id="Oval-2" fill="#A5A5D8" opacity="0.300000012" xlink:href="#path-3"></use>
                            <g mask="url(#mask-4)">
                                <g transform="translate(5.333333, 6.666667)">
                                    <path d="M15.6666667,1.33333333 C16.3629351,1.7764976 15.6666667,6 16,7.33333333 C16.2763904,8.43889484 14.4986126,7.32778373 10.6666667,4 C8.67626927,5.13468911 7.34293594,5.80135578 6.66666667,6 C4.1485146,6.73967038 4.48143871,4.58007765 4.66666667,4 C5.03322552,2.80674394 4.49570131,2.2587307 5.33333333,1.33333333 C6.2653986,0.277733767 7.49726866,0.480389114 8.89675178,0.24722143 C9.82037404,0.0971100228 10.7935897,0.061051988 11.7235145,0 C11.7583364,0.000824908958 11.7924393,0.0106970383 11.8224255,0.028632751 C11.868141,0.0518823043 11.9082691,0.0847708215 11.9399685,0.124969766 C12.0756183,0.326172885 12.1947402,0.537784076 12.2961624,0.757721511 C12.3300186,0.863423926 12.4001594,0.954328137 12.4942602,1.01446101 C12.5838797,1.05721706 12.6832008,1.07520233 12.7816772,1.06650713 C13.5446012,1.06016778 15.0034192,0.950849509 15.6666667,1.33333333 Z" id="Shape" fill="#7E7EB1" fill-rule="nonzero"></path>
                                    <path d="M21.3333333,26 L0,26 C0,24.6792136 0.666666667,15 6,15 C6,15 8.73563218,19.3333333 10.6666667,19.3333333 C12.5977011,19.3333333 15.3333333,15 15.3333333,15 C18.8888889,15 20.8888889,18.6666667 21.3333333,26 Z" id="Shape" fill="#A5A5D8" fill-rule="nonzero"></path>
                                    <path d="M15.3333333,15.3332641 C15.3333333,17.5555094 13.7777778,19.7777547 10.6666667,22 C7.55555556,19.7777547 6,17.5555094 6,15.3332641 C6,15.3332641 15.3333333,15.3332641 15.3333333,15.3332641 Z" id="Shape" fill="#7878AB" fill-rule="nonzero"></path>
                                    <path d="M13.3333333,14.67956 C13.3333333,16.5883829 12.4444446,18.0200001 10.666667,18.0200001 C8.9161195,18.0200001 8.04001478,16.5445304 8.00000065,14.67956 C8.00000065,14.67956 8.00000043,13.7863733 8,12 L13.3333333,12 C13.3333333,13.7863733 13.3333333,14.67956 13.3333333,14.67956 Z" id="Shape" fill="#B6B6E9" fill-rule="nonzero"></path>
                                    <path d="M10,3.66666667 C11.5959125,3.37650075 13,3.66666667 14,4 C15,4.33333333 15,5.33333333 15,5.33333333 C15,5.33333333 15.0537462,8.80868511 14.6666667,10.6666667 C14.2795872,12.5246482 14,12.6666667 13.3333333,13.3333333 C12.6666667,14 8.66666667,14 8,13.3333333 C7.33333333,12.6666667 6.84769374,12 6.66666667,10.6666667 C6.4856396,9.33333333 6.33333333,6 6.66666667,5.33333333 C7,4.66666667 8.40408746,3.95683258 10,3.66666667 Z" id="Shape" fill="#C8C8F7" fill-rule="nonzero"></path>
                                    <path d="M8.99055208,7.42521904 C9.20565665,7.65555389 9.31991707,7.85265376 9.33333333,8.01651862 C9.32663685,8.12328373 9.29235884,8.2261676 9.23384232,8.31513634 C9.11760805,8.51833799 8.90784843,8.64987671 8.67334186,8.66662207 C8.55338534,8.66802673 8.43498934,8.63622595 8.33124647,8.57473636 C8.13736961,8.45684146 8.01334352,8.25128126 8.00005047,8.02581379 C7.9984644,7.89547671 8.03429357,7.7678559 8.10328892,7.6580861 C8.21470257,7.4614013 8.42136498,7.3382939 8.64845669,7.33333333 C8.76823208,7.33346385 8.88622662,7.3651568 8.99055208,7.42521904 Z M12.3095211,7.39912909 C12.5175546,7.51425216 12.6527477,7.72941842 12.6666163,7.96746299 C12.6681979,8.09866979 12.6324706,8.22714221 12.5636716,8.33764448 C12.4525748,8.53564173 12.2465003,8.65957061 12.0200545,8.66456428 C11.8979942,8.67402787 11.7752147,8.65143375 11.6636431,8.59897679 C11.466177,8.48451346 11.3409842,8.27503915 11.3333892,8.04639133 C11.3289005,7.68231049 11.5953698,7.37579718 11.9531097,7.33354159 C12.0329789,7.33145711 12.1517827,7.35331961 12.3095211,7.39912909 Z" id="Shape" fill="#7272A5" fill-rule="nonzero"></path>
                                    <path d="M8,13.3333333 L8,14.3333333 C9.33333333,15 10.4444444,15.3333333 11.3333333,15.3333333 C12.2222222,15.3333333 12.8888889,15.1111111 13.3333333,14.6666667 L13.3333333,13.3333333 C12.2222222,13.5555556 11.3333333,13.6666667 10.6666667,13.6666667 C10.2222222,13.6666667 9.33333333,13.5555556 8,13.3333333 Z" id="Path-2" fill="#9898CB" fill-rule="evenodd"></path>
                                </g>
                            </g>
                        </g>
                    </g>
                    <path d="M61.8359375,20 L57.4375,20 L57.4375,8.7265625 L61.75,8.7265625 C63.8203125,8.7265625 65.0859375,9.8125 65.0859375,11.5390625 C65.0859375,12.7109375 64.2265625,13.7734375 63.140625,13.96875 L63.140625,14.09375 C64.6796875,14.2890625 65.65625,15.34375 65.65625,16.8359375 C65.65625,18.8203125 64.234375,20 61.8359375,20 Z M58.84375,9.96875 L58.84375,13.5859375 L61.09375,13.5859375 C62.796875,13.5859375 63.6640625,12.9765625 63.6640625,11.78125 C63.6640625,10.6328125 62.8515625,9.96875 61.453125,9.96875 L58.84375,9.96875 Z M58.84375,18.7578125 L61.625,18.7578125 C63.3203125,18.7578125 64.2109375,18.0703125 64.2109375,16.765625 C64.2109375,15.4609375 63.2890625,14.796875 61.4921875,14.796875 L58.84375,14.796875 L58.84375,18.7578125 Z M67.78125,20 L67.78125,11.578125 L69.0625,11.578125 L69.0625,12.828125 L69.1875,12.828125 C69.4375,12.0078125 70.40625,11.4296875 71.5234375,11.4296875 C71.7421875,11.4296875 72.0234375,11.4453125 72.1953125,11.46875 L72.1953125,12.8125 C72.0859375,12.78125 71.6015625,12.734375 71.3359375,12.734375 C70.0546875,12.734375 69.125,13.59375 69.125,14.78125 L69.125,20 L67.78125,20 Z M76.3515625,18.96875 C77.734375,18.96875 78.7578125,18.0625 78.7578125,16.859375 L78.7578125,16.0859375 L76.4921875,16.234375 C75.2109375,16.3203125 74.6484375,16.765625 74.6484375,17.609375 C74.6484375,18.46875 75.375,18.96875 76.3515625,18.96875 Z M76.1015625,20.1484375 C74.46875,20.1484375 73.2578125,19.1796875 73.2578125,17.640625 C73.2578125,16.1328125 74.3671875,15.265625 76.328125,15.1484375 L78.7578125,15 L78.7578125,14.234375 C78.7578125,13.1953125 78.109375,12.625 76.8515625,12.625 C75.84375,12.625 75.140625,13.0078125 74.953125,13.671875 L73.59375,13.671875 C73.7734375,12.3203125 75.1015625,11.4296875 76.8984375,11.4296875 C78.953125,11.4296875 80.1015625,12.484375 80.1015625,14.234375 L80.1015625,20 L78.8203125,20 L78.8203125,18.7578125 L78.6953125,18.7578125 C78.1484375,19.65625 77.2265625,20.1484375 76.1015625,20.1484375 Z M85.703125,20.1484375 C83.546875,20.1484375 82.1640625,18.4375 82.1640625,15.7890625 C82.1640625,13.1484375 83.5625,11.4296875 85.703125,11.4296875 C86.875,11.4296875 87.8671875,11.984375 88.34375,12.90625 L88.4609375,12.90625 L88.4609375,8.234375 L89.8046875,8.234375 L89.8046875,20 L88.5234375,20 L88.5234375,18.65625 L88.3984375,18.65625 C87.8671875,19.59375 86.8671875,20.1484375 85.703125,20.1484375 Z M86.015625,12.640625 C84.484375,12.640625 83.5546875,13.828125 83.5546875,15.7890625 C83.5546875,17.7578125 84.4765625,18.9375 86.015625,18.9375 C87.546875,18.9375 88.4921875,17.734375 88.4921875,15.7890625 C88.4921875,13.859375 87.5390625,12.640625 86.015625,12.640625 Z M92.4921875,20 L92.4921875,8.234375 L93.8359375,8.234375 L93.8359375,20 L92.4921875,20 Z M99.8046875,12.6171875 C98.4609375,12.6171875 97.5234375,13.6015625 97.421875,15.09375 L102.0625,15.09375 C102.03125,13.6015625 101.140625,12.6171875 99.8046875,12.6171875 Z M102.023438,17.8203125 L103.367188,17.8203125 C102.960938,19.265625 101.664062,20.1484375 99.8203125,20.1484375 C97.484375,20.1484375 96.0234375,18.4609375 96.0234375,15.796875 C96.0234375,13.1484375 97.5078125,11.4296875 99.8203125,11.4296875 C102.09375,11.4296875 103.476562,13.046875 103.476562,15.6640625 L103.476562,16.1796875 L97.421875,16.1796875 L97.421875,16.2421875 C97.4921875,17.90625 98.421875,18.9609375 99.8515625,18.9609375 C100.9375,18.9609375 101.671875,18.5625 102.023438,17.8203125 Z M106.148438,23.0546875 C105.96875,23.0546875 105.734375,23.0390625 105.546875,23.0078125 L105.546875,21.859375 C105.710938,21.890625 105.921875,21.8984375 106.109375,21.8984375 C106.882812,21.8984375 107.304688,21.5234375 107.65625,20.5078125 L107.8125,20.0078125 L104.695312,11.578125 L106.148438,11.578125 L108.460938,18.5078125 L108.585938,18.5078125 L110.890625,11.578125 L112.320312,11.578125 L109.03125,20.515625 C108.3125,22.46875 107.640625,23.0546875 106.148438,23.0546875 Z M126.132812,20 L125,16.7734375 L120.515625,16.7734375 L119.382812,20 L117.90625,20 L122.0625,8.7265625 L123.453125,8.7265625 L127.609375,20 L126.132812,20 Z M122.695312,10.546875 L120.929688,15.578125 L124.585938,15.578125 L122.820312,10.546875 L122.695312,10.546875 Z M129.039062,23.0546875 C128.859375,23.0546875 128.625,23.0390625 128.4375,23.0078125 L128.4375,21.859375 C128.601562,21.890625 128.8125,21.8984375 129,21.8984375 C129.773438,21.8984375 130.195312,21.5234375 130.546875,20.5078125 L130.703125,20.0078125 L127.585938,11.578125 L129.039062,11.578125 L131.351562,18.5078125 L131.476562,18.5078125 L133.78125,11.578125 L135.210938,11.578125 L131.921875,20.515625 C131.203125,22.46875 130.53125,23.0546875 129.039062,23.0546875 Z M140.054688,12.6171875 C138.710938,12.6171875 137.773438,13.6015625 137.671875,15.09375 L142.3125,15.09375 C142.28125,13.6015625 141.390625,12.6171875 140.054688,12.6171875 Z M142.273438,17.8203125 L143.617188,17.8203125 C143.210938,19.265625 141.914062,20.1484375 140.070312,20.1484375 C137.734375,20.1484375 136.273438,18.4609375 136.273438,15.796875 C136.273438,13.1484375 137.757812,11.4296875 140.070312,11.4296875 C142.34375,11.4296875 143.726562,13.046875 143.726562,15.6640625 L143.726562,16.1796875 L137.671875,16.1796875 L137.671875,16.2421875 C137.742188,17.90625 138.671875,18.9609375 140.101562,18.9609375 C141.1875,18.9609375 141.921875,18.5625 142.273438,17.8203125 Z M145.835938,20 L145.835938,11.578125 L147.117188,11.578125 L147.117188,12.828125 L147.242188,12.828125 C147.492188,12.0078125 148.460938,11.4296875 149.578125,11.4296875 C149.796875,11.4296875 150.078125,11.4453125 150.25,11.46875 L150.25,12.8125 C150.140625,12.78125 149.65625,12.734375 149.390625,12.734375 C148.109375,12.734375 147.179688,13.59375 147.179688,14.78125 L147.179688,20 L145.835938,20 Z M151.460938,13.8828125 C151.460938,12.484375 152.8125,11.4296875 154.601562,11.4296875 C156.367188,11.4296875 157.59375,12.3046875 157.773438,13.6875 L156.445312,13.6875 C156.265625,13.015625 155.609375,12.5703125 154.59375,12.5703125 C153.59375,12.5703125 152.8125,13.078125 152.8125,13.828125 C152.8125,14.40625 153.28125,14.765625 154.273438,15.0078125 L155.570312,15.3203125 C157.15625,15.703125 157.921875,16.390625 157.921875,17.6015625 C157.921875,19.109375 156.460938,20.1484375 154.546875,20.1484375 C152.671875,20.1484375 151.382812,19.25 151.234375,17.8515625 L152.617188,17.8515625 C152.84375,18.5625 153.515625,19.015625 154.59375,19.015625 C155.726562,19.015625 156.539062,18.4765625 156.539062,17.703125 C156.539062,17.125 156.101562,16.734375 155.203125,16.515625 L153.757812,16.1640625 C152.179688,15.78125 151.460938,15.1015625 151.460938,13.8828125 Z" id="Bradley-Ayers" fill="#24124D"></path>
                </g>
                <g transform="translate(0.000000, 116.000000)">
                    <g id="user/female" transform="translate(0.000000, 20.000000)">
                        <g id="Group">
                            <mask id="mask-6" fill="white">
                                <use xlink:href="#path-5"></use>
                            </mask>
                            <use id="Oval-2" fill="#A5A5D8" opacity="0.300000012" xlink:href="#path-5"></use>
                            <g mask="url(#mask-6)">
                                <g transform="translate(6.666667, 5.333333)">
                                    <path d="M13.6273992,1.64122036 C14.3236676,2.08438463 14.9295316,2.65800103 15.3878063,3.34095687 C16.222965,4.58805897 16.7996053,5.98604002 17.083573,7.45209765 C17.2764712,8.41767371 17.4014198,9.40096611 17.5726727,10.3540452 L17.6822784,11.4139 C17.7015985,11.5732097 17.6333798,11.7295469 17.50364,11.8232868 L13.3333333,14.6666667 L9.33333333,10 L5.30723717,15.402321 L2.67252539,13.7672752 L1.53764868,13.0835803 C1.45559605,13.0233823 1.40358285,12.9309847 1.39517113,12.8304796 C1.31033146,11.6268888 1.31279307,10.419805 1.40253684,9.21859258 C1.49789339,7.93833291 1.74292256,6.67516718 2.13268941,5.45453591 C2.49924826,4.26127986 3.12282269,3.16416301 3.96045471,2.23876563 C4.89251998,1.18316607 6.16393533,0.480389114 7.56341845,0.24722143 C8.48704071,0.0971100228 9.46025636,0.061051988 10.3901812,0 C10.425003,0.000824908958 10.459106,0.0106970383 10.4890922,0.028632751 C10.5348077,0.0518823043 10.5749357,0.0847708215 10.6066352,0.124969766 C10.7422849,0.326172885 10.8614069,0.537784076 10.9628291,0.757721511 C10.9966853,0.863423926 11.0668261,0.954328137 11.1609268,1.01446101 C11.2505464,1.05721706 11.3498674,1.07520233 11.4483438,1.06650713 C12.2112679,1.06016778 12.9641518,1.25873654 13.6273992,1.64122036 Z" id="Shape" fill="#7878AB" fill-rule="nonzero"></path>
                                    <path d="M18.6666667,26.6666667 L0,26.6666667 C0,25.3458803 0,15.6666667 5.33333333,15.6666667 C5.33333333,15.6666667 7.08045977,20 9.01149425,20 C10.9425287,20 13.3333333,15.6666667 13.3333333,15.6666667 C16.8888889,15.6666667 18.6666667,19.3333333 18.6666667,26.6666667 Z" id="Shape" fill="#A5A5D8" fill-rule="nonzero"></path>
                                    <path d="M13.3333333,15.9999307 C13.3333333,18.6563443 11.9999995,20.6666667 9.33333284,20.6666667 C6.70751128,20.6666667 5.39335454,18.595317 5.33333333,15.9999307 C5.33333333,15.9999307 13.3333333,15.9999307 13.3333333,15.9999307 Z" id="Shape" fill="#7878AB" fill-rule="nonzero"></path>
                                    <path d="M12,16.0128933 C12,17.9217163 11.1111112,19.3533335 9.33333366,19.3533335 C7.58278616,19.3533335 6.70668145,17.8778638 6.66666732,16.0128933 C6.66666732,16.0128933 6.6666671,15.1197066 6.66666667,13.3333333 L12,13.3333333 C12,15.1197066 12,16.0128933 12,16.0128933 Z" id="Shape" fill="#B6B6E9" fill-rule="nonzero"></path>
                                    <path d="M14,11.3333333 L13.3333333,14.6666667 L12,14.6666667 L12,12.6666667 C12.0152219,12.6510242 12.6818886,12.2065797 14,11.3333333 Z" id="Shape" fill="#636396" fill-rule="nonzero"></path>
                                    <path d="M4.66666667,11.3333333 C5.07208323,11.9747465 6.61952772,13.2683451 6.66666667,13.3093355 L6.66666667,14.6666667 L5.33333333,15.3333333 C4.87165546,12.8651974 4.64943324,11.5318641 4.66666667,11.3333333 Z" id="Path" fill="#636396" fill-rule="evenodd"></path>
                                    <path d="M11.3333333,4 L13.141471,5.81533431 L14,6.71138802 C14.038321,6.71138802 14.038321,8.25203646 14,11.3333333 C13.5555556,12.6666667 13.1111111,13.5555556 12.6666667,14 C12,14.6666667 8.14115136,14.2051266 6.66666667,14 C5.9180233,13.8958506 5.02872081,13.3333333 4.84769374,12 C4.72700902,11.1111111 4.66666667,10 4.66666667,8.66666667 C5.75397543,8.15758699 6.86508654,7.50582744 8,6.71138802 C9.13491346,5.9169486 10.2460246,5.01315259 11.3333333,4 Z" id="Shape" fill="#C8C8F7" fill-rule="nonzero"></path>
                                    <path d="M7.65721875,8.75855237 C7.87232332,8.98888723 7.98658374,9.18598709 8,9.34985196 C7.99330352,9.45661706 7.95902551,9.55950094 7.90050899,9.64846967 C7.78427472,9.85167132 7.57451509,9.98321004 7.34000852,9.9999554 C7.22005201,10.0013601 7.10165601,9.96955928 6.99791314,9.9080697 C6.80403627,9.79017479 6.68001019,9.58461459 6.66671713,9.35914713 C6.66513107,9.22881005 6.70096023,9.10118923 6.76995558,8.99141943 C6.88136924,8.79473464 7.08803165,8.67162723 7.31512336,8.66666667 C7.43489874,8.66679718 7.55289329,8.69849013 7.65721875,8.75855237 Z M10.9761877,8.73246242 C11.1842212,8.84758549 11.3194144,9.06275175 11.333283,9.30079632 C11.3348646,9.43200313 11.2991373,9.56047554 11.2303382,9.67097782 C11.1192415,9.86897506 10.9131669,9.99290395 10.6867212,9.99789762 C10.5646609,10.0073612 10.4418813,9.98476708 10.3303098,9.93231012 C10.1328436,9.81784679 10.0076509,9.60837248 10.0000559,9.37972466 C9.99556716,9.01564383 10.2620365,8.70913052 10.6197763,8.66687492 C10.6996456,8.66479045 10.8184494,8.68665295 10.9761877,8.73246242 Z" id="Shape" fill="#7272A5" fill-rule="nonzero"></path>
                                    <path d="M6.66666667,14 L6.66666667,14.6666667 C8,15.3333333 9.11111111,15.6666667 10,15.6666667 C10.8888889,15.6666667 11.5555556,15.4444444 12,15 L12,14.3333333 C10.8888889,14.3333333 10,14.3333333 9.33333333,14.3333333 C8.88888889,14.3333333 8,14.2222222 6.66666667,14 Z" id="Path-2" fill="#9898CB" fill-rule="evenodd"></path>
                                </g>
                            </g>
                        </g>
                    </g>
                    <path d="M61.8359375,40 L57.4375,40 L57.4375,28.7265625 L61.75,28.7265625 C63.8203125,28.7265625 65.0859375,29.8125 65.0859375,31.5390625 C65.0859375,32.7109375 64.2265625,33.7734375 63.140625,33.96875 L63.140625,34.09375 C64.6796875,34.2890625 65.65625,35.34375 65.65625,36.8359375 C65.65625,38.8203125 64.234375,40 61.8359375,40 Z M58.84375,29.96875 L58.84375,33.5859375 L61.09375,33.5859375 C62.796875,33.5859375 63.6640625,32.9765625 63.6640625,31.78125 C63.6640625,30.6328125 62.8515625,29.96875 61.453125,29.96875 L58.84375,29.96875 Z M58.84375,38.7578125 L61.625,38.7578125 C63.3203125,38.7578125 64.2109375,38.0703125 64.2109375,36.765625 C64.2109375,35.4609375 63.2890625,34.796875 61.4921875,34.796875 L58.84375,34.796875 L58.84375,38.7578125 Z M71.140625,32.6171875 C69.796875,32.6171875 68.859375,33.6015625 68.7578125,35.09375 L73.3984375,35.09375 C73.3671875,33.6015625 72.4765625,32.6171875 71.140625,32.6171875 Z M73.359375,37.8203125 L74.703125,37.8203125 C74.296875,39.265625 73,40.1484375 71.15625,40.1484375 C68.8203125,40.1484375 67.359375,38.4609375 67.359375,35.796875 C67.359375,33.1484375 68.84375,31.4296875 71.15625,31.4296875 C73.4296875,31.4296875 74.8125,33.046875 74.8125,35.6640625 L74.8125,36.1796875 L68.7578125,36.1796875 L68.7578125,36.2421875 C68.828125,37.90625 69.7578125,38.9609375 71.1875,38.9609375 C72.2734375,38.9609375 73.0078125,38.5625 73.359375,37.8203125 Z M83.890625,34.15625 L82.53125,34.15625 C82.3125,33.3203125 81.5703125,32.640625 80.359375,32.640625 C78.84375,32.640625 77.890625,33.8515625 77.890625,35.7578125 C77.890625,37.703125 78.859375,38.9375 80.359375,38.9375 C81.4921875,38.9375 82.28125,38.4140625 82.53125,37.4609375 L83.890625,37.4609375 C83.6484375,39.0078125 82.390625,40.1484375 80.3671875,40.1484375 C78.0078125,40.1484375 76.5,38.4375 76.5,35.7578125 C76.5,33.1328125 78,31.4296875 80.359375,31.4296875 C82.40625,31.4296875 83.65625,32.65625 83.890625,34.15625 Z M87.421875,35.2578125 L91.078125,31.578125 L92.7265625,31.578125 L89.1015625,35.1875 L92.96875,40 L91.2578125,40 L88.1015625,36.0546875 L87.296875,36.8046875 L87.296875,40 L85.953125,40 L85.953125,28.234375 L87.296875,28.234375 L87.296875,35.2578125 L87.421875,35.2578125 Z M95.28125,43.0546875 C95.1015625,43.0546875 94.8671875,43.0390625 94.6796875,43.0078125 L94.6796875,41.859375 C94.84375,41.890625 95.0546875,41.8984375 95.2421875,41.8984375 C96.015625,41.8984375 96.4375,41.5234375 96.7890625,40.5078125 L96.9453125,40.0078125 L93.828125,31.578125 L95.28125,31.578125 L97.59375,38.5078125 L97.71875,38.5078125 L100.023438,31.578125 L101.453125,31.578125 L98.1640625,40.515625 C97.4453125,42.46875 96.7734375,43.0546875 95.28125,43.0546875 Z M114.195312,31.1015625 L111.601562,40 L110.273438,40 L107.203125,28.7265625 L108.671875,28.7265625 L110.914062,37.890625 L111.007812,37.890625 L113.53125,28.7265625 L114.953125,28.7265625 L117.476562,37.890625 L117.570312,37.890625 L119.8125,28.7265625 L121.28125,28.7265625 L118.210938,40 L116.882812,40 L114.289062,31.1015625 L114.195312,31.1015625 Z M125.929688,38.9375 C127.523438,38.9375 128.421875,37.78125 128.421875,35.7890625 C128.421875,33.7890625 127.523438,32.640625 125.929688,32.640625 C124.335938,32.640625 123.4375,33.7890625 123.4375,35.7890625 C123.4375,37.78125 124.335938,38.9375 125.929688,38.9375 Z M125.929688,40.1484375 C123.53125,40.1484375 122.046875,38.4921875 122.046875,35.7890625 C122.046875,33.078125 123.53125,31.4296875 125.929688,31.4296875 C128.328125,31.4296875 129.8125,33.078125 129.8125,35.7890625 C129.8125,38.4921875 128.328125,40.1484375 125.929688,40.1484375 Z M132,40 L132,28.234375 L133.34375,28.234375 L133.34375,40 L132,40 Z M136.515625,40 L136.515625,32.703125 L135.101562,32.703125 L135.101562,31.578125 L136.515625,31.578125 L136.515625,30.7578125 C136.515625,29.03125 137.414062,28.3125 139.039062,28.3125 C139.304688,28.3125 139.539062,28.3359375 139.867188,28.390625 L139.867188,29.515625 C139.6875,29.4765625 139.382812,29.4453125 139.117188,29.4453125 C138.3125,29.4453125 137.859375,29.8515625 137.859375,30.796875 L137.859375,31.578125 L139.789062,31.578125 L139.789062,32.703125 L137.859375,32.703125 L137.859375,40 L136.515625,40 Z M144.75,32.6171875 C143.40625,32.6171875 142.46875,33.6015625 142.367188,35.09375 L147.007812,35.09375 C146.976562,33.6015625 146.085938,32.6171875 144.75,32.6171875 Z M146.96875,37.8203125 L148.3125,37.8203125 C147.90625,39.265625 146.609375,40.1484375 144.765625,40.1484375 C142.429688,40.1484375 140.96875,38.4609375 140.96875,35.796875 C140.96875,33.1484375 142.453125,31.4296875 144.765625,31.4296875 C147.039062,31.4296875 148.421875,33.046875 148.421875,35.6640625 L148.421875,36.1796875 L142.367188,36.1796875 L142.367188,36.2421875 C142.4375,37.90625 143.367188,38.9609375 144.796875,38.9609375 C145.882812,38.9609375 146.617188,38.5625 146.96875,37.8203125 Z" id="Becky-Wolfe" fill="#24124D"></path>
                    <path d="M0,0.5 L368,0.5" id="Path-2" stroke="#E7E6EA"></path>
                </g>
                <g transform="translate(0.000000, 208.000000)">
                    <g id="user/female">
                        <g id="Group">
                            <mask id="mask-8" fill="white">
                                <use xlink:href="#path-7"></use>
                            </mask>
                            <use id="Oval-2" fill="#A5A5D8" opacity="0.300000012" xlink:href="#path-7"></use>
                            <g mask="url(#mask-8)">
                                <g transform="translate(6.666667, 5.333333)">
                                    <path d="M13.6273992,1.64122036 C14.3236676,2.08438463 14.9295316,2.65800103 15.3878063,3.34095687 C16.222965,4.58805897 16.7996053,5.98604002 17.083573,7.45209765 C17.2764712,8.41767371 17.4014198,9.40096611 17.5726727,10.3540452 L17.6822784,11.4139 C17.7015985,11.5732097 17.6333798,11.7295469 17.50364,11.8232868 L13.3333333,14.6666667 L9.33333333,10 L5.30723717,15.402321 L2.67252539,13.7672752 L1.53764868,13.0835803 C1.45559605,13.0233823 1.40358285,12.9309847 1.39517113,12.8304796 C1.31033146,11.6268888 1.31279307,10.419805 1.40253684,9.21859258 C1.49789339,7.93833291 1.74292256,6.67516718 2.13268941,5.45453591 C2.49924826,4.26127986 3.12282269,3.16416301 3.96045471,2.23876563 C4.89251998,1.18316607 6.16393533,0.480389114 7.56341845,0.24722143 C8.48704071,0.0971100228 9.46025636,0.061051988 10.3901812,0 C10.425003,0.000824908958 10.459106,0.0106970383 10.4890922,0.028632751 C10.5348077,0.0518823043 10.5749357,0.0847708215 10.6066352,0.124969766 C10.7422849,0.326172885 10.8614069,0.537784076 10.9628291,0.757721511 C10.9966853,0.863423926 11.0668261,0.954328137 11.1609268,1.01446101 C11.2505464,1.05721706 11.3498674,1.07520233 11.4483438,1.06650713 C12.2112679,1.06016778 12.9641518,1.25873654 13.6273992,1.64122036 Z" id="Shape" fill="#7878AB" fill-rule="nonzero"></path>
                                    <path d="M18.6666667,26.6666667 L0,26.6666667 C0,25.3458803 0,15.6666667 5.33333333,15.6666667 C5.33333333,15.6666667 7.08045977,20 9.01149425,20 C10.9425287,20 13.3333333,15.6666667 13.3333333,15.6666667 C16.8888889,15.6666667 18.6666667,19.3333333 18.6666667,26.6666667 Z" id="Shape" fill="#A5A5D8" fill-rule="nonzero"></path>
                                    <path d="M13.3333333,15.9999307 C13.3333333,18.6563443 11.9999995,20.6666667 9.33333284,20.6666667 C6.70751128,20.6666667 5.39335454,18.595317 5.33333333,15.9999307 C5.33333333,15.9999307 13.3333333,15.9999307 13.3333333,15.9999307 Z" id="Shape" fill="#7878AB" fill-rule="nonzero"></path>
                                    <path d="M12,16.0128933 C12,17.9217163 11.1111112,19.3533335 9.33333366,19.3533335 C7.58278616,19.3533335 6.70668145,17.8778638 6.66666732,16.0128933 C6.66666732,16.0128933 6.6666671,15.1197066 6.66666667,13.3333333 L12,13.3333333 C12,15.1197066 12,16.0128933 12,16.0128933 Z" id="Shape" fill="#B6B6E9" fill-rule="nonzero"></path>
                                    <path d="M14,11.3333333 L13.3333333,14.6666667 L12,14.6666667 L12,12.6666667 C12.0152219,12.6510242 12.6818886,12.2065797 14,11.3333333 Z" id="Shape" fill="#636396" fill-rule="nonzero"></path>
                                    <path d="M4.66666667,11.3333333 C5.07208323,11.9747465 6.61952772,13.2683451 6.66666667,13.3093355 L6.66666667,14.6666667 L5.33333333,15.3333333 C4.87165546,12.8651974 4.64943324,11.5318641 4.66666667,11.3333333 Z" id="Path" fill="#636396" fill-rule="evenodd"></path>
                                    <path d="M11.3333333,4 L13.141471,5.81533431 L14,6.71138802 C14.038321,6.71138802 14.038321,8.25203646 14,11.3333333 C13.5555556,12.6666667 13.1111111,13.5555556 12.6666667,14 C12,14.6666667 8.14115136,14.2051266 6.66666667,14 C5.9180233,13.8958506 5.02872081,13.3333333 4.84769374,12 C4.72700902,11.1111111 4.66666667,10 4.66666667,8.66666667 C5.75397543,8.15758699 6.86508654,7.50582744 8,6.71138802 C9.13491346,5.9169486 10.2460246,5.01315259 11.3333333,4 Z" id="Shape" fill="#C8C8F7" fill-rule="nonzero"></path>
                                    <path d="M7.65721875,8.75855237 C7.87232332,8.98888723 7.98658374,9.18598709 8,9.34985196 C7.99330352,9.45661706 7.95902551,9.55950094 7.90050899,9.64846967 C7.78427472,9.85167132 7.57451509,9.98321004 7.34000852,9.9999554 C7.22005201,10.0013601 7.10165601,9.96955928 6.99791314,9.9080697 C6.80403627,9.79017479 6.68001019,9.58461459 6.66671713,9.35914713 C6.66513107,9.22881005 6.70096023,9.10118923 6.76995558,8.99141943 C6.88136924,8.79473464 7.08803165,8.67162723 7.31512336,8.66666667 C7.43489874,8.66679718 7.55289329,8.69849013 7.65721875,8.75855237 Z M10.9761877,8.73246242 C11.1842212,8.84758549 11.3194144,9.06275175 11.333283,9.30079632 C11.3348646,9.43200313 11.2991373,9.56047554 11.2303382,9.67097782 C11.1192415,9.86897506 10.9131669,9.99290395 10.6867212,9.99789762 C10.5646609,10.0073612 10.4418813,9.98476708 10.3303098,9.93231012 C10.1328436,9.81784679 10.0076509,9.60837248 10.0000559,9.37972466 C9.99556716,9.01564383 10.2620365,8.70913052 10.6197763,8.66687492 C10.6996456,8.66479045 10.8184494,8.68665295 10.9761877,8.73246242 Z" id="Shape" fill="#7272A5" fill-rule="nonzero"></path>
                                    <path d="M6.66666667,14 L6.66666667,14.6666667 C8,15.3333333 9.11111111,15.6666667 10,15.6666667 C10.8888889,15.6666667 11.5555556,15.4444444 12,15 L12,14.3333333 C10.8888889,14.3333333 10,14.3333333 9.33333333,14.3333333 C8.88888889,14.3333333 8,14.2222222 6.66666667,14 Z" id="Path-2" fill="#9898CB" fill-rule="evenodd"></path>
                                </g>
                            </g>
                        </g>
                    </g>
                    <path d="M56.8984375,17.0546875 L58.3203125,17.0546875 C58.4921875,18.234375 59.6171875,18.984375 61.21875,18.984375 C62.734375,18.984375 63.8515625,18.1640625 63.8515625,17.046875 C63.8515625,16.0859375 63.1484375,15.4765625 61.59375,15.0859375 L60.1484375,14.7109375 C58.109375,14.1953125 57.2265625,13.2734375 57.2265625,11.671875 C57.2265625,9.7578125 58.828125,8.4609375 61.2109375,8.4609375 C63.390625,8.4609375 65.015625,9.7578125 65.1328125,11.578125 L63.71875,11.578125 C63.5234375,10.421875 62.5703125,9.734375 61.1640625,9.734375 C59.6640625,9.734375 58.671875,10.484375 58.671875,11.625 C58.671875,12.5078125 59.2890625,13.015625 60.84375,13.4140625 L62.0234375,13.7265625 C64.359375,14.3125 65.296875,15.21875 65.296875,16.875 C65.296875,18.9453125 63.6640625,20.265625 61.0859375,20.265625 C58.6953125,20.265625 57.046875,19 56.8984375,17.0546875 Z M70.0546875,18.96875 C71.4375,18.96875 72.4609375,18.0625 72.4609375,16.859375 L72.4609375,16.0859375 L70.1953125,16.234375 C68.9140625,16.3203125 68.3515625,16.765625 68.3515625,17.609375 C68.3515625,18.46875 69.078125,18.96875 70.0546875,18.96875 Z M69.8046875,20.1484375 C68.171875,20.1484375 66.9609375,19.1796875 66.9609375,17.640625 C66.9609375,16.1328125 68.0703125,15.265625 70.03125,15.1484375 L72.4609375,15 L72.4609375,14.234375 C72.4609375,13.1953125 71.8125,12.625 70.5546875,12.625 C69.546875,12.625 68.84375,13.0078125 68.65625,13.671875 L67.296875,13.671875 C67.4765625,12.3203125 68.8046875,11.4296875 70.6015625,11.4296875 C72.65625,11.4296875 73.8046875,12.484375 73.8046875,14.234375 L73.8046875,20 L72.5234375,20 L72.5234375,18.7578125 L72.3984375,18.7578125 C71.8515625,19.65625 70.9296875,20.1484375 69.8046875,20.1484375 Z M76.2890625,20 L76.2890625,11.578125 L77.5703125,11.578125 L77.5703125,12.90625 L77.6953125,12.90625 C78.078125,11.96875 78.921875,11.4296875 80.046875,11.4296875 C81.1875,11.4296875 81.984375,12.03125 82.375,12.90625 L82.5,12.90625 C82.953125,12.015625 83.9140625,11.4296875 85.078125,11.4296875 C86.796875,11.4296875 87.7578125,12.4140625 87.7578125,14.1796875 L87.7578125,20 L86.4140625,20 L86.4140625,14.4921875 C86.4140625,13.25 85.828125,12.640625 84.640625,12.640625 C83.46875,12.640625 82.6875,13.515625 82.6875,14.5859375 L82.6875,20 L81.34375,20 L81.34375,14.28125 C81.34375,13.28125 80.6484375,12.640625 79.5859375,12.640625 C78.484375,12.640625 77.6328125,13.59375 77.6328125,14.78125 L77.6328125,20 L76.2890625,20 Z M92.8046875,18.96875 C94.1875,18.96875 95.2109375,18.0625 95.2109375,16.859375 L95.2109375,16.0859375 L92.9453125,16.234375 C91.6640625,16.3203125 91.1015625,16.765625 91.1015625,17.609375 C91.1015625,18.46875 91.828125,18.96875 92.8046875,18.96875 Z M92.5546875,20.1484375 C90.921875,20.1484375 89.7109375,19.1796875 89.7109375,17.640625 C89.7109375,16.1328125 90.8203125,15.265625 92.78125,15.1484375 L95.2109375,15 L95.2109375,14.234375 C95.2109375,13.1953125 94.5625,12.625 93.3046875,12.625 C92.296875,12.625 91.59375,13.0078125 91.40625,13.671875 L90.046875,13.671875 C90.2265625,12.3203125 91.5546875,11.4296875 93.3515625,11.4296875 C95.40625,11.4296875 96.5546875,12.484375 96.5546875,14.234375 L96.5546875,20 L95.2734375,20 L95.2734375,18.7578125 L95.1484375,18.7578125 C94.6015625,19.65625 93.6796875,20.1484375 92.5546875,20.1484375 Z M99.0390625,20 L99.0390625,11.578125 L100.320312,11.578125 L100.320312,12.90625 L100.445312,12.90625 C100.867188,11.9765625 101.84375,11.4296875 103.132812,11.4296875 C105.023438,11.4296875 106.078125,12.546875 106.078125,14.546875 L106.078125,20 L104.734375,20 L104.734375,14.875 C104.734375,13.359375 104.09375,12.640625 102.75,12.640625 C101.273438,12.640625 100.382812,13.5390625 100.382812,15.015625 L100.382812,20 L99.0390625,20 Z M109.09375,9.4765625 L110.4375,9.4765625 L110.4375,11.578125 L112.390625,11.578125 L112.390625,12.703125 L110.4375,12.703125 L110.4375,17.46875 C110.4375,18.4609375 110.8125,18.8828125 111.6875,18.8828125 C111.929688,18.8828125 112.046875,18.875 112.296875,18.8515625 L112.296875,19.984375 C112.03125,20.03125 111.789062,20.0625 111.523438,20.0625 C109.789062,20.0625 109.09375,19.421875 109.09375,17.8125 L109.09375,12.703125 L107.679688,12.703125 L107.679688,11.578125 L109.09375,11.578125 L109.09375,9.4765625 Z M114.421875,20 L114.421875,8.234375 L115.765625,8.234375 L115.765625,12.90625 L115.890625,12.90625 C116.3125,11.9765625 117.273438,11.4296875 118.5625,11.4296875 C120.476562,11.4296875 121.546875,12.5703125 121.546875,14.546875 L121.546875,20 L120.203125,20 L120.203125,14.875 C120.203125,13.3828125 119.546875,12.640625 118.179688,12.640625 C116.671875,12.640625 115.765625,13.59375 115.765625,15.015625 L115.765625,20 L114.421875,20 Z M126.59375,18.96875 C127.976562,18.96875 129,18.0625 129,16.859375 L129,16.0859375 L126.734375,16.234375 C125.453125,16.3203125 124.890625,16.765625 124.890625,17.609375 C124.890625,18.46875 125.617188,18.96875 126.59375,18.96875 Z M126.34375,20.1484375 C124.710938,20.1484375 123.5,19.1796875 123.5,17.640625 C123.5,16.1328125 124.609375,15.265625 126.570312,15.1484375 L129,15 L129,14.234375 C129,13.1953125 128.351562,12.625 127.09375,12.625 C126.085938,12.625 125.382812,13.0078125 125.195312,13.671875 L123.835938,13.671875 C124.015625,12.3203125 125.34375,11.4296875 127.140625,11.4296875 C129.195312,11.4296875 130.34375,12.484375 130.34375,14.234375 L130.34375,20 L129.0625,20 L129.0625,18.7578125 L128.9375,18.7578125 C128.390625,19.65625 127.46875,20.1484375 126.34375,20.1484375 Z" id="Samantha" fill="#24124D"></path>
                </g>
            </g>
            <g transform="translate(104.000000, 108.000000)">
                <g id="Card">
                    <use fill="black" fill-opacity="1" filter="url(#filter-10)" xlink:href="#path-9"></use>
                    <use fill="#FFFFFF" fill-rule="evenodd" xlink:href="#path-9"></use>
                </g>
                <g id="Rectangle-5" stroke-linecap="square">
                    <use fill="#FFFFFF" fill-rule="evenodd" xlink:href="#path-11"></use>
                    <rect stroke-opacity="0.098194067" stroke="#140B2F" stroke-width="1" x="-0.5" y="-0.5" width="265" height="169" rx="3"></rect>
                </g>
                <g transform="translate(24.000000, 22.000000)">
                    <g id="Button" transform="translate(0.000000, 82.000000)">
                        <g id="Rectangle">
                            <use fill="black" fill-opacity="1" filter="url(#filter-13)" xlink:href="#path-12"></use>
                            <use fill="#512DA8" fill-rule="evenodd" xlink:href="#path-12"></use>
                        </g>
                        <path d="M14.2895508,21.3203125 L16.012207,21.3203125 C16.121582,22.2021484 16.996582,22.7695312 18.2475586,22.7695312 C19.409668,22.7695312 20.2504883,22.1748047 20.2504883,21.3476562 C20.2504883,20.6367188 19.7104492,20.2197266 18.4458008,19.9257812 L17.1674805,19.6318359 C15.3764648,19.2285156 14.5356445,18.3398438 14.5356445,16.8701172 C14.5356445,15.0791016 15.9985352,13.8896484 18.206543,13.8896484 C20.277832,13.8896484 21.7749023,15.0791016 21.8569336,16.7744141 L20.168457,16.7744141 C20.0454102,15.90625 19.2797852,15.359375 18.199707,15.359375 C17.0649414,15.359375 16.3129883,15.90625 16.3129883,16.7470703 C16.3129883,17.4101562 16.8120117,17.7998047 18.0356445,18.0800781 L19.1704102,18.3398438 C21.1733398,18.7910156 22.0141602,19.625 22.0141602,21.1289062 C22.0141602,23.0498047 20.5307617,24.2460938 18.1381836,24.2460938 C15.8754883,24.2460938 14.378418,23.1113281 14.2895508,21.3203125 Z M26.956543,17.7177734 C25.9448242,17.7177734 25.2338867,18.4423828 25.1586914,19.5361328 L28.6791992,19.5361328 C28.6450195,18.4287109 27.9750977,17.7177734 26.956543,17.7177734 Z M28.6928711,21.9423828 L30.2993164,21.9423828 C29.9780273,23.3027344 28.7407227,24.1503906 26.9770508,24.1503906 C24.7758789,24.1503906 23.449707,22.6943359 23.449707,20.2880859 C23.449707,17.8818359 24.7963867,16.3710938 26.9633789,16.3710938 C29.0961914,16.3710938 30.3745117,17.7861328 30.3745117,20.1445312 L30.3745117,20.6914062 L25.1518555,20.6914062 L25.1518555,20.7802734 C25.1928711,22.0244141 25.9106445,22.8037109 27.0249023,22.8037109 C27.8657227,22.8037109 28.4467773,22.4960938 28.6928711,21.9423828 Z M32.0766602,24 L32.0766602,16.5214844 L33.7104492,16.5214844 L33.7104492,17.7177734 L33.8266602,17.7177734 C34.1821289,16.8837891 35.0571289,16.3710938 36.1782227,16.3710938 C37.8461914,16.3710938 38.7827148,17.3759766 38.7827148,19.1601562 L38.7827148,24 L37.0942383,24 L37.0942383,19.5634766 C37.0942383,18.421875 36.574707,17.8476562 35.5493164,17.8476562 C34.4555664,17.8476562 33.7719727,18.5449219 33.7719727,19.6455078 L33.7719727,24 L32.0766602,24 Z M43.4995117,24.1230469 C41.605957,24.1230469 40.4233398,22.6328125 40.4233398,20.2539062 C40.4233398,17.8886719 41.612793,16.3984375 43.4995117,16.3984375 C44.5249023,16.3984375 45.3725586,16.890625 45.769043,17.7109375 L45.8852539,17.7109375 L45.8852539,13.6298828 L47.5805664,13.6298828 L47.5805664,24 L45.9399414,24 L45.9399414,22.8173828 L45.8237305,22.8173828 C45.3999023,23.6376953 44.5385742,24.1230469 43.4995117,24.1230469 Z M44.0258789,17.8408203 C42.8706055,17.8408203 42.159668,18.7568359 42.159668,20.2607422 C42.159668,21.7714844 42.8637695,22.6806641 44.0258789,22.6806641 C45.1948242,22.6806641 45.9057617,21.7646484 45.9057617,20.2607422 C45.9057617,18.7705078 45.1879883,17.8408203 44.0258789,17.8408203 Z M53.4731445,24 L53.4731445,16.5214844 L55.1616211,16.5214844 L55.1616211,24 L53.4731445,24 Z M54.3139648,15.3046875 C53.6987305,15.3046875 53.2680664,14.9082031 53.2680664,14.3681641 C53.2680664,13.828125 53.6987305,13.4316406 54.3139648,13.4316406 C54.9360352,13.4316406 55.3598633,13.828125 55.3598633,14.3681641 C55.3598633,14.9082031 54.9360352,15.3046875 54.3139648,15.3046875 Z M57.2602539,24 L57.2602539,16.5214844 L58.894043,16.5214844 L58.894043,17.7177734 L59.0102539,17.7177734 C59.3657227,16.8837891 60.2407227,16.3710938 61.3618164,16.3710938 C63.0297852,16.3710938 63.9663086,17.3759766 63.9663086,19.1601562 L63.9663086,24 L62.277832,24 L62.277832,19.5634766 C62.277832,18.421875 61.7583008,17.8476562 60.7329102,17.8476562 C59.6391602,17.8476562 58.9555664,18.5449219 58.9555664,19.6455078 L58.9555664,24 L57.2602539,24 Z M65.3266602,16.5214844 L67.1450195,16.5214844 L68.8745117,22.3046875 L68.9907227,22.3046875 L70.706543,16.5214844 L72.4975586,16.5214844 L69.8520508,24 L67.9858398,24 L65.3266602,16.5214844 Z M73.9467773,24 L73.9467773,16.5214844 L75.6352539,16.5214844 L75.6352539,24 L73.9467773,24 Z M74.7875977,15.3046875 C74.1723633,15.3046875 73.7416992,14.9082031 73.7416992,14.3681641 C73.7416992,13.828125 74.1723633,13.4316406 74.7875977,13.4316406 C75.409668,13.4316406 75.8334961,13.828125 75.8334961,14.3681641 C75.8334961,14.9082031 75.409668,15.3046875 74.7875977,15.3046875 Z M78.2739258,14.7373047 L79.9624023,14.7373047 L79.9624023,16.5693359 L81.6030273,16.5693359 L81.6030273,17.9228516 L79.9624023,17.9228516 L79.9624023,21.59375 C79.9624023,22.3320312 80.2768555,22.6601562 80.987793,22.6601562 C81.2270508,22.6601562 81.3500977,22.6464844 81.5483398,22.6259766 L81.5483398,23.9521484 C81.309082,24 81.0014648,24.0341797 80.6733398,24.0341797 C78.9575195,24.0341797 78.2739258,23.453125 78.2739258,22.0039062 L78.2739258,17.9228516 L77.0571289,17.9228516 L77.0571289,16.5693359 L78.2739258,16.5693359 L78.2739258,14.7373047 Z M86.3950195,17.7177734 C85.3833008,17.7177734 84.6723633,18.4423828 84.597168,19.5361328 L88.1176758,19.5361328 C88.0834961,18.4287109 87.4135742,17.7177734 86.3950195,17.7177734 Z M88.1313477,21.9423828 L89.737793,21.9423828 C89.4165039,23.3027344 88.1791992,24.1503906 86.4155273,24.1503906 C84.2143555,24.1503906 82.8881836,22.6943359 82.8881836,20.2880859 C82.8881836,17.8818359 84.2348633,16.3710938 86.4018555,16.3710938 C88.534668,16.3710938 89.8129883,17.7861328 89.8129883,20.1445312 L89.8129883,20.6914062 L84.590332,20.6914062 L84.590332,20.7802734 C84.6313477,22.0244141 85.3491211,22.8037109 86.4633789,22.8037109 C87.3041992,22.8037109 87.8852539,22.4960938 88.1313477,21.9423828 Z" id="Add-person" fill="#FFFFFF"></path>
                    </g>
                    <g id="component/input" transform="translate(0.000000, 26.000000)">
                        <g id="Rectangle-5" stroke-linecap="square">
                            <use fill="black" fill-opacity="1" filter="url(#filter-15)" xlink:href="#path-14"></use>
                            <use fill="#FFFFFF" fill-rule="evenodd" xlink:href="#path-14"></use>
                            <rect stroke-opacity="0.098194067" stroke="#140B2F" stroke-width="1" x="-0.5" y="-0.5" width="217" height="41" rx="3"></rect>
                        </g>
                        <path d="M19.4990234,22.6054688 L19.4990234,24 L13.2373047,24 L13.2373047,14.1357422 L19.4990234,14.1357422 L19.4990234,15.5302734 L14.7685547,15.5302734 L14.7685547,18.3193359 L19.2460938,18.3193359 L19.2460938,19.6455078 L14.7685547,19.6455078 L14.7685547,22.6054688 L19.4990234,22.6054688 Z M21.5361328,24 L21.5361328,16.5556641 L22.9511719,16.5556641 L22.9511719,17.7519531 L23.0605469,17.7519531 C23.3886719,16.9111328 24.140625,16.4121094 25.1318359,16.4121094 C26.1503906,16.4121094 26.8544922,16.9384766 27.1826172,17.7519531 L27.2988281,17.7519531 C27.6748047,16.9384766 28.5292969,16.4121094 29.5615234,16.4121094 C31.0654297,16.4121094 31.9404297,17.3212891 31.9404297,18.8730469 L31.9404297,24 L30.4707031,24 L30.4707031,19.2558594 C30.4707031,18.2509766 29.9921875,17.7587891 29.0283203,17.7587891 C28.078125,17.7587891 27.4560547,18.4423828 27.4560547,19.3173828 L27.4560547,24 L26.0136719,24 L26.0136719,19.1123047 C26.0136719,18.2714844 25.453125,17.7587891 24.578125,17.7587891 C23.6826172,17.7587891 23.0058594,18.4902344 23.0058594,19.4472656 L23.0058594,24 L21.5361328,24 Z M36.4384766,22.8857422 C37.5458984,22.8857422 38.3662109,22.1816406 38.3662109,21.2587891 L38.3662109,20.6367188 L36.5478516,20.7529297 C35.5224609,20.8212891 35.0576172,21.1699219 35.0576172,21.8261719 C35.0576172,22.4960938 35.6386719,22.8857422 36.4384766,22.8857422 Z M36.0625,24.1230469 C34.6269531,24.1230469 33.5810547,23.2548828 33.5810547,21.8945312 C33.5810547,20.5546875 34.5791016,19.7822266 36.3496094,19.6728516 L38.3662109,19.5566406 L38.3662109,18.9140625 C38.3662109,18.1279297 37.8466797,17.6835938 36.8417969,17.6835938 C36.0214844,17.6835938 35.4541016,17.984375 35.2900391,18.5107422 L33.8681641,18.5107422 C34.0185547,17.2324219 35.2216797,16.4121094 36.9101562,16.4121094 C38.7763672,16.4121094 39.8291016,17.3417969 39.8291016,18.9140625 L39.8291016,24 L38.4140625,24 L38.4140625,22.9541016 L38.2978516,22.9541016 C37.8535156,23.6992188 37.0400391,24.1230469 36.0625,24.1230469 Z M41.9482422,24 L41.9482422,16.5556641 L43.4111328,16.5556641 L43.4111328,24 L41.9482422,24 Z M42.6796875,15.25 C42.1328125,15.25 41.7294922,14.8603516 41.7294922,14.3544922 C41.7294922,13.8417969 42.1328125,13.4521484 42.6796875,13.4521484 C43.2265625,13.4521484 43.6298828,13.8417969 43.6298828,14.3544922 C43.6298828,14.8603516 43.2265625,15.25 42.6796875,15.25 Z M45.6396484,24 L45.6396484,13.6503906 L47.109375,13.6503906 L47.109375,24 L45.6396484,24 Z M55.5722656,22.8857422 C56.6796875,22.8857422 57.5,22.1816406 57.5,21.2587891 L57.5,20.6367188 L55.6816406,20.7529297 C54.65625,20.8212891 54.1914062,21.1699219 54.1914062,21.8261719 C54.1914062,22.4960938 54.7724609,22.8857422 55.5722656,22.8857422 Z M55.1962891,24.1230469 C53.7607422,24.1230469 52.7148438,23.2548828 52.7148438,21.8945312 C52.7148438,20.5546875 53.7128906,19.7822266 55.4833984,19.6728516 L57.5,19.5566406 L57.5,18.9140625 C57.5,18.1279297 56.9804688,17.6835938 55.9755859,17.6835938 C55.1552734,17.6835938 54.5878906,17.984375 54.4238281,18.5107422 L53.0019531,18.5107422 C53.1523438,17.2324219 54.3554688,16.4121094 56.0439453,16.4121094 C57.9101562,16.4121094 58.9628906,17.3417969 58.9628906,18.9140625 L58.9628906,24 L57.5478516,24 L57.5478516,22.9541016 L57.4316406,22.9541016 C56.9873047,23.6992188 56.1738281,24.1230469 55.1962891,24.1230469 Z M63.7753906,24.1230469 C61.8818359,24.1230469 60.6855469,22.6328125 60.6855469,20.2744141 C60.6855469,17.9228516 61.8955078,16.4326172 63.7753906,16.4326172 C64.7939453,16.4326172 65.6552734,16.9179688 66.0585938,17.7382812 L66.1679688,17.7382812 L66.1679688,13.6503906 L67.6376953,13.6503906 L67.6376953,24 L66.2294922,24 L66.2294922,22.8242188 L66.1132812,22.8242188 C65.6689453,23.6376953 64.8007812,24.1230469 63.7753906,24.1230469 Z M64.1923828,17.7519531 C62.9550781,17.7519531 62.203125,18.7089844 62.203125,20.2744141 C62.203125,21.8535156 62.9482422,22.8037109 64.1923828,22.8037109 C65.4296875,22.8037109 66.1953125,21.8398438 66.1953125,20.28125 C66.1953125,18.7294922 65.4228516,17.7519531 64.1923828,17.7519531 Z M72.5595703,24.1230469 C70.6660156,24.1230469 69.4697266,22.6328125 69.4697266,20.2744141 C69.4697266,17.9228516 70.6796875,16.4326172 72.5595703,16.4326172 C73.578125,16.4326172 74.4394531,16.9179688 74.8427734,17.7382812 L74.9521484,17.7382812 L74.9521484,13.6503906 L76.421875,13.6503906 L76.421875,24 L75.0136719,24 L75.0136719,22.8242188 L74.8974609,22.8242188 C74.453125,23.6376953 73.5849609,24.1230469 72.5595703,24.1230469 Z M72.9765625,17.7519531 C71.7392578,17.7519531 70.9873047,18.7089844 70.9873047,20.2744141 C70.9873047,21.8535156 71.7324219,22.8037109 72.9765625,22.8037109 C74.2138672,22.8037109 74.9794922,21.8398438 74.9794922,20.28125 C74.9794922,18.7294922 74.2070312,17.7519531 72.9765625,17.7519531 Z M78.6230469,24 L78.6230469,16.5556641 L80.0380859,16.5556641 L80.0380859,17.6972656 L80.1474609,17.6972656 C80.359375,16.9658203 81.1796875,16.4326172 82.1503906,16.4326172 C82.3623047,16.4326172 82.6425781,16.453125 82.7998047,16.4941406 L82.7998047,17.9433594 C82.6835938,17.9023438 82.2324219,17.8544922 81.9863281,17.8544922 C80.8789062,17.8544922 80.0927734,18.5585938 80.0927734,19.6044922 L80.0927734,24 L78.6230469,24 Z M87.2021484,17.6630859 C86.1152344,17.6630859 85.3564453,18.4287109 85.2744141,19.5908203 L89.0341797,19.5908203 C89,18.421875 88.2890625,17.6630859 87.2021484,17.6630859 Z M89.0273437,21.9902344 L90.4423828,21.9902344 C90.1074219,23.3232422 88.9179687,24.1435547 87.2158203,24.1435547 C85.0830078,24.1435547 83.7773437,22.6806641 83.7773437,20.3017578 C83.7773437,17.9228516 85.1103516,16.4121094 87.2089844,16.4121094 C89.2802734,16.4121094 90.53125,17.8271484 90.53125,20.1650391 L90.53125,20.6777344 L85.2744141,20.6777344 L85.2744141,20.7597656 C85.3222656,22.0654297 86.0810547,22.8925781 87.2568359,22.8925781 C88.1455078,22.8925781 88.7539062,22.5712891 89.0273437,21.9902344 Z M92.1240234,18.6611328 C92.1240234,17.3417969 93.3339844,16.4121094 95.015625,16.4121094 C96.6904297,16.4121094 97.7841797,17.1914062 97.9277344,18.5039062 L96.5195313,18.5039062 C96.3828125,17.9570312 95.8496094,17.6083984 95.015625,17.6083984 C94.1953125,17.6083984 93.5732422,17.9980469 93.5732422,18.5791016 C93.5732422,19.0234375 93.9492188,19.3037109 94.7558594,19.4882812 L95.9931641,19.7753906 C97.4082031,20.1035156 98.0712891,20.7119141 98.0712891,21.8056641 C98.0712891,23.2070312 96.765625,24.1435547 94.9882813,24.1435547 C93.2177734,24.1435547 92.0625,23.34375 91.9326172,22.0244141 L93.4023438,22.0244141 C93.5869141,22.5986328 94.1337891,22.9541016 95.0224609,22.9541016 C95.9384766,22.9541016 96.5878906,22.5439453 96.5878906,21.9492188 C96.5878906,21.5048828 96.2392578,21.2177734 95.4941406,21.0400391 L94.1953125,20.7392578 C92.7802734,20.4042969 92.1240234,19.7685547 92.1240234,18.6611328 Z M99.6708984,18.6611328 C99.6708984,17.3417969 100.880859,16.4121094 102.5625,16.4121094 C104.237305,16.4121094 105.331055,17.1914062 105.474609,18.5039062 L104.066406,18.5039062 C103.929687,17.9570312 103.396484,17.6083984 102.5625,17.6083984 C101.742187,17.6083984 101.120117,17.9980469 101.120117,18.5791016 C101.120117,19.0234375 101.496094,19.3037109 102.302734,19.4882812 L103.540039,19.7753906 C104.955078,20.1035156 105.618164,20.7119141 105.618164,21.8056641 C105.618164,23.2070312 104.3125,24.1435547 102.535156,24.1435547 C100.764648,24.1435547 99.609375,23.34375 99.4794922,22.0244141 L100.949219,22.0244141 C101.133789,22.5986328 101.680664,22.9541016 102.569336,22.9541016 C103.485352,22.9541016 104.134766,22.5439453 104.134766,21.9492188 C104.134766,21.5048828 103.786133,21.2177734 103.041016,21.0400391 L101.742187,20.7392578 C100.327148,20.4042969 99.6708984,19.7685547 99.6708984,18.6611328 Z" id="Placeholder" fill="#726D82"></path>
                    </g>
                    <path d="M2.5546875,10 L1.04296875,10 L1.04296875,1.54492188 L2.5546875,1.54492188 L2.5546875,10 Z M4.48828125,10 L4.48828125,3.58984375 L5.88867188,3.58984375 L5.88867188,4.61523438 L5.98828125,4.61523438 C6.29296875,3.90039063 7.04296875,3.4609375 8.00390625,3.4609375 C9.43359375,3.4609375 10.2363281,4.32226562 10.2363281,5.8515625 L10.2363281,10 L8.7890625,10 L8.7890625,6.19726562 C8.7890625,5.21875 8.34375,4.7265625 7.46484375,4.7265625 C6.52734375,4.7265625 5.94140625,5.32421875 5.94140625,6.26757812 L5.94140625,10 L4.48828125,10 Z M11.4023438,3.58984375 L12.9609375,3.58984375 L14.4433594,8.546875 L14.5429688,8.546875 L16.0136719,3.58984375 L17.5488281,3.58984375 L15.28125,10 L13.6816406,10 L11.4023438,3.58984375 Z M18.7910156,10 L18.7910156,3.58984375 L20.2382812,3.58984375 L20.2382812,10 L18.7910156,10 Z M19.5117187,2.546875 C18.984375,2.546875 18.6152344,2.20703125 18.6152344,1.74414062 C18.6152344,1.28125 18.984375,0.94140625 19.5117187,0.94140625 C20.0449219,0.94140625 20.4082031,1.28125 20.4082031,1.74414062 C20.4082031,2.20703125 20.0449219,2.546875 19.5117187,2.546875 Z M22.5,2.06054688 L23.9472656,2.06054688 L23.9472656,3.63085938 L25.3535156,3.63085938 L25.3535156,4.79101562 L23.9472656,4.79101562 L23.9472656,7.9375 C23.9472656,8.5703125 24.2167969,8.8515625 24.8261719,8.8515625 C25.03125,8.8515625 25.1367188,8.83984375 25.3066406,8.82226562 L25.3066406,9.95898438 C25.1015625,10 24.8378906,10.0292969 24.5566406,10.0292969 C23.0859375,10.0292969 22.5,9.53125 22.5,8.2890625 L22.5,4.79101562 L21.4570312,4.79101562 L21.4570312,3.63085938 L22.5,3.63085938 L22.5,2.06054688 Z M29.4609375,4.61523438 C28.59375,4.61523438 27.984375,5.23632812 27.9199219,6.17382812 L30.9375,6.17382812 C30.9082031,5.22460938 30.3339844,4.61523438 29.4609375,4.61523438 Z M30.9492187,8.23632812 L32.3261719,8.23632812 C32.0507812,9.40234375 30.9902344,10.1289062 29.4785156,10.1289062 C27.5917969,10.1289062 26.4550781,8.88085938 26.4550781,6.81835938 C26.4550781,4.75585938 27.609375,3.4609375 29.4667969,3.4609375 C31.2949219,3.4609375 32.390625,4.67382812 32.390625,6.6953125 L32.390625,7.1640625 L27.9140625,7.1640625 L27.9140625,7.24023438 C27.9492187,8.30664062 28.5644531,8.97460938 29.5195312,8.97460938 C30.2402344,8.97460938 30.7382812,8.7109375 30.9492187,8.23632812 Z M37.5117188,2.06054688 L38.9589844,2.06054688 L38.9589844,3.63085938 L40.3652344,3.63085938 L40.3652344,4.79101562 L38.9589844,4.79101562 L38.9589844,7.9375 C38.9589844,8.5703125 39.2285156,8.8515625 39.8378906,8.8515625 C40.0429688,8.8515625 40.1484375,8.83984375 40.3183594,8.82226562 L40.3183594,9.95898438 C40.1132812,10 39.8496094,10.0292969 39.5683594,10.0292969 C38.0976562,10.0292969 37.5117188,9.53125 37.5117188,8.2890625 L37.5117188,4.79101562 L36.46875,4.79101562 L36.46875,3.63085938 L37.5117188,3.63085938 L37.5117188,2.06054688 Z M44.4726562,4.61523438 C43.6054688,4.61523438 42.9960938,5.23632812 42.9316406,6.17382812 L45.9492188,6.17382812 C45.9199219,5.22460938 45.3457031,4.61523438 44.4726562,4.61523438 Z M45.9609375,8.23632812 L47.3378906,8.23632812 C47.0625,9.40234375 46.0019531,10.1289062 44.4902344,10.1289062 C42.6035156,10.1289062 41.4667969,8.88085938 41.4667969,6.81835938 C41.4667969,4.75585938 42.6210938,3.4609375 44.4785156,3.4609375 C46.3066406,3.4609375 47.4023438,4.67382812 47.4023438,6.6953125 L47.4023438,7.1640625 L42.9257812,7.1640625 L42.9257812,7.24023438 C42.9609375,8.30664062 43.5761719,8.97460938 44.53125,8.97460938 C45.2519531,8.97460938 45.75,8.7109375 45.9609375,8.23632812 Z M51.0527344,8.96289062 C51.9316406,8.96289062 52.5878906,8.39453125 52.5878906,7.65039062 L52.5878906,7.140625 L51.140625,7.234375 C50.3261719,7.28710938 49.9453125,7.58007812 49.9453125,8.1015625 C49.9453125,8.640625 50.4082031,8.96289062 51.0527344,8.96289062 Z M50.625,10.1054688 C49.3886719,10.1054688 48.5039062,9.35546875 48.5039062,8.18359375 C48.5039062,7.0234375 49.3769531,6.35546875 50.9355469,6.26171875 L52.5878906,6.16210938 L52.5878906,5.62304688 C52.5878906,4.99609375 52.1660156,4.64453125 51.3808594,4.64453125 C50.7128906,4.64453125 50.2558594,4.87890625 50.1210938,5.3125 L48.75,5.3125 C48.8671875,4.18164062 49.9277344,3.4609375 51.4511719,3.4609375 C53.0976562,3.4609375 54.0234375,4.26367188 54.0234375,5.62304688 L54.0234375,10 L52.6230469,10 L52.6230469,9.12109375 L52.5234375,9.12109375 C52.1660156,9.7421875 51.4628906,10.1054688 50.625,10.1054688 Z M55.7695312,10 L55.7695312,3.58984375 L57.1699219,3.58984375 L57.1699219,4.62695312 L57.2695312,4.62695312 C57.5449219,3.89453125 58.2011719,3.4609375 59.0507812,3.4609375 C59.9355469,3.4609375 60.5507812,3.90625 60.8203125,4.62695312 L60.9199219,4.62695312 C61.2363281,3.92382813 61.9746094,3.4609375 62.8652344,3.4609375 C64.1484375,3.4609375 64.921875,4.26367188 64.921875,5.59375 L64.921875,10 L63.4746094,10 L63.4746094,5.96289062 C63.4746094,5.13671875 63.0820312,4.7265625 62.3027344,4.7265625 C61.546875,4.7265625 61.0488281,5.27734375 61.0488281,6.00976562 L61.0488281,10 L59.6367188,10 L59.6367188,5.85742188 C59.6367188,5.15429688 59.1914062,4.7265625 58.4765625,4.7265625 C57.7558594,4.7265625 57.2226562,5.31835938 57.2226562,6.10351562 L57.2226562,10 L55.7695312,10 Z M66.6445312,10 L66.6445312,3.58984375 L68.0449219,3.58984375 L68.0449219,4.62695312 L68.1445312,4.62695312 C68.4199219,3.89453125 69.0761719,3.4609375 69.9257812,3.4609375 C70.8105469,3.4609375 71.4257812,3.90625 71.6953125,4.62695312 L71.7949219,4.62695312 C72.1113281,3.92382813 72.8496094,3.4609375 73.7402344,3.4609375 C75.0234375,3.4609375 75.796875,4.26367188 75.796875,5.59375 L75.796875,10 L74.3496094,10 L74.3496094,5.96289062 C74.3496094,5.13671875 73.9570312,4.7265625 73.1777344,4.7265625 C72.421875,4.7265625 71.9238281,5.27734375 71.9238281,6.00976562 L71.9238281,10 L70.5117188,10 L70.5117188,5.85742188 C70.5117188,5.15429688 70.0664062,4.7265625 69.3515625,4.7265625 C68.6308594,4.7265625 68.0976562,5.31835938 68.0976562,6.10351562 L68.0976562,10 L66.6445312,10 Z M79.7109375,8.96289062 C80.5898437,8.96289062 81.2460937,8.39453125 81.2460937,7.65039062 L81.2460937,7.140625 L79.7988281,7.234375 C78.984375,7.28710938 78.6035156,7.58007812 78.6035156,8.1015625 C78.6035156,8.640625 79.0664062,8.96289062 79.7109375,8.96289062 Z M79.2832031,10.1054688 C78.046875,10.1054688 77.1621094,9.35546875 77.1621094,8.18359375 C77.1621094,7.0234375 78.0351562,6.35546875 79.59375,6.26171875 L81.2460938,6.16210938 L81.2460938,5.62304688 C81.2460938,4.99609375 80.8242188,4.64453125 80.0390625,4.64453125 C79.3710938,4.64453125 78.9140625,4.87890625 78.7792969,5.3125 L77.4082031,5.3125 C77.5253906,4.18164062 78.5859375,3.4609375 80.109375,3.4609375 C81.7558594,3.4609375 82.6816406,4.26367188 82.6816406,5.62304688 L82.6816406,10 L81.28125,10 L81.28125,9.12109375 L81.1816406,9.12109375 C80.8242188,9.7421875 80.1210938,10.1054688 79.2832031,10.1054688 Z M84.890625,2.06054688 L86.3378906,2.06054688 L86.3378906,3.63085938 L87.7441406,3.63085938 L87.7441406,4.79101562 L86.3378906,4.79101562 L86.3378906,7.9375 C86.3378906,8.5703125 86.6074219,8.8515625 87.2167969,8.8515625 C87.421875,8.8515625 87.5273438,8.83984375 87.6972656,8.82226562 L87.6972656,9.95898438 C87.4921875,10 87.2285156,10.0292969 86.9472656,10.0292969 C85.4765625,10.0292969 84.890625,9.53125 84.890625,8.2890625 L84.890625,4.79101562 L83.8476562,4.79101562 L83.8476562,3.63085938 L84.890625,3.63085938 L84.890625,2.06054688 Z M91.8515625,4.61523438 C90.984375,4.61523438 90.375,5.23632812 90.3105469,6.17382812 L93.328125,6.17382812 C93.2988281,5.22460938 92.7246094,4.61523438 91.8515625,4.61523438 Z M93.3398438,8.23632812 L94.7167969,8.23632812 C94.4414062,9.40234375 93.3808594,10.1289062 91.8691406,10.1289062 C89.9824219,10.1289062 88.8457031,8.88085938 88.8457031,6.81835938 C88.8457031,4.75585938 90,3.4609375 91.8574219,3.4609375 C93.6855469,3.4609375 94.78125,4.67382812 94.78125,6.6953125 L94.78125,7.1640625 L90.3046875,7.1640625 L90.3046875,7.24023438 C90.3398438,8.30664062 90.9550781,8.97460938 91.9101562,8.97460938 C92.6308594,8.97460938 93.1289062,8.7109375 93.3398438,8.23632812 Z M96.09375,5.42382812 C96.09375,4.26367188 97.1484375,3.4609375 98.6601562,3.4609375 C100.183594,3.4609375 101.138672,4.13476562 101.244141,5.30078125 L99.8789062,5.30078125 C99.7734375,4.84960938 99.3457031,4.5625 98.6660156,4.5625 C98.0039062,4.5625 97.5058594,4.87890625 97.5058594,5.34179688 C97.5058594,5.70507812 97.8105469,5.92773438 98.4550781,6.07421875 L99.5859375,6.33203125 C100.810547,6.60742188 101.378906,7.13476562 101.378906,8.078125 C101.378906,9.30859375 100.248047,10.1289062 98.6484375,10.1289062 C97.0488281,10.1289062 96.0410156,9.4375 95.9296875,8.27148438 L97.3652344,8.27148438 C97.5058594,8.74609375 97.9570312,9.02734375 98.6835937,9.02734375 C99.4160156,9.02734375 99.9257812,8.70507812 99.9257812,8.23046875 C99.9257812,7.8671875 99.6503906,7.63867188 99.0410156,7.50390625 L97.9042969,7.24023438 C96.6738281,6.95898438 96.09375,6.390625 96.09375,5.42382812 Z" id="Invite-teammates" fill="#24124D" opacity="0.5"></path>
                </g>
            </g>
        </g>
    </g>
</svg>