<?xml version="1.0" encoding="UTF-8"?>
<svg width="160px" height="72px" viewBox="0 0 160 72" version="1.1" xmlns="http://www.w3.org/2000/svg" xmlns:xlink="http://www.w3.org/1999/xlink">
    <!-- Generator: Sketch 49.2 (51160) - http://www.bohemiancoding.com/sketch -->
    <title>customer/enigma</title>
    <desc>Created with Sketch.</desc>
    <defs></defs>
    <g id="customer/enigma" stroke="none" stroke-width="1" fill="none" fill-rule="evenodd">
        <g id="enigma" transform="translate(0.000000, 16.000000)" fill="#4F4270" fill-rule="nonzero">
            <path d="M154.369309,7.4328464 L154.369309,10.4061517 C152.883072,7.88296831 150.270698,6.75682998 146.982307,6.75682998 C140.315502,6.75682998 135.585888,11.441432 135.585888,18.6942297 C135.585888,25.9461937 140.225478,30.6316294 147.072333,30.6316294 C150.495759,30.6316294 152.973097,29.5505033 154.369309,27.0273199 L154.369309,29.955613 L160,29.955613 L160,7.4328464 L154.369309,7.4328464 Z M148.243482,26.1262425 C144.144039,26.1262425 141.44164,23.0637464 141.44164,18.6942297 C141.44164,14.3247129 144.144039,11.2613833 148.243482,11.2613833 C152.432951,11.2613833 154.595203,14.4597495 154.595203,18.6942297 C154.595203,22.9287098 152.432951,26.1262425 148.243482,26.1262425 Z M129.504241,7.4328464 L129.504241,29.955613 L123.873549,29.955613 L123.873549,12.7484527 L115.990581,12.7484527 L115.990581,29.955613 L110.359889,29.955613 L110.359889,12.7484527 L102.476921,12.7484527 L102.476921,29.955613 L96.8462291,29.955613 L96.8462291,7.4328464 L129.504241,7.4328464 Z M86.3508867,24.3699335 L90.5403546,28.4243649 L90.5403546,29.3246088 C90.5403546,34.9553003 86.7568299,38.9647197 79.1439349,38.9647197 C71.621064,38.9647197 67.747515,35.3162314 67.747515,29.6855399 L73.8733407,29.730552 C73.8733407,32.072853 75.9005565,33.8741743 79.1439349,33.8741743 C82.7474107,33.8741743 84.189468,32.2078896 84.3695168,29.9106008 L80.4501219,26.2171005 C80.0450122,26.2621127 79.5940567,26.2621127 79.1439349,26.2621127 C72.4771293,26.2621127 68.0175881,22.8386855 68.0175881,16.5319774 C68.0175881,10.2252693 72.4771293,6.75682998 79.1439349,6.75682998 C79.6849146,6.75682998 80.2250609,6.80184216 80.7652072,6.84685435 L80.7652072,-8.8817842e-16 L86.1258257,-8.8817842e-16 L86.1258257,8.46896034 C88.7390335,10.0902328 90.2702815,12.7934649 90.2702815,16.4869653 C90.2702815,20.0904411 88.8290578,22.7478275 86.3508867,24.3699335 Z M73.6482798,16.5319774 C73.6482798,20.0004168 75.9455686,21.9376081 79.1439349,21.9376081 C82.342301,21.9376081 84.6395899,20.0004168 84.6395899,16.4869653 C84.6395899,13.0185258 82.342301,11.0813345 79.1439349,11.0813345 C75.9455686,11.0813345 73.6482798,13.0635381 73.6482798,16.5319774 Z M55.6309,7.4328464 L61.2615917,7.38783421 L61.2615917,29.955613 L55.6309,29.955613 L55.6309,7.4328464 Z M28.6936046,7.4328464 L48.4239481,7.4328464 L48.4239481,29.955613 L42.7932565,29.955613 L42.7932565,12.7484527 L34.3242961,12.7484527 L34.3242961,29.955613 L28.6936046,29.955613 L28.6936046,7.4328464 Z M22.7478275,17.7031279 L22.7478275,19.9103923 L5.90076479,19.9103923 C6.3058745,23.7389293 8.60316336,25.6311085 11.7115051,25.6311085 C14.9548837,25.6311085 16.4861317,24.2348969 16.6670139,21.8025715 L22.2977056,21.8025715 C21.8917624,26.9372955 18.5583595,30.5857837 11.4864442,30.5857837 C4.63958989,30.5857837 0,25.9461937 0,18.6942297 C0,11.441432 5.13472399,6.71181778 11.8015296,6.71181778 C18.2882864,6.71181778 22.7478275,10.946298 22.7478275,17.7031279 Z M11.666493,11.6673265 C8.64817554,11.6673265 6.62179341,13.5586721 6.03580136,16.7570384 L16.9370871,16.7570384 C16.7120262,13.4686478 14.8198471,11.6673265 11.666493,11.6673265 Z" id="Combined-Shape"></path>
        </g>
    </g>
</svg>