<?xml version="1.0" encoding="UTF-8"?>
<svg width="24px" height="24px" viewBox="0 0 24 24" version="1.1" xmlns="http://www.w3.org/2000/svg" xmlns:xlink="http://www.w3.org/1999/xlink">
    <!-- Generator: Sketch 50 (54983) - http://www.bohemiancoding.com/sketch -->
    <title>icons/link-mini</title>
    <desc>Created with Sketch.</desc>
    <defs></defs>
    <g id="icons/link-mini" stroke="none" stroke-width="1" fill="none" fill-rule="evenodd" stroke-linecap="round">
        <g id="icons/link" transform="translate(4.000000, 4.000000)" stroke="#000000">
            <g id="link" transform="translate(1.333333, 1.333333)">
                <path d="M5.33333333,7.33333333 C5.91263699,8.10779528 6.79975154,8.59246695 7.76443324,8.66155556 C8.72911495,8.73064417 9.67624387,8.37733742 10.36,7.69333333 L12.36,5.69333333 C13.6232407,4.38540371 13.6051746,2.30638408 12.3193953,1.02060475 C11.0336159,-0.26517458 8.95459629,-0.283240698 7.64666667,0.98 L6.5,2.12" id="Shape" stroke-width="2"></path>
                <path d="M8,6 C7.42069634,5.22553805 6.5335818,4.74086638 5.56890009,4.67177777 C4.60421838,4.60268916 3.65708947,4.95599592 2.97333333,5.64 L0.973333333,7.64 C-0.289907365,8.94792962 -0.271841246,11.0269493 1.01393808,12.3127286 C2.29971741,13.5985079 4.37873704,13.616574 5.68666667,12.3533333 L6.82666667,11.2133333" id="Shape" stroke-width="2"></path>
            </g>
        </g>
    </g>
</svg>