<?xml version="1.0" encoding="UTF-8"?>
<svg width="160px" height="72px" viewBox="0 0 160 72" version="1.1" xmlns="http://www.w3.org/2000/svg" xmlns:xlink="http://www.w3.org/1999/xlink">
    <!-- Generator: Sketch 50 (54983) - http://www.bohemiancoding.com/sketch -->
    <title>customer/airteam</title>
    <desc>Created with Sketch.</desc>
    <defs></defs>
    <g id="customer/airteam" stroke="none" stroke-width="1" fill="none" fill-rule="evenodd">
        <g id="airteam" transform="translate(6.000000, 16.000000)" fill="#000000">
            <path d="M53.436338,12.7673684 C54.3171162,15.8080679 55.1648666,18.8584266 55.9794366,21.9178947 L50.4961408,21.9178947 C51.3107108,18.8584266 52.1584613,15.8080679 53.0392394,12.7673684 L53.4352958,12.7673684 L53.436338,12.7673684 Z M49.5383099,25.5442105 L56.9383099,25.5442105 L58.0274648,29.7915789 C58.225493,30.5515789 58.5892394,30.6894737 59.4480563,30.6894737 L61.1990423,30.6894737 C62.1235211,30.6894737 62.6196338,30.6894737 62.3872113,29.7915789 C60.5382535,22.7810526 58.159831,14.9768421 56.2764789,9.58947368 C55.9137746,8.51894737 55.3843099,8.34736842 54.0304225,8.34736842 L52.4118028,8.34736842 C51.0568732,8.34736842 50.5951549,8.51894737 50.2314085,9.58947368 C48.3814085,14.9768421 45.9039718,22.7810526 44.0539718,29.7915789 C43.8225915,30.6894737 44.3510141,30.6894737 45.2765352,30.6894737 L47.0275211,30.6894737 C47.886338,30.6894737 48.2490423,30.5515789 48.4481127,29.7915789 L49.5383099,25.5442105 Z M68.5448451,9.38315789 C68.5448451,7.72526316 67.5859718,7 66.2320845,7 L66.0674085,7 C64.7791831,7 63.7546479,7.72526316 63.7546479,9.38315789 L63.7546479,9.58947368 C63.7546479,11.1442105 64.3820845,12.0073684 66.0674085,12.0073684 L66.2320845,12.0073684 C67.5870141,12.0073684 68.5448451,11.1442105 68.5448451,9.58947368 L68.5448451,9.38315789 Z M68.1154366,14.6315789 C68.1154366,13.9410526 67.9174085,13.7684211 67.1899155,13.7684211 L65.1095775,13.7684211 C64.3820845,13.7684211 64.1840563,13.9410526 64.1840563,14.6315789 L64.1840563,29.8263158 C64.1840563,30.5168421 64.3820845,30.6894737 65.1095775,30.6894737 L67.1899155,30.6894737 C67.9174085,30.6894737 68.1154366,30.5168421 68.1154366,29.8263158 L68.1154366,14.6315789 Z M74.4700563,14.3894737 C74.4043944,13.8715789 74.1730141,13.7684211 73.6112394,13.7684211 L72.454338,13.7684211 C71.8936056,13.7684211 71.6622254,13.9757895 71.6622254,14.5621053 L71.6622254,29.8252632 C71.6622254,30.5168421 71.8602535,30.6884211 72.5877465,30.6884211 L74.6680845,30.6884211 C75.3955775,30.6884211 75.5936056,30.5168421 75.5936056,29.8252632 L75.5936056,21.0210526 C75.5936056,19.2252632 75.924,18.6042105 76.3534085,18.0863158 C76.7828169,17.5684211 77.5759718,17.2231579 79.0288732,17.2231579 L79.6229577,17.2231579 C80.3504507,17.2231579 80.5484789,17.0157895 80.5484789,16.4284211 L80.5484789,14.5978947 C80.5484789,13.9073684 80.3170986,13.7694737 79.624,13.7694737 L79.1612394,13.7694737 C76.9151831,13.7694737 75.7916338,14.46 74.7670986,16.0136842 L74.7014366,16.0136842 L74.4700563,14.3905263 L74.4700563,14.3894737 Z M88.290338,10.3157895 C88.290338,9.62421053 88.0923099,9.45263158 87.3658592,9.45263158 L85.2844789,9.45263158 C84.5580282,9.45263158 84.36,9.62421053 84.36,10.3157895 L84.36,13.9410526 L82.2452676,14.32 C81.8492113,14.3894737 81.7168451,14.4936842 81.7168451,15.0463158 L81.7168451,16.5652632 C81.7168451,17.0831579 81.8825634,17.2221053 82.3776338,17.2221053 L84.36,17.2221053 L84.36,25.44 C84.36,27.4084211 84.7560563,28.7557895 85.6148732,29.5842105 C86.4413803,30.3778947 87.5638873,30.6894737 89.4805915,30.6894737 L91.8590141,30.6894737 C92.5854648,30.6894737 92.6511268,30.4821053 92.6511268,29.8263158 L92.6511268,28.1336842 C92.6511268,27.4431579 92.5521127,27.2357895 91.8590141,27.2357895 L90.2403944,27.2357895 C89.3482254,27.2357895 88.9844789,27.1326316 88.6874366,26.7873684 C88.3570423,26.4073684 88.2913803,25.9926316 88.2913803,24.7494737 L88.2913803,17.2221053 L91.5609296,17.2221053 C92.1237465,17.2221053 92.2550704,16.9452632 92.2550704,16.3589474 L92.2550704,14.6663158 C92.2550704,13.9757895 92.1227042,13.7684211 91.5609296,13.7684211 L88.2913803,13.7684211 L88.2913803,10.3157895 L88.290338,10.3157895 Z M107.264563,20.8473684 C107.264563,17.5315789 106.670479,16.0473684 105.580282,15.0115789 C104.523437,14.0105263 103.168507,13.4578947 100.921408,13.4578947 C95.8352113,13.4578947 94.1175775,16.3242105 94.1175775,21.7452632 L94.1175775,22.6778947 C94.1175775,25.8547368 94.5469859,27.8568421 95.8352113,29.2389474 C96.9577183,30.4473684 98.7087042,31 101.385211,31 C103.069493,31 104.787127,30.6547368 106.174366,30.1021053 C106.802845,29.86 106.901859,29.6536842 106.768451,29.1347368 L106.340085,27.4778947 C106.142056,26.7515789 105.811662,26.7515789 105.414563,26.9252632 C104.490085,27.34 102.937127,27.6505263 101.84693,27.6505263 C100.261662,27.6505263 99.369493,27.3736842 98.9400845,26.96 C98.3783099,26.4421053 98.1479718,25.5778947 98.1146197,24.1968421 L106.373437,24.1968421 C107.066535,24.1968421 107.264563,23.9210526 107.264563,23.1957895 L107.264563,20.8484211 L107.264563,20.8473684 Z M100.790085,16.7378947 C101.780225,16.7378947 102.30969,16.9452632 102.705746,17.3947368 C103.168507,17.9463158 103.334225,18.9484211 103.334225,20.4684211 C103.334225,20.8126316 103.235211,20.9515789 102.904817,20.9515789 L98.0479155,20.9515789 C98.0479155,19.2936842 98.3126479,18.0852632 98.9067324,17.4284211 C99.3371831,16.9452632 99.9312676,16.7378947 100.790085,16.7378947 Z M118.476085,25.4052632 C118.476085,26.9947368 117.848648,27.7189474 116.329042,27.7189474 L115.139831,27.7189474 C114.412338,27.7189474 113.95062,27.5463158 113.685887,27.3052632 C113.355493,26.9947368 113.190817,26.5105263 113.190817,25.7515789 L113.190817,25.3368421 C113.190817,24.5421053 113.322141,23.9557895 113.685887,23.6442105 C114.016282,23.3336842 114.644761,23.2305263 115.403521,23.2305263 L116.560423,23.2305263 C117.220169,23.2305263 117.91431,23.2652632 118.476085,23.2989474 L118.476085,25.4052632 Z M119.202535,29.2389474 L119.400563,30.0673684 C119.499577,30.5168421 119.697606,30.6884211 120.192676,30.6884211 L121.713324,30.6884211 C122.176085,30.6884211 122.406423,30.4821053 122.406423,30.0326316 L122.406423,19.1210526 C122.406423,16.6684211 121.878,15.4263158 120.688789,14.5631579 C119.566282,13.7684211 118.278056,13.4578947 115.931944,13.4578947 C114.180958,13.4578947 112.166282,13.8715789 110.943718,14.2863158 C110.381944,14.4589474 110.316282,14.7347368 110.448648,15.3221053 L110.74569,16.9452632 C110.844704,17.4294737 111.042732,17.6705263 111.571155,17.4978947 C112.892732,17.0831579 114.44569,16.8421053 115.634901,16.8421053 C116.824113,16.8421053 117.451549,16.9452632 117.91431,17.3252632 C118.310366,17.6705263 118.476085,18.1884211 118.476085,19.0863158 L118.476085,20.0189474 C117.860202,19.9779306 117.243282,19.9547632 116.626085,19.9494737 L115.436873,19.9494737 C113.190817,19.9494737 111.637859,20.3294737 110.613324,21.2273684 C109.655493,22.0557895 109.227127,23.3684211 109.227127,25.2326316 L109.227127,26.0273684 C109.227127,27.6852632 109.688845,29.0315789 110.646676,29.8947368 C111.538845,30.6894737 112.562338,31 114.279972,31 L115.502535,31 C117.484901,31 118.508394,30.3789474 119.136873,29.2389474 L119.202535,29.2389474 Z M148,20.0178947 C148,17.7052632 147.50493,15.9778947 146.447042,14.9084211 C145.489211,13.9063158 144.101972,13.4578947 142.21862,13.4578947 C140.401972,13.4578947 138.716648,14.1136842 137.263746,15.3915789 C136.339268,14.1831579 134.752958,13.4578947 132.67262,13.4578947 C130.82262,13.4578947 129.368676,14.1136842 128.311831,15.2189474 L128.212817,15.2189474 L128.047099,14.3894737 C127.948085,13.8715789 127.750056,13.7684211 127.188282,13.7684211 L125.966761,13.7684211 C125.403944,13.7684211 125.173606,13.9757895 125.173606,14.5621053 L125.173606,29.8252632 C125.173606,30.5168421 125.371634,30.6884211 126.098085,30.6884211 L128.179465,30.6884211 C128.905915,30.6884211 129.104986,30.5168421 129.104986,29.8252632 L129.104986,19.7768421 C129.104986,18.3610526 129.368676,17.8084211 129.798085,17.3947368 C130.227493,16.98 130.954986,16.7726316 131.912817,16.7726316 C132.969662,16.7726316 133.498085,16.98 133.993155,17.4978947 C134.521577,18.0505263 134.687296,18.8105263 134.687296,20.1915789 L134.687296,29.8263158 C134.687296,30.5168421 134.885324,30.6894737 135.611775,30.6894737 L137.693155,30.6894737 C138.419606,30.6894737 138.618676,30.5168421 138.618676,29.8263158 L138.618676,20.3989474 C138.618676,19.4315789 138.585324,18.6726316 138.519662,18.0852632 C139.205241,17.2528507 140.222072,16.7717785 141.294141,16.7726316 C142.384338,16.7726316 143.011775,17.0147368 143.441183,17.5326316 C143.903944,18.0852632 144.06862,18.8442105 144.06862,20.1915789 L144.06862,29.8263158 C144.06862,30.5168421 144.266648,30.6894737 144.994141,30.6894737 L147.075521,30.6894737 C147.801972,30.6894737 148,30.5168421 148,29.8263158 L148,20.0189474 L148,20.0178947 Z M15.9996338,0 C15.6247634,0.00691960414 15.2874632,0.231565844 15.1335211,0.576842105 L0.104225352,32.7873684 C-0.105267606,33.2368421 0.00833802817,33.7842105 0.375211268,34.0926316 L7.16549296,39.7810526 C7.3312396,39.9219928 7.54082251,39.9995057 7.75749296,40 C7.99292843,39.9986071 8.21919569,39.90765 8.3911831,39.7452632 L14.9782254,33.9231579 L15.9996338,10.5315789 L17.0179155,33.8947368 L23.6351831,39.6610526 C23.9758947,39.9789168 24.4967099,39.9937527 24.8546197,39.6957895 L31.6209296,34.0978947 C31.9898873,33.7905263 32.1066197,33.24 31.8950423,32.7863158 L16.8657465,0.576842105 C16.711763,0.232078496 16.375088,0.00757850047 16.0006761,1.08801856e-16 L15.9996338,0 Z" id="Shape"></path>
        </g>
    </g>
</svg>