<?xml version="1.0" encoding="UTF-8"?>
<svg width="160px" height="72px" viewBox="0 0 160 72" version="1.1" xmlns="http://www.w3.org/2000/svg" xmlns:xlink="http://www.w3.org/1999/xlink">
    <!-- Generator: Sketch 49.2 (51160) - http://www.bohemiancoding.com/sketch -->
    <title>customer/arm</title>
    <desc>Created with Sketch.</desc>
    <defs></defs>
    <g id="customer/arm" stroke="none" stroke-width="1" fill="none" fill-rule="evenodd">
        <g id="arm" transform="translate(26.000000, 20.000000)" fill="#000000" fill-rule="nonzero">
            <path d="M24.3341772,0.845687371 L31.5797468,0.845687371 L31.5797468,31.1569031 L24.3341772,31.1569031 L24.3341772,27.996703 C21.1443038,31.6020018 17.2708861,32.0916102 15.0379747,32.0916102 C5.46835443,32.0916102 0,24.3023845 0,15.9790403 C0,6.09785105 6.92658228,0.0445098616 15.1291139,0.0445098616 C17.4075949,0.0445098616 21.4177215,0.623138063 24.3341772,4.36196644 L24.3341772,0.845687371 Z M7.4278481,16.1570798 C7.4278481,21.3647336 10.8,25.8157198 16.0405063,25.8157198 C20.5974684,25.8157198 24.835443,22.5664999 24.835443,16.2460995 C24.835443,9.61413011 20.643038,6.45392994 16.0405063,6.45392994 C10.8,6.40942008 7.4278481,10.7713865 7.4278481,16.1570798 Z M40.1924051,0.845687371 L47.4379747,0.845687371 L47.4379747,3.56078893 C48.2582278,2.62608184 49.443038,1.60235502 50.4455696,1.02372682 C51.8582278,0.222549308 53.2253165,0 54.8658228,0 C56.643038,0 58.556962,0.26705917 60.5620253,1.42431557 L57.6,7.83373565 C55.9594937,6.81000883 54.6379747,6.76549897 53.9088608,6.76549897 C52.3594937,6.76549897 50.8101266,6.98804828 49.3974684,8.41236385 C47.3924051,10.5043273 47.3924051,13.3974684 47.3924051,15.4004121 L47.3924051,31.1569031 L40.1468354,31.1569031 L40.1924051,0.845687371 Z M65.2101266,0.845687371 L72.4556962,0.845687371 L72.4556962,3.64980865 C74.8708861,0.756667648 77.7417722,0.0445098616 80.1113924,0.0445098616 C83.3468354,0.0445098616 86.4,1.55784516 88.1316456,4.49549603 C90.7291139,0.890197233 94.6025316,0.0445098616 97.3367089,0.0445098616 C101.118987,0.0445098616 104.4,1.78039447 106.177215,4.80706506 C106.76962,5.83079188 107.817722,8.05628496 107.817722,12.4627613 L107.817722,31.201413 L100.572152,31.201413 L100.572152,14.5547248 C100.572152,11.1719753 100.207595,9.79216956 99.8886076,9.1690315 C99.4329114,8.0117751 98.3392405,6.4984398 95.7417722,6.4984398 C93.964557,6.4984398 92.4151899,7.43314689 91.4582278,8.72393288 C90.1822785,10.4598175 90.0455696,13.0413895 90.0455696,15.6229614 L90.0455696,31.2459229 L82.8,31.2459229 L82.8,14.5547248 C82.8,11.1719753 82.435443,9.79216956 82.1164557,9.1690315 C81.6607595,8.0117751 80.5670886,6.4984398 77.9696203,6.4984398 C76.1924051,6.4984398 74.643038,7.43314689 73.6860759,8.72393288 C72.4101266,10.4598175 72.2734177,13.0413895 72.2734177,15.6229614 L72.2734177,31.2459229 L65.2101266,31.2459229 L65.2101266,0.845687371 Z" id="Shape"></path>
        </g>
    </g>
</svg>