<?xml version="1.0" encoding="UTF-8"?>
<svg width="160px" height="72px" viewBox="0 0 160 72" version="1.1" xmlns="http://www.w3.org/2000/svg" xmlns:xlink="http://www.w3.org/1999/xlink">
    <!-- Generator: Sketch 49.2 (51160) - http://www.bohemiancoding.com/sketch -->
    <title>customer/atlassian</title>
    <desc>Created with Sketch.</desc>
    <defs></defs>
    <g id="customer/atlassian" stroke="none" stroke-width="1" fill="none" fill-rule="evenodd">
        <g id="atlassian" transform="translate(0.000000, 26.000000)" fill="#000000" fill-rule="nonzero">
            <path d="M5.81925926,9.35111111 C5.70085162,9.1959941 5.50990532,9.11415047 5.31591698,9.13536794 C5.12192864,9.15658542 4.95318853,9.27776975 4.87111111,9.45481481 L0.0622222222,19.0696296 C-0.027324977,19.2481024 -0.0178362465,19.4602603 0.0872858917,19.6300265 C0.19240803,19.7997927 0.378100922,19.9028419 0.577777778,19.9022222 L7.27407407,19.9022222 C7.4935629,19.9080288 7.69577461,19.7836803 7.78962963,19.5851852 C9.22962963,16.5925926 8.35555556,12.0592593 5.81925926,9.35111111 Z" id="Shape"></path>
            <path d="M9.34814815,0.592592593 C6.9011915,4.3439774 6.61401351,9.10775351 8.59259259,13.1259259 L11.837037,19.5851852 C11.9348345,19.7801064 12.1345142,19.902898 12.3525926,19.9022222 L19.0488889,19.9022222 C19.2469822,19.8997806 19.4298575,19.7955043 19.5328442,19.6262688 C19.6358309,19.4570334 19.644413,19.2466925 19.5555556,19.0696296 L10.3259259,0.592592593 C10.2357152,0.404524113 10.0456221,0.284875365 9.83703704,0.284875365 C9.628452,0.284875365 9.43835883,0.404524113 9.34814815,0.592592593 Z" id="Shape"></path>
            <path d="M87.8933333,8.31407407 C87.8933333,10.6844444 88.9985185,12.5866667 93.3185185,13.4192593 C95.8962963,13.9585185 96.4355556,14.3762963 96.4355556,15.2355556 C96.4355556,16.0948148 95.8962963,16.6103704 94.0651852,16.6103704 C91.8703901,16.5707238 89.7195274,15.9884742 87.8044444,14.9155556 L87.8044444,18.797037 C89.1051852,19.4340741 90.8237037,20.1481481 94.0266667,20.1481481 C98.5451852,20.1481481 100.337778,18.1362963 100.337778,15.1407407 M100.337778,15.1407407 C100.337778,12.317037 98.8414815,10.9925926 94.6162963,10.082963 C92.2844444,9.56740741 91.7185185,9.05185185 91.7185185,8.30518519 C91.7185185,7.37185185 92.5540741,6.98074074 94.0888889,6.98074074 C95.9555556,6.98074074 97.7955556,7.54666667 99.5407407,8.33185185 L99.5407407,4.63111111 C97.86768,3.8694328 96.0453742,3.49181054 94.2074074,3.52592593 C90.0325926,3.52592593 87.8725926,5.34222222 87.8725926,8.31407407" id="Shape"></path>
            <polygon id="Shape" points="145.931852 3.77185185 145.931852 19.9022222 149.368889 19.9022222 149.368889 7.60296296 150.817778 10.8681481 155.68 19.9022222 160 19.9022222 160 3.77185185 156.562963 3.77185185 156.562963 14.1837037 155.262222 11.1614815 151.357037 3.77185185"></polygon>
            <rect id="Rectangle-path" x="120.314074" y="3.77185185" width="3.75703704" height="16.1303704"></rect>
            <path d="M115.979259,15.1407407 C115.979259,12.317037 114.482963,10.9925926 110.257778,10.082963 C107.925926,9.56740741 107.36,9.05185185 107.36,8.30518519 C107.36,7.37185185 108.195556,6.98074074 109.73037,6.98074074 C111.597037,6.98074074 113.437037,7.54666667 115.182222,8.33185185 L115.182222,4.63111111 C113.509162,3.8694328 111.686856,3.49181054 109.848889,3.52592593 C105.674074,3.52592593 103.514074,5.34222222 103.514074,8.31407407 C103.514074,10.6844444 104.619259,12.5866667 108.939259,13.4192593 C111.517037,13.9585185 112.056296,14.3762963 112.056296,15.2355556 C112.056296,16.0948148 111.517037,16.6103704 109.685926,16.6103704 C107.491131,16.5707238 105.340268,15.9884742 103.425185,14.9155556 L103.425185,18.797037 C104.725926,19.4340741 106.444444,20.1481481 109.647407,20.1481481 C114.165926,20.1481481 115.958519,18.1362963 115.958519,15.1407407" id="Shape"></path>
            <polygon id="Shape" points="58.7140741 3.77185185 58.7140741 19.9022222 66.4355556 19.9022222 67.6503704 16.4177778 62.4948148 16.4177778 62.4948148 3.77185185"></polygon>
            <polygon id="Shape" points="43.4577778 3.77185185 43.4577778 7.25925926 47.6325926 7.25925926 47.6325926 19.9022222 51.4133333 19.9022222 51.4133333 7.25925926 55.8814815 7.25925926 55.8814815 3.77185185"></polygon>
            <path d="M37.9762963,3.77185185 L33.0222222,3.77185185 L27.3925926,19.9022222 L31.7037037,19.9022222 L32.4918519,17.1851852 C34.4589764,17.7644947 36.551394,17.7644947 38.5185185,17.1851852 L39.3155556,19.9022222 L43.6118519,19.9022222 L37.9762963,3.77185185 Z M35.4992593,14.2785185 C34.7972862,14.2794907 34.0988071,14.1797079 33.4251852,13.9822222 L35.4992593,6.93925926 L37.5733333,13.9822222 C36.8997114,14.1797079 36.2012323,14.2794907 35.4992593,14.2785185 Z" id="Shape"></path>
            <path d="M79.7451852,3.77185185 L74.7911111,3.77185185 L69.1614815,19.9022222 L73.4577778,19.9022222 L74.2607407,17.1851852 C76.2241675,17.7621703 78.3121288,17.7621703 80.2755556,17.1851852 L81.0725926,19.9022222 L85.3688889,19.9022222 L79.7451852,3.77185185 Z M77.2681481,14.2785185 C76.5661751,14.2794907 75.867696,14.1797079 75.1940741,13.9822222 L77.2681481,6.93925926 L79.3422222,13.9822222 C78.6686003,14.1797079 77.9701212,14.2794907 77.2681481,14.2785185 Z" id="Shape"></path>
            <path d="M137.605926,3.77185185 L132.651852,3.77185185 L127.022222,19.9022222 L131.318519,19.9022222 L132.121481,17.1851852 C134.084908,17.7621703 136.17287,17.7621703 138.136296,17.1851852 L138.933333,19.9022222 L143.22963,19.9022222 L137.605926,3.77185185 Z M135.128889,14.2785185 C134.426916,14.2794907 133.728437,14.1797079 133.054815,13.9822222 L135.128889,6.93925926 L137.202963,13.9822222 C136.529341,14.1797079 135.830862,14.2794907 135.128889,14.2785185 Z" id="Shape"></path>
        </g>
    </g>
</svg>