<?xml version="1.0" encoding="UTF-8"?>
<svg width="160px" height="72px" viewBox="0 0 160 72" version="1.1" xmlns="http://www.w3.org/2000/svg" xmlns:xlink="http://www.w3.org/1999/xlink">
    <!-- Generator: Sketch 50 (54983) - http://www.bohemiancoding.com/sketch -->
    <title>customer/barnardos</title>
    <desc>Created with Sketch.</desc>
    <defs></defs>
    <g id="customer/barnardos" stroke="none" stroke-width="1" fill="none" fill-rule="evenodd">
        <g id="barnardos" transform="translate(80.000000, 37.000000) scale(-1, 1) rotate(-180.000000) translate(-80.000000, -37.000000) translate(0.000000, 20.000000)" fill="#000000">
            <g id="g4706" transform="translate(146.360793, 5.746273)" fill-rule="nonzero">
                <g id="g4708-Clipped" transform="translate(0.000000, -0.000000)">
                    <g id="g4708" transform="translate(0.283136, 0.756348)">
                        <g id="g4718" transform="translate(1.084579, 0.472612)">
                            <path d="M1.08237122,1.08124375 C1.04665297,1.48022269 1.05855905,3.54215452 0.995781522,5.67652968 C1.08237122,5.67869217 1.31291629,5.664636 1.31291629,5.664636 C1.31291629,5.664636 3.05228684,0.267067206 6.46825041,1.25316151 C7.04623664,1.42075429 7.54196265,1.83919562 7.72704813,2.421986 C8.84189049,5.9587343 2.00996335,5.32296298 1.15705483,8.58940034 C0.153696713,12.4288969 5.14559278,14.3253984 8.40353014,12.3250975 C8.58861562,11.9617996 9.03130545,8.99162302 9.04429391,8.9862168 C9.05403525,8.98189182 8.6156749,8.92891088 8.57021531,8.9862168 C8.50852015,8.9862168 7.8222968,11.1973603 6.11972687,12.016943 C5.76687386,12.1866983 3.5913077,12.6570393 3.11722911,10.8416311 C2.21344914,7.39030102 11.5445714,8.61535019 9.61362117,2.97774528 C9.20664959,1.78513343 8.4652253,1.12233101 7.45429059,0.655233712 C6.16843358,0.0594684062 4.29160188,0.238954869 2.92781415,0.482234712 C2.34008658,0.588196599 1.65061611,0.888782362 1.08237122,1.08124375" id="path4720"></path>
                        </g>
                    </g>
                </g>
            </g>
            <g id="g4722" transform="translate(34.912734, 5.414149)" fill-rule="nonzero">
                <g id="g4724-Clipped" transform="translate(0.000000, -0.000000)">
                    <g id="g4724" transform="translate(0.648128, 0.007228)">
                        <g id="g4730" transform="translate(95.978943, 1.479898)">
                            <path d="M6.49422731,12.974925 C14.6477297,13.7545017 16.7843305,2.00895089 8.14700817,0.617390181 C-0.96763987,-0.853101318 -3.19407747,12.0482991 6.49422731,12.974925 M7.04840138,12.1726421 C1.31075155,12.1726421 2.09330594,0.401141431 7.4423845,1.33317354 C12.3758325,2.19492481 11.884436,12.1726421 7.04840138,12.1726421" id="path4732"></path>
                        </g>
                        <g id="g4734" transform="translate(30.813702, 1.557207)">
                            <path d="M5.4118561,12.974925 C5.36964362,12.6710955 5.41726795,11.1054545 5.4118561,10.6005137 C9.49131322,15.8780645 11.9991673,10.113954 9.58764426,9.4533141 C7.99655857,9.01541038 8.23792735,10.6307885 6.88821044,10.4977956 C6.41413184,10.4513021 5.94005325,10.0598918 5.60127106,9.0629851 C5.5395759,8.8824174 5.42051507,8.53101318 5.41726795,8.02066613 C5.4118561,5.85277241 5.33933722,3.28914348 5.52550507,2.54200405 C5.82207479,1.37317956 7.13607345,0.853101318 7.86234454,0.914732212 L7.86234454,0.560084262 C6.05370223,0.583871624 2.77736455,0.571977943 0.602880769,0.560084262 L0.602880769,0.889863605 C1.14081926,0.873644949 2.67886877,1.6510592 2.67129217,2.84583355 C2.65180949,6.18255176 2.76112898,8.46073234 2.52192494,9.33653977 C2.34766317,9.98420478 1.82054839,10.4859019 1.19493783,10.7399942 C1.0455706,10.8005438 0.254357236,11.0038176 0.874555945,11.1973603 C2.66588031,11.7455508 3.94199598,12.234273 5.4118561,12.974925" id="path4736"></path>
                        </g>
                        <g id="g4738" transform="translate(0.182271, 1.616676)">
                            <path d="M11.9060834,10.8124375 C14.0069659,10.2404595 15.7755605,8.78078049 16.0981071,6.85941034 C17.1436777,0.641177543 9.60604457,0.177323975 4.42689829,0.592521574 C2.79576486,0.721189581 1.24039742,0.494128393 0.232709812,0.504940831 L0.232709812,1.13746842 C1.3464698,1.23153663 2.33034523,1.50401005 2.33034523,2.84258982 L2.33034523,17.7907846 C2.33034523,18.9185219 1.32698711,19.3304757 0.280334146,19.3326382 C0.238121668,19.5337496 0.252192494,19.7543233 0.267345691,19.9565159 C6.44443824,19.6851237 13.5945825,21.1199342 14.7602963,16.1137756 C15.6186167,12.4386281 12.3152197,11.3108909 11.9060834,10.8124375 M5.68894313,1.67917154 C7.10684942,1.09962489 8.20762095,1.05313141 9.5746558,1.32127986 C14.0069659,2.20141227 14.6509768,8.80673034 9.87663737,9.88256787 C8.76395976,10.1334164 5.68894313,10.1593663 5.68894313,9.98636727 C5.68894313,9.98636727 5.6824489,2.57552261 5.68894313,1.67917154 M5.70734344,19.0244838 C5.66946045,19.0277275 5.68894313,10.9183994 5.68894313,10.9183994 C5.68894313,10.6264636 8.75746553,10.8513623 9.48157188,11.1573542 C13.3867672,12.8094947 12.8369227,18.470887 8.41002437,18.9314968 C7.18261541,19.0601648 5.70734344,19.1239582 5.70734344,19.0244838" id="path4740"></path>
                        </g>
                        <g id="g4742" transform="translate(17.937489, 1.866984)">
                            <path d="M11.9060834,1.08124375 C11.9786023,0.900676043 12.0402974,0.668208637 12.0402974,0.668208637 C12.0402974,0.668208637 11.5413243,0.420603818 11.2122835,0.327616856 C8.3602353,-0.497372125 8.26173952,2.07923173 8.26173952,2.07923173 C8.23468023,2.09436914 8.14917291,2.45226082 7.81147309,2.06085059 C6.10457368,0.0767683062 0.392900753,-1.27370514 0.774977793,2.77447146 C0.911356566,4.22658182 1.87033747,5.14888273 3.33803284,5.9760342 C5.02653194,6.93077243 7.62530524,7.50058789 7.83636763,8.01958489 C8.01279413,8.45532612 7.93269866,10.1680162 7.93269866,10.6448447 C7.93269866,11.6525639 6.71070156,11.4871336 6.29398864,11.3963091 C4.94210699,11.107617 4.14223466,9.95068622 4.14981125,9.58306335 C4.18769425,7.55681256 2.45481792,6.72641736 1.52073156,7.35353874 C0.107154751,8.30070826 1.466613,10.5075268 3.75582813,11.5120022 C5.03086143,12.0710052 6.07859677,12.4710654 7.74003659,12.5629711 C10.0909469,12.6927204 10.7576875,11.6504014 10.7576875,9.55819474 C10.7576875,9.55819474 10.724134,1.62078438 10.7522757,1.60780945 C10.7522757,1.60780945 10.7024866,0.848776343 11.9060834,1.08124375 M7.89481567,6.90266009 C7.49325595,6.73182358 4.24505992,5.40946248 3.60862564,4.18225082 C3.33803284,3.66217258 3.22221912,3.21670015 3.55125997,2.54416654 C4.34463807,0.910407237 7.88182722,2.2662869 7.89914516,3.36158682 C7.91429835,4.48932405 7.89914516,6.89401014 7.89481567,6.90266009" id="path4744"></path>
                        </g>
                        <g id="g4746" transform="translate(57.469366, 1.865794)">
                            <path d="M11.9060834,1.08124375 C11.9786023,0.898513555 12.0392151,0.667127393 12.0392151,0.667127393 C12.0392151,0.667127393 11.5402419,0.420603818 11.2122835,0.325454368 C8.3602353,-0.497372125 8.26173952,2.07923173 8.26173952,2.07923173 C8.23684498,2.09436914 8.15025528,2.45226082 7.81255546,2.05976934 C6.10457368,0.0756870624 0.392900753,-1.27370514 0.776060164,2.77447146 C0.911356566,4.22550057 1.87250221,5.14672025 3.33911521,5.97711544 C5.02544957,6.92969119 7.62530524,7.50058789 7.83636763,8.01850364 C8.01171176,8.45532612 7.93486341,10.1658537 7.93486341,10.6426822 C7.93486341,11.6525639 6.70961919,11.4849711 6.2918239,11.3963091 C4.94102462,11.1054545 4.14223466,9.94852374 4.14872888,9.5819821 C4.18661188,7.55897505 2.4559003,6.72533612 1.52073156,7.35353874 C0.109319493,8.29854577 1.466613,10.5064455 3.75799287,11.5098397 C5.03086143,12.069924 6.08184388,12.4710654 7.74111896,12.5608086 C10.0920292,12.6905579 10.7587699,11.6504014 10.7587699,9.55819474 C10.7587699,9.55819474 10.7230517,1.62186562 10.7533581,1.60672821 C10.7533581,1.60672821 10.7014042,0.849857587 11.9060834,1.08124375 M7.89589804,6.90157885 C7.49433832,6.73182358 4.24505992,5.40838123 3.60862564,4.18333207 C3.33911521,3.66109133 3.22330149,3.21670015 3.55125997,2.54416654 C4.34572044,0.909325993 7.87966247,2.26520565 7.89806279,3.36158682 C7.91538073,4.49040529 7.9013099,6.8929289 7.89589804,6.90157885" id="path4748"></path>
                        </g>
                        <g id="g4750" transform="translate(80.463368, 0.872023)">
                            <path d="M12.9884546,21.624875 C13.0252553,20.3306262 12.9884546,5.26998203 12.9884546,5.26998203 C13.123751,3.75299705 12.8628996,3.2350813 14.6206704,2.26412441 L14.6434002,2.04463193 C13.2763654,1.83811437 11.7761989,1.48887264 10.4708592,1.07367504 C10.4622002,1.90839522 10.4708592,2.8447523 10.4708592,2.8447523 C10.4708592,4.18008833 9.58439714,1.22396792 6.14678615,1.06826882 C-1.19710257,0.734164506 -1.50666074,15.0087445 9.42095909,13.4420223 C10.2998445,13.3155168 10.493589,12.7338076 10.3961756,13.7588267 L10.3961756,17.6069732 C10.3961756,17.6069732 10.493589,18.5141367 8.34399973,19.5034747 C8.24442158,19.8494727 8.67520532,19.9024537 8.86678503,19.9424597 C10.16996,20.2181769 11.7859402,21.0485721 12.9884546,21.624875 M7.48892646,12.76192 C1.55428507,11.9423372 2.95487343,1.68349652 7.86342691,2.48361689 C8.83972575,2.64364097 10.4535412,4.28496898 10.426482,5.25700711 C10.3994227,6.28202618 10.4546236,10.166935 10.3766929,11.0622048 C10.2781971,12.2083232 8.67520532,12.9273503 7.48892646,12.76192" id="path4752"></path>
                        </g>
                        <g id="g4754" transform="translate(41.743486, 1.516552)">
                            <path d="M5.4118561,12.974925 L5.45515094,12.9878999 L5.45515094,10.8859621 C5.58936498,10.9519179 6.56025196,11.7520383 8.07665404,12.3250975 C8.68278192,12.5532399 12.7644038,13.6279962 12.8574877,9.97663607 C12.8877941,8.72239332 12.8574877,4.20171321 12.8574877,3.5118797 C12.8574877,1.14071216 15.0384657,0.909325993 15.0384657,0.909325993 C15.0384657,0.909325993 15.0384657,0.742814456 15.0341362,0.564409237 L8.46197819,0.564409237 C8.48362562,0.684427293 8.45007211,0.909325993 8.45007211,0.909325993 C8.45007211,0.909325993 10.123418,1.02393783 10.123418,3.33239323 L10.123418,9.44682664 C10.1212533,11.6882449 7.68483566,11.9315248 5.47463363,9.20030306 L5.47463363,8.46505731 L5.47463363,3.5118797 C5.47463363,2.77014649 5.58936498,1.18936812 7.35471243,0.909325993 L7.35471243,0.559003018 C6.13812718,0.5362969 1.67226353,0.559003018 0.751165626,0.559003018 C0.739259543,0.716864606 0.751165626,0.909325993 0.751165626,0.909325993 C0.751165626,0.909325993 2.62907969,1.22072419 2.62907969,3.50647348 C2.62907969,5.75978545 2.63340918,9.22192794 2.63340918,9.22192794 C2.41585256,10.5810513 0.823684498,10.9411055 0.833425839,10.9454305 C0.844249551,10.9519179 0.826931611,11.2135789 0.823684498,11.3195408 C2.34874555,11.8071817 3.8207704,12.282929 5.4118561,12.974925" id="path4756"></path>
                        </g>
                        <g id="g4758" transform="translate(70.269704, 1.513849)">
                            <path d="M5.4118561,12.974925 C5.36856125,12.673258 5.41510321,11.1054545 5.40860898,10.6026762 C9.48914848,15.8802269 11.9959202,10.1161165 9.58764426,9.45439534 C7.99222908,9.01649162 8.23792735,10.6318698 6.8860457,10.499958 C6.4119671,10.4523833 5.93680614,10.0620543 5.5958592,9.06622884 C5.53524641,8.88349864 5.41618558,8.52993194 5.41510321,8.02282862 C5.4118561,5.85601614 5.33500774,3.28914348 5.5244227,2.54416654 C5.81882767,1.37426081 7.13282633,0.855263806 7.86017979,0.916894699 L7.86017979,0.561165506 C6.05153749,0.584952868 2.77411743,0.573059187 0.599633655,0.561165506 L0.599633655,0.889863605 C1.13757215,0.874726193 2.67670402,1.65322169 2.66912743,2.84691479 C2.64748,6.18471424 2.76004661,8.46397607 2.5197602,9.33870226 C2.34333369,9.98528602 1.81730128,10.4891456 1.19169071,10.7421566 C1.04124111,10.8037875 0.254357236,11.0038176 0.871308831,11.1973603 C2.66371557,11.7466321 3.94091361,12.234273 5.4118561,12.974925" id="path4760"></path>
                        </g>
                    </g>
                </g>
            </g>
            <g id="g4762" transform="translate(0.924983, 0.942351)">
                <g id="g4764-Clipped" transform="translate(0.000000, -0.000000)">
                    <g id="g4764" transform="translate(0.000000, 0.154050)">
                        <g id="g4770" transform="translate(143.012519, 17.914155)" fill-rule="nonzero">
                            <path d="M1.08237122,1.08124375 C1.25663299,1.23802409 2.08464697,1.94948248 2.03161078,2.70743435 C2.01104573,3.00153265 1.90930283,3.46862995 1.59866229,3.76489073 C1.24580927,4.10332003 0.908109453,4.43093688 0.908109453,5.13698905 C0.889709142,5.88088475 1.41898867,6.43015658 2.14417738,6.50800613 C3.37916295,6.50800613 3.91060721,5.68626088 3.91060721,4.66664802 C3.91060721,2.94206424 2.84988342,1.57104717 1.47743671,0.631446349 L1.08237122,1.08124375 Z" id="path4772"></path>
                        </g>
                        <g id="g4774" transform="translate(0.523651, 0.925869)">
                            <path d="M15.1531971,22.7061187 C15.7950432,22.7061187 16.3178285,23.4424457 16.3178285,24.3517717 C16.3178285,25.262179 15.7950432,25.9995872 15.1531971,25.9995872 C14.5091862,25.9995872 13.9874833,25.262179 13.9874833,24.3517717 C13.9874833,23.4424457 14.5091862,22.7061187 15.1531971,22.7061187 Z M27.1231404,21.0182972 C25.0828706,22.3017336 23.7796957,21.793549 21.7827208,23.1915972 C20.2522479,24.2652722 19.75111,25.2740726 19.3051731,26.37586 C19.0010268,27.1316494 18.8678951,27.365198 18.6438442,27.365198 C18.5009712,27.365198 18.3234624,27.3392482 18.3234624,26.5985962 C18.3234624,26.5953525 18.3256271,26.588865 18.3256271,26.5823776 C18.3234624,26.557509 18.3191329,26.5380466 18.3191329,26.5110155 C18.3191329,25.5897958 17.7075931,22.4985199 15.1488676,22.4985199 C12.7979573,22.5039261 12.009991,25.4611278 12.009991,26.5650777 L12.009991,26.5985962 C12.009991,27.3392482 11.8346469,27.365198 11.6917739,27.365198 C11.4666407,27.365198 11.3324267,27.1316494 11.0304451,26.37586 C10.5845082,25.2740726 10.0822879,24.2652722 8.551815,23.1915972 C6.55700485,21.793549 5.25166515,22.3017336 3.21356015,21.0182972 C1.18194937,19.7424296 0.0757659853,17.3788308 0.600716027,17.0706763 C0.974134097,16.8511838 1.4179063,17.4912801 1.85843138,18.0578519 C2.73082259,19.1845078 4.40525086,20.0949151 5.1109569,19.4537375 C5.9530417,18.688217 5.06549731,17.4707365 4.35329704,15.7375028 C3.73742782,14.2464676 3.80453484,12.4926903 3.93766649,11.03193 C4.18011765,8.38720776 2.98842694,7.53843142 3.68763874,7.08106531 C4.40200375,6.62045548 5.59152972,8.74293695 5.85346355,11.3303532 C5.98659521,12.6548768 5.94005325,13.9696692 6.44660298,13.9696692 C7.03324818,13.9696692 7.03324818,11.4146903 6.85140982,10.1507163 C6.49747443,7.70169922 5.21811165,6.47989379 5.44432723,3.98005824 C5.60668291,2.21871217 6.6977131,2.14735009 6.7204429,3.92923978 C6.75616115,6.83886671 9.49780745,8.3288206 9.29323929,13.4236411 C9.17201371,16.4684235 8.73473574,18.763904 10.3247391,22.04656 C10.6104851,22.6401629 11.0629162,23.6359884 11.426593,24.5712642 C11.5532304,24.2328349 11.8259879,23.563545 12.0045792,23.2640405 C13.8424455,20.2268268 13.8532692,20.2181769 13.1453985,17.4707365 C12.190747,13.7653142 14.0242839,12.242923 13.6909136,9.80904329 C13.5004162,8.39369522 14.3544071,8.35152672 14.7159191,9.79174339 C15.14995,11.5303833 14.4334202,12.5737836 14.4680561,14.3351296 C14.4864564,15.2509431 14.779779,17.0036392 15.3501886,16.8890274 C15.7030416,16.8176653 15.4194604,16.0099762 15.3501886,15.0217194 C15.2430339,13.5241968 15.7203596,11.5174084 16.3719471,11.710951 C17.0083813,11.9001687 16.2799455,12.6224395 16.7063998,14.4767726 C16.9585923,15.565585 17.4305061,16.9225459 17.1404306,18.1843574 C16.5624444,20.7004116 17.9532914,22.5428509 18.2812499,23.1505099 C18.5204539,23.5938198 18.7542461,24.1247105 18.8917073,24.610189 C19.2597135,23.6641007 19.7208036,22.6488128 20.0119615,22.04656 C21.5987177,18.763904 21.1636044,16.4684235 21.0412965,13.4236411 C20.8367283,8.3288206 23.5772923,6.83886671 23.6151753,3.92923978 C23.6368227,2.14735009 24.7311,2.21871217 24.8902086,3.98005824 C25.1175065,6.47989379 23.8370614,7.70169922 23.4842083,10.1507163 C23.30237,11.4146903 23.30237,13.9696692 23.8879328,13.9696692 C24.3966473,13.9696692 24.3468582,12.6548768 24.4821546,11.3303532 C24.7440884,8.74293695 25.9336144,6.62045548 26.646897,7.08106531 C27.3471912,7.53843142 26.1544181,8.38720776 26.3979517,11.03193 C26.5310833,12.4926903 26.5960256,14.2464676 25.9823211,15.7375028 C25.2690385,17.4707365 24.3825765,18.688217 25.2224965,19.4537375 C25.9282026,20.0949151 27.6037132,19.1845078 28.4782691,18.0578519 C28.9187942,17.4912801 29.3614841,16.8511838 29.7359845,17.0706763 C30.2609345,17.3788308 29.1525864,19.7424296 27.1231404,21.0182972 Z M22.8932337,22.8693865 C23.5339974,22.4606764 24.5157081,22.8877677 25.0850354,23.8187185 C25.6543626,24.7518319 25.596997,25.8374006 24.9540685,26.2450295 C24.3133047,26.6515772 23.3305116,26.2266484 22.7633491,25.2946163 C22.1907747,24.3615029 22.2503052,23.2759342 22.8932337,22.8693865 Z M7.44346687,22.8693865 C8.08423064,23.2759342 8.14376105,24.3615029 7.57335142,25.2946163 C7.00402416,26.2266484 6.02123109,26.6515772 5.38046733,26.2450295 C4.73970357,25.8374006 4.67909078,24.7518319 5.24950041,23.8187185 C5.81882767,22.8877677 6.80162074,22.4606764 7.44346687,22.8693865 Z M30.2663464,0.30274825 L0.11581372,0.30274825 L0.11581372,30.4218741 L30.2663464,30.4218741 L30.2663464,0.30274825 Z" id="path4776"></path>
                        </g>
                    </g>
                </g>
            </g>
        </g>
    </g>
</svg>