<?xml version="1.0" encoding="UTF-8"?>
<svg width="160px" height="72px" viewBox="0 0 160 72" version="1.1" xmlns="http://www.w3.org/2000/svg" xmlns:xlink="http://www.w3.org/1999/xlink">
    <!-- Generator: Sketch 50 (54983) - http://www.bohemiancoding.com/sketch -->
    <title>customer/bcg</title>
    <desc>Created with Sketch.</desc>
    <defs></defs>
    <g id="customer/bcg" stroke="none" stroke-width="1" fill="none" fill-rule="evenodd">
        <g id="bcg" transform="translate(22.000000, 12.000000)" fill="#000000" fill-rule="nonzero">
            <path d="M96.6332916,26.6343465 L96.6332916,27.3646974 C96.6332916,27.7641603 96.7017602,27.9632246 97.1005138,27.9632246 C103.881902,28.163634 103.881902,28.8939848 103.881902,34.2215983 L103.881902,38.4826266 C103.881902,43.0113077 100.955058,45.8116514 95.0396449,45.8116514 C85.1380854,45.8116514 80.8794032,36.2862046 80.8794032,24.3020765 C80.8794032,12.9796957 83.9364758,2.12404005 94.8395951,2.12404005 C101.023534,2.12404005 106.204566,6.32318905 106.603313,13.9091109 C106.603313,14.3825505 106.870492,14.3825505 107.20614,14.3825505 L107.866681,14.3825505 C107.804922,11.3132153 107.736454,3.98957408 107.736454,0.858367532 L107.337714,0.858367532 C106.870492,0.858367532 106.671788,0.926964023 106.603313,1.19462484 L106.005862,4.52086063 L105.942757,4.52086063 C102.817223,1.66269502 98.3638756,0.395688234 94.1736835,0.395688234 C81.3466254,0.395688234 72.840016,11.3132153 72.840016,24.5011409 C72.840016,26.6975629 73.0333494,28.762172 73.5005716,30.6963133 L73.3689975,32.5605023 C72.6399662,42.6804305 66.719178,45.8116514 60.4734802,45.8116514 C50.5719135,45.8116514 45.8513902,36.691062 45.8513902,24.3020765 C45.8513902,13.0482922 48.6412868,2.12404005 59.5444061,2.12404005 C65.0624294,2.12404005 69.8447099,5.66008964 70.8409064,11.4450281 C70.9093751,11.9184784 71.1094249,11.9184784 71.4397027,11.9184784 L72.1056286,11.9184784 C72.0425232,8.8491432 71.9740546,3.98957408 71.9740546,0.858367532 L71.575301,0.858367532 C71.1094249,0.858367532 70.9093751,0.926964023 70.8409064,1.19462484 L70.2434635,4.45764426 L70.1749877,4.45764426 C67.117928,1.66269502 62.8646161,0.395688234 58.7428891,0.395688234 C46.181668,0.395688234 37.8066291,11.3132153 37.8066291,24.5011409 C37.8066291,25.6995619 37.9382031,26.8966272 38.073805,28.026441 L37.9382031,28.026441 C35.4154931,24.4325444 30.364692,22.6355961 24.3123168,22.3733261 L24.3123168,22.2374782 C30.8936628,20.9018641 35.3470209,17.5715933 35.3470209,11.9816948 C35.3470209,3.4542632 26.174482,1.33181782 18.7956361,1.33181782 C16.8019076,1.33181782 12.2816883,1.46228566 10.8866165,1.46228566 C7.62977684,1.46228566 4.10549277,1.39368917 1.04802277,1.33181782 L1.04802277,2.05678858 C1.04802277,2.4602866 1.11095277,2.66069595 1.51478314,2.66069595 C6.89564721,2.85976028 6.89564721,3.59011116 6.89564721,11.9184784 L6.89564721,36.0239275 C6.89564721,44.3401894 6.89564721,45.0759168 1.58296536,45.2749812 C1.11095277,45.2749812 1.04802277,45.4753941 1.04802277,45.8748642 L1.04802277,46.6105845 C4.16845499,46.5419915 7.16309165,46.4787716 10.3517276,46.4787716 C14.3426968,46.4787716 16.0728798,46.6105845 21.3237272,46.6105845 C32.357078,46.6105845 39.201572,41.3461759 39.6687942,34.621072 L39.7990257,34.621072 C43.1930783,42.548632 50.5719135,47.5400032 60.3419061,47.5400032 C64.925485,47.5400032 69.178784,46.0739214 72.6399662,43.2789721 L72.7030716,43.2789721 L73.3005217,46.7410559 C73.3689975,47.0100617 73.5690402,47.0719331 74.0295531,47.0719331 L74.4282923,47.0719331 C74.4282923,44.8768525 74.496761,38.8861353 74.5652368,34.4206626 L74.6954647,34.4206626 C78.0210486,42.6804305 85.5314686,47.5400032 94.6408914,47.5400032 C103.477779,47.5400032 106.740257,42.0133104 110.526347,42.0133104 C110.861995,42.0133104 110.993562,41.8814975 110.993562,41.3461759 C110.993562,40.6830872 110.861995,38.750291 110.861995,37.6204664 L110.861995,34.5578556 C110.861995,28.8939848 110.861995,28.163634 114.716546,27.9632246 C115.178398,27.9632246 115.241503,27.7641603 115.241503,27.3646974 L115.241503,26.6343465 C112.119993,26.6975629 110.059124,26.7661593 106.870492,26.7661593 C103.614723,26.7661593 99.6916889,26.6975629 96.6332916,26.6343465 Z M20.9880791,44.8768525 L20.4416439,44.872821 L19.9247565,44.8634022 L19.4360528,44.8445718 L18.9742009,44.8176712 L18.5392117,44.778669 L18.1297209,44.7288993 L17.7457394,44.667028 L17.384582,44.5903649 L17.0489339,44.4989029 L16.734778,44.3913006 L16.4434354,44.264875 L16.1735742,44.1209604 L15.923852,43.9582083 L15.6929261,43.7739429 L15.4821391,43.5668084 L15.2888165,43.3368048 L15.1142794,43.0825979 L14.9558535,42.8028318 L14.8135387,42.4961723 L14.6859924,42.162605 L14.5732146,41.7981057 L14.4738628,41.4053572 L14.3882054,40.9803279 L14.3499468,40.7557188 L14.3145024,40.5230252 L14.2820117,40.2822685 L14.252335,40.0320931 L14.2252146,39.7738475 L14.2007794,39.506183 L14.1789005,39.2304628 L14.1592987,38.9439752 L14.1421135,38.6494102 L14.1270765,38.3454336 L14.1141876,38.0320453 L14.1033072,37.7078897 L14.0943172,37.3756783 L14.0871961,37.0313508 L14.0818257,36.6789531 L14.0782061,36.3144538 L14.0759183,35.9405356 L14.0752524,35.5558645 L14.0752524,23.5663563 L16.734778,23.5663563 C24.7110668,23.5663563 31.9583387,25.4991526 31.9583387,34.0897962 C31.9583387,40.883493 27.968175,44.8768525 20.9880791,44.8768525 Z M14.0752524,21.9684723 L14.0752524,3.85777198 C14.0752524,3.39104683 14.1434561,3.25385385 14.8041405,3.19063747 C15.7372317,3.12876613 17.9981468,3.05478952 19.062812,3.05478952 C24.6425946,3.12876613 28.1668787,6.3850604 28.1668787,12.580222 C28.1668787,19.5097696 23.9135668,21.9684723 16.8703798,21.9684723 L14.0752524,21.9684723 Z" id="path9"></path>
        </g>
    </g>
</svg>