<?xml version="1.0" encoding="UTF-8"?>
<svg width="160px" height="72px" viewBox="0 0 160 72" version="1.1" xmlns="http://www.w3.org/2000/svg" xmlns:xlink="http://www.w3.org/1999/xlink">
    <!-- Generator: Sketch 51 (57462) - http://www.bohemiancoding.com/sketch -->
    <title>customer/careship</title>
    <desc>Created with Sketch.</desc>
    <defs></defs>
    <g id="customer/careship" stroke="none" stroke-width="1" fill="none" fill-rule="evenodd">
        <g id="careship" transform="translate(0.000000, 14.000000)" fill="#000000">
            <path d="M16.35,0.05 C16.23,0.06 16.13,0.1 16.13,0.13 C16.13,0.16 16.01,0.2 15.87,0.23 C15.72,0.25 15.6,0.29 15.6,0.33 C15.6,0.36 15.5,0.4 15.37,0.43 C15.22,0.46 15.13,0.52 15.1,0.6 C15.08,0.67 15.01,0.73 14.95,0.73 C14.5693525,0.971285555 14.2452999,1.29192699 14,1.67 C13.97,1.67 13.92,1.74 13.9,1.83 C13.87,1.93 13.83,2 13.8,2 C13.77,2 13.72,2.09 13.7,2.2 C13.68,2.31 13.63,2.4 13.6,2.4 C13.56,2.4 13.53,2.46 13.53,2.53 C13.53,2.61 13.51,2.67 13.47,2.67 C13.44,2.67 13.39,2.8 13.37,2.97 C13.35,3.13 13.3,3.27 13.27,3.27 C13.23,3.27 13.2,3.42 13.2,3.6 C13.2,3.78 13.17,3.93 13.13,3.93 C13.09,3.93 13.07,4.23 13.07,4.66 C13.07,5.08 13.1,5.41 13.13,5.43 C13.17,5.46 13.2,5.61 13.2,5.77 C13.2,5.93 13.23,6.07 13.26,6.07 C13.29,6.07 13.33,6.22 13.36,6.41 C13.38,6.61 13.43,6.79 13.46,6.82 C13.5068844,6.87593251 13.5317713,6.94703801 13.53,7.02 C13.53,7.08 13.56,7.13 13.59,7.13 C13.62,7.13 13.67,7.27 13.69,7.43 C13.72,7.6 13.77,7.73 13.79,7.73 C13.83,7.73 13.88,7.85 13.9,8 C13.92,8.15 13.97,8.27 14,8.27 C14.04,8.27 14.07,8.31 14.07,8.37 C14.07,8.42 14.09,8.47 14.13,8.47 C14.16,8.47 14.2,8.54 14.23,8.63 C14.25,8.73 14.3,8.8 14.33,8.8 C14.36,8.8 14.41,8.89 14.43,9 C14.46,9.11 14.5,9.2 14.53,9.2 C14.57,9.2 14.6,9.25 14.6,9.3 C14.6,9.35 14.63,9.4 14.67,9.4 C14.7,9.4 14.73,9.46 14.73,9.54 C14.73,9.61 14.78,9.69 14.83,9.71 C14.89,9.73 14.93,9.79 14.93,9.84 C14.93,9.89 14.96,9.94 15,9.94 C15.04,9.94 15.07,9.99 15.07,10.07 C15.07,10.14 15.11,10.22 15.17,10.24 C15.22,10.26 15.27,10.34 15.27,10.41 C15.27,10.48 15.34,10.61 15.43,10.71 C15.53,10.8 15.6,10.91 15.6,10.97 C15.6,11.03 15.64,11.09 15.7,11.11 C15.75,11.13 15.81,11.23 15.84,11.34 C15.86,11.45 15.94,11.58 16.01,11.62 C16.08,11.66 16.13,11.75 16.13,11.82 C16.13,11.88 16.18,11.95 16.23,11.98 C16.29,12 16.33,12.04 16.33,12.08 C16.33,12.11 16.37,12.18 16.42,12.24 C16.62,12.46 16.67,12.54 16.67,12.6 C16.67,12.64 16.71,12.69 16.77,12.7 C16.82,12.73 16.87,12.8 16.87,12.84 C16.87,12.9 16.94,13.01 17.03,13.09 C17.13,13.18 17.2,13.28 17.2,13.32 C17.2,13.36 17.28,13.45 17.37,13.52 C17.46,13.59 17.53,13.7 17.53,13.75 C17.53,13.8 17.63,13.92 17.73,14 C17.84,14.08 17.93,14.2 17.93,14.25 C17.93,14.3 18.05,14.45 18.2,14.59 C18.35,14.73 18.47,14.89 18.47,14.92 C18.47,14.97 18.5,15 18.53,15 C18.68,15 18.59,15.25 18.43,15.3 C18.34,15.32 18.27,15.37 18.27,15.4 C18.27,15.44 18.22,15.47 18.17,15.47 C18.11,15.47 18.07,15.5 18.07,15.53 C18.07,15.57 17.97,15.61 17.83,15.63 C17.7,15.66 17.6,15.7 17.6,15.73 C17.6,15.76 17.52,15.81 17.42,15.83 C17.16,15.89 16.87,16.03 16.87,16.08 C16.87,16.1 16.72,16.14 16.53,16.17 C16.35,16.19 16.2,16.24 16.2,16.27 C16.2,16.31 16.11,16.33 16,16.33 C15.9,16.33 15.8,16.36 15.79,16.4 C15.78,16.44 15.43,16.49 15.02,16.51 C14.6,16.53 14.27,16.58 14.27,16.61 C14.27,16.72 13.27,16.67 13.15,16.56 C13.06,16.47 13.05,16.44 13.12,16.42 C13.22,16.38 13.24,15.33 13.14,15.33 C13.11,15.33 13.07,14.77 13.04,14.09 C13.0460513,13.4775333 12.9789089,12.866537 12.84,12.27 C12.8379826,12.0758172 12.8042029,11.8832731 12.74,11.7 C12.6974634,11.6493563 12.6728542,11.5860757 12.67,11.52 C12.67,11.45 12.64,11.4 12.61,11.4 C12.57,11.4 12.53,11.25 12.5,11.07 C12.47,10.88 12.43,10.73 12.4,10.73 C12.36,10.73 12.33,10.69 12.33,10.63 C12.33,10.58 12.31,10.53 12.27,10.53 C12.24,10.53 12.2,10.43 12.17,10.3 C12.15,10.17 12.1,10.07 12.07,10.07 C12.03,10.07 11.97,9.99 11.93,9.9 C11.9,9.8 11.83,9.71 11.77,9.7 C11.7089898,9.67532435 11.6693121,9.61580771 11.67,9.55 C11.67,9.44 10.91,8.67 10.8,8.67 C10.76,8.67 10.67,8.59 10.59,8.5 C10.49993,8.40494101 10.3859477,8.33586083 10.26,8.3 C10.16,8.27 10.06,8.23 10.06,8.2 C10.06,8.16 10.02,8.13 9.96,8.13 C9.91,8.13 9.86,8.11 9.86,8.07 C9.86,8.04 9.7,7.99 9.5,7.97 C9.3,7.94 9.12,7.89 9.1,7.86 C8.46947884,7.77559522 7.83052116,7.77559522 7.2,7.86 C7.2,7.9 7.14,7.93 7.06,7.93 C6.93,7.93 6.47,8.11 6.4,8.2 C6.36,8.24 6.13,8.39 6.01,8.44 C5.86,8.51 5.47,8.91 5.47,8.99 C5.47,9.03 5.39,9.14 5.3,9.23 C5.2,9.32 5.13,9.46 5.13,9.53 C5.13,9.61 5.11,9.67 5.07,9.67 C5.04,9.67 4.99,9.76 4.97,9.87 C4.94,9.97 4.9,10.07 4.87,10.07 C4.83,10.07 4.8,10.17 4.8,10.29 C4.8,10.42 4.76,10.53 4.72,10.55 C4.6,10.59 4.6,13.15 4.72,13.18 C4.76,13.2 4.8,13.3 4.8,13.41 C4.8,13.51 4.83,13.6 4.86,13.6 C4.89,13.6 4.94,13.72 4.96,13.87 C4.98,14.01 5.03,14.13 5.06,14.13 C5.09,14.13 5.14,14.23 5.16,14.37 C5.19,14.49 5.23,14.6 5.27,14.6 C5.3,14.6 5.33,14.64 5.33,14.7 C5.33,14.75 5.36,14.8 5.39,14.8 C5.43,14.8 5.47,14.87 5.49,14.97 C5.52,15.06 5.57,15.13 5.6,15.13 C5.64,15.13 5.67,15.18 5.67,15.23 C5.67,15.29 5.69,15.33 5.73,15.33 C5.76,15.33 5.81,15.4 5.83,15.48 C6.41570257,16.1993238 7.08737888,16.844133 7.83,17.4 C7.89,17.4 7.93,17.43 7.93,17.47 C7.93,17.5 8.01,17.55 8.1,17.57 C8.2,17.6 8.27,17.64 8.27,17.67 C8.27,17.7 8.34,17.74 8.43,17.77 C8.53,17.78 8.6,17.83 8.6,17.87 C8.6,17.9 8.65,17.93 8.7,17.93 C8.75,17.93 8.8,17.96 8.8,18 C8.8,18.04 8.92,18.08 9.07,18.1 C9.21,18.13 9.33,18.18 9.33,18.2 C9.33,18.24 9.45,18.28 9.6,18.3 C9.75,18.33 9.87,18.38 9.87,18.4 C9.87,18.44 9.91,18.47 9.97,18.47 C10.02,18.47 10.07,18.5 10.07,18.53 C10.07,18.57 10.17,18.6 10.32,18.61 C10.45,18.61 10.52,18.63 10.48,18.64 C10.43,18.66 10.4,18.8 10.4,18.97 C10.4,19.13 10.37,19.27 10.34,19.27 C10.31,19.27 10.26,19.51 10.24,19.8 L10.19,20.33 L9.79,20.33 C9.58,20.33 9.4,20.3 9.4,20.27 C9.4,20.23 9.08,20.2 8.57,20.2 C8.11,20.2 7.73,20.23 7.73,20.26 C7.73,20.29 7.4,20.33 6.98,20.36 C6.58,20.38 6.22,20.43 6.21,20.46 C6.2,20.5 6.11,20.53 5.99,20.53 C5.89,20.53 5.8,20.56 5.8,20.59 C5.8,20.62 5.62,20.67 5.4,20.69 C5.18,20.72 5,20.76 5,20.79 C5,20.82 4.88,20.87 4.73,20.89 C4.59,20.92 4.47,20.96 4.47,21 C4.47,21.04 4.42,21.07 4.37,21.07 C4.31,21.07 4.27,21.09 4.27,21.12 C4.27,21.16 4.15,21.2 4,21.22 C3.85,21.25 3.73,21.3 3.73,21.33 C3.73,21.37 3.66,21.42 3.57,21.43 C3.47,21.46 3.4,21.51 3.4,21.54 C3.4,21.57 3.35,21.6 3.3,21.6 C3.24,21.6 3.2,21.63 3.2,21.66 C3.2,21.7 3.13,21.75 3.05,21.77 C2.97,21.8 2.85,21.87 2.8,21.93 C2.73321735,22.0009011 2.65113282,22.0556241 2.56,22.09 C2.48,22.12 2.4,22.19 2.37,22.24 C2.35,22.29 2.31,22.34 2.27,22.34 C1.92595155,22.5891236 1.62526408,22.8931896 1.38,23.24 C1.18,23.45 1.13,23.54 1.13,23.59 C1.13,23.62 1.09,23.67 1.03,23.69 C0.98,23.71 0.93,23.79 0.93,23.86 C0.93,23.93 0.89,24 0.83,24.02 C0.772277938,24.0432496 0.733272174,24.0978576 0.73,24.16 C0.73,24.22 0.7,24.26 0.67,24.26 C0.63,24.26 0.6,24.33 0.6,24.4 C0.6,24.47 0.57,24.53 0.54,24.53 C0.5,24.53 0.46,24.63 0.44,24.73 C0.41,24.84 0.37,24.93 0.34,24.93 C0.31,24.93 0.26,25.08 0.24,25.25 C0.21,25.42 0.15,25.59 0.11,25.61 C0.01,25.68 0.01,28.51 0.11,28.59 C0.15,28.61 0.21,28.75 0.23,28.89 C0.25,29.02 0.3,29.13 0.33,29.13 C0.36,29.13 0.4,29.21 0.43,29.3 C0.45,29.4 0.5,29.47 0.53,29.47 C0.842014885,29.9062005 1.22379949,30.2879851 1.66,30.6 C1.66,30.63 1.74,30.68 1.83,30.7 C1.93,30.73 2,30.77 2,30.8 C2,30.84 2.07,30.87 2.16,30.87 C2.25,30.87 2.33,30.9 2.35,30.94 C2.35,30.98 2.5,31.03 2.67,31.04 C2.83,31.07 2.99,31.12 3.01,31.15 C3.07,31.24 5.13,31.24 5.19,31.15 C5.21,31.12 5.39,31.07 5.56,31.05 C5.75,31.02 5.92,30.97 5.96,30.93 C6,30.9 6.1,30.87 6.18,30.87 C6.26,30.87 6.33,30.84 6.33,30.81 C6.33,30.77 6.43,30.72 6.53,30.7 C6.64,30.68 6.73,30.63 6.73,30.6 C6.73,30.56 6.78,30.53 6.83,30.53 C6.89,30.53 6.93,30.51 6.93,30.47 C6.93,30.44 7,30.39 7.08,30.37 C7.19407003,30.3226283 7.29644554,30.2509654 7.38,30.16 C7.81913283,29.8384541 8.22155404,29.469568 8.58,29.06 C8.62,29 8.73,28.91 8.82,28.83 C8.92,28.76 9,28.66 9,28.61 C9,28.57 9.07,28.46 9.16,28.38 C9.24735276,28.2954527 9.31555355,28.1931515 9.36,28.08 C9.39,28 9.44,27.93 9.47,27.93 C9.51,27.93 9.53,27.89 9.53,27.83 C9.53,27.78 9.56,27.73 9.6,27.73 C9.63,27.73 9.68,27.66 9.7,27.57 C9.73,27.48 9.79,27.39 9.84,27.37 C9.89,27.35 9.94,27.27 9.94,27.2 C9.94,27.13 9.96,27.07 10,27.07 C10.04,27.07 10.07,27.02 10.07,26.97 C10.07,26.92 10.11,26.87 10.17,26.84 C10.22,26.82 10.27,26.74 10.27,26.67 C10.27,26.59 10.3,26.53 10.33,26.53 C10.37,26.53 10.4,26.49 10.4,26.43 C10.4,26.38 10.43,26.33 10.46,26.33 C10.49,26.33 10.54,26.26 10.56,26.17 C10.58,26.07 10.63,26 10.66,26 C10.7,26 10.74,25.91 10.76,25.8 C10.79,25.69 10.83,25.6 10.86,25.6 C10.92,25.6 11.13,25.09 11.13,24.93 C11.13,24.86 11.16,24.8 11.2,24.8 C11.24,24.8 11.27,24.75 11.27,24.7 C11.27,24.64 11.29,24.6 11.33,24.6 C11.36,24.6 11.41,24.51 11.43,24.4 C11.46,24.29 11.5,24.2 11.53,24.2 C11.56,24.2 11.61,24.05 11.63,23.87 C11.66,23.68 11.71,23.53 11.74,23.53 C11.77,23.53 11.8,23.49 11.8,23.43 C11.8,23.32 12.28,23.36 12.32,23.48 C12.33,23.51 12.39,23.53 12.44,23.53 C12.49,23.53 12.54,23.56 12.54,23.59 C12.54,23.63 12.64,23.67 12.77,23.69 C12.89,23.72 13,23.77 13,23.8 C13,23.84 13.04,23.87 13.1,23.87 C13.15,23.87 13.2,23.9 13.2,23.93 C13.2,23.97 13.3,24.01 13.43,24.03 C13.56,24.06 13.67,24.11 13.67,24.14 C13.67,24.17 13.71,24.2 13.77,24.2 C13.82,24.2 13.89,24.24 13.91,24.3 C13.93,24.35 14.01,24.4 14.07,24.4 C14.13,24.4 14.2,24.44 14.22,24.5 C14.25,24.55 14.3,24.6 14.34,24.6 C14.38,24.6 14.45,24.64 14.5,24.68 C14.7,24.86 14.8,24.93 14.83,24.93 C15.6252606,25.6655314 16.3734081,26.4504183 17.07,27.28 C17.07,27.32 17.14,27.42 17.23,27.51 C17.33,27.59 17.4,27.71 17.4,27.76 C17.4,27.82 17.43,27.86 17.46,27.86 C17.5,27.86 17.56,27.96 17.62,28.06 C17.68,28.18 17.7,28.26 17.66,28.26 C17.63,28.26 17.59,28.34 17.56,28.42 C17.5220999,28.5308579 17.4525736,28.6281946 17.36,28.7 C17.27,28.76 17.2,28.87 17.2,28.94 C17.2,29 17.15,29.07 17.1,29.09 C17.04,29.11 17,29.17 17,29.22 C17,29.26 16.94,29.35 16.87,29.4 C16.7857091,29.4734803 16.7263087,29.5713162 16.7,29.68 C16.67,29.78 16.63,29.87 16.6,29.87 C16.56,29.87 16.52,29.94 16.5,30.03 C16.47,30.13 16.43,30.2 16.4,30.2 C16.36,30.2 16.33,30.26 16.33,30.33 C16.33,30.41 16.31,30.47 16.27,30.47 C16.24,30.47 16.19,30.55 16.17,30.65 C16.14,30.75 16.1,30.85 16.07,30.87 C15.9391675,31.0340721 15.8468927,31.225457 15.8,31.43 C15.8,31.49 15.77,31.53 15.73,31.53 C15.7,31.53 15.65,31.65 15.63,31.8 C15.6,31.95 15.56,32.07 15.53,32.07 C15.49,32.07 15.47,32.11 15.47,32.17 C15.47,32.22 15.44,32.27 15.41,32.27 C15.37,32.27 15.33,32.42 15.3,32.6 C15.27,32.78 15.23,32.93 15.2,32.93 C15.17,32.93 15.12,33.1 15.1,33.3 C15.07,33.5 15.02,33.67 15,33.67 C14.96,33.67 14.93,33.75 14.93,33.87 C14.93,33.97 14.91,34.07 14.87,34.1 C14.84,34.12 14.79,34.39 14.77,34.7 C14.74,35.01 14.69,35.27 14.66,35.27 C14.63,35.27 14.6,35.54 14.6,35.87 C14.6,36.22 14.57,36.47 14.53,36.47 C14.49,36.47 14.47,36.77 14.47,37.27 C14.47,37.76 14.49,38.07 14.53,38.07 C14.57,38.07 14.6,38.31 14.6,38.67 C14.6,39 14.63,39.27 14.66,39.27 C14.69,39.27 14.74,39.47 14.76,39.73 C14.79,39.99 14.84,40.2 14.87,40.2 C14.91,40.2 14.93,40.28 14.93,40.37 C14.93,40.46 14.96,40.53 14.99,40.53 C15.02,40.53 15.07,40.65 15.09,40.8 C15.12,40.95 15.16,41.07 15.19,41.07 C15.23,41.07 15.27,41.17 15.29,41.3 C15.32,41.43 15.37,41.53 15.4,41.53 C15.44,41.53 15.47,41.58 15.47,41.63 C15.47,41.69 15.49,41.73 15.53,41.73 C15.56,41.73 15.6,41.81 15.63,41.9 C15.65,42 15.7,42.07 15.73,42.07 C15.77,42.07 15.8,42.11 15.8,42.16 C15.8,42.2 15.88,42.32 15.98,42.42 L16.58,43.02 C16.72,43.15 16.87,43.27 16.91,43.27 C16.96,43.27 17.01,43.31 17.05,43.35 C17.29,43.75 20.2,43.91 20.2,43.53 C20.2,43.49 20.24,43.47 20.3,43.47 C20.35,43.47 20.4,43.44 20.4,43.4 C20.4,43.36 20.44,43.33 20.5,43.33 C20.55,43.33 20.67,43.26 20.76,43.17 C20.86,43.07 20.96,43 20.99,43 C21.09,43 21.47,42.6 21.47,42.51 C21.47,42.47 21.54,42.38 21.63,42.31 C21.73,42.24 21.8,42.13 21.8,42.07 C21.8,42.01 21.86,41.93 21.93,41.89 C22.0184372,41.8158499 22.0785003,41.7133893 22.1,41.6 C22.12,41.5 22.17,41.4 22.2,41.4 C22.24,41.4 22.28,41.28 22.3,41.13 C22.33,40.99 22.38,40.87 22.4,40.87 C22.44,40.87 22.47,40.79 22.47,40.71 C22.47,40.61 22.5,40.53 22.53,40.52 C22.57,40.51 22.62,40.32 22.64,40.1 C22.67,39.88 22.72,39.68 22.76,39.65 C22.86,39.59 22.86,34.95 22.76,34.88 C22.72,34.85 22.66,34.53 22.64,34.17 C22.6413978,33.9322558 22.6042494,33.6958568 22.53,33.47 C22.49,33.47 22.47,33.34 22.47,33.19 C22.47,33.05 22.44,32.93 22.41,32.93 C22.38,32.93 22.33,32.73 22.31,32.5 C22.28,32.26 22.23,32.07 22.21,32.07 C22.18,32.07 22.13,31.91 22.11,31.72 C22.1039526,31.5780871 22.0699706,31.4387609 22.01,31.31 C21.9617265,31.2581052 21.9333854,31.190795 21.93,31.12 C21.93,31.05 21.91,31 21.87,31 C21.84,31 21.79,30.85 21.77,30.67 C21.74,30.48 21.69,30.33 21.66,30.33 C21.63,30.33 21.6,30.26 21.6,30.17 C21.6,30.07 21.57,30 21.54,30 C21.5,30 21.46,29.91 21.44,29.8 C21.41,29.69 21.37,29.6 21.34,29.6 C21.31,29.6 21.26,29.48 21.24,29.33 C21.22,29.19 21.17,29.07 21.14,29.07 C21.1,29.07 21.07,29.01 21.07,28.93 C21.07,28.86 21.04,28.8 21,28.8 C20.78,28.8 21.08,28.28 21.3,28.27 C21.35,28.27 21.44,28.19 21.5,28.1 C21.58,28 21.67,27.93 21.71,27.93 C21.76,27.93 21.87,27.86 21.96,27.77 C22.06,27.67 22.16,27.6 22.2,27.6 C22.24,27.6 22.29,27.56 22.3,27.5 C22.33,27.46 22.44,27.4 22.57,27.37 C22.7,27.35 22.81,27.28 22.83,27.2 C22.86,27.13 22.96,27.06 23.1,27.04 C23.23,27.01 23.33,26.97 23.33,26.94 C23.33,26.9 23.43,26.86 23.53,26.84 C23.64,26.81 23.73,26.76 23.73,26.73 C23.73,26.69 23.81,26.67 23.9,26.67 C24,26.67 24.07,26.64 24.07,26.6 C24.07,26.56 24.19,26.52 24.33,26.5 C24.48,26.47 24.6,26.42 24.6,26.4 C24.6,26.36 24.68,26.33 24.77,26.33 C24.86,26.33 24.93,26.31 24.93,26.27 C24.93,26.24 25.08,26.19 25.27,26.17 C25.45,26.14 25.6,26.1 25.6,26.07 C25.6,26.03 25.81,25.99 26.07,25.97 C26.32,25.94 26.53,25.89 26.53,25.86 C26.53,25.83 26.63,25.8 26.77,25.8 L27,25.8 L27,26.57 C27,26.99 27.03,27.33 27.06,27.33 C27.09,27.33 27.14,27.7 27.16,28.15 C27.19,28.6 27.23,28.98 27.26,29 C27.29,29.02 27.34,29.27 27.36,29.55 C27.39,29.83 27.44,30.08 27.47,30.1 C27.51,30.12 27.53,30.23 27.53,30.34 C27.53,30.44 27.56,30.54 27.59,30.54 C27.62,30.54 27.67,30.69 27.69,30.88 C27.71,31.07 27.76,31.24 27.79,31.26 C27.82,31.28 27.87,31.41 27.89,31.55 C27.92,31.69 27.97,31.8 28,31.8 C28.04,31.8 28.07,31.88 28.07,31.97 C28.07,32.06 28.09,32.13 28.13,32.13 C28.16,32.13 28.2,32.23 28.23,32.37 C28.25,32.49 28.3,32.6 28.33,32.6 C28.37,32.6 28.4,32.64 28.4,32.7 C28.4,32.75 28.43,32.8 28.46,32.8 C28.5,32.8 28.54,32.89 28.56,33 C28.59,33.11 28.64,33.2 28.67,33.2 C28.7,33.2 28.75,33.28 28.77,33.37 C28.8,33.46 28.84,33.53 28.87,33.53 C28.91,33.53 28.93,33.58 28.93,33.63 C28.93,33.69 29.01,33.81 29.1,33.89 C29.5006802,34.3862228 29.9458643,34.8447959 30.43,35.26 C30.45,35.26 30.52,35.3 30.57,35.35 C30.79,35.55 30.87,35.6 30.93,35.6 C30.97,35.6 31,35.63 31,35.66 C31,35.69 31.08,35.74 31.17,35.76 C31.26,35.78 31.33,35.83 31.33,35.86 C31.33,35.9 31.43,35.94 31.53,35.96 C31.64,35.99 31.73,36.04 31.73,36.07 C31.73,36.11 31.81,36.13 31.9,36.13 C32,36.13 32.07,36.16 32.07,36.2 C32.07,36.24 32.19,36.28 32.33,36.3 C32.48,36.33 32.6,36.38 32.6,36.4 C32.6,36.44 32.68,36.47 32.79,36.47 C32.89,36.47 33.01,36.5 33.05,36.55 C33.17,36.66 35.37,36.66 35.48,36.55 C35.52,36.5 35.64,36.47 35.75,36.47 C35.85,36.47 35.93,36.44 35.93,36.4 C35.93,36.36 36.05,36.32 36.2,36.3 C36.35,36.27 36.47,36.22 36.47,36.2 C36.47,36.16 36.51,36.13 36.57,36.13 C36.62,36.13 36.67,36.1 36.67,36.07 C36.67,36.03 36.73,36 36.8,36 C36.88,36 36.95,35.95 36.98,35.9 C37.5572466,35.4870672 38.0609376,34.9799957 38.47,34.4 C38.5,34.4 38.54,34.31 38.57,34.2 C38.59,34.09 38.63,34 38.66,34 C38.72,34 38.93,33.5 38.93,33.34 C38.93,33.27 38.96,33.2 39,33.19 C39.04,33.18 39.09,33.01 39.11,32.82 C39.13,32.62 39.18,32.47 39.21,32.47 C39.24,32.47 39.27,32.3 39.27,32.1 C39.27,31.9 39.3,31.73 39.33,31.73 C39.37,31.73 39.4,31.49 39.4,31.13 C39.4,30.78 39.37,30.53 39.33,30.53 C39.3,30.53 39.27,30.34 39.27,30.1 C39.27,29.86 39.24,29.67 39.21,29.67 C39.18,29.67 39.13,29.5 39.11,29.3 C39.08,29.1 39.03,28.93 39,28.93 C38.96,28.93 38.92,28.81 38.9,28.67 C38.87,28.52 38.82,28.4 38.8,28.4 C38.76,28.4 38.73,28.35 38.73,28.3 C38.73,28.24 38.7,28.2 38.67,28.2 C38.63,28.2 38.58,28.13 38.57,28.03 C38.54,27.94 38.5,27.87 38.47,27.87 C38.44,27.87 38.4,27.79 38.37,27.7 C38.35,27.6 38.3,27.53 38.27,27.53 C38.23,27.53 38.2,27.49 38.2,27.43 C38.2,27.38 38.17,27.33 38.14,27.33 C38.1,27.33 38.06,27.27 38.04,27.19 C37.5400169,26.5502424 36.9584052,25.9787163 36.31,25.49 C36.29,25.44 36.24,25.4 36.2,25.4 C36.16,25.4 36.05,25.33 35.96,25.23 C35.86,25.14 35.75,25.07 35.7,25.07 C35.64,25.07 35.6,25.04 35.6,25.01 C35.6,24.97 35.53,24.93 35.43,24.91 C35.34,24.88 35.27,24.83 35.27,24.8 C35.27,24.76 35.22,24.73 35.17,24.73 C35.11,24.73 35.07,24.71 35.07,24.67 C35.07,24.64 34.97,24.59 34.87,24.57 C34.76,24.54 34.67,24.5 34.67,24.47 C34.67,24.43 34.61,24.4 34.53,24.4 C34.46,24.4 34.4,24.37 34.4,24.33 C34.4,24.3 34.28,24.25 34.13,24.23 C33.99,24.2 33.87,24.16 33.87,24.13 C33.87,24.09 33.75,24.05 33.6,24.03 C33.45,24 33.33,23.96 33.33,23.93 C33.33,23.89 33.26,23.87 33.17,23.87 C33.08,23.87 33,23.84 32.99,23.8 C32.98,23.76 32.82,23.72 32.63,23.7 C32.45,23.67 32.28,23.62 32.26,23.6 C32.0965859,23.5390952 31.9243138,23.5053164 31.75,23.5 C31.48,23.47 31.27,23.42 31.27,23.39 C31.27,23.36 31.1,23.33 30.9,23.33 C30.7,23.33 30.53,23.3 30.53,23.27 C30.53,23.23 30.31,23.2 30,23.2 L29.47,23.2 L29.47,22.73 C29.47,22.48 29.49,22.27 29.52,22.27 C29.55,22.27 29.6,21.97 29.62,21.62 C29.66,21.02 29.72,20.8 29.78,20.98 C29.82,21.08 31.27,21.11 31.27,21.01 C31.27,20.98 31.65,20.93 32.12,20.91 C32.59,20.89 32.98,20.84 32.99,20.8 C33,20.76 33.11,20.73 33.24,20.73 C33.36,20.73 33.47,20.71 33.47,20.67 C33.47,20.64 33.63,20.59 33.83,20.57 C34.03,20.54 34.2,20.5 34.2,20.47 C34.2,20.44 34.32,20.4 34.47,20.37 C34.61,20.35 34.73,20.3 34.73,20.27 C34.73,20.23 34.81,20.2 34.9,20.2 C35,20.2 35.07,20.17 35.07,20.13 C35.07,20.1 35.1,20.07 35.14,20.07 C35.26,20.07 35.7,19.85 35.75,19.75 C35.78,19.71 35.87,19.67 35.94,19.67 C36.01,19.67 36.07,19.64 36.07,19.6 C36.07,19.56 36.11,19.53 36.17,19.53 C36.22,19.53 36.29,19.49 36.31,19.43 C36.33,19.38 36.39,19.33 36.44,19.33 C36.49,19.33 36.62,19.25 36.74,19.15 C36.9595253,18.9420492 37.1863336,18.7419243 37.42,18.55 L37.62,18.35 C37.68,18.29 37.73,18.21 37.73,18.18 C37.73,18.15 37.81,18.05 37.9,17.96 C38,17.86 38.07,17.76 38.07,17.71 C38.07,17.67 38.12,17.6 38.19,17.55 C38.2802184,17.4799641 38.3437403,17.3811522 38.37,17.27 C38.39,17.16 38.44,17.07 38.47,17.07 C38.5,17.07 38.54,16.97 38.57,16.87 C38.59,16.76 38.64,16.67 38.67,16.67 C38.71,16.67 38.73,16.59 38.73,16.51 C38.73,16.41 38.76,16.33 38.8,16.32 C38.83,16.31 38.88,16.04 38.9,15.72 C38.93,15.4 38.98,15.13 39.01,15.13 C39.04,15.13 39.07,14.93 39.07,14.7 C39.07,14.46 39.04,14.27 39.01,14.27 C38.98,14.27 38.93,14.02 38.91,13.72 C38.89,13.42 38.84,13.15 38.81,13.11 C38.7617265,13.0581052 38.7333854,12.990795 38.73,12.92 C38.73,12.85 38.71,12.8 38.67,12.8 C38.64,12.8 38.6,12.7 38.57,12.57 C38.55,12.44 38.5,12.33 38.47,12.33 C38.44,12.33 38.4,12.28 38.37,12.22 C38.0654319,11.6827139 37.632547,11.2292154 37.11,10.9 C37.01,10.8 36.88,10.73 36.81,10.73 C36.73,10.73 36.67,10.7 36.67,10.67 C36.67,10.63 36.55,10.58 36.4,10.56 C36.25,10.54 36.13,10.49 36.13,10.46 C36.13,10.43 36.06,10.4 35.97,10.4 C35.87,10.4 35.8,10.37 35.8,10.33 C35.8,10.29 35.39,10.27 34.7,10.27 C34.01,10.27 33.6,10.29 33.6,10.33 C33.6,10.37 33.5,10.4 33.37,10.4 C33.24,10.4 33.13,10.43 33.13,10.46 C33.13,10.49 32.98,10.54 32.8,10.56 C32.62,10.58 32.47,10.63 32.47,10.66 C32.47,10.7 32.37,10.74 32.27,10.76 C32.16,10.79 32.07,10.84 32.07,10.87 C32.07,10.91 32.02,10.93 31.97,10.93 C31.91,10.93 31.87,10.96 31.87,11 C31.87,11.04 31.81,11.07 31.73,11.07 C31.66,11.07 31.58,11.11 31.56,11.17 C31.54,11.22 31.49,11.27 31.46,11.27 C31.39,11.27 31.25,11.37 31.08,11.55 C31.02,11.61 30.95,11.67 30.92,11.67 C30.85,11.67 30.33,12.17 30.33,12.23 C30.33,12.26 30.24,12.37 30.13,12.48 C30.03,12.58 29.93,12.71 29.93,12.75 C29.93,12.79 29.88,12.87 29.81,12.93 C29.7352918,12.9995211 29.6771893,13.084966 29.64,13.18 C29.61,13.27 29.57,13.33 29.54,13.33 C29.51,13.33 29.46,13.41 29.44,13.51 C29.41,13.61 29.34,13.74 29.27,13.8 C29.1892531,13.8803736 29.1306868,13.9802808 29.1,14.09 C29.07,14.19 29.03,14.27 29,14.27 C28.96,14.27 28.82,14.57 28.76,14.82 C28.74,14.92 28.7,15 28.66,15 C28.64,15 28.59,15.13 28.57,15.3 C28.55,15.46 28.5,15.6 28.47,15.6 C28.43,15.6 28.4,15.66 28.4,15.73 C28.4,15.8 28.37,15.88 28.34,15.9 C28.3,15.92 28.25,16.07 28.23,16.23 C28.21,16.4 28.16,16.53 28.13,16.53 C28.09,16.53 28.07,16.63 28.07,16.76 C28.07,16.89 28.04,17 28,17.01 C27.96,17.02 27.91,17.19 27.89,17.38 C27.87,17.58 27.82,17.73 27.79,17.73 C27.76,17.73 27.73,17.83 27.73,17.93 C27.73,18.13 27.33,18.18 27.2,18 C27.0910594,17.9439373 26.9721148,17.9099531 26.85,17.9 C26.68,17.87 26.53,17.82 26.53,17.8 C26.53,17.76 26.49,17.73 26.43,17.73 C26.38,17.73 26.33,17.71 26.33,17.68 C26.33,17.64 26.21,17.6 26.07,17.58 C25.92,17.55 25.8,17.5 25.8,17.47 C25.8,17.43 25.75,17.4 25.7,17.4 C25.64,17.4 25.6,17.37 25.6,17.34 C25.6,17.3 25.5,17.25 25.37,17.23 C25.24,17.2 25.13,17.16 25.13,17.13 C25.13,17.1 25.05,17.06 24.95,17.03 C24.8447081,17.0010342 24.748411,16.9460073 24.67,16.87 C24.5868312,16.7877503 24.4832976,16.7290813 24.37,16.7 C24.28,16.67 24.2,16.63 24.2,16.6 C24.2,16.57 24.13,16.52 24.05,16.5 C23.9503925,16.4612655 23.8613174,16.3995981 23.79,16.32 C23.73,16.26 23.65,16.2 23.62,16.2 C23.58,16.2 23.5,16.12 23.42,16.03 C23.36,15.94 23.26,15.87 23.22,15.87 C23.17,15.87 23.05,15.77 22.93,15.67 C22.83,15.56 22.7,15.47 22.66,15.47 C22.56,15.47 22.59,15.37 22.72,15.25 C22.9383542,15.0485237 23.1485237,14.8383542 23.35,14.62 C23.5838336,14.3871675 23.8171675,14.1538336 24.05,13.92 C24.17,13.82 24.27,13.69 24.27,13.66 C24.27,13.62 24.4,13.46 24.56,13.31 C24.72,13.16 24.86,12.97 24.89,12.89 C24.92,12.81 24.99,12.73 25.04,12.71 C25.09,12.69 25.14,12.64 25.14,12.6 C25.14,12.56 25.21,12.45 25.3,12.36 C25.4,12.26 25.47,12.16 25.47,12.1 C25.47,12.05 25.51,12 25.57,11.98 C25.62,11.95 25.67,11.88 25.67,11.81 C25.67,11.73 25.73,11.66 25.8,11.63 C25.87,11.61 25.95,11.52 25.97,11.43 C26,11.34 26.04,11.27 26.07,11.27 C26.09,11.27 26.14,11.21 26.16,11.15 C26.2,11.02 26.33,10.81 26.45,10.68 C26.4943694,10.6295434 26.5222798,10.5667451 26.53,10.5 C26.53,10.44 26.56,10.4 26.6,10.4 C26.64,10.4 26.67,10.35 26.67,10.3 C26.67,10.25 26.7,10.2 26.73,10.2 C26.77,10.2 26.82,10.13 26.83,10.03 C26.86,9.94 26.91,9.87 26.93,9.87 C26.97,9.87 27.01,9.77 27.03,9.64 C27.06,9.49 27.13,9.39 27.2,9.37 C27.28,9.34 27.35,9.24 27.37,9.1 C27.4,8.97 27.44,8.87 27.47,8.87 C27.51,8.87 27.53,8.82 27.53,8.77 C27.53,8.71 27.56,8.67 27.59,8.67 C27.63,8.67 27.68,8.57 27.7,8.47 C27.72,8.36 27.77,8.27 27.8,8.27 C27.83,8.27 27.87,8.17 27.9,8.03 C27.92,7.9 27.97,7.8 28,7.8 C28.04,7.8 28.07,7.73 28.07,7.63 C28.07,7.54 28.1,7.47 28.13,7.47 C28.17,7.47 28.21,7.35 28.24,7.22 C28.27,7.08 28.31,6.95 28.34,6.93 C28.37,6.91 28.42,6.71 28.44,6.48 C28.47,6.25 28.51,6.07 28.54,6.07 C28.57,6.07 28.6,5.93 28.6,5.77 C28.6,5.61 28.63,5.46 28.67,5.43 C28.7,5.41 28.73,5.1 28.73,4.73 C28.73,4.33 28.71,4.07 28.67,4.07 C28.63,4.07 28.6,3.95 28.6,3.8 C28.6,3.65 28.57,3.53 28.54,3.53 C28.51,3.53 28.47,3.39 28.44,3.22 C28.43,3.05 28.38,2.89 28.34,2.88 C28.3,2.87 28.27,2.83 28.27,2.78 C28.27,2.65 28.04,2.24 27.85,2.05 C27.75,1.95 27.67,1.82 27.67,1.77 C27.67,1.72 27.6,1.66 27.52,1.63 C27.4080314,1.58331603 27.3061577,1.51540024 27.22,1.43 C27.13,1.33 27.02,1.27 26.96,1.27 C26.91,1.27 26.86,1.24 26.86,1.2 C26.86,1.16 26.82,1.13 26.76,1.13 C26.71,1.13 26.66,1.1 26.66,1.07 C26.66,1.03 26.56,0.99 26.42,0.96 C26.28,0.93 26.15,0.88 26.12,0.84 C25.4232847,0.744097535 24.7167153,0.744097535 24.02,0.84 C23.99,0.88 23.82,0.94 23.65,0.95 C23.37,0.99 23.09,1.1 23,1.21 C22.939429,1.25203297 22.87163,1.28254256 22.8,1.3 C22.6981134,1.33512656 22.6057134,1.39330433 22.53,1.47 C22.4632173,1.54090112 22.3811328,1.59562413 22.29,1.63 C22.21,1.65 22.13,1.72 22.11,1.77 C22.09,1.82 22.01,1.87 21.94,1.87 C21.8653477,1.8750511 21.7997585,1.92134939 21.77,1.99 C21.75,2.06 21.68,2.14 21.63,2.16 C21.5722779,2.18324958 21.5332722,2.23785765 21.53,2.3 C21.53,2.5 21.31,2.38 21.23,2.15 C21.21,2.07 21.16,2 21.13,2 C21.09,2 21.07,1.95 21.07,1.9 C21.07,1.84 21.04,1.8 21,1.8 C20.96,1.8 20.93,1.76 20.93,1.7 C20.93,1.65 20.86,1.53 20.77,1.44 C20.67,1.34 20.6,1.24 20.6,1.21 C20.6,1.11 20.2,0.73 20.11,0.73 C20.07,0.73 19.98,0.66 19.91,0.57 C19.84,0.47 19.73,0.4 19.66,0.4 C19.59,0.4 19.53,0.37 19.53,0.34 C19.53,0.3 19.43,0.25 19.28,0.23 C19.15,0.2 19.01,0.15 18.98,0.11 C18.94,0.03 16.8,-0.02 16.35,0.05 M18.12,2.48 C18.13,2.51 18.18,2.53 18.23,2.53 C18.36,2.53 18.8,2.96 18.8,3.09 C18.8,3.15 18.83,3.2 18.86,3.2 C18.9,3.2 18.98,3.31 19.04,3.45 L19.2,3.73 C19.251728,3.81931103 19.2856855,3.91778775 19.3,4.02 C19.32,4.15 19.37,4.27 19.4,4.27 C19.43,4.27 19.47,4.45 19.5,4.67 C19.53,4.89 19.57,5.08 19.6,5.1 C19.64,5.12 19.67,5.27 19.67,5.44 C19.67,5.6 19.69,5.74 19.72,5.74 C19.76,5.74 19.8,5.84 19.82,5.99 C19.87,6.26 20.09,6.5 20.37,6.57 C20.46,6.6 20.53,6.64 20.53,6.67 C20.53,6.71 20.73,6.73 20.97,6.73 C21.2,6.73 21.4,6.71 21.4,6.67 C21.4,6.64 21.48,6.6 21.57,6.57 C21.66,6.55 21.73,6.5 21.73,6.47 C21.73,6.43 21.78,6.4 21.83,6.4 C21.8565216,6.4 21.881957,6.38946432 21.9007107,6.37071068 C21.9194643,6.35195704 21.93,6.32652165 21.93,6.3 C21.93,6.24 21.96,6.2 22,6.2 C22.03,6.2 22.08,6.13 22.1,6.03 C22.13,5.94 22.17,5.87 22.2,5.87 C22.23,5.87 22.28,5.77 22.3,5.67 C22.32,5.56 22.37,5.47 22.4,5.47 C22.44,5.47 22.47,5.41 22.47,5.34 C22.47,5.27 22.51,5.2 22.57,5.18 C22.62,5.15 22.67,5.09 22.67,5.04 C22.67,4.98 22.69,4.94 22.73,4.94 C22.76,4.94 22.81,4.87 22.83,4.79 C22.8798817,4.6773272 22.9512065,4.57543454 23.04,4.49 C23.13,4.39 23.2,4.3 23.2,4.27 C23.2,4.15 23.8,3.61 24,3.57 C24.1,3.54 24.2,3.5 24.2,3.47 C24.2,3.43 24.24,3.4 24.3,3.4 C24.35,3.4 24.4,3.37 24.41,3.33 C24.45,3.23 25.41,3.22 25.45,3.32 C25.47,3.36 25.52,3.4 25.57,3.4 C25.71,3.4 25.92,3.63 25.97,3.83 C26,3.93 26.04,4.02 26.07,4.03 C26.11,4.06 26.13,4.13 26.13,4.2 C26.13,4.28 26.16,4.33 26.2,4.33 C26.24,4.33 26.27,4.51 26.27,4.73 C26.27,4.96 26.24,5.13 26.2,5.13 C26.16,5.13 26.13,5.25 26.13,5.4 C26.13,5.55 26.11,5.67 26.07,5.67 C26.04,5.67 25.99,5.82 25.97,6 C25.94,6.18 25.9,6.33 25.87,6.33 C25.84,6.33 25.79,6.45 25.77,6.6 C25.74,6.75 25.69,6.87 25.67,6.87 C25.63,6.87 25.6,6.91 25.6,6.97 C25.6,7.02 25.57,7.07 25.54,7.07 C25.5,7.07 25.46,7.16 25.44,7.27 C25.41,7.37 25.36,7.47 25.33,7.47 C25.29,7.47 25.27,7.53 25.27,7.6 C25.27,7.67 25.24,7.73 25.21,7.73 C25.17,7.73 25.12,7.83 25.1,7.93 C25.08,8.04 25.03,8.13 25,8.13 C24.96,8.13 24.92,8.21 24.9,8.3 C24.87,8.4 24.83,8.47 24.8,8.47 C24.76,8.47 24.73,8.51 24.73,8.57 C24.73,8.62 24.7,8.67 24.67,8.67 C24.63,8.67 24.6,8.71 24.6,8.77 C24.6,8.81 24.56,8.9 24.5,8.95 C24.4410542,9.02423767 24.3969209,9.10910939 24.37,9.2 C24.34,9.3 24.27,9.41 24.2,9.47 C24.1280991,9.53987796 24.0733382,9.62544192 24.04,9.72 C24.01,9.8 23.96,9.87 23.93,9.87 C23.89,9.87 23.87,9.91 23.87,9.97 C23.87,10.02 23.84,10.07 23.8,10.07 C23.77,10.07 23.72,10.13 23.7,10.22 C23.6552803,10.3330086 23.5871157,10.4352554 23.5,10.52 C23.4,10.59 23.33,10.68 23.33,10.72 C23.33,10.74 23.26,10.84 23.17,10.94 C23.09,11.04 23,11.17 22.97,11.25 C22.940793,11.331007 22.8792073,11.3962154 22.8,11.43 C22.73,11.46 22.67,11.52 22.67,11.57 C22.67,11.62 22.5,11.82 22.3,12.02 C22.1,12.22 21.93,12.41 21.93,12.43 C21.93,12.54 21.07,13.4 20.96,13.4 C20.91,13.4 20.86,13.43 20.86,13.47 C20.86,13.62 20.66,13.51 20.37,13.23 C20.2,13.06 20.07,12.89 20.07,12.86 C20.0204226,12.7614357 19.9525498,12.673201 19.87,12.6 C19.76,12.49 19.67,12.37 19.67,12.33 C19.67,12.25 19.34,11.93 19.26,11.93 C19.23,11.93 19.2,11.87 19.2,11.8 C19.2,11.72 19.15,11.65 19.1,11.62 C19.04,11.6 19,11.55 19,11.5 C19,11.45 18.93,11.34 18.85,11.25 C18.68,11.07 18.55,10.89 18.47,10.68 C18.43,10.6 18.37,10.53 18.33,10.53 C18.3,10.53 18.27,10.47 18.27,10.4 C18.27,10.33 18.24,10.27 18.2,10.27 C18.16,10.27 18.11,10.21 18.09,10.15 C18.0522716,10.0664972 17.997816,9.99162085 17.93,9.93 C17.858377,9.85989569 17.8036601,9.77440058 17.77,9.68 C17.75,9.6 17.7,9.53 17.67,9.53 C17.64,9.53 17.59,9.45 17.57,9.35 C17.5414414,9.24453937 17.4863594,9.14814587 17.41,9.07 C17.3296796,8.99534151 17.2680231,8.9028567 17.23,8.8 C17.2000666,8.70834148 17.1525086,8.62341643 17.09,8.55 C17.0394576,8.49861032 17.0077453,8.431662 17,8.36 C17,8.31 16.97,8.26 16.93,8.26 C16.9,8.26 16.87,8.21 16.87,8.13 C16.87,8.06 16.84,8 16.8,8 C16.76,8 16.73,7.95 16.73,7.9 C16.7267278,7.83785765 16.6877221,7.78324958 16.63,7.76 C16.58,7.74 16.53,7.66 16.53,7.59 C16.53,7.52 16.51,7.47 16.47,7.47 C16.44,7.47 16.39,7.37 16.37,7.27 C16.34,7.16 16.3,7.07 16.27,7.07 C16.23,7.07 16.18,6.95 16.16,6.8 C16.14,6.65 16.09,6.53 16.06,6.53 C16.03,6.53 16,6.49 16,6.43 C16,6.38 15.97,6.33 15.94,6.33 C15.91,6.33 15.86,6.19 15.84,6.02 C15.81,5.84 15.75,5.68 15.71,5.65 C15.61,5.59 15.61,3.88 15.71,3.81 C15.75,3.79 15.81,3.68 15.84,3.58 C15.86,3.48 15.91,3.4 15.94,3.4 C15.97,3.4 16,3.35 16,3.3 C16,3.24 16.03,3.2 16.07,3.2 C16.1,3.2 16.15,3.13 16.17,3.03 C16.2,2.94 16.24,2.87 16.27,2.87 C16.31,2.87 16.42,2.79 16.52,2.7 C16.62,2.6 16.77,2.53 16.85,2.53 C16.93,2.53 17,2.5 17,2.47 C17,2.34 18.07,2.35 18.12,2.47 M139.8,5.4 C139.8,5.44 139.74,5.47 139.67,5.47 C139.584226,5.47634387 139.50314,5.51159829 139.44,5.57 C139.39,5.62 139.32,5.67 139.3,5.67 C139.2,5.67 138.87,6.07 138.87,6.2 C138.87,6.27 138.84,6.33 138.82,6.33 C138.79,6.33 138.72,6.42 138.68,6.51 C138.58,6.73 138.57,7.67 138.67,7.67 C138.7,7.67 138.73,7.74 138.73,7.83 C138.73,7.93 138.76,8 138.78,8 C138.81,8 138.89,8.1 138.96,8.23 C139.03,8.36 139.15,8.48 139.22,8.51 C139.3,8.53 139.42,8.61 139.47,8.69 C139.87,9.19 141.93,8.7 141.93,8.11 C141.93,8.05 141.96,8 141.98,8 C142.1,8 142.22,7.55 142.22,7.14 C142.22,6.71 142.09,6.2 141.99,6.2 C141.96,6.2 141.93,6.16 141.93,6.11 C141.93,5.97 141.4,5.53 141.19,5.49 C141.09,5.47 141,5.42 141,5.39 C141,5.36 140.73,5.33 140.4,5.33 C140.04,5.33 139.8,5.36 139.8,5.4 M121.69,6.29 L121.5,6.45 C121.41,6.53 121.4,7.74 121.4,17.99 L121.4,29.44 L121.62,29.64 L121.83,29.84 L122.73,29.84 C123.69,29.84 123.93,29.76 123.93,29.45 C123.93,29.39 123.96,29.33 124,29.33 C124.04,29.33 124.07,27.67 124.07,24.47 L124.07,19.6 L124.35,19.3 C124.51,19.14 124.7,18.99 124.79,18.96 C124.87,18.94 124.93,18.89 124.93,18.86 C124.93,18.82 124.98,18.79 125.03,18.79 C125.09,18.79 125.13,18.76 125.13,18.72 C125.13,18.69 125.21,18.64 125.3,18.62 C125.4,18.59 125.47,18.55 125.47,18.52 C125.47,18.48 125.51,18.46 125.57,18.46 C125.62,18.46 125.67,18.43 125.67,18.39 C125.67,18.36 125.74,18.31 125.83,18.29 C125.93,18.26 126,18.22 126,18.19 C126,18.16 126.12,18.12 126.27,18.09 C126.41,18.07 126.53,18.03 126.53,17.99 C126.53,17.95 126.61,17.92 126.69,17.92 C126.79,17.92 126.87,17.89 126.88,17.86 C126.89,17.82 127.08,17.77 127.32,17.75 C127.55,17.72 127.73,17.68 127.73,17.65 C127.73,17.62 128.08,17.59 128.5,17.59 C128.92,17.59 129.27,17.62 129.27,17.65 C129.27,17.68 129.39,17.72 129.55,17.75 C129.7,17.76 129.85,17.81 129.85,17.85 C129.87,17.89 129.94,17.92 130.01,17.92 C130.08,17.92 130.13,17.95 130.13,17.99 C130.13,18.03 130.18,18.06 130.23,18.06 C130.29,18.06 130.35,18.1 130.37,18.16 C130.4,18.21 130.47,18.26 130.54,18.29 C130.6,18.31 130.68,18.39 130.7,18.46 C130.72,18.53 130.8,18.6 130.87,18.62 C130.94,18.65 131.02,18.74 131.04,18.82 C131.06,18.92 131.11,18.99 131.14,18.99 C131.17,18.99 131.21,19.09 131.24,19.22 C131.26,19.35 131.31,19.46 131.34,19.46 C131.37,19.46 131.4,19.51 131.4,19.58 C131.4,19.65 131.43,19.72 131.47,19.73 C131.5,19.75 131.55,20.02 131.57,20.34 C131.6,20.66 131.64,20.92 131.67,20.92 C131.71,20.92 131.74,22.87 131.75,25.24 C131.77,30.42 131.61,29.82 133,29.82 L133.97,29.82 L134.19,29.62 L134.41,29.42 L134.39,24.46 C134.37,20.56 134.35,19.5 134.29,19.47 C134.24,19.46 134.2,19.34 134.2,19.22 C134.2,19.09 134.17,18.99 134.14,18.99 C134.11,18.99 134.06,18.82 134.04,18.62 C134.01,18.42 133.96,18.26 133.93,18.26 C133.89,18.26 133.87,18.21 133.87,18.16 C133.87,18.1 133.84,18.06 133.8,18.06 C133.77,18.06 133.72,17.96 133.7,17.82 C133.67,17.69 133.63,17.59 133.6,17.59 C133.57,17.59 133.53,17.51 133.5,17.4 C133.473691,17.2913162 133.414291,17.1934803 133.33,17.12 C133.26,17.07 133.2,16.99 133.2,16.95 C133.2,16.85 132.82,16.45 132.73,16.45 C132.7,16.45 132.66,16.4 132.63,16.33 C132.601807,16.2540551 132.544098,16.19274 132.47,16.16 C132.390651,16.1317827 132.328217,16.0693489 132.3,15.99 C132.28,15.93 132.19,15.85 132.1,15.83 C132,15.81 131.93,15.76 131.93,15.73 C131.93,15.69 131.84,15.65 131.73,15.63 C131.63,15.6 131.53,15.55 131.53,15.52 C131.53,15.48 131.47,15.46 131.4,15.46 C131.33,15.46 131.27,15.43 131.27,15.4 C131.27,15.37 131.13,15.32 130.97,15.3 C130.8,15.27 130.67,15.22 130.67,15.19 C130.67,15.15 130.55,15.12 130.41,15.12 C130.27,15.12 130.13,15.09 130.09,15.05 C129.654392,14.9738781 129.211215,14.9503763 128.77,14.98 C127.97,14.98 127.49,15.01 127.44,15.05 C127.41,15.09 127.29,15.12 127.19,15.12 C127.09,15.12 127,15.15 127,15.18 C127,15.21 126.86,15.26 126.68,15.28 C126.36,15.32 126,15.45 126,15.54 C126,15.57 125.88,15.61 125.73,15.64 C125.59,15.65 125.47,15.7 125.47,15.73 C125.47,15.76 125.35,15.83 125.22,15.9 C125.08,15.96 124.95,16.04 124.93,16.06 C124.87794,16.1059619 124.816527,16.1400802 124.75,16.16 C124.668993,16.189207 124.603785,16.2507927 124.57,16.33 C124.541772,16.4057179 124.470753,16.4570097 124.39,16.46 C124.32,16.46 124.25,16.5 124.22,16.56 C124.09,16.91 124.07,16.2 124.07,11.62 C124.07,8.32 124.04,6.59 124,6.59 C123.96,6.59 123.93,6.55 123.93,6.5 C123.93,6.21 121.95,6 121.69,6.28 M8.67,10.33 C8.68,10.35 8.81,10.43 8.95,10.49 C9.09,10.55 9.2,10.63 9.2,10.67 C9.2,10.7 9.28,10.75 9.37,10.77 C9.46,10.8 9.53,10.86 9.53,10.91 C9.53,10.96 9.61,11.08 9.7,11.16 C9.8,11.25 9.87,11.35 9.87,11.39 C9.87,11.43 9.9,11.47 9.93,11.47 C9.97,11.47 10,11.5 10,11.55 C10,11.6 10.05,11.72 10.1,11.83 C10.16,11.94 10.23,12.18 10.25,12.35 C10.27,12.52 10.31,12.67 10.35,12.67 C10.37,12.67 10.4,12.75 10.4,12.87 C10.4,12.97 10.43,13.07 10.47,13.07 C10.51,13.09 10.55,13.58 10.57,14.28 C10.5674532,14.767875 10.6211407,15.2544181 10.73,15.73 C10.73,15.97 10.72,16 10.57,16 C10.47,16 10.4,15.97 10.4,15.94 C10.4,15.9 10.3,15.85 10.17,15.83 C10.04,15.8 9.93,15.76 9.93,15.73 C9.93,15.69 9.89,15.67 9.83,15.67 C9.76785765,15.6667278 9.71324958,15.6277221 9.69,15.57 C9.67,15.51 9.59,15.47 9.53,15.47 C9.46,15.47 9.4,15.44 9.4,15.4 C9.4,15.36 9.35,15.3 9.28,15.28 C9.17946422,15.2288765 9.08820159,15.1612746 9.01,15.08 C8.93,15 8.83,14.93 8.79,14.93 C8.41629742,14.665215 8.10277927,14.3244344 7.87,13.93 C7.83,13.93 7.75,13.83 7.69,13.68 C7.64377308,13.5677874 7.57580131,13.4658297 7.49,13.38 C7.44,13.35 7.4,13.25 7.4,13.16 C7.4,13.07 7.37,13 7.33,13 C7.3,13 7.27,12.93 7.27,12.84 C7.27,12.75 7.23,12.67 7.19,12.65 C7.07547235,12.1329326 7.07547235,11.5970674 7.19,11.08 C7.23,11.07 7.27,11 7.27,10.92 C7.27,10.78 7.6,10.4 7.73,10.4 C7.77,10.4 7.8,10.37 7.8,10.34 C7.8,10.22 8.58,10.21 8.67,10.33 M35.27,12.81 C35.27,12.84 35.33,12.87 35.4,12.87 C35.47,12.87 35.53,12.9 35.53,12.93 C35.53,12.97 35.57,13 35.61,13 C35.7,13 36.27,13.57 36.27,13.66 C36.27,13.69 36.3,13.73 36.34,13.75 C36.39,13.76 36.44,13.95 36.45,14.19 C36.47,14.41 36.51,14.6 36.55,14.6 C36.57,14.6 36.6,14.64 36.6,14.7 C36.6,14.75 36.57,14.8 36.54,14.8 C36.51,14.8 36.47,14.99 36.44,15.21 C36.43374,15.3647594 36.3998744,15.5171549 36.34,15.66 C36.32,15.68 36.24,15.81 36.18,15.95 C36.11,16.09 36.03,16.2 36,16.2 C35.96,16.2 35.93,16.24 35.93,16.3 C35.6591852,16.7218171 35.2968985,17.0772682 34.87,17.34 C34.87,17.37 34.82,17.4 34.77,17.4 C34.71,17.4 34.67,17.43 34.67,17.47 C34.67,17.5 34.59,17.55 34.5,17.57 C34.4,17.6 34.33,17.64 34.33,17.67 C34.33,17.71 34.29,17.73 34.23,17.73 C34.18,17.73 34.13,17.76 34.13,17.79 C34.13,17.83 34.01,17.88 33.87,17.9 C33.72,17.92 33.6,17.97 33.6,18 C33.6,18.03 33.45,18.07 33.27,18.1 C33.08,18.13 32.93,18.17 32.93,18.2 C32.93,18.24 32.86,18.27 32.77,18.27 C32.68,18.27 32.6,18.3 32.59,18.33 C32.58,18.37 32.23,18.42 31.82,18.44 C31.5664613,18.4365836 31.3137863,18.4702736 31.07,18.54 C31.07,18.57 30.87,18.6 30.63,18.6 C30.22,18.6 30.2,18.6 30.2,18.43 C30.2,18.34 30.23,18.27 30.27,18.27 C30.3,18.27 30.33,18.17 30.33,18.03 C30.33,17.9 30.36,17.8 30.4,17.8 C30.43,17.8 30.48,17.67 30.5,17.5 C30.53,17.33 30.57,17.2 30.6,17.2 C30.63,17.2 30.67,17.05 30.7,16.87 C30.73,16.68 30.77,16.53 30.8,16.53 C30.84,16.53 30.87,16.46 30.87,16.37 C30.87,16.27 30.9,16.2 30.93,16.2 C30.97,16.2 31.02,16.08 31.04,15.93 C31.06,15.79 31.11,15.67 31.14,15.67 C31.17,15.67 31.21,15.57 31.24,15.47 C31.26,15.36 31.3,15.27 31.34,15.27 C31.37,15.27 31.4,15.21 31.4,15.14 C31.4,15.07 31.44,15 31.5,14.98 C31.55,14.95 31.6,14.89 31.6,14.84 C31.6,14.78 31.63,14.74 31.67,14.74 C31.7,14.74 31.73,14.69 31.73,14.63 C31.73,14.57 31.8,14.46 31.89,14.38 C31.9773528,14.2954527 32.0455536,14.1931515 32.09,14.08 C32.12,14.01 32.19,13.92 32.27,13.9 C32.34,13.88 32.4,13.83 32.4,13.8 C32.4,13.71 32.75,13.4 32.85,13.4 C32.9,13.4 32.95,13.35 32.98,13.3 C33,13.24 33.07,13.2 33.13,13.2 C33.2,13.2 33.27,13.15 33.29,13.1 C33.31,13.04 33.41,13 33.49,13 C33.59,13 33.67,12.97 33.67,12.93 C33.67,12.9 33.74,12.87 33.83,12.87 C33.93,12.87 34,12.84 34,12.8 C34,12.73 34.55,12.69 34.98,12.72 C35.14,12.74 35.27,12.77 35.27,12.81 M55.18,14.99 C54.86,14.99 54.6,15.03 54.6,15.07 C54.6,15.1 54.48,15.13 54.33,15.13 C54.19,15.13 54.07,15.16 54.07,15.19 C54.07,15.23 53.92,15.27 53.73,15.3 C53.55,15.33 53.4,15.37 53.4,15.4 C53.4,15.44 53.33,15.47 53.23,15.47 C53.14,15.47 53.07,15.49 53.07,15.53 C53.07,15.56 52.97,15.61 52.87,15.63 C52.76,15.66 52.67,15.7 52.67,15.73 C52.67,15.76 52.57,15.8 52.43,15.83 C52.3,15.85 52.2,15.9 52.2,15.93 C52.2,15.97 52.15,16 52.1,16 C52.04,16 52,16.03 52,16.07 C52,16.1 51.93,16.15 51.85,16.17 C51.7391421,16.2079001 51.6418054,16.2774264 51.57,16.37 C51.5,16.46 51.42,16.53 51.39,16.53 C51.33,16.53 51.19,16.63 51.05,16.79 C50.8751773,16.9685011 50.6985011,17.1451773 50.52,17.32 C50.27,17.57 50.07,17.79 50.07,17.82 C50.07,17.86 49.99,17.95 49.9,18.04 C49.8,18.12 49.73,18.24 49.73,18.29 C49.73,18.34 49.69,18.4 49.63,18.42 C49.5722779,18.4432496 49.5332722,18.4978576 49.53,18.56 C49.53,18.62 49.5,18.66 49.47,18.66 C49.43,18.66 49.4,18.72 49.4,18.79 C49.4,18.86 49.36,18.94 49.3,18.96 C49.24,18.98 49.2,19.07 49.2,19.16 C49.2,19.26 49.17,19.33 49.14,19.33 C49.1,19.33 49.05,19.43 49.03,19.57 C49,19.69 48.96,19.8 48.93,19.8 C48.89,19.8 48.87,19.85 48.87,19.92 C48.869391,19.9895318 48.8446475,20.0566929 48.8,20.11 C48.76,20.14 48.71,20.32 48.69,20.51 C48.67,20.68 48.61,20.85 48.57,20.88 C48.47,20.95 48.47,24.45 48.57,24.52 C48.62,24.55 48.67,24.72 48.7,24.92 C48.72,25.11 48.77,25.27 48.8,25.27 C48.84,25.27 48.87,25.34 48.87,25.43 C48.87,25.53 48.89,25.6 48.93,25.6 C48.96,25.6 49.01,25.69 49.03,25.8 C49.06,25.91 49.1,26 49.13,26 C49.17,26 49.2,26.03 49.2,26.07 C49.2,26.17 49.41,26.62 49.51,26.72 C49.56,26.77 49.6,26.85 49.6,26.9 C49.6,26.95 49.66,27.01 49.73,27.03 C49.81,27.06 49.87,27.13 49.87,27.21 C49.87,27.28 49.91,27.35 49.97,27.37 C50.2410647,27.807893 50.6024432,28.1829085 51.03,28.47 C51.07,28.47 51.16,28.54 51.23,28.63 C51.3,28.73 51.39,28.8 51.44,28.8 C51.49,28.8 51.54,28.83 51.54,28.86 C51.54,28.9 51.6,28.95 51.68,28.97 C51.77,29 51.88,29.07 51.94,29.14 C51.99,29.2 52.12,29.28 52.22,29.3 C52.32,29.33 52.4,29.37 52.4,29.4 C52.4,29.44 52.46,29.47 52.53,29.47 C52.61,29.47 52.67,29.49 52.67,29.53 C52.67,29.56 52.76,29.61 52.87,29.63 C52.97,29.66 53.07,29.7 53.07,29.73 C53.07,29.76 53.22,29.81 53.4,29.83 C53.58,29.86 53.73,29.91 53.73,29.94 C53.73,29.97 53.83,30 53.93,30 C54.03,30 54.13,30.04 54.15,30.08 C54.17,30.15 54.56,30.17 55.8,30.17 C57.04,30.17 57.43,30.15 57.45,30.08 C57.47,30.04 57.55,30 57.64,30 C57.73,30 57.8,29.97 57.8,29.94 C57.8,29.91 57.94,29.87 58.1,29.84 C58.28,29.83 58.44,29.78 58.46,29.74 C58.48,29.71 58.58,29.66 58.68,29.64 C58.78,29.61 58.87,29.56 58.87,29.53 C58.87,29.49 58.91,29.47 58.97,29.47 C59.02,29.47 59.07,29.44 59.07,29.41 C59.07,29.37 59.17,29.33 59.29,29.31 C59.41,29.28 59.55,29.21 59.6,29.13 C59.65,29.06 59.73,29 59.76,29 C59.8,29 59.95,28.88 60.08,28.73 C60.22,28.59 60.36,28.47 60.39,28.47 C60.47,28.47 60.73,28.23 60.73,28.15 C60.73,28.11 60.85,27.96 61,27.82 C61.15,27.67 61.27,27.52 61.27,27.47 C61.27,27.43 61.31,27.37 61.37,27.36 C61.42,27.34 61.47,27.26 61.47,27.19 C61.47,27.12 61.5,27.07 61.53,27.07 C61.57,27.07 61.6,26.93 61.6,26.77 C61.6,26.6 61.57,26.47 61.53,26.47 C61.4952884,26.4649917 61.4696406,26.4350692 61.47,26.4 C61.47,26.36 61.44,26.3 61.4,26.25 C61.12,25.92 61,25.8 60.91,25.8 C60.86,25.8 60.8,25.75 60.78,25.7 C60.75,25.64 60.68,25.6 60.6,25.6 C60.53,25.6 60.47,25.57 60.47,25.53 C60.47,25.5 60.33,25.47 60.17,25.47 C60,25.47 59.87,25.5 59.87,25.53 C59.87,25.57 59.82,25.6 59.77,25.6 C59.72,25.6 59.55,25.73 59.4,25.88 C58.85,26.47 58.48,26.8 58.4,26.8 C58.36,26.8 58.31,26.84 58.3,26.9 C58.27,26.95 58.2,27 58.12,27 C58.05,27 57.98,27.04 57.96,27.1 C57.94,27.15 57.88,27.2 57.83,27.2 C57.78,27.2 57.73,27.23 57.73,27.26 C57.73,27.29 57.58,27.34 57.4,27.36 C57.22,27.39 57.07,27.44 57.07,27.47 C57.07,27.51 56.97,27.53 56.83,27.53 C56.7,27.53 56.6,27.56 56.6,27.6 C56.6,27.64 56.31,27.67 55.87,27.67 C55.42,27.67 55.13,27.64 55.13,27.6 C55.13,27.56 55.03,27.53 54.9,27.53 C54.77,27.53 54.67,27.51 54.67,27.47 C54.67,27.44 54.53,27.39 54.37,27.37 C54.2,27.35 54.07,27.3 54.07,27.27 C54.07,27.23 54.01,27.2 53.94,27.2 C53.87,27.2 53.8,27.15 53.78,27.1 C53.75,27.04 53.68,27 53.6,27 C53.53,27 53.47,26.97 53.47,26.93 C53.47,26.9 53.43,26.87 53.39,26.87 C53.33,26.87 53.16,26.71 52.66,26.22 C52.37,25.94 52.2,25.73 52.2,25.67 C52.2,25.63 52.17,25.6 52.13,25.6 C52.1,25.6 52.05,25.53 52.03,25.43 C52,25.34 51.96,25.27 51.93,25.27 C51.9,25.27 51.86,25.17 51.83,25.07 C51.81,24.96 51.76,24.87 51.73,24.87 C51.69,24.87 51.67,24.81 51.67,24.74 C51.67,24.67 51.63,24.6 51.6,24.59 C51.56,24.57 51.5,24.44 51.49,24.29 C51.47,24.13 51.42,24 51.39,24 C51.36,24 51.33,23.9 51.33,23.77 C51.33,23.64 51.3,23.53 51.27,23.53 C51.23,23.53 51.2,23.19 51.2,22.63 C51.2,22.08 51.23,21.73 51.27,21.73 C51.3,21.73 51.33,21.6 51.33,21.43 C51.33,21.27 51.36,21.13 51.39,21.13 C51.43,21.13 51.48,21.01 51.5,20.87 C51.52,20.72 51.57,20.6 51.6,20.6 C51.64,20.6 51.67,20.56 51.67,20.51 C51.67,20.38 51.87,20 51.94,20 C51.97,20 52,19.94 52,19.86 C52,19.79 52.04,19.71 52.1,19.69 C52.15,19.67 52.2,19.62 52.2,19.59 C52.5289545,19.1124118 52.9424118,18.6989545 53.42,18.37 C53.45,18.31 53.52,18.27 53.6,18.27 C53.67,18.27 53.73,18.24 53.73,18.21 C53.73,18.17 53.83,18.12 53.93,18.1 C54.04,18.08 54.13,18.03 54.13,18 C54.13,17.96 54.21,17.93 54.29,17.93 C54.39,17.93 54.47,17.9 54.48,17.87 C54.49,17.83 54.68,17.78 54.92,17.76 C55.15,17.73 55.33,17.69 55.33,17.66 C55.33,17.63 55.57,17.6 55.87,17.6 C56.16,17.6 56.4,17.63 56.4,17.66 C56.4,17.69 56.6,17.74 56.83,17.76 C57.07,17.79 57.27,17.84 57.27,17.87 C57.27,17.91 57.31,17.93 57.37,17.93 C57.42,17.93 57.47,17.96 57.47,17.99 C57.47,18.03 57.57,18.07 57.7,18.09 C57.83,18.12 57.93,18.16 57.93,18.19 C57.93,18.23 58.01,18.27 58.1,18.29 C58.2,18.32 58.27,18.37 58.27,18.4 C58.27,18.44 58.3,18.47 58.33,18.47 C58.37,18.47 58.63,18.7 58.91,18.98 L59.43,19.5 L59.8,19.5 C60,19.5 60.17,19.46 60.18,19.42 C60.22,19.3 60.52,19 60.6,19 C60.87,19 61.27,18.4 61.27,18 C61.27,17.78 61.24,17.6 61.2,17.6 C60.7632839,17.0404859 60.2595141,16.5367161 59.7,16.1 C59.67,16.04 59.6,16 59.53,16 C59.47,16 59.4,15.95 59.38,15.9 C59.35,15.84 59.28,15.8 59.2,15.8 C59.13,15.8 59.07,15.77 59.07,15.74 C59.07,15.7 58.97,15.66 58.87,15.64 C58.76,15.61 58.67,15.56 58.67,15.53 C58.67,15.49 58.62,15.47 58.57,15.47 C58.51,15.47 58.47,15.44 58.47,15.41 C58.47,15.37 58.32,15.33 58.13,15.3 C57.95,15.27 57.8,15.23 57.8,15.2 C57.8,15.16 57.68,15.13 57.54,15.13 C57.4,15.13 57.27,15.11 57.26,15.08 C57.23,15.01 56.04,14.96 55.18,14.98 M69.95,14.98 C69.6735688,14.964386 69.3964639,14.9948 69.13,15.07 C69.13,15.1 68.97,15.13 68.77,15.13 C68.57,15.13 68.4,15.16 68.4,15.19 C68.4,15.22 68.18,15.27 67.92,15.29 C67.65,15.32 67.42,15.37 67.42,15.4 C67.4,15.44 67.3,15.47 67.19,15.47 C67.09,15.47 67,15.49 67,15.53 C67,15.56 66.85,15.61 66.67,15.63 C66.48,15.66 66.33,15.7 66.33,15.73 C66.33,15.76 66.21,15.8 66.07,15.83 C65.92,15.85 65.8,15.9 65.8,15.93 C65.8,15.97 65.77,16 65.73,16 C65.63,16 65.47,16.17 65.47,16.26 C65.47,16.3 65.44,16.33 65.4,16.33 C65.36,16.33 65.33,16.45 65.33,16.6 C65.33,16.75 65.36,16.87 65.4,16.87 C65.44,16.87 65.47,16.94 65.47,17.03 C65.47,17.13 65.49,17.2 65.53,17.2 C65.56,17.2 65.61,17.33 65.63,17.5 C65.65,17.67 65.7,17.8 65.73,17.8 C65.76,17.8 65.8,17.87 65.81,17.95 C65.83,18.05 65.89,18.11 65.98,18.12 C66.07,18.13 66.13,18.17 66.13,18.2 C66.13,18.24 66.19,18.27 66.27,18.27 C66.34,18.27 66.4,18.24 66.4,18.21 C66.4,18.17 66.55,18.13 66.73,18.1 C66.92,18.07 67.07,18.03 67.07,18 C67.07,17.96 67.14,17.93 67.23,17.93 C67.33,17.93 67.4,17.91 67.4,17.87 C67.4,17.84 67.59,17.79 67.82,17.77 C68.05,17.74 68.25,17.69 68.27,17.67 C68.29,17.63 68.58,17.59 68.92,17.57 C69.26,17.54 69.53,17.49 69.53,17.46 C69.53,17.38 71.45,17.38 71.5,17.46 C71.52,17.49 71.65,17.54 71.8,17.56 C71.95,17.59 72.07,17.64 72.07,17.67 C72.07,17.71 72.1,17.73 72.15,17.73 C72.25,17.73 72.47,17.97 72.47,18.07 C72.47,18.1 72.49,18.13 72.53,18.13 C72.56,18.13 72.61,18.2 72.63,18.28 C72.66,18.37 72.71,18.45 72.74,18.47 C72.77,18.49 72.82,18.69 72.84,18.92 C72.87,19.15 72.91,19.33 72.94,19.33 C72.97,19.33 73,19.69 73,20.13 L73,20.93 L72.68,20.89 C72.51,20.87 72.35,20.82 72.33,20.79 C72.0615059,20.7247798 71.7862993,20.691218 71.51,20.69 C71.2466132,20.6931288 70.9840792,20.6594706 70.73,20.59 C70.73,20.56 70.42,20.53 70.03,20.53 C69.65,20.53 69.33,20.56 69.33,20.59 C69.33,20.62 69.03,20.67 68.65,20.69 C68.28,20.72 67.95,20.76 67.94,20.79 C67.92,20.83 67.76,20.87 67.58,20.9 C67.41,20.93 67.27,20.98 67.27,21 C67.27,21.04 67.21,21.07 67.13,21.07 C67.06,21.07 67,21.09 67,21.13 C67,21.16 66.91,21.2 66.8,21.23 C66.6,21.26 66.52,21.31 66.22,21.58 C66.13,21.67 66.03,21.73 65.99,21.73 C65.89,21.73 65.02,22.63 64.97,22.8 C64.9375717,22.8926905 64.8865253,22.9777677 64.82,23.05 C64.7694576,23.1013897 64.7377453,23.168338 64.73,23.24 C64.73,23.29 64.7,23.34 64.67,23.34 C64.63,23.34 64.6,23.41 64.6,23.5 C64.6,23.6 64.57,23.67 64.54,23.67 C64.5,23.67 64.46,23.83 64.43,24.03 C64.41,24.23 64.36,24.4 64.33,24.4 C64.29,24.4 64.27,24.88 64.27,25.47 C64.27,26.05 64.29,26.53 64.33,26.53 C64.36,26.53 64.41,26.73 64.43,26.97 C64.46,27.2 64.5,27.4 64.53,27.4 C64.57,27.4 64.6,27.44 64.6,27.5 C64.6,27.55 64.63,27.6 64.66,27.6 C64.69,27.6 64.74,27.7 64.76,27.83 C64.79,27.96 64.83,28.07 64.86,28.07 C64.89,28.07 64.94,28.12 64.96,28.18 C65.08,28.54 66.06,29.52 66.42,29.64 C66.48,29.66 66.53,29.71 66.53,29.74 C66.53,29.77 66.65,29.82 66.8,29.84 C66.95,29.86 67.07,29.91 67.07,29.94 C67.07,29.97 67.14,30 67.23,30 C67.32,30 67.4,30.04 67.42,30.08 C67.44,30.15 67.78,30.17 68.82,30.17 C69.83,30.17 70.22,30.14 70.28,30.08 C70.32,30.04 70.44,30 70.55,30 C70.65,30 70.73,29.97 70.73,29.94 C70.73,29.91 70.85,29.86 71,29.84 C71.15,29.82 71.27,29.77 71.27,29.74 C71.27,29.7 71.3,29.67 71.34,29.67 C71.43,29.67 71.89,29.46 71.94,29.4 C71.9924121,29.3545391 72.0537118,29.3204837 72.12,29.3 C72.2,29.28 72.27,29.23 72.27,29.2 C72.27,29.16 72.31,29.13 72.36,29.13 C72.41,29.13 72.47,29.09 72.49,29.03 C72.51,28.98 72.58,28.93 72.63,28.93 C72.69,28.93 72.81,28.86 72.89,28.77 C72.98,28.67 73.09,28.6 73.12,28.6 C73.17,28.6 73.2,28.68 73.2,28.77 C73.2,28.86 73.23,28.93 73.27,28.93 C73.3,28.93 73.33,29.03 73.33,29.13 C73.33,29.24 73.36,29.33 73.4,29.33 C73.44,29.33 73.47,29.39 73.47,29.45 C73.47,29.77 73.75,29.88 74.48,29.85 C75.21,29.83 75.47,29.73 75.47,29.45 C75.47,29.39 75.5,29.33 75.53,29.33 C75.58,29.33 75.6,27.68 75.6,24.5 C75.6,21.84 75.57,19.67 75.54,19.67 C75.51,19.67 75.47,19.31 75.44,18.88 C75.42,18.45 75.37,18.09 75.34,18.08 C75.3,18.07 75.27,17.95 75.27,17.83 C75.27,17.7 75.24,17.6 75.21,17.6 C75.18,17.6 75.13,17.47 75.11,17.3 C75.08,17.13 75.03,17 75,17 C74.96,17 74.93,16.94 74.93,16.87 C74.93,16.8 74.89,16.73 74.83,16.71 C74.7722779,16.6867504 74.7332722,16.6321424 74.73,16.57 C74.73,16.51 74.71,16.47 74.67,16.47 C74.64,16.47 74.59,16.4 74.57,16.32 C74.4746498,16.102817 74.2991026,15.9308524 74.08,15.84 C74.01,15.81 73.93,15.75 73.91,15.7 C73.8867504,15.6422779 73.8321424,15.6032722 73.77,15.6 C73.71,15.6 73.67,15.57 73.67,15.53 C73.67,15.5 73.61,15.47 73.53,15.47 C73.46,15.47 73.4,15.44 73.4,15.4 C73.4,15.36 73.28,15.32 73.13,15.3 C72.99,15.27 72.87,15.22 72.87,15.2 C72.87,15.16 72.75,15.13 72.61,15.13 C71.7314946,14.9828048 70.8394842,14.9325034 69.95,14.98 M86.28,14.98 C85.98,15 85.73,15.03 85.73,15.07 C85.73,15.1 85.63,15.13 85.5,15.13 C85.37,15.13 85.27,15.16 85.27,15.19 C85.27,15.22 85.14,15.27 84.98,15.29 C84.83,15.31 84.69,15.36 84.68,15.39 C84.67,15.43 84.58,15.47 84.49,15.47 C84.41,15.47 84.33,15.49 84.33,15.53 C84.33,15.56 84.26,15.6 84.17,15.63 C84.07,15.65 84,15.7 84,15.73 C84,15.76 83.91,15.81 83.8,15.83 C83.6776481,15.8674683 83.5672943,15.9364394 83.48,16.03 C83.4,16.13 83.3,16.2 83.26,16.2 C83.22,16.2 83.09,16.3 82.97,16.43 C82.69,16.73 82.68,16.73 82.63,16.3 C82.61,16.1 82.56,15.92 82.53,15.9 C82.49,15.88 82.47,15.8 82.47,15.74 C82.47,15.21 80.62,15.14 80.49,15.65 C80.47,15.73 80.43,15.8 80.39,15.8 C80.36,15.8 80.33,18.66 80.33,22.6 L80.33,29.41 L80.54,29.62 L80.76,29.83 L82.56,29.83 L82.78,29.63 L83,29.44 L83,24.5 C83,20.16 83.01,19.54 83.1,19.5 C83.15,19.49 83.2,19.41 83.2,19.34 C83.2,19.26 83.23,19.2 83.26,19.2 C83.3,19.2 83.44,19.08 83.59,18.93 C83.74,18.79 83.89,18.67 83.92,18.67 C83.95,18.67 84.04,18.59 84.1,18.5 C84.17,18.41 84.3,18.32 84.39,18.3 C84.48,18.28 84.59,18.22 84.65,18.16 C84.7,18.11 84.82,18.06 84.9,18.06 C85,18.06 85.07,18.04 85.07,18 C85.07,17.96 85.11,17.93 85.17,17.93 C85.22,17.93 85.27,17.91 85.27,17.87 C85.27,17.84 85.49,17.79 85.77,17.77 C86.04,17.74 86.27,17.69 86.27,17.66 C86.27,17.63 86.47,17.6 86.73,17.6 C86.99,17.6 87.2,17.63 87.2,17.66 C87.2,17.69 87.39,17.73 87.62,17.76 C87.85,17.78 88.04,17.83 88.06,17.86 C88.06,17.9 88.15,17.93 88.24,17.93 C88.33,17.93 88.4,17.96 88.4,18 C88.4,18.04 88.48,18.07 88.57,18.07 C88.66,18.07 88.73,18.04 88.73,18 C88.73,17.96 88.76,17.93 88.8,17.93 C88.9,17.93 89.13,17.71 89.13,17.62 C89.13,17.57 89.16,17.53 89.2,17.53 C89.24,17.53 89.27,17.46 89.27,17.37 C89.27,17.27 89.29,17.2 89.32,17.2 C89.36,17.2 89.4,17.08 89.42,16.94 C89.45,16.8 89.5,16.67 89.54,16.65 C89.68,16.61 89.66,15.71 89.52,15.57 C89.45,15.51 89.4,15.43 89.4,15.4 C89.4,15.37 89.3,15.33 89.17,15.3 C89.04,15.28 88.93,15.23 88.93,15.2 C88.93,15.16 88.85,15.13 88.75,15.13 C88.65,15.13 88.53,15.11 88.5,15.07 C88.43,15.01 87.12,14.96 86.28,14.99 M97.55,14.99 C97.21,14.99 96.93,15.03 96.93,15.07 C96.93,15.1 96.81,15.13 96.67,15.13 C96.52,15.13 96.4,15.16 96.4,15.19 C96.4,15.22 96.26,15.27 96.09,15.29 C95.91,15.3 95.76,15.35 95.75,15.39 C95.73,15.43 95.65,15.47 95.56,15.47 C95.47,15.47 95.4,15.49 95.4,15.53 C95.4,15.56 95.31,15.61 95.2,15.63 C95.09,15.66 95,15.7 95,15.73 C95,15.76 94.9,15.81 94.8,15.83 C94.6852125,15.8541269 94.582561,15.9178416 94.51,16.01 C94.47,16.08 94.38,16.13 94.31,16.13 C94.25,16.13 94.18,16.18 94.16,16.23 C94.14,16.29 94.09,16.33 94.06,16.33 C93.98,16.33 93.87,16.43 93.61,16.69 L93.36,16.94 L93.02,17.27 C92.86,17.42 92.73,17.58 92.73,17.64 C92.73,17.69 92.7,17.74 92.67,17.74 C92.63,17.74 92.58,17.81 92.57,17.9 C92.54,17.99 92.47,18.08 92.4,18.1 C92.34,18.12 92.26,18.23 92.24,18.35 C92.2176417,18.4658913 92.1579295,18.5712658 92.07,18.65 C92,18.69 91.92,18.85 91.9,19 C91.88,19.15 91.83,19.27 91.8,19.27 C91.76,19.27 91.72,19.39 91.7,19.53 C91.67,19.68 91.62,19.8 91.6,19.8 C91.56,19.8 91.53,19.85 91.53,19.92 C91.5322301,19.9883194 91.5110619,20.0553518 91.47,20.11 C91.43,20.14 91.38,20.41 91.36,20.69 C91.33,20.97 91.29,21.2 91.26,21.2 C91.23,21.2 91.2,21.84 91.2,22.63 C91.2,23.43 91.23,24.07 91.26,24.07 C91.29,24.07 91.34,24.27 91.36,24.53 C91.39,24.79 91.44,25.01 91.47,25.03 C91.51,25.06 91.53,25.16 91.53,25.27 C91.53,25.37 91.56,25.47 91.6,25.47 C91.64,25.47 91.68,25.59 91.7,25.73 C91.73,25.88 91.78,26 91.8,26 C91.84,26 91.87,26.03 91.87,26.07 C91.87,26.17 92.07,26.62 92.14,26.67 C92.16,26.68 92.21,26.77 92.24,26.87 C92.26,26.96 92.34,27.07 92.4,27.13 C92.46,27.19 92.53,27.3 92.56,27.38 C92.58,27.46 92.65,27.54 92.7,27.56 C93.1578506,28.1758606 93.7195999,28.7071536 94.36,29.13 C94.42,29.13 94.46,29.16 94.46,29.19 C94.46,29.23 94.54,29.27 94.63,29.29 C94.73,29.32 94.8,29.37 94.8,29.4 C94.8,29.44 94.84,29.47 94.9,29.47 C94.95,29.47 95,29.49 95,29.52 C95,29.56 95.12,29.6 95.27,29.62 C95.41,29.65 95.53,29.7 95.53,29.72 C95.53,29.76 95.68,29.81 95.87,29.83 C96.05,29.86 96.2,29.91 96.2,29.94 C96.2,29.97 96.29,30 96.4,30 C96.5,30 96.6,30.04 96.62,30.08 C96.64,30.15 97.05,30.17 98.37,30.17 C99.69,30.17 100.1,30.15 100.12,30.08 C100.13,30.04 100.26,30 100.41,30 C100.55,30 100.67,29.97 100.67,29.94 C100.67,29.9 100.85,29.85 101.07,29.83 C101.29,29.8 101.47,29.76 101.47,29.73 C101.47,29.69 101.51,29.67 101.57,29.67 C101.69,29.67 102.14,29.47 102.2,29.4 C102.279859,29.3530954 102.368233,29.3225046 102.46,29.31 C102.586845,29.2857798 102.704517,29.2269435 102.8,29.14 C102.86,29.07 102.99,28.99 103.09,28.96 C103.19,28.94 103.27,28.89 103.27,28.86 C103.27,28.83 103.33,28.79 103.41,28.76 C103.87,28.62 104.18,27.86 103.9,27.58 C103.84,27.52 103.8,27.45 103.8,27.41 C103.8,27.37 103.73,27.26 103.63,27.17 C103.565297,27.1132836 103.51113,27.045575 103.47,26.97 C103.47,26.94 103.33,26.79 103.17,26.63 C102.89,26.35 102.53,26.23 102.53,26.4 C102.53,26.44 102.5,26.47 102.46,26.47 C102.34,26.47 101.9,26.69 101.85,26.78 C101.82,26.83 101.73,26.87 101.66,26.87 C101.59,26.87 101.53,26.89 101.53,26.93 C101.53,26.96 101.44,27.01 101.33,27.03 C101.23,27.06 101.13,27.1 101.13,27.13 C101.13,27.17 101.09,27.2 101.03,27.2 C100.98,27.2 100.93,27.23 100.93,27.26 C100.93,27.29 100.78,27.34 100.6,27.36 C100.42,27.39 100.27,27.44 100.27,27.47 C100.27,27.51 100.17,27.53 100.04,27.53 C99.91,27.53 99.8,27.57 99.78,27.62 C99.76,27.68 99.48,27.7 98.63,27.7 C97.79,27.7 97.5,27.68 97.48,27.62 C97.47,27.57 97.38,27.53 97.29,27.53 C97.21,27.53 97.13,27.51 97.13,27.48 C97.13,27.44 97.01,27.4 96.87,27.38 C96.72,27.35 96.6,27.31 96.6,27.28 C96.6,27.24 96.55,27.2 96.48,27.18 C96.3066885,27.1088438 96.1475121,27.0072419 96.01,26.88 C95.96,26.84 95.9,26.8 95.86,26.8 C95.76,26.8 95,26.01 95,25.91 C95,25.87 94.93,25.78 94.83,25.71 C94.74,25.64 94.67,25.54 94.67,25.49 C94.67,25.44 94.64,25.4 94.6,25.4 C94.57,25.4 94.52,25.33 94.5,25.23 C94.47,25.14 94.43,25.07 94.4,25.07 C94.36,25.07 94.33,25.02 94.33,24.97 C94.33,24.91 94.3,24.87 94.27,24.87 C94.23,24.87 94.2,24.8 94.2,24.72 C94.189017,24.6012568 94.1550537,24.4857813 94.1,24.38 C94.0436889,24.2711578 94.0096902,24.1521624 94,24.03 C94,23.93 93.97,23.87 93.93,23.87 C93.9,23.87 93.87,23.75 93.87,23.6 L93.87,23.33 L99.1,23.33 C102.54,23.33 104.33,23.31 104.33,23.27 C104.33,23.23 104.37,23.2 104.43,23.2 C104.79,23.2 104.83,23.02 104.83,21.48 C104.83,20.39 104.81,20.04 104.75,20.02 C104.7,20 104.67,19.89 104.67,19.76 C104.67,19.64 104.64,19.53 104.6,19.53 C104.57,19.53 104.52,19.4 104.5,19.23 C104.47,19.07 104.43,18.93 104.4,18.93 C104.37,18.93 104.33,18.83 104.3,18.7 C104.28,18.57 104.23,18.47 104.2,18.47 C104.16,18.47 104.13,18.42 104.13,18.37 C104.13,18.31 104.11,18.27 104.07,18.27 C104.04,18.27 103.99,18.17 103.97,18.07 C103.94,17.96 103.9,17.87 103.87,17.87 C103.83,17.87 103.79,17.8 103.77,17.72 C103.701196,17.5798901 103.606144,17.4542854 103.49,17.35 C103.406011,17.2766842 103.332042,17.1926284 103.27,17.1 C103.27,17 102.81,16.53 102.71,16.53 C102.66,16.53 102.55,16.44 102.47,16.33 C102.38,16.23 102.27,16.13 102.21,16.13 C102.15,16.13 102.06,16.08 102.01,16.01 C101.942514,15.9216514 101.847509,15.8583143 101.74,15.83 C101.62,15.81 101.54,15.76 101.54,15.73 C101.54,15.7 101.44,15.66 101.34,15.63 C101.22,15.61 101.14,15.56 101.14,15.53 C101.14,15.49 101.06,15.47 100.97,15.47 C100.87,15.47 100.8,15.44 100.8,15.41 C100.8,15.37 100.65,15.33 100.47,15.3 C100.28,15.27 100.13,15.23 100.13,15.2 C100.13,15.16 100.02,15.13 99.87,15.13 C99.1057881,14.9847021 98.3265595,14.9343209 97.55,14.98 M111.62,14.98 C111.32,15 111.07,15.03 111.07,15.07 C111.07,15.1 110.93,15.13 110.77,15.13 C110.6,15.13 110.47,15.16 110.47,15.19 C110.47,15.23 110.35,15.28 110.2,15.3 C110.05,15.32 109.93,15.37 109.93,15.4 C109.93,15.44 109.89,15.47 109.83,15.47 C109.78,15.47 109.73,15.49 109.73,15.53 C109.73,15.56 109.64,15.61 109.53,15.63 C109.43,15.66 109.33,15.7 109.33,15.73 C109.33,15.77 109.27,15.81 109.19,15.83 C109.02,15.89 108.36,16.55 108.3,16.73 C108.28,16.81 108.23,16.87 108.2,16.87 C108.16,16.87 108.13,16.91 108.13,16.97 C108.13,17.02 108.1,17.07 108.07,17.07 C108.03,17.07 107.99,17.17 107.97,17.3 C107.94,17.43 107.89,17.53 107.86,17.53 C107.83,17.53 107.8,17.63 107.8,17.73 C107.8,17.84 107.77,17.93 107.73,17.93 C107.69,17.93 107.67,18.28 107.67,18.83 C107.67,19.39 107.69,19.73 107.73,19.73 C107.77,19.73 107.8,19.83 107.8,19.97 C107.8,20.09 107.83,20.2 107.86,20.2 C107.9,20.2 107.94,20.29 107.96,20.4 C107.99,20.51 108.04,20.6 108.07,20.6 C108.11,20.6 108.13,20.66 108.13,20.73 C108.13,20.8 108.18,20.87 108.23,20.89 C108.29,20.91 108.33,20.98 108.33,21.03 C108.33,21.09 108.36,21.13 108.4,21.13 C108.43,21.13 108.48,21.19 108.5,21.26 C108.52,21.33 108.6,21.41 108.65,21.43 C108.72,21.45 108.85,21.57 108.93,21.7 C109.03,21.83 109.15,21.95 109.21,21.97 C109.28,21.99 109.35,22.07 109.37,22.14 C109.39,22.21 109.47,22.27 109.53,22.27 C109.6,22.27 109.68,22.3 109.71,22.35 C109.77,22.43 109.95,22.56 110.13,22.65 C110.202789,22.6830949 110.270205,22.7269153 110.33,22.78 C110.37,22.83 110.45,22.87 110.5,22.87 C110.56,22.87 110.6,22.89 110.6,22.92 C110.6,22.97 111.09,23.2 111.2,23.2 C111.24,23.2 111.27,23.23 111.27,23.26 C111.27,23.3 111.36,23.34 111.47,23.36 C111.57,23.39 111.67,23.43 111.67,23.46 C111.67,23.51 112.16,23.73 112.27,23.73 C112.3,23.73 112.33,23.76 112.33,23.8 C112.33,23.84 112.38,23.87 112.43,23.87 C112.49,23.87 112.53,23.9 112.53,23.93 C112.53,23.97 112.61,24.02 112.7,24.03 C112.8,24.06 112.87,24.11 112.87,24.13 C112.87,24.17 112.96,24.21 113.07,24.23 C113.17,24.26 113.27,24.3 113.27,24.33 C113.27,24.37 113.32,24.4 113.39,24.4 C113.46,24.4 113.54,24.44 113.56,24.5 C113.58,24.55 113.64,24.6 113.7,24.6 C113.76,24.6 113.88,24.68 113.96,24.77 C114.05,24.86 114.13,24.93 114.16,24.93 C114.24,24.93 114.46,25.16 114.46,25.24 C114.46,25.29 114.53,25.37 114.61,25.42 C114.71,25.49 114.76,25.62 114.78,25.82 C114.8,26 114.84,26.13 114.88,26.13 C114.91,26.13 114.93,26.21 114.93,26.3 C114.93,26.4 114.91,26.47 114.88,26.47 C114.84,26.47 114.8,26.57 114.78,26.72 C114.75,26.86 114.68,27 114.6,27.05 C114.53,27.1 114.47,27.18 114.47,27.23 C114.47,27.28 114.41,27.33 114.35,27.36 C114.13,27.44 113.93,27.56 113.93,27.62 C113.93,27.64 113.81,27.68 113.67,27.71 C113.52,27.73 113.4,27.78 113.4,27.81 C113.4,27.84 113.05,27.87 112.63,27.87 C112.21,27.87 111.87,27.84 111.87,27.81 C111.87,27.78 111.7,27.73 111.5,27.71 C111.3,27.68 111.13,27.63 111.13,27.6 C111.13,27.56 111.06,27.53 110.97,27.53 C110.87,27.53 110.8,27.51 110.8,27.47 C110.8,27.44 110.71,27.39 110.6,27.37 C110.49,27.34 110.4,27.3 110.4,27.27 C110.4,27.25 110.28,27.18 110.13,27.12 C109.99,27.05 109.87,26.97 109.87,26.93 C109.87,26.9 109.81,26.87 109.74,26.87 C109.67,26.87 109.58,26.83 109.55,26.78 C109.39,26.51 108.42,26.36 108.35,26.59 C108.320575,26.6534374 108.279921,26.7110308 108.23,26.76 C108.18,26.81 108.13,26.89 108.13,26.93 C108.13,26.97 108.11,27 108.07,27 C108.04,27 107.99,27.09 107.97,27.2 C107.94,27.31 107.9,27.4 107.87,27.4 C107.83,27.4 107.8,27.46 107.8,27.53 C107.8,27.61 107.77,27.67 107.73,27.67 C107.43,27.67 107.78,28.65 108.12,28.77 C108.2,28.79 108.27,28.84 108.27,28.87 C108.27,28.91 108.31,28.93 108.37,28.93 C108.42,28.93 108.49,28.98 108.51,29.03 C108.53,29.09 108.61,29.13 108.67,29.13 C108.73,29.13 108.8,29.18 108.82,29.23 C108.85,29.29 108.91,29.33 108.96,29.33 C109.02,29.33 109.06,29.36 109.06,29.4 C109.06,29.44 109.13,29.47 109.2,29.47 C109.27,29.47 109.33,29.5 109.33,29.53 C109.33,29.57 109.45,29.62 109.6,29.64 C109.75,29.66 109.87,29.71 109.87,29.74 C109.87,29.76 110,29.81 110.17,29.83 C110.33,29.85 110.47,29.9 110.47,29.93 C110.47,29.97 110.57,30 110.69,30 C110.82,30 110.93,30.04 110.95,30.08 C110.97,30.15 111.35,30.17 112.53,30.17 C113.72,30.17 114.1,30.15 114.12,30.08 C114.13,30.04 114.25,30 114.37,30 C114.5,30 114.6,29.97 114.6,29.94 C114.6,29.91 114.72,29.86 114.87,29.84 C115.01,29.82 115.13,29.77 115.13,29.74 C115.13,29.7 115.23,29.66 115.33,29.64 C115.44,29.61 115.53,29.56 115.53,29.53 C115.53,29.49 115.59,29.47 115.67,29.47 C115.74,29.47 115.8,29.44 115.8,29.4 C116.303842,29.0216131 116.751613,28.5738421 117.13,28.07 C117.17,28.07 117.22,27.99 117.23,27.9 C117.26,27.8 117.31,27.73 117.34,27.73 C117.37,27.73 117.42,27.61 117.44,27.47 C117.46,27.32 117.51,27.2 117.54,27.2 C117.57,27.2 117.6,27.11 117.6,27 C117.6,26.9 117.63,26.79 117.67,26.77 C117.7,26.74 117.73,26.41 117.73,26 C117.73,25.55 117.71,25.27 117.67,25.27 C117.63,25.27 117.6,25.17 117.6,25.07 C117.6,24.96 117.57,24.87 117.54,24.87 C117.51,24.87 117.46,24.73 117.44,24.57 C117.41,24.4 117.36,24.27 117.33,24.27 C117.29,24.27 117.27,24.22 117.27,24.17 C117.270688,24.1041923 117.23101,24.0446756 117.17,24.02 C117.115078,23.9933155 117.07743,23.9406073 117.07,23.88 C117.07,23.82 116.98,23.71 116.89,23.63 C116.79,23.56 116.69,23.46 116.64,23.42 C116.373701,23.0638563 116.045056,22.7589279 115.67,22.52 C115.67,22.49 115.62,22.47 115.57,22.47 C115.51,22.47 115.47,22.44 115.47,22.4 C115.47,22.37 115.39,22.32 115.3,22.3 C115.2,22.27 115.13,22.23 115.13,22.2 C115.13,22.17 115.06,22.13 114.97,22.1 C114.87,22.08 114.8,22.03 114.8,22 C114.8,21.96 114.75,21.93 114.7,21.93 C114.64,21.93 114.6,21.9 114.6,21.87 C114.6,21.83 114.5,21.79 114.37,21.77 C114.24,21.74 114.13,21.69 114.13,21.66 C114.13,21.63 114.09,21.6 114.03,21.6 C113.98,21.6 113.93,21.57 113.93,21.54 C113.93,21.5 113.84,21.46 113.73,21.44 C113.63,21.41 113.53,21.37 113.53,21.34 C113.53,21.31 113.43,21.26 113.3,21.24 C113.17,21.21 113.07,21.17 113.07,21.13 C113.07,21.1 113.02,21.07 112.97,21.07 C112.91,21.07 112.87,21.04 112.87,21 C112.87,20.97 112.77,20.92 112.63,20.9 C112.5,20.87 112.4,20.83 112.4,20.8 C112.4,20.77 112.31,20.72 112.2,20.7 C112.09,20.68 112,20.63 112,20.6 C112,20.56 111.95,20.53 111.9,20.53 C111.84,20.53 111.8,20.51 111.8,20.47 C111.8,20.44 111.73,20.4 111.63,20.37 C111.54,20.35 111.47,20.3 111.47,20.27 C111.47,20.23 111.43,20.2 111.38,20.2 C111.112383,20.0356191 110.875497,19.8258065 110.68,19.58 C110.637445,19.5248693 110.582674,19.4803683 110.52,19.45 C110.41,19.41 110.4,18.32 110.52,18.28 C110.566803,18.2578689 110.597573,18.2117151 110.6,18.16 C110.6,18.11 110.63,18.06 110.66,18.06 C110.7,18.06 110.74,18.01 110.76,17.93 C110.79,17.86 110.85,17.8 110.9,17.8 C110.95,17.8 111.04,17.75 111.1,17.7 C111.15,17.64 111.38,17.58 111.63,17.55 C111.87,17.53 112.09,17.49 112.11,17.45 C112.15,17.38 112.47,17.38 112.47,17.45 C112.47,17.49 112.71,17.54 113,17.56 C113.3,17.59 113.53,17.63 113.53,17.66 C113.53,17.69 113.67,17.74 113.83,17.76 C114,17.79 114.13,17.84 114.13,17.87 C114.13,17.91 114.19,17.93 114.27,17.93 C114.34,17.93 114.4,17.96 114.4,17.99 C114.4,18.02 114.52,18.07 114.66,18.09 C114.8,18.11 114.93,18.17 114.95,18.21 C115,18.37 115.92,18.37 116.07,18.21 C116.15,18.13 116.23,18.07 116.27,18.07 C116.29,18.07 116.34,17.97 116.37,17.83 C116.39,17.7 116.43,17.6 116.47,17.6 C116.5,17.6 116.54,17.51 116.57,17.4 C116.59,17.29 116.64,17.2 116.67,17.2 C116.71,17.2 116.73,17.05 116.73,16.87 C116.73,16.68 116.71,16.53 116.67,16.53 C116.64,16.53 116.59,16.44 116.57,16.33 C116.54,16.23 116.49,16.13 116.44,16.13 C116.4,16.13 116.32,16.07 116.27,16 C116.19652,15.9157091 116.098684,15.8563087 115.99,15.83 C115.89,15.81 115.8,15.76 115.8,15.73 C115.8,15.7 115.66,15.65 115.5,15.63 C115.33,15.61 115.2,15.56 115.2,15.53 C115.2,15.49 115.15,15.47 115.1,15.47 C115.04,15.47 115,15.44 115,15.4 C115,15.37 114.83,15.32 114.63,15.3 C114.43,15.27 114.27,15.22 114.27,15.2 C114.27,15.16 114.15,15.13 114.01,15.13 C113.221456,14.9907281 112.41977,14.9404131 111.62,14.98 M152.55,14.98 C152.25,15 152,15.03 152,15.07 C152,15.1 151.88,15.13 151.73,15.13 C151.59,15.13 151.47,15.16 151.47,15.19 C151.47,15.23 151.32,15.27 151.13,15.3 C150.95,15.33 150.8,15.37 150.8,15.4 C150.8,15.44 150.73,15.47 150.63,15.47 C150.54,15.47 150.47,15.49 150.47,15.53 C150.47,15.56 150.37,15.61 150.27,15.63 C150.16,15.66 150.07,15.7 150.07,15.73 C150.07,15.77 150.01,15.8 149.93,15.8 C149.86,15.8 149.78,15.84 149.76,15.9 C149.74,15.95 149.68,16 149.63,16 C149.58,16 149.53,16.03 149.53,16.07 C149.53,16.1 149.46,16.15 149.37,16.17 C149.27,16.2 149.2,16.24 149.2,16.27 C149.2,16.31 149.17,16.33 149.13,16.33 C149.1,16.33 149.07,16.26 149.07,16.17 C149.07,16.07 149.04,16 149.01,16 C148.97,16 148.93,15.92 148.91,15.83 C148.81,15.43 148.61,15.33 147.84,15.33 C147.41,15.33 147.14,15.36 147.14,15.4 C147.14,15.44 147.1,15.47 147.06,15.47 C146.76,15.47 146.76,14.86 146.75,27.14 L146.73,38.58 L146.96,38.82 L147.19,39.07 L148.06,39.07 C148.6,39.07 148.93,39.04 148.93,39 C148.93,38.96 148.99,38.93 149.07,38.93 C149.15,38.93 149.21,38.87 149.24,38.77 C149.26,38.67 149.31,38.6 149.34,38.6 C149.37,38.6 149.4,36.62 149.4,33.93 C149.4,28.99 149.4,29.07 149.69,29.37 C149.75,29.42 149.82,29.47 149.86,29.47 C149.9,29.47 149.93,29.5 149.93,29.53 C149.93,29.57 150.05,29.62 150.2,29.64 C150.35,29.66 150.47,29.71 150.47,29.74 C150.47,29.76 150.62,29.81 150.8,29.84 C150.98,29.86 151.13,29.91 151.13,29.94 C151.13,29.97 151.23,30 151.33,30 C151.43,30 151.53,30.04 151.55,30.08 C151.57,30.15 151.95,30.17 153.17,30.17 C154.37,30.17 154.77,30.15 154.78,30.08 C154.8,30.04 154.87,30 154.94,30 C155.01,30 155.07,29.97 155.07,29.94 C155.07,29.91 155.22,29.86 155.4,29.84 C155.58,29.81 155.73,29.76 155.73,29.73 C155.73,29.69 155.77,29.67 155.81,29.67 C155.9,29.67 156.35,29.46 156.4,29.4 C156.42,29.37 156.5,29.33 156.6,29.3 C156.702857,29.2619769 156.795342,29.2003204 156.87,29.12 C156.93,29.06 157.01,29 157.05,29 C157.09,29 157.21,28.91 157.32,28.8 C157.779563,28.4863908 158.176391,28.0895631 158.49,27.63 C158.576186,27.5483604 158.644316,27.4495724 158.69,27.34 C158.72,27.26 158.77,27.2 158.8,27.2 C158.84,27.2 158.87,27.15 158.87,27.1 C158.87,27.04 158.9,27 158.93,27 C158.97,27 159.02,26.93 159.03,26.83 C159.06,26.74 159.11,26.67 159.13,26.67 C159.17,26.67 159.21,26.57 159.23,26.43 C159.26,26.3 159.31,26.2 159.34,26.2 C159.37,26.2 159.4,26.15 159.4,26.1 C159.4,26.04 159.43,26 159.46,26 C159.49,26 159.54,25.88 159.56,25.73 C159.58,25.59 159.63,25.47 159.66,25.47 C159.7,25.47 159.73,25.38 159.73,25.28 C159.73,25.18 159.76,25.06 159.79,25.03 C160.06,24.75 160.06,20.2 159.79,20.2 C159.76,20.2 159.73,20.13 159.73,20.03 C159.73,19.94 159.71,19.87 159.67,19.87 C159.64,19.87 159.59,19.73 159.57,19.57 C159.55,19.4 159.5,19.27 159.47,19.27 C159.43,19.27 159.4,19.21 159.4,19.13 C159.4,19.06 159.37,19 159.34,19 C159.3,19 159.26,18.91 159.24,18.8 C159.21,18.69 159.17,18.6 159.14,18.6 C159.11,18.6 159.06,18.53 159.04,18.43 C159.02,18.34 158.97,18.27 158.94,18.27 C158.9,18.27 158.87,18.22 158.87,18.17 C158.87,18.11 158.84,18.07 158.8,18.07 C158.76,18.07 158.73,18.03 158.73,17.97 C158.73,17.93 158.67,17.82 158.6,17.73 C158.53,17.65 158.47,17.55 158.47,17.52 C158.47,17.49 158.35,17.36 158.22,17.23 L157.91,16.94 C157.51,16.52 157.29,16.34 157.23,16.34 C157.160557,16.2983446 157.09951,16.2440801 157.05,16.18 C156.97,16.09 156.79,15.98 156.65,15.91 C156.51,15.85 156.4,15.77 156.4,15.73 C156.4,15.7 156.29,15.65 156.15,15.63 C156.052146,15.6164977 155.957395,15.5860419 155.87,15.54 C155.79,15.44 155.52,15.34 155.27,15.29 C155.12,15.27 155,15.22 155,15.19 C155,15.16 154.9,15.13 154.77,15.13 C154.038819,14.9901721 153.293345,14.9398022 152.55,14.98 M139.43,15.46 C139.39951,15.5378877 139.337888,15.59951 139.26,15.63 C139.14,15.67 139.13,15.79 139.13,22.59 L139.13,29.51 L139.32,29.67 C139.78,30.08 141.73,29.86 141.73,29.4 C141.73,29.33 141.76,29.27 141.8,29.27 C141.84,29.27 141.87,27.01 141.87,22.63 C141.87,18.26 141.84,16 141.8,16 C141.76,16 141.73,15.94 141.73,15.87 C141.73,15.8 141.64,15.65 141.53,15.54 L141.33,15.34 L140.41,15.34 C139.54,15.34 139.47,15.34 139.43,15.46 M20.67,17.13 C20.67,17.17 20.7,17.2 20.74,17.2 C20.78,17.2 20.9,17.29 21.01,17.4 C21.11,17.51 21.23,17.6 21.28,17.6 C21.32,17.6 21.45,17.7 21.56,17.82 C21.68,17.95 21.84,18.07 21.92,18.1 C22,18.12 22.07,18.17 22.07,18.2 C22.07,18.24 22.11,18.27 22.17,18.27 C22.22,18.27 22.29,18.31 22.31,18.37 C22.33,18.42 22.41,18.47 22.47,18.47 C22.53,18.47 22.6,18.51 22.62,18.57 C22.65,18.62 22.72,18.67 22.79,18.67 C22.870753,18.6729903 22.9417724,18.7242821 22.97,18.8 C22.99,18.88 23.09,18.94 23.23,18.97 C23.36,18.99 23.47,19.06 23.49,19.11 C23.51,19.16 23.58,19.2 23.63,19.2 C23.69,19.2 23.73,19.23 23.73,19.27 C23.73,19.3 23.79,19.33 23.87,19.33 C23.94,19.33 24,19.36 24,19.39 C24,19.43 24.09,19.48 24.2,19.5 C24.31,19.52 24.4,19.57 24.4,19.6 C24.4,19.63 24.51,19.68 24.65,19.7 C24.79,19.73 24.92,19.77 24.93,19.8 C25,19.88 25.45,20.07 25.59,20.07 C25.67,20.07 25.73,20.1 25.73,20.13 C25.73,20.17 25.79,20.2 25.86,20.2 C25.93,20.2 26.01,20.23 26.03,20.26 C26.05,20.3 26.2,20.35 26.37,20.37 C26.53,20.39 26.67,20.44 26.67,20.47 C26.67,20.5 26.77,20.53 26.92,20.55 L27.17,20.57 L27.14,21.23 C27.13,21.6 27.09,21.91 27.06,21.93 C27.03,21.93 27,22.21 27,22.54 C27,23.26 26.95,23.34 26.47,23.34 C26.29,23.34 26.13,23.36 26.13,23.39 C26.13,23.42 25.91,23.47 25.63,23.49 C25.36,23.52 25.13,23.57 25.13,23.59 C25.13,23.63 24.95,23.67 24.73,23.7 C24.51,23.73 24.33,23.77 24.33,23.8 C24.33,23.84 24.26,23.87 24.17,23.87 C24.07,23.87 24,23.89 24,23.92 C24,23.96 23.88,24 23.73,24.02 C23.59,24.05 23.47,24.09 23.47,24.12 C23.47,24.16 23.35,24.2 23.2,24.22 C23.05,24.25 22.93,24.3 22.93,24.33 C22.93,24.37 22.87,24.4 22.8,24.4 C22.73,24.4 22.67,24.43 22.67,24.46 C22.67,24.49 22.55,24.54 22.4,24.56 C22.25,24.58 22.13,24.63 22.13,24.66 C22.13,24.7 22.09,24.73 22.03,24.73 C21.98,24.73 21.93,24.76 21.93,24.8 C21.93,24.83 21.86,24.88 21.77,24.9 C21.67,24.93 21.6,24.97 21.6,25 C21.6,25.03 21.52,25.07 21.42,25.1 C21.32,25.12 21.19,25.2 21.14,25.26 C21.0680934,25.3365459 20.978958,25.3948268 20.88,25.43 C20.8,25.45 20.73,25.5 20.73,25.53 C20.73,25.56 20.68,25.6 20.62,25.63 C20.4224414,25.7058655 20.2446524,25.8255311 20.1,25.98 C20.02,26.07 19.92,26.13 19.88,26.13 C19.83,26.13 19.8,26.16 19.8,26.19 C19.8,26.47 19.28,26.15 19.17,25.81 C19.14,25.73 19.1,25.67 19.06,25.67 C19.02,25.67 18.98,25.61 18.96,25.55 C18.8774345,25.4134972 18.7764888,25.2889975 18.66,25.18 C17.9311679,24.3044143 17.1134568,23.5068108 16.22,22.8 C16.17,22.8 16.13,22.77 16.13,22.73 C16.13,22.7 16.06,22.65 15.98,22.63 C15.8691421,22.5920999 15.7718054,22.5225736 15.7,22.43 C15.64,22.34 15.53,22.27 15.46,22.27 C15.39,22.27 15.33,22.24 15.33,22.21 C15.33,22.17 15.26,22.13 15.17,22.11 C15.07,22.08 15,22.03 15,22 C15,21.96 14.95,21.93 14.9,21.93 C14.84,21.93 14.8,21.91 14.8,21.87 C14.8,21.84 14.71,21.79 14.6,21.77 C14.49,21.74 14.4,21.7 14.4,21.67 C14.4,21.63 13.9,21.4 13.8,21.4 C13.7814348,21.4 13.7636301,21.392625 13.7505025,21.3794975 C13.737375,21.3663699 13.73,21.3485652 13.73,21.33 C13.73,21.3 13.61,21.25 13.47,21.23 C13.32,21.2 13.2,21.16 13.2,21.13 C13.2,21.09 13.15,21.07 13.1,21.07 C13.04,21.07 13,21.04 13,21 C13,20.96 12.93,20.93 12.85,20.93 C12.65,20.93 12.46,20.8 12.58,20.76 C12.63,20.74 12.67,20.61 12.67,20.46 C12.67,20.32 12.69,20.2 12.73,20.2 C12.76,20.2 12.81,19.93 12.83,19.6 C12.87,19.14 13,18.72 13,19.07 C13,19.11 13.31,19.13 13.8,19.13 C14.24,19.13 14.6,19.11 14.6,19.08 C14.6,19.05 14.95,19 15.38,18.98 C15.81,18.95 16.18,18.9 16.18,18.87 C16.2,18.83 16.31,18.8 16.44,18.8 C16.56,18.8 16.67,18.77 16.67,18.74 C16.67,18.71 16.83,18.66 17.03,18.64 C17.23,18.61 17.4,18.56 17.4,18.53 C17.4,18.49 17.48,18.47 17.57,18.47 C17.66,18.47 17.73,18.44 17.73,18.41 C17.73,18.38 17.85,18.33 18,18.31 C18.15,18.28 18.27,18.24 18.27,18.21 C18.27,18.18 18.39,18.13 18.53,18.11 C18.68,18.08 18.8,18.04 18.8,18 C18.8,17.96 18.84,17.93 18.9,17.93 C18.95,17.93 19,17.9 19,17.87 C19,17.83 19.1,17.79 19.23,17.77 C19.36,17.74 19.47,17.69 19.47,17.67 C19.47,17.63 19.57,17.55 19.72,17.49 C19.85,17.43 19.98,17.35 20,17.33 C20.0524121,17.2845391 20.1137118,17.2504837 20.18,17.23 C20.27,17.21 20.33,17.16 20.33,17.13 C20.33,17.09 20.41,17.07 20.5,17.07 C20.6,17.07 20.67,17.1 20.67,17.13 M99,17.46 C99,17.49 99.13,17.53 99.28,17.56 C99.44,17.57 99.58,17.62 99.58,17.66 C99.6,17.7 99.68,17.73 99.77,17.73 C99.85,17.73 99.97,17.78 100.02,17.83 C100.08,17.89 100.16,17.93 100.2,17.93 C100.23,17.93 100.27,17.96 100.27,18 C100.27,18.04 100.31,18.07 100.37,18.07 C100.849952,18.4155098 101.266154,18.8418631 101.6,19.33 C101.64,19.33 101.67,19.38 101.67,19.43 C101.67,19.49 101.7,19.53 101.73,19.53 C101.77,19.53 101.82,19.65 101.84,19.8 C101.86,19.95 101.91,20.07 101.94,20.07 C101.97,20.07 102.01,20.23 102.04,20.43 C102.06,20.63 102.11,20.82 102.14,20.83 C102.49,21.05 102.26,21.07 98.04,21.07 C94.37,21.07 93.87,21.05 93.87,20.97 C93.87,20.91 93.9,20.87 93.93,20.87 C93.97,20.87 94,20.77 94,20.63 C94,20.5 94.03,20.4 94.07,20.4 C94.1,20.4 94.15,20.28 94.17,20.13 C94.2,19.99 94.24,19.87 94.27,19.87 C94.31,19.87 94.33,19.82 94.33,19.77 C94.33,19.71 94.36,19.67 94.4,19.67 C94.43,19.67 94.48,19.59 94.5,19.5 C94.53,19.4 94.57,19.33 94.6,19.33 C94.63,19.33 94.68,19.27 94.7,19.2 C94.75,19.03 95.52,18.27 95.64,18.27 C95.69,18.27 95.74,18.24 95.74,18.2 C95.74,18.17 95.81,18.12 95.9,18.1 C96,18.07 96.07,18.03 96.07,18 C96.07,17.96 96.11,17.93 96.17,17.93 C96.22,17.93 96.27,17.9 96.27,17.87 C96.27,17.83 96.3,17.8 96.35,17.8 C96.4,17.8 96.52,17.75 96.63,17.7 C96.74,17.64 96.99,17.57 97.18,17.55 C97.38,17.53 97.53,17.49 97.53,17.45 C97.53,17.43 97.86,17.4 98.27,17.4 C98.67,17.4 99,17.43 99,17.46 M153.16,17.46 C153.18,17.49 153.43,17.53 153.71,17.56 C153.99,17.57 154.24,17.62 154.26,17.66 C154.28,17.69 154.41,17.74 154.55,17.76 C154.69,17.79 154.8,17.84 154.8,17.87 C154.8,17.91 154.85,17.93 154.9,17.93 C154.95,17.93 155,17.96 155,18 C155,18.04 155.04,18.07 155.1,18.07 C155.15,18.07 155.23,18.11 155.28,18.16 C155.349842,18.2222344 155.431449,18.2698387 155.52,18.3 C155.6,18.32 155.67,18.37 155.67,18.4 C155.67,18.43 155.8,18.6 155.97,18.76 C156.13,18.92 156.27,19.07 156.27,19.1 C156.27,19.13 156.32,19.2 156.39,19.26 C156.47032,19.3346585 156.531977,19.4271433 156.57,19.53 C156.59,19.62 156.66,19.73 156.71,19.78 C156.76,19.84 156.8,19.95 156.8,20.04 C156.8,20.13 156.83,20.2 156.87,20.2 C156.9,20.2 156.93,20.24 156.93,20.3 C156.93,20.35 156.96,20.4 157,20.4 C157.03,20.4 157.08,20.57 157.1,20.77 C157.13,20.97 157.18,21.13 157.2,21.13 C157.24,21.13 157.27,21.27 157.27,21.43 C157.27,21.6 157.3,21.73 157.33,21.73 C157.37,21.73 157.4,22.07 157.4,22.6 C157.4,23.13 157.37,23.47 157.33,23.47 C157.3,23.47 157.27,23.59 157.27,23.73 C157.27,23.88 157.24,24 157.2,24 C157.17,24 157.12,24.13 157.1,24.3 C157.07,24.47 157.02,24.6 157,24.6 C156.96,24.6 156.93,24.68 156.93,24.77 C156.93,24.86 156.9,24.93 156.87,24.93 C156.83,24.93 156.8,24.98 156.8,25.03 C156.8,25.08 156.76,25.16 156.7,25.22 C156.641054,25.2942377 156.596921,25.3791094 156.57,25.47 C156.54,25.56 156.41,25.73 156.29,25.85 C156.17,25.97 156.07,26.09 156.07,26.13 C156.07,26.22 155.82,26.47 155.73,26.47 C155.7,26.47 155.58,26.56 155.48,26.67 C155.38,26.77 155.25,26.87 155.21,26.87 C155.17,26.87 155.13,26.9 155.13,26.93 C155.13,26.97 155.07,27 155,27 C154.92,27 154.85,27.04 154.82,27.1 C154.8,27.15 154.72,27.2 154.63,27.2 C154.55,27.2 154.47,27.23 154.45,27.27 C154.44,27.31 154.29,27.37 154.11,27.38 C153.94,27.4 153.8,27.44 153.8,27.48 C153.8,27.51 153.68,27.53 153.53,27.53 C153.39,27.53 153.27,27.56 153.27,27.6 C153.27,27.64 153.07,27.67 152.83,27.67 C152.59,27.67 152.4,27.64 152.4,27.6 C152.4,27.56 152.25,27.53 152.07,27.53 C151.88,27.53 151.73,27.51 151.73,27.47 C151.73,27.44 151.57,27.39 151.37,27.37 C151.17,27.34 151,27.3 151,27.27 C151,27.23 150.95,27.2 150.9,27.2 C150.85,27.2 150.8,27.17 150.8,27.14 C150.8,27.1 150.7,27.05 150.57,27.03 C150.44,27 150.33,26.96 150.33,26.93 C150.33,26.9 150.25,26.86 150.15,26.83 C150.044539,26.8014414 149.948146,26.7463594 149.87,26.67 C149.799896,26.598377 149.714401,26.5436601 149.62,26.51 C149.39,26.43 149.39,26.44 149.42,22.63 L149.43,19.1 L149.69,18.85 C149.84,18.71 149.99,18.6 150.03,18.6 C150.07,18.6 150.16,18.53 150.23,18.43 C150.3,18.34 150.4,18.27 150.47,18.27 C150.53,18.27 150.6,18.22 150.62,18.17 C150.65,18.11 150.71,18.07 150.76,18.07 C150.82,18.07 150.86,18.04 150.86,18 C150.86,17.96 150.93,17.93 151,17.93 C151.07,17.93 151.13,17.9 151.13,17.87 C151.13,17.83 151.25,17.79 151.38,17.76 C151.52,17.73 151.65,17.69 151.68,17.66 C151.69,17.62 151.96,17.58 152.26,17.56 C152.56,17.53 152.82,17.49 152.84,17.46 C152.88,17.38 153.12,17.38 153.16,17.46 M9.24,22.76 C9.34,22.87 9.36,23 9.27,23 C9.23,23 9.19,23.1 9.17,23.23 C9.14,23.36 9.09,23.47 9.06,23.47 C9.03,23.47 9,23.52 9,23.6 C9,23.67 8.97,23.74 8.94,23.76 C8.9,23.78 8.86,23.89 8.84,24 C8.81,24.11 8.76,24.2 8.74,24.2 C8.7,24.2 8.66,24.29 8.64,24.4 C8.61,24.51 8.56,24.6 8.53,24.6 C8.49,24.6 8.47,24.66 8.47,24.73 C8.47,24.81 8.44,24.87 8.4,24.87 C8.36,24.87 8.33,24.91 8.33,24.97 C8.33,25.02 8.29,25.09 8.24,25.11 C8.19,25.13 8.13,25.23 8.11,25.35 C8.08764175,25.4658913 8.02792953,25.5712658 7.94,25.65 C7.85644015,25.7199621 7.79697336,25.8144094 7.77,25.92 C7.75,26.02 7.67,26.15 7.6,26.2 C7.53,26.25 7.47,26.34 7.47,26.38 C7.47,26.43 7.42,26.48 7.37,26.51 C7.32,26.53 7.25,26.61 7.23,26.68 C7.14338597,26.8339456 7.0318777,26.9724862 6.9,27.09 C6.75,27.25 6.6,27.44 6.57,27.52 C6.53648579,27.6074177 6.46741774,27.6764858 6.38,27.71 C6.3,27.73 6.14,27.85 6.03,27.97 C5.92,28.09 5.76,28.2 5.68,28.23 C5.6,28.25 5.53,28.3 5.53,28.33 C5.53,28.36 5.44,28.41 5.33,28.43 C5.23,28.46 5.13,28.5 5.13,28.53 C5.13,28.57 5.06,28.6 4.97,28.6 C4.87,28.6 4.8,28.63 4.8,28.67 C4.8,28.71 4.54,28.73 4.17,28.73 C3.79,28.73 3.53,28.71 3.53,28.67 C3.53,28.63 3.46,28.6 3.37,28.6 C3.28012745,28.5987198 3.19419207,28.5629134 3.13,28.5 C3.09,28.44 3.03,28.4 2.99,28.4 C2.89,28.4 2.69,28.18 2.59,27.95 C2.54,27.83 2.48,27.73 2.45,27.73 C2.42,27.73 2.4,27.45 2.4,27.1 C2.4,26.72 2.43,26.47 2.47,26.47 C2.5,26.47 2.53,26.39 2.53,26.3 C2.53,26.2 2.56,26.13 2.6,26.13 C2.63,26.13 2.68,26.03 2.7,25.9 C2.73,25.77 2.77,25.67 2.8,25.67 C2.83,25.67 2.87,25.58 2.9,25.48 C2.92,25.38 3.01,25.24 3.1,25.18 C3.2,25.1 3.27,24.99 3.27,24.93 C3.27,24.86 3.32,24.79 3.38,24.77 C3.45,24.75 3.58,24.63 3.67,24.5 C3.76,24.37 3.89,24.25 3.95,24.23 C4.01,24.21 4.07,24.16 4.07,24.13 C4.07,24.09 4.11,24.07 4.17,24.07 C4.22,24.07 4.29,24.02 4.31,23.97 C4.33,23.91 4.41,23.87 4.47,23.87 C4.54,23.87 4.6,23.84 4.6,23.81 C4.6,23.78 4.65,23.73 4.72,23.71 C4.93,23.62 5.13,23.51 5.13,23.45 C5.13,23.42 5.25,23.38 5.4,23.35 C5.55,23.34 5.67,23.29 5.67,23.25 C5.67,23.23 5.79,23.18 5.93,23.15 C6.08,23.14 6.2,23.09 6.2,23.05 C6.2,23.03 6.29,23 6.4,23 C6.5,23 6.6,22.97 6.61,22.93 C6.62,22.9 6.93,22.85 7.28,22.83 C7.64,22.8 7.93,22.75 7.93,22.73 C7.93,22.62 9.13,22.66 9.23,22.76 M71.07,22.72 C71.07,22.75 71.33,22.8 71.65,22.82 C71.97,22.85 72.25,22.9 72.25,22.93 C72.27,22.97 72.35,23 72.44,23 C72.53,23 72.6,23.03 72.6,23.06 C72.6,23.1 72.69,23.14 72.8,23.16 L73,23.21 L73,24.56 C73,25.71 72.98,25.93 72.9,25.96 C72.8437698,25.9851097 72.8055157,26.0386656 72.8,26.1 C72.8,26.21 72.5,26.53 72.39,26.53 C72.35,26.53 72.23,26.63 72.11,26.76 C71.99,26.89 71.81,27.01 71.71,27.04 C71.6074819,27.067624 71.5164187,27.1271653 71.45,27.21 C71.4,27.28 71.25,27.35 71.12,27.38 C70.98,27.4 70.87,27.44 70.87,27.48 C70.87,27.51 70.81,27.53 70.74,27.53 C70.67,27.53 70.6,27.56 70.59,27.6 C70.58,27.64 70.39,27.7 70.19,27.71 C69.97,27.73 69.8,27.78 69.8,27.81 C69.8,27.84 69.54,27.87 69.23,27.87 C68.93,27.87 68.67,27.84 68.67,27.81 C68.67,27.78 68.54,27.73 68.38,27.71 C68.23,27.69 68.09,27.64 68.08,27.61 C68.07,27.57 68.02,27.53 67.97,27.53 C67.85,27.53 67.07,26.75 67.07,26.63 C67.07,26.58 67.04,26.53 67,26.53 C66.97,26.53 66.92,26.4 66.9,26.23 C66.87,26.07 66.82,25.93 66.8,25.93 C66.76,25.93 66.73,25.71 66.73,25.43 C66.73,25.16 66.76,24.93 66.79,24.93 C66.82,24.93 66.87,24.78 66.89,24.6 C66.92,24.42 66.97,24.27 67,24.27 C67.04,24.27 67.07,24.22 67.07,24.17 C67.07,24.11 67.1,24.07 67.13,24.07 C67.17,24.07 67.2,24.03 67.2,23.97 C67.2,23.85 67.72,23.33 67.84,23.33 C67.89,23.33 67.94,23.3 67.94,23.27 C67.94,23.23 68.01,23.18 68.1,23.17 C68.2,23.14 68.27,23.09 68.27,23.06 C68.27,23.03 68.34,23 68.43,23 C68.53,23 68.6,22.97 68.6,22.94 C68.6,22.9 68.76,22.86 68.97,22.83 C69.17,22.81 69.33,22.76 69.33,22.73 C69.33,22.69 69.73,22.67 70.2,22.67 C70.68,22.67 71.07,22.69 71.07,22.72 M30.2,25.73 C30.2,25.77 30.35,25.8 30.53,25.8 C30.72,25.8 30.87,25.83 30.87,25.86 C30.87,25.89 31.05,25.93 31.28,25.96 C31.51,25.98 31.71,26.03 31.73,26.06 C31.75,26.09 31.92,26.13 32.1,26.16 C32.28,26.18 32.44,26.23 32.46,26.26 C32.46,26.3 32.54,26.33 32.61,26.33 C32.68,26.33 32.73,26.36 32.73,26.39 C32.73,26.43 32.85,26.48 33,26.5 C33.15,26.52 33.27,26.57 33.27,26.6 C33.27,26.64 33.31,26.67 33.37,26.67 C33.42,26.67 33.47,26.69 33.47,26.73 C33.47,26.76 33.56,26.81 33.67,26.83 C33.77,26.86 33.87,26.9 33.87,26.93 C33.87,26.97 33.93,27 34,27 C34.07,27 34.15,27.04 34.18,27.08 C34.296854,27.2179326 34.4489129,27.3216092 34.62,27.38 C34.68,27.4 34.73,27.44 34.73,27.47 C34.73,27.5 34.79,27.54 34.86,27.57 C34.93,27.59 35.01,27.67 35.03,27.74 C35.06,27.81 35.12,27.87 35.17,27.87 C35.27,27.87 35.73,28.3 35.73,28.4 C35.73,28.44 35.83,28.55 35.93,28.66 C36.04,28.76 36.13,28.88 36.13,28.92 C36.13,28.97 36.16,29 36.2,29 C36.24,29 36.27,29.06 36.27,29.13 C36.27,29.2 36.31,29.27 36.37,29.29 C36.42,29.31 36.47,29.39 36.47,29.46 C36.47,29.54 36.49,29.6 36.53,29.6 C36.56,29.6 36.61,29.73 36.63,29.9 C36.66,30.06 36.71,30.2 36.74,30.2 C36.77,30.2 36.8,30.32 36.8,30.47 C36.8,30.61 36.83,30.73 36.87,30.73 C36.9,30.73 36.93,30.88 36.93,31.07 C36.93,31.25 36.9,31.4 36.87,31.4 C36.83,31.4 36.8,31.55 36.8,31.73 C36.8,31.92 36.77,32.07 36.74,32.07 C36.71,32.07 36.66,32.19 36.64,32.33 C36.62,32.48 36.57,32.6 36.54,32.6 C36.5,32.6 36.46,32.68 36.44,32.79 C36.41,32.89 36.34,33.02 36.26,33.07 C36.19,33.12 36.13,33.2 36.13,33.25 C36.13,33.35 35.8,33.67 35.69,33.67 C35.65,33.67 35.59,33.71 35.58,33.77 C35.55,33.82 35.48,33.87 35.41,33.87 C35.34,33.87 35.27,33.9 35.26,33.93 C35.24,33.97 35.08,34.02 34.9,34.03 C34.72,34.06 34.5,34.11 34.41,34.15 C34.31,34.2 34.24,34.21 34.21,34.15 C34.19,34.12 33.98,34.07 33.75,34.05 C33.5789768,34.044315 33.4100541,34.0105304 33.25,33.95 C33.1571817,33.8961153 33.0556507,33.8588872 32.95,33.84 C32.83,33.81 32.73,33.76 32.73,33.73 C32.73,33.69 32.68,33.67 32.61,33.67 C32.54,33.67 32.46,33.62 32.44,33.57 C32.4148903,33.5137698 32.3613344,33.4755157 32.3,33.47 C32.24,33.47 32.12,33.39 32.04,33.3 C31.9850068,33.2308819 31.9170748,33.1731397 31.84,33.13 C31.77,33.13 31.54,32.9 31.54,32.83 C31.54,32.79 31.43,32.66 31.3,32.55 C31.17,32.44 31.07,32.3 31.07,32.24 C31.0681054,32.1749873 31.029283,32.1167537 30.97,32.09 C30.91,32.07 30.87,32.01 30.87,31.96 C30.87,31.91 30.84,31.86 30.81,31.86 C30.77,31.86 30.73,31.76 30.71,31.63 C30.68,31.5 30.63,31.4 30.61,31.4 C30.57,31.4 30.52,31.31 30.5,31.2 C30.48,31.09 30.43,31 30.4,31 C30.36,31 30.33,30.93 30.33,30.83 C30.33,30.74 30.31,30.67 30.27,30.67 C30.24,30.67 30.19,30.52 30.17,30.33 C30.14,30.15 30.09,30 30.06,30 C30.03,30 30,29.93 30,29.83 C30,29.74 29.97,29.67 29.94,29.67 C29.91,29.67 29.86,29.43 29.84,29.13 C29.81,28.84 29.76,28.6 29.74,28.6 C29.7,28.6 29.66,28.27 29.63,27.87 C29.6,27.47 29.56,27.11 29.53,27.09 C29.4753849,26.8507584 29.4551813,26.6049485 29.47,26.36 L29.47,25.66 L29.83,25.66 C30.03,25.66 30.2,25.7 30.2,25.73 M19.13,30.87 C19.13,30.94 19.16,31 19.19,31 C19.23,31 19.28,31.12 19.3,31.27 C19.32,31.41 19.37,31.53 19.4,31.53 C19.43,31.53 19.48,31.67 19.5,31.83 C19.53,32 19.58,32.13 19.6,32.13 C19.64,32.13 19.67,32.23 19.67,32.37 C19.67,32.49 19.69,32.6 19.73,32.6 C19.76,32.6 19.81,32.76 19.83,32.97 C19.86,33.17 19.91,33.33 19.94,33.33 C19.97,33.33 20,33.45 20,33.59 C20,33.74 20.03,33.87 20.06,33.88 C20.1,33.89 20.15,34.2 20.17,34.57 C20.2,34.93 20.25,35.25 20.29,35.27 C20.39,35.34 20.39,39.19 20.29,39.25 C20.25,39.28 20.2,39.45 20.18,39.63 C20.15,39.82 20.1,39.98 20.07,39.99 C20.03,40 20,40.07 20,40.14 C20,40.21 19.97,40.27 19.93,40.27 C19.9,40.27 19.87,40.31 19.87,40.37 C19.87,40.42 19.82,40.49 19.77,40.51 C19.71,40.53 19.67,40.59 19.67,40.64 C19.67,40.76 19.24,41.2 19.11,41.2 C19.05,41.2 19,41.23 19,41.27 C19,41.3 18.88,41.33 18.73,41.33 C18.59,41.33 18.47,41.31 18.47,41.27 C18.47,41.24 18.39,41.2 18.3,41.17 C18.22,41.15 18.12,41.07 18.1,41 C18.08,40.93 18.03,40.87 18,40.87 C17.96,40.87 17.93,40.82 17.93,40.77 C17.93,40.71 17.9,40.67 17.87,40.67 C17.83,40.67 17.78,40.59 17.77,40.5 C17.74,40.4 17.69,40.33 17.67,40.33 C17.63,40.33 17.59,40.24 17.57,40.13 C17.54,40.03 17.5,39.93 17.47,39.93 C17.43,39.93 17.4,39.89 17.4,39.83 C17.4,39.79 17.37,39.73 17.34,39.73 C17.3,39.71 17.25,39.52 17.23,39.3 C17.2,39.08 17.15,38.88 17.11,38.85 C17.01,38.79 17.01,35.8 17.11,35.75 C17.16,35.72 17.21,35.45 17.24,35.15 C17.26,34.85 17.31,34.6 17.34,34.6 C17.37,34.6 17.4,34.51 17.4,34.4 C17.4,34.29 17.43,34.2 17.46,34.2 C17.49,34.2 17.54,34.05 17.56,33.87 C17.59,33.68 17.64,33.53 17.66,33.53 C17.69,33.53 17.74,33.41 17.76,33.27 C17.78,33.12 17.83,33 17.86,33 C17.9,33 17.93,32.93 17.93,32.83 C17.93,32.74 17.96,32.67 17.99,32.67 C18.03,32.67 18.08,32.57 18.1,32.47 C18.12,32.36 18.16,32.27 18.19,32.27 C18.24,32.27 18.47,31.77 18.47,31.67 C18.47,31.63 18.49,31.6 18.53,31.6 C18.56,31.6 18.61,31.52 18.63,31.42 C18.66,31.32 18.73,31.19 18.79,31.14 C18.8665459,31.0680934 18.9248268,30.978958 18.96,30.88 C19.02,30.7 19.13,30.68 19.13,30.87" id="Shape"></path>
        </g>
    </g>
</svg>