<?xml version="1.0" encoding="UTF-8"?>
<svg width="160px" height="72px" viewBox="0 0 160 72" version="1.1" xmlns="http://www.w3.org/2000/svg" xmlns:xlink="http://www.w3.org/1999/xlink">
    <!-- Generator: Sketch 49.2 (51160) - http://www.bohemiancoding.com/sketch -->
    <title>customer/code-for-america</title>
    <desc>Created with Sketch.</desc>
    <defs></defs>
    <g id="customer/code-for-america" stroke="none" stroke-width="1" fill="none" fill-rule="evenodd">
        <g id="code-for-america" transform="translate(20.000000, 12.000000)" fill="#000000">
            <path d="M30.0234,47.9262 L27.4038,41.9706 C26.0106,38.8026 24.8598,36.201 24.8478,36.1878 C24.8346,36.1752 24.8142,36.1746 24.8016,36.1866 C24.7896,36.1986 24.3234,38.7888 23.766,41.9418 C23.2092,45.0948 22.7358,47.6916 22.7148,47.7126 C22.6914,47.7354 22.2378,47.7468 21.5778,47.7402 L20.4798,47.7294 L20.4924,47.6292 C20.5176,47.439 24.0324,29.511 24.0486,29.4936 C24.0576,29.484 24.0834,29.4954 24.1068,29.5182 C24.1296,29.5416 25.4796,32.6124 27.1068,36.3426 C28.7328,40.0728 30.0876,43.1286 30.1164,43.1346 C30.1512,43.1406 31.1796,40.8228 33.1284,36.3474 C34.755,32.6094 36.1014,29.5338 36.12,29.5134 C36.1392,29.493 36.1656,29.487 36.1788,29.5008 C36.2178,29.5392 39.7596,47.643 39.7398,47.6988 C39.726,47.7378 39.4656,47.7492 38.6214,47.7492 C38.0166,47.7492 37.5132,47.7354 37.503,47.7192 C37.4928,47.7024 37.0302,45.1122 36.4746,41.9634 C35.919,38.814 35.4504,36.2214 35.433,36.2028 C35.4156,36.1836 35.3736,36.222 35.34,36.2874 C35.3058,36.3534 34.122,39.0354 32.7102,42.2484 C31.853695,44.202956 30.9922923,46.1553621 30.126,48.1056 C30.117,48.1146 30.0708,48.0336 30.0234,47.9256 L30.0234,47.9262 Z M93.2538,48.0864 C93.1205439,48.0654518 92.9871405,48.0454513 92.8536,48.0264 C91.0188,47.763 89.2236,46.8774 87.8454,45.5574 C87.0456,44.7912 86.4846,44.0214 85.9854,43.005 C85.0374,41.0742 84.8136,38.874 85.3482,36.735 C85.8258,34.824 86.9718,33.0408 88.5108,31.8138 C90.8748,29.9304 94.0938,29.2794 96.9582,30.1062 C97.7238,30.327 98.7702,30.8046 98.8608,30.9744 C98.9058,31.0584 98.9106,33.2748 98.8656,33.3876 C98.8398,33.453 98.8158,33.444 98.6382,33.3036 C97.8294,32.6628 96.7542,32.1594 95.7168,31.9362 C92.9196,31.335 90.1326,32.4642 88.5252,34.8516 C88.0038,35.6256 87.6252,36.5316 87.4182,37.4976 C87.318,37.9638 87.3102,38.0694 87.3102,38.9616 C87.3102,39.8532 87.318,39.9582 87.4182,40.4256 C87.7434,41.9436 88.4316,43.188 89.5248,44.2338 C91.2414,45.8766 93.6408,46.488 95.949,45.8718 C96.897,45.6186 97.767,45.1824 98.5266,44.5788 C98.7606,44.3934 98.838,44.3508 98.8644,44.3928 C98.9226,44.484 98.9094,46.8024 98.85,46.8786 C98.7204,47.0466 97.728,47.4846 96.924,47.7276 C96.663,47.8068 96.204,47.9196 95.9034,47.9772 C95.4162,48.0714 95.2476,48.0846 94.3554,48.0936 C93.8052,48.0996 93.3096,48.096 93.2544,48.087 L93.2544,48.0864 L93.2538,48.0864 Z M8.4516,29.4708 C8.4192,29.4708 0.504,46.6476 0.0516,47.7 C0.0336,47.7408 0.273,47.7486 1.2234,47.7402 L2.4174,47.7294 L3.3912,45.5904 C3.9264,44.4144 4.3848,43.4274 4.4088,43.398 C4.4448,43.3542 5.1702,43.3464 8.478,43.3548 L12.5022,43.365 L13.494,45.5478 L14.4858,47.73 L15.6504,47.7408 C16.7424,47.7504 16.8156,47.7468 16.8144,47.6808 C16.8108,47.5632 8.502,29.4708 8.4516,29.4708 L8.4516,29.4708 Z M8.4372,34.2984 C8.4504,34.2954 8.4684,34.3032 8.4828,34.3188 C8.5272,34.3668 11.5308,41.2104 11.5308,41.2632 C11.5308,41.2896 10.4676,41.3028 8.4426,41.3028 C5.5206,41.3028 5.3556,41.2992 5.3754,41.2332 C5.4054,41.1288 8.3982,34.3314 8.4252,34.3044 C8.42850772,34.3012418 8.43268877,34.2991512 8.4372,34.2984 L8.4372,34.2984 Z M45.255,38.9508 L45.2646,30.1518 L49.9674,30.1416 C53.7024,30.1332 54.6762,30.1416 54.7014,30.1818 C54.7434,30.2466 54.7434,32.0178 54.7014,32.0838 C54.6768,32.1222 53.8884,32.1354 51.0684,32.1438 L47.4666,32.1534 L47.4666,37.0386 L50.9706,37.059 L54.474,37.0788 L54.474,39.081 L50.97,39.1008 L47.466,39.1206 L47.466,45.7278 L51.0678,45.738 C53.8878,45.7458 54.6762,45.759 54.7008,45.798 C54.738,45.8556 54.7458,47.592 54.7098,47.6862 C54.6876,47.7438 54.2322,47.7498 49.9644,47.7498 L45.2442,47.7498 L45.2544,38.9508 L45.255,38.9508 Z M62.0868,30.1356 C61.1868,30.1326 60.9576,30.1446 60.936,30.1776 C60.8976,30.2382 60.8868,47.5872 60.9252,47.6862 C60.9462,47.742 61.0812,47.7498 62.022,47.7498 C62.9628,47.7498 63.0978,47.742 63.1188,47.6862 C63.132,47.6514 63.1428,45.975 63.1428,43.9614 L63.1428,40.2996 L63.5916,40.3104 L64.0398,40.3224 L66.6246,44.0358 L69.2088,47.7498 L70.5204,47.7498 C71.3916,47.7498 71.832,47.736 71.832,47.7084 C71.832,47.6862 70.6134,45.9876 69.1236,43.9344 C67.6338,41.8818 66.4128,40.1778 66.4104,40.1472 C66.408,40.1094 66.5142,40.0692 66.747,40.0212 C67.6870688,39.8339392 68.545562,39.3587693 69.2034,38.6616 C70.6584,37.1388 70.9752,34.6884 69.9654,32.7726 C69.2772,31.4682 68.133,30.6528 66.5454,30.3366 C65.7354,30.1758 65.5164,30.1632 63.2286,30.1434 C62.7624,30.1392 62.3874,30.1374 62.0874,30.1362 L62.0868,30.1356 L62.0868,30.1356 Z M63.1632,32.1138 L63.954,32.1198 C64.7922,32.127 65.2488,32.1702 65.8662,32.301 C66.9822,32.5374 67.7994,33.0828 68.1786,33.8436 C68.4246,34.338 68.4816,34.6554 68.4594,35.4096 C68.4432,35.9652 68.4282,36.0762 68.3274,36.3738 C67.929,37.551 66.9294,38.1942 65.1792,38.3976 C64.878,38.433 64.3158,38.46 63.8934,38.46 L63.1422,38.46 L63.1524,35.2872 L63.1626,32.1132 L63.1632,32.1138 Z M77.0556,47.6994 C77.0454,47.6718 77.0412,43.7124 77.0472,38.901 L77.0574,30.1518 L79.2198,30.1518 L79.23,38.9508 L79.2396,47.7498 L78.1572,47.7498 C77.3286,47.7498 77.0706,47.7378 77.0562,47.7 L77.0556,47.6994 Z M111.564,29.454 C111.5496,29.451 111.5304,29.4582 111.516,29.4738 C111.4578,29.5344 103.1838,47.6244 103.1838,47.691 C103.1838,47.7432 103.3338,47.7498 104.349,47.7408 L105.513,47.73 L106.506,45.5478 L107.4984,43.3656 L111.5226,43.3554 C114.8082,43.347 115.5546,43.3548 115.5906,43.3974 C115.6146,43.4268 116.073,44.4138 116.6088,45.5904 L117.5844,47.73 L118.7772,47.7408 C119.727,47.7492 119.9652,47.7408 119.9484,47.7006 C119.8086,47.3748 111.594,29.4798 111.5754,29.4618 C111.572126,29.4584812 111.567956,29.4561878 111.5634,29.4552 L111.5634,29.454 L111.564,29.454 Z M111.5622,34.2978 C111.566535,34.2985563 111.570522,34.300655 111.5736,34.3038 C111.6,34.3302 114.5964,41.1342 114.6252,41.2332 C114.6438,41.2992 114.4794,41.3034 111.5574,41.3034 C109.6086,41.3034 108.4692,41.289 108.4692,41.265 C108.4692,41.2122 111.4728,34.3656 111.5166,34.3188 C111.531,34.3038 111.549,34.296 111.5622,34.2978 L111.5622,34.2978 Z M100.3122,4.2618 C99.9489278,4.26021667 99.5863813,4.29438125 99.2298,4.3638 C97.2762,4.7676 95.0676,6.528 93.1746,9.1902 C92.8326,9.672 91.9746,11.0064 91.503,11.793 L91.227,12.2532 L90.0768,12.2736 C89.1144,12.2898 88.92,12.3036 88.8864,12.3534 C88.8078,12.4716 88.7292,12.6306 88.7292,12.6714 C88.7292,12.7002 89.0766,12.7134 89.7906,12.7134 C90.7038,12.7134 90.852,12.7224 90.852,12.7734 C90.852,12.8064 90.774,12.9552 90.678,13.1034 C90.36,13.6014 89.7072,14.7246 89.0088,15.9774 C86.3988,20.6616 85.1796,22.566 83.7018,24.2724 C82.4448,25.7226 80.9838,26.8284 79.8006,27.2226 C78.9318,27.5118 77.9094,27.5592 77.1006,27.348 C76.2402,27.123 75.6504,26.4948 75.4548,25.5948 C75.3504,25.113 75.3858,24.2862 75.528,23.886 C75.6576,23.5212 75.9372,23.103 76.212,22.86 C76.4784,22.626 77.028,22.3512 77.358,22.2882 C77.7942,22.2042 77.8578,22.1826 77.8716,22.1118 C77.8962,21.9816 77.6976,21.9474 76.8978,21.9456 C76.188,21.9444 76.1106,21.9516 75.7368,22.0542 C74.4912,22.398 73.6632,23.1678 73.4568,24.1734 C73.38,24.5502 73.3788,24.846 73.4538,25.2648 C73.6002,26.0844 74.1978,26.7708 75.162,27.2256 C75.732,27.4944 76.074,27.582 77.178,27.7446 C77.244,27.7542 77.6766,27.756 78.1392,27.7482 C79.7892,27.7212 80.9082,27.4518 82.3854,26.727 C83.0334,26.409 83.9796,25.8114 84.5058,25.3872 C85.0398,24.9576 85.7298,24.3084 86.1864,23.8068 C87.7482,22.0944 89.4654,19.482 91.4136,15.8562 C92.1852,14.421 93.0936,12.8532 93.2076,12.7626 C93.2946,12.6936 98.1546,12.6894 98.1312,12.7584 C98.1228,12.7836 97.9368,12.9174 97.7172,13.0548 C95.6088,14.3802 94.3476,16.44 94.4712,18.3588 C94.5204,19.128 94.74,19.6482 95.2152,20.1204 C95.6844,20.5866 96.1884,20.8086 96.9366,20.8764 C98.9154,21.0582 101.1846,19.998 102.63,18.216 C103.1946,17.52 103.7484,16.5 103.9932,15.7056 C104.0664,15.4686 104.1414,15.2754 104.16,15.2754 C104.1786,15.2754 104.3124,15.3834 104.457,15.516 C104.9172,15.9378 105.4176,16.1058 106.0446,16.0482 C106.2906,16.026 106.3188,16.0302 106.2966,16.089 C106.2828,16.125 105.9138,16.7538 105.4758,17.487 C104.3598,19.3566 103.746,20.4168 103.746,20.4762 C103.746,20.5164 103.9596,20.5212 104.7768,20.5014 C105.3438,20.4876 105.8658,20.4678 105.9372,20.457 C106.038,20.4414 106.0878,20.4 106.1622,20.2686 C107.5308,17.8548 108.5178,16.4832 109.911,15.0606 C110.583,14.3736 111.036,13.9698 111.6372,13.5198 C112.1274,13.1538 112.188,13.1448 112.0344,13.464 C111.759,14.0334 111.7722,14.8698 112.0644,15.4068 C112.377,15.981 112.977,16.2768 113.8362,16.281 C114.7356,16.2852 115.4412,16.0488 116.2464,15.4746 C116.6706,15.1722 117.3294,14.5068 117.2946,14.4162 C117.2814,14.382 117.2538,14.3538 117.2328,14.3538 C117.2124,14.3538 117.0288,14.5128 116.8248,14.7066 C116.118,15.3798 115.5996,15.6768 115.0752,15.7074 C114.6726,15.7302 114.414,15.648 114.222,15.4356 C114.048,15.2436 113.997,15.0648 113.997,14.6544 C113.997,14.0184 114.213,13.4286 114.762,12.5616 C115.1124,12.009 115.1394,11.9598 115.11,11.931 C115.0662,11.8866 113.6688,11.9868 113.4156,12.0522 C113.0526,12.1458 112.7874,12.2964 112.4658,12.5904 C112.3056,12.7374 112.0038,12.9732 111.7956,13.1154 C110.9904,13.6632 109.8612,14.6658 109.1376,15.4746 C108.5556,16.1268 108.2952,16.395 108.3444,16.2954 C108.366,16.2504 109.0158,15.3234 109.788,14.2344 C110.5608,13.146 111.1788,12.2412 111.162,12.2244 C111.1452,12.2076 110.5644,12.213 109.8708,12.237 C108.7962,12.2748 108.6012,12.291 108.546,12.3468 C108.51,12.3828 108.1116,13.0428 107.6604,13.8132 C107.350025,14.3449534 107.038023,14.8757559 106.7244,15.4056 C106.563,15.672 106.386,15.7356 105.8082,15.7356 C105.2808,15.7356 105.105,15.6714 104.772,15.3564 C104.4978,15.0972 104.3286,14.7558 104.2218,14.2464 C104.0706,13.5264 103.7916,13.0224 103.2966,12.5736 C102.7842,12.1092 102.2448,11.9364 101.3034,11.9358 C100.6452,11.9358 100.2852,11.9868 99.6414,12.1734 L99.3006,12.2724 L96.4182,12.2724 C94.5522,12.2724 93.5358,12.258 93.5358,12.2328 C93.5358,12.1872 94.5468,10.3974 95.0286,9.5892 C95.7606,8.3616 96.6462,7.1022 97.3668,6.2634 C98.484,4.9632 99.5184,4.3656 100.266,4.5894 C101.0394,4.8216 101.2092,6.1224 100.6428,7.4688 C100.5876,7.5984 100.5432,7.7316 100.5432,7.7634 C100.5432,7.8498 100.9272,7.8858 101.2854,7.8324 C102.042,7.7196 102.5802,7.3836 102.8196,6.8724 C102.915,6.669 102.9252,6.6 102.9252,6.186 C102.9252,5.7504 102.9186,5.7108 102.7968,5.454 C102.6198,5.0796 102.33,4.8 101.9028,4.5906 C101.711654,4.49718129 101.512945,4.42010628 101.3088,4.3602 C101.0418,4.2942 100.6848,4.2606 100.314,4.2612 L100.3122,4.2624 L100.3122,4.2618 Z M101.2038,12.2094 C101.2854,12.2094 101.3658,12.2154 101.4438,12.2304 C101.9856,12.3306 102.2232,12.7056 102.2232,13.4592 C102.2232,14.9814 101.0076,17.733 99.648,19.2852 C99.1464,19.8588 98.5662,20.3094 98.1048,20.4852 C97.8108,20.5968 97.263,20.6274 97.038,20.5452 C96.816,20.463 96.591,20.1996 96.5118,19.9278 C96.4614,19.7538 96.4518,19.5948 96.4686,19.1832 C96.5004,18.4056 96.753,17.5254 97.2852,16.338 C98.3964,13.8606 99.9762,12.2142 101.2032,12.2094 L101.2038,12.2094 Z M9.6882,20.8572 C6.6984,20.5842 4.1406,19.0416 2.4594,16.4964 C1.5219095,15.0623853 0.938114575,13.4263612 0.756,11.7228 C0.6936,11.115 0.7302,9.384 0.8172,8.85 C1.2054,6.4602 2.1708,4.4508 3.6822,2.8878 C4.26,2.2896 4.7298,1.8954 5.3442,1.4922 C6.459,0.7602 7.7172,0.2844 9.0882,0.075 C9.669,-0.0144 11.1282,-0.0246 11.6904,0.0558 C12.6054,0.1866 13.6458,0.5064 14.4246,0.897 L14.8944,1.1226 L14.8944,5.7216 L14.544,5.3796 C12.9102,3.7878 10.7376,3.2712 8.7,3.99 C6.4902,4.7688 4.941,7.0932 4.7274,9.951 C4.6206,11.3814 4.9476,12.909 5.6232,14.1318 C6.5142,15.7446 7.9296,16.8102 9.57,17.103 C10.0764,17.193 10.92,17.196 11.3916,17.1048 C12.5485266,16.877485 13.6170308,16.3260661 14.4726,15.5148 C14.6796,15.3198 14.8788,15.1404 14.8926,15.1404 C14.8926,16.7598 14.8986,18.7464 14.8986,19.7064 L14.5968,19.8396 C13.758,20.2452 12.4704,20.6526 11.6304,20.7834 C11.2374,20.844 10.0434,20.8902 9.6882,20.8572 L9.6882,20.8572 Z M30.3582,0.0006 C29.8128,-0.0036 29.2674,0.0138 28.9482,0.054 C27.6072,0.222 26.2782,0.666 25.2126,1.3014 C22.479,2.9292 20.7882,5.835 20.4948,9.4104 C20.439,10.0884 20.472,11.424 20.5602,12.0684 C20.9934,15.24 22.4772,17.7564 24.8412,19.326 C26.0988,20.1612 27.633,20.6832 29.2884,20.8392 C29.8932,20.8962 31.239,20.8578 31.854,20.766 C33.8976,20.46 35.6028,19.6404 37.0002,18.291 C38.589,16.7562 39.5766,14.748 39.969,12.2532 C40.0464,11.7612 40.0572,11.5356 40.0572,10.4112 C40.0572,8.9736 40.0104,8.532 39.7422,7.4484 C38.7372,3.3876 35.7636,0.6372 31.7712,0.0756 C31.4508,0.0306 30.9048,0.0048 30.3588,0.0006 L30.3582,0.0006 Z M30.4386,3.8094 C31.3464,3.8334 32.2446,4.0704 33.0114,4.5156 C34.2534,5.2362 35.1654,6.3918 35.697,7.92 C36.321,9.7122 36.1608,12.0768 35.292,13.9116 C34.7682,15.0174 33.849,15.9876 32.8524,16.4886 C32.556,16.6368 31.98,16.833 31.5708,16.9242 C31.2918,16.9866 31.0296,17.0082 30.4098,17.0178 C29.5644,17.0316 29.5518,17.031 29.0478,16.932 C27.999,16.7268 27.123,16.2624 26.3838,15.5202 C25.4196,14.55 24.78,13.128 24.5358,11.4126 C24.453,10.8246 24.474,9.543 24.5766,8.9808 C24.9498,6.9318 26.1708,5.1906 27.807,4.374 C28.6134,3.972 29.5308,3.7848 30.4386,3.8094 L30.4386,3.8094 Z M45.9456,0.5214 L45.9456,20.3148 C45.9624,20.3586 46.5336,20.3646 49.179,20.3508 C52.1952,20.3358 52.4244,20.3298 52.9128,20.2512 C54.1092,20.0592 54.9948,19.7802 55.944,19.2948 C58.2984,18.0906 60.0234,15.8784 60.7002,13.1964 C60.9612,12.162 61.0002,11.814 61.0002,10.4514 C61.0002,9.4542 60.9864,9.1236 60.9294,8.7696 C60.378,5.3448 58.5966,2.8074 55.7958,1.4574 C55.1628,1.152 54.7608,1.0074 54.0342,0.8214 C52.8726,0.5262 52.7958,0.5214 49.1694,0.5214 L45.9456,0.5214 L45.9456,0.5214 Z M50.1972,3.8676 C50.6232,3.8706 51.4002,3.9156 51.8112,3.9672 C54.7596,4.3434 56.4138,5.9232 56.9238,8.85 C57.027,9.4386 57.027,11.352 56.9238,11.973 C56.6778,13.4598 56.214,14.448 55.3602,15.3012 C54.4518,16.2102 53.3166,16.707 51.7266,16.8942 L51.7122,16.8882 C51.1818,16.95 49.9278,17.0034 49.845,16.9674 C49.845,16.9674 49.8096,9.6474 49.8096,3.9066 L49.9158,3.8796 C49.953,3.8706 50.0562,3.867 50.1978,3.8676 L50.1972,3.8676 Z M66.912,20.3076 C66.8784,20.2674 66.87,17.6466 66.8766,10.3872 L66.8868,0.5214 L77.1372,0.5214 L77.1372,3.8448 L73.9542,3.8652 C72.2034,3.8772 70.7658,3.8904 70.7604,3.8952 C70.7544,3.9006 70.7544,4.8732 70.7604,6.057 L70.7706,8.2092 L73.7898,8.2194 C75.9546,8.2266 76.8246,8.2422 76.8636,8.2746 C76.908,8.3118 76.9158,8.6166 76.9074,9.9462 L76.8972,11.5722 L73.8336,11.5932 C72.1488,11.6052 70.7664,11.6184 70.7604,11.6232 C70.755,11.6286 70.7508,12.831 70.7508,14.2956 C70.7508,15.7596 70.755,16.9626 70.7604,16.9674 C70.7664,16.9728 72.2028,16.986 73.9536,16.9974 L77.1372,17.0184 L77.1474,18.6354 C77.1552,19.7958 77.145,20.2674 77.1126,20.307 C77.0448,20.388 66.9786,20.3886 66.9114,20.307 L66.912,20.3076 Z" id="Shape"></path>
        </g>
    </g>
</svg>