<?xml version="1.0" encoding="UTF-8"?>
<svg width="160px" height="72px" viewBox="0 0 160 72" version="1.1" xmlns="http://www.w3.org/2000/svg" xmlns:xlink="http://www.w3.org/1999/xlink">
    <!-- Generator: Sketch 49.2 (51160) - http://www.bohemiancoding.com/sketch -->
    <title>customer/csiro</title>
    <desc>Created with Sketch.</desc>
    <defs></defs>
    <g id="customer/csiro" stroke="none" stroke-width="1" fill="none" fill-rule="evenodd">
        <g id="csiro" transform="translate(44.000000, 0.000000)" fill="#000000" fill-rule="nonzero">
            <path d="M4.09272616e-14,36 C4.09272616e-14,16.1183176 16.11648,0 36.00072,0 C55.88352,0 72,16.1183176 72,36 C72,55.8816824 55.8828,72 36.00072,72 C16.11648,72 0,55.8816824 0,36 Z M32.9294118,9.05076551 C31.9639059,9.05076551 31.1767059,9.82523255 31.1767059,10.7775123 L31.1767059,25.559501 C31.1767059,26.5137302 31.9639059,27.2862479 32.9294118,27.2862479 C33.8949176,27.2862479 34.6801412,26.5137302 34.6801412,25.559501 L34.6801412,10.7775123 C34.6801412,9.82523255 33.8949176,9.05076551 32.9294118,9.05076551 Z M44.6583529,9.05076551 C43.6928471,9.05076551 42.9076235,9.82523255 42.9076235,10.7775123 L42.9076235,32.1923197 C42.9076235,33.1445995 43.6928471,33.9190666 44.6583529,33.9190666 C45.6258353,33.9190666 46.4090824,33.1445995 46.4090824,32.1923197 L46.4090824,10.7775123 C46.4090824,9.82523255 45.6258353,9.05076551 44.6583529,9.05076551 Z M21.2004706,17.3405705 C20.2329882,17.3405705 19.4497412,18.1130882 19.4497412,19.0673173 L19.4497412,28.8769547 C19.4497412,29.8292345 20.2329882,30.6037015 21.2004706,30.6037015 C22.1659765,30.6037015 22.9492235,29.8292345 22.9492235,28.8769547 L22.9492235,19.0673173 C22.9492235,18.1130882 22.1659765,17.3405705 21.2004706,17.3405705 Z M50.5242353,17.3405705 C49.5587294,17.3405705 48.7735059,18.1130882 48.7735059,19.0673173 L48.7735059,28.8769547 C48.7735059,29.8292345 49.5587294,30.6037015 50.5242353,30.6037015 C51.4897412,30.6037015 52.2729882,29.8292345 52.2729882,28.8769547 L52.2729882,19.0673173 C52.2729882,18.1130882 51.4897412,17.3405705 50.5242353,17.3405705 Z M27.0649412,12.3665483 C26.0974588,12.3665483 25.3142118,13.1410153 25.3142118,14.0932951 L25.3142118,27.2176013 C25.3142118,28.1698811 26.0974588,28.9443481 27.0649412,28.9443481 C28.0304471,28.9443481 28.8156706,28.1698811 28.8156706,27.2176013 L28.8156706,14.0932951 C28.8156706,13.1410153 28.0304471,12.3665483 27.0649412,12.3665483 Z M38.796,14.0245093 C37.8264706,14.0245093 37.0412471,14.7989763 37.0412471,15.7512561 L37.0412471,30.5332448 C37.0412471,31.4855246 37.8264706,32.2599916 38.796,32.2599916 C39.7615059,32.2599916 40.5447529,31.4855246 40.5447529,30.5332448 L40.5447529,15.7512561 C40.5447529,14.7989763 39.7615059,14.0245093 38.796,14.0245093 Z M46.5508235,37.4402321 C46.5508235,36.4108815 45.7034824,35.5771668 44.6578588,35.5771668 C43.6142118,35.5771668 42.7689176,36.4108815 42.7689176,37.4402321 C42.7689176,38.4695826 43.6142118,39.3032973 44.6578588,39.3032973 C45.7034824,39.3032973 46.5508235,38.4695826 46.5508235,37.4402321 Z M55.5967059,53.8936187 C58.9659529,53.8936187 61.4157882,51.384468 61.4157882,48.3241257 L61.4157882,48.2925176 C61.4157882,45.2302259 58.998,42.7526833 55.6287529,42.7526833 C52.2595059,42.7526833 49.8096706,45.261834 49.8096706,48.3241257 L49.8096706,48.3557338 C49.8096706,51.4180951 52.2274588,53.8936187 55.5967059,53.8936187 Z M45.6413647,53.7091223 L45.6412941,53.7088438 L48.4497176,53.7088438 L45.7815529,49.8621989 C47.1717176,49.3525015 48.1212,48.2618843 48.1212,46.5233019 L48.1212,46.4916938 C48.1212,44.2769715 46.5748235,42.9394076 44.0028,42.9394076 L39.0110118,42.9394076 L39.0110118,53.7091223 L41.4127765,53.7091223 L41.4127765,50.2634959 L43.3017176,50.2634959 L45.6413647,53.7091223 Z M33.5361882,53.7085236 L35.9379529,53.7085236 L35.9379529,48.1726577 L35.9379529,42.9390873 L33.5361882,42.9390873 L33.5361882,48.1726577 L33.5361882,53.7085236 Z M26.8701882,53.8628252 L26.8701882,53.8627556 C29.2258588,53.8627556 30.8784706,52.6654785 30.8784706,50.5238586 L30.8784706,50.4941999 C30.8784706,48.61728 29.6325176,47.8309565 27.4170353,47.2619627 C25.5280941,46.7838734 25.0613647,46.5546802 25.0613647,45.849347 L25.0613647,45.8157896 C25.0613647,45.2922655 25.5441176,44.8773644 26.4655765,44.8773644 C27.3870353,44.8773644 28.3384941,45.2784456 29.304,45.938323 L30.5519294,44.1542779 C29.4461647,43.2770847 28.0880471,42.7831566 26.4955765,42.7831566 C24.2660471,42.7831566 22.6735765,44.0772072 22.6735765,46.0311978 L22.6735765,46.0628059 C22.6735765,48.198508 24.0957882,48.801101 26.2932,49.3542908 C28.1180753,49.8166457 28.4926588,50.122854 28.4926588,50.7234628 L28.4926588,50.7550708 C28.4926588,51.3853035 27.9017647,51.7705667 26.9202353,51.7705667 C25.6703294,51.7705667 24.6407294,51.2607997 23.6571529,50.4626615 L22.2389647,52.1400468 C23.5490118,53.2938245 25.2175765,53.8628252 26.8701882,53.8628252 Z M16.1923059,53.8931801 L16.1922353,53.8932497 C18.2995059,53.8932497 19.5454588,53.1542895 20.6692235,51.9708671 L19.1408471,50.4476233 C18.2835529,51.2161447 17.5203529,51.7100658 16.2703765,51.7100658 C14.3994353,51.7100658 13.1034353,50.1690686 13.1034353,48.3237567 L13.1034353,48.294098 C13.1034353,46.4467672 14.4295059,44.937378 16.2703765,44.937378 C17.3620941,44.937378 18.2194588,45.4016126 19.0647529,46.1524084 L20.5911529,44.4157754 C19.5775059,43.4318806 18.3476471,42.7522447 16.2864,42.7522447 C12.9312,42.7522447 10.5935294,45.2613954 10.5935294,48.3236871 L10.5935294,48.3552951 C10.5935294,51.4472455 12.9792706,53.8931801 16.1923059,53.8931801 Z M58.9058824,48.3241257 C58.9058824,46.4788139 57.5317412,44.9378166 55.5967059,44.9378166 C53.6616706,44.9378166 52.3216235,46.4472058 52.3216235,48.2925176 L52.3216235,48.3241257 C52.3216235,50.1694376 53.6917412,51.7084854 55.6288235,51.7084854 C57.5638588,51.7084854 58.9059529,50.2010456 58.9059529,48.3557338 L58.9059529,48.3241257 L58.9058824,48.3241257 Z M45.6854118,46.616107 C45.6854118,45.6006111 44.9702824,45.0770591 43.8004941,45.0770591 L41.4127765,45.0770591 L41.4127765,48.1709589 L43.8465882,48.1709589 C45.0184235,48.1709589 45.6854824,47.5545461 45.6854824,46.6477151 L45.6854824,46.616107 L45.6854118,46.616107 Z" id="Combined-Shape"></path>
        </g>
    </g>
</svg>