<?xml version="1.0" encoding="UTF-8"?>
<svg width="160px" height="72px" viewBox="0 0 160 72" version="1.1" xmlns="http://www.w3.org/2000/svg" xmlns:xlink="http://www.w3.org/1999/xlink">
    <!-- Generator: Sketch 49.2 (51160) - http://www.bohemiancoding.com/sketch -->
    <title>customer/deloitte</title>
    <desc>Created with Sketch.</desc>
    <defs></defs>
    <g id="customer/deloitte" stroke="none" stroke-width="1" fill="none" fill-rule="evenodd">
        <g id="deloitte" transform="translate(10.000000, 23.000000)" fill="#000000" fill-rule="nonzero">
            <path d="M132.550698,22.4210815 C132.550698,20.4214402 134.203478,18.7990897 136.238149,18.7990897 C138.273929,18.7990897 139.924575,20.4214402 139.924575,22.4210815 C139.924575,24.4207229 138.273929,26.0420254 136.238149,26.0420254 C134.203478,26.0420254 132.550698,24.4207229 132.550698,22.4210815" id="path3356"></path>
            <path d="M14.9511585,12.8289823 C14.9511585,10.5348445 14.4998726,8.83284373 13.5972154,7.72402794 C12.6934486,6.61626018 11.3244826,6.06290031 9.48400095,6.06290031 L7.52615252,6.06290031 L7.52615252,20.0918306 L9.02417929,20.0918306 C11.068495,20.0918306 12.5665218,19.4965495 13.5203935,18.3017952 C14.4731556,17.109137 14.9511585,15.2845167 14.9511585,12.8289823 M21.9334143,12.5900315 C21.9334143,16.7695753 20.7896218,19.9901716 18.5020367,22.2507725 C16.2144517,24.5124213 12.9986022,25.6432457 8.85337863,25.6432457 L0.798860017,25.6432457 L0.798860017,0.598471632 L9.41571483,0.598471632 C13.4125868,0.598471632 16.4982659,1.62658911 18.672752,3.68177604 C20.8462139,5.738011 21.9334143,8.7060321 21.9334143,12.5900315" id="path3360"></path>
            <polygon id="path3362" points="44.2446237 25.6429355 50.6538737 25.6429355 50.6538737 0.49335841 44.2446237 0.49335841"></polygon>
            <path d="M59.6577401,16.2620185 C59.6577401,17.8655045 59.8711342,19.0885556 60.2968981,19.9290757 C60.7236864,20.7706438 61.4384714,21.1909039 62.4435577,21.1909039 C63.4379743,21.1909039 64.1411506,20.7706438 64.5508674,19.9290757 C64.9605841,19.0885556 65.1643328,17.8655045 65.1643328,16.2620185 C65.1643328,14.6669168 64.9573405,13.4637783 64.5423316,12.651555 C64.1262131,11.8372357 63.4166349,11.429552 62.4105243,11.429552 C61.4267774,11.429552 60.7236864,11.8351396 60.2968981,12.6421227 C59.8711342,13.4501539 59.6577401,14.6564365 59.6577401,16.2620185 M71.6877912,16.2620185 C71.6877912,19.3170261 70.8726257,21.7002465 69.2380267,23.4085355 C67.6045373,25.1178725 65.3179766,25.973065 62.3785152,25.973065 C59.5595788,25.973065 57.3156968,25.0990079 55.6501984,23.3508938 C53.9825659,21.6027797 53.1492192,19.2405199 53.1492192,16.2620185 C53.1492192,13.2164432 53.9654944,10.8499914 55.6000934,9.16266298 C57.2346071,7.4753346 59.52646,6.63167041 62.4777008,6.63167041 C64.3011962,6.63167041 65.9144558,7.02258562 67.3121874,7.80336801 C68.7109432,8.5841504 69.7908028,9.70239846 70.5493763,11.1591602 C71.3090593,12.6138259 71.6877912,14.3158267 71.6877912,16.2620185" id="path3366"></path>
            <polygon id="path3370" points="74.2331564 25.6430361 80.6435159 25.6430361 80.6435159 16.0179282 80.6435159 6.96190049 74.2331564 6.96190049"></polygon>
            <polygon id="path3372" points="74.2329003 4.70224709 80.6432599 4.70224709 80.6432599 0.49231038 74.2329003 0.49231038"></polygon>
            <path d="M93.6305117,20.8781717 C94.4958676,20.8781717 95.5265612,20.6622775 96.7289944,20.2336332 L96.7289944,24.934048 C95.8647482,25.3071467 95.0431809,25.5743944 94.2621583,25.7326469 C93.4811358,25.8929955 92.5645654,25.9726458 91.5157759,25.9726458 C89.3636535,25.9726458 87.8123636,25.4412945 86.8595161,24.3806881 C85.9110219,23.3200817 85.435153,21.691443 85.435153,19.493724 L85.435153,11.7927992 L83.1902468,11.7927992 L83.1902468,6.96347673 L85.435153,6.96347673 L85.435153,2.19284394 L91.8945932,1.0892683 L91.8945932,6.96347673 L95.9842489,6.96347673 L95.9842489,11.7927992 L91.8945932,11.7927992 L91.8945932,19.0640317 C91.8945932,20.2734584 92.4739156,20.8781717 93.6305117,20.8781717" id="path3376"></path>
            <path d="M108.46644,20.8781717 C109.331795,20.8781717 110.362489,20.6622775 111.564922,20.2336332 L111.564922,24.934048 C110.701786,25.3071467 109.879109,25.5743944 109.098086,25.7326469 C108.316039,25.8929955 107.402713,25.9726458 106.351704,25.9726458 C104.199667,25.9726458 102.648291,25.4412945 101.697578,24.3806881 C100.74695,23.3200817 100.271081,21.691443 100.271081,19.493724 L100.271081,11.7927992 L98.025065,11.7927992 L98.025065,6.96347673 L100.271081,6.96347673 L100.271081,2.12052987 L106.729411,1.0892683 L106.729411,6.96347673 L110.821286,6.96347673 L110.821286,11.7927992 L106.729411,11.7927992 L106.729411,19.0640317 C106.729411,20.2734584 107.308819,20.8781717 108.46644,20.8781717" id="path3380"></path>
            <path d="M119.653243,13.9862171 C119.740734,12.9633398 120.038462,12.2139983 120.546254,11.7350485 C121.056352,11.2571468 121.685864,11.018196 122.439146,11.018196 C123.260713,11.018196 123.913699,11.2864917 124.398104,11.8272752 C124.885667,12.3649146 125.139606,13.0849113 125.159921,13.9862171 L119.653243,13.9862171 Z M128.692618,8.83410137 C127.168984,7.3668593 125.007301,6.63219024 122.210814,6.63219024 C119.271267,6.63219024 117.009289,7.47585443 115.423771,9.16318281 C113.839277,10.8505112 113.04656,13.2714606 113.04656,16.4260311 C113.04656,19.4810386 113.903381,21.8370102 115.612667,23.4908016 C117.322979,25.144593 119.724687,25.9725368 122.817877,25.9725368 C124.303101,25.9725368 125.581331,25.8729739 126.65257,25.6748962 C127.717407,25.4789146 128.7481,25.1246805 129.747894,24.6132418 L128.763038,20.4033051 C128.036473,20.6946574 127.345077,20.9189359 126.69209,21.0667081 C125.748888,21.2815543 124.713927,21.3895014 123.587121,21.3895014 C122.351654,21.3895014 121.376443,21.0929089 120.661572,20.4997239 C119.946702,19.9054908 119.565751,19.0859313 119.522048,18.0420934 L130.979178,18.0420934 L130.979178,15.1736351 C130.979178,12.414172 130.217276,10.3002954 128.692618,8.83410137 Z" id="path3384"></path>
            <path d="M30.4402431,13.9862171 C30.5277347,12.9633398 30.8254622,12.2139983 31.3332548,11.7350485 C31.8422425,11.2571468 32.4727795,11.018196 33.2271704,11.018196 C34.0466038,11.018196 34.6995898,11.2864917 35.1851042,11.8272752 C35.6726671,12.3649146 35.9254964,13.0849113 35.9479455,13.9862171 L30.4402431,13.9862171 Z M39.4806426,8.83410137 C37.9559842,7.3668593 35.795326,6.63219024 32.9978144,6.63219024 C30.0571579,6.63219024 27.7962899,7.47585443 26.2117958,9.16318281 C24.6273871,10.8505112 23.8335609,13.2714606 23.8335609,16.4260311 C23.8335609,19.4810386 24.6892714,21.8370102 26.4006923,23.4908016 C28.1099792,25.144593 30.5116874,25.9725368 33.604878,25.9725368 C35.0901011,25.9725368 36.3683319,25.8729739 37.4395704,25.6748962 C38.5044071,25.4789146 39.5351007,25.1246805 40.5359192,24.6132418 L39.5500383,20.4033051 C38.8233887,20.6946574 38.1319917,20.9189359 37.4801153,21.0667081 C36.5347793,21.2815543 35.5009275,21.3895014 34.3741211,21.3895014 C33.1396788,21.3895014 32.1634433,21.0929089 31.448573,20.4997239 C30.732593,19.9054908 30.3527515,19.0859313 30.3090484,18.0420934 L41.766179,18.0420934 L41.766179,15.1736351 C41.766179,12.414172 41.0042766,10.3002954 39.4806426,8.83410137 Z" id="path3388"></path>
        </g>
    </g>
</svg>