<?xml version="1.0" encoding="UTF-8"?>
<svg width="160px" height="72px" viewBox="0 0 160 72" version="1.1" xmlns="http://www.w3.org/2000/svg" xmlns:xlink="http://www.w3.org/1999/xlink">
    <!-- Generator: Sketch 49.2 (51160) - http://www.bohemiancoding.com/sketch -->
    <title>customer/elsevier</title>
    <desc>Created with Sketch.</desc>
    <defs></defs>
    <g id="customer/elsevier" stroke="none" stroke-width="1" fill="none" fill-rule="evenodd">
        <g id="elsevier" transform="translate(0.000000, 23.000000)" fill="#000000">
            <path d="M49.9629643,0.158634751 C46.3848969,0.158627442 43.4486912,2.61405198 43.4487131,6.58821034 C43.4487131,9.68653214 45.9270031,11.308289 49.7343941,14.0456044 C52.6873202,16.1645111 54.6029653,17.7869039 54.6029397,19.698606 C54.6029434,22.052959 52.6656407,23.6157364 50.3629622,23.6157364 C46.8257338,23.6157438 44.7492594,20.3470727 43.4487131,17.3460437 L42.820145,17.3460437 L44.0772812,24.6435549 L44.7058493,24.6435549 C44.7655336,24.1350251 45.1734528,23.8555608 45.5629876,23.8555608 C46.1787046,23.8555717 48.6511541,24.871959 50.9915303,24.871959 C54.8868825,24.8719517 57.8943253,21.9600661 57.8943509,18.2025591 C57.8943509,14.8468314 55.0933417,12.7303439 52.1686669,10.9849894 C48.5937446,8.83155892 46.3515805,7.39974657 46.3515549,5.18352509 C46.3515549,3.05833999 47.9524643,1.49479877 49.9629643,1.49479877 C53.2425922,1.49480608 55.2607795,4.41747233 56.1686457,7.45614594 L56.7972138,7.45614594 L56.0886462,0.387038857 L55.3800785,0.387038857 C55.4743226,0.933242609 55.3843719,1.25500004 54.83151,1.25497446 C53.4335818,1.25497811 52.5294714,0.158660332 49.9629643,0.158634751 Z M0.0203716411,0.706804605 L0.0203716411,1.41485733 C2.618315,1.41486099 3.55178151,1.98057959 3.55178151,4.7838179 L3.55178151,20.2467759 C3.55178224,23.0500215 2.61829343,23.6157364 0.0203716411,23.6157364 L0.0203716411,24.3237892 L19.9631232,24.3237892 L21.7688279,18.5223249 L21.1402598,18.2825006 C20.2952229,20.9821567 18.4846798,22.8391881 15.5631465,22.8391625 L8.66032589,22.8391625 C7.16501623,22.8391698 7.08321698,22.1635066 7.08319138,20.0069516 L7.08319138,12.5495575 L13.9174409,12.5495575 C16.1289953,12.5495648 16.8623725,13.5992443 17.0602814,15.8499968 L17.6888495,15.8499968 L17.6888495,7.92437436 L17.0602814,7.92437436 C16.8309578,10.2190718 16.1635474,11.1448723 13.9174409,11.1448723 L7.08319138,11.1448723 L7.08319138,4.55541379 C7.08319248,2.56206721 7.03640214,2.1914313 8.50032674,2.1914313 L14.7060082,2.1914313 C17.4013374,2.1914313 18.754122,3.01099639 19.1059849,5.88015761 L19.803124,5.88015761 L19.4945542,0.706804605 L0.0203716411,0.706804605 Z M21.5402577,0.706804605 L21.5402577,1.41485733 C23.9434376,1.54670315 24.8316688,1.99792734 24.8316688,4.70387646 L24.8316688,20.3267173 C24.8316688,23.0326336 23.9434376,23.4838943 21.5402577,23.6157364 L21.5402577,24.3237892 L40.225873,24.3237892 L42.1915769,18.2825006 L41.4030096,18.1226177 C40.0333547,21.368463 38.4462984,22.8391881 34.968758,22.8391625 L30.3287826,22.8391625 C28.412523,22.8391698 28.3631043,21.7733558 28.3630787,19.8584889 L28.3630787,4.7838179 C28.3630787,1.98058324 29.2279482,1.41485733 31.8259175,1.41485733 L31.8259175,0.706804605 L21.5402577,0.706804605 Z M58.05435,0.706804605 L58.05435,1.41485733 C60.6491523,1.41486099 61.5057347,1.98057959 61.5057603,4.7838179 L61.5057603,20.2467759 C61.5057603,23.0500215 60.6491779,23.6157364 58.05435,23.6157364 L58.05435,24.3237892 L77.9971016,24.3237892 L79.7342352,18.5223249 L79.1056671,18.2825006 C78.2606302,20.9821567 76.4500615,22.8391881 73.5285538,22.8391625 L66.6943043,22.8391625 C65.1989906,22.8391698 65.0485987,22.1635066 65.0485987,20.0069516 L65.0485987,12.5495575 L71.8714197,12.5495575 C74.0798323,12.5495648 74.8194672,13.5992443 75.0142602,15.8499968 L75.7228279,15.8499968 L75.7228279,7.92437436 L75.0142602,7.92437436 C74.7849366,10.2190718 74.1143628,11.1448723 71.8714197,11.1448723 L65.0485987,11.1448723 L65.0485987,4.55541379 C65.0485987,2.56206721 65.0704354,2.1914313 66.5343051,2.1914313 L72.659987,2.1914313 C75.3553162,2.1914313 76.7881516,3.01099639 77.1399633,5.88015761 L77.7685314,5.88015761 L77.4485331,0.706804605 L58.05435,0.706804605 Z M77.9285305,0.706804605 L77.9285305,1.41485733 C79.0311679,1.41486099 80.038486,2.01571362 80.5913736,2.97942546 C81.8887783,5.25842701 82.8544089,7.65652029 83.8942132,10.0485325 L90.1798942,24.5636135 L90.6484632,24.5636135 L98.1912804,7.29626307 C98.7724412,5.92759988 100.019571,2.36358587 101.254121,1.72320288 C101.640511,1.50973457 102.041723,1.48077659 102.431258,1.41485733 L102.431258,0.706804605 L95.5170088,0.706804605 L95.5170088,1.41485733 C97.2102277,1.50903292 98.0312812,1.94277779 98.0312812,2.67107992 C98.0312849,3.37738947 97.8381412,4.24521178 97.1627144,5.81163638 L91.5056015,18.9106119 L86.797055,7.76449148 C85.889185,5.61419656 84.8313255,3.19993958 84.8313511,2.75102136 C84.8313548,1.42630678 86.6777559,1.41485733 87.5856222,1.41485733 L87.5856222,0.706804605 L77.9285305,0.706804605 Z M102.659828,0.706804605 L102.659828,1.41485733 C105.260913,1.41486099 106.19126,1.98057959 106.191238,4.7838179 L106.191238,20.2467759 C106.191238,23.0500215 105.260913,23.6157364 102.659828,23.6157364 L102.659828,24.3237892 L113.185487,24.3237892 L113.185487,23.6157364 C110.590688,23.6157438 109.654055,23.0499886 109.654077,20.2467759 L109.654077,4.7838179 C109.654073,1.98058324 110.590684,1.41485733 113.185487,1.41485733 L113.185487,0.706804605 L102.659828,0.706804605 Z M114.602622,0.706804605 L114.602622,1.41485733 C117.203704,1.41486099 118.134032,1.98057959 118.134032,4.7838179 L118.134032,20.2467759 C118.134036,23.0500215 117.203682,23.6157364 114.602622,23.6157364 L114.602622,24.3237892 L134.545374,24.3237892 L136.351078,18.5223249 L135.72251,18.2825006 C134.874328,20.9821567 133.073217,22.8391881 130.145397,22.8391625 L123.242576,22.8391625 C121.747263,22.8391698 121.665442,22.1635066 121.665442,20.0069516 L121.665442,12.5495575 L128.499691,12.5495575 C130.7081,12.5495648 131.441456,13.5992443 131.642532,15.8499968 L132.351099,15.8499968 L132.351099,7.92437436 L131.642532,7.92437436 C131.406922,10.2190718 130.742656,11.1448723 128.499691,11.1448723 L121.665442,11.1448723 L121.665442,4.55541379 C121.665442,2.56206721 121.621798,2.1914313 123.082577,2.1914313 L129.288259,2.1914313 C131.980443,2.1914313 133.403857,3.01099639 133.768235,5.88015761 L134.385374,5.88015761 L134.076805,0.706804605 L114.602622,0.706804605 Z M136.271079,0.706804605 L136.271079,1.41485733 C138.86271,1.41486099 139.813917,1.98057959 139.813917,4.7838179 L139.813917,20.2467759 C139.813917,23.0499959 138.862739,23.6157364 136.271079,23.6157364 L136.271079,24.3237892 L146.796737,24.3237892 L146.796737,23.6157364 C144.198768,23.6157438 143.345327,23.0500142 143.345327,20.2467759 L143.345327,13.8057801 L146.248169,13.8057801 L154.728124,24.3237892 L159.996667,24.3237892 L159.996667,23.6157364 C158.542193,23.2107961 158.035725,22.8269566 157.162397,21.7314026 L150.019577,12.9492647 C153.534841,12.1896036 155.98526,10.3976437 155.98526,6.5082689 C155.985278,0.995986131 151.024862,0.706804605 146.956736,0.706804605 L136.271079,0.706804605 Z M145.859599,1.96302719 C149.079547,1.96304912 151.985281,3.13307382 151.985281,6.98791752 C151.985285,11.1598446 148.653704,12.3211534 145.151032,12.3211534 L143.345327,12.3211534 L143.345327,3.68747819 C143.345353,2.08337605 143.717158,1.96302719 145.859599,1.96302719 Z" id="Shape"></path>
        </g>
    </g>
</svg>