<?xml version="1.0" encoding="UTF-8"?>
<svg width="160px" height="72px" viewBox="0 0 160 72" version="1.1" xmlns="http://www.w3.org/2000/svg" xmlns:xlink="http://www.w3.org/1999/xlink">
    <!-- Generator: Sketch 49.2 (51160) - http://www.bohemiancoding.com/sketch -->
    <title>customer/enigma</title>
    <desc>Created with Sketch.</desc>
    <defs></defs>
    <g id="customer/enigma" stroke="none" stroke-width="1" fill="none" fill-rule="evenodd">
        <g id="enigma" transform="translate(10.000000, 19.000000)" fill="#000000" fill-rule="nonzero">
            <path d="M135.073145,6.47991737 L135.073145,9.07202966 C133.772688,6.87233135 131.486861,5.89056972 128.609519,5.89056972 C122.776064,5.89056972 118.637652,9.97458174 118.637652,16.2975336 C118.637652,22.6197586 122.697293,26.7044974 128.688291,26.7044974 C131.683789,26.7044974 133.85146,25.7619772 135.073145,23.5622789 L135.073145,26.1151498 L140,26.1151498 L140,6.47991737 L135.073145,6.47991737 Z M129.713047,22.7767242 C126.126034,22.7767242 123.761435,20.1068558 123.761435,16.2975336 C123.761435,12.4882113 126.126034,9.8176162 129.713047,9.8176162 C133.378832,9.8176162 135.270803,12.6059354 135.270803,16.2975336 C135.270803,19.9891316 133.378832,22.7767242 129.713047,22.7767242 Z M113.316211,6.47991737 L113.316211,26.1151498 L108.389355,26.1151498 L108.389355,11.1140357 L101.491758,11.1140357 L101.491758,26.1151498 L96.564903,26.1151498 L96.564903,11.1140357 L89.6673057,11.1140357 L89.6673057,26.1151498 L84.7404505,26.1151498 L84.7404505,6.47991737 L113.316211,6.47991737 Z M75.5570259,21.245583 L79.2228103,24.7802156 L79.2228103,25.5650436 C79.2228103,30.4738516 75.9122262,33.9692428 69.250943,33.9692428 C62.668431,33.9692428 59.2790756,30.7885095 59.2790756,25.8797014 L64.6391731,25.9189428 C64.6391731,27.9609488 66.4129869,29.5313314 69.250943,29.5313314 C72.4039844,29.5313314 73.6657845,28.078673 73.8233272,26.0759084 L70.3938567,22.8559337 C70.0393857,22.8951752 69.6447996,22.8951752 69.250943,22.8951752 C63.4174881,22.8951752 59.5153896,19.9106489 59.5153896,14.4124931 C59.5153896,8.91433738 63.4174881,5.89056972 69.250943,5.89056972 C69.7243003,5.89056972 70.1969283,5.92981111 70.6695563,5.96905251 L70.6695563,-8.8817842e-16 L75.3600975,-8.8817842e-16 L75.3600975,7.3831962 C77.6466543,8.79661318 78.9864963,11.1532771 78.9864963,14.3732518 C78.9864963,17.5147436 77.7254256,19.8314394 75.5570259,21.245583 Z M64.4422448,14.4124931 C64.4422448,17.4362608 66.4523725,19.1250943 69.250943,19.1250943 C72.0495134,19.1250943 74.0596412,17.4362608 74.0596412,14.3732518 C74.0596412,11.3494841 72.0495134,9.66065061 69.250943,9.66065061 C66.4523725,9.66065061 64.4422448,11.3887255 64.4422448,14.4124931 Z M48.6770375,6.47991737 L53.6038927,6.44067597 L53.6038927,26.1151498 L48.6770375,26.1151498 L48.6770375,6.47991737 Z M25.106904,6.47991737 L42.3709546,6.47991737 L42.3709546,26.1151498 L37.4440994,26.1151498 L37.4440994,11.1140357 L30.0337591,11.1140357 L30.0337591,26.1151498 L25.106904,26.1151498 L25.106904,6.47991737 Z M19.9043491,15.4334961 L19.9043491,17.3577779 L5.16316919,17.3577779 C5.51764019,20.6954768 7.52776794,22.3450689 10.247567,22.3450689 C13.0855232,22.3450689 14.4253652,21.1278588 14.5836372,19.0073701 L19.5104924,19.0073701 C19.1552921,23.4837961 16.2385646,26.6645293 10.0506387,26.6645293 C4.05964115,26.6645293 0,22.6197586 0,16.2975336 C0,9.97458174 4.49288349,5.85132832 10.3263384,5.85132832 C16.0022506,5.85132832 19.9043491,9.54292642 19.9043491,15.4334961 Z M10.2081814,10.1715154 C7.5671536,10.1715154 5.79406923,11.8203808 5.28132619,14.6087001 L14.8199512,14.6087001 C14.6230229,11.7418981 12.9673662,10.1715154 10.2081814,10.1715154 Z" id="Combined-Shape"></path>
        </g>
    </g>
</svg>