<?xml version="1.0" encoding="UTF-8"?>
<svg width="160px" height="72px" viewBox="0 0 160 72" version="1.1" xmlns="http://www.w3.org/2000/svg" xmlns:xlink="http://www.w3.org/1999/xlink">
    <!-- Generator: Sketch 49.2 (51160) - http://www.bohemiancoding.com/sketch -->
    <title>customer/ftw</title>
    <desc>Created with Sketch.</desc>
    <defs></defs>
    <g id="customer/ftw" stroke="none" stroke-width="1" fill="none" fill-rule="evenodd">
        <g id="ftw" transform="translate(10.000000, 20.000000)" fill="#000000" fill-rule="nonzero">
            <path d="M66.7114094,21.9428571 C67.3717154,21.5724336 68.3435175,21.2857277 69.5302013,21.0285714 C69.1829053,20.1847513 69.080821,19.4793463 68.590604,19.2 C68.8951472,17.7945744 68.3499076,14.6141833 68.590604,13.7142857 C68.6837357,13.6278921 68.9709165,13.3940428 69.5302013,12.8 C70.8891901,13.0751098 71.3019799,14.5123963 71.409396,14.6285714 C71.3019799,14.5123963 71.6592329,17.7430937 71.409396,18.2857143 C71.8749993,18.9083172 71.9721208,19.4140127 72.3489933,20.1142857 C72.9003726,19.7618687 73.6599633,19.4832007 74.2281879,19.2 C74.1924204,17.9186034 74.3078078,16.6427275 75.1677852,14.6285714 C75.5089044,12.5663698 77.358054,10.9903005 78.9261745,10.9714286 C80.3862214,10.9537616 81.7360622,11.345903 82.6845638,12.8 C83.1503362,14.3533212 82.7247445,17.3126842 80.8053691,18.2857143 C79.7631248,19.8343362 79.1171211,20.1695606 78.9261745,20.1142857 C78.5456526,20.4211705 78.5486434,20.4270092 78.9261745,20.1142857 C78.2531112,20.5522574 77.9144128,20.6876351 77.9865772,21.0285714 C77.9524421,21.8054296 78.7325187,22.5067492 79.8657718,22.8571429 C83.9692705,22.3041359 83.6149853,18.1352351 85.5033557,19.2 C87.7903122,19.7867966 84.8806524,23.0899195 84.5637584,23.7714286 C83.3108005,24.5426045 82.519164,25.269991 79.8657718,25.6 C77.7991416,25.269991 75.6126021,24.1673935 75.1677852,21.9428571 C74.1620966,22.1385263 73.3807491,22.4268145 72.3489933,22.8571429 C72.7797704,23.9342524 72.940075,25.0259645 73.2885906,25.6 C72.8356086,26.0833746 72.7241732,26.9152234 71.409396,27.4285714 C70.9377629,27.3475578 69.9798278,26.1240895 69.5302013,25.6 C69.9136684,25.0847574 69.8264398,24.4558213 69.5302013,23.7714286 C68.7411128,23.9922417 67.7672421,24.2821027 66.7114094,24.6857143 C66.9771348,25.7119582 67.0909056,26.7673534 66.7114094,27.4285714 C66.9864729,27.8244217 66.8750014,28.0952016 65.7718121,28.3428571 C65.0885911,28.5275359 64.208025,27.5877666 63.8926174,26.5142857 C64.108476,26.0238987 63.60604,22.2340898 63.8926174,21.0285714 C63.3244621,19.6791023 62.8195504,16.1394548 62.9530201,15.5428571 C63.1533785,15.1531635 63.1991137,14.9022192 63.8926174,14.6285714 C65.1173874,14.5832861 65.6598255,15.7447034 65.7718121,15.5428571 C65.6598255,15.7447034 66.064276,19.6730341 65.7718121,21.0285714 C66.2769239,20.8214163 66.3492472,21.2629441 66.7114094,21.9428571 Z M77.0469799,18.2857143 C79.6604467,16.9069528 80.4706237,14.2800095 79.8657718,13.7142857 C78.356811,13.3377493 77.4931704,14.7120805 77.0469799,15.5428571 C77.192933,16.4150057 77.0664219,17.2948408 77.0469799,18.2857143 C77.0962484,18.2621813 77.1219305,18.2497743 77.0469799,18.2857143 Z M58.2550336,12.8 C58.6416792,13.9061861 58.7470912,16.1417229 59.1946309,20.1142857 C59.2831523,25.9819261 60.2034796,29.2571429 58.2550336,29.2571429 C56.1411305,29.2571429 56.1722817,23.0727517 56.3758389,21.0285714 C56.0123848,20.3866658 55.899756,16.3950026 55.4362416,13.7142857 C53.6142644,14.6370104 51.266929,15.4641971 50.738255,13.7142857 C50.2680321,12.0091687 52.2002707,11.6447985 57.3154362,10.0571429 C61.6597299,8.41086766 64.3399681,7.3308757 64.8322148,9.14285714 C65.218298,10.9971738 61.2398444,11.9552111 58.2550336,12.8 Z M31.9463087,11.8857143 C33.542536,9.86254427 35.096268,8.22857143 37.5838926,8.22857143 C40.1819025,8.22857143 41.8622002,10.6020613 42.2818792,11.8857143 C41.8622002,13.7093737 41.6966141,17.8544059 36.6442953,19.2 C37.4781786,21.2437879 39.7932017,22.8210907 41.3422819,22.8571429 C42.5851278,22.8210907 43.4144581,20.243357 45.1006711,21.0285714 C46.0007063,21.7172386 43.915671,25.2184869 41.3422819,25.6 C38.4626584,25.2184869 36.6097746,23.4931984 33.8255034,20.1142857 C33.9749657,20.2047653 33.8236363,20.0159448 33.8255034,20.1142857 C34.0115994,23.5428473 34.7844947,26.352029 32.885906,26.5142857 C30.8857913,26.6828839 30.978321,22.7873099 30.0671141,18.2857143 C29.9574403,14.5881938 29.8740745,13.0613024 29.1275168,12.8 C28.6586806,12.4914739 27.6408438,13.1756774 26.3087248,13.7142857 C27.1022899,14.9862433 27.463849,16.4892101 27.2483221,18.2857143 C27.463849,23.8006684 25.137753,25.3464641 23.4899329,25.6 C21.0089199,25.3464641 17.9497141,23.2024237 17.852349,18.2857143 C17.783746,14.754976 19.0309477,12.8581858 20.6711409,11.8857143 C21.0980738,11.8546829 21.5665374,11.6603093 22.5503356,11.8857143 C23.0517032,11.6603093 23.9476269,11.8091766 25.3691275,11.8857143 C25.90125,11.1349162 28.5997872,9.34996352 30.0671141,9.14285714 C30.7935117,9.34996352 31.5542173,10.4205308 31.9463087,11.8857143 Z M20.6711409,14.6285714 C20.7768107,15.3624953 20.6711409,16.1537516 20.6711409,17.3714286 C20.6711409,19.8204333 21.2354254,21.9428571 22.5503356,21.9428571 C24.3036271,21.9428571 24.4295302,19.492448 24.4295302,17.3714286 C24.4295302,16.7465764 24.2672705,15.497931 23.4899329,14.6285714 C23.7295711,14.7025889 23.5882281,14.7665467 23.4899329,14.6285714 C22.2166506,15.2832108 21.4719185,15.1972993 20.6711409,14.6285714 Z M8.45637584,8.22857143 C8.98418715,10.7792813 9.25524437,13.2556714 9.39597315,15.5428571 C9.7993827,15.6443718 10.0713528,15.5566051 10.3355705,15.5428571 C13.1885165,14.5169651 16.3863524,13.323199 16.9127517,14.6285714 C17.3029658,15.6518719 16.3969208,16.3817027 11.2751678,18.2857143 C10.7748856,18.3380473 10.2868895,18.508229 9.39597315,18.2857143 C10.4013806,23.8533547 10.8790685,28.432045 11.2751678,29.2571429 C10.8790685,30.5605191 10.2952302,30.9216434 9.39597315,31.0857143 C8.89865794,31.1766151 7.8118551,31.0852417 7.51677852,29.2571429 C7.52501053,27.9349054 7.10241817,24.103971 6.57718121,20.1142857 C5.51914665,19.907273 5.10189517,19.7251316 4.69798658,19.2 C4.20287873,18.1624876 5.02774281,17.4566817 6.57718121,16.4571429 C6.0900692,14.500443 5.84664077,12.1016038 5.63758389,10.0571429 C2.91095169,11.1366937 1.56183397,11.4904689 0.939597315,10.0571429 C0.452392734,8.83014281 2.44939092,7.79648027 5.63758389,6.4 C5.23301458,5.23800082 5.16338137,4.14569819 4.69798658,3.65714286 C5.16338137,0.268108507 6.79142683,0.978790693 6.57718121,0.914285714 C6.79142683,0.978790693 7.95910352,0.485168585 8.45637584,2.74285714 C8.17933586,3.3025442 8.27851625,4.2526944 8.45637584,5.48571429 C8.7972457,5.34202688 9.18842313,5.19089381 9.39597315,5.48571429 C14.4400957,3.11379309 19.9378424,0.762180416 20.6711409,2.74285714 C21.0632455,3.8445877 20.6396083,3.91546313 13.1543624,7.31428571 C11.2883479,7.56235419 9.93886266,8.12948233 8.45637584,8.22857143 Z M33.8255034,14.6285714 C33.8255034,15.0210355 36.9238917,16.2745741 38.5234899,14.6285714 C40.2873337,12.7829874 39.5857306,10.4985201 37.5838926,10.9714286 C35.2582401,11.614972 33.8255034,15.0210355 33.8255034,14.6285714 Z M94.8993289,6.4 C95.6517819,6.23624265 96.5016505,6.25040603 96.7785235,7.31428571 C97.1027475,7.65600494 97.9802656,16.8079579 98.6577181,18.2857143 C98.4982478,19.332795 99.9704173,12.4798899 102.416107,12.8 C104.789424,12.4798899 105.956408,20.082306 106.174497,19.2 C106.927096,15.9971562 109.693534,1.75418907 109.932886,0.914285714 C110.83331,0.911614199 111.017941,0.85852832 111.812081,0.914285714 C112.286749,1.05361238 112.928759,1.56799623 112.751678,1.82857143 C112.485017,2.92626248 111.5182,9.90783991 110.872483,10.9714286 C111.000501,12.7595714 109.536179,26.3647235 107.114094,26.5142857 C103.968161,26.6602261 102.568616,17.7176093 102.416107,17.3714286 C101.980631,17.7176093 99.954026,24.8706044 97.7181208,25.6 C96.2252294,25.5955013 95.6409164,23.9223808 94.8993289,17.3714286 C94.1890517,10.749761 93.0143942,6.41593975 94.8993289,6.4 Z M115.57047,7.31428571 C114.322283,7.31428571 113.691275,6.70027621 113.691275,6.4 C113.691275,5.18543808 114.322283,4.57142857 115.57047,4.57142857 C115.879059,4.57142857 116.510067,5.18543808 116.510067,6.4 C116.510067,6.70027621 115.879059,7.31428571 115.57047,7.31428571 Z M114.630872,10.9714286 C116.72231,11.1423741 116.372414,13.5649382 116.510067,14.6285714 C116.467472,15.2007803 116.567082,17.7072227 117.449664,17.3714286 C117.421974,17.9193015 117.899605,17.0626293 118.389262,16.4571429 C118.840834,15.3699605 121.096573,10.418731 124.026846,10.9714286 C126.720817,11.6258346 126.434378,14.6029854 126.845638,14.6285714 C126.434378,14.6029854 129.487369,11.4495355 131.543624,11.8857143 C133.111468,11.9440147 133.732065,13.0185227 133.422819,15.5428571 C133.395569,17.2202337 133.007308,18.7172898 134.362416,19.2 C135.04449,19.1961695 136.028318,16.9239053 136.241611,15.5428571 C137.07396,14.6560361 137.889666,13.1348998 139.060403,13.7142857 C141.021915,14.43461 138.760361,18.15317 138.120805,19.2 C137.756939,19.5435058 136.532178,21.967308 134.362416,21.9428571 C132.192107,21.9180334 130.937262,20.6836925 130.604027,19.2 C130.13331,17.6846281 130.7072,15.3796793 130.604027,14.6285714 C130.363372,14.4897653 129.155549,15.9769789 127.785235,18.2857143 C126.654706,19.9689634 126.186493,21.9414326 124.966443,21.9428571 C123.476824,21.4424965 123.400222,21.0552328 123.087248,20.1142857 C123.413621,18.4369942 123.820305,14.2864457 123.087248,13.7142857 C122.787493,13.7995806 120.842937,17.1800588 120.268456,18.2857143 C119.909798,18.966077 118.419392,20.9959301 117.449664,21.0285714 C116.067204,21.0699657 114.71869,20.4010446 114.630872,19.2 C113.834091,17.9729712 113.678799,15.1833856 113.691275,14.6285714 C113.712171,13.5823329 113.468457,11.1423741 114.630872,10.9714286 Z" id="Shape"></path>
        </g>
    </g>
</svg>