<?xml version="1.0" encoding="UTF-8"?>
<svg width="160px" height="72px" viewBox="0 0 160 72" version="1.1" xmlns="http://www.w3.org/2000/svg" xmlns:xlink="http://www.w3.org/1999/xlink">
    <!-- Generator: Sketch 49.2 (51160) - http://www.bohemiancoding.com/sketch -->
    <title>customer/harvard</title>
    <desc>Created with Sketch.</desc>
    <defs></defs>
    <g id="customer/harvard" stroke="none" stroke-width="1" fill="none" fill-rule="evenodd">
        <g id="harvard" transform="translate(0.000000, 25.000000)" fill="#000000">
            <path d="M72.0256,2.7424 C71.5696,1.7456 70.8792,1.0144 69.7024,0.7544 L69.7024,0.1776 C70.4328,0.1776 72.864,0.2656 73.4224,0.2656 C73.9408,0.2656 76.1368,0.1776 76.8888,0.1776 L76.8888,0.7424 C76.2232,0.8688 75.4584,1.2424 75.4584,1.9264 C75.4584,2.412 75.7552,3.0784 76.316,4.332 L81.652,16.456 L86.692,4.3128 C87.092,3.332 87.3752,2.58 87.3752,1.996 C87.3752,1.352 86.784,0.9144 85.9472,0.7424 L85.9472,0.1776 C86.6184,0.1776 88.2384,0.2656 88.752,0.2656 C89.224,0.2656 91.1488,0.1776 91.8816,0.1776 L91.8816,0.7536 C90.6248,1.092 89.856,1.7872 89.1584,3.4296 L81.74,20.9256 L80.1768,20.9256 L72.0248,2.7424 L72.0256,2.7424 Z M138.5008,20.2544 C139.7424,20.0368 140.4184,19.5464 140.4184,18.4112 L140.4184,2.4592 C140.4184,1.3576 139.7456,0.9232 138.5512,0.6992 L138.5512,0.1296 C139.2408,0.1296 141.5208,0.2152 142.1328,0.2152 C143.1464,0.2152 146.0016,0 148.1864,0 C155.5392,5.68434189e-15 160,4.1016 160,10.3464 C160,16.416 155.36,20.9144 147.7752,20.9144 C145.5912,20.9144 142.9416,20.74 141.9288,20.74 C141.3144,20.74 139.1904,20.828 138.5008,20.828 L138.5008,20.2552 L138.5008,20.2544 Z M90.7424,20.2544 C92.0464,19.9504 92.7664,19.1048 93.2368,17.972 L99.8528,2.0672 C100.1272,1.4088 100.4584,0.0592 100.4584,0.0592 L102.3104,0.0592 C102.3104,0.0592 102.6384,1.4128 102.916,2.0712 L109.8992,18.016 C110.3952,19.1144 110.9376,19.9064 112.3248,20.2552 L112.3232,20.7848 C111.5656,20.7848 109.216,20.74 108.6808,20.74 C108.1464,20.74 105.9032,20.7848 105.1432,20.7848 L105.152,20.2552 C106.168,20.0056 106.488,19.4872 106.488,18.9864 C106.488,18.5624 106.3096,18.0832 106.0992,17.5864 L104.6216,14.208 L96.8776,14.2048 L95.5256,17.6024 C95.3672,17.9912 95.1888,18.5464 95.1888,18.9176 C95.1888,19.4872 95.488,19.9496 96.6416,20.2552 L96.64,20.7848 C95.9552,20.7848 94.2096,20.74 93.7872,20.74 L90.7392,20.7848 L90.7424,20.2552 L90.7424,20.2544 Z M25.2504,20.2544 C26.5528,19.9504 27.2704,19.1048 27.7512,17.972 L34.3544,2.0672 C34.6368,1.4088 34.968,0.0592 34.968,0.0592 L36.8168,0.0592 C36.8168,0.0592 37.1448,1.4128 37.4224,2.0712 L44.4088,18.016 C44.9056,19.1144 45.444,19.9064 46.8328,20.2552 L46.8312,20.7848 C46.0712,20.7848 43.7208,20.74 43.1864,20.74 C42.652,20.74 40.4104,20.7848 39.6536,20.7848 L39.6552,20.2552 C40.6752,20.0056 40.9944,19.4872 40.9944,18.9864 C40.9944,18.5624 40.8192,18.0832 40.6072,17.5864 L39.1288,14.208 L31.3864,14.2048 L30.032,17.6024 C29.8752,17.9912 29.6944,18.5464 29.6944,18.9176 C29.6944,19.4872 29.996,19.9496 31.1496,20.2552 L31.148,20.7848 C30.46,20.7848 28.6632,20.74 28.2376,20.74 L25.2488,20.7848 L25.2504,20.2552 L25.2504,20.2544 Z M7.10542736e-16,20.2552 C0.968,20.0376 1.648,19.5992 1.648,18.5 L1.648,2.46 C1.648,1.4064 1.0136,0.9648 7.10542736e-16,0.7 L7.10542736e-16,0.1304 C0.504,0.1304 2.6992,0.216 3.228,0.216 C3.844,0.216 6.1712,0.1304 6.6776,0.1304 L6.6776,0.7008 C5.7096,0.9248 4.9848,1.3608 4.9848,2.4608 L4.9848,9.1616 L16.9392,9.1616 L16.9392,2.4608 C16.9392,1.3608 16.3072,0.9248 15.2976,0.7008 L15.2976,0.1304 C15.7984,0.1304 18.0816,0.216 18.6976,0.216 C19.2256,0.216 21.4648,0.1304 21.9688,0.1304 L21.9688,0.7008 C21.0008,0.9248 20.2784,1.3608 20.2784,2.4608 L20.2784,18.5008 C20.2784,19.5544 20.9544,19.9936 21.9688,20.256 L21.9688,20.7856 C21.4648,20.7856 19.2256,20.7408 18.6976,20.7408 C18.0816,20.7408 15.7984,20.7856 15.2976,20.7856 L15.2976,20.256 C16.26,20.0376 16.9392,19.6 16.9392,18.5 L16.9392,10.9192 L4.9848,10.9192 L4.9848,18.5 C4.9848,19.6 5.6664,19.9936 6.6776,20.256 L6.6776,20.7856 C6.1712,20.7856 3.8432,20.7408 3.228,20.7408 C2.6992,20.7408 0.504,20.7856 0,20.7856 L0,20.256 L7.10542736e-16,20.2552 Z M55.1096,18.3512 C55.1096,19.4152 55.7816,19.9936 57.024,20.2552 L57.024,20.8296 C56.3344,20.8296 54.0824,20.7408 53.4376,20.7408 C52.888,20.7408 50.6824,20.8288 49.9904,20.8288 L49.9904,20.256 C51.1456,20.0392 51.8208,19.4616 51.8208,18.352 L51.8208,2.512 C51.8208,1.5392 51.296,0.9248 49.9936,0.7024 L49.9936,0.1304 C50.6872,0.1304 52.8656,0.2184 53.4816,0.2184 C54.4896,0.2184 57.356,0.052 58.4856,0.052 C63.4312,0.052 66.1824,2.092 66.1824,5.592 C66.1824,8.348 64.128,10.208 60.9792,10.9744 C60.9792,10.9744 61.6888,11.3904 62.4064,12.2296 C63.284,13.252 65.6944,16.7 66.6672,17.8816 C67.6392,19.06 68.892,20.4096 70.2192,20.4736 L70.2192,20.904 C69.5856,21.0488 68.5608,21.1656 67.7792,21.1656 C66.0912,21.1656 64.7504,20.5752 63.4528,18.996 C62.3272,17.6312 60.364,14.7176 59.2368,13.2808 C58.516,12.3704 57.6528,11.6472 56.0624,11.3904 C55.7504,11.336 55.4568,11.2944 55.1096,11.2552 L55.1096,18.3512 L55.1096,18.3512 Z M120.2744,18.3512 C120.2744,19.4152 120.9488,19.9936 122.1904,20.2552 L122.1904,20.8296 C121.5008,20.8296 119.2544,20.7408 118.6064,20.7408 C118.056,20.7408 115.848,20.8288 115.1608,20.8288 L115.1608,20.256 C116.3104,20.0392 116.988,19.4616 116.988,18.352 L116.988,2.512 C116.988,1.5392 116.46,0.9248 115.1632,0.7024 L115.1632,0.1304 C115.852,0.1304 118.032,0.2184 118.6456,0.2184 C119.6568,0.2184 122.5256,0.052 123.6544,0.052 C128.5984,0.052 131.3528,2.092 131.3528,5.592 C131.3528,8.348 129.296,10.208 126.1496,10.9744 C126.1496,10.9744 126.8584,11.3904 127.576,12.2296 C128.4504,13.252 130.8608,16.7 131.8344,17.8816 C132.8072,19.06 134.0584,20.4096 135.3888,20.4736 L135.3888,20.904 C134.7528,21.0488 133.7304,21.1656 132.9488,21.1656 C131.2608,21.1656 129.9184,20.5752 128.6184,18.996 C127.4984,17.6312 125.5344,14.7176 124.4056,13.2808 C123.6856,12.3704 122.8216,11.6472 121.2296,11.3904 C120.9136,11.336 120.6264,11.2944 120.2744,11.2552 L120.2744,18.3512 L120.2744,18.3512 Z M120.2744,9.9416 C120.932,10.0272 121.9016,10.0704 122.8592,10.0704 C126.7224,10.0704 127.94,7.8448 127.94,5.88 C127.94,3.0856 126.0816,1.3608 122.6928,1.3608 C121.9984,1.3608 120.9784,1.4512 120.2744,1.5824 L120.2744,9.9416 Z M143.76,19.204 C144.5088,19.332 145.8928,19.42 146.988,19.42 C153.156,19.42 156.3744,15.7088 156.3744,10.5224 C156.3744,5.1432 152.9856,1.36 147.2112,1.36 C146.0296,1.36 144.552,1.4464 143.76,1.5816 L143.76,19.204 Z M103.8992,12.5336 L100.6144,4.876 L97.5504,12.5336 L103.8992,12.5336 Z M38.4056,12.5336 L35.1176,4.876 L32.0592,12.5336 L38.4056,12.5336 Z M55.1088,9.9408 C55.7632,10.0264 56.7304,10.0696 57.6896,10.0696 C61.5576,10.0696 62.7728,7.844 62.7728,5.8792 C62.7728,3.0848 60.912,1.36 57.52,1.36 C56.8264,1.36 55.8112,1.4504 55.1088,1.5816 L55.1088,9.9408 Z" id="Shape"></path>
        </g>
    </g>
</svg>