<?xml version="1.0" encoding="UTF-8"?>
<svg width="160px" height="72px" viewBox="0 0 160 72" version="1.1" xmlns="http://www.w3.org/2000/svg" xmlns:xlink="http://www.w3.org/1999/xlink">
    <!-- Generator: Sketch 50 (54983) - http://www.bohemiancoding.com/sketch -->
    <title>customer/hotelscombined</title>
    <desc>Created with Sketch.</desc>
    <defs></defs>
    <g id="customer/hotelscombined" stroke="none" stroke-width="1" fill="none" fill-rule="evenodd">
        <g id="hotelscombined" transform="translate(20.000000, 13.000000)" fill="#000000">
            <polyline id="Fill-3" points="1.8361809 20.5876883 1.8361809 0.143974026 6.11336683 0.143974026 6.11336683 8.40485714 12.8918593 8.40485714 12.8918593 0.143974026 17.1690452 0.143974026 17.1690452 20.5876883 12.8918593 20.5876883 12.8918593 12.2103117 6.11336683 12.2103117 6.11336683 20.5876883 1.8361809 20.5876883"></polyline>
            <path d="M19.9362814,13.5938961 C19.9362814,9.44254545 22.2060302,5.75418182 26.6273367,5.75418182 C31.0510553,5.75418182 33.320804,9.44254545 33.320804,13.5938961 C33.320804,17.4572987 31.2850251,20.7412208 26.6273367,20.7412208 C21.9750754,20.7412208 19.9362814,17.4572987 19.9362814,13.5938961 M23.8649246,13.5096623 C23.8649246,16.1041818 24.7091457,17.1394805 26.6273367,17.1394805 C28.5503518,17.1394805 29.3951759,16.1322597 29.3951759,13.5377403 C29.3951759,11.0298442 28.6661307,9.38638961 26.6273367,9.38638961 C24.5939698,9.38638961 23.8649246,11.0298442 23.8649246,13.5096623" id="Fill-4"></path>
            <path d="M36.2321608,9.38638961 L34.3398995,9.38638961 L34.3398995,6.04153247 L36.2321608,6.04153247 L36.2321608,2.58257143 L39.8960804,2.58257143 L39.8960804,6.04153247 L43.8524623,6.04153247 L43.8524623,9.38638961 L39.8960804,9.38638961 L39.8960804,14.6035065 C39.8960804,16.9357662 40.0136683,17.3408052 40.7101508,17.3408052 C41.1768844,17.3408052 41.3517588,17.0833247 41.3517588,16.5928571 C41.3517588,16.332987 41.2667337,16.0713247 41.2667337,16.0713247 L44.001407,16.0713247 C44.001407,16.0713247 44.201608,16.5928571 44.201608,17.3408052 C44.201608,19.7059221 42.5433166,20.7436104 40.478593,20.7436104 C37.6263317,20.7436104 36.2321608,19.2734026 36.2321608,15.9870909 L36.2321608,9.38638961" id="Fill-5"></path>
            <path d="M54.3865327,16.1603377 C54.3865327,15.9285455 54.3280402,15.7278182 54.3280402,15.7278182 L57.3545729,15.7278182 C57.3545729,15.7278182 57.5855276,16.2158961 57.5855276,16.9387532 C57.5855276,19.6754545 54.7947739,20.7412208 52.4966834,20.7412208 C47.8986935,20.7412208 45.6572864,17.6867013 45.6572864,13.5377403 C45.6572864,9.41446753 47.7238191,5.75418182 52.2609045,5.75418182 C55.6679397,5.75418182 57.8478392,8.11750649 57.8478392,11.261039 C57.8478392,12.8435584 57.4112563,14.170987 57.4112563,14.170987 L49.2928643,14.170987 C49.3236181,16.332987 50.3710553,17.5134545 52.4966834,17.5134545 C54.0066332,17.5134545 54.3865327,16.735039 54.3865327,16.1603377 M49.441809,11.4318961 L54.3865327,11.4318961 C54.5306533,10.5387792 54.2122613,8.98194805 52.0607035,8.98194805 C49.9628141,8.98194805 49.441809,10.6815584 49.441809,11.4318961" id="Fill-6"></path>
            <polygon id="Fill-7" points="60.6126633 20.4562597 64.3634171 20.4562597 64.3634171 0 60.6126633 0"></polygon>
            <path d="M67.1288442,16.6788831 C67.1288442,15.7863636 67.5087437,15.1226494 67.5087437,15.1226494 L70.9109548,15.1226494 C70.9109548,15.1226494 70.7083417,15.4966234 70.7083417,16.0456364 C70.7083417,17.0528571 71.5525628,17.5158442 72.8623116,17.5158442 C74.0840201,17.5158442 74.8673367,17.0247792 74.8673367,16.2744416 C74.8673367,15.2952987 73.9374874,14.9494026 72.3099497,14.544961 C70.0377889,13.9983377 67.4213065,13.4511169 67.4213065,10.2514286 C67.4213065,7.33909091 69.6319598,5.78225974 72.7742714,5.78225974 C75.5095477,5.78225974 78.0126633,7.05174026 78.0126633,9.64625974 C78.0126633,10.3942078 77.7479397,11.0017662 77.7479397,11.0017662 L74.3433166,11.0017662 C74.3433166,11.0017662 74.4922613,10.6254026 74.4922613,10.2514286 C74.4922613,9.44254545 73.7915578,8.98194805 72.8026131,8.98194805 C71.4657286,8.98194805 70.9109548,9.52916883 70.9109548,10.1648052 C70.9109548,10.9151429 71.7865327,11.2891169 73.4140704,11.6660779 C75.7145729,12.1822338 78.4209045,12.8154805 78.4209045,16.0737143 C78.4209045,19.1867792 76.2078392,20.7412208 72.8026131,20.7412208 C69.2267337,20.7412208 67.1288442,19.0977662 67.1288442,16.6788831" id="Fill-8"></path>
            <path d="M0.338894472,35.5102078 C0.338894472,29.5427532 3.74351759,24.7002078 9.53306533,24.7002078 C14.0701508,24.7002078 16.3417085,27.2666494 16.3417085,30.2930909 C16.3417085,31.5321039 16.0492462,32.2824416 16.0492462,32.2824416 L12.4426131,32.2824416 C12.4426131,32.2824416 12.5577889,31.964026 12.5577889,31.2166753 C12.5577889,29.7464675 11.599598,28.5916883 9.47457286,28.5916883 C6.09768844,28.5916883 4.55517588,31.4174026 4.55517588,35.4821299 C4.55517588,38.7965195 5.72020101,41.5636883 9.38653266,41.5636883 C11.0140704,41.5636883 12.5294472,40.7852727 12.5294472,38.5647273 C12.5294472,38.1328052 12.4426131,37.7588312 12.4426131,37.7588312 L16.1083417,37.7588312 C16.1083417,37.7588312 16.3417085,38.3944675 16.3417085,39.3150649 C16.3417085,43.6671429 12.7037186,45.4551688 9.24060302,45.4551688 C2.49105528,45.4551688 0.338894472,40.9304416 0.338894472,35.5102078" id="Fill-9"></path>
            <path d="M18.4625126,38.3054545 C18.4625126,34.1547013 20.7298492,30.4663377 25.1535678,30.4663377 C29.5748744,30.4663377 31.8470352,34.1547013 31.8470352,38.3054545 C31.8470352,42.1694545 29.8082412,45.4527792 25.1535678,45.4527792 C20.4988945,45.4527792 18.4625126,42.1694545 18.4625126,38.3054545 M22.3887437,38.2218182 C22.3887437,40.8133506 23.2329648,41.851039 25.1535678,41.851039 C27.0741709,41.851039 27.9165829,40.8438182 27.9165829,38.2492987 C27.9165829,35.7414026 27.1899497,34.0985455 25.1535678,34.0985455 C23.1177889,34.0985455 22.3887437,35.7414026 22.3887437,38.2218182" id="Fill-10"></path>
            <path d="M44.5941709,32.427013 C45.3521608,31.3307792 46.599196,30.4663377 48.2580905,30.4663377 C51.4317588,30.4663377 53.2365829,32.714961 53.2365829,36.1183636 L53.2365829,45.1463117 L49.4520603,45.1463117 L49.4520603,36.7796883 C49.4520603,34.9355065 48.7845226,34.0985455 47.5338693,34.0985455 C46.281407,34.0985455 45.6114573,35.1643117 45.6114573,36.7205455 L45.6114573,45.1654286 L41.8601005,45.1654286 L41.8601005,36.7796883 C41.8601005,34.9355065 41.1901508,34.0985455 39.881005,34.0985455 C38.599598,34.0985455 37.9314573,35.1923896 37.9314573,36.6064416 L37.9314573,45.1654286 L34.1782915,45.1654286 L34.1782915,30.7536883 L37.8162814,30.7536883 L37.8162814,32.1091948 L37.8753769,32.1091948 C38.2504523,31.5321039 39.3563819,30.4663377 41.1310553,30.4663377 C42.8484422,30.4663377 44.0140704,31.3588571 44.5941709,32.427013" id="Fill-11"></path>
            <path d="M56.2896482,24.3567013 L60.0735678,24.3567013 L60.0735678,31.7047532 L60.1302513,31.7047532 C60.8568844,30.9848831 61.9917588,30.4663377 63.3316583,30.4663377 C67.4321608,30.4663377 69.2960804,33.9533766 69.2960804,38.0485714 C69.2960804,42.0547532 67.4038191,45.4527792 63.3003015,45.4527792 C61.8759799,45.4527792 60.6253266,44.7633766 59.9559799,43.8989351 L59.8962814,43.8989351 L59.8962814,45.1654286 L56.2896482,45.1654286 L56.2896482,24.3567013 Z M60.1019095,38.2188312 C60.1019095,40.063013 60.7694472,41.8791169 62.8643216,41.8791169 C64.7258291,41.8791169 65.6297487,40.1215584 65.6297487,38.2773766 C65.6297487,36.0012727 64.9899497,34.04 62.8643216,34.04 C60.8285427,34.04 60.1019095,36.1739221 60.1019095,38.2188312 Z" id="Fill-12"></path>
            <path d="M73.5292462,24.0108052 C74.9831156,24.0108052 76.1481407,25.1631948 76.1481407,26.6053247 C76.1481407,28.0444675 74.9831156,29.1998442 73.5292462,29.1998442 C72.0765829,29.1998442 70.9109548,28.0444675 70.9109548,26.6053247 C70.9109548,25.1631948 72.0765829,24.0108052 73.5292462,24.0108052 Z M71.64,45.1654286 L75.3907538,45.1654286 L75.3907538,30.7536883 L71.64,30.7536883 L71.64,45.1654286 Z" id="Fill-13"></path>
            <path d="M82.1276382,45.1654286 L78.3461307,45.1654286 L78.3461307,30.7536883 L82.1276382,30.7536883 L82.1276382,32.1653506 L82.1873367,32.1653506 C82.8289447,31.3588571 83.8172864,30.4663377 85.7656281,30.4663377 C88.5286432,30.4663377 90.3925628,32.743039 90.3925628,35.6243117 L90.3925628,45.1654286 L86.5519598,45.1654286 L86.5519598,36.575974 C86.5519598,35.0221299 85.7939698,34.0985455 84.5131658,34.0985455 C83.4373869,34.0985455 82.1276382,34.5896104 82.1276382,37.067039 L82.1276382,45.1654286" id="Fill-14"></path>
            <path d="M101.448241,40.8718961 C101.448241,40.6401039 101.389146,40.4393766 101.389146,40.4393766 L104.416281,40.4393766 C104.416281,40.4393766 104.647236,40.9280519 104.647236,41.6503117 C104.647236,44.387013 101.856482,45.4527792 99.558392,45.4527792 C94.959799,45.4527792 92.718995,42.3982597 92.718995,38.2492987 C92.718995,34.1266234 94.7855276,30.4663377 99.3250251,30.4663377 C102.729045,30.4663377 104.911357,32.8320519 104.911357,35.9731948 C104.911357,37.5551169 104.475377,38.8831429 104.475377,38.8831429 L96.3569849,38.8831429 C96.3853266,41.0421558 97.4327638,42.225013 99.558392,42.225013 C101.070754,42.225013 101.448241,41.4471948 101.448241,40.8718961 M96.5035176,36.1434545 L101.448241,36.1434545 C101.591759,35.2503377 101.270955,33.6941039 99.1224121,33.6941039 C97.0269347,33.6941039 96.5035176,35.3931169 96.5035176,36.1434545" id="Fill-15"></path>
            <path d="M119.864322,45.1654286 L116.372864,45.1654286 L116.372864,43.9544935 L116.316181,43.9544935 C115.733668,44.6462857 114.42392,45.4551688 112.824121,45.4551688 C110.061709,45.4551688 107.091859,43.2352208 107.091859,37.9314805 C107.091859,33.4933766 109.506935,30.4663377 112.621508,30.4663377 C114.218894,30.4663377 115.356181,30.9848831 116.023719,31.7047532 L116.080402,31.7047532 L116.080402,24.3543117 L119.864322,24.3543117 L119.864322,45.1654286 Z M110.670151,38.2188312 C110.670151,40.8133506 112.067337,41.851039 113.551357,41.851039 C115.063116,41.851039 116.257085,40.5540779 116.257085,38.2773766 C116.257085,35.5102078 115.150553,34.0985455 113.551357,34.0985455 C111.805025,34.0985455 110.670151,35.4821299 110.670151,38.2188312 Z" id="Fill-16"></path>
        </g>
    </g>
</svg>