<?xml version="1.0" encoding="UTF-8"?>
<svg width="160px" height="72px" viewBox="0 0 160 72" version="1.1" xmlns="http://www.w3.org/2000/svg" xmlns:xlink="http://www.w3.org/1999/xlink">
    <!-- Generator: Sketch 49.2 (51160) - http://www.bohemiancoding.com/sketch -->
    <title>customer/ibm</title>
    <desc>Created with Sketch.</desc>
    <defs></defs>
    <g id="customer/ibm" stroke="none" stroke-width="1" fill="none" fill-rule="evenodd">
        <g id="ibm" transform="translate(20.000000, 12.000000)" fill="#000000" fill-rule="nonzero">
            <path d="M0,0 L0,3.28404 L23.3578128,3.28404 L23.3578128,0 L0,0 Z M26.6671884,0 L26.6671884,3.28404 L59.9531244,3.28404 C59.9531244,3.28404 56.55315,0 52.05,0 L26.6671884,0 Z M66.4828128,0 L66.4828128,3.28404 L86.6203128,3.28404 L85.425,0 L66.4828128,0 Z M101.057813,0 L99.8625,3.28404 L119.817187,3.28404 L119.817187,0 L101.057813,0 Z M0,6.3866652 L0,9.67070424 L23.3578128,9.67070424 L23.3578128,6.3866652 L0,6.3866652 Z M26.6671884,6.391317 L26.6671884,9.67070424 L63.8156256,9.67070424 C63.8156256,9.67070424 63.38175,7.14316632 62.625,6.391317 L26.6671884,6.391317 Z M66.4828128,6.391317 L66.4828128,9.67070424 L88.8281256,9.67070424 L87.7218744,6.391317 L66.4828128,6.391317 Z M98.6671872,6.391317 L97.5609372,9.67070424 L119.817187,9.67070424 L119.817187,6.391317 L98.6671872,6.391317 Z M6.71249952,12.7733304 L6.71249952,16.0620204 L16.8281244,16.0620204 L16.8281244,12.7733304 L6.71249952,12.7733304 Z M33.3796884,12.7733304 L33.3796884,16.0620204 L43.4953116,16.0620204 L43.4953116,12.7733304 L33.3796884,12.7733304 Z M53.3343756,12.7733304 L53.3343756,16.0620204 L63.45,16.0620204 C63.4500012,16.0620204 64.0921872,14.325258 64.0921872,12.7733304 L53.3343756,12.7733304 Z M73.1953128,12.7733304 L73.1953128,16.0620204 L91.1296884,16.0620204 L89.9343756,12.7733304 L73.1953128,12.7733304 Z M96.4640628,12.7733304 L95.2640628,16.0620204 L113.2875,16.0620204 L113.2875,12.7733304 L96.4640628,12.7733304 Z M6.71249952,19.164648 L6.71249952,22.4486856 L16.8281244,22.4486856 L16.8281244,19.164648 L6.71249952,19.164648 Z M33.3796884,19.164648 L33.3796884,22.4486856 L59.2171884,22.4486856 C59.2171896,22.4486844 61.3785372,20.763612 62.0671872,19.164648 L33.3796884,19.164648 Z M73.1953128,19.164648 L73.1953128,22.4486856 L83.3109372,22.4486856 L83.3109372,20.620602 L83.9531244,22.4486856 L102.482813,22.4486856 L103.171876,20.620602 L103.171876,22.4486856 L113.2875,22.4486856 L113.2875,19.164648 L94.2984372,19.164648 L93.2906244,21.9463116 L92.2781256,19.164648 L73.1953128,19.164648 Z M6.71249952,25.5513132 L6.71249952,28.8353508 L16.8281244,28.8353508 L16.8281244,25.5513132 L6.71249952,25.5513132 Z M33.3796884,25.5513132 L33.3796884,28.8353508 L62.0671872,28.8353508 C61.3783884,27.2415972 59.2171884,25.5513132 59.2171884,25.5513132 L33.3796884,25.5513132 Z M73.1953128,25.5513132 L73.1953128,28.8353508 L83.3109372,28.8353508 L83.3109372,25.5513132 L73.1953128,25.5513132 Z M85.1484372,25.5513132 L86.3718756,28.8353508 L100.265626,28.8353508 L101.428126,25.5513132 L85.1484372,25.5513132 Z M103.171876,25.5513132 L103.171876,28.8353508 L113.2875,28.8353508 L113.2875,25.5513132 L103.171876,25.5513132 Z M6.71249952,31.9379784 L6.71249952,35.222016 L16.8281244,35.222016 L16.8281244,31.9379784 L6.71249952,31.9379784 Z M33.3796884,31.9379784 L33.3796884,35.222016 L43.4953116,35.222016 L43.4953116,31.9379784 L33.3796884,31.9379784 Z M53.3343756,31.9379784 L53.3343756,35.222016 L64.0921872,35.222016 C64.0921896,33.6721764 63.45,31.9379784 63.45,31.9379784 L53.3343756,31.9379784 Z M73.1953128,31.9379784 L73.1953128,35.222016 L83.3109372,35.222016 L83.3109372,31.9379784 L73.1953128,31.9379784 Z M87.4453116,31.9379784 L88.63125,35.222016 L97.9453116,35.222016 L99.1406244,31.9379784 L87.4453116,31.9379784 Z M103.171876,31.9379784 L103.171876,35.222016 L113.2875,35.222016 L113.2875,31.9379784 L103.171876,31.9379784 Z M0.1828116,38.3246436 L0.1828116,41.6133336 L23.5406244,41.6133336 L23.5406244,38.3246436 L0.1828116,38.3246436 Z M26.6671884,38.3246436 L26.6671884,41.6133336 L62.625,41.6133336 C63.38175,40.860294 63.8156256,38.3246436 63.8156256,38.3246436 L26.6671884,38.3246436 Z M66.6656244,38.3246436 L66.6656244,41.6133336 L83.3109372,41.6133336 L83.3109372,38.3246436 L66.6656244,38.3246436 Z M89.7468744,38.3246436 L90.9656244,41.6133336 L95.7046872,41.6133336 L96.8484372,38.3246436 L89.7468744,38.3246436 Z M103.171876,38.3246436 L103.171876,41.6133336 L120,41.6133336 L120,38.3246436 L103.171876,38.3246436 Z M0.1828116,44.71596 L0.1828116,48 L23.5406244,48 L23.5406244,44.71596 L0.1828116,44.71596 Z M26.6671884,44.71596 L26.6671884,47.9953488 L52.05,47.9953488 C56.5531488,47.9953464 59.9531244,44.71596 59.9531244,44.71596 L26.6671884,44.71596 Z M66.6656244,44.71596 L66.6656244,48 L83.3109372,48 L83.3109372,44.71596 L66.6656244,44.71596 Z M92.0578128,44.71596 L93.2296884,47.9906952 L93.43125,47.9953488 L94.6218756,44.71596 L92.0578128,44.71596 Z M103.171876,44.71596 L103.171876,48 L120,48 L120,44.71596 L103.171876,44.71596 Z" id="Shape"></path>
        </g>
    </g>
</svg>