<?xml version="1.0" encoding="UTF-8"?>
<svg width="160px" height="72px" viewBox="0 0 160 72" version="1.1" xmlns="http://www.w3.org/2000/svg" xmlns:xlink="http://www.w3.org/1999/xlink">
    <!-- Generator: Sketch 49.2 (51160) - http://www.bohemiancoding.com/sketch -->
    <title>customer/ideo</title>
    <desc>Created with Sketch.</desc>
    <defs></defs>
    <g id="customer/ideo" stroke="none" stroke-width="1" fill="none" fill-rule="evenodd">
        <g id="ideo" transform="translate(44.000000, 0.000000)" fill="#000000">
            <path d="M7.10542736e-15,0 L7.10542736e-15,34.509952 L34.0387853,34.509952 L34.0387853,0 L7.10542736e-15,0 Z M4.68263217,4.85505767 L29.2510477,4.85505767 L29.2510477,9.21680106 L19.1708846,9.21680106 L19.1708846,24.9238542 L29.3715566,24.9238542 L29.3715566,29.6548944 L4.80495325,29.6548944 L4.80495325,24.9238542 L14.5045619,24.9238542 L14.5045619,9.21680106 L4.68263217,9.21680106 L4.68263217,4.85597632 L4.68263217,4.85505767 Z M37.9612147,0.0146983771 L37.9612147,34.509952 L71.9845966,34.509952 L71.9845966,0.0146983771 L37.9612147,0.0146983771 Z M57.6032619,4.60794121 C59.7561129,4.60794121 67.5611039,9.33255078 67.5611039,17.8181076 C67.5611039,26.2770236 58.8880863,29.9020108 57.6032619,29.9020108 L42.37021,29.9020108 L42.37021,4.73104011 C42.37021,4.73104011 53.1861118,4.60794121 57.6032619,4.60794121 L57.6032619,4.60794121 Z M56.3709903,9.13963458 C53.5385777,9.13963458 46.5961768,9.21680106 46.5961768,9.21680106 L46.5961768,25.3547004 L56.3718964,25.3547004 C57.196431,25.3547004 62.7416533,23.026845 62.7416533,17.6013065 C62.7416533,12.1601511 57.7527654,9.14055323 56.3718964,9.14055323 L56.3709903,9.13963458 Z M6.43810037e-15,37.5038277 L6.43810037e-15,71.9990814 L34.023382,71.9990814 L34.023382,37.5047464 L0,37.5047464 L6.43810037e-15,37.5038277 Z M4.60652127,42.2973359 L29.4177668,42.2973359 L29.4177668,46.6590793 L8.89410166,46.6590793 L8.89410166,52.3776666 L24.5068019,52.3776666 L24.5068019,57.1096254 L8.89410166,57.1096254 L8.89410166,62.5967133 L29.4168607,62.5967133 L29.4168607,67.2055731 L4.60742736,67.2055731 L4.60742736,42.2973359 L4.60652127,42.2973359 Z M37.9612147,37.5047464 L37.9612147,72 L72,72 L72,37.5047464 L37.9612147,37.5047464 L37.9612147,37.5047464 Z M54.9729056,40.9257936 C62.5015416,40.9257936 68.6094409,47.1184036 68.6094409,54.7514545 C68.6094409,62.3854241 62.5015416,68.5771154 54.9729056,68.5771154 C47.4433636,68.5771154 41.3508677,62.3854241 41.3508677,54.7514545 C41.3508677,47.1184036 47.4442697,40.9257936 54.9729056,40.9257936 L54.9729056,40.9257936 Z M54.9729056,45.7036848 C50.0465374,45.7036848 46.0643067,49.7567623 46.0643067,54.7523732 C46.0643067,59.7461468 50.0465374,63.7992243 54.9729056,63.7992243 C59.8992739,63.7992243 63.896908,59.7461468 63.896908,54.7514545 C63.896908,49.7567623 59.8992739,45.7036848 54.9719995,45.7036848 L54.9729056,45.7036848 Z" id="Shape"></path>
        </g>
    </g>
</svg>