<?xml version="1.0" encoding="UTF-8"?>
<svg width="160px" height="72px" viewBox="0 0 160 72" version="1.1" xmlns="http://www.w3.org/2000/svg" xmlns:xlink="http://www.w3.org/1999/xlink">
    <!-- Generator: Sketch 50 (54983) - http://www.bohemiancoding.com/sketch -->
    <title>customer/kickstand</title>
    <desc>Created with Sketch.</desc>
    <defs></defs>
    <g id="customer/kickstand" stroke="none" stroke-width="1" fill="none" fill-rule="evenodd">
        <g id="kickstand" transform="translate(0.000000, 22.000000)" fill="#000000" fill-rule="nonzero">
            <polygon id="Shape" points="52.7625154 16.3472256 58.9376079 25.0061652 56.3077682 25.0061652 51.3065351 17.832799 48.6194821 20.4902589 48.6194821 25.0061652 46.476942 25.0061652 46.476942 5.00123305 48.6194821 5.00123305 48.6194821 17.8051788 55.5067818 10.7166461 58.5075216 10.7166461"></polygon>
            <polygon id="Shape" points="60.5376079 10.7166461 62.680148 10.7166461 62.680148 25.0061652 60.5376079 25.0061652"></polygon>
            <path d="M76.2081381,20.5178792 L78.5203453,20.5178792 C77.6917386,23.2799014 75.1467324,25.2330456 71.7750925,25.2330456 C67.4880395,25.2330456 64.7437731,21.9462392 64.7437731,17.8604192 C64.7437731,13.7745993 67.4880395,10.48582 71.7750925,10.48582 C75.1467324,10.48582 77.6937115,12.4290999 78.5203453,15.2009864 L76.2081381,15.2009864 C75.5559971,13.4908791 73.8946626,12.3793672 72.0651048,12.4290999 C68.892725,12.4290999 66.8922318,14.9149199 66.8922318,17.8604192 C66.8922318,20.8059186 68.892725,23.2897657 72.0651048,23.2897657 C73.8950091,23.3406984 75.5569741,22.2287647 76.2081381,20.5178792 Z" id="Shape"></path>
            <polygon id="Shape" points="86.7077682 16.3472256 92.8808878 25.0061652 90.2510481 25.0061652 85.249815 17.832799 82.562762 20.4902589 82.562762 25.0061652 80.4202219 25.0061652 80.4202219 5.00123305 82.562762 5.00123305 82.562762 17.8051788 89.4500617 10.7166461 92.4508015 10.7166461"></polygon>
            <path d="M104.654994,14.5459926 L102.484834,14.5459926 C102.315166,13.3168927 101.399753,12.3166461 98.998767,12.3166461 C96.7694205,12.3166461 95.5975339,12.9736128 95.5975339,14.3743527 C95.5975339,17.8051788 105.114673,15.5758323 105.114673,20.9479655 C105.114673,23.7099877 102.828113,25.2350185 99.2848335,25.2350185 C95.3114673,25.2350185 93.2261406,23.0352651 93.0821208,20.519852 L95.3114673,20.519852 C95.4554871,21.9778052 96.5405672,23.4061652 99.3144266,23.4061652 C100.48434,23.4061652 102.972133,23.0905055 102.972133,21.1472256 C102.972133,17.5763255 93.4549938,19.805672 93.4549938,14.5755857 C93.4549938,12.0108508 95.3686806,10.4877928 99.0559803,10.4877928 C102.826141,10.4877928 104.39852,12.4606658 104.654994,14.5459926 Z" id="Shape"></path>
            <polygon id="Shape" points="108.638224 25.0061652 108.638224 12.6027127 105.722318 12.6027127 105.722318 10.7166461 108.638224 10.7166461 108.638224 5.60098644 110.782737 5.60098644 110.782737 10.7166461 114.067571 10.7166461 114.067571 12.6027127 110.782737 12.6027127 110.782737 25.0061652"></polygon>
            <path d="M126.510481,13.0308261 L126.510481,10.7166461 L128.653021,10.7166461 L128.653021,25.0061652 L126.510481,25.0061652 L126.510481,22.7196054 C125.453021,24.2623921 123.766215,25.2350185 121.394821,25.2350185 C117.222195,25.2350185 114.477928,21.9482121 114.477928,17.8623921 C114.477928,13.7765721 117.222195,10.4877928 121.394821,10.4877928 C123.766215,10.4877928 125.453021,11.4880395 126.510481,13.0308261 Z M126.624908,17.8623921 C126.624908,14.9168927 124.849322,12.4310727 121.680888,12.4310727 C118.512454,12.4310727 116.622441,14.9168927 116.622441,17.8623921 C116.622441,20.8078915 118.508508,23.2917386 121.680888,23.2917386 C124.853268,23.2917386 126.624908,20.8059186 126.624908,17.8623921 Z" id="Shape"></path>
            <path d="M133.27349,10.7166461 L133.27349,12.9459926 C134.303329,11.5649815 135.704069,10.4877928 138.018249,10.4877928 C140.961776,10.4877928 143.739581,12.6323058 143.739581,16.6905055 L143.739581,25.0061652 L141.591122,25.0061652 L141.591122,16.7477189 C141.591122,14.1454994 139.933909,12.4310727 137.590136,12.4310727 C135.246363,12.4310727 133.27349,14.2066584 133.27349,16.7713933 L133.27349,25.0022195 L131.130949,25.0022195 L131.130949,10.7166461 L133.27349,10.7166461 Z" id="Shape"></path>
            <path d="M157.691739,13.0308261 L157.691739,5.00123305 L159.834279,5.00123305 L159.834279,25.0061652 L157.691739,25.0061652 L157.691739,22.7196054 C156.634279,24.2623921 154.947472,25.2350185 152.576079,25.2350185 C148.403453,25.2350185 145.659186,21.9482121 145.659186,17.8623921 C145.659186,13.7765721 148.403453,10.4877928 152.576079,10.4877928 C154.947472,10.4877928 156.634279,11.4880395 157.691739,13.0308261 Z M157.806165,17.8623921 C157.806165,14.9168927 156.03058,12.4310727 152.860173,12.4310727 C149.689766,12.4310727 147.801726,14.9168927 147.801726,17.8623921 C147.801726,20.8078915 149.689766,23.2917386 152.860173,23.2917386 C156.03058,23.2917386 157.806165,20.8059186 157.806165,17.8623921 Z" id="Shape"></path>
            <circle id="Oval" cx="61.6088779" cy="1.42836005" r="1.42836005"></circle>
            <path d="M0.1972873,2.8784217 L23.4298397,26.1267571 C24.2650747,26.9979389 25.5016336,27.3573515 26.6737166,27.0696077 C27.8457997,26.7818639 28.7753396,25.8906788 29.1121877,24.7317532 C29.4490357,23.5728276 29.1420167,22.3222299 28.3067818,21.4510481 L15.8776819,9.63353884 L25.8702836,9.63353884 C27.7356577,9.63353884 29.2478422,8.12135436 29.2478422,6.25598027 C29.2478422,4.39060618 27.7356577,2.8784217 25.8702836,2.8784217 L0.1972873,2.8784217 Z" id="Shape"></path>
            <path d="M1.1837238,21.4135635 C0.315509648,22.2637236 -0.029106351,23.5147329 0.281282935,24.6895633 C0.591672221,25.8643937 1.5092191,26.7819406 2.6840495,27.0923299 C3.8588799,27.4027192 5.10988924,27.0581032 5.96004932,26.189889 L13.654254,18.4956843 L8.87792848,13.7252774 L1.1837238,21.4135635 Z" id="Shape"></path>
        </g>
    </g>
</svg>