<?xml version="1.0" encoding="UTF-8"?>
<svg width="160px" height="72px" viewBox="0 0 160 72" version="1.1" xmlns="http://www.w3.org/2000/svg" xmlns:xlink="http://www.w3.org/1999/xlink">
    <!-- Generator: Sketch 49.2 (51160) - http://www.bohemiancoding.com/sketch -->
    <title>customer/monotype</title>
    <desc>Created with Sketch.</desc>
    <defs></defs>
    <g id="customer/monotype" stroke="none" stroke-width="1" fill="none" fill-rule="evenodd">
        <g id="monotype" transform="translate(10.000000, 22.000000)" fill="#000000" fill-rule="nonzero">
            <path d="M24.3108595,21.609119 C24.3108595,21.6962857 24.287322,21.777619 24.2404152,21.8474524 C24.1935083,21.917119 24.1173477,21.9694524 24.0001647,22.010119 C23.8886979,22.0507857 23.742093,22.0797857 23.5662343,22.1089524 C23.3846595,22.1379524 23.1560096,22.1554524 22.8686842,22.1554524 C22.6048962,22.1554524 22.3762464,22.1379524 22.1887871,22.1089524 C22.0011597,22.0797857 21.8545548,22.0507857 21.7432561,22.010119 C21.6317893,21.9694524 21.5556288,21.917119 21.5087219,21.8474524 C21.4676994,21.777619 21.4441619,21.6962857 21.4441619,21.609119 L21.4441619,2.42061905 L21.4090238,2.42061905 L13.4895008,21.6904524 C13.4543627,21.7717857 13.4074558,21.841619 13.3428959,21.899619 C13.2842203,21.9519524 13.1905747,22.0042857 13.0732235,22.0449524 C12.9501561,22.0797857 12.8094356,22.1089524 12.6394613,22.1262857 C12.4753714,22.1437857 12.2759753,22.1554524 12.0473254,22.1554524 C11.807075,22.1554524 11.6017945,22.1437857 11.4318202,22.1204524 C11.2559616,22.0972857 11.1154092,22.0624524 10.998058,22.027619 C10.8867593,21.9867857 10.79883,21.934619 10.73427,21.8822857 C10.6698782,21.824119 10.6288557,21.7602857 10.6053182,21.6904524 L3.03162807,2.42061905 L3.01397495,2.42061905 L3.01397495,21.609119 C3.01397495,21.6962857 2.99060559,21.777619 2.94369875,21.8474524 C2.90267627,21.917119 2.8204632,21.9694524 2.70328015,22.010119 C2.59198147,22.0507857 2.44537657,22.0797857 2.25774919,22.1089524 C2.07600618,22.1379524 1.84164008,22.1554524 1.55431463,22.1554524 C1.27875793,22.1554524 1.05027621,22.1379524 0.868533196,22.1089524 C0.686790187,22.0797857 0.54018528,22.0507857 0.428886601,22.010119 C0.323304169,21.9694524 0.247143592,21.917119 0.206121119,21.8474524 C0.165098645,21.777619 0.147445531,21.6962857 0.147445531,21.609119 L0.147445531,1.34545238 C0.147445531,0.868952381 0.270512952,0.531952381 0.522700292,0.328619048 C0.774719506,0.125119048 1.05599245,0.0206190476 1.36668725,0.0206190476 L3.15469549,0.0206190476 C3.51818151,0.0206190476 3.84047693,0.055452381 4.11603362,0.125119048 C4.39159032,0.189119048 4.6318408,0.299452381 4.83712129,0.444785714 C5.04223366,0.595785714 5.21220793,0.781785714 5.35292846,1.00845238 C5.48776463,1.23511905 5.61083205,1.50245238 5.71053011,1.81045238 L12.1529079,17.762119 L12.2349528,17.762119 L18.9352342,1.85695238 C19.0584697,1.51978571 19.1990221,1.22928571 19.345627,0.990952381 C19.4981163,0.752785714 19.6622062,0.560952381 19.8380648,0.421452381 C20.0139235,0.276285714 20.2131515,0.177452381 20.4300326,0.113452381 C20.6470818,0.0496190476 20.899101,0.0206190476 21.1862584,0.0206190476 L23.0563115,0.0206190476 C23.2262858,0.0206190476 23.3903757,0.0437857143 23.5487494,0.0961190476 C23.7010705,0.148452381 23.8300223,0.229785714 23.9414891,0.334285714 C24.0527878,0.444785714 24.1407171,0.578452381 24.2052771,0.741119048 C24.2755533,0.909619048 24.3108595,1.10728571 24.3108595,1.34545238 L24.3108595,21.609119 Z" id="Shape"></path>
            <path d="M43.2204907,13.793119 C43.2204907,15.0424524 43.0564008,16.193119 42.7221685,17.239119 C42.3939887,18.2909524 41.8956665,19.1974524 41.2391388,19.9587857 C40.5826111,20.7199524 39.755941,21.3127857 38.7653491,21.7369524 C37.7745891,22.161119 36.6256236,22.3762857 35.3243369,22.3762857 C34.052304,22.3762857 32.944361,22.1844524 32.0005078,21.8124524 C31.0566547,21.440619 30.2652908,20.8942857 29.6381849,20.179619 C29.010911,19.4647857 28.5418425,18.593119 28.2311477,17.5702857 C27.9204529,16.5534524 27.7681318,15.391119 27.7681318,14.101119 C27.7681318,12.851619 27.9322217,11.701119 28.2546852,10.6549524 C28.582865,9.60328571 29.0753028,8.69661905 29.7318305,7.93545238 C30.3885263,7.17411905 31.2150283,6.58711905 32.1999039,6.16878571 C33.1846114,5.74461905 34.3335769,5.53545238 35.6466324,5.53545238 C36.9188334,5.53545238 38.0266083,5.72128571 38.9704615,6.09911905 C39.9143146,6.47095238 40.7056785,7.01728571 41.3329525,7.73195238 C41.9659427,8.44678571 42.4350112,9.31845238 42.7514222,10.3354524 C43.0680014,11.358119 43.2204907,12.5087857 43.2204907,13.793119 Z M40.2366101,13.979119 C40.2366101,13.1537857 40.1545651,12.3692857 40.002244,11.6312857 C39.8497547,10.8932857 39.5918511,10.2482857 39.2401338,9.69045238 C38.8825322,9.13245238 38.4018631,8.69661905 37.7981266,8.37128571 C37.1883376,8.04578571 36.43228,7.88311905 35.5294493,7.88311905 C34.6911786,7.88311905 33.9759753,8.03411905 33.3722388,8.33061905 C32.7742186,8.62111905 32.2760645,9.03945238 31.8892091,9.57995238 C31.4963013,10.1204524 31.2091439,10.759619 31.0215166,11.497619 C30.8338892,12.235619 30.7402436,13.037619 30.7402436,13.915119 C30.7402436,14.7519524 30.8164042,15.5422857 30.9687253,16.2802857 C31.1212146,17.0182857 31.3791182,17.6632857 31.7426042,18.209619 C32.1002059,18.761619 32.5867593,19.1974524 33.1904958,19.5229524 C33.8001167,19.8482857 34.5563424,20.0052857 35.4591731,20.0052857 C36.2856751,20.0052857 37.0008784,19.8599524 37.6046149,19.563619 C38.2142357,19.2672857 38.7125579,18.854619 39.0994133,18.3199524 C39.492153,17.791119 39.7794785,17.1519524 39.9612215,16.4139524 C40.1429645,15.6759524 40.2366101,14.868119 40.2366101,13.979119 Z" id="Shape"></path>
            <path d="M59.6622165,21.626619 C59.6622165,21.7137857 59.638679,21.795119 59.5917722,21.8532857 C59.5448653,21.917119 59.4745891,21.9694524 59.3690067,22.0159524 C59.2635924,22.0624524 59.1228718,22.0972857 58.9411288,22.1204524 C58.7535015,22.1437857 58.5250197,22.1554524 58.2553474,22.1554524 C57.968022,22.1554524 57.7336559,22.1437857 57.5460285,22.1204524 C57.3642855,22.0972857 57.2235649,22.0624524 57.1179825,22.0159524 C57.0184526,21.9694524 56.9421239,21.917119 56.8953851,21.8532857 C56.8484783,21.795119 56.8249408,21.7137857 56.8249408,21.626619 L56.8249408,12.654119 C56.8249408,11.776619 56.760549,11.0734524 56.6198284,10.544619 C56.4849923,10.0099524 56.2855962,9.55095238 56.0218082,9.16161905 C55.7580202,8.77795238 55.4180717,8.48161905 54.9960782,8.27828571 C54.579801,8.07478571 54.0991319,7.97028571 53.5480185,7.97028571 C52.8386996,7.97028571 52.1295488,8.22011905 51.4202299,8.71995238 C50.7050266,9.21961905 49.9605696,9.95195238 49.1866907,10.916619 L49.1866907,21.626619 C49.1866907,21.7137857 49.1633213,21.795119 49.1164145,21.8532857 C49.0695076,21.917119 48.9933471,21.9694524 48.893649,22.0159524 C48.7880666,22.0624524 48.647346,22.0972857 48.4657711,22.1204524 C48.2781438,22.1437857 48.0436095,22.1554524 47.7564522,22.1554524 C47.4867799,22.1554524 47.25813,22.1437857 47.0705027,22.1204524 C46.8887597,22.0972857 46.7423229,22.0624524 46.6367404,22.0159524 C46.5254418,21.9694524 46.4491131,21.917119 46.413975,21.8532857 C46.3729525,21.795119 46.349415,21.7137857 46.349415,21.626619 L46.349415,6.30245238 C46.349415,6.20945238 46.3670681,6.13395238 46.4022062,6.06995238 C46.4373443,6.01195238 46.5077886,5.95378571 46.6074867,5.90145238 C46.712901,5.84911905 46.8418528,5.82011905 47.0061108,5.80261905 C47.1643163,5.78528571 47.3753131,5.77361905 47.639101,5.77361905 C47.8912884,5.77361905 48.1022851,5.78528571 48.266375,5.80261905 C48.4304649,5.82011905 48.5594167,5.84911905 48.6532304,5.90145238 C48.7411597,5.95378571 48.811604,6.01195238 48.8526265,6.06995238 C48.8877646,6.13395238 48.911134,6.20945238 48.911134,6.30245238 L48.911134,8.33061905 C49.7788266,7.36595238 50.646351,6.65695238 51.5138755,6.20945238 C52.3756837,5.76195238 53.2490925,5.53545238 54.1283857,5.53545238 C55.1601681,5.53545238 56.0276926,5.70978571 56.7311271,6.05845238 C57.4345617,6.40128571 58.0090444,6.86611905 58.4428067,7.44145238 C58.876737,8.02261905 59.1874318,8.70245238 59.3748911,9.47528571 C59.5684028,10.254119 59.6622165,11.189619 59.6622165,12.2762857 L59.6622165,21.626619 Z" id="Shape"></path>
            <path d="M78.1555704,13.793119 C78.1555704,15.0424524 77.9914805,16.193119 77.6572482,17.239119 C77.3290685,18.2909524 76.8307463,19.1974524 76.1742186,19.9587857 C75.5176909,20.7199524 74.6910208,21.3127857 73.7004289,21.7369524 C72.7096689,22.161119 71.5607034,22.3762857 70.2594167,22.3762857 C68.9873838,22.3762857 67.8794407,22.1844524 66.9355876,21.8124524 C65.9917344,21.440619 65.2003706,20.8942857 64.5732647,20.179619 C63.9459907,19.4647857 63.4769223,18.593119 63.1662275,17.5702857 C62.8555327,16.5534524 62.7032115,15.391119 62.7032115,14.101119 C62.7032115,12.851619 62.8673014,11.701119 63.189765,10.6549524 C63.5179448,9.60328571 64.0103826,8.69661905 64.6669103,7.93545238 C65.3236061,7.17411905 66.1501081,6.58711905 67.1349837,6.16878571 C68.1196912,5.74461905 69.2686567,5.53545238 70.5817121,5.53545238 C71.8539132,5.53545238 72.9616881,5.72128571 73.9055413,6.09911905 C74.8493944,6.47095238 75.6407583,7.01728571 76.2680323,7.73195238 C76.9010225,8.44678571 77.3700909,9.31845238 77.686502,10.3354524 C78.0030811,11.358119 78.1555704,12.5087857 78.1555704,13.793119 Z M75.1716898,13.979119 C75.1716898,13.1537857 75.0896449,12.3692857 74.9373237,11.6312857 C74.7848344,10.8932857 74.5269309,10.2482857 74.1752136,9.69045238 C73.8176119,9.13245238 73.3369429,8.69661905 72.7332064,8.37128571 C72.1234174,8.04578571 71.3673598,7.88311905 70.4645291,7.88311905 C69.6262584,7.88311905 68.9110551,8.03411905 68.3073186,8.33061905 C67.7092983,8.62111905 67.2111443,9.03945238 66.8242889,9.57995238 C66.431381,10.1204524 66.1442237,10.759619 65.9565963,11.497619 C65.7689689,12.235619 65.6753234,13.037619 65.6753234,13.915119 C65.6753234,14.7519524 65.751484,15.5422857 65.9038051,16.2802857 C66.0562944,17.0182857 66.314198,17.6632857 66.677684,18.209619 C67.0352856,18.761619 67.5218391,19.1974524 68.1255756,19.5229524 C68.7351964,19.8482857 69.4914222,20.0052857 70.3942529,20.0052857 C71.2207548,20.0052857 71.9359581,19.8599524 72.5396946,19.563619 C73.1493155,19.2672857 73.6476377,18.854619 74.0344931,18.3199524 C74.4272328,17.791119 74.7145582,17.1519524 74.8963013,16.4139524 C75.0780443,15.6759524 75.1716898,14.868119 75.1716898,13.979119 Z" id="Shape"></path>
            <path d="M90.3661451,20.499119 C90.3661451,20.8304524 90.3427758,21.0919524 90.3017533,21.2837857 C90.2548465,21.4754524 90.1844021,21.6207857 90.0907566,21.7079524 C90.0028272,21.8009524 89.8621067,21.888119 89.6803637,21.963619 C89.4986207,22.0449524 89.2876239,22.1089524 89.0530897,22.161119 C88.8185555,22.2134524 88.5724207,22.254119 88.3086327,22.289119 C88.0448447,22.3239524 87.7810568,22.3412857 87.5172688,22.3412857 C86.7141362,22.3412857 86.0283548,22.2367857 85.453872,22.027619 C84.8852736,21.8124524 84.4162052,21.4987857 84.0470029,21.0744524 C83.6835169,20.6444524 83.4138446,20.1097857 83.2497547,19.453119 C83.0854967,18.8022857 83.0034517,18.0352857 83.0034517,17.146119 L83.0034517,8.19111905 L80.8344725,8.19111905 C80.6644982,8.19111905 80.529662,8.10395238 80.4242477,7.91795238 C80.3186653,7.73778571 80.2717584,7.44145238 80.2717584,7.03461905 C80.2717584,6.81961905 80.2835272,6.63945238 80.3127809,6.48845238 C80.3422028,6.34311905 80.3773409,6.22111905 80.4242477,6.12228571 C80.4711546,6.02928571 80.529662,5.95961905 80.6059907,5.91895238 C80.6821513,5.87828571 80.7641963,5.86078571 80.8521256,5.86078571 L83.0034517,5.86078571 L83.0034517,2.21711905 C83.0034517,2.13578571 83.0211048,2.06611905 83.0621273,1.99628571 C83.1031498,1.92661905 83.173426,1.86845238 83.2848928,1.81628571 C83.3903071,1.76395238 83.536912,1.72911905 83.7245394,1.70578571 C83.9062824,1.68261905 84.1349322,1.67095238 84.4103208,1.67095238 C84.6976463,1.67095238 84.9321805,1.68261905 85.1137554,1.70578571 C85.2954984,1.72911905 85.4421033,1.76395238 85.5418013,1.81628571 C85.6472156,1.86845238 85.71766,1.92661905 85.7645668,1.99628571 C85.8114737,2.06611905 85.834843,2.13578571 85.834843,2.21711905 L85.834843,5.86078571 L89.8034311,5.86078571 C89.8913604,5.86078571 89.9734054,5.87828571 90.0438497,5.91895238 C90.1082416,5.95961905 90.1728015,6.02928571 90.2197084,6.12228571 C90.2724996,6.22111905 90.313522,6.34311905 90.331007,6.48845238 C90.3545445,6.63945238 90.3661451,6.81961905 90.3661451,7.03461905 C90.3661451,7.44145238 90.3192383,7.73778571 90.213824,7.91795238 C90.1082416,8.10395238 89.9734054,8.19111905 89.8034311,8.19111905 L85.834843,8.19111905 L85.834843,16.7392857 C85.834843,17.7969524 85.9930486,18.593119 86.3037434,19.133619 C86.6203225,19.668119 87.1832047,19.9412857 87.9979379,19.9412857 C88.2617259,19.9412857 88.4962601,19.9122857 88.7013724,19.8657857 C88.9064848,19.8134524 89.0941122,19.7552857 89.2524858,19.703119 C89.4106914,19.6449524 89.5514119,19.592619 89.6627106,19.5402857 C89.7800618,19.488119 89.8795917,19.4647857 89.9734054,19.4647857 C90.032081,19.4647857 90.0848722,19.4764524 90.1376634,19.5054524 C90.1902865,19.534619 90.2255927,19.5867857 90.2548465,19.668119 C90.2841002,19.749619 90.313522,19.854119 90.331007,19.9877857 C90.3545445,20.1272857 90.3661451,20.2957857 90.3661451,20.499119 Z" id="Shape"></path>
            <path d="M101.152366,22.0507857 L99.0948533,27.687619 C99.024409,27.8677857 98.8485504,28.0072857 98.5729937,28.106119 C98.2917207,28.1989524 97.8636747,28.2454524 97.289192,28.2454524 C96.9902659,28.2454524 96.7500154,28.2339524 96.5682724,28.2047857 C96.3865294,28.1757857 96.2458089,28.1292857 96.1461108,28.059619 C96.0524653,27.9897857 95.999674,27.902619 95.9879053,27.7864524 C95.9761366,27.6759524 96.0055584,27.536619 96.0699502,27.379619 L98.2037914,22.0507857 C98.098209,22.0042857 97.9985109,21.9287857 97.9105816,21.8299524 C97.816936,21.7252857 97.7523761,21.6207857 97.7172379,21.5044524 L92.2069446,6.86611905 C92.1131309,6.62795238 92.0721084,6.43611905 92.0721084,6.30245238 C92.0721084,6.16878571 92.1131309,6.05845238 92.2069446,5.97695238 C92.3007583,5.90145238 92.4471951,5.84328571 92.6524756,5.82011905 C92.8575879,5.79111905 93.1331446,5.77361905 93.4789775,5.77361905 C93.8189261,5.77361905 94.0885984,5.78528571 94.2879945,5.80261905 C94.4813381,5.82011905 94.6338274,5.84911905 94.7510105,5.89561905 C94.8623091,5.94211905 94.9445222,6.00611905 94.9971453,6.08745238 C95.0499365,6.17461905 95.1027277,6.29078571 95.1614033,6.43611905 L99.5755224,18.732619 L99.6281455,18.732619 L103.884059,6.37211905 C103.954335,6.15711905 104.036548,6.01761905 104.136078,5.95378571 C104.229892,5.88978571 104.376497,5.84328571 104.570009,5.82011905 C104.769237,5.79111905 105.044793,5.77361905 105.413996,5.77361905 C105.736459,5.77361905 106.000247,5.79111905 106.205359,5.82011905 C106.41064,5.84328571 106.562961,5.90145238 106.656775,5.97695238 C106.756473,6.05845238 106.80338,6.16878571 106.80338,6.30245238 C106.80338,6.43611905 106.768242,6.61045238 106.703682,6.81378571 L101.152366,22.0507857 Z" id="Shape"></path>
            <path d="M123.209127,13.7232857 C123.209127,15.0657857 123.06269,16.268619 122.76948,17.332119 C122.482323,18.4012857 122.048561,19.3079524 121.485679,20.0517857 C120.91708,20.795619 120.213646,21.365119 119.381259,21.7717857 C118.542989,22.1727857 117.587535,22.3762857 116.508845,22.3762857 C116.051546,22.3762857 115.629552,22.3297857 115.242697,22.2367857 C114.849957,22.149619 114.468818,22.0042857 114.099616,21.8124524 C113.724361,21.6207857 113.355159,21.376619 112.991673,21.0802857 C112.622302,20.7839524 112.235447,20.441119 111.825054,20.040119 L111.825054,27.705119 C111.825054,27.7922857 111.801685,27.873619 111.754778,27.9432857 C111.707871,28.0072857 111.63171,28.0654524 111.532012,28.1117857 C111.42643,28.1582857 111.285709,28.1932857 111.104134,28.2164524 C110.916507,28.2339524 110.681973,28.2454524 110.394816,28.2454524 C110.125143,28.2454524 109.896493,28.2339524 109.708866,28.2164524 C109.527123,28.1932857 109.380686,28.1582857 109.275104,28.1117857 C109.163805,28.0654524 109.087476,28.0072857 109.052338,27.9432857 C109.011316,27.873619 108.987778,27.7922857 108.987778,27.705119 L108.987778,6.30245238 C108.987778,6.19778571 109.005431,6.11645238 109.04057,6.05845238 C109.075708,5.99445238 109.146152,5.94211905 109.24585,5.89561905 C109.351264,5.84911905 109.480216,5.82011905 109.644474,5.80261905 C109.80268,5.78528571 109.996191,5.77361905 110.224673,5.77361905 C110.465092,5.77361905 110.664488,5.78528571 110.816809,5.80261905 C110.975015,5.82011905 111.104134,5.84911905 111.203664,5.89561905 C111.309247,5.94211905 111.379523,5.99445238 111.420546,6.05845238 C111.461568,6.11645238 111.479221,6.19778571 111.479221,6.30245238 L111.479221,8.36545238 C111.948121,7.88311905 112.399537,7.47045238 112.839183,7.12178571 C113.272946,6.76728571 113.706876,6.47678571 114.152239,6.24428571 C114.592054,6.01195238 115.043301,5.83178571 115.506485,5.71545238 C115.969501,5.59345238 116.461939,5.53545238 116.977746,5.53545238 C118.097458,5.53545238 119.052911,5.75045238 119.844275,6.18628571 C120.635807,6.61628571 121.274682,7.20311905 121.773004,7.95278571 C122.271158,8.70245238 122.634644,9.57411905 122.863294,10.5677857 C123.097828,11.561619 123.209127,12.6134524 123.209127,13.7232857 Z M120.21953,14.0487857 C120.21953,13.2642857 120.160854,12.5087857 120.043671,11.776619 C119.920604,11.0444524 119.715323,10.3934524 119.422282,9.82395238 C119.12924,9.26028571 118.7365,8.80711905 118.244062,8.46428571 C117.751625,8.12711905 117.142004,7.95278571 116.409147,7.95278571 C116.039945,7.95278571 115.682343,8.00511905 115.324742,8.11561905 C114.973025,8.22595238 114.609539,8.39445238 114.246052,8.62695238 C113.87685,8.85945238 113.495711,9.16728571 113.091371,9.54511905 C112.692747,9.92861905 112.270585,10.3934524 111.825054,10.9514524 L111.825054,17.0472857 C112.598933,17.9887857 113.337506,18.7092857 114.04094,19.209119 C114.73849,19.7089524 115.471347,19.9587857 116.239173,19.9587857 C116.948492,19.9587857 117.558113,19.7844524 118.068204,19.4474524 C118.572242,19.1044524 118.988519,18.6512857 119.305099,18.0817857 C119.615793,17.518119 119.85016,16.8787857 119.996764,16.175619 C120.149254,15.4724524 120.21953,14.763619 120.21953,14.0487857 Z" id="Shape"></path>
            <path d="M139.610671,13.299119 C139.610671,13.7407857 139.499204,14.0604524 139.276438,14.2462857 C139.053673,14.4322857 138.801654,14.5252857 138.514328,14.5252857 L128.378919,14.5252857 C128.378919,15.3794524 128.466849,16.1407857 128.636823,16.8264524 C128.806797,17.5064524 129.094122,18.087619 129.498631,18.575619 C129.897255,19.0637857 130.418947,19.441619 131.057821,19.703119 C131.702748,19.964619 132.482343,20.0924524 133.414428,20.0924524 C134.147116,20.0924524 134.797928,20.0342857 135.37241,19.9122857 C135.941009,19.796119 136.439163,19.6624524 136.85544,19.5112857 C137.271717,19.3659524 137.61755,19.2322857 137.887223,19.116119 C138.156895,18.994119 138.356123,18.9359524 138.496843,18.9359524 C138.573004,18.9359524 138.649165,18.9534524 138.70784,18.994119 C138.7724,19.0347857 138.819307,19.0929524 138.854445,19.1742857 C138.889583,19.255619 138.918837,19.3659524 138.93649,19.5054524 C138.948259,19.6449524 138.959859,19.8192857 138.959859,20.022619 C138.959859,20.1737857 138.953975,20.301619 138.942374,20.4062857 C138.930606,20.516619 138.918837,20.609619 138.901352,20.6967857 C138.883699,20.7839524 138.854445,20.8594524 138.813423,20.9292857 C138.7724,20.993119 138.719609,21.0629524 138.660933,21.1209524 C138.596541,21.1849524 138.408914,21.2894524 138.098219,21.4289524 C137.793409,21.5684524 137.3889,21.7079524 136.896463,21.8474524 C136.404025,21.981119 135.835426,22.103119 135.190667,22.2134524 C134.54574,22.318119 133.854074,22.3762857 133.121386,22.3762857 C131.849185,22.3762857 130.735526,22.196119 129.779904,21.8474524 C128.82445,21.4929524 128.021318,20.9699524 127.36479,20.2784524 C126.714147,19.5867857 126.221709,18.7209524 125.887645,17.6749524 C125.559297,16.6289524 125.389322,15.4144524 125.389322,14.0312857 C125.389322,12.7179524 125.565181,11.5324524 125.90513,10.480619 C126.250962,9.43461905 126.7434,8.53978571 127.394044,7.80761905 C128.038971,7.07528571 128.818566,6.51745238 129.738881,6.12228571 C130.653481,5.73295238 131.679211,5.53545238 132.810691,5.53545238 C134.024049,5.53545238 135.055831,5.72711905 135.911587,6.11645238 C136.761626,6.49995238 137.465061,7.02311905 138.016174,7.67395238 C138.56712,8.32478571 138.965744,9.09178571 139.223647,9.96928571 C139.481719,10.852619 139.610671,11.7882857 139.610671,12.7877857 L139.610671,13.299119 Z M136.761626,12.468119 C136.796764,10.992119 136.468585,9.82978571 135.771034,8.99295238 C135.079201,8.15045238 134.053471,7.73195238 132.69334,7.73195238 C131.989906,7.73195238 131.380285,7.86561905 130.852709,8.12711905 C130.325133,8.38278571 129.885486,8.73145238 129.533769,9.16161905 C129.176167,9.59161905 128.900611,10.097119 128.707267,10.666619 C128.513755,11.2419524 128.402457,11.8404524 128.378919,12.468119 L136.761626,12.468119 Z" id="Shape"></path>
        </g>
    </g>
</svg>