<?xml version="1.0" encoding="UTF-8"?>
<svg width="160px" height="72px" viewBox="0 0 160 72" version="1.1" xmlns="http://www.w3.org/2000/svg" xmlns:xlink="http://www.w3.org/1999/xlink">
    <!-- Generator: Sketch 49.2 (51160) - http://www.bohemiancoding.com/sketch -->
    <title>customer/mozilla</title>
    <desc>Created with Sketch.</desc>
    <defs></defs>
    <g id="customer/mozilla" stroke="none" stroke-width="1" fill="none" fill-rule="evenodd">
        <g id="mozilla" transform="translate(20.000000, 21.000000)" fill="#000000">
            <path d="M112.435333,20.4726486 C108.659333,20.4726486 107.334,21.1420541 107.334,23.5718919 C107.334,25.1526486 108.367333,26.2235676 109.752667,26.2235676 C110.768,26.2235676 111.794667,25.7072432 112.603333,24.8367568 L112.692667,20.4726486 L112.435333,20.4726486 L112.435333,20.4726486 Z M105.356667,9.80237838 C107.387333,8.96756757 109.133333,8.61405405 111.056667,8.61405405 C114.57,8.61405405 116.971333,9.87891892 117.794,12.1427027 C118.064667,12.9749189 118.189333,13.6092973 118.164667,15.7926486 L118.032667,22.6118919 L118.032667,22.9718919 C118.032667,25.1526486 118.403333,25.9881081 120,27.1355676 L117.1,30.3937297 C115.823333,29.8735135 114.687333,28.9589189 114.156,27.9308108 C113.754,28.331027 113.301333,28.7195676 112.888,29.0004324 C111.876,29.7139459 110.398,30.1128649 108.688,30.1128649 C104.038667,30.1128649 101.512667,27.8075676 101.512667,23.7690811 C101.512667,19.0015135 104.904,16.7772973 111.544667,16.7772973 C111.944667,16.7772973 112.321333,16.7772973 112.774,16.8227027 L112.774,15.9943784 C112.774,13.7286486 112.321333,12.9749189 110.312667,12.9749189 C108.580667,12.9749189 106.525333,13.8032432 104.287333,15.2743784 L101.960667,11.4655135 C103.069333,10.788973 103.885333,10.3958919 105.356667,9.80302703 L105.356667,9.80237838 Z M96.7846667,5.28324324 L96.7846667,21.107027 C96.7846667,24.6032432 96.8313333,25.0728649 97.166,25.6274595 C97.358,25.9874595 97.7993333,26.1820541 98.256,26.1820541 C98.4626667,26.1820541 98.5873333,26.1820541 98.876,26.1094054 L99.806,29.2787027 C98.876,29.6341622 97.7326667,29.8326486 96.546,29.8326486 C94.2193333,29.8326486 92.342,28.7643243 91.69,27.0629189 C91.2733333,26.0296216 91.2053333,25.392 91.2053333,22.4970811 L91.2053333,7.33816216 C91.2053333,4.68324324 91.124,3.06097297 90.9133333,1.22854054 L96.4926667,0 C96.7173333,1.10918919 96.7846667,2.41945946 96.7846667,5.28324324 Z M85.4553333,5.28324324 L85.4553333,21.107027 C85.4553333,24.6032432 85.498,25.0728649 85.826,25.6274595 C86.0326667,25.9874595 86.474,26.1820541 86.93,26.1820541 C87.126,26.1820541 87.2433333,26.1820541 87.5393333,26.1094054 L88.4726667,29.2787027 C87.5393333,29.6341622 86.396,29.8326486 85.2126667,29.8326486 C82.8833333,29.8326486 81.0093333,28.7643243 80.3606667,27.0629189 C79.9506667,26.0296216 79.862,25.392 79.862,22.4970811 L79.862,7.33816216 C79.862,4.68324324 79.7906667,3.06097297 79.5873333,1.22854054 L85.1733333,0 C85.3693333,1.10918919 85.4546667,2.41945946 85.4546667,5.28324324 L85.4553333,5.28324324 Z M75.5086667,8.5692973 L75.5086667,29.3571892 L70.0466667,29.3571892 L70.0466667,9.40540541 L75.508,8.56994595 L75.5086667,8.5692973 Z M76.1493333,3.456 C76.1545235,4.32961717 75.7999063,5.16886855 75.1646825,5.78631472 C74.5294587,6.40376088 73.6665454,6.74796571 72.7686667,6.74205405 C70.9406667,6.74205405 69.4373333,5.28259459 69.4373333,3.456 C69.4373333,1.63264865 70.9906667,0.160864865 72.8606667,0.160864865 C74.692,0.160864865 76.1493333,1.63264865 76.1493333,3.456 L76.1493333,3.456 Z M66.9106667,9.04735135 L66.9106667,12.6972973 L57.6906667,25.667027 L67.2706667,25.667027 L65.964,29.3578378 L50.6006667,29.3578378 L50.6006667,26.0659459 L60.416,12.7777297 L51.42,12.7777297 L51.42,9.048 L66.91,9.048 L66.9106667,9.04735135 Z M37.106,14.6387027 C36.7313333,15.7135135 36.5326667,17.1398919 36.5326667,19.1643243 C36.5326667,21.4988108 36.778,23.2527568 37.2233333,24.2808649 C37.7146667,25.392 38.944,25.9465946 39.9946667,25.9465946 C42.3606667,25.9465946 43.3726667,23.8858378 43.3726667,19.0864865 C43.3726667,16.3472432 43.006,14.5589189 42.2753333,13.6443243 C41.7513333,12.9749189 40.9,12.5766486 39.9166667,12.5766486 C38.6093333,12.5766486 37.5473333,13.3667027 37.106,14.6387027 L37.106,14.6387027 Z M46.928,11.7068108 C48.5946667,13.6092973 49.34,15.8296216 49.34,19.1208649 C49.34,22.6118919 48.5173333,24.9963243 46.718,26.976 C45.136,28.7195676 43.0513333,29.7943784 39.838,29.7943784 C34.1626667,29.7943784 30.4613333,25.667027 30.4613333,19.2836757 C30.4613333,12.8944865 34.2013333,8.64843243 39.838,8.64843243 C42.8126667,8.64843243 45.136,9.64345946 46.928,11.7061622 L46.928,11.7068108 Z M4.94133333,8.69383784 C5.30466667,9.24 5.46533333,9.72713514 5.668,10.7545946 C7.09,9.40410811 8.84266667,8.69383784 10.756,8.69383784 C12.4833333,8.69383784 13.9013333,9.24 14.9986667,10.3543784 C15.2946667,10.6332973 15.58,10.9939459 15.8253333,11.3468108 C17.7346667,9.44432432 19.4453333,8.69383784 21.736,8.69383784 C23.3673333,8.69383784 24.914,9.16864865 25.858,9.9587027 C27.038,10.9511351 27.4113333,12.1427027 27.4113333,14.9182703 L27.4113333,29.3571892 L22.11,29.3571892 L22.11,15.9528649 C22.11,13.5223784 21.8146667,13.0527568 20.3926667,13.0527568 C19.374,13.0527568 17.942,13.7286486 16.766,14.76 L16.766,29.3578378 L11.5926667,29.3578378 L11.5926667,16.1429189 C11.5926667,13.6092973 11.2153333,13.0144865 9.698,13.0144865 C8.68933333,13.0144865 7.29266667,13.5223784 6.11733333,14.5589189 L6.11733333,29.3578378 L0.78,29.3578378 L0.78,15.1932973 C0.78,12.2607568 0.573333333,10.9939459 0,9.99762162 L4.94133333,8.69383784 L4.94133333,8.69383784 Z" id="Shape"></path>
        </g>
    </g>
</svg>