<?xml version="1.0" encoding="UTF-8"?>
<svg width="160px" height="72px" viewBox="0 0 160 72" version="1.1" xmlns="http://www.w3.org/2000/svg" xmlns:xlink="http://www.w3.org/1999/xlink">
    <!-- Generator: Sketch 49.2 (51160) - http://www.bohemiancoding.com/sketch -->
    <title>customer/nike</title>
    <desc>Created with Sketch.</desc>
    <defs></defs>
    <g id="customer/nike" stroke="none" stroke-width="1" fill="none" fill-rule="evenodd">
        <g id="nike" transform="translate(20.000000, 14.000000)" fill="#000000" fill-rule="nonzero">
            <path d="M13.5411168,43.1144517 C9.98375635,42.9714886 7.07329949,41.986769 4.79756345,40.1578279 C4.36324873,39.8084311 3.32832487,38.760857 2.98111675,38.3190273 C2.05827411,37.1451281 1.43086294,36.0026561 1.01238579,34.7350915 C-0.275329949,30.8331862 0.387411168,25.7130138 2.9080203,20.0937032 C5.06619289,15.2828733 8.39634518,10.5114815 14.2062944,3.90313776 C15.062132,2.93074253 17.6107614,0.0868870263 17.6272081,0.0868870263 C17.6332995,0.0868870263 17.4944162,0.330293944 17.3195939,0.626695786 C15.808934,3.18647385 14.5163452,6.20163853 13.8121827,8.81194664 C12.6810152,13.0003943 12.8174619,16.5948058 14.2117766,19.3819691 C15.1736041,21.3021107 16.8225381,22.9652886 18.6767513,23.8846889 C21.9228426,25.4936395 26.6753299,25.626743 32.4791878,24.27414 C32.8787817,24.1804746 52.6793909,18.8631118 76.4808122,12.4575044 C100.282234,6.05128084 119.759391,0.814026679 119.762437,0.81834022 C119.769137,0.8238862 64.4649746,24.7640349 35.755736,37.1839499 C31.2091371,39.1503081 29.9932995,39.6469815 27.8558376,40.4061646 C22.3918782,42.3472577 17.4974619,43.2734364 13.5411168,43.1144517 Z" id="Shape"></path>
        </g>
    </g>
</svg>