<?xml version="1.0" encoding="UTF-8"?>
<svg width="160px" height="72px" viewBox="0 0 160 72" version="1.1" xmlns="http://www.w3.org/2000/svg" xmlns:xlink="http://www.w3.org/1999/xlink">
    <!-- Generator: Sketch 49.2 (51160) - http://www.bohemiancoding.com/sketch -->
    <title>customer/nsw-government</title>
    <desc>Created with Sketch.</desc>
    <defs></defs>
    <g id="customer/nsw-government" stroke="none" stroke-width="1" fill="none" fill-rule="evenodd">
        <g id="nsw-government" transform="translate(46.000000, 0.000000)" fill="#000000">
            <path d="M18.1042735,55.148 L7.29297094,42.6664 L2.71197949,42.6664 L2.71197949,62.204 L7.17498803,62.204 L7.17498803,49.748 L17.9553709,62.204 L22.5656547,62.204 L22.5656547,42.6664 L18.1042735,42.6664 L18.1042735,55.148 Z M60.9361368,42.668 L57.9759863,55.176 L54.867747,42.668 L50.5967658,42.668 L47.4356376,55.036 L44.5690598,42.668 L39.8928684,42.668 L45.0637744,62.2016 L49.6585983,62.2016 L52.6936068,49.8424 L55.7749949,62.2016 L60.289265,62.2016 L60.3340171,62.0336 L65.5390974,42.6696 L60.9361368,42.6696 L60.9361368,42.668 L60.9361368,42.668 Z M1.71197949,68.476 L1.71197949,68.46 C1.71197949,66.768 3.03013333,65.3336 4.88449915,65.3336 C5.95529573,65.3336 6.61437265,65.6264 7.24822564,66.156 L6.56311111,66.9584 C6.08548376,66.56 5.62168889,66.3104 4.83974701,66.3104 C3.70873846,66.3104 2.84461538,67.2864 2.84461538,68.444 L2.84461538,68.4616 C2.84461538,69.708 3.6810735,70.6216 4.93738803,70.6216 C5.51753846,70.6216 6.04398632,70.4416 6.4223453,70.1624 L6.4223453,69.0304 L4.84869744,69.0304 L4.84869744,68.1056 L7.4662906,68.1056 L7.4662906,70.648 C6.86010256,71.156 5.98947009,71.592 4.90158632,71.592 C2.97724444,71.5904 1.71197949,70.2384 1.71197949,68.476 L1.71197949,68.476 Z" id="Shape"></path>
            <path d="M8.13675214,68.476 L8.13675214,68.46 C8.13675214,66.7576 9.47280684,65.3336 11.3605333,65.3336 C13.2507009,65.3336 14.5672274,66.7424 14.5672274,68.4424 L14.5672274,68.46 C14.5672274,70.16 13.2360547,71.5904 11.3426325,71.5904 C9.45490598,71.5904 8.13675214,70.1784 8.13675214,68.476 L8.13675214,68.476 Z M13.4354051,68.476 L13.4354051,68.46 C13.4354051,67.2856 12.5647726,66.3096 11.3442598,66.3096 C10.123747,66.3096 9.27182906,67.2664 9.27182906,68.4424 L9.27182906,68.46 C9.27182906,69.6376 10.1424615,70.6104 11.3629744,70.6104 C12.5834872,70.6104 13.4354051,69.652 13.4354051,68.476 L13.4354051,68.476 Z M14.9171077,65.3336 L16.1107692,65.3336 L17.9643214,69.9816 L19.8129915,65.3336 L20.9781744,65.3336 L18.4216068,71.424 L17.4712342,71.424 L14.9171077,65.3336 Z M21.6982769,65.3336 L26.2597402,65.3336 L26.2597402,66.2824 L22.7772103,66.2824 L22.7772103,67.856 L25.864294,67.856 L25.864294,68.808 L22.7772103,68.808 L22.7772103,70.4304 L26.3044923,70.4304 L26.3044923,71.38 L21.6982769,71.38 L21.6982769,65.3336 Z M27.6812308,65.3336 L30.4216889,65.3336 C31.1946803,65.3336 31.8024957,65.5576 32.1971282,65.9376 C32.5250393,66.2656 32.7056752,66.716 32.7056752,67.2424 L32.7056752,67.2616 C32.7056752,68.2544 32.0994872,68.852 31.2394325,69.092 L32.8985162,71.3816 L31.6251145,71.3816 L30.1124923,69.2744 L28.7609778,69.2744 L28.7609778,71.3816 L27.6812308,71.3816 L27.6812308,65.3336 L27.6812308,65.3336 Z M30.3419487,68.3304 C31.1165675,68.3304 31.6096547,67.9336 31.6096547,67.3176 L31.6096547,67.3024 C31.6096547,66.6536 31.1369094,66.3016 30.333812,66.3016 L28.7609778,66.3016 L28.7609778,68.3304 L30.3419487,68.3304 L30.3419487,68.3304 Z M33.9034051,65.3336 L34.9025983,65.3336 L38.1979829,69.512 L38.1979829,65.3336 L39.2622701,65.3336 L39.2622701,71.38 L38.3566496,71.38 L34.9652513,67.0744 L34.9652513,71.38 L33.9034051,71.38 L33.9034051,65.3336 Z M40.2769231,65.3336 L41.4282735,65.3336 L43.3013538,68.192 L45.1736205,65.3336 L46.3241573,65.3336 L46.3241573,71.38 L45.2403419,71.38 L45.2403419,67.044 L43.3013538,69.8936 L43.2631111,69.8936 L41.344465,67.0584 L41.344465,71.38 L40.2769231,71.38 L40.2769231,65.3336 Z M47.4641162,65.3336 L52.0247658,65.3336 L52.0247658,66.2824 L48.5454906,66.2824 L48.5454906,67.856 L51.6276923,67.856 L51.6276923,68.808 L48.5454906,68.808 L48.5454906,70.4304 L52.0695179,70.4304 L52.0695179,71.38 L47.4641162,71.38 L47.4641162,65.3336 Z M52.8888889,65.3336 L53.8921504,65.3336 L57.1834667,69.512 L57.1834667,65.3336 L58.2493812,65.3336 L58.2493812,71.38 L57.345388,71.38 L53.9548034,67.0744 L53.9548034,71.38 L52.8888889,71.38 L52.8888889,65.3336 Z M60.2607863,66.3184 L58.3136615,66.3184 L58.3136615,65.3336 L63.3023043,65.3336 L63.3023043,66.3184 L61.3527385,66.3184 L61.3527385,71.3784 L60.2607863,71.3784 L60.2607863,66.3184 Z M24.4102564,59.904 L27.0327316,56.8136 C28.8512957,58.288 30.7528547,59.2256 33.062065,59.2256 C34.878188,59.2256 35.9766496,58.5144 35.9766496,57.352 L35.9766496,57.2944 C35.9766496,56.1896 35.2825846,55.624 31.9082735,54.772 C27.8423385,53.7504 25.2174222,52.6456 25.2174222,48.7056 L25.2174222,48.6464 C25.2174222,45.0464 28.1596718,42.6664 32.2841915,42.6664 C35.2256274,42.6664 37.7358154,43.5736 39.7846496,45.1896 L37.4754393,48.48 C35.6861675,47.2616 33.9278154,46.5224 32.2239795,46.5224 C30.5233983,46.5224 29.6299829,47.288 29.6299829,48.2536 L29.6299829,48.308 C29.6299829,49.6136 30.4908513,50.0384 33.9831453,50.9176 C38.077559,51.9656 40.3851419,53.4136 40.3851419,56.8736 L40.3851419,56.9296 C40.3851419,60.8704 37.3273504,63.0816 32.9758154,63.0816 C29.9163966,63.0784 26.8325675,62.0304 24.4102564,59.904 L24.4102564,59.904 Z M13.4069265,5.3336 C12.9886974,5.3464 12.7380855,5.5856 12.6485812,6.064 C12.6485812,6.064 12.5493128,6.7736 12.4345846,7.9856 C12.2830923,9.63154606 12.2065304,11.283329 12.2051282,12.936 C12.2051282,17.6384 12.8300308,24.32 15.8080821,29.4424 C18.0936957,33.3496 21.3199179,35.5504 24.9212444,35.6656 C23.0514872,34.2694426 21.6672432,32.338361 20.9586462,30.1376 C20.119747,27.5544 19.6966359,24.4984 19.6966359,21.06 C19.6966359,16.3104 20.5046154,12.2384 20.751159,11.1056 C20.7592957,11.0744 20.7649915,11.056 20.7649915,11.048 C20.9098256,10.3864 21.2995761,9.86 21.8170735,9.5936 C18.1449573,7.2744 14.9862701,5.9136 14.3752,5.6576 C14.1907827,5.57110837 14.0029472,5.49184601 13.8121368,5.42 L13.8056274,5.42 L13.7999316,5.4176 C13.6761173,5.3635715 13.5423803,5.33498685 13.4069265,5.3336 L13.4069265,5.3336 Z M44.3127521,12 C44.2232479,12 44.1207248,12.0424 44.0019282,12.128 C44.0019282,12.1336 43.8880137,12.216 43.6813402,12.3904 C43.471412,12.556 43.1719795,12.808 42.7578188,13.168 C41.7153328,14.0909281 40.7205857,15.0646847 39.7773265,16.0856 C37.7105915,18.352 34.966065,21.9224 33.6601162,26.06 C32.9082803,28.4736 32.5356171,30.564 32.5478222,32.272 C32.5331761,33.5504 32.7406632,34.632 33.1605197,35.4864 C33.5567795,36.324 34.1686632,36.9176 35.0238359,37.304 C35.3810393,37.46 35.8375111,37.5416 36.3777915,37.5416 L36.4046427,37.5416 C38.9172718,37.5416 43.1076991,35.48 44.5519726,30.8976 C45.3282188,28.4296 45.7269197,25.5144 45.7269197,22.236 C45.7269197,18.1656 45.1231726,14.62 44.8644239,13.2856 L44.7081983,12.524 C44.6455453,12.2904 44.5267487,12 44.3119385,12 L44.3127521,12 Z" id="Shape"></path>
            <path d="M23.1531282,12 C22.9350632,12 22.8016205,12.2864 22.7283897,12.5304 C22.717812,12.576 22.6632957,12.8376 22.5729778,13.2864 C22.4334466,13.9827416 22.3135193,14.6827423 22.2133333,15.3856 C21.9789949,16.9936 21.6982769,19.4864 21.6982769,22.236 C21.6982769,25.568 22.0977915,28.4744 22.882988,30.8824 C24.3557402,35.4744 28.6535726,37.54 31.2304821,37.54 L31.2573333,37.54 C31.8008684,37.54 32.2768684,37.4544 32.6788239,37.2856 C32.8887521,37.2 33.0905436,37.0936 33.32,36.9416 C33.1226425,36.6746799 32.9510279,36.3902489 32.8073846,36.092 C32.305347,35.064 32.0531077,33.816 32.0409026,32.272 C32.052294,30.3664 32.4591316,28.14 33.2443282,25.6464 C33.3118632,25.4176 33.3932308,25.1856 33.4729709,24.9576 C33.5047043,24.8696 33.5356239,24.7816 33.5665436,24.688 C30.8260855,17.996 24.533935,12.9504 23.8187145,12.396 C23.5941402,12.216 23.4785983,12.132 23.4785983,12.132 C23.3549197,12.0456 23.2426325,12 23.1531282,12 M33.5885128,0 C33.4355419,0 33.2793162,0.1184 33.1222769,0.3504 C33.1190222,0.3544 32.9920889,0.5384 32.781347,0.8816 C32.465641,1.396 32.1662085,1.9016 31.861894,2.4216 C30.8469361,4.19972129 29.9222794,6.02623068 29.0913299,7.8944 C28.3557314,9.53663879 27.698649,11.211802 27.1222359,12.9144 C29.1604923,14.916 31.8976957,18.0424 33.7187009,21.8376 C35.1222906,18.8656 37.2565607,15.9056 40.0718769,13.0304 C38.1516034,7.3024 35.4558974,2.632 34.3818462,0.8816 C34.1556444,0.532 34.0384752,0.3464 34.0384752,0.3464 C33.8220376,0.0256 33.6397744,2.84217094e-15 33.5885128,2.84217094e-15 M53.4080137,5.3336 C53.3258325,5.3336 53.1940171,5.3496 53.0272137,5.4176 L53.0231453,5.42 L53.0174496,5.42 C53.0150085,5.42 52.8172855,5.492 52.4552,5.6544 C52.1036923,5.7944 51.6415248,6.0104 51.0524239,6.2816 L50.8465641,6.3776 C49.0451216,7.23334847 47.2942868,8.18847009 45.6024274,9.2384 C45.4095863,9.3456 45.22,9.4624 45.0312274,9.584 C45.5495385,9.8424 45.9441709,10.3744 46.0922598,11.0416 C46.0971419,11.0576 46.1003966,11.076 46.1052786,11.1064 C46.3510085,12.2424 47.1484103,16.3144 47.1484103,21.0616 C47.1484103,24.4816 46.7334359,27.536 45.9173197,30.1376 C45.0385504,32.872 43.4095726,34.6176 42.0401573,35.664 C45.5845265,35.5 48.7659966,33.3056 51.0231316,29.444 C54.0011829,24.32 54.6260855,17.6384 54.6260855,12.9376 C54.6260855,11.272 54.547159,9.6024 54.394188,7.972 C54.3383082,7.33175631 54.2669559,6.69290918 54.1801915,6.056 C54.0906872,5.5856 53.8343795,5.3464 53.4080137,5.3336 M43.4771077,1.3336 C43.4304174,1.33345657 43.383822,1.3377431 43.3379692,1.3464 L43.3298325,1.3464 C43.2062327,1.36153923 43.0890437,1.40906379 42.9905299,1.484 L42.9823932,1.4856 L42.9807658,1.4904 C42.9726291,1.492 42.1915009,1.964 40.9913299,2.8136 C39.9584723,3.54624096 38.9513689,4.31335487 37.9717812,5.1136 C38.9031622,7.01717149 39.7395296,8.96428606 40.4779009,10.948 C42.0246974,9.7504 43.7228376,8.6096 45.6471795,7.468 C45.1044581,4.7536 44.4811829,2.7336 44.2338256,1.9816 C44.2232479,1.956 44.2191795,1.94 44.2126701,1.924 C44.0629538,1.5344 43.8188513,1.3336 43.4771077,1.3336 M23.8634667,1.3336 C23.5298598,1.3336 23.2833162,1.5344 23.131159,1.9224 C23.1270906,1.9384 23.1230222,1.9544 23.1124444,1.98 C22.8659009,2.732 22.241812,4.752 21.6982769,7.4664 C23.6226188,8.608 25.3175043,9.748 26.8651145,10.9464 C27.5937588,8.95833949 28.4317231,7.01066919 29.3753026,5.112 C28.3964181,4.31055222 27.3890006,3.54340573 26.3549402,2.812 C25.1507009,1.9624 24.3720137,1.4904 24.3630632,1.4896 L24.3589949,1.484 L24.3549265,1.4824 C24.2556917,1.40883808 24.138818,1.36171694 24.0156239,1.3456 L24.0074872,1.3456 C23.9586667,1.3376 23.9098462,1.3336 23.8634667,1.3336 M5.6200547,14.6664 C4.57448205,14.6664 3.97398974,14.696 3.96585299,14.696 C3.55331966,14.72 3.17496068,14.9424 2.92434872,15.3056 C2.77422696,15.5280074 2.70038287,15.791789 2.71360684,16.0584 C2.78683761,16.7664 3.26446496,19.3224 6.37026325,23.172 C7.90288324,22.4211116 9.47128458,21.7429978 11.0700513,21.14 C10.7543453,19.2216 10.5655726,17.1264 10.5102427,14.9064 C9.07108563,14.7708641 7.62704006,14.6913353 6.1814906,14.668 C5.98376752,14.6664 5.79662222,14.6664 5.6200547,14.6664 M61.0516786,14.6664 C60.8775521,14.6664 60.6920342,14.6664 60.4902427,14.668 C59.0446456,14.6900323 57.6005471,14.769564 56.1614906,14.9064 C56.1155461,16.9941976 55.9282577,19.0766706 55.6008684,21.14 C57.2011294,21.7413296 58.7704249,22.4194778 60.3030974,23.172 C63.4154051,19.312 63.8914051,16.7504 63.9646359,16.0536 C63.9874188,15.816 63.8547897,15.452 63.7498256,15.3064 C63.4975863,14.944 63.1208547,14.7216 62.7075077,14.696 C62.704253,14.696 62.0899282,14.6664 61.0516786,14.6664 M55.5723897,22.6664 C54.9352821,25.8144 53.9409709,28.5664 52.6146803,30.8496 C51.2314325,33.24 49.501559,35.0504 47.4641162,36.248 C62.2404581,35.46 66.4121709,30.7856 66.8458598,30.244 L66.8474872,30.2416 C66.9939487,30.0216 67.0671795,29.78 67.0671795,29.5216 C67.0671795,29.104 66.8694564,28.696 66.5480547,28.46 C66.5480547,28.46 66.3755556,28.348 66.066359,28.1416 L66.0622906,28.1384 L66.0565949,28.1344 C65.8246974,27.9624 65.4845812,27.744 65.0590291,27.4664 C64.9451145,27.3944 64.8230632,27.3184 64.7018256,27.2384 C63.1350577,26.2545415 61.5174708,25.3511961 59.8555761,24.532 C58.4615652,23.8378438 57.0319213,23.2151429 55.5723897,22.6664 M11.4988581,22.6664 C6.51347009,24.5224 2.50205128,27.1064 0.994311111,28.1416 C0.693251282,28.348 0.522379487,28.4624 0.516683761,28.468 C0.199350427,28.696 6.35255483e-15,29.104 6.35255483e-15,29.5216 C-0.000561152633,29.7921774 0.085400408,30.0560826 0.245729915,30.276 C0.275022222,30.308 0.305128205,30.344 0.34174359,30.388 C0.358017094,30.408 0.376731624,30.4304 0.400328205,30.456 C0.500410256,30.5664 0.738003419,30.8056 1.10659829,31.1136 C1.72905983,31.6344 2.84542222,32.4224 4.64608547,33.22 C8.36620855,34.8784 13.5257231,35.9256 19.6038769,36.2616 C17.5900308,35.0664 15.8219145,33.2144 14.4533128,30.848 C13.1286496,28.5664 12.1335248,25.816 11.4988581,22.6664 M53.7294154,37.3336 C52.9710701,37.3336 51.853894,37.484 50.1573812,37.7144 C49.9035145,37.748 49.6431385,37.7816 49.3664889,37.8216 C48.6276718,37.9256 47.7244923,37.972 46.5243214,37.972 C45.7895726,37.972 45.0328547,37.956 44.2240615,37.9376 L44.1500171,37.9344 C43.383535,37.9184 42.5153436,37.8984 41.6447111,37.8984 C39.8334701,37.8984 37.4941538,37.972 35.4298598,38.5376 C35.3257094,38.568 35.2492239,38.6784 35.2606154,38.748 C35.2711932,38.8144 35.3989402,38.8376 35.5047179,38.8376 C35.5340103,38.8376 35.569812,38.836 35.602359,38.832 C36.3856079,38.7628663 37.1715519,38.7273659 37.9579487,38.7256 C40.647959,38.7256 42.486865,39.1816 44.2688137,39.6224 C45.9368479,40.0384 47.5186325,40.4296 49.7139282,40.4296 C52.0548718,40.4296 53.910865,39.94 54.6732786,39.1176 C54.927959,38.8424 55.0418735,38.5416 55.0150222,38.2216 C54.9523692,37.6064 54.7530188,37.3336 53.7294154,37.3336 M13.4923624,37.3336 C12.4728274,37.3336 12.2734769,37.6064 12.2100103,38.224 C12.1799043,38.5384 12.2913778,38.84 12.5436171,39.1136 C13.2905709,39.9264 15.1961983,40.4296 17.5135453,40.4296 C19.708841,40.4296 21.2873709,40.0384 22.9594735,39.6224 C24.7389812,39.18 26.5762598,38.7256 29.2711521,38.7256 C30.0132239,38.7256 30.8089983,38.7616 31.6251145,38.832 C31.6609162,38.836 31.6934632,38.8376 31.7219419,38.8376 C31.8301607,38.8376 31.9579077,38.8144 31.9684855,38.748 C31.9782496,38.6784 31.9058325,38.568 31.7976137,38.5376 C29.7365744,37.972 27.3940034,37.8984 25.5868308,37.8984 L25.5852034,37.8984 C24.7145709,37.8984 23.8455658,37.9184 23.0790838,37.9344 L23.0042256,37.9376 C22.2003145,37.956 21.4411556,37.972 20.7047795,37.972 C19.5070496,37.972 18.6022427,37.9256 17.8569162,37.8216 C17.5786393,37.7824 17.3060581,37.7464 17.0513778,37.7104 C15.359747,37.484 14.2441983,37.3336 13.4923624,37.3336" id="Shape"></path>
        </g>
    </g>
</svg>