<?xml version="1.0" encoding="UTF-8"?>
<svg width="160px" height="72px" viewBox="0 0 160 72" version="1.1" xmlns="http://www.w3.org/2000/svg" xmlns:xlink="http://www.w3.org/1999/xlink">
    <!-- Generator: Sketch 49.2 (51160) - http://www.bohemiancoding.com/sketch -->
    <title>customer/nubank</title>
    <desc>Created with Sketch.</desc>
    <defs></defs>
    <g id="customer/nubank" stroke="none" stroke-width="1" fill="none" fill-rule="evenodd">
        <g id="nubank" transform="translate(20.000000, 10.000000)" fill="#000000" fill-rule="nonzero">
            <g id="Group" transform="translate(60.000000, 25.815476) scale(-1, 1) rotate(-180.000000) translate(-60.000000, -25.815476) translate(0.000000, 0.815476)">
                <path d="M10.9166667,49.3333333 C9.5,48.2916667 8.75,46.5 8.75,44.125 C8.75,42.9166667 8.58333333,42.0833333 8.375,42.25 C7.66666667,42.6666667 4.58333333,41.9583333 3.20833333,41.0416667 C2.5,40.5416667 1.45833333,39.5 0.958333333,38.75 C0,37.3333333 0,37.2083333 0,23.0416667 C0,10.625 0.0833333333,8.66666667 0.666666667,8.125 C1.66666667,7.08333333 8.33333333,7.16666667 9.625,8.25 L10.625,9.04166667 L10.625,24.7083333 L10.625,40.375 L13.5416667,40.375 C17.2916667,40.3333333 19.5833333,39.375 20.5416667,37.3333333 C21.1666667,36.0833333 21.25,34.125 21.25,22.3333333 C21.25,6.25 20.8333333,7.45833333 26.6666667,7.45833333 C32.2916667,7.45833333 31.8333333,6.29166667 32,21.9166667 C32.0833333,29.2083333 31.9166667,36.3333333 31.7083333,37.75 C30.9166667,42.7916667 28.125,46.4166667 23.4166667,48.625 C21.4166667,49.5416667 20.3333333,49.75 16.4583333,49.875 C12.7083333,50 11.7083333,49.875 10.9166667,49.3333333 Z M21.8333333,47.0416667 C24.8333333,45.9166667 27.75,43.3333333 28.9166667,40.7916667 C29.75,39 29.7916667,38.125 29.9166667,24.25 L30.0416667,9.54166667 L26.7083333,9.54166667 L23.3333333,9.54166667 L23.3333333,22.375 C23.3333333,29.875 23.1666667,35.7916667 22.9166667,36.7083333 C22.375,38.5833333 20.75,40.5833333 19.0416667,41.5 C18.25,41.875 16.2083333,42.25 14.0416667,42.375 L10.375,42.5833333 L10.6666667,44.5 C10.9583333,46.625 11.4166667,47.375 12.7083333,47.9166667 C14.0833333,48.5416667 19.1666667,48.0416667 21.8333333,47.0416667 Z M8.75,24.9583333 L8.75,9.54166667 L5.20833333,9.54166667 L1.66666667,9.54166667 L1.66666667,22.7083333 C1.66666667,37.7083333 1.70833333,38.0416667 4.70833333,39.5 C5.66666667,40 6.95833333,40.375 7.625,40.375 L8.75,40.375 L8.75,24.9583333 Z" id="Shape"></path>
                <path d="M35.875,41.75 C34.9583333,41 34.9583333,40.9583333 35.0833333,25.5833333 L35.2083333,10.1666667 L36.25,8.08333333 C37.625,5.29166667 40.375,2.625 43.25,1.33333333 C45.1666667,0.458333333 46.4583333,0.208333333 49.9166667,0.0416666667 C56.25,-0.208333333 57.6666667,0.666666667 58.2083333,5.33333333 L58.4583333,7.375 L60.4166667,7.625 C63.0416667,7.95833333 65,9.33333333 66.1666667,11.625 C67.0416667,13.4166667 67.0833333,13.7916667 67.0833333,27.3333333 C67.0833333,43.7083333 67.5416667,42.4583333 61.5833333,42.4583333 C55.8333333,42.4583333 56.25,43.8333333 56.25,25.1666667 L56.25,9.54166667 L53.3333333,9.54166667 C49.9583333,9.54166667 48,10.2083333 46.75,11.8333333 C45.8333333,12.9583333 45.8333333,13.25 45.8333333,26.4583333 C45.8333333,35.5 45.6666667,40.25 45.375,40.9583333 C44.7916667,42.2083333 43.9583333,42.4583333 39.9583333,42.4583333 C37.5416667,42.4583333 36.5416667,42.2916667 35.875,41.75 Z M43.75,26.8333333 C43.75,14.125 43.7916667,13.1666667 44.5833333,11.6666667 C46.1666667,8.54166667 48.9166667,7.29166667 53.625,7.54166667 L56.25,7.66666667 L56.25,6.125 C56.25,2.5 54.6666667,1.375 50.0833333,1.75 C44.7083333,2.20833333 40.6666667,4.45833333 38.4166667,8.20833333 L37.2916667,10.1666667 L37.1666667,25.2916667 L37.0416667,40.375 L40.4166667,40.375 L43.75,40.375 L43.75,26.8333333 Z M65,26.9583333 C65,17.0833333 64.8333333,13.25 64.4583333,12.5 C63.7083333,11 62.0416667,9.91666667 60.0833333,9.66666667 L58.3333333,9.41666667 L58.3333333,24.9166667 L58.3333333,40.375 L61.6666667,40.375 L65,40.375 L65,26.9583333 Z" id="Shape"></path>
                <path d="M73.75,19.7916667 C73.75,10.1666667 73.75,10 74.6666667,9.375 C75.875,8.54166667 79.25,8.5 80.8333333,9.33333333 C82.6666667,10.2916667 83.7916667,12.8333333 83.8333333,15.9583333 C83.875,20.875 81.2916667,23.75 77.4166667,23.125 L75.8333333,22.875 L75.8333333,26.2083333 C75.8333333,29.5 75.8333333,29.5416667 74.7916667,29.5416667 L73.75,29.5416667 L73.75,19.7916667 Z M79.625,21.2083333 C81.0833333,20.4166667 81.75,18.4166667 81.5833333,15.3333333 C81.375,11.6666667 80.3333333,10.375 77.625,10.375 L75.8333333,10.375 L75.8333333,15.75 C75.8333333,19.6666667 75.9583333,21.2083333 76.375,21.3333333 C77.25,21.7083333 78.7916667,21.625 79.625,21.2083333 Z" id="Shape"></path>
                <path d="M110.916667,19.25 L111.041667,8.91666667 L112,8.79166667 C112.875,8.66666667 112.916667,8.75 112.916667,12.0416667 L112.916667,15.4583333 L115.666667,12.0833333 C117.333333,10.0416667 118.75,8.70833333 119.208333,8.70833333 C120.541667,8.70833333 120.125,9.70833333 117.25,13.0416667 L114.5,16.25 L116.125,18.1666667 C117,19.2083333 118.125,20.5416667 118.625,21.1666667 C119.791667,22.5 119.833333,23.2916667 118.75,23.2916667 C118.25,23.2916667 117.041667,22.1666667 115.541667,20.2916667 L113.125,17.3333333 L113,23.4166667 L112.875,29.5416667 L111.875,29.5416667 L110.833333,29.5416667 L110.916667,19.25 Z" id="Shape"></path>
                <path d="M87.8333333,22.7916667 C86.3333333,22.25 86.125,20.5416667 87.625,20.9583333 C90.25,21.75 91.5833333,21.7083333 92.4583333,20.8333333 C94.0416667,19.25 93.625,18.4166667 90.9583333,17.875 C87.7083333,17.1666667 85.8333333,15.375 85.8333333,12.875 C85.8333333,11.5 86.0833333,10.875 87.0416667,9.91666667 C88.0833333,8.875 88.5833333,8.70833333 90.5416667,8.70833333 C91.7916667,8.70833333 93.4166667,8.91666667 94.125,9.16666667 L95.5,9.66666667 L95.3333333,15.25 L95.2083333,20.875 L93.8333333,22.0833333 C92.375,23.375 90.125,23.6666667 87.8333333,22.7916667 Z M93.3333333,13.5 C93.3333333,10.375 93.3333333,10.375 92.2083333,10.2916667 C88.8333333,10.125 87.9166667,10.6666667 87.9166667,12.875 C87.9166667,14.5833333 88.625,15.4166667 90.625,16.125 C93.25,17.0416667 93.3333333,16.9166667 93.3333333,13.5 Z" id="Shape"></path>
                <path d="M99.7083333,22.8333333 L98.3333333,22.4166667 L98.3333333,15.5833333 L98.3333333,8.70833333 L99.375,8.70833333 L100.416667,8.70833333 L100.416667,14.9166667 C100.416667,20.2083333 100.5,21.1666667 101.083333,21.375 C102.25,21.8333333 103.958333,21.625 104.916667,20.9583333 C105.791667,20.375 105.833333,20.0416667 105.833333,14.5 L105.833333,8.70833333 L106.916667,8.70833333 L107.958333,8.70833333 L107.833333,14.9583333 C107.708333,20.75 107.625,21.25 106.791667,22.125 C105.708333,23.1666667 102,23.5416667 99.7083333,22.8333333 Z" id="Shape"></path>
            </g>
        </g>
    </g>
</svg>