<?xml version="1.0" encoding="UTF-8"?>
<svg width="160px" height="72px" viewBox="0 0 160 72" version="1.1" xmlns="http://www.w3.org/2000/svg" xmlns:xlink="http://www.w3.org/1999/xlink">
    <!-- Generator: Sketch 50 (54983) - http://www.bohemiancoding.com/sketch -->
    <title>customer/ocado</title>
    <desc>Created with Sketch.</desc>
    <defs></defs>
    <g id="customer/ocado" stroke="none" stroke-width="1" fill="none" fill-rule="evenodd">
        <g id="ocado" transform="translate(0.000000, 19.000000)" fill="#000000" fill-rule="nonzero">
            <path d="M30.2814815,0.177777778 C32.3555556,0.177777778 34.0148148,1.77777778 33.9555556,3.85185185 L33.9555556,34.1333333 L3.67407407,34.1333333 C1.65925926,34.1333333 0,32.4740741 0,30.4592593 L0,3.85185185 C0,1.77777778 1.65925926,0.177777778 3.67407407,0.177777778 L30.2814815,0.177777778 Z M16.9481481,28.8 C23.4074074,28.8 28.6222222,23.6444444 28.6222222,17.1851852 C28.6222222,15.6444444 28.1481481,13.6296296 28.1481481,14.162963 C28.1481481,18.4888889 24.1185185,22.0444444 19.8518519,21.4518519 C16.5925926,20.9777778 12.9777778,18.0148148 13.6296296,13.3333333 C14.2814815,8.65185185 18.3703704,6.81481481 21.2740741,7.22962963 C25.9555556,7.88148148 26.962963,11.4962963 25.5407407,13.1555556 C24.1185185,15.1111111 21.2148148,13.9259259 21.2148148,11.7333333 C21.2148148,10.4888889 22.0444444,9.95555556 22.162963,9.83703704 C19.7333333,9.12592593 17.3037037,11.0222222 16.9481481,13.5111111 C16.5925926,16.237037 18.6074074,18.3703704 20.8592593,18.6666667 C25.0074074,19.2592593 27.437037,15.8814815 27.437037,12.9185185 C27.437037,9.42222222 23.7037037,5.45185185 17.0074074,5.45185185 C10.6074074,5.51111111 5.33333333,10.6666667 5.33333333,17.1259259 C5.33333333,23.5259259 10.5481481,28.8 16.9481481,28.8 Z" id="Combined-Shape"></path>
            <g id="Group" transform="translate(39.111111, 0.592593)">
                <path d="M109.62963,9.95555556 C103.288889,9.95555556 98.3703704,14.8148148 98.3703704,21.2148148 C98.3703704,27.5555556 103.348148,32.4740741 109.62963,32.4740741 C115.97037,32.4740741 120.888889,27.6148148 120.888889,21.2148148 C120.888889,14.8148148 115.911111,9.95555556 109.62963,9.95555556 M109.62963,13.8666667 C113.659259,13.8666667 116.859259,17.1851852 116.859259,21.2148148 C116.859259,25.1851852 113.659259,28.562963 109.62963,28.562963 C105.6,28.562963 102.4,25.1851852 102.4,21.2148148 C102.4,17.1851852 105.6,13.8666667 109.62963,13.8666667" id="Shape"></path>
                <path d="M57.4222222,28.562963 C53.3925926,28.562963 50.1925926,25.1851852 50.1925926,21.2148148 C50.1925926,17.1851852 53.3925926,13.8666667 57.4222222,13.8666667 C61.4518519,13.8666667 64.6518519,17.1851852 64.6518519,21.2148148 C64.6518519,25.1851852 61.4518519,28.562963 57.4222222,28.562963 Z M64.5333333,10.6074074 L64.5333333,13.037037 L64.3555556,13.037037 C62.6962963,11.2 60.0296296,10.0148148 57.2444444,10.0148148 C50.9037037,10.0148148 45.9851852,14.8740741 45.9851852,21.2740741 C45.9851852,27.6148148 50.962963,32.5333333 57.2444444,32.5333333 C60.0296296,32.5333333 62.6962963,31.2888889 64.3555556,29.5111111 L64.5333333,29.5111111 L64.5333333,31.8814815 L68.562963,31.8814815 L68.562963,10.6074074 L64.5333333,10.6074074 Z" id="Shape"></path>
                <path d="M83.4962963,28.562963 C79.4666667,28.562963 76.2666667,25.1851852 76.2666667,21.2148148 C76.2666667,17.1851852 79.4666667,13.8666667 83.4962963,13.8666667 C87.5259259,13.8666667 90.7259259,17.1851852 90.7259259,21.2148148 C90.7259259,25.1851852 87.5259259,28.562963 83.4962963,28.562963 Z M90.6666667,0.474074074 L90.6666667,13.037037 L90.4888889,13.037037 C88.8296296,11.2 86.162963,10.0148148 83.3777778,10.0148148 C77.037037,10.0148148 72.1185185,14.8740741 72.1185185,21.2740741 C72.1185185,27.6148148 77.0962963,32.5333333 83.3777778,32.5333333 C86.162963,32.5333333 88.8296296,31.2888889 90.4888889,29.5111111 L90.6666667,29.5111111 L90.6666667,31.8814815 L94.7555556,31.8814815 L94.7555556,0.474074074 L90.6666667,0.474074074 Z" id="Shape"></path>
                <path d="M42.3111111,26.2518519 C41.0074074,27.6740741 39.1703704,28.6222222 37.037037,28.6222222 C33.0074074,28.6222222 29.8074074,25.2444444 29.8074074,21.2740741 C29.8074074,17.2444444 33.0074074,13.9259259 37.037037,13.9259259 C39.1111111,13.9259259 40.9481481,14.8148148 42.3111111,16.237037 L44.2666667,12.562963 C42.3111111,10.962963 39.8222222,10.0148148 37.037037,10.0148148 C30.6962963,10.0148148 25.7777778,14.8740741 25.7777778,21.2740741 C25.7777778,27.6148148 30.7555556,32.5333333 37.037037,32.5333333 C39.8222222,32.5333333 42.3111111,31.5851852 44.2666667,29.9851852 L42.3111111,26.2518519 Z" id="Shape"></path>
                <path d="M11.3777778,9.95555556 C5.03703704,9.95555556 0.118518519,14.8148148 0.118518519,21.2148148 C0.118518519,27.5555556 5.0962963,32.4740741 11.3777778,32.4740741 C17.7185185,32.4740741 22.637037,27.6148148 22.637037,21.2148148 C22.6962963,14.8148148 17.7185185,9.95555556 11.3777778,9.95555556 M11.3777778,13.8666667 C15.4074074,13.8666667 18.6074074,17.1851852 18.6074074,21.2148148 C18.6074074,25.1851852 15.4074074,28.562963 11.3777778,28.562963 C7.34814815,28.562963 4.14814815,25.1851852 4.14814815,21.2148148 C4.20740741,17.1851852 7.40740741,13.8666667 11.3777778,13.8666667" id="Shape"></path>
            </g>
        </g>
    </g>
</svg>