<?xml version="1.0" encoding="UTF-8"?>
<svg width="160px" height="72px" viewBox="0 0 160 72" version="1.1" xmlns="http://www.w3.org/2000/svg" xmlns:xlink="http://www.w3.org/1999/xlink">
    <!-- Generator: Sketch 50 (54983) - http://www.bohemiancoding.com/sketch -->
    <title>customer/pearson</title>
    <desc>Created with Sketch.</desc>
    <defs></defs>
    <g id="customer/pearson" stroke="none" stroke-width="1" fill="none" fill-rule="evenodd">
        <g id="pearson" transform="translate(3.000000, 13.000000)" fill="#000000" fill-rule="nonzero">
            <path d="M95.6092534,32.657356 C95.5523386,32.5101669 95.3954308,32.4251914 95.2415962,32.4600921 L95.193932,32.4737485 C94.7386057,32.5708627 94.387874,32.5435514 94.1417449,32.3796681 C93.7925576,32.1475043 93.6233418,31.6224785 93.6233418,30.7757609 L93.6233418,23.1234387 C93.6233418,20.1341315 91.817394,18.6182344 88.2516417,18.6182344 C85.0596928,18.6182344 82.5584356,20.1083356 82.5584356,22.0111735 C82.5584356,22.989906 83.162987,23.6970216 84.0551933,23.8032406 C84.6382017,23.8730436 85.1950653,23.6120461 85.5980944,23.1917223 C86.3826251,22.375353 86.2826322,21.4026906 85.3304379,20.3602268 C85.8934477,19.7790568 86.8902566,19.4361207 88.0270556,19.4361207 C89.8791545,19.4361207 90.6698315,20.5195546 90.6698315,23.0597074 L90.6698315,24.9944113 C90.2360324,25.1264262 89.8299225,25.2508541 89.0853967,25.4238398 C87.5855659,25.7713275 85.527335,26.234139 83.975199,27.0793397 C82.6938082,27.7727981 82.0431135,28.8668537 82.0431135,30.3311589 C82.0431135,31.9259622 83.1045278,33.78783 86.0949623,33.78783 C87.7701549,33.78783 89.2699857,33.0048444 90.8098137,31.3235487 C90.9436497,33.0700926 91.614343,33.7256165 93.241848,33.7256165 C94.0248343,33.7256165 94.6509208,33.5450436 95.3954544,33.1899689 C95.5969689,33.0928539 95.6923443,32.862207 95.6092769,32.657356 L95.6092534,32.657356 Z M90.6698079,30.3190203 C90.3067682,30.8182494 89.1192163,32.3037982 87.6393841,32.3037982 C85.6411411,32.3037982 85.2211944,30.919916 85.2211944,29.7590937 C85.2211944,27.8501858 86.7040997,26.9670505 90.6698079,26.0004574 L90.6698079,30.3190203 Z M128.991634,33.853079 C124.755189,33.853079 121.560166,30.5784977 121.560166,26.2356567 C121.560166,21.9838606 124.893634,18.5241541 128.991634,18.5241541 C133.140395,18.5241541 136.39234,21.8548796 136.39234,26.1097111 C136.39234,30.8926024 132.551232,33.853079 128.991634,33.853079 Z M128.831653,19.3405234 C127.001089,19.3405234 124.898252,20.1174396 124.898252,26.1719255 C124.898252,30.7909358 126.279635,33.0351927 129.120853,33.0351927 C131.839005,33.0351927 133.052718,30.919916 133.052718,26.1719255 C133.052718,21.5756756 131.671334,19.3405234 128.831653,19.3405234 Z M63.4959522,18.7972888 C63.4959522,22.3207265 62.6160516,24.2599828 58.1150211,24.2599828 L55.7291372,24.2599828 L55.7291372,13.616835 L58.2119339,13.616835 C62.8683308,13.616835 63.4959522,16.2358932 63.4959522,18.7972888 Z M55.7291372,30.7757616 L55.7291372,25.2387154 L57.890431,25.2387154 C61.1146827,25.2387154 63.5667132,24.5665004 65.1803775,23.2387625 C66.867879,21.850328 67.2216853,20.0916437 67.2216853,18.8610208 C67.2216853,13.7989247 62.2699366,12.7367344 58.1150211,12.7367344 L58.1319466,12.7352449 L49.70674,12.7352449 C49.5159923,12.7352449 49.3606251,12.890021 49.3606251,13.0766632 L49.3606251,13.0994213 L49.3606251,13.0933849 C49.3606251,13.2663698 49.4667673,13.421146 49.6329021,13.4803256 C50.3835865,13.7534603 52.4218181,13.3710719 52.4218181,15.5273179 L52.4218181,30.772727 C52.4218181,31.8819575 51.9234129,32.6649431 49.6452085,32.8773811 C49.4636903,32.8940714 49.3283208,33.0397444 49.3283208,33.2157648 L49.3283208,33.2688774 C49.3283208,33.4570366 49.48215,33.608778 49.6728977,33.608778 L58.6749586,33.608778 C58.8657056,33.608778 59.0210728,33.4570366 59.0210728,33.2688774 L59.0210728,33.2218404 C59.0210728,33.0458208 58.8795509,32.8971139 58.6980326,32.8819398 C56.2229273,32.6861936 55.7260602,31.9305209 55.7260602,30.7727332 L55.7260602,25.2493371 L55.7291372,30.7757616 Z M74.0347625,18.516567 C70.1167436,18.516567 66.9278724,22.0157259 66.9278724,26.3175968 C66.9278724,30.6725773 69.9167656,33.8333524 74.0347625,33.8333524 C77.4943718,33.8333524 79.1787932,31.7939473 80.1433033,30.2613583 C80.2386787,30.1096169 80.1971607,29.9093183 80.0494644,29.8046162 L80.0032897,29.7727486 C79.8540726,29.6680465 79.6464041,29.6983987 79.5310379,29.8410307 C78.2588695,31.4145897 77.1451493,32.3250385 75.2222893,32.3250385 C72.7902566,32.3250385 70.1920883,30.6725734 70.1920883,26.0323188 L70.1920883,25.9989381 C70.187463,25.7940871 70.1920883,25.5133654 70.199771,25.2508525 L80.1509547,25.2508525 C80.1786281,25.2508525 80.2001868,25.2296074 80.2017547,25.2022946 L80.2080263,25.1233892 C80.3495529,23.2220683 79.8034607,21.511942 78.6712793,20.3116665 C77.5652496,19.1371878 75.9623536,18.5165647 74.0348793,18.5165647 L74.0347625,18.516567 Z M70.2551893,24.2736392 C70.5828446,21.0992076 71.8380875,19.3587322 73.8101724,19.3587322 C74.7962153,19.3587322 75.5284401,19.6288322 76.045305,20.1842064 C76.7559938,20.9444307 77.0574981,22.3207265 76.9390502,24.2736392 L70.2551893,24.2736392 Z M115.280871,24.4435895 L115.277735,24.4435895 C112.556502,23.6894345 111.496624,22.9276925 111.496624,21.7243824 C111.496624,20.3541567 112.59958,19.3587322 114.119401,19.3587322 C115.906895,19.3587322 116.672964,20.2024152 118.560442,23.3146332 L118.585058,23.3556025 C118.594309,23.3722928 118.611242,23.3813945 118.611242,23.3813945 L118.888134,23.3813945 C119.078884,23.3813945 119.234248,23.2281361 119.234248,23.0399761 L119.234248,18.5666372 C119.234248,18.5393243 119.2112,18.5165662 119.2112,18.5165662 L118.840469,18.5165662 C118.737403,18.5165662 118.638955,18.5620903 118.574349,18.6409949 L117.971343,19.3632839 C117.211428,18.9505472 115.973107,18.5165662 114.730169,18.5165662 C111.60437,18.5165662 109.421538,20.4209218 109.421538,23.1492338 C109.421538,25.7106301 111.142882,26.6696361 114.114854,27.4617273 C117.002215,28.2416781 118.026721,29.0534951 118.026721,30.5602881 C118.026721,32.2370315 116.380754,32.9896695 115.211648,32.9896695 C113.036515,32.9896695 112.118156,32.1930267 110.033772,28.4996387 L110.009156,28.4556355 C109.999905,28.4389452 109.982972,28.4283227 109.982972,28.4283227 L109.703,28.4283227 C109.512257,28.4283227 109.356886,28.5830988 109.356886,28.769741 L109.356886,33.7817622 C109.356886,33.8105959 109.379934,33.833354 109.409175,33.833354 L109.76298,33.833354 C109.853738,33.833354 109.942959,33.7969395 110.007572,33.7332051 L110.959767,32.7939249 C112.075031,33.4767615 113.742533,33.833354 114.82549,33.833354 C116.451458,33.833354 117.788227,33.3250201 118.691205,32.3644963 C119.497263,31.507157 119.940297,30.2932251 119.940297,28.9457606 C119.940297,26.6119773 118.677361,25.3919754 115.280816,24.4435911 L115.280871,24.4435895 Z M98.8135025,31.8106384 C98.8135025,32.583003 98.6150611,32.8364111 97.3675135,32.9137996 C97.1859975,32.9259351 97.0444709,33.0746451 97.0444709,33.2537002 C97.0444709,33.4418593 97.1998421,33.5936008 97.3905851,33.5936008 L103.548353,33.5936008 C103.736022,33.5936008 103.888313,33.443377 103.888313,33.2597695 C103.888313,33.0776797 103.745257,32.927456 103.560661,32.9198689 C102.136207,32.8515868 101.767013,32.623973 101.767013,31.8106384 L101.767013,22.9034135 C102.780747,21.2403266 103.508355,20.3693308 104.738985,20.1068179 C104.679013,20.317739 104.640537,20.5681125 104.640537,20.7729635 C104.640537,21.8548796 105.406606,22.6105523 106.503407,22.6105523 C107.580203,22.6105523 108.333963,21.8548796 108.333963,20.7729635 C108.333963,19.7502254 107.68635,18.5545024 105.858859,18.5545024 C104.362109,18.5545024 102.931501,19.40122 101.702408,21.4269688 L101.702408,19.1356724 C101.702408,18.9019909 101.507047,18.713831 101.270145,18.7199011 L97.3905851,18.8230854 C97.2013787,18.8291219 97.0552424,18.9778616 97.0552424,19.162986 L97.0552424,19.2115439 C97.0552424,19.3799773 97.178307,19.5241317 97.3428974,19.5468929 C98.6365962,19.727465 98.8150391,20.3344309 98.8135025,20.964158 L98.8135025,31.8106384 Z M141.404081,18.7107963 C141.493302,18.7107963 141.579443,18.7456978 141.642512,18.8079113 C141.711734,18.8716465 141.748659,18.9566173 141.750195,19.0506977 L141.762503,21.5908497 C141.762503,21.5908497 143.026976,18.6106474 147.128049,18.6106474 L147.164973,18.6106474 C149.721609,18.6106474 151.187596,20.2191071 151.187596,23.0232898 L151.187596,31.7969819 C151.187596,32.5693458 151.387574,32.8227547 152.633585,32.9001423 C152.815109,32.9107649 152.956628,33.0594709 152.956628,33.2400437 C152.956628,33.4266851 152.801265,33.5799443 152.61205,33.5799443 L147.078833,33.5799443 C146.888082,33.5799443 146.732719,33.4266851 146.732719,33.238526 C146.732719,33.0564362 146.872701,32.9077294 147.048063,32.8925553 C148.054107,32.8075805 148.214087,32.5572071 148.214087,31.7969819 L148.214087,23.8791114 C148.214087,21.2630878 147.460327,20.2464207 145.526697,20.2464207 C144.219153,20.2464207 143.150041,21.3708246 142.482428,22.3146564 C142.482428,22.3146564 142.140924,22.7364979 141.771738,23.5316237 L141.81172,31.7954642 C141.81172,32.5556893 141.968619,32.8060628 142.945438,32.8910383 C143.120799,32.9062156 143.259245,33.0564362 143.259245,33.2309389 C143.259245,33.4266851 143.103882,33.5799443 142.914667,33.5799443 L137.415293,33.5799443 C137.226079,33.5799443 137.070715,33.4266851 137.070715,33.238526 C137.070715,33.0594709 137.213779,32.9107641 137.393758,32.8986254 C138.639769,32.8212338 138.838211,32.5693458 138.838211,31.7969819 L138.838211,20.965675 C138.838211,20.3344301 138.659768,19.7244295 137.359915,19.5423397 C137.195317,19.5195817 137.070715,19.3739064 137.070715,19.2054738 L137.070715,19.1554029 C137.070715,18.9687607 137.218388,18.8200547 137.407603,18.8139846 L141.404081,18.7107963 Z" id="wordmark"></path>
            <path d="M33.3147444,3.2862748 C43.0659509,8.76717697 45.3364639,21.0552021 38.5510767,33.4888994 C32.5886729,44.4173214 19.568604,49.0848889 9.86662261,43.5220467 C0.16310299,37.9561691 -1.73052939,22.431498 2.43976901,13.4984765 C8.49446994,0.524579797 22.5405765,-2.77124522 33.3147444,3.2862748 Z M33.0886162,12.7139732 L33.0609239,12.6866619 C29.3936453,8.60026369 24.3019128,8.34382091 21.0776619,8.42272632 C17.5134485,8.51225348 14.9537377,9.6730758 12.8601278,10.7504403 C11.0326417,11.6897205 9.38513583,13.3057673 8.71598068,14.1084794 C8.28987452,14.6198488 7.56534101,15.675969 7.95452788,16.6228363 C8.27449184,17.4088566 9.47589457,17.3572648 9.92815098,17.0219158 C10.3788693,16.6865676 10.8572767,16.1767159 11.4772068,15.6698997 C14.2292043,13.4241258 16.6689283,12.0098954 22.3529018,12.0098954 C28.0368761,12.0098954 31.1165281,15.5060187 31.1165281,18.6273408 C31.1165281,21.7486629 29.6213124,23.868492 26.7954778,25.2523741 C25.3971741,25.9367285 23.9019584,26.4663083 22.0190941,26.5376243 C22.1560032,23.5118995 22.2267626,20.6485372 22.2267626,20.6485372 C22.2667582,18.4710469 22.6405623,16.6987071 21.1622674,16.4058459 C19.6870496,16.1129847 16.9688921,16.4012935 16.9181313,18.0628627 C16.8519847,17.8155239 17.1981005,31.6786258 17.2611693,31.9517605 L17.2857853,32.2704176 C17.3150126,32.6224576 17.4411518,32.9320107 17.6642038,33.1793495 C17.8872558,33.4236528 18.2487534,33.5753904 18.5733317,33.6118127 C18.6240957,33.6163675 18.6748619,33.6209144 18.7256227,33.6209144 C19.0348183,33.6209144 19.470154,33.5662879 19.9085658,33.4448947 C20.4623493,33.2886009 21.0192098,33.0230533 21.3407119,32.6087989 C21.5037704,32.3993955 21.6376018,32.1960622 21.7068246,31.8212609 C21.7545116,31.5663351 21.8483434,29.9563576 21.8729594,29.4889937 C24.8618527,29.4616801 27.8999717,28.9093414 30.2120177,27.51939 C33.1270737,25.7698105 34.8807218,23.1295088 35.2606784,20.276769 C35.5914107,17.7745515 34.9976316,14.7245478 33.0886162,12.7139732 Z M20.7607773,35.6663897 C20.4638882,35.4387775 20.1316178,35.2824836 19.7947322,35.2172354 C19.6808995,35.1944694 19.5624508,35.1823339 19.4470792,35.1823339 C18.8133053,35.1823339 18.1902981,35.5267869 17.7841906,36.1049222 C17.4457669,36.5844248 17.3057831,37.1595247 17.3950038,37.7148989 C17.4534551,38.0714913 17.5872896,38.3795267 17.7872668,38.6086567 C18.0103188,38.8666172 18.3518186,39.065398 18.7763859,39.1852743 C19.0209738,39.2520433 19.2717149,39.2884579 19.522456,39.2884579 L19.5240239,39.2884579 C20.0716542,39.2884579 20.5639062,39.1245777 20.9469397,38.8210947 C21.3915048,38.4614668 21.6330165,37.9531328 21.6284013,37.3841023 C21.6222865,36.7240268 21.2992079,36.0791256 20.7608071,35.6663889 L20.7607773,35.6663897 Z" id="Combined-Shape"></path>
        </g>
    </g>
</svg>