<?xml version="1.0" encoding="UTF-8"?>
<svg width="160px" height="72px" viewBox="0 0 160 72" version="1.1" xmlns="http://www.w3.org/2000/svg" xmlns:xlink="http://www.w3.org/1999/xlink">
    <!-- Generator: Sketch 49.2 (51160) - http://www.bohemiancoding.com/sketch -->
    <title>customer/rbs</title>
    <desc>Created with Sketch.</desc>
    <defs></defs>
    <g id="customer/rbs" stroke="none" stroke-width="1" fill="none" fill-rule="evenodd">
        <g id="rbs" transform="translate(10.000000, 16.000000)" fill="#000000" fill-rule="nonzero">
            <g id="g124" transform="translate(19.604383, 19.767276) scale(-1, 1) rotate(-180.000000) translate(-19.604383, -19.767276) translate(0.354383, 0.656165)">
                <path d="M16.6864417,25.8493336 C13.5636933,24.7143863 12.4886097,21.6399311 12.4886097,21.6399311 C12.0682703,20.5057916 10.9518679,19.6535714 9.69323346,19.6535714 L3.77113583,19.6535714 C2.1398375,19.6535714 0.788235724,21.0268173 0.788235724,22.6803668 C0.788235724,24.3371475 1.90622732,25.6603103 3.77113583,25.6603103 L8.46797188,25.6522324 L1.67182254,32.563698 C0.509333769,33.7471128 0.509333769,35.6389609 1.67182254,36.8167211 C2.83907887,37.9977125 4.70478198,37.9977125 5.86806534,36.8167211 L12.628458,29.9731101 L12.628458,34.6906134 C12.628458,36.344163 13.934768,37.7133699 15.6121527,37.7133699 C17.2466294,37.7133699 18.5521448,36.344163 18.5521448,34.6906134 L18.5521448,28.6862979 C18.5521448,27.4099871 17.8052279,26.2257645 16.6864417,25.8493336 M15.6121527,0.411165962 C13.9824436,0.411165962 12.6745444,1.50249251 12.7222199,3.39110945 L12.7309604,8.18454524 L5.9149463,1.26580955 C4.75166293,0.0807791674 2.83907887,0.0807791674 1.71949809,1.26580955 C0.555420132,2.4443776 0.555420132,4.38388541 1.71949809,5.51640934 L8.46161514,12.376984 L3.81801679,12.376984 C2.1398375,12.376984 0.835911271,13.7469987 0.835911271,15.3981249 C0.835911271,17.0540978 2.1398375,18.4257281 3.81801679,18.4257281 L9.73852523,18.4257281 C10.9963651,18.4257281 12.1159459,17.6704429 12.5370799,16.53388 C13.6097797,13.3221003 16.637177,12.2348127 16.637177,12.2348127 C17.8052279,11.8091065 18.5982312,10.7218189 18.5982312,9.39784833 L18.5982312,3.39110945 C18.5982312,1.73594431 17.290332,0.411165962 15.6121527,0.411165962 M34.6776043,12.4222204 L29.9712331,12.4270671 L36.7737392,5.51640934 C37.9394063,4.3370335 37.9394063,2.4443776 36.7737392,1.26580955 C35.6104558,0.0807791674 33.7431635,0.0807791674 32.5790856,1.26580955 L25.8194875,8.1207297 L25.8194875,3.39110945 C25.8194875,1.59215739 24.4662965,0.363506253 22.8357928,0.363506253 C21.2029053,0.363506253 19.8505089,1.73594431 19.8505089,3.39110945 L19.8505089,9.39784833 C19.8505089,10.674967 20.6435122,11.8567662 21.7638876,12.2348127 C24.8858414,13.3221003 25.9577466,16.4401761 25.9577466,16.4401761 C26.3772914,17.5727001 27.4968722,18.4257281 28.7555067,18.4257281 L34.6776043,18.4257281 C36.3104918,18.4257281 37.6605044,17.0540978 37.6605044,15.3981249 C37.6605044,13.7469987 36.4487509,12.4222204 34.6776043,12.4222204 M34.7244852,19.7020389 L28.8023876,19.7020389 C27.5445477,19.7020389 26.3772914,20.4589397 26.0054221,21.5930792 C24.9319277,24.7612382 21.8568549,25.8969933 21.8568549,25.8969933 C20.7372741,26.3235073 19.8973899,27.4099871 19.8973899,28.7347654 L19.8973899,34.7382731 C19.8973899,36.3918227 21.2489917,37.7133699 22.8826738,37.7133699 C24.5139721,37.7133699 25.8194875,36.4855265 25.8194875,34.7382731 L25.8210767,29.9270659 L32.625172,36.863573 C33.7908391,38.0445645 35.6565422,38.0445645 36.8214148,36.863573 C37.9870819,35.6858128 37.9870819,33.7471128 36.8214148,32.563698 L30.1086976,25.7556297 L34.7244852,25.7556297 C36.354989,25.7556297 37.7065908,24.3839995 37.7065908,22.7288343 C37.7065908,21.0736692 36.354989,19.7020389 34.7244852,19.7020389" id="path126"></path>
            </g>
            <g id="g128" transform="translate(51.094484, 8.349983) scale(-1, 1) rotate(-180.000000) translate(-51.094484, -8.349983) translate(45.844484, 0.349983)">
                <path d="M3.17836985,6.46233339 L3.40403411,6.46233339 L7.13464573,0.403895837 L10.4353828,0.403895837 L7.21648875,5.316077 C6.88752747,5.81367668 6.49738257,6.40255681 6.10803227,6.92358244 C8.03491899,7.25800819 9.51127179,8.82997079 9.51127179,10.9148811 C9.51127179,13.7914272 7.54306625,15.1816367 4.49024201,15.1816367 C2.8891382,15.1816367 1.59872004,15.1614419 0.510922954,15.0984342 L0.510922954,0.403895837 L3.17836985,0.403895837 L3.17836985,6.46233339 Z M3.17836985,12.9101265 C3.44376374,12.9537473 3.83390864,12.9723265 4.22325894,12.9723265 C5.90302741,12.9723265 6.72304683,11.9965141 6.72304683,10.6442709 C6.72304683,9.33160941 5.73854677,8.42526716 4.14062133,8.42526716 C3.73140621,8.42526716 3.3627153,8.44465416 3.17836985,8.46565674 L3.17836985,12.9101265 Z" id="path130"></path>
            </g>
            <g id="g132" transform="translate(61.470032, 10.912280) scale(-1, 1) rotate(-180.000000) translate(-61.470032, -10.912280) translate(56.220032, 5.134502)">
                <path d="M5.56214724,11.3090834 C2.4672096,11.3090834 0.354388239,8.97698887 0.354388239,5.74501438 C0.354388239,2.05744539 2.24233993,0.537181463 5.13068354,0.537181463 C8.16682134,0.537181463 10.3400317,2.87008382 10.3400317,6.1214453 C10.3400317,9.68542217 8.47432862,11.3090834 5.56214724,11.3090834 M5.33727758,2.80707607 C3.84026538,2.80707607 3.06235935,3.88870912 3.06235935,6.01724018 C3.06235935,8.14092449 4.21054546,9.06019141 5.37939098,9.06019141 C6.91533821,9.06019141 7.6336498,7.97694278 7.6336498,5.97361943 C7.6336498,3.86932212 6.62928492,2.80707607 5.33727758,2.80707607" id="path134"></path>
            </g>
            <g id="g136" transform="translate(71.810777, 13.377669) scale(-1, 1) rotate(-180.000000) translate(-71.810777, -13.377669) translate(66.123277, 5.377669)">
                <path d="M7.15133217,4.84675004 L11.1894511,15.7882883 L8.38056671,15.7882883 L7.17199157,12.2655088 C6.84382489,11.3090834 6.41236118,9.91079604 6.18749151,8.9737577 L6.16603752,8.9737577 C5.94116785,9.91079604 5.65511456,10.9326525 5.36747209,11.8284935 L3.99362172,15.7882883 L1.06078094,15.7882883 L4.83271136,5.43078342 L4.50533927,4.51313208 C3.95150832,2.88947082 3.05123506,2.47265031 2.18989683,2.47265031 C1.75922771,2.47265031 1.28803438,2.55504506 0.899478669,2.68106057 L0.591176793,0.387740003 C0.9805271,0.303729669 1.59474707,0.24152971 2.02621078,0.24152971 C4.38297203,0.24152971 5.8195952,1.26257839 7.15133217,4.84675004" id="path138"></path>
            </g>
            <g id="g140" transform="translate(82.389033, 10.375255) scale(-1, 1) rotate(-180.000000) translate(-82.389033, -10.375255) translate(77.576533, 4.597477)">
                <path d="M3.17836985,0 C4.62214436,0 5.81800602,0.739129381 6.35356134,1.81914685 L6.35356134,0.206794668 L8.85493841,0.206794668 C8.79454938,1.05901488 8.77309539,2.04128956 8.77309539,2.87250719 L8.77309539,7.14653294 C8.77309539,9.46004829 7.83150332,10.7937123 4.67538205,10.7937123 C3.29835332,10.7937123 1.84424911,10.500484 0.820019422,10.0836635 L1.24909935,8.0423739 C2.15016721,8.43980741 3.40244493,8.7508072 4.32496678,8.7508072 C5.67815774,8.7508072 6.14776189,8.18939199 6.14776189,6.93569931 L6.14776189,6.56249956 C2.58163091,6.56249956 0.265393883,5.41705096 0.265393883,2.95651753 C0.265393883,1.26823293 1.33332615,0 3.17836985,0 M6.14776189,4.812015 L6.14776189,4.53898141 C6.14776189,3.29013549 5.28960203,2.04128956 4.01745949,2.04128956 C3.25703451,2.04128956 2.78822495,2.58493336 2.78822495,3.2497459 C2.78822495,4.14397129 3.50494736,4.812015 6.14776189,4.812015" id="path142"></path>
            </g>
            <polygon id="path144" points="91.1061377 0.732719147 88.4815874 0.732719147 88.4815874 15.9466755 91.1061377 15.9466755"></polygon>
            <g id="g154" transform="translate(101.918678, 8.565481) scale(-1, 1) rotate(-180.000000) translate(-101.918678, -8.565481) translate(96.668678, 1.009925)">
                <path d="M10.329702,4.84675004 C10.329702,6.41063472 9.32533715,7.74510657 7.84977895,8.06014532 L7.84977895,8.10215049 C9.18072132,8.64337091 9.94035172,9.92533629 9.94035172,11.3220081 C9.94035172,13.5717079 8.27965347,14.8698291 5.30787766,14.8698291 C3.62572541,14.8698291 1.88477332,14.8262084 0.715927809,14.7664318 L0.715927809,0.174483002 C2.45846908,0.174483002 3.83073027,0.134093418 4.7548413,0.134093418 C8.81044123,0.134093418 10.329702,2.6778294 10.329702,4.84675004 Z M3.38019634,12.6613267 C3.81007086,12.6815215 4.30271819,12.7025241 4.87641395,12.7025241 C6.49579339,12.7025241 7.11160255,11.9270441 7.11160255,10.8858006 C7.11160255,9.63453129 6.28999394,8.80977599 4.46560964,8.80977599 C4.03732431,8.80977599 3.70836303,8.80977599 3.38019634,8.83239416 L3.38019634,12.6613267 Z M3.38019634,6.76848643 C3.66783881,6.78868123 4.36310722,6.78868123 4.54904185,6.78868123 C6.37422074,6.78868123 7.48108804,6.09721155 7.48108804,4.76273971 C7.48108804,3.53328078 6.59829582,2.32078548 4.85575454,2.32078548 C4.36310722,2.32078548 3.70836303,2.36359844 3.38019634,2.38460102 L3.38019634,6.76848643 Z" id="path156"></path>
            </g>
            <g id="g158" transform="translate(112.903608, 10.650217) scale(-1, 1) rotate(-180.000000) translate(-112.903608, -10.650217) translate(108.528608, 4.872439)">
                <path d="M0,3.23116669 C0,1.5428821 1.06634309,0.274649169 2.91377056,0.274649169 C4.35754507,0.274649169 5.55420132,1.01377855 6.08896205,2.0954116 L6.08896205,0.481443838 L8.59033912,0.481443838 C8.52836091,1.33447184 8.50929069,2.31674652 8.50929069,3.14796415 L8.50929069,7.42118211 C8.50929069,9.73469746 7.56610944,11.0683615 4.40839899,11.0683615 C3.03534321,11.0683615 1.57964982,10.7759409 0.552241762,10.3583126 L0.98370547,8.31702307 C1.8871571,8.71526437 3.13625645,9.02545637 4.05798371,9.02545637 C5.41276386,9.02545637 5.88475178,8.46404116 5.88475178,7.21115627 L5.88475178,6.83714873 C2.31862081,6.83714873 0,5.69170013 0,3.23116669 Z M5.88475178,4.81363058 C5.88475178,3.56478466 5.02341355,2.31674652 3.7528602,2.31674652 C2.9940244,2.31674652 2.52283107,2.85958252 2.52283107,3.52439507 C2.52283107,4.41942825 3.23796429,5.08666417 5.88475178,5.08666417 L5.88475178,4.81363058 Z" id="path160"></path>
            </g>
            <g id="g162" transform="translate(123.434101, 10.822051) scale(-1, 1) rotate(-180.000000) translate(-123.434101, -10.822051) translate(118.621601, 5.044273)">
                <path d="M3.17836985,5.65454172 C3.17836985,7.46964961 4.22246435,8.98910574 5.53592569,8.98910574 C6.51963116,8.98910574 6.80568445,8.3436802 6.80568445,7.27981856 L6.80568445,0.653503464 L9.40876936,0.653503464 L9.40876936,7.92766749 C9.40876936,9.74115979 8.67218214,11.2186108 6.37422074,11.2186108 C4.81443574,11.2186108 3.67737392,10.4592866 3.03375403,9.36311329 L3.03375403,11.0102005 L0.553830947,11.0102005 L0.553830947,0.653503464 L3.17836985,0.653503464 L3.17836985,5.65454172 Z" id="path164"></path>
            </g>
            <polygon id="path168" points="132.69716 11.1600479 135.854085 15.9462175 139.132571 15.9462175 135.103184 10.319942 138.868749 5.58950627 135.668939 5.58950627 132.69716 9.3942204 132.69716 0.732261186 130.072633 0.732261186 130.072633 15.9462175 132.69716 15.9462175"></polygon>
            <g id="g178" transform="translate(50.491944, 33.251279) scale(-1, 1) rotate(-180.000000) translate(-50.491944, -33.251279) translate(45.241944, 27.473501)">
                <path d="M5.56214724,11.3090834 C2.4672096,11.3090834 0.355977424,8.9737577 0.355977424,5.74259101 C0.355977424,2.05340643 2.24313452,0.533950296 5.13227272,0.533950296 C8.16523215,0.533950296 10.3392371,2.86846823 10.3392371,6.11821414 C10.3392371,9.68138321 8.47353403,11.3090834 5.56214724,11.3090834 M5.33807217,2.8038449 C3.84105997,2.8038449 3.06077017,3.88951691 3.06077017,6.01239343 C3.06077017,8.1401167 4.20895628,9.05776804 5.37859638,9.05776804 C6.9161328,9.05776804 7.63444439,7.97371161 7.63444439,5.97200384 C7.63444439,3.86851433 6.62928492,2.8038449 5.33807217,2.8038449" id="path180"></path>
            </g>
            <g id="g182" transform="translate(60.248115, 30.415458) scale(-1, 1) rotate(-180.000000) translate(-60.248115, -30.415458) translate(55.873115, 22.415458)">
                <path d="M2.38377739,11.3090834 L2.38377739,10.4560554 L0.598328125,10.4560554 L0.598328125,8.39133991 L2.38377739,8.39133991 L2.38377739,0.0969350008 L4.98606771,0.0969350008 L4.98606771,8.39133991 L7.36587214,8.39133991 L7.36587214,10.4560554 L4.98606771,10.4560554 L4.98606771,11.3308938 C4.98606771,12.7049474 5.49778525,13.3107912 6.64756055,13.3107912 C7.03373249,13.3107912 7.50810419,13.268786 7.9181139,13.1225757 L8.10245935,15.3108834 C7.56769862,15.4352833 6.99479745,15.4797118 6.4417611,15.4797118 C3.65433074,15.4797118 2.38377739,14.102427 2.38377739,11.3090834" id="path184"></path>
            </g>
            <g id="g186" transform="translate(72.182174, 30.843583) scale(-1, 1) rotate(-180.000000) translate(-72.182174, -30.843583) translate(67.369674, 22.843583)">
                <path d="M3.17836985,11.3090834 C3.17836985,12.3075139 3.89509226,12.9957524 5.45249348,12.9957524 C6.27251291,12.9957524 7.07266752,12.8503499 7.83229791,12.6007423 L8.07703239,14.9780732 C7.29912637,15.1436705 6.33369653,15.2454523 5.5772445,15.2454523 C2.23439401,15.2454523 0.348031499,13.5167781 0.348031499,11.0166628 C0.348031499,6.38882435 6.16921589,7.22488873 6.16921589,4.53736583 C6.16921589,3.22228099 5.10446198,2.70125536 3.85297885,2.70125536 C2.74690615,2.70125536 1.72188187,2.93309157 0.839884234,3.3079069 L0.553830947,0.703586548 C1.4755582,0.451555546 2.52203648,0.326347836 3.75127102,0.326347836 C6.94950568,0.326347836 9.10285126,2.26585564 9.10285126,4.870176 C9.10285126,9.32918604 3.17836985,8.80735262 3.17836985,11.3090834" id="path188"></path>
            </g>
            <g id="g190" transform="translate(81.509740, 32.830012) scale(-1, 1) rotate(-180.000000) translate(-81.509740, -32.830012) translate(77.134740, 27.052234)">
                <path d="M5.56214724,2.42337502 C3.81960597,2.42337502 3.18631578,3.65364174 3.18631578,5.42432109 C3.18631578,7.3444419 3.98408661,8.6150982 5.54148784,8.6150982 C6.21848062,8.6150982 6.8946788,8.44950091 7.44850975,8.22008807 L7.85772487,10.5109853 C7.20218609,10.7420137 6.40203148,10.8656058 5.62412546,10.8656058 C2.0977241,10.8656058 0.436231262,8.38730095 0.436231262,5.15613425 C0.436231262,1.63254697 2.20102112,0.131670043 5.02818111,0.131670043 C6.01427036,0.131670043 7.10047825,0.300498503 7.89983827,0.610690505 L7.55021759,2.84342669 C6.95665702,2.57039311 6.25979943,2.42337502 5.56214724,2.42337502" id="path192"></path>
            </g>
            <g id="g194" transform="translate(90.509762, 33.251279) scale(-1, 1) rotate(-180.000000) translate(-90.509762, -33.251279) translate(85.259762, 27.473501)">
                <path d="M5.56214724,11.3090834 C2.46800419,11.3090834 0.354388239,8.9737577 0.354388239,5.74259101 C0.354388239,2.05340643 2.24154534,0.533950296 5.13147813,0.533950296 C8.16682134,0.533950296 10.3400317,2.86846823 10.3400317,6.11821414 C10.3400317,9.68138321 8.47273944,11.3090834 5.56214724,11.3090834 M5.33727758,2.8038449 C3.83947078,2.8038449 3.06077017,3.88951691 3.06077017,6.01239343 C3.06077017,8.1401167 4.20736709,9.05776804 5.37859638,9.05776804 C6.91533821,9.05776804 7.6328552,7.97371161 7.6328552,5.97200384 C7.6328552,3.86851433 6.62928492,2.8038449 5.33727758,2.8038449" id="path196"></path>
            </g>
            <g id="g198" transform="translate(99.631860, 31.112891) scale(-1, 1) rotate(-180.000000) translate(-99.631860, -31.112891) translate(95.694360, 23.557335)">
                <path d="M6.35673971,2.42337502 C5.45408267,2.42337502 5.14895916,2.79899815 5.14895916,4.13346999 L5.14895916,8.67568258 L7.62888224,8.67568258 L7.62888224,10.7403981 L5.14895916,10.7403981 L5.14895916,15.0790472 L2.54428507,14.3714217 L2.54428507,10.7403981 L0.781084391,10.7403981 L0.781084391,8.67568258 L2.54428507,8.67568258 L2.54428507,3.4250367 C2.54428507,1.00650843 3.24193725,0.172867418 5.49540148,0.172867418 C6.21291847,0.172867418 7.05518648,0.296459544 7.71151986,0.465288004 L7.52558522,2.56958531 C7.17755372,2.46538019 6.78899801,2.42337502 6.35673971,2.42337502" id="path200"></path>
            </g>
            <polygon id="path202" points="105.072678 38.3184651 107.695629 38.3184651 107.695629 23.102883 105.072678 23.102883"></polygon>
            <g id="g212" transform="translate(113.792204, 32.864649) scale(-1, 1) rotate(-180.000000) translate(-113.792204, -32.864649) translate(108.979704, 27.086871)">
                <path d="M8.7405171,7.27012506 C8.7405171,9.58202483 7.79892503,10.9156889 4.64041999,10.9156889 C3.26895339,10.9156889 1.81246541,10.6240761 0.788235724,10.2064478 L1.21731565,8.16596603 C2.12156188,8.56016837 3.36986664,8.87278374 4.29238849,8.87278374 C5.64716864,8.87278374 6.11677278,8.31217632 6.11677278,7.06009923 L6.11677278,6.68528389 C2.54984721,6.68528389 0.234404777,5.53741192 0.234404777,3.08010965 C0.234404777,1.39020947 1.30074786,0.120360959 3.14420238,0.120360959 C4.59274444,0.120360959 5.79098987,0.865144883 6.32257223,1.94597014 L6.32257223,0.32796342 L8.8247439,0.32796342 C8.76276569,1.18422259 8.7405171,2.16165052 8.7405171,2.99448373 L8.7405171,7.27012506 Z M6.11677278,4.66418912 C6.11677278,3.41211203 5.25702374,2.16165052 3.98726498,2.16165052 C3.22842918,2.16165052 2.75644126,2.70529432 2.75644126,3.37253024 C2.75644126,4.26756341 3.47316366,4.93479933 6.11677278,4.93479933 L6.11677278,4.66418912 Z" id="path214"></path>
            </g>
            <g id="g216" transform="translate(123.749478, 33.282214) scale(-1, 1) rotate(-180.000000) translate(-123.749478, -33.282214) translate(118.936978, 27.504437)">
                <path d="M6.35673971,11.3090834 C4.79536552,11.3090834 3.65671452,10.5465281 3.01468381,9.45116258 L3.01468381,11.1006732 L0.534760728,11.1006732 L0.534760728,0.741552756 L3.15929963,0.741552756 L3.15929963,5.74259101 C3.15929963,7.55689111 4.20418872,9.07877062 5.51526629,9.07877062 C6.49976635,9.07877062 6.78740882,8.43334507 6.78740882,7.37109902 L6.78740882,0.741552756 L9.39208292,0.741552756 L9.39208292,8.01571678 C9.39208292,9.82920909 8.65311193,11.3090834 6.35673971,11.3090834" id="path218"></path>
            </g>
            <g id="g220" transform="translate(134.627523, 30.803189) scale(-1, 1) rotate(-180.000000) translate(-134.627523, -30.803189) translate(129.377523, 22.358745)">
                <path d="M7.15133217,16.1558335 L7.15133217,11.4019795 C6.70079824,11.465795 6.29158312,11.4843742 5.86011942,11.4843742 C2.47595012,11.4843742 0.467220368,9.06907712 0.467220368,5.56568463 C0.467220368,2.60674373 1.69883869,0.710856673 4.17876176,0.710856673 C5.66544426,0.710856673 6.75483053,1.45321722 7.31422363,2.51869444 L7.31422363,0.939461717 L9.75521167,0.939461717 L9.75521167,16.1558335 L7.15133217,16.1558335 Z M7.15133217,6.31531531 C7.15133217,4.54544375 6.32972356,2.91855132 4.95666779,2.91855132 C3.76795746,2.91855132 3.2157157,3.92102078 3.2157157,5.85810522 C3.2157157,8.42284378 4.2804696,9.38007692 5.7774818,9.38007692 C6.22722114,9.38007692 6.68093343,9.31787696 7.15133217,9.21286404 L7.15133217,6.31531531 Z" id="path222"></path>
            </g>
        </g>
    </g>
</svg>