<?xml version="1.0" encoding="UTF-8"?>
<svg width="160px" height="72px" viewBox="0 0 160 72" version="1.1" xmlns="http://www.w3.org/2000/svg" xmlns:xlink="http://www.w3.org/1999/xlink">
    <!-- Generator: Sketch 50 (54983) - http://www.bohemiancoding.com/sketch -->
    <title>customer/rmit</title>
    <desc>Created with Sketch.</desc>
    <defs></defs>
    <g id="customer/rmit" stroke="none" stroke-width="1" fill="none" fill-rule="evenodd">
        <g id="rmit" transform="translate(12.000000, 11.000000)" fill="#000000" fill-rule="nonzero">
            <g id="g5104" transform="translate(102.737646, 17.282273) scale(-1, 1) rotate(-180.000000) translate(-102.737646, -17.282273) translate(96.140631, 3.506762)">
                <polygon id="path5106" points="9.51041735 25.9534413 12.9626989 25.9534413 12.9626989 27.2319898 0.93066227 27.2319898 0.93066227 25.9534413 4.4019646 25.9534413 4.4019646 1.6214071 0.93066227 1.6214071 0.93066227 0.353786384 12.9626989 0.353786384 12.9626989 1.6214071 9.51041735 1.6214071"></polygon>
            </g>
            <g id="g5108" transform="translate(67.666480, 24.790659) scale(-1, 1) rotate(-180.000000) translate(-67.666480, -24.790659) translate(0.173943, 0.300863)">
                <g id="g5110-Clipped">
                    <g id="g5110" transform="translate(0.048575, 0.048837)">
                        <g id="g5116" transform="translate(109.661498, 18.527615)">
                            <path d="M17.6622037,0 L17.6622037,1.26215683 L13.974879,1.26215683 L13.974879,25.8701171 C19.6104806,26.152873 20.57375,24.9398911 21.2965417,19.7970118 L22.5342546,19.7970118 L22.0954168,26.8782034 L0.688825943,26.8782034 L0.252705375,19.7970118 L1.52302541,19.7970118 C2.25125165,24.9398911 3.20229339,26.152873 8.84876403,25.8701171 L8.84876403,1.26215683 L5.1587221,1.26215683 L5.1587221,0 L17.6622037,0" id="path5118"></path>
                        </g>
                        <g id="g5120" transform="translate(37.496315, 18.183527)">
                            <path d="M57.0625041,25.9534413 L57.0625041,27.222428 L47.20156,27.222428 L41.4056399,8.83919571 L35.8094386,27.222428 L25.9851775,27.222428 L25.9851775,25.9534413 L29.4401762,25.9534413 L29.4401762,1.60501545 L25.7080167,1.60911336 C22.2407903,1.52442318 22.1878037,4.49540923 22.2027486,5.11009599 C22.2503007,11.6626569 20.7952069,14.0476416 14.5495799,15.0174807 L14.5495799,15.1049028 C18.2749463,15.5010343 23.0369481,16.5664914 23.0369481,21.1069776 C23.0369481,26.6965293 17.8469775,27.222428 13.4694682,27.222428 L0.580135459,27.222428 L0.580135459,25.9534413 L4.03105833,25.9534413 L4.03105833,1.60911336 L0.580135459,1.60911336 L0.580135459,0.34422459 L12.6053789,0.34422459 L12.6053789,1.60911336 L9.15445602,1.60911336 L9.15445602,14.4437731 C11.3717419,14.5325612 13.8702644,13.9629514 14.9979282,12.9876484 C16.0399982,12.0997675 16.6011128,9.34050692 16.6011128,6.01027061 C16.6011128,1.9000651 18.7110668,0.34422459 22.7597874,0.34422459 L34.3489102,0.34422459 L34.3489102,1.60501545 L30.9727121,1.60501545 L30.9727121,25.5368203 L31.0555886,25.5368203 L39.0144492,0.34422459 L40.3662871,0.34422459 L48.3754172,25.5368203 L48.4963354,25.5368203 L48.4963354,1.60501545 L45.0535643,1.60501545 L45.0535643,0.34422459 L57.0625041,0.34422459 L57.0625041,1.60501545 L53.6170158,1.60501545 L53.6170158,25.9534413 L57.0625041,25.9534413 Z M9.15445602,15.6991 L9.15445602,25.9534413 L12.6366274,25.9534413 C16.2016753,25.9534413 17.5181888,25.0532667 17.5181888,20.53327 C17.5181888,16.9284736 16.0399982,15.6991 12.43555,15.6991 L9.15445602,15.6991 Z" id="path5122"></path>
                        </g>
                        <g id="g5124" transform="translate(0.494678, 16.603401)">
                            <path d="M16.3035726,30.3969155 L12.3119146,30.3969155 L12.3119146,27.1363437 L5.66549148,27.1363437 L5.66549148,20.337908 L0.665729215,20.337908 L0.665729215,10.354029 L5.66549148,10.354029 L5.66549148,3.55422736 L12.3119146,3.55422736 L12.3119146,0.303217342 L15.830769,0.303217342 C24.0532041,0.303217342 31.3069353,6.97598369 31.3069353,15.3125022 C31.3069353,23.59165 24.539594,30.3969155 16.3035726,30.3969155" id="path5126"></path>
                        </g>
                        <g id="g5128" transform="translate(40.168742, 0.833925)">
                            <path d="M1.35863105,9.56179416 C1.35863105,9.78581334 1.23907152,9.8896271 1.0325596,9.8896271 L0.394003005,9.8896271 L0.394003005,11.1736395 L1.89257305,11.1736395 C2.56101953,11.1736395 2.84361479,10.8895176 2.84361479,10.21746 L2.84361479,4.38203367 C2.84361479,2.80160569 3.83677409,1.85908598 5.35164771,1.85908598 C6.8651627,1.85908598 7.86103926,2.80160569 7.86103926,4.39705934 L7.86103926,10.21746 C7.86103926,10.8895176 8.15722083,11.1736395 8.82430867,11.1736395 L10.3092924,11.1736395 L10.3092924,9.8896271 L9.67073582,9.8896271 C9.46286527,9.8896271 9.346023,9.78581334 9.346023,9.56179416 L9.346023,4.32329693 C9.346023,2.02573439 7.75642467,0.457600149 5.36659265,0.457600149 C2.96181569,0.457600149 1.35863105,2.02573439 1.35863105,4.32329693 L1.35863105,9.56179416 Z" id="path5130"></path>
                        </g>
                        <g id="g5132" transform="translate(51.483150, 1.388373)">
                            <path d="M0,1.36597059 L0.637197963,1.36597059 C0.846427145,1.36597059 0.964628046,1.48617601 0.964628046,1.69380354 L0.964628046,10.6190554 L2.31510731,10.6190554 L6.97657044,3.94765502 C7.36242166,3.38077722 7.85288747,2.51475186 7.85288747,2.51475186 L7.88141872,2.51475186 C7.88141872,2.51475186 7.77816276,3.35072587 7.77816276,3.94765502 L7.77816276,9.66287598 C7.77816276,10.3349335 8.05939939,10.6190554 8.74279081,10.6190554 L10.2277745,10.6190554 L10.2277745,9.33504304 L9.58921795,9.33504304 C9.3813474,9.33504304 9.2631465,9.23122927 9.2631465,9.0072101 L9.2631465,0.0819582356 L7.92625355,0.0819582356 L3.2512041,6.75199265 C2.86535289,7.32160238 2.38983202,8.18626177 2.38983202,8.18626177 L2.35994213,8.18626177 C2.35994213,8.18626177 2.44961178,7.33526209 2.44961178,6.75199265 L2.44961178,1.03813765 C2.44961178,0.366080119 2.16565789,0.0819582356 1.49857005,0.0819582356 L0,0.0819582356 L0,1.36597059 Z" id="path5134"></path>
                        </g>
                        <g id="g5136" transform="translate(63.321582, 1.388373)">
                            <polygon id="path5138" points="0 1.36597059 1.02440781 1.36597059 1.02440781 9.33504304 0 9.33504304 0 10.6190554 3.45907465 10.6190554 3.45907465 9.33504304 2.43466684 9.33504304 2.43466684 1.36597059 3.45907465 1.36597059 3.45907465 0.0819582356 0 0.0819582356"></polygon>
                        </g>
                        <g id="g5140" transform="translate(67.039068, 0.833925)">
                            <path d="M1.35863105,9.56179416 C1.27032003,9.83089037 1.12087062,9.8896271 0.870882503,9.8896271 L0.663011953,9.8896271 L0.663011953,11.1736395 L1.49313552,11.1736395 C2.23494808,11.1736395 2.48901208,11.008357 2.72541389,10.3076141 L5.02557626,3.81515587 C5.2198605,3.24827807 5.42773105,2.36859301 5.42773105,2.36859301 L5.45762093,2.36859301 C5.45762093,2.36859301 5.64918791,3.24827807 5.85841709,3.81515587 L8.15857946,10.3076141 C8.4099262,11.008357 8.64768664,11.1736395 9.38949919,11.1736395 L10.2209814,11.1736395 L10.2209814,9.8896271 L10.0144695,9.8896271 C9.74546053,9.8896271 9.61367331,9.83089037 9.52400366,9.56179416 L6.22796474,0.636542297 L4.65466998,0.636542297 L1.35863105,9.56179416 Z" id="path5142"></path>
                        </g>
                        <g id="g5144" transform="translate(77.728505, 1.162168)">
                            <path d="M1.35863105,9.56179416 L0.395361636,9.56179416 L0.395361636,10.8444405 L6.55675345,10.8444405 C7.2238413,10.8444405 7.50507792,10.5616846 7.50507792,9.8896271 L7.50507792,8.56190368 L6.15324003,8.56190368 L6.15324003,9.23396122 C6.15324003,9.45798039 6.03503913,9.56179416 5.82716858,9.56179416 L2.84497342,9.56179416 L2.84497342,6.26297517 L6.50920136,6.26297517 L6.50920136,4.98032879 L2.84497342,4.98032879 L2.84497342,1.92055466 C2.84497342,1.71292712 2.96317432,1.59272171 3.17104487,1.59272171 L6.22796474,1.59272171 C6.43719392,1.59272171 6.55675345,1.71292712 6.55675345,1.92055466 L6.55675345,2.59261219 L7.92081902,2.59261219 L7.92081902,1.26488877 C7.92081902,0.591465267 7.6395824,0.308709354 6.97113592,0.308709354 L2.30967279,0.308709354 C1.64122631,0.308709354 1.35863105,0.591465267 1.35863105,1.26488877 L1.35863105,9.56179416 Z" id="path5146"></path>
                        </g>
                        <g id="g5148" transform="translate(86.727290, 1.137882)">
                            <path d="M4.41959883,5.80944481 C5.5472626,5.80944481 6.21435045,6.54160505 6.21435045,7.72043767 C6.21435045,8.90063626 5.5472626,9.5863535 4.44813008,9.5863535 L2.48898411,9.5863535 L2.48898411,5.80944481 L4.41959883,5.80944481 Z M1.00400037,9.5863535 L0.0393723221,9.5863535 L0.0393723221,10.8689999 L4.61116581,10.8689999 C6.45211088,10.8689999 7.74416901,9.70519294 7.74416901,7.7791744 C7.74416901,6.01980428 6.6015603,5.15241295 5.85838911,4.98986245 L5.85838911,4.9598111 C5.85838911,4.9598111 6.12739806,4.82594598 6.30266147,4.48172139 L7.56618834,1.96013967 C7.71563776,1.64596644 7.95203956,1.61591508 8.3080009,1.61591508 L8.50228514,1.61591508 L8.50228514,0.333268695 L7.77270026,0.333268695 C6.95752163,0.333268695 6.65998143,0.437082461 6.32032367,1.12416567 L4.8951197,3.95855465 C4.62746938,4.45167004 4.43318514,4.52679842 3.85440831,4.52679842 L2.48898411,4.52679842 L2.48898411,0.333268695 L1.00400037,0.333268695 L1.00400037,9.5863535 Z" id="path5150"></path>
                        </g>
                        <g id="g5152" transform="translate(95.769767, 1.186345)">
                            <path d="M1.35863105,2.73194119 C1.35863105,2.73194119 2.42787369,1.46295451 3.98486487,1.46295451 C4.96579649,1.46295451 5.78369238,2.06124963 5.78369238,3.03108875 C5.78369238,5.2398632 0.720074457,4.89700458 0.720074457,8.17943192 C0.720074457,9.76122587 2.1004436,11.0001612 4.07589315,11.0001612 C5.18997061,11.0001612 7.05808831,10.4920201 7.05808831,9.06048295 L7.05808831,8.19309162 L5.69402273,8.19309162 L5.69402273,8.68620701 C5.69402273,9.2394251 4.90737535,9.64238642 4.07589315,9.64238642 C2.94687075,9.64238642 2.23494808,9.01540592 2.23494808,8.22450895 C2.23494808,6.08949691 7.28226243,6.56758662 7.28226243,3.10621713 C7.28226243,1.49300586 6.0336805,0.105179736 3.95769225,0.105179736 C1.72953733,0.105179736 0.483672654,1.67331398 0.483672654,1.67331398 L1.35863105,2.73194119 Z" id="path5154"></path>
                        </g>
                        <g id="g5156" transform="translate(104.608477, 1.388373)">
                            <polygon id="path5158" points="0 1.36597059 1.02440781 1.36597059 1.02440781 9.33504304 0 9.33504304 0 10.6190554 3.46043329 10.6190554 3.46043329 9.33504304 2.43466684 9.33504304 2.43466684 1.36597059 3.46043329 1.36597059 3.46043329 0.0819582356 0 0.0819582356"></polygon>
                        </g>
                        <g id="g5160" transform="translate(108.713581, 1.162168)">
                            <path d="M4.07589315,9.56179416 L1.96729776,9.56179416 C1.75942721,9.56179416 1.64122631,9.45798039 1.64122631,9.23396122 L1.64122631,8.56190368 L0.320636928,8.56190368 L0.320636928,9.94972981 C0.320636928,10.6204214 0.542093789,10.8444405 1.21054027,10.8444405 L8.42622978,10.8444405 C9.09195899,10.8444405 9.31613311,10.6204214 9.31613311,9.94972981 L9.31613311,8.56190368 L7.99554373,8.56190368 L7.99554373,9.23396122 C7.99554373,9.45798039 7.87734283,9.56179416 7.66811365,9.56179416 L5.55951826,9.56179416 L5.55951826,0.308709354 L4.07589315,0.308709354 L4.07589315,9.56179416 Z" id="path5162"></path>
                        </g>
                        <g id="g5164" transform="translate(118.186364, 0.603349)">
                            <path d="M4.07589315,5.46388238 L1.41841082,9.74756616 C1.22548521,10.0617394 1.09098073,10.1204761 0.778495592,10.1204761 L0.482314023,10.1204761 L0.482314023,11.4044885 L1.16434681,11.4044885 C1.87762811,11.4044885 2.15886474,11.2993088 2.57596447,10.5971999 L4.16420417,7.94038706 C4.50657919,7.35984956 4.80276076,6.76155444 4.80276076,6.76155444 L4.83265065,6.76155444 C4.83265065,6.76155444 5.11388727,7.35984956 5.46984861,7.94038706 L7.04586063,10.5971999 C7.45888447,11.2993088 7.75642467,11.4044885 8.4534024,11.4044885 L9.13679382,11.4044885 L9.13679382,10.1204761 L8.85283993,10.1204761 C8.54307205,10.1204761 8.39498126,10.0617394 8.20205565,9.74756616 L5.55815963,5.46388238 L5.55815963,0.867391327 L4.07589315,0.867391327 L4.07589315,5.46388238 Z" id="path5166"></path>
                        </g>
                    </g>
                </g>
            </g>
        </g>
    </g>
</svg>