<?xml version="1.0" encoding="UTF-8"?>
<svg width="160px" height="72px" viewBox="0 0 160 72" version="1.1" xmlns="http://www.w3.org/2000/svg" xmlns:xlink="http://www.w3.org/1999/xlink">
    <!-- Generator: Sketch 51 (57462) - http://www.bohemiancoding.com/sketch -->
    <title>customer/schibsted</title>
    <desc>Created with Sketch.</desc>
    <defs></defs>
    <g id="customer/schibsted" stroke="none" stroke-width="1" fill="none" fill-rule="evenodd">
        <g id="schibsted" transform="translate(0.000000, 16.000000)" fill="#000000" fill-rule="nonzero">
            <path d="M46.7918491,12.5830316 L48.4439763,16.5551723 L47.7158932,16.5551723 C46.3792156,14.3430578 44.2156778,13.0351198 41.9055675,13.0351198 C38.1392911,13.0351198 35.343261,16.1030841 35.343261,20.2887975 C35.343261,24.3560326 37.7489621,26.9968514 41.492934,26.9968514 C44.1184939,26.9968514 46.1115614,25.6405867 46.9623193,23.2148995 L47.7158932,23.2148995 L47.5932184,27.1402725 L46.9623193,27.1402725 C46.8412377,27.0202353 46.7185628,26.9734675 46.5241949,26.9734675 C46.3792156,26.9734675 46.1354591,27.0202353 45.8932959,27.0685619 L44.483332,27.4006129 C43.4127153,27.6625123 42.3914872,27.7809906 41.2730752,27.7809906 C35.9502624,27.7809906 32.3767607,24.5228375 32.3767607,19.6465204 C32.3767607,15.1521399 35.8052831,12.2026539 40.9831165,12.2026539 C42.0027514,12.2026539 42.6591414,12.2494217 43.6564718,12.4162266 L44.7987815,12.6313583 C45.308599,12.7015099 45.6495394,12.7498366 45.9649889,12.7498366 C46.329827,12.7498366 46.5002973,12.7015099 46.7918491,12.5830316 Z M55.3042073,16.0781413 L55.3042073,19.5981937 L64.0539493,19.5981937 L64.0539493,16.2449462 C64.0539493,13.6041274 63.8356837,13.2954603 61.8665138,13.2237497 L61.8665138,12.5814727 L68.9896195,12.5814727 L68.9896195,13.2237497 C66.971061,13.2954603 66.7766931,13.5807435 66.7766931,16.291714 L66.7766931,23.7137555 C66.7766931,26.3763993 66.9965519,26.6866253 68.9896195,26.7333931 L68.9896195,27.4006129 L61.8665138,27.4006129 L61.8665138,26.7333931 C63.811786,26.6866253 64.0539493,26.3530154 64.0539493,23.8322338 L64.0539493,20.6691751 L55.3042073,20.6691751 L55.3042073,24.2126115 C55.3042073,26.2813048 55.6451477,26.6866253 57.4677451,26.7333931 L57.4677451,27.4006129 L50.4434166,27.4006129 L50.4434166,26.7333931 C52.3393002,26.6866253 52.6053612,26.3296315 52.6053612,23.9990388 L52.6053612,16.0547574 C52.6053612,13.6275113 52.3393002,13.2954603 50.4434166,13.2237497 L50.4434166,12.5814727 L57.4677451,12.5814727 L57.4677451,13.2237497 C55.5718615,13.2954603 55.3042073,13.6275113 55.3042073,16.0781413 Z M71.8684949,27.4006129 L71.8684949,26.734952 L72.1600467,26.734952 C73.4728267,26.734952 73.8376648,26.3062476 73.8615625,24.6896425 L73.8615625,15.2706182 C73.8376648,13.675838 73.4728267,13.2237497 72.1600467,13.2237497 L71.8684949,13.2237497 L71.8684949,12.5830316 L78.6506601,12.5830316 L78.6506601,13.2237497 L78.2619243,13.2237497 C76.9730421,13.2237497 76.5843063,13.675838 76.5843063,15.2706182 L76.5604086,16.0079896 L76.5604086,23.952271 L76.5843063,24.6896425 C76.5843063,26.3062476 76.9730421,26.734952 78.2619243,26.734952 L78.6506601,26.734952 L78.6506601,27.4006129 L71.8684949,27.4006129 Z M81.3479131,27.2805757 L81.3479131,26.6382986 L81.8099351,26.6382986 C83.7552073,26.6382986 83.9973706,26.3530154 83.9973706,23.9039443 L83.9973706,14.8652977 C83.9973706,13.6041274 83.4636555,13.2237497 81.7621397,13.2237497 L80.885891,13.2237497 L80.885891,12.5814727 L89.103511,12.5814727 C91.1682717,12.5814727 92.0923158,12.7482776 93.3079118,13.3188442 C94.7911619,14.0328318 95.6897152,15.4358642 95.6897152,17.1241799 C95.6897152,18.90759 94.3052422,20.3589491 91.9218456,21.0012261 L91.9218456,21.0495528 C93.7460362,21.4065466 94.8389573,22.5476797 94.8389573,24.0691904 C94.8389573,25.4254551 94.0614857,26.4481098 92.6515218,26.9719086 C91.4853144,27.399054 90.1964322,27.565859 87.9596081,27.565859 C87.2060342,27.565859 86.3074809,27.5424751 85.2384575,27.5190912 C83.6819211,27.4473807 83.0255311,27.4239968 81.3479131,27.2805757 Z M98.1033822,16.4819028 L98.7103836,12.366341 L99.2950804,12.366341 C99.4639575,12.5580888 99.6583254,12.6297993 99.9498772,12.6297993 C100.120347,12.6297993 100.314715,12.6048565 100.534574,12.5580888 L101.238759,12.3912838 C101.676884,12.2961894 102.600928,12.2026539 103.134643,12.2026539 C106.295511,12.2026539 108.409661,13.8442019 108.409661,16.2433873 C108.409661,16.8638394 108.312477,17.432847 108.094211,17.9083191 C107.5828,19.05257 106.684247,19.8850359 104.374137,21.3332772 C103.596665,21.8118671 102.89248,22.2873392 102.283885,22.6895418 C101.190964,23.4767989 100.75284,24.1642848 100.75284,25.0934041 C100.75284,26.2095943 101.724679,27.0186763 103.086848,27.0186763 C104.860057,27.0186763 106.368798,25.8775433 107.096881,23.9756549 L107.826557,23.9756549 L107.291248,27.6625123 L106.684247,27.6625123 C106.465982,27.4473807 106.319409,27.3756701 106.003959,27.3756701 C105.736305,27.3756701 105.615224,27.399054 104.95724,27.5424751 C104.179769,27.7077211 103.54887,27.7809906 102.819194,27.7809906 C100.217531,27.7809906 98.394934,26.3311904 98.394934,24.284322 C98.394934,23.453415 98.6864859,22.666158 99.2217942,22.0238809 C99.9259795,21.1680311 100.631758,20.6224074 103.134643,18.9793005 C103.693849,18.6223067 104.155871,18.2902557 104.568505,17.9800297 C105.565835,17.2208332 106.027857,16.4335761 106.027857,15.4841909 C106.027857,14.0562156 104.788363,13.0569448 102.989664,13.0569448 C100.947208,13.0569448 99.4161621,14.2947312 98.8330584,16.4819028 L98.1033822,16.4819028 Z M110.716584,27.7809906 L110.27846,23.6903716 L111.008136,23.6903716 C111.323586,25.9726377 111.640629,26.3062476 113.439328,26.3062476 L116.509385,26.3062476 L116.509385,15.2706182 L116.485488,14.8652977 C116.459997,13.5807435 115.974077,13.2237497 114.248663,13.2237497 L113.713355,13.2237497 L113.713355,12.5830316 L122.002668,12.5830316 L122.002668,13.2237497 L121.46736,13.2237497 C119.741947,13.2237497 119.232129,13.5807435 119.206638,14.8652977 L119.206638,26.3062476 L122.276695,26.3062476 C124.051497,26.3062476 124.343049,25.9975805 124.707887,23.6903716 L125.413666,23.6903716 L124.975541,27.7809906 L124.295254,27.7809906 C124.148681,27.4239968 124.003702,27.4006129 122.738717,27.4006129 L112.977306,27.4006129 C111.713915,27.4006129 111.567342,27.4239968 111.396872,27.7809906 L110.716584,27.7809906 Z M126.767868,12.5830316 L140.623751,12.5830316 L140.986996,16.3166568 L140.306708,16.3166568 C140.064545,15.4841909 139.991258,15.294002 139.747502,14.8185299 C139.237684,13.8909696 138.678478,13.654013 136.733206,13.654013 L134.035953,13.654013 C132.79646,13.654013 132.625989,13.8909696 132.625989,15.3657126 L132.625989,19.6948471 L136.369961,19.6948471 C137.682741,19.6948471 137.974293,19.4563316 138.168661,18.1717774 C138.168661,18.1000669 138.192559,17.9582047 138.216456,17.7913997 L138.848949,17.7913997 L138.848949,22.5726225 L138.216456,22.5726225 L138.192559,22.334107 C137.998191,20.9794012 137.779925,20.7892124 136.34447,20.7892124 L132.625989,20.7892124 L132.625989,26.3062476 L136.879779,26.3062476 C138.62909,26.3062476 138.825051,26.1643855 139.237684,24.3326487 C139.261582,24.2141704 139.28548,24.0473654 139.358766,23.8088499 L140.088442,23.8088499 L139.870177,27.4006129 L127.448156,27.4006129 L127.448156,26.734952 L128.05675,26.734952 C129.538407,26.734952 129.879348,26.3545743 129.903246,24.6896425 L129.903246,14.8668566 C129.879348,13.5823025 129.393428,13.2253087 127.642524,13.2253087 L126.767868,13.2253087 L126.767868,12.5830316 Z M142.790475,27.2805757 L142.790475,26.6382986 L143.131415,26.6382986 C144.856829,26.6382986 145.098992,26.3530154 145.098992,24.2609381 L145.098992,15.2690592 C145.075094,13.675838 144.710256,13.2237497 143.397476,13.2237497 L142.790475,13.2237497 L142.790475,12.5814727 L149.717619,12.5814727 C151.516319,12.5814727 152.68412,12.699951 153.971409,13.0335609 C157.521013,13.9143535 160,16.9106072 160,20.360508 C160,22.6427741 159.02816,24.6880836 157.326645,25.92587 C156.670255,26.4013421 155.867292,26.7817197 154.968739,27.0186763 C153.461591,27.4239968 152.124914,27.565859 149.644333,27.565859 C147.797838,27.565859 145.755382,27.4957074 143.397476,27.3289024 L142.790475,27.2805757 Z M159.07277,9.93145621 L29.7974031,9.93145621 C30.2498661,11.3001923 30.4904362,12.7640228 30.4904362,14.2980049 C30.4904362,18.7440588 26.2191219,23.8012112 26.2191219,23.8012112 C25.2249778,25.1418866 20.9233931,30.6433326 20.5792663,31.1484243 C19.7555925,32.3550322 18.2309197,33.9841087 18.7439235,36.3677049 C19.2027592,38.5018732 21.5542922,39.3249855 23.0152378,39.3249855 C24.7661421,39.3249855 27.018898,38.3740413 27.8234536,35.9109399 L28.5037413,35.9109399 L28.3938119,38.9477257 C26.2573582,39.8487843 23.921757,40 23.1012695,40 C22.2807821,40 17.319621,39.9360841 14.3594935,35.6911315 C10.6266738,30.3346655 14.5108455,25.2400989 14.5108455,25.2400989 C15.2580467,24.0880534 18.1735652,20.5103207 19.1310661,19.3348913 C19.1310661,19.3348913 21.3232812,16.5085604 22.0433983,15.3596328 C22.7985654,14.1561427 23.5043439,12.8154673 23.4979712,11.1770372 C23.496378,10.7420972 23.4661076,10.3258642 23.4151259,9.92522051 L19.9515536,9.92522051 L19.9595195,10.5550262 C19.9961626,13.5216603 17.8501498,19.1010526 10.1965153,19.1010526 C3.87159262,19.1010526 0.0240640624,14.4071296 0.00016636953,10.0717594 C-0.0428494777,2.36755251 8.26717494,0.350303668 11.5140748,0.0884042819 C20.4549983,-0.634936879 26.9854412,3.14857389 29.432565,8.94621566 L159.07277,8.94621566 L159.07277,9.93145621 Z M147.797838,14.9603921 L147.797838,26.8534303 C148.065492,26.8534303 148.08939,26.8534303 148.502023,26.8768142 L149.499354,26.8768142 C152.1982,26.8768142 153.753143,26.4247259 155.065923,25.2352662 C156.305417,24.0941332 157.035093,22.2390125 157.035093,20.1687602 C157.035093,17.3860793 156.013865,15.2690592 154.068593,14.1279262 C152.950181,13.4856491 151.736178,13.2486925 149.328884,13.2486925 C148.041594,13.2486925 147.797838,13.509033 147.797838,14.9603921 Z M86.6962167,16.5536134 L86.6962167,20.5974646 L88.0328944,20.5974646 C91.0965786,20.5974646 92.7248081,19.3362943 92.7248081,16.9823177 C92.7248081,14.7935871 91.3387419,13.4373225 89.1274087,13.4373225 C87.1821365,13.4373225 86.6962167,14.0562156 86.6962167,16.5536134 Z M88.0822829,21.2397417 L86.6962167,21.2397417 L86.6962167,26.8051036 C87.2315251,26.8768142 87.6441586,26.900198 88.1794669,26.900198 C90.6584542,26.900198 91.9712342,25.8541594 91.9712342,23.8790015 C91.9712342,22.000497 90.8528221,21.2397417 88.0822829,21.2397417 Z M23.8930797,5.83148368 C25.4464298,7.21425008 26.3720671,9.73503167 26.3720671,12.6813998 C26.3720671,15.1663261 24.8234966,17.5218616 22.9228334,20.0488789 L18.7805666,25.4006682 C17.6286978,26.9034718 15.9032844,29.4897282 15.9032844,32.255261 C15.9032844,35.2624272 16.6457061,36.1603679 17.6812728,37.4823363 C16.760415,35.9187346 16.5357767,35.2624272 16.5357767,33.458751 C16.5357767,30.3923457 18.2468515,28.0430459 19.6281382,26.3001678 L23.7146436,20.9468197 C25.3827026,18.7222338 27.1989273,16.2903109 27.2753999,13.3548553 C27.3614316,10.0717594 25.7921497,7.03497371 23.8930797,5.83148368 Z M12.1752443,1.51170273 C3.65651339,1.48208316 1.16159425,6.87284552 1.1647806,9.77712264 C1.16637378,13.1444005 3.65651339,17.2272248 8.47588146,17.2350194 C13.1295589,17.2412551 14.6096226,13.2348181 14.018553,11.3531957 C13.6170718,10.0717594 12.6914345,9.88312953 12.6914345,9.88312953 L12.6914345,8.93997996 L23.2271307,8.93997996 C21.8840804,3.46347673 15.766271,1.52417413 12.1752443,1.51170273 Z M17.6398501,9.92522051 L15.9893161,9.92522051 C17.2240302,14.8919553 13.0355613,17.1866928 13.0355613,17.1866928 C13.0355613,17.1866928 18.0843472,15.6199732 17.6398501,9.92522051 Z" id="Shape" transform="translate(80.000000, 20.000000) scale(1, -1) translate(-80.000000, -20.000000) "></path>
        </g>
    </g>
</svg>