<?xml version="1.0" encoding="UTF-8"?>
<svg width="160px" height="72px" viewBox="0 0 160 72" version="1.1" xmlns="http://www.w3.org/2000/svg" xmlns:xlink="http://www.w3.org/1999/xlink">
    <!-- Generator: Sketch 50 (54983) - http://www.bohemiancoding.com/sketch -->
    <title>customer/scout24</title>
    <desc>Created with Sketch.</desc>
    <defs></defs>
    <g id="customer/scout24" stroke="none" stroke-width="1" fill="none" fill-rule="evenodd">
        <g id="scout24" transform="translate(20.000000, 7.000000)" fill="#000000" fill-rule="nonzero">
            <path d="M0,57.8197674 L0,8.52651283e-14 L119.749273,8.52651283e-14 L119.749273,43.8253976 C119.749273,51.374453 113.505633,57.8197674 105.67315,57.8197674 L0,57.8197674 Z M13.5228949,50.2434569 C16.7332856,50.2434569 19.2160242,48.0932032 19.2160242,44.9127885 C19.2160242,39.1651507 11.0946586,38.1867712 11.0946586,35.984736 C11.0946586,35.6495252 11.0946586,35.9302303 11.0946586,35.5650413 C11.0946586,34.5049033 12.0457842,33.8344822 13.2721674,33.8344822 L13.5228949,33.8344822 C14.8637358,33.8344822 15.754906,34.4476722 15.754906,35.1725994 C15.754906,37.2111176 18.9652967,37.1566108 18.9652967,35.0908409 C18.9652967,32.4091546 16.3953488,30.6268153 13.5228949,30.6268153 L13.2721674,30.6268153 C10.8439312,30.6268153 7.85973767,32.4091546 7.85973767,35.3960735 C7.85973767,35.7585371 7.85973767,35.6195475 7.85973767,35.984736 C7.85973767,41.0892056 15.9811033,41.4244164 15.9811033,44.9127885 C15.9811033,46.3081373 14.9182437,47.0330646 13.5228949,47.0330646 L13.2721674,47.0330646 C11.8768186,47.0330646 10.9011628,46.1691472 10.9011628,44.6593367 C10.9011628,42.5145327 7.66351814,42.5145327 7.66351814,44.6593367 C7.66351814,48.1477088 10.26072,50.2434569 13.2721674,50.2434569 L13.5228949,50.2434569 Z M27.3591963,50.2434569 C30.1744186,50.2434569 32.4909153,48.286699 32.9106084,45.6104629 C32.9106084,45.4987261 32.9106084,45.4169671 32.9106084,45.3052303 C32.9106084,44.2995985 32.1012,43.7409131 31.2618084,43.7409131 C30.5668633,43.7409131 29.8419349,44.1878618 29.7029414,45.136262 C29.5366995,46.280885 28.55832,47.0330646 27.3591963,47.0330646 L27.1057395,47.0330646 C25.8221302,47.0330646 24.7347405,46.0846638 24.7347405,44.7710735 L24.7347405,36.0664945 C24.7347405,34.7856084 25.7948763,33.8344822 27.1057395,33.8344822 L27.3591963,33.8344822 C28.55832,33.8344822 29.5366995,34.5866623 29.7029414,35.7312843 C29.8419349,36.6824104 30.5396093,37.1293585 31.2618084,37.1293585 C32.073946,37.1293585 32.9106084,36.5679483 32.9106084,35.5650413 C32.9106084,35.4505792 32.9106084,35.3688201 32.88336,35.2843367 C32.5181693,32.553595 30.1744186,30.6268153 27.3591963,30.6268153 L27.1057395,30.6268153 C24.037066,30.6268153 21.5270735,32.9705643 21.5270735,36.0664945 L21.5270735,44.7710735 C21.5270735,47.8697286 24.037066,50.2434569 27.1057395,50.2434569 L27.3591963,50.2434569 Z M41.0592279,50.2434569 C44.1551609,50.2434569 46.6406233,47.8424763 46.6406233,44.7438201 L46.6406233,36.0964727 C46.6406233,32.9950923 44.1551609,30.6268153 41.0592279,30.6268153 L40.808506,30.6268153 C37.739827,30.6268153 35.2271107,32.9950923 35.2271107,36.0964727 L35.2271107,44.7710735 C35.2271107,47.8424763 37.739827,50.2434569 40.808506,50.2434569 L41.0592279,50.2434569 Z M55.7921526,50.2434569 C58.893533,50.2434569 61.4035256,47.730739 61.4035256,44.6593367 L61.4035256,32.2429122 C61.4035256,31.1555213 60.5941116,30.6268153 59.787427,30.6268153 C58.9752893,30.6268153 58.1686047,31.1555213 58.1686047,32.2429122 L58.1686047,44.6593367 C58.1686047,45.9702011 57.1057395,47.0330646 55.7921526,47.0330646 L55.5441488,47.0330646 C54.2605395,47.0330646 53.2003981,45.9429483 53.2003981,44.6593367 L53.2003981,32.2429122 C53.2003981,31.1555213 52.3909898,30.6268153 51.5788521,30.6268153 C50.7721674,30.6268153 49.9600298,31.1555213 49.9600298,32.2429122 L49.9600298,44.6593367 C49.9600298,47.730739 52.472746,50.2434569 55.5441488,50.2434569 L55.7921526,50.2434569 Z M72.7325581,34.0007247 C73.8172242,34.0007247 74.3486567,33.1940383 74.3486567,32.3873526 C74.3486567,31.6024688 73.8172242,30.7957825 72.7325581,30.7957825 L65.0281619,30.7957825 C63.9652967,30.7957825 63.4120633,31.6024688 63.4120633,32.3873526 C63.4120633,33.1940383 63.9652967,34.0007247 65.0281619,34.0007247 L67.260173,34.0007247 L67.260173,48.624634 C67.260173,49.7120255 68.0723107,50.2434569 68.8789953,50.2434569 C69.6884093,50.2434569 70.4978177,49.7120255 70.4978177,48.624634 L70.4978177,34.0007247 L72.7325581,34.0007247 Z M88.5038177,50.0744897 C89.5912074,50.0744897 90.12264,49.2650774 90.12264,48.4556662 C90.12264,47.6762339 89.5912074,46.8668216 88.5038177,46.8668216 L83.6446214,46.8668216 L88.7518158,38.521982 C89.3377563,37.5463278 89.7301953,36.6824104 89.7301953,35.6195475 L89.7574493,35.311589 C89.7574493,32.5781224 87.4682065,30.6268153 84.8492037,30.6268153 L84.7619944,30.6268153 C82.1130084,30.6268153 79.9082512,32.6081007 79.9082512,35.311589 L79.9082512,35.7312843 C79.9082512,36.7914223 80.7176595,37.3228543 81.5270735,37.3228543 C82.3337581,37.3228543 83.1458958,36.7914223 83.1458958,35.7312843 L83.1458958,35.4233269 C83.1458958,34.5594089 83.8435702,33.8344822 84.7619944,33.8344822 L84.8492037,33.8344822 C85.7948763,33.8344822 86.5225284,34.5866623 86.5225284,35.4233269 L86.5225284,35.6495252 C86.5225284,36.0664945 86.5225284,36.3717271 86.1873209,36.9304125 L79.8510195,47.1420759 C79.6575237,47.4500344 79.6030158,47.7879706 79.6030158,48.1477088 C79.6030158,49.098835 80.2162047,50.0744897 81.2463684,50.0744897 L88.5038177,50.0744897 Z M101.111012,46.2509062 C102.198402,46.2509062 102.729834,45.4442205 102.729834,44.6320833 C102.729834,43.8253976 102.198402,43.0432387 101.111012,43.0432387 L100.497818,43.0432387 L100.497818,41.4244164 C100.497818,40.3370255 99.6884093,39.805594 98.8762716,39.805594 C98.069587,39.805594 97.260173,40.3642783 97.260173,41.4244164 L97.260173,43.0432387 L94.8074121,43.0432387 L99.4077042,32.8860809 C99.5221674,32.635354 99.5494214,32.4091546 99.5494214,32.1884065 C99.5494214,31.2645327 98.7100298,30.6268153 97.8760912,30.6268153 C97.3174047,30.6268153 96.7587237,30.9047944 96.4507647,31.6024688 L91.2318307,43.6591546 C91.1200967,43.9071567 91.0655888,44.2723451 91.0655888,44.5503248 C91.0655888,45.6377157 91.7632633,46.2509062 92.877907,46.2509062 L97.260173,46.2509062 L97.260173,48.624634 C97.260173,49.7120255 98.069587,50.2434569 98.8762716,50.2434569 C99.6884093,50.2434569 100.497818,49.7120255 100.497818,48.624634 L100.497818,46.2509062 L101.111012,46.2509062 Z M43.4029786,36.0964727 C43.4029786,34.7856084 42.3728205,33.8344822 41.0592279,33.8344822 L40.808506,33.8344822 C39.4949135,33.8344822 38.4647553,34.8128618 38.4647553,36.0964727 L38.4647553,44.7438201 C38.4647553,46.0574104 39.5276149,47.0330646 40.808506,47.0330646 L41.0592279,47.0330646 C42.3728205,47.0330646 43.4029786,46.0574104 43.4029786,44.7710735 L43.4029786,36.0964727 Z" id="Combined-Shape"></path>
        </g>
    </g>
</svg>