<?xml version="1.0" encoding="UTF-8"?>
<svg width="160px" height="72px" viewBox="0 0 160 72" version="1.1" xmlns="http://www.w3.org/2000/svg" xmlns:xlink="http://www.w3.org/1999/xlink">
    <!-- Generator: Sketch 49.2 (51160) - http://www.bohemiancoding.com/sketch -->
    <title>customer/seek</title>
    <desc>Created with Sketch.</desc>
    <defs></defs>
    <g id="customer/seek" stroke="none" stroke-width="1" fill="none" fill-rule="evenodd">
        <g id="seek" transform="translate(10.000000, 8.000000)" fill="#000000">
            <path d="M46.4184,30.2372 C44.702,29.5218 44.7202,26.7848 46.4254,26.061 C47.8702,25.2336 49.8778,26.4908 49.8092,28.1456 C49.91,29.8004 47.8604,31.1038 46.4184,30.2372 L46.4184,30.2372 Z M43.442,23.0482 C42.9702,24.6456 40.5342,24.976 39.6634,23.5648 C38.822,22.4924 39.4016,20.7396 40.6798,20.3266 C42.2912,19.6868 44.1056,21.4144 43.442,23.0482 L43.442,23.0482 Z M43.5652,28.1554 C43.624,29.9096 41.2636,30.9344 40.0078,29.7346 C38.7814,28.7588 39.1846,26.5846 40.6728,26.1114 C42.0294,25.5976 43.645,26.6798 43.5652,28.1554 Z M40.2444,35.6958 C38.8976,34.8936 39.0026,32.7544 40.3564,32.018 C41.7396,31.2816 43.6744,32.305 43.5512,33.943 C43.6198,35.5572 41.5436,36.6394 40.2444,35.6958 L40.2444,35.6958 Z M37.4878,16.674 C37.4458,18.1188 35.5642,18.9756 34.4316,18.0782 C33.3536,17.3278 33.4446,15.5638 34.5954,14.9282 C35.819,14.0644 37.6488,15.204 37.4878,16.674 Z M34.5814,20.7508 C35.805,19.887 37.6334,21.0252 37.4752,22.4952 C37.4304,23.9414 35.5502,24.7982 34.419,23.9008 C33.341,23.149 33.4306,21.385 34.5814,20.7508 Z M37.4808,28.2422 C37.4374,29.687 35.5558,30.5438 34.4232,29.6478 C33.3452,28.896 33.4362,27.132 34.587,26.4964 C35.8106,25.6326 37.6404,26.7722 37.4808,28.2422 Z M37.387,39.7908 C37.3436,41.2356 35.4634,42.091 34.3308,41.195 C33.2528,40.4446 33.3438,38.6792 34.4946,38.045 C35.7168,37.1812 37.5466,38.3208 37.387,39.7908 Z M34.4876,32.2154 C35.7112,31.3502 37.541,32.4898 37.3814,33.9598 C37.3366,35.4046 35.4578,36.2614 34.3252,35.3654 C33.2472,34.6136 33.3382,32.8496 34.4876,32.2154 Z M31.4888,23.0958 C31.017,24.1234 29.5176,24.3768 28.7322,23.5718 C27.8152,22.7402 28.196,21.0014 29.4126,20.6794 C30.7804,20.1586 32.2476,21.8176 31.4888,23.0958 Z M29.0164,41.1082 C27.8362,40.425 28.0434,38.437 29.3538,38.045 C30.352,37.6852 31.5966,38.374 31.6736,39.4632 C31.8906,40.8212 30.1378,41.986 29.0164,41.1082 L29.0164,41.1082 Z M29.0164,46.956 C27.8362,46.2742 28.0434,44.2848 29.3538,43.8914 C30.352,43.533 31.5966,44.2232 31.6736,45.311 C31.8906,46.669 30.1378,47.8352 29.0164,46.956 Z M29.1004,26.5734 C30.2036,25.9532 31.7646,26.8352 31.6736,28.1274 C31.71,29.4294 30.0286,30.3422 28.9842,29.5246 C27.909,28.8974 28.0112,27.1362 29.1004,26.5734 Z M29.0892,32.3708 C30.1168,31.808 31.591,32.4576 31.6666,33.6784 C31.899,35.0238 30.142,36.2068 29.0206,35.329 C27.902,34.7326 28,32.9406 29.0892,32.3708 Z M31.6554,16.8308 C31.5028,18.0544 29.9012,18.711 28.9366,17.941 C27.7816,17.2158 28.1092,15.204 29.4336,14.8848 C30.6026,14.4858 31.9242,15.61 31.6554,16.8308 Z M29.4518,9.0986 C30.7118,8.666 32.0516,10.0212 31.6078,11.2728 C31.2774,12.5832 29.3174,12.9024 28.5628,11.8034 C27.8432,10.906 28.3164,9.3744 29.4518,9.0986 Z M25.942,28.8246 C25.4814,29.8074 23.898,29.8326 23.3394,28.9324 C22.9278,28.2324 23.0846,27.1362 23.8868,26.7876 C25.0852,25.9448 26.7694,27.6262 25.942,28.8246 L25.942,28.8246 Z M26.1268,33.964 C26.1604,35.1414 24.6316,35.7644 23.7314,35.1232 C22.8816,34.559 22.9068,33.0414 23.8476,32.5808 C24.794,31.8948 26.2654,32.8384 26.1268,33.964 Z M21.448,28.1918 C21.462,29.2292 19.992,29.8354 19.2794,29.071 C18.5696,28.4858 18.8006,27.2076 19.6616,26.8954 C20.4932,26.5174 21.5894,27.2762 21.448,28.1918 Z M21.4228,33.9724 C21.4368,35.0098 19.9668,35.6146 19.2556,34.8488 C18.5444,34.2664 18.7768,32.9868 19.6364,32.676 C20.468,32.298 21.5642,33.0568 21.4228,33.9724 Z M19.2556,21.3794 C19.8184,20.7648 20.8712,20.965 21.259,21.6734 C21.8078,22.435 21.1316,23.6292 20.2132,23.6152 C19.0596,23.8 18.326,22.0976 19.2556,21.3794 L19.2556,21.3794 Z M15.9432,23.4472 C15.3246411,23.4472 14.8232,22.9457589 14.8232,22.3272 C14.8232,21.7086411 15.3246411,21.2072 15.9432,21.2072 C16.5617589,21.2072 17.0632,21.7086411 17.0632,22.3272 C17.0632,22.9457589 16.5617589,23.4472 15.9432,23.4472 Z M15.9432,29.239 C15.3242545,29.239 14.8225,28.7372455 14.8225,28.1183 C14.8225,27.4993545 15.3242545,26.9976 15.9432,26.9976 C16.5621455,26.9976 17.0638999,27.4993545 17.0638999,28.1183 C17.0638999,28.7372455 16.5621455,29.239 15.9432,29.239 L15.9432,29.239 Z M15.848,35.0364 C15.2294411,35.0364 14.728,34.5349589 14.728,33.9164 C14.728,33.2978411 15.2294411,32.7964 15.848,32.7964 C16.4665589,32.7964 16.968,33.2978411 16.968,33.9164 C16.968,34.5349589 16.4665589,35.0364 15.848,35.0364 L15.848,35.0364 Z M12.2892,34.8432 C11.7744327,34.8424271 11.3576854,34.4246357 11.3582005,33.9098681 C11.3587156,33.3951004 11.7762981,32.9781439 12.291066,32.9784012 C12.8058338,32.9786584 13.2229994,33.3960321 13.223,33.9108 C13.223,34.426 12.8058,34.8432 12.2892,34.8432 Z M12.2836,27.2034 C12.7989369,27.2034 13.2167,27.6211631 13.2167,28.1365 C13.2167,28.6518369 12.7989369,29.0696 12.2836,29.0696 C11.7682631,29.0696 11.3505,28.6518369 11.3505,28.1365 C11.3505,27.6211631 11.7682631,27.2034 12.2836,27.2034 L12.2836,27.2034 Z M12.2668,21.4396 C12.6001645,21.4396 12.9082061,21.6174478 13.0748884,21.90615 C13.2415706,22.1948521 13.2415706,22.5505479 13.0748884,22.83925 C12.9082061,23.1279522 12.6001645,23.3058 12.2668,23.3058 C11.7514631,23.3058 11.3337001,22.8880369 11.3337001,22.3727 C11.3337001,21.8573631 11.7514631,21.4396 12.2668,21.4396 L12.2668,21.4396 Z M8.7514,23.0384 C8.33889852,23.0380134 8.0048134,22.7033015 8.0052,22.2908 C8.0055866,21.8782985 8.34029852,21.5442134 8.7528,21.5446 C9.16530148,21.5449866 9.4993866,21.8796985 9.499,22.2922 C9.4986134,22.7047015 9.16390148,23.0387866 8.7514,23.0384 Z M8.7514,28.8204 C8.48443328,28.8200249 8.23794599,28.6772532 8.1047875,28.4458657 C7.97162902,28.2144782 7.97202927,27.9296281 8.1058375,27.6986157 C8.23964573,27.4676033 8.48653328,27.3255249 8.7535,27.3259 C9.16619477,27.3264799 9.50027988,27.6615052 9.49969998,28.0742 C9.49912009,28.4868948 9.16409477,28.8209799 8.7514,28.8204 L8.7514,28.8204 Z M8.7094,34.6976 C8.43748482,34.7059312 8.1825823,34.5656232 8.04416266,34.3314283 C7.90574301,34.0972333 7.90574301,33.8062667 8.04416266,33.5720717 C8.1825823,33.3378768 8.43748482,33.1975688 8.7094,33.2059 C9.11242811,33.2182484 9.43274792,33.5485328 9.43274792,33.95175 C9.43274792,34.3549672 9.11242811,34.6852516 8.7094,34.6976 L8.7094,34.6976 Z M23.8476,21.0084 C24.794,20.3224 26.2654,21.266 26.1268,22.3916 C26.1604,23.5676 24.6316,24.192 23.7314,23.5494 C22.8816,22.9866 22.9068,21.469 23.8476,21.0084 L23.8476,21.0084 Z M6.2972,28.4158 C5.9416,28.9744 5.0386,28.3458 5.4488,27.8236 C5.8044,27.265 6.7074,27.8894 6.2972,28.4158 Z M6.2958,34.195 C5.9402,34.7536 5.0358,34.1264 5.446,33.6028 C5.803,33.0442 6.706,33.6686 6.2958,34.195 Z M5.2934,22.029 C5.6504,21.469 6.5534,22.0934 6.1432,22.6198 C5.7876,23.1798 4.8832,22.5512 5.2934,22.029 L5.2934,22.029 Z M40.7484,3.577 C35.5754,0.7308 29.477,-0.2884 23.6404,0.5138 C14.7294,1.7332 6.6486,7.6244 2.7566,15.7374 C-0.1876,21.7602 -0.7966,28.8708 1.043,35.315 C2.4262,40.194 5.1856,44.6684 8.9348,48.0858 C13.9188,52.6624 20.6416,55.3378 27.4232,55.2972 C33.278,55.3784 39.1328,53.4828 43.848,50.0164 C48.7816,46.445 52.4482,41.1698 54.1072,35.3108 C56.0602,28.483 55.2496,20.9034 51.8308,14.6706 C49.3192,9.9988 45.4132,6.0998 40.7484,3.577 L40.7484,3.577 Z M132.3406,25.4884 C134.7122,22.8018 137.0936,20.1306 139.475,17.4552 C137.4562,17.4692 135.4374,17.4664 133.4158,17.458 C131.2164,20.1698 128.9946,22.8634 126.8092,25.585 C126.8274,20.4498 126.798,15.3104 126.8232,10.1738 L121.8546,10.1738 C121.8798,19.2332 121.8686,28.2982 121.8574,37.3576 C123.5136,37.3618 125.1684,37.3576 126.8232,37.3646 C126.805,35.4046 126.8204,33.446 126.812,31.4804 C127.5134,30.6894 128.2064,29.8886 128.9036,29.0892 C130.5514,31.8332 132.1586,34.6038 133.7924,37.3548 C135.863,37.3646 137.9322,37.3618 140,37.3576 C137.4226,33.4166 134.9026,29.4378 132.3406,25.4884 L132.3406,25.4884 Z M77.5054,26.3774 C75.3676,24.976 72.6964,25.2784 70.2856,24.8598 C69.538,24.7688 68.6994,24.2802 68.6896,23.4374 C68.5328,22.4308 69.4442,21.6468 70.3444,21.455 C72.3436,21.1134 74.4968,21.4592 76.181,22.631 C77.2044,21.5852 78.2432,20.5576 79.2554,19.5062 C77.8288,18.3764 76.1236,17.5966 74.3008,17.4006 C71.5316,16.9904 68.4236,17.1318 66.1234,18.9098 C63.4872,20.8516 63.0364,25.2476 65.3898,27.5716 C67.6396,29.54 70.8302,29.0374 73.5574,29.5974 C74.3806,29.743 75.0456,30.5228 74.9294,31.3796 C74.9042,32.3232 73.9704,32.9084 73.1472,33.1184 C70.7028,33.7218 67.9854,33.1478 66.0646,31.4958 C64.9886219,32.594415 63.9031142,33.6836561 62.8082,34.7634 C64.456,36.288 66.5616,37.3254 68.8226,37.471 C71.7962,37.6852 75.11,37.7356 77.5936,35.819 C80.5546,33.6406 80.6568,28.4284 77.5054,26.3774 L77.5054,26.3774 Z M86.9148,17.843 C83.7424,19.0204 81.9994,22.3762 81.7166,25.5976 C81.452,28.6888 81.6956,32.1118 83.664,34.6612 C85.463,36.988 88.5808,37.7132 91.3906,37.6054 C94.0814,37.6236 96.6042,36.3846 98.4578,34.4792 C97.4526,33.488 96.4334,32.5122 95.4282,31.521 C93.6376,33.397 90.5338,34.0466 88.2854,32.6382 C87.024,31.8626 86.6502,30.3534 86.443,28.9884 C90.6318,28.952 94.8248,28.9842 99.0136,28.973 C99.1312,25.9056 98.945,22.526 96.8646,20.076 C94.5336,17.1822 90.258,16.6166 86.9148,17.843 L86.9148,17.843 Z M106.4812,17.8542 C103.3438,19.0456 101.6134,22.3706 101.3264,25.5682 C101.0576,28.6706 101.29,32.1076 103.2724,34.6612 C105.0728,36.988 108.1836,37.7132 110.992,37.6054 C113.687,37.6264 116.1986,36.3776 118.0718,34.4946 C117.0624,33.488 116.032,32.5122 115.0296,31.5028 C113.2614,33.4166 110.1324,34.0396 107.8868,32.6368 C106.6338,31.8626 106.2656,30.345 106.057,28.9884 C110.2486,28.9562 114.4374,28.9758 118.6304,28.98 C118.7228,25.9994 118.587,22.7318 116.6452,20.2944 C114.3618,17.2116 109.9112,16.576 106.4812,17.8542 L106.4812,17.8542 Z M106.071,25.5164 C106.2698,24.5658 106.3972,23.5452 107.0006,22.7472 C108.3278,20.9286 111.4288,20.888 112.7896,22.6926 C113.442,23.4836 113.5694,24.5406 113.7668,25.5108 C111.2006,25.5528 108.6344,25.5346 106.071,25.5164 L106.071,25.5164 Z M86.4472,25.5164 C86.6754,24.4818 86.835,23.3618 87.5546,22.5302 C88.97,20.9076 91.8694,20.9804 93.1812,22.6968 C93.8294,23.4878 93.954,24.5434 94.157,25.5108 C91.5866,25.55 89.0162,25.5416 86.4472,25.5164 L86.4472,25.5164 Z" id="Shape"></path>
        </g>
    </g>
</svg>