<?xml version="1.0" encoding="UTF-8"?>
<svg width="160px" height="72px" viewBox="0 0 160 72" version="1.1" xmlns="http://www.w3.org/2000/svg" xmlns:xlink="http://www.w3.org/1999/xlink">
    <!-- Generator: Sketch 51 (57462) - http://www.bohemiancoding.com/sketch -->
    <title>customer/spotify</title>
    <desc>Created with Sketch.</desc>
    <defs></defs>
    <g id="customer/spotify" stroke="none" stroke-width="1" fill="none" fill-rule="evenodd">
        <g id="spotify" transform="translate(0.000000, 12.000000)" fill="#000000" fill-rule="nonzero">
            <path d="M24.0417889,0.0792844365 C10.8041503,0.0792844365 0.0724150268,10.8107335 0.0724150268,24.0483721 C0.0724150268,37.2865832 10.8041503,48.0171735 24.0417889,48.0171735 C37.2808587,48.0171735 48.011449,37.2865832 48.011449,24.0483721 C48.011449,10.8115921 37.2808587,0.0804293381 24.0415027,0.0804293381 L24.0417889,0.0792844365 Z M35.0339893,34.6495886 C34.6046512,35.353703 33.6830054,35.5769589 32.9788909,35.1447585 C27.351127,31.7071914 20.2664758,30.9286583 11.9230054,32.8349195 C11.1189982,33.0181038 10.3175671,32.514347 10.1343828,31.7100537 C9.95033989,30.9057603 10.452093,30.1043292 11.2581038,29.9211449 C20.3886941,27.8351342 28.2206798,28.7333095 34.5388193,32.5944902 C35.2429338,33.0266905 35.4661896,33.9454741 35.0339893,34.6495886 Z M37.9677996,28.1230769 C37.4268336,29.0023614 36.2762075,29.28 35.3974955,28.739034 C28.9545617,24.7788193 19.1333095,23.6319141 11.5125581,25.9451878 C10.5242218,26.2437209 9.48035778,25.6867263 9.18039356,24.7001073 C8.88271914,23.711771 9.44,22.6699106 10.426619,22.3693739 C19.1315921,19.7280859 29.9534884,21.0075134 37.352415,25.5542039 C38.231127,26.0951699 38.5087657,27.2457961 37.9677996,28.1233631 L37.9677996,28.1230769 Z M38.219678,21.326941 C30.4944544,16.7384615 17.7488372,16.3165653 10.3730948,18.5551342 C9.1886941,18.914347 7.93617174,18.2457245 7.57724508,17.0613238 C7.21831843,15.8763506 7.88636852,14.6246869 9.07162791,14.2646154 C17.5384615,11.6943113 31.6135957,12.1909123 40.5077639,17.4709123 C41.5753846,18.1031843 41.9245796,19.4790698 41.2920215,20.5429696 C40.6623256,21.6083005 39.2827191,21.9594991 38.2208229,21.326941 L38.219678,21.326941 Z M65.2851521,22.2062254 C61.1463327,21.2193202 60.4107335,20.5266547 60.4107335,19.0711986 C60.4107335,17.6961717 61.7044723,16.770805 63.6307692,16.770805 C65.4969589,16.770805 67.345975,17.4734884 69.2865832,18.9200716 C69.3438283,18.963864 69.4182469,18.9813238 69.4898032,18.9698748 C69.5642218,18.9589982 69.6271914,18.9192129 69.6701252,18.8593918 L71.6908766,16.0108766 C71.7738819,15.8935242 71.7509839,15.7318068 71.639356,15.6422182 C69.329517,13.7894812 66.7305903,12.8887299 63.6908766,12.8887299 C59.222898,12.8887299 56.1001789,15.5703757 56.1001789,19.4072272 C56.1001789,23.5217174 58.7935599,24.9786047 63.447585,26.1031843 C67.4060823,27.0153846 68.0758497,27.7796064 68.0758497,29.1454741 C68.0758497,30.6596064 66.7248658,31.601288 64.5495528,31.601288 C62.1338104,31.601288 60.1617174,30.7855456 57.9577818,28.8792844 C57.9033989,28.8306261 57.8289803,28.8105903 57.7602862,28.8134526 C57.6858676,28.8191771 57.6200358,28.8535242 57.5742397,28.907907 L55.3073345,31.6041503 C55.2128801,31.7186404 55.2243292,31.8846512 55.3330948,31.9819678 C57.8976744,34.271771 61.0518784,35.4796422 64.4579606,35.4796422 C69.2722719,35.4796422 72.383542,32.8492308 72.383542,28.7762433 C72.3921288,25.3395349 70.3341682,23.436136 65.2937388,22.2099463 L65.2851521,22.2062254 Z M83.2772809,18.1246512 C81.1906977,18.1246512 79.4790698,18.9466905 78.0651163,20.631127 L78.0651163,18.7351699 C78.0651163,18.5854741 77.9449016,18.463542 77.7960644,18.463542 L74.0894454,18.463542 C73.9406082,18.463542 73.8203936,18.5854741 73.8203936,18.7351699 L73.8203936,39.8016458 C73.8203936,39.950483 73.9406082,40.0735599 74.0894454,40.0735599 L77.7960644,40.0735599 C77.9449016,40.0735599 78.0651163,39.950483 78.0651163,39.8016458 L78.0651163,33.1526297 C79.4790698,34.7354562 81.1906977,35.511127 83.2772809,35.511127 C87.1556351,35.511127 91.0826476,32.5257961 91.0826476,26.8187478 C91.0883721,21.1105546 87.1613596,18.1243649 83.2801431,18.1243649 L83.2772809,18.1246512 Z M86.772093,26.8187478 C86.772093,29.7236494 84.9831843,31.7529875 82.4186047,31.7529875 C79.8855098,31.7529875 77.9735242,29.6320572 77.9735242,26.8187478 C77.9735242,24.0051521 79.8855098,21.8847943 82.4186047,21.8847943 C84.9402504,21.8845081 86.772093,23.9590698 86.772093,26.8184615 L86.772093,26.8187478 Z M101.14347,18.1246512 C96.1488372,18.1246512 92.236136,21.9703757 92.236136,26.8808587 C92.236136,31.7386762 96.1230769,35.5426118 101.083363,35.5426118 C106.09517,35.5426118 110.01932,31.7100537 110.01932,26.8187478 C110.01932,21.9440429 106.12093,18.1252236 101.14347,18.1252236 L101.14347,18.1246512 Z M101.14347,31.78161 C98.4872987,31.78161 96.4837209,29.6463685 96.4837209,26.8173166 C96.4837209,23.9753846 98.4186047,21.9131306 101.083363,21.9131306 C103.756708,21.9131306 105.771735,24.0475134 105.771735,26.8794275 C105.771735,29.7207871 103.825403,31.78161 101.14347,31.78161 Z M120.684079,18.463542 L116.605367,18.463542 L116.605367,14.2943828 C116.605367,14.1449732 116.485152,14.0230411 116.336315,14.0230411 L112.629696,14.0230411 C112.480859,14.0230411 112.357782,14.1449732 112.357782,14.2943828 L112.357782,18.463542 L110.57746,18.463542 C110.428623,18.463542 110.308408,18.5854741 110.308408,18.7351699 L110.308408,21.92 C110.308408,22.0694097 110.428623,22.1916279 110.57746,22.1916279 L112.357782,22.1916279 L112.357782,30.4334884 C112.357782,33.7622898 114.015027,35.4510197 117.286583,35.4510197 C118.614669,35.4510197 119.716637,35.1762433 120.755635,34.586619 C120.841503,34.5408229 120.893023,34.4492308 120.893023,34.3519141 L120.893023,31.3179249 C120.893023,31.2263327 120.844365,31.1376029 120.764222,31.0889445 C120.684079,31.037424 120.5839,31.0345617 120.500894,31.0774955 C119.788193,31.4352773 119.09839,31.601288 118.325581,31.601288 C117.137746,31.601288 116.605367,31.060322 116.605367,29.8524508 L116.605367,22.193059 L120.684079,22.193059 C120.832916,22.193059 120.953131,22.071127 120.953131,21.9214311 L120.953131,18.7368873 C120.958855,18.5871914 120.83864,18.4652594 120.686941,18.4652594 L120.684079,18.463542 Z M134.892308,18.4798569 L134.892308,17.9677996 C134.892308,16.4613953 135.470483,15.7896243 136.764222,15.7896243 C137.53703,15.7896243 138.15814,15.9430411 138.853667,16.1748837 C138.939535,16.2017889 139.028265,16.1883363 139.096959,16.137102 C139.168515,16.0858676 139.208587,16.0037209 139.208587,15.9167084 L139.208587,12.7939893 C139.208587,12.6746333 139.134168,12.5690161 139.016816,12.5338104 C138.284079,12.3154204 137.345259,12.0913059 135.93703,12.0913059 C132.516637,12.0913059 130.70483,14.0187478 130.70483,17.6632558 L130.70483,18.4475134 L128.924508,18.4475134 C128.775671,18.4475134 128.652594,18.5694454 128.652594,18.7188551 L128.652594,21.92 C128.652594,22.0694097 128.775671,22.1916279 128.924508,22.1916279 L130.70483,22.1916279 L130.70483,34.9014669 C130.70483,35.0531664 130.827907,35.173381 130.976744,35.173381 L134.680501,35.173381 C134.8322,35.173381 134.952415,35.0531664 134.952415,34.9014669 L134.952415,22.1924866 L138.41288,22.1924866 L143.713775,34.9014669 C143.112701,36.2352773 142.520215,36.5014669 141.713059,36.5014669 C141.060465,36.5014669 140.370662,36.3068336 139.66941,35.9204293 C139.603578,35.8860823 139.523435,35.8803578 139.454741,35.9003936 C139.383184,35.9261538 139.323077,35.9776744 139.294454,36.0463685 L138.037925,38.8027191 C137.977818,38.9343828 138.029338,39.0860823 138.155277,39.1547764 C139.46619,39.8646154 140.648301,40.1680143 142.110912,40.1680143 C144.847227,40.1680143 146.36136,38.891449 147.692308,35.4624687 L154.12093,18.850805 C154.155277,18.7672272 154.143828,18.6727728 154.092308,18.5986404 C154.043649,18.5250805 153.960644,18.4807156 153.871914,18.4807156 L150.013596,18.4807156 C149.896243,18.4807156 149.793202,18.5542755 149.755993,18.6627549 L145.80322,29.9497674 L141.475492,18.6553131 C141.43542,18.5502683 141.335242,18.4807156 141.223614,18.4807156 L134.892308,18.4807156 L134.892308,18.4798569 Z M126.654741,18.463542 L122.948122,18.463542 C122.799284,18.463542 122.676208,18.5854741 122.676208,18.7351699 L122.676208,34.9014669 C122.676208,35.0531664 122.799284,35.173381 122.948122,35.173381 L126.654741,35.173381 C126.803578,35.173381 126.926655,35.0531664 126.926655,34.9014669 L126.926655,18.7363148 C126.926655,18.586619 126.80644,18.4646869 126.654741,18.4646869 L126.654741,18.463542 Z M124.822898,11.1021109 C123.354562,11.1021109 122.163864,12.2905188 122.163864,13.7585689 C122.163864,15.2274776 123.354562,16.4173166 124.822898,16.4173166 C126.291234,16.4173166 127.47907,15.2274776 127.47907,13.7585689 C127.47907,12.290805 126.288372,11.1021109 124.822898,11.1021109 Z M157.286583,23.6616816 C155.821109,23.6616816 154.67907,22.483864 154.67907,21.0535957 C154.67907,19.6233274 155.83542,18.4320572 157.300894,18.4320572 C158.766369,18.4320572 159.908408,19.6095886 159.908408,21.038712 C159.908408,22.4689803 158.752057,23.6616816 157.286583,23.6616816 Z M157.300894,18.6913775 C155.964222,18.6913775 154.953846,19.7532737 154.953846,21.0535957 C154.953846,22.3533453 155.958497,23.4009302 157.286583,23.4009302 C158.623256,23.4009302 159.633631,22.3398927 159.633631,21.038712 C159.633631,19.7389624 158.62898,18.6913775 157.300894,18.6913775 Z M157.87907,21.3069052 L158.617531,22.3396064 L157.99356,22.3396064 L157.329517,21.3922004 L156.759928,21.3922004 L156.759928,22.3396064 L156.238998,22.3396064 L156.238998,19.6021467 L157.458318,19.6021467 C158.096601,19.6021467 158.51449,19.927585 158.51449,20.4754204 C158.517352,20.9242218 158.256887,21.1984258 157.881932,21.3069052 L157.87907,21.3069052 Z M157.438283,20.0718426 L156.759928,20.0718426 L156.759928,20.9376744 L157.438283,20.9376744 C157.776029,20.9376744 157.979249,20.7719499 157.979249,20.5043292 C157.979249,20.2226834 157.776029,20.0718426 157.438283,20.0718426 Z" id="Shape"></path>
        </g>
    </g>
</svg>