<?xml version="1.0" encoding="UTF-8"?>
<svg width="160px" height="72px" viewBox="0 0 160 72" version="1.1" xmlns="http://www.w3.org/2000/svg" xmlns:xlink="http://www.w3.org/1999/xlink">
    <!-- Generator: Sketch 49.2 (51160) - http://www.bohemiancoding.com/sketch -->
    <title>customer/uc-san-diego</title>
    <desc>Created with Sketch.</desc>
    <defs></defs>
    <g id="customer/uc-san-diego" stroke="none" stroke-width="1" fill="none" fill-rule="evenodd">
        <g id="uc-san-diego" transform="translate(0.000000, 21.000000)" fill="#000000">
            <path d="M19.1296,15.4359333 C19.1296,20.1874296 18.4376,23.7944519 11.256,23.7944519 C4.1112,23.7944519 3.004,20.3272741 3.004,15.4359333 L3.004,3.8851037 C3.004,1.28190741 1.9,1.03999259 0,1.03999259 L0,0.3472 L9.08,0.3472 L9.08,1.03999259 C7.216,1.03999259 6.076,1.28190741 6.076,3.8851037 L6.076,15.4359333 C6.076,18.9730333 6.9056,22.4402111 11.3936,22.4402111 C16.3696,22.4402111 17.1592,19.5621481 17.1592,15.4359333 L17.1592,3.8851037 C17.1592,1.28190741 16.0224,1.03999259 14.1576,1.03999259 L14.1576,0.3472 L22.1336,0.3472 L22.1336,1.03999259 C20.2344,1.03999259 19.1296,1.28190741 19.1296,3.8851037 L19.1296,15.4359333 L19.1296,15.4359333 Z M38.2232,22.8573333 C36.5296,23.4850259 34.5992,23.7944519 32.0424,23.7944519 C25.1384,23.7944519 21.8232,18.5229593 21.8232,11.1353148 C21.8232,4.71693704 23.8912,3.15544362e-30 31.2824,3.15544362e-30 C34.0448,3.15544362e-30 36.3912,0.554555556 37.9144,0.969266667 L38.2232,6.41677037 L37.36,6.41677037 C36.9088,4.47421852 35.5312,1.35343704 31.248,1.35343704 C25.692,1.35343704 25.24,7.28396667 25.24,10.8556259 C25.24,15.3314519 26.208,22.2336593 33.7688,22.2336593 C36.0824,22.2336593 37.3256,21.713663 38.2224,21.3656593 L38.2224,22.8573333 L38.2232,22.8573333 Z M56.7688,5.34141481 C56.4568,3.50414815 55.072,1.35343704 51.38,1.35343704 C49.0648,1.35343704 47.0288,2.8435037 47.0288,5.13405926 C47.0288,8.22028148 51.1392,9.22732222 54.1432,10.9946667 C56.8728,12.5916259 58.6976,14.0109667 58.6976,17.3093667 C58.6976,21.713663 54.8976,23.7952556 50.1712,23.7952556 C47.824,23.7952556 45.0976,23.2744556 44.2344,23.1346111 L43.9912,18.2440741 L44.8552,18.2440741 C45.1304,20.0829481 46.7536,22.2336593 50.4488,22.2336593 C53.4872,22.2336593 55.4536,20.2565481 55.4536,17.8631185 C55.4536,14.1178593 49.7224,12.9741889 46.5104,10.5084259 C44.9936,9.32939259 44.2688,8.08124074 44.2688,5.86060741 C44.2688,1.69983333 47.6888,-1.42108547e-14 52.0336,-1.42108547e-14 C54.3512,-1.42108547e-14 55.8336,0.277277778 57.3896,0.588311111 L57.6304,5.34141481 L56.7688,5.34141481 L56.7688,5.34141481 Z M68.264,16.5964815 C66.8208,16.6286296 62.888,16.9067111 62.888,19.7759333 C62.888,21.382537 63.9344,22.4619111 64.9808,22.4619111 C66.9768,22.4619111 68.264,20.5161444 68.264,18.4184778 L68.264,16.5964815 Z M72.8104,23.4777926 C72.4416,23.5710222 71.6736,23.7550704 70.5704,23.7550704 C68.7864,23.7550704 68.264,22.8308111 68.264,21.5047 L68.2,21.5047 C67.2552,22.8918926 65.9312,23.7550704 63.84,23.7550704 C61.72,23.7550704 60.156,22.2746481 60.156,20.2686037 C60.156,15.7951889 65.9312,15.7951889 68.264,15.5765815 L68.264,14.4071926 C68.264,12.2452296 68.2312,9.96351481 65.6536,9.96351481 C63.7496,9.96351481 63.5048,10.7656111 63.5048,11.7541667 C63.5048,13.02 62.5848,13.359163 62.0592,13.359163 C61.2304,13.359163 60.588,12.8021963 60.588,11.9687556 C60.588,9.96351481 63.5648,8.94682963 65.6856,8.94682963 C69.8936,8.94682963 70.66,10.9810037 70.66,13.8502259 L70.66,21.5038963 C70.66,22.5840741 71.0264,22.9529741 71.9816,22.9529741 C72.2568,22.9529741 72.5352,22.8918926 72.8104,22.8308111 L72.8104,23.4777926 L72.8104,23.4777926 Z M73.488,22.9224333 C74.7744,22.9224333 75.8176,22.6483704 75.8176,20.6407185 L75.8176,12.2162963 C75.8176,10.364563 74.3752,10.2713333 73.4872,10.2110556 L73.4872,9.68623704 L78.2144,8.94682963 L78.2144,13.02 L78.2792,13.02 C78.7064,11.8763296 80.0872,8.94602593 83.1272,8.94602593 C86.3864,8.94602593 86.6936,10.7342667 86.6936,13.6050963 L86.6936,20.6407185 C86.6936,22.6483704 87.736,22.923237 89.0248,22.923237 L89.0248,23.4488593 L81.9608,23.4488593 L81.9608,22.9224333 C83.2488,22.9224333 84.2968,22.6483704 84.2968,20.6407185 L84.2968,14.2834222 C84.2968,11.6287889 84.268,10.4256444 82.2376,10.4256444 C80.4272,10.4256444 78.2136,13.9113074 78.2136,16.8440222 L78.2136,20.6407185 C78.2136,22.6483704 79.2552,22.923237 80.5496,22.923237 L80.5496,23.4488593 L73.4872,23.4488593 L73.4872,22.9224333 L73.488,22.9224333 Z M98.6168,19.1819963 C98.6168,21.713663 98.8952,22.0962259 100.6224,22.0962259 C106.56,22.0962259 109.0112,18.9039148 109.0112,11.9317852 C109.0112,5.54796667 107.1808,1.69983333 100.6224,1.69983333 C98.8944,1.69983333 98.6168,1.9087963 98.6168,4.61406296 L98.6168,19.1819963 L98.6168,19.1819963 Z M92.5408,22.7528519 C94.4072,22.7528519 95.5472,22.5093296 95.5472,19.9093481 L95.5472,3.8851037 C95.5472,1.28190741 94.4072,1.03999259 92.5408,1.03999259 L92.5408,0.3472 L100.6224,0.3472 C106.352,0.3472 112.428,1.59615556 112.428,11.9317852 C112.428,22.2336593 106.0424,23.4488593 100.6224,23.4488593 L92.5408,23.4488593 L92.5408,22.7528519 L92.5408,22.7528519 Z M115.3752,4.34803704 C115.3752,3.35948148 116.1432,2.58872963 117.1248,2.58872963 C117.590597,2.58305667 118.038944,2.76655737 118.368186,3.09762612 C118.697428,3.42869487 118.879673,3.87928513 118.8736,4.34723333 C118.879673,4.81518154 118.697428,5.2657718 118.368186,5.59684054 C118.038944,5.92790929 117.590597,6.11140999 117.1248,6.10573704 C116.658997,6.11118281 116.210701,5.92763543 115.881382,5.59664039 C115.552063,5.26564534 115.369566,4.81518983 115.3752,4.34723333 L115.3752,4.34803704 Z M113.6824,22.9224333 C114.9752,22.9224333 116.0216,22.6483704 116.0216,20.6407185 L116.0216,12.2162963 C116.0216,10.364563 114.6096,10.2713333 113.6824,10.2110556 L113.6824,9.68623704 L118.4184,8.94682963 L118.4184,20.6407185 C118.4184,22.6483704 119.4584,22.923237 120.748,22.923237 L120.748,23.4488593 L113.6824,23.4488593 L113.6824,22.9224333 Z M129.5336,13.7272593 C129.5336,12.0941333 128.9776,9.96351481 126.616,9.96351481 C124.2816,9.96351481 123.3312,12.5851963 123.3312,13.7272593 L129.5336,13.7272593 L129.5336,13.7272593 Z M131.868,23.1989074 C131.1304,23.4777926 130.0872,23.7550704 128.212,23.7550704 C123.452,23.7550704 120.7816,21.1325852 120.7816,15.9511074 C120.7816,11.4447407 122.5928,8.94602593 127.0136,8.94602593 C129.776,8.94602593 132.2672,10.4883333 132.2672,14.0672259 L132.2672,14.7455519 L123.3312,14.7455519 C123.3312,17.3366926 124.5848,22.6146148 129.72,22.6146148 C130.4232,22.6146148 131.252,22.5213852 131.868,22.212763 L131.868,23.1989074 L131.868,23.1989074 Z M139.6064,17.802037 C142.188,17.802037 142.5264,15.7662556 142.5264,14.1283074 C142.5264,11.8152481 141.728,9.96351481 139.5144,9.96351481 C137.0848,9.96351481 136.6296,11.7541667 136.6296,13.5440148 C136.6296,15.8884185 137.396,17.802037 139.6064,17.802037 L139.6064,17.802037 Z M136.936,23.1699741 C136.32,23.6321037 135.4624,24.1561185 135.4624,25.5449185 C135.4624,27.3661111 137.0848,28.939763 139.7584,28.939763 C142.5544,28.939763 145.136,27.4914889 145.136,25.2684444 C145.136,23.6939889 143.848,23.1699741 142.3096,23.1699741 L136.936,23.1699741 L136.936,23.1699741 Z M142.2504,20.9798815 C143.7216,20.9798815 147.1328,21.0417667 147.1328,24.4663481 C147.1328,27.9841593 143.6912,29.9572519 139.6064,29.9572519 C136.5984,29.9572519 133.4648,28.8151889 133.4648,26.0391963 C133.4648,24.1263815 134.8784,23.2929407 135.8616,22.7978593 C135.3392,22.4908444 134.54,21.9057481 134.54,20.6093741 C134.54,19.4665074 135.5232,18.2947074 135.8616,17.9225926 C135.1544,17.3366926 134.08,16.4124333 134.08,13.7891444 C134.08,9.81081111 136.964,8.94602593 139.88,8.94602593 C141.296,8.94602593 142.064,9.19195926 143.0488,9.71517037 C143.5392,8.54497778 144.2728,6.41435926 146.1472,6.41435926 C147.0112,6.41435926 147.624,6.96971852 147.624,7.89397778 C147.624,8.72982963 147.1008,9.28438519 146.1808,9.28438519 C145.3824,9.28438519 145.1968,8.85199259 144.7976,8.85199259 C144.124,8.85199259 143.8472,9.74892593 143.6912,10.2399889 C144.06,10.641037 145.0712,11.7831 145.0712,13.945063 C145.0712,17.0594148 143.1384,18.8195259 139.4552,18.8195259 C138.2264,18.8195259 137.3328,18.6636074 136.66,18.3557889 C136.4736,18.6025259 136.1088,19.0646556 136.1088,19.7445889 C136.1088,20.9798815 137.6408,20.9798815 138.6256,20.9798815 L142.2504,20.9798815 Z M147.1624,16.3513519 C147.1624,11.7204111 149.6504,8.94602593 153.5784,8.94602593 C157.5144,8.94602593 160,11.7204111 160,16.3513519 C160,20.9798815 157.5152,23.7550704 153.5784,23.7550704 C149.6504,23.7550704 147.1624,20.9798815 147.1624,16.3513519 Z M153.5784,22.7367778 C156.6504,22.7367778 157.2672,18.9119519 157.2672,16.3513519 C157.2672,13.7891444 156.6512,9.96351481 153.5792,9.96351481 C150.5096,9.96351481 149.896,13.7891444 149.896,16.3513519 C149.896,18.9119519 150.5096,22.7367778 153.5784,22.7367778 Z M131.8984,28.7677704 C132.116851,29.0547471 132.36549,29.3172024 132.64,29.5505778 L0,29.5505778 L0,28.7677704 L131.8984,28.7677704 Z M159.7544,28.7677704 L159.7544,29.5505778 L146.7072,29.5505778 C147.0416,29.3094667 147.348,29.0490667 147.624,28.7677704 L159.7544,28.7677704 Z" id="Combined-Shape"></path>
        </g>
    </g>
</svg>