<?xml version="1.0" encoding="UTF-8"?>
<svg width="160px" height="72px" viewBox="0 0 160 72" version="1.1" xmlns="http://www.w3.org/2000/svg" xmlns:xlink="http://www.w3.org/1999/xlink">
    <!-- Generator: Sketch 49.2 (51160) - http://www.bohemiancoding.com/sketch -->
    <title>customer/uniqa</title>
    <desc>Created with Sketch.</desc>
    <defs>
        <polygon id="path-1" points="0.435026818 0.0251681546 40.1891256 0.0251681546 40.1891256 28.8587151 0.435026818 28.8587151"></polygon>
    </defs>
    <g id="customer/uniqa" stroke="none" stroke-width="1" fill="none" fill-rule="evenodd">
        <g id="uniqa" transform="translate(0.000000, 21.000000)">
            <path d="M17.5282671,28.5748441 L0,28.5748441 L1.82868045,25.2850067 L12.1428299,25.2850067 C12.3769793,25.4881497 12.6164706,25.6841017 12.862194,25.8755595 C14.2492846,26.952397 15.8242289,27.9222698 17.5282671,28.5748441" id="Fill-1" fill="#000000"></path>
            <g id="Group-5" transform="translate(7.122417, 0.000000)">
                <mask id="mask-2" fill="white">
                    <use xlink:href="#path-1"></use>
                </mask>
                <g id="Clip-3"></g>
                <path d="M14.0169157,24.7582732 C11.8214308,23.1448147 10.3016852,21.3524826 9.17812401,19.6257674 C7.91834658,17.6905161 5.16019078,12.9831723 7.15713831,8.05740492 C7.98244833,6.93921976 9.08108108,6.00889691 9.88858506,5.41025437 C11.2347218,4.41341568 12.1953577,3.95319799 13.8210493,3.50556439 C12.3751987,4.29296808 10.2607313,6.6398985 10.4806359,11.1548857 C10.583911,13.273505 11.5810493,15.7588602 12.5817488,17.2950165 C15.1271224,21.2077657 18.3259777,22.8796502 21.6200954,23.7362664 C23.1620986,24.1389568 25.5392051,24.3349089 28.6054054,24.5011985 C31.0893482,24.635129 36.1747536,24.6665892 37.063275,24.6629938 L38.0096661,24.6683869 L40.1891256,28.857087 C40.1891256,28.857087 32.7978378,28.8858506 29.3630525,28.7015837 C23.7977742,28.404959 18.6179968,28.1406934 14.0169157,24.7582732" id="Fill-2" fill="#000000" mask="url(#mask-2)"></path>
                <path d="M18.223593,28.1424911 C17.018124,28.4427113 15.833132,28.5802373 14.7460731,28.5766418 C11.6220032,28.5712486 8.67955485,27.0917207 6.25081081,25.2041091 C3.33596184,22.9407729 1.205469,19.7893604 0.665945946,16.3593005 C0.587599364,15.9611043 0.551096979,15.5557173 0.494117647,14.9885349 C0.277774245,12.6398068 0.610747218,9.68704293 2.24356121,6.86101871 C3.65468998,4.41970772 5.75936407,2.30288614 9.22531002,0.838638865 C10.6711606,0.227412254 13.7774245,-0.459318821 17.3724642,0.505160817 C21.1509062,1.55593127 24.4530366,3.92443439 26.576407,7.03000489 C26.576407,7.03000489 23.3187917,2.75591293 17.7446105,2.26423505 C17.4917647,2.24266235 17.2398092,2.22917941 16.9878537,2.22648282 C14.2323688,2.17075333 11.5970747,3.12804207 9.40158983,4.72082671 C8.00203498,5.7248563 6.76985692,6.9913538 5.8172337,8.44841017 C5.60801272,8.76840528 3.55853736,11.7957747 3.50244833,16.1741348 C3.45437202,19.981717 5.14416534,22.7232481 5.77895072,23.6490767 C5.79408585,23.673346 7.3672496,24.7456891 9.74702703,25.2041091 C11.1225437,25.4692736 12.652973,25.4099486 13.3482989,25.3110737 C13.4052782,25.355118 13.4640382,25.3991623 13.5236884,25.4414088 C15.1520509,26.6386939 16.8462957,27.4611532 18.5886169,28.0373242 L18.223593,28.1424911" id="Fill-4" fill="#000000" mask="url(#mask-2)"></path>
            </g>
            <path d="M35.9717647,14.424948 C36.2281717,17.9251192 34.1048013,21.768656 32.8619396,23.4657087 C31.206868,23.332677 29.898124,23.1645897 28.9508426,22.9183013 C28.4736407,22.7933594 27.9991097,22.6513391 27.5299205,22.4877461 C28.978442,21.2437202 30.9344356,18.8958909 31.8834976,15.6671762 C33.258124,10.9975847 31.6680445,6.69383026 29.7414308,4.67678244 C34.4413355,7.72392687 35.8079491,11.5854409 35.9717647,14.424948" id="Fill-6" fill="#000000"></path>
            <path d="M52.2075676,5.30688517 L56.6074404,5.30688517 L56.6074404,18.4024153 C56.6074404,22.7268436 59.1679491,25.3200624 62.5288394,25.3200624 C65.9262321,25.3200624 68.4484579,22.7268436 68.4484579,18.4024153 L68.4484579,5.30688517 L72.849221,5.30688517 L72.849221,19.3444234 C72.849221,24.7933288 68.8010175,29.4512352 62.5288394,29.4512352 C56.2557711,29.4512352 52.2075676,24.7933288 52.2075676,19.3444234 L52.2075676,5.30688517" id="Fill-7" fill="#000000"></path>
            <polyline id="Fill-8" fill="#000000" points="97.2773291 28.9424789 97.2773291 5.30688517 92.923752 5.30688517 92.923752 20.0554237 80.1496979 5.30688517 77.7725914 5.30688517 77.7725914 28.9020301 82.1243879 28.9020301 82.1243879 14.2182096 94.8726232 28.9424789 97.2773291 28.9424789"></polyline>
            <polygon id="Fill-9" fill="#000000" points="102.484706 28.9020301 107.002989 28.9020301 107.002989 5.30688517 102.484706 5.30688517"></polygon>
            <path d="M123.42283,25.7200563 C118.918792,25.7200563 115.266773,21.8630366 115.266773,17.1053565 C115.266773,12.3458787 118.918792,8.48975786 123.42283,8.48975786 C127.928649,8.48975786 131.579777,12.3458787 131.579777,17.1053565 C131.579777,18.731399 131.152432,20.2513758 130.411701,21.5493335 L127.710525,18.823083 L124.846423,21.7138254 L127.606359,24.5020973 C126.382194,25.2742204 124.953259,25.7200563 123.42283,25.7200563 Z M135.982321,17.1053565 C135.982321,10.1697322 130.360954,4.54914394 123.42283,4.54914394 C116.487377,4.54914394 110.865119,10.1697322 110.865119,17.1053565 C110.865119,24.0391831 116.487377,29.6624679 123.42283,29.6624679 C126.062576,29.6624679 128.509126,28.8454017 130.531002,27.4566589 L132.579587,29.5249419 L135.443688,26.6333007 L133.471669,24.6387245 C135.048394,22.540779 135.982321,19.9331784 135.982321,17.1053565 Z" id="Fill-10" fill="#000000"></path>
            <path d="M144.263021,20.5785618 L147.774372,12.0923994 L151.176216,20.5785618 L144.263021,20.5785618 Z M154.512178,28.9020301 L159.334054,28.9020301 L149.376916,5.30688517 L146.347218,5.30688517 L136.130111,28.9020301 L140.819332,28.9020301 L142.657806,24.4589519 L152.732464,24.4589519 L154.512178,28.9020301 Z" id="Fill-11" fill="#000000"></path>
        </g>
    </g>
</svg>