<?xml version="1.0" encoding="UTF-8"?>
<svg width="160px" height="72px" viewBox="0 0 160 72" version="1.1" xmlns="http://www.w3.org/2000/svg" xmlns:xlink="http://www.w3.org/1999/xlink">
    <!-- Generator: Sketch 49.2 (51160) - http://www.bohemiancoding.com/sketch -->
    <title>customer/westpac</title>
    <desc>Created with Sketch.</desc>
    <defs></defs>
    <g id="customer/westpac" stroke="none" stroke-width="1" fill="none" fill-rule="evenodd">
        <g id="westpac" transform="translate(10.000000, 23.000000)" fill="#000000" fill-rule="nonzero">
            <path d="M0,0 C0.742301961,0.313398693 1.22957516,2.23039216 1.22957516,2.23039216 L5.83333333,18.2434641 C6.36404314,20.2473856 8.04313725,21.3031046 9.92238562,21.3031046 L20.0163399,21.3031046 C19.2934824,21.1738562 18.500817,19.0441176 18.500817,19.0441176 L13.3823529,3.11683007 C12.6457333,0.683986928 11.4035948,0 9.52205882,0 L0,0 Z M42.7205882,0 C40.8344771,0 39.6140614,0.683986928 38.8888889,3.11683007 L33.7418301,19.0441176 C33.7418301,19.0441176 32.9571712,21.1738562 32.2263072,21.3031046 L42.3202614,21.3031046 C44.2086601,21.3031046 45.871732,20.2473856 46.4093137,18.2434641 L51.0130719,2.23039216 C51.0130719,2.23039216 51.5151778,0.313398693 52.2712418,0 L42.7205882,0 Z M20.5310458,0.114379085 L20.5310458,21.3031046 L31.7687908,21.3031046 L31.7687908,0.114379085 L20.5310458,0.114379085 Z" id="path2448"></path>
            <path d="M86.8995098,4.7753268 L82.4673203,5.20424837 L82.4673203,7.54901961 L80.6658497,7.54901961 L80.6658497,9.89379085 L82.4673203,9.89379085 L82.4673203,17.128268 C82.4673203,18.2663399 82.6823621,19.1196078 83.0678105,19.7017974 C83.4761438,20.3011438 84.0514889,20.7620915 84.8406863,21.1029412 C85.6287582,21.4575163 86.7485477,21.6176471 88.1862745,21.6176471 C88.795915,21.6176471 89.6194627,21.5101307 90.6740196,21.245915 L90.6740196,18.9583333 C90.1547386,19.0601307 89.7086876,19.129902 89.3300654,19.129902 C88.5316993,19.129902 87.9128993,18.9640523 87.5,18.6151961 C87.0893791,18.2720588 86.8994915,17.6029412 86.8995098,16.6135621 L86.8995098,9.89379085 L90.3880719,9.89379085 L90.3880719,7.54901961 L86.8995098,7.54901961 L86.8995098,4.7753268 Z M58.4477124,7.23447712 C56.7492013,7.23447712 55.3137255,7.54901961 54.1584967,8.17810458 C52.9964235,8.80375817 52.1362745,9.65931373 51.5277778,10.751634 C50.9192902,11.845098 50.6127451,13.048366 50.6127451,14.3259804 C50.6127542,15.7122549 50.9616013,17.0161765 51.6707516,18.1862745 C52.3833516,19.3666667 53.4230392,20.223366 54.7589869,20.7883987 C56.0846497,21.35 57.6287582,21.6176471 59.3913399,21.6176471 C61.2637072,21.6176471 63.2230392,21.3705882 65.3104575,20.8455882 L65.3104575,18.2720588 C63.4689542,18.8199346 61.8035948,19.1013072 60.3349673,19.1013072 C59.1889072,19.1013072 58.2990196,18.9285948 57.6184641,18.6151961 C56.9402052,18.3017974 56.3854575,17.8888889 55.9885621,17.3570261 C55.5905229,16.8251634 55.3503268,16.0862745 55.245098,15.1552288 L65.3676471,15.1552288 C65.3287856,12.1104575 64.7019608,10.0436275 63.4517974,8.92156863 C62.2119373,7.80408497 60.5362745,7.23447712 58.4477124,7.23447712 Z M73.8888889,7.23447712 C71.6081699,7.23447712 69.9119098,7.62107843 68.7990196,8.40686275 C67.6849673,9.1754902 67.140532,10.1671569 67.1405229,11.3521242 C67.1405229,12.3495098 67.4813908,13.1375817 68.2271242,13.754085 C68.9568627,14.3888889 70.115532,14.979085 71.6584967,15.498366 L73.1454248,15.9844771 C73.9026144,16.2281046 74.451634,16.5026144 74.8325163,16.7565359 C75.1962418,17.029902 75.375817,17.3604575 75.375817,17.7573529 C75.375817,18.2045752 75.1242105,18.5477124 74.6323529,18.8439542 C74.1439542,19.1367647 73.4737111,19.3014706 72.6593137,19.3014706 C71.1094771,19.3014706 69.2496732,18.9114379 67.0547386,18.1576797 L67.0547386,20.874183 C69.070098,21.3728758 71.0465503,21.6176471 72.9738562,21.6176471 C75.2362745,21.6176471 76.9576889,21.1761438 78.1495098,20.3022876 C79.3333333,19.4318627 79.9223856,18.4310458 79.9223856,17.2712418 C79.9223856,16.3893791 79.595234,15.624183 78.9501634,14.9836601 C78.2913399,14.3488562 76.9187725,13.6968954 74.8039216,13.0106209 L73.5171569,12.5816993 C72.7496732,12.3437908 72.2235386,12.1138889 71.9444444,11.8668301 C71.6447712,11.6106209 71.4869098,11.3017974 71.4869281,10.9803922 C71.4869281,10.5617647 71.7122366,10.2369281 72.1732026,9.97957516 C72.6261438,9.71764706 73.316966,9.57924837 74.2320261,9.57924837 C75.4078431,9.57924837 76.8844863,9.81715686 78.6642157,10.2941176 L78.6642157,7.72058824 C76.8181373,7.39232026 75.2271059,7.23447712 73.8888889,7.23447712 Z M102.512255,7.23447712 C101.305565,7.23447712 100.245261,7.48839869 99.3668301,7.97794118 C98.4872458,8.47892157 97.7803922,9.19264706 97.2222222,10.1797386 L97.2222222,7.54901961 L92.7900327,7.54901961 L92.7900327,26.3071895 L97.2222222,26.3071895 L97.2222222,19.873366 C97.818119,20.376634 98.3477124,20.7506536 98.7949346,20.9599673 C99.2513163,21.1784314 99.6973856,21.3580065 100.196078,21.4746732 C100.684495,21.5879085 101.246078,21.6176471 101.82598,21.6176471 C104.011774,21.6176471 105.696569,20.8901961 106.91585,19.4444444 C108.131727,18.0055556 108.745915,16.2235294 108.745915,14.0686275 C108.745888,12.0246732 108.206046,10.374183 107.116013,9.12173203 C106.028277,7.86813725 104.488725,7.23447712 102.512255,7.23447712 Z M117.038399,7.23447712 C115.052778,7.23447712 113.064869,7.5627451 111.062092,8.20669935 L111.062092,10.7802288 C112.818954,9.96356209 114.552941,9.55065359 116.237745,9.55065359 C117.092139,9.55065359 117.800163,9.69362745 118.353758,9.97957516 C118.917629,10.2746732 119.183007,10.8488562 119.183007,11.6952614 L119.183007,12.9248366 L118.010621,12.9248366 C115.055065,12.9248366 112.927614,13.3697712 111.605392,14.2687908 C110.295779,15.1792484 109.632353,16.3207516 109.632353,17.6715686 C109.63238,18.7776144 110.073856,19.698366 110.947712,20.4738562 C111.830746,21.2344771 113.003105,21.6176471 114.464869,21.6176471 C115.032162,21.6176471 115.558333,21.5570261 116.066176,21.4460784 C116.568292,21.3294118 117.061275,21.1887255 117.52451,20.9599673 C117.988907,20.7289216 118.564216,20.3640523 119.211601,19.8447712 L119.38317,19.8447712 C119.694281,20.5767974 120.168954,21.0457516 120.755719,21.2745098 C121.34478,21.5089869 122.048203,21.6176471 122.871732,21.6176471 C123.593437,21.6176471 124.421569,21.5181373 125.359477,21.2745098 L125.302288,19.1870915 C125.056382,19.2145425 124.839052,19.2156863 124.673203,19.2156863 C124.399864,19.2156863 124.121895,19.1287582 123.843954,18.9583333 C123.570579,18.7982026 123.443627,18.3658497 123.443627,17.6143791 L123.443627,11.5236928 C123.443637,10.3718954 123.148529,9.5254902 122.585784,8.9501634 C122.012727,8.37254902 121.252124,7.94248366 120.298203,7.66339869 C119.341975,7.38888889 118.243954,7.23447712 117.038399,7.23447712 Z M134.509804,7.23447712 C131.658333,7.23447712 129.459958,7.90816993 127.990196,9.23611111 C126.513562,10.5640523 125.788371,12.2980392 125.788399,14.4117647 C125.788399,16.4374183 126.479267,18.1611111 127.875817,19.5588235 C129.26781,20.9370915 131.362092,21.6176471 134.138072,21.6176471 C135.701634,21.6176471 137.388753,21.4312092 139.199346,21.0171569 L139.199346,18.4436275 C137.823366,18.8897059 136.495434,19.129902 135.196078,19.129902 C134.299346,19.129902 133.483824,18.9388889 132.765523,18.5866013 C132.04951,18.2308824 131.500499,17.6738562 131.107026,16.8995098 C130.702124,16.1263072 130.506508,15.2833333 130.506536,14.3831699 C130.506536,13.2256536 130.843927,12.1493464 131.535948,11.1805556 C132.227941,10.2083333 133.323675,9.75081699 134.824346,9.75081699 C135.883497,9.75081699 137.307525,9.99330065 139.084967,10.494281 L139.084967,7.77777778 C137.358987,7.40833333 135.83661,7.23447712 134.509804,7.23447712 Z M58.3047386,9.57924837 C59.0904954,9.57924837 59.7310458,9.84117647 60.2205882,10.379902 C60.7158222,10.9163399 60.9640523,11.7993464 60.9640523,13.0392157 L55.1879085,13.0392157 C55.3262889,11.9034314 55.6705882,11.0570261 56.2173203,10.4656863 C56.7674654,9.8754902 57.4606209,9.57924837 58.3047386,9.57924837 Z M100.882353,10.1797386 C101.894608,10.1797386 102.656373,10.5754902 103.198529,11.3235294 C103.74754,12.069281 104.027778,13.0952614 104.027778,14.3831699 C104.027769,15.6447712 103.74183,16.7462418 103.169935,17.7287582 C102.598067,18.703268 101.744771,19.1870915 100.56781,19.1870915 C100.016512,19.1870915 99.4674837,19.0830065 98.9379085,18.872549 C98.4037673,18.6563725 97.8330065,18.254902 97.2222222,17.6715686 L97.2222222,12.2671569 C97.7609294,11.620915 98.3316993,11.1187908 98.9665033,10.751634 C99.607017,10.3776144 100.256699,10.1797386 100.882353,10.1797386 Z M118.153595,15.0694444 L119.183007,15.0694444 L119.183007,17.8431373 C118.644254,18.2571895 118.113562,18.5511438 117.581699,18.7581699 C117.050971,18.9743464 116.522549,19.1013072 116.008987,19.1013072 C115.437082,19.1013072 114.952124,18.921732 114.522059,18.5866013 C114.10915,18.2503268 113.892974,17.8294118 113.892974,17.2998366 C113.892956,16.6581699 114.253268,16.1228758 114.95098,15.6985294 C115.65325,15.2764706 116.716993,15.0694444 118.153595,15.0694444 Z" id="path2454"></path>
        </g>
    </g>
</svg>