<?xml version="1.0" encoding="UTF-8"?>
<svg width="160px" height="72px" viewBox="0 0 160 72" version="1.1" xmlns="http://www.w3.org/2000/svg" xmlns:xlink="http://www.w3.org/1999/xlink">
    <!-- Generator: Sketch 49.2 (51160) - http://www.bohemiancoding.com/sketch -->
    <title>customer/zillow</title>
    <desc>Created with Sketch.</desc>
    <defs></defs>
    <g id="customer/zillow" stroke="none" stroke-width="1" fill="none" fill-rule="evenodd">
        <g id="zillow" transform="translate(10.000000, 20.000000)" fill="#000000">
            <path d="M21.2919,0 C19.1212,1.0024 12.8765,5.7904 9.5158,8.3048 C13.6059,6.9489 23.4409,4.7817 28.476,4.6648 C26.9038,3.5623 22.4833,0.5796 21.2919,0 Z M1.659,30.9155 C3.045,30.3079 16.1938,25.963 28.2821,25.2427 C28.5453,24.2305 29.8718,20.8397 30.1126,19.9178 C17.5665,20.8061 7.3703,24.5238 3.2732,26.4089 L1.659,30.9155 Z M29.4154,5.3165 C29.4154,5.3165 17.2109,17.4937 15.3006,19.2395 C19.0106,17.9067 26.6168,16.3247 31.4426,16.0398 C32.0033,14.3388 32.5969,13.1068 32.5969,13.1068 L39.0565,12.4677 C39.0565,12.4677 34.1488,8.526 29.4154,5.3165 L29.4154,5.3165 Z M3.7506,25.0999 C7.5971,21.1687 21.4256,8.4959 21.4256,8.4959 C14.2317,10.1619 6.7214,12.4292 4.0362,13.6409 L0,17.7639 C3.3712,17.0471 4.4611,16.9071 6.9272,16.5459 L3.7506,25.0999 Z M57.1039,29.3216 L39.9049,29.3216 L39.9049,25.4401 L50.302,7.5845 C51.0552,6.3168 51.4612,5.3354 51.4612,5.3354 C51.4612,5.3354 50.8571,5.2864 49.1932,5.2864 L40.712,5.2864 L41.9412,0.6902 L58.4248,0.6902 L58.4248,4.6921 L47.95,23.023 C47.5949556,23.6132037 47.2521161,24.2106639 46.9217,24.815 C46.9217,24.815 48.1474,24.8059 49.2562,24.8059 L58.5298,24.8059 L57.1039,29.3216 L57.1039,29.3216 Z M64.82,9.1637 C63.035,9.1637 61.5706,7.6965 61.5706,5.8737 C61.5706,4.0516 63.0749,2.5844 64.897,2.5844 C66.682,2.5844 68.1079,4.0516 68.1079,5.8744 C68.1079,7.6965 66.6428,9.1637 64.82,9.1637 Z M62.1642,29.3629 L62.1733,11.5213 L67.4653,10.3362 L67.4744,29.3622 L62.1642,29.3622 L62.1642,29.3629 Z M72.6964,29.3097 L78.1256,29.3097 L78.0878,0 L72.6593,1.2285 L72.6971,29.3097 L72.6964,29.3097 Z M83.2468,29.3097 L88.676,29.3097 L88.6389,0 L83.209,1.2285 L83.2475,29.3097 L83.2468,29.3097 Z M134.2145,29.3216 L129.3404,29.3216 L127.5176,22.3496 C127.0829,20.7249 126.6055,18.7824 126.3696,17.4356 C126.2114,16.4836 126.1715,16.2071 126.0525,15.4147 C125.9321,16.2862 125.8929,16.5641 125.5772,18.0285 C125.1803,19.7743 124.3081,23.2617 123.8328,25.1615 L122.8024,29.3216 L117.8499,29.3216 L112.2009,9.0321 L117.621,9.0321 L119.238,16.6033 C119.7518,18.9413 120.3853,22.9047 120.3853,22.9047 C120.3853,22.9047 120.9012,19.2976 121.8518,15.8501 L123.7537,9.0349 L128.7468,9.0349 L130.3708,15.7325 C131.2836,19.4964 131.8765,22.9047 131.8765,22.9047 C131.9962,22.0318 132.4323,18.8615 132.9867,16.2862 L134.5309,9.0342 L140,9.0342 L134.2152,29.3216 L134.2145,29.3216 Z M108.5028,26.9451 C106.9572,28.6902 104.9356,29.7577 101.8059,29.7577 C96.2969,29.7577 92.6919,25.6389 92.6919,19.2584 C92.6919,12.8779 96.3375,8.638 101.8059,8.638 C104.6997,8.638 106.9572,9.6292 108.7002,11.69 C110.327,13.5926 111.0389,15.8109 111.0389,19.0995 C111.0389,22.5862 110.2465,24.9648 108.5028,26.9451 Z M104.1831,13.6311 C103.6686,12.9577 102.8377,12.5608 101.8864,12.5608 C100.6166,12.5608 99.5876,13.3539 99.1515,14.6223 C98.7959,15.6919 98.5957,17.1178 98.5957,19.1387 C98.5957,21.4767 98.8337,23.2211 99.2705,24.2508 C99.7458,25.3603 100.9344,25.9168 101.9641,25.9168 C104.2615,25.9168 105.2534,23.856 105.2534,19.061 C105.2534,16.3254 104.8964,14.5425 104.1831,13.6311 L104.1831,13.6311 Z" id="Shape"></path>
        </g>
    </g>
</svg>